<?xml version="1.0" encoding="UTF-8"?>
<!--Generator: Apple Native CoreSVG 123-->
<!DOCTYPE svg
PUBLIC "-//W3C//DTD SVG 1.1//EN"
       "http://www.w3.org/Graphics/SVG/1.1/DTD/svg11.dtd">
<svg version="1.1" xmlns="http://www.w3.org/2000/svg" xmlns:xlink="http://www.w3.org/1999/xlink" width="3300" height="2200">
 <!--glyph: "uni1001E0.medium", point size: 100.000000, font version: "Version 15.0d7e11", template writer version: "5"-->
 <g id="Notes">
  <rect height="2200" id="artboard" style="fill:white;opacity:1" width="3300" x="0" y="0"/>
  <line id="" style="fill:none;stroke:black;opacity:1;stroke-width:0.5;" x1="263" x2="3036" y1="292" y2="292"/>
  <text style="stroke:none;fill:black;font-family:-apple-system,&quot;SF Pro Display&quot;,&quot;SF Pro Text&quot;,Helvetica,sans-serif;font-weight:bold;" transform="matrix(1 0 0 1 263 322)">Weight/Scale Variations</text>
  <text style="stroke:none;fill:black;font-family:-apple-system,&quot;SF Pro Display&quot;,&quot;SF Pro Text&quot;,Helvetica,sans-serif;text-anchor:middle;" transform="matrix(1 0 0 1 559.711 322)">Ultralight</text>
  <text style="stroke:none;fill:black;font-family:-apple-system,&quot;SF Pro Display&quot;,&quot;SF Pro Text&quot;,Helvetica,sans-serif;text-anchor:middle;" transform="matrix(1 0 0 1 856.422 322)">Thin</text>
  <text style="stroke:none;fill:black;font-family:-apple-system,&quot;SF Pro Display&quot;,&quot;SF Pro Text&quot;,Helvetica,sans-serif;text-anchor:middle;" transform="matrix(1 0 0 1 1153.13 322)">Light</text>
  <text style="stroke:none;fill:black;font-family:-apple-system,&quot;SF Pro Display&quot;,&quot;SF Pro Text&quot;,Helvetica,sans-serif;text-anchor:middle;" transform="matrix(1 0 0 1 1449.84 322)">Regular</text>
  <text style="stroke:none;fill:black;font-family:-apple-system,&quot;SF Pro Display&quot;,&quot;SF Pro Text&quot;,Helvetica,sans-serif;text-anchor:middle;" transform="matrix(1 0 0 1 1746.56 322)">Medium</text>
  <text style="stroke:none;fill:black;font-family:-apple-system,&quot;SF Pro Display&quot;,&quot;SF Pro Text&quot;,Helvetica,sans-serif;text-anchor:middle;" transform="matrix(1 0 0 1 2043.27 322)">Semibold</text>
  <text style="stroke:none;fill:black;font-family:-apple-system,&quot;SF Pro Display&quot;,&quot;SF Pro Text&quot;,Helvetica,sans-serif;text-anchor:middle;" transform="matrix(1 0 0 1 2339.98 322)">Bold</text>
  <text style="stroke:none;fill:black;font-family:-apple-system,&quot;SF Pro Display&quot;,&quot;SF Pro Text&quot;,Helvetica,sans-serif;text-anchor:middle;" transform="matrix(1 0 0 1 2636.69 322)">Heavy</text>
  <text style="stroke:none;fill:black;font-family:-apple-system,&quot;SF Pro Display&quot;,&quot;SF Pro Text&quot;,Helvetica,sans-serif;text-anchor:middle;" transform="matrix(1 0 0 1 2933.4 322)">Black</text>
  <line id="" style="fill:none;stroke:black;opacity:1;stroke-width:0.5;" x1="263" x2="3036" y1="1903" y2="1903"/>
  <g id="" transform="matrix(1 0 0 1 263 1933)">
   <path d="M 9.24805 0.830078 C 13.5547 0.830078 17.1387 -2.74414 17.1387 -7.05078 C 17.1387 -11.3574 13.5449 -14.9316 9.23828 -14.9316 C 4.94141 -14.9316 1.36719 -11.3574 1.36719 -7.05078 C 1.36719 -2.74414 4.95117 0.830078 9.24805 0.830078 Z M 9.24805 -0.654297 C 5.70312 -0.654297 2.87109 -3.49609 2.87109 -7.05078 C 2.87109 -10.6055 5.69336 -13.4473 9.23828 -13.4473 C 12.793 -13.4473 15.6348 -10.6055 15.6445 -7.05078 C 15.6543 -3.49609 12.8027 -0.654297 9.24805 -0.654297 Z M 9.22852 -3.42773 C 9.69727 -3.42773 9.9707 -3.74023 9.9707 -4.25781 L 9.9707 -6.31836 L 12.1973 -6.31836 C 12.6953 -6.31836 13.0371 -6.57227 13.0371 -7.04102 C 13.0371 -7.51953 12.7148 -7.7832 12.1973 -7.7832 L 9.9707 -7.7832 L 9.9707 -10.0098 C 9.9707 -10.5273 9.69727 -10.8496 9.22852 -10.8496 C 8.75977 -10.8496 8.50586 -10.5078 8.50586 -10.0098 L 8.50586 -7.7832 L 6.29883 -7.7832 C 5.78125 -7.7832 5.44922 -7.51953 5.44922 -7.04102 C 5.44922 -6.57227 5.80078 -6.31836 6.29883 -6.31836 L 8.50586 -6.31836 L 8.50586 -4.25781 C 8.50586 -3.75977 8.75977 -3.42773 9.22852 -3.42773 Z"/>
  </g>
  <g id="" transform="matrix(1 0 0 1 281.506 1933)">
   <path d="M 11.709 2.91016 C 17.1582 2.91016 21.6699 -1.60156 21.6699 -7.05078 C 21.6699 -12.4902 17.1484 -17.0117 11.6992 -17.0117 C 6.25977 -17.0117 1.74805 -12.4902 1.74805 -7.05078 C 1.74805 -1.60156 6.26953 2.91016 11.709 2.91016 Z M 11.709 1.25 C 7.09961 1.25 3.41797 -2.44141 3.41797 -7.05078 C 3.41797 -11.6504 7.08984 -15.3516 11.6992 -15.3516 C 16.3086 -15.3516 20 -11.6504 20.0098 -7.05078 C 20.0195 -2.44141 16.3184 1.25 11.709 1.25 Z M 11.6895 -2.41211 C 12.207 -2.41211 12.5195 -2.77344 12.5195 -3.33984 L 12.5195 -6.23047 L 15.5762 -6.23047 C 16.123 -6.23047 16.5039 -6.51367 16.5039 -7.03125 C 16.5039 -7.55859 16.1426 -7.86133 15.5762 -7.86133 L 12.5195 -7.86133 L 12.5195 -10.9277 C 12.5195 -11.5039 12.207 -11.8555 11.6895 -11.8555 C 11.1719 -11.8555 10.8789 -11.4844 10.8789 -10.9277 L 10.8789 -7.86133 L 7.83203 -7.86133 C 7.26562 -7.86133 6.89453 -7.55859 6.89453 -7.03125 C 6.89453 -6.51367 7.28516 -6.23047 7.83203 -6.23047 L 10.8789 -6.23047 L 10.8789 -3.33984 C 10.8789 -2.79297 11.1719 -2.41211 11.6895 -2.41211 Z"/>
  </g>
  <g id="" transform="matrix(1 0 0 1 304.924 1933)">
   <path d="M 14.9707 5.67383 C 21.9336 5.67383 27.6953 -0.078125 27.6953 -7.04102 C 27.6953 -14.0039 21.9238 -19.7559 14.9609 -19.7559 C 8.00781 -19.7559 2.25586 -14.0039 2.25586 -7.04102 C 2.25586 -0.078125 8.01758 5.67383 14.9707 5.67383 Z M 14.9707 3.85742 C 8.93555 3.85742 4.08203 -1.00586 4.08203 -7.04102 C 4.08203 -13.0762 8.92578 -17.9395 14.9609 -17.9395 C 21.0059 -17.9395 25.8594 -13.0762 25.8691 -7.04102 C 25.8789 -1.00586 21.0156 3.85742 14.9707 3.85742 Z M 14.9512 -1.06445 C 15.5176 -1.06445 15.8691 -1.45508 15.8691 -2.06055 L 15.8691 -6.13281 L 20.1074 -6.13281 C 20.6934 -6.13281 21.1133 -6.46484 21.1133 -7.02148 C 21.1133 -7.59766 20.7227 -7.93945 20.1074 -7.93945 L 15.8691 -7.93945 L 15.8691 -12.1875 C 15.8691 -12.8027 15.5176 -13.1934 14.9512 -13.1934 C 14.3848 -13.1934 14.0625 -12.7832 14.0625 -12.1875 L 14.0625 -7.93945 L 9.83398 -7.93945 C 9.21875 -7.93945 8.80859 -7.59766 8.80859 -7.02148 C 8.80859 -6.46484 9.23828 -6.13281 9.83398 -6.13281 L 14.0625 -6.13281 L 14.0625 -2.06055 C 14.0625 -1.47461 14.3848 -1.06445 14.9512 -1.06445 Z"/>
  </g>
  <text style="stroke:none;fill:black;font-family:-apple-system,&quot;SF Pro Display&quot;,&quot;SF Pro Text&quot;,Helvetica,sans-serif;font-weight:bold;" transform="matrix(1 0 0 1 263 1953)">Design Variations</text>
  <text style="stroke:none;fill:black;font-family:-apple-system,&quot;SF Pro Display&quot;,&quot;SF Pro Text&quot;,Helvetica,sans-serif;" transform="matrix(1 0 0 1 263 1971)">Symbols are supported in up to nine weights and three scales.</text>
  <text style="stroke:none;fill:black;font-family:-apple-system,&quot;SF Pro Display&quot;,&quot;SF Pro Text&quot;,Helvetica,sans-serif;" transform="matrix(1 0 0 1 263 1989)">For optimal layout with text and other symbols, vertically align</text>
  <text style="stroke:none;fill:black;font-family:-apple-system,&quot;SF Pro Display&quot;,&quot;SF Pro Text&quot;,Helvetica,sans-serif;" transform="matrix(1 0 0 1 263 2007)">symbols with the adjacent text.</text>
  <rect height="14" id="" style="fill:#00AEEF;stroke:none;opacity:0.4;" width="3" x="776" y="1919"/>
  <g id="" transform="matrix(1 0 0 1 779 1933)">
   <path d="M 10.5273 0 L 12.373 0 L 7.17773 -14.0918 L 5.43945 -14.0918 L 0.244141 0 L 2.08984 0 L 3.50586 -4.0332 L 9.11133 -4.0332 Z M 6.2793 -11.9531 L 6.33789 -11.9531 L 8.59375 -5.52734 L 4.02344 -5.52734 Z"/>
  </g>
  <rect height="14" id="" style="fill:#00AEEF;stroke:none;opacity:0.4;" width="3" x="791.617" y="1919"/>
  <text style="stroke:none;fill:black;font-family:-apple-system,&quot;SF Pro Display&quot;,&quot;SF Pro Text&quot;,Helvetica,sans-serif;font-weight:bold;" transform="matrix(1 0 0 1 776 1953)">Margins</text>
  <text style="stroke:none;fill:black;font-family:-apple-system,&quot;SF Pro Display&quot;,&quot;SF Pro Text&quot;,Helvetica,sans-serif;" transform="matrix(1 0 0 1 776 1971)">Leading and trailing margins on the left and right side of each symbol</text>
  <text style="stroke:none;fill:black;font-family:-apple-system,&quot;SF Pro Display&quot;,&quot;SF Pro Text&quot;,Helvetica,sans-serif;" transform="matrix(1 0 0 1 776 1989)">can be adjusted by modifying the width of the blue rectangles.</text>
  <text style="stroke:none;fill:black;font-family:-apple-system,&quot;SF Pro Display&quot;,&quot;SF Pro Text&quot;,Helvetica,sans-serif;" transform="matrix(1 0 0 1 776 2007)">Modifications are automatically applied proportionally to all</text>
  <text style="stroke:none;fill:black;font-family:-apple-system,&quot;SF Pro Display&quot;,&quot;SF Pro Text&quot;,Helvetica,sans-serif;" transform="matrix(1 0 0 1 776 2025)">scales and weights.</text>
  <g id="" transform="matrix(1 0 0 1 1289 1933)">
   <path d="M 2.83203 3.11523 L 4.375 4.6582 C 5.22461 5.48828 6.19141 5.41992 7.06055 4.46289 L 17.2754 -6.66016 C 17.7051 -6.36719 18.0957 -6.37695 18.5645 -6.47461 L 19.6094 -6.68945 L 20.3027 -5.99609 L 20.2539 -5.47852 C 20.1855 -4.95117 20.3516 -4.53125 20.8496 -4.0332 L 21.6602 -3.22266 C 22.168 -2.71484 22.8223 -2.68555 23.3008 -3.16406 L 26.5527 -6.41602 C 27.0312 -6.89453 27.0117 -7.54883 26.5039 -8.05664 L 25.6836 -8.87695 C 25.1855 -9.375 24.7754 -9.55078 24.2383 -9.47266 L 23.7109 -9.41406 L 23.0566 -10.0781 L 23.3398 -11.2207 C 23.4863 -11.7871 23.3398 -12.2559 22.7148 -12.8613 L 20.3027 -15.2539 C 16.7578 -18.7793 12.2266 -18.6719 9.11133 -15.5371 C 8.69141 -15.1074 8.64258 -14.5215 8.91602 -14.0918 C 9.15039 -13.7207 9.62891 -13.4961 10.2734 -13.6621 C 11.7871 -14.043 13.3008 -13.9258 14.7852 -12.9199 L 14.1602 -11.3379 C 13.9258 -10.752 13.9453 -10.2734 14.1797 -9.83398 L 3.01758 0.439453 C 2.08008 1.30859 1.97266 2.25586 2.83203 3.11523 Z M 10.6738 -15.1465 C 13.3398 -17.1387 16.6504 -16.8262 19.0527 -14.4141 L 21.6797 -11.8066 C 21.9141 -11.5723 21.9434 -11.3867 21.8848 -11.0938 L 21.5039 -9.53125 L 23.0762 -7.95898 L 24.043 -8.04688 C 24.3262 -8.07617 24.4141 -8.05664 24.6387 -7.83203 L 25.2637 -7.20703 L 22.5098 -4.46289 L 21.8848 -5.07812 C 21.6602 -5.30273 21.6406 -5.40039 21.6699 -5.68359 L 21.7578 -6.64062 L 20.1953 -8.20312 L 18.5742 -7.89062 C 18.291 -7.83203 18.1445 -7.83203 17.9102 -8.07617 L 15.7324 -10.2539 C 15.5078 -10.4883 15.4785 -10.625 15.6055 -10.9473 L 16.5527 -13.2227 C 14.9512 -14.7559 12.8418 -15.6055 10.8008 -14.9512 C 10.7129 -14.9219 10.6445 -14.9414 10.6152 -14.9805 C 10.5859 -15.0293 10.5859 -15.0781 10.6738 -15.1465 Z M 4.10156 2.41211 C 3.61328 1.91406 3.78906 1.61133 4.12109 1.30859 L 15.0781 -8.80859 L 16.3086 -7.57812 L 6.15234 3.34961 C 5.84961 3.68164 5.46875 3.7793 5.06836 3.37891 Z"/>
  </g>
  <text style="stroke:none;fill:black;font-family:-apple-system,&quot;SF Pro Display&quot;,&quot;SF Pro Text&quot;,Helvetica,sans-serif;font-weight:bold;" transform="matrix(1 0 0 1 1289 1953)">Exporting</text>
  <text style="stroke:none;fill:black;font-family:-apple-system,&quot;SF Pro Display&quot;,&quot;SF Pro Text&quot;,Helvetica,sans-serif;" transform="matrix(1 0 0 1 1289 1971)">Symbols should be outlined when exporting to ensure the</text>
  <text style="stroke:none;fill:black;font-family:-apple-system,&quot;SF Pro Display&quot;,&quot;SF Pro Text&quot;,Helvetica,sans-serif;" transform="matrix(1 0 0 1 1289 1989)">design is preserved when submitting to Xcode.</text>
  <text id="template-version" style="stroke:none;fill:black;font-family:-apple-system,&quot;SF Pro Display&quot;,&quot;SF Pro Text&quot;,Helvetica,sans-serif;text-anchor:end;" transform="matrix(1 0 0 1 3036 1933)">Template v.1.0</text>
  <text style="stroke:none;fill:black;font-family:-apple-system,&quot;SF Pro Display&quot;,&quot;SF Pro Text&quot;,Helvetica,sans-serif;text-anchor:end;" transform="matrix(1 0 0 1 3036 1951)">Generated from cloud.moon.bolt</text>
  <text style="stroke:none;fill:black;font-family:-apple-system,&quot;SF Pro Display&quot;,&quot;SF Pro Text&quot;,Helvetica,sans-serif;text-anchor:end;" transform="matrix(1 0 0 1 3036 1969)">Typeset at 100 points</text>
  <text style="stroke:none;fill:black;font-family:-apple-system,&quot;SF Pro Display&quot;,&quot;SF Pro Text&quot;,Helvetica,sans-serif;" transform="matrix(1 0 0 1 263 726)">Small</text>
  <text style="stroke:none;fill:black;font-family:-apple-system,&quot;SF Pro Display&quot;,&quot;SF Pro Text&quot;,Helvetica,sans-serif;" transform="matrix(1 0 0 1 263 1156)">Medium</text>
  <text style="stroke:none;fill:black;font-family:-apple-system,&quot;SF Pro Display&quot;,&quot;SF Pro Text&quot;,Helvetica,sans-serif;" transform="matrix(1 0 0 1 263 1586)">Large</text>
 </g>
 <g id="Guides">
  <g id="H-reference" style="fill:#27AAE1;stroke:none;" transform="matrix(1 0 0 1 339 696)">
   <path d="M 54.9316 0 L 57.666 0 L 30.5664 -70.459 L 28.0762 -70.459 L 0.976562 0 L 3.66211 0 L 12.9395 -24.4629 L 45.7031 -24.4629 Z M 29.1992 -67.0898 L 29.4434 -67.0898 L 44.8242 -26.709 L 13.8184 -26.709 Z"/>
  </g>
  <line id="Baseline-S" style="fill:none;stroke:#27AAE1;opacity:1;stroke-width:0.577;" x1="263" x2="3036" y1="696" y2="696"/>
  <line id="Capline-S" style="fill:none;stroke:#27AAE1;opacity:1;stroke-width:0.577;" x1="263" x2="3036" y1="625.541" y2="625.541"/>
  <g id="H-reference" style="fill:#27AAE1;stroke:none;" transform="matrix(1 0 0 1 339 1126)">
   <path d="M 54.9316 0 L 57.666 0 L 30.5664 -70.459 L 28.0762 -70.459 L 0.976562 0 L 3.66211 0 L 12.9395 -24.4629 L 45.7031 -24.4629 Z M 29.1992 -67.0898 L 29.4434 -67.0898 L 44.8242 -26.709 L 13.8184 -26.709 Z"/>
  </g>
  <line id="Baseline-M" style="fill:none;stroke:#27AAE1;opacity:1;stroke-width:0.577;" x1="263" x2="3036" y1="1126" y2="1126"/>
  <line id="Capline-M" style="fill:none;stroke:#27AAE1;opacity:1;stroke-width:0.577;" x1="263" x2="3036" y1="1055.54" y2="1055.54"/>
  <g id="H-reference" style="fill:#27AAE1;stroke:none;" transform="matrix(1 0 0 1 339 1556)">
   <path d="M 54.9316 0 L 57.666 0 L 30.5664 -70.459 L 28.0762 -70.459 L 0.976562 0 L 3.66211 0 L 12.9395 -24.4629 L 45.7031 -24.4629 Z M 29.1992 -67.0898 L 29.4434 -67.0898 L 44.8242 -26.709 L 13.8184 -26.709 Z"/>
  </g>
  <line id="Baseline-L" style="fill:none;stroke:#27AAE1;opacity:1;stroke-width:0.577;" x1="263" x2="3036" y1="1556" y2="1556"/>
  <line id="Capline-L" style="fill:none;stroke:#27AAE1;opacity:1;stroke-width:0.577;" x1="263" x2="3036" y1="1485.54" y2="1485.54"/>
  <rect height="119.336" id="left-margin" style="fill:#00AEEF;stroke:none;opacity:0.4;" width="8.74023" x="1377.16" y="1030.79"/>
  <rect height="119.336" id="right-margin" style="fill:#00AEEF;stroke:none;opacity:0.4;" width="8.72336" x="1513.8" y="1030.79"/>
 </g>
 <g id="Symbols">
  <g id="Black-L" transform="matrix(1 0 0 1 2832.37 1556)">
   <path d="M 42.2363 8.64258 L 111.572 8.64258 C 131.885 8.64258 147.705 -6.88477 147.705 -26.9043 L 147.705 -27.002 C 167.676 -26.8066 183.691 -37.8418 189.893 -55.0293 C 192.529 -62.3535 189.258 -68.5547 182.227 -68.5547 C 177.1 -68.5547 173.34 -66.4551 166.504 -66.4551 C 152.49 -66.4551 145.703 -73.9258 145.703 -88.3301 C 145.703 -95.9961 148.047 -101.074 148.047 -104.639 C 148.047 -111.572 141.797 -114.893 135.01 -112.598 C 118.457 -106.934 106.396 -90.3809 106.396 -72.4609 C 106.396 -72.0215 106.396 -71.6309 106.396 -71.2402 C 98.4863 -79.9805 87.3535 -84.668 74.0234 -84.668 C 51.8555 -84.668 33.5449 -68.9453 29.9805 -47.0215 C 18.5059 -43.2617 11.2305 -33.1055 11.2305 -20.5566 C 11.2305 -3.56445 24.2676 8.64258 42.2363 8.64258 Z M 120.654 -72.5098 C 120.654 -82.4707 125.586 -91.6992 133.398 -97.0703 L 134.229 -96.5332 C 133.252 -93.4082 132.324 -89.1602 132.324 -84.2285 C 132.324 -66.2109 144.727 -53.0762 163.232 -53.0762 C 168.213 -53.0762 171.484 -54.0527 174.072 -54.8828 L 174.609 -54.3457 C 169.824 -46.3867 159.277 -40.8691 144.629 -41.7969 C 140.479 -51.0742 132.52 -58.1055 122.559 -61.1328 C 121.289 -64.6484 120.654 -68.5059 120.654 -72.5098 Z M 42.6758 -8.69141 C 33.3008 -8.69141 28.6133 -13.5254 28.6133 -20.3613 C 28.6133 -26.416 32.373 -31.0547 41.0156 -33.252 C 44.6777 -34.1797 45.7031 -35.8887 46.2402 -39.5996 C 48.9258 -57.8125 60.0098 -67.3828 74.0234 -67.3828 C 84.4727 -67.3828 93.3105 -61.377 99.3164 -50.0977 C 100.977 -47.0703 102.686 -45.9473 106.494 -45.9473 C 122.949 -45.9473 130.371 -37.4023 130.371 -26.6602 C 130.371 -16.4551 122.754 -8.69141 111.133 -8.69141 Z M 97.7539 29.7363 L 83.0566 29.7363 L 88.1836 19.873 C 88.916 18.5059 88.3789 17.4316 86.9141 17.4316 L 68.5547 17.4316 C 66.748 17.4316 66.1621 18.0664 65.5762 19.3848 L 56.8359 39.2578 C 56.2012 40.7715 56.7871 41.7969 58.4473 41.7969 L 70.4102 41.7969 L 61.7676 62.7441 C 61.4258 63.5742 61.6211 64.3066 62.207 64.5508 C 62.7441 64.7461 63.4277 64.5996 64.1602 63.9648 L 98.6816 32.959 C 100.195 31.6895 99.6582 29.7363 97.7539 29.7363 Z"/>
  </g>
  <g id="Heavy-L" transform="matrix(1 0 0 1 2537.57 1556)">
   <path d="M 41.1133 7.32422 L 110.205 7.32422 C 129.98 7.32422 145.312 -7.71484 145.312 -27.0996 C 145.312 -27.2949 145.312 -27.4902 145.312 -27.6367 C 165.576 -27.6367 180.566 -39.0625 186.182 -54.834 C 188.574 -61.4258 185.547 -67.041 179.199 -67.041 C 174.463 -67.041 170.752 -65.0391 163.867 -65.0391 C 149.365 -65.0391 142.09 -72.9492 142.09 -87.4023 C 142.09 -95.0684 144.434 -99.7559 144.434 -103.32 C 144.434 -109.668 138.77 -112.744 132.422 -110.596 C 116.846 -105.371 104.736 -89.5996 104.736 -71.582 C 104.736 -71.1426 104.736 -70.6543 104.736 -70.166 C 96.9238 -78.9551 85.8887 -83.7891 72.8027 -83.7891 C 51.0254 -83.7891 33.0078 -67.9688 29.7852 -46.3379 C 18.5547 -42.7246 11.2305 -32.8613 11.2305 -20.6055 C 11.2305 -4.39453 23.6328 7.32422 41.1133 7.32422 Z M 117.48 -71.7285 C 117.48 -82.5195 123.34 -91.7969 131.25 -96.7773 L 132.031 -96.2891 C 131.006 -93.2129 130.029 -88.916 130.029 -83.8867 C 130.029 -65.918 142.529 -53.0273 160.986 -53.0273 C 165.82 -53.0273 169.434 -53.9062 172.119 -54.834 L 172.607 -54.3457 C 168.213 -46.5332 157.91 -40.0879 142.627 -40.7715 C 138.525 -50.5371 130.029 -57.8125 119.336 -60.5469 C 118.066 -64.0137 117.48 -67.7734 117.48 -71.7285 Z M 41.3574 -7.91016 C 31.543 -7.91016 26.5625 -13.1836 26.5625 -20.4102 C 26.5625 -26.709 30.4688 -31.6895 39.3066 -34.0332 C 42.7734 -34.9121 43.75 -36.4746 44.2383 -39.9902 C 46.6309 -58.1055 58.252 -68.5547 72.8027 -68.5547 C 83.8867 -68.5547 92.9199 -62.2559 98.9258 -50.8789 C 100.488 -47.9492 102.1 -46.9238 105.713 -46.9238 C 122.07 -46.9238 130.078 -37.9883 130.078 -26.8555 C 130.078 -16.2109 121.875 -7.91016 109.912 -7.91016 Z M 95.5078 28.8086 L 81.4453 28.8086 L 86.8164 18.6035 C 87.5488 17.2363 86.9629 16.1621 85.5469 16.1621 L 68.8965 16.1621 C 67.0898 16.1621 66.4551 16.7969 65.918 18.1152 L 57.373 37.5977 C 56.7383 39.1113 57.3242 40.0879 58.9844 40.0879 L 70.5078 40.0879 L 62.0117 60.5957 C 61.6211 61.4746 61.8164 62.1582 62.4023 62.4023 C 62.9883 62.6465 63.6719 62.5 64.3555 61.8164 L 96.4844 31.9824 C 97.9004 30.7129 97.3633 28.8086 95.5078 28.8086 Z"/>
  </g>
  <g id="Bold-L" transform="matrix(1 0 0 1 2242.98 1556)">
   <path d="M 39.7949 5.85938 L 108.691 5.85938 C 127.832 5.85938 142.676 -8.69141 142.676 -27.3926 C 142.676 -27.6855 142.676 -28.0273 142.676 -28.3691 C 163.184 -28.6133 177.051 -40.4297 182.031 -54.5898 C 184.18 -60.4004 181.396 -65.3809 175.781 -65.3809 C 171.484 -65.3809 167.822 -63.4277 160.938 -63.4277 C 145.85 -63.4277 138.037 -71.8262 138.037 -86.3281 C 138.037 -93.9941 140.43 -98.3398 140.43 -101.807 C 140.43 -107.52 135.4 -110.303 129.541 -108.35 C 115.137 -103.662 102.832 -88.7207 102.832 -70.6543 C 102.832 -70.0684 102.881 -69.5312 102.881 -68.9453 C 95.166 -77.7832 84.3262 -82.8125 71.4844 -82.8125 C 50.0977 -82.8125 32.373 -66.8945 29.541 -45.6055 C 18.6035 -42.1387 11.2793 -32.6172 11.2793 -20.6055 C 11.2793 -5.32227 22.9492 5.85938 39.7949 5.85938 Z M 113.916 -70.8008 C 113.916 -82.5684 120.801 -91.8945 128.857 -96.4844 L 129.541 -95.9961 C 128.516 -92.9199 127.49 -88.5742 127.49 -83.5449 C 127.49 -65.625 140.137 -52.9297 158.496 -52.9297 C 163.232 -52.9297 167.09 -53.8086 169.971 -54.7852 L 170.41 -54.2969 C 166.455 -46.6797 156.348 -39.2578 140.381 -39.6484 C 136.328 -49.9023 127.246 -57.4219 115.723 -59.7656 C 114.551 -63.2324 113.916 -66.9434 113.916 -70.8008 Z M 39.9414 -7.08008 C 29.5898 -7.08008 24.2188 -12.793 24.2188 -20.4102 C 24.2188 -27.0996 28.3691 -32.4707 37.3535 -34.8633 C 40.5762 -35.6934 41.5527 -37.1094 41.9434 -40.3809 C 43.9941 -58.4473 56.3477 -69.873 71.4844 -69.873 C 83.2031 -69.873 92.4805 -63.2324 98.4863 -51.709 C 99.9023 -48.9258 101.465 -47.998 104.785 -47.998 C 121.143 -47.998 129.736 -38.623 129.736 -27.0996 C 129.736 -15.918 120.898 -7.08008 108.545 -7.08008 Z M 93.0176 27.7832 L 79.6875 27.7832 L 85.2539 17.1875 C 85.9863 15.8203 85.4004 14.7461 84.0332 14.7461 L 69.2383 14.7461 C 67.4316 14.7461 66.8457 15.3809 66.2598 16.6992 L 57.959 35.6934 C 57.2754 37.207 57.959 38.1836 59.5703 38.1836 L 70.5566 38.1836 L 62.2559 58.252 C 61.8652 59.1309 62.0605 59.8145 62.6465 60.0586 C 63.2324 60.3027 63.916 60.1074 64.5996 59.4238 L 93.9941 30.9082 C 95.3125 29.5898 94.8242 27.7832 93.0176 27.7832 Z"/>
  </g>
  <g id="Semibold-L" transform="matrix(1 0 0 1 1947.71 1556)">
   <path d="M 38.916 4.83398 L 107.666 4.83398 C 126.318 4.83398 140.869 -9.32617 140.869 -27.5391 C 140.869 -27.9785 140.869 -28.418 140.82 -28.8574 C 161.523 -29.2969 174.658 -41.3574 179.199 -54.4434 C 181.152 -59.7168 178.516 -64.2578 173.438 -64.2578 C 169.385 -64.2578 165.869 -62.3535 158.936 -62.3535 C 143.457 -62.3535 135.254 -71.0449 135.254 -85.5957 C 135.254 -93.2617 137.646 -97.3145 137.646 -100.781 C 137.646 -106.055 133.057 -108.594 127.588 -106.787 C 113.916 -102.49 101.562 -88.1348 101.562 -70.0195 C 101.562 -69.3848 101.562 -68.75 101.611 -68.1152 C 93.9453 -77.002 83.2031 -82.1289 70.5566 -82.1289 C 49.4141 -82.1289 31.9336 -66.1133 29.3945 -45.0684 C 18.6035 -41.748 11.2793 -32.4707 11.2793 -20.6543 C 11.2793 -5.9082 22.4609 4.83398 38.916 4.83398 Z M 111.475 -70.166 C 111.475 -82.6172 119.092 -91.9922 127.197 -96.2891 L 127.832 -95.8008 C 126.758 -92.7734 125.732 -88.3789 125.732 -83.252 C 125.732 -65.4297 138.428 -52.8809 156.738 -52.8809 C 161.377 -52.8809 165.479 -53.7109 168.457 -54.7363 L 168.896 -54.2969 C 165.186 -46.7773 155.273 -38.6719 138.818 -38.8672 C 134.863 -49.4629 125.342 -57.1289 113.281 -59.2285 C 112.109 -62.6465 111.475 -66.3574 111.475 -70.166 Z M 38.916 -6.49414 C 28.2715 -6.49414 22.6074 -12.5488 22.6074 -20.459 C 22.6074 -27.3438 26.8555 -32.959 36.0352 -35.4492 C 39.0625 -36.2305 40.0391 -37.5977 40.3809 -40.6738 C 42.1875 -58.6426 55.0293 -70.8008 70.5566 -70.8008 C 82.7148 -70.8008 92.2363 -63.8672 98.1445 -52.2461 C 99.5117 -49.6094 101.025 -48.7305 104.199 -48.7305 C 120.459 -48.7305 129.541 -39.1113 129.541 -27.2949 C 129.541 -15.7227 120.215 -6.49414 107.617 -6.49414 Z M 91.2598 27.0996 L 78.418 27.0996 L 84.1797 16.2109 C 84.9121 14.8438 84.375 13.7695 82.959 13.7695 L 69.4336 13.7695 C 67.6758 13.7695 67.0898 14.4531 66.5039 15.7227 L 58.3496 34.375 C 57.666 35.8887 58.3496 36.8652 59.9609 36.8652 L 70.6055 36.8652 L 62.4023 56.6406 C 62.0605 57.5195 62.2559 58.1543 62.8418 58.3984 C 63.4277 58.6426 64.1113 58.4961 64.7461 57.7637 L 92.2852 30.1758 C 93.5547 28.8574 93.0664 27.0996 91.2598 27.0996 Z"/>
  </g>
  <g id="Medium-L" transform="matrix(1 0 0 1 1652.12 1556)">
   <path d="M 38.2812 4.10156 L 106.836 4.10156 C 125.195 4.10156 139.502 -9.81445 139.502 -27.6855 C 139.502 -28.1738 139.453 -28.7109 139.453 -29.1992 C 160.254 -29.7852 172.852 -42.041 177.002 -54.3457 C 178.857 -59.1797 176.318 -63.3789 171.68 -63.3789 C 167.822 -63.3789 164.355 -61.5234 157.373 -61.5234 C 141.65 -61.5234 133.154 -70.4102 133.154 -85.0098 C 133.154 -92.7246 135.547 -96.582 135.547 -100 C 135.547 -104.932 131.299 -107.324 126.074 -105.664 C 112.988 -101.611 100.586 -87.6465 100.586 -69.5312 C 100.586 -68.8477 100.586 -68.1641 100.635 -67.4805 C 93.0176 -76.416 82.373 -81.5918 69.8242 -81.5918 C 48.9258 -81.5918 31.5918 -65.5762 29.2969 -44.6777 C 18.6523 -41.4062 11.2793 -32.3242 11.2793 -20.6543 C 11.2793 -6.39648 22.0703 4.10156 38.2812 4.10156 Z M 109.619 -69.7266 C 109.619 -82.666 117.773 -92.041 125.977 -96.0938 L 126.562 -95.6543 C 125.439 -92.627 124.365 -88.2324 124.365 -83.0566 C 124.365 -65.2344 137.158 -52.832 155.42 -52.832 C 160.01 -52.832 164.258 -53.6621 167.334 -54.6875 L 167.773 -54.2969 C 164.258 -46.875 154.443 -38.2324 137.646 -38.2812 C 133.74 -49.1211 123.926 -56.9336 111.426 -58.7891 C 110.254 -62.207 109.619 -65.8691 109.619 -69.7266 Z M 38.1836 -6.05469 C 27.2461 -6.05469 21.4355 -12.3535 21.4355 -20.459 C 21.4355 -27.4902 25.7812 -33.3496 35.0098 -35.8887 C 37.9395 -36.6699 38.916 -37.9395 39.209 -40.8691 C 40.8203 -58.8379 54.0039 -71.4844 69.8242 -71.4844 C 82.373 -71.4844 91.9922 -64.3555 97.9492 -52.6855 C 99.2188 -50.1465 100.684 -49.2676 103.711 -49.2676 C 119.971 -49.2676 129.346 -39.4531 129.346 -27.3926 C 129.346 -15.5273 119.727 -6.05469 106.885 -6.05469 Z M 89.9414 26.5625 L 77.4902 26.5625 L 83.3984 15.4785 C 84.082 14.1113 83.5449 13.0371 82.1289 13.0371 L 69.6289 13.0371 C 67.8711 13.0371 67.2852 13.6719 66.6992 14.9902 L 58.6426 33.3496 C 57.959 34.9121 58.6914 35.8398 60.3027 35.8398 L 70.6543 35.8398 L 62.5488 55.4199 C 62.1582 56.25 62.3535 56.9336 62.9395 57.1777 C 63.5254 57.4219 64.2578 57.2266 64.8926 56.543 L 90.9668 29.5898 C 92.2363 28.2715 91.748 26.5625 89.9414 26.5625 Z"/>
  </g>
  <g id="Regular-L" transform="matrix(1 0 0 1 1356.85 1556)">
   <path d="M 37.4023 3.07617 L 105.811 3.07617 C 123.73 3.07617 137.695 -10.4492 137.695 -27.832 C 137.695 -28.4668 137.646 -29.1016 137.598 -29.6875 C 158.643 -30.4688 170.459 -42.9688 174.219 -54.1992 C 175.83 -58.4473 173.486 -62.2559 169.336 -62.2559 C 165.82 -62.2559 162.354 -60.4004 155.371 -60.4004 C 139.258 -60.4004 130.371 -69.6777 130.371 -84.3262 C 130.371 -91.9922 132.812 -95.6055 132.812 -98.9746 C 132.812 -103.516 128.955 -105.664 124.072 -104.102 C 111.768 -100.439 99.3164 -87.0605 99.3164 -68.8965 C 99.3164 -68.1152 99.3164 -67.3828 99.3652 -66.6504 C 91.8457 -75.5859 81.2988 -80.957 68.8965 -80.957 C 48.291 -80.957 31.1523 -64.8438 29.1504 -44.1895 C 18.6523 -41.0156 11.2793 -32.1777 11.2793 -20.7031 C 11.2793 -7.03125 21.582 3.07617 37.4023 3.07617 Z M 107.227 -69.0918 C 107.227 -82.7148 116.064 -92.1387 124.316 -95.8984 L 124.902 -95.459 C 123.73 -92.4316 122.656 -88.0371 122.656 -82.8125 C 122.656 -65.0391 135.498 -52.7832 153.711 -52.7832 C 158.203 -52.7832 162.695 -53.5645 165.869 -54.6875 L 166.26 -54.2969 C 163.037 -46.9238 153.369 -37.6465 136.084 -37.5488 C 132.324 -48.6328 122.07 -56.5918 109.033 -58.1543 C 107.812 -61.5723 107.227 -65.2832 107.227 -69.0918 Z M 37.207 -5.46875 C 25.9277 -5.46875 19.8242 -12.1094 19.8242 -20.5078 C 19.8242 -27.7344 24.3164 -33.8867 33.6914 -36.4746 C 36.4258 -37.207 37.4023 -38.3789 37.6465 -41.1621 C 39.0625 -59.082 52.7344 -72.3633 68.8965 -72.3633 C 81.9336 -72.3633 91.6992 -65.0391 97.6074 -53.2715 C 98.8281 -50.8301 100.244 -50 103.125 -50 C 119.287 -50 129.102 -39.8926 129.102 -27.5879 C 129.102 -15.332 119.043 -5.46875 105.957 -5.46875 Z M 88.2324 25.8789 L 76.2695 25.8789 L 82.3242 14.502 C 83.0566 13.1348 82.4707 12.1094 81.1035 12.1094 L 69.873 12.1094 C 68.1152 12.1094 67.5293 12.7441 66.9434 14.0137 L 59.0332 32.0801 C 58.3496 33.5938 59.1309 34.5703 60.6934 34.5703 L 70.7031 34.5703 L 62.6953 53.8086 C 62.3535 54.6387 62.5488 55.3223 63.1348 55.5664 C 63.7207 55.8105 64.4043 55.6152 65.0391 54.8828 L 89.2578 28.8574 C 90.4785 27.5391 89.9902 25.8789 88.2324 25.8789 Z"/>
  </g>
  <g id="Light-L" transform="matrix(1 0 0 1 1061.19 1556)">
   <path d="M 36.5723 3.07617 L 105.322 3.07617 C 122.852 3.07617 136.523 -10.1562 136.523 -27.002 C 136.523 -27.7832 136.475 -28.5645 136.426 -29.3457 C 158.789 -30.0293 169.873 -44.4824 172.266 -54.3457 C 173.291 -57.5684 171.436 -60.3027 168.311 -60.3027 C 165.137 -60.3027 161.182 -58.2031 153.857 -58.2031 C 137.646 -58.2031 128.271 -67.8711 128.271 -82.5684 C 128.271 -90.9668 130.957 -94.1895 130.957 -97.4121 C 130.957 -101.025 127.979 -102.686 124.023 -101.611 C 113.086 -98.877 99.1211 -86.6699 99.1211 -67.5293 C 99.1211 -66.5039 99.1699 -65.4785 99.2188 -64.502 C 91.7969 -73.877 81.25 -79.5898 68.4082 -79.5898 C 48.1445 -79.5898 31.3965 -63.4766 29.4434 -42.8711 C 18.9941 -39.8926 11.2793 -31.3477 11.2793 -19.873 C 11.2793 -6.88477 21.0449 3.07617 36.5723 3.07617 Z M 105.176 -67.6758 C 105.176 -83.3008 116.211 -92.5293 124.463 -95.3125 L 124.854 -94.9707 C 123.535 -91.9434 122.266 -87.3047 122.266 -81.6406 C 122.266 -64.3066 134.668 -52.2461 152.783 -52.2461 C 157.373 -52.2461 162.256 -53.125 165.82 -54.3945 L 166.162 -54.1016 C 163.867 -46.9238 154.492 -35.5469 135.303 -35.4004 C 131.787 -47.1191 120.898 -55.5176 107.031 -56.5918 C 105.811 -60.1074 105.176 -63.8184 105.176 -67.6758 Z M 36.4258 -3.36914 C 24.3652 -3.36914 17.7246 -10.6445 17.7246 -19.7266 C 17.7246 -27.832 22.998 -34.2285 32.5684 -36.9629 C 34.9121 -37.5977 35.6934 -38.5742 35.8887 -40.7715 C 37.207 -58.9844 51.6113 -73.0957 68.4082 -73.0957 C 82.5195 -73.0957 92.7246 -64.9414 98.6328 -53.125 C 99.6582 -51.0742 100.879 -50.3906 103.271 -50.3906 C 119.336 -50.3906 130.029 -39.8438 130.029 -26.8066 C 130.029 -13.8672 119.287 -3.36914 105.42 -3.36914 Z M 85.498 26.6113 L 74.4141 26.6113 L 80.8105 14.5996 C 81.543 13.2324 80.957 12.207 79.541 12.207 L 70.9961 12.207 C 69.1895 12.207 68.6035 12.8418 68.0176 14.1113 L 60.2539 31.8359 C 59.5703 33.4473 60.4492 34.375 62.0117 34.375 L 71.2402 34.375 L 63.3789 53.2227 C 62.9883 54.1504 63.1836 54.834 63.8184 55.0781 C 64.4531 55.3223 65.1855 55.127 65.7715 54.2969 L 86.7188 29.5898 C 87.8418 28.1738 87.3047 26.6113 85.498 26.6113 Z"/>
  </g>
  <g id="Thin-L" transform="matrix(1 0 0 1 765.895 1556)">
   <path d="M 35.4492 3.07617 L 104.639 3.07617 C 121.68 3.07617 134.961 -9.7168 134.961 -25.9277 C 134.961 -26.9043 134.912 -27.8809 134.814 -28.8086 C 159.131 -29.248 169.189 -46.582 169.727 -54.541 C 169.922 -56.3965 168.701 -57.7637 166.895 -57.7637 C 164.307 -57.7637 159.668 -55.2734 151.807 -55.2734 C 135.498 -55.2734 125.488 -65.4785 125.488 -80.2734 C 125.488 -89.6484 128.516 -92.3828 128.516 -95.3125 C 128.516 -97.7539 126.709 -98.7305 123.975 -98.2422 C 114.844 -96.7773 98.8281 -86.1328 98.8281 -65.6738 C 98.8281 -64.3066 98.9258 -62.8906 99.0723 -61.5234 C 91.748 -71.5332 81.25 -77.7832 67.7246 -77.7832 C 47.998 -77.7832 31.6895 -61.6211 29.8828 -41.1133 C 19.4824 -38.3789 11.2793 -30.3223 11.2793 -18.75 C 11.2793 -6.73828 20.3613 3.07617 35.4492 3.07617 Z M 102.539 -65.8203 C 102.539 -84.0332 116.455 -93.1152 124.609 -94.5801 L 124.805 -94.3359 C 123.291 -91.3086 121.826 -86.3281 121.826 -80.0781 C 121.826 -63.2812 133.545 -51.6113 151.611 -51.6113 C 156.25 -51.6113 161.621 -52.5391 165.771 -54.0039 L 166.016 -53.9062 C 165.039 -46.9238 156.055 -32.6172 134.18 -32.5195 C 131.104 -45.1172 119.336 -54.0527 104.346 -54.4922 C 103.125 -58.1055 102.539 -61.9141 102.539 -65.8203 Z M 35.4004 -0.634766 C 22.3145 -0.634766 14.9902 -8.74023 14.9902 -18.75 C 14.9902 -27.9297 21.2891 -34.7168 31.1035 -37.6465 C 32.8613 -38.1836 33.3984 -38.8184 33.4961 -40.2832 C 34.7656 -58.9355 50.1465 -74.0723 67.7246 -74.0723 C 83.252 -74.0723 94.043 -64.7949 100 -52.9785 C 100.781 -51.416 101.66 -50.8789 103.516 -50.8789 C 119.434 -50.8789 131.25 -39.7949 131.25 -25.7324 C 131.25 -11.9141 119.58 -0.634766 104.688 -0.634766 Z M 81.9336 27.5879 L 71.875 27.5879 L 78.8086 14.7949 C 79.4922 13.4277 78.9551 12.3047 77.4902 12.3047 L 72.4609 12.3047 C 70.6543 12.3047 70.0195 12.9395 69.4336 14.3066 L 61.9141 31.543 C 61.1816 33.2031 62.207 34.1309 63.7207 34.1309 L 71.9238 34.1309 L 64.2578 52.4902 C 63.8672 53.4668 64.1113 54.1504 64.7461 54.3945 C 65.3809 54.6387 66.1621 54.4434 66.748 53.5645 L 83.3496 30.5176 C 84.3262 29.0527 83.6914 27.5879 81.9336 27.5879 Z"/>
  </g>
  <g id="Ultralight-L" transform="matrix(1 0 0 1 469.916 1556)">
   <path d="M 34.8633 3.07617 L 104.297 3.07617 C 121.045 3.07617 134.18 -9.52148 134.18 -25.3418 C 134.18 -26.416 134.082 -27.4902 133.984 -28.5645 C 159.326 -28.6621 168.896 -47.7051 168.408 -54.6387 C 168.213 -55.8105 167.334 -56.4453 166.211 -56.4453 C 163.867 -56.4453 158.838 -53.7598 150.781 -53.7598 C 134.424 -53.7598 124.023 -64.2578 124.023 -79.1016 C 124.023 -88.9648 127.246 -91.4551 127.246 -94.2871 C 127.246 -96.0449 126.025 -96.6797 123.926 -96.5332 C 115.771 -95.7031 98.6816 -85.8887 98.6816 -64.7461 C 98.6816 -63.1348 98.7793 -61.5234 99.0234 -59.9609 C 91.748 -70.2637 81.2988 -76.9043 67.3828 -76.9043 C 47.9004 -76.9043 31.8359 -60.6934 30.127 -40.2344 C 19.7266 -37.6465 11.2793 -29.7852 11.2793 -18.2129 C 11.2793 -6.68945 20.0195 3.07617 34.8633 3.07617 Z M 102.979 -53.3691 C 102.93 -53.5156 102.832 -53.6133 102.783 -53.7598 C 101.66 -57.373 101.172 -61.0352 101.172 -64.8926 C 101.172 -84.4238 116.602 -93.4082 124.707 -94.1895 L 124.805 -93.9941 C 123.145 -91.0156 121.582 -85.8398 121.582 -79.2969 C 121.582 -62.7441 133.008 -51.2695 150.977 -51.2695 C 155.664 -51.2695 161.328 -52.2461 165.723 -53.8574 L 165.967 -53.8086 C 165.674 -46.9727 156.934 -31.1523 133.74 -31.0059 L 133.74 -30.2246 C 131.299 -43.7012 118.848 -53.3203 102.979 -53.3691 Z M 34.9121 0.78125 C 21.2891 0.78125 13.5742 -7.76367 13.5742 -18.2129 C 13.5742 -27.9785 20.4102 -35.0098 30.3711 -37.9883 C 31.8359 -38.4766 32.2266 -38.9648 32.3242 -40.0391 C 33.4961 -58.8867 49.4141 -74.6094 67.3828 -74.6094 C 83.3984 -74.6094 94.3359 -65.0879 100.391 -53.5645 C 100.488 -53.125 100.635 -52.6855 100.781 -52.2461 L 101.025 -52.3438 C 101.611 -51.4648 102.344 -51.1719 103.662 -51.1719 C 119.434 -51.1719 131.885 -39.7461 131.885 -25.1953 C 131.885 -10.8887 119.727 0.78125 104.297 0.78125 Z M 80.0781 28.125 L 70.6055 28.125 L 77.7344 14.8926 C 78.4668 13.5254 77.9297 12.3535 76.4648 12.3535 L 73.2422 12.3535 C 71.3867 12.3535 70.7031 12.9883 70.166 14.4043 L 62.7441 31.3965 C 62.0117 33.1055 63.0859 33.9844 64.5996 33.9844 L 72.3145 33.9844 L 64.7461 52.1484 C 64.3066 53.125 64.5508 53.8574 65.2344 54.0527 C 65.8691 54.2969 66.6992 54.0527 67.2363 53.1738 L 81.5918 31.0059 C 82.5195 29.541 81.8848 28.125 80.0781 28.125 Z"/>
  </g>
  <g id="Black-M" transform="matrix(1 0 0 1 2853.1 1126)">
   <path d="M 33.8867 0.537109 L 88.0859 0.537109 C 104.297 0.537109 116.943 -11.8652 117.09 -27.8809 C 132.764 -27.3438 146.24 -36.2793 151.172 -50.9277 C 153.223 -57.0312 150.684 -62.0117 144.824 -62.0117 C 140.576 -62.0117 137.256 -60.2051 131.787 -60.2051 C 121.582 -60.2051 116.748 -65.625 116.748 -76.7578 C 116.748 -83.0566 118.604 -87.2559 118.604 -89.9902 C 118.604 -95.6543 113.477 -98.3398 108.105 -96.5332 C 94.6777 -91.9922 84.6191 -78.8574 84.6191 -64.4531 C 84.6191 -64.1602 84.668 -63.8184 84.668 -63.5254 C 78.418 -70.4102 69.6289 -74.0234 58.7891 -74.0234 C 41.3086 -74.0234 26.9531 -61.9141 23.7305 -44.5801 C 14.5508 -41.5527 8.74023 -33.4473 8.74023 -23.3887 C 8.74023 -9.57031 19.4336 0.537109 33.8867 0.537109 Z M 96.7773 -64.4531 C 96.7773 -72.0703 100.488 -79.1016 106.396 -83.2031 L 107.031 -82.8125 C 106.25 -80.3711 105.518 -77.002 105.518 -72.998 C 105.518 -59.1797 114.697 -48.877 129.102 -48.877 C 133.105 -48.877 135.547 -49.707 137.549 -50.3906 L 137.988 -49.9512 C 134.229 -43.6523 125.879 -39.5996 114.404 -40.5762 C 111.23 -47.4609 105.518 -52.7832 98.291 -55.3223 C 97.2656 -58.1543 96.7773 -61.2305 96.7773 -64.4531 Z M 34.4727 -14.5508 C 27.3926 -14.5508 23.877 -18.1152 23.877 -23.2422 C 23.877 -27.9785 27.0508 -31.2988 33.5449 -32.959 C 36.5234 -33.6914 37.1582 -35.0098 37.6953 -37.9395 C 40.1367 -52.2949 48.291 -58.9844 58.7891 -58.9844 C 66.6504 -58.9844 73.3887 -54.2969 78.125 -45.7031 C 79.4434 -43.3594 80.7617 -42.4805 83.7402 -42.4805 C 96.5332 -42.4805 102.002 -36.1328 102.002 -27.832 C 102.002 -20.2637 96.4844 -14.5508 87.5 -14.5508 Z M 77.4414 16.748 L 65.5762 16.748 L 69.4824 9.27734 C 70.0195 8.20312 69.5801 7.32422 68.457 7.32422 L 53.3691 7.32422 C 51.9531 7.32422 51.4648 7.8125 51.0254 8.88672 L 44.0918 24.707 C 43.5547 25.8789 43.9941 26.6602 45.3125 26.6602 L 54.834 26.6602 L 47.998 43.2129 C 47.7051 43.8965 47.9004 44.4824 48.3398 44.6777 C 48.7793 44.873 49.3164 44.7266 49.9023 44.2383 L 78.1738 19.2871 C 79.3457 18.3105 78.9062 16.748 77.4414 16.748 Z"/>
  </g>
  <g id="Heavy-M" transform="matrix(1 0 0 1 2558.17 1126)">
   <path d="M 32.8613 -0.878906 L 86.7188 -0.878906 C 102.49 -0.878906 114.795 -12.9883 114.795 -28.5156 L 114.795 -28.6133 C 130.518 -28.3691 143.018 -37.3047 147.607 -50.6836 C 149.561 -56.25 147.119 -60.8887 141.748 -60.8887 C 137.793 -60.8887 134.717 -59.1797 129.346 -59.1797 C 118.555 -59.1797 113.33 -64.9902 113.33 -76.1719 C 113.33 -82.2754 115.186 -86.1816 115.186 -88.9648 C 115.186 -94.1895 110.449 -96.7285 105.322 -94.9707 C 92.5781 -90.7715 82.8613 -78.0762 82.8613 -63.916 C 82.8613 -63.5742 82.8613 -63.1836 82.8613 -62.8418 C 76.709 -69.7266 68.0664 -73.3887 57.5684 -73.3887 C 40.3809 -73.3887 26.2695 -61.2305 23.4375 -44.1895 C 14.502 -41.2598 8.74023 -33.3984 8.74023 -23.6328 C 8.74023 -10.4492 18.8965 -0.878906 32.8613 -0.878906 Z M 93.7988 -63.9648 C 93.7988 -71.9727 97.998 -79.1016 104.004 -83.0566 L 104.59 -82.666 C 103.857 -80.2734 103.076 -76.9043 103.076 -72.9492 C 103.076 -59.082 112.549 -48.9258 126.855 -48.9258 C 130.762 -48.9258 133.35 -49.707 135.4 -50.3906 L 135.84 -50 C 132.275 -43.8477 124.121 -39.2578 112.402 -39.9902 C 109.229 -47.2656 103.027 -52.7344 95.2637 -55.0781 C 94.2871 -57.8125 93.7988 -60.8398 93.7988 -63.9648 Z M 33.252 -14.2578 C 25.8789 -14.2578 22.168 -18.1152 22.168 -23.4863 C 22.168 -28.3203 25.293 -31.9336 31.9336 -33.6426 C 34.7656 -34.375 35.498 -35.6445 35.9375 -38.4277 C 38.0371 -52.6367 46.6797 -60.0586 57.5684 -60.0586 C 65.8203 -60.0586 72.7051 -55.2734 77.3926 -46.5332 C 78.6621 -44.2383 79.9316 -43.4082 82.8125 -43.4082 C 95.5566 -43.4082 101.416 -36.7676 101.416 -28.3203 C 101.416 -20.3613 95.459 -14.2578 86.3281 -14.2578 Z M 75.6348 15.5273 L 64.3066 15.5273 L 68.3105 7.8125 C 68.8965 6.78711 68.457 5.9082 67.334 5.9082 L 53.418 5.9082 C 52.002 5.9082 51.5137 6.44531 51.0742 7.4707 L 44.2871 22.9004 C 43.7988 24.0723 44.2383 24.8535 45.5566 24.8535 L 54.7363 24.8535 L 48.0469 41.0645 C 47.7539 41.748 47.9492 42.2852 48.3887 42.4805 C 48.8281 42.6758 49.3652 42.5293 49.9023 42.041 L 76.416 18.0664 C 77.5391 17.041 77.0996 15.5273 75.6348 15.5273 Z"/>
  </g>
  <g id="Bold-M" transform="matrix(1 0 0 1 2263.49 1126)">
   <path d="M 31.6895 -2.49023 L 85.2051 -2.49023 C 100.391 -2.49023 112.207 -14.1113 112.207 -29.0039 C 112.207 -29.1504 112.207 -29.3457 112.207 -29.4922 C 127.93 -29.541 139.355 -38.4277 143.652 -50.3906 C 145.459 -55.3711 143.164 -59.668 138.33 -59.668 C 134.717 -59.668 131.885 -58.1055 126.562 -58.1055 C 115.186 -58.1055 109.473 -64.3066 109.473 -75.4883 C 109.473 -81.3965 111.328 -85.0098 111.328 -87.7441 C 111.328 -92.5781 106.982 -94.9219 102.148 -93.2617 C 90.2832 -89.3555 80.8594 -77.2461 80.8594 -63.2812 C 80.8594 -62.8906 80.8594 -62.5 80.8594 -62.1094 C 74.8047 -68.9453 66.3086 -72.7051 56.25 -72.7051 C 39.4043 -72.7051 25.4883 -60.4492 23.0469 -43.75 C 14.4043 -40.9668 8.74023 -33.3984 8.74023 -23.9258 C 8.74023 -11.4746 18.2129 -2.49023 31.6895 -2.49023 Z M 90.4785 -63.3789 C 90.4785 -71.875 95.166 -79.1016 101.318 -82.9102 L 101.904 -82.5195 C 101.123 -80.127 100.391 -76.8066 100.391 -72.9004 C 100.391 -58.9844 110.107 -49.0234 124.365 -49.0234 C 128.125 -49.0234 130.957 -49.707 133.057 -50.4395 L 133.447 -50.0488 C 130.078 -43.9941 122.119 -38.8672 110.205 -39.3555 C 107.031 -47.0215 100.342 -52.6855 91.8945 -54.7363 C 90.9668 -57.4219 90.4785 -60.3516 90.4785 -63.3789 Z M 31.8359 -13.9648 C 24.1699 -13.9648 20.2148 -18.1152 20.2148 -23.7305 C 20.2148 -28.7109 23.291 -32.6172 30.1758 -34.4238 C 32.8125 -35.1074 33.5938 -36.2793 33.9355 -39.0137 C 35.7422 -53.0273 44.873 -61.2793 56.25 -61.2793 C 64.8926 -61.2793 71.9238 -56.3477 76.6113 -47.5098 C 77.7832 -45.2637 79.0527 -44.4336 81.7871 -44.4336 C 94.4824 -44.4336 100.781 -37.5 100.781 -28.8086 C 100.781 -20.459 94.2871 -13.9648 84.9609 -13.9648 Z M 73.6816 14.209 L 62.8906 14.209 L 67.041 6.25 C 67.627 5.17578 67.1875 4.3457 66.1133 4.3457 L 53.4668 4.3457 C 52.0508 4.3457 51.5625 4.83398 51.123 5.85938 L 44.5801 20.8496 C 44.043 22.0215 44.5312 22.8027 45.8008 22.8027 L 54.6387 22.8027 L 48.0957 38.6719 C 47.8027 39.3066 47.998 39.8438 48.4375 40.0391 C 48.877 40.2344 49.4141 40.0879 49.9512 39.5996 L 74.4141 16.6504 C 75.4883 15.6738 75.0977 14.209 73.6816 14.209 Z"/>
  </g>
  <g id="Semibold-M" transform="matrix(1 0 0 1 1968.14 1126)">
   <path d="M 30.8594 -3.61328 L 84.1309 -3.61328 C 98.9258 -3.61328 110.449 -14.8438 110.449 -29.3457 C 110.449 -29.5898 110.449 -29.834 110.449 -30.0781 C 126.123 -30.3223 136.865 -39.1602 140.869 -50.1953 C 142.627 -54.7852 140.43 -58.7891 135.938 -58.7891 C 132.568 -58.7891 129.932 -57.3242 124.658 -57.3242 C 112.891 -57.3242 106.836 -63.7695 106.836 -75.0488 C 106.836 -80.8105 108.643 -84.2285 108.643 -86.9629 C 108.643 -91.4551 104.639 -93.7012 100 -92.0898 C 88.6719 -88.3789 79.4922 -76.6602 79.4922 -62.8418 C 79.4922 -62.4512 79.4922 -62.0117 79.4922 -61.6211 C 73.5352 -68.4082 65.1367 -72.2168 55.3223 -72.2168 C 38.7207 -72.2168 24.9512 -59.9121 22.8027 -43.4082 C 14.3555 -40.7227 8.74023 -33.3496 8.74023 -24.0723 C 8.74023 -12.207 17.7734 -3.61328 30.8594 -3.61328 Z M 88.2324 -62.9883 C 88.2324 -71.8262 93.2129 -79.0527 99.5117 -82.7637 L 100.049 -82.373 C 99.2676 -80.0293 98.4863 -76.709 98.4863 -72.8516 C 98.4863 -58.8867 108.398 -49.0234 122.656 -49.0234 C 126.27 -49.0234 129.248 -49.707 131.396 -50.4395 L 131.787 -50.0488 C 128.564 -44.1406 120.752 -38.6719 108.643 -38.9648 C 105.469 -46.8262 98.4863 -52.5879 89.5996 -54.4434 C 88.6719 -57.0801 88.2324 -59.9609 88.2324 -62.9883 Z M 30.9082 -13.7207 C 22.998 -13.7207 18.8965 -18.1152 18.8965 -23.9258 C 18.8965 -28.9551 21.9238 -33.1055 28.9062 -34.9609 C 31.4453 -35.5957 32.2754 -36.7676 32.5684 -39.3555 C 34.1309 -53.2715 43.6523 -62.1094 55.3223 -62.1094 C 64.2578 -62.1094 71.4355 -57.0801 76.0254 -48.1445 C 77.1484 -45.9473 78.418 -45.166 81.0547 -45.166 C 93.75 -45.166 100.293 -37.9883 100.293 -29.1504 C 100.293 -20.5078 93.5059 -13.7207 84.0332 -13.7207 Z M 72.3145 13.3301 L 61.9141 13.3301 L 66.2109 5.12695 C 66.748 4.10156 66.3086 3.27148 65.2344 3.27148 L 53.4668 3.27148 C 52.0996 3.27148 51.6113 3.75977 51.1719 4.78516 L 44.7266 19.4824 C 44.2383 20.6543 44.7266 21.3867 45.9961 21.3867 L 54.5898 21.3867 L 48.1445 36.9629 C 47.8516 37.6465 47.998 38.1836 48.4375 38.3789 C 48.9258 38.5254 49.4629 38.4277 49.9512 37.8906 L 73.0469 15.7227 C 74.0723 14.6973 73.7305 13.3301 72.3145 13.3301 Z"/>
  </g>
  <g id="Medium-M" transform="matrix(1 0 0 1 1672.48 1126)">
   <path d="M 30.2246 -4.44336 L 83.3496 -4.44336 C 97.8516 -4.44336 109.131 -15.4297 109.131 -29.6387 C 109.131 -29.9316 109.082 -30.2246 109.082 -30.5176 C 124.756 -30.957 134.961 -39.6973 138.818 -50.0488 C 140.479 -54.3457 138.33 -58.1055 134.18 -58.1055 C 130.957 -58.1055 128.418 -56.7871 123.193 -56.7871 C 111.133 -56.7871 104.834 -63.4277 104.834 -74.707 C 104.834 -80.3711 106.641 -83.5938 106.641 -86.3281 C 106.641 -90.625 102.832 -92.7734 98.3398 -91.2109 C 87.4512 -87.5977 78.4668 -76.1719 78.4668 -62.5488 C 78.4668 -62.1094 78.4668 -61.6699 78.4668 -61.2305 C 72.5098 -68.0176 64.209 -71.875 54.5898 -71.875 C 38.1836 -71.875 24.5117 -59.4727 22.6074 -43.2129 C 14.3066 -40.5762 8.74023 -33.3496 8.74023 -24.2188 C 8.74023 -12.7441 17.4805 -4.44336 30.2246 -4.44336 Z M 86.4746 -62.6465 C 86.4746 -71.7773 91.748 -79.0527 98.0957 -82.7148 L 98.6328 -82.3242 C 97.8516 -79.9316 97.0703 -76.6602 97.0703 -72.8516 C 97.0703 -58.8379 107.129 -49.0723 121.338 -49.0723 C 124.902 -49.0723 127.979 -49.707 130.176 -50.4395 L 130.518 -50.0488 C 127.393 -44.2383 119.678 -38.4766 107.471 -38.623 C 104.346 -46.6797 97.0703 -52.5391 87.8906 -54.1992 C 86.9629 -56.8359 86.4746 -59.7168 86.4746 -62.6465 Z M 30.1758 -13.5742 C 22.1191 -13.5742 17.8711 -18.1152 17.8711 -24.0723 C 17.8711 -29.1504 20.8984 -33.4961 27.9785 -35.3516 C 30.4688 -35.9863 31.2988 -37.1094 31.543 -39.6484 C 32.9102 -53.4668 42.6758 -62.7441 54.5898 -62.7441 C 63.7695 -62.7441 71.0449 -57.666 75.6348 -48.6328 C 76.709 -46.4844 77.9297 -45.752 80.5176 -45.752 C 93.1641 -45.752 100 -38.3789 100 -29.3945 C 100 -20.6055 92.9199 -13.5742 83.3496 -13.5742 Z M 71.2402 12.5977 L 61.1328 12.5977 L 65.5273 4.29688 C 66.0645 3.27148 65.625 2.44141 64.5508 2.44141 L 53.4668 2.44141 C 52.1484 2.44141 51.6602 2.97852 51.2207 3.95508 L 44.873 18.4082 C 44.3848 19.5801 44.873 20.3613 46.0938 20.3613 L 54.541 20.3613 L 48.1445 35.7422 C 47.9004 36.377 48.0469 36.9141 48.4863 37.1094 C 48.9258 37.2559 49.4629 37.1582 49.9512 36.6211 L 71.9727 14.9902 C 72.998 13.9648 72.6562 12.5977 71.2402 12.5977 Z"/>
  </g>
  <g id="Regular-M" transform="matrix(1 0 0 1 1377.16 1126)">
   <path d="M 29.4434 -5.51758 L 82.2754 -5.51758 C 96.3867 -5.51758 107.373 -16.2109 107.373 -29.9805 C 107.373 -30.3711 107.324 -30.7617 107.324 -31.1523 C 122.9 -31.7383 132.471 -40.4297 136.084 -49.8047 C 137.695 -53.7598 135.645 -57.2754 131.836 -57.2754 C 128.857 -57.2754 126.514 -56.0059 121.289 -56.0059 C 108.838 -56.0059 102.246 -62.9395 102.246 -74.2676 C 102.246 -79.7852 104.004 -82.8125 104.004 -85.5469 C 104.004 -89.5508 100.488 -91.5527 96.1914 -90.0391 C 85.8887 -86.6699 77.0996 -75.6348 77.0996 -62.1094 C 77.0996 -61.6699 77.0996 -61.1816 77.0996 -60.7422 C 71.2402 -67.4805 63.0371 -71.4355 53.6621 -71.4355 C 37.5 -71.4355 23.9746 -58.9355 22.3633 -42.9199 C 14.2578 -40.332 8.74023 -33.3008 8.74023 -24.4141 C 8.74023 -13.4277 17.041 -5.51758 29.4434 -5.51758 Z M 84.2285 -62.2559 C 84.2285 -71.6797 89.8438 -79.0527 96.2891 -82.5684 L 96.7773 -82.1777 C 95.9961 -79.834 95.2148 -76.5625 95.2148 -72.8027 C 95.2148 -58.7402 105.469 -49.1211 119.629 -49.1211 C 123.096 -49.1211 126.318 -49.707 128.564 -50.4395 L 128.906 -50.0977 C 125.879 -44.3359 118.311 -38.2812 105.908 -38.2324 C 102.881 -46.4844 95.2637 -52.4414 85.6445 -53.8574 C 84.7168 -56.4941 84.2285 -59.3262 84.2285 -62.2559 Z M 29.248 -13.3301 C 20.9473 -13.3301 16.5527 -18.1152 16.5527 -24.2188 C 16.5527 -29.3945 19.5801 -33.9844 26.7578 -35.8887 C 29.1016 -36.5234 29.9805 -37.5977 30.1758 -40.0391 C 31.2988 -53.7109 41.4551 -63.5742 53.6621 -63.5742 C 63.1348 -63.5742 70.5078 -58.3984 75.0488 -49.2676 C 76.123 -47.168 77.3438 -46.4355 79.7852 -46.4355 C 92.4316 -46.4355 99.5605 -38.8672 99.5605 -29.7363 C 99.5605 -20.6543 92.1387 -13.3301 82.4219 -13.3301 Z M 69.9219 11.7188 L 60.2051 11.7188 L 64.6484 3.22266 C 65.2344 2.14844 64.7949 1.36719 63.7207 1.36719 L 53.5156 1.36719 C 52.1484 1.36719 51.709 1.9043 51.2695 2.83203 L 45.0684 17.041 C 44.5312 18.2129 45.0684 18.9453 46.2891 18.9453 L 54.4922 18.9453 L 48.1934 34.082 C 47.9492 34.7168 48.0469 35.2539 48.5352 35.4004 C 48.9746 35.5957 49.5117 35.4492 50 34.9121 L 70.6543 14.0625 C 71.6309 13.0371 71.2891 11.7188 69.9219 11.7188 Z"/>
  </g>
  <g id="Light-M" transform="matrix(1 0 0 1 1081.4 1126)">
   <path d="M 28.6621 -5.51758 L 81.8359 -5.51758 C 95.6055 -5.51758 106.299 -15.918 106.299 -29.248 C 106.299 -29.7852 106.299 -30.3223 106.25 -30.8105 C 122.949 -31.3965 131.885 -41.6992 134.375 -49.9512 C 135.4 -52.9297 133.789 -55.5176 130.859 -55.5176 C 128.271 -55.5176 125.439 -54.0039 119.922 -54.0039 C 107.373 -54.0039 100.342 -61.3281 100.342 -72.7051 C 100.342 -78.9062 102.295 -81.543 102.295 -84.1309 C 102.295 -87.3047 99.6094 -88.8672 96.1426 -87.793 C 87.0605 -85.2539 76.9043 -75.2441 76.9043 -60.8398 C 76.9043 -60.2051 76.9043 -59.5215 76.9531 -58.8867 C 71.1426 -65.9668 62.9395 -70.2148 53.2227 -70.2148 C 37.3535 -70.2148 24.2188 -57.7148 22.6562 -41.748 C 14.5508 -39.3555 8.74023 -32.6172 8.74023 -23.6816 C 8.74023 -13.3301 16.5527 -5.51758 28.6621 -5.51758 Z M 82.4219 -61.0352 C 82.4219 -72.2168 89.9902 -79.4434 96.3867 -82.0801 L 96.7773 -81.7383 C 95.8008 -79.3945 94.9219 -75.9277 94.9219 -71.7285 C 94.9219 -58.1055 104.736 -48.6816 118.799 -48.6816 C 122.314 -48.6816 125.928 -49.3164 128.516 -50.1953 L 128.809 -49.9512 C 126.611 -44.2871 119.189 -36.4258 105.176 -36.3281 C 102.344 -45.1172 94.1895 -51.416 83.8379 -52.4902 C 82.9102 -55.1758 82.4219 -58.0566 82.4219 -61.0352 Z M 28.5645 -11.4746 C 19.5801 -11.4746 14.6973 -16.8457 14.6973 -23.5352 C 14.6973 -29.4434 18.4082 -34.3262 25.7324 -36.377 C 27.7344 -36.8652 28.418 -37.7441 28.5645 -39.6973 C 29.6387 -53.6621 40.4785 -64.2578 53.2227 -64.2578 C 63.6719 -64.2578 71.3867 -58.3008 75.9766 -49.1699 C 76.8555 -47.4121 77.8809 -46.7773 79.9316 -46.7773 C 92.4316 -46.7773 100.342 -38.8184 100.342 -29.0527 C 100.342 -19.3359 92.334 -11.4746 81.9336 -11.4746 Z M 67.4805 12.3535 L 58.4961 12.3535 L 63.2812 3.32031 C 63.8672 2.29492 63.4277 1.46484 62.3047 1.46484 L 54.4922 1.46484 C 53.125 1.46484 52.6855 1.95312 52.2461 2.97852 L 46.1426 16.8457 C 45.6055 18.0664 46.2402 18.7988 47.4609 18.7988 L 54.9316 18.7988 L 48.7793 33.5938 C 48.5352 34.2773 48.6816 34.7656 49.1211 34.9609 C 49.6094 35.1562 50.1465 35.0098 50.6348 34.4238 L 68.3105 14.6973 C 69.2383 13.623 68.8477 12.3535 67.4805 12.3535 Z"/>
  </g>
  <g id="Thin-M" transform="matrix(1 0 0 1 785.963 1126)">
   <path d="M 27.6855 -5.51758 L 81.2012 -5.51758 C 94.5312 -5.51758 104.883 -15.5762 104.883 -28.2227 C 104.883 -28.9551 104.883 -29.6875 104.785 -30.3711 C 123.193 -30.7617 131.25 -43.5547 132.08 -50.1465 C 132.422 -51.9043 131.299 -53.2227 129.639 -53.2227 C 127.49 -53.2227 124.023 -51.416 118.066 -51.416 C 105.469 -51.416 97.8027 -59.1797 97.8027 -70.6543 C 97.8027 -77.6855 100.098 -79.9316 100.098 -82.2754 C 100.098 -84.375 98.4375 -85.3027 96.0449 -84.7656 C 88.623 -83.3984 76.6113 -74.8047 76.6113 -59.2285 C 76.6113 -58.252 76.6602 -57.2266 76.7578 -56.2988 C 71.0449 -63.8672 62.9395 -68.6035 52.5879 -68.6035 C 37.207 -68.6035 24.4629 -56.1035 23.0469 -40.1855 C 14.9902 -37.9883 8.69141 -31.6406 8.69141 -22.7051 C 8.69141 -13.1836 15.918 -5.51758 27.6855 -5.51758 Z M 80.0293 -59.375 C 80.0293 -72.9004 90.1855 -79.9805 96.5332 -81.3965 L 96.7285 -81.1523 C 95.5566 -78.8574 94.4824 -75.0488 94.4824 -70.3125 C 94.4824 -57.1777 103.711 -48.0469 117.725 -48.0469 C 121.289 -48.0469 125.391 -48.7793 128.467 -49.8535 L 128.662 -49.7559 C 127.588 -44.2871 120.557 -33.8379 104.199 -33.7402 C 101.709 -43.3105 92.8223 -50.1465 81.4453 -50.6348 C 80.4688 -53.3691 80.0293 -56.2988 80.0293 -59.375 Z M 27.6367 -8.98438 C 17.7246 -8.98438 12.1582 -15.1367 12.1582 -22.6562 C 12.1582 -29.541 16.8457 -34.7656 24.4141 -36.9629 C 25.8789 -37.4023 26.3672 -37.9395 26.4648 -39.2578 C 27.4414 -53.6133 39.1602 -65.1367 52.5879 -65.1367 C 64.3555 -65.1367 72.5586 -58.2031 77.1973 -49.0234 C 77.832 -47.7051 78.6133 -47.2656 80.127 -47.2656 C 92.4805 -47.2656 101.416 -38.7695 101.416 -28.0762 C 101.416 -17.5781 92.5781 -8.98438 81.25 -8.98438 Z M 64.2578 13.2324 L 56.25 13.2324 L 61.4746 3.51562 C 62.0117 2.44141 61.5723 1.5625 60.498 1.5625 L 55.8105 1.5625 C 54.3945 1.5625 53.9062 2.09961 53.4668 3.125 L 47.6074 16.6016 C 47.0215 17.8711 47.8027 18.5547 48.9746 18.5547 L 55.5664 18.5547 L 49.5605 32.9102 C 49.2676 33.6426 49.4629 34.1797 49.9512 34.375 C 50.4395 34.5703 51.0254 34.375 51.4648 33.7402 L 65.2832 15.5273 C 66.0645 14.4043 65.625 13.2324 64.2578 13.2324 Z"/>
  </g>
  <g id="Ultralight-M" transform="matrix(1 0 0 1 489.887 1126)">
   <path d="M 27.1484 -5.51758 L 80.9082 -5.51758 C 93.9941 -5.51758 104.199 -15.3809 104.199 -27.7344 C 104.199 -28.5645 104.15 -29.3457 104.053 -30.127 C 123.389 -30.3711 130.957 -44.5801 130.859 -50.2441 C 130.859 -51.3672 130.078 -52.0508 129.004 -52.0508 C 127.1 -52.0508 123.291 -50.0488 117.139 -50.0488 C 104.492 -50.0488 96.5332 -58.1055 96.5332 -69.5801 C 96.5332 -77.0996 98.9746 -79.0527 98.9746 -81.2988 C 98.9746 -82.8613 97.8516 -83.4961 95.9961 -83.252 C 89.4043 -82.4219 76.5137 -74.5605 76.5137 -58.3984 C 76.5137 -57.2266 76.5625 -56.0547 76.709 -54.8828 C 71.0449 -62.7441 62.9395 -67.7734 52.2949 -67.7734 C 37.1094 -67.7734 24.6094 -55.2734 23.2422 -39.3555 C 15.1855 -37.3047 8.69141 -31.1523 8.69141 -22.2168 C 8.69141 -13.1348 15.5762 -5.51758 27.1484 -5.51758 Z M 78.7598 -58.4961 C 78.7598 -73.2422 90.2832 -80.2246 96.582 -81.0547 L 96.6797 -80.8594 C 95.459 -78.5645 94.2383 -74.6094 94.2383 -69.6289 C 94.2383 -56.7383 103.223 -47.7539 117.139 -47.7539 C 120.752 -47.7539 125.098 -48.5352 128.418 -49.707 L 128.613 -49.6582 C 128.174 -44.3359 121.289 -32.4707 103.662 -32.4219 C 101.416 -42.3828 92.041 -49.4629 80.1758 -49.6582 C 79.1992 -52.4902 78.7598 -55.4199 78.7598 -58.4961 Z M 27.1484 -7.71484 C 16.7969 -7.71484 10.8887 -14.2578 10.8887 -22.2168 C 10.8887 -29.5898 16.0645 -34.9609 23.7305 -37.3047 C 24.9512 -37.6465 25.293 -38.0859 25.3906 -39.0625 C 26.3184 -53.5645 38.4766 -65.5762 52.2949 -65.5762 C 64.6973 -65.5762 73.1934 -58.1055 77.7832 -48.9746 C 78.3691 -47.8516 78.9551 -47.5098 80.2734 -47.5098 C 92.5293 -47.5098 101.953 -38.7695 101.953 -27.6367 C 101.953 -16.6992 92.7246 -7.71484 80.9082 -7.71484 Z M 62.5977 13.7207 L 55.0781 13.7207 L 60.5469 3.56445 C 61.084 2.49023 60.6445 1.66016 59.5215 1.66016 L 56.4941 1.66016 C 55.0781 1.66016 54.541 2.14844 54.1016 3.22266 L 48.3398 16.4551 C 47.7539 17.7734 48.584 18.457 49.7559 18.457 L 55.9082 18.457 L 50 32.5684 C 49.6582 33.3496 49.8535 33.8867 50.3418 34.082 C 50.8789 34.2773 51.4648 34.082 51.9043 33.3984 L 63.7207 15.918 C 64.4531 14.7949 63.9648 13.7207 62.5977 13.7207 Z"/>
  </g>
  <g id="Black-S" transform="matrix(1 0 0 1 2870.63 696)">
   <path d="M 26.4648 -7.32422 L 68.8965 -7.32422 C 81.5918 -7.32422 91.4551 -16.9922 91.5527 -29.541 C 103.809 -29.1016 114.307 -36.1328 118.164 -47.5098 C 119.775 -52.2461 117.773 -56.1523 113.232 -56.1523 C 109.912 -56.1523 107.324 -54.7363 103.076 -54.7363 C 95.0195 -54.7363 91.2109 -59.0332 91.2109 -67.7246 C 91.2109 -72.6562 92.6758 -75.9277 92.6758 -78.0762 C 92.6758 -82.4707 88.6719 -84.5703 84.4727 -83.1543 C 73.9746 -79.6387 66.1621 -69.3359 66.1621 -58.1055 C 66.1621 -57.8613 66.1621 -57.6172 66.1621 -57.373 C 61.2793 -62.7441 54.4434 -65.5762 45.9473 -65.5762 C 32.2754 -65.5762 21.0449 -56.1035 18.5547 -42.5293 C 11.377 -40.1855 6.83594 -33.8379 6.83594 -25.9766 C 6.83594 -15.1855 15.1855 -7.32422 26.4648 -7.32422 Z M 75.5859 -58.1055 C 75.5859 -64.0625 78.5156 -69.5801 83.1543 -72.8027 L 83.6426 -72.5098 C 83.0566 -70.6055 82.4707 -67.9688 82.4707 -64.8438 C 82.4707 -54.0039 89.6973 -45.9473 100.977 -45.9473 C 104.102 -45.9473 106.006 -46.582 107.568 -47.1191 L 107.91 -46.7773 C 104.98 -41.8457 98.4375 -38.623 89.4531 -39.4043 C 87.0117 -44.8242 82.4707 -48.9746 76.8066 -50.9766 C 75.9766 -53.1738 75.5859 -55.5664 75.5859 -58.1055 Z M 26.9043 -19.043 C 21.3379 -19.043 18.6035 -21.8262 18.6035 -25.8789 C 18.6035 -29.5898 21.0449 -32.1777 26.1719 -33.4961 C 28.4668 -34.082 29.0039 -35.1074 29.3945 -37.4023 C 31.2988 -48.6328 37.6953 -53.9062 45.9473 -53.9062 C 52.1484 -53.9062 57.4219 -50.2441 61.1328 -43.5059 C 62.1582 -41.6504 63.1836 -40.9668 65.5273 -40.9668 C 75.5371 -40.9668 79.834 -35.9863 79.834 -29.4922 C 79.834 -23.5352 75.4883 -19.043 68.457 -19.043 Z M 60.5469 5.37109 L 51.2695 5.37109 L 54.3457 -0.488281 C 54.7852 -1.31836 54.4434 -2.00195 53.5645 -2.00195 L 41.7969 -2.00195 C 40.6738 -2.00195 40.2832 -1.61133 39.9414 -0.78125 L 34.5215 11.5723 C 34.1309 12.5 34.4727 13.1348 35.498 13.1348 L 42.9199 13.1348 L 37.5977 26.0742 C 37.3535 26.6113 37.5 27.0508 37.8418 27.1973 C 38.1836 27.3438 38.623 27.2461 39.0625 26.8555 L 61.1328 7.37305 C 62.0605 6.5918 61.7188 5.37109 60.5469 5.37109 Z"/>
  </g>
  <g id="Heavy-S" transform="matrix(1 0 0 1 2575.19 696)">
   <path d="M 25.7324 -8.39844 L 67.9199 -8.39844 C 80.2734 -8.39844 89.8926 -17.8711 89.8926 -30.0781 L 89.8926 -30.127 C 102.1 -29.9805 111.914 -36.7676 115.625 -47.3145 C 117.236 -51.7578 115.283 -55.4688 110.986 -55.4688 C 107.861 -55.4688 105.518 -54.1992 101.318 -54.1992 C 92.8711 -54.1992 88.8184 -58.7402 88.8184 -67.4316 C 88.8184 -72.168 90.2344 -75.2441 90.2344 -77.4414 C 90.2344 -81.6406 86.4258 -83.6426 82.3242 -82.2266 C 72.2656 -78.8086 64.7949 -68.7988 64.7949 -57.8125 C 64.7949 -57.5684 64.8438 -57.3242 64.8438 -57.0801 C 60.0098 -62.4023 53.2227 -65.2344 45.0684 -65.2344 C 31.5918 -65.2344 20.5078 -55.7129 18.2617 -42.3828 C 11.2793 -40.0879 6.83594 -33.8867 6.83594 -26.2695 C 6.83594 -15.918 14.7949 -8.39844 25.7324 -8.39844 Z M 73.5352 -57.8613 C 73.5352 -63.9648 76.5625 -69.5312 81.2988 -72.7539 L 81.7871 -72.4609 C 81.2012 -70.5566 80.6641 -67.9688 80.6641 -64.9414 C 80.6641 -54.0039 88.1348 -46.0449 99.3652 -46.0449 C 102.393 -46.0449 104.395 -46.6309 105.957 -47.168 L 106.299 -46.8262 C 103.418 -41.9922 97.0215 -38.5742 88.0371 -39.1602 C 85.5469 -44.8242 80.7129 -49.0723 74.6582 -50.9277 C 73.9258 -53.0762 73.5352 -55.4199 73.5352 -57.8613 Z M 26.0254 -19.043 C 20.3125 -19.043 17.4805 -21.9727 17.4805 -26.123 C 17.4805 -29.834 19.8242 -32.6172 25.0488 -33.9844 C 27.2949 -34.5215 27.8809 -35.5469 28.2227 -37.793 C 29.8828 -48.877 36.5723 -54.6875 45.0684 -54.6875 C 51.4648 -54.6875 56.7871 -50.9766 60.498 -44.1406 C 61.4746 -42.334 62.5 -41.6504 64.7949 -41.6504 C 74.8047 -41.6504 79.2969 -36.4746 79.2969 -29.9316 C 79.2969 -23.7305 74.6582 -19.043 67.5781 -19.043 Z M 59.4727 4.39453 L 50.4883 4.39453 L 53.6133 -1.61133 C 54.0527 -2.44141 53.7109 -3.07617 52.8809 -3.07617 L 41.6992 -3.07617 C 40.625 -3.07617 40.2344 -2.68555 39.8926 -1.9043 L 34.5703 10.2051 C 34.1797 11.1328 34.5215 11.7676 35.5469 11.7676 L 42.8223 11.7676 L 37.5488 24.4629 C 37.3535 25 37.4512 25.4395 37.793 25.5859 C 38.1348 25.7324 38.5742 25.6348 39.0137 25.2441 L 60.0098 6.34766 C 60.9375 5.56641 60.5957 4.39453 59.4727 4.39453 Z"/>
  </g>
  <g id="Bold-S" transform="matrix(1 0 0 1 2279.89 696)">
   <path d="M 24.9512 -9.66797 L 66.7969 -9.66797 C 78.7598 -9.66797 88.0859 -18.7988 88.0859 -30.5664 L 88.0859 -30.8105 C 100.146 -30.8594 109.18 -37.4512 112.793 -47.0703 C 114.355 -51.1719 112.451 -54.7363 108.496 -54.7363 C 105.566 -54.7363 103.467 -53.6133 99.3652 -53.6133 C 90.4785 -53.6133 86.1328 -58.3496 86.1328 -67.1387 C 86.1328 -71.6309 87.4512 -74.5117 87.4512 -76.709 C 87.4512 -80.6641 83.9355 -82.6172 79.9316 -81.2012 C 70.3125 -77.9297 63.3301 -68.1641 63.3301 -57.5195 C 63.3301 -57.2266 63.3301 -56.9824 63.3301 -56.7383 C 58.5449 -62.0117 51.9043 -64.8926 44.0918 -64.8926 C 30.8594 -64.8926 19.873 -55.2734 17.9688 -42.1875 C 11.1816 -39.9414 6.83594 -33.9355 6.83594 -26.5625 C 6.83594 -16.6992 14.3555 -9.66797 24.9512 -9.66797 Z M 71.2402 -57.5684 C 71.2402 -63.8184 74.4141 -69.4824 79.248 -72.7051 L 79.7363 -72.3633 C 79.1504 -70.5078 78.6133 -67.9199 78.6133 -64.9902 C 78.6133 -54.0039 86.3281 -46.1426 97.5586 -46.1426 C 100.439 -46.1426 102.588 -46.6797 104.15 -47.2168 L 104.443 -46.875 C 101.66 -42.1387 95.3613 -38.5254 86.377 -38.916 C 83.8867 -44.7754 78.8086 -49.1211 72.3145 -50.7812 C 71.582 -52.8809 71.2402 -55.1758 71.2402 -57.5684 Z M 25.0488 -19.043 C 19.1895 -19.043 16.2598 -22.1191 16.2598 -26.416 C 16.2598 -30.127 18.457 -33.1543 23.7793 -34.5215 C 25.9766 -35.0586 26.6113 -36.0352 26.9043 -38.2812 C 28.3203 -49.1699 35.3027 -55.5176 44.0918 -55.5176 C 50.6836 -55.5176 56.1035 -51.8066 59.7168 -44.873 C 60.6934 -43.0664 61.7188 -42.4316 63.9648 -42.4316 C 73.9746 -42.4316 78.7109 -37.0117 78.7109 -30.3711 C 78.7109 -23.9746 73.7793 -19.043 66.6504 -19.043 Z M 58.252 3.32031 L 49.6094 3.32031 L 52.832 -2.83203 C 53.2715 -3.66211 52.9297 -4.29688 52.0508 -4.29688 L 41.6016 -4.29688 C 40.5273 -4.29688 40.1855 -3.90625 39.8438 -3.125 L 34.6191 8.69141 C 34.2285 9.61914 34.5703 10.2051 35.5957 10.2051 L 42.6758 10.2051 L 37.5 22.7051 C 37.3047 23.1934 37.4023 23.6328 37.793 23.7793 C 38.1348 23.9258 38.5254 23.8281 38.9648 23.4375 L 58.7891 5.22461 C 59.668 4.44336 59.375 3.32031 58.252 3.32031 Z"/>
  </g>
  <g id="Semibold-S" transform="matrix(1 0 0 1 1984.16 696)">
   <path d="M 24.3652 -10.498 L 66.0156 -10.498 C 77.7344 -10.498 86.8164 -19.3848 86.8164 -30.9082 C 86.8164 -31.0547 86.8164 -31.2012 86.8164 -31.2988 C 98.7793 -31.4941 107.324 -37.9395 110.84 -46.875 C 112.402 -50.7812 110.498 -54.248 106.738 -54.248 C 104.004 -54.248 102.051 -53.1738 98.0469 -53.1738 C 88.8184 -53.1738 84.2285 -58.1543 84.2285 -66.9434 C 84.2285 -71.2402 85.5957 -73.9746 85.5957 -76.1719 C 85.5957 -79.9805 82.1777 -81.8848 78.2715 -80.5176 C 68.9941 -77.2949 62.2559 -67.7734 62.2559 -57.2754 C 62.2559 -57.0312 62.3047 -56.7383 62.3047 -56.4941 C 57.5684 -61.7188 50.9766 -64.5996 43.457 -64.5996 C 30.3223 -64.5996 19.4336 -54.9316 17.7734 -42.041 C 11.1328 -39.8926 6.83594 -33.9844 6.83594 -26.7578 C 6.83594 -17.2363 14.0625 -10.498 24.3652 -10.498 Z M 69.6289 -57.373 C 69.6289 -63.7207 72.9004 -69.4336 77.832 -72.6562 L 78.3203 -72.3145 C 77.7344 -70.459 77.1973 -67.9199 77.1973 -65.0879 C 77.1973 -54.0039 85.1074 -46.1914 96.2891 -46.1914 C 99.1211 -46.1914 101.318 -46.7285 102.881 -47.2168 L 103.223 -46.875 C 100.439 -42.2363 94.2383 -38.4766 85.2539 -38.7695 C 82.7637 -44.7754 77.4414 -49.1699 70.7031 -50.6836 C 70.0195 -52.7832 69.6289 -55.0293 69.6289 -57.373 Z M 24.4141 -18.9941 C 18.4082 -18.9941 15.3809 -22.2656 15.3809 -26.6113 C 15.3809 -30.2734 17.5293 -33.4961 22.9492 -34.8633 C 25.0488 -35.4004 25.7324 -36.377 25.9766 -38.623 C 27.2461 -49.4141 34.4727 -56.1035 43.457 -56.1035 C 50.1465 -56.1035 55.6152 -52.3926 59.2285 -45.4102 C 60.1562 -43.5547 61.2305 -42.9199 63.4277 -42.9199 C 73.3887 -42.9199 78.2715 -37.4023 78.2715 -30.7129 C 78.2715 -24.1699 73.1445 -18.9941 65.9668 -18.9941 Z M 57.373 2.53906 L 49.0234 2.53906 L 52.2949 -3.66211 C 52.7344 -4.49219 52.3926 -5.12695 51.5137 -5.12695 L 41.5527 -5.12695 C 40.4785 -5.12695 40.1367 -4.73633 39.7949 -3.95508 L 34.668 7.66602 C 34.2773 8.54492 34.6191 9.13086 35.6445 9.13086 L 42.5781 9.13086 L 37.5 21.4355 C 37.3047 21.9727 37.4023 22.3633 37.7441 22.5098 C 38.0859 22.6562 38.4766 22.5586 38.916 22.168 L 57.9102 4.44336 C 58.7891 3.66211 58.4961 2.53906 57.373 2.53906 Z"/>
  </g>
  <g id="Medium-S" transform="matrix(1 0 0 1 1688.18 696)">
   <path d="M 23.9746 -11.1328 L 65.4297 -11.1328 C 76.9531 -11.1328 85.8398 -19.873 85.8398 -31.1523 C 85.8398 -31.3477 85.8398 -31.4941 85.8398 -31.6895 C 97.7051 -31.9824 105.908 -38.2812 109.375 -46.7773 C 110.938 -50.4883 109.033 -53.8574 105.42 -53.8574 C 102.783 -53.8574 100.977 -52.8809 97.0215 -52.8809 C 87.5977 -52.8809 82.8613 -57.959 82.8613 -66.748 C 82.8613 -70.9473 84.1309 -73.584 84.1309 -75.8301 C 84.1309 -79.4922 80.8594 -81.3477 77.002 -79.9805 C 68.0176 -76.8066 61.4746 -67.4316 61.4746 -57.1289 C 61.4746 -56.8359 61.4746 -56.5918 61.5234 -56.3477 C 56.8359 -61.5234 50.293 -64.4043 42.9199 -64.4043 C 29.9316 -64.4043 19.0918 -54.6875 17.5781 -41.9434 C 11.0352 -39.7949 6.83594 -34.0332 6.83594 -26.9043 C 6.83594 -17.6758 13.8672 -11.1328 23.9746 -11.1328 Z M 68.4082 -57.2266 C 68.4082 -63.623 71.7773 -69.4336 76.7578 -72.6074 L 77.2461 -72.3145 C 76.6602 -70.4102 76.123 -67.9199 76.123 -65.0879 C 76.123 -54.0039 84.1797 -46.2402 95.3613 -46.2402 C 98.0957 -46.2402 100.391 -46.7285 101.953 -47.2656 L 102.246 -46.9238 C 99.5117 -42.2852 93.4082 -38.4766 84.4238 -38.623 C 81.9336 -44.7266 76.4648 -49.1699 69.5312 -50.5859 C 68.7988 -52.6855 68.4082 -54.8828 68.4082 -57.2266 Z M 23.877 -18.9941 C 17.8223 -18.9941 14.7461 -22.3633 14.7461 -26.7578 C 14.7461 -30.4199 16.7969 -33.7402 22.2656 -35.1562 C 24.3652 -35.6934 25.0977 -36.6699 25.293 -38.8184 C 26.416 -49.5605 33.7891 -56.543 42.9199 -56.543 C 49.7559 -56.543 55.2734 -52.832 58.8379 -45.752 C 59.7656 -43.9453 60.791 -43.3105 62.9883 -43.3105 C 72.9492 -43.3105 77.9785 -37.6953 77.9785 -30.957 C 77.9785 -24.2676 72.6562 -18.9941 65.4785 -18.9941 Z M 56.7383 1.95312 L 48.5352 1.95312 L 51.8555 -4.29688 C 52.2949 -5.12695 51.9531 -5.76172 51.123 -5.76172 L 41.5039 -5.76172 C 40.4297 -5.76172 40.0879 -5.37109 39.7461 -4.58984 L 34.7168 6.88477 C 34.3262 7.76367 34.668 8.34961 35.6445 8.34961 L 42.5293 8.34961 L 37.4512 20.5078 C 37.2559 21.0449 37.3535 21.4355 37.7441 21.582 C 38.0859 21.7285 38.4766 21.6309 38.8672 21.2402 L 57.2754 3.85742 C 58.1055 3.07617 57.8613 1.95312 56.7383 1.95312 Z"/>
  </g>
  <g id="Regular-S" transform="matrix(1 0 0 1 1392.42 696)">
   <path d="M 23.4375 -11.9629 L 64.6973 -11.9629 C 75.8789 -11.9629 84.6191 -20.459 84.6191 -31.4941 C 84.6191 -31.6895 84.6191 -31.9336 84.5703 -32.1777 C 96.3379 -32.6172 104.053 -38.7207 107.471 -46.582 C 108.984 -50.0977 107.129 -53.3203 103.711 -53.3203 C 101.221 -53.3203 99.6094 -52.4902 95.7031 -52.4902 C 85.9375 -52.4902 81.0059 -57.7148 81.0059 -66.5527 C 81.0059 -70.5566 82.2754 -73.0957 82.2754 -75.3418 C 82.2754 -78.8574 79.1504 -80.6152 75.3906 -79.2969 C 66.6992 -76.2207 60.4492 -67.041 60.4492 -56.8848 C 60.4492 -56.6406 60.4492 -56.3477 60.498 -56.1035 C 55.8594 -61.2305 49.4141 -64.1602 42.2852 -64.1602 C 29.4434 -64.1602 18.7012 -54.3945 17.3828 -41.7969 C 10.9863 -39.7461 6.83594 -34.082 6.83594 -27.1484 C 6.83594 -18.2129 13.5742 -11.9629 23.4375 -11.9629 Z M 66.8457 -57.0312 C 66.8457 -63.5742 70.3125 -69.3848 75.3418 -72.5586 L 75.8301 -72.2656 C 75.2441 -70.4102 74.7559 -67.9199 74.7559 -65.1855 C 74.7559 -54.0039 83.0078 -46.3379 94.0918 -46.3379 C 96.8262 -46.3379 99.1699 -46.7773 100.732 -47.2656 L 101.025 -46.9727 C 98.291 -42.3828 92.2852 -38.4277 83.3008 -38.4766 C 80.8594 -44.7266 75.1465 -49.2188 67.9199 -50.4395 C 67.2363 -52.4902 66.8457 -54.7363 66.8457 -57.0312 Z M 23.2422 -18.9941 C 17.0898 -18.9941 13.8672 -22.4609 13.8672 -26.9531 C 13.8672 -30.6152 15.8691 -34.082 21.4355 -35.498 C 23.4863 -36.0352 24.2188 -37.0117 24.4141 -39.1602 C 25.3418 -49.7559 32.959 -57.1289 42.2852 -57.1289 C 49.2188 -57.1289 54.7852 -53.418 58.3496 -46.2891 C 59.2285 -44.4824 60.3027 -43.8477 62.4512 -43.8477 C 72.3633 -43.8477 77.5879 -38.0859 77.5879 -31.2988 C 77.5879 -24.4629 72.0703 -18.9941 64.7949 -18.9941 Z M 55.9082 1.2207 L 47.9492 1.2207 L 51.3184 -5.17578 C 51.7578 -6.00586 51.416 -6.5918 50.5859 -6.5918 L 41.4062 -6.5918 C 40.3809 -6.5918 40.0391 -6.20117 39.6973 -5.46875 L 34.7656 5.81055 C 34.3262 6.73828 34.7168 7.27539 35.6934 7.27539 L 42.4316 7.27539 L 37.4512 19.2871 C 37.2559 19.8242 37.3535 20.2148 37.6953 20.3613 C 38.0371 20.5078 38.4277 20.4102 38.8184 19.9707 L 56.4453 3.07617 C 57.2266 2.29492 56.9824 1.2207 55.9082 1.2207 Z"/>
  </g>
  <g id="Light-S" transform="matrix(1 0 0 1 1096.57 696)">
   <path d="M 22.7539 -11.9629 L 64.2578 -11.9629 C 75.1953 -11.9629 83.6914 -20.2148 83.6914 -30.8105 C 83.6914 -31.2012 83.6914 -31.543 83.6426 -31.8848 C 96.2891 -32.373 103.516 -39.7949 105.908 -46.7285 C 106.982 -49.4141 105.518 -51.8066 102.881 -51.8066 C 100.732 -51.8066 98.6816 -50.7324 94.4824 -50.7324 C 84.668 -50.7324 79.3457 -56.2988 79.3457 -65.1855 C 79.3457 -69.7754 80.8105 -72.0215 80.8105 -74.0723 C 80.8105 -76.9043 78.3691 -78.2715 75.3418 -77.2949 C 67.7246 -74.9512 60.3027 -66.748 60.3027 -55.8105 C 60.3027 -55.3711 60.3027 -54.9316 60.3516 -54.4922 C 55.7617 -59.9121 49.3164 -63.0859 41.8457 -63.0859 C 29.3457 -63.0859 18.8965 -53.3203 17.627 -40.7715 C 11.2793 -38.8184 6.83594 -33.4473 6.83594 -26.4648 C 6.83594 -18.1152 13.1348 -11.9629 22.7539 -11.9629 Z M 65.2832 -55.9082 C 65.2832 -64.0137 70.459 -69.7266 75.4395 -72.1191 L 75.8301 -71.8262 C 75.0977 -70.0195 74.4629 -67.334 74.4629 -64.209 C 74.4629 -53.418 82.3242 -45.8984 93.4082 -45.8984 C 96.1426 -45.8984 98.8281 -46.4355 100.684 -47.0703 L 100.928 -46.8262 C 98.877 -42.334 93.0176 -36.8652 82.666 -36.8164 C 80.3711 -43.5059 74.2188 -48.291 66.3574 -49.2676 C 65.625 -51.3672 65.2832 -53.6133 65.2832 -55.9082 Z M 22.6562 -17.334 C 15.8691 -17.334 12.207 -21.2891 12.207 -26.3672 C 12.207 -30.6641 14.8438 -34.375 20.5566 -35.9375 C 22.2656 -36.377 22.8516 -37.1582 22.998 -38.8672 C 23.877 -49.707 32.0801 -57.7148 41.8457 -57.7148 C 49.6582 -57.7148 55.5664 -53.3203 59.1797 -46.1914 C 59.9121 -44.6777 60.791 -44.1406 62.5977 -44.1406 C 72.4121 -44.1406 78.3203 -38.0371 78.3203 -30.6641 C 78.3203 -23.291 72.2656 -17.334 64.3555 -17.334 Z M 53.7598 1.80664 L 46.4844 1.80664 L 50.0977 -5.07812 C 50.5371 -5.9082 50.1953 -6.49414 49.3652 -6.49414 L 42.334 -6.49414 C 41.2598 -6.49414 40.8691 -6.10352 40.5273 -5.37109 L 35.7422 5.66406 C 35.3027 6.5918 35.7422 7.12891 36.7188 7.12891 L 42.8711 7.12891 L 37.9883 18.8477 C 37.793 19.3848 37.8906 19.7754 38.2324 19.9219 C 38.623 20.0684 39.0137 19.9707 39.4043 19.5312 L 54.3945 3.61328 C 55.1758 2.83203 54.834 1.80664 53.7598 1.80664 Z"/>
  </g>
  <g id="Thin-S" transform="matrix(1 0 0 1 800.978 696)">
   <path d="M 21.875 -11.9629 L 63.7695 -11.9629 C 74.2676 -11.9629 82.4707 -19.873 82.4707 -29.9316 C 82.4707 -30.4688 82.4219 -31.0059 82.373 -31.4941 C 96.4844 -31.8848 102.93 -41.4062 103.906 -46.875 C 104.297 -48.4863 103.369 -49.7559 101.807 -49.7559 C 100.049 -49.7559 97.4609 -48.3887 92.8711 -48.3887 C 83.0078 -48.3887 77.1484 -54.3945 77.1484 -63.3789 C 77.1484 -68.75 78.8574 -70.5566 78.8574 -72.4121 C 78.8574 -74.3164 77.3438 -75.1465 75.293 -74.6094 C 69.1406 -73.291 60.1074 -66.3086 60.1074 -54.3457 C 60.1074 -53.6133 60.1074 -52.9297 60.2051 -52.1973 C 55.7129 -58.0566 49.3164 -61.6699 41.3574 -61.6699 C 29.1992 -61.6699 19.1406 -51.9043 17.9688 -39.4043 C 11.6699 -37.6465 6.83594 -32.6172 6.83594 -25.5859 C 6.83594 -18.0176 12.5977 -11.9629 21.875 -11.9629 Z M 63.1348 -54.4434 C 63.1348 -64.5996 70.6055 -70.166 75.5859 -71.5332 L 75.7812 -71.3379 C 74.9512 -69.5312 74.1211 -66.6016 74.1211 -62.9883 C 74.1211 -52.5879 81.4453 -45.4102 92.4316 -45.4102 C 95.2637 -45.4102 98.3398 -45.9473 100.684 -46.7773 L 100.83 -46.6309 C 99.8047 -42.334 94.1895 -34.668 81.8359 -34.5703 C 79.834 -41.8945 72.998 -47.168 64.2578 -47.6562 C 63.5254 -49.8047 63.1348 -52.0508 63.1348 -54.4434 Z M 21.8262 -15.1367 C 14.2578 -15.1367 10.0098 -19.8242 10.0098 -25.5371 C 10.0098 -30.7617 13.5254 -34.7656 19.3848 -36.4746 C 20.6543 -36.8164 21.0449 -37.3047 21.1426 -38.4766 C 21.9238 -49.6582 30.957 -58.4961 41.3574 -58.4961 C 50.293 -58.4961 56.6406 -53.2227 60.2539 -46.0938 C 60.791 -44.9219 61.4258 -44.5801 62.7441 -44.5801 C 72.4609 -44.5801 79.248 -38.0371 79.248 -29.834 C 79.248 -21.7285 72.5098 -15.1367 63.8184 -15.1367 Z M 50.9766 2.58789 L 44.4824 2.58789 L 48.5352 -4.93164 C 48.9746 -5.76172 48.6328 -6.39648 47.7539 -6.39648 L 43.5059 -6.39648 C 42.3828 -6.39648 41.9922 -6.00586 41.6504 -5.22461 L 37.0117 5.41992 C 36.5723 6.39648 37.1582 6.98242 38.0859 6.98242 L 43.457 6.98242 L 38.7207 18.3105 C 38.4766 18.8477 38.623 19.2871 38.9648 19.4336 C 39.3555 19.5801 39.8438 19.4336 40.1855 18.9453 L 51.7578 4.3457 C 52.3926 3.51562 52.0508 2.58789 50.9766 2.58789 Z"/>
  </g>
  <g id="Ultralight-S" transform="matrix(1 0 0 1 504.828 696)">
   <path d="M 21.4355 -11.9629 L 63.4766 -11.9629 C 73.7793 -11.9629 81.8359 -19.7266 81.8359 -29.4922 C 81.8359 -30.127 81.7871 -30.7129 81.7383 -31.2988 C 96.6309 -31.543 102.686 -42.2852 102.881 -46.9727 C 102.93 -47.998 102.246 -48.7305 101.27 -48.7305 C 99.707 -48.7305 96.8262 -47.2168 92.041 -47.2168 C 82.1289 -47.2168 75.9766 -53.4668 75.9766 -62.4023 C 75.9766 -68.2129 77.8809 -69.8242 77.8809 -71.582 C 77.8809 -72.9492 76.8066 -73.5352 75.2441 -73.2422 C 69.873 -72.4609 60.0098 -66.1133 60.0098 -53.6133 C 60.0098 -52.7344 60.0586 -51.8555 60.1562 -50.9766 C 55.7129 -57.0801 49.3164 -60.9375 41.0645 -60.9375 C 29.1016 -60.9375 19.2383 -51.123 18.1641 -38.6719 C 11.8652 -37.0605 6.83594 -32.1777 6.83594 -25.1465 C 6.83594 -17.9199 12.3047 -11.9629 21.4355 -11.9629 Z M 62.0605 -53.7109 C 62.0605 -64.9414 70.752 -70.4102 75.6836 -71.1914 L 75.7812 -71.0449 C 74.8047 -69.2383 73.9258 -66.2109 73.9258 -62.3535 C 73.9258 -52.1973 81.0059 -45.1172 91.9434 -45.1172 C 94.7754 -45.1172 98.0957 -45.7031 100.635 -46.6309 L 100.781 -46.5332 C 100.293 -42.334 94.8242 -33.4473 81.3965 -33.3984 C 79.541 -41.0645 72.3633 -46.582 63.1836 -46.7773 C 62.4023 -48.9746 62.0605 -51.3184 62.0605 -53.7109 Z M 21.4355 -14.0137 C 13.4277 -14.0137 8.88672 -19.043 8.88672 -25.1465 C 8.88672 -30.8105 12.793 -34.9609 18.7988 -36.7676 C 19.8242 -37.0605 20.1172 -37.4512 20.166 -38.2812 C 20.9473 -49.6094 30.3711 -58.8867 41.0645 -58.8867 C 50.6348 -58.8867 57.1777 -53.1738 60.791 -45.9961 C 61.2793 -45.0684 61.7676 -44.7754 62.8906 -44.7754 C 72.5098 -44.7754 79.7852 -37.9883 79.7852 -29.3945 C 79.7852 -20.9473 72.6074 -14.0137 63.4766 -14.0137 Z M 49.5117 2.97852 L 43.5059 2.97852 L 47.7051 -4.83398 C 48.1445 -5.66406 47.8027 -6.34766 46.9238 -6.34766 L 44.0918 -6.34766 C 42.9688 -6.34766 42.5781 -5.95703 42.2363 -5.12695 L 37.6953 5.32227 C 37.2559 6.29883 37.8906 6.83594 38.8184 6.83594 L 43.75 6.83594 L 39.0625 17.9688 C 38.8184 18.5547 38.9648 18.9941 39.3555 19.1406 C 39.7461 19.2871 40.2344 19.1406 40.5762 18.6035 L 50.3418 4.73633 C 50.9766 3.85742 50.5859 2.97852 49.5117 2.97852 Z"/>
  </g>
 </g>
</svg>
