<?xml version="1.0" encoding="UTF-8"?>
<!--Generator: Apple Native CoreSVG 123-->
<!DOCTYPE svg
PUBLIC "-//W3C//DTD SVG 1.1//EN"
       "http://www.w3.org/Graphics/SVG/1.1/DTD/svg11.dtd">
<svg version="1.1" xmlns="http://www.w3.org/2000/svg" xmlns:xlink="http://www.w3.org/1999/xlink" width="3300" height="2200">
 <!--glyph: "uni1001CB.medium", point size: 100.000000, font version: "Version 15.0d7e11", template writer version: "5"-->
 <g id="Notes">
  <rect height="2200" id="artboard" style="fill:white;opacity:1" width="3300" x="0" y="0"/>
  <line id="" style="fill:none;stroke:black;opacity:1;stroke-width:0.5;" x1="263" x2="3036" y1="292" y2="292"/>
  <text style="stroke:none;fill:black;font-family:-apple-system,&quot;SF Pro Display&quot;,&quot;SF Pro Text&quot;,Helvetica,sans-serif;font-weight:bold;" transform="matrix(1 0 0 1 263 322)">Weight/Scale Variations</text>
  <text style="stroke:none;fill:black;font-family:-apple-system,&quot;SF Pro Display&quot;,&quot;SF Pro Text&quot;,Helvetica,sans-serif;text-anchor:middle;" transform="matrix(1 0 0 1 559.711 322)">Ultralight</text>
  <text style="stroke:none;fill:black;font-family:-apple-system,&quot;SF Pro Display&quot;,&quot;SF Pro Text&quot;,Helvetica,sans-serif;text-anchor:middle;" transform="matrix(1 0 0 1 856.422 322)">Thin</text>
  <text style="stroke:none;fill:black;font-family:-apple-system,&quot;SF Pro Display&quot;,&quot;SF Pro Text&quot;,Helvetica,sans-serif;text-anchor:middle;" transform="matrix(1 0 0 1 1153.13 322)">Light</text>
  <text style="stroke:none;fill:black;font-family:-apple-system,&quot;SF Pro Display&quot;,&quot;SF Pro Text&quot;,Helvetica,sans-serif;text-anchor:middle;" transform="matrix(1 0 0 1 1449.84 322)">Regular</text>
  <text style="stroke:none;fill:black;font-family:-apple-system,&quot;SF Pro Display&quot;,&quot;SF Pro Text&quot;,Helvetica,sans-serif;text-anchor:middle;" transform="matrix(1 0 0 1 1746.56 322)">Medium</text>
  <text style="stroke:none;fill:black;font-family:-apple-system,&quot;SF Pro Display&quot;,&quot;SF Pro Text&quot;,Helvetica,sans-serif;text-anchor:middle;" transform="matrix(1 0 0 1 2043.27 322)">Semibold</text>
  <text style="stroke:none;fill:black;font-family:-apple-system,&quot;SF Pro Display&quot;,&quot;SF Pro Text&quot;,Helvetica,sans-serif;text-anchor:middle;" transform="matrix(1 0 0 1 2339.98 322)">Bold</text>
  <text style="stroke:none;fill:black;font-family:-apple-system,&quot;SF Pro Display&quot;,&quot;SF Pro Text&quot;,Helvetica,sans-serif;text-anchor:middle;" transform="matrix(1 0 0 1 2636.69 322)">Heavy</text>
  <text style="stroke:none;fill:black;font-family:-apple-system,&quot;SF Pro Display&quot;,&quot;SF Pro Text&quot;,Helvetica,sans-serif;text-anchor:middle;" transform="matrix(1 0 0 1 2933.4 322)">Black</text>
  <line id="" style="fill:none;stroke:black;opacity:1;stroke-width:0.5;" x1="263" x2="3036" y1="1903" y2="1903"/>
  <g id="" transform="matrix(1 0 0 1 263 1933)">
   <path d="M 9.24805 0.830078 C 13.5547 0.830078 17.1387 -2.74414 17.1387 -7.05078 C 17.1387 -11.3574 13.5449 -14.9316 9.23828 -14.9316 C 4.94141 -14.9316 1.36719 -11.3574 1.36719 -7.05078 C 1.36719 -2.74414 4.95117 0.830078 9.24805 0.830078 Z M 9.24805 -0.654297 C 5.70312 -0.654297 2.87109 -3.49609 2.87109 -7.05078 C 2.87109 -10.6055 5.69336 -13.4473 9.23828 -13.4473 C 12.793 -13.4473 15.6348 -10.6055 15.6445 -7.05078 C 15.6543 -3.49609 12.8027 -0.654297 9.24805 -0.654297 Z M 9.22852 -3.42773 C 9.69727 -3.42773 9.9707 -3.74023 9.9707 -4.25781 L 9.9707 -6.31836 L 12.1973 -6.31836 C 12.6953 -6.31836 13.0371 -6.57227 13.0371 -7.04102 C 13.0371 -7.51953 12.7148 -7.7832 12.1973 -7.7832 L 9.9707 -7.7832 L 9.9707 -10.0098 C 9.9707 -10.5273 9.69727 -10.8496 9.22852 -10.8496 C 8.75977 -10.8496 8.50586 -10.5078 8.50586 -10.0098 L 8.50586 -7.7832 L 6.29883 -7.7832 C 5.78125 -7.7832 5.44922 -7.51953 5.44922 -7.04102 C 5.44922 -6.57227 5.80078 -6.31836 6.29883 -6.31836 L 8.50586 -6.31836 L 8.50586 -4.25781 C 8.50586 -3.75977 8.75977 -3.42773 9.22852 -3.42773 Z"/>
  </g>
  <g id="" transform="matrix(1 0 0 1 281.506 1933)">
   <path d="M 11.709 2.91016 C 17.1582 2.91016 21.6699 -1.60156 21.6699 -7.05078 C 21.6699 -12.4902 17.1484 -17.0117 11.6992 -17.0117 C 6.25977 -17.0117 1.74805 -12.4902 1.74805 -7.05078 C 1.74805 -1.60156 6.26953 2.91016 11.709 2.91016 Z M 11.709 1.25 C 7.09961 1.25 3.41797 -2.44141 3.41797 -7.05078 C 3.41797 -11.6504 7.08984 -15.3516 11.6992 -15.3516 C 16.3086 -15.3516 20 -11.6504 20.0098 -7.05078 C 20.0195 -2.44141 16.3184 1.25 11.709 1.25 Z M 11.6895 -2.41211 C 12.207 -2.41211 12.5195 -2.77344 12.5195 -3.33984 L 12.5195 -6.23047 L 15.5762 -6.23047 C 16.123 -6.23047 16.5039 -6.51367 16.5039 -7.03125 C 16.5039 -7.55859 16.1426 -7.86133 15.5762 -7.86133 L 12.5195 -7.86133 L 12.5195 -10.9277 C 12.5195 -11.5039 12.207 -11.8555 11.6895 -11.8555 C 11.1719 -11.8555 10.8789 -11.4844 10.8789 -10.9277 L 10.8789 -7.86133 L 7.83203 -7.86133 C 7.26562 -7.86133 6.89453 -7.55859 6.89453 -7.03125 C 6.89453 -6.51367 7.28516 -6.23047 7.83203 -6.23047 L 10.8789 -6.23047 L 10.8789 -3.33984 C 10.8789 -2.79297 11.1719 -2.41211 11.6895 -2.41211 Z"/>
  </g>
  <g id="" transform="matrix(1 0 0 1 304.924 1933)">
   <path d="M 14.9707 5.67383 C 21.9336 5.67383 27.6953 -0.078125 27.6953 -7.04102 C 27.6953 -14.0039 21.9238 -19.7559 14.9609 -19.7559 C 8.00781 -19.7559 2.25586 -14.0039 2.25586 -7.04102 C 2.25586 -0.078125 8.01758 5.67383 14.9707 5.67383 Z M 14.9707 3.85742 C 8.93555 3.85742 4.08203 -1.00586 4.08203 -7.04102 C 4.08203 -13.0762 8.92578 -17.9395 14.9609 -17.9395 C 21.0059 -17.9395 25.8594 -13.0762 25.8691 -7.04102 C 25.8789 -1.00586 21.0156 3.85742 14.9707 3.85742 Z M 14.9512 -1.06445 C 15.5176 -1.06445 15.8691 -1.45508 15.8691 -2.06055 L 15.8691 -6.13281 L 20.1074 -6.13281 C 20.6934 -6.13281 21.1133 -6.46484 21.1133 -7.02148 C 21.1133 -7.59766 20.7227 -7.93945 20.1074 -7.93945 L 15.8691 -7.93945 L 15.8691 -12.1875 C 15.8691 -12.8027 15.5176 -13.1934 14.9512 -13.1934 C 14.3848 -13.1934 14.0625 -12.7832 14.0625 -12.1875 L 14.0625 -7.93945 L 9.83398 -7.93945 C 9.21875 -7.93945 8.80859 -7.59766 8.80859 -7.02148 C 8.80859 -6.46484 9.23828 -6.13281 9.83398 -6.13281 L 14.0625 -6.13281 L 14.0625 -2.06055 C 14.0625 -1.47461 14.3848 -1.06445 14.9512 -1.06445 Z"/>
  </g>
  <text style="stroke:none;fill:black;font-family:-apple-system,&quot;SF Pro Display&quot;,&quot;SF Pro Text&quot;,Helvetica,sans-serif;font-weight:bold;" transform="matrix(1 0 0 1 263 1953)">Design Variations</text>
  <text style="stroke:none;fill:black;font-family:-apple-system,&quot;SF Pro Display&quot;,&quot;SF Pro Text&quot;,Helvetica,sans-serif;" transform="matrix(1 0 0 1 263 1971)">Symbols are supported in up to nine weights and three scales.</text>
  <text style="stroke:none;fill:black;font-family:-apple-system,&quot;SF Pro Display&quot;,&quot;SF Pro Text&quot;,Helvetica,sans-serif;" transform="matrix(1 0 0 1 263 1989)">For optimal layout with text and other symbols, vertically align</text>
  <text style="stroke:none;fill:black;font-family:-apple-system,&quot;SF Pro Display&quot;,&quot;SF Pro Text&quot;,Helvetica,sans-serif;" transform="matrix(1 0 0 1 263 2007)">symbols with the adjacent text.</text>
  <rect height="14" id="" style="fill:#00AEEF;stroke:none;opacity:0.4;" width="3" x="776" y="1919"/>
  <g id="" transform="matrix(1 0 0 1 779 1933)">
   <path d="M 10.5273 0 L 12.373 0 L 7.17773 -14.0918 L 5.43945 -14.0918 L 0.244141 0 L 2.08984 0 L 3.50586 -4.0332 L 9.11133 -4.0332 Z M 6.2793 -11.9531 L 6.33789 -11.9531 L 8.59375 -5.52734 L 4.02344 -5.52734 Z"/>
  </g>
  <rect height="14" id="" style="fill:#00AEEF;stroke:none;opacity:0.4;" width="3" x="791.617" y="1919"/>
  <text style="stroke:none;fill:black;font-family:-apple-system,&quot;SF Pro Display&quot;,&quot;SF Pro Text&quot;,Helvetica,sans-serif;font-weight:bold;" transform="matrix(1 0 0 1 776 1953)">Margins</text>
  <text style="stroke:none;fill:black;font-family:-apple-system,&quot;SF Pro Display&quot;,&quot;SF Pro Text&quot;,Helvetica,sans-serif;" transform="matrix(1 0 0 1 776 1971)">Leading and trailing margins on the left and right side of each symbol</text>
  <text style="stroke:none;fill:black;font-family:-apple-system,&quot;SF Pro Display&quot;,&quot;SF Pro Text&quot;,Helvetica,sans-serif;" transform="matrix(1 0 0 1 776 1989)">can be adjusted by modifying the width of the blue rectangles.</text>
  <text style="stroke:none;fill:black;font-family:-apple-system,&quot;SF Pro Display&quot;,&quot;SF Pro Text&quot;,Helvetica,sans-serif;" transform="matrix(1 0 0 1 776 2007)">Modifications are automatically applied proportionally to all</text>
  <text style="stroke:none;fill:black;font-family:-apple-system,&quot;SF Pro Display&quot;,&quot;SF Pro Text&quot;,Helvetica,sans-serif;" transform="matrix(1 0 0 1 776 2025)">scales and weights.</text>
  <g id="" transform="matrix(1 0 0 1 1289 1933)">
   <path d="M 2.83203 3.11523 L 4.375 4.6582 C 5.22461 5.48828 6.19141 5.41992 7.06055 4.46289 L 17.2754 -6.66016 C 17.7051 -6.36719 18.0957 -6.37695 18.5645 -6.47461 L 19.6094 -6.68945 L 20.3027 -5.99609 L 20.2539 -5.47852 C 20.1855 -4.95117 20.3516 -4.53125 20.8496 -4.0332 L 21.6602 -3.22266 C 22.168 -2.71484 22.8223 -2.68555 23.3008 -3.16406 L 26.5527 -6.41602 C 27.0312 -6.89453 27.0117 -7.54883 26.5039 -8.05664 L 25.6836 -8.87695 C 25.1855 -9.375 24.7754 -9.55078 24.2383 -9.47266 L 23.7109 -9.41406 L 23.0566 -10.0781 L 23.3398 -11.2207 C 23.4863 -11.7871 23.3398 -12.2559 22.7148 -12.8613 L 20.3027 -15.2539 C 16.7578 -18.7793 12.2266 -18.6719 9.11133 -15.5371 C 8.69141 -15.1074 8.64258 -14.5215 8.91602 -14.0918 C 9.15039 -13.7207 9.62891 -13.4961 10.2734 -13.6621 C 11.7871 -14.043 13.3008 -13.9258 14.7852 -12.9199 L 14.1602 -11.3379 C 13.9258 -10.752 13.9453 -10.2734 14.1797 -9.83398 L 3.01758 0.439453 C 2.08008 1.30859 1.97266 2.25586 2.83203 3.11523 Z M 10.6738 -15.1465 C 13.3398 -17.1387 16.6504 -16.8262 19.0527 -14.4141 L 21.6797 -11.8066 C 21.9141 -11.5723 21.9434 -11.3867 21.8848 -11.0938 L 21.5039 -9.53125 L 23.0762 -7.95898 L 24.043 -8.04688 C 24.3262 -8.07617 24.4141 -8.05664 24.6387 -7.83203 L 25.2637 -7.20703 L 22.5098 -4.46289 L 21.8848 -5.07812 C 21.6602 -5.30273 21.6406 -5.40039 21.6699 -5.68359 L 21.7578 -6.64062 L 20.1953 -8.20312 L 18.5742 -7.89062 C 18.291 -7.83203 18.1445 -7.83203 17.9102 -8.07617 L 15.7324 -10.2539 C 15.5078 -10.4883 15.4785 -10.625 15.6055 -10.9473 L 16.5527 -13.2227 C 14.9512 -14.7559 12.8418 -15.6055 10.8008 -14.9512 C 10.7129 -14.9219 10.6445 -14.9414 10.6152 -14.9805 C 10.5859 -15.0293 10.5859 -15.0781 10.6738 -15.1465 Z M 4.10156 2.41211 C 3.61328 1.91406 3.78906 1.61133 4.12109 1.30859 L 15.0781 -8.80859 L 16.3086 -7.57812 L 6.15234 3.34961 C 5.84961 3.68164 5.46875 3.7793 5.06836 3.37891 Z"/>
  </g>
  <text style="stroke:none;fill:black;font-family:-apple-system,&quot;SF Pro Display&quot;,&quot;SF Pro Text&quot;,Helvetica,sans-serif;font-weight:bold;" transform="matrix(1 0 0 1 1289 1953)">Exporting</text>
  <text style="stroke:none;fill:black;font-family:-apple-system,&quot;SF Pro Display&quot;,&quot;SF Pro Text&quot;,Helvetica,sans-serif;" transform="matrix(1 0 0 1 1289 1971)">Symbols should be outlined when exporting to ensure the</text>
  <text style="stroke:none;fill:black;font-family:-apple-system,&quot;SF Pro Display&quot;,&quot;SF Pro Text&quot;,Helvetica,sans-serif;" transform="matrix(1 0 0 1 1289 1989)">design is preserved when submitting to Xcode.</text>
  <text id="template-version" style="stroke:none;fill:black;font-family:-apple-system,&quot;SF Pro Display&quot;,&quot;SF Pro Text&quot;,Helvetica,sans-serif;text-anchor:end;" transform="matrix(1 0 0 1 3036 1933)">Template v.1.0</text>
  <text style="stroke:none;fill:black;font-family:-apple-system,&quot;SF Pro Display&quot;,&quot;SF Pro Text&quot;,Helvetica,sans-serif;text-anchor:end;" transform="matrix(1 0 0 1 3036 1951)">Generated from cloud.fog.fill</text>
  <text style="stroke:none;fill:black;font-family:-apple-system,&quot;SF Pro Display&quot;,&quot;SF Pro Text&quot;,Helvetica,sans-serif;text-anchor:end;" transform="matrix(1 0 0 1 3036 1969)">Typeset at 100 points</text>
  <text style="stroke:none;fill:black;font-family:-apple-system,&quot;SF Pro Display&quot;,&quot;SF Pro Text&quot;,Helvetica,sans-serif;" transform="matrix(1 0 0 1 263 726)">Small</text>
  <text style="stroke:none;fill:black;font-family:-apple-system,&quot;SF Pro Display&quot;,&quot;SF Pro Text&quot;,Helvetica,sans-serif;" transform="matrix(1 0 0 1 263 1156)">Medium</text>
  <text style="stroke:none;fill:black;font-family:-apple-system,&quot;SF Pro Display&quot;,&quot;SF Pro Text&quot;,Helvetica,sans-serif;" transform="matrix(1 0 0 1 263 1586)">Large</text>
 </g>
 <g id="Guides">
  <g id="H-reference" style="fill:#27AAE1;stroke:none;" transform="matrix(1 0 0 1 339 696)">
   <path d="M 54.9316 0 L 57.666 0 L 30.5664 -70.459 L 28.0762 -70.459 L 0.976562 0 L 3.66211 0 L 12.9395 -24.4629 L 45.7031 -24.4629 Z M 29.1992 -67.0898 L 29.4434 -67.0898 L 44.8242 -26.709 L 13.8184 -26.709 Z"/>
  </g>
  <line id="Baseline-S" style="fill:none;stroke:#27AAE1;opacity:1;stroke-width:0.577;" x1="263" x2="3036" y1="696" y2="696"/>
  <line id="Capline-S" style="fill:none;stroke:#27AAE1;opacity:1;stroke-width:0.577;" x1="263" x2="3036" y1="625.541" y2="625.541"/>
  <g id="H-reference" style="fill:#27AAE1;stroke:none;" transform="matrix(1 0 0 1 339 1126)">
   <path d="M 54.9316 0 L 57.666 0 L 30.5664 -70.459 L 28.0762 -70.459 L 0.976562 0 L 3.66211 0 L 12.9395 -24.4629 L 45.7031 -24.4629 Z M 29.1992 -67.0898 L 29.4434 -67.0898 L 44.8242 -26.709 L 13.8184 -26.709 Z"/>
  </g>
  <line id="Baseline-M" style="fill:none;stroke:#27AAE1;opacity:1;stroke-width:0.577;" x1="263" x2="3036" y1="1126" y2="1126"/>
  <line id="Capline-M" style="fill:none;stroke:#27AAE1;opacity:1;stroke-width:0.577;" x1="263" x2="3036" y1="1055.54" y2="1055.54"/>
  <g id="H-reference" style="fill:#27AAE1;stroke:none;" transform="matrix(1 0 0 1 339 1556)">
   <path d="M 54.9316 0 L 57.666 0 L 30.5664 -70.459 L 28.0762 -70.459 L 0.976562 0 L 3.66211 0 L 12.9395 -24.4629 L 45.7031 -24.4629 Z M 29.1992 -67.0898 L 29.4434 -67.0898 L 44.8242 -26.709 L 13.8184 -26.709 Z"/>
  </g>
  <line id="Baseline-L" style="fill:none;stroke:#27AAE1;opacity:1;stroke-width:0.577;" x1="263" x2="3036" y1="1556" y2="1556"/>
  <line id="Capline-L" style="fill:none;stroke:#27AAE1;opacity:1;stroke-width:0.577;" x1="263" x2="3036" y1="1485.54" y2="1485.54"/>
  <rect height="119.336" id="left-margin" style="fill:#00AEEF;stroke:none;opacity:0.4;" width="8.74023" x="1385.86" y="1030.79"/>
  <rect height="119.336" id="right-margin" style="fill:#00AEEF;stroke:none;opacity:0.4;" width="8.74023" x="1505.09" y="1030.79"/>
 </g>
 <g id="Symbols">
  <g id="Black-L" transform="matrix(1 0 0 1 2846.24 1556)">
   <path d="M 44.4824 -0.341797 L 123.926 -0.341797 C 146.045 -0.341797 163.037 -17.0898 163.037 -38.8184 C 163.037 -60.8887 145.898 -77.6367 123.486 -77.4902 C 115.039 -93.8477 100.195 -102.686 80.9082 -102.686 C 56.1523 -102.686 35.8398 -85.0098 32.5195 -60.6445 C 20.0684 -56.4453 11.2793 -45.7031 11.2793 -31.5918 C 11.2793 -13.3789 25.0488 -0.341797 44.4824 -0.341797 Z M 127.197 17.334 L 48.4375 17.334 C 45.2637 17.334 42.8711 19.5312 42.8711 22.5586 C 42.8711 25.5859 45.2637 27.832 48.4375 27.832 L 127.197 27.832 C 130.322 27.832 132.764 25.5859 132.764 22.5586 C 132.764 19.5312 130.322 17.334 127.197 17.334 Z M 127.197 38.7207 L 48.4375 38.7207 C 45.2637 38.7207 42.8711 40.9668 42.8711 43.9453 C 42.8711 46.9727 45.2637 49.2188 48.4375 49.2188 L 127.197 49.2188 C 130.322 49.2188 132.764 46.9727 132.764 43.9453 C 132.764 40.9668 130.322 38.7207 127.197 38.7207 Z"/>
  </g>
  <g id="Heavy-L" transform="matrix(1 0 0 1 2550.68 1556)">
   <path d="M 43.3594 -1.75781 L 122.559 -1.75781 C 144.141 -1.75781 160.742 -18.0664 160.742 -39.1602 C 160.742 -60.5957 143.848 -76.8066 121.729 -76.6602 C 113.379 -93.0664 98.584 -102.002 79.6875 -102.002 C 55.3711 -102.002 35.2539 -84.1797 32.3242 -60.0098 C 19.873 -56.0059 11.2793 -45.4102 11.2793 -31.7383 C 11.2793 -14.209 24.5117 -1.75781 43.3594 -1.75781 Z M 126.514 16.1133 L 46.7773 16.1133 C 43.8965 16.1133 41.6992 18.1641 41.6992 20.9473 C 41.6992 23.6816 43.8965 25.7812 46.7773 25.7812 L 126.514 25.7812 C 129.395 25.7812 131.592 23.6816 131.592 20.9473 C 131.592 18.1641 129.395 16.1133 126.514 16.1133 Z M 126.514 37.5 L 46.7773 37.5 C 43.8965 37.5 41.6992 39.5508 41.6992 42.334 C 41.6992 45.0684 43.8965 47.168 46.7773 47.168 L 126.514 47.168 C 129.395 47.168 131.592 45.0684 131.592 42.334 C 131.592 39.5508 129.395 37.5 126.514 37.5 Z"/>
  </g>
  <g id="Bold-L" transform="matrix(1 0 0 1 2255.29 1556)">
   <path d="M 42.0898 -3.36914 L 121.045 -3.36914 C 141.992 -3.36914 158.105 -19.1895 158.105 -39.5996 C 158.105 -60.2539 141.553 -75.8789 119.775 -75.6836 C 111.523 -92.1387 96.7773 -101.221 78.3691 -101.221 C 54.4922 -101.221 34.668 -83.252 32.0801 -59.2773 C 19.6777 -55.5176 11.2793 -45.0684 11.2793 -31.8848 C 11.2793 -15.1367 23.9258 -3.36914 42.0898 -3.36914 Z M 125.781 14.7949 L 44.9219 14.7949 C 42.3828 14.7949 40.3809 16.6504 40.3809 19.1406 C 40.3809 21.6309 42.3828 23.4863 44.9219 23.4863 L 125.781 23.4863 C 128.32 23.4863 130.273 21.6309 130.273 19.1406 C 130.273 16.6504 128.32 14.7949 125.781 14.7949 Z M 125.781 36.1816 L 44.9219 36.1816 C 42.3828 36.1816 40.3809 38.0371 40.3809 40.5273 C 40.3809 43.0176 42.3828 44.873 44.9219 44.873 L 125.781 44.873 C 128.32 44.873 130.273 43.0176 130.273 40.5273 C 130.273 38.0371 128.32 36.1816 125.781 36.1816 Z"/>
  </g>
  <g id="Semibold-L" transform="matrix(1 0 0 1 1959.45 1556)">
   <path d="M 41.2109 -4.49219 L 120.02 -4.49219 C 140.527 -4.49219 156.348 -19.9707 156.348 -39.8438 C 156.348 -60.0098 139.99 -75.1953 118.457 -75.0488 C 110.205 -91.5527 95.5566 -100.684 77.4414 -100.684 C 53.8574 -100.684 34.2285 -82.5684 31.9336 -58.7891 C 19.5312 -55.2246 11.2793 -44.873 11.2793 -31.9824 C 11.2793 -15.7715 23.5352 -4.49219 41.2109 -4.49219 Z M 125.244 13.8672 L 43.6523 13.8672 C 41.3086 13.8672 39.502 15.5762 39.502 17.8711 C 39.502 20.166 41.3086 21.9238 43.6523 21.9238 L 125.244 21.9238 C 127.588 21.9238 129.395 20.166 129.395 17.8711 C 129.395 15.5762 127.588 13.8672 125.244 13.8672 Z M 125.244 35.2539 L 43.6523 35.2539 C 41.3086 35.2539 39.502 36.9629 39.502 39.2578 C 39.502 41.5527 41.3086 43.3105 43.6523 43.3105 L 125.244 43.3105 C 127.588 43.3105 129.395 41.5527 129.395 39.2578 C 129.395 36.9629 127.588 35.2539 125.244 35.2539 Z"/>
  </g>
  <g id="Medium-L" transform="matrix(1 0 0 1 1663.43 1556)">
   <path d="M 40.5762 -5.32227 L 119.238 -5.32227 C 139.404 -5.32227 154.98 -20.5078 154.98 -40.0879 C 154.98 -59.8633 138.818 -74.707 117.432 -74.5605 C 109.229 -91.0645 94.5801 -100.293 76.709 -100.293 C 53.418 -100.293 33.8867 -82.0801 31.8359 -58.4473 C 19.4336 -54.9805 11.2793 -44.6777 11.2793 -32.0801 C 11.2793 -16.2598 23.1934 -5.32227 40.5762 -5.32227 Z M 124.854 13.1348 L 42.6758 13.1348 C 40.5273 13.1348 38.8184 14.7949 38.8184 16.9434 C 38.8184 19.0918 40.5273 20.7031 42.6758 20.7031 L 124.854 20.7031 C 127.002 20.7031 128.711 19.0918 128.711 16.9434 C 128.711 14.7949 127.002 13.1348 124.854 13.1348 Z M 124.854 34.5215 L 42.6758 34.5215 C 40.5273 34.5215 38.8184 36.1816 38.8184 38.3301 C 38.8184 40.4785 40.5273 42.0898 42.6758 42.0898 L 124.854 42.0898 C 127.002 42.0898 128.711 40.4785 128.711 38.3301 C 128.711 36.1816 127.002 34.5215 124.854 34.5215 Z"/>
  </g>
  <g id="Regular-L" transform="matrix(1 0 0 1 1367.62 1556)">
   <path d="M 39.6973 -6.39648 L 118.164 -6.39648 C 137.939 -6.39648 153.174 -21.2891 153.174 -40.332 C 153.174 -59.6191 137.256 -74.0723 116.113 -73.877 C 107.959 -90.4297 93.3594 -99.7559 75.7812 -99.7559 C 52.7832 -99.7559 33.4473 -81.4453 31.6895 -57.959 C 19.2871 -54.6387 11.2793 -44.4336 11.2793 -32.1777 C 11.2793 -16.8945 22.8027 -6.39648 39.6973 -6.39648 Z M 124.316 12.2559 L 41.4062 12.2559 C 39.4531 12.2559 37.9395 13.7207 37.9395 15.6738 C 37.9395 17.6758 39.4531 19.1406 41.4062 19.1406 L 124.316 19.1406 C 126.27 19.1406 127.832 17.6758 127.832 15.6738 C 127.832 13.7207 126.27 12.2559 124.316 12.2559 Z M 124.316 33.6426 L 41.4062 33.6426 C 39.4531 33.6426 37.9395 35.1074 37.9395 37.1094 C 37.9395 39.0625 39.4531 40.5273 41.4062 40.5273 L 124.316 40.5273 C 126.27 40.5273 127.832 39.0625 127.832 37.1094 C 127.832 35.1074 126.27 33.6426 124.316 33.6426 Z"/>
  </g>
  <g id="Light-L" transform="matrix(1 0 0 1 1071.35 1556)">
   <path d="M 38.9648 -7.51953 L 117.822 -7.51953 C 137.207 -7.51953 152.295 -22.0703 152.295 -40.7227 C 152.295 -59.5703 136.523 -73.6816 115.723 -73.5352 C 107.52 -90.5273 93.1641 -99.7559 75.4395 -99.7559 C 52.832 -99.7559 33.7891 -81.4941 32.0312 -57.959 C 19.4336 -54.6875 11.2793 -44.6777 11.2793 -32.5684 C 11.2793 -17.7734 22.5098 -7.51953 38.9648 -7.51953 Z M 124.512 12.0117 L 40.332 12.0117 C 38.7207 12.0117 37.4512 13.1836 37.4512 14.7461 C 37.4512 16.3574 38.7207 17.4805 40.332 17.4805 L 124.512 17.4805 C 126.123 17.4805 127.393 16.3574 127.393 14.7461 C 127.393 13.1836 126.123 12.0117 124.512 12.0117 Z M 124.512 33.4473 L 40.332 33.4473 C 38.7207 33.4473 37.4512 34.6191 37.4512 36.1816 C 37.4512 37.7441 38.7207 38.916 40.332 38.916 L 124.512 38.916 C 126.123 38.916 127.393 37.7441 127.393 36.1816 C 127.393 34.6191 126.123 33.4473 124.512 33.4473 Z"/>
  </g>
  <g id="Thin-L" transform="matrix(1 0 0 1 775.245 1556)">
   <path d="M 37.9883 -8.98438 L 117.334 -8.98438 C 136.279 -8.98438 151.074 -23.1445 151.074 -41.2598 C 151.074 -59.4727 135.596 -73.1934 115.234 -73.0469 C 106.885 -90.5762 92.9199 -99.7559 74.9512 -99.7559 C 52.832 -99.7559 34.2285 -81.4941 32.5195 -57.959 C 19.5801 -54.7363 11.2793 -44.9219 11.2793 -33.0566 C 11.2793 -18.8965 22.168 -8.98438 37.9883 -8.98438 Z M 124.756 11.7676 L 38.8672 11.7676 C 37.7441 11.7676 36.8652 12.5 36.8652 13.5254 C 36.8652 14.5508 37.7441 15.332 38.8672 15.332 L 124.756 15.332 C 125.879 15.332 126.758 14.5508 126.758 13.5254 C 126.758 12.5 125.879 11.7676 124.756 11.7676 Z M 124.756 33.1543 L 38.8672 33.1543 C 37.7441 33.1543 36.8652 33.9355 36.8652 34.9609 C 36.8652 35.9863 37.7441 36.7188 38.8672 36.7188 L 124.756 36.7188 C 125.879 36.7188 126.758 35.9863 126.758 34.9609 C 126.758 33.9355 125.879 33.1543 124.756 33.1543 Z"/>
  </g>
  <g id="Ultralight-L" transform="matrix(1 0 0 1 478.852 1556)">
   <path d="M 37.5 -9.7168 L 117.09 -9.7168 C 135.791 -9.7168 150.439 -23.7305 150.439 -41.5039 C 150.439 -59.4727 135.156 -72.9492 114.99 -72.8027 C 106.592 -90.625 92.7734 -99.7559 74.707 -99.7559 C 52.8809 -99.7559 34.4727 -81.4941 32.8125 -57.959 C 19.6777 -54.7363 11.2793 -45.0684 11.2793 -33.3008 C 11.2793 -19.4824 21.9727 -9.7168 37.5 -9.7168 Z M 124.902 11.6211 L 38.0859 11.6211 C 37.2559 11.6211 36.5234 12.1582 36.5234 12.9395 C 36.5234 13.6719 37.2559 14.209 38.0859 14.209 L 124.902 14.209 C 125.732 14.209 126.465 13.6719 126.465 12.9395 C 126.465 12.1582 125.732 11.6211 124.902 11.6211 Z M 124.902 33.0078 L 38.0859 33.0078 C 37.2559 33.0078 36.5234 33.5449 36.5234 34.3262 C 36.5234 35.0586 37.2559 35.5957 38.0859 35.5957 L 124.902 35.5957 C 125.732 35.5957 126.465 35.0586 126.465 34.3262 C 126.465 33.5449 125.732 33.0078 124.902 33.0078 Z"/>
  </g>
  <g id="Black-M" transform="matrix(1 0 0 1 2864.53 1126)">
   <path d="M 35.5469 -6.83594 L 97.7051 -6.83594 C 115.381 -6.83594 129.004 -20.3125 129.004 -37.7441 C 129.004 -55.4688 115.43 -69.043 97.8516 -68.9453 C 91.1621 -81.7871 79.6875 -88.4277 64.1602 -88.4277 C 44.5801 -88.4277 28.7109 -74.9512 25.6836 -55.7617 C 15.8691 -52.2461 8.74023 -43.8477 8.74023 -32.373 C 8.74023 -17.627 20.0195 -6.83594 35.5469 -6.83594 Z M 99.5605 6.98242 L 39.1602 6.98242 C 36.5234 6.98242 34.5215 8.78906 34.5215 11.2305 C 34.5215 13.6719 36.5234 15.4785 39.1602 15.4785 L 99.5605 15.4785 C 102.197 15.4785 104.199 13.6719 104.199 11.2305 C 104.199 8.78906 102.197 6.98242 99.5605 6.98242 Z M 99.5605 23.584 L 39.1602 23.584 C 36.5234 23.584 34.5215 25.3906 34.5215 27.832 C 34.5215 30.2734 36.5234 32.0801 39.1602 32.0801 L 99.5605 32.0801 C 102.197 32.0801 104.199 30.2734 104.199 27.832 C 104.199 25.3906 102.197 23.584 99.5605 23.584 Z"/>
  </g>
  <g id="Heavy-M" transform="matrix(1 0 0 1 2568.96 1126)">
   <path d="M 34.5215 -8.1543 L 96.2891 -8.1543 C 113.477 -8.1543 126.709 -21.1426 126.709 -38.0371 C 126.709 -55.1758 113.379 -68.2129 96.0449 -68.1152 C 89.4531 -80.9082 77.9785 -87.6953 62.9395 -87.6953 C 43.75 -87.6953 27.9785 -74.0234 25.3418 -55.0781 C 15.625 -51.8066 8.74023 -43.457 8.74023 -32.4707 C 8.74023 -18.3105 19.4824 -8.1543 34.5215 -8.1543 Z M 98.7793 5.76172 L 37.6465 5.76172 C 35.2051 5.76172 33.3984 7.42188 33.3984 9.7168 C 33.3984 12.0117 35.2051 13.6719 37.6465 13.6719 L 98.7793 13.6719 C 101.221 13.6719 103.076 12.0117 103.076 9.7168 C 103.076 7.42188 101.221 5.76172 98.7793 5.76172 Z M 98.7793 22.3145 L 37.6465 22.3145 C 35.2051 22.3145 33.3984 24.0234 33.3984 26.3184 C 33.3984 28.5645 35.2051 30.2734 37.6465 30.2734 L 98.7793 30.2734 C 101.221 30.2734 103.076 28.5645 103.076 26.3184 C 103.076 24.0234 101.221 22.3145 98.7793 22.3145 Z"/>
  </g>
  <g id="Bold-M" transform="matrix(1 0 0 1 2273.55 1126)">
   <path d="M 33.3984 -9.57031 L 94.7266 -9.57031 C 111.328 -9.57031 124.121 -22.1191 124.121 -38.3301 C 124.121 -54.834 111.084 -67.2852 93.9941 -67.1875 C 87.5488 -79.8828 76.0742 -86.8652 61.5234 -86.8652 C 42.7734 -86.8652 27.2461 -72.998 25 -54.2969 C 15.3809 -51.2695 8.74023 -43.0664 8.74023 -32.5195 C 8.74023 -19.0918 18.8965 -9.57031 33.3984 -9.57031 Z M 97.9004 4.3457 L 35.9375 4.3457 C 33.7891 4.3457 32.0801 5.9082 32.0801 8.00781 C 32.0801 10.1074 33.7891 11.6699 35.9375 11.6699 L 97.9004 11.6699 C 100.098 11.6699 101.758 10.1074 101.758 8.00781 C 101.758 5.9082 100.098 4.3457 97.9004 4.3457 Z M 97.9004 20.8984 L 35.9375 20.8984 C 33.7891 20.8984 32.0801 22.4609 32.0801 24.5605 C 32.0801 26.6602 33.7891 28.2715 35.9375 28.2715 L 97.9004 28.2715 C 100.098 28.2715 101.758 26.6602 101.758 24.5605 C 101.758 22.4609 100.098 20.8984 97.9004 20.8984 Z"/>
  </g>
  <g id="Semibold-M" transform="matrix(1 0 0 1 1977.71 1126)">
   <path d="M 32.5684 -10.5469 L 93.6523 -10.5469 C 109.863 -10.5469 122.363 -22.8027 122.363 -38.5742 C 122.363 -54.5898 109.521 -66.6504 92.627 -66.5039 C 86.2305 -79.1992 74.7559 -86.2793 60.5957 -86.2793 C 42.0898 -86.2793 26.709 -72.2656 24.7559 -53.7598 C 15.1855 -50.8789 8.74023 -42.7734 8.74023 -32.5684 C 8.74023 -19.6289 18.5059 -10.5469 32.5684 -10.5469 Z M 97.3145 3.36914 L 34.7656 3.36914 C 32.7637 3.36914 31.2012 4.83398 31.2012 6.83594 C 31.2012 8.78906 32.7637 10.3027 34.7656 10.3027 L 97.3145 10.3027 C 99.3164 10.3027 100.879 8.78906 100.879 6.83594 C 100.879 4.83398 99.3164 3.36914 97.3145 3.36914 Z M 97.3145 19.9219 L 34.7656 19.9219 C 32.7637 19.9219 31.2012 21.4355 31.2012 23.3887 C 31.2012 25.3906 32.7637 26.8555 34.7656 26.8555 L 97.3145 26.8555 C 99.3164 26.8555 100.879 25.3906 100.879 23.3887 C 100.879 21.4355 99.3164 19.9219 97.3145 19.9219 Z"/>
  </g>
  <g id="Medium-M" transform="matrix(1 0 0 1 1681.69 1126)">
   <path d="M 31.9824 -11.2793 L 92.8711 -11.2793 C 108.74 -11.2793 120.996 -23.291 120.996 -38.7695 C 120.996 -54.3945 108.301 -66.1621 91.5527 -66.0156 C 85.2539 -78.6621 73.7793 -85.8398 59.8633 -85.8398 C 41.6016 -85.8398 26.2695 -71.7285 24.5605 -53.3691 C 15.0391 -50.5859 8.74023 -42.5293 8.74023 -32.6172 C 8.74023 -20.0195 18.2129 -11.2793 31.9824 -11.2793 Z M 96.8262 2.63672 L 33.8867 2.63672 C 31.9824 2.63672 30.5176 4.05273 30.5176 5.9082 C 30.5176 7.8125 31.9824 9.22852 33.8867 9.22852 L 96.8262 9.22852 C 98.7305 9.22852 100.195 7.8125 100.195 5.9082 C 100.195 4.05273 98.7305 2.63672 96.8262 2.63672 Z M 96.8262 19.1895 L 33.8867 19.1895 C 31.9824 19.1895 30.5176 20.6055 30.5176 22.5098 C 30.5176 24.3652 31.9824 25.7812 33.8867 25.7812 L 96.8262 25.7812 C 98.7305 25.7812 100.195 24.3652 100.195 22.5098 C 100.195 20.6055 98.7305 19.1895 96.8262 19.1895 Z"/>
  </g>
  <g id="Regular-M" transform="matrix(1 0 0 1 1385.86 1126)">
   <path d="M 31.2012 -12.2559 L 91.7969 -12.2559 C 107.324 -12.2559 119.238 -23.9746 119.238 -38.9648 C 119.238 -54.1504 106.738 -65.5273 90.1855 -65.3809 C 83.9355 -77.9785 72.4609 -85.2539 58.9355 -85.2539 C 40.918 -85.2539 25.7324 -71.0449 24.3652 -52.832 C 14.8926 -50.2441 8.74023 -42.2852 8.74023 -32.666 C 8.74023 -20.5566 17.8223 -12.2559 31.2012 -12.2559 Z M 96.2402 1.66016 L 32.7148 1.66016 C 31.0059 1.66016 29.6387 2.97852 29.6387 4.78516 C 29.6387 6.54297 31.0059 7.86133 32.7148 7.86133 L 96.2402 7.86133 C 97.998 7.86133 99.3164 6.54297 99.3164 4.78516 C 99.3164 2.97852 97.998 1.66016 96.2402 1.66016 Z M 96.2402 18.2617 L 32.7148 18.2617 C 31.0059 18.2617 29.6387 19.5801 29.6387 21.3379 C 29.6387 23.0957 31.0059 24.4141 32.7148 24.4141 L 96.2402 24.4141 C 97.998 24.4141 99.3164 23.0957 99.3164 21.3379 C 99.3164 19.5801 97.998 18.2617 96.2402 18.2617 Z"/>
  </g>
  <g id="Light-M" transform="matrix(1 0 0 1 1089.56 1126)">
   <path d="M 30.5176 -13.2812 L 91.4551 -13.2812 C 106.641 -13.2812 118.408 -24.6582 118.408 -39.3066 C 118.408 -54.1016 106.152 -65.1855 89.8438 -65.0879 C 83.5449 -78.0273 72.3145 -85.2539 58.6426 -85.2539 C 40.918 -85.2539 26.0254 -71.0449 24.6582 -52.832 C 14.9902 -50.293 8.74023 -42.4316 8.74023 -33.0078 C 8.74023 -21.2891 17.5781 -13.2812 30.5176 -13.2812 Z M 96.4355 1.51367 L 31.7383 1.51367 C 30.3711 1.51367 29.248 2.53906 29.248 3.95508 C 29.248 5.32227 30.3711 6.39648 31.7383 6.39648 L 96.4355 6.39648 C 97.8027 6.39648 98.9258 5.32227 98.9258 3.95508 C 98.9258 2.53906 97.8027 1.51367 96.4355 1.51367 Z M 96.4355 18.0664 L 31.7383 18.0664 C 30.3711 18.0664 29.248 19.0918 29.248 20.5078 C 29.248 21.9238 30.3711 22.9492 31.7383 22.9492 L 96.4355 22.9492 C 97.8027 22.9492 98.9258 21.9238 98.9258 20.5078 C 98.9258 19.0918 97.8027 18.0664 96.4355 18.0664 Z"/>
  </g>
  <g id="Thin-M" transform="matrix(1 0 0 1 793.385 1126)">
   <path d="M 29.6387 -14.5508 L 91.0156 -14.5508 C 105.811 -14.5508 117.334 -25.6348 117.334 -39.7949 C 117.334 -54.0527 105.322 -64.7461 89.4043 -64.6484 C 82.959 -78.125 72.0703 -85.2539 58.2031 -85.2539 C 40.9668 -85.2539 26.4648 -71.0938 25.0977 -52.832 C 15.1367 -50.3418 8.74023 -42.6758 8.74023 -33.4473 C 8.74023 -22.3145 17.2363 -14.5508 29.6387 -14.5508 Z M 96.6309 1.26953 L 30.4199 1.26953 C 29.4922 1.26953 28.7109 1.9043 28.7109 2.83203 C 28.7109 3.75977 29.4922 4.44336 30.4199 4.44336 L 96.6309 4.44336 C 97.6074 4.44336 98.3887 3.75977 98.3887 2.83203 C 98.3887 1.9043 97.6074 1.26953 96.6309 1.26953 Z M 96.6309 17.8223 L 30.4199 17.8223 C 29.4922 17.8223 28.7109 18.5059 28.7109 19.4336 C 28.7109 20.3125 29.4922 20.9961 30.4199 20.9961 L 96.6309 20.9961 C 97.6074 20.9961 98.3887 20.3125 98.3887 19.4336 C 98.3887 18.5059 97.6074 17.8223 96.6309 17.8223 Z"/>
  </g>
  <g id="Ultralight-M" transform="matrix(1 0 0 1 496.967 1126)">
   <path d="M 29.1992 -15.2344 L 90.8203 -15.2344 C 105.371 -15.2344 116.748 -26.123 116.748 -40.0391 C 116.748 -54.0039 104.883 -64.5508 89.1602 -64.4043 C 82.7148 -78.125 71.9238 -85.2539 57.959 -85.2539 C 40.9668 -85.2539 26.6602 -71.0938 25.3418 -52.832 C 15.2344 -50.3418 8.74023 -42.8223 8.74023 -33.6426 C 8.74023 -22.8516 17.0898 -15.2344 29.1992 -15.2344 Z M 96.7285 1.12305 L 29.7363 1.12305 C 29.0039 1.12305 28.418 1.61133 28.418 2.29492 C 28.418 2.92969 29.0039 3.41797 29.7363 3.41797 L 96.7285 3.41797 C 97.4609 3.41797 98.0957 2.92969 98.0957 2.29492 C 98.0957 1.61133 97.4609 1.12305 96.7285 1.12305 Z M 96.7285 17.7246 L 29.7363 17.7246 C 29.0039 17.7246 28.418 18.1641 28.418 18.8477 C 28.418 19.5312 29.0039 20.0195 29.7363 20.0195 L 96.7285 20.0195 C 97.4609 20.0195 98.0957 19.5312 98.0957 18.8477 C 98.0957 18.1641 97.4609 17.7246 96.7285 17.7246 Z"/>
  </g>
  <g id="Black-S" transform="matrix(1 0 0 1 2879.54 696)">
   <path d="M 27.7832 -13.0859 L 76.416 -13.0859 C 90.2344 -13.0859 100.879 -23.584 100.879 -37.207 C 100.879 -51.0742 90.2832 -61.6699 76.5137 -61.5723 C 71.2891 -71.6309 62.3047 -76.8555 50.1465 -76.8555 C 34.8633 -76.8555 22.4121 -66.2598 20.0684 -51.2695 C 12.4023 -48.5352 6.83594 -41.9434 6.83594 -33.0078 C 6.83594 -21.4844 15.625 -13.0859 27.7832 -13.0859 Z M 77.9297 -2.24609 L 30.5664 -2.24609 C 28.5156 -2.24609 26.9531 -0.830078 26.9531 1.07422 C 26.9531 2.97852 28.5156 4.39453 30.5664 4.39453 L 77.9297 4.39453 C 79.9805 4.39453 81.543 2.97852 81.543 1.07422 C 81.543 -0.830078 79.9805 -2.24609 77.9297 -2.24609 Z M 77.9297 10.7422 L 30.5664 10.7422 C 28.5156 10.7422 26.9531 12.1582 26.9531 14.0625 C 26.9531 15.9668 28.5156 17.3828 30.5664 17.3828 L 77.9297 17.3828 C 79.9805 17.3828 81.543 15.9668 81.543 14.0625 C 81.543 12.1582 79.9805 10.7422 77.9297 10.7422 Z"/>
  </g>
  <g id="Heavy-S" transform="matrix(1 0 0 1 2583.66 696)">
   <path d="M 27.0508 -13.9648 L 75.3906 -13.9648 C 88.8672 -13.9648 99.2188 -24.1699 99.2188 -37.4023 C 99.2188 -50.8301 88.7695 -61.084 75.1465 -60.9863 C 70.0195 -70.9473 61.0352 -76.2695 49.2676 -76.2695 C 34.1797 -76.2695 21.8262 -65.5762 19.7754 -50.7324 C 12.207 -48.1445 6.83594 -41.6504 6.83594 -33.0078 C 6.83594 -21.9238 15.2344 -13.9648 27.0508 -13.9648 Z M 77.2949 -3.17383 L 29.4922 -3.17383 C 27.5879 -3.17383 26.123 -1.80664 26.123 0 C 26.123 1.80664 27.5879 3.17383 29.4922 3.17383 L 77.2949 3.17383 C 79.248 3.17383 80.7129 1.80664 80.7129 0 C 80.7129 -1.80664 79.248 -3.17383 77.2949 -3.17383 Z M 77.2949 9.81445 L 29.4922 9.81445 C 27.5879 9.81445 26.123 11.1816 26.123 12.9883 C 26.123 14.7949 27.5879 16.1621 29.4922 16.1621 L 77.2949 16.1621 C 79.248 16.1621 80.7129 14.7949 80.7129 12.9883 C 80.7129 11.1816 79.248 9.81445 77.2949 9.81445 Z"/>
  </g>
  <g id="Bold-S" transform="matrix(1 0 0 1 2287.88 696)">
   <path d="M 26.2695 -14.9414 L 74.2188 -14.9414 C 87.3047 -14.9414 97.3633 -24.8047 97.3633 -37.5977 C 97.3633 -50.5859 87.1094 -60.4004 73.6328 -60.3027 C 68.6035 -70.166 59.5703 -75.6348 48.2422 -75.6348 C 33.4473 -75.6348 21.1914 -64.7949 19.4824 -50.1465 C 12.0117 -47.7539 6.83594 -41.3086 6.83594 -33.0566 C 6.83594 -22.4121 14.8438 -14.9414 26.2695 -14.9414 Z M 76.6113 -4.24805 L 28.3203 -4.24805 C 26.5625 -4.24805 25.1953 -2.92969 25.1953 -1.2207 C 25.1953 0.537109 26.5625 1.80664 28.3203 1.80664 L 76.6113 1.80664 C 78.418 1.80664 79.7852 0.537109 79.7852 -1.2207 C 79.7852 -2.92969 78.418 -4.24805 76.6113 -4.24805 Z M 76.6113 8.74023 L 28.3203 8.74023 C 26.5625 8.74023 25.1953 10.0586 25.1953 11.7676 C 25.1953 13.5254 26.5625 14.7949 28.3203 14.7949 L 76.6113 14.7949 C 78.418 14.7949 79.7852 13.5254 79.7852 11.7676 C 79.7852 10.0586 78.418 8.74023 76.6113 8.74023 Z"/>
  </g>
  <g id="Semibold-S" transform="matrix(1 0 0 1 1991.83 696)">
   <path d="M 25.7324 -15.5762 L 73.4375 -15.5762 C 86.2305 -15.5762 96.0449 -25.2441 96.0449 -37.7441 C 96.0449 -50.3906 85.9375 -59.9609 72.6074 -59.8633 C 67.627 -69.6289 58.5938 -75.1953 47.5586 -75.1953 C 32.9102 -75.1953 20.8008 -64.209 19.2871 -49.7559 C 11.8652 -47.4609 6.83594 -41.0645 6.83594 -33.0566 C 6.83594 -22.7539 14.5508 -15.5762 25.7324 -15.5762 Z M 76.1719 -4.98047 L 27.5391 -4.98047 C 25.8301 -4.98047 24.5605 -3.71094 24.5605 -2.05078 C 24.5605 -0.390625 25.8301 0.878906 27.5391 0.878906 L 76.1719 0.878906 C 77.832 0.878906 79.1504 -0.390625 79.1504 -2.05078 C 79.1504 -3.71094 77.832 -4.98047 76.1719 -4.98047 Z M 76.1719 8.00781 L 27.5391 8.00781 C 25.8301 8.00781 24.5605 9.27734 24.5605 10.9375 C 24.5605 12.5977 25.8301 13.8672 27.5391 13.8672 L 76.1719 13.8672 C 77.832 13.8672 79.1504 12.5977 79.1504 10.9375 C 79.1504 9.27734 77.832 8.00781 76.1719 8.00781 Z"/>
  </g>
  <g id="Medium-S" transform="matrix(1 0 0 1 1695.6 696)">
   <path d="M 25.293 -16.1133 L 72.8516 -16.1133 C 85.4492 -16.1133 95.0684 -25.5859 95.0684 -37.8418 C 95.0684 -50.2441 85.0586 -59.5703 71.8262 -59.4727 C 66.8945 -69.2383 57.8613 -74.8535 47.0215 -74.8535 C 32.5195 -74.8535 20.459 -63.8184 19.0918 -49.4141 C 11.7188 -47.2656 6.83594 -40.8691 6.83594 -33.0566 C 6.83594 -23.0469 14.3555 -16.1133 25.293 -16.1133 Z M 75.7812 -5.51758 L 26.9043 -5.51758 C 25.293 -5.51758 24.0723 -4.29688 24.0723 -2.68555 C 24.0723 -1.07422 25.293 0.146484 26.9043 0.146484 L 75.7812 0.146484 C 77.3926 0.146484 78.6621 -1.07422 78.6621 -2.68555 C 78.6621 -4.29688 77.3926 -5.51758 75.7812 -5.51758 Z M 75.7812 7.4707 L 26.9043 7.4707 C 25.293 7.4707 24.0723 8.69141 24.0723 10.3027 C 24.0723 11.9141 25.293 13.1348 26.9043 13.1348 L 75.7812 13.1348 C 77.3926 13.1348 78.6621 11.9141 78.6621 10.3027 C 78.6621 8.69141 77.3926 7.4707 75.7812 7.4707 Z"/>
  </g>
  <g id="Regular-S" transform="matrix(1 0 0 1 1399.53 696)">
   <path d="M 24.7559 -16.748 L 72.0703 -16.748 C 84.375 -16.748 93.7988 -26.0254 93.7988 -37.9883 C 93.7988 -50.0977 83.9355 -59.1309 70.8008 -59.0332 C 65.9668 -68.7012 56.8359 -74.4141 46.3379 -74.4141 C 32.0312 -74.4141 20.0195 -63.2812 18.8965 -49.0234 C 11.5723 -46.9727 6.83594 -40.6738 6.83594 -33.0566 C 6.83594 -23.3398 14.0625 -16.748 24.7559 -16.748 Z M 75.3418 -6.25 L 26.123 -6.25 C 24.6094 -6.25 23.4375 -5.0293 23.4375 -3.51562 C 23.4375 -1.95312 24.6094 -0.78125 26.123 -0.78125 L 75.3418 -0.78125 C 76.8066 -0.78125 78.0273 -1.95312 78.0273 -3.51562 C 78.0273 -5.0293 76.8066 -6.25 75.3418 -6.25 Z M 75.3418 6.73828 L 26.123 6.73828 C 24.6094 6.73828 23.4375 7.95898 23.4375 9.47266 C 23.4375 11.0352 24.6094 12.207 26.123 12.207 L 75.3418 12.207 C 76.8066 12.207 78.0273 11.0352 78.0273 9.47266 C 78.0273 7.95898 76.8066 6.73828 75.3418 6.73828 Z"/>
  </g>
  <g id="Light-S" transform="matrix(1 0 0 1 1103.18 696)">
   <path d="M 24.1699 -17.627 L 71.7773 -17.627 C 83.7891 -17.627 93.0664 -26.709 93.0664 -38.2812 C 93.0664 -50.0488 83.3984 -58.8379 70.5078 -58.7402 C 65.5762 -68.75 56.6895 -74.4141 46.0449 -74.4141 C 32.0312 -74.4141 20.2637 -63.2812 19.1895 -49.0234 C 11.6699 -47.0215 6.83594 -40.8203 6.83594 -33.3496 C 6.83594 -24.0234 13.8672 -17.627 24.1699 -17.627 Z M 75.4883 -6.39648 L 25.2441 -6.39648 C 24.0234 -6.39648 23.0469 -5.46875 23.0469 -4.24805 C 23.0469 -2.97852 24.0234 -2.05078 25.2441 -2.05078 L 75.4883 -2.05078 C 76.6602 -2.05078 77.6367 -2.97852 77.6367 -4.24805 C 77.6367 -5.46875 76.6602 -6.39648 75.4883 -6.39648 Z M 75.4883 6.5918 L 25.2441 6.5918 C 24.0234 6.5918 23.0469 7.51953 23.0469 8.74023 C 23.0469 10.0098 24.0234 10.9375 25.2441 10.9375 L 75.4883 10.9375 C 76.6602 10.9375 77.6367 10.0098 77.6367 8.74023 C 77.6367 7.51953 76.6602 6.5918 75.4883 6.5918 Z"/>
  </g>
  <g id="Thin-S" transform="matrix(1 0 0 1 806.935 696)">
   <path d="M 23.3887 -18.7988 L 71.3867 -18.7988 C 83.0566 -18.7988 92.1387 -27.5391 92.1387 -38.7207 C 92.1387 -50 82.666 -58.4473 70.1172 -58.3496 C 65.0879 -68.7988 56.4941 -74.4141 45.6543 -74.4141 C 32.0801 -74.4141 20.6055 -63.3301 19.5801 -49.0234 C 11.8164 -47.0215 6.83594 -41.0156 6.83594 -33.7402 C 6.83594 -24.9023 13.5742 -18.7988 23.3887 -18.7988 Z M 75.6348 -6.5918 L 24.0723 -6.5918 C 23.2422 -6.5918 22.5586 -6.00586 22.5586 -5.17578 C 22.5586 -4.39453 23.2422 -3.80859 24.0723 -3.80859 L 75.6348 -3.80859 C 76.5137 -3.80859 77.1484 -4.39453 77.1484 -5.17578 C 77.1484 -6.00586 76.5137 -6.5918 75.6348 -6.5918 Z M 75.6348 6.39648 L 24.0723 6.39648 C 23.2422 6.39648 22.5586 6.98242 22.5586 7.8125 C 22.5586 8.59375 23.2422 9.17969 24.0723 9.17969 L 75.6348 9.17969 C 76.5137 9.17969 77.1484 8.59375 77.1484 7.8125 C 77.1484 6.98242 76.5137 6.39648 75.6348 6.39648 Z"/>
  </g>
  <g id="Ultralight-S" transform="matrix(1 0 0 1 510.492 696)">
   <path d="M 22.998 -19.3848 L 71.1914 -19.3848 C 82.666 -19.3848 91.6016 -27.9785 91.6016 -38.916 C 91.6016 -49.9512 82.2754 -58.252 69.9219 -58.1543 C 64.8438 -68.8477 56.3965 -74.4141 45.459 -74.4141 C 32.0801 -74.4141 20.8008 -63.3301 19.7754 -49.0234 C 11.9141 -47.0703 6.83594 -41.1133 6.83594 -33.9355 C 6.83594 -25.3906 13.4277 -19.3848 22.998 -19.3848 Z M 75.7812 -6.68945 L 23.4863 -6.68945 C 22.8516 -6.68945 22.3145 -6.29883 22.3145 -5.71289 C 22.3145 -5.12695 22.8516 -4.6875 23.4863 -4.6875 L 75.7812 -4.6875 C 76.3672 -4.6875 76.9043 -5.12695 76.9043 -5.71289 C 76.9043 -6.29883 76.3672 -6.68945 75.7812 -6.68945 Z M 75.7812 6.29883 L 23.4863 6.29883 C 22.8516 6.29883 22.3145 6.68945 22.3145 7.27539 C 22.3145 7.86133 22.8516 8.30078 23.4863 8.30078 L 75.7812 8.30078 C 76.3672 8.30078 76.9043 7.86133 76.9043 7.27539 C 76.9043 6.68945 76.3672 6.29883 75.7812 6.29883 Z"/>
  </g>
 </g>
</svg>
