<?xml version="1.0" encoding="UTF-8"?>
<!--Generator: Apple Native CoreSVG 123-->
<!DOCTYPE svg
PUBLIC "-//W3C//DTD SVG 1.1//EN"
       "http://www.w3.org/Graphics/SVG/1.1/DTD/svg11.dtd">
<svg version="1.1" xmlns="http://www.w3.org/2000/svg" xmlns:xlink="http://www.w3.org/1999/xlink" width="3300" height="2200">
 <!--glyph: "uni1001DD.medium", point size: 100.000000, font version: "Version 15.0d7e11", template writer version: "5"-->
 <g id="Notes">
  <rect height="2200" id="artboard" style="fill:white;opacity:1" width="3300" x="0" y="0"/>
  <line id="" style="fill:none;stroke:black;opacity:1;stroke-width:0.5;" x1="263" x2="3036" y1="292" y2="292"/>
  <text style="stroke:none;fill:black;font-family:-apple-system,&quot;SF Pro Display&quot;,&quot;SF Pro Text&quot;,Helvetica,sans-serif;font-weight:bold;" transform="matrix(1 0 0 1 263 322)">Weight/Scale Variations</text>
  <text style="stroke:none;fill:black;font-family:-apple-system,&quot;SF Pro Display&quot;,&quot;SF Pro Text&quot;,Helvetica,sans-serif;text-anchor:middle;" transform="matrix(1 0 0 1 559.711 322)">Ultralight</text>
  <text style="stroke:none;fill:black;font-family:-apple-system,&quot;SF Pro Display&quot;,&quot;SF Pro Text&quot;,Helvetica,sans-serif;text-anchor:middle;" transform="matrix(1 0 0 1 856.422 322)">Thin</text>
  <text style="stroke:none;fill:black;font-family:-apple-system,&quot;SF Pro Display&quot;,&quot;SF Pro Text&quot;,Helvetica,sans-serif;text-anchor:middle;" transform="matrix(1 0 0 1 1153.13 322)">Light</text>
  <text style="stroke:none;fill:black;font-family:-apple-system,&quot;SF Pro Display&quot;,&quot;SF Pro Text&quot;,Helvetica,sans-serif;text-anchor:middle;" transform="matrix(1 0 0 1 1449.84 322)">Regular</text>
  <text style="stroke:none;fill:black;font-family:-apple-system,&quot;SF Pro Display&quot;,&quot;SF Pro Text&quot;,Helvetica,sans-serif;text-anchor:middle;" transform="matrix(1 0 0 1 1746.56 322)">Medium</text>
  <text style="stroke:none;fill:black;font-family:-apple-system,&quot;SF Pro Display&quot;,&quot;SF Pro Text&quot;,Helvetica,sans-serif;text-anchor:middle;" transform="matrix(1 0 0 1 2043.27 322)">Semibold</text>
  <text style="stroke:none;fill:black;font-family:-apple-system,&quot;SF Pro Display&quot;,&quot;SF Pro Text&quot;,Helvetica,sans-serif;text-anchor:middle;" transform="matrix(1 0 0 1 2339.98 322)">Bold</text>
  <text style="stroke:none;fill:black;font-family:-apple-system,&quot;SF Pro Display&quot;,&quot;SF Pro Text&quot;,Helvetica,sans-serif;text-anchor:middle;" transform="matrix(1 0 0 1 2636.69 322)">Heavy</text>
  <text style="stroke:none;fill:black;font-family:-apple-system,&quot;SF Pro Display&quot;,&quot;SF Pro Text&quot;,Helvetica,sans-serif;text-anchor:middle;" transform="matrix(1 0 0 1 2933.4 322)">Black</text>
  <line id="" style="fill:none;stroke:black;opacity:1;stroke-width:0.5;" x1="263" x2="3036" y1="1903" y2="1903"/>
  <g id="" transform="matrix(1 0 0 1 263 1933)">
   <path d="M 9.24805 0.830078 C 13.5547 0.830078 17.1387 -2.74414 17.1387 -7.05078 C 17.1387 -11.3574 13.5449 -14.9316 9.23828 -14.9316 C 4.94141 -14.9316 1.36719 -11.3574 1.36719 -7.05078 C 1.36719 -2.74414 4.95117 0.830078 9.24805 0.830078 Z M 9.24805 -0.654297 C 5.70312 -0.654297 2.87109 -3.49609 2.87109 -7.05078 C 2.87109 -10.6055 5.69336 -13.4473 9.23828 -13.4473 C 12.793 -13.4473 15.6348 -10.6055 15.6445 -7.05078 C 15.6543 -3.49609 12.8027 -0.654297 9.24805 -0.654297 Z M 9.22852 -3.42773 C 9.69727 -3.42773 9.9707 -3.74023 9.9707 -4.25781 L 9.9707 -6.31836 L 12.1973 -6.31836 C 12.6953 -6.31836 13.0371 -6.57227 13.0371 -7.04102 C 13.0371 -7.51953 12.7148 -7.7832 12.1973 -7.7832 L 9.9707 -7.7832 L 9.9707 -10.0098 C 9.9707 -10.5273 9.69727 -10.8496 9.22852 -10.8496 C 8.75977 -10.8496 8.50586 -10.5078 8.50586 -10.0098 L 8.50586 -7.7832 L 6.29883 -7.7832 C 5.78125 -7.7832 5.44922 -7.51953 5.44922 -7.04102 C 5.44922 -6.57227 5.80078 -6.31836 6.29883 -6.31836 L 8.50586 -6.31836 L 8.50586 -4.25781 C 8.50586 -3.75977 8.75977 -3.42773 9.22852 -3.42773 Z"/>
  </g>
  <g id="" transform="matrix(1 0 0 1 281.506 1933)">
   <path d="M 11.709 2.91016 C 17.1582 2.91016 21.6699 -1.60156 21.6699 -7.05078 C 21.6699 -12.4902 17.1484 -17.0117 11.6992 -17.0117 C 6.25977 -17.0117 1.74805 -12.4902 1.74805 -7.05078 C 1.74805 -1.60156 6.26953 2.91016 11.709 2.91016 Z M 11.709 1.25 C 7.09961 1.25 3.41797 -2.44141 3.41797 -7.05078 C 3.41797 -11.6504 7.08984 -15.3516 11.6992 -15.3516 C 16.3086 -15.3516 20 -11.6504 20.0098 -7.05078 C 20.0195 -2.44141 16.3184 1.25 11.709 1.25 Z M 11.6895 -2.41211 C 12.207 -2.41211 12.5195 -2.77344 12.5195 -3.33984 L 12.5195 -6.23047 L 15.5762 -6.23047 C 16.123 -6.23047 16.5039 -6.51367 16.5039 -7.03125 C 16.5039 -7.55859 16.1426 -7.86133 15.5762 -7.86133 L 12.5195 -7.86133 L 12.5195 -10.9277 C 12.5195 -11.5039 12.207 -11.8555 11.6895 -11.8555 C 11.1719 -11.8555 10.8789 -11.4844 10.8789 -10.9277 L 10.8789 -7.86133 L 7.83203 -7.86133 C 7.26562 -7.86133 6.89453 -7.55859 6.89453 -7.03125 C 6.89453 -6.51367 7.28516 -6.23047 7.83203 -6.23047 L 10.8789 -6.23047 L 10.8789 -3.33984 C 10.8789 -2.79297 11.1719 -2.41211 11.6895 -2.41211 Z"/>
  </g>
  <g id="" transform="matrix(1 0 0 1 304.924 1933)">
   <path d="M 14.9707 5.67383 C 21.9336 5.67383 27.6953 -0.078125 27.6953 -7.04102 C 27.6953 -14.0039 21.9238 -19.7559 14.9609 -19.7559 C 8.00781 -19.7559 2.25586 -14.0039 2.25586 -7.04102 C 2.25586 -0.078125 8.01758 5.67383 14.9707 5.67383 Z M 14.9707 3.85742 C 8.93555 3.85742 4.08203 -1.00586 4.08203 -7.04102 C 4.08203 -13.0762 8.92578 -17.9395 14.9609 -17.9395 C 21.0059 -17.9395 25.8594 -13.0762 25.8691 -7.04102 C 25.8789 -1.00586 21.0156 3.85742 14.9707 3.85742 Z M 14.9512 -1.06445 C 15.5176 -1.06445 15.8691 -1.45508 15.8691 -2.06055 L 15.8691 -6.13281 L 20.1074 -6.13281 C 20.6934 -6.13281 21.1133 -6.46484 21.1133 -7.02148 C 21.1133 -7.59766 20.7227 -7.93945 20.1074 -7.93945 L 15.8691 -7.93945 L 15.8691 -12.1875 C 15.8691 -12.8027 15.5176 -13.1934 14.9512 -13.1934 C 14.3848 -13.1934 14.0625 -12.7832 14.0625 -12.1875 L 14.0625 -7.93945 L 9.83398 -7.93945 C 9.21875 -7.93945 8.80859 -7.59766 8.80859 -7.02148 C 8.80859 -6.46484 9.23828 -6.13281 9.83398 -6.13281 L 14.0625 -6.13281 L 14.0625 -2.06055 C 14.0625 -1.47461 14.3848 -1.06445 14.9512 -1.06445 Z"/>
  </g>
  <text style="stroke:none;fill:black;font-family:-apple-system,&quot;SF Pro Display&quot;,&quot;SF Pro Text&quot;,Helvetica,sans-serif;font-weight:bold;" transform="matrix(1 0 0 1 263 1953)">Design Variations</text>
  <text style="stroke:none;fill:black;font-family:-apple-system,&quot;SF Pro Display&quot;,&quot;SF Pro Text&quot;,Helvetica,sans-serif;" transform="matrix(1 0 0 1 263 1971)">Symbols are supported in up to nine weights and three scales.</text>
  <text style="stroke:none;fill:black;font-family:-apple-system,&quot;SF Pro Display&quot;,&quot;SF Pro Text&quot;,Helvetica,sans-serif;" transform="matrix(1 0 0 1 263 1989)">For optimal layout with text and other symbols, vertically align</text>
  <text style="stroke:none;fill:black;font-family:-apple-system,&quot;SF Pro Display&quot;,&quot;SF Pro Text&quot;,Helvetica,sans-serif;" transform="matrix(1 0 0 1 263 2007)">symbols with the adjacent text.</text>
  <rect height="14" id="" style="fill:#00AEEF;stroke:none;opacity:0.4;" width="3" x="776" y="1919"/>
  <g id="" transform="matrix(1 0 0 1 779 1933)">
   <path d="M 10.5273 0 L 12.373 0 L 7.17773 -14.0918 L 5.43945 -14.0918 L 0.244141 0 L 2.08984 0 L 3.50586 -4.0332 L 9.11133 -4.0332 Z M 6.2793 -11.9531 L 6.33789 -11.9531 L 8.59375 -5.52734 L 4.02344 -5.52734 Z"/>
  </g>
  <rect height="14" id="" style="fill:#00AEEF;stroke:none;opacity:0.4;" width="3" x="791.617" y="1919"/>
  <text style="stroke:none;fill:black;font-family:-apple-system,&quot;SF Pro Display&quot;,&quot;SF Pro Text&quot;,Helvetica,sans-serif;font-weight:bold;" transform="matrix(1 0 0 1 776 1953)">Margins</text>
  <text style="stroke:none;fill:black;font-family:-apple-system,&quot;SF Pro Display&quot;,&quot;SF Pro Text&quot;,Helvetica,sans-serif;" transform="matrix(1 0 0 1 776 1971)">Leading and trailing margins on the left and right side of each symbol</text>
  <text style="stroke:none;fill:black;font-family:-apple-system,&quot;SF Pro Display&quot;,&quot;SF Pro Text&quot;,Helvetica,sans-serif;" transform="matrix(1 0 0 1 776 1989)">can be adjusted by modifying the width of the blue rectangles.</text>
  <text style="stroke:none;fill:black;font-family:-apple-system,&quot;SF Pro Display&quot;,&quot;SF Pro Text&quot;,Helvetica,sans-serif;" transform="matrix(1 0 0 1 776 2007)">Modifications are automatically applied proportionally to all</text>
  <text style="stroke:none;fill:black;font-family:-apple-system,&quot;SF Pro Display&quot;,&quot;SF Pro Text&quot;,Helvetica,sans-serif;" transform="matrix(1 0 0 1 776 2025)">scales and weights.</text>
  <g id="" transform="matrix(1 0 0 1 1289 1933)">
   <path d="M 2.83203 3.11523 L 4.375 4.6582 C 5.22461 5.48828 6.19141 5.41992 7.06055 4.46289 L 17.2754 -6.66016 C 17.7051 -6.36719 18.0957 -6.37695 18.5645 -6.47461 L 19.6094 -6.68945 L 20.3027 -5.99609 L 20.2539 -5.47852 C 20.1855 -4.95117 20.3516 -4.53125 20.8496 -4.0332 L 21.6602 -3.22266 C 22.168 -2.71484 22.8223 -2.68555 23.3008 -3.16406 L 26.5527 -6.41602 C 27.0312 -6.89453 27.0117 -7.54883 26.5039 -8.05664 L 25.6836 -8.87695 C 25.1855 -9.375 24.7754 -9.55078 24.2383 -9.47266 L 23.7109 -9.41406 L 23.0566 -10.0781 L 23.3398 -11.2207 C 23.4863 -11.7871 23.3398 -12.2559 22.7148 -12.8613 L 20.3027 -15.2539 C 16.7578 -18.7793 12.2266 -18.6719 9.11133 -15.5371 C 8.69141 -15.1074 8.64258 -14.5215 8.91602 -14.0918 C 9.15039 -13.7207 9.62891 -13.4961 10.2734 -13.6621 C 11.7871 -14.043 13.3008 -13.9258 14.7852 -12.9199 L 14.1602 -11.3379 C 13.9258 -10.752 13.9453 -10.2734 14.1797 -9.83398 L 3.01758 0.439453 C 2.08008 1.30859 1.97266 2.25586 2.83203 3.11523 Z M 10.6738 -15.1465 C 13.3398 -17.1387 16.6504 -16.8262 19.0527 -14.4141 L 21.6797 -11.8066 C 21.9141 -11.5723 21.9434 -11.3867 21.8848 -11.0938 L 21.5039 -9.53125 L 23.0762 -7.95898 L 24.043 -8.04688 C 24.3262 -8.07617 24.4141 -8.05664 24.6387 -7.83203 L 25.2637 -7.20703 L 22.5098 -4.46289 L 21.8848 -5.07812 C 21.6602 -5.30273 21.6406 -5.40039 21.6699 -5.68359 L 21.7578 -6.64062 L 20.1953 -8.20312 L 18.5742 -7.89062 C 18.291 -7.83203 18.1445 -7.83203 17.9102 -8.07617 L 15.7324 -10.2539 C 15.5078 -10.4883 15.4785 -10.625 15.6055 -10.9473 L 16.5527 -13.2227 C 14.9512 -14.7559 12.8418 -15.6055 10.8008 -14.9512 C 10.7129 -14.9219 10.6445 -14.9414 10.6152 -14.9805 C 10.5859 -15.0293 10.5859 -15.0781 10.6738 -15.1465 Z M 4.10156 2.41211 C 3.61328 1.91406 3.78906 1.61133 4.12109 1.30859 L 15.0781 -8.80859 L 16.3086 -7.57812 L 6.15234 3.34961 C 5.84961 3.68164 5.46875 3.7793 5.06836 3.37891 Z"/>
  </g>
  <text style="stroke:none;fill:black;font-family:-apple-system,&quot;SF Pro Display&quot;,&quot;SF Pro Text&quot;,Helvetica,sans-serif;font-weight:bold;" transform="matrix(1 0 0 1 1289 1953)">Exporting</text>
  <text style="stroke:none;fill:black;font-family:-apple-system,&quot;SF Pro Display&quot;,&quot;SF Pro Text&quot;,Helvetica,sans-serif;" transform="matrix(1 0 0 1 1289 1971)">Symbols should be outlined when exporting to ensure the</text>
  <text style="stroke:none;fill:black;font-family:-apple-system,&quot;SF Pro Display&quot;,&quot;SF Pro Text&quot;,Helvetica,sans-serif;" transform="matrix(1 0 0 1 1289 1989)">design is preserved when submitting to Xcode.</text>
  <text id="template-version" style="stroke:none;fill:black;font-family:-apple-system,&quot;SF Pro Display&quot;,&quot;SF Pro Text&quot;,Helvetica,sans-serif;text-anchor:end;" transform="matrix(1 0 0 1 3036 1933)">Template v.1.0</text>
  <text style="stroke:none;fill:black;font-family:-apple-system,&quot;SF Pro Display&quot;,&quot;SF Pro Text&quot;,Helvetica,sans-serif;text-anchor:end;" transform="matrix(1 0 0 1 3036 1951)">Generated from cloud.moon.rain.fill</text>
  <text style="stroke:none;fill:black;font-family:-apple-system,&quot;SF Pro Display&quot;,&quot;SF Pro Text&quot;,Helvetica,sans-serif;text-anchor:end;" transform="matrix(1 0 0 1 3036 1969)">Typeset at 100 points</text>
  <text style="stroke:none;fill:black;font-family:-apple-system,&quot;SF Pro Display&quot;,&quot;SF Pro Text&quot;,Helvetica,sans-serif;" transform="matrix(1 0 0 1 263 726)">Small</text>
  <text style="stroke:none;fill:black;font-family:-apple-system,&quot;SF Pro Display&quot;,&quot;SF Pro Text&quot;,Helvetica,sans-serif;" transform="matrix(1 0 0 1 263 1156)">Medium</text>
  <text style="stroke:none;fill:black;font-family:-apple-system,&quot;SF Pro Display&quot;,&quot;SF Pro Text&quot;,Helvetica,sans-serif;" transform="matrix(1 0 0 1 263 1586)">Large</text>
 </g>
 <g id="Guides">
  <g id="H-reference" style="fill:#27AAE1;stroke:none;" transform="matrix(1 0 0 1 339 696)">
   <path d="M 54.9316 0 L 57.666 0 L 30.5664 -70.459 L 28.0762 -70.459 L 0.976562 0 L 3.66211 0 L 12.9395 -24.4629 L 45.7031 -24.4629 Z M 29.1992 -67.0898 L 29.4434 -67.0898 L 44.8242 -26.709 L 13.8184 -26.709 Z"/>
  </g>
  <line id="Baseline-S" style="fill:none;stroke:#27AAE1;opacity:1;stroke-width:0.577;" x1="263" x2="3036" y1="696" y2="696"/>
  <line id="Capline-S" style="fill:none;stroke:#27AAE1;opacity:1;stroke-width:0.577;" x1="263" x2="3036" y1="625.541" y2="625.541"/>
  <g id="H-reference" style="fill:#27AAE1;stroke:none;" transform="matrix(1 0 0 1 339 1126)">
   <path d="M 54.9316 0 L 57.666 0 L 30.5664 -70.459 L 28.0762 -70.459 L 0.976562 0 L 3.66211 0 L 12.9395 -24.4629 L 45.7031 -24.4629 Z M 29.1992 -67.0898 L 29.4434 -67.0898 L 44.8242 -26.709 L 13.8184 -26.709 Z"/>
  </g>
  <line id="Baseline-M" style="fill:none;stroke:#27AAE1;opacity:1;stroke-width:0.577;" x1="263" x2="3036" y1="1126" y2="1126"/>
  <line id="Capline-M" style="fill:none;stroke:#27AAE1;opacity:1;stroke-width:0.577;" x1="263" x2="3036" y1="1055.54" y2="1055.54"/>
  <g id="H-reference" style="fill:#27AAE1;stroke:none;" transform="matrix(1 0 0 1 339 1556)">
   <path d="M 54.9316 0 L 57.666 0 L 30.5664 -70.459 L 28.0762 -70.459 L 0.976562 0 L 3.66211 0 L 12.9395 -24.4629 L 45.7031 -24.4629 Z M 29.1992 -67.0898 L 29.4434 -67.0898 L 44.8242 -26.709 L 13.8184 -26.709 Z"/>
  </g>
  <line id="Baseline-L" style="fill:none;stroke:#27AAE1;opacity:1;stroke-width:0.577;" x1="263" x2="3036" y1="1556" y2="1556"/>
  <line id="Capline-L" style="fill:none;stroke:#27AAE1;opacity:1;stroke-width:0.577;" x1="263" x2="3036" y1="1485.54" y2="1485.54"/>
  <rect height="119.336" id="left-margin" style="fill:#00AEEF;stroke:none;opacity:0.4;" width="8.74023" x="1376.92" y="1030.79"/>
  <rect height="119.336" id="right-margin" style="fill:#00AEEF;stroke:none;opacity:0.4;" width="8.74023" x="1514.03" y="1030.79"/>
 </g>
 <g id="Symbols">
  <g id="Black-L" transform="matrix(1 0 0 1 2833.11 1556)">
   <path d="M 158.838 -31.3965 C 177.539 -36.6699 189.307 -52.832 189.307 -64.2578 C 189.307 -67.1875 188.086 -69.2871 185.791 -69.2871 C 182.031 -69.2871 177.148 -65.332 167.676 -65.2832 C 153.076 -65.1855 144.043 -74.1699 144.043 -87.6465 C 144.043 -96.875 147.803 -103.369 147.803 -107.373 C 147.803 -109.619 146.289 -111.084 143.652 -111.035 C 133.057 -110.791 115.82 -98.7793 111.523 -80.4688 C 114.258 -77.832 116.748 -74.5605 118.75 -70.5566 C 138.379 -69.7266 156.689 -54.1016 158.838 -31.3965 Z M 39.1602 7.32422 L 114.844 7.32422 C 133.35 7.32422 147.314 -7.03125 147.314 -26.0254 C 147.314 -45.752 132.471 -60.2539 112.109 -60.1562 C 105.615 -72.3145 93.2617 -83.0566 73.3887 -83.0566 C 50.7324 -83.0566 32.0801 -66.3086 30.2734 -44.1895 C 18.75 -41.1133 11.2793 -31.2012 11.2793 -18.8965 C 11.2793 -3.27148 22.5586 7.32422 39.1602 7.32422 Z M 92.6758 38.9648 L 100.439 25.5859 C 101.904 23.0469 101.221 19.873 98.584 18.3105 C 95.8984 16.7969 93.0176 17.7734 91.4551 20.459 L 83.6426 33.8867 C 82.2266 36.377 82.8125 39.5508 85.4492 41.0645 C 88.0859 42.5293 91.2109 41.4551 92.6758 38.9648 Z M 42.5293 39.0137 L 50.2441 25.6348 C 51.709 23.0957 51.0742 19.873 48.4375 18.3594 C 45.752 16.8457 42.8711 17.7734 41.2598 20.5078 L 33.4961 33.9355 C 32.0801 36.377 32.666 39.5508 35.3027 41.0645 C 37.9395 42.5781 41.0645 41.5039 42.5293 39.0137 Z M 112.598 56.6406 L 120.312 43.2617 C 121.777 40.7227 121.143 37.5 118.506 35.9863 C 115.82 34.4727 112.939 35.4492 111.377 38.1348 L 103.564 51.5625 C 102.148 54.0527 102.734 57.1777 105.371 58.6914 C 108.008 60.2051 111.133 59.1309 112.598 56.6406 Z M 62.4023 56.6406 L 70.166 43.2617 C 71.6309 40.7715 70.9961 37.5488 68.3105 36.0352 C 65.6738 34.4727 62.793 35.4492 61.1816 38.1348 L 53.418 51.5625 C 51.9531 54.0527 52.5391 57.2266 55.2246 58.7402 C 57.8613 60.2539 60.9863 59.1797 62.4023 56.6406 Z"/>
  </g>
  <g id="Heavy-L" transform="matrix(1 0 0 1 2537.98 1556)">
   <path d="M 155.371 -30.9082 C 174.512 -35.791 186.133 -51.8555 186.133 -62.8418 C 186.133 -65.625 184.961 -67.5781 182.764 -67.5781 C 179.248 -67.5781 174.316 -63.6719 165.137 -63.623 C 150.342 -63.5254 141.064 -72.6562 141.064 -86.377 C 141.064 -95.3125 144.922 -101.709 144.922 -105.518 C 144.922 -107.617 143.457 -109.033 140.869 -108.984 C 129.834 -108.594 113.477 -96.1914 109.57 -78.3203 C 112.061 -75.8789 114.355 -72.8516 116.211 -69.0918 C 136.035 -68.1152 153.564 -52.6367 155.371 -30.9082 Z M 38.5742 6.25 L 112.598 6.25 C 130.859 6.25 144.727 -7.86133 144.727 -26.3672 C 144.727 -45.5078 130.127 -59.6191 110.156 -59.5703 C 103.467 -72.2168 90.9668 -82.373 72.168 -82.373 C 50.0977 -82.373 31.8359 -65.8203 29.9805 -43.9941 C 18.6035 -40.918 11.2793 -31.25 11.2793 -19.2871 C 11.2793 -4.10156 22.3633 6.25 38.5742 6.25 Z M 91.1133 37.5488 L 99.0723 23.7793 C 100.439 21.4355 99.8047 18.5547 97.4121 17.1387 C 94.9707 15.7715 92.2852 16.6016 90.8691 19.0918 L 82.8613 32.9102 C 81.543 35.1562 82.0801 38.0371 84.5215 39.4531 C 86.9141 40.7715 89.7949 39.8438 91.1133 37.5488 Z M 40.9668 37.5488 L 48.9258 23.8281 C 50.293 21.4844 49.6582 18.5547 47.2168 17.1875 C 44.8242 15.7715 42.1387 16.6504 40.7227 19.0918 L 32.7148 32.9102 C 31.3965 35.2051 31.9336 38.0859 34.375 39.4531 C 36.7676 40.8203 39.5996 39.8926 40.9668 37.5488 Z M 110.986 55.2246 L 118.945 41.4551 C 120.312 39.1113 119.678 36.1816 117.285 34.8145 C 114.844 33.4473 112.207 34.2773 110.742 36.7676 L 102.734 50.5859 C 101.416 52.832 101.953 55.7129 104.395 57.0801 C 106.787 58.4473 109.668 57.5195 110.986 55.2246 Z M 60.8398 55.2246 L 68.7988 41.4551 C 70.166 39.1602 69.5312 36.2305 67.1387 34.8145 C 64.6973 33.4473 62.0117 34.3262 60.5957 36.7676 L 52.5879 50.5859 C 51.2695 52.8809 51.8066 55.7617 54.248 57.1289 C 56.6406 58.4961 59.5215 57.5195 60.8398 55.2246 Z"/>
  </g>
  <g id="Bold-L" transform="matrix(1 0 0 1 2243.05 1556)">
   <path d="M 151.465 -30.3223 C 171.143 -34.7656 182.568 -50.7812 182.568 -61.2793 C 182.568 -63.8184 181.445 -65.6738 179.395 -65.6738 C 176.123 -65.6738 171.143 -61.8164 162.354 -61.7676 C 147.266 -61.7188 137.744 -70.9961 137.744 -84.9121 C 137.744 -93.6035 141.699 -99.8535 141.699 -103.369 C 141.699 -105.42 140.332 -106.738 137.793 -106.689 C 126.221 -106.104 110.889 -93.2617 107.373 -75.9277 C 109.619 -73.7305 111.67 -70.9473 113.379 -67.4805 C 133.496 -66.2598 150.098 -50.9766 151.465 -30.3223 Z M 37.9883 5.0293 L 110.059 5.0293 C 128.076 5.0293 141.846 -8.78906 141.846 -26.8066 C 141.846 -45.2148 127.49 -58.8867 108.008 -58.8867 C 101.025 -72.1191 88.3789 -81.5918 70.8008 -81.5918 C 49.4141 -81.5918 31.4941 -65.2344 29.6875 -43.8477 C 18.457 -40.7227 11.2793 -31.2988 11.2793 -19.6777 C 11.2793 -5.0293 22.1191 5.0293 37.9883 5.0293 Z M 89.3555 35.9375 L 97.5586 21.7285 C 98.7793 19.6289 98.1934 17.041 96.0449 15.8203 C 93.8965 14.5508 91.5039 15.332 90.1855 17.5293 L 81.9824 31.7871 C 80.7617 33.8379 81.2988 36.377 83.4473 37.5977 C 85.5957 38.8184 88.1348 37.9883 89.3555 35.9375 Z M 39.209 35.9375 L 47.4121 21.7773 C 48.6328 19.6777 48.0469 17.0898 45.8984 15.8203 C 43.75 14.5996 41.3574 15.332 40.0391 17.5781 L 31.8359 31.7871 C 30.6152 33.8867 31.1523 36.4258 33.3008 37.6465 C 35.4492 38.8672 37.9883 38.0371 39.209 35.9375 Z M 109.18 53.6133 L 117.383 39.4531 C 118.652 37.3047 118.066 34.7168 115.918 33.4961 C 113.721 32.2754 111.377 33.0078 110.059 35.2051 L 101.807 49.4629 C 100.635 51.5137 101.123 54.0527 103.32 55.3223 C 105.469 56.4941 108.008 55.7129 109.18 53.6133 Z M 59.0332 53.6133 L 67.2363 39.4531 C 68.5059 37.3535 67.9199 34.7656 65.7715 33.5449 C 63.5742 32.2754 61.2305 33.0566 59.9121 35.2539 L 51.6602 49.5117 C 50.4883 51.5625 50.9766 54.1016 53.1738 55.3223 C 55.3223 56.543 57.8613 55.7129 59.0332 53.6133 Z"/>
  </g>
  <g id="Semibold-L" transform="matrix(1 0 0 1 1947.59 1556)">
   <path d="M 148.779 -29.8828 C 168.799 -34.0332 180.078 -50 180.078 -60.2051 C 180.078 -62.5977 179.004 -64.3066 177.051 -64.3066 C 173.926 -64.3066 168.994 -60.5469 160.4 -60.498 C 145.117 -60.498 135.449 -69.8242 135.449 -83.9355 C 135.449 -92.4316 139.502 -98.584 139.502 -101.904 C 139.502 -103.906 138.135 -105.176 135.645 -105.078 C 123.73 -104.395 109.082 -91.2598 105.859 -74.2676 C 107.91 -72.2168 109.814 -69.6777 111.426 -66.3574 C 131.689 -65.0391 147.705 -49.8047 148.779 -29.8828 Z M 37.5488 4.19922 L 108.301 4.19922 C 126.123 4.19922 139.893 -9.42383 139.893 -27.0996 C 139.893 -45.0195 125.684 -58.3984 106.494 -58.3984 C 99.3652 -72.0215 86.5723 -81.0547 69.873 -81.0547 C 48.9258 -81.0547 31.2988 -64.8438 29.4922 -43.7012 C 18.4082 -40.5762 11.2793 -31.3477 11.2793 -19.9707 C 11.2793 -5.61523 21.9727 4.19922 37.5488 4.19922 Z M 88.1348 34.8145 L 96.4844 20.3613 C 97.6562 18.3594 97.1191 16.0156 95.1172 14.8926 C 93.1641 13.7695 90.9668 14.4043 89.7461 16.4551 L 81.3477 31.0059 C 80.2246 32.9102 80.7617 35.2051 82.7637 36.377 C 84.7168 37.5 87.0605 36.7676 88.1348 34.8145 Z M 37.9883 34.8633 L 46.3867 20.4102 C 47.5586 18.4082 46.9727 16.0645 45.0195 14.9414 C 43.0176 13.8184 40.8203 14.4531 39.5996 16.5039 L 31.2012 31.0547 C 30.0781 32.959 30.6152 35.2539 32.6172 36.4258 C 34.5703 37.5 36.9141 36.7676 37.9883 34.8633 Z M 107.959 52.4902 L 116.309 38.0371 C 117.48 36.0352 116.943 33.7402 114.941 32.5684 C 112.988 31.4453 110.791 32.1289 109.57 34.1797 L 101.172 48.6816 C 100.049 50.5859 100.586 52.9297 102.539 54.0527 C 104.541 55.1758 106.836 54.4434 107.959 52.4902 Z M 57.8125 52.5391 L 66.1621 38.0859 C 67.334 36.084 66.7969 33.7891 64.7949 32.6172 C 62.8418 31.4941 60.6445 32.1777 59.4238 34.1797 L 51.0254 48.7305 C 49.9023 50.6348 50.4395 52.9297 52.4414 54.1016 C 54.3945 55.2246 56.7383 54.4922 57.8125 52.5391 Z"/>
  </g>
  <g id="Medium-L" transform="matrix(1 0 0 1 1651.8 1556)">
   <path d="M 146.777 -29.5898 C 167.041 -33.5449 178.223 -49.4629 178.223 -59.375 C 178.223 -61.6699 177.148 -63.3301 175.244 -63.3301 C 172.314 -63.3301 167.334 -59.5703 158.936 -59.5703 C 143.506 -59.5215 133.691 -68.9453 133.691 -83.1543 C 133.691 -91.5039 137.793 -97.6074 137.793 -100.83 C 137.793 -102.734 136.523 -104.004 134.033 -103.857 C 121.826 -103.125 107.715 -89.6973 104.688 -72.998 C 106.641 -71.0938 108.447 -68.7012 109.912 -65.4785 C 130.371 -64.0625 145.898 -48.9258 146.777 -29.5898 Z M 37.207 3.56445 L 106.982 3.56445 C 124.658 3.56445 138.379 -9.91211 138.379 -27.2949 C 138.379 -44.873 124.268 -58.0078 105.371 -58.0566 C 98.0957 -71.9727 85.2539 -80.6152 69.1895 -80.6152 C 48.5352 -80.6152 31.1523 -64.5508 29.2969 -43.6035 C 18.3105 -40.4785 11.2793 -31.3965 11.2793 -20.2148 C 11.2793 -6.10352 21.8262 3.56445 37.207 3.56445 Z M 87.2559 33.9355 L 95.7031 19.2871 C 96.8262 17.4316 96.2891 15.2832 94.4336 14.209 C 92.5781 13.1348 90.5273 13.7695 89.4043 15.6738 L 80.9082 30.4199 C 79.834 32.1777 80.3223 34.3262 82.1777 35.4004 C 84.0332 36.4258 86.1816 35.791 87.2559 33.9355 Z M 37.1094 33.9844 L 45.5566 19.3359 C 46.6797 17.4805 46.1426 15.2832 44.2871 14.209 C 42.4805 13.1836 40.3809 13.7695 39.2578 15.7227 L 30.7617 30.4688 C 29.6875 32.2266 30.1758 34.375 32.0312 35.4492 C 33.8867 36.4746 36.0352 35.8398 37.1094 33.9844 Z M 107.031 51.6602 L 115.527 37.0117 C 116.65 35.1074 116.064 32.959 114.258 31.8848 C 112.402 30.8594 110.352 31.4453 109.229 33.3496 L 100.684 48.0957 C 99.6582 49.9023 100.146 52.0508 102.002 53.125 C 103.809 54.1504 106.006 53.4668 107.031 51.6602 Z M 56.8848 51.709 L 65.3809 37.0605 C 66.5039 35.1562 65.918 33.0078 64.1113 31.9336 C 62.2559 30.8594 60.2051 31.4941 59.082 33.3984 L 50.5371 48.1445 C 49.5117 49.9512 50 52.0996 51.8555 53.1738 C 53.6621 54.1992 55.8594 53.5156 56.8848 51.709 Z"/>
  </g>
  <g id="Regular-L" transform="matrix(1 0 0 1 1356.31 1556)">
   <path d="M 144.092 -29.1992 C 164.746 -32.8125 175.781 -48.6816 175.781 -58.252 C 175.781 -60.4492 174.756 -62.0117 172.949 -62.0117 C 170.166 -62.0117 165.137 -58.3008 156.982 -58.3008 C 141.406 -58.3008 131.445 -67.8223 131.445 -82.1777 C 131.445 -90.332 135.596 -96.3867 135.596 -99.3652 C 135.596 -101.27 134.375 -102.393 131.885 -102.295 C 119.385 -101.416 105.957 -87.7441 103.174 -71.3867 C 104.932 -69.6289 106.592 -67.3828 108.008 -64.3555 C 128.613 -62.8418 143.506 -47.8027 144.092 -29.1992 Z M 36.8164 2.73438 L 105.225 2.73438 C 122.754 2.73438 136.426 -10.5469 136.426 -27.5879 C 136.426 -44.6777 122.51 -57.5195 103.906 -57.5684 C 96.4355 -71.9238 83.4961 -80.0781 68.2617 -80.0781 C 48.0469 -80.0781 30.9082 -64.1602 29.1016 -43.457 C 18.2129 -40.3809 11.2793 -31.4453 11.2793 -20.459 C 11.2793 -6.73828 21.6797 2.73438 36.8164 2.73438 Z M 86.0352 32.8613 L 94.6777 17.9199 C 95.7031 16.1621 95.166 14.2578 93.5547 13.2812 C 91.8945 12.3047 89.9902 12.8418 88.9648 14.5996 L 80.2734 29.6387 C 79.2969 31.2988 79.7852 33.2031 81.4941 34.1797 C 83.1055 35.1074 85.1074 34.5215 86.0352 32.8613 Z M 35.8887 32.9102 L 44.5312 17.9688 C 45.6055 16.2109 45.0684 14.3066 43.4082 13.3301 C 41.748 12.3535 39.8438 12.9395 38.8184 14.6484 L 30.127 29.6875 C 29.1992 31.3477 29.6387 33.252 31.3477 34.2285 C 32.959 35.1562 34.9609 34.5703 35.8887 32.9102 Z M 105.811 50.5859 L 114.453 35.6445 C 115.479 33.8867 114.941 31.9824 113.33 31.0059 C 111.67 30.0293 109.766 30.5664 108.74 32.3242 L 100.049 47.3633 C 99.1211 48.9746 99.5605 50.9277 101.27 51.9043 C 102.881 52.832 104.883 52.2461 105.811 50.5859 Z M 55.7129 50.6348 L 64.3066 35.6934 C 65.3809 33.9355 64.8438 32.0312 63.1836 31.0547 C 61.5234 30.0781 59.668 30.6152 58.5938 32.373 L 49.9023 47.4121 C 48.9746 49.0234 49.4141 50.9766 51.123 51.9531 C 52.7832 52.8809 54.7363 52.2949 55.7129 50.6348 Z"/>
  </g>
  <g id="Light-L" transform="matrix(1 0 0 1 1060.38 1556)">
   <path d="M 142.139 -28.4668 C 164.111 -32.373 174.219 -48.1445 174.219 -56.6406 C 174.219 -58.4473 173.34 -59.668 171.777 -59.668 C 169.385 -59.668 163.77 -56.3965 156.348 -56.3965 C 140.479 -56.3965 130.225 -66.2598 130.225 -81.0059 C 130.225 -88.916 133.984 -94.873 133.984 -97.4121 C 133.984 -99.1699 132.812 -100.146 130.469 -99.9512 C 116.748 -98.584 105.127 -83.9355 103.125 -68.1641 C 104.639 -66.5039 106.006 -64.5996 107.178 -61.9629 C 127.002 -60.5469 141.211 -46.8262 142.139 -28.4668 Z M 35.9375 2.97852 L 104.688 2.97852 C 121.826 2.97852 135.254 -9.96094 135.254 -26.5137 C 135.254 -43.1641 121.533 -55.6641 103.223 -55.6641 C 95.6543 -70.3613 82.959 -78.5156 67.7734 -78.5156 C 47.9492 -78.5156 31.1035 -62.5977 29.3945 -41.9434 C 18.3105 -38.916 11.2793 -30.1758 11.2793 -19.4336 C 11.2793 -6.20117 21.3867 2.97852 35.9375 2.97852 Z M 84.6191 33.252 L 93.8477 17.2852 C 94.7754 15.8203 94.3359 14.3066 93.0176 13.4766 C 91.6992 12.7441 90.1855 13.1836 89.3066 14.6484 L 80.0293 30.6641 C 79.248 32.0801 79.5898 33.5938 80.957 34.4238 C 82.2754 35.1562 83.8379 34.668 84.6191 33.252 Z M 34.4727 33.252 L 43.7012 17.334 C 44.5801 15.8691 44.1895 14.3066 42.8711 13.5254 C 41.5527 12.793 40.0391 13.2324 39.1602 14.6973 L 29.8828 30.7129 C 29.0527 32.1289 29.4434 33.6426 30.7617 34.4238 C 32.1289 35.2051 33.6914 34.7168 34.4727 33.252 Z M 104.492 50.9277 L 113.721 34.9609 C 114.648 33.4961 114.209 31.9824 112.891 31.1523 C 111.572 30.4199 110.059 30.8594 109.18 32.3242 L 99.9023 48.3398 C 99.1211 49.7559 99.4629 51.2695 100.781 52.0996 C 102.148 52.832 103.711 52.3438 104.492 50.9277 Z M 54.3457 50.9277 L 63.5742 35.0098 C 64.4531 33.5449 64.0625 31.9824 62.6953 31.2012 C 61.4258 30.4688 59.9121 30.9082 59.0332 32.373 L 49.7559 48.3887 C 48.9258 49.8047 49.3164 51.3184 50.6348 52.0996 C 52.002 52.8809 53.5645 52.3926 54.3457 50.9277 Z"/>
  </g>
  <g id="Thin-L" transform="matrix(1 0 0 1 764.699 1556)">
   <path d="M 139.502 -27.5391 C 163.281 -31.7871 172.168 -47.3633 172.168 -54.4922 C 172.168 -55.7617 171.436 -56.5918 170.215 -56.5918 C 168.359 -56.5918 161.963 -53.8574 155.518 -53.8574 C 139.307 -53.8574 128.564 -64.1113 128.564 -79.4434 C 128.564 -87.0117 131.836 -92.8711 131.836 -94.8242 C 131.836 -96.3867 130.811 -97.168 128.564 -96.875 C 113.281 -94.8242 104.053 -78.9551 103.076 -63.916 C 104.248 -62.4023 105.176 -60.8398 106.055 -58.7891 C 124.854 -57.5195 138.184 -45.5566 139.502 -27.5391 Z M 34.8145 3.27148 L 104.004 3.27148 C 120.557 3.27148 133.691 -9.22852 133.691 -25.0977 C 133.691 -41.1621 120.264 -53.2227 102.393 -53.125 C 94.6289 -68.3105 82.2266 -76.416 67.0898 -76.416 C 47.7539 -76.416 31.3965 -60.498 29.834 -39.8926 C 18.457 -37.0605 11.2793 -28.5645 11.2793 -18.0176 C 11.2793 -5.51758 20.9473 3.27148 34.8145 3.27148 Z M 82.7637 33.7402 L 92.7734 16.5039 C 93.5059 15.3809 93.2129 14.3555 92.2852 13.7695 C 91.4551 13.3301 90.4297 13.5742 89.7461 14.7461 L 79.7363 32.0312 C 79.1016 33.1543 79.2969 34.1309 80.2246 34.7168 C 81.1523 35.2539 82.1777 34.8633 82.7637 33.7402 Z M 32.6172 33.7402 L 42.627 16.5039 C 43.3105 15.3809 43.0176 14.3555 42.0898 13.8184 C 41.2598 13.3301 40.2344 13.623 39.5508 14.7461 L 29.541 32.0312 C 28.9062 33.1543 29.1504 34.1797 30.0293 34.7168 C 30.957 35.2539 31.9824 34.9121 32.6172 33.7402 Z M 102.783 51.3672 L 112.793 34.1309 C 113.477 32.959 113.184 31.9824 112.305 31.3965 C 111.426 30.957 110.4 31.2012 109.717 32.373 L 99.707 49.6094 C 99.1211 50.7324 99.3164 51.7578 100.195 52.3438 C 101.123 52.8809 102.148 52.4902 102.783 51.3672 Z M 52.5879 51.3672 L 62.5977 34.1309 C 63.2812 33.0078 63.0371 31.9824 62.1094 31.3965 C 61.2793 30.957 60.2539 31.25 59.5703 32.373 L 49.5605 49.6582 C 48.9258 50.7812 49.1211 51.8066 50.0488 52.3438 C 50.9766 52.8809 52.002 52.5391 52.5879 51.3672 Z"/>
  </g>
  <g id="Ultralight-L" transform="matrix(1 0 0 1 468.5 1556)">
   <path d="M 138.184 -27.0996 C 162.842 -31.4941 171.143 -46.9727 171.143 -53.418 C 171.143 -54.3945 170.459 -55.0293 169.385 -55.0293 C 167.822 -55.0293 161.035 -52.5879 155.127 -52.5879 C 138.672 -52.5879 127.734 -63.0371 127.734 -78.6133 C 127.734 -86.0352 130.713 -91.8945 130.713 -93.5059 C 130.713 -94.9707 129.785 -95.6543 127.588 -95.3125 C 111.523 -92.8711 103.516 -76.416 103.027 -61.7188 C 104.053 -60.3027 104.785 -58.9355 105.518 -57.1777 C 123.73 -56.0059 136.621 -44.9219 138.184 -27.0996 Z M 34.2285 3.41797 L 103.662 3.41797 C 119.922 3.41797 132.91 -8.88672 132.91 -24.3652 C 132.91 -40.1855 119.629 -51.9531 101.953 -51.8555 C 94.0918 -67.2363 81.8848 -75.3906 66.748 -75.3906 C 47.6562 -75.3906 31.543 -59.4238 30.0293 -38.8672 C 18.5547 -36.084 11.2793 -27.6855 11.2793 -17.334 C 11.2793 -5.17578 20.752 3.41797 34.2285 3.41797 Z M 31.6406 34.0332 L 42.041 16.0645 C 42.627 15.1367 42.4316 14.3555 41.748 13.916 C 41.1133 13.5742 40.3809 13.8184 39.7461 14.7461 L 29.3457 32.666 C 28.8574 33.6426 29.0039 34.4238 29.6875 34.8633 C 30.3711 35.2539 31.1523 34.9609 31.6406 34.0332 Z M 81.8359 34.0332 L 92.2363 16.0645 C 92.8223 15.1367 92.627 14.3555 91.9434 13.916 C 91.3086 13.623 90.5762 13.8184 89.9414 14.7461 L 79.541 32.7148 C 79.0527 33.6914 79.1504 34.4238 79.8828 34.8633 C 80.5664 35.2539 81.2988 34.9609 81.8359 34.0332 Z M 51.709 51.6113 L 62.1094 33.6914 C 62.6953 32.7148 62.5 31.9336 61.8164 31.543 C 61.1816 31.2012 60.4004 31.3965 59.8145 32.373 L 49.4141 50.293 C 48.9258 51.2695 49.0234 52.002 49.707 52.4414 C 50.4395 52.8809 51.1719 52.5879 51.709 51.6113 Z M 101.904 51.6113 L 112.305 33.6914 C 112.891 32.7148 112.695 31.9824 111.963 31.543 C 111.377 31.2012 110.596 31.3965 110.01 32.373 L 99.6094 50.293 C 99.1211 51.2695 99.2188 52.0508 99.9023 52.4414 C 100.635 52.8809 101.367 52.5879 101.904 51.6113 Z"/>
  </g>
  <g id="Black-M" transform="matrix(1 0 0 1 2853.93 1126)">
   <path d="M 126.709 -32.6172 C 141.309 -37.3535 150.195 -49.8535 150.195 -58.7891 C 150.195 -61.084 149.268 -62.6953 147.461 -62.6953 C 144.434 -62.6953 140.381 -59.8145 133.008 -59.7168 C 121.875 -59.6191 114.99 -66.6016 114.99 -77.002 C 114.99 -84.2773 117.578 -89.4531 117.578 -92.6758 C 117.578 -94.3848 116.357 -95.6055 114.307 -95.5078 C 106.104 -95.2637 92.4805 -85.9863 89.0625 -71.4355 C 91.3574 -69.1895 93.3594 -66.5039 94.9707 -63.2812 C 109.473 -62.9395 124.414 -51.3184 126.709 -32.6172 Z M 30.6641 -0.683594 L 91.7969 -0.683594 C 106.201 -0.683594 116.992 -11.9629 116.992 -27.002 C 116.992 -42.9688 105.322 -54.4922 89.1602 -54.3945 C 84.375 -63.2324 75.0977 -72.4121 58.2031 -72.4121 C 40.0879 -72.4121 25.3418 -59.1797 23.9746 -41.5527 C 14.7461 -39.2578 8.74023 -31.3965 8.74023 -21.5332 C 8.74023 -9.08203 17.5781 -0.683594 30.6641 -0.683594 Z M 34.2773 24.4141 L 40.332 14.0137 C 41.5039 11.9629 41.0156 9.27734 38.8184 8.00781 C 36.6211 6.73828 34.2773 7.56836 32.959 9.81445 L 26.9043 20.2148 C 25.6836 22.3145 26.123 24.9512 28.3203 26.1719 C 30.5176 27.4414 33.1055 26.5137 34.2773 24.4141 Z M 73.1934 24.4141 L 79.1992 14.0137 C 80.4199 11.9629 79.9316 9.27734 77.7344 8.00781 C 75.5371 6.73828 73.1445 7.56836 71.8262 9.81445 L 65.7715 20.2148 C 64.5996 22.3145 65.0391 24.9512 67.2363 26.1719 C 69.4336 27.4414 71.9727 26.5137 73.1934 24.4141 Z M 49.8047 38.0859 L 55.8594 27.6855 C 57.0312 25.5859 56.543 22.9004 54.3457 21.6309 C 52.1484 20.4102 49.7559 21.2402 48.4863 23.4863 L 42.4316 33.8867 C 41.2109 35.9375 41.6504 38.5742 43.8477 39.8438 C 46.0449 41.1133 48.6328 40.1367 49.8047 38.0859 Z M 88.7207 38.0859 L 94.7266 27.6855 C 95.9473 25.5859 95.459 22.9004 93.2617 21.6797 C 91.0645 20.4102 88.6719 21.2402 87.3535 23.4863 L 81.2988 33.8867 C 80.127 35.9375 80.5664 38.5742 82.7637 39.8438 C 84.9609 41.1133 87.5 40.1367 88.7207 38.0859 Z"/>
  </g>
  <g id="Heavy-M" transform="matrix(1 0 0 1 2558.76 1126)">
   <path d="M 123.438 -32.2266 C 138.184 -36.4746 147.119 -48.9746 147.119 -57.666 C 147.119 -59.8633 146.191 -61.4258 144.434 -61.4258 C 141.602 -61.4258 137.646 -58.4473 130.42 -58.3984 C 119.092 -58.3008 112.061 -65.3809 112.061 -75.8789 C 112.061 -83.0078 114.844 -88.0371 114.844 -91.1133 C 114.844 -92.7734 113.672 -93.9453 111.67 -93.8965 C 103.223 -93.6035 90.1367 -84.1309 86.9141 -69.9219 C 89.0137 -67.8711 90.918 -65.3809 92.4316 -62.3047 C 107.373 -61.7676 121.582 -49.9512 123.438 -32.2266 Z M 30.2734 -1.9043 L 89.4531 -1.9043 C 103.711 -1.9043 114.502 -12.9883 114.502 -27.6855 C 114.502 -43.0664 102.979 -54.2969 87.207 -54.1992 C 82.1777 -63.5742 72.7051 -72.0703 57.0312 -72.0703 C 39.4531 -72.0703 25 -59.0332 23.6328 -41.7969 C 14.5996 -39.4531 8.74023 -31.7871 8.74023 -22.2168 C 8.74023 -10.1074 17.4316 -1.9043 30.2734 -1.9043 Z M 71.8262 22.7539 L 77.9297 12.207 C 79.0527 10.2539 78.5645 7.8125 76.5625 6.64062 C 74.5117 5.46875 72.3145 6.25 71.0938 8.30078 L 64.9902 18.8965 C 63.8672 20.8008 64.3066 23.1934 66.3086 24.3652 C 68.3594 25.5371 70.7031 24.6582 71.8262 22.7539 Z M 32.959 22.7539 L 39.0625 12.207 C 40.1855 10.3027 39.6973 7.8125 37.6953 6.64062 C 35.6445 5.51758 33.4473 6.25 32.2266 8.30078 L 26.0742 18.8965 C 25 20.8008 25.4395 23.1934 27.4414 24.3652 C 29.4434 25.5371 31.8359 24.707 32.959 22.7539 Z M 87.3047 36.4258 L 93.4082 25.8789 C 94.5312 23.9258 94.043 21.4844 92.041 20.3125 C 89.9902 19.1406 87.793 19.873 86.5723 21.9727 L 80.4199 32.5684 C 79.3457 34.4727 79.7852 36.8652 81.7871 38.0371 C 83.7891 39.1602 86.1816 38.3301 87.3047 36.4258 Z M 48.4375 36.4258 L 54.541 25.8789 C 55.6641 23.9746 55.1758 21.4844 53.125 20.3125 C 51.123 19.1895 48.9258 19.9219 47.7051 21.9727 L 41.5527 32.5684 C 40.4785 34.4727 40.8691 36.8652 42.9199 38.0371 C 44.9219 39.209 47.3145 38.3789 48.4375 36.4258 Z"/>
  </g>
  <g id="Bold-M" transform="matrix(1 0 0 1 2263.78 1126)">
   <path d="M 119.775 -31.7871 C 134.668 -35.498 143.652 -47.9492 143.652 -56.3965 C 143.652 -58.4961 142.773 -60.0098 141.064 -60.0098 C 138.379 -60.0098 134.57 -56.9824 127.539 -56.9336 C 115.967 -56.8848 108.789 -63.9648 108.789 -74.6582 C 108.789 -81.543 111.768 -86.4746 111.768 -89.3555 C 111.768 -91.0156 110.693 -92.0898 108.691 -92.041 C 100.049 -91.6992 87.5 -82.0312 84.5215 -68.2617 C 86.4258 -66.4062 88.1836 -64.1113 89.5996 -61.2305 C 105.029 -60.4492 118.457 -48.4375 119.775 -31.7871 Z M 29.834 -3.32031 L 86.8164 -3.32031 C 100.928 -3.32031 111.719 -14.1602 111.719 -28.4668 C 111.719 -43.1641 100.391 -54.0039 85.0098 -54.0039 C 79.7852 -63.916 70.0684 -71.6309 55.7129 -71.6309 C 38.7207 -71.6309 24.6094 -58.8379 23.1934 -42.041 C 14.4043 -39.6484 8.74023 -32.1777 8.74023 -22.9492 C 8.74023 -11.2793 17.2852 -3.32031 29.834 -3.32031 Z M 70.3125 20.8984 L 76.5137 10.1562 C 77.5879 8.39844 77.0996 6.20117 75.2441 5.12695 C 73.4375 4.05273 71.3867 4.73633 70.3125 6.5918 L 64.0625 17.334 C 63.0371 19.0918 63.4766 21.2402 65.332 22.3145 C 67.1387 23.3398 69.3359 22.6074 70.3125 20.8984 Z M 31.4453 20.8984 L 37.6465 10.2051 C 38.7207 8.39844 38.2324 6.20117 36.377 5.12695 C 34.5703 4.10156 32.5195 4.73633 31.4453 6.64062 L 25.1953 17.3828 C 24.1699 19.0918 24.6094 21.2891 26.4648 22.3633 C 28.2715 23.3887 30.4688 22.6562 31.4453 20.8984 Z M 85.7422 34.5703 L 91.9434 23.877 C 92.9688 22.0703 92.4805 19.873 90.6738 18.7988 C 88.8184 17.7734 86.8164 18.4082 85.6934 20.3125 L 79.4434 31.0547 C 78.4668 32.7637 78.9062 34.9609 80.7129 36.0352 C 82.5684 37.0605 84.7168 36.3281 85.7422 34.5703 Z M 46.875 34.5703 L 53.0762 23.877 C 54.1016 22.1191 53.6133 19.9219 51.8066 18.8477 C 49.9512 17.7734 47.9492 18.457 46.8262 20.3125 L 40.5762 31.0547 C 39.5996 32.8125 40.0391 34.9609 41.8457 36.0352 C 43.7012 37.0605 45.8496 36.3281 46.875 34.5703 Z"/>
  </g>
  <g id="Semibold-M" transform="matrix(1 0 0 1 1968.27 1126)">
   <path d="M 117.236 -31.4941 C 132.275 -34.8145 141.26 -47.2168 141.26 -55.5176 C 141.26 -57.5684 140.381 -59.0332 138.77 -59.0332 C 136.182 -59.0332 132.471 -55.957 125.537 -55.957 C 113.867 -55.9082 106.494 -63.0371 106.494 -73.7793 C 106.494 -80.5176 109.668 -85.3516 109.668 -88.1348 C 109.668 -89.7461 108.594 -90.8203 106.641 -90.7715 C 97.8516 -90.4297 85.6934 -80.5664 82.8613 -67.0898 C 84.6191 -65.4297 86.2793 -63.2324 87.5977 -60.498 C 103.418 -59.5215 116.309 -47.3633 117.236 -31.4941 Z M 29.541 -4.24805 L 85.0098 -4.24805 C 99.0234 -4.24805 109.766 -14.9902 109.766 -29.0039 C 109.766 -43.2617 98.584 -53.8574 83.4961 -53.8574 C 78.0762 -64.1113 68.2129 -71.3867 54.7852 -71.3867 C 38.1836 -71.3867 24.3164 -58.7402 22.9004 -42.1875 C 14.2578 -39.7949 8.74023 -32.4707 8.74023 -23.4863 C 8.74023 -12.0605 17.1875 -4.24805 29.541 -4.24805 Z M 69.2871 19.5801 L 75.5371 8.74023 C 76.5137 7.08008 76.0254 5.07812 74.3652 4.05273 C 72.6562 3.07617 70.752 3.66211 69.7266 5.41992 L 63.4277 16.3086 C 62.5 17.9199 62.9395 19.9219 64.6484 20.8984 C 66.3086 21.875 68.3594 21.2402 69.2871 19.5801 Z M 30.4199 19.6289 L 36.6699 8.78906 C 37.6953 7.12891 37.207 5.07812 35.498 4.10156 C 33.7891 3.125 31.8848 3.71094 30.8594 5.46875 L 24.5605 16.3574 C 23.6328 17.9688 24.0723 19.9707 25.7812 20.9473 C 27.4902 21.875 29.4922 21.2402 30.4199 19.6289 Z M 84.668 33.3008 L 90.918 22.4609 C 91.8945 20.8008 91.4062 18.75 89.6973 17.7734 C 87.9883 16.7969 86.1328 17.3828 85.1074 19.1406 L 78.8086 30.0293 C 77.832 31.6406 78.2715 33.6426 79.9805 34.6191 C 81.6895 35.5957 83.6914 34.9121 84.668 33.3008 Z M 45.8008 33.3496 L 52.0508 22.5098 C 53.0273 20.8496 52.5391 18.7988 50.8789 17.8223 C 49.1211 16.8457 47.2656 17.4316 46.2402 19.1406 L 39.9414 30.0293 C 39.0137 31.6406 39.4043 33.6426 41.1621 34.668 C 42.8223 35.5957 44.8242 34.9609 45.8008 33.3496 Z"/>
  </g>
  <g id="Medium-M" transform="matrix(1 0 0 1 1672.46 1126)">
   <path d="M 115.332 -31.25 C 130.42 -34.2773 139.453 -46.6797 139.453 -54.8828 C 139.453 -56.8359 138.623 -58.252 137.012 -58.252 C 134.521 -58.252 130.859 -55.1758 124.023 -55.1758 C 112.207 -55.1758 104.785 -62.3047 104.785 -73.1445 C 104.785 -79.7852 108.105 -84.5215 108.105 -87.2559 C 108.105 -88.8184 107.031 -89.8438 105.078 -89.7949 C 96.1914 -89.4531 84.3262 -79.4922 81.6406 -66.2109 C 83.3008 -64.6484 84.8145 -62.5977 86.1328 -59.9121 C 102.197 -58.7891 114.648 -46.582 115.332 -31.25 Z M 29.2969 -4.98047 L 83.6426 -4.98047 C 97.5586 -4.98047 108.301 -15.625 108.301 -29.3945 C 108.301 -43.3105 97.2656 -53.7109 82.373 -53.7598 C 76.8066 -64.3066 66.7969 -71.1426 54.1016 -71.1426 C 37.793 -71.1426 24.1211 -58.6426 22.6562 -42.334 C 14.1602 -39.8926 8.74023 -32.7148 8.74023 -23.877 C 8.74023 -12.6465 17.0898 -4.98047 29.2969 -4.98047 Z M 68.5059 18.6035 L 74.8047 7.66602 C 75.7324 6.10352 75.2441 4.19922 73.6816 3.27148 C 72.0703 2.34375 70.2637 2.88086 69.2871 4.54102 L 62.9883 15.5273 C 62.0605 17.041 62.5 18.8965 64.1113 19.8242 C 65.7227 20.7031 67.627 20.166 68.5059 18.6035 Z M 29.6387 18.6523 L 35.9375 7.71484 C 36.9141 6.15234 36.4258 4.24805 34.8145 3.32031 C 33.2031 2.39258 31.4453 2.92969 30.4688 4.54102 L 24.1211 15.5273 C 23.2422 17.041 23.6328 18.9453 25.293 19.873 C 26.8555 20.752 28.7598 20.2148 29.6387 18.6523 Z M 83.8379 32.3242 L 90.1367 21.4355 C 91.0645 19.8242 90.5762 17.9199 89.0137 16.9922 C 87.4023 16.0645 85.5957 16.6016 84.6191 18.2617 L 78.2715 29.248 C 77.3926 30.7617 77.832 32.6172 79.4434 33.5449 C 81.0059 34.4727 82.9102 33.8867 83.8379 32.3242 Z M 44.9707 32.373 L 51.2695 21.4355 C 52.1973 19.873 51.7578 17.9688 50.1465 17.041 C 48.5352 16.1133 46.7285 16.6504 45.752 18.3105 L 39.4531 29.2969 C 38.5254 30.8105 38.9648 32.666 40.5762 33.5938 C 42.1875 34.4727 44.0918 33.9355 44.9707 32.373 Z"/>
  </g>
  <g id="Regular-M" transform="matrix(1 0 0 1 1376.92 1126)">
   <path d="M 112.793 -30.957 C 128.076 -33.6426 137.109 -45.9961 137.109 -54.0039 C 137.109 -55.9082 136.279 -57.3242 134.717 -57.3242 C 132.324 -57.3242 128.76 -54.1992 122.021 -54.1992 C 110.107 -54.1992 102.588 -61.377 102.588 -72.2656 C 102.588 -78.7598 106.006 -83.4473 106.006 -86.0352 C 106.006 -87.5977 104.98 -88.5742 103.027 -88.5254 C 93.9941 -88.1348 82.5684 -78.0762 79.9805 -65.0879 C 81.4941 -63.6719 82.959 -61.7676 84.1797 -59.1797 C 100.586 -57.9102 112.5 -45.5078 112.793 -30.957 Z M 29.0039 -5.9082 L 81.8359 -5.9082 C 95.6543 -5.9082 106.396 -16.4062 106.396 -29.9316 C 106.396 -43.4082 95.459 -53.5645 80.8594 -53.6133 C 75.1465 -64.5508 64.9902 -70.8984 53.1738 -70.8984 C 37.3047 -70.8984 23.8281 -58.5449 22.3633 -42.4805 C 14.0625 -40.0391 8.74023 -32.959 8.74023 -24.4141 C 8.74023 -13.4277 16.9922 -5.9082 29.0039 -5.9082 Z M 67.4805 17.334 L 73.8281 6.29883 C 74.707 4.78516 74.2676 3.07617 72.8027 2.24609 C 71.2891 1.36719 69.6289 1.85547 68.75 3.36914 L 62.3535 14.4531 C 61.5234 15.8691 61.9629 17.5781 63.4277 18.457 C 64.8926 19.2383 66.6504 18.75 67.4805 17.334 Z M 28.6621 17.3828 L 35.0098 6.34766 C 35.8887 4.83398 35.4004 3.125 33.9355 2.29492 C 32.4707 1.41602 30.8105 1.9043 29.9316 3.41797 L 23.4863 14.502 C 22.7051 15.918 23.0957 17.627 24.6094 18.5059 C 26.0742 19.2871 27.832 18.7988 28.6621 17.3828 Z M 82.7637 31.0547 L 89.1113 20.0684 C 89.9902 18.5547 89.502 16.8457 88.0859 15.9668 C 86.5723 15.1367 84.9121 15.625 84.0332 17.0898 L 77.6367 28.2227 C 76.8066 29.5898 77.1973 31.2988 78.7109 32.1777 C 80.1758 33.0078 81.9336 32.5195 82.7637 31.0547 Z M 43.8965 31.1035 L 50.2441 20.1172 C 51.1719 18.6035 50.6836 16.8945 49.2188 16.0156 C 47.7539 15.1855 46.0938 15.6738 45.166 17.1387 L 38.7695 28.2715 C 37.9395 29.6387 38.3789 31.3477 39.8926 32.2266 C 41.3086 33.0566 43.0664 32.5684 43.8965 31.1035 Z"/>
  </g>
  <g id="Light-M" transform="matrix(1 0 0 1 1080.89 1126)">
   <path d="M 111.035 -30.3223 C 127.49 -33.252 135.742 -45.5078 135.742 -52.5391 C 135.742 -54.1016 134.961 -55.2246 133.643 -55.2246 C 131.641 -55.2246 127.539 -52.4902 121.436 -52.4902 C 109.277 -52.4902 101.465 -59.9609 101.465 -71.2402 C 101.465 -77.4902 104.541 -82.1289 104.541 -84.2773 C 104.541 -85.6934 103.613 -86.5723 101.758 -86.4258 C 91.6504 -85.5957 81.8359 -74.6582 79.9316 -62.207 C 81.25 -60.8887 82.4219 -59.2285 83.3984 -57.0312 C 99.1211 -55.8594 110.449 -44.6777 111.035 -30.3223 Z M 28.2227 -5.71289 L 81.3965 -5.71289 C 94.8242 -5.71289 105.371 -15.918 105.371 -28.9551 C 105.371 -42.041 94.6289 -51.9043 80.2734 -51.9043 C 74.4629 -63.1348 64.502 -69.4824 52.7344 -69.4824 C 37.207 -69.4824 24.0234 -57.1289 22.6562 -41.1133 C 14.1602 -38.7207 8.74023 -31.8848 8.74023 -23.4375 C 8.74023 -12.9883 16.6992 -5.71289 28.2227 -5.71289 Z M 66.2109 17.6758 L 73.0957 5.76172 C 73.877 4.49219 73.4863 3.125 72.3145 2.44141 C 71.1426 1.75781 69.8242 2.14844 69.043 3.41797 L 62.1582 15.3809 C 61.4258 16.6016 61.7676 17.9199 62.9395 18.6523 C 64.1113 19.2871 65.5273 18.8965 66.2109 17.6758 Z M 27.3438 17.6758 L 34.2285 5.76172 C 35.0098 4.54102 34.6191 3.17383 33.4473 2.44141 C 32.2754 1.80664 30.957 2.19727 30.1758 3.41797 L 23.291 15.4297 C 22.5586 16.6016 22.9004 17.9688 24.1211 18.6523 C 25.293 19.3359 26.6602 18.9453 27.3438 17.6758 Z M 81.5918 31.3965 L 88.4766 19.4824 C 89.209 18.2129 88.8184 16.8457 87.6465 16.1621 C 86.4746 15.4785 85.1562 15.8691 84.4238 17.1387 L 77.4902 29.1016 C 76.8066 30.2734 77.0996 31.6406 78.3203 32.373 C 79.4922 33.0078 80.9082 32.6172 81.5918 31.3965 Z M 42.7246 31.3965 L 49.6094 19.4824 C 50.3418 18.2129 50 16.8945 48.8281 16.1621 C 47.6562 15.5273 46.2891 15.8691 45.5566 17.1387 L 38.623 29.1504 C 37.9395 30.3223 38.2812 31.6895 39.4531 32.373 C 40.625 33.0566 42.041 32.6172 42.7246 31.3965 Z"/>
  </g>
  <g id="Thin-M" transform="matrix(1 0 0 1 785.109 1126)">
   <path d="M 108.691 -29.4922 C 126.709 -32.7148 133.887 -44.8242 133.887 -50.6348 C 133.887 -51.709 133.252 -52.4414 132.227 -52.4414 C 130.713 -52.4414 125.928 -50.2441 120.703 -50.2441 C 108.203 -50.2441 100 -58.1055 100 -69.8242 C 100 -75.7812 102.637 -80.3223 102.637 -81.9824 C 102.637 -83.252 101.807 -83.8867 100.049 -83.6914 C 88.5254 -82.2266 80.8594 -70.2148 79.8828 -58.3496 C 80.9082 -57.1777 81.6895 -55.9082 82.4219 -54.1992 C 97.2168 -53.1738 107.764 -43.5059 108.691 -29.4922 Z M 27.2461 -5.46875 L 80.7617 -5.46875 C 93.7012 -5.46875 103.955 -15.2344 103.955 -27.6855 C 103.955 -40.2832 93.457 -49.707 79.541 -49.6582 C 73.5352 -61.3281 63.8672 -67.627 52.1484 -67.627 C 37.0605 -67.627 24.2676 -55.2734 23.0469 -39.3066 C 14.3066 -37.0605 8.74023 -30.4199 8.74023 -22.2168 C 8.74023 -12.3535 16.3086 -5.46875 27.2461 -5.46875 Z M 64.5508 18.1152 L 72.1191 5.0293 C 72.7051 4.05273 72.4609 3.17383 71.6797 2.68555 C 70.8984 2.29492 70.0195 2.53906 69.4336 3.4668 L 61.8652 16.6016 C 61.3281 17.5293 61.5234 18.4082 62.3047 18.8965 C 63.1348 19.3848 64.0137 19.043 64.5508 18.1152 Z M 25.6836 18.1152 L 33.252 5.0293 C 33.8379 4.10156 33.5938 3.17383 32.8125 2.68555 C 32.0312 2.29492 31.1523 2.53906 30.5664 3.4668 L 22.9492 16.6016 C 22.4609 17.5293 22.6562 18.457 23.4375 18.8965 C 24.2676 19.3848 25.1465 19.0918 25.6836 18.1152 Z M 80.0293 31.7871 L 87.5977 18.7012 C 88.1836 17.7246 87.9395 16.8457 87.1582 16.3574 C 86.377 15.918 85.498 16.2109 84.9121 17.1387 L 77.2949 30.2734 C 76.8066 31.2012 77.002 32.0801 77.7832 32.5684 C 78.6133 33.0566 79.4922 32.7148 80.0293 31.7871 Z M 41.1621 31.7871 L 48.7305 18.7012 C 49.3164 17.7734 49.0723 16.8457 48.2422 16.3574 C 47.5098 15.9668 46.6309 16.2109 46.0449 17.1387 L 38.4277 30.2734 C 37.9395 31.2012 38.0859 32.0801 38.916 32.5684 C 39.6973 33.0566 40.625 32.7637 41.1621 31.7871 Z"/>
  </g>
  <g id="Ultralight-M" transform="matrix(1 0 0 1 488.862 1126)">
   <path d="M 107.471 -29.0527 C 126.318 -32.4219 132.959 -44.4336 132.959 -49.6582 C 132.959 -50.4883 132.373 -51.0254 131.543 -51.0254 C 130.225 -51.0254 125.098 -49.0723 120.312 -49.0723 C 107.666 -49.0723 99.2188 -57.1289 99.2188 -69.0918 C 99.2188 -74.9023 101.66 -79.4434 101.66 -80.7617 C 101.66 -81.9824 100.928 -82.5195 99.1699 -82.2754 C 86.9629 -80.4688 80.3711 -67.9199 79.834 -56.3965 C 80.7129 -55.3223 81.2988 -54.1992 81.9336 -52.7344 C 96.2402 -51.8066 106.348 -42.9199 107.471 -29.0527 Z M 26.709 -5.32227 L 80.4688 -5.32227 C 93.1641 -5.32227 103.223 -14.8926 103.223 -27.0508 C 103.223 -39.3555 92.8711 -48.584 79.1504 -48.4863 C 73.0957 -60.3516 63.5742 -66.6504 51.8555 -66.6504 C 36.9629 -66.6504 24.4141 -54.2969 23.1934 -38.3789 C 14.3555 -36.1816 8.74023 -29.6387 8.74023 -21.582 C 8.74023 -12.0605 16.1621 -5.32227 26.709 -5.32227 Z M 24.8047 18.3594 L 32.7637 4.63867 C 33.252 3.85742 33.0566 3.17383 32.4707 2.83203 C 31.9336 2.53906 31.25 2.68555 30.7617 3.51562 L 22.8027 17.1875 C 22.3633 18.0176 22.5098 18.6523 23.0957 19.043 C 23.7305 19.3848 24.3652 19.1406 24.8047 18.3594 Z M 63.7207 18.3594 L 71.6309 4.63867 C 72.1191 3.85742 71.9727 3.17383 71.3379 2.83203 C 70.8008 2.53906 70.1172 2.73438 69.6289 3.51562 L 61.7188 17.1875 C 61.2793 18.0176 61.377 18.6523 62.0117 19.043 C 62.5977 19.3848 63.2812 19.1406 63.7207 18.3594 Z M 40.332 31.9824 L 48.291 18.3105 C 48.7793 17.5293 48.584 16.8457 47.998 16.4551 C 47.4609 16.1621 46.7773 16.3574 46.2891 17.1387 L 38.3301 30.8594 C 37.8906 31.6406 38.0371 32.3242 38.623 32.666 C 39.2578 33.0566 39.8926 32.8125 40.332 31.9824 Z M 79.248 31.9824 L 87.1582 18.3105 C 87.6465 17.5293 87.5 16.8457 86.8652 16.4551 C 86.3281 16.1621 85.6445 16.3574 85.1562 17.1387 L 77.2461 30.8594 C 76.8066 31.6406 76.9043 32.3242 77.5391 32.666 C 78.125 33.0566 78.8086 32.8125 79.248 31.9824 Z"/>
  </g>
  <g id="Black-S" transform="matrix(1 0 0 1 2871.27 696)">
   <path d="M 99.0234 -33.1543 C 110.449 -36.8164 117.432 -46.6309 117.432 -53.6133 C 117.432 -55.4199 116.699 -56.6895 115.283 -56.6895 C 112.939 -56.6895 109.766 -54.3945 104.004 -54.3457 C 95.2637 -54.248 89.8438 -59.7168 89.8438 -67.8711 C 89.8438 -73.584 91.8945 -77.6367 91.8945 -80.127 C 91.8945 -81.4941 90.9668 -82.4219 89.3555 -82.373 C 82.9102 -82.1777 72.2656 -74.9023 69.5801 -63.5254 C 71.3867 -61.7676 72.9492 -59.668 74.2188 -57.1777 C 85.5957 -56.8848 97.2656 -47.7539 99.0234 -33.1543 Z M 23.9746 -8.25195 L 71.7285 -8.25195 C 83.0078 -8.25195 91.4551 -17.0898 91.4551 -28.8574 C 91.4551 -41.3086 82.3242 -50.3418 69.6777 -50.2441 C 65.918 -57.2266 58.6426 -64.3555 45.5078 -64.3555 C 31.3477 -64.3555 19.8242 -54.0039 18.75 -40.2344 C 11.5234 -38.4277 6.83594 -32.2754 6.83594 -24.5605 C 6.83594 -14.8438 13.7695 -8.25195 23.9746 -8.25195 Z M 26.7578 11.377 L 31.4941 3.22266 C 32.4219 1.61133 32.0312 -0.488281 30.3223 -1.46484 C 28.6133 -2.44141 26.7578 -1.80664 25.7324 -0.0488281 L 20.9961 8.10547 C 20.0684 9.7168 20.4102 11.7676 22.1191 12.7441 C 23.8281 13.7207 25.8301 12.9883 26.7578 11.377 Z M 57.2266 11.377 L 61.9629 3.22266 C 62.8906 1.61133 62.5 -0.488281 60.791 -1.46484 C 59.082 -2.44141 57.2266 -1.80664 56.2012 -0.0488281 L 51.4648 8.10547 C 50.5371 9.7168 50.8789 11.7676 52.5879 12.7441 C 54.2969 13.7207 56.2988 12.9883 57.2266 11.377 Z M 38.916 22.0703 L 43.6523 13.916 C 44.5801 12.3047 44.1895 10.2051 42.4805 9.22852 C 40.7715 8.25195 38.916 8.88672 37.8906 10.6445 L 33.1543 18.7988 C 32.2266 20.4102 32.5684 22.4609 34.2773 23.4375 C 35.9863 24.4141 37.9883 23.6816 38.916 22.0703 Z M 69.3848 22.0703 L 74.1211 13.916 C 75.0488 12.3047 74.6582 10.2051 72.9492 9.22852 C 71.2402 8.25195 69.3848 8.88672 68.3594 10.6445 L 63.623 18.7988 C 62.6953 20.4102 63.0371 22.4609 64.7461 23.4375 C 66.4551 24.4141 68.457 23.6816 69.3848 22.0703 Z"/>
  </g>
  <g id="Heavy-S" transform="matrix(1 0 0 1 2575.65 696)">
   <path d="M 96.7285 -32.9102 C 108.105 -36.1816 115.234 -45.9961 115.234 -52.9297 C 115.234 -54.6875 114.502 -55.957 113.086 -55.957 C 110.84 -55.957 107.812 -53.5645 102.1 -53.5156 C 93.2129 -53.4668 87.7441 -58.9355 87.7441 -67.1387 C 87.7441 -72.7539 89.9902 -76.709 89.9902 -79.1504 C 89.9902 -80.4688 89.0625 -81.3965 87.4512 -81.3477 C 81.0059 -81.1523 70.5566 -73.8281 67.9688 -62.6953 C 69.6289 -61.084 71.1426 -59.082 72.3633 -56.6895 C 84.1797 -56.2012 95.3613 -46.7773 96.7285 -32.9102 Z M 23.7793 -9.22852 L 69.9707 -9.22852 C 81.2012 -9.22852 89.6484 -17.9688 89.6484 -29.4922 C 89.6484 -41.5527 80.6641 -50.3418 68.2617 -50.293 C 64.3555 -57.6172 56.8848 -64.2578 44.6289 -64.2578 C 30.8594 -64.2578 19.5312 -54.0527 18.4082 -40.5762 C 11.377 -38.7207 6.83594 -32.666 6.83594 -25.1953 C 6.83594 -15.6738 13.6719 -9.22852 23.7793 -9.22852 Z M 56.3477 10.0586 L 61.084 1.9043 C 61.9629 0.341797 61.5723 -1.61133 59.9609 -2.53906 C 58.3496 -3.4668 56.5918 -2.88086 55.6152 -1.2207 L 50.8789 6.98242 C 50 8.49609 50.3418 10.4004 51.9531 11.3281 C 53.5645 12.2559 55.4688 11.5723 56.3477 10.0586 Z M 25.8789 10.0586 L 30.6152 1.9043 C 31.4941 0.341797 31.1035 -1.61133 29.4922 -2.53906 C 27.8809 -3.41797 26.123 -2.88086 25.1465 -1.2207 L 20.4102 6.98242 C 19.5312 8.49609 19.873 10.4004 21.4844 11.3281 C 23.0957 12.2559 25 11.5723 25.8789 10.0586 Z M 68.457 20.752 L 73.1934 12.5977 C 74.0723 11.084 73.6816 9.13086 72.0703 8.20312 C 70.459 7.27539 68.7012 7.86133 67.7246 9.47266 L 62.9883 17.6758 C 62.1094 19.1895 62.4512 21.0938 64.0625 22.0215 C 65.6738 22.9492 67.5781 22.3145 68.457 20.752 Z M 37.9883 20.8008 L 42.7246 12.5977 C 43.6035 11.084 43.2129 9.13086 41.6016 8.20312 C 39.9902 7.27539 38.2324 7.86133 37.2559 9.52148 L 32.5195 17.6758 C 31.6406 19.1895 31.9824 21.1426 33.5938 22.0703 C 35.2051 22.9492 37.1094 22.3145 37.9883 20.8008 Z"/>
  </g>
  <g id="Bold-S" transform="matrix(1 0 0 1 2280.19 696)">
   <path d="M 94.1406 -32.666 C 105.518 -35.498 112.744 -45.2637 112.744 -52.1484 C 112.744 -53.8574 112.012 -55.127 110.645 -55.127 C 108.447 -55.127 105.615 -52.6367 99.9512 -52.6367 C 90.9668 -52.5879 85.3516 -58.0566 85.3516 -66.3086 C 85.3516 -71.7773 87.8418 -75.6348 87.8418 -78.0273 C 87.8418 -79.3457 86.9141 -80.2246 85.3516 -80.1758 C 78.8574 -80.0293 68.6523 -72.6562 66.1133 -61.7676 C 67.6758 -60.3027 69.0918 -58.4473 70.2637 -56.1035 C 82.5684 -55.4199 93.2129 -45.752 94.1406 -32.666 Z M 23.5352 -10.3027 L 68.0176 -10.3027 C 79.1992 -10.3027 87.6465 -18.8965 87.6465 -30.1758 C 87.6465 -41.7969 78.7598 -50.3418 66.6504 -50.3418 C 62.5488 -58.0566 54.8828 -64.1113 43.7012 -64.1113 C 30.3223 -64.1113 19.1895 -54.1016 18.0664 -40.918 C 11.2305 -39.0137 6.83594 -33.1543 6.83594 -25.8789 C 6.83594 -16.6016 13.623 -10.3027 23.5352 -10.3027 Z M 55.3711 8.59375 L 60.0586 0.390625 C 60.9375 -1.07422 60.498 -2.83203 59.0332 -3.71094 C 57.5195 -4.58984 55.8594 -4.05273 54.9316 -2.53906 L 50.1953 5.66406 C 49.3652 7.08008 49.7559 8.88672 51.2695 9.7168 C 52.7344 10.5957 54.541 10.0098 55.3711 8.59375 Z M 24.9023 8.59375 L 29.6387 0.439453 C 30.4688 -1.02539 30.0781 -2.83203 28.5645 -3.71094 C 27.0508 -4.54102 25.3906 -4.05273 24.5117 -2.49023 L 19.7754 5.71289 C 18.9453 7.12891 19.2871 8.88672 20.8008 9.76562 C 22.3145 10.5957 24.0723 10.0098 24.9023 8.59375 Z M 67.3828 19.2871 L 72.1191 11.1328 C 72.9492 9.66797 72.5586 7.86133 71.0449 7.03125 C 69.5312 6.15234 67.8711 6.68945 66.9922 8.20312 L 62.2559 16.4062 C 61.4258 17.8223 61.7676 19.6289 63.2812 20.459 C 64.7949 21.3379 66.5527 20.752 67.3828 19.2871 Z M 36.9629 19.3359 L 41.6504 11.1816 C 42.5293 9.7168 42.0898 7.91016 40.625 7.03125 C 39.1113 6.20117 37.4512 6.68945 36.5723 8.20312 L 31.7871 16.4551 C 30.957 17.8711 31.3477 19.6289 32.8613 20.5078 C 34.3262 21.3379 36.1328 20.752 36.9629 19.3359 Z"/>
  </g>
  <g id="Semibold-S" transform="matrix(1 0 0 1 1984.33 696)">
   <path d="M 92.334 -32.4707 C 103.711 -35.0098 111.035 -44.7754 111.035 -51.6113 C 111.035 -53.3203 110.352 -54.541 108.984 -54.541 C 106.836 -54.541 104.102 -52.002 98.4375 -52.002 C 89.4043 -51.9531 83.7402 -57.4707 83.7402 -65.7715 C 83.7402 -71.0938 86.3281 -74.9512 86.3281 -77.2461 C 86.3281 -78.5156 85.4492 -79.3945 83.8867 -79.3945 C 77.3438 -79.2969 67.334 -71.8262 64.8926 -61.1328 C 66.3086 -59.7656 67.6758 -58.0078 68.7988 -55.7129 C 81.4453 -54.8828 91.6992 -45.0195 92.334 -32.4707 Z M 23.3398 -11.084 L 66.6992 -11.084 C 77.7832 -11.084 86.2793 -19.5801 86.2793 -30.6641 C 86.2793 -41.9434 77.4902 -50.3906 65.5762 -50.3906 C 61.3281 -58.3496 53.5156 -64.0137 43.0176 -64.0137 C 29.9316 -64.0137 18.9941 -54.1016 17.8223 -41.1621 C 11.1328 -39.209 6.83594 -33.4473 6.83594 -26.3672 C 6.83594 -17.2363 13.5254 -11.084 23.3398 -11.084 Z M 54.6387 7.56836 L 59.375 -0.634766 C 60.2051 -2.00195 59.7656 -3.71094 58.3984 -4.54102 C 56.9336 -5.37109 55.3223 -4.88281 54.4922 -3.41797 L 49.7559 4.78516 C 48.9746 6.15234 49.3164 7.8125 50.7812 8.64258 C 52.1973 9.42383 53.9062 8.88672 54.6387 7.56836 Z M 24.2188 7.56836 L 28.9551 -0.585938 C 29.7852 -2.00195 29.3457 -3.66211 27.9297 -4.49219 C 26.5137 -5.32227 24.9023 -4.83398 24.0723 -3.41797 L 19.2871 4.83398 C 18.5059 6.15234 18.8965 7.86133 20.3125 8.69141 C 21.7285 9.47266 23.4375 8.93555 24.2188 7.56836 Z M 66.6504 18.3105 L 71.3867 10.1074 C 72.2168 8.74023 71.7773 7.03125 70.3613 6.20117 C 68.9453 5.37109 67.334 5.85938 66.5039 7.32422 L 61.7676 15.5762 C 60.9863 16.8945 61.3281 18.5547 62.793 19.3848 C 64.209 20.166 65.8691 19.6777 66.6504 18.3105 Z M 36.2305 18.3594 L 40.9668 10.1562 C 41.748 8.78906 41.3574 7.08008 39.9414 6.25 C 38.4766 5.41992 36.9141 5.9082 36.084 7.32422 L 31.2988 15.5762 C 30.5176 16.8945 30.9082 18.6035 32.3242 19.4336 C 33.7402 20.2148 35.4492 19.6777 36.2305 18.3594 Z"/>
  </g>
  <g id="Medium-S" transform="matrix(1 0 0 1 1688.25 696)">
   <path d="M 90.9668 -32.373 C 102.344 -34.668 109.766 -44.3848 109.766 -51.1719 C 109.766 -52.8809 109.033 -54.1016 107.715 -54.1016 C 105.615 -54.1016 102.979 -51.5137 97.3145 -51.5137 C 88.1836 -51.5137 82.5195 -57.0312 82.5195 -65.332 C 82.5195 -70.6055 85.2051 -74.3652 85.2051 -76.6602 C 85.2051 -77.9297 84.3262 -78.8086 82.7637 -78.8086 C 76.2207 -78.7109 66.3086 -71.2402 63.916 -60.6445 C 65.2832 -59.375 66.6504 -57.666 67.7246 -55.4199 C 80.6152 -54.4922 90.5762 -44.4336 90.9668 -32.373 Z M 23.2422 -11.6211 L 65.6738 -11.6211 C 76.7578 -11.6211 85.2539 -20.0684 85.2539 -31.0547 C 85.2539 -42.0898 76.4648 -50.3906 64.6973 -50.4395 C 60.4004 -58.5938 52.4902 -63.916 42.5293 -63.916 C 29.6387 -63.916 18.7988 -54.1504 17.627 -41.3574 C 11.0352 -39.4043 6.83594 -33.6914 6.83594 -26.709 C 6.83594 -17.7246 13.4766 -11.6211 23.2422 -11.6211 Z M 54.1504 6.78711 L 58.8867 -1.41602 C 59.668 -2.73438 59.2285 -4.3457 57.9102 -5.17578 C 56.4941 -5.95703 54.9805 -5.51758 54.1504 -4.15039 L 49.4141 4.15039 C 48.6328 5.41992 49.0234 7.03125 50.3906 7.8125 C 51.7578 8.54492 53.3691 8.05664 54.1504 6.78711 Z M 23.7305 6.83594 L 28.418 -1.36719 C 29.248 -2.73438 28.8086 -4.3457 27.4414 -5.12695 C 26.0742 -5.9082 24.5117 -5.46875 23.7305 -4.10156 L 18.9453 4.19922 C 18.2129 5.41992 18.6035 7.03125 19.9707 7.86133 C 21.3379 8.59375 22.9492 8.10547 23.7305 6.83594 Z M 66.1133 17.5293 L 70.8496 9.375 C 71.6309 8.00781 71.1914 6.39648 69.873 5.61523 C 68.457 4.83398 66.9434 5.27344 66.1133 6.64062 L 61.377 14.8926 C 60.5957 16.1621 60.9863 17.7734 62.3535 18.5547 C 63.7207 19.3359 65.3809 18.8477 66.1133 17.5293 Z M 35.6934 17.5781 L 40.3809 9.375 C 41.2109 8.05664 40.7715 6.44531 39.4043 5.66406 C 38.0371 4.83398 36.5234 5.32227 35.6934 6.68945 L 30.957 14.9414 C 30.1758 16.2109 30.5664 17.8223 31.9336 18.6035 C 33.3008 19.3848 34.9121 18.8965 35.6934 17.5781 Z"/>
  </g>
  <g id="Regular-S" transform="matrix(1 0 0 1 1392.37 696)">
   <path d="M 89.209 -32.1777 C 100.586 -34.1797 108.105 -43.8965 108.105 -50.6348 C 108.105 -52.2949 107.373 -53.5156 106.055 -53.5156 C 104.004 -53.5156 101.465 -50.9277 95.8496 -50.9277 C 86.6211 -50.9277 80.8594 -56.3965 80.8594 -64.7949 C 80.8594 -69.9707 83.7402 -73.6816 83.7402 -75.8789 C 83.7402 -77.1484 82.9102 -78.0273 81.3477 -77.9785 C 74.8047 -77.9297 65.0391 -70.4102 62.6953 -60.0098 C 63.9648 -58.8379 65.2344 -57.2266 66.3086 -55.0293 C 79.4922 -54.0039 89.1113 -43.7012 89.209 -32.1777 Z M 23.0957 -12.3535 L 64.3555 -12.3535 C 75.3418 -12.3535 83.8867 -20.7031 83.8867 -31.543 C 83.8867 -42.2852 75.1953 -50.3906 63.623 -50.4883 C 59.2285 -58.8867 51.123 -63.8672 41.8945 -63.8672 C 29.2969 -63.8672 18.6035 -54.1992 17.3828 -41.6016 C 10.9375 -39.5996 6.83594 -33.9844 6.83594 -27.1973 C 6.83594 -18.4082 13.4277 -12.3535 23.0957 -12.3535 Z M 53.4668 5.76172 L 58.2031 -2.44141 C 58.9355 -3.71094 58.5449 -5.22461 57.2266 -5.95703 C 55.9082 -6.73828 54.4922 -6.29883 53.7109 -5.0293 L 48.9258 3.27148 C 48.2422 4.44336 48.584 5.95703 49.9023 6.73828 C 51.2207 7.42188 52.7344 6.98242 53.4668 5.76172 Z M 23.0469 5.81055 L 27.7832 -2.39258 C 28.5156 -3.66211 28.125 -5.17578 26.8066 -5.9082 C 25.4883 -6.68945 24.0234 -6.25 23.291 -4.98047 L 18.5059 3.32031 C 17.8223 4.49219 18.1641 6.00586 19.4824 6.78711 C 20.8008 7.4707 22.3145 7.03125 23.0469 5.81055 Z M 65.3809 16.5527 L 70.1172 8.34961 C 70.8984 7.08008 70.459 5.56641 69.1895 4.83398 C 67.8711 4.05273 66.4062 4.49219 65.625 5.76172 L 60.8887 14.0625 C 60.1562 15.2344 60.5469 16.748 61.8652 17.5293 C 63.1348 18.2129 64.6973 17.7734 65.3809 16.5527 Z M 34.9609 16.6016 L 39.6973 8.39844 C 40.4297 7.12891 40.0391 5.61523 38.7695 4.83398 C 37.4512 4.10156 35.9863 4.54102 35.2051 5.81055 L 30.4688 14.1113 C 29.7363 15.2832 30.127 16.7969 31.4453 17.5293 C 32.7148 18.2617 34.2773 17.8223 34.9609 16.6016 Z"/>
  </g>
  <g id="Light-S" transform="matrix(1 0 0 1 1096.3 696)">
   <path d="M 87.6465 -31.6406 C 100.098 -33.8379 106.836 -43.457 106.836 -49.3652 C 106.836 -50.7324 106.201 -51.709 105.078 -51.709 C 103.369 -51.709 100.391 -49.4141 95.3613 -49.4141 C 85.9375 -49.4141 79.8828 -55.1758 79.8828 -63.8184 C 79.8828 -68.7988 82.4707 -72.4609 82.4707 -74.3652 C 82.4707 -75.4883 81.6895 -76.2207 80.1758 -76.1719 C 72.7051 -75.6836 64.3555 -67.4316 62.6465 -57.4707 C 63.7207 -56.3965 64.7461 -54.9805 65.625 -53.125 C 78.2227 -52.1973 87.3047 -42.9688 87.6465 -31.6406 Z M 22.4121 -12.207 L 63.916 -12.207 C 74.6094 -12.207 82.9102 -20.2637 82.9102 -30.7129 C 82.9102 -41.0645 74.4629 -48.9258 63.1348 -48.9746 C 58.5938 -57.6172 50.7324 -62.5977 41.4551 -62.5977 C 29.1992 -62.5977 18.75 -52.9297 17.627 -40.3809 C 11.0352 -38.4766 6.83594 -33.0078 6.83594 -26.3672 C 6.83594 -17.9688 13.1836 -12.207 22.4121 -12.207 Z M 52.3438 6.05469 L 57.5195 -2.92969 C 58.2031 -4.00391 57.8613 -5.17578 56.8359 -5.81055 C 55.7617 -6.39648 54.6387 -6.05469 53.9551 -4.98047 L 48.7305 4.05273 C 48.1445 5.07812 48.4375 6.29883 49.5117 6.88477 C 50.5371 7.4707 51.7578 7.12891 52.3438 6.05469 Z M 21.9238 6.10352 L 27.0996 -2.88086 C 27.7344 -3.95508 27.3926 -5.17578 26.3672 -5.76172 C 25.3418 -6.34766 24.1699 -6.00586 23.5352 -4.93164 L 18.3105 4.10156 C 17.7246 5.12695 18.0176 6.29883 19.043 6.93359 C 20.0684 7.51953 21.3379 7.12891 21.9238 6.10352 Z M 64.3555 16.8457 L 69.5312 7.86133 C 70.166 6.78711 69.873 5.56641 68.8477 4.98047 C 67.7734 4.3457 66.6016 4.6875 65.9668 5.76172 L 60.7422 14.8438 C 60.1562 15.8203 60.4492 17.041 61.5234 17.6758 C 62.5488 18.2129 63.7695 17.8711 64.3555 16.8457 Z M 33.9355 16.8457 L 39.1113 7.86133 C 39.7461 6.78711 39.4043 5.61523 38.3789 4.98047 C 37.3535 4.39453 36.1816 4.73633 35.5469 5.81055 L 30.3223 14.8438 C 29.7363 15.8691 30.0293 17.0898 31.0547 17.6758 C 32.0801 18.2617 33.3008 17.9199 33.9355 16.8457 Z"/>
  </g>
  <g id="Thin-S" transform="matrix(1 0 0 1 800.392 696)">
   <path d="M 85.5957 -30.9082 C 99.4141 -33.3496 105.225 -42.8711 105.225 -47.6562 C 105.225 -48.584 104.736 -49.2676 103.857 -49.2676 C 102.588 -49.2676 98.9746 -47.4121 94.7266 -47.4121 C 84.9609 -47.4121 78.6133 -53.5156 78.6133 -62.5977 C 78.6133 -67.334 80.7617 -70.8984 80.7617 -72.3145 C 80.7617 -73.291 80.127 -73.877 78.7109 -73.7305 C 69.9707 -72.7051 63.5254 -63.4766 62.5977 -54.1016 C 63.4277 -53.125 64.1113 -52.0508 64.7461 -50.6348 C 76.5137 -49.8047 84.9121 -41.9434 85.5957 -30.9082 Z M 21.5332 -11.9629 L 63.3789 -11.9629 C 73.6328 -11.9629 81.6895 -19.7266 81.6895 -29.5898 C 81.6895 -39.502 73.4375 -46.9727 62.4512 -46.9727 C 57.8125 -56.0059 50.1465 -60.9375 40.9668 -60.9375 C 29.0527 -60.9375 18.9453 -51.2695 17.9688 -38.7695 C 11.1328 -36.9629 6.83594 -31.7383 6.83594 -25.2441 C 6.83594 -17.4316 12.8418 -11.9629 21.5332 -11.9629 Z M 50.8789 6.49414 L 56.6895 -3.56445 C 57.1777 -4.3457 56.9824 -5.17578 56.25 -5.56641 C 55.6152 -5.95703 54.7852 -5.71289 54.2969 -4.93164 L 48.4863 5.12695 C 48.0469 5.9082 48.2422 6.68945 48.9258 7.12891 C 49.6582 7.51953 50.4395 7.27539 50.8789 6.49414 Z M 20.4102 6.49414 L 26.2207 -3.51562 C 26.709 -4.3457 26.5137 -5.12695 25.8301 -5.56641 C 25.1465 -5.95703 24.3652 -5.71289 23.877 -4.93164 L 18.0664 5.12695 C 17.627 5.9082 17.7734 6.73828 18.5059 7.12891 C 19.1895 7.51953 19.9707 7.27539 20.4102 6.49414 Z M 62.9883 17.1875 L 68.7988 7.17773 C 69.2871 6.34766 69.043 5.56641 68.3594 5.12695 C 67.6758 4.78516 66.8945 4.98047 66.4062 5.81055 L 60.5957 15.8691 C 60.1562 16.6504 60.3516 17.4316 61.0352 17.8223 C 61.7188 18.2617 62.5488 17.9688 62.9883 17.1875 Z M 32.5195 17.1875 L 38.3301 7.17773 C 38.8184 6.39648 38.623 5.56641 37.8906 5.17578 C 37.2559 4.78516 36.4258 4.98047 35.9375 5.81055 L 30.127 15.8691 C 29.6875 16.6504 29.8828 17.4316 30.5664 17.8711 C 31.2988 18.2617 32.0801 18.0176 32.5195 17.1875 Z"/>
  </g>
  <g id="Ultralight-S" transform="matrix(1 0 0 1 504.096 696)">
   <path d="M 84.5215 -30.5176 C 99.0723 -33.1055 104.395 -42.5293 104.395 -46.7773 C 104.395 -47.5098 103.955 -47.998 103.223 -47.998 C 102.148 -47.998 98.1934 -46.3867 94.3848 -46.3867 C 84.4727 -46.3867 77.9297 -52.6367 77.9297 -61.9629 C 77.9297 -66.5527 79.8828 -70.1172 79.8828 -71.2402 C 79.8828 -72.168 79.2969 -72.6562 77.9297 -72.4609 C 68.5547 -71.1426 63.0859 -61.4746 62.5488 -52.3438 C 63.2812 -51.4648 63.8184 -50.5371 64.3066 -49.3164 C 75.6348 -48.584 83.6914 -41.4062 84.5215 -30.5176 Z M 21.0449 -11.8652 L 63.0859 -11.8652 C 73.0957 -11.8652 81.0547 -19.3848 81.0547 -29.0039 C 81.0547 -38.7207 72.9004 -45.9961 62.1094 -45.9473 C 57.373 -55.1758 49.8535 -60.1074 40.6738 -60.1074 C 28.9551 -60.1074 19.043 -50.4395 18.1152 -37.9395 C 11.2305 -36.2305 6.83594 -31.0547 6.83594 -24.707 C 6.83594 -17.1387 12.6953 -11.8652 21.0449 -11.8652 Z M 50.1465 6.68945 L 56.25 -3.85742 C 56.6406 -4.54102 56.4941 -5.12695 55.957 -5.46875 C 55.4688 -5.71289 54.9316 -5.56641 54.4922 -4.88281 L 48.3887 5.66406 C 47.998 6.34766 48.1445 6.93359 48.6328 7.22656 C 49.1699 7.56836 49.7559 7.37305 50.1465 6.68945 Z M 19.6777 6.68945 L 25.7812 -3.85742 C 26.1719 -4.54102 26.0254 -5.12695 25.4883 -5.46875 C 25.0488 -5.71289 24.4629 -5.56641 24.0234 -4.88281 L 17.9199 5.66406 C 17.5293 6.34766 17.6758 6.93359 18.1641 7.22656 C 18.7012 7.56836 19.2871 7.37305 19.6777 6.68945 Z M 62.2559 17.3828 L 68.4082 6.83594 C 68.7988 6.15234 68.6523 5.56641 68.1152 5.27344 C 67.627 4.98047 67.041 5.12695 66.6504 5.81055 L 60.498 16.4062 C 60.1562 17.041 60.2539 17.627 60.791 17.9688 C 61.3281 18.2617 61.9141 18.0664 62.2559 17.3828 Z M 31.7871 17.3828 L 37.9395 6.83594 C 38.3301 6.15234 38.1836 5.56641 37.6465 5.27344 C 37.1582 4.98047 36.5723 5.12695 36.1816 5.81055 L 30.0293 16.4062 C 29.6875 17.041 29.7852 17.627 30.3223 17.9688 C 30.8594 18.2617 31.4453 18.0664 31.7871 17.3828 Z"/>
  </g>
 </g>
</svg>
