<?xml version="1.0" encoding="UTF-8"?>
<!--Generator: Apple Native CoreSVG 123-->
<!DOCTYPE svg
PUBLIC "-//W3C//DTD SVG 1.1//EN"
       "http://www.w3.org/Graphics/SVG/1.1/DTD/svg11.dtd">
<svg version="1.1" xmlns="http://www.w3.org/2000/svg" xmlns:xlink="http://www.w3.org/1999/xlink" width="3300" height="2200">
 <!--glyph: "uni1001D8.medium", point size: 100.000000, font version: "Version 15.0d7e11", template writer version: "5"-->
 <g id="Notes">
  <rect height="2200" id="artboard" style="fill:white;opacity:1" width="3300" x="0" y="0"/>
  <line id="" style="fill:none;stroke:black;opacity:1;stroke-width:0.5;" x1="263" x2="3036" y1="292" y2="292"/>
  <text style="stroke:none;fill:black;font-family:-apple-system,&quot;SF Pro Display&quot;,&quot;SF Pro Text&quot;,Helvetica,sans-serif;font-weight:bold;" transform="matrix(1 0 0 1 263 322)">Weight/Scale Variations</text>
  <text style="stroke:none;fill:black;font-family:-apple-system,&quot;SF Pro Display&quot;,&quot;SF Pro Text&quot;,Helvetica,sans-serif;text-anchor:middle;" transform="matrix(1 0 0 1 559.711 322)">Ultralight</text>
  <text style="stroke:none;fill:black;font-family:-apple-system,&quot;SF Pro Display&quot;,&quot;SF Pro Text&quot;,Helvetica,sans-serif;text-anchor:middle;" transform="matrix(1 0 0 1 856.422 322)">Thin</text>
  <text style="stroke:none;fill:black;font-family:-apple-system,&quot;SF Pro Display&quot;,&quot;SF Pro Text&quot;,Helvetica,sans-serif;text-anchor:middle;" transform="matrix(1 0 0 1 1153.13 322)">Light</text>
  <text style="stroke:none;fill:black;font-family:-apple-system,&quot;SF Pro Display&quot;,&quot;SF Pro Text&quot;,Helvetica,sans-serif;text-anchor:middle;" transform="matrix(1 0 0 1 1449.84 322)">Regular</text>
  <text style="stroke:none;fill:black;font-family:-apple-system,&quot;SF Pro Display&quot;,&quot;SF Pro Text&quot;,Helvetica,sans-serif;text-anchor:middle;" transform="matrix(1 0 0 1 1746.56 322)">Medium</text>
  <text style="stroke:none;fill:black;font-family:-apple-system,&quot;SF Pro Display&quot;,&quot;SF Pro Text&quot;,Helvetica,sans-serif;text-anchor:middle;" transform="matrix(1 0 0 1 2043.27 322)">Semibold</text>
  <text style="stroke:none;fill:black;font-family:-apple-system,&quot;SF Pro Display&quot;,&quot;SF Pro Text&quot;,Helvetica,sans-serif;text-anchor:middle;" transform="matrix(1 0 0 1 2339.98 322)">Bold</text>
  <text style="stroke:none;fill:black;font-family:-apple-system,&quot;SF Pro Display&quot;,&quot;SF Pro Text&quot;,Helvetica,sans-serif;text-anchor:middle;" transform="matrix(1 0 0 1 2636.69 322)">Heavy</text>
  <text style="stroke:none;fill:black;font-family:-apple-system,&quot;SF Pro Display&quot;,&quot;SF Pro Text&quot;,Helvetica,sans-serif;text-anchor:middle;" transform="matrix(1 0 0 1 2933.4 322)">Black</text>
  <line id="" style="fill:none;stroke:black;opacity:1;stroke-width:0.5;" x1="263" x2="3036" y1="1903" y2="1903"/>
  <g id="" transform="matrix(1 0 0 1 263 1933)">
   <path d="M 9.24805 0.830078 C 13.5547 0.830078 17.1387 -2.74414 17.1387 -7.05078 C 17.1387 -11.3574 13.5449 -14.9316 9.23828 -14.9316 C 4.94141 -14.9316 1.36719 -11.3574 1.36719 -7.05078 C 1.36719 -2.74414 4.95117 0.830078 9.24805 0.830078 Z M 9.24805 -0.654297 C 5.70312 -0.654297 2.87109 -3.49609 2.87109 -7.05078 C 2.87109 -10.6055 5.69336 -13.4473 9.23828 -13.4473 C 12.793 -13.4473 15.6348 -10.6055 15.6445 -7.05078 C 15.6543 -3.49609 12.8027 -0.654297 9.24805 -0.654297 Z M 9.22852 -3.42773 C 9.69727 -3.42773 9.9707 -3.74023 9.9707 -4.25781 L 9.9707 -6.31836 L 12.1973 -6.31836 C 12.6953 -6.31836 13.0371 -6.57227 13.0371 -7.04102 C 13.0371 -7.51953 12.7148 -7.7832 12.1973 -7.7832 L 9.9707 -7.7832 L 9.9707 -10.0098 C 9.9707 -10.5273 9.69727 -10.8496 9.22852 -10.8496 C 8.75977 -10.8496 8.50586 -10.5078 8.50586 -10.0098 L 8.50586 -7.7832 L 6.29883 -7.7832 C 5.78125 -7.7832 5.44922 -7.51953 5.44922 -7.04102 C 5.44922 -6.57227 5.80078 -6.31836 6.29883 -6.31836 L 8.50586 -6.31836 L 8.50586 -4.25781 C 8.50586 -3.75977 8.75977 -3.42773 9.22852 -3.42773 Z"/>
  </g>
  <g id="" transform="matrix(1 0 0 1 281.506 1933)">
   <path d="M 11.709 2.91016 C 17.1582 2.91016 21.6699 -1.60156 21.6699 -7.05078 C 21.6699 -12.4902 17.1484 -17.0117 11.6992 -17.0117 C 6.25977 -17.0117 1.74805 -12.4902 1.74805 -7.05078 C 1.74805 -1.60156 6.26953 2.91016 11.709 2.91016 Z M 11.709 1.25 C 7.09961 1.25 3.41797 -2.44141 3.41797 -7.05078 C 3.41797 -11.6504 7.08984 -15.3516 11.6992 -15.3516 C 16.3086 -15.3516 20 -11.6504 20.0098 -7.05078 C 20.0195 -2.44141 16.3184 1.25 11.709 1.25 Z M 11.6895 -2.41211 C 12.207 -2.41211 12.5195 -2.77344 12.5195 -3.33984 L 12.5195 -6.23047 L 15.5762 -6.23047 C 16.123 -6.23047 16.5039 -6.51367 16.5039 -7.03125 C 16.5039 -7.55859 16.1426 -7.86133 15.5762 -7.86133 L 12.5195 -7.86133 L 12.5195 -10.9277 C 12.5195 -11.5039 12.207 -11.8555 11.6895 -11.8555 C 11.1719 -11.8555 10.8789 -11.4844 10.8789 -10.9277 L 10.8789 -7.86133 L 7.83203 -7.86133 C 7.26562 -7.86133 6.89453 -7.55859 6.89453 -7.03125 C 6.89453 -6.51367 7.28516 -6.23047 7.83203 -6.23047 L 10.8789 -6.23047 L 10.8789 -3.33984 C 10.8789 -2.79297 11.1719 -2.41211 11.6895 -2.41211 Z"/>
  </g>
  <g id="" transform="matrix(1 0 0 1 304.924 1933)">
   <path d="M 14.9707 5.67383 C 21.9336 5.67383 27.6953 -0.078125 27.6953 -7.04102 C 27.6953 -14.0039 21.9238 -19.7559 14.9609 -19.7559 C 8.00781 -19.7559 2.25586 -14.0039 2.25586 -7.04102 C 2.25586 -0.078125 8.01758 5.67383 14.9707 5.67383 Z M 14.9707 3.85742 C 8.93555 3.85742 4.08203 -1.00586 4.08203 -7.04102 C 4.08203 -13.0762 8.92578 -17.9395 14.9609 -17.9395 C 21.0059 -17.9395 25.8594 -13.0762 25.8691 -7.04102 C 25.8789 -1.00586 21.0156 3.85742 14.9707 3.85742 Z M 14.9512 -1.06445 C 15.5176 -1.06445 15.8691 -1.45508 15.8691 -2.06055 L 15.8691 -6.13281 L 20.1074 -6.13281 C 20.6934 -6.13281 21.1133 -6.46484 21.1133 -7.02148 C 21.1133 -7.59766 20.7227 -7.93945 20.1074 -7.93945 L 15.8691 -7.93945 L 15.8691 -12.1875 C 15.8691 -12.8027 15.5176 -13.1934 14.9512 -13.1934 C 14.3848 -13.1934 14.0625 -12.7832 14.0625 -12.1875 L 14.0625 -7.93945 L 9.83398 -7.93945 C 9.21875 -7.93945 8.80859 -7.59766 8.80859 -7.02148 C 8.80859 -6.46484 9.23828 -6.13281 9.83398 -6.13281 L 14.0625 -6.13281 L 14.0625 -2.06055 C 14.0625 -1.47461 14.3848 -1.06445 14.9512 -1.06445 Z"/>
  </g>
  <text style="stroke:none;fill:black;font-family:-apple-system,&quot;SF Pro Display&quot;,&quot;SF Pro Text&quot;,Helvetica,sans-serif;font-weight:bold;" transform="matrix(1 0 0 1 263 1953)">Design Variations</text>
  <text style="stroke:none;fill:black;font-family:-apple-system,&quot;SF Pro Display&quot;,&quot;SF Pro Text&quot;,Helvetica,sans-serif;" transform="matrix(1 0 0 1 263 1971)">Symbols are supported in up to nine weights and three scales.</text>
  <text style="stroke:none;fill:black;font-family:-apple-system,&quot;SF Pro Display&quot;,&quot;SF Pro Text&quot;,Helvetica,sans-serif;" transform="matrix(1 0 0 1 263 1989)">For optimal layout with text and other symbols, vertically align</text>
  <text style="stroke:none;fill:black;font-family:-apple-system,&quot;SF Pro Display&quot;,&quot;SF Pro Text&quot;,Helvetica,sans-serif;" transform="matrix(1 0 0 1 263 2007)">symbols with the adjacent text.</text>
  <rect height="14" id="" style="fill:#00AEEF;stroke:none;opacity:0.4;" width="3" x="776" y="1919"/>
  <g id="" transform="matrix(1 0 0 1 779 1933)">
   <path d="M 10.5273 0 L 12.373 0 L 7.17773 -14.0918 L 5.43945 -14.0918 L 0.244141 0 L 2.08984 0 L 3.50586 -4.0332 L 9.11133 -4.0332 Z M 6.2793 -11.9531 L 6.33789 -11.9531 L 8.59375 -5.52734 L 4.02344 -5.52734 Z"/>
  </g>
  <rect height="14" id="" style="fill:#00AEEF;stroke:none;opacity:0.4;" width="3" x="791.617" y="1919"/>
  <text style="stroke:none;fill:black;font-family:-apple-system,&quot;SF Pro Display&quot;,&quot;SF Pro Text&quot;,Helvetica,sans-serif;font-weight:bold;" transform="matrix(1 0 0 1 776 1953)">Margins</text>
  <text style="stroke:none;fill:black;font-family:-apple-system,&quot;SF Pro Display&quot;,&quot;SF Pro Text&quot;,Helvetica,sans-serif;" transform="matrix(1 0 0 1 776 1971)">Leading and trailing margins on the left and right side of each symbol</text>
  <text style="stroke:none;fill:black;font-family:-apple-system,&quot;SF Pro Display&quot;,&quot;SF Pro Text&quot;,Helvetica,sans-serif;" transform="matrix(1 0 0 1 776 1989)">can be adjusted by modifying the width of the blue rectangles.</text>
  <text style="stroke:none;fill:black;font-family:-apple-system,&quot;SF Pro Display&quot;,&quot;SF Pro Text&quot;,Helvetica,sans-serif;" transform="matrix(1 0 0 1 776 2007)">Modifications are automatically applied proportionally to all</text>
  <text style="stroke:none;fill:black;font-family:-apple-system,&quot;SF Pro Display&quot;,&quot;SF Pro Text&quot;,Helvetica,sans-serif;" transform="matrix(1 0 0 1 776 2025)">scales and weights.</text>
  <g id="" transform="matrix(1 0 0 1 1289 1933)">
   <path d="M 2.83203 3.11523 L 4.375 4.6582 C 5.22461 5.48828 6.19141 5.41992 7.06055 4.46289 L 17.2754 -6.66016 C 17.7051 -6.36719 18.0957 -6.37695 18.5645 -6.47461 L 19.6094 -6.68945 L 20.3027 -5.99609 L 20.2539 -5.47852 C 20.1855 -4.95117 20.3516 -4.53125 20.8496 -4.0332 L 21.6602 -3.22266 C 22.168 -2.71484 22.8223 -2.68555 23.3008 -3.16406 L 26.5527 -6.41602 C 27.0312 -6.89453 27.0117 -7.54883 26.5039 -8.05664 L 25.6836 -8.87695 C 25.1855 -9.375 24.7754 -9.55078 24.2383 -9.47266 L 23.7109 -9.41406 L 23.0566 -10.0781 L 23.3398 -11.2207 C 23.4863 -11.7871 23.3398 -12.2559 22.7148 -12.8613 L 20.3027 -15.2539 C 16.7578 -18.7793 12.2266 -18.6719 9.11133 -15.5371 C 8.69141 -15.1074 8.64258 -14.5215 8.91602 -14.0918 C 9.15039 -13.7207 9.62891 -13.4961 10.2734 -13.6621 C 11.7871 -14.043 13.3008 -13.9258 14.7852 -12.9199 L 14.1602 -11.3379 C 13.9258 -10.752 13.9453 -10.2734 14.1797 -9.83398 L 3.01758 0.439453 C 2.08008 1.30859 1.97266 2.25586 2.83203 3.11523 Z M 10.6738 -15.1465 C 13.3398 -17.1387 16.6504 -16.8262 19.0527 -14.4141 L 21.6797 -11.8066 C 21.9141 -11.5723 21.9434 -11.3867 21.8848 -11.0938 L 21.5039 -9.53125 L 23.0762 -7.95898 L 24.043 -8.04688 C 24.3262 -8.07617 24.4141 -8.05664 24.6387 -7.83203 L 25.2637 -7.20703 L 22.5098 -4.46289 L 21.8848 -5.07812 C 21.6602 -5.30273 21.6406 -5.40039 21.6699 -5.68359 L 21.7578 -6.64062 L 20.1953 -8.20312 L 18.5742 -7.89062 C 18.291 -7.83203 18.1445 -7.83203 17.9102 -8.07617 L 15.7324 -10.2539 C 15.5078 -10.4883 15.4785 -10.625 15.6055 -10.9473 L 16.5527 -13.2227 C 14.9512 -14.7559 12.8418 -15.6055 10.8008 -14.9512 C 10.7129 -14.9219 10.6445 -14.9414 10.6152 -14.9805 C 10.5859 -15.0293 10.5859 -15.0781 10.6738 -15.1465 Z M 4.10156 2.41211 C 3.61328 1.91406 3.78906 1.61133 4.12109 1.30859 L 15.0781 -8.80859 L 16.3086 -7.57812 L 6.15234 3.34961 C 5.84961 3.68164 5.46875 3.7793 5.06836 3.37891 Z"/>
  </g>
  <text style="stroke:none;fill:black;font-family:-apple-system,&quot;SF Pro Display&quot;,&quot;SF Pro Text&quot;,Helvetica,sans-serif;font-weight:bold;" transform="matrix(1 0 0 1 1289 1953)">Exporting</text>
  <text style="stroke:none;fill:black;font-family:-apple-system,&quot;SF Pro Display&quot;,&quot;SF Pro Text&quot;,Helvetica,sans-serif;" transform="matrix(1 0 0 1 1289 1971)">Symbols should be outlined when exporting to ensure the</text>
  <text style="stroke:none;fill:black;font-family:-apple-system,&quot;SF Pro Display&quot;,&quot;SF Pro Text&quot;,Helvetica,sans-serif;" transform="matrix(1 0 0 1 1289 1989)">design is preserved when submitting to Xcode.</text>
  <text id="template-version" style="stroke:none;fill:black;font-family:-apple-system,&quot;SF Pro Display&quot;,&quot;SF Pro Text&quot;,Helvetica,sans-serif;text-anchor:end;" transform="matrix(1 0 0 1 3036 1933)">Template v.1.0</text>
  <text style="stroke:none;fill:black;font-family:-apple-system,&quot;SF Pro Display&quot;,&quot;SF Pro Text&quot;,Helvetica,sans-serif;text-anchor:end;" transform="matrix(1 0 0 1 3036 1951)">Generated from cloud.sun.bolt</text>
  <text style="stroke:none;fill:black;font-family:-apple-system,&quot;SF Pro Display&quot;,&quot;SF Pro Text&quot;,Helvetica,sans-serif;text-anchor:end;" transform="matrix(1 0 0 1 3036 1969)">Typeset at 100 points</text>
  <text style="stroke:none;fill:black;font-family:-apple-system,&quot;SF Pro Display&quot;,&quot;SF Pro Text&quot;,Helvetica,sans-serif;" transform="matrix(1 0 0 1 263 726)">Small</text>
  <text style="stroke:none;fill:black;font-family:-apple-system,&quot;SF Pro Display&quot;,&quot;SF Pro Text&quot;,Helvetica,sans-serif;" transform="matrix(1 0 0 1 263 1156)">Medium</text>
  <text style="stroke:none;fill:black;font-family:-apple-system,&quot;SF Pro Display&quot;,&quot;SF Pro Text&quot;,Helvetica,sans-serif;" transform="matrix(1 0 0 1 263 1586)">Large</text>
 </g>
 <g id="Guides">
  <g id="H-reference" style="fill:#27AAE1;stroke:none;" transform="matrix(1 0 0 1 339 696)">
   <path d="M 54.9316 0 L 57.666 0 L 30.5664 -70.459 L 28.0762 -70.459 L 0.976562 0 L 3.66211 0 L 12.9395 -24.4629 L 45.7031 -24.4629 Z M 29.1992 -67.0898 L 29.4434 -67.0898 L 44.8242 -26.709 L 13.8184 -26.709 Z"/>
  </g>
  <line id="Baseline-S" style="fill:none;stroke:#27AAE1;opacity:1;stroke-width:0.577;" x1="263" x2="3036" y1="696" y2="696"/>
  <line id="Capline-S" style="fill:none;stroke:#27AAE1;opacity:1;stroke-width:0.577;" x1="263" x2="3036" y1="625.541" y2="625.541"/>
  <g id="H-reference" style="fill:#27AAE1;stroke:none;" transform="matrix(1 0 0 1 339 1126)">
   <path d="M 54.9316 0 L 57.666 0 L 30.5664 -70.459 L 28.0762 -70.459 L 0.976562 0 L 3.66211 0 L 12.9395 -24.4629 L 45.7031 -24.4629 Z M 29.1992 -67.0898 L 29.4434 -67.0898 L 44.8242 -26.709 L 13.8184 -26.709 Z"/>
  </g>
  <line id="Baseline-M" style="fill:none;stroke:#27AAE1;opacity:1;stroke-width:0.577;" x1="263" x2="3036" y1="1126" y2="1126"/>
  <line id="Capline-M" style="fill:none;stroke:#27AAE1;opacity:1;stroke-width:0.577;" x1="263" x2="3036" y1="1055.54" y2="1055.54"/>
  <g id="H-reference" style="fill:#27AAE1;stroke:none;" transform="matrix(1 0 0 1 339 1556)">
   <path d="M 54.9316 0 L 57.666 0 L 30.5664 -70.459 L 28.0762 -70.459 L 0.976562 0 L 3.66211 0 L 12.9395 -24.4629 L 45.7031 -24.4629 Z M 29.1992 -67.0898 L 29.4434 -67.0898 L 44.8242 -26.709 L 13.8184 -26.709 Z"/>
  </g>
  <line id="Baseline-L" style="fill:none;stroke:#27AAE1;opacity:1;stroke-width:0.577;" x1="263" x2="3036" y1="1556" y2="1556"/>
  <line id="Capline-L" style="fill:none;stroke:#27AAE1;opacity:1;stroke-width:0.577;" x1="263" x2="3036" y1="1485.54" y2="1485.54"/>
  <rect height="119.336" id="left-margin" style="fill:#00AEEF;stroke:none;opacity:0.4;" width="8.74023" x="1370.21" y="1030.79"/>
  <rect height="119.336" id="right-margin" style="fill:#00AEEF;stroke:none;opacity:0.4;" width="8.73929" x="1520.74" y="1030.79"/>
 </g>
 <g id="Symbols">
  <g id="Black-L" transform="matrix(1 0 0 1 2823.41 1556)">
   <path d="M 140.43 -103.809 C 144.531 -103.809 147.852 -107.275 147.852 -111.377 L 147.852 -122.168 C 147.852 -126.318 144.531 -129.736 140.43 -129.736 C 136.328 -129.736 133.008 -126.318 133.008 -122.168 L 133.008 -111.377 C 133.008 -107.275 136.328 -103.809 140.43 -103.809 Z M 99.8047 -91.4551 C 102.783 -88.5254 107.568 -88.4766 110.449 -91.3574 C 113.281 -94.2383 113.184 -98.9258 110.303 -101.953 L 102.734 -109.717 C 99.9023 -112.646 94.9707 -112.598 92.0898 -109.717 C 89.209 -106.836 89.3066 -102.051 92.1875 -99.1699 Z M 170.459 -91.3086 C 173.34 -88.4277 178.174 -88.5254 181.104 -91.4062 L 188.77 -99.0723 C 191.699 -101.953 191.699 -106.787 188.818 -109.668 C 185.938 -112.549 181.201 -112.451 178.223 -109.521 L 170.508 -101.953 C 167.578 -99.0723 167.627 -94.1895 170.459 -91.3086 Z M 42.2852 8.59375 L 111.621 8.59375 C 131.934 8.59375 147.754 -6.93359 147.754 -26.9531 C 147.754 -27.3438 147.754 -27.7344 147.754 -28.0762 C 162.988 -31.2988 174.463 -44.873 174.463 -61.3281 C 174.463 -80.2246 159.326 -95.3613 140.527 -95.3613 C 124.561 -95.3613 111.377 -84.668 107.52 -70.0684 C 99.5117 -79.5898 87.9883 -84.7168 74.0723 -84.7168 C 51.9043 -84.7168 33.5938 -68.9941 30.0293 -47.0703 C 18.5547 -43.3105 11.2793 -33.1543 11.2793 -20.6055 C 11.2793 -3.66211 24.3164 8.59375 42.2852 8.59375 Z M 140.479 -80.3711 C 151.025 -80.3711 159.473 -71.9238 159.473 -61.3281 C 159.473 -51.9531 152.93 -44.2871 144.287 -42.7246 C 139.893 -51.9531 131.641 -58.7891 121.387 -61.5234 C 121.387 -71.9238 129.834 -80.3711 140.479 -80.3711 Z M 190.332 -54.0039 L 201.172 -54.0039 C 205.273 -54.0039 208.691 -57.2754 208.691 -61.377 C 208.691 -65.4785 205.273 -68.8965 201.172 -68.8965 L 190.332 -68.8965 C 186.23 -68.8965 182.764 -65.4785 182.764 -61.377 C 182.764 -57.2754 186.23 -54.0039 190.332 -54.0039 Z M 42.7246 -8.74023 C 33.3496 -8.74023 28.6621 -13.5742 28.6621 -20.4102 C 28.6621 -26.4648 32.4219 -31.1035 41.0645 -33.3008 C 44.7266 -34.2773 45.752 -35.9375 46.2891 -39.6973 C 48.9746 -57.8613 60.0586 -67.4805 74.0723 -67.4805 C 84.5215 -67.4805 93.3594 -61.4258 99.3652 -50.1953 C 101.025 -47.1191 102.734 -45.9961 106.543 -45.9961 C 122.998 -45.9961 130.42 -37.5 130.42 -26.709 C 130.42 -16.5527 122.803 -8.74023 111.182 -8.74023 Z M 178.174 -13.1348 C 181.104 -10.2051 185.889 -10.1562 188.77 -13.0371 C 191.65 -15.918 191.504 -20.6543 188.623 -23.6328 L 181.055 -31.3477 C 178.223 -34.2773 173.291 -34.2285 170.41 -31.3477 C 167.529 -28.4668 167.627 -23.6816 170.508 -20.8008 Z M 97.8027 29.7363 L 83.1055 29.7363 L 88.2324 19.873 C 88.9648 18.5059 88.4277 17.4316 86.9629 17.4316 L 68.6035 17.4316 C 66.7969 17.4316 66.2109 18.0664 65.625 19.3848 L 56.8848 39.2578 C 56.25 40.7715 56.8359 41.7969 58.4961 41.7969 L 70.459 41.7969 L 61.8164 62.7441 C 61.4746 63.5742 61.6699 64.3066 62.2559 64.5508 C 62.793 64.7461 63.4766 64.5996 64.209 63.9648 L 98.7305 32.959 C 100.244 31.6895 99.707 29.7363 97.8027 29.7363 Z"/>
  </g>
  <g id="Heavy-L" transform="matrix(1 0 0 1 2528.46 1556)">
   <path d="M 137.744 -102.881 C 141.455 -102.881 144.482 -106.006 144.482 -109.668 L 144.482 -121.436 C 144.482 -125.195 141.455 -128.223 137.744 -128.223 C 134.033 -128.223 131.006 -125.195 131.006 -121.436 L 131.006 -109.668 C 131.006 -106.006 134.033 -102.881 137.744 -102.881 Z M 98.3887 -90.5762 C 101.025 -87.8906 105.42 -87.8906 107.959 -90.4785 C 110.547 -93.1152 110.498 -97.3633 107.861 -100.049 L 99.6094 -108.447 C 97.0215 -111.084 92.627 -111.035 90.0391 -108.447 C 87.4023 -105.859 87.5 -101.514 90.0879 -98.9258 Z M 167.578 -90.4785 C 170.166 -87.8418 174.561 -87.8906 177.197 -90.5273 L 185.498 -98.8281 C 188.135 -101.465 188.135 -105.811 185.547 -108.398 C 182.91 -110.986 178.662 -110.986 175.977 -108.301 L 167.627 -100.049 C 164.99 -97.4609 164.99 -93.0664 167.578 -90.4785 Z M 41.1133 7.27539 L 110.254 7.27539 C 130.029 7.27539 145.361 -7.8125 145.361 -27.1973 C 145.361 -27.5879 145.361 -27.9297 145.361 -28.3203 C 160.059 -31.6895 170.996 -44.8242 170.996 -60.6934 C 170.996 -79.1504 156.201 -93.9453 137.842 -93.9453 C 122.266 -93.9453 109.375 -83.5449 105.615 -69.2871 C 97.7051 -78.6621 86.4258 -83.8379 72.8516 -83.8379 C 51.0742 -83.8379 33.0078 -68.0176 29.834 -46.3867 C 18.6035 -42.7734 11.2793 -32.9102 11.2793 -20.6543 C 11.2793 -4.44336 23.6816 7.27539 41.1133 7.27539 Z M 137.793 -80.6641 C 148.877 -80.6641 157.715 -71.8262 157.715 -60.6934 C 157.715 -51.1719 151.172 -43.3594 142.432 -41.3574 C 138.037 -51.3184 129.053 -58.5938 117.822 -60.9375 C 117.822 -71.8262 126.611 -80.6641 137.793 -80.6641 Z M 41.4062 -7.95898 C 31.5918 -7.95898 26.5625 -13.2324 26.5625 -20.459 C 26.5625 -26.7578 30.5176 -31.7871 39.3066 -34.082 C 42.7734 -34.9609 43.7988 -36.5234 44.2383 -40.0391 C 46.6309 -58.1543 58.3008 -68.6523 72.8516 -68.6523 C 83.9355 -68.6523 92.9688 -62.3047 98.9746 -50.9277 C 100.488 -47.998 102.148 -46.9727 105.713 -46.9727 C 122.119 -46.9727 130.127 -38.0371 130.127 -26.9043 C 130.127 -16.2598 121.924 -7.95898 109.912 -7.95898 Z M 186.621 -54.0527 L 198.389 -54.0527 C 202.1 -54.0527 205.176 -57.0312 205.176 -60.7422 C 205.176 -64.4043 202.1 -67.4805 198.389 -67.4805 L 186.621 -67.4805 C 182.959 -67.4805 179.834 -64.4043 179.834 -60.7422 C 179.834 -57.0312 182.959 -54.0527 186.621 -54.0527 Z M 175.928 -13.0371 C 178.613 -10.4004 182.861 -10.4004 185.498 -12.9883 C 188.086 -15.5762 187.988 -19.873 185.4 -22.5098 L 177.1 -30.9082 C 174.561 -33.4961 170.117 -33.4961 167.529 -30.9082 C 164.941 -28.3203 165.039 -23.9746 167.627 -21.3867 Z M 95.4102 28.8086 L 81.3477 28.8086 L 86.7188 18.6035 C 87.4512 17.2363 86.8652 16.1621 85.4492 16.1621 L 68.75 16.1621 C 66.9922 16.1621 66.3574 16.7969 65.7715 18.1152 L 57.2754 37.5977 C 56.5918 39.1113 57.2266 40.0879 58.8379 40.0879 L 70.3613 40.0879 L 61.8652 60.5957 C 61.5234 61.4746 61.7188 62.1582 62.3047 62.4023 C 62.8906 62.6465 63.5742 62.5 64.2578 61.8164 L 96.3867 31.9824 C 97.8027 30.7129 97.2656 28.8086 95.4102 28.8086 Z"/>
  </g>
  <g id="Bold-L" transform="matrix(1 0 0 1 2233.73 1556)">
   <path d="M 134.766 -101.807 C 138.037 -101.807 140.723 -104.59 140.723 -107.812 L 140.723 -120.557 C 140.723 -123.877 138.037 -126.562 134.766 -126.562 C 131.494 -126.562 128.809 -123.877 128.809 -120.557 L 128.809 -107.812 C 128.809 -104.59 131.494 -101.807 134.766 -101.807 Z M 96.7773 -89.5996 C 99.1211 -87.2559 102.979 -87.2559 105.225 -89.5508 C 107.471 -91.8457 107.422 -95.5566 105.176 -97.9004 L 96.0938 -107.031 C 93.8477 -109.375 89.9902 -109.326 87.6953 -107.031 C 85.4004 -104.736 85.4492 -100.977 87.7441 -98.6328 Z M 164.355 -89.502 C 166.602 -87.207 170.459 -87.2559 172.803 -89.5508 L 181.836 -98.584 C 184.131 -100.879 184.131 -104.736 181.836 -107.031 C 179.541 -109.277 175.781 -109.277 173.438 -106.934 L 164.355 -97.9004 C 162.061 -95.6055 162.109 -91.7969 164.355 -89.502 Z M 39.8438 5.81055 L 108.74 5.81055 C 127.832 5.81055 142.725 -8.74023 142.725 -27.4414 C 142.725 -27.832 142.725 -28.1738 142.676 -28.5645 C 156.787 -32.1289 167.139 -44.7754 167.139 -59.9609 C 167.139 -77.9785 152.734 -92.3828 134.814 -92.3828 C 119.678 -92.3828 107.129 -82.2754 103.467 -68.3594 C 95.7031 -77.6367 84.6191 -82.8613 71.4844 -82.8613 C 50.0977 -82.8613 32.373 -66.9434 29.5898 -45.6543 C 18.6035 -42.1875 11.2793 -32.666 11.2793 -20.7031 C 11.2793 -5.37109 22.9492 5.81055 39.8438 5.81055 Z M 134.766 -80.957 C 146.484 -80.957 155.713 -71.6797 155.713 -59.9609 C 155.713 -50.2441 149.268 -42.2363 140.381 -39.7949 C 136.084 -50.5859 126.221 -58.3008 113.818 -60.2051 C 113.818 -71.6797 123.047 -80.957 134.766 -80.957 Z M 39.9414 -7.12891 C 29.6387 -7.12891 24.2676 -12.8906 24.2676 -20.459 C 24.2676 -27.1484 28.3691 -32.5195 37.4023 -34.9121 C 40.5762 -35.7422 41.6016 -37.207 41.9922 -40.4297 C 44.043 -58.4961 56.3965 -69.9707 71.4844 -69.9707 C 83.252 -69.9707 92.5293 -63.2812 98.4863 -51.7578 C 99.9512 -49.0234 101.465 -48.0469 104.834 -48.0469 C 121.143 -48.0469 129.785 -38.7207 129.785 -27.1484 C 129.785 -15.9668 120.898 -7.12891 108.545 -7.12891 Z M 182.471 -54.1016 L 195.264 -54.1016 C 198.535 -54.1016 201.221 -56.7383 201.221 -59.9609 C 201.221 -63.2324 198.535 -65.918 195.264 -65.918 L 182.471 -65.918 C 179.248 -65.918 176.514 -63.2324 176.514 -59.9609 C 176.514 -56.7383 179.248 -54.1016 182.471 -54.1016 Z M 173.438 -12.9395 C 175.781 -10.5957 179.541 -10.6445 181.836 -12.8906 C 184.082 -15.1855 184.082 -18.9453 181.738 -21.2891 L 172.705 -30.3711 C 170.459 -32.666 166.602 -32.666 164.307 -30.3711 C 162.012 -28.0762 162.061 -24.2676 164.355 -21.9727 Z M 92.7246 27.7832 L 79.3945 27.7832 L 84.9609 17.1875 C 85.6934 15.8203 85.1562 14.7461 83.7402 14.7461 L 68.9453 14.7461 C 67.1387 14.7461 66.5527 15.3809 65.9668 16.6992 L 57.666 35.6934 C 56.9824 37.207 57.666 38.1836 59.2773 38.1836 L 70.2637 38.1836 L 61.9629 58.252 C 61.5723 59.1309 61.7676 59.8145 62.3535 60.0586 C 62.9395 60.3027 63.6719 60.1074 64.3066 59.4238 L 93.7012 30.9082 C 95.0684 29.5898 94.5312 27.7832 92.7246 27.7832 Z"/>
  </g>
  <g id="Semibold-L" transform="matrix(1 0 0 1 1938.38 1556)">
   <path d="M 132.715 -101.123 C 135.645 -101.123 138.086 -103.613 138.086 -106.494 L 138.086 -119.971 C 138.086 -122.949 135.645 -125.391 132.715 -125.391 C 129.736 -125.391 127.295 -122.949 127.295 -119.971 L 127.295 -106.494 C 127.295 -103.613 129.736 -101.123 132.715 -101.123 Z M 95.6543 -88.916 C 97.7539 -86.7676 101.27 -86.8164 103.32 -88.8672 C 105.322 -90.9668 105.322 -94.3359 103.271 -96.4355 L 93.7012 -106.055 C 91.6504 -108.203 88.1836 -108.154 86.084 -106.055 C 84.0332 -104.004 84.0332 -100.537 86.1328 -98.4375 Z M 162.109 -88.8672 C 164.16 -86.7676 167.676 -86.7676 169.775 -88.8672 L 179.297 -98.4375 C 181.396 -100.537 181.396 -103.955 179.297 -106.055 C 177.246 -108.105 173.828 -108.105 171.729 -106.006 L 162.109 -96.4355 C 160.01 -94.3848 160.059 -90.918 162.109 -88.8672 Z M 38.9648 4.78516 L 107.666 4.78516 C 126.367 4.78516 140.869 -9.375 140.869 -27.5879 C 140.869 -27.9785 140.869 -28.3203 140.869 -28.7109 C 154.541 -32.4219 164.502 -44.7266 164.502 -59.4727 C 164.502 -77.1484 150.342 -91.3086 132.715 -91.3086 C 117.92 -91.3086 105.566 -81.3965 101.953 -67.7734 C 94.2871 -76.9043 83.3984 -82.1777 70.5566 -82.1777 C 49.4629 -82.1777 31.9336 -66.2109 29.3945 -45.1172 C 18.6035 -41.7969 11.2793 -32.5195 11.2793 -20.7031 C 11.2793 -6.00586 22.4609 4.78516 38.9648 4.78516 Z M 132.715 -81.1523 C 144.824 -81.1523 154.346 -71.6309 154.346 -59.4727 C 154.346 -49.6582 147.9 -41.4551 138.916 -38.7207 C 134.766 -50.0488 124.268 -58.1055 111.084 -59.6191 C 111.084 -71.6309 120.605 -81.1523 132.715 -81.1523 Z M 38.9648 -6.54297 C 28.2715 -6.54297 22.6562 -12.5977 22.6562 -20.5078 C 22.6562 -27.3926 26.9043 -33.0566 36.0352 -35.498 C 39.1113 -36.2793 40.0879 -37.6465 40.3809 -40.7227 C 42.2363 -58.7402 55.0293 -70.8496 70.5566 -70.8496 C 82.7637 -70.8496 92.2363 -63.916 98.1934 -52.3438 C 99.5117 -49.707 101.025 -48.7793 104.199 -48.7793 C 120.459 -48.7793 129.541 -39.1602 129.541 -27.3438 C 129.541 -15.7715 120.215 -6.54297 107.617 -6.54297 Z M 179.639 -54.1016 L 193.115 -54.1016 C 196.045 -54.1016 198.486 -56.4941 198.486 -59.4727 C 198.535 -62.4512 196.045 -64.8926 193.115 -64.8926 L 179.639 -64.8926 C 176.709 -64.8926 174.219 -62.4512 174.219 -59.4727 C 174.219 -56.4941 176.709 -54.1016 179.639 -54.1016 Z M 171.68 -12.8418 C 173.828 -10.7422 177.197 -10.791 179.297 -12.8906 C 181.348 -14.9414 181.348 -18.3594 179.248 -20.459 L 169.678 -30.0293 C 167.627 -32.0801 164.16 -32.0801 162.109 -30.0293 C 160.01 -27.9297 160.059 -24.5117 162.109 -22.4121 Z M 90.8691 27.0996 L 78.0273 27.0996 L 83.7891 16.2109 C 84.5215 14.8438 83.9355 13.7695 82.5195 13.7695 L 69.043 13.7695 C 67.2852 13.7695 66.6992 14.4531 66.1133 15.7227 L 57.9102 34.375 C 57.2754 35.8887 57.959 36.8652 59.5703 36.8652 L 70.2148 36.8652 L 62.0117 56.6406 C 61.6211 57.5195 61.8164 58.1543 62.4023 58.3984 C 62.9883 58.6426 63.7207 58.4961 64.3555 57.7637 L 91.8457 30.1758 C 93.1641 28.8574 92.6758 27.0996 90.8691 27.0996 Z"/>
  </g>
  <g id="Medium-L" transform="matrix(1 0 0 1 1642.7 1556)">
   <path d="M 131.152 -100.586 C 133.887 -100.586 136.133 -102.881 136.133 -105.518 L 136.133 -119.531 C 136.133 -122.314 133.887 -124.512 131.152 -124.512 C 128.418 -124.512 126.172 -122.314 126.172 -119.531 L 126.172 -105.518 C 126.172 -102.881 128.418 -100.586 131.152 -100.586 Z M 94.7754 -88.3789 C 96.7773 -86.4258 100 -86.4746 101.855 -88.3789 C 103.711 -90.2832 103.76 -93.4082 101.855 -95.3613 L 91.8945 -105.322 C 89.9414 -107.275 86.8164 -107.227 84.9121 -105.322 C 83.0078 -103.418 82.959 -100.244 84.9121 -98.3398 Z M 160.4 -88.3789 C 162.305 -86.4258 165.527 -86.4258 167.48 -88.3789 L 177.393 -98.291 C 179.297 -100.244 179.297 -103.418 177.393 -105.322 C 175.488 -107.227 172.363 -107.227 170.41 -105.322 L 160.4 -95.3613 C 158.496 -93.457 158.545 -90.2832 160.4 -88.3789 Z M 38.2812 4.00391 L 106.885 4.00391 C 125.244 4.00391 139.502 -9.86328 139.502 -27.7344 C 139.502 -28.0762 139.502 -28.4668 139.453 -28.8086 C 152.832 -32.6172 162.5 -44.6777 162.5 -59.082 C 162.5 -76.5137 148.535 -90.4785 131.152 -90.4785 C 116.553 -90.4785 104.443 -80.7129 100.879 -67.2852 C 93.2617 -76.3672 82.4707 -81.6895 69.8242 -81.6895 C 48.9258 -81.6895 31.5918 -65.625 29.2969 -44.7266 C 18.6523 -41.5039 11.2793 -32.373 11.2793 -20.7031 C 11.2793 -6.44531 22.0703 4.00391 38.2812 4.00391 Z M 131.152 -81.2988 C 143.555 -81.2988 153.271 -71.5332 153.271 -59.082 C 153.271 -49.1699 146.875 -40.8691 137.793 -37.9395 C 133.789 -49.6582 122.803 -57.959 108.984 -59.1309 C 108.984 -71.5332 118.701 -81.2988 131.152 -81.2988 Z M 38.1836 -6.10352 C 27.2461 -6.10352 21.4355 -12.4023 21.4355 -20.5078 C 21.4355 -27.5879 25.7812 -33.4473 35.0098 -35.9375 C 37.9395 -36.7188 38.916 -37.9883 39.209 -40.9668 C 40.8691 -58.8867 54.0527 -71.5332 69.8242 -71.5332 C 82.373 -71.5332 91.9922 -64.4531 97.9492 -52.7344 C 99.2188 -50.1953 100.684 -49.3164 103.711 -49.3164 C 119.971 -49.3164 129.346 -39.502 129.346 -27.4902 C 129.346 -15.625 119.727 -6.10352 106.885 -6.10352 Z M 177.49 -54.1504 L 191.455 -54.1504 C 194.189 -54.1504 196.436 -56.3477 196.436 -59.082 C 196.484 -61.8164 194.189 -64.0625 191.455 -64.0625 L 177.49 -64.0625 C 174.805 -64.0625 172.51 -61.8164 172.51 -59.082 C 172.51 -56.3477 174.805 -54.1504 177.49 -54.1504 Z M 170.41 -12.793 C 172.314 -10.8398 175.439 -10.9375 177.393 -12.8418 C 179.297 -14.7461 179.297 -17.9199 177.344 -19.8242 L 167.383 -29.7363 C 165.479 -31.6406 162.305 -31.6895 160.4 -29.7363 C 158.496 -27.832 158.496 -24.6582 160.4 -22.7539 Z M 89.4531 26.5625 L 77.002 26.5625 L 82.8613 15.4785 C 83.5938 14.1113 83.0566 13.0371 81.6406 13.0371 L 69.1406 13.0371 C 67.3828 13.0371 66.7969 13.6719 66.2109 14.9902 L 58.1543 33.3496 C 57.4707 34.9121 58.2031 35.8398 59.7656 35.8398 L 70.166 35.8398 L 62.0117 55.4199 C 61.6699 56.25 61.8652 56.9336 62.4512 57.1777 C 63.0371 57.4219 63.7695 57.2266 64.3555 56.543 L 90.4785 29.5898 C 91.748 28.2715 91.2109 26.5625 89.4531 26.5625 Z"/>
  </g>
  <g id="Regular-L" transform="matrix(1 0 0 1 1347.33 1556)">
   <path d="M 129.102 -99.8535 C 131.543 -99.8535 133.545 -101.904 133.545 -104.248 L 133.545 -118.945 C 133.545 -121.387 131.543 -123.389 129.102 -123.389 C 126.66 -123.389 124.658 -121.387 124.658 -118.945 L 124.658 -104.248 C 124.658 -101.904 126.66 -99.8535 129.102 -99.8535 Z M 93.7012 -87.6953 C 95.459 -85.9375 98.3398 -85.9863 100 -87.6953 C 101.611 -89.4043 101.66 -92.1875 100 -93.8965 L 89.502 -104.395 C 87.793 -106.104 85.0098 -106.055 83.3008 -104.395 C 81.6406 -102.686 81.5918 -99.8535 83.3008 -98.1445 Z M 158.203 -87.6953 C 159.863 -85.9863 162.744 -85.9375 164.502 -87.6953 L 174.854 -98.1445 C 176.611 -99.8535 176.562 -102.686 174.854 -104.395 C 173.193 -106.055 170.41 -106.104 168.701 -104.395 L 158.203 -93.8965 C 156.494 -92.1875 156.543 -89.4043 158.203 -87.6953 Z M 37.4023 3.02734 L 105.811 3.02734 C 123.73 3.02734 137.695 -10.498 137.695 -27.8809 C 137.695 -28.2715 137.646 -28.6133 137.646 -28.9062 C 150.586 -32.9102 159.863 -44.6289 159.863 -58.5938 C 159.863 -75.7324 146.191 -89.4531 129.102 -89.4531 C 114.795 -89.4531 102.881 -79.834 99.4141 -66.6992 C 91.8457 -75.6836 81.2988 -81.0059 68.8965 -81.0059 C 48.291 -81.0059 31.1523 -64.8926 29.1504 -44.2383 C 18.6523 -41.0645 11.2793 -32.2266 11.2793 -20.752 C 11.2793 -7.08008 21.582 3.02734 37.4023 3.02734 Z M 106.25 -58.5938 C 106.25 -71.4355 116.309 -81.4941 129.102 -81.4941 C 141.895 -81.4941 151.904 -71.4355 151.904 -58.5938 C 151.904 -48.5352 145.557 -40.0879 136.328 -36.8164 C 132.52 -49.1211 120.947 -57.7637 106.25 -58.4473 C 106.25 -58.4473 106.25 -58.5449 106.25 -58.5938 Z M 37.207 -5.51758 C 25.9277 -5.51758 19.8242 -12.1582 19.8242 -20.5566 C 19.8242 -27.832 24.3164 -33.9355 33.6914 -36.5234 C 36.4258 -37.2559 37.4023 -38.4766 37.6465 -41.2109 C 39.0625 -59.1309 52.7344 -72.4609 68.8965 -72.4609 C 81.9336 -72.4609 91.6992 -65.0879 97.6074 -53.3203 C 98.8281 -50.8789 100.244 -50.0488 103.125 -50.0488 C 119.287 -50.0488 129.102 -39.9414 129.102 -27.6367 C 129.102 -15.3809 119.043 -5.51758 105.957 -5.51758 Z M 174.658 -54.1992 L 189.355 -54.1992 C 191.748 -54.1992 193.701 -56.1523 193.75 -58.5938 C 193.799 -61.0352 191.748 -62.9883 189.355 -62.9883 L 174.658 -62.9883 C 172.266 -62.9883 170.215 -61.0352 170.215 -58.5938 C 170.215 -56.1523 172.266 -54.1992 174.658 -54.1992 Z M 168.701 -12.7441 C 170.41 -10.9863 173.193 -11.084 174.854 -12.793 C 176.562 -14.502 176.611 -17.2852 174.854 -18.9941 L 164.404 -29.3945 C 162.695 -31.0547 159.912 -31.1035 158.203 -29.3945 C 156.494 -27.6855 156.494 -24.8535 158.203 -23.1445 Z M 87.5977 25.8789 L 75.6836 25.8789 L 81.6895 14.502 C 82.4219 13.1348 81.8848 12.1094 80.4688 12.1094 L 69.2383 12.1094 C 67.4805 12.1094 66.8945 12.7441 66.3574 14.0137 L 58.3984 32.0801 C 57.7637 33.5938 58.4961 34.5703 60.0586 34.5703 L 70.0684 34.5703 L 62.0605 53.8086 C 61.7188 54.6387 61.9141 55.3223 62.5 55.5664 C 63.0859 55.8105 63.8184 55.6152 64.4043 54.8828 L 88.6719 28.8574 C 89.8438 27.5391 89.3555 25.8789 87.5977 25.8789 Z"/>
  </g>
  <g id="Light-L" transform="matrix(1 0 0 1 1050.98 1556)">
   <path d="M 129.102 -99.5117 C 130.908 -99.5117 132.422 -101.074 132.422 -102.832 L 132.422 -118.994 C 132.422 -120.85 130.908 -122.314 129.102 -122.314 C 127.246 -122.314 125.732 -120.85 125.732 -118.994 L 125.732 -102.832 C 125.732 -101.074 127.246 -99.5117 129.102 -99.5117 Z M 95.2637 -87.3535 C 96.5332 -86.084 98.7305 -86.084 99.9512 -87.3535 C 101.221 -88.6719 101.221 -90.7715 99.9512 -92.041 L 88.4766 -103.516 C 87.1582 -104.834 85.1074 -104.785 83.8379 -103.516 C 82.5684 -102.246 82.5195 -100.146 83.8379 -98.8281 Z M 158.203 -87.3535 C 159.424 -86.084 161.621 -86.084 162.891 -87.3535 L 174.316 -98.8281 C 175.684 -100.146 175.635 -102.246 174.316 -103.516 C 173.047 -104.785 170.996 -104.834 169.678 -103.516 L 158.203 -92.041 C 156.934 -90.7715 156.934 -88.6719 158.203 -87.3535 Z M 36.5234 2.97852 L 105.322 2.97852 C 122.852 2.97852 136.475 -10.2539 136.475 -27.0996 C 136.475 -27.6855 136.475 -28.2227 136.426 -28.8086 C 149.756 -32.6172 159.277 -44.2871 159.277 -58.252 C 159.277 -75.0977 145.85 -88.5254 129.102 -88.5254 C 114.355 -88.5254 102.197 -78.1738 99.4629 -64.2578 C 91.9922 -73.8281 81.3965 -79.6875 68.4082 -79.6875 C 48.1445 -79.6875 31.3477 -63.5742 29.4434 -42.9688 C 18.9941 -39.9902 11.2793 -31.4941 11.2793 -19.9707 C 11.2793 -6.98242 21.0449 2.97852 36.5234 2.97852 Z M 105.029 -58.252 C 105.029 -71.7773 115.576 -82.4219 129.102 -82.4219 C 142.578 -82.4219 153.125 -71.7773 153.125 -58.252 C 153.125 -47.3145 145.85 -38.1836 135.449 -34.9121 C 131.982 -47.5098 120.117 -56.3477 105.078 -56.8359 C 105.029 -57.2754 105.029 -57.7637 105.029 -58.252 Z M 36.4258 -3.4668 C 24.3652 -3.4668 17.7246 -10.7422 17.7246 -19.8242 C 17.7246 -27.9297 22.998 -34.3262 32.5684 -37.0605 C 34.9121 -37.6953 35.6934 -38.6719 35.8887 -40.8691 C 37.207 -59.082 51.6113 -73.1934 68.4082 -73.1934 C 82.4707 -73.1934 92.7246 -65.0391 98.6328 -53.2227 C 99.6582 -51.1719 100.83 -50.4883 103.271 -50.4883 C 119.336 -50.4883 130.029 -39.9414 130.029 -26.9043 C 130.029 -13.9648 119.287 -3.4668 105.42 -3.4668 Z M 173.486 -54.9805 L 189.697 -54.9805 C 191.553 -54.9805 192.969 -56.4453 193.018 -58.252 C 193.066 -60.1074 191.553 -61.5723 189.697 -61.5723 L 173.486 -61.5723 C 171.729 -61.5723 170.215 -60.1074 170.215 -58.252 C 170.215 -56.4453 171.729 -54.9805 173.486 -54.9805 Z M 169.678 -12.9395 C 170.996 -11.6211 173.047 -11.6699 174.316 -12.9395 C 175.635 -14.209 175.684 -16.3086 174.316 -17.627 L 162.842 -29.0527 C 161.572 -30.3223 159.473 -30.3223 158.203 -29.0527 C 156.934 -27.7832 156.934 -25.6348 158.203 -24.3652 Z M 84.5215 26.6113 L 73.3887 26.6113 L 79.7852 14.5996 C 80.5176 13.2324 79.9805 12.207 78.5645 12.207 L 69.9707 12.207 C 68.2129 12.207 67.5781 12.8418 67.041 14.1113 L 59.2773 31.8359 C 58.5938 33.4473 59.4238 34.375 60.9863 34.375 L 70.2148 34.375 L 62.3535 53.2227 C 62.0117 54.1504 62.207 54.834 62.8418 55.0781 C 63.4277 55.3223 64.1602 55.127 64.7461 54.2969 L 85.6934 29.5898 C 86.8164 28.1738 86.2793 26.6113 84.5215 26.6113 Z"/>
  </g>
  <g id="Thin-L" transform="matrix(1 0 0 1 754.786 1556)">
   <path d="M 129.053 -99.0723 C 130.078 -99.0723 130.957 -100 130.957 -100.928 L 130.957 -119.043 C 130.957 -120.068 130.078 -120.898 129.053 -120.898 C 128.027 -120.898 127.148 -120.068 127.148 -119.043 L 127.148 -100.928 C 127.148 -100 128.027 -99.0723 129.053 -99.0723 Z M 158.154 -86.9141 C 158.887 -86.2305 160.107 -86.2305 160.791 -86.9141 L 173.633 -99.7559 C 174.414 -100.537 174.365 -101.709 173.633 -102.393 C 172.9 -103.125 171.777 -103.174 170.996 -102.393 L 158.154 -89.5508 C 157.471 -88.8672 157.471 -87.6465 158.154 -86.9141 Z M 97.3145 -86.9141 C 98.0469 -86.2305 99.2188 -86.2305 99.9512 -86.9141 C 100.635 -87.6465 100.684 -88.8672 99.9512 -89.5508 L 87.1094 -102.393 C 86.3281 -103.174 85.2051 -103.125 84.4727 -102.393 C 83.7891 -101.709 83.6914 -100.537 84.4727 -99.7559 Z M 35.4004 2.92969 L 104.639 2.92969 C 121.631 2.92969 134.912 -9.86328 134.912 -26.0742 C 134.912 -26.9531 134.912 -27.7832 134.814 -28.6621 C 148.633 -32.1777 158.545 -43.7988 158.545 -57.8125 C 158.545 -74.2676 145.41 -87.3535 129.053 -87.3535 C 113.672 -87.3535 101.172 -75.7812 99.707 -60.7422 C 92.3828 -71.2891 81.6406 -77.9297 67.7246 -77.9297 C 47.9492 -77.9297 31.6895 -61.8164 29.8828 -41.2598 C 19.4824 -38.5254 11.2305 -30.4688 11.2305 -18.8965 C 11.2305 -6.88477 20.3613 2.92969 35.4004 2.92969 Z M 103.369 -57.8125 C 103.369 -72.2168 114.648 -83.5938 129.053 -83.5938 C 143.457 -83.5938 154.785 -72.2168 154.785 -57.8125 C 154.785 -45.7031 146.289 -35.5957 134.229 -32.373 C 131.201 -45.3125 119.043 -54.4922 103.613 -54.6387 C 103.467 -55.6641 103.369 -56.7383 103.369 -57.8125 Z M 35.4004 -0.78125 C 22.3145 -0.78125 14.9414 -8.88672 14.9414 -18.8965 C 14.9414 -28.0762 21.2891 -34.8633 31.1035 -37.793 C 32.8613 -38.3301 33.3984 -38.9648 33.4961 -40.4297 C 34.7168 -59.082 50.1465 -74.2188 67.7246 -74.2188 C 83.252 -74.2188 94.043 -64.9414 100 -53.125 C 100.781 -51.5625 101.66 -51.0254 103.516 -51.0254 C 119.385 -51.0254 131.25 -39.9414 131.25 -25.8789 C 131.25 -12.0605 119.58 -0.78125 104.639 -0.78125 Z M 171.973 -56.0059 L 190.137 -56.0059 C 191.211 -56.0059 191.943 -56.7871 192.041 -57.8125 C 192.09 -58.8379 191.211 -59.668 190.137 -59.668 L 171.973 -59.668 C 170.996 -59.668 170.166 -58.8379 170.166 -57.8125 C 170.166 -56.7871 170.996 -56.0059 171.973 -56.0059 Z M 170.996 -13.1836 C 171.777 -12.4023 172.9 -12.4512 173.633 -13.1836 C 174.365 -13.8672 174.414 -15.0391 173.633 -15.8203 L 160.791 -28.6133 C 160.107 -29.3457 158.887 -29.3457 158.154 -28.6133 C 157.471 -27.9297 157.471 -26.709 158.154 -25.9766 Z M 80.4199 27.5879 L 70.4102 27.5879 L 77.2949 14.7949 C 78.0273 13.4277 77.4414 12.3047 76.0254 12.3047 L 70.9961 12.3047 C 69.1406 12.3047 68.5059 12.9395 67.9199 14.3066 L 60.4004 31.543 C 59.668 33.2031 60.6934 34.1309 62.207 34.1309 L 70.459 34.1309 L 62.7441 52.4902 C 62.3535 53.4668 62.5977 54.1504 63.2324 54.3945 C 63.8672 54.6387 64.6484 54.4434 65.2344 53.5645 L 81.8359 30.5176 C 82.8125 29.0527 82.2266 27.5879 80.4199 27.5879 Z"/>
  </g>
  <g id="Ultralight-L" transform="matrix(1 0 0 1 458.32 1556)">
   <path d="M 129.053 -98.877 C 129.639 -98.877 130.225 -99.4141 130.225 -99.9512 L 130.225 -119.092 C 130.225 -119.678 129.639 -120.166 129.053 -120.166 C 128.467 -120.166 127.881 -119.678 127.881 -119.092 L 127.881 -99.9512 C 127.881 -99.4141 128.467 -98.877 129.053 -98.877 Z M 98.3398 -86.7188 C 98.7793 -86.2793 99.5117 -86.2793 99.9512 -86.7188 C 100.391 -87.1582 100.342 -87.8906 99.9512 -88.2812 L 86.4258 -101.807 C 85.8887 -102.344 85.2539 -102.246 84.8145 -101.807 C 84.4238 -101.416 84.3262 -100.732 84.8145 -100.244 Z M 158.154 -86.7188 C 158.594 -86.2793 159.326 -86.2793 159.717 -86.7188 L 173.291 -100.244 C 173.779 -100.732 173.682 -101.416 173.291 -101.807 C 172.852 -102.246 172.217 -102.344 171.68 -101.807 L 158.154 -88.2812 C 157.715 -87.8906 157.715 -87.1582 158.154 -86.7188 Z M 34.8633 2.92969 L 104.297 2.92969 C 121.045 2.92969 134.131 -9.66797 134.131 -25.5371 C 134.131 -26.5625 134.082 -27.5879 133.984 -28.5645 C 147.998 -31.9824 158.154 -43.5547 158.154 -57.6172 C 158.154 -73.8281 145.215 -86.7676 129.053 -86.7676 C 113.281 -86.7676 100.537 -74.4141 100 -58.6426 C 92.6758 -69.8242 81.9336 -77.0508 67.3828 -77.0508 C 47.8516 -77.0508 31.8359 -60.8887 30.0781 -40.3809 C 19.7266 -37.793 11.2305 -29.9316 11.2305 -18.3594 C 11.2305 -6.83594 19.9707 2.92969 34.8633 2.92969 Z M 102.93 -53.5645 C 102.881 -53.6621 102.832 -53.8086 102.734 -53.9551 C 102.637 -54.9805 102.49 -56.2988 102.49 -57.6172 C 102.49 -72.4609 114.209 -84.2285 129.053 -84.2285 C 143.896 -84.2285 155.566 -72.4609 155.566 -57.6172 C 155.566 -44.873 146.484 -34.3262 133.545 -31.1035 C 130.859 -44.1895 118.555 -53.5156 102.93 -53.5645 Z M 34.8633 0.634766 C 21.2891 0.634766 13.5254 -7.95898 13.5254 -18.4082 C 13.5254 -28.125 20.3613 -35.1562 30.3223 -38.1836 C 31.7871 -38.623 32.2266 -39.1113 32.2754 -40.2344 C 33.4473 -59.082 49.4141 -74.7559 67.3828 -74.7559 C 83.6426 -74.7559 94.7266 -64.9414 100.684 -53.0762 C 101.318 -51.7578 102.051 -51.3184 103.613 -51.3184 C 119.434 -51.3184 131.836 -39.9414 131.836 -25.3906 C 131.836 -11.084 119.727 0.634766 104.248 0.634766 Z M 171.24 -56.4941 L 190.381 -56.4941 C 191.064 -56.4941 191.455 -56.9824 191.553 -57.6172 C 191.65 -58.2031 191.064 -58.6914 190.381 -58.6914 L 171.24 -58.6914 C 170.605 -58.6914 170.117 -58.2031 170.117 -57.6172 C 170.117 -56.9824 170.605 -56.4941 171.24 -56.4941 Z M 171.68 -13.2812 C 172.217 -12.793 172.852 -12.8418 173.291 -13.2812 C 173.682 -13.7207 173.779 -14.3555 173.291 -14.8926 L 159.766 -28.418 C 159.326 -28.8574 158.594 -28.8086 158.154 -28.418 C 157.715 -27.9785 157.715 -27.2461 158.154 -26.8066 Z M 78.3691 28.125 L 68.8477 28.125 L 75.9766 14.8926 C 76.709 13.5254 76.1719 12.3535 74.707 12.3535 L 71.4844 12.3535 C 69.6289 12.3535 68.9453 12.9883 68.4082 14.4043 L 60.9863 31.3965 C 60.2539 33.1055 61.3281 33.9844 62.8418 33.9844 L 70.5566 33.9844 L 62.9883 52.1484 C 62.5488 53.125 62.793 53.8574 63.4766 54.0527 C 64.1113 54.2969 64.9414 54.0527 65.4785 53.1738 L 79.834 31.0059 C 80.7617 29.541 80.127 28.125 78.3691 28.125 Z"/>
  </g>
  <g id="Black-M" transform="matrix(1 0 0 1 2845.97 1126)">
   <path d="M 112.451 -89.4531 C 115.82 -89.4531 118.555 -92.334 118.555 -95.7031 L 118.555 -103.662 C 118.555 -107.08 115.82 -109.912 112.451 -109.912 C 109.033 -109.912 106.299 -107.08 106.299 -103.662 L 106.299 -95.7031 C 106.299 -92.334 109.033 -89.4531 112.451 -89.4531 Z M 80.127 -79.834 C 82.5684 -77.3926 86.5234 -77.3438 88.916 -79.7363 C 91.3086 -82.0801 91.1621 -85.9863 88.7695 -88.4766 L 83.252 -94.1895 C 80.957 -96.6309 76.8066 -96.582 74.4141 -94.1895 C 72.0703 -91.7969 72.168 -87.8906 74.5605 -85.498 Z M 136.035 -79.6387 C 138.379 -77.2949 142.383 -77.3926 144.775 -79.7852 L 150.439 -85.3516 C 152.881 -87.7441 152.881 -91.748 150.488 -94.1406 C 148.096 -96.5332 144.189 -96.4355 141.699 -93.9941 L 136.084 -88.4766 C 133.643 -86.1328 133.643 -82.0312 136.035 -79.6387 Z M 33.8867 0.488281 L 88.0859 0.488281 C 104.395 0.488281 117.09 -12.0117 117.09 -28.0762 C 117.09 -28.5156 117.09 -28.9062 117.041 -29.3457 C 129.834 -31.4453 139.551 -42.5781 139.551 -56.1523 C 139.551 -71.1914 127.49 -83.252 112.549 -83.252 C 99.4141 -83.252 88.623 -74.2188 85.9375 -62.0117 C 79.6875 -69.9707 70.4102 -74.0723 58.7891 -74.0723 C 41.3086 -74.0723 26.9531 -61.9629 23.7305 -44.6289 C 14.5508 -41.6504 8.74023 -33.4961 8.74023 -23.4375 C 8.74023 -9.61914 19.4336 0.488281 33.8867 0.488281 Z M 98.1934 -56.1523 C 98.1934 -64.0137 104.541 -70.3613 112.5 -70.3613 C 120.312 -70.3613 126.66 -64.0137 126.66 -56.1523 C 126.66 -48.6328 120.996 -42.5293 113.818 -41.8945 C 110.547 -48.1934 105.029 -53.0273 98.2422 -55.4199 C 98.1934 -55.6641 98.1934 -55.9082 98.1934 -56.1523 Z M 151.904 -50.1465 L 159.814 -50.1465 C 163.281 -50.1465 166.113 -52.832 166.113 -56.2012 C 166.113 -59.5703 163.281 -62.4023 159.814 -62.4023 L 151.904 -62.4023 C 148.486 -62.4023 145.605 -59.5703 145.605 -56.2012 C 145.605 -52.832 148.486 -50.1465 151.904 -50.1465 Z M 34.4727 -14.6484 C 27.3926 -14.6484 23.877 -18.1641 23.877 -23.3398 C 23.877 -28.0762 27.0508 -31.3477 33.5449 -33.0078 C 36.5234 -33.7891 37.1582 -35.0586 37.6953 -37.9883 C 40.1367 -52.3438 48.291 -59.0332 58.7891 -59.0332 C 66.6504 -59.0332 73.3887 -54.3457 78.125 -45.752 C 79.4434 -43.4082 80.7617 -42.5293 83.7402 -42.5293 C 96.5332 -42.5293 102.002 -36.1816 102.002 -27.9297 C 102.002 -20.3125 96.4844 -14.6484 87.5 -14.6484 Z M 141.65 -18.3105 C 144.092 -15.8691 148.047 -15.8203 150.439 -18.2129 C 152.832 -20.5566 152.686 -24.4629 150.293 -26.9531 L 144.775 -32.666 C 142.48 -35.1074 138.33 -35.0586 135.938 -32.666 C 133.594 -30.3223 133.691 -26.3672 136.084 -23.9746 Z M 77.4414 16.748 L 65.5762 16.748 L 69.4824 9.27734 C 70.0195 8.20312 69.5801 7.32422 68.457 7.32422 L 53.3691 7.32422 C 51.9531 7.32422 51.4648 7.8125 51.0254 8.88672 L 44.0918 24.707 C 43.5547 25.8789 43.9941 26.6602 45.3125 26.6602 L 54.834 26.6602 L 47.998 43.2129 C 47.7051 43.8965 47.9004 44.4824 48.3398 44.6777 C 48.7793 44.873 49.3164 44.7266 49.9023 44.2383 L 78.1738 19.2871 C 79.3457 18.3105 78.9062 16.748 77.4414 16.748 Z"/>
  </g>
  <g id="Heavy-M" transform="matrix(1 0 0 1 2551.09 1126)">
   <path d="M 109.521 -88.5254 C 112.598 -88.5254 115.137 -91.1621 115.137 -94.2383 L 115.137 -102.832 C 115.137 -105.957 112.598 -108.545 109.521 -108.545 C 106.396 -108.545 103.857 -105.957 103.857 -102.832 L 103.857 -94.2383 C 103.857 -91.1621 106.396 -88.5254 109.521 -88.5254 Z M 78.1738 -78.9551 C 80.4199 -76.709 84.0332 -76.6602 86.2305 -78.8574 C 88.3789 -81.0547 88.2812 -84.6191 86.1328 -86.9141 L 80.127 -93.0176 C 77.9785 -95.2637 74.2188 -95.2148 72.0215 -93.0176 C 69.873 -90.8691 69.9219 -87.207 72.1191 -85.0586 Z M 132.861 -78.8086 C 135.01 -76.6113 138.721 -76.709 140.918 -78.9062 L 146.973 -84.9609 C 149.219 -87.1094 149.219 -90.8203 147.021 -92.9688 C 144.824 -95.166 141.211 -95.1172 139.014 -92.8711 L 132.91 -86.9141 C 130.664 -84.7168 130.664 -81.0059 132.861 -78.8086 Z M 32.8613 -0.976562 L 86.7188 -0.976562 C 102.49 -0.976562 114.795 -13.0371 114.795 -28.5645 C 114.795 -28.9062 114.795 -29.248 114.746 -29.6387 C 126.855 -31.9824 135.938 -42.627 135.938 -55.5176 C 135.938 -70.166 124.17 -81.9336 109.619 -81.9336 C 97.0215 -81.9336 86.6211 -73.3887 83.8379 -61.7676 C 77.6367 -69.3848 68.6523 -73.4375 57.5684 -73.4375 C 40.3809 -73.4375 26.2695 -61.2793 23.4375 -44.2383 C 14.502 -41.3574 8.74023 -33.4473 8.74023 -23.6816 C 8.74023 -10.498 18.8965 -0.976562 32.8613 -0.976562 Z M 94.6289 -55.5176 C 94.6289 -63.8184 101.221 -70.4102 109.57 -70.4102 C 117.773 -70.4102 124.365 -63.8184 124.365 -55.5176 C 124.365 -48.0469 119.043 -41.9922 112.061 -40.8691 C 108.691 -47.9492 102.393 -53.1738 94.6289 -55.3223 C 94.6289 -55.3711 94.6289 -55.4199 94.6289 -55.5176 Z M 148.145 -49.9512 L 156.689 -49.9512 C 159.863 -49.9512 162.402 -52.4414 162.451 -55.5664 C 162.451 -58.6914 159.863 -61.2793 156.689 -61.2793 L 148.145 -61.2793 C 145.02 -61.2793 142.383 -58.6914 142.383 -55.5664 C 142.383 -52.4414 145.02 -49.9512 148.145 -49.9512 Z M 33.252 -14.3555 C 25.8789 -14.3555 22.168 -18.1641 22.168 -23.5352 C 22.168 -28.3691 25.293 -31.9824 31.9336 -33.6914 C 34.7656 -34.4238 35.498 -35.6934 35.9375 -38.4766 C 38.0371 -52.6855 46.6797 -60.1074 57.5684 -60.1074 C 65.8203 -60.1074 72.7051 -55.3223 77.3926 -46.582 C 78.6621 -44.2871 79.9316 -43.457 82.8125 -43.457 C 95.5566 -43.457 101.416 -36.8164 101.416 -28.3691 C 101.416 -20.4102 95.459 -14.3555 86.3281 -14.3555 Z M 138.965 -18.1641 C 141.162 -15.918 144.775 -15.918 146.973 -18.0664 C 149.17 -20.2637 149.072 -23.877 146.875 -26.123 L 140.869 -32.2754 C 138.77 -34.4727 135.01 -34.4238 132.812 -32.2754 C 130.615 -30.0781 130.713 -26.4648 132.91 -24.2676 Z M 75.5859 15.5273 L 64.2578 15.5273 L 68.2617 7.8125 C 68.8477 6.78711 68.4082 5.9082 67.2852 5.9082 L 53.3691 5.9082 C 51.9531 5.9082 51.4648 6.44531 51.0254 7.4707 L 44.2383 22.9004 C 43.75 24.0723 44.1895 24.8535 45.5078 24.8535 L 54.6875 24.8535 L 47.998 41.0645 C 47.7051 41.748 47.8516 42.2852 48.291 42.4805 C 48.7305 42.6758 49.3164 42.5293 49.8535 42.041 L 76.3184 18.0664 C 77.4902 17.041 77.0508 15.5273 75.5859 15.5273 Z"/>
  </g>
  <g id="Bold-M" transform="matrix(1 0 0 1 2256.43 1126)">
   <path d="M 106.25 -87.4512 C 109.033 -87.4512 111.328 -89.8438 111.328 -92.627 L 111.328 -101.855 C 111.328 -104.736 109.033 -107.031 106.25 -107.031 C 103.418 -107.031 101.123 -104.736 101.123 -101.855 L 101.123 -92.627 C 101.123 -89.8438 103.418 -87.4512 106.25 -87.4512 Z M 75.9277 -77.9785 C 77.9785 -75.9277 81.25 -75.9277 83.2031 -77.8809 C 85.1562 -79.8828 85.1074 -83.1055 83.1543 -85.1074 L 76.6113 -91.748 C 74.6582 -93.75 71.3379 -93.7012 69.3359 -91.748 C 67.3828 -89.7949 67.4316 -86.5234 69.4336 -84.5215 Z M 129.297 -77.8809 C 131.25 -75.8789 134.57 -75.9277 136.572 -77.9297 L 143.115 -84.4727 C 145.117 -86.4258 145.117 -89.7461 143.164 -91.6992 C 141.162 -93.7012 137.939 -93.6523 135.938 -91.6504 L 129.346 -85.1074 C 127.344 -83.1543 127.344 -79.834 129.297 -77.8809 Z M 31.6895 -2.53906 L 85.2051 -2.53906 C 100.391 -2.53906 112.207 -14.1113 112.207 -29.0527 C 112.207 -29.3457 112.207 -29.6387 112.207 -29.9316 C 123.486 -32.5684 131.885 -42.6758 131.885 -54.834 C 131.885 -69.0918 120.459 -80.4688 106.299 -80.4688 C 94.3359 -80.4688 84.375 -72.4609 81.4453 -61.4746 C 75.3906 -68.75 66.6504 -72.7539 56.25 -72.7539 C 39.4043 -72.7539 25.4883 -60.498 23.0469 -43.7988 C 14.4043 -41.0156 8.74023 -33.3984 8.74023 -23.9746 C 8.74023 -11.5234 18.2129 -2.53906 31.6895 -2.53906 Z M 106.25 -70.459 C 114.941 -70.459 121.826 -63.5742 121.826 -54.834 C 121.826 -47.4609 116.846 -41.3574 110.059 -39.7461 C 106.641 -47.6074 99.5605 -53.3203 90.625 -55.0781 C 90.625 -63.5742 97.5098 -70.459 106.25 -70.459 Z M 31.8359 -14.0137 C 24.1699 -14.0137 20.2148 -18.1641 20.2148 -23.7793 C 20.2148 -28.7598 23.291 -32.666 30.1758 -34.4727 C 32.8125 -35.1562 33.5938 -36.3281 33.9355 -39.0137 C 35.7422 -53.0762 44.873 -61.3281 56.25 -61.3281 C 64.8926 -61.3281 71.9238 -56.3965 76.6113 -47.5098 C 77.7832 -45.3125 79.0527 -44.4824 81.7871 -44.4824 C 94.4824 -44.4824 100.781 -37.5488 100.781 -28.8574 C 100.781 -20.5078 94.2871 -14.0137 84.9609 -14.0137 Z M 143.945 -49.8047 L 153.174 -49.8047 C 156.006 -49.8047 158.301 -52.0508 158.35 -54.8828 C 158.35 -57.666 156.006 -60.0098 153.174 -60.0098 L 143.945 -60.0098 C 141.162 -60.0098 138.77 -57.666 138.77 -54.8828 C 138.77 -52.0508 141.162 -49.8047 143.945 -49.8047 Z M 135.889 -18.0176 C 137.891 -16.0156 141.162 -16.0156 143.115 -17.9688 C 145.068 -19.9219 145.02 -23.1934 143.066 -25.1953 L 136.523 -31.7871 C 134.619 -33.7891 131.25 -33.7402 129.297 -31.7871 C 127.295 -29.834 127.393 -26.5625 129.346 -24.5605 Z M 73.5352 14.209 L 62.7441 14.209 L 66.9434 6.25 C 67.4805 5.17578 67.041 4.3457 65.9668 4.3457 L 53.3203 4.3457 C 51.9043 4.3457 51.4648 4.83398 51.0254 5.85938 L 44.4336 20.8496 C 43.9453 22.0215 44.3848 22.8027 45.6543 22.8027 L 54.541 22.8027 L 47.9492 38.6719 C 47.6562 39.3066 47.8516 39.8438 48.291 40.0391 C 48.7305 40.2344 49.2676 40.0879 49.8047 39.5996 L 74.2676 16.6504 C 75.3418 15.6738 74.9512 14.209 73.5352 14.209 Z"/>
  </g>
  <g id="Semibold-M" transform="matrix(1 0 0 1 1961.14 1126)">
   <path d="M 104.004 -86.7676 C 106.592 -86.7676 108.691 -88.9648 108.691 -91.5039 L 108.691 -101.221 C 108.691 -103.857 106.592 -106.006 104.004 -106.006 C 101.367 -106.006 99.2676 -103.857 99.2676 -101.221 L 99.2676 -91.5039 C 99.2676 -88.9648 101.367 -86.7676 104.004 -86.7676 Z M 74.4141 -77.2949 C 76.2695 -75.3906 79.3457 -75.4395 81.1035 -77.2461 C 82.9102 -79.0527 82.9102 -82.0312 81.0547 -83.8867 L 74.1699 -90.8691 C 72.3633 -92.7246 69.3359 -92.6758 67.5293 -90.8691 C 65.6738 -89.0137 65.7227 -86.0352 67.5293 -84.1797 Z M 126.855 -77.2461 C 128.662 -75.3906 131.738 -75.3906 133.594 -77.2461 L 140.479 -84.1309 C 142.334 -85.9863 142.285 -89.0137 140.479 -90.8203 C 138.672 -92.6758 135.693 -92.627 133.838 -90.7715 L 126.904 -83.8867 C 125.049 -82.0801 125.098 -79.0527 126.855 -77.2461 Z M 30.8594 -3.66211 L 84.1309 -3.66211 C 98.9258 -3.66211 110.449 -14.8926 110.449 -29.3945 C 110.449 -29.6387 110.449 -29.8828 110.449 -30.127 C 121.191 -32.959 129.053 -42.6758 129.053 -54.3457 C 129.053 -68.3105 117.92 -79.4922 104.004 -79.4922 C 92.4316 -79.4922 82.8125 -71.8262 79.834 -61.2793 C 73.8281 -68.3105 65.2832 -72.2656 55.3223 -72.2656 C 38.7207 -72.2656 24.9512 -59.9121 22.8027 -43.457 C 14.3555 -40.7715 8.74023 -33.3984 8.74023 -24.1211 C 8.74023 -12.2559 17.7734 -3.66211 30.8594 -3.66211 Z M 104.004 -70.5078 C 112.988 -70.5078 120.117 -63.3789 120.117 -54.3457 C 120.117 -47.0215 115.283 -40.918 108.643 -38.9648 C 105.322 -47.3633 97.6074 -53.3691 87.8906 -54.7852 C 88.1348 -63.623 95.1172 -70.5078 104.004 -70.5078 Z M 30.9082 -13.7695 C 22.998 -13.7695 18.8965 -18.1641 18.8965 -23.9746 C 18.8965 -29.0039 21.9238 -33.1543 28.9062 -35.0098 C 31.4453 -35.6445 32.2754 -36.8164 32.5684 -39.4043 C 34.1309 -53.3203 43.6523 -62.1582 55.3223 -62.1582 C 64.2578 -62.1582 71.4355 -57.1289 76.0254 -48.1934 C 77.1484 -45.9961 78.418 -45.2148 81.0547 -45.2148 C 93.75 -45.2148 100.293 -38.0371 100.293 -29.1992 C 100.293 -20.5566 93.5059 -13.7695 84.0332 -13.7695 Z M 141.064 -49.707 L 150.781 -49.707 C 153.369 -49.707 155.469 -51.7578 155.518 -54.3945 C 155.518 -56.9824 153.369 -59.1309 150.781 -59.1309 L 141.064 -59.1309 C 138.477 -59.1309 136.279 -56.9824 136.279 -54.3945 C 136.279 -51.7578 138.477 -49.707 141.064 -49.707 Z M 133.789 -17.9199 C 135.645 -16.0645 138.623 -16.0645 140.479 -17.8711 C 142.285 -19.7266 142.236 -22.7051 140.43 -24.5605 L 133.545 -31.4453 C 131.738 -33.252 128.662 -33.3008 126.855 -31.4453 C 125.049 -29.6387 125.049 -26.6113 126.904 -24.8047 Z M 72.1191 13.3301 L 61.7188 13.3301 L 66.0156 5.12695 C 66.5527 4.10156 66.1133 3.27148 65.0391 3.27148 L 53.2715 3.27148 C 51.9043 3.27148 51.4648 3.75977 51.0254 4.78516 L 44.5312 19.4824 C 44.043 20.6543 44.5312 21.3867 45.8008 21.3867 L 54.3945 21.3867 L 47.9492 36.9629 C 47.6562 37.6465 47.8027 38.1836 48.291 38.3789 C 48.7305 38.5254 49.2676 38.4277 49.7559 37.8906 L 72.8516 15.7227 C 73.9258 14.6973 73.5352 13.3301 72.1191 13.3301 Z"/>
  </g>
  <g id="Medium-M" transform="matrix(1 0 0 1 1665.5 1126)">
   <path d="M 102.295 -86.2305 C 104.736 -86.2305 106.689 -88.2812 106.689 -90.6738 L 106.689 -100.732 C 106.689 -103.174 104.736 -105.176 102.295 -105.176 C 99.8535 -105.176 97.8516 -103.174 97.8516 -100.732 L 97.8516 -90.6738 C 97.8516 -88.2812 99.8535 -86.2305 102.295 -86.2305 Z M 73.2422 -76.7578 C 75 -75 77.8809 -75.0488 79.541 -76.7578 C 81.2012 -78.4668 81.2012 -81.25 79.541 -82.959 L 72.3633 -90.1855 C 70.6543 -91.8945 67.8223 -91.8945 66.1133 -90.1855 C 64.4043 -88.4766 64.4043 -85.6445 66.1133 -83.9355 Z M 125 -76.709 C 126.709 -75 129.59 -75 131.348 -76.7578 L 138.428 -83.8867 C 140.186 -85.5957 140.186 -88.4766 138.477 -90.1855 C 136.768 -91.8945 133.936 -91.8945 132.227 -90.1367 L 125.049 -82.959 C 123.291 -81.25 123.34 -78.418 125 -76.709 Z M 30.2246 -4.49219 L 83.3496 -4.49219 C 97.8516 -4.49219 109.131 -15.4785 109.131 -29.6387 C 109.131 -29.8828 109.082 -30.0781 109.082 -30.2734 C 119.482 -33.252 126.953 -42.7246 126.953 -54.0039 C 126.953 -67.7246 115.967 -78.7109 102.295 -78.7109 C 91.0156 -78.7109 81.6406 -71.3379 78.6133 -61.1328 C 72.6562 -67.9688 64.3066 -71.9238 54.5898 -71.9238 C 38.1836 -71.9238 24.5117 -59.5215 22.6074 -43.2129 C 14.3066 -40.625 8.74023 -33.3496 8.74023 -24.2676 C 8.74023 -12.7441 17.4805 -4.49219 30.2246 -4.49219 Z M 102.295 -70.5566 C 111.523 -70.5566 118.75 -63.2812 118.75 -54.0039 C 118.75 -46.6797 114.111 -40.5762 107.568 -38.3789 C 104.297 -47.168 96.0938 -53.418 85.791 -54.541 C 86.084 -63.5742 93.2129 -70.5566 102.295 -70.5566 Z M 30.1758 -13.623 C 22.1191 -13.623 17.8711 -18.1641 17.8711 -24.0723 C 17.8711 -29.1992 20.8984 -33.5449 27.9785 -35.4004 C 30.4688 -36.0352 31.2988 -37.1582 31.543 -39.6973 C 32.9102 -53.5156 42.6758 -62.793 54.5898 -62.793 C 63.7695 -62.793 71.0449 -57.666 75.6348 -48.6816 C 76.709 -46.5332 77.9297 -45.752 80.5176 -45.752 C 93.1641 -45.752 100 -38.3789 100 -29.4434 C 100 -20.6055 92.9199 -13.623 83.3496 -13.623 Z M 138.867 -49.6094 L 148.926 -49.6094 C 151.367 -49.6094 153.369 -51.5625 153.369 -54.0039 C 153.369 -56.4453 151.367 -58.4473 148.926 -58.4473 L 138.867 -58.4473 C 136.475 -58.4473 134.424 -56.4453 134.424 -54.0039 C 134.424 -51.5625 136.475 -49.6094 138.867 -49.6094 Z M 132.227 -17.8223 C 133.936 -16.0645 136.719 -16.1133 138.428 -17.8223 C 140.137 -19.5312 140.137 -22.3633 138.428 -24.0723 L 131.25 -31.2012 C 129.541 -32.9102 126.709 -32.9102 125 -31.2012 C 123.291 -29.541 123.34 -26.6602 125.049 -24.9512 Z M 71.0449 12.5977 L 60.9375 12.5977 L 65.2832 4.29688 C 65.8691 3.27148 65.4297 2.44141 64.3555 2.44141 L 53.2715 2.44141 C 51.9043 2.44141 51.4648 2.97852 51.0254 3.95508 L 44.6289 18.4082 C 44.1406 19.5801 44.6289 20.3613 45.8984 20.3613 L 54.2969 20.3613 L 47.9492 35.7422 C 47.6562 36.377 47.8027 36.9141 48.2422 37.1094 C 48.7305 37.2559 49.2188 37.1582 49.7559 36.6211 L 71.7773 14.9902 C 72.8027 13.9648 72.4121 12.5977 71.0449 12.5977 Z"/>
  </g>
  <g id="Regular-M" transform="matrix(1 0 0 1 1370.21 1126)">
   <path d="M 100.049 -85.498 C 102.295 -85.498 104.102 -87.4023 104.102 -89.5508 L 104.102 -100.098 C 104.102 -102.344 102.295 -104.15 100.049 -104.15 C 97.8027 -104.15 95.9961 -102.344 95.9961 -100.098 L 95.9961 -89.5508 C 95.9961 -87.4023 97.8027 -85.498 100.049 -85.498 Z M 71.7285 -76.0742 C 73.3398 -74.4629 75.9766 -74.5117 77.4902 -76.0742 C 79.0039 -77.6367 79.0527 -80.2246 77.4902 -81.7383 L 69.9707 -89.3066 C 68.3594 -90.8691 65.8203 -90.8691 64.2578 -89.3066 C 62.6953 -87.7441 62.6953 -85.1562 64.2578 -83.5938 Z M 122.607 -76.0742 C 124.121 -74.5117 126.758 -74.4629 128.369 -76.0742 L 135.791 -83.5938 C 137.402 -85.1562 137.354 -87.7441 135.791 -89.3066 C 134.277 -90.8691 131.738 -90.8691 130.127 -89.3066 L 122.607 -81.7383 C 121.045 -80.2246 121.094 -77.6367 122.607 -76.0742 Z M 29.4434 -5.56641 L 82.2754 -5.56641 C 96.3867 -5.56641 107.373 -16.2598 107.373 -29.9805 C 107.373 -30.1758 107.373 -30.3223 107.373 -30.4199 C 117.188 -33.6426 124.219 -42.7246 124.219 -53.5156 C 124.219 -66.9434 113.477 -77.7344 100.049 -77.7344 C 89.209 -77.7344 80.0781 -70.7031 77.002 -60.8887 C 71.1426 -67.5781 62.9883 -71.4355 53.6621 -71.4355 C 37.5 -71.4355 23.9746 -58.9844 22.3633 -42.9199 C 14.2578 -40.3809 8.74023 -33.3496 8.74023 -24.4629 C 8.74023 -13.4766 17.041 -5.56641 29.4434 -5.56641 Z M 100.049 -70.5566 C 109.57 -70.5566 117.041 -63.1348 117.041 -53.5156 C 117.041 -46.2402 112.598 -40.0879 106.152 -37.5977 C 103.027 -46.9238 94.1895 -53.4668 83.0566 -54.1504 C 83.3984 -63.4277 90.7227 -70.5566 100.049 -70.5566 Z M 29.248 -13.3789 C 20.9473 -13.3789 16.5527 -18.1641 16.5527 -24.2676 C 16.5527 -29.4434 19.5801 -33.9844 26.7578 -35.9375 C 29.1016 -36.5234 29.9805 -37.5977 30.1758 -40.0879 C 31.2988 -53.7598 41.4551 -63.623 53.6621 -63.623 C 63.1348 -63.623 70.5078 -58.3984 75.0488 -49.2676 C 76.123 -47.2168 77.3438 -46.4844 79.7852 -46.4844 C 92.4316 -46.4844 99.5605 -38.8672 99.5605 -29.7852 C 99.5605 -20.7031 92.1387 -13.3789 82.4219 -13.3789 Z M 135.986 -49.4629 L 146.533 -49.4629 C 148.73 -49.4629 150.537 -51.2695 150.537 -53.5156 C 150.586 -55.7617 148.73 -57.5684 146.533 -57.5684 L 135.986 -57.5684 C 133.789 -57.5684 131.934 -55.7617 131.934 -53.5156 C 131.934 -51.2695 133.789 -49.4629 135.986 -49.4629 Z M 130.127 -17.6758 C 131.738 -16.1133 134.277 -16.1621 135.791 -17.7246 C 137.354 -19.2871 137.402 -21.875 135.791 -23.4375 L 128.271 -30.9082 C 126.709 -32.4219 124.17 -32.4707 122.607 -30.9082 C 121.045 -29.3457 121.045 -26.7578 122.607 -25.1953 Z M 69.6289 11.7188 L 59.9121 11.7188 L 64.4043 3.22266 C 64.9414 2.14844 64.502 1.36719 63.4277 1.36719 L 53.2227 1.36719 C 51.9043 1.36719 51.4648 1.9043 51.0254 2.83203 L 44.7754 17.041 C 44.2871 18.2129 44.7754 18.9453 45.9961 18.9453 L 54.1992 18.9453 L 47.9004 34.082 C 47.6562 34.7168 47.8027 35.2539 48.2422 35.4004 C 48.6816 35.5957 49.2188 35.4492 49.707 34.9121 L 70.3613 14.0625 C 71.3379 13.0371 70.9961 11.7188 69.6289 11.7188 Z"/>
  </g>
  <g id="Light-M" transform="matrix(1 0 0 1 1073.81 1126)">
   <path d="M 100.049 -85.2051 C 101.709 -85.2051 103.125 -86.6211 103.125 -88.2812 L 103.125 -100.146 C 103.125 -101.807 101.709 -103.174 100.049 -103.174 C 98.3398 -103.174 96.9727 -101.807 96.9727 -100.146 L 96.9727 -88.2812 C 96.9727 -86.6211 98.3398 -85.2051 100.049 -85.2051 Z M 73.1445 -75.7812 C 74.3164 -74.5605 76.3184 -74.6094 77.4902 -75.7812 C 78.6133 -76.9531 78.6621 -78.9062 77.4902 -80.0781 L 69.043 -88.5254 C 67.8223 -89.7461 65.918 -89.6973 64.7461 -88.5254 C 63.5742 -87.3535 63.5254 -85.4004 64.7461 -84.2285 Z M 122.607 -75.7812 C 123.73 -74.6094 125.732 -74.5605 126.953 -75.7812 L 135.352 -84.2285 C 136.572 -85.4004 136.523 -87.3535 135.352 -88.5254 C 134.18 -89.6973 132.275 -89.7461 131.055 -88.5254 L 122.607 -80.0781 C 121.436 -78.9062 121.484 -76.9531 122.607 -75.7812 Z M 28.7109 -5.61523 L 81.8359 -5.61523 C 95.6055 -5.61523 106.299 -15.9668 106.299 -29.2969 C 106.299 -29.6387 106.299 -29.9805 106.299 -30.3223 C 116.455 -33.3496 123.682 -42.3828 123.682 -53.2227 C 123.682 -66.4062 113.184 -76.9531 100.049 -76.9531 C 88.8184 -76.9531 79.541 -69.2871 77.0508 -58.8379 C 71.2402 -65.9668 63.0371 -70.2637 53.2227 -70.2637 C 37.4023 -70.2637 24.2188 -57.7637 22.7051 -41.7969 C 14.5996 -39.4043 8.74023 -32.666 8.74023 -23.7305 C 8.74023 -13.3789 16.5527 -5.61523 28.7109 -5.61523 Z M 81.9336 -53.2227 C 81.9336 -63.4277 89.8926 -71.3867 100.049 -71.3867 C 110.205 -71.3867 118.164 -63.4277 118.164 -53.2227 C 118.164 -45.1172 112.891 -38.3789 105.371 -35.8398 C 102.539 -45.459 93.457 -52.2461 81.9824 -52.6855 C 81.9336 -52.8809 81.9336 -53.0273 81.9336 -53.2227 Z M 28.5645 -11.5234 C 19.5801 -11.5234 14.6973 -16.8945 14.6973 -23.6328 C 14.6973 -29.541 18.4082 -34.375 25.7324 -36.4258 C 27.7344 -36.9629 28.418 -37.793 28.6133 -39.7461 C 29.6875 -53.7598 40.4785 -64.3066 53.2227 -64.3066 C 63.6719 -64.3066 71.3867 -58.3496 75.9766 -49.2188 C 76.8555 -47.4609 77.8809 -46.875 79.9805 -46.875 C 92.4805 -46.875 100.342 -38.8672 100.342 -29.1016 C 100.342 -19.3848 92.334 -11.5234 81.9336 -11.5234 Z M 134.961 -50.1953 L 146.875 -50.1953 C 148.535 -50.1953 149.902 -51.5625 149.902 -53.2227 C 149.951 -54.9316 148.535 -56.2988 146.875 -56.2988 L 134.961 -56.2988 C 133.35 -56.2988 131.934 -54.9316 131.934 -53.2227 C 131.934 -51.5625 133.35 -50.1953 134.961 -50.1953 Z M 131.055 -17.8711 C 132.275 -16.6504 134.18 -16.6992 135.352 -17.8711 C 136.523 -19.0918 136.572 -20.9961 135.352 -22.168 L 126.904 -30.6152 C 125.732 -31.7383 123.779 -31.7871 122.607 -30.6152 C 121.436 -29.4434 121.436 -27.4414 122.607 -26.2695 Z M 66.8945 12.3535 L 57.9102 12.3535 L 62.6953 3.32031 C 63.2812 2.29492 62.8418 1.46484 61.7188 1.46484 L 53.9062 1.46484 C 52.5391 1.46484 52.0996 1.95312 51.6602 2.97852 L 45.5566 16.8457 C 45.0195 18.0664 45.6543 18.7988 46.875 18.7988 L 54.3457 18.7988 L 48.1934 33.5938 C 47.9492 34.2773 48.0957 34.7656 48.5352 34.9609 C 49.0234 35.1562 49.5605 35.0098 50.0488 34.4238 L 67.7246 14.6973 C 68.6523 13.623 68.2617 12.3535 66.8945 12.3535 Z"/>
  </g>
  <g id="Thin-M" transform="matrix(1 0 0 1 777.516 1126)">
   <path d="M 100.049 -84.8145 C 101.025 -84.8145 101.855 -85.6445 101.855 -86.5234 L 101.855 -100.195 C 101.855 -101.123 101.025 -101.904 100.049 -101.904 C 99.0723 -101.904 98.2422 -101.123 98.2422 -100.195 L 98.2422 -86.5234 C 98.2422 -85.6445 99.0723 -84.8145 100.049 -84.8145 Z M 75 -75.3906 C 75.6836 -74.707 76.8066 -74.707 77.4902 -75.3906 C 78.125 -76.0742 78.1738 -77.1973 77.4902 -77.8809 L 67.8223 -87.5488 C 67.0898 -88.2324 66.0156 -88.1836 65.332 -87.5488 C 64.6973 -86.8652 64.6484 -85.7422 65.332 -85.0586 Z M 122.607 -75.3906 C 123.291 -74.707 124.414 -74.707 125.098 -75.3906 L 134.717 -85.0586 C 135.449 -85.7422 135.4 -86.8652 134.717 -87.5488 C 134.082 -88.1836 133.008 -88.2324 132.275 -87.5488 L 122.607 -77.8809 C 121.924 -77.1973 121.924 -76.0742 122.607 -75.3906 Z M 27.7344 -5.61523 L 81.25 -5.61523 C 94.5801 -5.61523 104.932 -15.6738 104.932 -28.3691 C 104.932 -28.9551 104.932 -29.541 104.883 -30.1758 C 115.43 -32.959 123.047 -41.9922 123.047 -52.832 C 123.047 -65.6738 112.793 -75.8789 100.049 -75.8789 C 88.2812 -75.8789 78.6621 -67.1875 77.2461 -55.8105 C 71.5332 -63.7207 63.2324 -68.7012 52.6367 -68.7012 C 37.2559 -68.7012 24.5117 -56.2012 23.0957 -40.2832 C 15.0391 -38.1348 8.74023 -31.7383 8.74023 -22.8027 C 8.74023 -13.2812 15.9668 -5.61523 27.7344 -5.61523 Z M 80.4688 -52.832 C 80.4688 -63.8184 89.0625 -72.4609 100.049 -72.4609 C 110.986 -72.4609 119.629 -63.8184 119.629 -52.832 C 119.629 -43.7012 113.281 -36.084 104.297 -33.5449 C 101.855 -43.5059 92.5293 -50.5371 80.6152 -50.7812 C 80.5176 -51.416 80.4688 -52.1484 80.4688 -52.832 Z M 27.6855 -9.13086 C 17.7734 -9.13086 12.207 -15.2344 12.207 -22.7539 C 12.207 -29.6387 16.8945 -34.8633 24.4629 -37.0605 C 25.9277 -37.5 26.416 -38.0859 26.5137 -39.3555 C 27.4902 -53.7109 39.209 -65.2344 52.6367 -65.2344 C 64.3555 -65.2344 72.6074 -58.3008 77.1973 -49.1211 C 77.8809 -47.8027 78.6133 -47.3633 80.1758 -47.3633 C 92.5293 -47.3633 101.465 -38.8672 101.465 -28.2227 C 101.465 -17.6758 92.627 -9.13086 81.2988 -9.13086 Z M 133.643 -51.0742 L 147.266 -51.0742 C 148.291 -51.0742 149.023 -51.8555 149.072 -52.832 C 149.121 -53.8086 148.291 -54.5898 147.266 -54.5898 L 133.643 -54.5898 C 132.715 -54.5898 131.885 -53.8086 131.885 -52.832 C 131.885 -51.8555 132.715 -51.0742 133.643 -51.0742 Z M 132.275 -18.0664 C 133.008 -17.334 134.082 -17.4316 134.717 -18.1152 C 135.4 -18.75 135.449 -19.873 134.717 -20.5566 L 125.098 -30.2246 C 124.414 -30.8594 123.291 -30.9082 122.607 -30.2246 C 121.924 -29.541 121.924 -28.418 122.607 -27.7344 Z M 63.2324 13.2324 L 55.2246 13.2324 L 60.4492 3.51562 C 61.0352 2.44141 60.5957 1.5625 59.4727 1.5625 L 54.834 1.5625 C 53.418 1.5625 52.9297 2.09961 52.4902 3.125 L 46.582 16.6016 C 46.0449 17.8711 46.7773 18.5547 47.998 18.5547 L 54.5898 18.5547 L 48.584 32.9102 C 48.291 33.6426 48.4375 34.1797 48.9258 34.375 C 49.4141 34.5703 50.0488 34.375 50.4883 33.7402 L 64.2578 15.5273 C 65.0879 14.4043 64.5996 13.2324 63.2324 13.2324 Z"/>
  </g>
  <g id="Ultralight-M" transform="matrix(1 0 0 1 481.025 1126)">
   <path d="M 100.049 -84.6191 C 100.635 -84.6191 101.172 -85.1562 101.172 -85.6934 L 101.172 -100.195 C 101.172 -100.781 100.635 -101.27 100.049 -101.27 C 99.4629 -101.27 98.9258 -100.781 98.9258 -100.195 L 98.9258 -85.6934 C 98.9258 -85.1562 99.4629 -84.6191 100.049 -84.6191 Z M 75.9277 -75.1953 C 76.3672 -74.7559 77.0508 -74.7559 77.4902 -75.1953 C 77.8809 -75.5859 77.8809 -76.3184 77.4902 -76.7578 L 67.2363 -87.0117 C 66.748 -87.5 66.0645 -87.4023 65.6738 -87.0117 C 65.2344 -86.5723 65.1855 -85.9375 65.6738 -85.4492 Z M 122.607 -75.1953 C 123.047 -74.7559 123.73 -74.7559 124.17 -75.1953 L 134.424 -85.4492 C 134.912 -85.9375 134.814 -86.5723 134.424 -87.0117 C 133.984 -87.4023 133.35 -87.5 132.861 -87.0117 L 122.607 -76.7578 C 122.168 -76.3184 122.168 -75.5859 122.607 -75.1953 Z M 27.1973 -5.66406 L 80.957 -5.66406 C 93.9941 -5.66406 104.248 -15.4785 104.248 -27.8809 C 104.248 -28.6133 104.199 -29.3457 104.102 -30.0781 C 114.941 -32.7637 122.705 -41.748 122.705 -52.6367 C 122.705 -65.2832 112.598 -75.3418 100.049 -75.3418 C 87.9395 -75.3418 78.125 -66.0156 77.4414 -54.0527 C 71.7285 -62.5 63.4277 -67.9199 52.3438 -67.9199 C 37.1582 -67.9199 24.6582 -55.3711 23.291 -39.502 C 15.2344 -37.4512 8.74023 -31.2988 8.74023 -22.3145 C 8.74023 -13.2324 15.625 -5.66406 27.1973 -5.66406 Z M 79.7363 -52.6367 C 79.7363 -64.0137 88.6719 -72.998 100.049 -72.998 C 111.426 -72.998 120.361 -64.0137 120.361 -52.6367 C 120.361 -42.9688 113.477 -34.9121 103.76 -32.4219 C 101.514 -42.5293 92.041 -49.707 79.9316 -49.7559 C 79.834 -50.5371 79.7363 -51.5625 79.7363 -52.6367 Z M 27.1973 -7.86133 C 16.8457 -7.86133 10.9375 -14.3555 10.9375 -22.3145 C 10.9375 -29.7363 16.1133 -35.1074 23.7793 -37.4023 C 25 -37.793 25.3418 -38.1836 25.4395 -39.1602 C 26.3672 -53.7109 38.5254 -65.7227 52.3438 -65.7227 C 64.7461 -65.7227 73.2422 -58.252 77.832 -49.0723 C 78.418 -47.998 79.0039 -47.6074 80.2734 -47.6074 C 92.5781 -47.6074 102.002 -38.8672 102.002 -27.7344 C 102.002 -16.7969 92.7734 -7.86133 80.957 -7.86133 Z M 132.959 -51.5625 L 147.51 -51.5625 C 148.145 -51.5625 148.535 -52.0508 148.633 -52.6367 C 148.682 -53.2227 148.145 -53.7109 147.51 -53.7109 L 132.959 -53.7109 C 132.373 -53.7109 131.885 -53.2227 131.885 -52.6367 C 131.885 -52.0508 132.373 -51.5625 132.959 -51.5625 Z M 132.861 -18.2129 C 133.35 -17.7246 133.984 -17.7734 134.424 -18.2129 C 134.814 -18.6035 134.912 -19.2383 134.424 -19.7266 L 124.17 -30.0293 C 123.73 -30.4199 122.998 -30.4199 122.607 -30.0293 C 122.168 -29.5898 122.168 -28.8574 122.607 -28.4668 Z M 61.377 13.7207 L 53.8574 13.7207 L 59.3262 3.56445 C 59.8633 2.49023 59.4238 1.66016 58.3008 1.66016 L 55.2734 1.66016 C 53.8574 1.66016 53.3203 2.14844 52.8809 3.22266 L 47.1191 16.4551 C 46.5332 17.7734 47.3633 18.457 48.5352 18.457 L 54.6875 18.457 L 48.7793 32.5684 C 48.4375 33.3496 48.6328 33.8867 49.1211 34.082 C 49.6582 34.2773 50.2441 34.082 50.6836 33.3984 L 62.5 15.918 C 63.2324 14.7949 62.7441 13.7207 61.377 13.7207 Z"/>
  </g>
  <g id="Black-S" transform="matrix(1 0 0 1 2865.07 696)">
   <path d="M 87.8418 -77.6367 C 90.4785 -77.6367 92.627 -79.8828 92.627 -82.5195 L 92.627 -88.7695 C 92.627 -91.4551 90.4785 -93.6523 87.8418 -93.6523 C 85.2051 -93.6523 83.0566 -91.4551 83.0566 -88.7695 L 83.0566 -82.5195 C 83.0566 -79.8828 85.2051 -77.6367 87.8418 -77.6367 Z M 62.5977 -70.1172 C 64.502 -68.2129 67.5781 -68.1641 69.4336 -70.0195 C 71.2891 -71.875 71.1914 -74.9023 69.3359 -76.8555 L 64.9902 -81.3477 C 63.1836 -83.252 59.9609 -83.2031 58.1055 -81.3477 C 56.25 -79.4922 56.3477 -76.416 58.2031 -74.5605 Z M 106.299 -69.9707 C 108.154 -68.1152 111.279 -68.2129 113.135 -70.0684 L 117.578 -74.4629 C 119.482 -76.3184 119.482 -79.4434 117.627 -81.2988 C 115.771 -83.1543 112.695 -83.1055 110.791 -81.2012 L 106.348 -76.8555 C 104.443 -75 104.443 -71.8262 106.299 -69.9707 Z M 26.4648 -7.37305 L 68.8965 -7.37305 C 81.6406 -7.37305 91.5527 -17.1387 91.5527 -29.6875 C 91.5527 -30.0293 91.5527 -30.3223 91.5527 -30.6152 C 101.465 -32.3242 109.033 -40.9668 109.033 -51.5625 C 109.033 -63.3301 99.6094 -72.7539 87.9395 -72.7539 C 77.6855 -72.7539 69.2871 -65.7227 67.1387 -56.25 C 62.2559 -62.4023 55.0293 -65.625 45.9473 -65.625 C 32.2754 -65.625 21.0449 -56.1523 18.5547 -42.5781 C 11.377 -40.2344 6.83594 -33.8867 6.83594 -26.0254 C 6.83594 -15.2344 15.1855 -7.37305 26.4648 -7.37305 Z M 76.6602 -51.5625 C 76.6602 -57.7637 81.6406 -62.7441 87.8906 -62.7441 C 94.043 -62.7441 99.0234 -57.7637 99.0234 -51.5625 C 99.0234 -45.7031 94.6289 -40.918 89.0137 -40.3809 C 86.4258 -45.4102 82.0801 -49.2188 76.6602 -51.0742 C 76.6602 -51.2207 76.6602 -51.3672 76.6602 -51.5625 Z M 118.701 -46.875 L 124.951 -46.875 C 127.637 -46.875 129.834 -48.9746 129.834 -51.6113 C 129.834 -54.248 127.637 -56.4453 124.951 -56.4453 L 118.701 -56.4453 C 116.064 -56.4453 113.818 -54.248 113.818 -51.6113 C 113.818 -48.9746 116.064 -46.875 118.701 -46.875 Z M 26.9043 -19.0918 C 21.3379 -19.0918 18.6035 -21.875 18.6035 -25.9277 C 18.6035 -29.6387 21.0449 -32.2266 26.1719 -33.5449 C 28.4668 -34.1309 29.0039 -35.1562 29.3945 -37.4512 C 31.2988 -48.6816 37.6953 -53.9551 45.9473 -53.9551 C 52.1484 -53.9551 57.4219 -50.293 61.1328 -43.5547 C 62.1582 -41.6992 63.1836 -41.0156 65.5273 -41.0156 C 75.5371 -41.0156 79.834 -36.0352 79.834 -29.541 C 79.834 -23.584 75.4883 -19.0918 68.457 -19.0918 Z M 110.742 -21.9727 C 112.646 -20.0684 115.723 -20.0195 117.578 -21.875 C 119.434 -23.7305 119.336 -26.7578 117.48 -28.7109 L 113.135 -33.2031 C 111.328 -35.1074 108.105 -35.0586 106.25 -33.2031 C 104.395 -31.3477 104.492 -28.2715 106.348 -26.416 Z M 60.5469 5.37109 L 51.2695 5.37109 L 54.3457 -0.488281 C 54.7852 -1.31836 54.4434 -2.00195 53.5645 -2.00195 L 41.7969 -2.00195 C 40.6738 -2.00195 40.2832 -1.61133 39.9414 -0.78125 L 34.5215 11.5723 C 34.1309 12.5 34.4727 13.1348 35.498 13.1348 L 42.9199 13.1348 L 37.5977 26.0742 C 37.3535 26.6113 37.5 27.0508 37.8418 27.1973 C 38.1836 27.3438 38.623 27.2461 39.0625 26.8555 L 61.1328 7.37305 C 62.0605 6.5918 61.7188 5.37109 60.5469 5.37109 Z"/>
  </g>
  <g id="Heavy-S" transform="matrix(1 0 0 1 2569.72 696)">
   <path d="M 85.5957 -76.9531 C 88.0859 -76.9531 90.1367 -79.0527 90.1367 -81.543 L 90.1367 -88.1348 C 90.1367 -90.6738 88.0859 -92.7246 85.5957 -92.7246 C 83.1055 -92.7246 81.1035 -90.6738 81.1035 -88.1348 L 81.1035 -81.543 C 81.1035 -79.0527 83.1055 -76.9531 85.5957 -76.9531 Z M 60.9375 -69.4824 C 62.6953 -67.6758 65.625 -67.627 67.3828 -69.3848 C 69.0918 -71.1426 69.043 -74.0234 67.2852 -75.8301 L 62.6953 -80.5664 C 60.9863 -82.3242 57.959 -82.2754 56.2012 -80.5664 C 54.4922 -78.8086 54.541 -75.8789 56.2988 -74.1699 Z M 103.857 -69.3848 C 105.615 -67.627 108.545 -67.6758 110.352 -69.4336 L 114.99 -74.0723 C 116.797 -75.8301 116.797 -78.7598 115.039 -80.5176 C 113.281 -82.2754 110.4 -82.2266 108.594 -80.4199 L 103.906 -75.8301 C 102.148 -74.0723 102.148 -71.0938 103.857 -69.3848 Z M 25.7324 -8.44727 L 67.9199 -8.44727 C 80.2734 -8.44727 89.8926 -17.9199 89.8926 -30.127 C 89.8926 -30.3711 89.8926 -30.6152 89.8926 -30.8594 C 99.2676 -32.7637 106.299 -41.0645 106.299 -51.123 C 106.299 -62.6465 97.1191 -71.8262 85.6934 -71.8262 C 75.8789 -71.8262 67.8223 -65.2832 65.5273 -56.2988 C 60.6934 -62.1582 53.6621 -65.2832 45.0684 -65.2832 C 31.5918 -65.2832 20.5078 -55.7617 18.2617 -42.3828 C 11.2793 -40.1367 6.83594 -33.9355 6.83594 -26.2695 C 6.83594 -15.918 14.7949 -8.44727 25.7324 -8.44727 Z M 85.6445 -62.6953 C 92.041 -62.6953 97.168 -57.5684 97.168 -51.123 C 97.168 -45.4102 93.0664 -40.7227 87.7441 -39.7949 C 85.1074 -45.3125 80.1758 -49.4629 74.0723 -51.123 C 74.0723 -57.5684 79.1992 -62.6953 85.6445 -62.6953 Z M 115.967 -46.6797 L 122.51 -46.6797 C 125.049 -46.6797 127.1 -48.6816 127.1 -51.1719 C 127.1 -53.6621 125.049 -55.7129 122.51 -55.7129 L 115.967 -55.7129 C 113.477 -55.7129 111.328 -53.6621 111.328 -51.1719 C 111.328 -48.6816 113.477 -46.6797 115.967 -46.6797 Z M 26.0254 -19.0918 C 20.3125 -19.0918 17.4805 -22.0215 17.4805 -26.1719 C 17.4805 -29.8828 19.8242 -32.666 25.0488 -34.0332 C 27.2949 -34.5703 27.8809 -35.5957 28.2227 -37.8418 C 29.8828 -48.9258 36.5723 -54.6875 45.0684 -54.6875 C 51.4648 -54.6875 56.7871 -51.0254 60.498 -44.1895 C 61.4746 -42.334 62.5 -41.6992 64.7949 -41.6992 C 74.8047 -41.6992 79.2969 -36.5234 79.2969 -29.9316 C 79.2969 -23.7793 74.6582 -19.0918 67.5781 -19.0918 Z M 108.545 -21.8262 C 110.352 -20.0684 113.232 -20.0195 114.99 -21.7773 C 116.748 -23.5352 116.65 -26.3672 114.893 -28.2227 L 110.303 -32.9102 C 108.594 -34.668 105.615 -34.668 103.857 -32.9102 C 102.1 -31.1523 102.148 -28.2715 103.906 -26.5137 Z M 59.4238 4.39453 L 50.4883 4.39453 L 53.6133 -1.61133 C 54.0527 -2.44141 53.7109 -3.07617 52.832 -3.07617 L 41.6992 -3.07617 C 40.5762 -3.07617 40.2344 -2.68555 39.8926 -1.9043 L 34.5703 10.2051 C 34.1797 11.1328 34.5215 11.7676 35.5469 11.7676 L 42.8223 11.7676 L 37.5488 24.4629 C 37.3047 25 37.4512 25.4395 37.793 25.5859 C 38.1348 25.7324 38.5742 25.6348 39.0137 25.2441 L 60.0098 6.34766 C 60.8887 5.56641 60.5957 4.39453 59.4238 4.39453 Z"/>
  </g>
  <g id="Bold-S" transform="matrix(1 0 0 1 2274.55 696)">
   <path d="M 83.1055 -76.2207 C 85.4492 -76.2207 87.3047 -78.1738 87.3047 -80.4688 L 87.3047 -87.4023 C 87.3047 -89.7461 85.4492 -91.6504 83.1055 -91.6504 C 80.7617 -91.6504 78.9062 -89.7461 78.9062 -87.4023 L 78.9062 -80.4688 C 78.9062 -78.1738 80.7617 -76.2207 83.1055 -76.2207 Z M 59.0332 -68.75 C 60.7422 -67.0898 63.4766 -67.0898 65.0879 -68.7012 C 66.6504 -70.3125 66.6504 -72.998 65.0391 -74.6582 L 60.1074 -79.6387 C 58.4961 -81.2988 55.7617 -81.2988 54.1016 -79.6387 C 52.4902 -78.0273 52.5391 -75.293 54.1504 -73.6816 Z M 101.172 -68.7012 C 102.783 -67.041 105.518 -67.0898 107.178 -68.75 L 112.109 -73.6328 C 113.77 -75.2441 113.77 -77.9785 112.109 -79.6387 C 110.498 -81.25 107.812 -81.25 106.152 -79.5898 L 101.221 -74.6582 C 99.5605 -73.0469 99.5605 -70.3125 101.172 -68.7012 Z M 24.9512 -9.66797 L 66.7969 -9.66797 C 78.7598 -9.66797 88.0859 -18.7988 88.0859 -30.5664 C 88.0859 -30.7617 88.0859 -30.957 88.0859 -31.1035 C 96.8262 -33.252 103.271 -41.1133 103.271 -50.6348 C 103.271 -61.8652 94.3359 -70.8496 83.1543 -70.8496 C 73.877 -70.8496 66.1621 -64.7461 63.7207 -56.2988 C 58.9355 -61.8652 52.1484 -64.8926 44.0918 -64.8926 C 30.8594 -64.8926 19.873 -55.2734 17.9688 -42.1875 C 11.1816 -39.9902 6.83594 -33.9844 6.83594 -26.5625 C 6.83594 -16.6992 14.3555 -9.66797 24.9512 -9.66797 Z M 83.1543 -62.6465 C 89.7949 -62.6465 95.0684 -57.3242 95.0684 -50.6348 C 95.0684 -45.0195 91.3574 -40.4297 86.3281 -39.1602 C 83.6426 -45.2637 78.0762 -49.707 71.1426 -51.0742 C 71.3867 -57.6172 76.5625 -62.6465 83.1543 -62.6465 Z M 25.0488 -19.043 C 19.1895 -19.043 16.2598 -22.168 16.2598 -26.416 C 16.2598 -30.127 18.457 -33.1543 23.7793 -34.5215 C 25.9766 -35.1074 26.6113 -36.084 26.9043 -38.3301 C 28.3203 -49.2188 35.3027 -55.5664 44.0918 -55.5664 C 50.6836 -55.5664 56.1035 -51.8555 59.7168 -44.9219 C 60.6934 -43.0664 61.7188 -42.4316 63.9648 -42.4316 C 73.9746 -42.4316 78.7109 -37.0605 78.7109 -30.4199 C 78.7109 -24.0234 73.7793 -19.043 66.6504 -19.043 Z M 112.842 -46.4844 L 119.824 -46.4844 C 122.119 -46.4844 124.023 -48.3398 124.023 -50.6836 C 124.072 -52.9785 122.119 -54.8828 119.824 -54.8828 L 112.842 -54.8828 C 110.547 -54.8828 108.594 -52.9785 108.594 -50.6836 C 108.594 -48.3398 110.547 -46.4844 112.842 -46.4844 Z M 106.104 -21.6797 C 107.764 -20.0195 110.449 -20.0195 112.109 -21.6797 C 113.721 -23.291 113.672 -25.9766 112.061 -27.6367 L 107.129 -32.6172 C 105.518 -34.2285 102.783 -34.2285 101.172 -32.6172 C 99.5117 -30.957 99.5605 -28.2715 101.221 -26.6113 Z M 58.2031 3.32031 L 49.6094 3.32031 L 52.7832 -2.83203 C 53.2227 -3.66211 52.8809 -4.29688 52.0508 -4.29688 L 41.6016 -4.29688 C 40.5273 -4.29688 40.1367 -3.90625 39.7949 -3.125 L 34.6191 8.69141 C 34.2285 9.61914 34.5703 10.2051 35.5469 10.2051 L 42.6758 10.2051 L 37.5 22.7051 C 37.2559 23.1934 37.4023 23.6328 37.7441 23.7793 C 38.0859 23.9258 38.5254 23.8281 38.916 23.4375 L 58.7402 5.22461 C 59.6191 4.44336 59.3262 3.32031 58.2031 3.32031 Z"/>
  </g>
  <g id="Semibold-S" transform="matrix(1 0 0 1 1978.89 696)">
   <path d="M 81.3965 -75.6836 C 83.5938 -75.6836 85.4004 -77.5391 85.4004 -79.7363 L 85.4004 -86.9141 C 85.4004 -89.1602 83.5938 -90.9668 81.3965 -90.9668 C 79.1504 -90.9668 77.3438 -89.1602 77.3438 -86.9141 L 77.3438 -79.7363 C 77.3438 -77.5391 79.1504 -75.6836 81.3965 -75.6836 Z M 57.7637 -68.2617 C 59.3262 -66.6504 61.9629 -66.6504 63.4766 -68.2129 C 64.9902 -69.7754 64.9902 -72.3145 63.4277 -73.877 L 58.3496 -79.0527 C 56.7871 -80.6152 54.1992 -80.5664 52.6367 -79.0527 C 51.123 -77.4902 51.123 -74.9023 52.6855 -73.3398 Z M 99.3164 -68.2129 C 100.83 -66.6504 103.467 -66.6504 105.029 -68.2617 L 110.107 -73.3398 C 111.67 -74.9023 111.67 -77.4902 110.107 -79.0039 C 108.594 -80.5664 106.006 -80.5664 104.443 -79.0039 L 99.3164 -73.877 C 97.7539 -72.3145 97.8027 -69.7754 99.3164 -68.2129 Z M 24.3652 -10.498 L 66.0156 -10.498 C 77.7344 -10.498 86.8164 -19.4336 86.8164 -30.9082 C 86.8164 -31.0547 86.8164 -31.1523 86.8164 -31.25 C 95.1172 -33.5449 101.172 -41.1621 101.172 -50.293 C 101.172 -61.3281 92.3828 -70.1172 81.3965 -70.1172 C 72.4609 -70.1172 64.9902 -64.3555 62.5 -56.2988 C 57.7637 -61.6699 51.0742 -64.6484 43.457 -64.6484 C 30.3223 -64.6484 19.4336 -54.9805 17.7734 -42.041 C 11.1328 -39.8926 6.83594 -34.0332 6.83594 -26.8066 C 6.83594 -17.2363 14.0625 -10.498 24.3652 -10.498 Z M 81.3965 -62.5977 C 88.2324 -62.5977 93.6523 -57.1777 93.6523 -50.293 C 93.6523 -44.8242 90.1367 -40.2344 85.3027 -38.7207 C 82.6172 -45.2148 76.6602 -49.8535 69.1406 -51.0254 C 69.4824 -57.5684 74.7559 -62.5977 81.3965 -62.5977 Z M 24.4141 -19.043 C 18.4082 -19.043 15.3809 -22.2656 15.3809 -26.6113 C 15.3809 -30.3223 17.5293 -33.4961 22.9492 -34.9121 C 25.0488 -35.4492 25.7324 -36.4258 25.9766 -38.623 C 27.2461 -49.4141 34.4727 -56.1035 43.457 -56.1035 C 50.1465 -56.1035 55.6152 -52.4414 59.2285 -45.4102 C 60.1562 -43.6035 61.2305 -42.9688 63.4277 -42.9688 C 73.3887 -42.9688 78.2715 -37.4512 78.2715 -30.7129 C 78.2715 -24.1699 73.1445 -19.043 65.9668 -19.043 Z M 110.742 -46.3379 L 117.92 -46.3379 C 120.117 -46.3379 121.924 -48.0957 121.924 -50.293 C 121.924 -52.5391 120.117 -54.3457 117.92 -54.3457 L 110.742 -54.3457 C 108.545 -54.3457 106.689 -52.5391 106.689 -50.293 C 106.689 -48.0957 108.545 -46.3379 110.742 -46.3379 Z M 104.443 -21.582 C 106.006 -20.0195 108.545 -20.0195 110.107 -21.582 C 111.67 -23.1445 111.621 -25.6836 110.059 -27.2461 L 104.98 -32.373 C 103.418 -33.8867 100.83 -33.9355 99.2676 -32.373 C 97.7539 -30.8105 97.7539 -28.2227 99.3164 -26.709 Z M 57.373 2.53906 L 48.9746 2.53906 L 52.2461 -3.66211 C 52.6855 -4.49219 52.3438 -5.12695 51.4648 -5.12695 L 41.5039 -5.12695 C 40.4297 -5.12695 40.0879 -4.73633 39.7461 -3.95508 L 34.6191 7.66602 C 34.2285 8.54492 34.6191 9.13086 35.5957 9.13086 L 42.5781 9.13086 L 37.4512 21.4355 C 37.2559 21.9727 37.3535 22.3633 37.6953 22.5098 C 38.0371 22.6562 38.4766 22.5586 38.8672 22.168 L 57.9102 4.44336 C 58.7402 3.66211 58.4473 2.53906 57.373 2.53906 Z"/>
  </g>
  <g id="Medium-S" transform="matrix(1 0 0 1 1682.96 696)">
   <path d="M 80.0781 -75.293 C 82.1777 -75.293 83.9355 -77.0508 83.9355 -79.1504 L 83.9355 -86.5234 C 83.9355 -88.6719 82.1777 -90.4297 80.0781 -90.4297 C 77.9297 -90.4297 76.2207 -88.6719 76.2207 -86.5234 L 76.2207 -79.1504 C 76.2207 -77.0508 77.9297 -75.293 80.0781 -75.293 Z M 56.7871 -67.8711 C 58.3008 -66.3574 60.8398 -66.3574 62.2559 -67.8711 C 63.7207 -69.3359 63.7207 -71.7773 62.2559 -73.291 L 56.9824 -78.5645 C 55.5176 -80.0781 53.0273 -80.0781 51.5625 -78.5645 C 50.0488 -77.0996 50.0977 -74.6094 51.5625 -73.0957 Z M 97.9004 -67.8711 C 99.3164 -66.3574 101.855 -66.3574 103.369 -67.8711 L 108.594 -73.0957 C 110.107 -74.6094 110.107 -77.0508 108.594 -78.5645 C 107.129 -80.0293 104.688 -80.0293 103.174 -78.5645 L 97.9004 -73.291 C 96.3867 -71.7773 96.4355 -69.3359 97.9004 -67.8711 Z M 23.9746 -11.1328 L 65.4297 -11.1328 C 76.9531 -11.1328 85.8398 -19.873 85.8398 -31.1523 L 85.8398 -31.3965 C 93.8477 -33.7891 99.6094 -41.2109 99.6094 -50.0488 C 99.6094 -60.8887 90.918 -69.6289 80.0781 -69.6289 C 71.4355 -69.6289 64.1602 -64.0625 61.5723 -56.2988 C 56.8848 -61.4746 50.3418 -64.4531 42.9199 -64.4531 C 29.9316 -64.4531 19.0918 -54.7363 17.5781 -41.9434 C 11.0352 -39.8438 6.83594 -34.0332 6.83594 -26.9531 C 6.83594 -17.6758 13.8672 -11.1328 23.9746 -11.1328 Z M 80.0781 -62.5488 C 87.0605 -62.5488 92.5781 -57.0801 92.5781 -50.0488 C 92.5781 -44.6289 89.2578 -40.0879 84.5215 -38.3789 C 81.8848 -45.166 75.5859 -49.9512 67.627 -50.9277 C 68.0664 -57.5195 73.3887 -62.5488 80.0781 -62.5488 Z M 23.877 -18.9941 C 17.8223 -18.9941 14.7461 -22.3633 14.7461 -26.7578 C 14.7461 -30.4688 16.7969 -33.7402 22.2656 -35.1562 C 24.3652 -35.6934 25.0977 -36.6699 25.293 -38.8672 C 26.416 -49.5605 33.7891 -56.543 42.9199 -56.543 C 49.7559 -56.543 55.2734 -52.832 58.8379 -45.8008 C 59.7656 -43.9941 60.791 -43.3594 62.9883 -43.3594 C 72.9492 -43.3594 77.9785 -37.6953 77.9785 -30.957 C 77.9785 -24.3164 72.6562 -18.9941 65.4785 -18.9941 Z M 109.131 -46.1914 L 116.504 -46.1914 C 118.604 -46.1914 120.361 -47.9492 120.361 -50.0488 C 120.361 -52.1973 118.604 -53.9062 116.504 -53.9062 L 109.131 -53.9062 C 107.031 -53.9062 105.225 -52.1973 105.225 -50.0488 C 105.225 -47.9492 107.031 -46.1914 109.131 -46.1914 Z M 103.174 -21.5332 C 104.688 -20.0195 107.08 -20.0684 108.594 -21.5332 C 110.059 -22.998 110.059 -25.4883 108.594 -26.9531 L 103.32 -32.2266 C 101.855 -33.6426 99.3652 -33.6914 97.9004 -32.2266 C 96.3867 -30.7129 96.4355 -28.2227 97.9004 -26.7578 Z M 56.6895 1.95312 L 48.4863 1.95312 L 51.8066 -4.29688 C 52.2461 -5.12695 51.9043 -5.76172 51.0742 -5.76172 L 41.4551 -5.76172 C 40.3809 -5.76172 40.0391 -5.37109 39.6973 -4.58984 L 34.668 6.88477 C 34.2773 7.76367 34.6191 8.34961 35.5957 8.34961 L 42.4805 8.34961 L 37.4512 20.5078 C 37.207 21.0449 37.3535 21.4355 37.6953 21.582 C 38.0371 21.7285 38.4277 21.6309 38.8184 21.2402 L 57.2266 3.85742 C 58.0566 3.07617 57.8125 1.95312 56.6895 1.95312 Z"/>
  </g>
  <g id="Regular-S" transform="matrix(1 0 0 1 1387.3 696)">
   <path d="M 78.3691 -74.7559 C 80.3711 -74.7559 82.0312 -76.4648 82.0312 -78.418 L 82.0312 -86.0352 C 82.0312 -88.0371 80.3711 -89.6973 78.3691 -89.6973 C 76.3672 -89.6973 74.707 -88.0371 74.707 -86.0352 L 74.707 -78.418 C 74.707 -76.4648 76.3672 -74.7559 78.3691 -74.7559 Z M 96.0449 -67.3828 C 97.4121 -65.9668 99.8047 -65.918 101.27 -67.3828 L 106.641 -72.8027 C 108.008 -74.2188 108.008 -76.5625 106.641 -77.9785 C 105.225 -79.3457 102.93 -79.3457 101.514 -77.9785 L 96.0449 -72.5098 C 94.6289 -71.0938 94.6777 -68.7988 96.0449 -67.3828 Z M 55.4688 -67.3828 C 56.9336 -65.918 59.3262 -65.9668 60.6934 -67.3828 C 62.0605 -68.7988 62.1094 -71.0938 60.6934 -72.5098 L 55.2246 -77.9785 C 53.8086 -79.3457 51.5137 -79.3457 50.0977 -77.9785 C 48.7305 -76.5625 48.7305 -74.2188 50.0977 -72.8027 Z M 23.4375 -11.9629 L 64.6973 -11.9629 C 75.8789 -11.9629 84.6191 -20.459 84.6191 -31.4941 L 84.6191 -31.543 C 92.1387 -34.1309 97.5098 -41.2598 97.5098 -49.707 C 97.5098 -60.3516 89.0137 -68.8965 78.3691 -68.8965 C 70.0195 -68.8965 62.9883 -63.6719 60.3516 -56.25 C 55.7129 -61.2793 49.3164 -64.1602 42.2852 -64.1602 C 29.4434 -64.1602 18.7012 -54.3945 17.3828 -41.7969 C 10.9863 -39.7461 6.83594 -34.082 6.83594 -27.1484 C 6.83594 -18.2129 13.5742 -11.9629 23.4375 -11.9629 Z M 78.3691 -62.5488 C 85.5469 -62.5488 91.1621 -56.9336 91.1621 -49.707 C 91.1621 -44.3848 88.0371 -39.8926 83.4961 -37.9395 C 80.957 -45.0684 74.1699 -50.0977 65.625 -50.7324 C 66.1621 -57.4707 71.5332 -62.5488 78.3691 -62.5488 Z M 23.2422 -18.9941 C 17.0898 -18.9941 13.8672 -22.4609 13.8672 -26.9531 C 13.8672 -30.6152 15.8691 -34.082 21.4355 -35.5469 C 23.4863 -36.0352 24.2188 -37.0117 24.4141 -39.1602 C 25.3418 -49.7559 32.959 -57.1289 42.2852 -57.1289 C 49.2188 -57.1289 54.7852 -53.418 58.3496 -46.2891 C 59.2285 -44.4824 60.3027 -43.8477 62.4512 -43.8477 C 72.3633 -43.8477 77.5879 -38.0859 77.5879 -31.2988 C 77.5879 -24.4629 72.0703 -18.9941 64.7949 -18.9941 Z M 107.031 -46.0449 L 114.648 -46.0449 C 116.602 -46.0449 118.262 -47.7051 118.262 -49.707 C 118.262 -51.709 116.602 -53.3691 114.648 -53.3691 L 107.031 -53.3691 C 105.029 -53.3691 103.369 -51.709 103.369 -49.707 C 103.369 -47.7051 105.029 -46.0449 107.031 -46.0449 Z M 101.514 -21.4355 C 102.93 -20.0195 105.225 -20.0684 106.641 -21.4355 C 108.008 -22.8516 108.008 -25.1953 106.641 -26.5625 L 101.172 -31.9824 C 99.7559 -33.3496 97.4609 -33.3984 96.0449 -31.9824 C 94.6289 -30.5664 94.6289 -28.2227 96.0449 -26.8066 Z M 55.8594 1.2207 L 47.9004 1.2207 L 51.2695 -5.17578 C 51.709 -6.00586 51.3672 -6.5918 50.5371 -6.5918 L 41.3574 -6.5918 C 40.332 -6.5918 39.9902 -6.20117 39.6484 -5.46875 L 34.668 5.81055 C 34.2773 6.73828 34.668 7.27539 35.6445 7.27539 L 42.3828 7.27539 L 37.4023 19.2871 C 37.207 19.8242 37.3047 20.2148 37.6465 20.3613 C 37.9883 20.5078 38.3789 20.4102 38.7695 19.9707 L 56.3965 3.07617 C 57.1777 2.29492 56.9336 1.2207 55.8594 1.2207 Z"/>
  </g>
  <g id="Light-S" transform="matrix(1 0 0 1 1090.88 696)">
   <path d="M 78.3691 -74.5117 C 79.8828 -74.5117 81.1523 -75.7812 81.1523 -77.2461 L 81.1523 -86.084 C 81.1523 -87.5977 79.8828 -88.8672 78.3691 -88.8672 C 76.8555 -88.8672 75.5859 -87.5977 75.5859 -86.084 L 75.5859 -77.2461 C 75.5859 -75.7812 76.8555 -74.5117 78.3691 -74.5117 Z M 56.7383 -67.1387 C 57.8613 -66.0156 59.668 -66.0645 60.6934 -67.1387 C 61.7188 -68.2129 61.7676 -69.9219 60.6934 -70.9961 L 54.4434 -77.2949 C 53.3203 -78.3691 51.6113 -78.3691 50.5371 -77.2949 C 49.4629 -76.2207 49.4629 -74.4629 50.5371 -73.3398 Z M 96.0449 -67.1387 C 97.0703 -66.0645 98.877 -66.0156 100 -67.1387 L 106.201 -73.3398 C 107.275 -74.4629 107.275 -76.2207 106.201 -77.2949 C 105.127 -78.3691 103.418 -78.3691 102.295 -77.2949 L 96.0449 -70.9961 C 94.9707 -69.9219 95.0195 -68.2129 96.0449 -67.1387 Z M 22.7539 -12.0117 L 64.2578 -12.0117 C 75.1953 -12.0117 83.6914 -20.2637 83.6914 -30.8594 C 83.6914 -31.0547 83.6914 -31.25 83.6914 -31.3965 C 91.5039 -33.8379 97.0703 -40.9668 97.0703 -49.4629 C 97.0703 -59.8633 88.7695 -68.2129 78.3691 -68.2129 C 69.7266 -68.2129 62.5 -62.4512 60.3516 -54.541 C 55.7617 -59.9121 49.3164 -63.1348 41.8457 -63.1348 C 29.3457 -63.1348 18.8965 -53.3691 17.627 -40.8203 C 11.2793 -38.8672 6.83594 -33.4961 6.83594 -26.5137 C 6.83594 -18.1641 13.1348 -12.0117 22.7539 -12.0117 Z M 78.3691 -63.2324 C 86.084 -63.2324 92.1387 -57.1777 92.1387 -49.4629 C 92.1387 -43.4082 88.3301 -38.3301 82.8613 -36.377 C 80.5176 -43.7988 73.4863 -49.0234 64.5996 -49.4629 C 64.5996 -57.1777 70.6543 -63.2324 78.3691 -63.2324 Z M 22.6562 -17.3828 C 15.8691 -17.3828 12.207 -21.3379 12.207 -26.3672 C 12.207 -30.7129 14.8438 -34.4238 20.5566 -35.9863 C 22.2656 -36.4258 22.8516 -37.1582 22.998 -38.916 C 23.877 -49.7559 32.0801 -57.7637 41.8457 -57.7637 C 49.6582 -57.7637 55.5664 -53.3691 59.1797 -46.2402 C 59.9121 -44.7266 60.791 -44.1895 62.5977 -44.1895 C 72.4121 -44.1895 78.3203 -38.0859 78.3203 -30.7129 C 78.3203 -23.291 72.2656 -17.3828 64.3555 -17.3828 Z M 106.104 -46.6797 L 114.941 -46.6797 C 116.455 -46.6797 117.676 -47.9004 117.676 -49.4629 C 117.725 -50.9766 116.455 -52.1973 114.941 -52.1973 L 106.104 -52.1973 C 104.639 -52.1973 103.369 -50.9766 103.369 -49.4629 C 103.369 -47.9004 104.639 -46.6797 106.104 -46.6797 Z M 102.295 -21.582 C 103.418 -20.459 105.127 -20.5078 106.201 -21.582 C 107.275 -22.6562 107.275 -24.4141 106.201 -25.4883 L 99.9512 -31.7383 C 98.877 -32.7637 97.1191 -32.8125 96.0449 -31.7383 C 94.9707 -30.6641 94.9707 -28.8574 96.0449 -27.7832 Z M 53.418 1.80664 L 46.1426 1.80664 L 49.7559 -5.07812 C 50.1953 -5.9082 49.8535 -6.49414 49.0234 -6.49414 L 41.9434 -6.49414 C 40.918 -6.49414 40.5273 -6.10352 40.1855 -5.37109 L 35.4004 5.66406 C 34.9609 6.5918 35.4004 7.12891 36.377 7.12891 L 42.5293 7.12891 L 37.6465 18.8477 C 37.4512 19.3848 37.5488 19.7754 37.8906 19.9219 C 38.2812 20.0684 38.6719 19.9707 39.0625 19.5312 L 54.0527 3.61328 C 54.7852 2.83203 54.4922 1.80664 53.418 1.80664 Z"/>
  </g>
  <g id="Thin-S" transform="matrix(1 0 0 1 794.533 696)">
   <path d="M 78.3691 -74.1699 C 79.248 -74.1699 80.0293 -74.9023 80.0293 -75.7812 L 80.0293 -86.084 C 80.0293 -87.0117 79.248 -87.7441 78.3691 -87.7441 C 77.4902 -87.7441 76.709 -87.0117 76.709 -86.084 L 76.709 -75.7812 C 76.709 -74.9023 77.4902 -74.1699 78.3691 -74.1699 Z M 96.0449 -66.7969 C 96.6797 -66.1621 97.7051 -66.1133 98.3398 -66.7969 L 105.664 -74.0723 C 106.348 -74.7559 106.299 -75.7812 105.664 -76.416 C 105.029 -77.002 104.053 -77.0508 103.369 -76.416 L 96.0449 -69.043 C 95.4102 -68.457 95.4102 -67.3828 96.0449 -66.7969 Z M 58.3984 -66.7969 C 59.0332 -66.1133 60.0586 -66.1621 60.6934 -66.7969 C 61.3281 -67.3828 61.3281 -68.457 60.6934 -69.043 L 53.3691 -76.416 C 52.6855 -77.0508 51.709 -77.002 51.0742 -76.416 C 50.4395 -75.7812 50.3906 -74.7559 51.0742 -74.0723 Z M 21.875 -12.0117 L 63.7695 -12.0117 C 74.2676 -12.0117 82.4707 -19.9707 82.4707 -30.0293 C 82.4707 -30.4688 82.4219 -30.8594 82.4219 -31.2988 C 90.625 -33.4961 96.5332 -40.5762 96.5332 -49.1211 C 96.5332 -59.2285 88.4277 -67.2852 78.3691 -67.2852 C 69.2871 -67.2852 61.8164 -60.6934 60.4492 -51.9531 C 55.957 -58.0078 49.4629 -61.7676 41.3574 -61.7676 C 29.1992 -61.7676 19.1406 -51.9531 17.9688 -39.4531 C 11.6699 -37.7441 6.83594 -32.666 6.83594 -25.6836 C 6.83594 -18.0664 12.5977 -12.0117 21.875 -12.0117 Z M 63.3301 -49.1211 C 63.3301 -57.5195 69.9219 -64.209 78.3691 -64.209 C 86.8164 -64.209 93.4082 -57.5195 93.4082 -49.1211 C 93.4082 -42.1387 88.6719 -36.3281 81.9336 -34.375 C 79.9316 -42.0898 72.6562 -47.5586 63.4277 -47.7539 C 63.3301 -48.1934 63.3301 -48.6328 63.3301 -49.1211 Z M 21.8262 -15.2344 C 14.2578 -15.2344 10.0098 -19.873 10.0098 -25.6348 C 10.0098 -30.8105 13.5254 -34.8145 19.3848 -36.5234 C 20.6543 -36.9141 21.0449 -37.4023 21.1426 -38.5742 C 21.9238 -49.707 30.957 -58.5449 41.3574 -58.5449 C 50.293 -58.5449 56.6406 -53.3203 60.2539 -46.1426 C 60.791 -45.0195 61.4258 -44.6289 62.7441 -44.6289 C 72.4609 -44.6289 79.248 -38.0859 79.248 -29.8828 C 79.248 -21.8262 72.5098 -15.2344 63.8184 -15.2344 Z M 104.932 -47.4609 L 115.283 -47.4609 C 116.211 -47.4609 116.895 -48.1934 116.943 -49.1211 C 116.992 -50 116.211 -50.7324 115.283 -50.7324 L 104.932 -50.7324 C 104.053 -50.7324 103.32 -50 103.32 -49.1211 C 103.32 -48.1934 104.053 -47.4609 104.932 -47.4609 Z M 103.369 -21.7285 C 104.053 -21.0938 105.029 -21.1426 105.664 -21.7773 C 106.299 -22.4121 106.348 -23.3887 105.664 -24.0723 L 98.3398 -31.3965 C 97.7051 -31.9824 96.6797 -31.9824 96.0449 -31.3965 C 95.4102 -30.7617 95.4102 -29.6875 96.0449 -29.0527 Z M 50.2441 2.58789 L 43.75 2.58789 L 47.8027 -4.93164 C 48.2422 -5.76172 47.9004 -6.39648 47.0215 -6.39648 L 42.7734 -6.39648 C 41.6504 -6.39648 41.2598 -6.00586 40.918 -5.22461 L 36.2793 5.41992 C 35.8398 6.39648 36.4258 6.98242 37.3535 6.98242 L 42.7246 6.98242 L 37.9883 18.3105 C 37.7441 18.8477 37.8906 19.2871 38.2324 19.4336 C 38.623 19.5801 39.1113 19.4336 39.4531 18.9453 L 51.0254 4.3457 C 51.6602 3.51562 51.3184 2.58789 50.2441 2.58789 Z"/>
  </g>
  <g id="Ultralight-S" transform="matrix(1 0 0 1 498.017 696)">
   <path d="M 78.3691 -73.9746 C 78.9551 -73.9746 79.4434 -74.4629 79.4434 -75 L 79.4434 -86.1328 C 79.4434 -86.6699 78.9551 -87.1582 78.3691 -87.1582 C 77.7832 -87.1582 77.2949 -86.6699 77.2949 -86.1328 L 77.2949 -75 C 77.2949 -74.4629 77.7832 -73.9746 78.3691 -73.9746 Z M 59.2285 -66.6016 C 59.6191 -66.2109 60.3027 -66.2109 60.6934 -66.6016 C 61.084 -66.9922 61.084 -67.6758 60.6934 -68.0664 L 52.832 -75.9277 C 52.3926 -76.3672 51.7578 -76.3184 51.3672 -75.9277 C 50.9766 -75.5371 50.9277 -74.9023 51.3672 -74.4629 Z M 96.0449 -66.6016 C 96.4355 -66.2109 97.1191 -66.2109 97.5098 -66.6016 L 105.371 -74.4629 C 105.811 -74.9023 105.762 -75.5371 105.371 -75.9277 C 104.98 -76.3184 104.346 -76.3672 103.906 -75.9277 L 96.0449 -68.0664 C 95.6543 -67.6758 95.6543 -66.9922 96.0449 -66.6016 Z M 21.4355 -12.0605 L 63.4766 -12.0605 C 73.7793 -12.0605 81.8359 -19.8242 81.8359 -29.5898 C 81.8359 -30.127 81.7871 -30.6641 81.7383 -31.2012 C 90.1855 -33.3496 96.1914 -40.3809 96.1914 -48.9258 C 96.1914 -58.8867 88.2812 -66.7969 78.3691 -66.7969 C 68.9941 -66.7969 61.377 -59.668 60.5957 -50.4395 C 56.1523 -56.9336 49.6094 -61.0352 41.0645 -61.0352 C 29.1016 -61.0352 19.2383 -51.2207 18.1641 -38.7695 C 11.8652 -37.1582 6.83594 -32.2754 6.83594 -25.2441 C 6.83594 -18.0176 12.3047 -12.0605 21.4355 -12.0605 Z M 62.6465 -48.9258 C 62.6465 -57.7148 69.5801 -64.6973 78.3691 -64.6973 C 87.1582 -64.6973 94.0918 -57.7148 94.0918 -48.9258 C 94.0918 -41.4551 88.8672 -35.3027 81.3965 -33.3496 C 79.6387 -41.2109 72.2168 -46.7773 62.793 -46.875 C 62.7441 -47.5098 62.6465 -48.2422 62.6465 -48.9258 Z M 21.4355 -14.1113 C 13.4277 -14.1113 8.88672 -19.1406 8.88672 -25.2441 C 8.88672 -30.9082 12.793 -35.0586 18.7988 -36.8652 C 19.8242 -37.1582 20.1172 -37.5 20.166 -38.3789 C 20.9473 -49.707 30.3711 -58.9844 41.0645 -58.9844 C 50.6348 -58.9844 57.1777 -53.2715 60.791 -46.0938 C 61.2793 -45.166 61.7676 -44.873 62.8906 -44.873 C 72.5098 -44.873 79.7852 -38.0859 79.7852 -29.4922 C 79.7852 -21.0449 72.6074 -14.1113 63.4766 -14.1113 Z M 104.346 -47.9004 L 115.479 -47.9004 C 116.113 -47.9004 116.504 -48.3398 116.553 -48.9258 C 116.602 -49.4629 116.113 -49.9512 115.479 -49.9512 L 104.346 -49.9512 C 103.76 -49.9512 103.32 -49.4629 103.32 -48.9258 C 103.32 -48.3398 103.76 -47.9004 104.346 -47.9004 Z M 103.906 -21.875 C 104.346 -21.4355 104.98 -21.4844 105.371 -21.875 C 105.762 -22.2656 105.811 -22.8516 105.371 -23.291 L 97.5098 -31.2012 C 97.1191 -31.5918 96.4355 -31.5918 96.0449 -31.2012 C 95.6543 -30.8105 95.6543 -30.127 96.0449 -29.7363 Z M 48.584 2.97852 L 42.5293 2.97852 L 46.7773 -4.83398 C 47.2168 -5.66406 46.875 -6.34766 45.9961 -6.34766 L 43.1641 -6.34766 C 42.041 -6.34766 41.6504 -5.95703 41.3086 -5.12695 L 36.7676 5.32227 C 36.3281 6.29883 36.9629 6.83594 37.8906 6.83594 L 42.7734 6.83594 L 38.1348 17.9688 C 37.8906 18.5547 38.0371 18.9941 38.4277 19.1406 C 38.8184 19.2871 39.3066 19.1406 39.6484 18.6035 L 49.4141 4.73633 C 50.0488 3.85742 49.6582 2.97852 48.584 2.97852 Z"/>
  </g>
 </g>
</svg>
