<?xml version="1.0" encoding="UTF-8"?>
<!--Generator: Apple Native CoreSVG 123-->
<!DOCTYPE svg
PUBLIC "-//W3C//DTD SVG 1.1//EN"
       "http://www.w3.org/Graphics/SVG/1.1/DTD/svg11.dtd">
<svg version="1.1" xmlns="http://www.w3.org/2000/svg" xmlns:xlink="http://www.w3.org/1999/xlink" width="3300" height="2200">
 <!--glyph: "uni1001CA.medium", point size: 100.000000, font version: "Version 15.0d7e11", template writer version: "5"-->
 <g id="Notes">
  <rect height="2200" id="artboard" style="fill:white;opacity:1" width="3300" x="0" y="0"/>
  <line id="" style="fill:none;stroke:black;opacity:1;stroke-width:0.5;" x1="263" x2="3036" y1="292" y2="292"/>
  <text style="stroke:none;fill:black;font-family:-apple-system,&quot;SF Pro Display&quot;,&quot;SF Pro Text&quot;,Helvetica,sans-serif;font-weight:bold;" transform="matrix(1 0 0 1 263 322)">Weight/Scale Variations</text>
  <text style="stroke:none;fill:black;font-family:-apple-system,&quot;SF Pro Display&quot;,&quot;SF Pro Text&quot;,Helvetica,sans-serif;text-anchor:middle;" transform="matrix(1 0 0 1 559.711 322)">Ultralight</text>
  <text style="stroke:none;fill:black;font-family:-apple-system,&quot;SF Pro Display&quot;,&quot;SF Pro Text&quot;,Helvetica,sans-serif;text-anchor:middle;" transform="matrix(1 0 0 1 856.422 322)">Thin</text>
  <text style="stroke:none;fill:black;font-family:-apple-system,&quot;SF Pro Display&quot;,&quot;SF Pro Text&quot;,Helvetica,sans-serif;text-anchor:middle;" transform="matrix(1 0 0 1 1153.13 322)">Light</text>
  <text style="stroke:none;fill:black;font-family:-apple-system,&quot;SF Pro Display&quot;,&quot;SF Pro Text&quot;,Helvetica,sans-serif;text-anchor:middle;" transform="matrix(1 0 0 1 1449.84 322)">Regular</text>
  <text style="stroke:none;fill:black;font-family:-apple-system,&quot;SF Pro Display&quot;,&quot;SF Pro Text&quot;,Helvetica,sans-serif;text-anchor:middle;" transform="matrix(1 0 0 1 1746.56 322)">Medium</text>
  <text style="stroke:none;fill:black;font-family:-apple-system,&quot;SF Pro Display&quot;,&quot;SF Pro Text&quot;,Helvetica,sans-serif;text-anchor:middle;" transform="matrix(1 0 0 1 2043.27 322)">Semibold</text>
  <text style="stroke:none;fill:black;font-family:-apple-system,&quot;SF Pro Display&quot;,&quot;SF Pro Text&quot;,Helvetica,sans-serif;text-anchor:middle;" transform="matrix(1 0 0 1 2339.98 322)">Bold</text>
  <text style="stroke:none;fill:black;font-family:-apple-system,&quot;SF Pro Display&quot;,&quot;SF Pro Text&quot;,Helvetica,sans-serif;text-anchor:middle;" transform="matrix(1 0 0 1 2636.69 322)">Heavy</text>
  <text style="stroke:none;fill:black;font-family:-apple-system,&quot;SF Pro Display&quot;,&quot;SF Pro Text&quot;,Helvetica,sans-serif;text-anchor:middle;" transform="matrix(1 0 0 1 2933.4 322)">Black</text>
  <line id="" style="fill:none;stroke:black;opacity:1;stroke-width:0.5;" x1="263" x2="3036" y1="1903" y2="1903"/>
  <g id="" transform="matrix(1 0 0 1 263 1933)">
   <path d="M 9.24805 0.830078 C 13.5547 0.830078 17.1387 -2.74414 17.1387 -7.05078 C 17.1387 -11.3574 13.5449 -14.9316 9.23828 -14.9316 C 4.94141 -14.9316 1.36719 -11.3574 1.36719 -7.05078 C 1.36719 -2.74414 4.95117 0.830078 9.24805 0.830078 Z M 9.24805 -0.654297 C 5.70312 -0.654297 2.87109 -3.49609 2.87109 -7.05078 C 2.87109 -10.6055 5.69336 -13.4473 9.23828 -13.4473 C 12.793 -13.4473 15.6348 -10.6055 15.6445 -7.05078 C 15.6543 -3.49609 12.8027 -0.654297 9.24805 -0.654297 Z M 9.22852 -3.42773 C 9.69727 -3.42773 9.9707 -3.74023 9.9707 -4.25781 L 9.9707 -6.31836 L 12.1973 -6.31836 C 12.6953 -6.31836 13.0371 -6.57227 13.0371 -7.04102 C 13.0371 -7.51953 12.7148 -7.7832 12.1973 -7.7832 L 9.9707 -7.7832 L 9.9707 -10.0098 C 9.9707 -10.5273 9.69727 -10.8496 9.22852 -10.8496 C 8.75977 -10.8496 8.50586 -10.5078 8.50586 -10.0098 L 8.50586 -7.7832 L 6.29883 -7.7832 C 5.78125 -7.7832 5.44922 -7.51953 5.44922 -7.04102 C 5.44922 -6.57227 5.80078 -6.31836 6.29883 -6.31836 L 8.50586 -6.31836 L 8.50586 -4.25781 C 8.50586 -3.75977 8.75977 -3.42773 9.22852 -3.42773 Z"/>
  </g>
  <g id="" transform="matrix(1 0 0 1 281.506 1933)">
   <path d="M 11.709 2.91016 C 17.1582 2.91016 21.6699 -1.60156 21.6699 -7.05078 C 21.6699 -12.4902 17.1484 -17.0117 11.6992 -17.0117 C 6.25977 -17.0117 1.74805 -12.4902 1.74805 -7.05078 C 1.74805 -1.60156 6.26953 2.91016 11.709 2.91016 Z M 11.709 1.25 C 7.09961 1.25 3.41797 -2.44141 3.41797 -7.05078 C 3.41797 -11.6504 7.08984 -15.3516 11.6992 -15.3516 C 16.3086 -15.3516 20 -11.6504 20.0098 -7.05078 C 20.0195 -2.44141 16.3184 1.25 11.709 1.25 Z M 11.6895 -2.41211 C 12.207 -2.41211 12.5195 -2.77344 12.5195 -3.33984 L 12.5195 -6.23047 L 15.5762 -6.23047 C 16.123 -6.23047 16.5039 -6.51367 16.5039 -7.03125 C 16.5039 -7.55859 16.1426 -7.86133 15.5762 -7.86133 L 12.5195 -7.86133 L 12.5195 -10.9277 C 12.5195 -11.5039 12.207 -11.8555 11.6895 -11.8555 C 11.1719 -11.8555 10.8789 -11.4844 10.8789 -10.9277 L 10.8789 -7.86133 L 7.83203 -7.86133 C 7.26562 -7.86133 6.89453 -7.55859 6.89453 -7.03125 C 6.89453 -6.51367 7.28516 -6.23047 7.83203 -6.23047 L 10.8789 -6.23047 L 10.8789 -3.33984 C 10.8789 -2.79297 11.1719 -2.41211 11.6895 -2.41211 Z"/>
  </g>
  <g id="" transform="matrix(1 0 0 1 304.924 1933)">
   <path d="M 14.9707 5.67383 C 21.9336 5.67383 27.6953 -0.078125 27.6953 -7.04102 C 27.6953 -14.0039 21.9238 -19.7559 14.9609 -19.7559 C 8.00781 -19.7559 2.25586 -14.0039 2.25586 -7.04102 C 2.25586 -0.078125 8.01758 5.67383 14.9707 5.67383 Z M 14.9707 3.85742 C 8.93555 3.85742 4.08203 -1.00586 4.08203 -7.04102 C 4.08203 -13.0762 8.92578 -17.9395 14.9609 -17.9395 C 21.0059 -17.9395 25.8594 -13.0762 25.8691 -7.04102 C 25.8789 -1.00586 21.0156 3.85742 14.9707 3.85742 Z M 14.9512 -1.06445 C 15.5176 -1.06445 15.8691 -1.45508 15.8691 -2.06055 L 15.8691 -6.13281 L 20.1074 -6.13281 C 20.6934 -6.13281 21.1133 -6.46484 21.1133 -7.02148 C 21.1133 -7.59766 20.7227 -7.93945 20.1074 -7.93945 L 15.8691 -7.93945 L 15.8691 -12.1875 C 15.8691 -12.8027 15.5176 -13.1934 14.9512 -13.1934 C 14.3848 -13.1934 14.0625 -12.7832 14.0625 -12.1875 L 14.0625 -7.93945 L 9.83398 -7.93945 C 9.21875 -7.93945 8.80859 -7.59766 8.80859 -7.02148 C 8.80859 -6.46484 9.23828 -6.13281 9.83398 -6.13281 L 14.0625 -6.13281 L 14.0625 -2.06055 C 14.0625 -1.47461 14.3848 -1.06445 14.9512 -1.06445 Z"/>
  </g>
  <text style="stroke:none;fill:black;font-family:-apple-system,&quot;SF Pro Display&quot;,&quot;SF Pro Text&quot;,Helvetica,sans-serif;font-weight:bold;" transform="matrix(1 0 0 1 263 1953)">Design Variations</text>
  <text style="stroke:none;fill:black;font-family:-apple-system,&quot;SF Pro Display&quot;,&quot;SF Pro Text&quot;,Helvetica,sans-serif;" transform="matrix(1 0 0 1 263 1971)">Symbols are supported in up to nine weights and three scales.</text>
  <text style="stroke:none;fill:black;font-family:-apple-system,&quot;SF Pro Display&quot;,&quot;SF Pro Text&quot;,Helvetica,sans-serif;" transform="matrix(1 0 0 1 263 1989)">For optimal layout with text and other symbols, vertically align</text>
  <text style="stroke:none;fill:black;font-family:-apple-system,&quot;SF Pro Display&quot;,&quot;SF Pro Text&quot;,Helvetica,sans-serif;" transform="matrix(1 0 0 1 263 2007)">symbols with the adjacent text.</text>
  <rect height="14" id="" style="fill:#00AEEF;stroke:none;opacity:0.4;" width="3" x="776" y="1919"/>
  <g id="" transform="matrix(1 0 0 1 779 1933)">
   <path d="M 10.5273 0 L 12.373 0 L 7.17773 -14.0918 L 5.43945 -14.0918 L 0.244141 0 L 2.08984 0 L 3.50586 -4.0332 L 9.11133 -4.0332 Z M 6.2793 -11.9531 L 6.33789 -11.9531 L 8.59375 -5.52734 L 4.02344 -5.52734 Z"/>
  </g>
  <rect height="14" id="" style="fill:#00AEEF;stroke:none;opacity:0.4;" width="3" x="791.617" y="1919"/>
  <text style="stroke:none;fill:black;font-family:-apple-system,&quot;SF Pro Display&quot;,&quot;SF Pro Text&quot;,Helvetica,sans-serif;font-weight:bold;" transform="matrix(1 0 0 1 776 1953)">Margins</text>
  <text style="stroke:none;fill:black;font-family:-apple-system,&quot;SF Pro Display&quot;,&quot;SF Pro Text&quot;,Helvetica,sans-serif;" transform="matrix(1 0 0 1 776 1971)">Leading and trailing margins on the left and right side of each symbol</text>
  <text style="stroke:none;fill:black;font-family:-apple-system,&quot;SF Pro Display&quot;,&quot;SF Pro Text&quot;,Helvetica,sans-serif;" transform="matrix(1 0 0 1 776 1989)">can be adjusted by modifying the width of the blue rectangles.</text>
  <text style="stroke:none;fill:black;font-family:-apple-system,&quot;SF Pro Display&quot;,&quot;SF Pro Text&quot;,Helvetica,sans-serif;" transform="matrix(1 0 0 1 776 2007)">Modifications are automatically applied proportionally to all</text>
  <text style="stroke:none;fill:black;font-family:-apple-system,&quot;SF Pro Display&quot;,&quot;SF Pro Text&quot;,Helvetica,sans-serif;" transform="matrix(1 0 0 1 776 2025)">scales and weights.</text>
  <g id="" transform="matrix(1 0 0 1 1289 1933)">
   <path d="M 2.83203 3.11523 L 4.375 4.6582 C 5.22461 5.48828 6.19141 5.41992 7.06055 4.46289 L 17.2754 -6.66016 C 17.7051 -6.36719 18.0957 -6.37695 18.5645 -6.47461 L 19.6094 -6.68945 L 20.3027 -5.99609 L 20.2539 -5.47852 C 20.1855 -4.95117 20.3516 -4.53125 20.8496 -4.0332 L 21.6602 -3.22266 C 22.168 -2.71484 22.8223 -2.68555 23.3008 -3.16406 L 26.5527 -6.41602 C 27.0312 -6.89453 27.0117 -7.54883 26.5039 -8.05664 L 25.6836 -8.87695 C 25.1855 -9.375 24.7754 -9.55078 24.2383 -9.47266 L 23.7109 -9.41406 L 23.0566 -10.0781 L 23.3398 -11.2207 C 23.4863 -11.7871 23.3398 -12.2559 22.7148 -12.8613 L 20.3027 -15.2539 C 16.7578 -18.7793 12.2266 -18.6719 9.11133 -15.5371 C 8.69141 -15.1074 8.64258 -14.5215 8.91602 -14.0918 C 9.15039 -13.7207 9.62891 -13.4961 10.2734 -13.6621 C 11.7871 -14.043 13.3008 -13.9258 14.7852 -12.9199 L 14.1602 -11.3379 C 13.9258 -10.752 13.9453 -10.2734 14.1797 -9.83398 L 3.01758 0.439453 C 2.08008 1.30859 1.97266 2.25586 2.83203 3.11523 Z M 10.6738 -15.1465 C 13.3398 -17.1387 16.6504 -16.8262 19.0527 -14.4141 L 21.6797 -11.8066 C 21.9141 -11.5723 21.9434 -11.3867 21.8848 -11.0938 L 21.5039 -9.53125 L 23.0762 -7.95898 L 24.043 -8.04688 C 24.3262 -8.07617 24.4141 -8.05664 24.6387 -7.83203 L 25.2637 -7.20703 L 22.5098 -4.46289 L 21.8848 -5.07812 C 21.6602 -5.30273 21.6406 -5.40039 21.6699 -5.68359 L 21.7578 -6.64062 L 20.1953 -8.20312 L 18.5742 -7.89062 C 18.291 -7.83203 18.1445 -7.83203 17.9102 -8.07617 L 15.7324 -10.2539 C 15.5078 -10.4883 15.4785 -10.625 15.6055 -10.9473 L 16.5527 -13.2227 C 14.9512 -14.7559 12.8418 -15.6055 10.8008 -14.9512 C 10.7129 -14.9219 10.6445 -14.9414 10.6152 -14.9805 C 10.5859 -15.0293 10.5859 -15.0781 10.6738 -15.1465 Z M 4.10156 2.41211 C 3.61328 1.91406 3.78906 1.61133 4.12109 1.30859 L 15.0781 -8.80859 L 16.3086 -7.57812 L 6.15234 3.34961 C 5.84961 3.68164 5.46875 3.7793 5.06836 3.37891 Z"/>
  </g>
  <text style="stroke:none;fill:black;font-family:-apple-system,&quot;SF Pro Display&quot;,&quot;SF Pro Text&quot;,Helvetica,sans-serif;font-weight:bold;" transform="matrix(1 0 0 1 1289 1953)">Exporting</text>
  <text style="stroke:none;fill:black;font-family:-apple-system,&quot;SF Pro Display&quot;,&quot;SF Pro Text&quot;,Helvetica,sans-serif;" transform="matrix(1 0 0 1 1289 1971)">Symbols should be outlined when exporting to ensure the</text>
  <text style="stroke:none;fill:black;font-family:-apple-system,&quot;SF Pro Display&quot;,&quot;SF Pro Text&quot;,Helvetica,sans-serif;" transform="matrix(1 0 0 1 1289 1989)">design is preserved when submitting to Xcode.</text>
  <text id="template-version" style="stroke:none;fill:black;font-family:-apple-system,&quot;SF Pro Display&quot;,&quot;SF Pro Text&quot;,Helvetica,sans-serif;text-anchor:end;" transform="matrix(1 0 0 1 3036 1933)">Template v.1.0</text>
  <text style="stroke:none;fill:black;font-family:-apple-system,&quot;SF Pro Display&quot;,&quot;SF Pro Text&quot;,Helvetica,sans-serif;text-anchor:end;" transform="matrix(1 0 0 1 3036 1951)">Generated from cloud.fog</text>
  <text style="stroke:none;fill:black;font-family:-apple-system,&quot;SF Pro Display&quot;,&quot;SF Pro Text&quot;,Helvetica,sans-serif;text-anchor:end;" transform="matrix(1 0 0 1 3036 1969)">Typeset at 100 points</text>
  <text style="stroke:none;fill:black;font-family:-apple-system,&quot;SF Pro Display&quot;,&quot;SF Pro Text&quot;,Helvetica,sans-serif;" transform="matrix(1 0 0 1 263 726)">Small</text>
  <text style="stroke:none;fill:black;font-family:-apple-system,&quot;SF Pro Display&quot;,&quot;SF Pro Text&quot;,Helvetica,sans-serif;" transform="matrix(1 0 0 1 263 1156)">Medium</text>
  <text style="stroke:none;fill:black;font-family:-apple-system,&quot;SF Pro Display&quot;,&quot;SF Pro Text&quot;,Helvetica,sans-serif;" transform="matrix(1 0 0 1 263 1586)">Large</text>
 </g>
 <g id="Guides">
  <g id="H-reference" style="fill:#27AAE1;stroke:none;" transform="matrix(1 0 0 1 339 696)">
   <path d="M 54.9316 0 L 57.666 0 L 30.5664 -70.459 L 28.0762 -70.459 L 0.976562 0 L 3.66211 0 L 12.9395 -24.4629 L 45.7031 -24.4629 Z M 29.1992 -67.0898 L 29.4434 -67.0898 L 44.8242 -26.709 L 13.8184 -26.709 Z"/>
  </g>
  <line id="Baseline-S" style="fill:none;stroke:#27AAE1;opacity:1;stroke-width:0.577;" x1="263" x2="3036" y1="696" y2="696"/>
  <line id="Capline-S" style="fill:none;stroke:#27AAE1;opacity:1;stroke-width:0.577;" x1="263" x2="3036" y1="625.541" y2="625.541"/>
  <g id="H-reference" style="fill:#27AAE1;stroke:none;" transform="matrix(1 0 0 1 339 1126)">
   <path d="M 54.9316 0 L 57.666 0 L 30.5664 -70.459 L 28.0762 -70.459 L 0.976562 0 L 3.66211 0 L 12.9395 -24.4629 L 45.7031 -24.4629 Z M 29.1992 -67.0898 L 29.4434 -67.0898 L 44.8242 -26.709 L 13.8184 -26.709 Z"/>
  </g>
  <line id="Baseline-M" style="fill:none;stroke:#27AAE1;opacity:1;stroke-width:0.577;" x1="263" x2="3036" y1="1126" y2="1126"/>
  <line id="Capline-M" style="fill:none;stroke:#27AAE1;opacity:1;stroke-width:0.577;" x1="263" x2="3036" y1="1055.54" y2="1055.54"/>
  <g id="H-reference" style="fill:#27AAE1;stroke:none;" transform="matrix(1 0 0 1 339 1556)">
   <path d="M 54.9316 0 L 57.666 0 L 30.5664 -70.459 L 28.0762 -70.459 L 0.976562 0 L 3.66211 0 L 12.9395 -24.4629 L 45.7031 -24.4629 Z M 29.1992 -67.0898 L 29.4434 -67.0898 L 44.8242 -26.709 L 13.8184 -26.709 Z"/>
  </g>
  <line id="Baseline-L" style="fill:none;stroke:#27AAE1;opacity:1;stroke-width:0.577;" x1="263" x2="3036" y1="1556" y2="1556"/>
  <line id="Capline-L" style="fill:none;stroke:#27AAE1;opacity:1;stroke-width:0.577;" x1="263" x2="3036" y1="1485.54" y2="1485.54"/>
  <rect height="119.336" id="left-margin" style="fill:#00AEEF;stroke:none;opacity:0.4;" width="8.74023" x="1385.34" y="1030.79"/>
  <rect height="119.336" id="right-margin" style="fill:#00AEEF;stroke:none;opacity:0.4;" width="8.74023" x="1505.61" y="1030.79"/>
 </g>
 <g id="Symbols">
  <g id="Black-L" transform="matrix(1 0 0 1 2845.61 1556)">
   <path d="M 45.1172 0.244141 L 124.561 0.244141 C 147.168 0.244141 164.307 -16.9922 164.307 -38.8672 C 164.307 -61.0352 147.217 -78.2227 124.512 -78.2227 C 117.236 -92.2363 103.613 -103.418 81.543 -103.418 C 55.8105 -103.418 35.9375 -84.8633 32.5684 -61.1816 C 20.4102 -56.9336 11.2793 -46.2402 11.2793 -31.6406 C 11.2793 -13.6719 24.7559 0.244141 45.1172 0.244141 Z M 45.6543 -17.7734 C 34.668 -17.7734 29.2969 -23.4375 29.2969 -31.2988 C 29.2969 -38.3301 33.6426 -43.5547 43.5547 -46.1426 C 47.8027 -47.2656 48.9258 -49.1699 49.5605 -53.4668 C 52.5391 -74.3652 65.3809 -85.4004 81.543 -85.4004 C 93.6035 -85.4004 103.809 -78.5156 110.742 -65.4785 C 112.598 -61.9629 114.6 -60.6934 118.994 -60.6934 C 137.842 -60.6934 146.289 -50.8789 146.289 -38.5254 C 146.289 -26.8066 137.549 -17.7734 124.219 -17.7734 Z M 127.197 17.334 L 48.4375 17.334 C 45.2637 17.334 42.8711 19.5312 42.8711 22.5586 C 42.8711 25.5859 45.2637 27.832 48.4375 27.832 L 127.197 27.832 C 130.322 27.832 132.764 25.5859 132.764 22.5586 C 132.764 19.5312 130.322 17.334 127.197 17.334 Z M 127.197 38.7207 L 48.4375 38.7207 C 45.2637 38.7207 42.8711 40.9668 42.8711 43.9453 C 42.8711 46.9727 45.2637 49.2188 48.4375 49.2188 L 127.197 49.2188 C 130.322 49.2188 132.764 46.9727 132.764 43.9453 C 132.764 40.9668 130.322 38.7207 127.197 38.7207 Z"/>
  </g>
  <g id="Heavy-L" transform="matrix(1 0 0 1 2550.04 1556)">
   <path d="M 43.9941 -1.17188 L 123.242 -1.17188 C 145.264 -1.17188 162.012 -17.9688 162.012 -39.209 C 162.012 -60.791 145.117 -77.2949 122.803 -77.2949 C 115.332 -91.748 101.562 -102.637 80.3711 -102.637 C 55.1758 -102.637 35.4492 -84.1309 32.373 -60.498 C 20.3613 -56.4941 11.2793 -45.9961 11.2793 -31.7383 C 11.2793 -14.5508 24.1211 -1.17188 43.9941 -1.17188 Z M 44.3848 -16.9434 C 32.8125 -16.9434 27.0508 -23.0957 27.0508 -31.3965 C 27.0508 -38.7207 31.5918 -44.4336 41.6992 -47.0703 C 45.7031 -48.0957 46.8262 -49.9023 47.3633 -53.9062 C 49.9512 -74.8047 63.5742 -86.8652 80.3711 -86.8652 C 93.0664 -86.8652 103.564 -79.6875 110.498 -66.3574 C 112.207 -63.0371 114.16 -61.8652 118.311 -61.8652 C 137.109 -61.8652 146.191 -51.6113 146.191 -38.8672 C 146.191 -26.5625 136.816 -16.9434 123.047 -16.9434 Z M 126.514 16.1133 L 46.7773 16.1133 C 43.8965 16.1133 41.6992 18.1641 41.6992 20.9473 C 41.6992 23.6816 43.8965 25.7812 46.7773 25.7812 L 126.514 25.7812 C 129.395 25.7812 131.592 23.6816 131.592 20.9473 C 131.592 18.1641 129.395 16.1133 126.514 16.1133 Z M 126.514 37.5 L 46.7773 37.5 C 43.8965 37.5 41.6992 39.5508 41.6992 42.334 C 41.6992 45.0684 43.8965 47.168 46.7773 47.168 L 126.514 47.168 C 129.395 47.168 131.592 45.0684 131.592 42.334 C 131.592 39.5508 129.395 37.5 126.514 37.5 Z"/>
  </g>
  <g id="Bold-L" transform="matrix(1 0 0 1 2254.63 1556)">
   <path d="M 42.7246 -2.68555 L 121.68 -2.68555 C 143.164 -2.68555 159.424 -18.9941 159.424 -39.5508 C 159.424 -60.4492 142.725 -76.2695 120.85 -76.2695 C 113.232 -91.1621 99.2676 -101.807 79.0039 -101.807 C 54.4434 -101.807 34.8145 -83.3008 32.1289 -59.7168 C 20.3125 -55.957 11.2793 -45.752 11.2793 -31.8359 C 11.2793 -15.5273 23.3398 -2.68555 42.7246 -2.68555 Z M 42.9688 -16.0156 C 30.7129 -16.0156 24.5605 -22.7051 24.5605 -31.543 C 24.5605 -39.209 29.2969 -45.3613 39.6973 -48.0957 C 43.3594 -49.0723 44.4824 -50.7324 44.9219 -54.4434 C 47.1191 -75.293 61.5723 -88.5254 79.0039 -88.5254 C 92.5293 -88.5254 103.369 -80.957 110.205 -67.3828 C 111.816 -64.2578 113.672 -63.1348 117.529 -63.1348 C 136.23 -63.1348 146.094 -52.4414 146.094 -39.209 C 146.094 -26.2695 135.938 -16.0156 121.777 -16.0156 Z M 125.781 14.7949 L 44.9219 14.7949 C 42.3828 14.7949 40.3809 16.6504 40.3809 19.1406 C 40.3809 21.6309 42.3828 23.4863 44.9219 23.4863 L 125.781 23.4863 C 128.32 23.4863 130.273 21.6309 130.273 19.1406 C 130.273 16.6504 128.32 14.7949 125.781 14.7949 Z M 125.781 36.1816 L 44.9219 36.1816 C 42.3828 36.1816 40.3809 38.0371 40.3809 40.5273 C 40.3809 43.0176 42.3828 44.873 44.9219 44.873 L 125.781 44.873 C 128.32 44.873 130.273 43.0176 130.273 40.5273 C 130.273 38.0371 128.32 36.1816 125.781 36.1816 Z"/>
  </g>
  <g id="Semibold-L" transform="matrix(1 0 0 1 1958.82 1556)">
   <path d="M 41.8457 -3.75977 L 120.654 -3.75977 C 141.699 -3.75977 157.617 -19.7266 157.617 -39.7949 C 157.617 -60.2539 141.113 -75.5859 119.482 -75.5859 C 111.768 -90.7715 97.7051 -101.27 78.0762 -101.27 C 53.9062 -101.27 34.4238 -82.7148 31.9824 -59.1797 C 20.2637 -55.6152 11.2793 -45.6055 11.2793 -31.8848 C 11.2793 -16.2598 22.8516 -3.75977 41.8457 -3.75977 Z M 41.9922 -15.332 C 29.2969 -15.332 22.8516 -22.4121 22.8516 -31.6406 C 22.8516 -39.502 27.6855 -46.0449 38.2812 -48.8281 C 41.748 -49.7559 42.8711 -51.3184 43.2129 -54.834 C 45.1172 -75.6348 60.1562 -89.6484 78.0762 -89.6484 C 92.1387 -89.6484 103.223 -81.8359 110.059 -68.1152 C 111.572 -65.0879 113.33 -64.0137 116.992 -64.0137 C 135.645 -64.0137 146.045 -53.0273 146.045 -39.4531 C 146.045 -26.0254 135.352 -15.332 120.898 -15.332 Z M 125.244 13.8672 L 43.6523 13.8672 C 41.3086 13.8672 39.502 15.5762 39.502 17.8711 C 39.502 20.166 41.3086 21.9238 43.6523 21.9238 L 125.244 21.9238 C 127.588 21.9238 129.395 20.166 129.395 17.8711 C 129.395 15.5762 127.588 13.8672 125.244 13.8672 Z M 125.244 35.2539 L 43.6523 35.2539 C 41.3086 35.2539 39.502 36.9629 39.502 39.2578 C 39.502 41.5527 41.3086 43.3105 43.6523 43.3105 L 125.244 43.3105 C 127.588 43.3105 129.395 41.5527 129.395 39.2578 C 129.395 36.9629 127.588 35.2539 125.244 35.2539 Z"/>
  </g>
  <g id="Medium-L" transform="matrix(1 0 0 1 1662.79 1556)">
   <path d="M 41.2109 -4.54102 L 119.873 -4.54102 C 140.625 -4.54102 156.25 -20.3125 156.25 -39.9414 C 156.25 -60.1074 139.844 -75.0488 118.457 -75.0488 C 110.693 -90.4785 96.4844 -100.83 77.3438 -100.83 C 53.5156 -100.83 34.1309 -82.2266 31.8359 -58.7891 C 20.2148 -55.3711 11.2793 -45.459 11.2793 -31.9824 C 11.2793 -16.748 22.4609 -4.54102 41.2109 -4.54102 Z M 41.2109 -14.8438 C 28.2227 -14.8438 21.582 -22.2168 21.582 -31.6895 C 21.582 -39.7461 26.5137 -46.5332 37.207 -49.3652 C 40.5273 -50.2441 41.6504 -51.7578 41.9434 -55.0781 C 43.6523 -75.8789 59.082 -90.5273 77.3438 -90.5273 C 91.8457 -90.5273 103.076 -82.4707 109.912 -68.6523 C 111.328 -65.7227 113.086 -64.6973 116.602 -64.6973 C 135.205 -64.6973 145.947 -53.4668 145.947 -39.6484 C 145.947 -25.8789 134.912 -14.8438 120.215 -14.8438 Z M 124.854 13.1348 L 42.6758 13.1348 C 40.5273 13.1348 38.8184 14.7949 38.8184 16.9434 C 38.8184 19.0918 40.5273 20.7031 42.6758 20.7031 L 124.854 20.7031 C 127.002 20.7031 128.711 19.0918 128.711 16.9434 C 128.711 14.7949 127.002 13.1348 124.854 13.1348 Z M 124.854 34.5215 L 42.6758 34.5215 C 40.5273 34.5215 38.8184 36.1816 38.8184 38.3301 C 38.8184 40.4785 40.5273 42.0898 42.6758 42.0898 L 124.854 42.0898 C 127.002 42.0898 128.711 40.4785 128.711 38.3301 C 128.711 36.1816 127.002 34.5215 124.854 34.5215 Z"/>
  </g>
  <g id="Regular-L" transform="matrix(1 0 0 1 1366.96 1556)">
   <path d="M 40.3809 -5.61523 L 118.848 -5.61523 C 139.16 -5.61523 154.492 -20.9961 154.492 -40.1855 C 154.492 -59.9121 138.232 -74.3652 117.139 -74.3652 C 109.277 -90.0879 94.9219 -100.244 76.4648 -100.244 C 53.0273 -100.244 33.6914 -81.6895 31.6895 -58.252 C 20.166 -55.0293 11.2793 -45.2637 11.2793 -32.0312 C 11.2793 -17.4316 21.9238 -5.61523 40.3809 -5.61523 Z M 40.2344 -14.209 C 26.8066 -14.209 19.873 -21.9727 19.873 -31.7871 C 19.873 -40.0879 24.9023 -47.2168 35.791 -50.0977 C 38.916 -50.9277 40.0391 -52.3438 40.2832 -55.4688 C 41.6992 -76.2207 57.7148 -91.6504 76.4648 -91.6504 C 91.4551 -91.6504 102.93 -83.3496 109.717 -69.3359 C 111.084 -66.5527 112.744 -65.5762 116.064 -65.5762 C 134.619 -65.5762 145.898 -54.0039 145.898 -39.9414 C 145.898 -25.6836 134.326 -14.209 119.336 -14.209 Z M 124.316 12.2559 L 41.4062 12.2559 C 39.4531 12.2559 37.9395 13.7207 37.9395 15.6738 C 37.9395 17.6758 39.4531 19.1406 41.4062 19.1406 L 124.316 19.1406 C 126.27 19.1406 127.832 17.6758 127.832 15.6738 C 127.832 13.7207 126.27 12.2559 124.316 12.2559 Z M 124.316 33.6426 L 41.4062 33.6426 C 39.4531 33.6426 37.9395 35.1074 37.9395 37.1094 C 37.9395 39.0625 39.4531 40.5273 41.4062 40.5273 L 124.316 40.5273 C 126.27 40.5273 127.832 39.0625 127.832 37.1094 C 127.832 35.1074 126.27 33.6426 124.316 33.6426 Z"/>
  </g>
  <g id="Light-L" transform="matrix(1 0 0 1 1070.71 1556)">
   <path d="M 39.5996 -6.73828 L 118.457 -6.73828 C 138.379 -6.73828 153.564 -21.7773 153.564 -40.5762 C 153.564 -59.8633 137.549 -74.0234 116.748 -74.0234 C 108.887 -89.9414 94.9219 -100.244 76.0742 -100.244 C 53.0273 -100.244 34.0332 -81.6895 32.0312 -58.252 C 20.4102 -55.0781 11.2793 -45.6055 11.2793 -32.4219 C 11.2793 -18.2617 21.6797 -6.73828 39.5996 -6.73828 Z M 39.5508 -13.2324 C 25.3906 -13.2324 17.8223 -21.7285 17.8223 -32.2266 C 17.8223 -41.5039 23.7793 -49.0723 34.8633 -52.002 C 37.5 -52.6855 38.3789 -53.8574 38.5742 -56.3477 C 39.8926 -77.3926 56.7383 -93.75 76.0742 -93.75 C 92.2852 -93.75 104.199 -84.668 110.986 -70.5566 C 112.109 -68.1641 113.525 -67.3828 116.357 -67.3828 C 134.766 -67.3828 147.021 -55.3223 147.021 -40.332 C 147.021 -25.3906 134.717 -13.2324 118.75 -13.2324 Z M 124.512 12.0117 L 40.332 12.0117 C 38.7207 12.0117 37.4512 13.1836 37.4512 14.7461 C 37.4512 16.3574 38.7207 17.4805 40.332 17.4805 L 124.512 17.4805 C 126.123 17.4805 127.393 16.3574 127.393 14.7461 C 127.393 13.1836 126.123 12.0117 124.512 12.0117 Z M 124.512 33.4473 L 40.332 33.4473 C 38.7207 33.4473 37.4512 34.6191 37.4512 36.1816 C 37.4512 37.7441 38.7207 38.916 40.332 38.916 L 124.512 38.916 C 126.123 38.916 127.393 37.7441 127.393 36.1816 C 127.393 34.6191 126.123 33.4473 124.512 33.4473 Z"/>
  </g>
  <g id="Thin-L" transform="matrix(1 0 0 1 774.611 1556)">
   <path d="M 38.623 -8.20312 L 117.969 -8.20312 C 137.354 -8.20312 152.344 -22.8027 152.344 -41.0645 C 152.344 -59.7656 136.67 -73.5352 116.26 -73.5352 C 108.398 -89.7461 94.9219 -100.244 75.5859 -100.244 C 53.0273 -100.244 34.4727 -81.6895 32.5195 -58.252 C 20.752 -55.1758 11.2793 -45.9961 11.2793 -32.9102 C 11.2793 -19.3848 21.3379 -8.20312 38.623 -8.20312 Z M 38.623 -11.9629 C 23.5352 -11.9629 15.0391 -21.4355 15.0391 -32.8613 C 15.0391 -43.3594 22.2168 -51.5625 33.5938 -54.541 C 35.5957 -55.0781 36.2305 -55.8594 36.3281 -57.5684 C 37.5488 -79.0039 55.4688 -96.4844 75.5859 -96.4844 C 93.3594 -96.4844 105.811 -86.4258 112.646 -72.168 C 113.525 -70.3125 114.6 -69.7266 116.748 -69.7266 C 134.912 -69.7266 148.535 -57.0312 148.535 -40.918 C 148.535 -25 135.156 -11.9629 118.018 -11.9629 Z M 124.756 11.7676 L 38.8672 11.7676 C 37.7441 11.7676 36.8652 12.5 36.8652 13.5254 C 36.8652 14.5508 37.7441 15.332 38.8672 15.332 L 124.756 15.332 C 125.879 15.332 126.758 14.5508 126.758 13.5254 C 126.758 12.5 125.879 11.7676 124.756 11.7676 Z M 124.756 33.1543 L 38.8672 33.1543 C 37.7441 33.1543 36.8652 33.9355 36.8652 34.9609 C 36.8652 35.9863 37.7441 36.7188 38.8672 36.7188 L 124.756 36.7188 C 125.879 36.7188 126.758 35.9863 126.758 34.9609 C 126.758 33.9355 125.879 33.1543 124.756 33.1543 Z"/>
  </g>
  <g id="Ultralight-L" transform="matrix(1 0 0 1 478.217 1556)">
   <path d="M 38.1348 -8.93555 L 117.725 -8.93555 C 136.816 -8.93555 151.709 -23.291 151.709 -41.3574 C 151.709 -59.7168 136.182 -73.291 116.016 -73.291 C 108.154 -89.6484 94.9219 -100.244 75.3418 -100.244 C 53.0273 -100.244 34.7168 -81.6895 32.8125 -58.252 C 20.9473 -55.2246 11.2793 -46.2402 11.2793 -33.1543 C 11.2793 -19.9219 21.1426 -8.93555 38.1348 -8.93555 Z M 38.1348 -11.3281 C 22.5586 -11.3281 13.6719 -21.2891 13.6719 -33.1543 C 13.6719 -44.3359 21.4355 -52.832 32.9102 -55.8594 C 34.6191 -56.2988 35.1074 -56.9336 35.1562 -58.1543 C 36.377 -79.834 54.7852 -97.8516 75.3418 -97.8516 C 93.8965 -97.8516 106.641 -87.3535 113.525 -72.998 C 114.258 -71.4355 115.137 -70.8984 116.943 -70.8984 C 135.01 -70.8984 149.316 -57.9102 149.316 -41.2109 C 149.316 -24.8047 135.4 -11.3281 117.676 -11.3281 Z M 124.902 11.6211 L 38.0859 11.6211 C 37.2559 11.6211 36.5234 12.1582 36.5234 12.9395 C 36.5234 13.6719 37.2559 14.209 38.0859 14.209 L 124.902 14.209 C 125.732 14.209 126.465 13.6719 126.465 12.9395 C 126.465 12.1582 125.732 11.6211 124.902 11.6211 Z M 124.902 33.0078 L 38.0859 33.0078 C 37.2559 33.0078 36.5234 33.5449 36.5234 34.3262 C 36.5234 35.0586 37.2559 35.5957 38.0859 35.5957 L 124.902 35.5957 C 125.732 35.5957 126.465 35.0586 126.465 34.3262 C 126.465 33.5449 125.732 33.0078 124.902 33.0078 Z"/>
  </g>
  <g id="Black-M" transform="matrix(1 0 0 1 2864.04 1126)">
   <path d="M 36.084 -6.49414 L 98.1934 -6.49414 C 116.162 -6.49414 129.98 -20.2148 129.98 -37.8418 C 129.98 -55.5176 116.602 -69.5801 98.6816 -69.5801 C 93.2129 -79.9805 83.0566 -89.0625 64.6484 -89.0625 C 44.1406 -89.0625 28.7598 -74.7559 25.7324 -56.2988 C 16.0645 -52.6855 8.74023 -44.1895 8.74023 -32.5195 C 8.74023 -17.7246 19.9707 -6.49414 36.084 -6.49414 Z M 36.7188 -22.3633 C 28.5645 -22.3633 24.6094 -26.416 24.6094 -32.2754 C 24.6094 -37.8418 28.2227 -41.5527 35.6934 -43.457 C 39.0625 -44.3359 39.8926 -45.8496 40.4297 -49.2188 C 43.2129 -65.625 52.5879 -73.1934 64.6484 -73.1934 C 73.6328 -73.1934 81.3477 -67.9688 86.7676 -58.1055 C 88.2812 -55.3223 89.8438 -54.3457 93.2617 -54.3457 C 107.91 -54.3457 114.111 -47.0703 114.111 -37.5488 C 114.111 -28.9062 107.812 -22.3633 97.5098 -22.3633 Z M 99.5605 6.98242 L 39.1602 6.98242 C 36.5234 6.98242 34.5215 8.78906 34.5215 11.2305 C 34.5215 13.6719 36.5234 15.4785 39.1602 15.4785 L 99.5605 15.4785 C 102.197 15.4785 104.199 13.6719 104.199 11.2305 C 104.199 8.78906 102.197 6.98242 99.5605 6.98242 Z M 99.5605 23.584 L 39.1602 23.584 C 36.5234 23.584 34.5215 25.3906 34.5215 27.832 C 34.5215 30.2734 36.5234 32.0801 39.1602 32.0801 L 99.5605 32.0801 C 102.197 32.0801 104.199 30.2734 104.199 27.832 C 104.199 25.3906 102.197 23.584 99.5605 23.584 Z"/>
  </g>
  <g id="Heavy-M" transform="matrix(1 0 0 1 2568.48 1126)">
   <path d="M 35.0586 -7.71484 L 96.7773 -7.71484 C 114.307 -7.71484 127.686 -21.0938 127.686 -38.0859 C 127.686 -55.2734 114.453 -68.6523 96.875 -68.6523 C 91.2109 -79.4922 80.8105 -88.2324 63.4277 -88.2324 C 43.4082 -88.2324 28.0762 -73.9258 25.3906 -55.5176 C 15.918 -52.1973 8.74023 -43.8965 8.74023 -32.5195 C 8.74023 -18.5059 19.2871 -7.71484 35.0586 -7.71484 Z M 35.498 -21.6797 C 26.9531 -21.6797 22.7051 -26.123 22.7051 -32.2754 C 22.7051 -37.8906 26.2695 -41.9922 33.9355 -43.9941 C 37.1582 -44.8242 37.9883 -46.2402 38.4766 -49.4629 C 40.8691 -65.7715 50.8789 -74.2676 63.4277 -74.2676 C 72.9004 -74.2676 80.8105 -68.8477 86.2305 -58.7402 C 87.6465 -56.1035 89.1602 -55.127 92.4316 -55.127 C 107.08 -55.127 113.721 -47.5586 113.721 -37.793 C 113.721 -28.7109 106.885 -21.6797 96.3867 -21.6797 Z M 98.7793 5.76172 L 37.6465 5.76172 C 35.2051 5.76172 33.3984 7.42188 33.3984 9.7168 C 33.3984 12.0117 35.2051 13.6719 37.6465 13.6719 L 98.7793 13.6719 C 101.221 13.6719 103.076 12.0117 103.076 9.7168 C 103.076 7.42188 101.221 5.76172 98.7793 5.76172 Z M 98.7793 22.3145 L 37.6465 22.3145 C 35.2051 22.3145 33.3984 24.0234 33.3984 26.3184 C 33.3984 28.5645 35.2051 30.2734 37.6465 30.2734 L 98.7793 30.2734 C 101.221 30.2734 103.076 28.5645 103.076 26.3184 C 103.076 24.0234 101.221 22.3145 98.7793 22.3145 Z"/>
  </g>
  <g id="Bold-M" transform="matrix(1 0 0 1 2273.06 1126)">
   <path d="M 33.8867 -9.08203 L 95.2637 -9.08203 C 112.256 -9.08203 125.098 -22.0215 125.098 -38.3789 C 125.098 -54.9805 112.061 -67.6758 94.8242 -67.6758 C 89.0137 -78.9062 78.3203 -87.3535 62.0605 -87.3535 C 42.627 -87.3535 27.3438 -72.998 25.0488 -54.6875 C 15.7715 -51.6113 8.74023 -43.5059 8.74023 -32.5195 C 8.74023 -19.3848 18.5547 -9.08203 33.8867 -9.08203 Z M 34.1309 -20.8984 C 25.0977 -20.8984 20.6055 -25.7324 20.6055 -32.2754 C 20.6055 -37.9883 24.1211 -42.4805 31.9824 -44.5312 C 35.0098 -45.3613 35.9375 -46.7285 36.3281 -49.8047 C 38.2812 -65.9668 48.9258 -75.4883 62.0605 -75.4883 C 72.0215 -75.4883 80.2246 -69.873 85.5469 -59.5215 C 86.8652 -56.9824 88.3789 -56.0547 91.5527 -56.0547 C 106.104 -56.0547 113.281 -48.0469 113.281 -38.0859 C 113.281 -28.4668 105.859 -20.8984 95.166 -20.8984 Z M 97.9004 4.3457 L 35.9375 4.3457 C 33.7891 4.3457 32.0801 5.9082 32.0801 8.00781 C 32.0801 10.1074 33.7891 11.6699 35.9375 11.6699 L 97.9004 11.6699 C 100.098 11.6699 101.758 10.1074 101.758 8.00781 C 101.758 5.9082 100.098 4.3457 97.9004 4.3457 Z M 97.9004 20.8984 L 35.9375 20.8984 C 33.7891 20.8984 32.0801 22.4609 32.0801 24.5605 C 32.0801 26.6602 33.7891 28.2715 35.9375 28.2715 L 97.9004 28.2715 C 100.098 28.2715 101.758 26.6602 101.758 24.5605 C 101.758 22.4609 100.098 20.8984 97.9004 20.8984 Z"/>
  </g>
  <g id="Semibold-M" transform="matrix(1 0 0 1 1977.23 1126)">
   <path d="M 33.1055 -10.0098 L 94.1895 -10.0098 C 110.791 -10.0098 123.34 -22.6562 123.34 -38.5254 C 123.34 -54.7852 110.4 -66.9922 93.4082 -66.9922 C 87.5 -78.5156 76.5625 -86.7188 61.084 -86.7188 C 42.041 -86.7188 26.8555 -72.3145 24.8047 -54.1016 C 15.6738 -51.2207 8.74023 -43.2617 8.74023 -32.5195 C 8.74023 -19.9707 18.0664 -10.0098 33.1055 -10.0098 Z M 33.2031 -20.4102 C 23.8281 -20.4102 19.1406 -25.4883 19.1406 -32.2754 C 19.1406 -38.0859 22.6074 -42.8223 30.6641 -44.9707 C 33.5449 -45.7031 34.4727 -47.0215 34.8145 -50 C 36.4746 -66.0645 47.6074 -76.3184 61.084 -76.3184 C 71.4355 -76.3184 79.7852 -70.5566 85.1074 -60.0586 C 86.377 -57.5684 87.8418 -56.6895 90.918 -56.6895 C 105.42 -56.6895 112.939 -48.4375 112.939 -38.2812 C 112.939 -28.2715 105.176 -20.4102 94.2871 -20.4102 Z M 97.3145 3.36914 L 34.7656 3.36914 C 32.7637 3.36914 31.2012 4.83398 31.2012 6.83594 C 31.2012 8.78906 32.7637 10.3027 34.7656 10.3027 L 97.3145 10.3027 C 99.3164 10.3027 100.879 8.78906 100.879 6.83594 C 100.879 4.83398 99.3164 3.36914 97.3145 3.36914 Z M 97.3145 19.9219 L 34.7656 19.9219 C 32.7637 19.9219 31.2012 21.4355 31.2012 23.3887 C 31.2012 25.3906 32.7637 26.8555 34.7656 26.8555 L 97.3145 26.8555 C 99.3164 26.8555 100.879 25.3906 100.879 23.3887 C 100.879 21.4355 99.3164 19.9219 97.3145 19.9219 Z"/>
  </g>
  <g id="Medium-M" transform="matrix(1 0 0 1 1681.17 1126)">
   <path d="M 32.4707 -10.6934 L 93.3594 -10.6934 C 109.717 -10.6934 122.021 -23.1445 122.021 -38.6719 C 122.021 -54.5898 109.131 -66.4551 92.3828 -66.4551 C 86.377 -78.2227 75.293 -86.2305 60.4004 -86.2305 C 41.6504 -86.2305 26.4648 -71.875 24.6094 -53.6621 C 15.5762 -50.9277 8.74023 -43.0664 8.74023 -32.5195 C 8.74023 -20.4102 17.6758 -10.6934 32.4707 -10.6934 Z M 32.5195 -19.9707 C 22.8516 -19.9707 18.0176 -25.293 18.0176 -32.2754 C 18.0176 -38.1348 21.4844 -43.1152 29.6387 -45.2637 C 32.4707 -45.9961 33.3984 -47.2656 33.6426 -50.1953 C 35.1074 -66.1621 46.582 -76.9531 60.4004 -76.9531 C 70.9961 -76.9531 79.4922 -71.0938 84.7656 -60.4492 C 85.9863 -58.0078 87.4512 -57.1289 90.4297 -57.1289 C 104.932 -57.1289 112.744 -48.6816 112.744 -38.4277 C 112.744 -28.1738 104.639 -19.9707 93.6523 -19.9707 Z M 96.8262 2.63672 L 33.8867 2.63672 C 31.9824 2.63672 30.5176 4.05273 30.5176 5.9082 C 30.5176 7.8125 31.9824 9.22852 33.8867 9.22852 L 96.8262 9.22852 C 98.7305 9.22852 100.195 7.8125 100.195 5.9082 C 100.195 4.05273 98.7305 2.63672 96.8262 2.63672 Z M 96.8262 19.1895 L 33.8867 19.1895 C 31.9824 19.1895 30.5176 20.6055 30.5176 22.5098 C 30.5176 24.3652 31.9824 25.7812 33.8867 25.7812 L 96.8262 25.7812 C 98.7305 25.7812 100.195 24.3652 100.195 22.5098 C 100.195 20.6055 98.7305 19.1895 96.8262 19.1895 Z"/>
  </g>
  <g id="Regular-M" transform="matrix(1 0 0 1 1385.34 1126)">
   <path d="M 31.6895 -11.6211 L 92.2852 -11.6211 C 108.301 -11.6211 120.264 -23.7793 120.264 -38.8672 C 120.264 -54.3945 107.52 -65.7715 90.9668 -65.7715 C 84.8633 -77.832 73.5352 -85.5957 59.4727 -85.5957 C 41.0645 -85.5957 25.9277 -71.2402 24.3652 -53.0762 C 15.4785 -50.5371 8.74023 -42.8223 8.74023 -32.5195 C 8.74023 -20.9961 17.1387 -11.6211 31.6895 -11.6211 Z M 31.5918 -19.4824 C 21.582 -19.4824 16.5527 -25.0488 16.5527 -32.2754 C 16.5527 -38.1836 19.9707 -43.457 28.2715 -45.6543 C 31.0059 -46.3379 31.9824 -47.6074 32.1777 -50.3906 C 33.3008 -66.3086 45.3125 -77.7832 59.4727 -77.7832 C 70.4102 -77.7832 79.0527 -71.7773 84.3262 -60.9375 C 85.498 -58.5938 86.9141 -57.7637 89.7949 -57.7637 C 104.248 -57.7637 112.402 -49.0234 112.402 -38.623 C 112.402 -27.9785 103.906 -19.4824 92.7734 -19.4824 Z M 96.2402 1.66016 L 32.7148 1.66016 C 31.0059 1.66016 29.6387 2.97852 29.6387 4.78516 C 29.6387 6.54297 31.0059 7.86133 32.7148 7.86133 L 96.2402 7.86133 C 97.998 7.86133 99.3164 6.54297 99.3164 4.78516 C 99.3164 2.97852 97.998 1.66016 96.2402 1.66016 Z M 96.2402 18.2617 L 32.7148 18.2617 C 31.0059 18.2617 29.6387 19.5801 29.6387 21.3379 C 29.6387 23.0957 31.0059 24.4141 32.7148 24.4141 L 96.2402 24.4141 C 97.998 24.4141 99.3164 23.0957 99.3164 21.3379 C 99.3164 19.5801 97.998 18.2617 96.2402 18.2617 Z"/>
  </g>
  <g id="Light-M" transform="matrix(1 0 0 1 1089.05 1126)">
   <path d="M 31.0547 -12.6465 L 91.9434 -12.6465 C 107.617 -12.6465 119.434 -24.4629 119.434 -39.209 C 119.434 -54.3457 106.885 -65.4297 90.6738 -65.4297 C 84.5703 -77.7344 73.5352 -85.5957 59.1309 -85.5957 C 41.0645 -85.5957 26.2207 -71.2402 24.6582 -53.0762 C 15.7227 -50.5859 8.74023 -43.1152 8.74023 -32.8613 C 8.74023 -21.7285 16.9434 -12.6465 31.0547 -12.6465 Z M 30.957 -18.6035 C 20.3125 -18.6035 14.6973 -24.8535 14.6973 -32.7148 C 14.6973 -39.4531 18.9453 -45.1172 27.4414 -47.3633 C 29.6875 -47.9492 30.4688 -48.9746 30.6641 -51.1719 C 31.7383 -67.3828 44.4336 -79.6387 59.1309 -79.6387 C 71.1426 -79.6387 80.1758 -72.9492 85.4492 -62.0605 C 86.4258 -60.0098 87.6465 -59.3262 90.0391 -59.3262 C 104.346 -59.3262 113.428 -50.1953 113.428 -39.0137 C 113.428 -27.7344 104.248 -18.6035 92.2852 -18.6035 Z M 96.4355 1.51367 L 31.7383 1.51367 C 30.3711 1.51367 29.248 2.53906 29.248 3.95508 C 29.248 5.32227 30.3711 6.39648 31.7383 6.39648 L 96.4355 6.39648 C 97.8027 6.39648 98.9258 5.32227 98.9258 3.95508 C 98.9258 2.53906 97.8027 1.51367 96.4355 1.51367 Z M 96.4355 18.0664 L 31.7383 18.0664 C 30.3711 18.0664 29.248 19.0918 29.248 20.5078 C 29.248 21.9238 30.3711 22.9492 31.7383 22.9492 L 96.4355 22.9492 C 97.8027 22.9492 98.9258 21.9238 98.9258 20.5078 C 98.9258 19.0918 97.8027 18.0664 96.4355 18.0664 Z"/>
  </g>
  <g id="Thin-M" transform="matrix(1 0 0 1 792.897 1126)">
   <path d="M 30.1758 -13.9648 L 91.5039 -13.9648 C 106.641 -13.9648 118.311 -25.3418 118.311 -39.6484 C 118.311 -54.248 106.104 -64.9902 90.2344 -64.9902 C 84.1309 -77.5391 73.5352 -85.5957 58.6914 -85.5957 C 41.0645 -85.5957 26.6113 -71.2402 25.0977 -53.0762 C 16.0156 -50.6836 8.74023 -43.5059 8.74023 -33.3008 C 8.74023 -22.7051 16.6016 -13.9648 30.1758 -13.9648 Z M 30.127 -17.4805 C 18.6523 -17.4805 12.2559 -24.6094 12.2559 -33.252 C 12.2559 -41.1133 17.5781 -47.3633 26.2695 -49.6582 C 27.9785 -50.0977 28.5645 -50.7812 28.6133 -52.2461 C 29.5898 -68.7988 43.2617 -82.0801 58.6914 -82.0801 C 72.1191 -82.0801 81.6406 -74.5117 86.9629 -63.4766 C 87.6953 -61.9629 88.5742 -61.4258 90.4297 -61.4258 C 104.541 -61.4258 114.795 -51.7578 114.795 -39.502 C 114.795 -27.3926 104.639 -17.4805 91.6504 -17.4805 Z M 96.6309 1.26953 L 30.4199 1.26953 C 29.4922 1.26953 28.7109 1.9043 28.7109 2.83203 C 28.7109 3.75977 29.4922 4.44336 30.4199 4.44336 L 96.6309 4.44336 C 97.6074 4.44336 98.3887 3.75977 98.3887 2.83203 C 98.3887 1.9043 97.6074 1.26953 96.6309 1.26953 Z M 96.6309 17.8223 L 30.4199 17.8223 C 29.4922 17.8223 28.7109 18.5059 28.7109 19.4336 C 28.7109 20.3125 29.4922 20.9961 30.4199 20.9961 L 96.6309 20.9961 C 97.6074 20.9961 98.3887 20.3125 98.3887 19.4336 C 98.3887 18.5059 97.6074 17.8223 96.6309 17.8223 Z"/>
  </g>
  <g id="Ultralight-M" transform="matrix(1 0 0 1 496.454 1126)">
   <path d="M 29.6875 -14.5996 L 91.3086 -14.5996 C 106.152 -14.5996 117.773 -25.8301 117.773 -39.8926 C 117.773 -54.1992 105.664 -64.7949 89.9902 -64.7949 C 83.8867 -77.4414 73.5352 -85.5957 58.4473 -85.5957 C 41.0645 -85.5957 26.8066 -71.2402 25.3418 -53.0762 C 16.1621 -50.7324 8.74023 -43.7012 8.74023 -33.5449 C 8.74023 -23.1934 16.4551 -14.5996 29.6875 -14.5996 Z M 29.6875 -16.8945 C 17.7734 -16.8945 10.9863 -24.4629 10.9863 -33.5449 C 10.9863 -41.9922 16.8457 -48.4863 25.6836 -50.8301 C 27.0996 -51.1719 27.5391 -51.709 27.5879 -52.832 C 28.5156 -69.5312 42.6758 -83.3496 58.4473 -83.3496 C 72.6074 -83.3496 82.4219 -75.3418 87.6953 -64.2578 C 88.3301 -62.9395 89.0625 -62.5 90.5762 -62.5 C 104.59 -62.5 115.479 -52.5391 115.479 -39.7461 C 115.479 -27.1973 104.883 -16.8945 91.3086 -16.8945 Z M 96.7285 1.12305 L 29.7363 1.12305 C 29.0039 1.12305 28.418 1.61133 28.418 2.29492 C 28.418 2.92969 29.0039 3.41797 29.7363 3.41797 L 96.7285 3.41797 C 97.4609 3.41797 98.0957 2.92969 98.0957 2.29492 C 98.0957 1.61133 97.4609 1.12305 96.7285 1.12305 Z M 96.7285 17.7246 L 29.7363 17.7246 C 29.0039 17.7246 28.418 18.1641 28.418 18.8477 C 28.418 19.5312 29.0039 20.0195 29.7363 20.0195 L 96.7285 20.0195 C 97.4609 20.0195 98.0957 19.5312 98.0957 18.8477 C 98.0957 18.1641 97.4609 17.7246 96.7285 17.7246 Z"/>
  </g>
  <g id="Black-S" transform="matrix(1 0 0 1 2879.15 696)">
   <path d="M 28.1738 -12.793 L 76.8066 -12.793 C 90.8691 -12.793 101.66 -23.5352 101.66 -37.3047 C 101.66 -51.123 91.1621 -62.0605 77.1484 -62.0605 C 72.8516 -70.2637 64.8926 -77.3438 50.5371 -77.3438 C 34.5215 -77.3438 22.4609 -66.1133 20.1172 -51.6602 C 12.5488 -48.877 6.83594 -42.2363 6.83594 -33.1055 C 6.83594 -21.582 15.5762 -12.793 28.1738 -12.793 Z M 28.6621 -25.0977 C 22.2656 -25.0977 19.1406 -28.3203 19.1406 -32.9102 C 19.1406 -37.2559 21.9727 -40.1855 27.832 -41.6992 C 30.4688 -42.3828 31.1035 -43.5547 31.543 -46.1914 C 33.6914 -59.0332 41.0645 -65.0391 50.5371 -65.0391 C 57.6172 -65.0391 63.6719 -60.9375 67.9199 -53.1738 C 69.0918 -51.0254 70.3125 -50.2441 72.998 -50.2441 C 84.4727 -50.2441 89.3555 -44.5312 89.3555 -37.0605 C 89.3555 -30.2734 84.375 -25.0977 76.3184 -25.0977 Z M 77.9297 -2.24609 L 30.5664 -2.24609 C 28.5156 -2.24609 26.9531 -0.830078 26.9531 1.07422 C 26.9531 2.97852 28.5156 4.39453 30.5664 4.39453 L 77.9297 4.39453 C 79.9805 4.39453 81.543 2.97852 81.543 1.07422 C 81.543 -0.830078 79.9805 -2.24609 77.9297 -2.24609 Z M 77.9297 10.7422 L 30.5664 10.7422 C 28.5156 10.7422 26.9531 12.1582 26.9531 14.0625 C 26.9531 15.9668 28.5156 17.3828 30.5664 17.3828 L 77.9297 17.3828 C 79.9805 17.3828 81.543 15.9668 81.543 14.0625 C 81.543 12.1582 79.9805 10.7422 77.9297 10.7422 Z"/>
  </g>
  <g id="Heavy-S" transform="matrix(1 0 0 1 2583.27 696)">
   <path d="M 27.4414 -13.623 L 75.7812 -13.623 C 89.5508 -13.623 100 -24.1211 100 -37.4512 C 100 -50.9277 89.5996 -61.4258 75.7812 -61.4258 C 71.3867 -69.873 63.1836 -76.709 49.6582 -76.709 C 33.9844 -76.709 21.9238 -65.4785 19.8242 -51.0742 C 12.4023 -48.4863 6.83594 -41.9434 6.83594 -33.0566 C 6.83594 -22.0703 15.0879 -13.623 27.4414 -13.623 Z M 27.832 -24.6582 C 21.1426 -24.6582 17.9199 -28.0762 17.9199 -32.8613 C 17.9199 -37.1582 20.6055 -40.332 26.6113 -41.8945 C 29.1504 -42.5781 29.834 -43.7012 30.2246 -46.2891 C 32.0801 -59.0332 39.8438 -65.6738 49.6582 -65.6738 C 56.9336 -65.6738 63.1348 -61.4746 67.334 -53.5645 C 68.457 -51.4648 69.7266 -50.6836 72.3633 -50.6836 C 83.7891 -50.6836 88.916 -44.7754 88.916 -37.207 C 88.916 -30.127 83.6426 -24.6582 75.5371 -24.6582 Z M 77.2949 -3.17383 L 29.4922 -3.17383 C 27.5879 -3.17383 26.123 -1.80664 26.123 0 C 26.123 1.80664 27.5879 3.17383 29.4922 3.17383 L 77.2949 3.17383 C 79.248 3.17383 80.7129 1.80664 80.7129 0 C 80.7129 -1.80664 79.248 -3.17383 77.2949 -3.17383 Z M 77.2949 9.81445 L 29.4922 9.81445 C 27.5879 9.81445 26.123 11.1816 26.123 12.9883 C 26.123 14.7949 27.5879 16.1621 29.4922 16.1621 L 77.2949 16.1621 C 79.248 16.1621 80.7129 14.7949 80.7129 12.9883 C 80.7129 11.1816 79.248 9.81445 77.2949 9.81445 Z"/>
  </g>
  <g id="Bold-S" transform="matrix(1 0 0 1 2287.49 696)">
   <path d="M 26.6602 -14.5508 L 74.6094 -14.5508 C 88.0371 -14.5508 98.1445 -24.7559 98.1445 -37.5977 C 98.1445 -50.6836 87.8418 -60.6934 74.2676 -60.6934 C 69.7266 -69.4824 61.2793 -76.0254 48.6328 -76.0254 C 33.3496 -76.0254 21.2891 -64.7949 19.5312 -50.4395 C 12.2559 -48.0469 6.83594 -41.6504 6.83594 -33.0566 C 6.83594 -22.6562 14.5508 -14.5508 26.6602 -14.5508 Z M 26.8555 -24.2188 C 19.873 -24.2188 16.5039 -27.832 16.5039 -32.8125 C 16.5039 -37.1094 19.043 -40.5273 25.1953 -42.1387 C 27.6855 -42.7734 28.418 -43.8965 28.7598 -46.4355 C 30.2734 -59.0332 38.4766 -66.3574 48.6328 -66.3574 C 56.2012 -66.3574 62.5488 -62.1094 66.6992 -54.0039 C 67.8223 -51.9043 69.043 -51.1719 71.582 -51.1719 C 83.0566 -51.1719 88.4766 -45.0195 88.4766 -37.4023 C 88.4766 -29.9805 82.8125 -24.2188 74.6094 -24.2188 Z M 76.6113 -4.24805 L 28.3203 -4.24805 C 26.5625 -4.24805 25.1953 -2.92969 25.1953 -1.2207 C 25.1953 0.537109 26.5625 1.80664 28.3203 1.80664 L 76.6113 1.80664 C 78.418 1.80664 79.7852 0.537109 79.7852 -1.2207 C 79.7852 -2.92969 78.418 -4.24805 76.6113 -4.24805 Z M 76.6113 8.74023 L 28.3203 8.74023 C 26.5625 8.74023 25.1953 10.0586 25.1953 11.7676 C 25.1953 13.5254 26.5625 14.7949 28.3203 14.7949 L 76.6113 14.7949 C 78.418 14.7949 79.7852 13.5254 79.7852 11.7676 C 79.7852 10.0586 78.418 8.74023 76.6113 8.74023 Z"/>
  </g>
  <g id="Semibold-S" transform="matrix(1 0 0 1 1991.44 696)">
   <path d="M 26.123 -15.1855 L 73.8281 -15.1855 C 87.0117 -15.1855 96.8262 -25.1953 96.8262 -37.6953 C 96.8262 -50.5371 86.6211 -60.2051 73.2422 -60.2051 C 68.6035 -69.1895 59.9121 -75.5371 47.9492 -75.5371 C 32.9102 -75.5371 20.8984 -64.2578 19.2871 -50 C 12.1582 -47.7051 6.83594 -41.4551 6.83594 -33.0078 C 6.83594 -23.0469 14.209 -15.1855 26.123 -15.1855 Z M 26.2207 -23.877 C 19.043 -23.877 15.5273 -27.6855 15.5273 -32.7637 C 15.5273 -37.0117 18.0176 -40.625 24.2676 -42.2852 C 26.6602 -42.9199 27.4414 -44.043 27.7344 -46.5332 C 29.0039 -59.0332 37.5488 -66.8457 47.9492 -66.8457 C 55.7129 -66.8457 62.1094 -62.5488 66.2598 -54.3457 C 67.334 -52.2461 68.5547 -51.5137 71.0938 -51.5137 C 82.5195 -51.5137 88.1348 -45.166 88.1348 -37.5 C 88.1348 -29.8828 82.2266 -23.877 74.0234 -23.877 Z M 76.1719 -4.98047 L 27.5391 -4.98047 C 25.8301 -4.98047 24.5605 -3.71094 24.5605 -2.05078 C 24.5605 -0.390625 25.8301 0.878906 27.5391 0.878906 L 76.1719 0.878906 C 77.832 0.878906 79.1504 -0.390625 79.1504 -2.05078 C 79.1504 -3.71094 77.832 -4.98047 76.1719 -4.98047 Z M 76.1719 8.00781 L 27.5391 8.00781 C 25.8301 8.00781 24.5605 9.27734 24.5605 10.9375 C 24.5605 12.5977 25.8301 13.8672 27.5391 13.8672 L 76.1719 13.8672 C 77.832 13.8672 79.1504 12.5977 79.1504 10.9375 C 79.1504 9.27734 77.832 8.00781 76.1719 8.00781 Z"/>
  </g>
  <g id="Medium-S" transform="matrix(1 0 0 1 1695.21 696)">
   <path d="M 25.6836 -15.625 L 73.2422 -15.625 C 86.2305 -15.625 95.8496 -25.4883 95.8496 -37.793 C 95.8496 -50.4395 85.7422 -59.8145 72.4609 -59.8145 C 67.7734 -68.9453 58.9355 -75.1953 47.4121 -75.1953 C 32.6172 -75.1953 20.5566 -63.916 19.1406 -49.6582 C 12.1094 -47.4609 6.83594 -41.2598 6.83594 -33.0078 C 6.83594 -23.3398 13.916 -15.625 25.6836 -15.625 Z M 25.6836 -23.6328 C 18.3594 -23.6328 14.8438 -27.5391 14.8438 -32.7637 C 14.8438 -36.9629 17.1875 -40.7227 23.5352 -42.3828 C 25.8789 -43.0176 26.709 -44.1406 26.9531 -46.6309 C 28.0762 -59.0332 36.8164 -67.1875 47.4121 -67.1875 C 55.3223 -67.1875 61.8164 -62.8418 65.918 -54.541 C 66.9922 -52.4902 68.2129 -51.7578 70.7031 -51.7578 C 82.1289 -51.7578 87.8906 -45.3125 87.8906 -37.5977 C 87.8906 -29.7852 81.8359 -23.6328 73.5352 -23.6328 Z M 75.7812 -5.51758 L 26.9043 -5.51758 C 25.293 -5.51758 24.0723 -4.29688 24.0723 -2.68555 C 24.0723 -1.07422 25.293 0.146484 26.9043 0.146484 L 75.7812 0.146484 C 77.3926 0.146484 78.6621 -1.07422 78.6621 -2.68555 C 78.6621 -4.29688 77.3926 -5.51758 75.7812 -5.51758 Z M 75.7812 7.4707 L 26.9043 7.4707 C 25.293 7.4707 24.0723 8.69141 24.0723 10.3027 C 24.0723 11.9141 25.293 13.1348 26.9043 13.1348 L 75.7812 13.1348 C 77.3926 13.1348 78.6621 11.9141 78.6621 10.3027 C 78.6621 8.69141 77.3926 7.4707 75.7812 7.4707 Z"/>
  </g>
  <g id="Regular-S" transform="matrix(1 0 0 1 1399.14 696)">
   <path d="M 25.1465 -16.2598 L 72.4609 -16.2598 C 85.2051 -16.2598 94.5801 -25.9277 94.5801 -37.8906 C 94.5801 -50.293 84.5215 -59.3262 71.4355 -59.3262 C 66.6504 -68.7012 57.6172 -74.707 46.7285 -74.707 C 32.1777 -74.707 20.166 -63.4277 18.8965 -49.2188 C 12.0117 -47.168 6.83594 -41.0645 6.83594 -32.959 C 6.83594 -23.6816 13.5254 -16.2598 25.1465 -16.2598 Z M 25.0488 -23.291 C 17.5293 -23.291 13.8672 -27.3438 13.8672 -32.7148 C 13.8672 -36.9141 16.1621 -40.8203 22.5586 -42.5293 C 24.9023 -43.1641 25.7324 -44.2383 25.9277 -46.7285 C 26.8555 -59.0332 35.8887 -67.6758 46.7285 -67.6758 C 54.7852 -67.6758 61.4258 -63.2812 65.5273 -54.834 C 66.5039 -52.832 67.7246 -52.0996 70.2148 -52.0996 C 81.5918 -52.0996 87.5488 -45.5078 87.5488 -37.6953 C 87.5488 -29.6875 81.25 -23.291 72.9004 -23.291 Z M 75.3418 -6.25 L 26.123 -6.25 C 24.6094 -6.25 23.4375 -5.0293 23.4375 -3.51562 C 23.4375 -1.95312 24.6094 -0.78125 26.123 -0.78125 L 75.3418 -0.78125 C 76.8066 -0.78125 78.0273 -1.95312 78.0273 -3.51562 C 78.0273 -5.0293 76.8066 -6.25 75.3418 -6.25 Z M 75.3418 6.73828 L 26.123 6.73828 C 24.6094 6.73828 23.4375 7.95898 23.4375 9.47266 C 23.4375 11.0352 24.6094 12.207 26.123 12.207 L 75.3418 12.207 C 76.8066 12.207 78.0273 11.0352 78.0273 9.47266 C 78.0273 7.95898 76.8066 6.73828 75.3418 6.73828 Z"/>
  </g>
  <g id="Light-S" transform="matrix(1 0 0 1 1102.79 696)">
   <path d="M 24.5605 -17.1387 L 72.168 -17.1387 C 84.5703 -17.1387 93.8477 -26.5137 93.8477 -38.1836 C 93.8477 -50.2441 83.9844 -59.0332 71.1426 -59.0332 C 66.3574 -68.5547 57.6172 -74.707 46.4355 -74.707 C 32.1777 -74.707 20.4102 -63.4277 19.1895 -49.2188 C 12.207 -47.2168 6.83594 -41.3086 6.83594 -33.252 C 6.83594 -24.3652 13.3301 -17.1387 24.5605 -17.1387 Z M 24.5117 -22.5586 C 16.4062 -22.5586 12.207 -27.1973 12.207 -33.1055 C 12.207 -38.0371 15.2344 -42.334 21.8262 -44.0918 C 23.7305 -44.5801 24.4629 -45.459 24.6094 -47.4121 C 25.4395 -60.0098 35.1074 -69.3359 46.4355 -69.3359 C 55.4688 -69.3359 62.4023 -64.3066 66.5039 -55.8105 C 67.334 -54.1016 68.3594 -53.5156 70.459 -53.5156 C 81.6895 -53.5156 88.4766 -46.5332 88.4766 -38.0371 C 88.4766 -29.4434 81.543 -22.5586 72.4609 -22.5586 Z M 75.4883 -6.39648 L 25.2441 -6.39648 C 24.0234 -6.39648 23.0469 -5.46875 23.0469 -4.24805 C 23.0469 -2.97852 24.0234 -2.05078 25.2441 -2.05078 L 75.4883 -2.05078 C 76.6602 -2.05078 77.6367 -2.97852 77.6367 -4.24805 C 77.6367 -5.46875 76.6602 -6.39648 75.4883 -6.39648 Z M 75.4883 6.5918 L 25.2441 6.5918 C 24.0234 6.5918 23.0469 7.51953 23.0469 8.74023 C 23.0469 10.0098 24.0234 10.9375 25.2441 10.9375 L 75.4883 10.9375 C 76.6602 10.9375 77.6367 10.0098 77.6367 8.74023 C 77.6367 7.51953 76.6602 6.5918 75.4883 6.5918 Z"/>
  </g>
  <g id="Thin-S" transform="matrix(1 0 0 1 806.544 696)">
   <path d="M 23.7793 -18.3105 L 71.7773 -18.3105 C 83.7402 -18.3105 92.9199 -27.3438 92.9199 -38.623 C 92.9199 -50.1465 83.252 -58.6426 70.752 -58.6426 C 65.9668 -68.4082 57.6172 -74.707 46.0449 -74.707 C 32.1777 -74.707 20.752 -63.4277 19.5801 -49.2188 C 12.4512 -47.3145 6.83594 -41.6504 6.83594 -33.6426 C 6.83594 -25.2441 13.0859 -18.3105 23.7793 -18.3105 Z M 23.7793 -21.5332 C 14.8926 -21.5332 10.0586 -26.9531 10.0586 -33.5938 C 10.0586 -39.5508 14.0137 -44.2871 20.8008 -46.0938 C 22.2656 -46.4844 22.7051 -47.0703 22.8027 -48.3887 C 23.584 -61.2793 34.082 -71.4844 46.0449 -71.4844 C 56.2988 -71.4844 63.6719 -65.7227 67.8223 -57.0801 C 68.457 -55.8105 69.1895 -55.3711 70.752 -55.3711 C 81.8359 -55.3711 89.6484 -47.8516 89.6484 -38.4766 C 89.6484 -29.1504 81.8848 -21.5332 71.9238 -21.5332 Z M 75.6348 -6.5918 L 24.0723 -6.5918 C 23.2422 -6.5918 22.5586 -6.00586 22.5586 -5.17578 C 22.5586 -4.39453 23.2422 -3.80859 24.0723 -3.80859 L 75.6348 -3.80859 C 76.5137 -3.80859 77.1484 -4.39453 77.1484 -5.17578 C 77.1484 -6.00586 76.5137 -6.5918 75.6348 -6.5918 Z M 75.6348 6.39648 L 24.0723 6.39648 C 23.2422 6.39648 22.5586 6.98242 22.5586 7.8125 C 22.5586 8.59375 23.2422 9.17969 24.0723 9.17969 L 75.6348 9.17969 C 76.5137 9.17969 77.1484 8.59375 77.1484 7.8125 C 77.1484 6.98242 76.5137 6.39648 75.6348 6.39648 Z"/>
  </g>
  <g id="Ultralight-S" transform="matrix(1 0 0 1 510.102 696)">
   <path d="M 23.3887 -18.8965 L 71.582 -18.8965 C 83.3008 -18.8965 92.3828 -27.7344 92.3828 -38.8184 C 92.3828 -50.0977 82.9102 -58.4473 70.5566 -58.4473 C 65.7715 -68.3105 57.6172 -74.707 45.8496 -74.707 C 32.1777 -74.707 20.9473 -63.4277 19.7754 -49.2188 C 12.5977 -47.3633 6.83594 -41.7969 6.83594 -33.8379 C 6.83594 -25.6836 12.9395 -18.8965 23.3887 -18.8965 Z M 23.3887 -20.9961 C 14.1602 -20.9961 8.93555 -26.8555 8.93555 -33.8379 C 8.93555 -40.2832 13.3789 -45.3125 20.2637 -47.1191 C 21.4844 -47.4121 21.8262 -47.9004 21.875 -48.877 C 22.6074 -61.9141 33.5449 -72.6074 45.8496 -72.6074 C 56.7383 -72.6074 64.3555 -66.4551 68.5059 -57.7637 C 68.9941 -56.6895 69.6289 -56.3477 70.8984 -56.3477 C 81.9336 -56.3477 90.2832 -48.584 90.2832 -38.7207 C 90.2832 -29.0039 82.0801 -20.9961 71.582 -20.9961 Z M 75.7812 -6.68945 L 23.4863 -6.68945 C 22.8516 -6.68945 22.3145 -6.29883 22.3145 -5.71289 C 22.3145 -5.12695 22.8516 -4.6875 23.4863 -4.6875 L 75.7812 -4.6875 C 76.3672 -4.6875 76.9043 -5.12695 76.9043 -5.71289 C 76.9043 -6.29883 76.3672 -6.68945 75.7812 -6.68945 Z M 75.7812 6.29883 L 23.4863 6.29883 C 22.8516 6.29883 22.3145 6.68945 22.3145 7.27539 C 22.3145 7.86133 22.8516 8.30078 23.4863 8.30078 L 75.7812 8.30078 C 76.3672 8.30078 76.9043 7.86133 76.9043 7.27539 C 76.9043 6.68945 76.3672 6.29883 75.7812 6.29883 Z"/>
  </g>
 </g>
</svg>
