<?xml version="1.0" encoding="UTF-8"?>
<!--Generator: Apple Native CoreSVG 123-->
<!DOCTYPE svg
PUBLIC "-//W3C//DTD SVG 1.1//EN"
       "http://www.w3.org/Graphics/SVG/1.1/DTD/svg11.dtd">
<svg version="1.1" xmlns="http://www.w3.org/2000/svg" xmlns:xlink="http://www.w3.org/1999/xlink" width="3300" height="2200">
 <!--glyph: "uni1001DF.medium", point size: 100.000000, font version: "Version 15.0d7e11", template writer version: "5"-->
 <g id="Notes">
  <rect height="2200" id="artboard" style="fill:white;opacity:1" width="3300" x="0" y="0"/>
  <line id="" style="fill:none;stroke:black;opacity:1;stroke-width:0.5;" x1="263" x2="3036" y1="292" y2="292"/>
  <text style="stroke:none;fill:black;font-family:-apple-system,&quot;SF Pro Display&quot;,&quot;SF Pro Text&quot;,Helvetica,sans-serif;font-weight:bold;" transform="matrix(1 0 0 1 263 322)">Weight/Scale Variations</text>
  <text style="stroke:none;fill:black;font-family:-apple-system,&quot;SF Pro Display&quot;,&quot;SF Pro Text&quot;,Helvetica,sans-serif;text-anchor:middle;" transform="matrix(1 0 0 1 559.711 322)">Ultralight</text>
  <text style="stroke:none;fill:black;font-family:-apple-system,&quot;SF Pro Display&quot;,&quot;SF Pro Text&quot;,Helvetica,sans-serif;text-anchor:middle;" transform="matrix(1 0 0 1 856.422 322)">Thin</text>
  <text style="stroke:none;fill:black;font-family:-apple-system,&quot;SF Pro Display&quot;,&quot;SF Pro Text&quot;,Helvetica,sans-serif;text-anchor:middle;" transform="matrix(1 0 0 1 1153.13 322)">Light</text>
  <text style="stroke:none;fill:black;font-family:-apple-system,&quot;SF Pro Display&quot;,&quot;SF Pro Text&quot;,Helvetica,sans-serif;text-anchor:middle;" transform="matrix(1 0 0 1 1449.84 322)">Regular</text>
  <text style="stroke:none;fill:black;font-family:-apple-system,&quot;SF Pro Display&quot;,&quot;SF Pro Text&quot;,Helvetica,sans-serif;text-anchor:middle;" transform="matrix(1 0 0 1 1746.56 322)">Medium</text>
  <text style="stroke:none;fill:black;font-family:-apple-system,&quot;SF Pro Display&quot;,&quot;SF Pro Text&quot;,Helvetica,sans-serif;text-anchor:middle;" transform="matrix(1 0 0 1 2043.27 322)">Semibold</text>
  <text style="stroke:none;fill:black;font-family:-apple-system,&quot;SF Pro Display&quot;,&quot;SF Pro Text&quot;,Helvetica,sans-serif;text-anchor:middle;" transform="matrix(1 0 0 1 2339.98 322)">Bold</text>
  <text style="stroke:none;fill:black;font-family:-apple-system,&quot;SF Pro Display&quot;,&quot;SF Pro Text&quot;,Helvetica,sans-serif;text-anchor:middle;" transform="matrix(1 0 0 1 2636.69 322)">Heavy</text>
  <text style="stroke:none;fill:black;font-family:-apple-system,&quot;SF Pro Display&quot;,&quot;SF Pro Text&quot;,Helvetica,sans-serif;text-anchor:middle;" transform="matrix(1 0 0 1 2933.4 322)">Black</text>
  <line id="" style="fill:none;stroke:black;opacity:1;stroke-width:0.5;" x1="263" x2="3036" y1="1903" y2="1903"/>
  <g id="" transform="matrix(1 0 0 1 263 1933)">
   <path d="M 9.24805 0.830078 C 13.5547 0.830078 17.1387 -2.74414 17.1387 -7.05078 C 17.1387 -11.3574 13.5449 -14.9316 9.23828 -14.9316 C 4.94141 -14.9316 1.36719 -11.3574 1.36719 -7.05078 C 1.36719 -2.74414 4.95117 0.830078 9.24805 0.830078 Z M 9.24805 -0.654297 C 5.70312 -0.654297 2.87109 -3.49609 2.87109 -7.05078 C 2.87109 -10.6055 5.69336 -13.4473 9.23828 -13.4473 C 12.793 -13.4473 15.6348 -10.6055 15.6445 -7.05078 C 15.6543 -3.49609 12.8027 -0.654297 9.24805 -0.654297 Z M 9.22852 -3.42773 C 9.69727 -3.42773 9.9707 -3.74023 9.9707 -4.25781 L 9.9707 -6.31836 L 12.1973 -6.31836 C 12.6953 -6.31836 13.0371 -6.57227 13.0371 -7.04102 C 13.0371 -7.51953 12.7148 -7.7832 12.1973 -7.7832 L 9.9707 -7.7832 L 9.9707 -10.0098 C 9.9707 -10.5273 9.69727 -10.8496 9.22852 -10.8496 C 8.75977 -10.8496 8.50586 -10.5078 8.50586 -10.0098 L 8.50586 -7.7832 L 6.29883 -7.7832 C 5.78125 -7.7832 5.44922 -7.51953 5.44922 -7.04102 C 5.44922 -6.57227 5.80078 -6.31836 6.29883 -6.31836 L 8.50586 -6.31836 L 8.50586 -4.25781 C 8.50586 -3.75977 8.75977 -3.42773 9.22852 -3.42773 Z"/>
  </g>
  <g id="" transform="matrix(1 0 0 1 281.506 1933)">
   <path d="M 11.709 2.91016 C 17.1582 2.91016 21.6699 -1.60156 21.6699 -7.05078 C 21.6699 -12.4902 17.1484 -17.0117 11.6992 -17.0117 C 6.25977 -17.0117 1.74805 -12.4902 1.74805 -7.05078 C 1.74805 -1.60156 6.26953 2.91016 11.709 2.91016 Z M 11.709 1.25 C 7.09961 1.25 3.41797 -2.44141 3.41797 -7.05078 C 3.41797 -11.6504 7.08984 -15.3516 11.6992 -15.3516 C 16.3086 -15.3516 20 -11.6504 20.0098 -7.05078 C 20.0195 -2.44141 16.3184 1.25 11.709 1.25 Z M 11.6895 -2.41211 C 12.207 -2.41211 12.5195 -2.77344 12.5195 -3.33984 L 12.5195 -6.23047 L 15.5762 -6.23047 C 16.123 -6.23047 16.5039 -6.51367 16.5039 -7.03125 C 16.5039 -7.55859 16.1426 -7.86133 15.5762 -7.86133 L 12.5195 -7.86133 L 12.5195 -10.9277 C 12.5195 -11.5039 12.207 -11.8555 11.6895 -11.8555 C 11.1719 -11.8555 10.8789 -11.4844 10.8789 -10.9277 L 10.8789 -7.86133 L 7.83203 -7.86133 C 7.26562 -7.86133 6.89453 -7.55859 6.89453 -7.03125 C 6.89453 -6.51367 7.28516 -6.23047 7.83203 -6.23047 L 10.8789 -6.23047 L 10.8789 -3.33984 C 10.8789 -2.79297 11.1719 -2.41211 11.6895 -2.41211 Z"/>
  </g>
  <g id="" transform="matrix(1 0 0 1 304.924 1933)">
   <path d="M 14.9707 5.67383 C 21.9336 5.67383 27.6953 -0.078125 27.6953 -7.04102 C 27.6953 -14.0039 21.9238 -19.7559 14.9609 -19.7559 C 8.00781 -19.7559 2.25586 -14.0039 2.25586 -7.04102 C 2.25586 -0.078125 8.01758 5.67383 14.9707 5.67383 Z M 14.9707 3.85742 C 8.93555 3.85742 4.08203 -1.00586 4.08203 -7.04102 C 4.08203 -13.0762 8.92578 -17.9395 14.9609 -17.9395 C 21.0059 -17.9395 25.8594 -13.0762 25.8691 -7.04102 C 25.8789 -1.00586 21.0156 3.85742 14.9707 3.85742 Z M 14.9512 -1.06445 C 15.5176 -1.06445 15.8691 -1.45508 15.8691 -2.06055 L 15.8691 -6.13281 L 20.1074 -6.13281 C 20.6934 -6.13281 21.1133 -6.46484 21.1133 -7.02148 C 21.1133 -7.59766 20.7227 -7.93945 20.1074 -7.93945 L 15.8691 -7.93945 L 15.8691 -12.1875 C 15.8691 -12.8027 15.5176 -13.1934 14.9512 -13.1934 C 14.3848 -13.1934 14.0625 -12.7832 14.0625 -12.1875 L 14.0625 -7.93945 L 9.83398 -7.93945 C 9.21875 -7.93945 8.80859 -7.59766 8.80859 -7.02148 C 8.80859 -6.46484 9.23828 -6.13281 9.83398 -6.13281 L 14.0625 -6.13281 L 14.0625 -2.06055 C 14.0625 -1.47461 14.3848 -1.06445 14.9512 -1.06445 Z"/>
  </g>
  <text style="stroke:none;fill:black;font-family:-apple-system,&quot;SF Pro Display&quot;,&quot;SF Pro Text&quot;,Helvetica,sans-serif;font-weight:bold;" transform="matrix(1 0 0 1 263 1953)">Design Variations</text>
  <text style="stroke:none;fill:black;font-family:-apple-system,&quot;SF Pro Display&quot;,&quot;SF Pro Text&quot;,Helvetica,sans-serif;" transform="matrix(1 0 0 1 263 1971)">Symbols are supported in up to nine weights and three scales.</text>
  <text style="stroke:none;fill:black;font-family:-apple-system,&quot;SF Pro Display&quot;,&quot;SF Pro Text&quot;,Helvetica,sans-serif;" transform="matrix(1 0 0 1 263 1989)">For optimal layout with text and other symbols, vertically align</text>
  <text style="stroke:none;fill:black;font-family:-apple-system,&quot;SF Pro Display&quot;,&quot;SF Pro Text&quot;,Helvetica,sans-serif;" transform="matrix(1 0 0 1 263 2007)">symbols with the adjacent text.</text>
  <rect height="14" id="" style="fill:#00AEEF;stroke:none;opacity:0.4;" width="3" x="776" y="1919"/>
  <g id="" transform="matrix(1 0 0 1 779 1933)">
   <path d="M 10.5273 0 L 12.373 0 L 7.17773 -14.0918 L 5.43945 -14.0918 L 0.244141 0 L 2.08984 0 L 3.50586 -4.0332 L 9.11133 -4.0332 Z M 6.2793 -11.9531 L 6.33789 -11.9531 L 8.59375 -5.52734 L 4.02344 -5.52734 Z"/>
  </g>
  <rect height="14" id="" style="fill:#00AEEF;stroke:none;opacity:0.4;" width="3" x="791.617" y="1919"/>
  <text style="stroke:none;fill:black;font-family:-apple-system,&quot;SF Pro Display&quot;,&quot;SF Pro Text&quot;,Helvetica,sans-serif;font-weight:bold;" transform="matrix(1 0 0 1 776 1953)">Margins</text>
  <text style="stroke:none;fill:black;font-family:-apple-system,&quot;SF Pro Display&quot;,&quot;SF Pro Text&quot;,Helvetica,sans-serif;" transform="matrix(1 0 0 1 776 1971)">Leading and trailing margins on the left and right side of each symbol</text>
  <text style="stroke:none;fill:black;font-family:-apple-system,&quot;SF Pro Display&quot;,&quot;SF Pro Text&quot;,Helvetica,sans-serif;" transform="matrix(1 0 0 1 776 1989)">can be adjusted by modifying the width of the blue rectangles.</text>
  <text style="stroke:none;fill:black;font-family:-apple-system,&quot;SF Pro Display&quot;,&quot;SF Pro Text&quot;,Helvetica,sans-serif;" transform="matrix(1 0 0 1 776 2007)">Modifications are automatically applied proportionally to all</text>
  <text style="stroke:none;fill:black;font-family:-apple-system,&quot;SF Pro Display&quot;,&quot;SF Pro Text&quot;,Helvetica,sans-serif;" transform="matrix(1 0 0 1 776 2025)">scales and weights.</text>
  <g id="" transform="matrix(1 0 0 1 1289 1933)">
   <path d="M 2.83203 3.11523 L 4.375 4.6582 C 5.22461 5.48828 6.19141 5.41992 7.06055 4.46289 L 17.2754 -6.66016 C 17.7051 -6.36719 18.0957 -6.37695 18.5645 -6.47461 L 19.6094 -6.68945 L 20.3027 -5.99609 L 20.2539 -5.47852 C 20.1855 -4.95117 20.3516 -4.53125 20.8496 -4.0332 L 21.6602 -3.22266 C 22.168 -2.71484 22.8223 -2.68555 23.3008 -3.16406 L 26.5527 -6.41602 C 27.0312 -6.89453 27.0117 -7.54883 26.5039 -8.05664 L 25.6836 -8.87695 C 25.1855 -9.375 24.7754 -9.55078 24.2383 -9.47266 L 23.7109 -9.41406 L 23.0566 -10.0781 L 23.3398 -11.2207 C 23.4863 -11.7871 23.3398 -12.2559 22.7148 -12.8613 L 20.3027 -15.2539 C 16.7578 -18.7793 12.2266 -18.6719 9.11133 -15.5371 C 8.69141 -15.1074 8.64258 -14.5215 8.91602 -14.0918 C 9.15039 -13.7207 9.62891 -13.4961 10.2734 -13.6621 C 11.7871 -14.043 13.3008 -13.9258 14.7852 -12.9199 L 14.1602 -11.3379 C 13.9258 -10.752 13.9453 -10.2734 14.1797 -9.83398 L 3.01758 0.439453 C 2.08008 1.30859 1.97266 2.25586 2.83203 3.11523 Z M 10.6738 -15.1465 C 13.3398 -17.1387 16.6504 -16.8262 19.0527 -14.4141 L 21.6797 -11.8066 C 21.9141 -11.5723 21.9434 -11.3867 21.8848 -11.0938 L 21.5039 -9.53125 L 23.0762 -7.95898 L 24.043 -8.04688 C 24.3262 -8.07617 24.4141 -8.05664 24.6387 -7.83203 L 25.2637 -7.20703 L 22.5098 -4.46289 L 21.8848 -5.07812 C 21.6602 -5.30273 21.6406 -5.40039 21.6699 -5.68359 L 21.7578 -6.64062 L 20.1953 -8.20312 L 18.5742 -7.89062 C 18.291 -7.83203 18.1445 -7.83203 17.9102 -8.07617 L 15.7324 -10.2539 C 15.5078 -10.4883 15.4785 -10.625 15.6055 -10.9473 L 16.5527 -13.2227 C 14.9512 -14.7559 12.8418 -15.6055 10.8008 -14.9512 C 10.7129 -14.9219 10.6445 -14.9414 10.6152 -14.9805 C 10.5859 -15.0293 10.5859 -15.0781 10.6738 -15.1465 Z M 4.10156 2.41211 C 3.61328 1.91406 3.78906 1.61133 4.12109 1.30859 L 15.0781 -8.80859 L 16.3086 -7.57812 L 6.15234 3.34961 C 5.84961 3.68164 5.46875 3.7793 5.06836 3.37891 Z"/>
  </g>
  <text style="stroke:none;fill:black;font-family:-apple-system,&quot;SF Pro Display&quot;,&quot;SF Pro Text&quot;,Helvetica,sans-serif;font-weight:bold;" transform="matrix(1 0 0 1 1289 1953)">Exporting</text>
  <text style="stroke:none;fill:black;font-family:-apple-system,&quot;SF Pro Display&quot;,&quot;SF Pro Text&quot;,Helvetica,sans-serif;" transform="matrix(1 0 0 1 1289 1971)">Symbols should be outlined when exporting to ensure the</text>
  <text style="stroke:none;fill:black;font-family:-apple-system,&quot;SF Pro Display&quot;,&quot;SF Pro Text&quot;,Helvetica,sans-serif;" transform="matrix(1 0 0 1 1289 1989)">design is preserved when submitting to Xcode.</text>
  <text id="template-version" style="stroke:none;fill:black;font-family:-apple-system,&quot;SF Pro Display&quot;,&quot;SF Pro Text&quot;,Helvetica,sans-serif;text-anchor:end;" transform="matrix(1 0 0 1 3036 1933)">Template v.1.0</text>
  <text style="stroke:none;fill:black;font-family:-apple-system,&quot;SF Pro Display&quot;,&quot;SF Pro Text&quot;,Helvetica,sans-serif;text-anchor:end;" transform="matrix(1 0 0 1 3036 1951)">Generated from cloud.bolt.rain.fill</text>
  <text style="stroke:none;fill:black;font-family:-apple-system,&quot;SF Pro Display&quot;,&quot;SF Pro Text&quot;,Helvetica,sans-serif;text-anchor:end;" transform="matrix(1 0 0 1 3036 1969)">Typeset at 100 points</text>
  <text style="stroke:none;fill:black;font-family:-apple-system,&quot;SF Pro Display&quot;,&quot;SF Pro Text&quot;,Helvetica,sans-serif;" transform="matrix(1 0 0 1 263 726)">Small</text>
  <text style="stroke:none;fill:black;font-family:-apple-system,&quot;SF Pro Display&quot;,&quot;SF Pro Text&quot;,Helvetica,sans-serif;" transform="matrix(1 0 0 1 263 1156)">Medium</text>
  <text style="stroke:none;fill:black;font-family:-apple-system,&quot;SF Pro Display&quot;,&quot;SF Pro Text&quot;,Helvetica,sans-serif;" transform="matrix(1 0 0 1 263 1586)">Large</text>
 </g>
 <g id="Guides">
  <g id="H-reference" style="fill:#27AAE1;stroke:none;" transform="matrix(1 0 0 1 339 696)">
   <path d="M 54.9316 0 L 57.666 0 L 30.5664 -70.459 L 28.0762 -70.459 L 0.976562 0 L 3.66211 0 L 12.9395 -24.4629 L 45.7031 -24.4629 Z M 29.1992 -67.0898 L 29.4434 -67.0898 L 44.8242 -26.709 L 13.8184 -26.709 Z"/>
  </g>
  <line id="Baseline-S" style="fill:none;stroke:#27AAE1;opacity:1;stroke-width:0.577;" x1="263" x2="3036" y1="696" y2="696"/>
  <line id="Capline-S" style="fill:none;stroke:#27AAE1;opacity:1;stroke-width:0.577;" x1="263" x2="3036" y1="625.541" y2="625.541"/>
  <g id="H-reference" style="fill:#27AAE1;stroke:none;" transform="matrix(1 0 0 1 339 1126)">
   <path d="M 54.9316 0 L 57.666 0 L 30.5664 -70.459 L 28.0762 -70.459 L 0.976562 0 L 3.66211 0 L 12.9395 -24.4629 L 45.7031 -24.4629 Z M 29.1992 -67.0898 L 29.4434 -67.0898 L 44.8242 -26.709 L 13.8184 -26.709 Z"/>
  </g>
  <line id="Baseline-M" style="fill:none;stroke:#27AAE1;opacity:1;stroke-width:0.577;" x1="263" x2="3036" y1="1126" y2="1126"/>
  <line id="Capline-M" style="fill:none;stroke:#27AAE1;opacity:1;stroke-width:0.577;" x1="263" x2="3036" y1="1055.54" y2="1055.54"/>
  <g id="H-reference" style="fill:#27AAE1;stroke:none;" transform="matrix(1 0 0 1 339 1556)">
   <path d="M 54.9316 0 L 57.666 0 L 30.5664 -70.459 L 28.0762 -70.459 L 0.976562 0 L 3.66211 0 L 12.9395 -24.4629 L 45.7031 -24.4629 Z M 29.1992 -67.0898 L 29.4434 -67.0898 L 44.8242 -26.709 L 13.8184 -26.709 Z"/>
  </g>
  <line id="Baseline-L" style="fill:none;stroke:#27AAE1;opacity:1;stroke-width:0.577;" x1="263" x2="3036" y1="1556" y2="1556"/>
  <line id="Capline-L" style="fill:none;stroke:#27AAE1;opacity:1;stroke-width:0.577;" x1="263" x2="3036" y1="1485.54" y2="1485.54"/>
  <rect height="119.336" id="left-margin" style="fill:#00AEEF;stroke:none;opacity:0.4;" width="8.74023" x="1385.86" y="1030.79"/>
  <rect height="119.336" id="right-margin" style="fill:#00AEEF;stroke:none;opacity:0.4;" width="8.74023" x="1505.09" y="1030.79"/>
 </g>
 <g id="Symbols">
  <g id="Black-L" transform="matrix(1 0 0 1 2846.24 1556)">
   <path d="M 44.4824 -0.341797 L 123.926 -0.341797 C 146.045 -0.341797 163.037 -17.0898 163.037 -38.8184 C 163.037 -60.8398 145.898 -77.6367 123.486 -77.4902 C 115.039 -93.8477 100.195 -102.686 80.9082 -102.686 C 56.1523 -102.686 35.8398 -84.9609 32.5195 -60.5957 C 20.0684 -56.3965 11.2793 -45.6543 11.2793 -31.543 C 11.2793 -13.3789 25.0488 -0.341797 44.4824 -0.341797 Z M 69.4824 56.1523 C 70.0684 56.3965 70.752 56.25 71.4355 55.6152 L 106.006 24.6094 C 107.471 23.291 106.982 21.3867 105.078 21.3867 L 90.3809 21.3867 L 95.5078 11.5234 C 96.2402 10.1562 95.6543 9.08203 94.2383 9.08203 L 75.8789 9.08203 C 74.0723 9.08203 73.4375 9.7168 72.9004 11.0352 L 64.1602 30.9082 C 63.5254 32.4219 64.0625 33.4473 65.7227 33.4473 L 77.7344 33.4473 L 69.0918 54.3457 C 68.7012 55.2246 68.9453 55.9082 69.4824 56.1523 Z M 28.0273 33.1055 C 30.6641 34.5703 33.7891 33.4961 35.2539 31.0059 L 42.9688 17.627 C 44.4336 15.0879 43.7988 11.9141 41.1621 10.3516 C 38.4766 8.83789 35.5957 9.81445 33.9844 12.5 L 26.2207 25.9277 C 24.8047 28.418 25.3906 31.5918 28.0273 33.1055 Z M 117.09 33.1055 C 119.727 34.5703 122.852 33.4961 124.268 31.0059 L 132.031 17.627 C 133.496 15.0879 132.812 11.9141 130.176 10.3516 C 127.539 8.83789 124.609 9.81445 123.047 12.5 L 115.283 25.9277 C 113.818 28.418 114.404 31.5918 117.09 33.1055 Z M 40.0391 50.6836 C 42.6758 52.1973 45.8008 51.123 47.2168 48.6328 L 54.9805 35.2539 C 56.4453 32.7148 55.8105 29.4922 53.1738 27.9785 C 50.4883 26.4648 47.6074 27.4414 45.9961 30.127 L 38.2324 43.5547 C 36.8164 46.0449 37.4023 49.1699 40.0391 50.6836 Z M 129.102 50.6836 C 131.738 52.1973 134.863 51.123 136.279 48.6328 L 144.043 35.2539 C 145.508 32.7148 144.824 29.4922 142.188 27.9785 C 139.551 26.4648 136.621 27.4414 135.059 30.127 L 127.295 43.5547 C 125.83 46.0449 126.416 49.1699 129.102 50.6836 Z"/>
  </g>
  <g id="Heavy-L" transform="matrix(1 0 0 1 2550.68 1556)">
   <path d="M 43.3594 -1.80664 L 122.559 -1.80664 C 144.141 -1.80664 160.742 -18.1152 160.742 -39.209 C 160.742 -60.5957 143.848 -76.8066 121.729 -76.6602 C 113.379 -93.0664 98.584 -102.002 79.6875 -102.002 C 55.3711 -102.002 35.2539 -84.1797 32.3242 -60.0098 C 19.873 -56.0059 11.2793 -45.4102 11.2793 -31.7383 C 11.2793 -14.209 24.5117 -1.80664 43.3594 -1.80664 Z M 70.0684 54.0039 C 70.6543 54.248 71.3379 54.1016 72.0215 53.418 L 104.15 23.584 C 105.566 22.2656 105.029 20.4102 103.174 20.4102 L 89.1113 20.4102 L 94.4824 10.2051 C 95.2148 8.83789 94.6289 7.76367 93.2129 7.76367 L 76.5625 7.76367 C 74.7559 7.76367 74.1211 8.39844 73.584 9.7168 L 65.0391 29.1992 C 64.4043 30.7129 64.9902 31.6895 66.6504 31.6895 L 78.1738 31.6895 L 69.6777 52.1973 C 69.2871 53.0273 69.5312 53.7598 70.0684 54.0039 Z M 27.832 31.2988 C 30.2246 32.6172 33.0566 31.6895 34.4238 29.3945 L 42.3828 15.625 C 43.75 13.2812 43.1152 10.4004 40.6738 8.98438 C 38.2812 7.61719 35.5957 8.44727 34.1309 10.9375 L 26.1719 24.7559 C 24.8535 27.002 25.3906 29.8828 27.832 31.2988 Z M 116.357 31.2988 C 118.75 32.6172 121.631 31.6895 122.949 29.3945 L 130.908 15.625 C 132.275 13.2812 131.641 10.4004 129.248 8.98438 C 126.807 7.61719 124.17 8.44727 122.705 10.9375 L 114.697 24.7559 C 113.379 27.002 113.916 29.8828 116.357 31.2988 Z M 39.8926 48.877 C 42.334 50.2441 45.166 49.3164 46.4844 46.9727 L 54.4434 33.252 C 55.8105 30.9082 55.1758 27.9785 52.7832 26.6113 C 50.3418 25.1953 47.7051 26.0742 46.2402 28.5645 L 38.2324 42.334 C 36.9141 44.6289 37.4512 47.5098 39.8926 48.877 Z M 128.467 48.877 C 130.859 50.2441 133.691 49.3164 135.01 46.9727 L 142.969 33.252 C 144.336 30.9082 143.701 27.9785 141.309 26.6113 C 138.867 25.1953 136.23 26.0742 134.766 28.5645 L 126.807 42.334 C 125.439 44.6289 126.025 47.5098 128.467 48.877 Z"/>
  </g>
  <g id="Bold-L" transform="matrix(1 0 0 1 2255.29 1556)">
   <path d="M 42.0898 -3.41797 L 121.045 -3.41797 C 141.992 -3.41797 158.105 -19.2383 158.105 -39.6484 C 158.105 -60.3027 141.553 -75.9277 119.775 -75.7324 C 111.523 -92.2363 96.7773 -101.27 78.3691 -101.27 C 54.4922 -101.27 34.668 -83.3008 32.0801 -59.3262 C 19.6777 -55.6152 11.2793 -45.1172 11.2793 -31.9336 C 11.2793 -15.1855 23.9258 -3.41797 42.0898 -3.41797 Z M 70.752 51.6113 C 71.3379 51.8555 72.0215 51.6602 72.6562 50.9766 L 102.051 22.4609 C 103.418 21.0938 102.93 19.3359 101.074 19.3359 L 87.7441 19.3359 L 93.3594 8.74023 C 94.043 7.37305 93.5059 6.29883 92.0898 6.29883 L 77.2949 6.29883 C 75.5371 6.29883 74.9023 6.93359 74.3652 8.25195 L 66.0156 27.2461 C 65.3809 28.7598 66.0156 29.7363 67.627 29.7363 L 78.6621 29.7363 L 70.3125 49.8047 C 69.9707 50.6348 70.166 51.3672 70.752 51.6113 Z M 27.5879 29.248 C 29.7363 30.4688 32.2754 29.6387 33.4473 27.5391 L 41.6504 13.3789 C 42.9199 11.2305 42.334 8.69141 40.1855 7.42188 C 37.9883 6.20117 35.6445 6.93359 34.3262 9.17969 L 26.0742 23.3887 C 24.9023 25.4395 25.3906 27.9785 27.5879 29.248 Z M 115.576 29.248 C 117.725 30.4688 120.264 29.6387 121.436 27.5391 L 129.639 13.3789 C 130.908 11.2305 130.273 8.69141 128.174 7.42188 C 125.977 6.20117 123.584 6.93359 122.314 9.17969 L 114.062 23.3887 C 112.842 25.4395 113.379 27.9785 115.576 29.248 Z M 39.7461 46.875 C 41.8945 48.0469 44.4336 47.2656 45.6543 45.166 L 53.8574 31.0059 C 55.0781 28.8574 54.4922 26.2695 52.3438 25.0488 C 50.1953 23.8281 47.8027 24.5605 46.4844 26.7578 L 38.2812 41.0156 C 37.0605 43.0664 37.5977 45.6055 39.7461 46.875 Z M 127.734 46.875 C 129.883 48.0469 132.422 47.2656 133.643 45.166 L 141.797 31.0059 C 143.066 28.8574 142.48 26.2695 140.332 25.0488 C 138.184 23.8281 135.791 24.5605 134.473 26.7578 L 126.221 41.0156 C 125.049 43.0664 125.537 45.6055 127.734 46.875 Z"/>
  </g>
  <g id="Semibold-L" transform="matrix(1 0 0 1 1959.45 1556)">
   <path d="M 41.2109 -4.58984 L 120.02 -4.58984 C 140.527 -4.58984 156.348 -20.0195 156.348 -39.9414 C 156.348 -60.1074 139.99 -75.293 118.457 -75.1465 C 110.205 -91.6016 95.5566 -100.781 77.4414 -100.781 C 53.8574 -100.781 34.2285 -82.666 31.9336 -58.8867 C 19.5312 -55.2734 11.2793 -44.9219 11.2793 -32.0801 C 11.2793 -15.8691 23.5352 -4.58984 41.2109 -4.58984 Z M 71.1914 49.9512 C 71.7773 50.1953 72.4609 50 73.0957 49.2676 L 100.635 21.6797 C 101.953 20.3125 101.416 18.6035 99.6094 18.6035 L 86.8164 18.6035 L 92.5781 7.71484 C 93.2617 6.34766 92.7246 5.32227 91.3086 5.32227 L 77.832 5.32227 C 76.0742 5.32227 75.4395 5.95703 74.9023 7.22656 L 66.6992 25.8789 C 66.0645 27.3926 66.748 28.3691 68.3594 28.3691 L 78.9551 28.3691 L 70.752 48.1445 C 70.4102 48.9746 70.6055 49.707 71.1914 49.9512 Z M 27.4414 27.832 C 29.3945 28.9551 31.7383 28.2227 32.8125 26.2695 L 41.1621 11.8164 C 42.334 9.86328 41.7969 7.51953 39.7949 6.34766 C 37.8418 5.22461 35.6445 5.9082 34.4238 7.95898 L 26.0254 22.4609 C 24.9023 24.3652 25.4395 26.709 27.4414 27.832 Z M 114.99 27.832 C 116.992 28.9551 119.287 28.2227 120.41 26.2695 L 128.76 11.8164 C 129.932 9.86328 129.346 7.51953 127.393 6.34766 C 125.439 5.22461 123.242 5.9082 122.021 7.95898 L 113.623 22.4609 C 112.5 24.3652 112.988 26.709 114.99 27.832 Z M 39.6484 45.459 C 41.6016 46.582 43.9453 45.8496 45.0684 43.8965 L 53.418 29.4434 C 54.5898 27.4414 54.0039 25.1465 52.0508 23.9746 C 50.0488 22.8516 47.8516 23.5352 46.6797 25.5371 L 38.2812 40.0879 C 37.1582 41.9922 37.6465 44.2871 39.6484 45.459 Z M 127.246 45.459 C 129.199 46.582 131.543 45.8496 132.666 43.8965 L 141.016 29.4434 C 142.188 27.4414 141.602 25.1465 139.648 23.9746 C 137.646 22.8516 135.449 23.5352 134.229 25.5371 L 125.879 40.0879 C 124.756 41.9922 125.244 44.2871 127.246 45.459 Z"/>
  </g>
  <g id="Medium-L" transform="matrix(1 0 0 1 1663.43 1556)">
   <path d="M 40.5762 -5.41992 L 119.238 -5.41992 C 139.404 -5.41992 154.98 -20.6543 154.98 -40.1855 C 154.98 -59.9609 138.818 -74.8047 117.432 -74.6582 C 109.229 -91.1621 94.5801 -100.391 76.709 -100.391 C 53.418 -100.391 33.8867 -82.2266 31.8359 -58.5449 C 19.4336 -55.0781 11.2793 -44.7754 11.2793 -32.1777 C 11.2793 -16.4062 23.1934 -5.41992 40.5762 -5.41992 Z M 71.5332 48.6816 C 72.1191 48.9258 72.8027 48.7305 73.4375 47.998 L 99.5605 21.0938 C 100.83 19.7266 100.293 18.0664 98.5352 18.0664 L 86.084 18.0664 L 91.9434 6.93359 C 92.6758 5.56641 92.1387 4.54102 90.7227 4.54102 L 78.2227 4.54102 C 76.4648 4.54102 75.8301 5.17578 75.293 6.44531 L 67.2363 24.8535 C 66.5527 26.416 67.2852 27.3438 68.8477 27.3438 L 79.1992 27.3438 L 71.0938 46.875 C 70.752 47.7051 70.9473 48.4375 71.5332 48.6816 Z M 27.2949 26.8066 C 29.1016 27.832 31.2988 27.1484 32.3242 25.3418 L 40.8203 10.6445 C 41.9434 8.78906 41.3574 6.64062 39.5508 5.56641 C 37.6953 4.49219 35.6445 5.12695 34.5215 7.03125 L 25.9766 21.7773 C 24.9512 23.584 25.4395 25.7324 27.2949 26.8066 Z M 114.6 26.8066 C 116.406 27.832 118.604 27.1484 119.629 25.3418 L 128.125 10.6445 C 129.248 8.78906 128.662 6.64062 126.855 5.56641 C 125 4.49219 122.949 5.12695 121.826 7.03125 L 113.281 21.7773 C 112.256 23.584 112.744 25.7324 114.6 26.8066 Z M 39.5996 44.3848 C 41.4062 45.4102 43.6035 44.7754 44.6289 42.9199 L 53.0762 28.2715 C 54.1992 26.3672 53.6621 24.2188 51.8066 23.1445 C 50 22.1191 47.9492 22.7051 46.7773 24.6582 L 38.2812 39.4043 C 37.207 41.1621 37.6953 43.3105 39.5996 44.3848 Z M 126.855 44.3848 C 128.711 45.4102 130.859 44.7754 131.934 42.9199 L 140.381 28.2715 C 141.504 26.3672 140.967 24.2188 139.111 23.1445 C 137.305 22.1191 135.205 22.7051 134.082 24.6582 L 125.586 39.4043 C 124.512 41.1621 125 43.3105 126.855 44.3848 Z"/>
  </g>
  <g id="Regular-L" transform="matrix(1 0 0 1 1367.62 1556)">
   <path d="M 39.6973 -6.54297 L 118.164 -6.54297 C 137.939 -6.54297 153.174 -21.3867 153.174 -40.4785 C 153.174 -59.7656 137.256 -74.1699 116.113 -74.0234 C 107.959 -90.5762 93.3594 -99.9023 75.7812 -99.9023 C 52.7832 -99.9023 33.4473 -81.5918 31.6895 -58.1055 C 19.2871 -54.7852 11.2793 -44.5801 11.2793 -32.3242 C 11.2793 -17.041 22.8027 -6.54297 39.6973 -6.54297 Z M 71.9727 47.0215 C 72.5586 47.2656 73.291 47.0703 73.877 46.3379 L 98.1445 20.3125 C 99.3164 18.9453 98.8281 17.334 97.0703 17.334 L 85.1562 17.334 L 91.1621 5.95703 C 91.8945 4.58984 91.3574 3.56445 89.9414 3.56445 L 78.7109 3.56445 C 76.9531 3.56445 76.3672 4.19922 75.8301 5.46875 L 67.9199 23.5352 C 67.2363 25.0488 67.9688 26.0254 69.5312 26.0254 L 79.541 26.0254 L 71.5332 45.2637 C 71.1914 46.0449 71.3867 46.7773 71.9727 47.0215 Z M 27.1484 25.3906 C 28.7598 26.3184 30.7617 25.7812 31.6895 24.0723 L 40.332 9.13086 C 41.3574 7.37305 40.8203 5.46875 39.209 4.49219 C 37.5488 3.56445 35.6445 4.10156 34.6191 5.81055 L 25.9277 20.8496 C 25 22.5098 25.4395 24.4141 27.1484 25.3906 Z M 114.062 25.3906 C 115.674 26.3184 117.676 25.7812 118.604 24.0723 L 127.246 9.13086 C 128.271 7.37305 127.734 5.46875 126.123 4.49219 C 124.463 3.56445 122.559 4.10156 121.533 5.81055 L 112.842 20.8496 C 111.914 22.5098 112.354 24.4141 114.062 25.3906 Z M 39.4531 43.0176 C 41.1133 43.9453 43.1152 43.3594 44.043 41.6992 L 52.6855 26.7578 C 53.7109 25 53.1738 23.0957 51.5625 22.1191 C 49.8535 21.1426 47.998 21.6797 46.9727 23.4375 L 38.2812 38.4766 C 37.3047 40.1367 37.793 42.041 39.4531 43.0176 Z M 126.367 43.0176 C 128.027 43.9453 129.98 43.3594 130.957 41.6992 L 139.6 26.7578 C 140.625 25 140.088 23.0957 138.428 22.1191 C 136.768 21.1426 134.912 21.6797 133.887 23.4375 L 125.195 38.4766 C 124.219 40.1367 124.707 42.041 126.367 43.0176 Z"/>
  </g>
  <g id="Light-L" transform="matrix(1 0 0 1 1071.35 1556)">
   <path d="M 38.9648 -7.76367 L 117.822 -7.76367 C 137.207 -7.76367 152.295 -22.3633 152.295 -41.0156 C 152.295 -59.8145 136.523 -73.9746 115.723 -73.7793 C 107.52 -90.7715 93.1641 -100.049 75.4395 -100.049 C 52.832 -100.049 33.7891 -81.7383 32.0312 -58.2031 C 19.4336 -54.9316 11.2793 -44.9219 11.2793 -32.8125 C 11.2793 -18.0176 22.5098 -7.76367 38.9648 -7.76367 Z M 72.998 45.5078 C 73.584 45.752 74.3164 45.5566 74.9512 44.7754 L 95.8496 20.0195 C 96.9727 18.6035 96.4355 17.041 94.6777 17.041 L 83.5449 17.041 L 89.9414 5.07812 C 90.6738 3.71094 90.1367 2.63672 88.7207 2.63672 L 80.127 2.63672 C 78.3691 2.63672 77.7344 3.27148 77.1973 4.58984 L 69.4336 22.3145 C 68.75 23.877 69.5801 24.8047 71.1426 24.8047 L 80.3711 24.8047 L 72.5098 43.7012 C 72.168 44.5312 72.3633 45.2637 72.998 45.5078 Z M 27.1973 24.3652 C 28.5156 25.1465 30.0781 24.6582 30.9082 23.1934 L 40.1367 7.27539 C 41.0156 5.76172 40.5762 4.24805 39.2578 3.4668 C 37.9395 2.73438 36.4258 3.125 35.5469 4.63867 L 26.2695 20.6055 C 25.4883 22.0215 25.8301 23.584 27.1973 24.3652 Z M 113.184 24.3652 C 114.502 25.1465 116.064 24.6582 116.895 23.1934 L 126.123 7.27539 C 127.002 5.76172 126.562 4.24805 125.244 3.4668 C 123.926 2.73438 122.412 3.125 121.533 4.63867 L 112.256 20.6055 C 111.475 22.0215 111.816 23.584 113.184 24.3652 Z M 39.6973 41.9922 C 41.0156 42.7246 42.5781 42.2363 43.4082 40.8203 L 52.6367 24.8535 C 53.5156 23.3887 53.0762 21.875 51.7578 21.0449 C 50.4395 20.3125 48.9258 20.752 48.0469 22.2168 L 38.8184 38.2324 C 37.9883 39.6484 38.3301 41.1621 39.6973 41.9922 Z M 125.684 41.9922 C 127.002 42.7246 128.564 42.2363 129.395 40.8203 L 138.623 24.8535 C 139.502 23.3887 139.062 21.875 137.744 21.0449 C 136.426 20.3125 134.912 20.752 134.033 22.2168 L 124.805 38.2324 C 123.975 39.6484 124.316 41.1621 125.684 41.9922 Z"/>
  </g>
  <g id="Thin-L" transform="matrix(1 0 0 1 775.245 1556)">
   <path d="M 37.9883 -9.42383 L 117.334 -9.42383 C 136.279 -9.42383 151.074 -23.584 151.074 -41.6992 C 151.074 -59.9121 135.596 -73.6328 115.234 -73.4863 C 106.885 -91.0156 92.9199 -100.195 74.9512 -100.195 C 52.832 -100.195 34.2285 -81.9336 32.5195 -58.3984 C 19.5801 -55.1758 11.2793 -45.3613 11.2793 -33.4961 C 11.2793 -19.3359 22.168 -9.42383 37.9883 -9.42383 Z M 74.3164 43.5059 C 74.9512 43.75 75.7324 43.5059 76.3184 42.627 L 92.8711 19.6289 C 93.8965 18.1641 93.2617 16.6992 91.5039 16.6992 L 81.4453 16.6992 L 88.3301 3.90625 C 89.0625 2.53906 88.5254 1.41602 87.0605 1.41602 L 82.0312 1.41602 C 80.1758 1.41602 79.541 2.05078 79.0039 3.41797 L 71.4355 20.6543 C 70.752 22.3145 71.7285 23.1934 73.291 23.1934 L 81.4941 23.1934 L 73.8281 41.6016 C 73.4375 42.5293 73.6816 43.2617 74.3164 43.5059 Z M 27.2461 22.998 C 28.1738 23.5352 29.1992 23.1934 29.834 22.0703 L 39.8438 4.78516 C 40.5273 3.66211 40.2344 2.63672 39.3066 2.09961 C 38.4766 1.61133 37.4512 1.9043 36.7676 3.02734 L 26.7578 20.3125 C 26.123 21.4355 26.3184 22.4609 27.2461 22.998 Z M 112.012 22.998 C 112.939 23.5352 113.965 23.1934 114.6 22.0703 L 124.609 4.78516 C 125.293 3.66211 125 2.63672 124.072 2.09961 C 123.242 1.61133 122.217 1.9043 121.533 3.02734 L 111.523 20.3125 C 110.889 21.4355 111.084 22.4609 112.012 22.998 Z M 39.9902 40.625 C 40.918 41.1621 41.9434 40.7715 42.5293 39.6484 L 52.5391 22.4121 C 53.2715 21.2891 52.9785 20.2637 52.0508 19.6777 C 51.2207 19.2383 50.1953 19.4824 49.5117 20.6543 L 39.502 37.9395 C 38.8672 39.0625 39.0625 40.0391 39.9902 40.625 Z M 124.756 40.625 C 125.684 41.1621 126.709 40.7715 127.295 39.6484 L 137.305 22.4121 C 138.037 21.2891 137.744 20.2637 136.816 19.6777 C 135.986 19.2383 134.961 19.4824 134.277 20.6543 L 124.268 37.9395 C 123.633 39.0625 123.828 40.0391 124.756 40.625 Z"/>
  </g>
  <g id="Ultralight-L" transform="matrix(1 0 0 1 478.852 1556)">
   <path d="M 37.5 -10.2539 L 117.09 -10.2539 C 135.791 -10.2539 150.439 -24.2188 150.439 -42.041 C 150.439 -59.9609 135.156 -73.4863 114.99 -73.291 C 106.592 -91.1621 92.7734 -100.293 74.707 -100.293 C 52.8809 -100.293 34.4727 -82.0312 32.8125 -58.4961 C 19.6777 -55.2734 11.2793 -45.6055 11.2793 -33.8379 C 11.2793 -19.9707 21.9727 -10.2539 37.5 -10.2539 Z M 75 42.4805 C 75.6348 42.7246 76.4648 42.4805 77.002 41.5527 L 91.3574 19.3848 C 92.2852 17.9199 91.6504 16.5039 89.8438 16.5039 L 80.3711 16.5039 L 87.5 3.27148 C 88.2324 1.9043 87.6953 0.78125 86.2305 0.78125 L 83.0078 0.78125 C 81.1523 0.78125 80.4688 1.41602 79.9316 2.7832 L 72.5098 19.8242 C 71.7773 21.5332 72.8516 22.4121 74.3652 22.4121 L 82.0801 22.4121 L 74.5117 40.5273 C 74.0723 41.5039 74.3164 42.2363 75 42.4805 Z M 27.2949 22.3145 C 27.9785 22.7051 28.7598 22.4121 29.248 21.4844 L 39.6973 3.51562 C 40.2832 2.58789 40.0879 1.80664 39.3555 1.36719 C 38.7695 1.02539 37.9883 1.26953 37.4023 2.19727 L 27.002 20.1172 C 26.4648 21.0938 26.6113 21.875 27.2949 22.3145 Z M 111.426 22.3145 C 112.158 22.7051 112.891 22.4121 113.428 21.4844 L 123.828 3.51562 C 124.414 2.58789 124.219 1.80664 123.486 1.36719 C 122.9 1.02539 122.119 1.26953 121.533 2.19727 L 111.133 20.1172 C 110.596 21.0938 110.742 21.875 111.426 22.3145 Z M 40.1367 39.8926 C 40.8203 40.332 41.6016 40.0391 42.0898 39.0625 L 52.5391 21.1426 C 53.125 20.166 52.9297 19.4336 52.1973 18.9941 C 51.6113 18.6523 50.8301 18.8477 50.2441 19.8242 L 39.8438 37.7441 C 39.3066 38.7207 39.4531 39.502 40.1367 39.8926 Z M 124.268 39.8926 C 125 40.332 125.732 40.0391 126.27 39.0625 L 136.67 21.1426 C 137.256 20.166 137.061 19.4336 136.328 18.9941 C 135.742 18.6523 134.961 18.8477 134.375 19.8242 L 123.975 37.7441 C 123.438 38.7207 123.584 39.502 124.268 39.8926 Z"/>
  </g>
  <g id="Black-M" transform="matrix(1 0 0 1 2864.53 1126)">
   <path d="M 35.5469 -6.83594 L 97.7051 -6.83594 C 115.381 -6.83594 129.004 -20.3125 129.004 -37.7441 C 129.004 -55.4688 115.43 -69.043 97.8516 -68.9453 C 91.1621 -81.7871 79.6875 -88.4277 64.1602 -88.4277 C 44.5801 -88.4277 28.7109 -74.9512 25.6836 -55.7617 C 15.8691 -52.2461 8.74023 -43.8477 8.74023 -32.373 C 8.74023 -17.627 20.0195 -6.83594 35.5469 -6.83594 Z M 53.6133 37.6953 C 54.0527 37.8906 54.5898 37.793 55.1758 37.2559 L 83.4473 12.3047 C 84.6191 11.3281 84.1797 9.76562 82.7148 9.76562 L 70.8496 9.76562 L 74.7559 2.29492 C 75.293 1.2207 74.8535 0.390625 73.7305 0.390625 L 58.6426 0.390625 C 57.2266 0.390625 56.6895 0.878906 56.2988 1.95312 L 49.3652 17.7246 C 48.8281 18.8965 49.2676 19.7266 50.5859 19.7266 L 60.1074 19.7266 L 53.2715 36.2793 C 52.9785 36.9629 53.1738 37.5 53.6133 37.6953 Z M 22.0215 19.6289 C 24.2188 20.8496 26.8066 19.9219 27.9785 17.8711 L 34.0332 7.4707 C 35.2539 5.37109 34.7168 2.68555 32.5195 1.41602 C 30.3711 0.195312 27.9785 0.976562 26.6602 3.27148 L 20.6055 13.6719 C 19.4336 15.7227 19.873 18.3594 22.0215 19.6289 Z M 91.2598 19.6289 C 93.4082 20.8496 95.9961 19.9219 97.168 17.8711 L 103.223 7.4707 C 104.443 5.37109 103.906 2.68555 101.758 1.41602 C 99.5605 0.195312 97.168 0.976562 95.8496 3.27148 L 89.7949 13.6719 C 88.623 15.7227 89.0625 18.3594 91.2598 19.6289 Z M 31.3477 33.252 C 33.4961 34.5215 36.084 33.5938 37.2559 31.4941 L 43.3105 21.0938 C 44.5312 19.043 43.9941 16.3574 41.8457 15.0879 C 39.6484 13.8184 37.2559 14.6484 35.9375 16.8945 L 29.8828 27.2949 C 28.7109 29.3945 29.1504 32.0312 31.3477 33.252 Z M 100.537 33.252 C 102.734 34.5215 105.273 33.5938 106.494 31.4941 L 112.5 21.0938 C 113.721 19.043 113.232 16.3574 111.035 15.0879 C 108.838 13.8184 106.445 14.6484 105.127 16.8945 L 99.0723 27.2949 C 97.9004 29.3945 98.3398 32.0312 100.537 33.252 Z"/>
  </g>
  <g id="Heavy-M" transform="matrix(1 0 0 1 2568.96 1126)">
   <path d="M 34.5215 -8.1543 L 96.2891 -8.1543 C 113.477 -8.1543 126.709 -21.1426 126.709 -38.0371 C 126.709 -55.1758 113.379 -68.2129 96.0449 -68.1152 C 89.4531 -80.9082 77.9785 -87.6953 62.9395 -87.6953 C 43.75 -87.6953 27.9785 -74.0234 25.3418 -55.0781 C 15.625 -51.8066 8.74023 -43.457 8.74023 -32.4707 C 8.74023 -18.3105 19.4824 -8.1543 34.5215 -8.1543 Z M 53.9551 35.7422 C 54.3945 35.9375 54.9805 35.791 55.5176 35.3027 L 81.9824 11.3281 C 83.1543 10.3027 82.7148 8.78906 81.25 8.78906 L 69.9219 8.78906 L 73.9258 1.07422 C 74.5117 0.0488281 74.0723 -0.830078 72.9492 -0.830078 L 59.0332 -0.830078 C 57.6172 -0.830078 57.1289 -0.341797 56.6895 0.732422 L 49.9023 16.1621 C 49.4141 17.334 49.8535 18.1152 51.1719 18.1152 L 60.3516 18.1152 L 53.6621 34.3262 C 53.3691 35.0098 53.5156 35.5469 53.9551 35.7422 Z M 21.7773 17.9199 C 23.8281 19.043 26.1719 18.2129 27.2949 16.3086 L 33.3984 5.76172 C 34.5215 3.80859 34.0332 1.36719 32.0312 0.195312 C 29.9805 -0.976562 27.7832 -0.244141 26.5625 1.85547 L 20.459 12.4023 C 19.3359 14.3066 19.7754 16.748 21.7773 17.9199 Z M 90.6738 17.9199 C 92.6758 19.043 95.0684 18.2129 96.1914 16.3086 L 102.295 5.76172 C 103.418 3.80859 102.93 1.36719 100.928 0.195312 C 98.877 -0.976562 96.6797 -0.244141 95.459 1.85547 L 89.3066 12.4023 C 88.2324 14.3066 88.6719 16.748 90.6738 17.9199 Z M 31.1035 31.543 C 33.1543 32.7148 35.498 31.8848 36.6211 29.9316 L 42.7246 19.3848 C 43.8477 17.4805 43.3594 14.9902 41.3574 13.8184 C 39.3066 12.6953 37.1094 13.4277 35.8887 15.4785 L 29.7852 26.0742 C 28.6621 27.9785 29.1016 30.3711 31.1035 31.543 Z M 100 31.543 C 102.051 32.7148 104.395 31.8848 105.518 29.9316 L 111.621 19.3848 C 112.744 17.4805 112.256 14.9902 110.254 13.8184 C 108.203 12.6953 106.006 13.4277 104.785 15.4785 L 98.6328 26.0742 C 97.5586 27.9785 97.998 30.3711 100 31.543 Z"/>
  </g>
  <g id="Bold-M" transform="matrix(1 0 0 1 2273.55 1126)">
   <path d="M 33.3984 -9.57031 L 94.7266 -9.57031 C 111.328 -9.57031 124.121 -22.1191 124.121 -38.3789 C 124.121 -54.834 111.084 -67.2852 93.9941 -67.1875 C 87.5488 -79.8828 76.0742 -86.8652 61.5234 -86.8652 C 42.7734 -86.8652 27.2461 -72.998 25 -54.3457 C 15.3809 -51.2695 8.74023 -43.0664 8.74023 -32.5684 C 8.74023 -19.0918 18.8965 -9.57031 33.3984 -9.57031 Z M 54.3945 33.5449 C 54.834 33.7402 55.3711 33.5938 55.9082 33.0566 L 80.3711 10.1562 C 81.4941 9.13086 81.1035 7.71484 79.6387 7.71484 L 68.8477 7.71484 L 73.0469 -0.244141 C 73.584 -1.31836 73.1934 -2.14844 72.0703 -2.14844 L 59.4238 -2.14844 C 58.0566 -2.14844 57.5684 -1.66016 57.1289 -0.634766 L 50.5371 14.3555 C 50.0488 15.5273 50.5371 16.3086 51.8066 16.3086 L 60.6445 16.3086 L 54.1016 32.1289 C 53.8086 32.8125 53.9551 33.3496 54.3945 33.5449 Z M 21.5332 15.9668 C 23.3398 16.9922 25.4883 16.3086 26.5137 14.5508 L 32.7148 3.80859 C 33.7402 2.05078 33.252 -0.146484 31.4453 -1.2207 C 29.5898 -2.24609 27.5879 -1.61133 26.4648 0.244141 L 20.2637 11.0352 C 19.2383 12.7441 19.6777 14.9414 21.5332 15.9668 Z M 90.0391 15.9668 C 91.8945 16.9922 94.043 16.3086 95.0684 14.5508 L 101.27 3.80859 C 102.295 2.05078 101.807 -0.146484 100 -1.2207 C 98.1445 -2.24609 96.1426 -1.61133 95.0195 0.244141 L 88.7695 11.0352 C 87.793 12.7441 88.2324 14.9414 90.0391 15.9668 Z M 30.9082 29.6387 C 32.7148 30.6641 34.8633 29.9316 35.8887 28.1738 L 42.0898 17.4805 C 43.1152 15.6738 42.627 13.4766 40.8203 12.4512 C 38.9648 11.377 36.9629 12.0117 35.8398 13.916 L 29.6387 24.6582 C 28.6133 26.416 29.0527 28.5645 30.9082 29.6387 Z M 99.4141 29.6387 C 101.27 30.6641 103.418 29.9316 104.443 28.1738 L 110.645 17.4805 C 111.67 15.6738 111.182 13.4766 109.375 12.4512 C 107.52 11.377 105.518 12.0117 104.395 13.916 L 98.1934 24.6582 C 97.168 26.416 97.6074 28.5645 99.4141 29.6387 Z"/>
  </g>
  <g id="Semibold-M" transform="matrix(1 0 0 1 1977.71 1126)">
   <path d="M 32.5684 -10.5469 L 93.6523 -10.5469 C 109.863 -10.5469 122.363 -22.8027 122.363 -38.623 C 122.363 -54.5898 109.521 -66.6504 92.627 -66.5527 C 86.2305 -79.1992 74.7559 -86.2793 60.5957 -86.2793 C 42.0898 -86.2793 26.709 -72.3145 24.7559 -53.8086 C 15.1855 -50.9277 8.74023 -42.7734 8.74023 -32.6172 C 8.74023 -19.6289 18.5059 -10.5469 32.5684 -10.5469 Z M 54.6875 32.0312 C 55.127 32.2266 55.6641 32.0801 56.2012 31.543 L 79.2969 9.375 C 80.3223 8.34961 79.9316 6.98242 78.5156 6.98242 L 68.1641 6.98242 L 72.4121 -1.17188 C 72.998 -2.24609 72.5586 -3.07617 71.4844 -3.07617 L 59.7168 -3.07617 C 58.3496 -3.07617 57.8613 -2.53906 57.4219 -1.5625 L 50.9766 13.1348 C 50.4883 14.3066 50.9766 15.0879 52.2461 15.0879 L 60.8398 15.0879 L 54.3945 30.6641 C 54.1016 31.2988 54.248 31.8359 54.6875 32.0312 Z M 21.3379 14.6484 C 22.998 15.625 25.0488 14.9902 25.9766 13.3301 L 32.2266 2.49023 C 33.2031 0.830078 32.7148 -1.17188 31.0547 -2.19727 C 29.3457 -3.17383 27.4414 -2.58789 26.416 -0.830078 L 20.1172 10.0586 C 19.1895 11.6699 19.6289 13.6719 21.3379 14.6484 Z M 89.6484 14.6484 C 91.3086 15.625 93.3105 14.9902 94.2871 13.3301 L 100.537 2.49023 C 101.514 0.830078 101.025 -1.17188 99.3652 -2.19727 C 97.6074 -3.17383 95.752 -2.58789 94.7266 -0.830078 L 88.4277 10.0586 C 87.5 11.6699 87.8906 13.6719 89.6484 14.6484 Z M 30.7617 28.3203 C 32.4219 29.248 34.4238 28.6133 35.4004 27.002 L 41.6504 16.1621 C 42.627 14.502 42.1387 12.4512 40.4297 11.4746 C 38.7207 10.498 36.8652 11.084 35.8398 12.8418 L 29.541 23.7305 C 28.6133 25.293 29.0039 27.3438 30.7617 28.3203 Z M 99.0234 28.3203 C 100.732 29.248 102.734 28.6133 103.662 27.002 L 109.961 16.1621 C 110.938 14.502 110.449 12.4512 108.74 11.4746 C 107.031 10.498 105.127 11.084 104.15 12.8418 L 97.8516 23.7305 C 96.875 25.293 97.3145 27.3438 99.0234 28.3203 Z"/>
  </g>
  <g id="Medium-M" transform="matrix(1 0 0 1 1681.69 1126)">
   <path d="M 31.9824 -11.3281 L 92.8711 -11.3281 C 108.74 -11.3281 120.996 -23.3398 120.996 -38.7695 C 120.996 -54.4434 108.301 -66.2109 91.5527 -66.0645 C 85.2539 -78.7109 73.7793 -85.8398 59.8633 -85.8398 C 41.6016 -85.8398 26.2695 -71.7773 24.5605 -53.3691 C 15.0391 -50.6348 8.74023 -42.5781 8.74023 -32.666 C 8.74023 -20.0684 18.2129 -11.3281 31.9824 -11.3281 Z M 54.9316 30.8594 C 55.3711 31.0547 55.9082 30.9082 56.3965 30.4199 L 78.418 8.78906 C 79.4434 7.71484 79.1016 6.39648 77.6855 6.39648 L 67.5781 6.39648 L 71.9727 -1.9043 C 72.5098 -2.92969 72.0703 -3.75977 70.9961 -3.75977 L 59.9121 -3.75977 C 58.5449 -3.75977 58.1055 -3.27148 57.666 -2.24609 L 51.3184 12.207 C 50.7812 13.3789 51.3184 14.1602 52.5391 14.1602 L 60.9863 14.1602 L 54.5898 29.4922 C 54.3457 30.127 54.4922 30.7129 54.9316 30.8594 Z M 21.1914 13.6719 C 22.7539 14.5508 24.6582 13.9648 25.5859 12.4023 L 31.8848 1.51367 C 32.8125 -0.0976562 32.3242 -1.95312 30.7617 -2.92969 C 29.1016 -3.80859 27.3438 -3.27148 26.3672 -1.66016 L 20.0195 9.32617 C 19.1406 10.8398 19.5801 12.7441 21.1914 13.6719 Z M 89.3066 13.6719 C 90.8691 14.5508 92.7734 13.9648 93.7012 12.4023 L 100 1.51367 C 100.928 -0.0976562 100.439 -1.95312 98.877 -2.92969 C 97.2656 -3.80859 95.459 -3.27148 94.4824 -1.66016 L 88.1348 9.32617 C 87.2559 10.8398 87.6953 12.7441 89.3066 13.6719 Z M 30.6152 27.2949 C 32.2266 28.1738 34.1309 27.6367 35.0098 26.0742 L 41.3086 15.1367 C 42.2363 13.5742 41.748 11.6699 40.1855 10.7422 C 38.5742 9.81445 36.7676 10.3516 35.791 12.0117 L 29.4434 22.998 C 28.5645 24.5117 29.0039 26.3672 30.6152 27.2949 Z M 98.7305 27.2949 C 100.342 28.1738 102.246 27.6367 103.125 26.0742 L 109.424 15.1367 C 110.352 13.5742 109.863 11.6699 108.301 10.7422 C 106.689 9.81445 104.883 10.3516 103.906 12.0117 L 97.6074 22.998 C 96.6797 24.5117 97.1191 26.3672 98.7305 27.2949 Z"/>
  </g>
  <g id="Regular-M" transform="matrix(1 0 0 1 1385.86 1126)">
   <path d="M 31.2012 -12.3047 L 91.7969 -12.3047 C 107.324 -12.3047 119.238 -23.9746 119.238 -39.0137 C 119.238 -54.1992 106.738 -65.5762 90.1855 -65.4297 C 83.9355 -78.0273 72.4609 -85.2539 58.9355 -85.2539 C 40.918 -85.2539 25.7324 -71.0938 24.3652 -52.8809 C 14.8926 -50.293 8.74023 -42.2852 8.74023 -32.7148 C 8.74023 -20.6055 17.8223 -12.3047 31.2012 -12.3047 Z M 55.2246 29.3945 C 55.6641 29.5898 56.2012 29.4434 56.6895 28.9062 L 77.3438 8.00781 C 78.3203 6.93359 77.9785 5.66406 76.6113 5.66406 L 66.8945 5.66406 L 71.3379 -2.83203 C 71.9238 -3.85742 71.4844 -4.63867 70.4102 -4.63867 L 60.2051 -4.63867 C 58.8867 -4.63867 58.3984 -4.15039 57.959 -3.17383 L 51.7578 11.0352 C 51.2207 12.1582 51.7578 12.8906 52.9785 12.8906 L 61.1816 12.8906 L 54.8828 28.0273 C 54.6387 28.6133 54.7852 29.1992 55.2246 29.3945 Z M 20.9961 12.3535 C 22.4609 13.1348 24.2188 12.6465 25.0488 11.2305 L 31.3965 0.195312 C 32.2754 -1.26953 31.7871 -2.97852 30.3223 -3.85742 C 28.8574 -4.6875 27.1973 -4.24805 26.3184 -2.73438 L 19.9219 8.39844 C 19.0918 9.76562 19.4824 11.4746 20.9961 12.3535 Z M 88.8672 12.3535 C 90.332 13.1348 92.0898 12.6465 92.9199 11.2305 L 99.2676 0.195312 C 100.146 -1.26953 99.6582 -2.97852 98.2422 -3.85742 C 96.7285 -4.6875 95.0684 -4.24805 94.1895 -2.73438 L 87.793 8.39844 C 86.9629 9.76562 87.3535 11.4746 88.8672 12.3535 Z M 30.4688 25.9766 C 31.9336 26.8066 33.6914 26.3184 34.5215 24.8535 L 40.8691 13.8672 C 41.748 12.3535 41.2598 10.6445 39.7949 9.81445 C 38.3301 8.93555 36.6699 9.42383 35.791 10.9375 L 29.3945 22.0215 C 28.5645 23.4375 28.9551 25.1465 30.4688 25.9766 Z M 98.3398 25.9766 C 99.8047 26.8066 101.562 26.3184 102.393 24.8535 L 108.74 13.8672 C 109.619 12.3535 109.131 10.6445 107.715 9.81445 C 106.201 8.93555 104.541 9.42383 103.662 10.9375 L 97.2656 22.0215 C 96.4355 23.4375 96.8262 25.1465 98.3398 25.9766 Z"/>
  </g>
  <g id="Light-M" transform="matrix(1 0 0 1 1089.56 1126)">
   <path d="M 30.5176 -13.4277 L 91.4551 -13.4277 C 106.641 -13.4277 118.408 -24.8535 118.408 -39.4531 C 118.408 -54.248 106.152 -65.332 89.8438 -65.2344 C 83.5449 -78.1738 72.3145 -85.4004 58.6426 -85.4004 C 40.918 -85.4004 26.0254 -71.1914 24.6582 -52.9785 C 14.9902 -50.4395 8.74023 -42.5781 8.74023 -33.1543 C 8.74023 -21.4844 17.5781 -13.4277 30.5176 -13.4277 Z M 56.1035 28.0273 C 56.5918 28.2227 57.1289 28.0762 57.6172 27.4902 L 75.293 7.71484 C 76.2207 6.64062 75.8301 5.41992 74.4629 5.41992 L 65.4785 5.41992 L 70.2637 -3.61328 C 70.8008 -4.6875 70.4102 -5.46875 69.2871 -5.46875 L 61.4746 -5.46875 C 60.1074 -5.46875 59.6191 -4.98047 59.2285 -4.00391 L 53.125 9.91211 C 52.5879 11.1328 53.2227 11.8164 54.4434 11.8164 L 61.9141 11.8164 L 55.7617 26.6113 C 55.4688 27.2949 55.6641 27.832 56.1035 28.0273 Z M 21.0449 11.4258 C 22.2168 12.0605 23.6328 11.6699 24.3164 10.4492 L 31.2012 -1.46484 C 31.9336 -2.73438 31.543 -4.10156 30.3711 -4.78516 C 29.1992 -5.46875 27.8809 -5.07812 27.1484 -3.80859 L 20.2148 8.1543 C 19.5312 9.375 19.8242 10.7422 21.0449 11.4258 Z M 88.0859 11.4258 C 89.2578 12.0605 90.6738 11.6699 91.3574 10.4492 L 98.2422 -1.46484 C 98.9746 -2.73438 98.6328 -4.10156 97.4609 -4.78516 C 96.2891 -5.46875 94.9219 -5.07812 94.1895 -3.80859 L 87.2559 8.1543 C 86.5723 9.375 86.9141 10.7422 88.0859 11.4258 Z M 30.6641 25.0488 C 31.8359 25.7324 33.252 25.3418 33.9355 24.0723 L 40.8203 12.1582 C 41.5527 10.9375 41.1621 9.57031 39.9902 8.83789 C 38.8184 8.20312 37.5 8.59375 36.7676 9.81445 L 29.834 21.8262 C 29.1504 22.998 29.4434 24.3652 30.6641 25.0488 Z M 97.7051 25.0488 C 98.877 25.7324 100.293 25.3418 100.977 24.0723 L 107.861 12.1582 C 108.594 10.9375 108.252 9.57031 107.08 8.83789 C 105.908 8.20312 104.541 8.59375 103.809 9.81445 L 96.875 21.8262 C 96.1914 22.998 96.5332 24.3652 97.7051 25.0488 Z"/>
  </g>
  <g id="Thin-M" transform="matrix(1 0 0 1 793.385 1126)">
   <path d="M 29.6387 -14.8926 L 91.0156 -14.8926 C 105.811 -14.8926 117.334 -25.9277 117.334 -40.0879 C 117.334 -54.3457 105.322 -65.0391 89.4043 -64.9414 C 82.959 -78.418 72.0703 -85.5469 58.2031 -85.5469 C 40.9668 -85.5469 26.4648 -71.3867 25.0977 -53.125 C 15.1367 -50.6348 8.74023 -42.9688 8.74023 -33.7402 C 8.74023 -22.6074 17.2363 -14.8926 29.6387 -14.8926 Z M 57.2754 26.2207 C 57.7637 26.416 58.3984 26.2207 58.8379 25.5859 L 72.6562 7.37305 C 73.4375 6.25 72.9492 5.07812 71.582 5.07812 L 63.5742 5.07812 L 68.7988 -4.63867 C 69.3848 -5.71289 68.9453 -6.5918 67.8223 -6.5918 L 63.1836 -6.5918 C 61.7676 -6.5918 61.2793 -6.05469 60.8398 -5.0293 L 54.9316 8.44727 C 54.3945 9.7168 55.127 10.4004 56.3477 10.4004 L 62.9395 10.4004 L 56.9336 24.7559 C 56.6406 25.4883 56.7871 26.0254 57.2754 26.2207 Z M 21.0938 10.2051 C 21.9238 10.6445 22.8027 10.3516 23.3398 9.42383 L 30.9082 -3.66211 C 31.4941 -4.63867 31.25 -5.51758 30.4688 -6.00586 C 29.6875 -6.44531 28.8086 -6.20117 28.2227 -5.22461 L 20.6543 7.86133 C 20.1172 8.78906 20.3125 9.7168 21.0938 10.2051 Z M 87.0605 10.2051 C 87.8906 10.6445 88.7695 10.3516 89.3066 9.42383 L 96.875 -3.66211 C 97.4609 -4.63867 97.2168 -5.51758 96.4355 -6.00586 C 95.6543 -6.44531 94.7754 -6.20117 94.1895 -5.22461 L 86.5723 7.86133 C 86.084 8.78906 86.2793 9.7168 87.0605 10.2051 Z M 30.9082 23.8281 C 31.7383 24.3164 32.6172 24.0234 33.1543 23.0469 L 40.7227 9.96094 C 41.3086 9.0332 41.0645 8.10547 40.2832 7.61719 C 39.502 7.22656 38.623 7.4707 38.0371 8.39844 L 30.4688 21.5332 C 29.9316 22.4609 30.127 23.3398 30.9082 23.8281 Z M 96.875 23.8281 C 97.7051 24.3164 98.584 24.0234 99.1211 23.0469 L 106.689 9.96094 C 107.275 9.0332 107.031 8.10547 106.25 7.61719 C 105.469 7.22656 104.59 7.4707 104.004 8.39844 L 96.3867 21.5332 C 95.8984 22.4609 96.0938 23.3398 96.875 23.8281 Z"/>
  </g>
  <g id="Ultralight-M" transform="matrix(1 0 0 1 496.967 1126)">
   <path d="M 29.1992 -15.625 L 90.8203 -15.625 C 105.371 -15.625 116.748 -26.5137 116.748 -40.3809 C 116.748 -54.3945 104.883 -64.8926 89.1602 -64.7949 C 82.7148 -78.5156 71.9238 -85.6445 57.959 -85.6445 C 40.9668 -85.6445 26.6602 -71.4844 25.3418 -53.2227 C 15.2344 -50.7324 8.74023 -43.2129 8.74023 -34.0332 C 8.74023 -23.2422 17.0898 -15.625 29.1992 -15.625 Z M 57.9102 25.293 C 58.3984 25.4883 59.0332 25.293 59.4727 24.6094 L 71.2891 7.17773 C 72.0215 6.05469 71.4844 4.93164 70.1172 4.93164 L 62.5977 4.93164 L 68.0664 -5.22461 C 68.6523 -6.25 68.2129 -7.12891 67.0898 -7.12891 L 64.0137 -7.12891 C 62.5977 -7.12891 62.1094 -6.64062 61.6699 -5.56641 L 55.8594 7.66602 C 55.3223 8.98438 56.1035 9.66797 57.3242 9.66797 L 63.4277 9.66797 L 57.5195 23.8281 C 57.2266 24.5605 57.4219 25.0977 57.9102 25.293 Z M 21.1426 9.57031 C 21.7773 9.91211 22.4121 9.66797 22.8516 8.88672 L 30.8105 -4.83398 C 31.2988 -5.61523 31.1035 -6.29883 30.5176 -6.64062 C 29.9316 -6.93359 29.2969 -6.78711 28.8086 -5.95703 L 20.8496 7.71484 C 20.4102 8.54492 20.5566 9.17969 21.1426 9.57031 Z M 86.5234 9.57031 C 87.1582 9.91211 87.793 9.66797 88.2324 8.88672 L 96.1914 -4.83398 C 96.6797 -5.61523 96.4844 -6.29883 95.8984 -6.64062 C 95.3613 -6.93359 94.6777 -6.78711 94.1895 -5.95703 L 86.2305 7.71484 C 85.791 8.54492 85.9375 9.17969 86.5234 9.57031 Z M 31.0547 23.1934 C 31.6895 23.584 32.3242 23.3398 32.7637 22.5098 L 40.7227 8.83789 C 41.2109 8.05664 41.0156 7.37305 40.4297 6.98242 C 39.8926 6.68945 39.209 6.88477 38.7207 7.66602 L 30.7617 21.3867 C 30.3223 22.168 30.4688 22.8516 31.0547 23.1934 Z M 96.4355 23.1934 C 97.0703 23.584 97.7539 23.3398 98.1445 22.5098 L 106.104 8.83789 C 106.592 8.05664 106.396 7.37305 105.811 6.98242 C 105.273 6.68945 104.59 6.88477 104.102 7.66602 L 96.1426 21.3867 C 95.752 22.168 95.8496 22.8516 96.4355 23.1934 Z"/>
  </g>
  <g id="Black-S" transform="matrix(1 0 0 1 2879.54 696)">
   <path d="M 27.7832 -13.0859 L 76.416 -13.0859 C 90.2344 -13.0859 100.879 -23.584 100.879 -37.207 C 100.879 -51.0742 90.2832 -61.6699 76.5137 -61.5723 C 71.2891 -71.6309 62.3047 -76.8555 50.1465 -76.8555 C 34.8633 -76.8555 22.4121 -66.2598 20.0684 -51.2695 C 12.4023 -48.5352 6.83594 -41.9434 6.83594 -33.0078 C 6.83594 -21.4844 15.625 -13.0859 27.7832 -13.0859 Z M 41.9922 21.7773 C 42.334 21.9238 42.7734 21.8262 43.2129 21.4355 L 65.2832 1.95312 C 66.2109 1.17188 65.8691 -0.0488281 64.6973 -0.0488281 L 55.4199 -0.0488281 L 58.4961 -5.9082 C 58.9355 -6.73828 58.5938 -7.42188 57.7148 -7.42188 L 45.9473 -7.42188 C 44.8242 -7.42188 44.4336 -7.03125 44.0918 -6.20117 L 38.6719 6.15234 C 38.2812 7.08008 38.623 7.71484 39.6484 7.71484 L 47.0703 7.71484 L 41.748 20.6543 C 41.5039 21.1914 41.6504 21.6309 41.9922 21.7773 Z M 17.2363 7.61719 C 18.9453 8.59375 20.9473 7.86133 21.875 6.25 L 26.6113 -1.9043 C 27.5391 -3.51562 27.1484 -5.61523 25.4395 -6.5918 C 23.7305 -7.56836 21.875 -6.93359 20.8496 -5.17578 L 16.1133 2.97852 C 15.1855 4.58984 15.5273 6.64062 17.2363 7.61719 Z M 71.4355 7.61719 C 73.1445 8.59375 75.1465 7.86133 76.0742 6.25 L 80.8105 -1.9043 C 81.7383 -3.51562 81.3477 -5.61523 79.6387 -6.5918 C 77.9297 -7.56836 76.0742 -6.93359 75.0488 -5.17578 L 70.3125 2.97852 C 69.3848 4.58984 69.7266 6.64062 71.4355 7.61719 Z M 24.5117 18.3105 C 26.2207 19.2871 28.2227 18.5547 29.1504 16.9434 L 33.8867 8.78906 C 34.8145 7.17773 34.4238 5.07812 32.7148 4.10156 C 31.0059 3.125 29.1504 3.75977 28.125 5.51758 L 23.3887 13.6719 C 22.4609 15.2832 22.8027 17.334 24.5117 18.3105 Z M 78.7109 18.3105 C 80.4199 19.2871 82.4219 18.5547 83.3496 16.9434 L 88.0859 8.78906 C 89.0137 7.17773 88.623 5.07812 86.9141 4.10156 C 85.2051 3.125 83.3496 3.75977 82.3242 5.51758 L 77.5879 13.6719 C 76.6602 15.2832 77.002 17.334 78.7109 18.3105 Z"/>
  </g>
  <g id="Heavy-S" transform="matrix(1 0 0 1 2583.66 696)">
   <path d="M 27.0508 -13.9648 L 75.3906 -13.9648 C 88.8672 -13.9648 99.2188 -24.1699 99.2188 -37.4023 C 99.2188 -50.8301 88.7695 -61.084 75.1465 -60.9863 C 70.0195 -70.9473 61.0352 -76.2695 49.2676 -76.2695 C 34.1797 -76.2695 21.8262 -65.5273 19.7754 -50.7324 C 12.207 -48.1445 6.83594 -41.6504 6.83594 -33.0078 C 6.83594 -21.9238 15.2344 -13.9648 27.0508 -13.9648 Z M 42.1875 20.4102 C 42.5293 20.5566 42.9688 20.459 43.4082 20.0684 L 64.4043 1.2207 C 65.2832 0.390625 64.9902 -0.78125 63.8184 -0.78125 L 54.8828 -0.78125 L 58.0078 -6.73828 C 58.4473 -7.56836 58.1055 -8.25195 57.2266 -8.25195 L 46.0938 -8.25195 C 44.9707 -8.25195 44.6289 -7.86133 44.2871 -7.03125 L 38.9648 5.07812 C 38.5742 5.95703 38.916 6.5918 39.9414 6.5918 L 47.2168 6.5918 L 41.9434 19.3359 C 41.6992 19.8242 41.8457 20.2637 42.1875 20.4102 Z M 17.041 6.39648 C 18.6523 7.32422 20.5566 6.64062 21.4355 5.12695 L 26.1719 -3.02734 C 27.0508 -4.54102 26.6602 -6.54297 25.0488 -7.42188 C 23.4375 -8.34961 21.6797 -7.76367 20.7031 -6.15234 L 15.9668 2.05078 C 15.0879 3.56445 15.4297 5.46875 17.041 6.39648 Z M 71.0938 6.39648 C 72.7051 7.32422 74.6094 6.64062 75.4883 5.12695 L 80.2246 -3.02734 C 81.1035 -4.54102 80.7129 -6.54297 79.1016 -7.42188 C 77.4902 -8.34961 75.7324 -7.76367 74.7559 -6.15234 L 70.0195 2.05078 C 69.1406 3.56445 69.4824 5.46875 71.0938 6.39648 Z M 24.3164 17.0898 C 25.9277 18.0176 27.832 17.334 28.7109 15.8203 L 33.4473 7.66602 C 34.3262 6.15234 33.9355 4.15039 32.3242 3.27148 C 30.7129 2.34375 28.9551 2.92969 27.9785 4.54102 L 23.2422 12.7441 C 22.3633 14.2578 22.7051 16.1621 24.3164 17.0898 Z M 78.3691 17.0898 C 79.9805 18.0176 81.8848 17.334 82.7637 15.8203 L 87.5 7.66602 C 88.3789 6.15234 87.9883 4.15039 86.377 3.27148 C 84.7656 2.34375 83.0078 2.92969 82.0312 4.54102 L 77.2949 12.7441 C 76.416 14.2578 76.7578 16.1621 78.3691 17.0898 Z"/>
  </g>
  <g id="Bold-S" transform="matrix(1 0 0 1 2287.88 696)">
   <path d="M 26.2695 -14.8926 L 74.2188 -14.8926 C 87.3047 -14.8926 97.3633 -24.8047 97.3633 -37.5977 C 97.3633 -50.5859 87.1094 -60.4004 73.6328 -60.3027 C 68.6035 -70.166 59.5703 -75.6348 48.2422 -75.6348 C 33.4473 -75.6348 21.1914 -64.7461 19.4824 -50.1465 C 12.0117 -47.7539 6.83594 -41.2598 6.83594 -33.0078 C 6.83594 -22.4121 14.8438 -14.8926 26.2695 -14.8926 Z M 42.3828 18.8965 C 42.7246 19.043 43.1641 18.9453 43.5547 18.5547 L 63.4277 0.390625 C 64.3066 -0.439453 64.0137 -1.5625 62.8906 -1.5625 L 54.248 -1.5625 L 57.4707 -7.66602 C 57.9102 -8.49609 57.5684 -9.13086 56.6895 -9.13086 L 46.2402 -9.13086 C 45.166 -9.13086 44.7754 -8.74023 44.4336 -7.95898 L 39.2578 3.85742 C 38.8672 4.73633 39.209 5.37109 40.2344 5.37109 L 47.3145 5.37109 L 42.1387 17.8223 C 41.9434 18.3105 42.041 18.75 42.3828 18.8965 Z M 16.8457 5.07812 C 18.3105 5.9082 20.1172 5.32227 20.8984 3.90625 L 25.6348 -4.29688 C 26.4648 -5.71289 26.0742 -7.51953 24.6094 -8.39844 C 23.0957 -9.27734 21.4355 -8.74023 20.5078 -7.22656 L 15.7715 1.02539 C 14.9414 2.39258 15.332 4.19922 16.8457 5.07812 Z M 70.7031 5.07812 C 72.2168 5.9082 73.9746 5.32227 74.8047 3.90625 L 79.541 -4.29688 C 80.3711 -5.71289 79.9805 -7.51953 78.4668 -8.39844 C 76.9531 -9.27734 75.293 -8.74023 74.4141 -7.22656 L 69.6777 1.02539 C 68.8477 2.39258 69.1895 4.19922 70.7031 5.07812 Z M 24.1211 15.7715 C 25.6348 16.6016 27.3926 16.0156 28.2227 14.5996 L 32.959 6.39648 C 33.7891 4.98047 33.3984 3.17383 31.8848 2.29492 C 30.3711 1.41602 28.7109 1.95312 27.832 3.4668 L 23.0957 11.7188 C 22.2656 13.0859 22.6074 14.8926 24.1211 15.7715 Z M 78.0273 15.7715 C 79.541 16.6016 81.2988 16.0156 82.1289 14.5996 L 86.8652 6.39648 C 87.6953 4.98047 87.3047 3.17383 85.791 2.29492 C 84.2773 1.41602 82.6172 1.95312 81.7383 3.4668 L 76.9531 11.7188 C 76.1719 13.0859 76.5137 14.8926 78.0273 15.7715 Z"/>
  </g>
  <g id="Semibold-S" transform="matrix(1 0 0 1 1991.83 696)">
   <path d="M 25.7324 -15.5762 L 73.4375 -15.5762 C 86.2305 -15.5762 96.0449 -25.2441 96.0449 -37.7441 C 96.0449 -50.3906 85.9375 -59.9121 72.6074 -59.8145 C 67.627 -69.6289 58.5938 -75.1465 47.5586 -75.1465 C 32.9102 -75.1465 20.8008 -64.209 19.2871 -49.707 C 11.8652 -47.4609 6.83594 -41.0645 6.83594 -33.0078 C 6.83594 -22.7539 14.5508 -15.5762 25.7324 -15.5762 Z M 42.5293 17.8711 C 42.9199 18.0176 43.3105 17.9199 43.7012 17.5293 L 62.7441 -0.195312 C 63.5742 -1.02539 63.3301 -2.09961 62.207 -2.09961 L 53.8086 -2.09961 L 57.0801 -8.30078 C 57.5195 -9.13086 57.1777 -9.76562 56.3477 -9.76562 L 46.3379 -9.76562 C 45.3125 -9.76562 44.9219 -9.375 44.5801 -8.59375 L 39.502 3.02734 C 39.1113 3.90625 39.4531 4.49219 40.4297 4.49219 L 47.4121 4.49219 L 42.2852 16.7969 C 42.0898 17.2852 42.1875 17.7246 42.5293 17.8711 Z M 16.6992 4.10156 C 18.0664 4.93164 19.7754 4.39453 20.5566 3.02734 L 25.293 -5.12695 C 26.123 -6.54297 25.6836 -8.25195 24.2676 -9.0332 C 22.8516 -9.86328 21.2402 -9.375 20.4102 -7.95898 L 15.625 0.292969 C 14.8438 1.61133 15.2344 3.32031 16.6992 4.10156 Z M 70.459 4.10156 C 71.875 4.93164 73.584 4.39453 74.3652 3.02734 L 79.0527 -5.12695 C 79.8828 -6.54297 79.4922 -8.25195 78.0762 -9.0332 C 76.6113 -9.86328 75.0488 -9.375 74.1699 -7.95898 L 69.4336 0.292969 C 68.6523 1.61133 68.9941 3.32031 70.459 4.10156 Z M 24.0234 14.7949 C 25.3906 15.625 27.0996 15.0879 27.8809 13.7207 L 32.6172 5.56641 C 33.4473 4.15039 33.0078 2.44141 31.5918 1.66016 C 30.1758 0.830078 28.5645 1.31836 27.7344 2.73438 L 22.9492 10.9863 C 22.168 12.3047 22.5586 14.0137 24.0234 14.7949 Z M 77.7832 14.7949 C 79.1992 15.625 80.9082 15.0879 81.6895 13.7207 L 86.377 5.56641 C 87.207 4.15039 86.8164 2.44141 85.4004 1.66016 C 83.9355 0.830078 82.373 1.31836 81.4941 2.73438 L 76.7578 10.9863 C 75.9766 12.3047 76.3184 14.0137 77.7832 14.7949 Z"/>
  </g>
  <g id="Medium-S" transform="matrix(1 0 0 1 1695.6 696)">
   <path d="M 25.293 -16.0645 L 72.8516 -16.0645 C 85.4492 -16.0645 95.0684 -25.5859 95.0684 -37.8418 C 95.0684 -50.2441 85.0586 -59.5703 71.8262 -59.4727 C 66.8945 -69.1895 57.8613 -74.8047 47.0215 -74.8047 C 32.5195 -74.8047 20.459 -63.8184 19.0918 -49.4141 C 11.7188 -47.2168 6.83594 -40.8691 6.83594 -33.0078 C 6.83594 -22.998 14.3555 -16.0645 25.293 -16.0645 Z M 42.6758 17.0898 C 43.0176 17.2363 43.4082 17.1387 43.7988 16.748 L 62.207 -0.634766 C 63.0371 -1.46484 62.793 -2.53906 61.7188 -2.53906 L 53.5156 -2.53906 L 56.7871 -8.78906 C 57.2266 -9.61914 56.8848 -10.2539 56.0547 -10.2539 L 46.4355 -10.2539 C 45.3613 -10.2539 45.0195 -9.86328 44.6777 -9.08203 L 39.6484 2.34375 C 39.2578 3.27148 39.5996 3.85742 40.5762 3.85742 L 47.4609 3.85742 L 42.4316 16.0156 C 42.2363 16.5039 42.334 16.9434 42.6758 17.0898 Z M 16.5527 3.41797 C 17.9199 4.15039 19.5312 3.71094 20.3125 2.39258 L 25.0488 -5.81055 C 25.8301 -7.12891 25.3906 -8.74023 24.0234 -9.57031 C 22.6562 -10.3516 21.1426 -9.86328 20.3125 -8.49609 L 15.5762 -0.244141 C 14.7949 1.02539 15.1855 2.63672 16.5527 3.41797 Z M 70.2637 3.41797 C 71.6309 4.15039 73.2422 3.71094 73.9746 2.39258 L 78.7109 -5.81055 C 79.4922 -7.12891 79.1016 -8.74023 77.7344 -9.57031 C 76.3672 -10.3516 74.8047 -9.86328 74.0234 -8.49609 L 69.2383 -0.244141 C 68.5059 1.02539 68.8477 2.63672 70.2637 3.41797 Z M 23.877 14.1113 C 25.2441 14.8438 26.9043 14.4043 27.6367 13.0859 L 32.373 4.88281 C 33.1543 3.56445 32.7148 1.95312 31.3965 1.12305 C 29.9805 0.341797 28.4668 0.830078 27.6367 2.19727 L 22.9004 10.4492 C 22.1191 11.7188 22.5098 13.3301 23.877 14.1113 Z M 77.5879 14.1113 C 78.9551 14.8438 80.5664 14.4043 81.3477 13.0859 L 86.0352 4.88281 C 86.8652 3.56445 86.4258 1.95312 85.0586 1.12305 C 83.6914 0.341797 82.1289 0.830078 81.3477 2.19727 L 76.5625 10.4492 C 75.8301 11.7188 76.2207 13.3301 77.5879 14.1113 Z"/>
  </g>
  <g id="Regular-S" transform="matrix(1 0 0 1 1399.53 696)">
   <path d="M 24.7559 -16.748 L 72.0703 -16.748 C 84.375 -16.748 93.7988 -26.0254 93.7988 -37.9395 C 93.7988 -50.0488 83.9355 -59.082 70.8008 -58.9844 C 65.9668 -68.7012 56.8359 -74.3652 46.3379 -74.3652 C 32.0312 -74.3652 20.0195 -63.2324 18.8965 -48.9746 C 11.5723 -46.9238 6.83594 -40.625 6.83594 -33.0078 C 6.83594 -23.3398 14.0625 -16.748 24.7559 -16.748 Z M 42.8223 16.0645 C 43.1641 16.2109 43.5547 16.1133 43.9453 15.6738 L 61.5723 -1.2207 C 62.3535 -2.05078 62.1094 -3.07617 61.0352 -3.07617 L 53.0762 -3.07617 L 56.4453 -9.47266 C 56.8848 -10.3027 56.543 -10.8887 55.6641 -10.8887 L 46.5332 -10.8887 C 45.5078 -10.8887 45.166 -10.498 44.8242 -9.76562 L 39.8438 1.51367 C 39.4531 2.44141 39.8438 3.02734 40.8203 3.02734 L 47.5586 3.02734 L 42.5781 15.0391 C 42.3828 15.4785 42.4805 15.918 42.8223 16.0645 Z M 16.4062 2.49023 C 17.6758 3.22266 19.2383 2.7832 19.9707 1.5625 L 24.6582 -6.64062 C 25.4395 -7.95898 25 -9.42383 23.7305 -10.2051 C 22.4121 -10.9375 20.9473 -10.5469 20.2148 -9.22852 L 15.4297 -0.976562 C 14.6973 0.244141 15.0879 1.75781 16.4062 2.49023 Z M 70.0195 2.49023 C 71.2891 3.22266 72.8027 2.7832 73.5352 1.5625 L 78.2715 -6.64062 C 79.0039 -7.95898 78.6133 -9.42383 77.3438 -10.2051 C 76.0254 -10.9375 74.5605 -10.5469 73.7793 -9.22852 L 68.9941 -0.976562 C 68.3105 0.244141 68.6523 1.75781 70.0195 2.49023 Z M 23.7793 13.1836 C 25.0488 13.916 26.6113 13.4766 27.2949 12.2559 L 32.0312 4.05273 C 32.7637 2.73438 32.373 1.26953 31.1035 0.488281 C 29.7852 -0.244141 28.3203 0.146484 27.5391 1.46484 L 22.7539 9.7168 C 22.0703 10.9375 22.4609 12.4512 23.7793 13.1836 Z M 77.3438 13.1836 C 78.6133 13.916 80.1758 13.4766 80.9082 12.2559 L 85.5957 4.05273 C 86.377 2.73438 85.9375 1.26953 84.668 0.488281 C 83.3496 -0.244141 81.8848 0.146484 81.1035 1.46484 L 76.3672 9.7168 C 75.6348 10.9375 76.0254 12.4512 77.3438 13.1836 Z"/>
  </g>
  <g id="Light-S" transform="matrix(1 0 0 1 1103.18 696)">
   <path d="M 24.1699 -17.7246 L 71.7773 -17.7246 C 83.7891 -17.7246 93.0664 -26.7578 93.0664 -38.3789 C 93.0664 -50.0977 83.3984 -58.8867 70.5078 -58.7891 C 65.5762 -68.8477 56.6895 -74.4629 46.0449 -74.4629 C 32.0312 -74.4629 20.2637 -63.3789 19.1895 -49.0723 C 11.6699 -47.0703 6.83594 -40.8691 6.83594 -33.4473 C 6.83594 -24.1211 13.8672 -17.7246 24.1699 -17.7246 Z M 43.6035 14.8438 C 43.9453 14.9902 44.3848 14.8926 44.7754 14.4531 L 59.7656 -1.46484 C 60.498 -2.29492 60.2051 -3.27148 59.1309 -3.27148 L 51.8066 -3.27148 L 55.4688 -10.1562 C 55.9082 -10.9863 55.5664 -11.6211 54.6875 -11.6211 L 47.6562 -11.6211 C 46.582 -11.6211 46.2402 -11.2305 45.8984 -10.4492 L 41.0645 0.537109 C 40.6738 1.46484 41.1133 2.05078 42.0898 2.05078 L 48.1934 2.05078 L 43.3594 13.7695 C 43.1152 14.2578 43.2617 14.6973 43.6035 14.8438 Z M 16.4551 1.66016 C 17.4805 2.24609 18.7012 1.9043 19.2871 0.830078 L 24.5117 -8.1543 C 25.1465 -9.22852 24.8047 -10.4004 23.7793 -11.0352 C 22.7539 -11.6211 21.582 -11.2793 20.9473 -10.2051 L 15.7227 -1.17188 C 15.1367 -0.146484 15.3809 1.07422 16.4551 1.66016 Z M 69.2871 1.66016 C 70.3125 2.24609 71.582 1.9043 72.168 0.830078 L 77.3438 -8.1543 C 77.9785 -9.22852 77.6367 -10.4004 76.6113 -11.0352 C 75.5859 -11.6211 74.4141 -11.2793 73.7793 -10.2051 L 68.5547 -1.17188 C 67.9688 -0.146484 68.2617 1.07422 69.2871 1.66016 Z M 23.9258 12.3535 C 24.9512 12.9395 26.1719 12.5977 26.8066 11.5234 L 31.9824 2.53906 C 32.6172 1.46484 32.2754 0.292969 31.25 -0.341797 C 30.2246 -0.927734 29.0527 -0.585938 28.418 0.488281 L 23.1934 9.52148 C 22.6074 10.5469 22.9004 11.7676 23.9258 12.3535 Z M 76.8066 12.3535 C 77.832 12.9395 79.0527 12.5977 79.6387 11.5234 L 84.8145 2.53906 C 85.4492 1.46484 85.1562 0.292969 84.1309 -0.341797 C 83.0566 -0.927734 81.8848 -0.585938 81.25 0.488281 L 76.0254 9.52148 C 75.4395 10.5469 75.7324 11.7676 76.8066 12.3535 Z"/>
  </g>
  <g id="Thin-S" transform="matrix(1 0 0 1 806.935 696)">
   <path d="M 23.3887 -18.9941 L 71.3867 -18.9941 C 83.0566 -18.9941 92.1387 -27.7344 92.1387 -38.916 C 92.1387 -50.1953 82.666 -58.6426 70.1172 -58.5449 C 65.0879 -68.9941 56.4941 -74.6094 45.6543 -74.6094 C 32.0801 -74.6094 20.6055 -63.5254 19.5801 -49.2188 C 11.8164 -47.2656 6.83594 -41.2109 6.83594 -33.9355 C 6.83594 -25.1465 13.5742 -18.9941 23.3887 -18.9941 Z M 44.6289 13.2812 C 45.0195 13.4277 45.5078 13.2812 45.8496 12.793 L 57.4219 -1.80664 C 58.0566 -2.63672 57.7148 -3.56445 56.6406 -3.56445 L 50.1465 -3.56445 L 54.1992 -11.084 C 54.6387 -11.9141 54.2969 -12.5488 53.418 -12.5488 L 49.1699 -12.5488 C 48.0469 -12.5488 47.6562 -12.1582 47.3145 -11.377 L 42.6758 -0.732422 C 42.2363 0.244141 42.8223 0.78125 43.75 0.78125 L 49.1211 0.78125 L 44.3848 12.1094 C 44.1406 12.6953 44.2871 13.1348 44.6289 13.2812 Z M 16.5039 0.585938 C 17.2363 0.976562 18.0176 0.732422 18.457 -0.0488281 L 24.2676 -10.1074 C 24.7559 -10.8887 24.5605 -11.6699 23.8281 -12.1094 C 23.1445 -12.5 22.3633 -12.2559 21.875 -11.4746 L 16.0645 -1.41602 C 15.625 -0.634766 15.8203 0.195312 16.5039 0.585938 Z M 68.4082 0.585938 C 69.0918 0.976562 69.9219 0.732422 70.3613 -0.0488281 L 76.1719 -10.1074 C 76.6602 -10.8887 76.416 -11.6699 75.7324 -12.1094 C 75.0488 -12.5 74.2676 -12.2559 73.7793 -11.4746 L 67.9688 -1.41602 C 67.5293 -0.634766 67.6758 0.195312 68.4082 0.585938 Z M 24.1699 11.2793 C 24.8535 11.6699 25.6836 11.4258 26.123 10.6445 L 31.9336 0.585938 C 32.4219 -0.195312 32.1777 -0.976562 31.4941 -1.41602 C 30.8105 -1.80664 30.0293 -1.5625 29.541 -0.78125 L 23.7305 9.27734 C 23.291 10.0586 23.4375 10.8887 24.1699 11.2793 Z M 76.0742 11.2793 C 76.7578 11.6699 77.5391 11.4258 77.9785 10.6445 L 83.7891 0.585938 C 84.2773 -0.195312 84.082 -0.976562 83.3984 -1.41602 C 82.7148 -1.80664 81.9336 -1.5625 81.4453 -0.78125 L 75.6348 9.27734 C 75.1953 10.0586 75.3418 10.8887 76.0742 11.2793 Z"/>
  </g>
  <g id="Ultralight-S" transform="matrix(1 0 0 1 510.492 696)">
   <path d="M 22.998 -19.6777 L 71.1914 -19.6777 C 82.666 -19.6777 91.6016 -28.2715 91.6016 -39.209 C 91.6016 -50.2441 82.2754 -58.5449 69.9219 -58.4473 C 64.8438 -69.1406 56.3965 -74.707 45.459 -74.707 C 32.0801 -74.707 20.8008 -63.623 19.7754 -49.3164 C 11.9141 -47.3633 6.83594 -41.4062 6.83594 -34.2285 C 6.83594 -25.6836 13.4277 -19.6777 22.998 -19.6777 Z M 45.166 12.4512 C 45.5566 12.5977 46.0449 12.4512 46.3867 11.9141 L 56.2012 -1.95312 C 56.7871 -2.83203 56.3965 -3.71094 55.3223 -3.71094 L 49.3164 -3.71094 L 53.5156 -11.5723 C 53.9551 -12.4023 53.6133 -13.0859 52.7344 -13.0859 L 49.9023 -13.0859 C 48.7793 -13.0859 48.4375 -12.6953 48.0957 -11.8652 L 43.5059 -1.41602 C 43.0664 -0.390625 43.7012 0.146484 44.6289 0.146484 L 49.5605 0.146484 L 44.9219 11.2793 C 44.6777 11.8652 44.8242 12.3047 45.166 12.4512 Z M 16.5527 0.0488281 C 17.0898 0.341797 17.6758 0.146484 18.0176 -0.537109 L 24.1699 -11.084 C 24.5605 -11.7676 24.4141 -12.3535 23.877 -12.6465 C 23.3887 -12.9395 22.8027 -12.793 22.4121 -12.1094 L 16.2598 -1.51367 C 15.918 -0.878906 16.0156 -0.292969 16.5527 0.0488281 Z M 67.9199 0.0488281 C 68.457 0.341797 69.043 0.146484 69.3848 -0.537109 L 75.5371 -11.084 C 75.9277 -11.7676 75.7812 -12.3535 75.2441 -12.6465 C 74.7559 -12.9395 74.1699 -12.793 73.7793 -12.1094 L 67.627 -1.51367 C 67.2852 -0.878906 67.3828 -0.292969 67.9199 0.0488281 Z M 24.2676 10.7422 C 24.8047 11.0352 25.3906 10.8398 25.7812 10.1562 L 31.8848 -0.390625 C 32.3242 -1.07422 32.1289 -1.66016 31.5918 -1.95312 C 31.1523 -2.24609 30.5664 -2.09961 30.127 -1.41602 L 24.0234 9.17969 C 23.6328 9.81445 23.7793 10.4004 24.2676 10.7422 Z M 75.6836 10.7422 C 76.2207 11.0352 76.8066 10.8398 77.1484 10.1562 L 83.252 -0.390625 C 83.6914 -1.07422 83.5449 -1.66016 83.0078 -1.95312 C 82.5195 -2.24609 81.9336 -2.09961 81.543 -1.41602 L 75.3906 9.17969 C 75.0488 9.81445 75.1465 10.4004 75.6836 10.7422 Z"/>
  </g>
 </g>
</svg>
