<?xml version="1.0" encoding="UTF-8"?>
<!--Generator: Apple Native CoreSVG 123-->
<!DOCTYPE svg
PUBLIC "-//W3C//DTD SVG 1.1//EN"
       "http://www.w3.org/Graphics/SVG/1.1/DTD/svg11.dtd">
<svg version="1.1" xmlns="http://www.w3.org/2000/svg" xmlns:xlink="http://www.w3.org/1999/xlink" width="3300" height="2200">
 <!--glyph: "uni1001B9.medium", point size: 100.000000, font version: "Version 15.0d7e11", template writer version: "5"-->
 <g id="Notes">
  <rect height="2200" id="artboard" style="fill:white;opacity:1" width="3300" x="0" y="0"/>
  <line id="" style="fill:none;stroke:black;opacity:1;stroke-width:0.5;" x1="263" x2="3036" y1="292" y2="292"/>
  <text style="stroke:none;fill:black;font-family:-apple-system,&quot;SF Pro Display&quot;,&quot;SF Pro Text&quot;,Helvetica,sans-serif;font-weight:bold;" transform="matrix(1 0 0 1 263 322)">Weight/Scale Variations</text>
  <text style="stroke:none;fill:black;font-family:-apple-system,&quot;SF Pro Display&quot;,&quot;SF Pro Text&quot;,Helvetica,sans-serif;text-anchor:middle;" transform="matrix(1 0 0 1 559.711 322)">Ultralight</text>
  <text style="stroke:none;fill:black;font-family:-apple-system,&quot;SF Pro Display&quot;,&quot;SF Pro Text&quot;,Helvetica,sans-serif;text-anchor:middle;" transform="matrix(1 0 0 1 856.422 322)">Thin</text>
  <text style="stroke:none;fill:black;font-family:-apple-system,&quot;SF Pro Display&quot;,&quot;SF Pro Text&quot;,Helvetica,sans-serif;text-anchor:middle;" transform="matrix(1 0 0 1 1153.13 322)">Light</text>
  <text style="stroke:none;fill:black;font-family:-apple-system,&quot;SF Pro Display&quot;,&quot;SF Pro Text&quot;,Helvetica,sans-serif;text-anchor:middle;" transform="matrix(1 0 0 1 1449.84 322)">Regular</text>
  <text style="stroke:none;fill:black;font-family:-apple-system,&quot;SF Pro Display&quot;,&quot;SF Pro Text&quot;,Helvetica,sans-serif;text-anchor:middle;" transform="matrix(1 0 0 1 1746.56 322)">Medium</text>
  <text style="stroke:none;fill:black;font-family:-apple-system,&quot;SF Pro Display&quot;,&quot;SF Pro Text&quot;,Helvetica,sans-serif;text-anchor:middle;" transform="matrix(1 0 0 1 2043.27 322)">Semibold</text>
  <text style="stroke:none;fill:black;font-family:-apple-system,&quot;SF Pro Display&quot;,&quot;SF Pro Text&quot;,Helvetica,sans-serif;text-anchor:middle;" transform="matrix(1 0 0 1 2339.98 322)">Bold</text>
  <text style="stroke:none;fill:black;font-family:-apple-system,&quot;SF Pro Display&quot;,&quot;SF Pro Text&quot;,Helvetica,sans-serif;text-anchor:middle;" transform="matrix(1 0 0 1 2636.69 322)">Heavy</text>
  <text style="stroke:none;fill:black;font-family:-apple-system,&quot;SF Pro Display&quot;,&quot;SF Pro Text&quot;,Helvetica,sans-serif;text-anchor:middle;" transform="matrix(1 0 0 1 2933.4 322)">Black</text>
  <line id="" style="fill:none;stroke:black;opacity:1;stroke-width:0.5;" x1="263" x2="3036" y1="1903" y2="1903"/>
  <g id="" transform="matrix(1 0 0 1 263 1933)">
   <path d="M 9.24805 0.830078 C 13.5547 0.830078 17.1387 -2.74414 17.1387 -7.05078 C 17.1387 -11.3574 13.5449 -14.9316 9.23828 -14.9316 C 4.94141 -14.9316 1.36719 -11.3574 1.36719 -7.05078 C 1.36719 -2.74414 4.95117 0.830078 9.24805 0.830078 Z M 9.24805 -0.654297 C 5.70312 -0.654297 2.87109 -3.49609 2.87109 -7.05078 C 2.87109 -10.6055 5.69336 -13.4473 9.23828 -13.4473 C 12.793 -13.4473 15.6348 -10.6055 15.6445 -7.05078 C 15.6543 -3.49609 12.8027 -0.654297 9.24805 -0.654297 Z M 9.22852 -3.42773 C 9.69727 -3.42773 9.9707 -3.74023 9.9707 -4.25781 L 9.9707 -6.31836 L 12.1973 -6.31836 C 12.6953 -6.31836 13.0371 -6.57227 13.0371 -7.04102 C 13.0371 -7.51953 12.7148 -7.7832 12.1973 -7.7832 L 9.9707 -7.7832 L 9.9707 -10.0098 C 9.9707 -10.5273 9.69727 -10.8496 9.22852 -10.8496 C 8.75977 -10.8496 8.50586 -10.5078 8.50586 -10.0098 L 8.50586 -7.7832 L 6.29883 -7.7832 C 5.78125 -7.7832 5.44922 -7.51953 5.44922 -7.04102 C 5.44922 -6.57227 5.80078 -6.31836 6.29883 -6.31836 L 8.50586 -6.31836 L 8.50586 -4.25781 C 8.50586 -3.75977 8.75977 -3.42773 9.22852 -3.42773 Z"/>
  </g>
  <g id="" transform="matrix(1 0 0 1 281.506 1933)">
   <path d="M 11.709 2.91016 C 17.1582 2.91016 21.6699 -1.60156 21.6699 -7.05078 C 21.6699 -12.4902 17.1484 -17.0117 11.6992 -17.0117 C 6.25977 -17.0117 1.74805 -12.4902 1.74805 -7.05078 C 1.74805 -1.60156 6.26953 2.91016 11.709 2.91016 Z M 11.709 1.25 C 7.09961 1.25 3.41797 -2.44141 3.41797 -7.05078 C 3.41797 -11.6504 7.08984 -15.3516 11.6992 -15.3516 C 16.3086 -15.3516 20 -11.6504 20.0098 -7.05078 C 20.0195 -2.44141 16.3184 1.25 11.709 1.25 Z M 11.6895 -2.41211 C 12.207 -2.41211 12.5195 -2.77344 12.5195 -3.33984 L 12.5195 -6.23047 L 15.5762 -6.23047 C 16.123 -6.23047 16.5039 -6.51367 16.5039 -7.03125 C 16.5039 -7.55859 16.1426 -7.86133 15.5762 -7.86133 L 12.5195 -7.86133 L 12.5195 -10.9277 C 12.5195 -11.5039 12.207 -11.8555 11.6895 -11.8555 C 11.1719 -11.8555 10.8789 -11.4844 10.8789 -10.9277 L 10.8789 -7.86133 L 7.83203 -7.86133 C 7.26562 -7.86133 6.89453 -7.55859 6.89453 -7.03125 C 6.89453 -6.51367 7.28516 -6.23047 7.83203 -6.23047 L 10.8789 -6.23047 L 10.8789 -3.33984 C 10.8789 -2.79297 11.1719 -2.41211 11.6895 -2.41211 Z"/>
  </g>
  <g id="" transform="matrix(1 0 0 1 304.924 1933)">
   <path d="M 14.9707 5.67383 C 21.9336 5.67383 27.6953 -0.078125 27.6953 -7.04102 C 27.6953 -14.0039 21.9238 -19.7559 14.9609 -19.7559 C 8.00781 -19.7559 2.25586 -14.0039 2.25586 -7.04102 C 2.25586 -0.078125 8.01758 5.67383 14.9707 5.67383 Z M 14.9707 3.85742 C 8.93555 3.85742 4.08203 -1.00586 4.08203 -7.04102 C 4.08203 -13.0762 8.92578 -17.9395 14.9609 -17.9395 C 21.0059 -17.9395 25.8594 -13.0762 25.8691 -7.04102 C 25.8789 -1.00586 21.0156 3.85742 14.9707 3.85742 Z M 14.9512 -1.06445 C 15.5176 -1.06445 15.8691 -1.45508 15.8691 -2.06055 L 15.8691 -6.13281 L 20.1074 -6.13281 C 20.6934 -6.13281 21.1133 -6.46484 21.1133 -7.02148 C 21.1133 -7.59766 20.7227 -7.93945 20.1074 -7.93945 L 15.8691 -7.93945 L 15.8691 -12.1875 C 15.8691 -12.8027 15.5176 -13.1934 14.9512 -13.1934 C 14.3848 -13.1934 14.0625 -12.7832 14.0625 -12.1875 L 14.0625 -7.93945 L 9.83398 -7.93945 C 9.21875 -7.93945 8.80859 -7.59766 8.80859 -7.02148 C 8.80859 -6.46484 9.23828 -6.13281 9.83398 -6.13281 L 14.0625 -6.13281 L 14.0625 -2.06055 C 14.0625 -1.47461 14.3848 -1.06445 14.9512 -1.06445 Z"/>
  </g>
  <text style="stroke:none;fill:black;font-family:-apple-system,&quot;SF Pro Display&quot;,&quot;SF Pro Text&quot;,Helvetica,sans-serif;font-weight:bold;" transform="matrix(1 0 0 1 263 1953)">Design Variations</text>
  <text style="stroke:none;fill:black;font-family:-apple-system,&quot;SF Pro Display&quot;,&quot;SF Pro Text&quot;,Helvetica,sans-serif;" transform="matrix(1 0 0 1 263 1971)">Symbols are supported in up to nine weights and three scales.</text>
  <text style="stroke:none;fill:black;font-family:-apple-system,&quot;SF Pro Display&quot;,&quot;SF Pro Text&quot;,Helvetica,sans-serif;" transform="matrix(1 0 0 1 263 1989)">For optimal layout with text and other symbols, vertically align</text>
  <text style="stroke:none;fill:black;font-family:-apple-system,&quot;SF Pro Display&quot;,&quot;SF Pro Text&quot;,Helvetica,sans-serif;" transform="matrix(1 0 0 1 263 2007)">symbols with the adjacent text.</text>
  <rect height="14" id="" style="fill:#00AEEF;stroke:none;opacity:0.4;" width="3" x="776" y="1919"/>
  <g id="" transform="matrix(1 0 0 1 779 1933)">
   <path d="M 10.5273 0 L 12.373 0 L 7.17773 -14.0918 L 5.43945 -14.0918 L 0.244141 0 L 2.08984 0 L 3.50586 -4.0332 L 9.11133 -4.0332 Z M 6.2793 -11.9531 L 6.33789 -11.9531 L 8.59375 -5.52734 L 4.02344 -5.52734 Z"/>
  </g>
  <rect height="14" id="" style="fill:#00AEEF;stroke:none;opacity:0.4;" width="3" x="791.617" y="1919"/>
  <text style="stroke:none;fill:black;font-family:-apple-system,&quot;SF Pro Display&quot;,&quot;SF Pro Text&quot;,Helvetica,sans-serif;font-weight:bold;" transform="matrix(1 0 0 1 776 1953)">Margins</text>
  <text style="stroke:none;fill:black;font-family:-apple-system,&quot;SF Pro Display&quot;,&quot;SF Pro Text&quot;,Helvetica,sans-serif;" transform="matrix(1 0 0 1 776 1971)">Leading and trailing margins on the left and right side of each symbol</text>
  <text style="stroke:none;fill:black;font-family:-apple-system,&quot;SF Pro Display&quot;,&quot;SF Pro Text&quot;,Helvetica,sans-serif;" transform="matrix(1 0 0 1 776 1989)">can be adjusted by modifying the width of the blue rectangles.</text>
  <text style="stroke:none;fill:black;font-family:-apple-system,&quot;SF Pro Display&quot;,&quot;SF Pro Text&quot;,Helvetica,sans-serif;" transform="matrix(1 0 0 1 776 2007)">Modifications are automatically applied proportionally to all</text>
  <text style="stroke:none;fill:black;font-family:-apple-system,&quot;SF Pro Display&quot;,&quot;SF Pro Text&quot;,Helvetica,sans-serif;" transform="matrix(1 0 0 1 776 2025)">scales and weights.</text>
  <g id="" transform="matrix(1 0 0 1 1289 1933)">
   <path d="M 2.83203 3.11523 L 4.375 4.6582 C 5.22461 5.48828 6.19141 5.41992 7.06055 4.46289 L 17.2754 -6.66016 C 17.7051 -6.36719 18.0957 -6.37695 18.5645 -6.47461 L 19.6094 -6.68945 L 20.3027 -5.99609 L 20.2539 -5.47852 C 20.1855 -4.95117 20.3516 -4.53125 20.8496 -4.0332 L 21.6602 -3.22266 C 22.168 -2.71484 22.8223 -2.68555 23.3008 -3.16406 L 26.5527 -6.41602 C 27.0312 -6.89453 27.0117 -7.54883 26.5039 -8.05664 L 25.6836 -8.87695 C 25.1855 -9.375 24.7754 -9.55078 24.2383 -9.47266 L 23.7109 -9.41406 L 23.0566 -10.0781 L 23.3398 -11.2207 C 23.4863 -11.7871 23.3398 -12.2559 22.7148 -12.8613 L 20.3027 -15.2539 C 16.7578 -18.7793 12.2266 -18.6719 9.11133 -15.5371 C 8.69141 -15.1074 8.64258 -14.5215 8.91602 -14.0918 C 9.15039 -13.7207 9.62891 -13.4961 10.2734 -13.6621 C 11.7871 -14.043 13.3008 -13.9258 14.7852 -12.9199 L 14.1602 -11.3379 C 13.9258 -10.752 13.9453 -10.2734 14.1797 -9.83398 L 3.01758 0.439453 C 2.08008 1.30859 1.97266 2.25586 2.83203 3.11523 Z M 10.6738 -15.1465 C 13.3398 -17.1387 16.6504 -16.8262 19.0527 -14.4141 L 21.6797 -11.8066 C 21.9141 -11.5723 21.9434 -11.3867 21.8848 -11.0938 L 21.5039 -9.53125 L 23.0762 -7.95898 L 24.043 -8.04688 C 24.3262 -8.07617 24.4141 -8.05664 24.6387 -7.83203 L 25.2637 -7.20703 L 22.5098 -4.46289 L 21.8848 -5.07812 C 21.6602 -5.30273 21.6406 -5.40039 21.6699 -5.68359 L 21.7578 -6.64062 L 20.1953 -8.20312 L 18.5742 -7.89062 C 18.291 -7.83203 18.1445 -7.83203 17.9102 -8.07617 L 15.7324 -10.2539 C 15.5078 -10.4883 15.4785 -10.625 15.6055 -10.9473 L 16.5527 -13.2227 C 14.9512 -14.7559 12.8418 -15.6055 10.8008 -14.9512 C 10.7129 -14.9219 10.6445 -14.9414 10.6152 -14.9805 C 10.5859 -15.0293 10.5859 -15.0781 10.6738 -15.1465 Z M 4.10156 2.41211 C 3.61328 1.91406 3.78906 1.61133 4.12109 1.30859 L 15.0781 -8.80859 L 16.3086 -7.57812 L 6.15234 3.34961 C 5.84961 3.68164 5.46875 3.7793 5.06836 3.37891 Z"/>
  </g>
  <text style="stroke:none;fill:black;font-family:-apple-system,&quot;SF Pro Display&quot;,&quot;SF Pro Text&quot;,Helvetica,sans-serif;font-weight:bold;" transform="matrix(1 0 0 1 1289 1953)">Exporting</text>
  <text style="stroke:none;fill:black;font-family:-apple-system,&quot;SF Pro Display&quot;,&quot;SF Pro Text&quot;,Helvetica,sans-serif;" transform="matrix(1 0 0 1 1289 1971)">Symbols should be outlined when exporting to ensure the</text>
  <text style="stroke:none;fill:black;font-family:-apple-system,&quot;SF Pro Display&quot;,&quot;SF Pro Text&quot;,Helvetica,sans-serif;" transform="matrix(1 0 0 1 1289 1989)">design is preserved when submitting to Xcode.</text>
  <text id="template-version" style="stroke:none;fill:black;font-family:-apple-system,&quot;SF Pro Display&quot;,&quot;SF Pro Text&quot;,Helvetica,sans-serif;text-anchor:end;" transform="matrix(1 0 0 1 3036 1933)">Template v.1.0</text>
  <text style="stroke:none;fill:black;font-family:-apple-system,&quot;SF Pro Display&quot;,&quot;SF Pro Text&quot;,Helvetica,sans-serif;text-anchor:end;" transform="matrix(1 0 0 1 3036 1951)">Generated from moon</text>
  <text style="stroke:none;fill:black;font-family:-apple-system,&quot;SF Pro Display&quot;,&quot;SF Pro Text&quot;,Helvetica,sans-serif;text-anchor:end;" transform="matrix(1 0 0 1 3036 1969)">Typeset at 100 points</text>
  <text style="stroke:none;fill:black;font-family:-apple-system,&quot;SF Pro Display&quot;,&quot;SF Pro Text&quot;,Helvetica,sans-serif;" transform="matrix(1 0 0 1 263 726)">Small</text>
  <text style="stroke:none;fill:black;font-family:-apple-system,&quot;SF Pro Display&quot;,&quot;SF Pro Text&quot;,Helvetica,sans-serif;" transform="matrix(1 0 0 1 263 1156)">Medium</text>
  <text style="stroke:none;fill:black;font-family:-apple-system,&quot;SF Pro Display&quot;,&quot;SF Pro Text&quot;,Helvetica,sans-serif;" transform="matrix(1 0 0 1 263 1586)">Large</text>
 </g>
 <g id="Guides">
  <g id="H-reference" style="fill:#27AAE1;stroke:none;" transform="matrix(1 0 0 1 339 696)">
   <path d="M 54.9316 0 L 57.666 0 L 30.5664 -70.459 L 28.0762 -70.459 L 0.976562 0 L 3.66211 0 L 12.9395 -24.4629 L 45.7031 -24.4629 Z M 29.1992 -67.0898 L 29.4434 -67.0898 L 44.8242 -26.709 L 13.8184 -26.709 Z"/>
  </g>
  <line id="Baseline-S" style="fill:none;stroke:#27AAE1;opacity:1;stroke-width:0.577;" x1="263" x2="3036" y1="696" y2="696"/>
  <line id="Capline-S" style="fill:none;stroke:#27AAE1;opacity:1;stroke-width:0.577;" x1="263" x2="3036" y1="625.541" y2="625.541"/>
  <g id="H-reference" style="fill:#27AAE1;stroke:none;" transform="matrix(1 0 0 1 339 1126)">
   <path d="M 54.9316 0 L 57.666 0 L 30.5664 -70.459 L 28.0762 -70.459 L 0.976562 0 L 3.66211 0 L 12.9395 -24.4629 L 45.7031 -24.4629 Z M 29.1992 -67.0898 L 29.4434 -67.0898 L 44.8242 -26.709 L 13.8184 -26.709 Z"/>
  </g>
  <line id="Baseline-M" style="fill:none;stroke:#27AAE1;opacity:1;stroke-width:0.577;" x1="263" x2="3036" y1="1126" y2="1126"/>
  <line id="Capline-M" style="fill:none;stroke:#27AAE1;opacity:1;stroke-width:0.577;" x1="263" x2="3036" y1="1055.54" y2="1055.54"/>
  <g id="H-reference" style="fill:#27AAE1;stroke:none;" transform="matrix(1 0 0 1 339 1556)">
   <path d="M 54.9316 0 L 57.666 0 L 30.5664 -70.459 L 28.0762 -70.459 L 0.976562 0 L 3.66211 0 L 12.9395 -24.4629 L 45.7031 -24.4629 Z M 29.1992 -67.0898 L 29.4434 -67.0898 L 44.8242 -26.709 L 13.8184 -26.709 Z"/>
  </g>
  <line id="Baseline-L" style="fill:none;stroke:#27AAE1;opacity:1;stroke-width:0.577;" x1="263" x2="3036" y1="1556" y2="1556"/>
  <line id="Capline-L" style="fill:none;stroke:#27AAE1;opacity:1;stroke-width:0.577;" x1="263" x2="3036" y1="1485.54" y2="1485.54"/>
  <rect height="119.336" id="left-margin" style="fill:#00AEEF;stroke:none;opacity:0.4;" width="8.74023" x="1391.98" y="1030.79"/>
  <rect height="119.336" id="right-margin" style="fill:#00AEEF;stroke:none;opacity:0.4;" width="8.74023" x="1498.97" y="1030.79"/>
 </g>
 <g id="Symbols">
  <g id="Black-L" transform="matrix(1 0 0 1 2856.91 1556)">
   <path d="M 109.229 -20.3613 C 80.2246 -20.3613 62.0605 -37.6953 62.0605 -65.8691 C 62.0605 -73.6816 63.3301 -81.2012 65.625 -85.3516 C 67.1387 -88.1348 67.8711 -90.5762 67.8711 -92.9199 C 67.8711 -97.6074 64.5996 -101.27 59.375 -101.27 C 57.666 -101.27 55.4688 -100.83 52.832 -99.7559 C 27.9297 -89.6484 11.2793 -64.7461 11.2793 -37.5 C 11.2793 1.26953 39.6484 29.7363 78.418 29.7363 C 105.615 29.7363 129.15 14.3066 139.893 -10.0098 C 141.211 -12.9395 141.699 -15.4785 141.699 -17.4316 C 141.699 -22.4121 138.477 -25.4395 133.984 -25.4395 C 131.641 -25.4395 129.15 -24.8535 126.172 -23.3398 C 122.168 -21.4355 115.674 -20.3613 109.229 -20.3613 Z M 31.3965 -37.6953 C 31.3965 -49.707 36.1816 -62.3535 44.873 -70.8984 C 44.2871 -68.2129 43.9453 -65.5273 43.9453 -62.5 C 43.9453 -25.5859 67.2852 -2.58789 105.078 -2.58789 C 107.031 -2.58789 108.74 -2.73438 110.449 -3.27148 C 102.637 5.0293 90.7227 9.57031 78.6133 9.57031 C 51.3672 9.57031 31.3965 -10.4492 31.3965 -37.6953 Z"/>
  </g>
  <g id="Heavy-L" transform="matrix(1 0 0 1 2560.79 1556)">
   <path d="M 109.375 -18.6035 C 78.8574 -18.6035 59.8145 -36.8164 59.8145 -66.4062 C 59.8145 -74.6582 61.1816 -82.373 63.4766 -86.6699 C 64.8438 -89.209 65.4297 -91.2598 65.4297 -93.3105 C 65.4297 -97.3145 62.5488 -100.586 58.0078 -100.586 C 56.5918 -100.586 54.6387 -100.195 52.2949 -99.2676 C 27.832 -89.3555 11.2793 -64.5508 11.2793 -37.5977 C 11.2793 0.976562 39.4531 29.248 78.0273 29.248 C 105.127 29.248 128.369 14.0625 138.965 -9.96094 C 140.088 -12.5 140.527 -14.7461 140.527 -16.3574 C 140.527 -20.7031 137.598 -23.4375 133.74 -23.4375 C 131.787 -23.4375 129.688 -22.9492 127.1 -21.6797 C 122.949 -19.7754 116.064 -18.6035 109.375 -18.6035 Z M 28.6133 -37.793 C 28.6133 -51.8066 34.8633 -66.0156 45.5566 -74.9512 C 44.6289 -71.4355 44.0918 -67.7246 44.0918 -63.6719 C 44.0918 -26.2207 67.5781 -3.125 105.908 -3.125 C 108.984 -3.125 111.67 -3.4668 114.209 -4.29688 C 105.957 6.00586 92.3828 11.8652 78.2227 11.8652 C 49.6094 11.8652 28.6133 -9.13086 28.6133 -37.793 Z"/>
  </g>
  <g id="Bold-L" transform="matrix(1 0 0 1 2264.73 1556)">
   <path d="M 109.473 -16.6504 C 77.3438 -16.6504 57.3242 -35.8887 57.3242 -67.041 C 57.3242 -75.7324 58.7402 -83.6426 61.084 -88.1836 C 62.2559 -90.3809 62.6953 -91.9922 62.6953 -93.75 C 62.6953 -96.9727 60.2539 -99.8535 56.4941 -99.8535 C 55.4199 -99.8535 53.7598 -99.5117 51.6602 -98.7305 C 27.6855 -89.0137 11.2793 -64.4043 11.2793 -37.6953 C 11.2793 0.683594 39.209 28.7109 77.5879 28.7109 C 104.59 28.7109 127.539 13.8184 137.939 -9.91211 C 138.867 -12.0605 139.209 -13.916 139.209 -15.1855 C 139.209 -18.8477 136.621 -21.1426 133.496 -21.1426 C 131.885 -21.1426 130.322 -20.8008 128.174 -19.7754 C 123.779 -17.8711 116.455 -16.6504 109.473 -16.6504 Z M 25.5371 -37.9395 C 25.5371 -54.1504 33.3984 -70.1172 46.3379 -79.4434 C 44.9707 -75.0488 44.2383 -70.2148 44.2383 -64.9902 C 44.2383 -27.002 67.9199 -3.75977 106.836 -3.75977 C 111.133 -3.75977 114.941 -4.24805 118.408 -5.46875 C 109.619 7.03125 94.2383 14.4043 77.832 14.4043 C 47.6562 14.4043 25.5371 -7.66602 25.5371 -37.9395 Z"/>
  </g>
  <g id="Semibold-L" transform="matrix(1 0 0 1 1968.49 1556)">
   <path d="M 109.57 -15.2832 C 76.2695 -15.2832 55.6152 -35.2051 55.6152 -67.4805 C 55.6152 -76.4648 57.0801 -84.4727 59.4727 -89.1602 C 60.498 -91.2109 60.8398 -92.5293 60.8398 -93.9941 C 60.8398 -96.7285 58.6914 -99.3164 55.4688 -99.3164 C 54.5898 -99.3164 53.125 -99.0723 51.2207 -98.3398 C 27.5879 -88.8184 11.2793 -64.2578 11.2793 -37.7441 C 11.2793 0.439453 39.0625 28.3203 77.2461 28.3203 C 104.199 28.3203 126.904 13.623 137.207 -9.86328 C 138.037 -11.7676 138.281 -13.3789 138.281 -14.4043 C 138.281 -17.5781 135.986 -19.5801 133.35 -19.5801 C 131.982 -19.5801 130.713 -19.3359 128.906 -18.5059 C 124.365 -16.5527 116.748 -15.2832 109.57 -15.2832 Z M 23.4375 -38.0371 C 23.4375 -55.7617 32.4219 -72.9492 46.9238 -82.5195 C 45.2637 -77.5391 44.3359 -71.875 44.3359 -65.918 C 44.3359 -27.4902 68.1641 -4.19922 107.471 -4.19922 C 112.598 -4.19922 117.188 -4.83398 121.338 -6.25 C 112.158 7.76367 95.5078 16.1621 77.5391 16.1621 C 46.2891 16.1621 23.4375 -6.68945 23.4375 -38.0371 Z"/>
  </g>
  <g id="Medium-L" transform="matrix(1 0 0 1 1672.12 1556)">
   <path d="M 109.619 -14.2578 C 75.4883 -14.2578 54.2969 -34.7168 54.2969 -67.7734 C 54.2969 -77.002 55.8105 -85.1562 58.2031 -89.9414 C 59.1309 -91.7969 59.4238 -92.9199 59.4238 -94.2383 C 59.4238 -96.582 57.4707 -98.9258 54.6387 -98.9258 C 53.9551 -98.9258 52.6367 -98.7305 50.8789 -98.0469 C 27.5391 -88.623 11.2793 -64.1602 11.2793 -37.793 C 11.2793 0.244141 38.9648 28.0273 77.002 28.0273 C 103.906 28.0273 126.465 13.4766 136.621 -9.81445 C 137.402 -11.5234 137.598 -12.9395 137.598 -13.7695 C 137.598 -16.6016 135.449 -18.3594 133.203 -18.3594 C 132.08 -18.3594 131.055 -18.2129 129.443 -17.5293 C 124.805 -15.5762 116.992 -14.2578 109.619 -14.2578 Z M 21.8262 -38.0859 C 21.8262 -56.9824 31.6406 -75.0977 47.3145 -84.8633 C 45.459 -79.4434 44.4336 -73.1934 44.4336 -66.6016 C 44.4336 -27.8809 68.3594 -4.54102 107.959 -4.54102 C 113.77 -4.54102 118.896 -5.22461 123.535 -6.83594 C 114.111 8.30078 96.4844 17.5293 77.2949 17.5293 C 45.2637 17.5293 21.8262 -5.95703 21.8262 -38.0859 Z"/>
  </g>
  <g id="Regular-L" transform="matrix(1 0 0 1 1375.87 1556)">
   <path d="M 109.717 -12.8906 C 74.4629 -12.8906 52.5879 -34.082 52.5879 -68.2129 C 52.5879 -77.7344 54.1504 -86.0352 56.5918 -90.9668 C 57.373 -92.627 57.5684 -93.457 57.5684 -94.5312 C 57.5684 -96.3379 55.9082 -98.3887 53.6133 -98.3887 C 53.125 -98.3887 52.002 -98.2422 50.4395 -97.6562 C 27.4414 -88.4277 11.2793 -64.0625 11.2793 -37.8418 C 11.2793 0.0488281 38.8184 27.6855 76.709 27.6855 C 103.516 27.6855 125.879 13.2812 135.938 -9.76562 C 136.572 -11.2305 136.67 -12.4023 136.67 -12.9883 C 136.67 -15.332 134.814 -16.8457 133.057 -16.8457 C 132.129 -16.8457 131.445 -16.748 130.176 -16.2598 C 125.342 -14.2578 117.285 -12.8906 109.717 -12.8906 Z M 19.7266 -38.1836 C 19.7266 -58.5449 30.6641 -77.8809 47.8516 -87.9395 C 45.7031 -81.8848 44.5312 -74.8535 44.5312 -67.5293 C 44.5312 -28.418 68.6035 -4.98047 108.594 -4.98047 C 115.234 -4.98047 121.143 -5.81055 126.367 -7.61719 C 116.602 9.0332 97.7539 19.2383 77.0508 19.2383 C 43.8965 19.2383 19.7266 -4.93164 19.7266 -38.1836 Z"/>
  </g>
  <g id="Light-L" transform="matrix(1 0 0 1 1080.06 1556)">
   <path d="M 108.984 -12.0117 C 72.998 -12.0117 50.6836 -33.5938 50.6836 -68.457 C 50.6836 -77.9785 52.1973 -86.0352 54.7852 -91.5039 C 55.3711 -92.9199 55.5664 -93.6523 55.5664 -94.4824 C 55.5664 -95.9473 54.2969 -97.5098 52.4902 -97.5098 C 52.002 -97.5098 51.0254 -97.3633 49.8047 -96.875 C 27.1973 -87.9395 11.2793 -63.8184 11.2793 -38.0371 C 11.2793 -0.634766 38.5254 26.6602 75.8789 26.6602 C 101.904 26.6602 124.414 12.3047 134.229 -10.1074 C 134.717 -11.2305 134.863 -12.1582 134.863 -12.6465 C 134.863 -14.5508 133.447 -15.7715 131.885 -15.7715 C 131.201 -15.7715 130.566 -15.6738 129.59 -15.2832 C 125.195 -13.3789 116.553 -12.0117 108.984 -12.0117 Z M 17.7734 -38.2324 C 17.7734 -59.668 29.6875 -79.9316 48.0469 -89.6484 C 45.752 -83.3008 44.4336 -75.5859 44.4336 -68.0176 C 44.4336 -29.2969 68.5547 -5.85938 108.252 -5.85938 C 115.137 -5.85938 121.631 -6.78711 126.904 -8.64258 C 116.895 9.22852 97.4609 20.2148 76.123 20.2148 C 42.4316 20.2148 17.7734 -4.49219 17.7734 -38.2324 Z"/>
  </g>
  <g id="Thin-L" transform="matrix(1 0 0 1 784.596 1556)">
   <path d="M 107.959 -10.8887 C 71.0449 -10.8887 48.1934 -32.959 48.1934 -68.75 C 48.1934 -78.2227 49.6094 -86.0352 52.3438 -92.2363 C 52.7344 -93.3105 52.9297 -93.8965 52.9297 -94.3848 C 52.9297 -95.459 52.1484 -96.2891 50.9766 -96.2891 C 50.5371 -96.2891 49.7559 -96.1426 48.9258 -95.8496 C 26.8066 -87.3047 11.2793 -63.5742 11.2793 -38.2812 C 11.2793 -1.51367 38.0859 25.3906 74.8535 25.3906 C 99.7559 25.3906 122.51 10.9863 132.031 -10.5469 C 132.324 -11.2305 132.373 -11.8164 132.373 -12.207 C 132.373 -13.5254 131.592 -14.3555 130.371 -14.3555 C 129.932 -14.3555 129.395 -14.2578 128.809 -13.9648 C 124.951 -12.2559 115.576 -10.8887 107.959 -10.8887 Z M 15.1855 -38.3301 C 15.1855 -61.1816 28.418 -82.5684 48.291 -91.9434 C 45.8496 -85.2051 44.3359 -76.6113 44.3359 -68.6523 C 44.3359 -30.4688 68.5547 -7.03125 107.812 -7.03125 C 115.039 -7.03125 122.266 -8.05664 127.637 -9.91211 C 117.236 9.47266 97.1191 21.4844 74.9023 21.4844 C 40.4297 21.4844 15.1855 -3.85742 15.1855 -38.3301 Z"/>
  </g>
  <g id="Ultralight-L" transform="matrix(1 0 0 1 488.495 1556)">
   <path d="M 107.471 -10.3027 C 70.0684 -10.3027 46.9238 -32.6172 46.9238 -68.8965 C 46.9238 -78.3691 48.291 -86.0352 51.123 -92.627 C 51.416 -93.5059 51.5625 -94.043 51.5625 -94.3359 C 51.5625 -95.2148 51.0254 -95.7031 50.2441 -95.7031 C 49.7559 -95.7031 49.0723 -95.5078 48.4375 -95.3125 C 26.6113 -86.9629 11.2793 -63.4277 11.2793 -38.3789 C 11.2793 -1.95312 37.8906 24.707 74.3164 24.707 C 98.6328 24.707 121.533 10.3516 130.859 -10.791 C 131.055 -11.2305 131.152 -11.6211 131.152 -12.0117 C 131.152 -12.9883 130.664 -13.623 129.59 -13.623 C 129.248 -13.623 128.809 -13.5254 128.418 -13.3301 C 124.854 -11.6699 115.088 -10.3027 107.471 -10.3027 Z M 13.8672 -38.3301 C 13.8672 -61.9141 27.7832 -83.9355 48.4375 -93.0664 C 45.8984 -86.1816 44.2871 -77.0996 44.2871 -68.9453 C 44.2871 -31.0547 68.5547 -7.66602 107.617 -7.66602 C 114.99 -7.66602 122.559 -8.74023 127.979 -10.5957 C 117.432 9.57031 96.9238 22.1191 74.2676 22.1191 C 39.4043 22.1191 13.8672 -3.51562 13.8672 -38.3301 Z"/>
  </g>
  <g id="Black-M" transform="matrix(1 0 0 1 2873.81 1126)">
   <path d="M 84.1309 -25.6348 C 63.2324 -25.6348 50.0977 -38.0371 50.0977 -58.3496 C 50.0977 -63.8184 50.9766 -69.3359 52.7832 -72.6074 C 54.1016 -75 54.7852 -77.3438 54.7852 -79.3945 C 54.7852 -83.7891 51.9531 -86.8164 47.2168 -86.8164 C 45.5078 -86.8164 43.5547 -86.377 41.3574 -85.498 C 21.6309 -77.5391 8.74023 -58.2031 8.74023 -37.0117 C 8.74023 -6.88477 30.8105 15.2344 60.9375 15.2344 C 81.6406 15.2344 100.391 2.97852 108.789 -15.9668 C 109.912 -18.457 110.449 -20.752 110.449 -22.6562 C 110.449 -27.0996 107.764 -29.834 103.516 -29.834 C 101.367 -29.834 98.877 -29.1992 96.1914 -27.7344 C 93.6035 -26.3672 88.7695 -25.6348 84.1309 -25.6348 Z M 26.9531 -37.0117 C 26.9531 -44.2383 29.2969 -52.3926 33.9355 -58.3984 C 33.8867 -57.2266 33.8379 -56.1035 33.8379 -55.0293 C 33.8379 -27.2949 51.709 -9.61914 80.127 -9.61914 C 80.3223 -9.61914 80.6152 -9.61914 80.8105 -9.57031 C 75.2441 -5.17578 67.9199 -3.07617 60.8887 -3.07617 C 41.4062 -3.07617 26.9531 -17.4805 26.9531 -37.0117 Z"/>
  </g>
  <g id="Heavy-M" transform="matrix(1 0 0 1 2577.51 1126)">
   <path d="M 84.4238 -23.9258 C 62.1094 -23.9258 48.1445 -37.207 48.1445 -58.8867 C 48.1445 -64.8438 49.1211 -70.6055 50.9277 -73.877 C 52.0996 -76.0742 52.6367 -78.0273 52.6367 -79.834 C 52.6367 -83.5449 50.1465 -86.3281 46.0449 -86.3281 C 44.6289 -86.3281 42.9199 -85.9863 40.918 -85.1562 C 21.582 -77.3438 8.74023 -58.0566 8.74023 -37.0605 C 8.74023 -7.03125 30.6641 14.9414 60.6934 14.9414 C 81.543 14.9414 99.9023 2.97852 108.203 -15.8203 C 109.229 -18.0176 109.619 -20.0195 109.619 -21.582 C 109.619 -25.4883 107.178 -27.8809 103.564 -27.8809 C 101.758 -27.8809 99.707 -27.3926 97.3633 -26.1719 C 94.4824 -24.7559 89.3555 -23.9258 84.4238 -23.9258 Z M 24.4629 -37.1094 C 24.4629 -46.2402 28.125 -55.8594 34.6191 -62.3535 C 34.2285 -60.3516 33.9844 -58.3496 33.9844 -56.2012 C 33.9844 -27.832 52.0508 -10.0098 81.1035 -10.0098 C 82.4707 -10.0098 83.6914 -10.1562 84.8145 -10.4492 C 78.8086 -4.19922 69.8242 -0.830078 60.7422 -0.830078 C 39.8438 -0.830078 24.4629 -16.2109 24.4629 -37.1094 Z"/>
  </g>
  <g id="Bold-M" transform="matrix(1 0 0 1 2281.26 1126)">
   <path d="M 84.7656 -22.0215 C 60.8887 -22.0215 45.9473 -36.3281 45.9473 -59.5215 C 45.9473 -65.9668 47.0215 -71.9727 48.8281 -75.3418 C 49.8535 -77.2461 50.2441 -78.7598 50.2441 -80.3223 C 50.2441 -83.3008 48.0957 -85.791 44.7266 -85.791 C 43.6523 -85.791 42.2363 -85.498 40.4297 -84.7656 C 21.5332 -77.1484 8.74023 -57.959 8.74023 -37.0605 C 8.74023 -7.22656 30.5176 14.6484 60.4004 14.6484 C 81.3965 14.6484 99.3652 2.92969 107.568 -15.625 C 108.398 -17.5293 108.691 -19.2383 108.691 -20.4102 C 108.691 -23.6816 106.494 -25.6836 103.613 -25.6836 C 102.148 -25.6836 100.635 -25.3418 98.6816 -24.4141 C 95.4102 -22.9492 90.0391 -22.0215 84.7656 -22.0215 Z M 21.6797 -37.2559 C 21.6797 -48.4375 26.8066 -59.7656 35.4492 -66.748 C 34.6191 -63.916 34.1797 -60.8398 34.1797 -57.5195 C 34.1797 -28.3691 52.4414 -10.4492 82.2266 -10.4492 C 84.8145 -10.4492 87.1094 -10.7422 89.209 -11.4258 C 82.7148 -3.125 71.9238 1.70898 60.5469 1.70898 C 38.1348 1.70898 21.6797 -14.7461 21.6797 -37.2559 Z"/>
  </g>
  <g id="Semibold-M" transform="matrix(1 0 0 1 1984.84 1126)">
   <path d="M 85.0586 -20.7031 C 60.0098 -20.7031 44.4336 -35.6934 44.4336 -59.9121 C 44.4336 -66.6992 45.6055 -72.9004 47.3633 -76.3672 C 48.291 -78.0762 48.6328 -79.2969 48.6328 -80.6152 C 48.6328 -83.1055 46.7285 -85.4004 43.7988 -85.4004 C 43.0176 -85.4004 41.748 -85.1562 40.0879 -84.5215 C 21.4844 -77.002 8.74023 -57.8613 8.74023 -37.1094 C 8.74023 -7.32422 30.4199 14.4531 60.2051 14.4531 C 81.2988 14.4531 99.0234 2.92969 107.08 -15.5273 C 107.861 -17.2363 108.105 -18.6523 108.105 -19.6289 C 108.105 -22.4121 106.055 -24.2188 103.662 -24.2188 C 102.441 -24.2188 101.27 -23.9746 99.6094 -23.1934 C 96.0938 -21.6797 90.4785 -20.7031 85.0586 -20.7031 Z M 19.7754 -37.3047 C 19.7754 -50 25.8789 -62.4512 35.9863 -69.7754 C 34.9121 -66.3086 34.3262 -62.5488 34.3262 -58.3984 C 34.3262 -28.7598 52.6855 -10.7422 83.0078 -10.7422 C 86.4746 -10.7422 89.4531 -11.1328 92.2852 -12.1094 C 85.4492 -2.34375 73.3887 3.41797 60.4492 3.41797 C 36.9629 3.41797 19.7754 -13.7695 19.7754 -37.3047 Z"/>
  </g>
  <g id="Medium-M" transform="matrix(1 0 0 1 1688.38 1126)">
   <path d="M 85.2051 -19.7266 C 59.375 -19.7266 43.3105 -35.2051 43.3105 -60.2539 C 43.3105 -67.2852 44.4824 -73.6328 46.2891 -77.0996 C 47.1191 -78.7109 47.3633 -79.6875 47.3633 -80.9082 C 47.3633 -82.959 45.6543 -85.1074 43.1152 -85.1074 C 42.4805 -85.1074 41.3574 -84.9121 39.7949 -84.3262 C 21.4844 -76.8555 8.74023 -57.7637 8.74023 -37.1094 C 8.74023 -7.42188 30.3711 14.2578 60.0586 14.2578 C 81.25 14.2578 98.7305 2.92969 106.738 -15.4297 C 107.422 -16.9434 107.617 -18.2129 107.617 -18.9941 C 107.617 -21.4844 105.713 -23.0469 103.711 -23.0469 C 102.686 -23.0469 101.758 -22.9004 100.342 -22.2656 C 96.582 -20.7031 90.8203 -19.7266 85.2051 -19.7266 Z M 18.3105 -37.4023 C 18.3105 -51.1719 25.1953 -64.502 36.4258 -72.0703 C 35.1074 -68.1641 34.4238 -63.8184 34.4238 -59.082 C 34.4238 -29.0527 52.8809 -10.9863 83.5938 -10.9863 C 87.6953 -10.9863 91.2598 -11.4746 94.6289 -12.6465 C 87.5 -1.80664 74.4629 4.73633 60.3516 4.73633 C 36.0352 4.73633 18.3105 -13.0371 18.3105 -37.4023 Z"/>
  </g>
  <g id="Regular-M" transform="matrix(1 0 0 1 1391.98 1126)">
   <path d="M 85.4492 -18.4082 C 58.5449 -18.4082 41.8457 -34.6191 41.8457 -60.6445 C 41.8457 -68.0664 43.0664 -74.6094 44.873 -78.125 C 45.6055 -79.541 45.752 -80.2246 45.752 -81.2012 C 45.752 -82.8125 44.2383 -84.7168 42.1875 -84.7168 C 41.7969 -84.7168 40.8691 -84.5703 39.502 -84.0332 C 21.4355 -76.709 8.74023 -57.666 8.74023 -37.1582 C 8.74023 -7.51953 30.2734 14.0625 59.9121 14.0625 C 81.1523 14.0625 98.3887 2.92969 106.299 -15.332 C 106.885 -16.6016 106.982 -17.6758 106.982 -18.2129 C 106.982 -20.2148 105.273 -21.582 103.76 -21.582 C 102.979 -21.582 102.393 -21.5332 101.221 -21.0938 C 97.2656 -19.4824 91.3086 -18.4082 85.4492 -18.4082 Z M 16.4062 -37.5 C 16.4062 -52.6855 24.3164 -67.1387 36.9629 -75.0977 C 35.4004 -70.5566 34.5703 -65.5273 34.5703 -59.9609 C 34.5703 -29.4434 53.1738 -11.2793 84.3262 -11.2793 C 89.3555 -11.2793 93.6035 -11.8652 97.6562 -13.2812 C 90.2344 -1.02539 75.9277 6.44531 60.2051 6.44531 C 34.8633 6.44531 16.4062 -12.0117 16.4062 -37.5 Z"/>
  </g>
  <g id="Light-M" transform="matrix(1 0 0 1 1096.1 1126)">
   <path d="M 84.7656 -17.627 C 57.2266 -17.627 40.1367 -34.1797 40.1367 -60.8398 C 40.1367 -68.2617 41.3086 -74.6094 43.2617 -78.6133 C 43.7988 -79.7852 43.9453 -80.4199 43.9453 -81.1523 C 43.9453 -82.4707 42.8223 -83.8867 41.1621 -83.8867 C 40.8203 -83.8867 39.9902 -83.7891 38.8672 -83.3496 C 21.1914 -76.3184 8.74023 -57.4707 8.74023 -37.3047 C 8.74023 -8.10547 29.9805 13.1836 59.1797 13.1836 C 79.6875 13.1836 97.0703 2.05078 104.785 -15.625 C 105.225 -16.6016 105.322 -17.4316 105.322 -17.8711 C 105.322 -19.5312 104.004 -20.6055 102.734 -20.6055 C 102.1 -20.6055 101.611 -20.5566 100.684 -20.2148 C 97.0703 -18.7012 90.625 -17.627 84.7656 -17.627 Z M 14.6484 -37.5488 C 14.6484 -53.6621 23.4375 -68.9453 37.1582 -76.6602 C 35.4492 -71.875 34.4727 -66.2109 34.4727 -60.4004 C 34.4727 -30.2246 53.125 -12.1094 84.0332 -12.1094 C 89.2578 -12.1094 94.043 -12.7441 98.0957 -14.1602 C 90.4785 -0.878906 75.6836 7.32422 59.4238 7.32422 C 33.5449 7.32422 14.6484 -11.6211 14.6484 -37.5488 Z"/>
  </g>
  <g id="Thin-M" transform="matrix(1 0 0 1 800.49 1126)">
   <path d="M 83.8867 -16.6016 C 55.4688 -16.6016 37.8906 -33.5938 37.8906 -61.1328 C 37.8906 -68.5059 39.0137 -74.6094 41.1133 -79.248 C 41.4551 -80.1758 41.5527 -80.6641 41.5527 -81.1035 C 41.5527 -82.0312 40.8691 -82.8125 39.8438 -82.8125 C 39.4531 -82.8125 38.8184 -82.7148 38.0859 -82.4219 C 20.8496 -75.7324 8.74023 -57.2266 8.74023 -37.5488 C 8.74023 -8.88672 29.5898 12.0117 58.252 12.0117 C 77.7832 12.0117 95.3613 0.878906 102.783 -16.0156 C 103.076 -16.6016 103.125 -17.1387 103.125 -17.4805 C 103.125 -18.6035 102.393 -19.3359 101.367 -19.3359 C 100.977 -19.3359 100.537 -19.2871 100 -19.043 C 96.875 -17.6758 89.7949 -16.6016 83.8867 -16.6016 Z M 12.3047 -37.5977 C 12.3047 -55.0293 22.3145 -71.3379 37.3535 -78.6621 C 35.498 -73.5352 34.375 -67.0898 34.375 -60.9863 C 34.375 -31.2988 53.125 -13.1348 83.6426 -13.1348 C 89.1602 -13.1348 94.5801 -13.916 98.7305 -15.332 C 90.7715 -0.634766 75.3418 8.44727 58.3008 8.44727 C 31.7871 8.44727 12.3047 -11.0352 12.3047 -37.5977 Z"/>
  </g>
  <g id="Ultralight-M" transform="matrix(1 0 0 1 504.34 1126)">
   <path d="M 83.4473 -16.0645 C 54.5898 -16.0645 36.7676 -33.3008 36.7676 -61.2793 C 36.7676 -68.6035 37.793 -74.6094 39.9902 -79.5898 C 40.2344 -80.3223 40.3809 -80.7617 40.3809 -81.0547 C 40.3809 -81.7871 39.8926 -82.2754 39.1602 -82.2754 C 38.7695 -82.2754 38.2324 -82.1289 37.6953 -81.9824 C 20.7031 -75.4395 8.74023 -57.1289 8.74023 -37.6465 C 8.74023 -9.32617 29.3945 11.4258 57.7637 11.4258 C 76.7578 11.4258 94.4824 0.292969 101.758 -16.2109 C 101.953 -16.6016 102.002 -16.9922 102.002 -17.2852 C 102.002 -18.1641 101.514 -18.7012 100.684 -18.7012 C 100.391 -18.7012 100 -18.6523 99.6582 -18.457 C 96.7773 -17.1387 89.3555 -16.0645 83.4473 -16.0645 Z M 11.1328 -37.6465 C 11.1328 -55.7129 21.7285 -72.5586 37.5 -79.7363 C 35.5469 -74.4141 34.375 -67.5293 34.375 -61.2793 C 34.375 -31.8359 53.125 -13.6719 83.4473 -13.6719 C 89.1113 -13.6719 94.873 -14.502 99.0723 -15.918 C 90.9668 -0.537109 75.1465 9.0332 57.7637 9.0332 C 30.8594 9.0332 11.1328 -10.7422 11.1328 -37.6465 Z"/>
  </g>
  <g id="Black-S" transform="matrix(1 0 0 1 2886.74 696)">
   <path d="M 65.918 -27.5879 C 49.4629 -27.5879 39.1113 -37.3535 39.1113 -53.3691 C 39.1113 -57.7148 39.7949 -62.0605 41.2109 -64.5996 C 42.2363 -66.4551 42.7734 -68.2617 42.7734 -69.873 C 42.7734 -73.2422 40.5762 -75.6348 36.9141 -75.6348 C 35.5957 -75.6348 34.082 -75.293 32.373 -74.6094 C 16.9434 -68.3594 6.83594 -53.2227 6.83594 -36.6211 C 6.83594 -13.0371 24.1211 4.29688 47.7051 4.29688 C 63.9648 4.29688 78.6133 -5.27344 85.2051 -20.1172 C 86.084 -22.0703 86.4746 -23.8281 86.4746 -25.293 C 86.4746 -28.7598 84.375 -30.8594 81.1035 -30.8594 C 79.4434 -30.8594 77.5391 -30.3711 75.4395 -29.248 C 73.3887 -28.1738 69.5801 -27.5879 65.918 -27.5879 Z M 20.9473 -36.6211 C 20.9473 -42.4316 22.8516 -48.9258 26.6113 -53.6621 C 26.5625 -52.6855 26.5137 -51.7578 26.5137 -50.8301 C 26.5137 -29.0527 40.5273 -15.1855 62.8418 -15.1855 L 63.623 -15.1855 C 59.2285 -11.6211 53.3691 -9.86328 47.7051 -9.86328 C 32.3242 -9.86328 20.9473 -21.2402 20.9473 -36.6211 Z"/>
  </g>
  <g id="Heavy-S" transform="matrix(1 0 0 1 2590.25 696)">
   <path d="M 66.2598 -26.3672 C 48.7793 -26.3672 37.793 -36.7676 37.793 -53.7598 C 37.793 -58.4473 38.5742 -62.9883 39.9414 -65.5273 C 40.918 -67.2363 41.3574 -68.75 41.3574 -70.2148 C 41.3574 -73.0957 39.3555 -75.3418 36.1328 -75.3418 C 35.0586 -75.3418 33.6914 -75.0488 32.0801 -74.4141 C 16.9434 -68.2617 6.83594 -53.125 6.83594 -36.6211 C 6.83594 -13.0859 24.0723 4.19922 47.6074 4.19922 C 64.0625 4.19922 78.3691 -5.17578 84.9121 -19.9707 C 85.6934 -21.7285 86.0352 -23.291 86.0352 -24.5117 C 86.0352 -27.5879 84.082 -29.4922 81.25 -29.4922 C 79.834 -29.4922 78.2715 -29.1016 76.416 -28.125 C 74.0723 -27.002 70.1172 -26.3672 66.2598 -26.3672 Z M 19.2383 -36.7188 C 19.2383 -43.8477 22.0703 -51.3672 27.1484 -56.4941 C 26.8066 -54.9805 26.6602 -53.3691 26.6602 -51.6602 C 26.6602 -29.3457 40.7715 -15.3809 63.623 -15.3809 C 64.6973 -15.3809 65.6738 -15.4785 66.6016 -15.7715 C 61.9141 -10.8887 54.834 -8.25195 47.6562 -8.25195 C 31.2988 -8.25195 19.2383 -20.3125 19.2383 -36.7188 Z"/>
  </g>
  <g id="Bold-S" transform="matrix(1 0 0 1 2293.79 696)">
   <path d="M 66.6016 -25 C 47.9492 -25 36.3281 -36.1328 36.3281 -54.1992 C 36.3281 -59.2773 37.207 -64.0625 38.5742 -66.6016 C 39.4043 -68.1152 39.7461 -69.3359 39.7461 -70.5566 C 39.7461 -72.9492 37.9883 -75 35.2051 -75 C 34.4238 -75 33.252 -74.8047 31.7871 -74.2188 C 16.9434 -68.1641 6.83594 -53.0762 6.83594 -36.6211 C 6.83594 -13.1348 23.9746 4.05273 47.4609 4.05273 C 64.1113 4.05273 78.125 -5.07812 84.6191 -19.7754 C 85.3027 -21.3867 85.5469 -22.7051 85.5469 -23.6816 C 85.5469 -26.2695 83.7402 -27.9297 81.4453 -27.9297 C 80.2734 -27.9297 79.0527 -27.6367 77.4902 -26.9043 C 74.8047 -25.7324 70.7031 -25 66.6016 -25 Z M 17.334 -36.8164 C 17.334 -45.4102 21.1426 -54.1504 27.7344 -59.668 C 27.1484 -57.5195 26.8066 -55.2246 26.8066 -52.6367 C 26.8066 -29.6875 41.0645 -15.625 64.5508 -15.625 C 66.5527 -15.625 68.2617 -15.8203 69.9219 -16.4062 C 64.8926 -10.0586 56.4941 -6.44531 47.6562 -6.44531 C 30.127 -6.44531 17.334 -19.2383 17.334 -36.8164 Z"/>
  </g>
  <g id="Semibold-S" transform="matrix(1 0 0 1 1997.25 696)">
   <path d="M 66.8457 -24.0723 C 47.4121 -24.0723 35.3516 -35.6934 35.3516 -54.541 C 35.3516 -59.8633 36.2305 -64.7949 37.5977 -67.334 C 38.3789 -68.75 38.623 -69.7266 38.623 -70.8496 C 38.623 -72.8516 37.0117 -74.8047 34.6191 -74.8047 C 33.9844 -74.8047 32.959 -74.6094 31.5918 -74.0723 C 16.8945 -68.0664 6.83594 -53.0273 6.83594 -36.6211 C 6.83594 -13.1836 23.9258 3.95508 47.4121 3.95508 C 64.1602 3.95508 77.9785 -5.0293 84.375 -19.6777 C 85.0098 -21.0938 85.2051 -22.3145 85.2051 -23.0469 C 85.2051 -25.3906 83.4961 -26.8555 81.543 -26.8555 C 80.5664 -26.8555 79.6387 -26.6602 78.2715 -26.0742 C 75.3418 -24.8047 71.0938 -24.0723 66.8457 -24.0723 Z M 16.0156 -36.8652 C 16.0156 -46.4844 20.5078 -56.0547 28.1738 -61.8652 C 27.3438 -59.2285 26.9043 -56.4453 26.9043 -53.2715 C 26.9043 -29.8828 41.3086 -15.8203 65.1367 -15.8203 C 67.8223 -15.8203 70.0195 -16.0645 72.2168 -16.8457 C 66.9434 -9.52148 57.6172 -5.17578 47.6074 -5.17578 C 29.3457 -5.17578 16.0156 -18.5547 16.0156 -36.8652 Z"/>
  </g>
  <g id="Medium-S" transform="matrix(1 0 0 1 1700.66 696)">
   <path d="M 67.041 -23.3887 C 47.0215 -23.3887 34.5703 -35.4004 34.5703 -54.7363 C 34.5703 -60.3027 35.5469 -65.332 36.8652 -67.8711 C 37.5977 -69.1895 37.793 -70.0195 37.793 -71.0449 C 37.793 -72.7539 36.3281 -74.6094 34.1309 -74.6094 C 33.6426 -74.6094 32.7148 -74.4629 31.3965 -73.9746 C 16.8945 -68.0176 6.83594 -52.9785 6.83594 -36.6211 C 6.83594 -13.1836 23.877 3.90625 47.3145 3.90625 C 64.209 3.90625 77.832 -4.98047 84.2285 -19.5801 C 84.8145 -20.8984 84.9609 -21.9727 84.9609 -22.6074 C 84.9609 -24.707 83.3008 -26.0742 81.6406 -26.0742 C 80.7617 -26.0742 80.0293 -25.9277 78.8086 -25.3906 C 75.7324 -24.1699 71.4355 -23.3887 67.041 -23.3887 Z M 14.9902 -36.9141 C 14.9902 -47.3145 20.0684 -57.4707 28.4668 -63.5254 C 27.4902 -60.5957 27.002 -57.4219 27.002 -53.7598 C 27.002 -30.0781 41.4551 -15.918 65.625 -15.918 C 68.75 -15.918 71.3379 -16.2598 73.9746 -17.1875 C 68.5059 -9.08203 58.4473 -4.24805 47.6074 -4.24805 C 28.7598 -4.24805 14.9902 -17.9688 14.9902 -36.9141 Z"/>
  </g>
  <g id="Regular-S" transform="matrix(1 0 0 1 1404.12 696)">
   <path d="M 67.2852 -22.4609 C 46.4844 -22.4609 33.5938 -34.9609 33.5938 -55.0781 C 33.5938 -60.8887 34.5703 -66.0645 35.9375 -68.6035 C 36.5723 -69.8242 36.6699 -70.4102 36.6699 -71.2891 C 36.6699 -72.6562 35.3516 -74.3652 33.5449 -74.3652 C 33.252 -74.3652 32.4219 -74.2676 31.2012 -73.8281 C 16.8945 -67.9688 6.83594 -52.8809 6.83594 -36.6699 C 6.83594 -13.2324 23.8281 3.80859 47.2656 3.80859 C 64.2578 3.80859 77.6855 -4.93164 83.9844 -19.4824 C 84.5215 -20.6543 84.6191 -21.582 84.6191 -22.0215 C 84.6191 -23.8281 83.0566 -25 81.7871 -25 C 81.0547 -25 80.5664 -24.9512 79.541 -24.5605 C 76.2695 -23.291 71.8262 -22.4609 67.2852 -22.4609 Z M 13.6719 -36.9629 C 13.6719 -48.3887 19.4336 -59.375 28.9062 -65.7227 C 27.6855 -62.3047 27.0996 -58.6426 27.0996 -54.3945 C 27.0996 -30.3223 41.6504 -16.1133 66.2109 -16.1133 C 70.0195 -16.1133 73.0957 -16.5039 76.2695 -17.627 C 70.5566 -8.49609 59.5703 -2.97852 47.5586 -2.97852 C 27.9785 -2.97852 13.6719 -17.2852 13.6719 -36.9629 Z"/>
  </g>
  <g id="Light-S" transform="matrix(1 0 0 1 1108.14 696)">
   <path d="M 66.6992 -21.7285 C 45.3125 -21.7285 32.0801 -34.5703 32.0801 -55.2246 C 32.0801 -61.0352 33.0566 -66.0645 34.4727 -69.043 C 35.0098 -70.0684 35.1074 -70.5566 35.1074 -71.2402 C 35.1074 -72.3633 34.082 -73.6816 32.6172 -73.6816 C 32.3242 -73.6816 31.6406 -73.584 30.6641 -73.1934 C 16.6992 -67.5781 6.83594 -52.7344 6.83594 -36.8164 C 6.83594 -13.7695 23.584 3.02734 46.6309 3.02734 C 62.9883 3.02734 76.5137 -5.71289 82.666 -19.7266 C 83.0566 -20.6543 83.1543 -21.3867 83.1543 -21.7773 C 83.1543 -23.1934 81.9824 -24.1699 80.8594 -24.1699 C 80.3223 -24.1699 79.8828 -24.1211 79.1016 -23.7793 C 76.123 -22.5586 71.2402 -21.7285 66.6992 -21.7285 Z M 12.1582 -37.0117 C 12.1582 -49.3164 18.7012 -60.9375 29.0527 -67.0898 C 27.7344 -63.4277 27.0508 -59.2285 27.0508 -54.7852 C 27.0508 -31.0059 41.6504 -16.7969 65.9668 -16.7969 C 69.9707 -16.7969 73.4863 -17.2852 76.6602 -18.4082 C 70.752 -8.34961 59.375 -2.24609 46.8262 -2.24609 C 26.7578 -2.24609 12.1582 -16.8945 12.1582 -37.0117 Z"/>
  </g>
  <g id="Thin-S" transform="matrix(1 0 0 1 812.404 696)">
   <path d="M 65.8691 -20.8496 C 43.7988 -20.8496 30.127 -34.082 30.127 -55.4688 C 30.127 -61.2305 31.0059 -66.0645 32.6172 -69.5801 C 32.9102 -70.3613 33.0078 -70.752 33.0078 -71.1914 C 33.0078 -71.9727 32.373 -72.7051 31.4453 -72.7051 C 31.1523 -72.7051 30.6152 -72.6074 29.9805 -72.4121 C 16.4062 -67.0898 6.83594 -52.5391 6.83594 -36.9629 C 6.83594 -14.4531 23.2422 2.00195 45.8008 2.00195 C 61.2793 2.00195 75.0488 -6.73828 80.9082 -20.0684 C 81.1523 -20.6543 81.2012 -21.1426 81.2012 -21.4355 C 81.2012 -22.4121 80.5176 -23.0469 79.6875 -23.0469 C 79.2969 -23.0469 78.9551 -22.998 78.4668 -22.7539 C 75.9277 -21.6797 70.5078 -20.8496 65.8691 -20.8496 Z M 10.1074 -37.0605 C 10.1074 -50.4883 17.6758 -63.0859 29.1992 -68.8965 C 27.7832 -64.9414 26.9531 -60.0098 26.9531 -55.2734 C 26.9531 -31.9336 41.6016 -17.7246 65.625 -17.7246 C 69.873 -17.7246 73.9746 -18.3105 77.2461 -19.4336 C 71.0449 -8.20312 59.082 -1.2207 45.8984 -1.2207 C 25.1953 -1.2207 10.1074 -16.4062 10.1074 -37.0605 Z"/>
  </g>
  <g id="Ultralight-S" transform="matrix(1 0 0 1 516.181 696)">
   <path d="M 65.4785 -20.3613 C 43.0176 -20.3613 29.1016 -33.7891 29.1016 -55.5664 C 29.1016 -61.3281 29.9316 -66.0645 31.6406 -69.9219 C 31.8359 -70.5078 31.9336 -70.8496 31.9336 -71.1426 C 31.9336 -71.7773 31.4941 -72.2168 30.8594 -72.2168 C 30.5664 -72.2168 30.0781 -72.1191 29.6387 -71.9727 C 16.2598 -66.7969 6.83594 -52.4414 6.83594 -37.1094 C 6.83594 -14.7949 23.0957 1.46484 45.3613 1.46484 C 60.4004 1.46484 74.2676 -7.27539 79.9805 -20.2637 C 80.1758 -20.6543 80.2246 -20.9961 80.2246 -21.2402 C 80.2246 -21.9727 79.7852 -22.4609 79.0527 -22.4609 C 78.7598 -22.4609 78.4668 -22.4121 78.125 -22.2168 C 75.8301 -21.1914 70.1172 -20.3613 65.4785 -20.3613 Z M 9.0332 -37.1094 C 9.0332 -51.0742 17.1387 -64.1602 29.3457 -69.8242 C 27.832 -65.6738 26.9043 -60.4004 26.9043 -55.5664 C 26.9043 -32.4219 41.6016 -18.2129 65.4297 -18.2129 C 69.8242 -18.2129 74.2676 -18.8477 77.5391 -19.9707 C 71.1914 -8.05664 58.9355 -0.683594 45.3613 -0.683594 C 24.4141 -0.683594 9.0332 -16.1133 9.0332 -37.1094 Z"/>
  </g>
 </g>
</svg>
