<?xml version="1.0" encoding="UTF-8"?>
<!--Generator: Apple Native CoreSVG 123-->
<!DOCTYPE svg
PUBLIC "-//W3C//DTD SVG 1.1//EN"
       "http://www.w3.org/Graphics/SVG/1.1/DTD/svg11.dtd">
<svg version="1.1" xmlns="http://www.w3.org/2000/svg" xmlns:xlink="http://www.w3.org/1999/xlink" width="3300" height="2200">
 <!--glyph: "uni1001BE.medium", point size: 100.000000, font version: "Version 15.0d7e11", template writer version: "5"-->
 <g id="Notes">
  <rect height="2200" id="artboard" style="fill:white;opacity:1" width="3300" x="0" y="0"/>
  <line id="" style="fill:none;stroke:black;opacity:1;stroke-width:0.5;" x1="263" x2="3036" y1="292" y2="292"/>
  <text style="stroke:none;fill:black;font-family:-apple-system,&quot;SF Pro Display&quot;,&quot;SF Pro Text&quot;,Helvetica,sans-serif;font-weight:bold;" transform="matrix(1 0 0 1 263 322)">Weight/Scale Variations</text>
  <text style="stroke:none;fill:black;font-family:-apple-system,&quot;SF Pro Display&quot;,&quot;SF Pro Text&quot;,Helvetica,sans-serif;text-anchor:middle;" transform="matrix(1 0 0 1 559.711 322)">Ultralight</text>
  <text style="stroke:none;fill:black;font-family:-apple-system,&quot;SF Pro Display&quot;,&quot;SF Pro Text&quot;,Helvetica,sans-serif;text-anchor:middle;" transform="matrix(1 0 0 1 856.422 322)">Thin</text>
  <text style="stroke:none;fill:black;font-family:-apple-system,&quot;SF Pro Display&quot;,&quot;SF Pro Text&quot;,Helvetica,sans-serif;text-anchor:middle;" transform="matrix(1 0 0 1 1153.13 322)">Light</text>
  <text style="stroke:none;fill:black;font-family:-apple-system,&quot;SF Pro Display&quot;,&quot;SF Pro Text&quot;,Helvetica,sans-serif;text-anchor:middle;" transform="matrix(1 0 0 1 1449.84 322)">Regular</text>
  <text style="stroke:none;fill:black;font-family:-apple-system,&quot;SF Pro Display&quot;,&quot;SF Pro Text&quot;,Helvetica,sans-serif;text-anchor:middle;" transform="matrix(1 0 0 1 1746.56 322)">Medium</text>
  <text style="stroke:none;fill:black;font-family:-apple-system,&quot;SF Pro Display&quot;,&quot;SF Pro Text&quot;,Helvetica,sans-serif;text-anchor:middle;" transform="matrix(1 0 0 1 2043.27 322)">Semibold</text>
  <text style="stroke:none;fill:black;font-family:-apple-system,&quot;SF Pro Display&quot;,&quot;SF Pro Text&quot;,Helvetica,sans-serif;text-anchor:middle;" transform="matrix(1 0 0 1 2339.98 322)">Bold</text>
  <text style="stroke:none;fill:black;font-family:-apple-system,&quot;SF Pro Display&quot;,&quot;SF Pro Text&quot;,Helvetica,sans-serif;text-anchor:middle;" transform="matrix(1 0 0 1 2636.69 322)">Heavy</text>
  <text style="stroke:none;fill:black;font-family:-apple-system,&quot;SF Pro Display&quot;,&quot;SF Pro Text&quot;,Helvetica,sans-serif;text-anchor:middle;" transform="matrix(1 0 0 1 2933.4 322)">Black</text>
  <line id="" style="fill:none;stroke:black;opacity:1;stroke-width:0.5;" x1="263" x2="3036" y1="1903" y2="1903"/>
  <g id="" transform="matrix(1 0 0 1 263 1933)">
   <path d="M 9.24805 0.830078 C 13.5547 0.830078 17.1387 -2.74414 17.1387 -7.05078 C 17.1387 -11.3574 13.5449 -14.9316 9.23828 -14.9316 C 4.94141 -14.9316 1.36719 -11.3574 1.36719 -7.05078 C 1.36719 -2.74414 4.95117 0.830078 9.24805 0.830078 Z M 9.24805 -0.654297 C 5.70312 -0.654297 2.87109 -3.49609 2.87109 -7.05078 C 2.87109 -10.6055 5.69336 -13.4473 9.23828 -13.4473 C 12.793 -13.4473 15.6348 -10.6055 15.6445 -7.05078 C 15.6543 -3.49609 12.8027 -0.654297 9.24805 -0.654297 Z M 9.22852 -3.42773 C 9.69727 -3.42773 9.9707 -3.74023 9.9707 -4.25781 L 9.9707 -6.31836 L 12.1973 -6.31836 C 12.6953 -6.31836 13.0371 -6.57227 13.0371 -7.04102 C 13.0371 -7.51953 12.7148 -7.7832 12.1973 -7.7832 L 9.9707 -7.7832 L 9.9707 -10.0098 C 9.9707 -10.5273 9.69727 -10.8496 9.22852 -10.8496 C 8.75977 -10.8496 8.50586 -10.5078 8.50586 -10.0098 L 8.50586 -7.7832 L 6.29883 -7.7832 C 5.78125 -7.7832 5.44922 -7.51953 5.44922 -7.04102 C 5.44922 -6.57227 5.80078 -6.31836 6.29883 -6.31836 L 8.50586 -6.31836 L 8.50586 -4.25781 C 8.50586 -3.75977 8.75977 -3.42773 9.22852 -3.42773 Z"/>
  </g>
  <g id="" transform="matrix(1 0 0 1 281.506 1933)">
   <path d="M 11.709 2.91016 C 17.1582 2.91016 21.6699 -1.60156 21.6699 -7.05078 C 21.6699 -12.4902 17.1484 -17.0117 11.6992 -17.0117 C 6.25977 -17.0117 1.74805 -12.4902 1.74805 -7.05078 C 1.74805 -1.60156 6.26953 2.91016 11.709 2.91016 Z M 11.709 1.25 C 7.09961 1.25 3.41797 -2.44141 3.41797 -7.05078 C 3.41797 -11.6504 7.08984 -15.3516 11.6992 -15.3516 C 16.3086 -15.3516 20 -11.6504 20.0098 -7.05078 C 20.0195 -2.44141 16.3184 1.25 11.709 1.25 Z M 11.6895 -2.41211 C 12.207 -2.41211 12.5195 -2.77344 12.5195 -3.33984 L 12.5195 -6.23047 L 15.5762 -6.23047 C 16.123 -6.23047 16.5039 -6.51367 16.5039 -7.03125 C 16.5039 -7.55859 16.1426 -7.86133 15.5762 -7.86133 L 12.5195 -7.86133 L 12.5195 -10.9277 C 12.5195 -11.5039 12.207 -11.8555 11.6895 -11.8555 C 11.1719 -11.8555 10.8789 -11.4844 10.8789 -10.9277 L 10.8789 -7.86133 L 7.83203 -7.86133 C 7.26562 -7.86133 6.89453 -7.55859 6.89453 -7.03125 C 6.89453 -6.51367 7.28516 -6.23047 7.83203 -6.23047 L 10.8789 -6.23047 L 10.8789 -3.33984 C 10.8789 -2.79297 11.1719 -2.41211 11.6895 -2.41211 Z"/>
  </g>
  <g id="" transform="matrix(1 0 0 1 304.924 1933)">
   <path d="M 14.9707 5.67383 C 21.9336 5.67383 27.6953 -0.078125 27.6953 -7.04102 C 27.6953 -14.0039 21.9238 -19.7559 14.9609 -19.7559 C 8.00781 -19.7559 2.25586 -14.0039 2.25586 -7.04102 C 2.25586 -0.078125 8.01758 5.67383 14.9707 5.67383 Z M 14.9707 3.85742 C 8.93555 3.85742 4.08203 -1.00586 4.08203 -7.04102 C 4.08203 -13.0762 8.92578 -17.9395 14.9609 -17.9395 C 21.0059 -17.9395 25.8594 -13.0762 25.8691 -7.04102 C 25.8789 -1.00586 21.0156 3.85742 14.9707 3.85742 Z M 14.9512 -1.06445 C 15.5176 -1.06445 15.8691 -1.45508 15.8691 -2.06055 L 15.8691 -6.13281 L 20.1074 -6.13281 C 20.6934 -6.13281 21.1133 -6.46484 21.1133 -7.02148 C 21.1133 -7.59766 20.7227 -7.93945 20.1074 -7.93945 L 15.8691 -7.93945 L 15.8691 -12.1875 C 15.8691 -12.8027 15.5176 -13.1934 14.9512 -13.1934 C 14.3848 -13.1934 14.0625 -12.7832 14.0625 -12.1875 L 14.0625 -7.93945 L 9.83398 -7.93945 C 9.21875 -7.93945 8.80859 -7.59766 8.80859 -7.02148 C 8.80859 -6.46484 9.23828 -6.13281 9.83398 -6.13281 L 14.0625 -6.13281 L 14.0625 -2.06055 C 14.0625 -1.47461 14.3848 -1.06445 14.9512 -1.06445 Z"/>
  </g>
  <text style="stroke:none;fill:black;font-family:-apple-system,&quot;SF Pro Display&quot;,&quot;SF Pro Text&quot;,Helvetica,sans-serif;font-weight:bold;" transform="matrix(1 0 0 1 263 1953)">Design Variations</text>
  <text style="stroke:none;fill:black;font-family:-apple-system,&quot;SF Pro Display&quot;,&quot;SF Pro Text&quot;,Helvetica,sans-serif;" transform="matrix(1 0 0 1 263 1971)">Symbols are supported in up to nine weights and three scales.</text>
  <text style="stroke:none;fill:black;font-family:-apple-system,&quot;SF Pro Display&quot;,&quot;SF Pro Text&quot;,Helvetica,sans-serif;" transform="matrix(1 0 0 1 263 1989)">For optimal layout with text and other symbols, vertically align</text>
  <text style="stroke:none;fill:black;font-family:-apple-system,&quot;SF Pro Display&quot;,&quot;SF Pro Text&quot;,Helvetica,sans-serif;" transform="matrix(1 0 0 1 263 2007)">symbols with the adjacent text.</text>
  <rect height="14" id="" style="fill:#00AEEF;stroke:none;opacity:0.4;" width="3" x="776" y="1919"/>
  <g id="" transform="matrix(1 0 0 1 779 1933)">
   <path d="M 10.5273 0 L 12.373 0 L 7.17773 -14.0918 L 5.43945 -14.0918 L 0.244141 0 L 2.08984 0 L 3.50586 -4.0332 L 9.11133 -4.0332 Z M 6.2793 -11.9531 L 6.33789 -11.9531 L 8.59375 -5.52734 L 4.02344 -5.52734 Z"/>
  </g>
  <rect height="14" id="" style="fill:#00AEEF;stroke:none;opacity:0.4;" width="3" x="791.617" y="1919"/>
  <text style="stroke:none;fill:black;font-family:-apple-system,&quot;SF Pro Display&quot;,&quot;SF Pro Text&quot;,Helvetica,sans-serif;font-weight:bold;" transform="matrix(1 0 0 1 776 1953)">Margins</text>
  <text style="stroke:none;fill:black;font-family:-apple-system,&quot;SF Pro Display&quot;,&quot;SF Pro Text&quot;,Helvetica,sans-serif;" transform="matrix(1 0 0 1 776 1971)">Leading and trailing margins on the left and right side of each symbol</text>
  <text style="stroke:none;fill:black;font-family:-apple-system,&quot;SF Pro Display&quot;,&quot;SF Pro Text&quot;,Helvetica,sans-serif;" transform="matrix(1 0 0 1 776 1989)">can be adjusted by modifying the width of the blue rectangles.</text>
  <text style="stroke:none;fill:black;font-family:-apple-system,&quot;SF Pro Display&quot;,&quot;SF Pro Text&quot;,Helvetica,sans-serif;" transform="matrix(1 0 0 1 776 2007)">Modifications are automatically applied proportionally to all</text>
  <text style="stroke:none;fill:black;font-family:-apple-system,&quot;SF Pro Display&quot;,&quot;SF Pro Text&quot;,Helvetica,sans-serif;" transform="matrix(1 0 0 1 776 2025)">scales and weights.</text>
  <g id="" transform="matrix(1 0 0 1 1289 1933)">
   <path d="M 2.83203 3.11523 L 4.375 4.6582 C 5.22461 5.48828 6.19141 5.41992 7.06055 4.46289 L 17.2754 -6.66016 C 17.7051 -6.36719 18.0957 -6.37695 18.5645 -6.47461 L 19.6094 -6.68945 L 20.3027 -5.99609 L 20.2539 -5.47852 C 20.1855 -4.95117 20.3516 -4.53125 20.8496 -4.0332 L 21.6602 -3.22266 C 22.168 -2.71484 22.8223 -2.68555 23.3008 -3.16406 L 26.5527 -6.41602 C 27.0312 -6.89453 27.0117 -7.54883 26.5039 -8.05664 L 25.6836 -8.87695 C 25.1855 -9.375 24.7754 -9.55078 24.2383 -9.47266 L 23.7109 -9.41406 L 23.0566 -10.0781 L 23.3398 -11.2207 C 23.4863 -11.7871 23.3398 -12.2559 22.7148 -12.8613 L 20.3027 -15.2539 C 16.7578 -18.7793 12.2266 -18.6719 9.11133 -15.5371 C 8.69141 -15.1074 8.64258 -14.5215 8.91602 -14.0918 C 9.15039 -13.7207 9.62891 -13.4961 10.2734 -13.6621 C 11.7871 -14.043 13.3008 -13.9258 14.7852 -12.9199 L 14.1602 -11.3379 C 13.9258 -10.752 13.9453 -10.2734 14.1797 -9.83398 L 3.01758 0.439453 C 2.08008 1.30859 1.97266 2.25586 2.83203 3.11523 Z M 10.6738 -15.1465 C 13.3398 -17.1387 16.6504 -16.8262 19.0527 -14.4141 L 21.6797 -11.8066 C 21.9141 -11.5723 21.9434 -11.3867 21.8848 -11.0938 L 21.5039 -9.53125 L 23.0762 -7.95898 L 24.043 -8.04688 C 24.3262 -8.07617 24.4141 -8.05664 24.6387 -7.83203 L 25.2637 -7.20703 L 22.5098 -4.46289 L 21.8848 -5.07812 C 21.6602 -5.30273 21.6406 -5.40039 21.6699 -5.68359 L 21.7578 -6.64062 L 20.1953 -8.20312 L 18.5742 -7.89062 C 18.291 -7.83203 18.1445 -7.83203 17.9102 -8.07617 L 15.7324 -10.2539 C 15.5078 -10.4883 15.4785 -10.625 15.6055 -10.9473 L 16.5527 -13.2227 C 14.9512 -14.7559 12.8418 -15.6055 10.8008 -14.9512 C 10.7129 -14.9219 10.6445 -14.9414 10.6152 -14.9805 C 10.5859 -15.0293 10.5859 -15.0781 10.6738 -15.1465 Z M 4.10156 2.41211 C 3.61328 1.91406 3.78906 1.61133 4.12109 1.30859 L 15.0781 -8.80859 L 16.3086 -7.57812 L 6.15234 3.34961 C 5.84961 3.68164 5.46875 3.7793 5.06836 3.37891 Z"/>
  </g>
  <text style="stroke:none;fill:black;font-family:-apple-system,&quot;SF Pro Display&quot;,&quot;SF Pro Text&quot;,Helvetica,sans-serif;font-weight:bold;" transform="matrix(1 0 0 1 1289 1953)">Exporting</text>
  <text style="stroke:none;fill:black;font-family:-apple-system,&quot;SF Pro Display&quot;,&quot;SF Pro Text&quot;,Helvetica,sans-serif;" transform="matrix(1 0 0 1 1289 1971)">Symbols should be outlined when exporting to ensure the</text>
  <text style="stroke:none;fill:black;font-family:-apple-system,&quot;SF Pro Display&quot;,&quot;SF Pro Text&quot;,Helvetica,sans-serif;" transform="matrix(1 0 0 1 1289 1989)">design is preserved when submitting to Xcode.</text>
  <text id="template-version" style="stroke:none;fill:black;font-family:-apple-system,&quot;SF Pro Display&quot;,&quot;SF Pro Text&quot;,Helvetica,sans-serif;text-anchor:end;" transform="matrix(1 0 0 1 3036 1933)">Template v.1.0</text>
  <text style="stroke:none;fill:black;font-family:-apple-system,&quot;SF Pro Display&quot;,&quot;SF Pro Text&quot;,Helvetica,sans-serif;text-anchor:end;" transform="matrix(1 0 0 1 3036 1951)">Generated from moon.zzz.fill</text>
  <text style="stroke:none;fill:black;font-family:-apple-system,&quot;SF Pro Display&quot;,&quot;SF Pro Text&quot;,Helvetica,sans-serif;text-anchor:end;" transform="matrix(1 0 0 1 3036 1969)">Typeset at 100 points</text>
  <text style="stroke:none;fill:black;font-family:-apple-system,&quot;SF Pro Display&quot;,&quot;SF Pro Text&quot;,Helvetica,sans-serif;" transform="matrix(1 0 0 1 263 726)">Small</text>
  <text style="stroke:none;fill:black;font-family:-apple-system,&quot;SF Pro Display&quot;,&quot;SF Pro Text&quot;,Helvetica,sans-serif;" transform="matrix(1 0 0 1 263 1156)">Medium</text>
  <text style="stroke:none;fill:black;font-family:-apple-system,&quot;SF Pro Display&quot;,&quot;SF Pro Text&quot;,Helvetica,sans-serif;" transform="matrix(1 0 0 1 263 1586)">Large</text>
 </g>
 <g id="Guides">
  <g id="H-reference" style="fill:#27AAE1;stroke:none;" transform="matrix(1 0 0 1 339 696)">
   <path d="M 54.9316 0 L 57.666 0 L 30.5664 -70.459 L 28.0762 -70.459 L 0.976562 0 L 3.66211 0 L 12.9395 -24.4629 L 45.7031 -24.4629 Z M 29.1992 -67.0898 L 29.4434 -67.0898 L 44.8242 -26.709 L 13.8184 -26.709 Z"/>
  </g>
  <line id="Baseline-S" style="fill:none;stroke:#27AAE1;opacity:1;stroke-width:0.577;" x1="263" x2="3036" y1="696" y2="696"/>
  <line id="Capline-S" style="fill:none;stroke:#27AAE1;opacity:1;stroke-width:0.577;" x1="263" x2="3036" y1="625.541" y2="625.541"/>
  <g id="H-reference" style="fill:#27AAE1;stroke:none;" transform="matrix(1 0 0 1 339 1126)">
   <path d="M 54.9316 0 L 57.666 0 L 30.5664 -70.459 L 28.0762 -70.459 L 0.976562 0 L 3.66211 0 L 12.9395 -24.4629 L 45.7031 -24.4629 Z M 29.1992 -67.0898 L 29.4434 -67.0898 L 44.8242 -26.709 L 13.8184 -26.709 Z"/>
  </g>
  <line id="Baseline-M" style="fill:none;stroke:#27AAE1;opacity:1;stroke-width:0.577;" x1="263" x2="3036" y1="1126" y2="1126"/>
  <line id="Capline-M" style="fill:none;stroke:#27AAE1;opacity:1;stroke-width:0.577;" x1="263" x2="3036" y1="1055.54" y2="1055.54"/>
  <g id="H-reference" style="fill:#27AAE1;stroke:none;" transform="matrix(1 0 0 1 339 1556)">
   <path d="M 54.9316 0 L 57.666 0 L 30.5664 -70.459 L 28.0762 -70.459 L 0.976562 0 L 3.66211 0 L 12.9395 -24.4629 L 45.7031 -24.4629 Z M 29.1992 -67.0898 L 29.4434 -67.0898 L 44.8242 -26.709 L 13.8184 -26.709 Z"/>
  </g>
  <line id="Baseline-L" style="fill:none;stroke:#27AAE1;opacity:1;stroke-width:0.577;" x1="263" x2="3036" y1="1556" y2="1556"/>
  <line id="Capline-L" style="fill:none;stroke:#27AAE1;opacity:1;stroke-width:0.577;" x1="263" x2="3036" y1="1485.54" y2="1485.54"/>
  <rect height="119.336" id="left-margin" style="fill:#00AEEF;stroke:none;opacity:0.4;" width="8.74023" x="1393.91" y="1030.79"/>
  <rect height="119.336" id="right-margin" style="fill:#00AEEF;stroke:none;opacity:0.4;" width="8.74023" x="1497.04" y="1030.79"/>
 </g>
 <g id="Symbols">
  <g id="Black-L" transform="matrix(1 0 0 1 2851.52 1556)">
   <path d="M 114.941 -100.928 L 101.904 -100.928 L 101.904 -101.27 L 117.188 -119.824 C 118.848 -121.826 119.482 -123.193 119.482 -125.244 C 119.482 -128.369 117.236 -130.469 113.965 -130.469 L 92.2363 -130.469 C 88.7695 -130.469 86.6699 -128.564 86.6699 -125.488 C 86.6699 -122.461 88.916 -120.508 92.2363 -120.508 L 104.785 -120.508 L 104.785 -120.166 L 89.6973 -101.758 C 87.9883 -99.707 87.4023 -98.1934 87.4023 -96.2402 C 87.4023 -93.1641 89.6484 -91.0645 92.8711 -91.0645 L 114.941 -91.0645 C 118.311 -91.0645 120.557 -92.9688 120.557 -95.9961 C 120.557 -99.0723 118.408 -100.928 114.941 -100.928 Z M 147.217 -74.8535 L 139.746 -74.8535 L 139.746 -75.1953 L 149.219 -86.1328 C 150.83 -87.8906 151.465 -89.3555 151.465 -91.4062 C 151.465 -94.3359 149.268 -96.3379 146.24 -96.3379 L 131.055 -96.3379 C 127.783 -96.3379 125.732 -94.6777 125.732 -91.8945 C 125.732 -89.0625 127.832 -87.4023 131.055 -87.4023 L 138.086 -87.4023 L 138.086 -87.1094 L 128.955 -76.5625 C 127.295 -74.6582 126.514 -72.9492 126.514 -70.8984 C 126.514 -68.0176 128.613 -66.0645 131.641 -66.0645 L 147.217 -66.0645 C 150.391 -66.0645 152.49 -67.6758 152.49 -70.459 C 152.49 -73.1934 150.439 -74.8535 147.217 -74.8535 Z M 73.584 28.7109 C 99.1699 28.7109 121.289 13.623 130.713 -9.08203 C 132.422 -13.3301 132.324 -16.748 130.225 -18.7012 C 128.271 -20.459 125 -20.7031 121.631 -19.1406 C 116.309 -16.6992 108.936 -14.8926 101.562 -14.8926 C 74.2676 -14.8926 55.5664 -33.0078 55.5664 -59.2773 C 55.5664 -67.0898 57.4707 -75.8301 60.2539 -81.7871 C 62.0605 -85.791 61.9141 -88.8184 60.1562 -90.7715 C 58.3984 -92.8711 54.9805 -93.1152 50.7324 -91.4551 C 27.3926 -82.3242 11.2793 -59.0332 11.2793 -33.3496 C 11.2793 2.49023 37.6465 28.7109 73.584 28.7109 Z M 116.895 -52.1973 L 110.4 -52.1973 L 110.4 -52.4902 L 118.701 -62.0117 C 120.166 -63.6719 120.703 -64.9902 120.703 -66.7969 C 120.703 -69.4336 118.75 -71.2402 116.016 -71.2402 L 101.465 -71.2402 C 98.5352 -71.2402 96.7285 -69.6289 96.7285 -66.9922 C 96.7285 -64.4043 98.6328 -62.793 101.465 -62.793 L 107.666 -62.793 L 107.666 -62.5 L 99.707 -53.3691 C 97.998 -51.4648 97.4121 -50.1465 97.3633 -48.1934 C 97.3145 -45.6543 99.2188 -43.8477 102.002 -43.8477 L 116.895 -43.8477 C 119.775 -43.8477 121.68 -45.459 121.68 -48.0469 C 121.68 -50.6836 119.873 -52.1973 116.895 -52.1973 Z"/>
  </g>
  <g id="Heavy-L" transform="matrix(1 0 0 1 2557.29 1556)">
   <path d="M 111.377 -100.146 L 97.998 -100.146 L 97.998 -100.439 L 113.184 -119.189 C 114.746 -121.143 115.332 -122.363 115.332 -124.219 C 115.332 -127.002 113.232 -128.906 110.303 -128.906 L 89.1113 -128.906 C 86.084 -128.906 84.1309 -127.148 84.1309 -124.414 C 84.1309 -121.631 86.1328 -119.873 89.1113 -119.873 L 101.953 -119.873 L 101.953 -119.58 L 86.9141 -100.928 C 85.3027 -99.0234 84.7656 -97.6562 84.7656 -95.8496 C 84.7656 -93.1152 86.7676 -91.2109 89.6973 -91.2109 L 111.377 -91.2109 C 114.355 -91.2109 116.357 -92.9199 116.357 -95.7031 C 116.357 -98.4375 114.453 -100.146 111.377 -100.146 Z M 142.822 -74.6094 L 134.57 -74.6094 L 134.57 -74.9023 L 144.385 -86.6211 C 145.898 -88.3301 146.484 -89.6973 146.484 -91.4551 C 146.484 -94.1406 144.482 -95.8984 141.748 -95.8984 L 126.514 -95.8984 C 123.682 -95.8984 121.826 -94.3359 121.826 -91.8457 C 121.826 -89.3066 123.73 -87.7441 126.514 -87.7441 L 134.229 -87.7441 L 134.229 -87.4512 L 124.707 -76.0742 C 123.145 -74.2676 122.461 -72.7539 122.461 -70.9473 C 122.461 -68.3594 124.365 -66.5527 127.1 -66.5527 L 142.822 -66.5527 C 145.654 -66.5527 147.51 -68.0664 147.51 -70.6055 C 147.51 -73.0957 145.703 -74.6094 142.822 -74.6094 Z M 71.9727 26.416 C 96.9238 26.416 118.262 12.1094 127.393 -10.0098 C 129.004 -13.8184 128.857 -16.9434 126.953 -18.75 C 125.244 -20.3125 122.266 -20.5078 119.238 -19.1406 C 113.916 -16.7969 106.885 -15.2344 99.707 -15.2344 C 72.168 -15.2344 53.5645 -33.252 53.5645 -59.7656 C 53.5645 -67.4805 55.3711 -76.123 57.9102 -81.5918 C 59.6191 -85.2051 59.4727 -87.9883 57.9102 -89.8438 C 56.25 -91.748 53.1738 -91.9922 49.3164 -90.4785 C 26.7578 -81.7871 11.2793 -58.9844 11.2793 -33.8379 C 11.2793 0.878906 36.9629 26.416 71.9727 26.416 Z M 113.232 -52.3438 L 106.104 -52.3438 L 106.104 -52.6367 L 114.648 -62.7441 C 116.016 -64.3555 116.553 -65.5273 116.553 -67.1875 C 116.553 -69.5801 114.746 -71.1914 112.256 -71.1914 L 97.998 -71.1914 C 95.4102 -71.1914 93.75 -69.7266 93.75 -67.334 C 93.75 -64.9414 95.459 -63.4766 97.998 -63.4766 L 104.639 -63.4766 L 104.639 -63.1836 L 96.4355 -53.3691 C 94.8242 -51.6113 94.3359 -50.3906 94.2871 -48.6328 C 94.2383 -46.3379 95.9473 -44.6777 98.4863 -44.6777 L 113.232 -44.6777 C 115.771 -44.6777 117.48 -46.1914 117.48 -48.5352 C 117.48 -50.9277 115.869 -52.3438 113.232 -52.3438 Z"/>
  </g>
  <g id="Bold-L" transform="matrix(1 0 0 1 2263.37 1556)">
   <path d="M 107.422 -99.2188 L 93.6523 -99.2188 L 93.6523 -99.5605 L 108.643 -118.506 C 110.107 -120.312 110.645 -121.436 110.645 -123.047 C 110.645 -125.488 108.838 -127.1 106.25 -127.1 L 85.5957 -127.1 C 83.0078 -127.1 81.3477 -125.537 81.3477 -123.145 C 81.3477 -120.752 83.1055 -119.189 85.5957 -119.189 L 98.7793 -119.189 L 98.7793 -118.896 L 83.7402 -100 C 82.3242 -98.1934 81.7871 -97.0215 81.7871 -95.4102 C 81.7871 -93.0664 83.5449 -91.4062 86.1328 -91.4062 L 107.422 -91.4062 C 109.961 -91.4062 111.67 -92.9199 111.67 -95.3125 C 111.67 -97.7051 110.01 -99.2188 107.422 -99.2188 Z M 137.891 -74.3164 L 128.809 -74.3164 L 128.809 -74.6094 L 139.014 -87.207 C 140.381 -88.8184 140.918 -89.9902 140.918 -91.5527 C 140.918 -93.8965 139.16 -95.4102 136.719 -95.4102 L 121.484 -95.4102 C 119.092 -95.4102 117.48 -93.9941 117.48 -91.7969 C 117.48 -89.5508 119.092 -88.1348 121.484 -88.1348 L 129.932 -88.1348 L 129.932 -87.8906 L 119.922 -75.4883 C 118.555 -73.8281 117.92 -72.5586 117.92 -70.9473 C 117.92 -68.7012 119.58 -67.1387 122.021 -67.1387 L 137.891 -67.1387 C 140.332 -67.1387 141.943 -68.5059 141.943 -70.752 C 141.943 -72.9492 140.332 -74.3164 137.891 -74.3164 Z M 70.166 23.7793 C 94.4336 23.7793 114.844 10.4004 123.73 -11.0352 C 125.146 -14.4043 125 -17.1875 123.291 -18.7988 C 121.826 -20.166 119.238 -20.3613 116.553 -19.1406 C 111.279 -16.8945 104.59 -15.5762 97.6074 -15.5762 C 69.8242 -15.5762 51.2695 -33.5449 51.2695 -60.3027 C 51.2695 -67.9199 52.9785 -76.416 55.3223 -81.3477 C 56.8359 -84.5215 56.7383 -87.1094 55.3223 -88.7207 C 53.9062 -90.4785 51.123 -90.6738 47.7051 -89.4043 C 25.9766 -81.1523 11.2793 -58.9844 11.2793 -34.4238 C 11.2793 -0.927734 36.2305 23.7793 70.166 23.7793 Z M 109.131 -52.4902 L 101.367 -52.4902 L 101.367 -52.7832 L 110.107 -63.5254 C 111.377 -65.0879 111.914 -66.1621 111.914 -67.5781 C 111.914 -69.7266 110.254 -71.0938 108.057 -71.0938 L 94.0918 -71.0938 C 91.8945 -71.0938 90.4297 -69.7754 90.4297 -67.6758 C 90.4297 -65.5762 91.9434 -64.2578 94.0918 -64.2578 L 101.27 -64.2578 L 101.27 -63.9648 L 92.7246 -53.418 C 91.3086 -51.7578 90.8203 -50.6836 90.8203 -49.1699 C 90.7715 -47.1191 92.334 -45.6543 94.5801 -45.6543 L 109.131 -45.6543 C 111.328 -45.6543 112.842 -47.0215 112.842 -49.0723 C 112.842 -51.1719 111.377 -52.4902 109.131 -52.4902 Z"/>
  </g>
  <g id="Semibold-L" transform="matrix(1 0 0 1 1968.58 1556)">
   <path d="M 104.688 -98.584 L 90.625 -98.584 L 90.625 -98.9258 L 105.566 -118.066 C 106.885 -119.775 107.471 -120.801 107.471 -122.217 C 107.471 -124.414 105.762 -125.83 103.418 -125.83 L 83.2031 -125.83 C 80.9082 -125.83 79.3945 -124.463 79.3945 -122.314 C 79.3945 -120.117 80.957 -118.75 83.2031 -118.75 L 96.582 -118.75 L 96.582 -118.408 L 81.5918 -99.3652 C 80.2734 -97.6562 79.7363 -96.582 79.7363 -95.1172 C 79.7363 -93.0176 81.3477 -91.5039 83.6914 -91.5039 L 104.688 -91.5039 C 106.934 -91.5039 108.447 -92.8711 108.447 -95.0684 C 108.447 -97.2168 106.934 -98.584 104.688 -98.584 Z M 134.473 -74.1211 L 124.805 -74.1211 L 124.805 -74.4141 L 135.303 -87.5977 C 136.572 -89.1602 137.109 -90.2344 137.109 -91.6016 C 137.109 -93.7012 135.498 -95.0684 133.301 -95.0684 L 118.018 -95.0684 C 115.918 -95.0684 114.453 -93.75 114.453 -91.7969 C 114.453 -89.6973 115.918 -88.4277 118.018 -88.4277 L 126.953 -88.4277 L 126.953 -88.1348 L 116.65 -75.1465 C 115.332 -73.5352 114.795 -72.4121 114.795 -70.9473 C 114.795 -68.9453 116.309 -67.5293 118.506 -67.5293 L 134.473 -67.5293 C 136.621 -67.5293 138.086 -68.7988 138.086 -70.8496 C 138.086 -72.8516 136.67 -74.1211 134.473 -74.1211 Z M 68.9453 21.9727 C 92.6758 21.9727 112.451 9.22852 121.191 -11.7676 C 122.461 -14.7949 122.314 -17.334 120.801 -18.7988 C 119.531 -20.0684 117.139 -20.2148 114.697 -19.1895 C 109.473 -16.9922 102.979 -15.8203 96.1426 -15.8203 C 68.2129 -15.8203 49.707 -33.7402 49.707 -60.6934 C 49.707 -68.2129 51.3184 -76.6602 53.5156 -81.2012 C 54.9316 -84.082 54.834 -86.4746 53.5645 -87.9883 C 52.2461 -89.5996 49.7559 -89.8438 46.582 -88.623 C 25.4395 -80.7617 11.2793 -58.9844 11.2793 -34.8145 C 11.2793 -2.14844 35.7422 21.9727 68.9453 21.9727 Z M 106.299 -52.5879 L 98.0957 -52.5879 L 98.0957 -52.8809 L 106.982 -64.1113 C 108.203 -65.625 108.691 -66.6016 108.691 -67.8711 C 108.691 -69.8242 107.178 -71.0938 105.127 -71.0938 L 91.4551 -71.0938 C 89.4531 -71.0938 88.0859 -69.8242 88.0859 -67.9688 C 88.0859 -66.0156 89.502 -64.7949 91.4551 -64.7949 L 98.9258 -64.7949 L 98.9258 -64.502 L 90.1855 -53.418 C 88.916 -51.8555 88.4277 -50.8789 88.4277 -49.5117 C 88.3789 -47.6562 89.8438 -46.3379 91.8457 -46.3379 L 106.299 -46.3379 C 108.252 -46.3379 109.619 -47.5586 109.619 -49.4629 C 109.619 -51.3672 108.301 -52.5879 106.299 -52.5879 Z"/>
  </g>
  <g id="Medium-L" transform="matrix(1 0 0 1 1673.34 1556)">
   <path d="M 102.588 -98.1445 L 88.3301 -98.1445 L 88.3301 -98.4375 L 103.223 -117.676 C 104.492 -119.336 105.029 -120.312 105.029 -121.582 C 105.029 -123.633 103.467 -124.902 101.318 -124.902 L 81.3477 -124.902 C 79.3457 -124.902 77.9297 -123.584 77.9297 -121.68 C 77.9297 -119.629 79.3457 -118.359 81.3477 -118.359 L 94.9219 -118.359 L 94.9219 -118.066 L 79.9805 -98.877 C 78.6621 -97.2168 78.2227 -96.2891 78.2227 -94.9219 C 78.2227 -92.9688 79.6875 -91.6016 81.8359 -91.6016 L 102.588 -91.6016 C 104.59 -91.6016 106.006 -92.8711 106.006 -94.873 C 106.006 -96.8262 104.639 -98.1445 102.588 -98.1445 Z M 131.934 -73.9746 L 121.777 -73.9746 L 121.777 -74.2676 L 132.471 -87.8906 C 133.691 -89.4043 134.18 -90.4297 134.18 -91.6504 C 134.18 -93.6035 132.666 -94.7754 130.664 -94.7754 L 115.43 -94.7754 C 113.525 -94.7754 112.158 -93.5547 112.158 -91.748 C 112.158 -89.8438 113.525 -88.6719 115.43 -88.6719 L 124.707 -88.6719 L 124.707 -88.3789 L 114.16 -74.8535 C 112.939 -73.3398 112.451 -72.3145 112.451 -70.9961 C 112.451 -69.1406 113.818 -67.8711 115.869 -67.8711 L 131.934 -67.8711 C 133.838 -67.8711 135.156 -69.043 135.156 -70.8984 C 135.156 -72.7539 133.887 -73.9746 131.934 -73.9746 Z M 68.0176 20.6055 C 91.4062 20.6055 110.693 8.34961 119.287 -12.3047 C 120.459 -15.1367 120.312 -17.4316 118.896 -18.8477 C 117.725 -19.9707 115.576 -20.1172 113.33 -19.1895 C 108.057 -17.041 101.807 -16.0156 95.0684 -16.0156 C 66.9922 -16.0156 48.5352 -33.8867 48.5352 -60.9863 C 48.5352 -68.457 50.0488 -76.8066 52.1484 -81.0547 C 53.4668 -83.7402 53.418 -85.9863 52.2461 -87.4023 C 51.0254 -88.916 48.6816 -89.1602 45.752 -88.0859 C 25.0488 -80.4199 11.2793 -58.9355 11.2793 -35.1562 C 11.2793 -3.125 35.3516 20.6055 68.0176 20.6055 Z M 104.15 -52.6367 L 95.6055 -52.6367 L 95.6055 -52.9297 L 104.639 -64.5508 C 105.762 -66.0156 106.25 -66.8945 106.25 -68.0664 C 106.25 -69.9219 104.834 -71.0449 102.93 -71.0449 L 89.4043 -71.0449 C 87.5977 -71.0449 86.377 -69.873 86.377 -68.1641 C 86.377 -66.3086 87.6465 -65.1855 89.4043 -65.1855 L 97.168 -65.1855 L 97.168 -64.9414 L 88.2324 -53.418 C 87.0605 -51.9531 86.6211 -51.0254 86.6211 -49.7559 C 86.5723 -48.0469 87.9395 -46.8262 89.8438 -46.8262 L 104.15 -46.8262 C 105.957 -46.8262 107.178 -47.998 107.178 -49.7559 C 107.178 -51.5137 105.957 -52.6367 104.15 -52.6367 Z"/>
  </g>
  <g id="Regular-L" transform="matrix(1 0 0 1 1378.53 1556)">
   <path d="M 99.9023 -97.5098 L 85.3516 -97.5098 L 85.3516 -97.8516 L 100.146 -117.236 C 101.318 -118.799 101.855 -119.727 101.855 -120.801 C 101.855 -122.607 100.439 -123.682 98.5352 -123.682 L 78.9551 -123.682 C 77.2461 -123.682 76.0254 -122.51 76.0254 -120.801 C 76.0254 -119.043 77.2461 -117.92 78.9551 -117.92 L 92.7734 -117.92 L 92.7734 -117.578 L 77.832 -98.2422 C 76.6113 -96.6797 76.1719 -95.8496 76.1719 -94.6289 C 76.1719 -92.9199 77.4902 -91.748 79.3945 -91.748 L 99.9023 -91.748 C 101.611 -91.748 102.832 -92.8711 102.832 -94.6289 C 102.832 -96.3379 101.611 -97.5098 99.9023 -97.5098 Z M 128.564 -73.7793 L 117.822 -73.7793 L 117.822 -74.0234 L 128.809 -88.2812 C 129.883 -89.7461 130.42 -90.625 130.42 -91.6992 C 130.42 -93.4082 129.053 -94.4336 127.246 -94.4336 L 111.963 -94.4336 C 110.352 -94.4336 109.18 -93.3105 109.18 -91.748 C 109.18 -89.9902 110.352 -88.916 111.963 -88.916 L 121.777 -88.916 L 121.777 -88.6719 L 110.889 -74.4629 C 109.766 -73.0469 109.326 -72.168 109.326 -70.9961 C 109.326 -69.3848 110.596 -68.2617 112.402 -68.2617 L 128.564 -68.2617 C 130.225 -68.2617 131.348 -69.3359 131.348 -70.9961 C 131.348 -72.6562 130.225 -73.7793 128.564 -73.7793 Z M 66.748 18.8477 C 89.6973 18.8477 108.35 7.17773 116.797 -13.0371 C 117.822 -15.5273 117.676 -17.5781 116.406 -18.8965 C 115.43 -19.873 113.477 -20.0195 111.475 -19.1895 C 106.25 -17.1387 100.244 -16.2109 93.6523 -16.2109 C 65.3809 -16.2109 46.9727 -34.082 46.9727 -61.3281 C 46.9727 -68.75 48.4375 -77.0508 50.3418 -80.9082 C 51.5625 -83.3008 51.5625 -85.4004 50.5371 -86.6699 C 49.4141 -88.0371 47.3145 -88.2812 44.6777 -87.3047 C 24.5605 -80.0293 11.2793 -58.9355 11.2793 -35.5469 C 11.2793 -4.3457 34.8633 18.8477 66.748 18.8477 Z M 101.367 -52.7344 L 92.334 -52.7344 L 92.334 -53.0273 L 101.514 -65.0879 C 102.588 -66.5527 103.076 -67.334 103.076 -68.3594 C 103.076 -70.0195 101.758 -70.9961 100.098 -70.9961 L 86.7676 -70.9961 C 85.2051 -70.9961 84.082 -69.9219 84.082 -68.4082 C 84.082 -66.748 85.2051 -65.7227 86.7676 -65.7227 L 94.8242 -65.7227 L 94.8242 -65.4785 L 85.7422 -53.418 C 84.668 -52.0508 84.2285 -51.2695 84.2285 -50.0977 C 84.2285 -48.584 85.4492 -47.4609 87.1582 -47.4609 L 101.367 -47.4609 C 102.93 -47.4609 104.004 -48.5352 104.004 -50.1465 C 104.004 -51.6602 102.93 -52.7344 101.367 -52.7344 Z"/>
  </g>
  <g id="Light-L" transform="matrix(1 0 0 1 1082.97 1556)">
   <path d="M 99.1699 -96.7773 L 84.3262 -96.7773 L 84.3262 -97.1191 L 99.2676 -116.553 C 100.293 -117.92 100.781 -118.652 100.781 -119.678 C 100.781 -121.24 99.5605 -122.168 97.9004 -122.168 L 79.248 -122.168 C 77.832 -122.168 76.8066 -121.143 76.8066 -119.824 C 76.8066 -118.359 77.832 -117.432 79.248 -117.432 L 93.3594 -117.432 L 93.3594 -117.09 L 78.3691 -97.6562 C 77.3438 -96.3379 76.9043 -95.6543 76.9043 -94.5312 C 76.9043 -93.0176 78.0762 -92.041 79.7363 -92.041 L 99.1699 -92.041 C 100.586 -92.041 101.611 -93.0176 101.611 -94.4336 C 101.611 -95.8008 100.586 -96.7773 99.1699 -96.7773 Z M 126.709 -73.584 L 115.186 -73.584 L 115.186 -73.877 L 126.807 -88.8672 C 127.783 -90.1367 128.271 -90.8691 128.271 -91.8945 C 128.271 -93.4082 127.051 -94.2871 125.488 -94.2871 L 110.4 -94.2871 C 109.033 -94.2871 108.057 -93.3105 108.057 -92.041 C 108.057 -90.625 109.033 -89.6973 110.4 -89.6973 L 121.143 -89.6973 L 121.143 -89.4043 L 109.57 -74.4141 C 108.594 -73.1934 108.154 -72.4609 108.154 -71.3867 C 108.154 -69.9219 109.326 -68.9453 110.889 -68.9453 L 126.709 -68.9453 C 128.125 -68.9453 129.053 -69.9219 129.053 -71.2891 C 129.053 -72.6074 128.125 -73.584 126.709 -73.584 Z M 66.748 17.9199 C 89.6973 17.9199 108.35 6.25 116.797 -13.916 C 117.822 -16.4551 117.676 -18.5059 116.406 -19.8242 C 115.43 -20.752 113.477 -20.9473 111.475 -20.1172 C 106.25 -18.0176 100.244 -17.1387 93.6523 -17.1387 C 65.3809 -17.1387 46.9727 -35.0098 46.9727 -62.2559 C 46.9727 -69.6777 48.4375 -77.9785 50.3418 -81.8359 C 51.5625 -84.2285 51.5625 -86.3281 50.5371 -87.5977 C 49.4141 -88.9648 47.3145 -89.209 44.6777 -88.2324 C 24.5605 -80.9082 11.2793 -59.8633 11.2793 -36.4746 C 11.2793 -5.27344 34.8633 17.9199 66.748 17.9199 Z M 100.293 -53.2715 L 90.7227 -53.2715 L 90.7227 -53.5645 L 100.342 -66.0156 C 101.27 -67.2852 101.758 -67.9688 101.758 -68.9453 C 101.758 -70.4102 100.586 -71.2891 99.0723 -71.2891 L 86.1328 -71.2891 C 84.8145 -71.2891 83.8867 -70.3125 83.8867 -69.043 C 83.8867 -67.7246 84.8145 -66.7969 86.1328 -66.7969 L 94.9219 -66.7969 L 94.9219 -66.5527 L 85.3516 -54.1016 C 84.375 -52.832 83.9844 -52.1973 83.9844 -51.1719 C 83.9844 -49.707 85.0586 -48.8281 86.5723 -48.8281 L 100.293 -48.8281 C 101.611 -48.8281 102.539 -49.7559 102.539 -51.0254 C 102.539 -52.2949 101.611 -53.2715 100.293 -53.2715 Z"/>
  </g>
  <g id="Thin-L" transform="matrix(1 0 0 1 787.77 1556)">
   <path d="M 98.2422 -95.8496 L 82.959 -95.8496 L 82.959 -96.1426 L 98.0957 -115.674 C 98.9746 -116.748 99.3652 -117.285 99.3652 -118.164 C 99.3652 -119.482 98.3398 -120.166 97.0703 -120.166 L 79.6387 -120.166 C 78.5645 -120.166 77.832 -119.385 77.832 -118.457 C 77.832 -117.529 78.5645 -116.748 79.6387 -116.748 L 94.1895 -116.748 L 94.1895 -116.406 L 79.1016 -96.9238 C 78.2715 -95.8496 77.832 -95.3613 77.832 -94.4336 C 77.832 -93.1641 78.8574 -92.4316 80.1758 -92.4316 L 98.2422 -92.4316 C 99.2676 -92.4316 100 -93.2129 100 -94.1406 C 100 -95.0684 99.2676 -95.8496 98.2422 -95.8496 Z M 124.268 -73.291 L 111.621 -73.291 L 111.621 -73.6328 L 124.17 -89.6484 C 125 -90.6738 125.439 -91.2109 125.439 -92.1387 C 125.439 -93.4082 124.414 -94.0918 123.145 -94.0918 L 108.35 -94.0918 C 107.275 -94.0918 106.592 -93.3105 106.592 -92.4316 C 106.592 -91.5039 107.275 -90.7227 108.35 -90.7227 L 120.312 -90.7227 L 120.312 -90.4297 L 107.861 -74.3652 C 106.982 -73.3398 106.592 -72.8027 106.592 -71.875 C 106.592 -70.6055 107.617 -69.9219 108.887 -69.9219 L 124.268 -69.9219 C 125.342 -69.9219 126.025 -70.7031 126.025 -71.6309 C 126.025 -72.5098 125.342 -73.291 124.268 -73.291 Z M 66.748 16.6992 C 89.6973 16.6992 108.35 5.0293 116.797 -15.1855 C 117.822 -17.6758 117.676 -19.7266 116.406 -21.0449 C 115.43 -22.0215 113.477 -22.168 111.475 -21.3379 C 106.25 -19.2871 100.244 -18.3594 93.6523 -18.3594 C 65.3809 -18.3594 46.9727 -36.2305 46.9727 -63.4766 C 46.9727 -70.8984 48.4375 -79.1992 50.3418 -83.0566 C 51.5625 -85.4492 51.5625 -87.5488 50.5371 -88.8184 C 49.4141 -90.1855 47.3145 -90.4297 44.6777 -89.4531 C 24.5605 -82.1289 11.2793 -61.084 11.2793 -37.6953 C 11.2793 -6.49414 34.8633 16.6992 66.748 16.6992 Z M 98.9258 -53.9062 L 88.5742 -53.9062 L 88.5742 -54.248 L 98.7793 -67.1875 C 99.5605 -68.2129 100.049 -68.75 100.049 -69.6777 C 100.049 -70.8984 99.0234 -71.6309 97.7539 -71.6309 L 85.3027 -71.6309 C 84.2773 -71.6309 83.5938 -70.8496 83.5938 -69.9219 C 83.5938 -69.043 84.2773 -68.2617 85.3027 -68.2617 L 94.9707 -68.2617 L 94.9707 -67.9688 L 84.8145 -54.9805 C 83.9844 -53.9062 83.5938 -53.418 83.5938 -52.5391 C 83.5938 -51.2695 84.5703 -50.5859 85.8398 -50.5859 L 98.9258 -50.5859 C 99.9512 -50.5859 100.635 -51.3184 100.635 -52.2461 C 100.635 -53.125 99.9512 -53.9062 98.9258 -53.9062 Z"/>
  </g>
  <g id="Ultralight-L" transform="matrix(1 0 0 1 491.84 1556)">
   <path d="M 97.7539 -95.3613 L 82.2754 -95.3613 L 82.2754 -95.6543 L 97.5098 -115.234 C 98.291 -116.113 98.6816 -116.553 98.6816 -117.432 C 98.6816 -118.555 97.7539 -119.141 96.6309 -119.141 L 79.7852 -119.141 C 78.9551 -119.141 78.3691 -118.457 78.3691 -117.773 C 78.3691 -117.09 78.9551 -116.406 79.7852 -116.406 L 94.6289 -116.406 L 94.6289 -116.113 L 79.4922 -96.5332 C 78.7598 -95.6543 78.3203 -95.2148 78.3203 -94.3359 C 78.3203 -93.2129 79.248 -92.627 80.3711 -92.627 L 97.7539 -92.627 C 98.6328 -92.627 99.1699 -93.3105 99.1699 -93.9941 C 99.1699 -94.6777 98.6328 -95.3613 97.7539 -95.3613 Z M 122.998 -73.1445 L 109.814 -73.1445 L 109.814 -73.4863 L 122.803 -90.0879 C 123.584 -90.9668 123.975 -91.4062 123.975 -92.2852 C 123.975 -93.4082 123.047 -93.9941 121.924 -93.9941 L 107.275 -93.9941 C 106.396 -93.9941 105.811 -93.3105 105.811 -92.627 C 105.811 -91.9434 106.396 -91.2598 107.275 -91.2598 L 119.873 -91.2598 L 119.873 -90.918 L 106.934 -74.3652 C 106.201 -73.4375 105.811 -72.998 105.811 -72.168 C 105.811 -70.9961 106.738 -70.4102 107.861 -70.4102 L 122.998 -70.4102 C 123.926 -70.4102 124.463 -71.0938 124.463 -71.7773 C 124.463 -72.5098 123.926 -73.1445 122.998 -73.1445 Z M 66.748 16.0645 C 89.6973 16.0645 108.35 4.39453 116.797 -15.7715 C 117.822 -18.2617 117.676 -20.3613 116.406 -21.6797 C 115.43 -22.6074 113.477 -22.8027 111.475 -21.9727 C 106.25 -19.873 100.244 -18.9941 93.6523 -18.9941 C 65.3809 -18.9941 46.9727 -36.8652 46.9727 -64.1113 C 46.9727 -71.5332 48.4375 -79.7852 50.3418 -83.6426 C 51.5625 -86.084 51.5625 -88.1836 50.5371 -89.4531 C 49.4141 -90.8203 47.3145 -91.0645 44.6777 -90.0879 C 24.5605 -82.7637 11.2793 -61.7188 11.2793 -38.3301 C 11.2793 -7.08008 34.8633 16.0645 66.748 16.0645 Z M 98.1934 -54.248 L 87.4512 -54.248 L 87.4512 -54.5898 L 97.998 -67.8223 C 98.6816 -68.7012 99.1699 -69.1895 99.1699 -70.0195 C 99.1699 -71.1914 98.2422 -71.7773 97.0703 -71.7773 L 84.9121 -71.7773 C 83.9844 -71.7773 83.4473 -71.0938 83.4473 -70.4102 C 83.4473 -69.6777 83.9844 -68.9941 84.9121 -68.9941 L 95.0195 -68.9941 L 95.0195 -68.6523 L 84.5703 -55.4199 C 83.7891 -54.4434 83.3984 -54.0527 83.3984 -53.2227 C 83.3984 -52.0508 84.3262 -51.4648 85.498 -51.4648 L 98.1934 -51.4648 C 99.0723 -51.4648 99.6582 -52.1484 99.6582 -52.832 C 99.6582 -53.5645 99.0723 -54.248 98.1934 -54.248 Z"/>
  </g>
  <g id="Black-M" transform="matrix(1 0 0 1 2867.19 1126)">
   <path d="M 93.5059 -86.8652 L 83.7402 -86.8652 L 83.7402 -87.1094 L 95.8008 -101.221 C 97.168 -102.881 97.6562 -103.906 97.6562 -105.811 C 97.6562 -108.545 95.7031 -110.4 92.8711 -110.4 L 75.8301 -110.4 C 72.7539 -110.4 70.9473 -108.789 70.9473 -106.152 C 70.9473 -103.564 72.9004 -101.855 75.8301 -101.855 L 85.3516 -101.855 L 85.3516 -101.611 L 73.584 -87.5977 C 72.2168 -85.9863 71.6797 -84.668 71.6797 -82.959 C 71.6797 -80.2734 73.6328 -78.4668 76.416 -78.4668 L 93.5059 -78.4668 C 96.4355 -78.4668 98.3887 -80.0781 98.3887 -82.666 C 98.3887 -85.3027 96.582 -86.8652 93.5059 -86.8652 Z M 119.043 -66.2109 L 113.818 -66.2109 L 113.818 -66.4551 L 121.045 -74.3164 C 122.461 -75.6836 122.949 -76.9531 122.949 -78.7598 C 122.949 -81.3477 121.045 -83.1055 118.408 -83.1055 L 106.787 -83.1055 C 103.857 -83.1055 102.1 -81.7383 102.1 -79.3457 C 102.1 -77.002 103.955 -75.5859 106.787 -75.5859 L 111.865 -75.5859 L 111.865 -75.3418 L 105.029 -67.9199 C 103.564 -66.3574 102.881 -64.8438 102.881 -63.0859 C 102.881 -60.498 104.688 -58.7891 107.324 -58.7891 L 119.043 -58.7891 C 121.875 -58.7891 123.682 -60.1562 123.682 -62.5 C 123.682 -64.7949 121.924 -66.2109 119.043 -66.2109 Z M 59.2285 16.9922 C 79.834 16.9922 98.1445 4.19922 105.713 -14.209 C 107.275 -18.0664 107.227 -21.1426 105.322 -22.8516 C 103.516 -24.4629 100.537 -24.6582 97.5098 -23.1934 C 93.3105 -21.1914 87.207 -19.5801 81.25 -19.5801 C 60.4004 -19.5801 45.8008 -33.6426 45.8008 -53.7109 C 45.8008 -59.8633 47.4121 -66.7969 49.8047 -72.1191 C 51.4648 -75.6836 51.2695 -78.3203 49.707 -80.0781 C 48.0957 -81.9336 45.0195 -82.1289 41.2598 -80.6152 C 22.168 -72.9492 8.74023 -54.1992 8.74023 -33.5449 C 8.74023 -4.3457 30.0781 16.9922 59.2285 16.9922 Z M 94.9707 -48.4863 L 90.4297 -48.4863 L 90.4297 -48.7305 L 96.8262 -55.4688 C 97.998 -56.7383 98.4375 -57.8613 98.4375 -59.4727 C 98.4375 -61.7676 96.8262 -63.3301 94.4336 -63.3301 L 82.959 -63.3301 C 80.3711 -63.3301 78.8574 -62.0117 78.8574 -59.7656 C 78.8574 -57.6172 80.5176 -56.25 82.959 -56.25 L 87.5488 -56.25 L 87.5488 -56.0059 L 81.4941 -49.6094 C 79.9805 -48.0469 79.541 -46.9238 79.4922 -45.2148 C 79.4434 -43.0176 81.0547 -41.4551 83.4473 -41.4551 L 94.9707 -41.4551 C 97.5098 -41.4551 99.1211 -42.8223 99.1211 -44.9707 C 99.1211 -47.2168 97.6074 -48.4863 94.9707 -48.4863 Z"/>
  </g>
  <g id="Heavy-M" transform="matrix(1 0 0 1 2572.89 1126)">
   <path d="M 89.7949 -86.1816 L 79.7363 -86.1816 L 79.7363 -86.4258 L 91.6016 -100.732 C 92.9199 -102.295 93.3594 -103.32 93.3594 -104.98 C 93.3594 -107.373 91.6016 -109.033 89.0625 -109.033 L 72.3633 -109.033 C 69.6289 -109.033 68.0176 -107.568 68.0176 -105.176 C 68.0176 -102.832 69.7266 -101.318 72.3633 -101.318 L 82.0801 -101.318 L 82.0801 -101.074 L 70.3613 -86.8652 C 69.0918 -85.3027 68.6035 -84.1309 68.6035 -82.5684 C 68.6035 -80.1758 70.3613 -78.5645 72.8516 -78.5645 L 89.7949 -78.5645 C 92.3828 -78.5645 94.1406 -80.0293 94.1406 -82.373 C 94.1406 -84.7168 92.4805 -86.1816 89.7949 -86.1816 Z M 114.697 -65.9668 L 108.887 -65.9668 L 108.887 -66.2109 L 116.309 -74.707 C 117.578 -76.0742 118.066 -77.1973 118.066 -78.8086 C 118.066 -81.1035 116.357 -82.666 113.965 -82.666 L 102.246 -82.666 C 99.707 -82.666 98.1445 -81.3965 98.1445 -79.248 C 98.1445 -77.0996 99.7559 -75.7812 102.246 -75.7812 L 107.812 -75.7812 L 107.812 -75.5371 L 100.684 -67.3828 C 99.3652 -65.918 98.7305 -64.5508 98.7305 -62.9883 C 98.7305 -60.6934 100.391 -59.1797 102.783 -59.1797 L 114.697 -59.1797 C 117.188 -59.1797 118.848 -60.4492 118.848 -62.5488 C 118.848 -64.6973 117.236 -65.9668 114.697 -65.9668 Z M 57.4707 14.6973 C 77.3926 14.6973 94.7754 2.7832 102.1 -14.9902 C 103.516 -18.3594 103.418 -21.0938 101.758 -22.6562 C 100.195 -24.0723 97.5586 -24.2676 94.873 -22.998 C 90.7227 -21.0938 84.9609 -19.6777 79.1992 -19.6777 C 58.1055 -19.6777 43.6035 -33.6914 43.6035 -54.0039 C 43.6035 -60.0586 45.1172 -66.8945 47.2656 -71.6309 C 48.7305 -74.8047 48.584 -77.1973 47.2168 -78.8086 C 45.8008 -80.4199 43.0664 -80.6152 39.6973 -79.2969 C 21.4355 -72.1191 8.74023 -53.9062 8.74023 -33.8867 C 8.74023 -5.85938 29.3457 14.6973 57.4707 14.6973 Z M 91.2598 -48.4863 L 86.1816 -48.4863 L 86.1816 -48.7305 L 92.7246 -56.0547 C 93.8477 -57.2754 94.2383 -58.3008 94.2383 -59.7656 C 94.2383 -61.8164 92.7246 -63.1836 90.5762 -63.1836 L 79.3457 -63.1836 C 77.0508 -63.1836 75.6836 -61.9629 75.6836 -59.9609 C 75.6836 -57.959 77.1484 -56.6895 79.3457 -56.6895 L 84.2285 -56.6895 L 84.2285 -56.4941 L 78.0273 -49.4629 C 76.6602 -47.998 76.2207 -46.9727 76.1719 -45.459 C 76.123 -43.457 77.6367 -42.041 79.7852 -42.041 L 91.2598 -42.041 C 93.5059 -42.041 94.9707 -43.3105 94.9707 -45.2637 C 94.9707 -47.3145 93.6035 -48.4863 91.2598 -48.4863 Z"/>
  </g>
  <g id="Bold-M" transform="matrix(1 0 0 1 2278.92 1126)">
   <path d="M 85.6445 -85.4004 L 75.1953 -85.4004 L 75.1953 -85.6445 L 86.9141 -100.195 C 88.1348 -101.66 88.5742 -102.637 88.5742 -104.004 C 88.5742 -106.104 87.0117 -107.52 84.8145 -107.52 L 68.457 -107.52 C 66.1621 -107.52 64.6973 -106.201 64.6973 -104.15 C 64.6973 -102.051 66.2109 -100.732 68.457 -100.732 L 78.4668 -100.732 L 78.4668 -100.488 L 66.7969 -85.9863 C 65.5762 -84.5215 65.1855 -83.4961 65.1855 -82.1289 C 65.1855 -80.0781 66.6992 -78.6621 68.8965 -78.6621 L 85.6445 -78.6621 C 87.8906 -78.6621 89.4043 -79.9316 89.4043 -82.0312 C 89.4043 -84.082 87.9395 -85.4004 85.6445 -85.4004 Z M 109.863 -65.7227 L 103.32 -65.7227 L 103.32 -65.918 L 110.986 -75.1465 C 112.158 -76.4648 112.598 -77.4902 112.598 -78.8086 C 112.598 -80.8105 111.084 -82.1777 109.033 -82.1777 L 97.2168 -82.1777 C 95.0684 -82.1777 93.7012 -81.0059 93.7012 -79.1016 C 93.7012 -77.1484 95.1172 -75.9766 97.2168 -75.9766 L 103.271 -75.9766 L 103.271 -75.7812 L 95.8496 -66.7969 C 94.6777 -65.3809 94.1406 -64.2578 94.1406 -62.8906 C 94.1406 -60.9375 95.5566 -59.6191 97.6562 -59.6191 L 109.863 -59.6191 C 112.012 -59.6191 113.379 -60.7422 113.379 -62.6465 C 113.379 -64.5508 112.012 -65.7227 109.863 -65.7227 Z M 55.4688 12.1094 C 74.6582 12.1094 91.0645 1.17188 98.0957 -15.8203 C 99.3164 -18.75 99.2188 -21.0938 97.7539 -22.4121 C 96.4844 -23.6328 94.2383 -23.7793 91.9434 -22.7539 C 87.8418 -20.9473 82.4219 -19.7754 76.9043 -19.7754 C 55.5176 -19.7754 41.1133 -33.7402 41.1133 -54.2969 C 41.1133 -60.2539 42.4805 -66.9434 44.4336 -71.0938 C 45.7031 -73.8281 45.6055 -75.9766 44.4336 -77.3438 C 43.2129 -78.7598 40.8203 -78.9551 37.9395 -77.832 C 20.6055 -71.1914 8.74023 -53.6133 8.74023 -34.2285 C 8.74023 -7.56836 28.5156 12.1094 55.4688 12.1094 Z M 87.0605 -48.4863 L 81.4453 -48.4863 L 81.4453 -48.7305 L 88.0859 -56.6895 C 89.1602 -57.9102 89.5508 -58.7891 89.5508 -60.0586 C 89.5508 -61.8652 88.1836 -63.0859 86.2793 -63.0859 L 75.293 -63.0859 C 73.3398 -63.0859 72.0703 -61.9629 72.0703 -60.1562 C 72.0703 -58.3496 73.3887 -57.2266 75.293 -57.2266 L 80.5176 -57.2266 L 80.5176 -57.0312 L 74.0723 -49.2676 C 72.9004 -47.9492 72.5098 -47.0215 72.4609 -45.7031 C 72.4121 -43.9453 73.7305 -42.7246 75.6348 -42.7246 L 87.0605 -42.7246 C 88.9648 -42.7246 90.2832 -43.8477 90.2832 -45.6055 C 90.2832 -47.4121 89.0625 -48.4863 87.0605 -48.4863 Z"/>
  </g>
  <g id="Semibold-M" transform="matrix(1 0 0 1 1984.06 1126)">
   <path d="M 82.8125 -84.8633 L 72.1191 -84.8633 L 72.1191 -85.1074 L 83.7402 -99.8047 C 84.8633 -101.221 85.3027 -102.148 85.3027 -103.32 C 85.3027 -105.225 83.8379 -106.494 81.8359 -106.494 L 65.7715 -106.494 C 63.7695 -106.494 62.4512 -105.273 62.4512 -103.418 C 62.4512 -101.514 63.8184 -100.293 65.7715 -100.293 L 75.9277 -100.293 L 75.9277 -100.049 L 64.3066 -85.4004 C 63.1836 -83.9844 62.793 -83.1055 62.793 -81.8359 C 62.793 -80.0293 64.1602 -78.7109 66.1133 -78.7109 L 82.8125 -78.7109 C 84.7656 -78.7109 86.1328 -79.8828 86.1328 -81.7871 C 86.1328 -83.6426 84.8145 -84.8633 82.8125 -84.8633 Z M 106.494 -65.5273 L 99.5117 -65.5273 L 99.5117 -65.7227 L 107.324 -75.4883 C 108.398 -76.7578 108.838 -77.6855 108.838 -78.8574 C 108.838 -80.6641 107.471 -81.8359 105.615 -81.8359 L 93.75 -81.8359 C 91.8945 -81.8359 90.625 -80.7129 90.625 -79.0039 C 90.625 -77.1973 91.8945 -76.123 93.75 -76.123 L 100.146 -76.123 L 100.146 -75.9277 L 92.5293 -66.3574 C 91.4062 -65.0391 90.9668 -64.0625 90.9668 -62.8418 C 90.9668 -61.084 92.2363 -59.9121 94.1406 -59.9121 L 106.494 -59.9121 C 108.398 -59.9121 109.668 -60.9375 109.668 -62.6953 C 109.668 -64.4531 108.398 -65.5273 106.494 -65.5273 Z M 54.1016 10.3027 C 72.8027 10.3027 88.4766 0.0976562 95.3613 -16.4551 C 96.3867 -18.9941 96.2891 -21.0938 95.0195 -22.3145 C 93.8965 -23.3398 91.9434 -23.4863 89.9414 -22.5586 C 85.8398 -20.8496 80.7129 -19.8242 75.3418 -19.8242 C 53.7598 -19.8242 39.4043 -33.7891 39.4043 -54.541 C 39.4043 -60.4004 40.6738 -66.9922 42.4805 -70.752 C 43.6035 -73.1445 43.5547 -75.0977 42.4805 -76.3184 C 41.4062 -77.6367 39.3066 -77.832 36.7188 -76.8066 C 20.0195 -70.5078 8.74023 -53.418 8.74023 -34.5215 C 8.74023 -8.69141 27.9785 10.3027 54.1016 10.3027 Z M 84.1797 -48.5352 L 78.1738 -48.5352 L 78.1738 -48.7305 L 84.9121 -57.0801 C 85.8887 -58.3496 86.2793 -59.1309 86.2793 -60.2539 C 86.2793 -61.9141 85.0586 -62.9883 83.3008 -62.9883 L 72.5098 -62.9883 C 70.752 -62.9883 69.6289 -61.9629 69.6289 -60.3027 C 69.6289 -58.6426 70.8008 -57.6172 72.5098 -57.6172 L 77.9297 -57.6172 L 77.9297 -57.373 L 71.3867 -49.1699 C 70.3125 -47.9004 69.9219 -47.0703 69.9219 -45.8984 C 69.873 -44.2871 71.0938 -43.1641 72.8027 -43.1641 L 84.1797 -43.1641 C 85.8887 -43.1641 87.0605 -44.2383 87.0605 -45.8496 C 87.0605 -47.5098 85.9375 -48.5352 84.1797 -48.5352 Z"/>
  </g>
  <g id="Medium-M" transform="matrix(1 0 0 1 1688.79 1126)">
   <path d="M 80.6641 -84.4238 L 69.7754 -84.4238 L 69.7754 -84.668 L 81.2988 -99.5117 C 82.373 -100.928 82.7637 -101.758 82.7637 -102.832 C 82.7637 -104.59 81.4453 -105.664 79.6387 -105.664 L 63.7207 -105.664 C 61.9629 -105.664 60.7422 -104.541 60.7422 -102.881 C 60.7422 -101.074 61.9629 -100 63.7207 -100 L 74.0234 -100 L 74.0234 -99.7559 L 62.4512 -84.9609 C 61.377 -83.5938 60.9863 -82.7637 60.9863 -81.5918 C 60.9863 -79.9805 62.207 -78.7598 64.0625 -78.7598 L 80.6641 -78.7598 C 82.373 -78.7598 83.6426 -79.834 83.6426 -81.6406 C 83.6426 -83.3496 82.4219 -84.4238 80.6641 -84.4238 Z M 104.004 -65.3809 L 96.6309 -65.3809 L 96.6309 -65.5762 L 104.59 -75.7324 C 105.566 -76.9531 106.006 -77.832 106.006 -78.8574 C 106.006 -80.5176 104.736 -81.543 102.979 -81.543 L 91.1133 -81.543 C 89.4531 -81.543 88.2812 -80.5176 88.2812 -78.9551 C 88.2812 -77.2461 89.4531 -76.2695 91.1133 -76.2695 L 97.8027 -76.2695 L 97.8027 -76.0254 L 89.9902 -66.0645 C 88.9648 -64.7949 88.5742 -63.916 88.5742 -62.793 C 88.5742 -61.2305 89.7461 -60.1074 91.4551 -60.1074 L 104.004 -60.1074 C 105.664 -60.1074 106.787 -61.084 106.787 -62.7441 C 106.787 -64.3555 105.664 -65.3809 104.004 -65.3809 Z M 53.0762 8.93555 C 71.3867 8.93555 86.5234 -0.78125 93.2617 -16.8945 C 94.1895 -19.1895 94.0918 -21.0449 92.9199 -22.168 C 91.9922 -23.0957 90.2344 -23.2422 88.3789 -22.4609 C 84.3262 -20.752 79.3945 -19.9219 74.1211 -19.9219 C 52.4414 -19.9219 38.0859 -33.7891 38.0859 -54.7363 C 38.0859 -60.5469 39.3066 -67.041 40.9668 -70.459 C 42.041 -72.6074 41.9922 -74.4141 41.0645 -75.5859 C 40.0391 -76.7578 38.1836 -76.9531 35.791 -76.0742 C 19.5801 -70.0195 8.74023 -53.2715 8.74023 -34.668 C 8.74023 -9.61914 27.5391 8.93555 53.0762 8.93555 Z M 81.9824 -48.5352 L 75.7324 -48.5352 L 75.7324 -48.7305 L 82.5195 -57.4219 C 83.4473 -58.6914 83.8379 -59.4238 83.8379 -60.4004 C 83.8379 -61.9141 82.666 -62.8906 81.0547 -62.8906 L 70.3613 -62.8906 C 68.7988 -62.8906 67.7246 -61.9141 67.7246 -60.4004 C 67.7246 -58.8379 68.8477 -57.8613 70.3613 -57.8613 L 76.0254 -57.8613 L 76.0254 -57.666 L 69.3359 -49.0723 C 68.3594 -47.8516 67.9688 -47.0703 67.9688 -45.9961 C 67.9688 -44.5801 69.043 -43.5059 70.6543 -43.5059 L 81.9824 -43.5059 C 83.5449 -43.5059 84.6191 -44.4824 84.6191 -46.0449 C 84.6191 -47.5586 83.5449 -48.5352 81.9824 -48.5352 Z"/>
  </g>
  <g id="Regular-M" transform="matrix(1 0 0 1 1393.91 1126)">
   <path d="M 77.832 -83.8867 L 66.6992 -83.8867 L 66.6992 -84.1797 L 78.0762 -99.1699 C 79.1016 -100.488 79.541 -101.318 79.541 -102.197 C 79.541 -103.711 78.3203 -104.639 76.709 -104.639 L 61.0352 -104.639 C 59.5703 -104.639 58.4961 -103.662 58.4961 -102.148 C 58.4961 -100.537 59.5703 -99.6094 61.0352 -99.6094 L 71.5332 -99.6094 L 71.5332 -99.3164 L 60.0098 -84.375 C 58.9844 -83.0566 58.6426 -82.3242 58.6426 -81.2988 C 58.6426 -79.8828 59.7168 -78.8574 61.3281 -78.8574 L 77.832 -78.8574 C 79.2969 -78.8574 80.3711 -79.7852 80.3711 -81.3965 C 80.3711 -82.9102 79.2969 -83.8867 77.832 -83.8867 Z M 100.684 -65.2344 L 92.8711 -65.2344 L 92.8711 -65.4297 L 100.977 -76.0254 C 101.855 -77.2461 102.295 -78.0273 102.295 -78.9062 C 102.295 -80.3223 101.123 -81.2012 99.6094 -81.2012 L 87.6953 -81.2012 C 86.2793 -81.2012 85.2539 -80.2734 85.2539 -78.8574 C 85.2539 -77.2949 86.2793 -76.416 87.6953 -76.416 L 94.7266 -76.416 L 94.7266 -76.2207 L 86.6699 -65.625 C 85.7422 -64.4531 85.4004 -63.7207 85.4004 -62.6953 C 85.4004 -61.377 86.4258 -60.4004 87.9883 -60.4004 L 100.684 -60.4004 C 102.1 -60.4004 103.125 -61.3281 103.125 -62.793 C 103.125 -64.2578 102.1 -65.2344 100.684 -65.2344 Z M 51.7578 7.17773 C 69.4824 7.17773 83.9844 -1.85547 90.5273 -17.4805 C 91.3086 -19.4336 91.2109 -21.0449 90.1855 -22.0215 C 89.4531 -22.8027 87.9395 -22.9004 86.377 -22.2656 C 82.3242 -20.6543 77.6855 -19.9707 72.5586 -19.9707 C 50.6836 -19.9707 36.4258 -33.8379 36.4258 -54.9316 C 36.4258 -60.6934 37.5488 -67.0898 39.0137 -70.0684 C 39.9414 -71.9727 39.9414 -73.584 39.1602 -74.5605 C 38.2812 -75.6348 36.6699 -75.8301 34.6191 -75.0977 C 19.043 -69.3848 8.74023 -53.0762 8.74023 -34.9609 C 8.74023 -10.7422 27.002 7.17773 51.7578 7.17773 Z M 79.1504 -48.5352 L 72.5098 -48.5352 L 72.5098 -48.7305 L 79.3457 -57.8613 C 80.2734 -59.082 80.6152 -59.7656 80.6152 -60.5957 C 80.6152 -61.9629 79.541 -62.793 78.125 -62.793 L 67.627 -62.793 C 66.2598 -62.793 65.2832 -61.9141 65.2832 -60.5469 C 65.2832 -59.082 66.2598 -58.252 67.627 -58.252 L 73.4863 -58.252 L 73.4863 -58.0566 L 66.6504 -48.9746 C 65.8203 -47.8027 65.4297 -47.1191 65.4297 -46.1914 C 65.4297 -44.9219 66.4551 -43.9453 67.8711 -43.9453 L 79.1504 -43.9453 C 80.4688 -43.9453 81.3965 -44.873 81.3965 -46.2891 C 81.3965 -47.6074 80.4688 -48.5352 79.1504 -48.5352 Z"/>
  </g>
  <g id="Light-M" transform="matrix(1 0 0 1 1098.23 1126)">
   <path d="M 77.1973 -83.252 L 65.7715 -83.252 L 65.7715 -83.4961 L 77.2949 -98.5352 C 78.1738 -99.707 78.5645 -100.342 78.5645 -101.172 C 78.5645 -102.49 77.5391 -103.271 76.1719 -103.271 L 61.2793 -103.271 C 60.0586 -103.271 59.1797 -102.441 59.1797 -101.221 C 59.1797 -99.9512 60.0586 -99.1211 61.2793 -99.1211 L 72.0703 -99.1211 L 72.0703 -98.877 L 60.498 -83.8867 C 59.6191 -82.7637 59.2773 -82.1289 59.2773 -81.25 C 59.2773 -79.9805 60.2539 -79.1016 61.6211 -79.1016 L 77.1973 -79.1016 C 78.418 -79.1016 79.2969 -79.9316 79.2969 -81.2012 C 79.2969 -82.4219 78.418 -83.252 77.1973 -83.252 Z M 99.0234 -65.0391 L 90.4297 -65.0391 L 90.4297 -65.2344 L 99.1699 -76.5625 C 100 -77.6367 100.342 -78.2715 100.342 -79.0527 C 100.342 -80.3223 99.3652 -81.0547 98.0469 -81.0547 L 86.2793 -81.0547 C 85.1074 -81.0547 84.2285 -80.2734 84.2285 -79.1016 C 84.2285 -77.8809 85.1074 -77.0996 86.2793 -77.0996 L 94.1406 -77.0996 L 94.1406 -76.9043 L 85.498 -65.625 C 84.668 -64.5996 84.3262 -63.9648 84.3262 -63.0859 C 84.3262 -61.8652 85.3027 -61.0352 86.6211 -61.0352 L 99.0234 -61.0352 C 100.244 -61.0352 101.074 -61.8164 101.074 -63.0371 C 101.074 -64.209 100.244 -65.0391 99.0234 -65.0391 Z M 51.7578 6.34766 C 69.4824 6.34766 83.9844 -2.68555 90.5273 -18.3105 C 91.3086 -20.2637 91.2109 -21.875 90.1855 -22.8516 C 89.4531 -23.6328 87.9395 -23.7305 86.377 -23.0957 C 82.3242 -21.4844 77.6855 -20.8008 72.5586 -20.8008 C 50.6836 -20.8008 36.4258 -34.668 36.4258 -55.7617 C 36.4258 -61.5234 37.5488 -67.9199 39.0137 -70.8984 C 39.9414 -72.8027 39.9414 -74.4141 39.1602 -75.3906 C 38.2812 -76.4648 36.6699 -76.6602 34.6191 -75.9277 C 19.043 -70.2148 8.74023 -53.9062 8.74023 -35.791 C 8.74023 -11.5723 27.002 6.34766 51.7578 6.34766 Z M 78.2227 -48.9746 L 71.0449 -48.9746 L 71.0449 -49.1699 L 78.3203 -58.6914 C 79.1016 -59.7656 79.4434 -60.3027 79.4434 -61.084 C 79.4434 -62.3047 78.4668 -63.0371 77.2461 -63.0371 L 67.041 -63.0371 C 65.918 -63.0371 65.0879 -62.2559 65.0879 -61.1328 C 65.0879 -59.9609 65.918 -59.2285 67.041 -59.2285 L 73.5352 -59.2285 L 73.5352 -58.9844 L 66.3086 -49.5605 C 65.5273 -48.5352 65.1855 -47.9492 65.1855 -47.1191 C 65.1855 -45.9473 66.1133 -45.166 67.334 -45.166 L 78.2227 -45.166 C 79.3457 -45.166 80.127 -45.9473 80.127 -47.0703 C 80.127 -48.1934 79.3457 -48.9746 78.2227 -48.9746 Z"/>
  </g>
  <g id="Thin-M" transform="matrix(1 0 0 1 802.882 1126)">
   <path d="M 76.3184 -82.4219 L 64.5996 -82.4219 L 64.5996 -82.666 L 76.2695 -97.7539 C 77.002 -98.6328 77.3438 -99.1211 77.3438 -99.8535 C 77.3438 -100.879 76.4648 -101.465 75.3906 -101.465 L 61.6211 -101.465 C 60.7422 -101.465 60.1074 -100.83 60.1074 -100 C 60.1074 -99.1699 60.7422 -98.5352 61.6211 -98.5352 L 72.8516 -98.5352 L 72.8516 -98.291 L 61.1328 -83.2031 C 60.4492 -82.3242 60.1074 -81.8848 60.1074 -81.1035 C 60.1074 -80.0781 60.9375 -79.4922 62.0117 -79.4922 L 76.3184 -79.4922 C 77.2461 -79.4922 77.832 -80.127 77.832 -80.957 C 77.832 -81.7383 77.2461 -82.4219 76.3184 -82.4219 Z M 96.8262 -64.7949 L 87.2559 -64.7949 L 87.2559 -65.0391 L 96.7773 -77.2461 C 97.4609 -78.0762 97.8027 -78.5645 97.8027 -79.2969 C 97.8027 -80.3223 96.9727 -80.9082 95.9473 -80.9082 L 84.4238 -80.9082 C 83.5449 -80.9082 82.9102 -80.2734 82.9102 -79.4922 C 82.9102 -78.6621 83.5449 -78.0273 84.4238 -78.0273 L 93.4082 -78.0273 L 93.4082 -77.7832 L 83.9355 -65.5762 C 83.252 -64.7461 82.959 -64.2578 82.959 -63.5254 C 82.959 -62.5 83.7402 -61.9141 84.8145 -61.9141 L 96.8262 -61.9141 C 97.7539 -61.9141 98.3398 -62.5488 98.3398 -63.3301 C 98.3398 -64.1602 97.7539 -64.7949 96.8262 -64.7949 Z M 51.7578 5.27344 C 69.4824 5.27344 83.9844 -3.75977 90.5273 -19.4336 C 91.3086 -21.3379 91.2109 -22.9492 90.1855 -23.9746 C 89.4531 -24.707 87.9395 -24.8535 86.377 -24.2188 C 82.3242 -22.6074 77.6855 -21.9238 72.5586 -21.9238 C 50.6836 -21.9238 36.4258 -35.7422 36.4258 -56.8848 C 36.4258 -62.5977 37.5488 -69.043 39.0137 -72.0215 C 39.9414 -73.877 39.9414 -75.4883 39.1602 -76.5137 C 38.2812 -77.5391 36.6699 -77.7344 34.6191 -77.002 C 19.043 -71.3379 8.74023 -54.9805 8.74023 -36.8652 C 8.74023 -12.6953 27.002 5.27344 51.7578 5.27344 Z M 76.9531 -49.5605 L 69.0918 -49.5605 L 69.0918 -49.8047 L 76.9043 -59.7656 C 77.5391 -60.5957 77.8809 -61.0352 77.8809 -61.7676 C 77.8809 -62.793 77.0996 -63.3301 76.0254 -63.3301 L 66.3086 -63.3301 C 65.4297 -63.3301 64.8438 -62.6953 64.8438 -61.9141 C 64.8438 -61.1328 65.4297 -60.498 66.3086 -60.498 L 73.584 -60.498 L 73.584 -60.2539 L 65.8691 -50.3418 C 65.1855 -49.4629 64.8438 -49.0723 64.8438 -48.3398 C 64.8438 -47.3145 65.6738 -46.7285 66.6992 -46.7285 L 76.9531 -46.7285 C 77.832 -46.7285 78.418 -47.3633 78.418 -48.1445 C 78.418 -48.9258 77.832 -49.5605 76.9531 -49.5605 Z"/>
  </g>
  <g id="Ultralight-M" transform="matrix(1 0 0 1 506.879 1126)">
   <path d="M 75.8789 -81.9824 L 63.9648 -81.9824 L 63.9648 -82.2266 L 75.7812 -97.3633 C 76.3672 -98.0957 76.6602 -98.4863 76.6602 -99.1699 C 76.6602 -100.098 75.9277 -100.586 75 -100.586 L 61.7676 -100.586 C 61.0352 -100.586 60.5469 -100 60.5469 -99.4141 C 60.5469 -98.7793 61.0352 -98.2422 61.7676 -98.2422 L 73.1934 -98.2422 L 73.1934 -97.998 L 61.4746 -82.8613 C 60.8887 -82.1289 60.5469 -81.7383 60.5469 -81.0547 C 60.5469 -80.127 61.3281 -79.6387 62.207 -79.6387 L 75.8789 -79.6387 C 76.6113 -79.6387 77.0996 -80.2246 77.0996 -80.8105 C 77.0996 -81.3965 76.6113 -81.9824 75.8789 -81.9824 Z M 95.7031 -64.6484 L 85.6445 -64.6484 L 85.6445 -64.9414 L 95.6055 -77.5879 C 96.1914 -78.3691 96.5332 -78.7109 96.5332 -79.3945 C 96.5332 -80.3223 95.752 -80.8105 94.8242 -80.8105 L 83.4473 -80.8105 C 82.7148 -80.8105 82.2266 -80.2734 82.2266 -79.6387 C 82.2266 -79.0527 82.7148 -78.4668 83.4473 -78.4668 L 93.0176 -78.4668 L 93.0176 -78.2227 L 83.1543 -65.5273 C 82.5195 -64.7949 82.2266 -64.4531 82.2266 -63.7695 C 82.2266 -62.8418 82.959 -62.3535 83.8867 -62.3535 L 95.7031 -62.3535 C 96.4355 -62.3535 96.9238 -62.8906 96.9238 -63.5254 C 96.9238 -64.1113 96.4355 -64.6484 95.7031 -64.6484 Z M 51.7578 4.6875 C 69.4824 4.6875 83.9844 -4.3457 90.5273 -19.9707 C 91.3086 -21.9238 91.2109 -23.5352 90.1855 -24.5117 C 89.4531 -25.293 87.9395 -25.3906 86.377 -24.7559 C 82.3242 -23.1445 77.6855 -22.4609 72.5586 -22.4609 C 50.6836 -22.4609 36.4258 -36.2793 36.4258 -57.4219 C 36.4258 -63.1836 37.5488 -69.5801 39.0137 -72.5586 C 39.9414 -74.4629 39.9414 -76.0742 39.1602 -77.0508 C 38.2812 -78.125 36.6699 -78.3203 34.6191 -77.5391 C 19.043 -71.875 8.74023 -55.5664 8.74023 -37.4023 C 8.74023 -13.2324 27.002 4.6875 51.7578 4.6875 Z M 76.3184 -49.8535 L 68.1152 -49.8535 L 68.1152 -50.0977 L 76.1719 -60.3027 C 76.7578 -61.0352 77.0996 -61.4258 77.0996 -62.1094 C 77.0996 -63.0371 76.3672 -63.5254 75.4395 -63.5254 L 65.918 -63.5254 C 65.1855 -63.5254 64.6973 -62.9395 64.6973 -62.3535 C 64.6973 -61.7188 65.1855 -61.1816 65.918 -61.1816 L 73.6328 -61.1816 L 73.6328 -60.9375 L 65.625 -50.7324 C 64.9902 -49.9512 64.6973 -49.6582 64.6973 -48.9746 C 64.6973 -48.0469 65.4297 -47.5586 66.3574 -47.5586 L 76.3184 -47.5586 C 77.0508 -47.5586 77.5391 -48.0957 77.5391 -48.6816 C 77.5391 -49.3164 77.0508 -49.8535 76.3184 -49.8535 Z"/>
  </g>
  <g id="Black-S" transform="matrix(1 0 0 1 2881.72 696)">
   <path d="M 72.9492 -75.6348 L 65.2832 -75.6348 L 65.2832 -75.8301 L 74.707 -86.9141 C 75.7812 -88.1836 76.1719 -89.0137 76.1719 -90.4785 C 76.1719 -92.5781 74.6582 -94.043 72.4609 -94.043 L 59.1309 -94.043 C 56.7383 -94.043 55.3223 -92.7734 55.3223 -90.7227 C 55.3223 -88.7207 56.8359 -87.4023 59.1309 -87.4023 L 66.6016 -87.4023 L 66.6016 -87.207 L 57.373 -76.2207 C 56.2988 -74.9512 55.9082 -73.9258 55.9082 -72.6074 C 55.9082 -70.5078 57.4219 -69.0918 59.5703 -69.0918 L 72.9492 -69.0918 C 75.2441 -69.0918 76.7578 -70.3613 76.7578 -72.3633 C 76.7578 -74.4141 75.3418 -75.6348 72.9492 -75.6348 Z M 92.9199 -59.4727 L 88.8184 -59.4727 L 88.8184 -59.668 L 94.4824 -65.8691 C 95.5566 -66.9434 95.9473 -67.9199 95.9473 -69.3359 C 95.9473 -71.3379 94.4824 -72.7051 92.4316 -72.7051 L 83.3008 -72.7051 C 81.0547 -72.7051 79.6875 -71.6309 79.6875 -69.7754 C 79.6875 -67.9688 81.1035 -66.8457 83.3008 -66.8457 L 87.3047 -66.8457 L 87.3047 -66.6504 L 81.9336 -60.791 C 80.8105 -59.5703 80.2734 -58.3984 80.2734 -57.0312 C 80.2734 -55.0293 81.6895 -53.7109 83.7402 -53.7109 L 92.9199 -53.7109 C 95.1172 -53.7109 96.5332 -54.7852 96.5332 -56.5918 C 96.5332 -58.3984 95.166 -59.4727 92.9199 -59.4727 Z M 46.2402 5.51758 C 62.3535 5.51758 76.6113 -4.44336 82.5195 -18.7988 C 83.7402 -21.7773 83.6914 -24.1699 82.2266 -25.4883 C 80.8105 -26.7578 78.5156 -26.9043 76.1719 -25.7812 C 72.9004 -24.2188 68.1152 -22.9492 63.4766 -22.9492 C 47.1191 -22.9492 35.6934 -33.9844 35.6934 -49.707 C 35.6934 -54.541 36.9629 -59.9609 38.8184 -64.0625 C 40.0879 -66.8457 39.9414 -68.8965 38.7207 -70.2637 C 37.5 -71.6797 35.1074 -71.8262 32.1777 -70.6543 C 17.2852 -64.6973 6.83594 -50.0488 6.83594 -33.9355 C 6.83594 -11.1328 23.4863 5.51758 46.2402 5.51758 Z M 74.1211 -45.6055 L 70.5078 -45.6055 L 70.5078 -45.8008 L 75.5371 -51.123 C 76.4648 -52.0996 76.8066 -52.9785 76.8066 -54.248 C 76.8066 -56.0059 75.5371 -57.2266 73.6816 -57.2266 L 64.6973 -57.2266 C 62.6953 -57.2266 61.5234 -56.2012 61.5234 -54.4434 C 61.5234 -52.7832 62.793 -51.709 64.6973 -51.709 L 68.3105 -51.709 L 68.3105 -51.5137 L 63.5742 -46.4844 C 62.4023 -45.2637 62.0605 -44.3848 62.0117 -43.0664 C 61.9629 -41.3574 63.2324 -40.1367 65.0879 -40.1367 L 74.1211 -40.1367 C 76.0742 -40.1367 77.3438 -41.2109 77.3438 -42.8711 C 77.3438 -44.6289 76.1719 -45.6055 74.1211 -45.6055 Z"/>
  </g>
  <g id="Heavy-S" transform="matrix(1 0 0 1 2586.74 696)">
   <path d="M 70.2148 -75.1953 L 62.3047 -75.1953 L 62.3047 -75.3906 L 71.582 -86.6211 C 72.6074 -87.8418 72.998 -88.623 72.998 -89.9414 C 72.998 -91.8457 71.6309 -93.1641 69.6289 -93.1641 L 56.4453 -93.1641 C 54.2969 -93.1641 52.9785 -91.9922 52.9785 -90.0879 C 52.9785 -88.2324 54.3945 -87.0605 56.4453 -87.0605 L 64.0625 -87.0605 L 64.0625 -86.8652 L 54.8828 -75.6836 C 53.8574 -74.4629 53.4668 -73.5352 53.4668 -72.3145 C 53.4668 -70.4102 54.834 -69.1406 56.8359 -69.1406 L 70.2148 -69.1406 C 72.2656 -69.1406 73.6328 -70.3125 73.6328 -72.168 C 73.6328 -74.0234 72.3145 -75.1953 70.2148 -75.1953 Z M 89.7949 -59.3262 L 85.3027 -59.3262 L 85.3027 -59.5215 L 91.0645 -66.1133 C 92.041 -67.1875 92.4316 -68.0664 92.4316 -69.3359 C 92.4316 -71.1426 91.0645 -72.3633 89.209 -72.3633 L 80.0293 -72.3633 C 78.0273 -72.3633 76.7578 -71.3867 76.7578 -69.6777 C 76.7578 -67.9688 78.0762 -66.8945 80.0293 -66.8945 L 84.2773 -66.8945 L 84.2773 -66.748 L 78.7598 -60.4004 C 77.7344 -59.2285 77.2461 -58.1543 77.2461 -56.9336 C 77.2461 -55.127 78.5156 -53.9062 80.3711 -53.9062 L 89.7949 -53.9062 C 91.748 -53.9062 93.0664 -54.9316 93.0664 -56.6406 C 93.0664 -58.3008 91.7969 -59.3262 89.7949 -59.3262 Z M 44.873 3.85742 C 60.498 3.85742 74.0723 -5.41992 79.7852 -19.2871 C 80.8594 -21.9238 80.8105 -24.0723 79.4922 -25.2441 C 78.2715 -26.3672 76.2695 -26.5137 74.1699 -25.5371 C 70.8984 -24.0234 66.4062 -22.9492 61.9141 -22.9492 C 45.3613 -22.9492 33.9844 -33.9355 33.9844 -49.8535 C 33.9844 -54.5898 35.1562 -59.9121 36.8652 -63.623 C 38.0371 -66.0645 37.8906 -67.9688 36.8164 -69.1895 C 35.7422 -70.459 33.5938 -70.6055 30.957 -69.5801 C 16.6992 -63.9648 6.83594 -49.7559 6.83594 -34.082 C 6.83594 -12.207 22.9492 3.85742 44.873 3.85742 Z M 71.3867 -45.5566 L 67.4316 -45.5566 L 67.4316 -45.752 L 72.5098 -51.4648 C 73.3887 -52.4414 73.7305 -53.2715 73.7305 -54.3945 C 73.7305 -56.0059 72.5586 -57.1289 70.8496 -57.1289 L 62.0117 -57.1289 C 60.2051 -57.1289 59.082 -56.1523 59.082 -54.541 C 59.082 -52.9297 60.2539 -51.9531 62.0117 -51.9531 L 65.7715 -51.9531 L 65.7715 -51.7578 L 60.9375 -46.2891 C 59.8633 -45.1172 59.5215 -44.3359 59.5215 -43.1152 C 59.4727 -41.6016 60.6445 -40.4785 62.3047 -40.4785 L 71.3867 -40.4785 C 73.1445 -40.4785 74.2676 -41.4551 74.2676 -43.0176 C 74.2676 -44.6289 73.1934 -45.5566 71.3867 -45.5566 Z"/>
  </g>
  <g id="Bold-S" transform="matrix(1 0 0 1 2291.98 696)">
   <path d="M 67.0898 -74.6582 L 58.9844 -74.6582 L 58.9844 -74.8535 L 68.1152 -86.2793 C 69.0918 -87.4512 69.4824 -88.2324 69.4824 -89.3066 C 69.4824 -91.0156 68.2129 -92.1387 66.4062 -92.1387 L 53.418 -92.1387 C 51.5625 -92.1387 50.3906 -91.1133 50.3906 -89.4043 C 50.3906 -87.6953 51.6113 -86.6211 53.418 -86.6211 L 61.1816 -86.6211 L 61.1816 -86.4258 L 52.0508 -75.0977 C 51.123 -73.9258 50.7812 -73.0957 50.7812 -71.9727 C 50.7812 -70.3613 51.9531 -69.1895 53.7109 -69.1895 L 67.0898 -69.1895 C 68.8965 -69.1895 70.1172 -70.2148 70.1172 -71.9238 C 70.1172 -73.6328 68.9453 -74.6582 67.0898 -74.6582 Z M 86.2793 -59.1309 L 81.3477 -59.1309 L 81.3477 -59.3262 L 87.207 -66.4062 C 88.1348 -67.4805 88.4766 -68.2617 88.4766 -69.3359 C 88.4766 -70.9473 87.3047 -72.0215 85.5957 -72.0215 L 76.3184 -72.0215 C 74.6094 -72.0215 73.4863 -71.0938 73.4863 -69.5312 C 73.4863 -67.9199 74.6582 -66.9922 76.3184 -66.9922 L 80.9082 -66.9922 L 80.9082 -66.8457 L 75.1953 -59.9121 C 74.2676 -58.8379 73.8281 -57.9102 73.8281 -56.8359 C 73.8281 -55.2734 75 -54.1992 76.6602 -54.1992 L 86.2793 -54.1992 C 88.0371 -54.1992 89.1602 -55.0781 89.1602 -56.6406 C 89.1602 -58.2031 88.0371 -59.1309 86.2793 -59.1309 Z M 43.4082 1.95312 C 58.3984 1.95312 71.1914 -6.54297 76.709 -19.873 C 77.6367 -22.1191 77.5879 -23.9258 76.4648 -25 C 75.4395 -25.9277 73.7305 -26.0254 71.9238 -25.2441 C 68.7012 -23.8281 64.502 -22.9004 60.1562 -22.9004 C 43.4082 -22.9004 32.1289 -33.8379 32.1289 -50 C 32.1289 -54.6387 33.2031 -59.8633 34.7168 -63.0859 C 35.6934 -65.2344 35.6445 -66.8945 34.7168 -67.9688 C 33.7402 -69.0918 31.9336 -69.2383 29.6387 -68.3594 C 16.1133 -63.1348 6.83594 -49.4141 6.83594 -34.2773 C 6.83594 -13.3789 22.3145 1.95312 43.4082 1.95312 Z M 68.3105 -45.5078 L 64.0137 -45.5078 L 64.0137 -45.7031 L 69.0918 -51.8555 C 69.9707 -52.8809 70.2637 -53.5645 70.2637 -54.541 C 70.2637 -56.0059 69.1895 -56.9824 67.6758 -56.9824 L 58.9844 -56.9824 C 57.373 -56.9824 56.3965 -56.1035 56.3965 -54.5898 C 56.3965 -53.125 57.4219 -52.2461 58.9844 -52.2461 L 62.9395 -52.2461 L 62.9395 -52.0996 L 57.959 -46.0938 C 57.0312 -45.0195 56.7383 -44.2383 56.6895 -43.2129 C 56.6895 -41.8457 57.7148 -40.8203 59.2285 -40.8203 L 68.3105 -40.8203 C 69.8242 -40.8203 70.8496 -41.748 70.8496 -43.1641 C 70.8496 -44.6289 69.873 -45.5078 68.3105 -45.5078 Z"/>
  </g>
  <g id="Semibold-S" transform="matrix(1 0 0 1 1996.61 696)">
   <path d="M 64.9902 -74.3164 L 56.6895 -74.3164 L 56.6895 -74.5117 L 65.7227 -86.0352 C 66.6504 -87.207 66.9922 -87.9395 66.9922 -88.916 C 66.9922 -90.4297 65.8691 -91.4551 64.209 -91.4551 L 51.3184 -91.4551 C 49.707 -91.4551 48.584 -90.4785 48.584 -88.916 C 48.584 -87.3047 49.707 -86.377 51.3184 -86.377 L 59.1797 -86.377 L 59.1797 -86.1816 L 50.1465 -74.707 C 49.2188 -73.5352 48.877 -72.7539 48.877 -71.7773 C 48.877 -70.2637 50 -69.2383 51.6113 -69.2383 L 64.9902 -69.2383 C 66.6016 -69.2383 67.7246 -70.166 67.7246 -71.7773 C 67.7246 -73.3398 66.6016 -74.3164 64.9902 -74.3164 Z M 83.8867 -59.0332 L 78.6621 -59.0332 L 78.6621 -59.1797 L 84.5703 -66.6016 C 85.4492 -67.627 85.791 -68.4082 85.791 -69.3359 C 85.791 -70.8008 84.668 -71.7773 83.1543 -71.7773 L 73.7793 -71.7773 C 72.2656 -71.7773 71.2402 -70.8496 71.2402 -69.4336 C 71.2402 -67.9199 72.2656 -67.041 73.7793 -67.041 L 78.5645 -67.041 L 78.5645 -66.8945 L 72.7539 -59.6191 C 71.875 -58.5449 71.4844 -57.7148 71.4844 -56.7383 C 71.4844 -55.3223 72.5586 -54.3457 74.0723 -54.3457 L 83.8867 -54.3457 C 85.4492 -54.3457 86.4746 -55.2246 86.4746 -56.6895 C 86.4746 -58.1055 85.4492 -59.0332 83.8867 -59.0332 Z M 42.334 0.683594 C 56.9824 0.683594 69.2383 -7.32422 74.6094 -20.2637 C 75.4395 -22.2168 75.3418 -23.877 74.3164 -24.8047 C 73.4863 -25.6348 71.9727 -25.7324 70.3613 -25.0488 C 67.1875 -23.6816 63.1348 -22.9004 58.9355 -22.9004 C 42.041 -22.9004 30.8105 -33.7891 30.8105 -50.0977 C 30.8105 -54.6875 31.7871 -59.8633 33.2031 -62.7441 C 34.082 -64.6484 34.0332 -66.1621 33.2031 -67.1387 C 32.373 -68.1152 30.7617 -68.2617 28.7109 -67.5293 C 15.6738 -62.5977 6.83594 -49.2188 6.83594 -34.375 C 6.83594 -14.209 21.875 0.683594 42.334 0.683594 Z M 66.1621 -45.5078 L 61.6211 -45.5078 L 61.6211 -45.6543 L 66.748 -52.0996 C 67.5781 -53.125 67.8711 -53.8086 67.8711 -54.6875 C 67.8711 -56.0059 66.8457 -56.8848 65.4785 -56.8848 L 56.8848 -56.8848 C 55.4688 -56.8848 54.4922 -56.0547 54.4922 -54.6875 C 54.4922 -53.2715 55.5176 -52.4414 56.8848 -52.4414 L 60.9375 -52.4414 L 60.9375 -52.2949 L 55.957 -45.9473 C 55.0781 -44.9219 54.7852 -44.1895 54.7363 -43.2617 C 54.7363 -41.9922 55.7129 -41.0645 57.1289 -41.0645 L 66.1621 -41.0645 C 67.5781 -41.0645 68.5059 -41.9434 68.5059 -43.3105 C 68.5059 -44.6777 67.5781 -45.5078 66.1621 -45.5078 Z"/>
  </g>
  <g id="Medium-S" transform="matrix(1 0 0 1 1700.93 696)">
   <path d="M 63.3789 -74.0234 L 54.9805 -74.0234 L 54.9805 -74.2188 L 63.916 -85.8398 C 64.7949 -87.0117 65.1855 -87.7441 65.1855 -88.5742 C 65.1855 -90.0391 64.0625 -90.9668 62.5488 -90.9668 L 49.7559 -90.9668 C 48.291 -90.9668 47.2656 -90.0391 47.2656 -88.5742 C 47.2656 -87.0605 48.291 -86.1328 49.7559 -86.1328 L 57.7148 -86.1328 L 57.7148 -85.9375 L 48.6816 -74.4141 C 47.7539 -73.2422 47.4609 -72.5586 47.4609 -71.582 C 47.4609 -70.2148 48.4863 -69.2383 50 -69.2383 L 63.3789 -69.2383 C 64.8438 -69.2383 65.8691 -70.1172 65.8691 -71.6797 C 65.8691 -73.0957 64.8438 -74.0234 63.3789 -74.0234 Z M 82.0801 -58.9355 L 76.5625 -58.9355 L 76.5625 -59.082 L 82.5684 -66.748 C 83.3984 -67.7734 83.7402 -68.5059 83.7402 -69.3359 C 83.7402 -70.7031 82.666 -71.582 81.25 -71.582 L 71.875 -71.582 C 70.5078 -71.582 69.5312 -70.7031 69.5312 -69.3848 C 69.5312 -67.9199 70.5078 -67.0898 71.875 -67.0898 L 76.8066 -67.0898 L 76.8066 -66.9434 L 70.8984 -59.375 C 70.0684 -58.3496 69.7266 -57.5684 69.7266 -56.6895 C 69.7266 -55.4199 70.7031 -54.4922 72.1191 -54.4922 L 82.0801 -54.4922 C 83.4473 -54.4922 84.4238 -55.2734 84.4238 -56.6895 C 84.4238 -58.0566 83.4961 -58.9355 82.0801 -58.9355 Z M 41.5527 -0.292969 C 55.8594 -0.292969 67.7246 -7.91016 72.998 -20.5566 C 73.7305 -22.3145 73.6328 -23.7793 72.7539 -24.6582 C 72.0215 -25.3906 70.6055 -25.4883 69.1895 -24.9023 C 66.0156 -23.584 62.1582 -22.9004 58.0078 -22.9004 C 41.0156 -22.9004 29.7852 -33.7891 29.7852 -50.1953 C 29.7852 -54.7363 30.7617 -59.8145 32.0312 -62.5 C 32.8613 -64.209 32.8613 -65.5762 32.1289 -66.5039 C 31.3477 -67.4316 29.8828 -67.5781 28.0273 -66.8945 C 15.332 -62.1582 6.83594 -49.0234 6.83594 -34.4727 C 6.83594 -14.8438 21.582 -0.292969 41.5527 -0.292969 Z M 64.5508 -45.459 L 59.8145 -45.459 L 59.8145 -45.6055 L 64.9902 -52.2949 C 65.7715 -53.3203 66.0645 -53.9551 66.0645 -54.7363 C 66.0645 -56.0059 65.0879 -56.8359 63.8184 -56.8359 L 55.2734 -56.8359 C 54.0039 -56.8359 53.0762 -56.0059 53.0762 -54.7363 C 53.0762 -53.3691 54.0039 -52.5879 55.2734 -52.5879 L 59.4727 -52.5879 L 59.4727 -52.4414 L 54.3945 -45.8496 C 53.6133 -44.8242 53.3203 -44.1895 53.2715 -43.3105 C 53.2715 -42.1387 54.1992 -41.2598 55.5176 -41.2598 L 64.5508 -41.2598 C 65.8203 -41.2598 66.748 -42.0898 66.748 -43.3594 C 66.748 -44.6777 65.8691 -45.459 64.5508 -45.459 Z"/>
  </g>
  <g id="Regular-S" transform="matrix(1 0 0 1 1405.56 696)">
   <path d="M 61.2793 -73.6816 L 52.6855 -73.6816 L 52.6855 -73.877 L 61.5723 -85.5957 C 62.4023 -86.7188 62.7441 -87.4512 62.7441 -88.1836 C 62.7441 -89.4531 61.7188 -90.2832 60.3516 -90.2832 L 47.7051 -90.2832 C 46.4355 -90.2832 45.459 -89.4043 45.459 -88.0859 C 45.459 -86.6699 46.4355 -85.8887 47.7051 -85.8887 L 55.7617 -85.8887 L 55.7617 -85.6934 L 46.7773 -73.9746 C 45.8984 -72.8516 45.6055 -72.2168 45.6055 -71.3867 C 45.6055 -70.166 46.5332 -69.2871 47.9004 -69.2871 L 61.2793 -69.2871 C 62.5488 -69.2871 63.5254 -70.0684 63.5254 -71.4844 C 63.5254 -72.8027 62.5488 -73.6816 61.2793 -73.6816 Z M 79.6875 -58.7891 L 73.877 -58.7891 L 73.877 -58.9355 L 79.9316 -66.9434 C 80.7129 -67.9688 81.0547 -68.6523 81.0547 -69.3848 C 81.0547 -70.5566 80.0781 -71.3379 78.8086 -71.3379 L 69.3848 -71.3379 C 68.1641 -71.3379 67.2852 -70.5078 67.2852 -69.2871 C 67.2852 -67.9199 68.1641 -67.1387 69.3848 -67.1387 L 74.4629 -67.1387 L 74.4629 -66.9922 L 68.457 -59.082 C 67.7246 -58.0566 67.4316 -57.4219 67.4316 -56.5918 C 67.4316 -55.5176 68.2617 -54.6387 69.5801 -54.6387 L 79.6875 -54.6387 C 80.9082 -54.6387 81.7383 -55.4199 81.7383 -56.7383 C 81.7383 -58.0078 80.9082 -58.7891 79.6875 -58.7891 Z M 40.5273 -1.61133 C 54.4434 -1.61133 65.7715 -8.69141 70.8984 -20.9473 C 71.5332 -22.4609 71.4355 -23.7305 70.6543 -24.5117 C 70.0684 -25.0977 68.8965 -25.1953 67.6758 -24.707 C 64.502 -23.4375 60.8398 -22.9004 56.8359 -22.9004 C 39.6973 -22.9004 28.5156 -33.7402 28.5156 -50.293 C 28.5156 -54.7852 29.3945 -59.8145 30.5664 -62.1582 C 31.2988 -63.623 31.2988 -64.8926 30.6641 -65.6738 C 29.9805 -66.5039 28.7109 -66.6504 27.0996 -66.0645 C 14.8926 -61.6211 6.83594 -48.8281 6.83594 -34.6191 C 6.83594 -15.6738 21.1426 -1.61133 40.5273 -1.61133 Z M 62.4512 -45.4102 L 57.4707 -45.4102 L 57.4707 -45.5566 L 62.6953 -52.5879 C 63.4277 -53.6133 63.7207 -54.1992 63.7207 -54.8828 C 63.7207 -56.0059 62.8418 -56.7383 61.6211 -56.7383 L 53.2227 -56.7383 C 52.0996 -56.7383 51.2207 -55.957 51.2207 -54.7852 C 51.2207 -53.5156 52.0996 -52.7832 53.2227 -52.7832 L 57.5195 -52.7832 L 57.5195 -52.6367 L 52.3926 -45.7031 C 51.6602 -44.7266 51.3672 -44.1406 51.3672 -43.3594 C 51.3672 -42.2852 52.1973 -41.5039 53.3691 -41.5039 L 62.4512 -41.5039 C 63.5742 -41.5039 64.4043 -42.2363 64.4043 -43.5059 C 64.4043 -44.6777 63.5742 -45.4102 62.4512 -45.4102 Z"/>
  </g>
  <g id="Light-S" transform="matrix(1 0 0 1 1109.75 696)">
   <path d="M 60.6934 -73.0957 L 51.9043 -73.0957 L 51.9043 -73.291 L 60.8398 -85.0586 C 61.6211 -86.0352 61.9141 -86.6211 61.9141 -87.2559 C 61.9141 -88.3789 61.0352 -89.0625 59.8633 -89.0625 L 47.9004 -89.0625 C 46.875 -89.0625 46.0938 -88.3301 46.0938 -87.3047 C 46.0938 -86.1816 46.875 -85.4492 47.9004 -85.4492 L 56.25 -85.4492 L 56.25 -85.2539 L 47.2168 -73.5352 C 46.4355 -72.5586 46.1914 -72.0703 46.1914 -71.2891 C 46.1914 -70.2637 46.9727 -69.5312 48.1445 -69.5312 L 60.6934 -69.5312 C 61.7676 -69.5312 62.5488 -70.2148 62.5488 -71.3379 C 62.5488 -72.3633 61.7676 -73.0957 60.6934 -73.0957 Z M 78.2227 -58.6426 L 71.7773 -58.6426 L 71.7773 -58.7891 L 78.3691 -67.3828 C 79.0527 -68.3105 79.3457 -68.8477 79.3457 -69.5312 C 79.3457 -70.5566 78.5156 -71.1914 77.3926 -71.1914 L 68.1152 -71.1914 C 67.1387 -71.1914 66.3574 -70.5078 66.3574 -69.5312 C 66.3574 -68.4082 67.1387 -67.7734 68.1152 -67.7734 L 73.9746 -67.7734 L 73.9746 -67.5781 L 67.4316 -59.0332 C 66.748 -58.1543 66.4551 -57.6172 66.4551 -56.8848 C 66.4551 -55.9082 67.2363 -55.2246 68.3594 -55.2246 L 78.2227 -55.2246 C 79.248 -55.2246 79.9316 -55.8594 79.9316 -56.9336 C 79.9316 -57.959 79.248 -58.6426 78.2227 -58.6426 Z M 40.5273 -2.34375 C 54.4434 -2.34375 65.7715 -9.42383 70.8984 -21.6797 C 71.5332 -23.1934 71.4355 -24.4629 70.6543 -25.2441 C 70.0684 -25.8301 68.8965 -25.9277 67.6758 -25.4395 C 64.502 -24.1699 60.8398 -23.6328 56.8359 -23.6328 C 39.6973 -23.6328 28.5156 -34.4727 28.5156 -51.0254 C 28.5156 -55.5176 29.3945 -60.5469 30.5664 -62.8906 C 31.2988 -64.3555 31.2988 -65.625 30.6641 -66.4062 C 29.9805 -67.2363 28.7109 -67.3828 27.0996 -66.7969 C 14.8926 -62.3535 6.83594 -49.5605 6.83594 -35.3516 C 6.83594 -16.4062 21.1426 -2.34375 40.5273 -2.34375 Z M 61.6211 -45.8496 L 56.2012 -45.8496 L 56.2012 -45.9961 L 61.7188 -53.2715 C 62.4023 -54.1992 62.6953 -54.6875 62.6953 -55.3223 C 62.6953 -56.2988 61.8652 -56.9336 60.8398 -56.9336 L 52.7344 -56.9336 C 51.7578 -56.9336 51.0742 -56.25 51.0742 -55.3223 C 51.0742 -54.2969 51.7578 -53.6621 52.7344 -53.6621 L 57.5684 -53.6621 L 57.5684 -53.4668 L 52.0996 -46.2402 C 51.416 -45.3613 51.1719 -44.873 51.1719 -44.1895 C 51.1719 -43.2129 51.9043 -42.5293 52.9297 -42.5293 L 61.6211 -42.5293 C 62.5977 -42.5293 63.2324 -43.2129 63.2324 -44.1895 C 63.2324 -45.166 62.5977 -45.8496 61.6211 -45.8496 Z"/>
  </g>
  <g id="Thin-S" transform="matrix(1 0 0 1 814.235 696)">
   <path d="M 59.9609 -72.3633 L 50.8301 -72.3633 L 50.8301 -72.5586 L 59.9609 -84.375 C 60.5469 -85.1074 60.791 -85.498 60.791 -86.084 C 60.791 -86.9629 60.1074 -87.5 59.2285 -87.5 L 48.1934 -87.5 C 47.4121 -87.5 46.875 -86.9141 46.875 -86.2305 C 46.875 -85.498 47.4121 -84.9609 48.1934 -84.9609 L 56.8848 -84.9609 L 56.8848 -84.7656 L 47.7539 -72.9492 C 47.168 -72.2168 46.9238 -71.8262 46.9238 -71.1914 C 46.9238 -70.3613 47.6074 -69.8242 48.4863 -69.8242 L 59.9609 -69.8242 C 60.7422 -69.8242 61.2793 -70.3613 61.2793 -71.0938 C 61.2793 -71.8262 60.7422 -72.3633 59.9609 -72.3633 Z M 76.2695 -58.4473 L 68.9453 -58.4473 L 68.9453 -58.6426 L 76.2695 -68.0176 C 76.8555 -68.7012 77.0996 -69.0918 77.0996 -69.6777 C 77.0996 -70.5566 76.416 -71.0449 75.5371 -71.0449 L 66.4551 -71.0449 C 65.7227 -71.0449 65.1855 -70.5078 65.1855 -69.8242 C 65.1855 -69.0918 65.7227 -68.5547 66.4551 -68.5547 L 73.3398 -68.5547 L 73.3398 -68.4082 L 66.0645 -59.0332 C 65.4785 -58.3008 65.2344 -57.9102 65.2344 -57.3242 C 65.2344 -56.4941 65.918 -55.957 66.7969 -55.957 L 76.2695 -55.957 C 77.0508 -55.957 77.5391 -56.4941 77.5391 -57.1777 C 77.5391 -57.9102 77.0508 -58.4473 76.2695 -58.4473 Z M 40.5273 -3.27148 C 54.4434 -3.27148 65.7715 -10.3516 70.8984 -22.6074 C 71.5332 -24.1211 71.4355 -25.3906 70.6543 -26.1719 C 70.0684 -26.7578 68.8965 -26.8555 67.6758 -26.3672 C 64.502 -25.0977 60.8398 -24.5605 56.8359 -24.5605 C 39.6973 -24.5605 28.5156 -35.4004 28.5156 -51.9531 C 28.5156 -56.4453 29.3945 -61.4746 30.5664 -63.8184 C 31.2988 -65.2832 31.2988 -66.5527 30.6641 -67.334 C 29.9805 -68.1641 28.7109 -68.3105 27.0996 -67.7246 C 14.8926 -63.2812 6.83594 -50.4883 6.83594 -36.2793 C 6.83594 -17.334 21.1426 -3.27148 40.5273 -3.27148 Z M 60.498 -46.3379 L 54.4922 -46.3379 L 54.4922 -46.5332 L 60.498 -54.248 C 61.0352 -54.9316 61.3281 -55.3223 61.3281 -55.8594 C 61.3281 -56.7383 60.6445 -57.1777 59.8145 -57.1777 L 52.0996 -57.1777 C 51.3672 -57.1777 50.8301 -56.6895 50.8301 -56.0059 C 50.8301 -55.3223 51.3672 -54.7852 52.0996 -54.7852 L 57.6172 -54.7852 L 57.6172 -54.5898 L 51.6602 -46.9238 C 51.123 -46.1914 50.8789 -45.8496 50.8789 -45.2637 C 50.8789 -44.4336 51.5137 -43.9453 52.3926 -43.9453 L 60.498 -43.9453 C 61.2305 -43.9453 61.7676 -44.4824 61.7676 -45.166 C 61.7676 -45.8008 61.2305 -46.3379 60.498 -46.3379 Z"/>
  </g>
  <g id="Ultralight-S" transform="matrix(1 0 0 1 518.134 696)">
   <path d="M 59.5703 -71.9727 L 50.293 -71.9727 L 50.293 -72.168 L 59.4727 -84.0332 C 60.0098 -84.6191 60.2539 -84.9609 60.2539 -85.498 C 60.2539 -86.2305 59.6191 -86.6699 58.8867 -86.6699 L 48.3398 -86.6699 C 47.7539 -86.6699 47.3145 -86.1816 47.3145 -85.6934 C 47.3145 -85.1562 47.7539 -84.668 48.3398 -84.668 L 57.2266 -84.668 L 57.2266 -84.4727 L 48.0957 -72.6074 C 47.5586 -72.0215 47.3145 -71.7285 47.3145 -71.1426 C 47.3145 -70.4102 47.9492 -69.9707 48.6816 -69.9707 L 59.5703 -69.9707 C 60.2051 -69.9707 60.5957 -70.459 60.5957 -70.9961 C 60.5957 -71.4844 60.2051 -71.9727 59.5703 -71.9727 Z M 75.293 -58.3496 L 67.5293 -58.3496 L 67.5293 -58.4961 L 75.1953 -68.3594 C 75.6836 -68.9453 75.9277 -69.2383 75.9277 -69.8242 C 75.9277 -70.5566 75.3418 -70.9473 74.5605 -70.9473 L 65.625 -70.9473 C 64.9902 -70.9473 64.5996 -70.5078 64.5996 -69.9707 C 64.5996 -69.4336 64.9902 -68.9941 65.625 -68.9941 L 72.998 -68.9941 L 72.998 -68.7988 L 65.332 -58.9844 C 64.8438 -58.3984 64.5996 -58.0566 64.5996 -57.5195 C 64.5996 -56.7871 65.1855 -56.3477 65.9668 -56.3477 L 75.293 -56.3477 C 75.8789 -56.3477 76.3184 -56.8359 76.3184 -57.3242 C 76.3184 -57.8613 75.8789 -58.3496 75.293 -58.3496 Z M 40.5273 -3.80859 C 54.4434 -3.80859 65.7715 -10.8887 70.8984 -23.1445 C 71.5332 -24.6582 71.4355 -25.9277 70.6543 -26.709 C 70.0684 -27.2949 68.8965 -27.3926 67.6758 -26.9043 C 64.502 -25.6348 60.8398 -25.0977 56.8359 -25.0977 C 39.6973 -25.0977 28.5156 -35.9375 28.5156 -52.4902 C 28.5156 -56.9824 29.3945 -62.0117 30.5664 -64.3555 C 31.2988 -65.8203 31.2988 -67.0898 30.6641 -67.8711 C 29.9805 -68.7012 28.7109 -68.8477 27.0996 -68.2617 C 14.8926 -63.8184 6.83594 -51.0254 6.83594 -36.8164 C 6.83594 -17.8711 21.1426 -3.80859 40.5273 -3.80859 Z M 59.9609 -46.6309 L 53.6133 -46.6309 L 53.6133 -46.8262 L 59.8633 -54.7363 C 60.3027 -55.3223 60.5957 -55.6152 60.5957 -56.2012 C 60.5957 -56.9336 60.0098 -57.3242 59.2773 -57.3242 L 51.7578 -57.3242 C 51.123 -57.3242 50.7324 -56.8848 50.7324 -56.3477 C 50.7324 -55.8594 51.123 -55.3711 51.7578 -55.3711 L 57.666 -55.3711 L 57.666 -55.1758 L 51.4648 -47.2656 C 50.9766 -46.6309 50.7324 -46.3867 50.7324 -45.8008 C 50.7324 -45.0684 51.3184 -44.6777 52.0508 -44.6777 L 59.9609 -44.6777 C 60.5469 -44.6777 60.9863 -45.1172 60.9863 -45.6543 C 60.9863 -46.1426 60.5469 -46.6309 59.9609 -46.6309 Z"/>
  </g>
 </g>
</svg>
