<?xml version="1.0" encoding="UTF-8"?>
<!--Generator: Apple Native CoreSVG 123-->
<!DOCTYPE svg
PUBLIC "-//W3C//DTD SVG 1.1//EN"
       "http://www.w3.org/Graphics/SVG/1.1/DTD/svg11.dtd">
<svg version="1.1" xmlns="http://www.w3.org/2000/svg" xmlns:xlink="http://www.w3.org/1999/xlink" width="3300" height="2200">
 <!--glyph: "uni1001E2.medium", point size: 100.000000, font version: "Version 15.0d7e11", template writer version: "5"-->
 <g id="Notes">
  <rect height="2200" id="artboard" style="fill:white;opacity:1" width="3300" x="0" y="0"/>
  <line id="" style="fill:none;stroke:black;opacity:1;stroke-width:0.5;" x1="263" x2="3036" y1="292" y2="292"/>
  <text style="stroke:none;fill:black;font-family:-apple-system,&quot;SF Pro Display&quot;,&quot;SF Pro Text&quot;,Helvetica,sans-serif;font-weight:bold;" transform="matrix(1 0 0 1 263 322)">Weight/Scale Variations</text>
  <text style="stroke:none;fill:black;font-family:-apple-system,&quot;SF Pro Display&quot;,&quot;SF Pro Text&quot;,Helvetica,sans-serif;text-anchor:middle;" transform="matrix(1 0 0 1 559.711 322)">Ultralight</text>
  <text style="stroke:none;fill:black;font-family:-apple-system,&quot;SF Pro Display&quot;,&quot;SF Pro Text&quot;,Helvetica,sans-serif;text-anchor:middle;" transform="matrix(1 0 0 1 856.422 322)">Thin</text>
  <text style="stroke:none;fill:black;font-family:-apple-system,&quot;SF Pro Display&quot;,&quot;SF Pro Text&quot;,Helvetica,sans-serif;text-anchor:middle;" transform="matrix(1 0 0 1 1153.13 322)">Light</text>
  <text style="stroke:none;fill:black;font-family:-apple-system,&quot;SF Pro Display&quot;,&quot;SF Pro Text&quot;,Helvetica,sans-serif;text-anchor:middle;" transform="matrix(1 0 0 1 1449.84 322)">Regular</text>
  <text style="stroke:none;fill:black;font-family:-apple-system,&quot;SF Pro Display&quot;,&quot;SF Pro Text&quot;,Helvetica,sans-serif;text-anchor:middle;" transform="matrix(1 0 0 1 1746.56 322)">Medium</text>
  <text style="stroke:none;fill:black;font-family:-apple-system,&quot;SF Pro Display&quot;,&quot;SF Pro Text&quot;,Helvetica,sans-serif;text-anchor:middle;" transform="matrix(1 0 0 1 2043.27 322)">Semibold</text>
  <text style="stroke:none;fill:black;font-family:-apple-system,&quot;SF Pro Display&quot;,&quot;SF Pro Text&quot;,Helvetica,sans-serif;text-anchor:middle;" transform="matrix(1 0 0 1 2339.98 322)">Bold</text>
  <text style="stroke:none;fill:black;font-family:-apple-system,&quot;SF Pro Display&quot;,&quot;SF Pro Text&quot;,Helvetica,sans-serif;text-anchor:middle;" transform="matrix(1 0 0 1 2636.69 322)">Heavy</text>
  <text style="stroke:none;fill:black;font-family:-apple-system,&quot;SF Pro Display&quot;,&quot;SF Pro Text&quot;,Helvetica,sans-serif;text-anchor:middle;" transform="matrix(1 0 0 1 2933.4 322)">Black</text>
  <line id="" style="fill:none;stroke:black;opacity:1;stroke-width:0.5;" x1="263" x2="3036" y1="1903" y2="1903"/>
  <g id="" transform="matrix(1 0 0 1 263 1933)">
   <path d="M 9.24805 0.830078 C 13.5547 0.830078 17.1387 -2.74414 17.1387 -7.05078 C 17.1387 -11.3574 13.5449 -14.9316 9.23828 -14.9316 C 4.94141 -14.9316 1.36719 -11.3574 1.36719 -7.05078 C 1.36719 -2.74414 4.95117 0.830078 9.24805 0.830078 Z M 9.24805 -0.654297 C 5.70312 -0.654297 2.87109 -3.49609 2.87109 -7.05078 C 2.87109 -10.6055 5.69336 -13.4473 9.23828 -13.4473 C 12.793 -13.4473 15.6348 -10.6055 15.6445 -7.05078 C 15.6543 -3.49609 12.8027 -0.654297 9.24805 -0.654297 Z M 9.22852 -3.42773 C 9.69727 -3.42773 9.9707 -3.74023 9.9707 -4.25781 L 9.9707 -6.31836 L 12.1973 -6.31836 C 12.6953 -6.31836 13.0371 -6.57227 13.0371 -7.04102 C 13.0371 -7.51953 12.7148 -7.7832 12.1973 -7.7832 L 9.9707 -7.7832 L 9.9707 -10.0098 C 9.9707 -10.5273 9.69727 -10.8496 9.22852 -10.8496 C 8.75977 -10.8496 8.50586 -10.5078 8.50586 -10.0098 L 8.50586 -7.7832 L 6.29883 -7.7832 C 5.78125 -7.7832 5.44922 -7.51953 5.44922 -7.04102 C 5.44922 -6.57227 5.80078 -6.31836 6.29883 -6.31836 L 8.50586 -6.31836 L 8.50586 -4.25781 C 8.50586 -3.75977 8.75977 -3.42773 9.22852 -3.42773 Z"/>
  </g>
  <g id="" transform="matrix(1 0 0 1 281.506 1933)">
   <path d="M 11.709 2.91016 C 17.1582 2.91016 21.6699 -1.60156 21.6699 -7.05078 C 21.6699 -12.4902 17.1484 -17.0117 11.6992 -17.0117 C 6.25977 -17.0117 1.74805 -12.4902 1.74805 -7.05078 C 1.74805 -1.60156 6.26953 2.91016 11.709 2.91016 Z M 11.709 1.25 C 7.09961 1.25 3.41797 -2.44141 3.41797 -7.05078 C 3.41797 -11.6504 7.08984 -15.3516 11.6992 -15.3516 C 16.3086 -15.3516 20 -11.6504 20.0098 -7.05078 C 20.0195 -2.44141 16.3184 1.25 11.709 1.25 Z M 11.6895 -2.41211 C 12.207 -2.41211 12.5195 -2.77344 12.5195 -3.33984 L 12.5195 -6.23047 L 15.5762 -6.23047 C 16.123 -6.23047 16.5039 -6.51367 16.5039 -7.03125 C 16.5039 -7.55859 16.1426 -7.86133 15.5762 -7.86133 L 12.5195 -7.86133 L 12.5195 -10.9277 C 12.5195 -11.5039 12.207 -11.8555 11.6895 -11.8555 C 11.1719 -11.8555 10.8789 -11.4844 10.8789 -10.9277 L 10.8789 -7.86133 L 7.83203 -7.86133 C 7.26562 -7.86133 6.89453 -7.55859 6.89453 -7.03125 C 6.89453 -6.51367 7.28516 -6.23047 7.83203 -6.23047 L 10.8789 -6.23047 L 10.8789 -3.33984 C 10.8789 -2.79297 11.1719 -2.41211 11.6895 -2.41211 Z"/>
  </g>
  <g id="" transform="matrix(1 0 0 1 304.924 1933)">
   <path d="M 14.9707 5.67383 C 21.9336 5.67383 27.6953 -0.078125 27.6953 -7.04102 C 27.6953 -14.0039 21.9238 -19.7559 14.9609 -19.7559 C 8.00781 -19.7559 2.25586 -14.0039 2.25586 -7.04102 C 2.25586 -0.078125 8.01758 5.67383 14.9707 5.67383 Z M 14.9707 3.85742 C 8.93555 3.85742 4.08203 -1.00586 4.08203 -7.04102 C 4.08203 -13.0762 8.92578 -17.9395 14.9609 -17.9395 C 21.0059 -17.9395 25.8594 -13.0762 25.8691 -7.04102 C 25.8789 -1.00586 21.0156 3.85742 14.9707 3.85742 Z M 14.9512 -1.06445 C 15.5176 -1.06445 15.8691 -1.45508 15.8691 -2.06055 L 15.8691 -6.13281 L 20.1074 -6.13281 C 20.6934 -6.13281 21.1133 -6.46484 21.1133 -7.02148 C 21.1133 -7.59766 20.7227 -7.93945 20.1074 -7.93945 L 15.8691 -7.93945 L 15.8691 -12.1875 C 15.8691 -12.8027 15.5176 -13.1934 14.9512 -13.1934 C 14.3848 -13.1934 14.0625 -12.7832 14.0625 -12.1875 L 14.0625 -7.93945 L 9.83398 -7.93945 C 9.21875 -7.93945 8.80859 -7.59766 8.80859 -7.02148 C 8.80859 -6.46484 9.23828 -6.13281 9.83398 -6.13281 L 14.0625 -6.13281 L 14.0625 -2.06055 C 14.0625 -1.47461 14.3848 -1.06445 14.9512 -1.06445 Z"/>
  </g>
  <text style="stroke:none;fill:black;font-family:-apple-system,&quot;SF Pro Display&quot;,&quot;SF Pro Text&quot;,Helvetica,sans-serif;font-weight:bold;" transform="matrix(1 0 0 1 263 1953)">Design Variations</text>
  <text style="stroke:none;fill:black;font-family:-apple-system,&quot;SF Pro Display&quot;,&quot;SF Pro Text&quot;,Helvetica,sans-serif;" transform="matrix(1 0 0 1 263 1971)">Symbols are supported in up to nine weights and three scales.</text>
  <text style="stroke:none;fill:black;font-family:-apple-system,&quot;SF Pro Display&quot;,&quot;SF Pro Text&quot;,Helvetica,sans-serif;" transform="matrix(1 0 0 1 263 1989)">For optimal layout with text and other symbols, vertically align</text>
  <text style="stroke:none;fill:black;font-family:-apple-system,&quot;SF Pro Display&quot;,&quot;SF Pro Text&quot;,Helvetica,sans-serif;" transform="matrix(1 0 0 1 263 2007)">symbols with the adjacent text.</text>
  <rect height="14" id="" style="fill:#00AEEF;stroke:none;opacity:0.4;" width="3" x="776" y="1919"/>
  <g id="" transform="matrix(1 0 0 1 779 1933)">
   <path d="M 10.5273 0 L 12.373 0 L 7.17773 -14.0918 L 5.43945 -14.0918 L 0.244141 0 L 2.08984 0 L 3.50586 -4.0332 L 9.11133 -4.0332 Z M 6.2793 -11.9531 L 6.33789 -11.9531 L 8.59375 -5.52734 L 4.02344 -5.52734 Z"/>
  </g>
  <rect height="14" id="" style="fill:#00AEEF;stroke:none;opacity:0.4;" width="3" x="791.617" y="1919"/>
  <text style="stroke:none;fill:black;font-family:-apple-system,&quot;SF Pro Display&quot;,&quot;SF Pro Text&quot;,Helvetica,sans-serif;font-weight:bold;" transform="matrix(1 0 0 1 776 1953)">Margins</text>
  <text style="stroke:none;fill:black;font-family:-apple-system,&quot;SF Pro Display&quot;,&quot;SF Pro Text&quot;,Helvetica,sans-serif;" transform="matrix(1 0 0 1 776 1971)">Leading and trailing margins on the left and right side of each symbol</text>
  <text style="stroke:none;fill:black;font-family:-apple-system,&quot;SF Pro Display&quot;,&quot;SF Pro Text&quot;,Helvetica,sans-serif;" transform="matrix(1 0 0 1 776 1989)">can be adjusted by modifying the width of the blue rectangles.</text>
  <text style="stroke:none;fill:black;font-family:-apple-system,&quot;SF Pro Display&quot;,&quot;SF Pro Text&quot;,Helvetica,sans-serif;" transform="matrix(1 0 0 1 776 2007)">Modifications are automatically applied proportionally to all</text>
  <text style="stroke:none;fill:black;font-family:-apple-system,&quot;SF Pro Display&quot;,&quot;SF Pro Text&quot;,Helvetica,sans-serif;" transform="matrix(1 0 0 1 776 2025)">scales and weights.</text>
  <g id="" transform="matrix(1 0 0 1 1289 1933)">
   <path d="M 2.83203 3.11523 L 4.375 4.6582 C 5.22461 5.48828 6.19141 5.41992 7.06055 4.46289 L 17.2754 -6.66016 C 17.7051 -6.36719 18.0957 -6.37695 18.5645 -6.47461 L 19.6094 -6.68945 L 20.3027 -5.99609 L 20.2539 -5.47852 C 20.1855 -4.95117 20.3516 -4.53125 20.8496 -4.0332 L 21.6602 -3.22266 C 22.168 -2.71484 22.8223 -2.68555 23.3008 -3.16406 L 26.5527 -6.41602 C 27.0312 -6.89453 27.0117 -7.54883 26.5039 -8.05664 L 25.6836 -8.87695 C 25.1855 -9.375 24.7754 -9.55078 24.2383 -9.47266 L 23.7109 -9.41406 L 23.0566 -10.0781 L 23.3398 -11.2207 C 23.4863 -11.7871 23.3398 -12.2559 22.7148 -12.8613 L 20.3027 -15.2539 C 16.7578 -18.7793 12.2266 -18.6719 9.11133 -15.5371 C 8.69141 -15.1074 8.64258 -14.5215 8.91602 -14.0918 C 9.15039 -13.7207 9.62891 -13.4961 10.2734 -13.6621 C 11.7871 -14.043 13.3008 -13.9258 14.7852 -12.9199 L 14.1602 -11.3379 C 13.9258 -10.752 13.9453 -10.2734 14.1797 -9.83398 L 3.01758 0.439453 C 2.08008 1.30859 1.97266 2.25586 2.83203 3.11523 Z M 10.6738 -15.1465 C 13.3398 -17.1387 16.6504 -16.8262 19.0527 -14.4141 L 21.6797 -11.8066 C 21.9141 -11.5723 21.9434 -11.3867 21.8848 -11.0938 L 21.5039 -9.53125 L 23.0762 -7.95898 L 24.043 -8.04688 C 24.3262 -8.07617 24.4141 -8.05664 24.6387 -7.83203 L 25.2637 -7.20703 L 22.5098 -4.46289 L 21.8848 -5.07812 C 21.6602 -5.30273 21.6406 -5.40039 21.6699 -5.68359 L 21.7578 -6.64062 L 20.1953 -8.20312 L 18.5742 -7.89062 C 18.291 -7.83203 18.1445 -7.83203 17.9102 -8.07617 L 15.7324 -10.2539 C 15.5078 -10.4883 15.4785 -10.625 15.6055 -10.9473 L 16.5527 -13.2227 C 14.9512 -14.7559 12.8418 -15.6055 10.8008 -14.9512 C 10.7129 -14.9219 10.6445 -14.9414 10.6152 -14.9805 C 10.5859 -15.0293 10.5859 -15.0781 10.6738 -15.1465 Z M 4.10156 2.41211 C 3.61328 1.91406 3.78906 1.61133 4.12109 1.30859 L 15.0781 -8.80859 L 16.3086 -7.57812 L 6.15234 3.34961 C 5.84961 3.68164 5.46875 3.7793 5.06836 3.37891 Z"/>
  </g>
  <text style="stroke:none;fill:black;font-family:-apple-system,&quot;SF Pro Display&quot;,&quot;SF Pro Text&quot;,Helvetica,sans-serif;font-weight:bold;" transform="matrix(1 0 0 1 1289 1953)">Exporting</text>
  <text style="stroke:none;fill:black;font-family:-apple-system,&quot;SF Pro Display&quot;,&quot;SF Pro Text&quot;,Helvetica,sans-serif;" transform="matrix(1 0 0 1 1289 1971)">Symbols should be outlined when exporting to ensure the</text>
  <text style="stroke:none;fill:black;font-family:-apple-system,&quot;SF Pro Display&quot;,&quot;SF Pro Text&quot;,Helvetica,sans-serif;" transform="matrix(1 0 0 1 1289 1989)">design is preserved when submitting to Xcode.</text>
  <text id="template-version" style="stroke:none;fill:black;font-family:-apple-system,&quot;SF Pro Display&quot;,&quot;SF Pro Text&quot;,Helvetica,sans-serif;text-anchor:end;" transform="matrix(1 0 0 1 3036 1933)">Template v.1.0</text>
  <text style="stroke:none;fill:black;font-family:-apple-system,&quot;SF Pro Display&quot;,&quot;SF Pro Text&quot;,Helvetica,sans-serif;text-anchor:end;" transform="matrix(1 0 0 1 3036 1951)">Generated from smoke</text>
  <text style="stroke:none;fill:black;font-family:-apple-system,&quot;SF Pro Display&quot;,&quot;SF Pro Text&quot;,Helvetica,sans-serif;text-anchor:end;" transform="matrix(1 0 0 1 3036 1969)">Typeset at 100 points</text>
  <text style="stroke:none;fill:black;font-family:-apple-system,&quot;SF Pro Display&quot;,&quot;SF Pro Text&quot;,Helvetica,sans-serif;" transform="matrix(1 0 0 1 263 726)">Small</text>
  <text style="stroke:none;fill:black;font-family:-apple-system,&quot;SF Pro Display&quot;,&quot;SF Pro Text&quot;,Helvetica,sans-serif;" transform="matrix(1 0 0 1 263 1156)">Medium</text>
  <text style="stroke:none;fill:black;font-family:-apple-system,&quot;SF Pro Display&quot;,&quot;SF Pro Text&quot;,Helvetica,sans-serif;" transform="matrix(1 0 0 1 263 1586)">Large</text>
 </g>
 <g id="Guides">
  <g id="H-reference" style="fill:#27AAE1;stroke:none;" transform="matrix(1 0 0 1 339 696)">
   <path d="M 54.9316 0 L 57.666 0 L 30.5664 -70.459 L 28.0762 -70.459 L 0.976562 0 L 3.66211 0 L 12.9395 -24.4629 L 45.7031 -24.4629 Z M 29.1992 -67.0898 L 29.4434 -67.0898 L 44.8242 -26.709 L 13.8184 -26.709 Z"/>
  </g>
  <line id="Baseline-S" style="fill:none;stroke:#27AAE1;opacity:1;stroke-width:0.577;" x1="263" x2="3036" y1="696" y2="696"/>
  <line id="Capline-S" style="fill:none;stroke:#27AAE1;opacity:1;stroke-width:0.577;" x1="263" x2="3036" y1="625.541" y2="625.541"/>
  <g id="H-reference" style="fill:#27AAE1;stroke:none;" transform="matrix(1 0 0 1 339 1126)">
   <path d="M 54.9316 0 L 57.666 0 L 30.5664 -70.459 L 28.0762 -70.459 L 0.976562 0 L 3.66211 0 L 12.9395 -24.4629 L 45.7031 -24.4629 Z M 29.1992 -67.0898 L 29.4434 -67.0898 L 44.8242 -26.709 L 13.8184 -26.709 Z"/>
  </g>
  <line id="Baseline-M" style="fill:none;stroke:#27AAE1;opacity:1;stroke-width:0.577;" x1="263" x2="3036" y1="1126" y2="1126"/>
  <line id="Capline-M" style="fill:none;stroke:#27AAE1;opacity:1;stroke-width:0.577;" x1="263" x2="3036" y1="1055.54" y2="1055.54"/>
  <g id="H-reference" style="fill:#27AAE1;stroke:none;" transform="matrix(1 0 0 1 339 1556)">
   <path d="M 54.9316 0 L 57.666 0 L 30.5664 -70.459 L 28.0762 -70.459 L 0.976562 0 L 3.66211 0 L 12.9395 -24.4629 L 45.7031 -24.4629 Z M 29.1992 -67.0898 L 29.4434 -67.0898 L 44.8242 -26.709 L 13.8184 -26.709 Z"/>
  </g>
  <line id="Baseline-L" style="fill:none;stroke:#27AAE1;opacity:1;stroke-width:0.577;" x1="263" x2="3036" y1="1556" y2="1556"/>
  <line id="Capline-L" style="fill:none;stroke:#27AAE1;opacity:1;stroke-width:0.577;" x1="263" x2="3036" y1="1485.54" y2="1485.54"/>
  <rect height="119.336" id="left-margin" style="fill:#00AEEF;stroke:none;opacity:0.4;" width="8.74023" x="1385.34" y="1030.79"/>
  <rect height="119.336" id="right-margin" style="fill:#00AEEF;stroke:none;opacity:0.4;" width="8.74023" x="1505.61" y="1030.79"/>
 </g>
 <g id="Symbols">
  <g id="Black-L" transform="matrix(1 0 0 1 2845.31 1556)">
   <path d="M 11.2793 -38.5742 C 11.2793 -24.6094 20.2637 -14.0625 33.3496 -10.6445 C 33.0078 -8.98438 32.8613 -7.22656 32.8613 -5.41992 C 32.8613 10.0586 44.5801 21.875 60.8887 21.875 L 133.789 21.875 C 152.002 21.875 164.893 9.13086 164.893 -7.71484 C 164.893 -20.3125 156.934 -31.543 145.068 -35.6445 C 142.773 -48.0957 133.643 -58.0566 121.924 -61.6699 C 118.994 -74.0723 108.838 -82.9102 96.4355 -82.9102 C 93.8477 -82.9102 91.1621 -82.6172 88.916 -81.9336 C 82.2266 -90.0391 74.0234 -93.8965 63.8672 -93.8965 C 47.7051 -93.8965 34.0332 -82.1777 31.1035 -66.5039 C 19.3359 -62.4023 11.2793 -51.2207 11.2793 -38.5742 Z M 28.6621 -38.5742 C 28.6621 -45.2148 34.0332 -50.8789 41.5039 -52.1973 C 45.166 -52.8809 46.6797 -54.1992 46.9238 -57.8125 C 47.6562 -69.0918 54.4434 -76.5137 63.8672 -76.5137 C 70.7031 -76.5137 75.0488 -73.0469 79.6875 -66.8457 C 81.4453 -64.4043 83.9844 -63.4766 87.3535 -64.4043 C 89.5508 -65.0391 92.041 -65.5273 93.7988 -65.5273 C 97.4609 -65.5273 100.439 -64.0137 102.441 -61.5234 C 96.6797 -59.6191 91.4551 -56.0547 87.5977 -50.9766 C 85.7422 -51.3184 83.7891 -51.5137 81.7871 -51.5137 C 69.6289 -51.5137 58.5449 -43.4082 55.127 -32.0312 C 50.6348 -31.1523 46.5332 -29.248 43.1152 -26.5625 C 34.2773 -26.7578 28.6621 -31.7383 28.6621 -38.5742 Z M 60.8887 4.49219 C 54.2969 4.49219 50.2441 0.390625 50.2441 -5.51758 C 50.2441 -11.8164 54.9316 -15.4785 62.5 -16.748 C 66.4551 -17.334 67.8223 -18.3594 68.7012 -22.0703 C 70.6055 -30.0781 75.4395 -34.6191 83.2031 -34.6191 C 85.791 -34.6191 87.6465 -34.1797 90.1367 -33.4473 C 93.75 -32.373 95.3613 -32.7637 97.2168 -35.6445 C 101.123 -41.6016 105.957 -45.7031 112.939 -45.7031 C 121.191 -45.7031 127.686 -39.8438 129.346 -28.8574 C 129.883 -24.9512 131.201 -23.1445 134.814 -22.2656 C 144.287 -19.6777 147.51 -14.3066 147.51 -7.71484 C 147.51 -0.439453 142.383 4.49219 133.789 4.49219 Z"/>
  </g>
  <g id="Heavy-L" transform="matrix(1 0 0 1 2549.82 1556)">
   <path d="M 11.2793 -37.9395 C 11.2793 -24.5117 20.1172 -14.0625 33.1543 -10.8887 C 32.7148 -9.0332 32.5195 -7.08008 32.5195 -5.07812 C 32.5195 9.76562 43.7012 21.1426 59.4727 21.1426 L 132.422 21.1426 C 150.098 21.1426 162.451 8.83789 162.451 -7.37305 C 162.451 -19.7754 154.443 -30.7129 142.676 -34.4727 C 140.674 -46.9727 131.543 -57.0801 119.727 -60.4492 C 117.09 -72.5098 107.129 -81.1523 95.0684 -81.1523 C 92.3828 -81.1523 89.7461 -80.8105 87.4512 -80.127 C 81.0059 -88.0859 72.998 -92.1875 62.793 -92.1875 C 46.9727 -92.1875 33.5449 -80.4688 31.0547 -65.0391 C 19.2871 -61.2793 11.2793 -50.3418 11.2793 -37.9395 Z M 26.4648 -37.9395 C 26.4648 -45.0684 32.1289 -51.0742 39.7461 -52.3438 C 43.3594 -52.9297 44.8242 -54.3457 44.9707 -57.9102 C 45.5078 -69.0918 52.8809 -77.002 62.793 -77.002 C 69.873 -77.002 74.6094 -73.3887 79.1016 -67.1875 C 80.8105 -64.7461 83.2031 -63.9648 86.4746 -64.8926 C 88.5254 -65.4785 90.9668 -65.918 92.9688 -65.918 C 97.2656 -65.918 100.879 -63.916 102.979 -60.5957 C 96.4844 -58.8867 90.7227 -55.0781 86.5234 -49.5605 C 84.5215 -50 82.5195 -50.1953 80.4199 -50.1953 C 68.4082 -50.1953 57.666 -42.0898 54.5898 -30.7617 C 49.7559 -29.8828 45.3613 -27.832 41.7969 -24.9023 C 32.2754 -25.1953 26.4648 -30.7129 26.4648 -37.9395 Z M 59.4727 5.9082 C 52.1973 5.9082 47.7051 1.26953 47.7051 -5.12695 C 47.7051 -11.9629 52.9297 -16.2109 60.5957 -17.1875 C 64.5508 -17.6758 65.9668 -18.7012 66.6992 -22.3633 C 68.3594 -30.5176 73.584 -35.4004 81.4941 -35.4004 C 84.0332 -35.4004 85.791 -35.0098 88.2812 -34.2285 C 91.748 -33.1055 93.4082 -33.5449 95.166 -36.3281 C 98.9258 -42.334 104.248 -46.4844 111.475 -46.4844 C 120.459 -46.4844 127.49 -39.7949 128.809 -28.7598 C 129.199 -24.8047 130.469 -23.1934 134.131 -22.4121 C 143.311 -20.2148 147.266 -14.4043 147.266 -7.37305 C 147.266 0.488281 141.699 5.9082 132.422 5.9082 Z"/>
  </g>
  <g id="Bold-L" transform="matrix(1 0 0 1 2254.48 1556)">
   <path d="M 11.2793 -37.207 C 11.2793 -24.3652 19.9219 -14.0137 33.0078 -11.1816 C 32.4219 -9.13086 32.1289 -6.93359 32.1289 -4.6875 C 32.1289 9.42383 42.7734 20.2637 57.9102 20.2637 L 130.859 20.2637 C 147.9 20.2637 159.717 8.44727 159.717 -6.98242 C 159.717 -19.1406 151.611 -29.7852 140.039 -33.1055 C 138.33 -45.7031 129.199 -55.957 117.285 -59.082 C 114.893 -70.7031 105.273 -79.1504 93.6035 -79.1504 C 90.7227 -79.1504 88.0859 -78.8086 85.791 -78.125 C 79.6387 -85.8887 71.8262 -90.2832 61.5723 -90.2832 C 46.0938 -90.2832 33.0078 -78.6133 30.957 -63.3789 C 19.2871 -59.9609 11.2793 -49.4141 11.2793 -37.207 Z M 24.0234 -37.207 C 24.0234 -44.9219 29.9805 -51.2695 37.7441 -52.4902 C 41.3086 -53.0273 42.7246 -54.4922 42.7734 -58.0566 C 43.1152 -69.1406 51.1719 -77.5391 61.5723 -77.5391 C 68.8965 -77.5391 74.1211 -73.7793 78.418 -67.5293 C 80.0293 -65.1367 82.373 -64.4531 85.498 -65.3809 C 87.4023 -65.918 89.7461 -66.4062 91.9922 -66.4062 C 97.1191 -66.4062 101.318 -63.6719 103.467 -59.4727 C 96.2402 -58.0078 89.8438 -53.9551 85.3516 -47.9492 C 83.2031 -48.4863 81.1523 -48.7793 78.9062 -48.7793 C 67.041 -48.7793 56.6895 -40.625 54.0039 -29.2969 C 48.7305 -28.5156 44.043 -26.2695 40.332 -22.998 C 30.0781 -23.4375 24.0234 -29.5898 24.0234 -37.207 Z M 57.9102 7.51953 C 49.8535 7.51953 44.873 2.34375 44.873 -4.73633 C 44.873 -12.1094 50.6836 -16.9922 58.4961 -17.7246 C 62.4023 -18.0664 63.916 -19.0918 64.502 -22.7051 C 65.8203 -30.957 71.4844 -36.2793 79.6387 -36.2793 C 82.0801 -36.2793 83.7402 -35.8887 86.1816 -35.0586 C 89.5508 -33.9355 91.2598 -34.375 92.8223 -37.0605 C 96.4844 -43.2129 102.344 -47.3145 109.814 -47.3145 C 119.629 -47.3145 127.344 -39.7949 128.174 -28.6133 C 128.418 -24.6582 129.639 -23.2422 133.35 -22.6074 C 142.188 -20.8008 146.973 -14.502 146.973 -6.98242 C 146.973 1.46484 140.918 7.51953 130.859 7.51953 Z"/>
  </g>
  <g id="Semibold-L" transform="matrix(1 0 0 1 1958.72 1556)">
   <path d="M 11.2793 -36.7188 C 11.2793 -24.2676 19.7754 -14.0137 32.9102 -11.377 C 32.2266 -9.17969 31.8848 -6.83594 31.8848 -4.44336 C 31.8848 9.17969 42.0898 19.7266 56.7871 19.7266 L 129.785 19.7266 C 146.436 19.7266 157.812 8.20312 157.812 -6.73828 C 157.812 -18.75 149.707 -29.1016 138.184 -32.1777 C 136.719 -44.873 127.588 -55.1758 115.576 -58.1055 C 113.428 -69.4824 104.004 -77.7832 92.5293 -77.7832 C 89.5508 -77.7832 87.0117 -77.4414 84.6191 -76.7578 C 78.7109 -84.375 71.0449 -88.9648 60.791 -88.9648 C 45.5078 -88.9648 32.6172 -77.3438 30.8594 -62.2559 C 19.2383 -59.082 11.2793 -48.7305 11.2793 -36.7188 Z M 22.3145 -36.7188 C 22.3145 -44.8242 28.5156 -51.416 36.3281 -52.5879 C 39.8438 -53.0762 41.2598 -54.5898 41.2598 -58.1543 C 41.4551 -69.1895 50 -77.9297 60.791 -77.9297 C 68.2617 -77.9297 73.7793 -74.0234 77.9785 -67.7734 C 79.541 -65.4297 81.7871 -64.8438 84.8145 -65.7227 C 86.6211 -66.2598 88.916 -66.748 91.3574 -66.748 C 97.0215 -66.748 101.709 -63.5254 103.711 -58.5938 C 95.9961 -57.373 89.209 -53.1738 84.5215 -46.8262 C 82.2754 -47.4609 80.1758 -47.7539 77.8809 -47.7539 C 66.1133 -47.7539 56.0059 -39.5996 53.5645 -28.2715 C 48.0469 -27.5879 43.1152 -25.2441 39.3555 -21.7285 C 28.5645 -22.2168 22.3145 -28.7598 22.3145 -36.7188 Z M 56.7871 8.64258 C 48.2422 8.64258 42.9199 3.02734 42.9199 -4.44336 C 42.9199 -12.207 49.1211 -17.5293 57.0312 -18.0664 C 60.9375 -18.3105 62.5 -19.3359 62.9395 -22.9004 C 64.1113 -31.25 70.0684 -36.8652 78.3203 -36.8652 C 80.7129 -36.8652 82.3242 -36.5234 84.7656 -35.6445 C 87.9883 -34.4727 89.7461 -34.9609 91.2109 -37.5977 C 94.7754 -43.7988 101.025 -47.9004 108.691 -47.9004 C 119.043 -47.9004 127.197 -39.7949 127.734 -28.5645 C 127.881 -24.5605 129.102 -23.291 132.812 -22.7051 C 141.455 -21.1914 146.729 -14.5508 146.729 -6.73828 C 146.729 2.14844 140.381 8.64258 129.785 8.64258 Z"/>
  </g>
  <g id="Medium-L" transform="matrix(1 0 0 1 1662.74 1556)">
   <path d="M 11.2793 -36.377 C 11.2793 -24.2188 19.6777 -13.9648 32.8613 -11.5234 C 32.0801 -9.22852 31.6895 -6.78711 31.6895 -4.19922 C 31.6895 8.98438 41.6016 19.2871 55.957 19.2871 L 128.955 19.2871 C 145.312 19.2871 156.348 8.05664 156.348 -6.54297 C 156.348 -18.4082 148.242 -28.6133 136.768 -31.4941 C 135.498 -44.1895 126.318 -54.5898 114.258 -57.373 C 112.354 -68.5547 103.027 -76.7578 91.748 -76.7578 C 88.6719 -76.7578 86.1328 -76.416 83.7891 -75.7324 C 77.9785 -83.2031 70.4102 -87.9883 60.1562 -87.9883 C 45.0684 -87.9883 32.3242 -76.3184 30.8105 -61.377 C 19.2383 -58.3984 11.2793 -48.2422 11.2793 -36.377 Z M 21.0449 -36.377 C 21.0449 -44.7754 27.3926 -51.5625 35.3027 -52.6855 C 38.7695 -53.125 40.1367 -54.6875 40.1367 -58.2031 C 40.1855 -69.1895 49.0723 -78.2227 60.1562 -78.2227 C 67.7246 -78.2227 73.5352 -74.2188 77.6367 -67.9688 C 79.1504 -65.625 81.2988 -65.1367 84.2773 -66.0156 C 86.0352 -66.5039 88.2812 -66.9922 90.8691 -66.9922 C 96.9238 -66.9922 102.002 -63.3301 103.906 -57.9102 C 95.8008 -56.8848 88.7207 -52.5879 83.9355 -45.9961 C 81.543 -46.6797 79.4434 -47.0215 77.0996 -47.0215 C 65.4297 -47.0215 55.4688 -38.8672 53.2715 -27.5391 C 47.5586 -26.9043 42.4316 -24.4629 38.623 -20.7031 C 27.3926 -21.2891 21.0449 -28.1738 21.0449 -36.377 Z M 55.957 9.52148 C 47.0215 9.52148 41.4551 3.56445 41.4551 -4.24805 C 41.4551 -12.3047 47.9492 -17.9688 55.957 -18.3105 C 59.8145 -18.5059 61.4258 -19.5801 61.8164 -23.0957 C 62.793 -31.4941 68.9453 -37.3535 77.3438 -37.3535 C 79.7363 -37.3535 81.25 -37.0117 83.6914 -36.084 C 86.8652 -34.9121 88.5742 -35.4004 90.0391 -37.9883 C 93.5059 -44.2871 100 -48.3887 107.861 -48.3887 C 118.604 -48.3887 127.1 -39.7949 127.393 -28.4668 C 127.49 -24.4629 128.662 -23.291 132.373 -22.8027 C 140.869 -21.5332 146.582 -14.5996 146.582 -6.54297 C 146.582 2.68555 139.941 9.52148 128.955 9.52148 Z"/>
  </g>
  <g id="Regular-L" transform="matrix(1 0 0 1 1366.96 1556)">
   <path d="M 11.2793 -35.8887 C 11.2793 -24.1211 19.5312 -13.916 32.8125 -11.7188 C 31.9336 -9.32617 31.4453 -6.73828 31.4453 -3.95508 C 31.4453 8.74023 40.918 18.7012 54.8828 18.7012 L 127.93 18.7012 C 143.799 18.7012 154.492 7.8125 154.492 -6.25 C 154.492 -18.0176 146.338 -27.9785 134.961 -30.5664 C 133.887 -43.3594 124.756 -53.8574 112.598 -56.4453 C 110.938 -67.334 101.758 -75.3906 90.7715 -75.3906 C 87.5488 -75.3906 85.0586 -75.0488 82.6172 -74.3652 C 77.0508 -81.7383 69.6289 -86.6699 59.3262 -86.6699 C 44.4824 -86.6699 31.9824 -75.0488 30.7617 -60.2539 C 19.2383 -57.5195 11.2793 -47.6074 11.2793 -35.8887 Z M 19.3848 -35.8887 C 19.3848 -44.6777 25.9277 -51.709 33.9355 -52.7832 C 37.4023 -53.1738 38.7207 -54.7852 38.6719 -58.3008 C 38.5742 -69.1895 47.9004 -78.5645 59.3262 -78.5645 C 67.0898 -78.5645 73.1934 -74.4629 77.1484 -68.2129 C 78.6133 -65.8691 80.7129 -65.4785 83.6426 -66.3574 C 85.2539 -66.8457 87.4512 -67.334 90.2344 -67.334 C 96.8262 -67.334 102.393 -63.0859 104.102 -56.9336 C 95.5078 -56.2012 88.0371 -51.7578 83.1055 -44.9219 C 80.6641 -45.7031 78.5156 -46.0449 76.0742 -46.0449 C 64.502 -46.0449 54.834 -37.8418 52.832 -26.5137 C 46.875 -26.0254 41.5527 -23.4375 37.6953 -19.4336 C 25.9277 -20.0684 19.3848 -27.3926 19.3848 -35.8887 Z M 54.8828 10.5957 C 45.459 10.5957 39.5508 4.29688 39.5508 -3.95508 C 39.5508 -12.4023 46.3867 -18.5059 54.541 -18.6523 C 58.3496 -18.75 60.0098 -19.8242 60.3027 -23.291 C 61.084 -31.7871 67.5293 -37.9395 76.0742 -37.9395 C 78.3691 -37.9395 79.834 -37.5977 82.2754 -36.6699 C 85.3516 -35.498 87.1094 -35.9863 88.4277 -38.5254 C 91.8457 -44.873 98.7305 -48.9746 106.738 -48.9746 C 118.018 -48.9746 126.953 -39.7461 126.953 -28.418 C 126.953 -24.3652 128.125 -23.3398 131.836 -22.9004 C 140.137 -21.9238 146.387 -14.6484 146.387 -6.25 C 146.387 3.36914 139.404 10.5957 127.93 10.5957 Z"/>
  </g>
  <g id="Light-L" transform="matrix(1 0 0 1 1070.71 1556)">
   <path d="M 11.2793 -36.0352 C 11.2793 -24.4629 19.3848 -14.4531 32.7148 -12.5977 C 31.4941 -9.86328 30.8594 -6.88477 30.8594 -3.71094 C 30.8594 8.78906 40.1855 18.2617 53.6133 18.2617 L 127.637 18.2617 C 143.018 18.2617 153.564 7.86133 153.564 -6.05469 C 153.564 -17.7246 145.264 -27.5879 133.838 -29.834 C 133.057 -42.7246 124.023 -53.5156 111.768 -55.957 C 110.254 -66.9434 101.27 -75 90.4785 -75 C 87.0605 -75 84.7656 -74.6094 82.1777 -73.9258 C 76.5137 -81.6895 68.9941 -86.5723 58.9844 -86.5723 C 44.1895 -86.5723 31.7871 -74.7559 30.957 -59.9609 C 19.2383 -57.4219 11.2793 -47.7051 11.2793 -36.0352 Z M 17.4805 -36.0352 C 17.4805 -45.5078 24.4629 -52.8809 32.959 -54.1504 C 35.9863 -54.541 37.0605 -55.8105 37.0605 -58.9355 C 37.0117 -70.5078 46.875 -80.3223 58.9844 -80.3223 C 67.0898 -80.3223 73.584 -75.9766 77.7832 -69.5801 C 79.1016 -67.4805 80.957 -67.2363 83.5938 -67.9688 C 85.2051 -68.3594 87.207 -68.7988 90.1367 -68.7988 C 97.6074 -68.7988 103.809 -63.8672 105.322 -56.4941 C 95.752 -56.2012 87.7441 -51.5137 82.666 -44.043 C 79.9316 -44.9707 77.7344 -45.3613 75.0977 -45.3613 C 63.5254 -45.3613 54.1016 -37.1094 52.2949 -25.6836 C 46.1426 -25.293 40.625 -22.6562 36.7188 -18.5059 C 24.3164 -19.043 17.4805 -26.9531 17.4805 -36.0352 Z M 53.6133 12.0605 C 43.6035 12.0605 37.0605 5.37109 37.0605 -3.71094 C 37.0605 -12.6465 44.2871 -19.3848 53.125 -19.6289 C 56.4453 -19.6777 57.8613 -20.5078 58.1055 -23.4863 C 59.0332 -32.6172 65.9668 -39.1113 75.0977 -39.1113 C 77.4414 -39.1113 79.0527 -38.8184 81.4941 -37.8906 C 84.2285 -36.8652 85.6445 -37.2559 86.9141 -39.502 C 90.6738 -46.0938 97.7051 -50.293 106.348 -50.293 C 118.457 -50.293 127.686 -40.5273 127.686 -28.4668 C 127.686 -24.9512 128.467 -24.2676 131.738 -23.877 C 140.576 -22.8027 147.363 -15.0879 147.363 -6.05469 C 147.363 4.44336 139.697 12.0605 127.637 12.0605 Z"/>
  </g>
  <g id="Thin-L" transform="matrix(1 0 0 1 774.611 1556)">
   <path d="M 11.2793 -36.2793 C 11.2793 -24.9023 19.2871 -15.0391 32.8125 -13.6719 C 31.0547 -10.6934 30.0781 -7.17773 30.0781 -3.36914 C 30.0781 8.78906 39.1113 17.7246 51.9531 17.7246 L 127.246 17.7246 C 141.943 17.7246 152.344 7.95898 152.344 -5.76172 C 152.344 -17.334 143.848 -27.0508 132.324 -28.8574 C 131.982 -41.9434 123.096 -53.0762 110.645 -55.3711 C 109.375 -66.5039 100.635 -74.4141 90.0879 -74.4141 C 86.4746 -74.4141 84.375 -74.0723 81.543 -73.3887 C 75.8789 -81.6895 68.1152 -86.377 58.5449 -86.377 C 43.7988 -86.377 31.543 -74.3652 31.25 -59.5703 C 19.2871 -57.3242 11.2793 -47.8516 11.2793 -36.2793 Z M 14.9902 -36.2793 C 14.9902 -46.6309 22.5098 -54.3945 31.6406 -55.957 C 34.1309 -56.3477 34.9121 -57.1777 34.9121 -59.8145 C 34.9121 -72.2168 45.5078 -82.666 58.5449 -82.666 C 67.0898 -82.666 74.1211 -78.0273 78.5645 -71.3867 C 79.7852 -69.5312 81.25 -69.5801 83.5938 -70.0684 C 85.1074 -70.4102 86.8652 -70.7031 89.9902 -70.7031 C 98.6816 -70.7031 105.615 -64.8926 106.836 -55.7617 C 106.494 -55.8105 106.152 -55.8105 105.811 -55.8105 C 95.4102 -55.8105 87.1582 -50.8789 82.0312 -42.8711 C 78.9062 -43.9941 76.709 -44.4336 73.7793 -44.4336 C 62.207 -44.4336 53.1738 -36.084 51.6113 -24.5605 C 45.166 -24.3652 39.3555 -21.6309 35.4004 -17.2852 C 22.2656 -17.7246 14.9902 -26.416 14.9902 -36.2793 Z M 51.9531 14.0137 C 41.2109 14.0137 33.7891 6.73828 33.7891 -3.36914 C 33.7891 -12.9883 41.4551 -20.5566 51.2695 -20.8496 C 53.9062 -20.9473 54.9805 -21.3867 55.2246 -23.7793 C 56.2988 -33.6914 63.916 -40.7227 73.7793 -40.7227 C 76.1719 -40.7227 77.9785 -40.3809 80.4688 -39.502 C 82.7637 -38.6719 83.7402 -38.916 84.9121 -40.8691 C 89.0625 -47.7539 96.3867 -52.0996 105.811 -52.0996 C 118.994 -52.0996 128.613 -41.5039 128.613 -28.5645 C 128.613 -25.6836 128.906 -25.5371 131.543 -25.1953 C 141.211 -23.9258 148.633 -15.6738 148.633 -5.76172 C 148.633 5.85938 140.039 14.0137 127.246 14.0137 Z"/>
  </g>
  <g id="Ultralight-L" transform="matrix(1 0 0 1 478.217 1556)">
   <path d="M 11.2793 -36.377 C 11.2793 -25.0977 19.2871 -15.2832 32.959 -14.2578 C 30.8594 -11.084 29.6387 -7.32422 29.6387 -3.17383 C 29.6387 8.78906 38.623 17.4316 51.0742 17.4316 L 127.051 17.4316 C 141.357 17.4316 151.709 8.00781 151.709 -5.61523 C 151.709 -17.1875 143.115 -26.7578 131.543 -28.3691 C 131.445 -41.5527 122.656 -52.8809 110.059 -55.0781 C 108.936 -66.2598 100.293 -74.1211 89.9414 -74.1211 C 86.1816 -74.1211 84.2285 -73.8281 81.25 -73.0957 C 75.5371 -81.6895 67.6758 -86.2793 58.3008 -86.2793 C 43.6035 -86.2793 31.3965 -74.1699 31.3477 -59.375 C 19.3359 -57.2754 11.2793 -47.9492 11.2793 -36.377 Z M 13.7207 -36.377 C 13.7207 -47.2168 21.4844 -55.1758 31.0059 -56.8848 C 33.1543 -57.2754 33.8379 -57.8613 33.8379 -60.2539 C 33.8379 -73.0957 44.7754 -83.8379 58.3008 -83.8379 C 67.0898 -83.8379 74.3652 -79.0527 78.9551 -72.3145 C 80.127 -70.6055 81.3965 -70.752 83.5938 -71.1914 C 85.1074 -71.4844 86.7188 -71.6797 89.8926 -71.6797 C 99.2188 -71.6797 106.543 -65.4297 107.617 -55.3711 C 106.934 -55.4199 106.25 -55.4199 105.566 -55.4199 C 94.9219 -55.4199 86.7676 -50.3906 81.7383 -42.2852 C 78.418 -43.457 76.1719 -43.9941 73.1445 -43.9941 C 61.5234 -43.9941 52.6855 -35.5957 51.2207 -23.9746 C 44.6777 -23.877 38.7207 -21.0938 34.7656 -16.6504 C 21.1914 -17.041 13.7207 -26.123 13.7207 -36.377 Z M 51.0742 14.9902 C 39.9414 14.9902 32.0801 7.4707 32.0801 -3.17383 C 32.0801 -13.1348 40.0391 -21.1426 50.293 -21.4844 C 52.6367 -21.582 53.5156 -21.8262 53.7598 -23.9258 C 54.9316 -34.2285 62.8906 -41.5527 73.1445 -41.5527 C 75.5371 -41.5527 77.4414 -41.2109 79.9316 -40.332 C 82.0312 -39.5996 82.7637 -39.7949 83.8867 -41.5527 C 88.2324 -48.6328 95.7031 -52.9785 105.566 -52.9785 C 119.238 -52.9785 129.102 -42.041 129.102 -28.6133 C 129.102 -26.0254 129.102 -26.1719 131.445 -25.8789 C 141.553 -24.5605 149.268 -15.9668 149.268 -5.61523 C 149.268 6.5918 140.186 14.9902 127.051 14.9902 Z"/>
  </g>
  <g id="Black-M" transform="matrix(1 0 0 1 2863.72 1126)">
   <path d="M 8.74023 -38.7695 C 8.74023 -27.3926 15.8203 -19.1406 25.9277 -16.3086 C 25.6836 -15.0391 25.5859 -13.7695 25.5859 -12.5 C 25.5859 0.292969 35.3027 9.81445 48.4375 9.81445 L 105.42 9.81445 C 119.971 9.81445 130.615 -0.390625 130.615 -14.209 C 130.615 -24.2676 124.414 -33.3008 115.039 -36.8164 C 113.037 -46.3867 106.055 -54.1016 97.0215 -57.0801 C 94.5312 -67.2363 86.377 -74.3164 76.3672 -74.3164 C 74.5117 -74.3164 72.4609 -74.1211 70.6543 -73.584 C 65.1367 -80.3711 58.4473 -82.959 50.7324 -82.959 C 37.8418 -82.959 26.9043 -73.6816 24.3164 -61.2793 C 15.0391 -57.8125 8.74023 -48.8281 8.74023 -38.7695 Z M 34.6191 -30.2734 C 28.3691 -30.2734 24.1699 -33.6914 24.1699 -38.7695 C 24.1699 -43.6035 28.125 -47.7051 34.082 -48.9746 C 36.7188 -49.5117 37.8418 -50.293 38.1348 -52.9297 C 39.0137 -62.1094 43.7012 -67.5293 50.7324 -67.5293 C 55.957 -67.5293 58.9844 -64.8926 62.8906 -60.0098 C 64.3066 -58.2031 66.2598 -57.4219 68.8477 -58.1055 C 70.752 -58.5938 72.6562 -58.8867 73.7793 -58.8867 C 76.123 -58.8867 78.0273 -58.1055 79.4922 -56.7383 C 75.4395 -55.1758 71.8262 -52.5391 69.043 -48.9258 C 67.6758 -49.0723 66.1621 -49.2188 64.6973 -49.2188 C 55.0781 -49.2188 46.1914 -42.9199 43.1641 -34.082 C 40.0391 -33.3496 37.207 -32.0312 34.7656 -30.2734 Z M 48.4375 -5.61523 C 43.8965 -5.61523 41.0156 -8.34961 41.0156 -12.5488 C 41.0156 -17.041 44.1406 -19.4336 50.1953 -20.8008 C 53.0762 -21.4355 53.9062 -22.0215 54.7363 -24.7559 C 56.6406 -31.1523 60.1562 -34.375 66.2109 -34.375 C 68.3594 -34.375 69.9707 -33.9844 71.9238 -33.4961 C 74.707 -32.7637 75.7812 -33.0078 77.3438 -35.1562 C 80.6641 -39.7949 83.8379 -43.0176 89.3066 -43.0176 C 95.166 -43.0176 99.5117 -39.209 101.367 -30.4688 C 101.953 -27.7832 102.832 -26.3184 105.371 -25.4883 C 113.379 -22.9004 115.186 -19.1406 115.186 -14.209 C 115.186 -8.88672 111.426 -5.61523 105.42 -5.61523 Z"/>
  </g>
  <g id="Heavy-M" transform="matrix(1 0 0 1 2568.23 1126)">
   <path d="M 8.74023 -38.0371 C 8.74023 -27.1484 15.7227 -18.9941 25.7812 -16.3574 C 25.5371 -14.9902 25.3906 -13.5742 25.3906 -12.1582 C 25.3906 -0.0488281 34.5703 9.08203 47.2168 9.08203 L 103.955 9.08203 C 118.066 9.08203 128.174 -0.732422 128.174 -13.916 C 128.174 -23.7305 121.924 -32.4707 112.744 -35.6934 C 110.938 -45.3125 103.906 -53.0762 94.8242 -55.9082 C 92.5293 -65.625 84.6191 -72.5098 75 -72.5098 C 72.998 -72.5098 70.9473 -72.3145 69.1406 -71.7285 C 63.916 -78.2227 57.4707 -81.1035 49.6582 -81.1035 C 37.1094 -81.1035 26.416 -71.9238 24.1699 -59.7656 C 14.9902 -56.5918 8.74023 -47.8516 8.74023 -38.0371 Z M 22.2656 -38.0371 C 22.2656 -43.2129 26.4648 -47.6074 32.373 -48.7305 C 35.1074 -49.2676 36.2305 -50.1953 36.4258 -52.8809 C 37.0605 -61.8164 42.2852 -67.5781 49.6582 -67.5781 C 55.0293 -67.5781 58.3984 -64.8926 62.0605 -60.0098 C 63.4277 -58.2031 65.332 -57.4707 67.9199 -58.1543 C 69.6289 -58.6426 71.5332 -58.9844 72.9004 -58.9844 C 75.7812 -58.9844 78.125 -57.8125 79.6875 -55.8594 C 75.0977 -54.3945 71.0449 -51.5625 68.0176 -47.5586 C 66.5527 -47.8516 65.0391 -47.998 63.4766 -47.998 C 54.0039 -47.998 45.4102 -41.6992 42.7246 -32.8613 C 39.2578 -32.1777 36.1328 -30.7129 33.4961 -28.7109 C 26.7578 -28.7109 22.2656 -32.6172 22.2656 -38.0371 Z M 47.2168 -4.44336 C 42.0898 -4.44336 38.916 -7.56836 38.916 -12.207 C 38.916 -17.1387 42.4805 -20.0195 48.5352 -21.0449 C 51.4648 -21.5332 52.4414 -22.2656 53.125 -25.0488 C 54.7363 -31.3477 58.5449 -34.9121 64.6484 -34.9121 C 66.6992 -34.9121 68.1641 -34.5703 70.1172 -33.9844 C 72.8516 -33.2031 74.0234 -33.4961 75.4395 -35.6445 C 78.5645 -40.2832 82.2754 -43.5059 87.793 -43.5059 C 94.2383 -43.5059 99.1699 -39.0137 100.586 -30.3223 C 101.025 -27.4414 101.953 -26.123 104.639 -25.3906 C 112.207 -23.2422 114.648 -19.0918 114.648 -13.916 C 114.648 -8.20312 110.596 -4.44336 103.955 -4.44336 Z"/>
  </g>
  <g id="Bold-M" transform="matrix(1 0 0 1 2272.89 1126)">
   <path d="M 8.74023 -37.207 C 8.74023 -26.9043 15.5273 -18.7988 25.6836 -16.4062 C 25.3418 -14.9414 25.1465 -13.3789 25.1465 -11.8164 C 25.1465 -0.439453 33.7402 8.30078 45.8496 8.30078 L 102.344 8.30078 C 115.967 8.30078 125.439 -1.17188 125.439 -13.5742 C 125.439 -23.1445 119.189 -31.543 110.156 -34.4238 C 108.594 -44.1406 101.562 -51.9531 92.3828 -54.541 C 90.3809 -63.8184 82.7148 -70.459 73.4375 -70.459 C 71.2891 -70.459 69.2383 -70.2148 67.4805 -69.6777 C 62.5488 -75.8301 56.3965 -79.0527 48.4375 -79.0527 C 36.2305 -79.0527 25.8789 -69.9707 24.0234 -58.0566 C 14.9414 -55.1758 8.74023 -46.7773 8.74023 -37.207 Z M 20.1172 -37.207 C 20.1172 -42.8223 24.5605 -47.5098 30.4688 -48.4863 C 33.252 -48.9258 34.375 -50.0488 34.4727 -52.832 C 34.9121 -61.4746 40.7227 -67.6758 48.4375 -67.6758 C 53.9551 -67.6758 57.7637 -64.8438 61.1816 -60.0098 C 62.5 -58.1543 64.3555 -57.5195 66.8457 -58.252 C 68.4082 -58.6914 70.2637 -59.082 71.875 -59.082 C 75.3418 -59.082 78.2227 -57.4219 79.834 -54.7363 C 74.707 -53.418 70.166 -50.4395 66.8457 -46.0449 C 65.2832 -46.4355 63.7207 -46.582 62.1094 -46.582 C 52.7832 -46.582 44.5312 -40.2832 42.2363 -31.4941 C 38.3789 -30.8594 34.9121 -29.248 32.1777 -26.9043 C 24.6582 -27.1484 20.1172 -31.543 20.1172 -37.207 Z M 45.8496 -3.07617 C 40.0879 -3.07617 36.5234 -6.78711 36.5234 -11.8164 C 36.5234 -17.2363 40.6738 -20.6055 46.6309 -21.3379 C 49.6582 -21.6797 50.8301 -22.4609 51.3672 -25.3418 C 52.5879 -31.6406 56.6895 -35.498 62.8418 -35.498 C 64.7949 -35.498 66.1621 -35.2051 68.0664 -34.5703 C 70.752 -33.6914 72.0703 -34.0332 73.3887 -36.1816 C 76.2695 -40.8691 80.4688 -44.043 86.1328 -44.043 C 93.2129 -44.043 98.7793 -38.7695 99.707 -30.1758 C 100 -27.1484 100.977 -25.8789 103.809 -25.293 C 110.84 -23.6816 114.062 -19.0918 114.062 -13.5742 C 114.062 -7.42188 109.668 -3.07617 102.344 -3.07617 Z"/>
  </g>
  <g id="Semibold-M" transform="matrix(1 0 0 1 1977.13 1126)">
   <path d="M 8.74023 -36.6211 C 8.74023 -26.709 15.4297 -18.6523 25.5859 -16.4551 C 25.1953 -14.8926 25 -13.2812 25 -11.5723 C 25 -0.683594 33.1543 7.76367 44.9219 7.76367 L 101.221 7.76367 C 114.502 7.76367 123.535 -1.41602 123.535 -13.3301 C 123.535 -22.7539 117.334 -30.957 108.35 -33.5449 C 107.031 -43.3105 99.9023 -51.1719 90.6738 -53.6133 C 88.8672 -62.5488 81.3965 -69.043 72.3633 -69.043 C 70.166 -69.043 68.1152 -68.7988 66.3086 -68.2617 C 61.6211 -74.1699 55.6152 -77.6367 47.6074 -77.6367 C 35.6445 -77.6367 25.5371 -68.6523 23.9258 -56.8359 C 14.9414 -54.1992 8.74023 -46.0449 8.74023 -36.6211 Z M 18.6523 -36.6211 C 18.6523 -42.5293 23.2422 -47.4609 29.1504 -48.3398 C 31.9824 -48.7305 33.1055 -49.9512 33.1543 -52.7832 C 33.3984 -61.2305 39.5996 -67.7246 47.6074 -67.7246 C 53.2715 -67.7246 57.2754 -64.8438 60.5469 -60.0098 C 61.8164 -58.1543 63.623 -57.5684 66.1133 -58.3496 C 67.5781 -58.7402 69.4336 -59.1309 71.1914 -59.1309 C 75.0488 -59.1309 78.3203 -57.0801 79.9316 -53.8574 C 74.4141 -52.7344 69.5312 -49.6094 66.0645 -45.0195 C 64.4531 -45.459 62.8418 -45.6543 61.1328 -45.6543 C 51.9531 -45.6543 43.9453 -39.3555 41.8457 -30.5664 C 37.793 -29.9805 34.1309 -28.2227 31.25 -25.6836 C 23.291 -26.0254 18.6523 -30.7617 18.6523 -36.6211 Z M 44.9219 -2.14844 C 38.6719 -2.14844 34.9121 -6.20117 34.9121 -11.5723 C 34.9121 -17.2852 39.4043 -21.0449 45.3125 -21.5332 C 48.4375 -21.7773 49.707 -22.6562 50.0977 -25.5371 C 51.0742 -31.7871 55.4199 -35.8887 61.6211 -35.8887 C 63.5254 -35.8887 64.7461 -35.6445 66.6504 -34.9609 C 69.2871 -34.0332 70.7031 -34.4238 71.9238 -36.5234 C 74.6582 -41.2598 79.248 -44.4336 84.9609 -44.4336 C 92.4805 -44.4336 98.4863 -38.623 99.0723 -30.0781 C 99.2676 -26.9043 100.293 -25.7324 103.223 -25.2441 C 109.912 -23.9258 113.623 -19.0918 113.623 -13.3301 C 113.623 -6.88477 109.033 -2.14844 101.221 -2.14844 Z"/>
  </g>
  <g id="Medium-M" transform="matrix(1 0 0 1 1681.13 1126)">
   <path d="M 8.74023 -36.1816 C 8.74023 -26.5625 15.332 -18.5547 25.5859 -16.5039 C 25.0977 -14.8926 24.8535 -13.1836 24.8535 -11.377 C 24.8535 -0.878906 32.7148 7.32422 44.1895 7.32422 L 100.391 7.32422 C 113.379 7.32422 122.119 -1.66016 122.119 -13.1348 C 122.119 -22.4121 115.918 -30.4688 107.031 -32.9102 C 105.811 -42.6758 98.6816 -50.5859 89.4043 -52.8809 C 87.7441 -61.5723 80.4199 -68.0176 71.5332 -68.0176 C 69.2383 -68.0176 67.2363 -67.7246 65.4297 -67.1875 C 60.8887 -72.9004 55.0781 -76.5625 47.0215 -76.5625 C 35.2051 -76.5625 25.2441 -67.627 23.8281 -55.957 C 14.8926 -53.4668 8.74023 -45.5078 8.74023 -36.1816 Z M 17.5293 -36.1816 C 17.5293 -42.334 22.2168 -47.4121 28.125 -48.1934 C 31.0059 -48.584 32.1777 -49.9023 32.1777 -52.7832 C 32.2754 -61.0352 38.7695 -67.7734 47.0215 -67.7734 C 52.6855 -67.7734 56.9824 -64.7949 60.0586 -60.0098 C 61.3281 -58.1055 63.1348 -57.6172 65.5273 -58.3984 C 66.9434 -58.7891 68.75 -59.1797 70.6543 -59.1797 C 74.8535 -59.1797 78.418 -56.7871 79.9316 -53.1738 C 74.1699 -52.1973 68.9941 -49.0234 65.4785 -44.2383 C 63.7695 -44.7266 62.1582 -44.9219 60.4492 -44.9219 C 51.3672 -44.9219 43.457 -38.623 41.6016 -29.8828 C 37.3047 -29.3457 33.4961 -27.4902 30.6152 -24.7559 C 22.2656 -25.1465 17.5293 -30.1758 17.5293 -36.1816 Z M 44.1895 -1.46484 C 37.6465 -1.46484 33.6426 -5.76172 33.6426 -11.377 C 33.6426 -17.334 38.4277 -21.3379 44.3359 -21.6797 C 47.5098 -21.8262 48.8281 -22.7539 49.1699 -25.6836 C 49.9512 -31.9336 54.4922 -36.2305 60.6934 -36.2305 C 62.5488 -36.2305 63.7207 -35.9375 65.5762 -35.2539 C 68.2129 -34.2773 69.6777 -34.7168 70.8008 -36.8164 C 73.4375 -41.6016 78.2715 -44.7266 84.082 -44.7266 C 91.9434 -44.7266 98.291 -38.4766 98.6328 -29.9805 C 98.7305 -26.709 99.7559 -25.6348 102.832 -25.1953 C 109.229 -24.1699 113.33 -19.0918 113.33 -13.1348 C 113.33 -6.44531 108.545 -1.46484 100.391 -1.46484 Z"/>
  </g>
  <g id="Regular-M" transform="matrix(1 0 0 1 1385.34 1126)">
   <path d="M 8.74023 -35.6445 C 8.74023 -26.416 15.2344 -18.4082 25.5371 -16.5527 C 25 -14.8438 24.707 -13.0371 24.707 -11.1328 C 24.707 -1.17188 32.1777 6.78711 43.2617 6.78711 L 99.2676 6.78711 C 111.914 6.78711 120.264 -1.9043 120.264 -12.8906 C 120.264 -22.0215 114.014 -29.834 105.273 -32.0312 C 104.248 -41.8457 97.0703 -49.8535 87.7441 -51.9043 C 86.3281 -60.3027 79.1504 -66.6016 70.5078 -66.6016 C 68.1152 -66.6016 66.0645 -66.3086 64.3066 -65.8203 C 59.9609 -71.2891 54.3457 -75.1953 46.1914 -75.1953 C 34.6191 -75.1953 24.8535 -66.2598 23.7305 -54.7852 C 14.8926 -52.5391 8.74023 -44.7754 8.74023 -35.6445 Z M 16.0645 -35.6445 C 16.0645 -42.041 20.9473 -47.3145 26.8555 -48.0469 C 29.7852 -48.3398 30.9082 -49.8047 30.8594 -52.7344 C 30.7617 -60.8398 37.6953 -67.8223 46.1914 -67.8223 C 52.002 -67.8223 56.4941 -64.7949 59.4727 -60.0098 C 60.6445 -58.1055 62.4512 -57.666 64.7949 -58.4473 C 66.1133 -58.8379 67.9199 -59.2773 69.9707 -59.2773 C 74.6094 -59.2773 78.5645 -56.3477 79.9316 -52.2461 C 73.8281 -51.4648 68.3594 -48.1934 64.6973 -43.2129 C 62.9395 -43.75 61.2793 -43.9941 59.5215 -43.9941 C 50.5371 -43.9941 42.8711 -37.6953 41.2598 -28.9551 C 36.7188 -28.5156 32.7148 -26.5137 29.7363 -23.5352 C 20.9961 -24.0234 16.0645 -29.3945 16.0645 -35.6445 Z M 43.2617 -0.537109 C 36.2793 -0.537109 32.0312 -5.17578 32.0312 -11.1328 C 32.0312 -17.3828 37.1582 -21.7773 43.0664 -21.875 C 46.2891 -21.9238 47.7539 -22.9004 47.9492 -25.8789 C 48.4863 -32.1289 53.2227 -36.6211 59.5215 -36.6211 C 61.2793 -36.6211 62.3047 -36.377 64.209 -35.6445 C 66.748 -34.6191 68.3105 -35.0586 69.3848 -37.207 C 71.875 -41.9922 77.0508 -45.1172 82.9102 -45.1172 C 91.2598 -45.1172 97.998 -38.3301 97.998 -29.8828 C 97.998 -26.5137 99.1211 -25.4883 102.246 -25.1465 C 108.301 -24.4141 112.891 -19.043 112.891 -12.8906 C 112.891 -5.9082 107.91 -0.537109 99.2676 -0.537109 Z"/>
  </g>
  <g id="Light-M" transform="matrix(1 0 0 1 1089.05 1126)">
   <path d="M 8.74023 -35.791 C 8.74023 -26.7578 15.0879 -18.8965 25.3906 -17.2852 C 24.6094 -15.332 24.1699 -13.1836 24.1699 -10.8887 C 24.1699 -1.12305 31.4941 6.44531 42.1387 6.44531 L 99.0234 6.44531 C 111.182 6.44531 119.434 -1.85547 119.434 -12.6953 C 119.434 -21.7773 113.086 -29.4922 104.248 -31.3965 C 103.516 -41.3086 96.4355 -49.5605 86.9629 -51.5137 C 85.7422 -59.9609 78.7109 -66.2109 70.2148 -66.2109 C 67.6758 -66.2109 65.8203 -65.9668 63.916 -65.4297 C 59.5215 -71.2402 53.7598 -75.0488 45.8984 -75.0488 C 34.375 -75.0488 24.707 -66.0156 23.9258 -54.541 C 14.8926 -52.4902 8.74023 -44.873 8.74023 -35.791 Z M 14.4043 -35.791 C 14.4043 -42.8223 19.6289 -48.3887 25.9766 -49.2676 C 28.5156 -49.5605 29.4434 -50.7324 29.4434 -53.3203 C 29.3457 -61.9629 36.7676 -69.3848 45.8984 -69.3848 C 52.002 -69.3848 56.8848 -66.1621 60.0098 -61.2305 C 61.084 -59.5215 62.6465 -59.2285 64.7949 -59.8633 C 66.0645 -60.2051 67.6758 -60.5957 69.873 -60.5957 C 75.293 -60.5957 79.834 -57.0801 81.0547 -51.9043 C 74.1211 -51.4648 68.1641 -47.9492 64.2578 -42.4316 C 62.2559 -43.1152 60.5957 -43.3594 58.6426 -43.3594 C 49.6582 -43.3594 42.2363 -37.0117 40.7715 -28.2227 C 36.084 -27.832 31.8848 -25.8301 28.8574 -22.7051 C 19.5801 -23.1445 14.4043 -29.0039 14.4043 -35.791 Z M 42.1387 0.78125 C 34.6191 0.78125 29.834 -4.24805 29.834 -10.8887 C 29.834 -17.627 35.2539 -22.5586 41.7969 -22.7051 C 44.5801 -22.7539 45.8008 -23.4863 45.9961 -26.0742 C 46.6797 -32.8613 51.8555 -37.6953 58.6426 -37.6953 C 60.4492 -37.6953 61.6211 -37.4512 63.5254 -36.7676 C 65.7715 -35.8887 67.041 -36.2305 68.0176 -38.0859 C 70.8008 -43.1152 76.1719 -46.2891 82.5684 -46.2891 C 91.6016 -46.2891 98.6328 -38.9648 98.6328 -29.9805 C 98.6328 -27.002 99.4141 -26.3184 102.148 -26.0254 C 108.74 -25.1953 113.77 -19.4336 113.77 -12.6953 C 113.77 -4.98047 108.154 0.78125 99.0234 0.78125 Z"/>
  </g>
  <g id="Thin-M" transform="matrix(1 0 0 1 792.897 1126)">
   <path d="M 8.74023 -35.9863 C 8.74023 -27.1484 14.9902 -19.4336 25.3906 -18.3105 C 24.1699 -16.0156 23.4863 -13.4277 23.4863 -10.5957 C 23.4863 -1.12305 30.5664 5.9082 40.625 5.9082 L 98.6816 5.9082 C 110.205 5.9082 118.311 -1.75781 118.311 -12.4512 C 118.311 -21.4355 111.816 -29.0039 102.881 -30.5176 C 102.539 -40.625 95.6055 -49.1699 85.9863 -50.9766 C 84.9609 -59.5703 78.125 -65.7227 69.9219 -65.7227 C 67.1387 -65.7227 65.4785 -65.4785 63.3301 -64.8926 C 58.9355 -71.2402 52.9785 -74.9023 45.459 -74.9023 C 34.0332 -74.9023 24.4629 -65.6738 24.1699 -54.1992 C 14.9414 -52.3926 8.74023 -44.9707 8.74023 -35.9863 Z M 12.1582 -35.9863 C 12.1582 -43.8477 17.8711 -49.7559 24.8047 -50.8789 C 26.8555 -51.2207 27.5391 -51.9531 27.5391 -54.1016 C 27.4902 -63.5254 35.5469 -71.4844 45.459 -71.4844 C 52.002 -71.4844 57.3242 -67.9688 60.6934 -62.8418 C 61.6699 -61.377 62.8906 -61.3281 64.7949 -61.7676 C 65.9668 -62.0605 67.3828 -62.3047 69.7754 -62.3047 C 76.2207 -62.3047 81.4453 -58.0078 82.4707 -51.3184 C 82.373 -51.3184 82.2266 -51.3184 82.1289 -51.3184 C 74.1211 -51.3184 67.7246 -47.5586 63.7207 -41.4062 C 61.377 -42.2363 59.668 -42.5781 57.4707 -42.5781 C 48.4863 -42.5781 41.4062 -36.1328 40.1367 -27.1973 C 35.2051 -27.002 30.7617 -24.9023 27.7344 -21.582 C 17.6758 -21.9238 12.1582 -28.5156 12.1582 -35.9863 Z M 40.625 2.49023 C 32.4707 2.49023 26.9043 -3.02734 26.9043 -10.5957 C 26.9043 -17.9199 32.7148 -23.6328 40.1367 -23.8281 C 42.334 -23.877 43.2129 -24.3164 43.4082 -26.3184 C 44.2383 -33.7891 50 -39.1602 57.4707 -39.1602 C 59.3262 -39.1602 60.6445 -38.8672 62.5977 -38.1836 C 64.4531 -37.5 65.332 -37.7441 66.2598 -39.3066 C 69.3848 -44.5801 75 -47.9004 82.1289 -47.9004 C 92.0898 -47.9004 99.4629 -39.8926 99.4629 -30.0293 C 99.4629 -27.6367 99.8047 -27.4414 102.002 -27.1973 C 109.326 -26.2207 114.893 -19.9219 114.893 -12.4512 C 114.893 -3.71094 108.447 2.49023 98.6816 2.49023 Z"/>
  </g>
  <g id="Ultralight-M" transform="matrix(1 0 0 1 496.454 1126)">
   <path d="M 8.74023 -36.084 C 8.74023 -27.2949 14.9414 -19.7266 25.4883 -18.7988 C 23.9746 -16.4062 23.0957 -13.5742 23.0957 -10.4492 C 23.0957 -1.12305 30.0781 5.66406 39.8438 5.66406 L 98.5352 5.66406 C 109.717 5.66406 117.773 -1.70898 117.773 -12.3047 C 117.773 -21.2891 111.133 -28.7598 102.148 -30.0293 C 102.002 -40.2344 95.2148 -48.9746 85.4492 -50.6836 C 84.5215 -59.3262 77.832 -65.4785 69.7266 -65.4785 C 66.8457 -65.4785 65.332 -65.2344 63.0859 -64.6484 C 58.6426 -71.2402 52.5879 -74.8535 45.2637 -74.8535 C 33.8379 -74.8535 24.3652 -65.4785 24.2676 -54.0039 C 14.9902 -52.3438 8.74023 -45.0684 8.74023 -36.084 Z M 11.0352 -36.084 C 11.0352 -44.3359 16.9434 -50.4395 24.2188 -51.709 C 25.9766 -52.0508 26.5625 -52.5879 26.5625 -54.4922 C 26.5625 -64.3066 34.9121 -72.5586 45.2637 -72.5586 C 52.002 -72.5586 57.5684 -68.8477 61.0352 -63.6719 C 62.0117 -62.3047 63.0371 -62.4023 64.7461 -62.7441 C 65.9668 -62.9883 67.2363 -63.1836 69.6777 -63.1836 C 76.709 -63.1836 82.2754 -58.4473 83.1543 -50.9766 C 82.7637 -50.9766 82.3242 -51.0254 81.8848 -51.0254 C 73.7305 -51.0254 67.334 -47.1191 63.4277 -40.8691 C 60.9375 -41.748 59.1797 -42.1387 56.8848 -42.1387 C 47.9004 -42.1387 40.9668 -35.6445 39.7949 -26.6602 C 34.7656 -26.5625 30.2246 -24.4629 27.1484 -20.9961 C 16.748 -21.3379 11.0352 -28.2715 11.0352 -36.084 Z M 39.8438 3.36914 C 31.3477 3.36914 25.3906 -2.34375 25.3906 -10.4492 C 25.3906 -18.0664 31.4453 -24.1699 39.2578 -24.4141 C 41.1621 -24.4629 41.8945 -24.707 42.0898 -26.416 C 42.9688 -34.3262 49.0723 -39.8926 56.8848 -39.8926 C 58.7402 -39.8926 60.2051 -39.5996 62.1094 -38.916 C 63.7695 -38.3301 64.4531 -38.5254 65.332 -39.9414 C 68.6523 -45.3613 74.3652 -48.7305 81.8848 -48.7305 C 92.334 -48.7305 99.9023 -40.332 99.9023 -30.0781 C 99.9023 -27.9785 100 -28.0273 101.904 -27.7832 C 109.619 -26.7578 115.479 -20.2148 115.479 -12.3047 C 115.479 -3.02734 108.594 3.36914 98.5352 3.36914 Z"/>
  </g>
  <g id="Black-S" transform="matrix(1 0 0 1 2878.91 696)">
   <path d="M 37.8418 0 L 82.4707 0 C 93.8477 0 102.148 -7.95898 102.148 -18.75 C 102.148 -26.6113 97.2656 -33.6426 89.9414 -36.377 C 88.3789 -43.8965 82.9102 -49.9512 75.8789 -52.2949 C 73.877 -60.2051 67.5293 -65.7227 59.7168 -65.7227 C 58.252 -65.7227 56.6406 -65.5762 55.2246 -65.1367 C 50.9277 -70.4102 45.7031 -72.4609 39.6484 -72.4609 C 29.5898 -72.4609 21.0449 -65.2344 19.043 -55.5176 C 11.7676 -52.832 6.83594 -45.8008 6.83594 -37.9395 C 6.83594 -29.1016 12.4023 -22.6074 20.2637 -20.4102 C 20.1172 -19.4336 20.0195 -18.4082 20.0195 -17.3828 C 20.0195 -7.42188 27.5879 0 37.8418 0 Z M 27.0508 -31.25 C 22.1191 -31.25 18.7988 -33.9355 18.7988 -37.9395 C 18.7988 -41.748 21.9238 -44.9707 26.5625 -45.9473 C 28.6621 -46.3867 29.541 -47.0215 29.7363 -49.0723 C 30.4199 -56.25 34.1309 -60.498 39.6484 -60.498 C 43.75 -60.498 46.1426 -58.4473 49.1699 -54.6387 C 50.293 -53.2227 51.8066 -52.5879 53.8574 -53.125 C 55.3223 -53.5156 56.8359 -53.7598 57.7148 -53.7598 C 59.5703 -53.7598 61.1328 -53.125 62.2559 -52.0508 C 59.0332 -50.7812 56.2012 -48.7305 54.0039 -45.8496 C 52.9297 -45.9961 51.7578 -46.0938 50.5859 -46.0938 C 43.0664 -46.0938 36.1328 -41.1621 33.7891 -34.2285 C 31.2988 -33.6914 29.0527 -32.666 27.1484 -31.25 Z M 37.8418 -11.9629 C 34.2773 -11.9629 31.9824 -14.1113 31.9824 -17.4316 C 31.9824 -20.9961 34.4727 -22.9004 39.209 -23.9258 C 41.4551 -24.4141 42.1387 -24.9023 42.7734 -27.0508 C 44.2383 -32.0312 47.0215 -34.5703 51.7578 -34.5703 C 53.418 -34.5703 54.6875 -34.2773 56.2012 -33.8867 C 58.3984 -33.3008 59.2285 -33.4961 60.4492 -35.2051 C 63.0371 -38.8184 65.5762 -41.3574 69.8242 -41.3574 C 74.4629 -41.3574 77.9297 -38.3301 79.3457 -31.4941 C 79.7852 -29.3457 80.4688 -28.2227 82.4707 -27.5879 C 88.7207 -25.5859 90.1855 -22.6074 90.1855 -18.75 C 90.1855 -14.5508 87.207 -11.9629 82.4707 -11.9629 Z"/>
  </g>
  <g id="Heavy-S" transform="matrix(1 0 0 1 2583.08 696)">
   <path d="M 37.0605 -0.488281 L 81.3965 -0.488281 C 92.4805 -0.488281 100.391 -8.25195 100.391 -18.5547 C 100.391 -26.2207 95.5078 -33.0566 88.2812 -35.5957 C 86.8652 -43.1641 81.3477 -49.2188 74.2676 -51.416 C 72.4609 -58.9844 66.2598 -64.3555 58.6914 -64.3555 C 57.1289 -64.3555 55.5176 -64.209 54.1504 -63.7695 C 50.0488 -68.75 45.0195 -71.0938 38.8672 -71.0938 C 29.0527 -71.0938 20.7031 -63.916 18.8965 -54.3945 C 11.7188 -51.9043 6.83594 -45.0684 6.83594 -37.3535 C 6.83594 -28.8574 12.3047 -22.4121 20.2148 -20.3613 C 20.0195 -19.3359 19.9219 -18.2617 19.9219 -17.1875 C 19.9219 -7.66602 27.0996 -0.488281 37.0605 -0.488281 Z M 17.5293 -37.3535 C 17.5293 -41.4062 20.752 -44.7754 25.3418 -45.6543 C 27.5391 -46.0449 28.4668 -46.8262 28.5645 -48.9746 C 29.1016 -55.9082 33.1543 -60.4004 38.8672 -60.4004 C 43.0176 -60.4004 45.6543 -58.3008 48.4863 -54.4922 C 49.5605 -53.0273 51.123 -52.4414 53.125 -53.0273 C 54.4922 -53.418 56.0059 -53.6621 57.0312 -53.6621 C 59.2285 -53.6621 61.0352 -52.7832 62.2559 -51.3184 C 58.7402 -50.1465 55.6152 -47.998 53.2715 -44.9219 C 52.1484 -45.1172 50.9277 -45.2148 49.7559 -45.2148 C 42.334 -45.2148 35.5957 -40.2832 33.4961 -33.3984 C 30.7617 -32.8613 28.3203 -31.6895 26.2695 -30.127 C 21.0449 -30.127 17.5293 -33.1543 17.5293 -37.3535 Z M 37.0605 -11.1816 C 33.0566 -11.1816 30.6152 -13.6719 30.6152 -17.1875 C 30.6152 -21.0449 33.4473 -23.2422 38.0371 -24.0234 C 40.4297 -24.4141 41.2598 -25 41.748 -27.2461 C 42.9688 -32.1289 45.8984 -34.8633 50.6348 -34.8633 C 52.2461 -34.8633 53.3691 -34.5703 54.8828 -34.1797 C 57.0801 -33.4961 58.0078 -33.7402 59.1797 -35.4492 C 61.5723 -39.1113 64.4531 -41.6016 68.7012 -41.6016 C 73.7305 -41.6016 77.5879 -38.0859 78.6621 -31.3965 C 79.0039 -29.0527 79.7852 -27.9785 81.9336 -27.4414 C 87.7441 -25.7812 89.6973 -22.5586 89.6973 -18.5547 C 89.6973 -14.1113 86.5234 -11.1816 81.3965 -11.1816 Z"/>
  </g>
  <g id="Bold-S" transform="matrix(1 0 0 1 2287.37 696)">
   <path d="M 36.1328 -1.07422 L 80.1758 -1.07422 C 90.918 -1.07422 98.3887 -8.54492 98.3887 -18.3105 C 98.3887 -25.8301 93.5059 -32.4219 86.4258 -34.7168 C 85.2051 -42.2852 79.6387 -48.3887 72.4609 -50.3906 C 70.8496 -57.666 64.8438 -62.8418 57.5195 -62.8418 C 55.9082 -62.8418 54.248 -62.6465 52.8809 -62.2559 C 49.0723 -66.9434 44.2871 -69.5312 37.9883 -69.5312 C 28.418 -69.5312 20.3125 -62.4512 18.75 -53.125 C 11.7188 -50.8301 6.83594 -44.2383 6.83594 -36.7188 C 6.83594 -28.6133 12.207 -22.2168 20.166 -20.3125 C 19.9219 -19.1895 19.8242 -18.0664 19.8242 -16.9434 C 19.8242 -7.95898 26.5625 -1.07422 36.1328 -1.07422 Z M 16.1133 -36.7188 C 16.1133 -40.9668 19.4824 -44.5801 24.0234 -45.3125 C 26.3184 -45.6543 27.2461 -46.582 27.2949 -48.877 C 27.5879 -55.4688 32.0801 -60.2539 37.9883 -60.2539 C 42.2363 -60.2539 45.1172 -58.1055 47.7539 -54.3457 C 48.7793 -52.832 50.293 -52.3438 52.2949 -52.9297 C 53.5645 -53.2715 55.0781 -53.6133 56.2988 -53.6133 C 58.8379 -53.6133 60.9863 -52.3926 62.207 -50.4395 C 58.3984 -49.4141 54.9316 -47.1191 52.4414 -43.8477 C 51.2695 -44.0918 50.0488 -44.2383 48.8281 -44.2383 C 41.5527 -44.2383 35.0098 -39.3066 33.1543 -32.4707 C 30.1758 -31.9336 27.5391 -30.6641 25.3418 -28.8574 C 19.5801 -29.0527 16.1133 -32.4219 16.1133 -36.7188 Z M 36.1328 -10.3027 C 31.7383 -10.3027 29.0527 -13.1348 29.0527 -16.9434 C 29.0527 -21.0449 32.2266 -23.584 36.7676 -24.1211 C 39.2578 -24.4141 40.2344 -25.0977 40.625 -27.4414 C 41.5527 -32.2266 44.6777 -35.2051 49.4141 -35.2051 C 50.9277 -35.2051 51.9043 -34.9609 53.418 -34.4727 C 55.5664 -33.7402 56.6895 -34.0332 57.7148 -35.7422 C 59.9121 -39.4043 63.1836 -41.8457 67.4805 -41.8457 C 72.9004 -41.8457 77.1973 -37.8418 77.9297 -31.25 C 78.125 -28.7598 78.9551 -27.6855 81.2988 -27.2461 C 86.6699 -25.9766 89.1113 -22.5098 89.1113 -18.3105 C 89.1113 -13.623 85.791 -10.3027 80.1758 -10.3027 Z"/>
  </g>
  <g id="Semibold-S" transform="matrix(1 0 0 1 1991.34 696)">
   <path d="M 35.5469 -1.41602 L 79.3457 -1.41602 C 89.8926 -1.41602 97.0215 -8.78906 97.0215 -18.1152 C 97.0215 -25.5371 92.1875 -31.9824 85.1562 -34.1309 C 84.0332 -41.6992 78.418 -47.8027 71.2402 -49.707 C 69.7754 -56.6895 63.8672 -61.8164 56.7383 -61.8164 C 55.0293 -61.8164 53.3691 -61.6211 52.0508 -61.1816 C 48.3887 -65.6738 43.75 -68.457 37.4023 -68.457 C 27.9785 -68.457 20.0195 -61.4258 18.6523 -52.2461 C 11.6699 -50.0977 6.83594 -43.6523 6.83594 -36.2793 C 6.83594 -28.418 12.1094 -22.0703 20.1172 -20.2637 C 19.873 -19.1406 19.7266 -17.9688 19.7266 -16.748 C 19.7266 -8.20312 26.1719 -1.41602 35.5469 -1.41602 Z M 15.1367 -36.2793 C 15.1367 -40.6738 18.6035 -44.4336 23.0957 -45.0684 C 25.4395 -45.3613 26.3672 -46.4355 26.416 -48.7793 C 26.5625 -55.2246 31.2988 -60.1562 37.4023 -60.1562 C 41.6992 -60.1562 44.7266 -57.959 47.2168 -54.248 C 48.2422 -52.6855 49.7559 -52.1973 51.7578 -52.832 C 52.9297 -53.1738 54.3945 -53.5156 55.7617 -53.5156 C 58.5449 -53.5156 60.9375 -52.0508 62.207 -49.8535 C 58.1055 -48.877 54.4922 -46.5332 51.8555 -43.1152 C 50.6836 -43.4082 49.4141 -43.5547 48.1445 -43.5547 C 40.9668 -43.5547 34.6191 -38.6719 32.959 -31.8359 C 29.7852 -31.3477 26.9531 -29.9805 24.7559 -27.9785 C 18.6523 -28.2715 15.1367 -31.8359 15.1367 -36.2793 Z M 35.5469 -9.7168 C 30.8105 -9.7168 28.0273 -12.793 28.0273 -16.7969 C 28.0273 -21.0938 31.4453 -23.8281 35.8887 -24.2188 C 38.4766 -24.4141 39.5508 -25.1465 39.8926 -27.5879 C 40.5762 -32.3242 43.8477 -35.4004 48.5352 -35.4004 C 50 -35.4004 50.9277 -35.2051 52.3926 -34.668 C 54.541 -33.8867 55.7617 -34.2285 56.7383 -35.9863 C 58.7891 -39.5996 62.3047 -42.041 66.6016 -42.041 C 72.3145 -42.041 76.9531 -37.6465 77.3926 -31.1523 C 77.5391 -28.5156 78.418 -27.4902 80.9082 -27.0996 C 85.9375 -26.123 88.7207 -22.4609 88.7207 -18.1152 C 88.7207 -13.3301 85.3027 -9.7168 79.3457 -9.7168 Z"/>
  </g>
  <g id="Medium-S" transform="matrix(1 0 0 1 1695.16 696)">
   <path d="M 35.0586 -1.70898 L 78.7109 -1.70898 C 89.0625 -1.70898 95.9473 -8.93555 95.9473 -18.0176 C 95.9473 -25.293 91.1133 -31.6406 84.2285 -33.6426 C 83.1543 -41.2598 77.5391 -47.4121 70.3125 -49.2188 C 68.9453 -56.0059 63.1348 -61.0352 56.1035 -61.0352 C 54.3945 -61.0352 52.7344 -60.791 51.416 -60.4004 C 47.8516 -64.7461 43.3594 -67.627 36.9141 -67.627 C 27.6855 -67.627 19.8242 -60.6934 18.6035 -51.5625 C 11.6699 -49.5605 6.83594 -43.2129 6.83594 -35.9375 C 6.83594 -28.3203 12.0605 -21.9727 20.1172 -20.2637 C 19.8242 -19.0918 19.6777 -17.8711 19.6777 -16.6504 C 19.6777 -8.34961 25.8789 -1.70898 35.0586 -1.70898 Z M 14.3555 -35.9375 C 14.3555 -40.4785 17.9199 -44.3359 22.3633 -44.9219 C 24.7559 -45.166 25.7324 -46.3379 25.7324 -48.7305 C 25.7812 -54.9805 30.7129 -60.1074 36.9141 -60.1074 C 41.2598 -60.1074 44.4824 -57.8613 46.8262 -54.1504 C 47.8516 -52.5879 49.3652 -52.1484 51.3184 -52.7832 C 52.4414 -53.125 53.9062 -53.4668 55.3711 -53.4668 C 58.3496 -53.4668 60.9375 -51.8066 62.1582 -49.3652 C 57.9102 -48.4375 54.1016 -46.0938 51.416 -42.5781 C 50.1953 -42.9199 48.9258 -43.0664 47.6562 -43.0664 C 40.5762 -43.0664 34.2773 -38.1348 32.7637 -31.3477 C 29.4922 -30.8594 26.5625 -29.4434 24.3164 -27.3438 C 17.9688 -27.6855 14.3555 -31.3965 14.3555 -35.9375 Z M 35.0586 -9.27734 C 30.127 -9.27734 27.1973 -12.5 27.1973 -16.6504 C 27.1973 -21.0938 30.8105 -24.0234 35.2051 -24.2676 C 37.8906 -24.4141 39.0137 -25.1953 39.2578 -27.6855 C 39.8438 -32.373 43.2129 -35.5957 47.9004 -35.5957 C 49.3164 -35.5957 50.1465 -35.3516 51.6113 -34.8145 C 53.8086 -34.0332 55.0781 -34.375 56.0059 -36.1328 C 57.959 -39.7461 61.6699 -42.1875 65.9668 -42.1875 C 71.875 -42.1875 76.709 -37.5 77.002 -31.1035 C 77.0508 -28.3691 78.0273 -27.3926 80.5664 -27.002 C 85.3516 -26.2695 88.4277 -22.4121 88.4277 -18.0176 C 88.4277 -13.0859 84.9121 -9.27734 78.7109 -9.27734 Z"/>
  </g>
  <g id="Regular-S" transform="matrix(1 0 0 1 1399.14 696)">
   <path d="M 34.4238 -2.09961 L 77.8809 -2.09961 C 88.0371 -2.09961 94.5801 -9.17969 94.5801 -17.8223 C 94.5801 -25 89.7949 -31.2012 82.959 -33.0566 C 82.0312 -40.6738 76.3672 -46.8262 69.0918 -48.4863 C 67.9199 -55.0293 62.207 -60.0098 55.3223 -60.0098 C 53.5645 -60.0098 51.8555 -59.7656 50.5859 -59.375 C 47.2168 -63.4766 42.8223 -66.6016 36.3281 -66.6016 C 27.2461 -66.6016 19.5312 -59.668 18.5059 -50.6836 C 11.6211 -48.8281 6.83594 -42.627 6.83594 -35.4492 C 6.83594 -28.1738 11.9629 -21.7773 20.0684 -20.2148 C 19.7754 -19.043 19.5801 -17.7734 19.5801 -16.4551 C 19.5801 -8.54492 25.5371 -2.09961 34.4238 -2.09961 Z M 13.4277 -35.4492 C 13.4277 -40.1855 17.041 -44.1895 21.4355 -44.6777 C 23.9258 -44.9219 24.9023 -46.1914 24.8535 -48.6816 C 24.8047 -54.7363 29.9805 -60.0098 36.3281 -60.0098 C 40.7227 -60.0098 44.0918 -57.7148 46.3379 -54.0527 C 47.2656 -52.4414 48.8281 -52.0508 50.7812 -52.7344 C 51.8066 -53.0273 53.2715 -53.418 54.8828 -53.418 C 58.1055 -53.418 60.9375 -51.416 62.0605 -48.6816 C 57.6172 -47.9004 53.6133 -45.459 50.8789 -41.8945 C 49.6094 -42.2363 48.3398 -42.3828 47.0215 -42.3828 C 39.9902 -42.3828 33.8867 -37.5 32.5195 -30.7129 C 29.1016 -30.2734 26.0254 -28.7598 23.7305 -26.4648 C 17.0898 -26.9043 13.4277 -30.8105 13.4277 -35.4492 Z M 34.4238 -8.69141 C 29.1992 -8.69141 26.1719 -12.1582 26.1719 -16.4551 C 26.1719 -21.1426 30.0293 -24.3164 34.3262 -24.3652 C 37.1094 -24.4141 38.3301 -25.293 38.5254 -27.832 C 38.8672 -32.4219 42.3828 -35.791 47.0215 -35.791 C 48.3887 -35.791 49.1699 -35.5957 50.6348 -35.0098 C 52.7832 -34.1797 54.1504 -34.5703 55.0293 -36.3281 C 56.8359 -39.9902 60.791 -42.3828 65.1367 -42.3828 C 71.2891 -42.3828 76.4648 -37.3047 76.4648 -31.0059 C 76.4648 -28.1738 77.4902 -27.1973 80.1758 -26.9043 C 84.6191 -26.3672 88.0371 -22.3633 88.0371 -17.8223 C 88.0371 -12.7441 84.4238 -8.69141 77.8809 -8.69141 Z"/>
  </g>
  <g id="Light-S" transform="matrix(1 0 0 1 1102.79 696)">
   <path d="M 33.4473 -2.44141 L 77.6855 -2.44141 C 87.3535 -2.44141 93.8477 -9.13086 93.8477 -17.6758 C 93.8477 -24.8047 88.9648 -30.8594 82.0312 -32.4707 C 81.3477 -40.2344 75.7812 -46.582 68.4082 -48.1445 C 67.3828 -54.7363 61.8164 -59.668 55.127 -59.668 C 53.1738 -59.668 51.6602 -59.4238 50.1953 -59.0332 C 46.7773 -63.4766 42.334 -66.5039 36.0352 -66.5039 C 27.002 -66.5039 19.3848 -59.4238 18.6523 -50.4395 C 11.6699 -48.7793 6.83594 -42.7246 6.83594 -35.5957 C 6.83594 -28.4668 11.8652 -22.2656 19.9219 -20.8984 C 19.3848 -19.4824 19.1406 -17.9199 19.1406 -16.2598 C 19.1406 -8.54492 24.9023 -2.44141 33.4473 -2.44141 Z M 11.9141 -35.5957 C 11.9141 -40.8691 15.8691 -45.1172 20.6543 -45.752 C 22.8027 -45.9961 23.6328 -47.0215 23.584 -49.1699 C 23.5352 -55.7617 29.1504 -61.4258 36.0352 -61.4258 C 40.7227 -61.4258 44.3848 -58.9355 46.7773 -55.127 C 47.7051 -53.7109 48.9746 -53.4668 50.7812 -54.0039 C 51.7578 -54.2969 53.0762 -54.5898 54.7852 -54.5898 C 58.6914 -54.5898 62.0605 -52.0508 63.0859 -48.4375 C 57.959 -47.9492 53.4668 -45.3125 50.4883 -41.1621 C 49.0234 -41.6504 47.7051 -41.8457 46.2402 -41.8457 C 39.209 -41.8457 33.3496 -36.9141 32.1289 -30.0293 C 28.5156 -29.6875 25.293 -28.125 22.9492 -25.7324 C 15.8691 -26.0742 11.9141 -30.5176 11.9141 -35.5957 Z M 33.4473 -7.51953 C 27.7344 -7.51953 24.2188 -11.3281 24.2188 -16.2598 C 24.2188 -21.3379 28.3203 -25 33.2031 -25.0977 C 35.5957 -25.1465 36.6211 -25.8301 36.7676 -27.9785 C 37.2559 -33.1055 41.1133 -36.7676 46.2402 -36.7676 C 47.6562 -36.7676 48.5352 -36.5723 50 -35.9863 C 51.9043 -35.2539 52.9785 -35.5469 53.8086 -37.1094 C 55.8594 -40.9668 60.0098 -43.457 64.8438 -43.457 C 71.6309 -43.457 77.002 -37.8906 77.002 -31.0547 C 77.002 -28.6133 77.7344 -27.9297 80.0781 -27.6855 C 85.0098 -27.0996 88.7695 -22.7051 88.7695 -17.6758 C 88.7695 -11.9141 84.6191 -7.51953 77.6855 -7.51953 Z"/>
  </g>
  <g id="Thin-S" transform="matrix(1 0 0 1 806.544 696)">
   <path d="M 32.0801 -2.88086 L 77.3926 -2.88086 C 86.5234 -2.88086 92.9199 -9.0332 92.9199 -17.4316 C 92.9199 -24.5117 87.8418 -30.4688 80.8594 -31.6895 C 80.4688 -39.5996 75.0488 -46.1914 67.5293 -47.6562 C 66.6992 -54.3457 61.2793 -59.2285 54.834 -59.2285 C 52.6855 -59.2285 51.3672 -59.0332 49.707 -58.5938 C 46.2891 -63.4277 41.6504 -66.3574 35.6934 -66.3574 C 26.709 -66.3574 19.2383 -59.1309 18.8477 -50.1465 C 11.6699 -48.6816 6.83594 -42.8223 6.83594 -35.791 C 6.83594 -28.8086 11.7188 -22.7539 19.873 -21.7773 C 18.9941 -20.0684 18.5059 -18.1152 18.5059 -16.0156 C 18.5059 -8.49609 24.1211 -2.88086 32.0801 -2.88086 Z M 9.96094 -35.791 C 9.96094 -41.748 14.3066 -46.3379 19.6289 -47.168 C 21.3379 -47.4121 21.9238 -48.0957 21.9238 -49.8535 C 21.875 -57.0801 28.0762 -63.2324 35.6934 -63.2324 C 40.7227 -63.2324 44.8242 -60.498 47.4121 -56.543 C 48.1934 -55.3711 49.2188 -55.2734 50.7324 -55.6641 C 51.709 -55.9082 52.832 -56.1035 54.6875 -56.1035 C 59.5215 -56.1035 63.4766 -52.8809 64.3555 -47.9492 C 58.252 -47.9492 53.1738 -45.0195 50 -40.2832 C 48.2422 -40.8691 46.9238 -41.1133 45.2148 -41.1133 C 38.1836 -41.1133 32.6172 -36.084 31.543 -29.1504 C 27.7344 -28.9551 24.3164 -27.2949 21.9238 -24.7559 C 14.209 -25.0488 9.96094 -30.0781 9.96094 -35.791 Z M 32.0801 -6.00586 C 25.8301 -6.00586 21.6309 -10.2051 21.6309 -16.0156 C 21.6309 -21.582 26.123 -25.9277 31.7383 -26.0742 C 33.5938 -26.123 34.3262 -26.5137 34.5215 -28.1738 C 35.1074 -33.9355 39.502 -38.0371 45.2148 -38.0371 C 46.6797 -38.0371 47.7051 -37.8418 49.2188 -37.2559 C 50.7324 -36.6699 51.5137 -36.9141 52.2461 -38.1836 C 54.5898 -42.2852 58.9844 -44.873 64.4043 -44.873 C 72.0215 -44.873 77.7344 -38.7207 77.7344 -31.1523 C 77.7344 -29.1504 78.0762 -28.9062 79.9316 -28.7109 C 85.498 -27.9785 89.7949 -23.1445 89.7949 -17.4316 C 89.7949 -10.791 84.8633 -6.00586 77.3926 -6.00586 Z"/>
  </g>
  <g id="Ultralight-S" transform="matrix(1 0 0 1 510.102 696)">
   <path d="M 31.3965 -3.125 L 77.2461 -3.125 C 86.084 -3.125 92.3828 -8.98438 92.3828 -17.334 C 92.3828 -24.3652 87.2559 -30.2246 80.2246 -31.2988 C 80.0293 -39.2578 74.6582 -46.0449 67.0898 -47.4121 C 66.3574 -54.1992 61.0352 -58.9844 54.6875 -58.9844 C 52.4414 -58.9844 51.2207 -58.7891 49.4629 -58.3496 C 45.9961 -63.4277 41.3086 -66.2598 35.498 -66.2598 C 26.5625 -66.2598 19.0918 -58.9844 18.9453 -50 C 11.7188 -48.6328 6.83594 -42.9199 6.83594 -35.8887 C 6.83594 -29.0039 11.7188 -22.998 19.9219 -22.2168 C 18.7988 -20.3613 18.1641 -18.2129 18.1641 -15.8691 C 18.1641 -8.49609 23.6816 -3.125 31.3965 -3.125 Z M 8.93555 -35.8887 C 8.93555 -42.2363 13.5254 -46.9727 19.0918 -47.9492 C 20.6055 -48.1934 21.0449 -48.6328 21.0449 -50.1953 C 21.0449 -57.8125 27.5391 -64.209 35.498 -64.209 C 40.7227 -64.209 45.0195 -61.3281 47.7539 -57.3242 C 48.4863 -56.2012 49.3164 -56.25 50.7324 -56.543 C 51.6602 -56.7383 52.7344 -56.8848 54.5898 -56.8848 C 59.9609 -56.8848 64.2578 -53.3203 64.9902 -47.6562 C 64.6973 -47.6562 64.4531 -47.6562 64.209 -47.6562 C 57.8613 -47.6562 52.832 -44.6777 49.7559 -39.7949 C 47.8516 -40.4785 46.4844 -40.7715 44.6777 -40.7715 C 37.6465 -40.7715 32.2266 -35.6934 31.25 -28.6621 C 27.3438 -28.5645 23.8281 -26.9043 21.3867 -24.2676 C 13.3789 -24.5117 8.93555 -29.834 8.93555 -35.8887 Z M 31.3965 -5.22461 C 24.8535 -5.22461 20.2637 -9.66797 20.2637 -15.8691 C 20.2637 -21.7285 24.9512 -26.416 31.0059 -26.6113 C 32.5684 -26.6602 33.1543 -26.8555 33.3496 -28.2715 C 33.9844 -34.375 38.6719 -38.6719 44.6777 -38.6719 C 46.1426 -38.6719 47.2656 -38.4766 48.7793 -37.9395 C 50.1465 -37.4512 50.7324 -37.5977 51.416 -38.7207 C 53.9551 -42.9688 58.4473 -45.6055 64.209 -45.6055 C 72.2656 -45.6055 78.125 -39.1113 78.125 -31.2012 C 78.125 -29.4922 78.2715 -29.4434 79.834 -29.248 C 85.791 -28.4668 90.332 -23.3887 90.332 -17.334 C 90.332 -10.2051 85.0098 -5.22461 77.2461 -5.22461 Z"/>
  </g>
 </g>
</svg>
