<?xml version="1.0" encoding="UTF-8"?>
<!--Generator: Apple Native CoreSVG 123-->
<!DOCTYPE svg
PUBLIC "-//W3C//DTD SVG 1.1//EN"
       "http://www.w3.org/Graphics/SVG/1.1/DTD/svg11.dtd">
<svg version="1.1" xmlns="http://www.w3.org/2000/svg" xmlns:xlink="http://www.w3.org/1999/xlink" width="3300" height="2200">
 <!--glyph: "uni1001E5.medium", point size: 100.000000, font version: "Version 15.0d7e11", template writer version: "5"-->
 <g id="Notes">
  <rect height="2200" id="artboard" style="fill:white;opacity:1" width="3300" x="0" y="0"/>
  <line id="" style="fill:none;stroke:black;opacity:1;stroke-width:0.5;" x1="263" x2="3036" y1="292" y2="292"/>
  <text style="stroke:none;fill:black;font-family:-apple-system,&quot;SF Pro Display&quot;,&quot;SF Pro Text&quot;,Helvetica,sans-serif;font-weight:bold;" transform="matrix(1 0 0 1 263 322)">Weight/Scale Variations</text>
  <text style="stroke:none;fill:black;font-family:-apple-system,&quot;SF Pro Display&quot;,&quot;SF Pro Text&quot;,Helvetica,sans-serif;text-anchor:middle;" transform="matrix(1 0 0 1 559.711 322)">Ultralight</text>
  <text style="stroke:none;fill:black;font-family:-apple-system,&quot;SF Pro Display&quot;,&quot;SF Pro Text&quot;,Helvetica,sans-serif;text-anchor:middle;" transform="matrix(1 0 0 1 856.422 322)">Thin</text>
  <text style="stroke:none;fill:black;font-family:-apple-system,&quot;SF Pro Display&quot;,&quot;SF Pro Text&quot;,Helvetica,sans-serif;text-anchor:middle;" transform="matrix(1 0 0 1 1153.13 322)">Light</text>
  <text style="stroke:none;fill:black;font-family:-apple-system,&quot;SF Pro Display&quot;,&quot;SF Pro Text&quot;,Helvetica,sans-serif;text-anchor:middle;" transform="matrix(1 0 0 1 1449.84 322)">Regular</text>
  <text style="stroke:none;fill:black;font-family:-apple-system,&quot;SF Pro Display&quot;,&quot;SF Pro Text&quot;,Helvetica,sans-serif;text-anchor:middle;" transform="matrix(1 0 0 1 1746.56 322)">Medium</text>
  <text style="stroke:none;fill:black;font-family:-apple-system,&quot;SF Pro Display&quot;,&quot;SF Pro Text&quot;,Helvetica,sans-serif;text-anchor:middle;" transform="matrix(1 0 0 1 2043.27 322)">Semibold</text>
  <text style="stroke:none;fill:black;font-family:-apple-system,&quot;SF Pro Display&quot;,&quot;SF Pro Text&quot;,Helvetica,sans-serif;text-anchor:middle;" transform="matrix(1 0 0 1 2339.98 322)">Bold</text>
  <text style="stroke:none;fill:black;font-family:-apple-system,&quot;SF Pro Display&quot;,&quot;SF Pro Text&quot;,Helvetica,sans-serif;text-anchor:middle;" transform="matrix(1 0 0 1 2636.69 322)">Heavy</text>
  <text style="stroke:none;fill:black;font-family:-apple-system,&quot;SF Pro Display&quot;,&quot;SF Pro Text&quot;,Helvetica,sans-serif;text-anchor:middle;" transform="matrix(1 0 0 1 2933.4 322)">Black</text>
  <line id="" style="fill:none;stroke:black;opacity:1;stroke-width:0.5;" x1="263" x2="3036" y1="1903" y2="1903"/>
  <g id="" transform="matrix(1 0 0 1 263 1933)">
   <path d="M 9.24805 0.830078 C 13.5547 0.830078 17.1387 -2.74414 17.1387 -7.05078 C 17.1387 -11.3574 13.5449 -14.9316 9.23828 -14.9316 C 4.94141 -14.9316 1.36719 -11.3574 1.36719 -7.05078 C 1.36719 -2.74414 4.95117 0.830078 9.24805 0.830078 Z M 9.24805 -0.654297 C 5.70312 -0.654297 2.87109 -3.49609 2.87109 -7.05078 C 2.87109 -10.6055 5.69336 -13.4473 9.23828 -13.4473 C 12.793 -13.4473 15.6348 -10.6055 15.6445 -7.05078 C 15.6543 -3.49609 12.8027 -0.654297 9.24805 -0.654297 Z M 9.22852 -3.42773 C 9.69727 -3.42773 9.9707 -3.74023 9.9707 -4.25781 L 9.9707 -6.31836 L 12.1973 -6.31836 C 12.6953 -6.31836 13.0371 -6.57227 13.0371 -7.04102 C 13.0371 -7.51953 12.7148 -7.7832 12.1973 -7.7832 L 9.9707 -7.7832 L 9.9707 -10.0098 C 9.9707 -10.5273 9.69727 -10.8496 9.22852 -10.8496 C 8.75977 -10.8496 8.50586 -10.5078 8.50586 -10.0098 L 8.50586 -7.7832 L 6.29883 -7.7832 C 5.78125 -7.7832 5.44922 -7.51953 5.44922 -7.04102 C 5.44922 -6.57227 5.80078 -6.31836 6.29883 -6.31836 L 8.50586 -6.31836 L 8.50586 -4.25781 C 8.50586 -3.75977 8.75977 -3.42773 9.22852 -3.42773 Z"/>
  </g>
  <g id="" transform="matrix(1 0 0 1 281.506 1933)">
   <path d="M 11.709 2.91016 C 17.1582 2.91016 21.6699 -1.60156 21.6699 -7.05078 C 21.6699 -12.4902 17.1484 -17.0117 11.6992 -17.0117 C 6.25977 -17.0117 1.74805 -12.4902 1.74805 -7.05078 C 1.74805 -1.60156 6.26953 2.91016 11.709 2.91016 Z M 11.709 1.25 C 7.09961 1.25 3.41797 -2.44141 3.41797 -7.05078 C 3.41797 -11.6504 7.08984 -15.3516 11.6992 -15.3516 C 16.3086 -15.3516 20 -11.6504 20.0098 -7.05078 C 20.0195 -2.44141 16.3184 1.25 11.709 1.25 Z M 11.6895 -2.41211 C 12.207 -2.41211 12.5195 -2.77344 12.5195 -3.33984 L 12.5195 -6.23047 L 15.5762 -6.23047 C 16.123 -6.23047 16.5039 -6.51367 16.5039 -7.03125 C 16.5039 -7.55859 16.1426 -7.86133 15.5762 -7.86133 L 12.5195 -7.86133 L 12.5195 -10.9277 C 12.5195 -11.5039 12.207 -11.8555 11.6895 -11.8555 C 11.1719 -11.8555 10.8789 -11.4844 10.8789 -10.9277 L 10.8789 -7.86133 L 7.83203 -7.86133 C 7.26562 -7.86133 6.89453 -7.55859 6.89453 -7.03125 C 6.89453 -6.51367 7.28516 -6.23047 7.83203 -6.23047 L 10.8789 -6.23047 L 10.8789 -3.33984 C 10.8789 -2.79297 11.1719 -2.41211 11.6895 -2.41211 Z"/>
  </g>
  <g id="" transform="matrix(1 0 0 1 304.924 1933)">
   <path d="M 14.9707 5.67383 C 21.9336 5.67383 27.6953 -0.078125 27.6953 -7.04102 C 27.6953 -14.0039 21.9238 -19.7559 14.9609 -19.7559 C 8.00781 -19.7559 2.25586 -14.0039 2.25586 -7.04102 C 2.25586 -0.078125 8.01758 5.67383 14.9707 5.67383 Z M 14.9707 3.85742 C 8.93555 3.85742 4.08203 -1.00586 4.08203 -7.04102 C 4.08203 -13.0762 8.92578 -17.9395 14.9609 -17.9395 C 21.0059 -17.9395 25.8594 -13.0762 25.8691 -7.04102 C 25.8789 -1.00586 21.0156 3.85742 14.9707 3.85742 Z M 14.9512 -1.06445 C 15.5176 -1.06445 15.8691 -1.45508 15.8691 -2.06055 L 15.8691 -6.13281 L 20.1074 -6.13281 C 20.6934 -6.13281 21.1133 -6.46484 21.1133 -7.02148 C 21.1133 -7.59766 20.7227 -7.93945 20.1074 -7.93945 L 15.8691 -7.93945 L 15.8691 -12.1875 C 15.8691 -12.8027 15.5176 -13.1934 14.9512 -13.1934 C 14.3848 -13.1934 14.0625 -12.7832 14.0625 -12.1875 L 14.0625 -7.93945 L 9.83398 -7.93945 C 9.21875 -7.93945 8.80859 -7.59766 8.80859 -7.02148 C 8.80859 -6.46484 9.23828 -6.13281 9.83398 -6.13281 L 14.0625 -6.13281 L 14.0625 -2.06055 C 14.0625 -1.47461 14.3848 -1.06445 14.9512 -1.06445 Z"/>
  </g>
  <text style="stroke:none;fill:black;font-family:-apple-system,&quot;SF Pro Display&quot;,&quot;SF Pro Text&quot;,Helvetica,sans-serif;font-weight:bold;" transform="matrix(1 0 0 1 263 1953)">Design Variations</text>
  <text style="stroke:none;fill:black;font-family:-apple-system,&quot;SF Pro Display&quot;,&quot;SF Pro Text&quot;,Helvetica,sans-serif;" transform="matrix(1 0 0 1 263 1971)">Symbols are supported in up to nine weights and three scales.</text>
  <text style="stroke:none;fill:black;font-family:-apple-system,&quot;SF Pro Display&quot;,&quot;SF Pro Text&quot;,Helvetica,sans-serif;" transform="matrix(1 0 0 1 263 1989)">For optimal layout with text and other symbols, vertically align</text>
  <text style="stroke:none;fill:black;font-family:-apple-system,&quot;SF Pro Display&quot;,&quot;SF Pro Text&quot;,Helvetica,sans-serif;" transform="matrix(1 0 0 1 263 2007)">symbols with the adjacent text.</text>
  <rect height="14" id="" style="fill:#00AEEF;stroke:none;opacity:0.4;" width="3" x="776" y="1919"/>
  <g id="" transform="matrix(1 0 0 1 779 1933)">
   <path d="M 10.5273 0 L 12.373 0 L 7.17773 -14.0918 L 5.43945 -14.0918 L 0.244141 0 L 2.08984 0 L 3.50586 -4.0332 L 9.11133 -4.0332 Z M 6.2793 -11.9531 L 6.33789 -11.9531 L 8.59375 -5.52734 L 4.02344 -5.52734 Z"/>
  </g>
  <rect height="14" id="" style="fill:#00AEEF;stroke:none;opacity:0.4;" width="3" x="791.617" y="1919"/>
  <text style="stroke:none;fill:black;font-family:-apple-system,&quot;SF Pro Display&quot;,&quot;SF Pro Text&quot;,Helvetica,sans-serif;font-weight:bold;" transform="matrix(1 0 0 1 776 1953)">Margins</text>
  <text style="stroke:none;fill:black;font-family:-apple-system,&quot;SF Pro Display&quot;,&quot;SF Pro Text&quot;,Helvetica,sans-serif;" transform="matrix(1 0 0 1 776 1971)">Leading and trailing margins on the left and right side of each symbol</text>
  <text style="stroke:none;fill:black;font-family:-apple-system,&quot;SF Pro Display&quot;,&quot;SF Pro Text&quot;,Helvetica,sans-serif;" transform="matrix(1 0 0 1 776 1989)">can be adjusted by modifying the width of the blue rectangles.</text>
  <text style="stroke:none;fill:black;font-family:-apple-system,&quot;SF Pro Display&quot;,&quot;SF Pro Text&quot;,Helvetica,sans-serif;" transform="matrix(1 0 0 1 776 2007)">Modifications are automatically applied proportionally to all</text>
  <text style="stroke:none;fill:black;font-family:-apple-system,&quot;SF Pro Display&quot;,&quot;SF Pro Text&quot;,Helvetica,sans-serif;" transform="matrix(1 0 0 1 776 2025)">scales and weights.</text>
  <g id="" transform="matrix(1 0 0 1 1289 1933)">
   <path d="M 2.83203 3.11523 L 4.375 4.6582 C 5.22461 5.48828 6.19141 5.41992 7.06055 4.46289 L 17.2754 -6.66016 C 17.7051 -6.36719 18.0957 -6.37695 18.5645 -6.47461 L 19.6094 -6.68945 L 20.3027 -5.99609 L 20.2539 -5.47852 C 20.1855 -4.95117 20.3516 -4.53125 20.8496 -4.0332 L 21.6602 -3.22266 C 22.168 -2.71484 22.8223 -2.68555 23.3008 -3.16406 L 26.5527 -6.41602 C 27.0312 -6.89453 27.0117 -7.54883 26.5039 -8.05664 L 25.6836 -8.87695 C 25.1855 -9.375 24.7754 -9.55078 24.2383 -9.47266 L 23.7109 -9.41406 L 23.0566 -10.0781 L 23.3398 -11.2207 C 23.4863 -11.7871 23.3398 -12.2559 22.7148 -12.8613 L 20.3027 -15.2539 C 16.7578 -18.7793 12.2266 -18.6719 9.11133 -15.5371 C 8.69141 -15.1074 8.64258 -14.5215 8.91602 -14.0918 C 9.15039 -13.7207 9.62891 -13.4961 10.2734 -13.6621 C 11.7871 -14.043 13.3008 -13.9258 14.7852 -12.9199 L 14.1602 -11.3379 C 13.9258 -10.752 13.9453 -10.2734 14.1797 -9.83398 L 3.01758 0.439453 C 2.08008 1.30859 1.97266 2.25586 2.83203 3.11523 Z M 10.6738 -15.1465 C 13.3398 -17.1387 16.6504 -16.8262 19.0527 -14.4141 L 21.6797 -11.8066 C 21.9141 -11.5723 21.9434 -11.3867 21.8848 -11.0938 L 21.5039 -9.53125 L 23.0762 -7.95898 L 24.043 -8.04688 C 24.3262 -8.07617 24.4141 -8.05664 24.6387 -7.83203 L 25.2637 -7.20703 L 22.5098 -4.46289 L 21.8848 -5.07812 C 21.6602 -5.30273 21.6406 -5.40039 21.6699 -5.68359 L 21.7578 -6.64062 L 20.1953 -8.20312 L 18.5742 -7.89062 C 18.291 -7.83203 18.1445 -7.83203 17.9102 -8.07617 L 15.7324 -10.2539 C 15.5078 -10.4883 15.4785 -10.625 15.6055 -10.9473 L 16.5527 -13.2227 C 14.9512 -14.7559 12.8418 -15.6055 10.8008 -14.9512 C 10.7129 -14.9219 10.6445 -14.9414 10.6152 -14.9805 C 10.5859 -15.0293 10.5859 -15.0781 10.6738 -15.1465 Z M 4.10156 2.41211 C 3.61328 1.91406 3.78906 1.61133 4.12109 1.30859 L 15.0781 -8.80859 L 16.3086 -7.57812 L 6.15234 3.34961 C 5.84961 3.68164 5.46875 3.7793 5.06836 3.37891 Z"/>
  </g>
  <text style="stroke:none;fill:black;font-family:-apple-system,&quot;SF Pro Display&quot;,&quot;SF Pro Text&quot;,Helvetica,sans-serif;font-weight:bold;" transform="matrix(1 0 0 1 1289 1953)">Exporting</text>
  <text style="stroke:none;fill:black;font-family:-apple-system,&quot;SF Pro Display&quot;,&quot;SF Pro Text&quot;,Helvetica,sans-serif;" transform="matrix(1 0 0 1 1289 1971)">Symbols should be outlined when exporting to ensure the</text>
  <text style="stroke:none;fill:black;font-family:-apple-system,&quot;SF Pro Display&quot;,&quot;SF Pro Text&quot;,Helvetica,sans-serif;" transform="matrix(1 0 0 1 1289 1989)">design is preserved when submitting to Xcode.</text>
  <text id="template-version" style="stroke:none;fill:black;font-family:-apple-system,&quot;SF Pro Display&quot;,&quot;SF Pro Text&quot;,Helvetica,sans-serif;text-anchor:end;" transform="matrix(1 0 0 1 3036 1933)">Template v.1.0</text>
  <text style="stroke:none;fill:black;font-family:-apple-system,&quot;SF Pro Display&quot;,&quot;SF Pro Text&quot;,Helvetica,sans-serif;text-anchor:end;" transform="matrix(1 0 0 1 3036 1951)">Generated from snow</text>
  <text style="stroke:none;fill:black;font-family:-apple-system,&quot;SF Pro Display&quot;,&quot;SF Pro Text&quot;,Helvetica,sans-serif;text-anchor:end;" transform="matrix(1 0 0 1 3036 1969)">Typeset at 100 points</text>
  <text style="stroke:none;fill:black;font-family:-apple-system,&quot;SF Pro Display&quot;,&quot;SF Pro Text&quot;,Helvetica,sans-serif;" transform="matrix(1 0 0 1 263 726)">Small</text>
  <text style="stroke:none;fill:black;font-family:-apple-system,&quot;SF Pro Display&quot;,&quot;SF Pro Text&quot;,Helvetica,sans-serif;" transform="matrix(1 0 0 1 263 1156)">Medium</text>
  <text style="stroke:none;fill:black;font-family:-apple-system,&quot;SF Pro Display&quot;,&quot;SF Pro Text&quot;,Helvetica,sans-serif;" transform="matrix(1 0 0 1 263 1586)">Large</text>
 </g>
 <g id="Guides">
  <g id="H-reference" style="fill:#27AAE1;stroke:none;" transform="matrix(1 0 0 1 339 696)">
   <path d="M 54.9316 0 L 57.666 0 L 30.5664 -70.459 L 28.0762 -70.459 L 0.976562 0 L 3.66211 0 L 12.9395 -24.4629 L 45.7031 -24.4629 Z M 29.1992 -67.0898 L 29.4434 -67.0898 L 44.8242 -26.709 L 13.8184 -26.709 Z"/>
  </g>
  <line id="Baseline-S" style="fill:none;stroke:#27AAE1;opacity:1;stroke-width:0.577;" x1="263" x2="3036" y1="696" y2="696"/>
  <line id="Capline-S" style="fill:none;stroke:#27AAE1;opacity:1;stroke-width:0.577;" x1="263" x2="3036" y1="625.541" y2="625.541"/>
  <g id="H-reference" style="fill:#27AAE1;stroke:none;" transform="matrix(1 0 0 1 339 1126)">
   <path d="M 54.9316 0 L 57.666 0 L 30.5664 -70.459 L 28.0762 -70.459 L 0.976562 0 L 3.66211 0 L 12.9395 -24.4629 L 45.7031 -24.4629 Z M 29.1992 -67.0898 L 29.4434 -67.0898 L 44.8242 -26.709 L 13.8184 -26.709 Z"/>
  </g>
  <line id="Baseline-M" style="fill:none;stroke:#27AAE1;opacity:1;stroke-width:0.577;" x1="263" x2="3036" y1="1126" y2="1126"/>
  <line id="Capline-M" style="fill:none;stroke:#27AAE1;opacity:1;stroke-width:0.577;" x1="263" x2="3036" y1="1055.54" y2="1055.54"/>
  <g id="H-reference" style="fill:#27AAE1;stroke:none;" transform="matrix(1 0 0 1 339 1556)">
   <path d="M 54.9316 0 L 57.666 0 L 30.5664 -70.459 L 28.0762 -70.459 L 0.976562 0 L 3.66211 0 L 12.9395 -24.4629 L 45.7031 -24.4629 Z M 29.1992 -67.0898 L 29.4434 -67.0898 L 44.8242 -26.709 L 13.8184 -26.709 Z"/>
  </g>
  <line id="Baseline-L" style="fill:none;stroke:#27AAE1;opacity:1;stroke-width:0.577;" x1="263" x2="3036" y1="1556" y2="1556"/>
  <line id="Capline-L" style="fill:none;stroke:#27AAE1;opacity:1;stroke-width:0.577;" x1="263" x2="3036" y1="1485.54" y2="1485.54"/>
  <rect height="119.336" id="left-margin" style="fill:#00AEEF;stroke:none;opacity:0.4;" width="8.73466" x="1404.95" y="1030.79"/>
  <rect height="119.336" id="right-margin" style="fill:#00AEEF;stroke:none;opacity:0.4;" width="8.72396" x="1486.02" y="1030.79"/>
 </g>
 <g id="Symbols">
  <g id="Black-L" transform="matrix(1 0 0 1 2869.24 1556)">
   <path d="M 33.0566 8.00781 C 36.2793 8.30078 39.1113 6.29883 39.2578 2.53906 L 39.8926 -10.8398 L 44.9707 -13.7695 L 59.1309 -23.6328 L 57.6172 -6.44531 L 57.6172 -0.488281 L 46.3379 6.64062 C 43.1641 8.69141 42.8223 12.1094 44.7266 14.7461 C 46.8262 17.6758 50.4395 17.7246 53.2227 15.1855 L 57.6172 11.377 L 57.6172 20.7031 C 57.6172 24.7559 60.3027 27.6367 64.1602 27.6367 C 68.1152 27.6367 70.752 24.8535 70.752 20.7031 L 70.752 11.377 L 75.1465 15.1855 C 77.8809 17.7246 81.4453 17.6758 83.6426 14.7461 C 85.5469 12.1094 85.2051 8.69141 81.9824 6.64062 L 70.752 -0.537109 L 70.752 -6.44531 L 69.1895 -23.5352 L 83.3984 -13.6719 L 88.5254 -10.6934 L 89.0625 2.53906 C 89.2578 6.39648 92.041 8.34961 95.2637 8.00781 C 98.9258 7.56836 100.732 4.54102 99.9512 0.927734 L 98.7793 -4.78516 L 106.885 -0.0976562 C 110.449 1.95312 114.16 1.07422 116.113 -2.39258 C 117.969 -5.76172 116.943 -9.52148 113.477 -11.5234 L 105.42 -16.1621 L 110.889 -18.0664 C 114.355 -19.1895 116.211 -22.2656 114.697 -25.6836 C 113.379 -28.6133 110.254 -30.0781 106.885 -28.2715 L 95.0684 -22.168 L 89.9414 -25.0977 L 74.3164 -32.373 L 89.9414 -39.6484 L 95.0195 -42.627 L 106.885 -36.4258 C 110.254 -34.7168 113.379 -36.1816 114.746 -39.1602 C 116.26 -42.4316 114.404 -45.6055 110.889 -46.7285 L 105.42 -48.6328 L 113.477 -53.2715 C 117.041 -55.3223 118.115 -58.9844 116.162 -62.3535 C 114.209 -65.7715 110.4 -66.6992 106.885 -64.6973 L 98.8281 -60.0098 L 99.9512 -65.6738 C 100.732 -69.3359 98.9258 -72.4121 95.3125 -72.8027 C 92.0898 -73.0957 89.2578 -71.0938 89.0625 -67.334 L 88.4766 -54.0039 L 83.3984 -51.0254 L 69.1895 -41.1621 L 70.752 -58.3496 L 70.752 -64.2578 L 81.9824 -71.4355 C 85.2051 -73.4863 85.498 -76.9043 83.6426 -79.541 C 81.4941 -82.4707 77.8809 -82.5195 75.1465 -79.9805 L 70.752 -76.1719 L 70.752 -85.498 C 70.752 -89.6484 68.1152 -92.4316 64.1602 -92.4316 C 60.3027 -92.4316 57.6172 -89.5508 57.6172 -85.498 L 57.6172 -76.1719 L 53.2227 -79.9805 C 50.4395 -82.5195 46.875 -82.4707 44.7266 -79.541 C 42.7734 -76.9043 43.1641 -73.4863 46.3379 -71.4355 L 57.6172 -64.3066 L 57.6172 -58.3496 L 59.1309 -41.1133 L 44.9707 -51.0254 L 39.8438 -54.0039 L 39.2578 -67.334 C 39.1113 -71.0938 36.2305 -73.0957 33.0566 -72.8027 C 29.4434 -72.4121 27.6367 -69.2871 28.418 -65.7227 L 29.4922 -60.0098 L 21.4355 -64.6973 C 17.9688 -66.6992 14.1113 -65.7715 12.207 -62.3535 C 10.2539 -58.9844 11.3281 -55.2734 14.7949 -53.2715 L 22.9492 -48.584 L 17.4316 -46.7285 C 13.916 -45.6055 12.1094 -42.4316 13.6719 -39.1113 C 14.9902 -36.1816 18.0664 -34.668 21.4355 -36.4258 L 33.252 -42.627 L 38.3789 -39.6484 L 54.0039 -32.373 L 38.3789 -25.0977 L 33.3008 -22.168 L 21.4355 -28.3691 C 18.0664 -30.0781 14.9414 -28.6133 13.623 -25.6348 C 12.1094 -22.3145 13.916 -19.1895 17.4316 -18.0664 L 22.9492 -16.1621 L 14.8926 -11.5234 C 11.377 -9.52148 10.2539 -5.76172 12.207 -2.39258 C 14.209 1.07422 17.9199 1.95312 21.4355 -0.0976562 L 29.4922 -4.78516 L 28.418 0.878906 C 27.5879 4.54102 29.4434 7.61719 33.0566 8.00781 Z"/>
  </g>
  <g id="Heavy-L" transform="matrix(1 0 0 1 2574.02 1556)">
   <path d="M 32.4219 7.03125 C 35.3027 7.27539 37.7441 5.41992 37.8418 2.05078 L 38.3301 -11.7188 L 43.75 -14.8438 L 58.3008 -24.8047 L 56.8848 -7.22656 L 56.8848 -0.927734 L 45.2148 6.34766 C 42.334 8.1543 41.9922 11.1328 43.6035 13.5254 C 45.459 16.1621 48.6328 16.2109 51.1719 14.0625 L 56.8848 9.57031 L 56.8848 19.9219 C 56.8848 23.4863 59.2773 26.0254 62.6953 26.0254 C 66.2109 26.0254 68.457 23.5352 68.457 19.9219 L 68.457 9.57031 L 74.1699 14.0625 C 76.709 16.2109 79.834 16.1621 81.7383 13.5254 C 83.3984 11.1328 83.0078 8.10547 80.127 6.34766 L 68.457 -0.927734 L 68.457 -7.22656 L 67.0898 -24.707 L 81.5918 -14.7949 L 87.0605 -11.6211 L 87.5 2.05078 C 87.6465 5.46875 90.0879 7.32422 92.9199 7.03125 C 96.1914 6.73828 97.8516 4.05273 97.2168 0.830078 L 96.1426 -6.39648 L 105.127 -1.17188 C 108.252 0.634766 111.523 -0.146484 113.232 -3.22266 C 114.893 -6.15234 113.965 -9.52148 110.889 -11.2305 L 101.953 -16.4062 L 108.691 -19.1406 C 111.768 -20.2148 113.379 -22.9492 111.963 -25.9277 C 110.742 -28.5645 107.959 -29.7363 104.98 -28.1738 L 92.8223 -21.6797 L 87.3535 -24.8535 L 71.4844 -32.4219 L 87.3535 -39.9414 L 92.8223 -43.1152 L 104.932 -36.6211 C 107.91 -35.0586 110.742 -36.2793 112.012 -38.8672 C 113.379 -41.7969 111.816 -44.6289 108.691 -45.7031 L 101.953 -48.3887 L 110.889 -53.5645 C 114.062 -55.3711 114.99 -58.5449 113.281 -61.5723 C 111.572 -64.5996 108.203 -65.4297 105.127 -63.623 L 96.1426 -58.3984 L 97.2168 -65.625 C 97.8027 -68.8965 96.1914 -71.582 92.9199 -71.875 C 90.0879 -72.0703 87.6465 -70.2637 87.5 -66.8945 L 87.0117 -53.125 L 81.5918 -49.9512 L 67.0898 -40.0391 L 68.457 -57.5684 L 68.457 -63.8672 L 80.127 -71.1426 C 83.0078 -72.9492 83.3984 -75.9766 81.7383 -78.3203 C 79.8828 -81.0059 76.709 -81.0547 74.1699 -78.9062 L 68.457 -74.3652 L 68.457 -84.7168 C 68.457 -88.3789 66.2109 -90.8203 62.6953 -90.8203 C 59.2773 -90.8203 56.8848 -88.3301 56.8848 -84.7168 L 56.8848 -74.3652 L 51.1719 -78.9062 C 48.6328 -81.0547 45.5078 -81.0059 43.6035 -78.3203 C 41.9434 -75.9766 42.334 -72.9492 45.2148 -71.1426 L 56.8848 -63.916 L 56.8848 -57.5684 L 58.3008 -39.9902 L 43.75 -49.9512 L 38.2812 -53.125 L 37.8418 -66.8945 C 37.7441 -70.2637 35.2539 -72.0703 32.4219 -71.875 C 29.1992 -71.582 27.5879 -68.8477 28.1738 -65.625 L 29.1992 -58.3984 L 20.2148 -63.623 C 17.1875 -65.3809 13.7695 -64.5996 12.1094 -61.5723 C 10.3516 -58.5449 11.3281 -55.3223 14.4043 -53.5645 L 23.3887 -48.3887 L 16.6504 -45.7031 C 13.5254 -44.6289 12.0117 -41.7969 13.3789 -38.8672 C 14.5996 -36.2793 17.4316 -35.0098 20.4102 -36.6211 L 32.5195 -43.1152 L 37.9883 -39.9414 L 53.8574 -32.4219 L 37.9883 -24.8535 L 32.5195 -21.6797 L 20.4102 -28.1738 C 17.4316 -29.7363 14.5996 -28.5645 13.3789 -25.9277 C 12.0117 -22.9492 13.5254 -20.2148 16.6504 -19.1406 L 23.3887 -16.4062 L 14.4531 -11.2305 C 11.377 -9.52148 10.4004 -6.15234 12.1094 -3.22266 C 13.8672 -0.146484 17.1387 0.585938 20.2148 -1.17188 L 29.1992 -6.39648 L 28.1738 0.78125 C 27.5391 4.05273 29.1504 6.78711 32.4219 7.03125 Z"/>
  </g>
  <g id="Bold-L" transform="matrix(1 0 0 1 2278.97 1556)">
   <path d="M 31.7383 5.95703 C 34.1797 6.10352 36.2305 4.44336 36.2793 1.51367 L 36.6211 -12.6465 L 42.4316 -16.0156 L 57.373 -26.0742 L 56.1035 -8.1543 L 56.1035 -1.36719 L 43.9453 5.95703 C 41.4551 7.51953 41.0156 10.0586 42.3828 12.1094 C 43.9453 14.4531 46.6309 14.5508 48.877 12.793 L 56.1035 7.71484 L 56.1035 19.043 C 56.1035 22.0703 58.1055 24.2188 61.0352 24.2188 C 64.0137 24.2188 65.918 22.1191 65.918 19.043 L 65.918 7.71484 L 73.1445 12.793 C 75.3906 14.5996 78.0273 14.4531 79.5898 12.1582 C 81.0059 10.0586 80.5664 7.4707 78.0762 5.95703 L 65.918 -1.36719 L 65.918 -8.1543 L 64.6973 -25.9766 L 79.5898 -16.0156 L 85.4492 -12.5977 L 85.7422 1.51367 C 85.8398 4.44336 87.8418 6.15234 90.332 5.95703 C 93.1152 5.76172 94.5801 3.51562 94.1406 0.732422 L 93.3105 -8.05664 L 103.125 -2.39258 C 105.811 -0.878906 108.545 -1.51367 110.01 -4.10156 C 111.426 -6.64062 110.645 -9.47266 108.008 -10.9375 L 98.2422 -16.6016 L 106.299 -20.3125 C 108.887 -21.3867 110.156 -23.7305 108.887 -26.2695 C 107.764 -28.4668 105.371 -29.3945 102.783 -27.9785 L 90.332 -21.1426 L 84.4727 -24.5117 L 68.3594 -32.4219 L 84.4727 -40.2832 L 90.332 -43.6523 L 102.783 -36.8164 C 105.322 -35.4492 107.812 -36.377 108.936 -38.623 C 110.205 -41.1133 108.887 -43.5059 106.25 -44.5801 L 98.2422 -48.2422 L 108.057 -53.9062 C 110.693 -55.4688 111.523 -58.1543 110.059 -60.6934 C 108.594 -63.2324 105.762 -63.9648 103.125 -62.4023 L 93.3105 -56.7383 L 94.1406 -65.5273 C 94.5312 -68.3594 93.1152 -70.6543 90.332 -70.8008 C 87.8906 -70.9473 85.8398 -69.2871 85.7422 -66.4062 L 85.4004 -52.1484 L 79.5898 -48.7793 L 64.6973 -38.7695 L 65.918 -56.6895 L 65.918 -63.4766 L 78.0762 -70.8008 C 80.5664 -72.3145 81.0059 -74.9512 79.5898 -77.002 C 78.0762 -79.2969 75.3906 -79.4434 73.1445 -77.6855 L 65.918 -72.5586 L 65.918 -83.8867 C 65.918 -86.9629 64.0137 -89.0625 61.0352 -89.0625 C 58.1055 -89.0625 56.1035 -86.9141 56.1035 -83.8867 L 56.1035 -72.5586 L 48.877 -77.6855 C 46.6309 -79.3945 43.9453 -79.2969 42.3828 -77.002 C 41.0156 -74.9512 41.4551 -72.3633 43.9453 -70.8008 L 56.1035 -63.4766 L 56.1035 -56.6895 L 57.373 -38.7207 L 42.4316 -48.7793 L 36.5723 -52.1973 L 36.2793 -66.4062 C 36.2305 -69.2871 34.1309 -70.9473 31.7383 -70.8008 C 28.9062 -70.6543 27.4902 -68.3594 27.8809 -65.5762 L 28.6621 -56.7383 L 18.8965 -62.4023 C 16.3086 -63.916 13.4277 -63.2324 11.9629 -60.6934 C 10.498 -58.1543 11.3281 -55.3711 13.9648 -53.9062 L 23.7793 -48.2422 L 15.7715 -44.5801 C 13.1348 -43.5059 11.8652 -41.1133 13.1348 -38.5742 C 14.209 -36.377 16.6992 -35.4004 19.2871 -36.8164 L 31.6895 -43.6523 L 37.5488 -40.2832 L 53.6621 -32.4219 L 37.5488 -24.5117 L 31.6895 -21.1426 L 19.2383 -28.0273 C 16.6992 -29.3945 14.209 -28.4668 13.1348 -26.2695 C 11.8652 -23.6816 13.1348 -21.3867 15.7227 -20.3125 L 23.7793 -16.6016 L 14.0137 -10.9375 C 11.377 -9.47266 10.5469 -6.64062 11.9629 -4.10156 C 13.5254 -1.51367 16.2598 -0.878906 18.8965 -2.39258 L 28.6621 -8.05664 L 27.8809 0.683594 C 27.4414 3.51562 28.9062 5.81055 31.7383 5.95703 Z"/>
  </g>
  <g id="Semibold-L" transform="matrix(1 0 0 1 1983.4 1556)">
   <path d="M 31.25 5.22461 C 33.3984 5.32227 35.1562 3.75977 35.2051 1.17188 L 35.4004 -13.3301 L 41.5527 -16.8457 L 56.6895 -26.9531 L 55.5664 -8.78906 L 55.5664 -1.66016 L 43.0664 5.71289 C 40.8203 7.08008 40.3809 9.32617 41.5527 11.1816 C 42.8711 13.2812 45.2148 13.4277 47.2656 11.9629 L 55.5664 6.54297 L 55.5664 18.4082 C 55.5664 21.0938 57.3242 22.9492 59.8633 22.9492 C 62.5 22.9492 64.1602 21.0938 64.1602 18.4082 L 64.1602 6.5918 L 72.4121 11.9629 C 74.4629 13.4277 76.8066 13.2812 78.1738 11.1816 C 79.3945 9.32617 78.8574 7.03125 76.6113 5.71289 L 64.1602 -1.66016 L 64.1602 -8.78906 L 63.0371 -26.9043 L 78.2227 -16.8457 L 84.375 -13.2812 L 84.5215 1.17188 C 84.5703 3.75977 86.3281 5.32227 88.4766 5.22461 C 91.0156 5.12695 92.2852 3.125 92.041 0.634766 L 91.4551 -9.17969 L 101.758 -3.22266 C 104.102 -1.9043 106.543 -2.44141 107.812 -4.73633 C 109.082 -6.93359 108.35 -9.42383 106.055 -10.7422 L 95.752 -16.6504 L 104.59 -21.1426 C 106.885 -22.168 107.959 -24.2676 106.787 -26.4648 C 105.762 -28.418 103.564 -29.1992 101.318 -27.8809 L 88.623 -20.8008 L 82.4707 -24.3164 L 66.2109 -32.4219 L 82.5195 -40.5273 L 88.6719 -44.043 L 101.27 -36.9629 C 103.516 -35.6934 105.811 -36.4258 106.836 -38.3789 C 107.959 -40.625 106.885 -42.7734 104.59 -43.75 L 95.8008 -48.1934 L 106.055 -54.1016 C 108.398 -55.4688 109.131 -57.8125 107.812 -60.1074 C 106.543 -62.3535 104.102 -62.9883 101.758 -61.5723 L 91.5039 -55.6641 L 92.041 -65.5273 C 92.2852 -68.0176 91.0156 -70.0195 88.4766 -70.0684 C 86.3281 -70.166 84.5703 -68.6523 84.5215 -66.0645 L 84.3262 -51.5137 L 78.2227 -47.9492 L 63.0371 -37.8906 L 64.1602 -56.1035 L 64.1602 -63.1836 L 76.6113 -70.5566 C 78.8574 -71.9238 79.3457 -74.2188 78.1738 -76.0742 C 76.8066 -78.1738 74.4629 -78.3203 72.4121 -76.8066 L 64.1602 -71.4355 L 64.1602 -83.3008 C 64.1602 -85.9863 62.5 -87.8418 59.8633 -87.8418 C 57.3242 -87.8418 55.5664 -85.9375 55.5664 -83.3008 L 55.5664 -71.4355 L 47.2656 -76.8066 C 45.2148 -78.2715 42.9199 -78.1738 41.5527 -76.0254 C 40.3809 -74.2188 40.8203 -71.9238 43.0664 -70.6055 L 55.5664 -63.1836 L 55.5664 -56.1035 L 56.6895 -37.8906 L 41.5527 -47.9492 L 35.3516 -51.5137 L 35.2051 -66.0645 C 35.1562 -68.6523 33.3984 -70.166 31.25 -70.0684 C 28.7109 -69.9707 27.4414 -68.0176 27.6855 -65.5273 L 28.2227 -55.6641 L 17.9688 -61.5723 C 15.6738 -62.9395 13.1836 -62.3535 11.9141 -60.1074 C 10.5957 -57.8125 11.377 -55.4199 13.623 -54.1016 L 23.9258 -48.1934 L 15.1367 -43.75 C 12.8418 -42.7246 11.7676 -40.625 12.9395 -38.3789 C 13.916 -36.4258 16.2109 -35.6934 18.457 -36.9629 L 31.0547 -44.043 L 37.207 -40.5273 L 53.5156 -32.4219 L 37.2559 -24.3164 L 31.1035 -20.752 L 18.4082 -27.9297 C 16.1621 -29.1992 13.916 -28.418 12.9395 -26.4648 C 11.8164 -24.2188 12.8418 -22.168 15.1367 -21.1426 L 23.9258 -16.6504 L 13.6719 -10.7422 C 11.377 -9.42383 10.6445 -6.93359 11.9141 -4.73633 C 13.2324 -2.44141 15.6738 -1.95312 17.9688 -3.22266 L 28.2227 -9.17969 L 27.6855 0.634766 C 27.4414 3.125 28.7109 5.12695 31.25 5.22461 Z"/>
  </g>
  <g id="Medium-L" transform="matrix(1 0 0 1 1687.55 1556)">
   <path d="M 30.8594 4.6875 C 32.8125 4.73633 34.375 3.22266 34.4238 0.878906 L 34.4727 -13.8184 L 40.8203 -17.4805 L 56.2012 -27.5879 L 55.1758 -9.22852 L 55.1758 -1.9043 L 42.4316 5.51758 C 40.3809 6.73828 39.8926 8.78906 40.918 10.4492 C 42.0898 12.4023 44.1895 12.5488 46.0938 11.2793 L 55.1758 5.71289 L 55.1758 17.9199 C 55.127 20.3613 56.7383 22.0215 58.9844 22.0215 C 61.377 22.0215 62.8418 20.3613 62.8418 17.9199 L 62.8418 5.76172 L 71.8262 11.2793 C 73.7793 12.5488 75.8789 12.4023 77.0508 10.498 C 78.125 8.78906 77.5879 6.68945 75.5371 5.51758 L 62.8418 -1.9043 L 62.8418 -9.22852 L 61.8164 -27.5879 L 77.1484 -17.5293 L 83.5449 -13.8184 L 83.5938 0.878906 C 83.6426 3.22266 85.1562 4.73633 87.1094 4.6875 C 89.4043 4.58984 90.5762 2.83203 90.4297 0.585938 L 90.1367 -10.0098 L 100.732 -3.85742 C 102.832 -2.68555 104.98 -3.125 106.104 -5.22461 C 107.275 -7.17773 106.592 -9.42383 104.541 -10.5469 L 93.9453 -16.6992 L 103.32 -21.7285 C 105.371 -22.7539 106.299 -24.6582 105.176 -26.6113 C 104.199 -28.3691 102.197 -29.0039 100.195 -27.832 L 87.3047 -20.5078 L 80.957 -24.1699 L 64.5508 -32.4219 L 81.0059 -40.6738 L 87.4023 -44.3359 L 100.146 -37.0605 C 102.148 -35.9375 104.248 -36.4746 105.225 -38.2324 C 106.299 -40.2344 105.371 -42.1875 103.32 -43.1641 L 93.9941 -48.1934 L 104.59 -54.2969 C 106.689 -55.5176 107.324 -57.6172 106.152 -59.668 C 105.029 -61.6211 102.783 -62.207 100.732 -60.9375 L 90.1367 -54.834 L 90.4297 -65.4785 C 90.5762 -67.7734 89.4043 -69.4824 87.1094 -69.5312 C 85.1562 -69.5801 83.6426 -68.1152 83.5938 -65.7715 L 83.4961 -51.0254 L 77.1484 -47.3633 L 61.8164 -37.2559 L 62.8418 -55.6152 L 62.8418 -62.9883 L 75.5371 -70.4102 C 77.5879 -71.582 78.125 -73.6816 77.0508 -75.3906 C 75.8789 -77.2949 73.7793 -77.4414 71.8262 -76.1719 L 62.8418 -70.6055 L 62.8418 -82.8125 C 62.8418 -85.2539 61.377 -86.9141 58.9844 -86.9141 C 56.7383 -86.9141 55.127 -85.2539 55.1758 -82.8125 L 55.1758 -70.6055 L 46.0938 -76.1719 C 44.1895 -77.4414 42.0898 -77.2949 40.918 -75.3418 C 39.8926 -73.6816 40.3809 -71.6309 42.4316 -70.4102 L 55.1758 -62.9883 L 55.1758 -55.6152 L 56.2012 -37.207 L 40.8203 -47.3633 L 34.4727 -51.0254 L 34.4238 -65.7715 C 34.375 -68.1152 32.8125 -69.5801 30.8594 -69.5312 C 28.5645 -69.4824 27.4414 -67.7734 27.5391 -65.4785 L 27.832 -54.834 L 17.2852 -60.9375 C 15.2344 -62.1582 12.9883 -61.6211 11.8652 -59.668 C 10.6445 -57.6172 11.377 -55.4688 13.4277 -54.2969 L 23.9746 -48.1934 L 14.6973 -43.1641 C 12.5977 -42.1387 11.7188 -40.2832 12.793 -38.2324 C 13.6719 -36.4746 15.8203 -35.8887 17.8711 -37.0605 L 30.6152 -44.3359 L 36.9629 -40.6738 L 53.418 -32.4219 L 37.0117 -24.1699 L 30.6152 -20.459 L 17.8223 -27.832 C 15.7715 -29.0039 13.7207 -28.3691 12.8418 -26.6602 C 11.7676 -24.6094 12.5977 -22.7539 14.6484 -21.7285 L 24.0234 -16.6504 L 13.4277 -10.5469 C 11.377 -9.42383 10.6934 -7.17773 11.8652 -5.22461 C 13.0371 -3.125 15.2344 -2.73438 17.2852 -3.85742 L 27.8809 -10.0098 L 27.5391 0.585938 C 27.3926 2.83203 28.5645 4.58984 30.8594 4.6875 Z"/>
  </g>
  <g id="Regular-L" transform="matrix(1 0 0 1 1391.98 1556)">
   <path d="M 30.3711 3.95508 C 32.0801 3.95508 33.3496 2.53906 33.3496 0.488281 L 33.3008 -14.502 L 39.9414 -18.3105 L 55.5664 -28.4668 L 54.6387 -9.86328 L 54.6387 -2.19727 L 41.5527 5.27344 C 39.7461 6.29883 39.209 8.05664 40.0879 9.52148 C 41.0645 11.2305 42.8223 11.4258 44.5312 10.4492 L 54.6387 4.6875 L 54.6387 17.334 C 54.5898 19.3848 55.957 20.8008 57.8613 20.8008 C 59.9121 20.8008 61.1328 19.3848 61.1328 17.334 L 61.1328 4.73633 L 71.1426 10.4492 C 72.8516 11.4258 74.6094 11.2305 75.5859 9.52148 C 76.4648 8.05664 75.9277 6.25 74.1211 5.22461 L 61.1328 -2.19727 L 61.1328 -9.86328 L 60.1562 -28.4668 L 75.7812 -18.3594 L 82.4707 -14.502 L 82.373 0.488281 C 82.373 2.53906 83.6426 3.95508 85.3516 3.95508 C 87.3047 3.95508 88.3789 2.49023 88.3789 0.488281 L 88.4277 -11.0352 L 99.3652 -4.6875 C 101.123 -3.66211 102.979 -4.05273 103.955 -5.85938 C 104.932 -7.51953 104.346 -9.42383 102.588 -10.3516 L 91.6016 -16.6992 L 101.66 -22.5586 C 103.418 -23.5352 104.102 -25.1465 103.125 -26.8066 C 102.197 -28.3203 100.439 -28.7598 98.6816 -27.6855 L 85.6445 -20.1172 L 79.0039 -23.9258 L 62.4023 -32.4219 L 79.0527 -40.918 L 85.7422 -44.7754 L 98.6816 -37.207 C 100.391 -36.1816 102.246 -36.5723 103.125 -38.0371 C 104.102 -39.7461 103.369 -41.4062 101.66 -42.3828 L 91.6504 -48.1934 L 102.637 -54.4922 C 104.395 -55.5664 104.98 -57.3242 103.955 -59.082 C 102.979 -60.7422 101.123 -61.2305 99.3652 -60.1562 L 88.3789 -53.8086 L 88.3301 -65.4297 C 88.3301 -67.4316 87.3047 -68.8477 85.3516 -68.8477 C 83.6426 -68.7988 82.373 -67.4805 82.373 -65.4297 L 82.4219 -50.3906 L 75.7812 -46.5332 L 60.1562 -36.377 L 61.1328 -55.0293 L 61.1328 -62.7441 L 74.1211 -70.166 C 75.9277 -71.1426 76.4648 -72.9492 75.5859 -74.4629 C 74.6094 -76.123 72.8516 -76.3672 71.1426 -75.3418 L 61.1328 -69.6289 L 61.1328 -82.2266 C 61.1328 -84.2773 59.9121 -85.6934 57.8613 -85.6934 C 55.957 -85.6934 54.5898 -84.2773 54.6387 -82.2266 L 54.6387 -69.5801 L 44.5312 -75.3418 C 42.8223 -76.3184 41.0645 -76.123 40.0879 -74.4141 C 39.209 -72.9492 39.7461 -71.1914 41.5527 -70.166 L 54.6387 -62.7441 L 54.6387 -55.0293 L 55.5664 -36.377 L 39.9414 -46.5332 L 33.252 -50.3906 L 33.3496 -65.4297 C 33.3496 -67.4805 32.0801 -68.8477 30.4199 -68.8477 C 28.418 -68.8477 27.3926 -67.4316 27.3926 -65.4297 L 27.2949 -53.8574 L 16.3574 -60.1562 C 14.6484 -61.1816 12.7441 -60.7422 11.7676 -59.082 C 10.7422 -57.3242 11.377 -55.5176 13.0859 -54.4922 L 24.0234 -48.1934 L 14.0625 -42.3828 C 12.3047 -41.4062 11.6211 -39.8438 12.5977 -38.0371 C 13.4277 -36.5723 15.332 -36.1328 17.0898 -37.207 L 30.0293 -44.7266 L 36.6699 -40.918 L 53.3203 -32.4219 L 36.7188 -23.9258 L 30.0293 -20.1172 L 17.041 -27.6855 C 15.2832 -28.7598 13.4766 -28.3203 12.6465 -26.8555 C 11.6699 -25.0977 12.3047 -23.5352 14.0625 -22.5586 L 24.0723 -16.6504 L 13.1348 -10.3516 C 11.377 -9.42383 10.791 -7.51953 11.7676 -5.85938 C 12.793 -4.05273 14.6484 -3.71094 16.3574 -4.6875 L 27.2949 -11.0352 L 27.3438 0.488281 C 27.3438 2.49023 28.3691 3.95508 30.3711 3.95508 Z"/>
  </g>
  <g id="Light-L" transform="matrix(1 0 0 1 1095.37 1556)">
   <path d="M 30.2246 3.85742 C 31.6406 3.85742 32.666 2.68555 32.666 1.02539 L 32.6172 -14.8926 L 40.4785 -19.4336 L 55.957 -29.2969 L 55.1758 -10.9863 L 55.1758 -1.95312 L 41.2598 6.05469 C 39.7949 6.88477 39.4043 8.25195 40.0879 9.47266 C 40.8691 10.8887 42.2363 10.9863 43.6523 10.2051 L 55.1758 3.66211 L 55.1758 17.9688 C 55.127 19.6289 56.2012 20.8008 57.7637 20.8008 C 59.4238 20.8008 60.3516 19.6289 60.3516 17.9688 L 60.3516 3.71094 L 71.7285 10.2051 C 73.1445 11.0352 74.6094 10.8887 75.3906 9.52148 C 76.123 8.25195 75.6348 6.83594 74.2188 6.00586 L 60.3516 -1.9043 L 60.3516 -10.9863 L 59.6191 -29.248 L 75.0488 -19.4336 L 82.9102 -14.8926 L 82.8613 1.02539 C 82.8613 2.68555 83.8379 3.85742 85.2539 3.85742 C 86.8652 3.85742 87.6953 2.63672 87.6953 1.02539 L 87.7441 -12.1094 L 100.146 -4.93164 C 101.562 -4.15039 103.027 -4.39453 103.857 -5.85938 C 104.639 -7.12891 104.15 -8.69141 102.686 -9.42383 L 90.2832 -16.6016 L 101.758 -23.291 C 103.174 -24.1699 103.76 -25.4395 102.881 -26.7578 C 102.148 -27.9297 100.83 -28.3203 99.3652 -27.4902 L 85.4004 -19.4336 L 77.6367 -23.9258 L 61.377 -32.4219 L 77.6855 -40.918 L 85.5469 -45.459 L 99.3164 -37.4512 C 100.732 -36.6211 102.197 -36.8652 102.93 -38.1348 C 103.76 -39.502 103.125 -40.8691 101.709 -41.6504 L 90.3809 -48.2422 L 102.734 -55.3711 C 104.199 -56.25 104.639 -57.6172 103.857 -59.082 C 103.076 -60.4004 101.562 -60.791 100.146 -59.8633 L 87.7441 -52.6855 L 87.6465 -65.9668 C 87.6465 -67.627 86.8652 -68.75 85.2051 -68.7012 C 83.8379 -68.6523 82.8613 -67.627 82.8613 -65.9668 L 82.8613 -49.9023 L 75.0488 -45.4102 L 59.6191 -35.5957 L 60.3516 -53.9551 L 60.3516 -62.9883 L 74.2188 -70.8984 C 75.6348 -71.7773 76.123 -73.1934 75.3906 -74.4141 C 74.6094 -75.7812 73.1445 -75.9766 71.7285 -75.1465 L 60.3516 -68.6035 L 60.3516 -82.8613 C 60.3516 -84.5215 59.4238 -85.6934 57.7637 -85.6934 C 56.2012 -85.6934 55.127 -84.5215 55.1758 -82.8613 L 55.1758 -68.5547 L 43.6523 -75.1465 C 42.2363 -75.9277 40.8691 -75.7812 40.0879 -74.3652 C 39.4043 -73.1934 39.7949 -71.8262 41.2598 -70.9473 L 55.1758 -62.9395 L 55.1758 -53.9551 L 55.957 -35.5469 L 40.4785 -45.4102 L 32.6172 -49.9023 L 32.666 -65.9668 C 32.666 -67.627 31.6406 -68.7012 30.2734 -68.7012 C 28.6621 -68.7012 27.832 -67.627 27.832 -65.9668 L 27.7344 -52.7344 L 15.3809 -59.8633 C 13.9648 -60.7422 12.4023 -60.4004 11.6699 -59.082 C 10.8398 -57.6172 11.377 -56.2012 12.793 -55.3711 L 25.1465 -48.2422 L 13.8184 -41.6504 C 12.3535 -40.8203 11.7676 -39.5508 12.5488 -38.1348 C 13.2812 -36.8652 14.7949 -36.5723 16.2598 -37.4512 L 29.9805 -45.4102 L 37.8418 -40.918 L 54.1016 -32.4219 L 37.8906 -23.9258 L 30.0781 -19.3848 L 16.1621 -27.4902 C 14.6973 -28.3203 13.2812 -27.9785 12.6465 -26.8066 C 11.8652 -25.3418 12.3535 -24.1699 13.7695 -23.291 L 25.1953 -16.6016 L 12.8418 -9.42383 C 11.377 -8.69141 10.8887 -7.12891 11.6699 -5.85938 C 12.5 -4.39453 13.9648 -4.15039 15.3809 -4.93164 L 27.7832 -12.1094 L 27.7832 1.02539 C 27.7832 2.63672 28.6133 3.85742 30.2246 3.85742 Z"/>
  </g>
  <g id="Thin-L" transform="matrix(1 0 0 1 798.805 1556)">
   <path d="M 30.0293 3.71094 C 31.1035 3.71094 31.7871 2.88086 31.7871 1.70898 L 31.7383 -15.4785 L 41.1621 -20.8984 L 56.3965 -30.3223 L 55.957 -12.4512 L 55.957 -1.66016 L 40.8691 7.08008 C 39.8926 7.71484 39.5996 8.54492 40.0391 9.375 C 40.625 10.4004 41.5527 10.4492 42.5293 9.91211 L 55.957 2.29492 L 55.957 18.7988 C 55.8594 19.9707 56.5918 20.8008 57.6172 20.8008 C 58.7402 20.8008 59.375 19.9707 59.375 18.7988 L 59.375 2.34375 L 72.5586 9.91211 C 73.584 10.5469 74.5605 10.4004 75.0977 9.47266 C 75.6348 8.54492 75.293 7.61719 74.2676 7.03125 L 59.375 -1.5625 L 59.375 -12.4512 L 58.8867 -30.2734 L 74.0723 -20.8984 L 83.4961 -15.4785 L 83.4961 1.70898 C 83.4961 2.88086 84.1309 3.71094 85.2051 3.71094 C 86.2305 3.71094 86.8652 2.88086 86.8652 1.70898 L 86.8652 -13.5254 L 101.123 -5.27344 C 102.148 -4.73633 103.174 -4.83398 103.711 -5.85938 C 104.248 -6.68945 103.906 -7.76367 102.832 -8.25195 L 88.5254 -16.5039 L 101.855 -24.3164 C 102.881 -24.9512 103.223 -25.7812 102.637 -26.6602 C 102.051 -27.4414 101.27 -27.7832 100.244 -27.1484 L 85.0586 -18.5059 L 75.7812 -23.877 L 60.0586 -32.373 L 75.8301 -40.918 L 85.2539 -46.3379 L 100.146 -37.7441 C 101.123 -37.207 102.148 -37.3047 102.686 -38.2324 C 103.223 -39.1602 102.783 -40.1367 101.807 -40.6738 L 88.623 -48.291 L 102.881 -56.4941 C 103.906 -57.1289 104.248 -58.0566 103.711 -59.082 C 103.223 -59.9121 102.148 -60.2051 101.123 -59.4727 L 86.8652 -51.2207 L 86.7676 -66.6992 C 86.7676 -67.8711 86.2305 -68.6035 85.0586 -68.5059 C 84.1309 -68.457 83.4961 -67.8711 83.4961 -66.6992 L 83.3984 -49.2676 L 74.0723 -43.8965 L 58.8867 -34.5215 L 59.375 -52.4902 L 59.375 -63.3301 L 74.2676 -71.9238 C 75.293 -72.5586 75.6348 -73.4863 75.0977 -74.3652 C 74.5605 -75.293 73.584 -75.4395 72.5586 -74.8535 L 59.375 -67.2363 L 59.375 -83.6914 C 59.375 -84.8633 58.7402 -85.6934 57.6172 -85.6934 C 56.5918 -85.6934 55.8594 -84.8633 55.957 -83.6914 L 55.957 -67.1875 L 42.5293 -74.8535 C 41.5527 -75.3906 40.625 -75.293 40.0391 -74.3164 C 39.5996 -73.4863 39.8926 -72.6074 40.8691 -71.9727 L 55.957 -63.2812 L 55.957 -52.4902 L 56.3965 -34.4238 L 41.1621 -43.8965 L 31.7383 -49.3164 L 31.7871 -66.6992 C 31.7871 -67.8711 31.1035 -68.5059 30.127 -68.5059 C 29.0039 -68.5059 28.4668 -67.8711 28.4668 -66.6992 L 28.3691 -51.2207 L 14.1113 -59.4727 C 13.0859 -60.2051 12.0117 -59.9121 11.5234 -59.082 C 10.9863 -58.0566 11.3281 -57.1289 12.3535 -56.4941 L 26.6113 -48.291 L 13.4277 -40.6738 C 12.4023 -40.0391 12.0117 -39.209 12.5488 -38.2324 C 13.0859 -37.3047 14.1113 -37.1094 15.1855 -37.7441 L 29.9805 -46.3379 L 39.4043 -40.918 L 55.2246 -32.373 L 39.4531 -23.877 L 30.127 -18.457 L 15.0391 -27.1484 C 13.9648 -27.7832 13.0859 -27.4902 12.6465 -26.709 C 12.1094 -25.6836 12.4023 -24.9512 13.3789 -24.3164 L 26.709 -16.5039 L 12.4023 -8.25195 C 11.3281 -7.76367 10.9863 -6.68945 11.5234 -5.85938 C 12.1094 -4.83398 13.0859 -4.73633 14.1113 -5.27344 L 28.3691 -13.5254 L 28.418 1.70898 C 28.418 2.88086 28.9551 3.71094 30.0293 3.71094 Z"/>
  </g>
  <g id="Ultralight-L" transform="matrix(1 0 0 1 502.167 1556)">
   <path d="M 29.9805 3.61328 C 30.8105 3.61328 31.2988 2.97852 31.2988 2.05078 L 31.2988 -15.7715 L 41.5039 -21.6309 L 56.6406 -30.8594 L 56.2988 -13.1836 L 56.2988 -1.46484 L 40.6738 7.61719 C 39.8926 8.10547 39.6973 8.69141 40.0391 9.32617 C 40.4785 10.1074 41.1621 10.2051 41.9434 9.76562 L 56.2988 1.5625 L 56.2988 19.2383 C 56.25 20.166 56.7871 20.8008 57.5684 20.8008 C 58.3984 20.8008 58.8867 20.166 58.8867 19.2383 L 58.8867 1.61133 L 72.998 9.76562 C 73.7793 10.3027 74.5605 10.1074 74.9512 9.42383 C 75.3906 8.69141 75.0977 8.00781 74.3164 7.51953 L 58.8867 -1.36719 L 58.8867 -13.1836 L 58.5449 -30.7617 L 73.584 -21.6309 L 83.7891 -15.7715 L 83.7891 2.05078 C 83.7891 2.97852 84.2773 3.61328 85.1562 3.61328 C 85.8887 3.61328 86.4258 2.97852 86.4258 2.05078 L 86.377 -14.2578 L 101.66 -5.41992 C 102.441 -5.0293 103.223 -5.07812 103.613 -5.85938 C 104.053 -6.44531 103.76 -7.27539 102.881 -7.61719 L 87.5977 -16.4551 L 101.904 -24.8047 C 102.686 -25.3418 102.979 -25.9277 102.49 -26.6602 C 102.051 -27.1973 101.514 -27.4902 100.684 -27.002 L 84.8633 -18.0176 L 74.8047 -23.8281 L 59.3262 -32.373 L 74.9023 -40.918 L 85.1074 -46.7773 L 100.586 -37.9395 C 101.367 -37.5 102.1 -37.5488 102.539 -38.2812 C 102.979 -38.9648 102.637 -39.7461 101.855 -40.1855 L 87.7441 -48.291 L 102.979 -57.1289 C 103.76 -57.6172 104.053 -58.3008 103.613 -59.082 C 103.32 -59.668 102.441 -59.9121 101.66 -59.3262 L 86.377 -50.4883 L 86.3281 -67.041 C 86.3281 -67.9688 85.8887 -68.5059 84.9609 -68.457 C 84.2773 -68.3594 83.7891 -67.9688 83.7891 -67.041 L 83.6914 -48.9258 L 73.584 -43.1152 L 58.5449 -33.9355 L 58.8867 -51.709 L 58.8867 -63.5254 L 74.3164 -72.4121 C 75.0977 -72.9492 75.3906 -73.6328 74.9512 -74.3652 C 74.5605 -75.0488 73.7793 -75.1953 72.998 -74.707 L 58.8867 -66.5527 L 58.8867 -84.1309 C 58.8867 -85.0586 58.3984 -85.6934 57.5684 -85.6934 C 56.7871 -85.6934 56.25 -85.0586 56.2988 -84.1309 L 56.2988 -66.4551 L 41.9434 -74.707 C 41.1621 -75.0977 40.4785 -75.0488 40.0391 -74.2676 C 39.6973 -73.6328 39.8926 -73.0469 40.6738 -72.5098 L 56.2988 -63.4277 L 56.2988 -51.709 L 56.6406 -33.8867 L 41.5039 -43.1152 L 31.2988 -48.9746 L 31.2988 -67.041 C 31.2988 -67.9688 30.8105 -68.457 30.0293 -68.457 C 29.1992 -68.457 28.8086 -67.9688 28.8086 -67.041 L 28.7109 -50.4883 L 13.4277 -59.3262 C 12.6465 -59.9121 11.8164 -59.668 11.4746 -59.082 C 11.0352 -58.3008 11.3281 -57.6172 12.1094 -57.1289 L 27.3926 -48.291 L 13.2812 -40.1855 C 12.4023 -39.6484 12.1094 -39.0625 12.5488 -38.2812 C 12.9883 -37.5488 13.7695 -37.4023 14.5996 -37.9395 L 29.9805 -46.7773 L 40.1855 -40.918 L 55.7617 -32.373 L 40.2832 -23.8281 L 30.127 -17.9688 L 14.4531 -27.002 C 13.5742 -27.4902 12.9883 -27.2949 12.6465 -26.6602 C 12.207 -25.8789 12.4023 -25.3418 13.1836 -24.8047 L 27.4902 -16.4551 L 12.207 -7.61719 C 11.3281 -7.27539 11.0352 -6.44531 11.4746 -5.85938 C 11.8652 -5.07812 12.6465 -5.0293 13.4277 -5.41992 L 28.7109 -14.2578 L 28.7109 2.05078 C 28.7109 2.97852 29.1016 3.61328 29.9805 3.61328 Z"/>
  </g>
  <g id="Black-M" transform="matrix(1 0 0 1 2881.72 1126)">
   <path d="M 26.416 -0.488281 C 29.248 -0.195312 31.7871 -1.75781 31.9824 -5.0293 L 32.6172 -15.332 L 36.7188 -17.7246 L 47.168 -25.1465 L 45.8984 -12.4023 L 45.8984 -7.61719 L 37.3047 -1.9043 C 34.5215 -0.0976562 34.4238 2.88086 36.1328 5.12695 C 38.0371 7.66602 41.2109 7.56836 43.5547 5.22461 L 45.8984 2.88086 L 45.8984 9.52148 C 45.8984 13.1348 48.291 15.6738 51.709 15.6738 C 55.127 15.6738 57.4707 13.1836 57.4707 9.52148 L 57.4707 2.88086 L 59.8145 5.22461 C 62.1582 7.56836 65.2832 7.66602 67.2363 5.12695 C 68.9941 2.88086 68.8477 -0.0976562 66.0645 -1.9043 L 57.4707 -7.61719 L 57.4707 -12.4023 L 56.25 -25 L 66.6504 -17.627 L 70.8008 -15.2344 L 71.4355 -5.0293 C 71.6309 -1.70898 74.1211 -0.146484 76.9531 -0.488281 C 80.127 -0.976562 81.6895 -3.66211 80.7617 -6.78711 L 79.8828 -10.0098 L 85.6445 -6.68945 C 88.8184 -4.83398 92.0898 -5.66406 93.7988 -8.69141 C 95.4102 -11.6211 94.5312 -14.9902 91.4551 -16.748 L 85.6934 -20.0684 L 88.916 -20.8984 C 91.9922 -21.7285 93.7012 -24.4141 92.4805 -27.4414 C 91.4062 -30.0293 88.7695 -31.3965 85.791 -29.8828 L 76.6113 -25.3418 L 72.4609 -27.7344 L 60.8398 -33.0078 L 72.4609 -38.2812 L 76.5625 -40.6738 L 85.791 -36.084 C 88.7695 -34.6191 91.4062 -36.0352 92.5293 -38.6719 C 93.75 -41.5527 92.0898 -44.3359 88.916 -45.1172 L 85.6934 -45.9473 L 91.4551 -49.2676 C 94.5801 -51.123 95.5566 -54.3457 93.8477 -57.2754 C 92.1387 -60.3027 88.7695 -61.1328 85.6445 -59.375 L 79.9316 -56.0059 L 80.7617 -59.1797 C 81.6895 -62.3535 80.127 -65.1367 76.9531 -65.5273 C 74.2188 -65.8203 71.6309 -64.2578 71.4355 -61.0352 L 70.752 -50.6836 L 66.6504 -48.291 L 56.25 -40.918 L 57.4707 -53.6133 L 57.4707 -58.3984 L 66.0645 -64.1113 C 68.8477 -65.9668 68.9453 -68.8965 67.2363 -71.1426 C 65.332 -73.6816 62.1582 -73.6328 59.8145 -71.2891 L 57.4707 -68.8965 L 57.4707 -75.5859 C 57.4707 -79.248 55.127 -81.6895 51.709 -81.6895 C 48.291 -81.6895 45.8984 -79.1504 45.8984 -75.5859 L 45.8984 -68.8965 L 43.5547 -71.2891 C 41.2109 -73.6328 38.0859 -73.6816 36.1328 -71.1426 C 34.375 -68.8965 34.5215 -65.9668 37.3047 -64.1113 L 45.8984 -58.3984 L 45.8984 -53.6133 L 47.168 -40.8203 L 36.7188 -48.291 L 32.5684 -50.6836 L 31.9824 -61.0352 C 31.7871 -64.2578 29.1992 -65.8203 26.416 -65.5273 C 23.291 -65.1367 21.7773 -62.3047 22.6074 -59.2285 L 23.4863 -56.0059 L 17.7246 -59.375 C 14.6484 -61.1328 11.2305 -60.3027 9.52148 -57.2754 C 7.8125 -54.3457 8.78906 -51.0742 11.8652 -49.2676 L 17.6758 -45.9473 L 14.4531 -45.1172 C 11.3281 -44.3359 9.66797 -41.5039 10.9375 -38.5742 C 12.0605 -36.0352 14.5996 -34.5703 17.5781 -36.084 L 26.7578 -40.6738 L 30.9082 -38.2812 L 42.5293 -33.0078 L 30.9082 -27.7344 L 26.8066 -25.3418 L 17.5781 -29.9805 C 14.5996 -31.3965 11.9629 -30.0293 10.8398 -27.3926 C 9.61914 -24.4629 11.3281 -21.7285 14.4531 -20.8984 L 17.6758 -20.0684 L 11.9141 -16.748 C 8.83789 -14.9902 7.8125 -11.6211 9.52148 -8.69141 C 11.2793 -5.66406 14.5508 -4.83398 17.7246 -6.68945 L 23.4863 -10.0098 L 22.6074 -6.88477 C 21.6797 -3.66211 23.291 -0.878906 26.416 -0.488281 Z"/>
  </g>
  <g id="Heavy-M" transform="matrix(1 0 0 1 2586.59 1126)">
   <path d="M 25.7324 -1.51367 C 28.2715 -1.26953 30.4688 -2.7832 30.6152 -5.66406 L 31.1523 -16.2109 L 35.3027 -18.6035 L 46.1426 -26.1719 L 44.9707 -12.9883 L 44.9707 -8.1543 L 36.1328 -2.49023 C 33.6426 -0.878906 33.4473 1.75781 34.9121 3.80859 C 36.5723 6.05469 39.4043 6.05469 41.5527 4.05273 L 44.9707 0.976562 L 44.9707 8.49609 C 44.9707 11.6699 47.0703 13.8672 50.0977 13.8672 C 53.1738 13.8672 55.1758 11.7188 55.1758 8.49609 L 55.1758 1.02539 L 58.6426 4.05273 C 60.7422 6.05469 63.5254 6.05469 65.2344 3.80859 C 66.748 1.75781 66.5039 -0.878906 64.0137 -2.49023 L 55.1758 -8.1543 L 55.1758 -12.9883 L 54.0527 -26.0742 L 64.8926 -18.5547 L 69.0918 -16.1133 L 69.5801 -5.66406 C 69.7266 -2.73438 71.9238 -1.2207 74.4141 -1.51367 C 77.2461 -1.85547 78.6621 -4.24805 77.9785 -7.03125 L 77.002 -11.5234 L 83.4961 -7.8125 C 86.2793 -6.20117 89.1602 -6.88477 90.6738 -9.57031 C 92.1387 -12.207 91.3574 -15.1367 88.623 -16.6992 L 82.1289 -20.4102 L 86.5234 -21.875 C 89.209 -22.7051 90.6738 -25.0977 89.502 -27.7344 C 88.5254 -30.0293 86.1328 -31.2012 83.4961 -29.834 L 74.1699 -25 L 69.9707 -27.4414 L 58.0078 -33.0078 L 69.9707 -38.623 L 74.1699 -41.0156 L 83.4961 -36.1816 C 86.1328 -34.8633 88.5254 -36.0352 89.5508 -38.3789 C 90.7227 -40.918 89.2578 -43.3594 86.5234 -44.1895 L 82.1777 -45.6543 L 88.623 -49.3652 C 91.4062 -50.9766 92.2363 -53.8086 90.7227 -56.4453 C 89.209 -59.082 86.2305 -59.8145 83.4961 -58.252 L 77.0508 -54.4922 L 77.9785 -58.9844 C 78.6621 -61.8164 77.2461 -64.2578 74.4141 -64.5508 C 71.9727 -64.7949 69.7266 -63.2812 69.5801 -60.4004 L 69.043 -49.8535 L 64.8926 -47.4121 L 54.0527 -39.8926 L 55.1758 -53.0762 L 55.1758 -57.9102 L 64.0137 -63.5742 C 66.5039 -65.1855 66.6992 -67.8223 65.2344 -69.873 C 63.5742 -72.1191 60.7422 -72.1191 58.6426 -70.1172 L 55.1758 -67.0898 L 55.1758 -74.5605 C 55.1758 -77.7832 53.1738 -79.9316 50.0977 -79.9316 C 47.0703 -79.9316 44.9707 -77.7344 44.9707 -74.5605 L 44.9707 -67.041 L 41.5527 -70.1172 C 39.4043 -72.1191 36.6211 -72.1191 34.9121 -69.873 C 33.3984 -67.8223 33.6426 -65.1855 36.1328 -63.5742 L 44.9707 -57.9102 L 44.9707 -53.0762 L 46.1426 -39.8438 L 35.3027 -47.4121 L 31.1035 -49.8535 L 30.6152 -60.4004 C 30.4688 -63.2812 28.2227 -64.7949 25.7324 -64.5508 C 22.9492 -64.2578 21.582 -61.7676 22.2168 -59.0332 L 23.1445 -54.4922 L 16.6504 -58.252 C 13.916 -59.8145 10.9375 -59.082 9.42383 -56.4453 C 7.91016 -53.8086 8.78906 -50.9277 11.4746 -49.3652 L 18.0176 -45.6055 L 13.6719 -44.1895 C 10.8887 -43.3594 9.47266 -40.8691 10.6445 -38.3301 C 11.6699 -36.0352 14.0625 -34.8145 16.6504 -36.1816 L 25.9766 -41.0156 L 30.1758 -38.623 L 42.1387 -33.0078 L 30.1758 -27.4414 L 26.0254 -25.0488 L 16.6504 -29.8828 C 14.0137 -31.2012 11.6211 -30.0293 10.5957 -27.6855 C 9.47266 -25.1465 10.8887 -22.7051 13.6719 -21.875 L 18.0176 -20.4102 L 11.5723 -16.6992 C 8.83789 -15.1367 7.95898 -12.207 9.42383 -9.57031 C 10.9863 -6.88477 13.8672 -6.20117 16.6504 -7.8125 L 23.1445 -11.5723 L 22.2168 -7.08008 C 21.5332 -4.24805 22.9492 -1.80664 25.7324 -1.51367 Z"/>
  </g>
  <g id="Bold-M" transform="matrix(1 0 0 1 2291.69 1126)">
   <path d="M 25 -2.63672 C 27.1484 -2.49023 29.0039 -3.90625 29.1016 -6.44531 L 29.4434 -17.1387 L 33.6914 -19.6289 L 45.0195 -27.3438 L 43.9453 -13.6719 L 43.9453 -8.74023 L 34.8145 -3.07617 C 32.666 -1.75781 32.373 0.537109 33.5938 2.29492 C 34.9609 4.29688 37.3535 4.3457 39.2578 2.7832 L 43.9453 -0.830078 L 43.9453 7.32422 C 43.9453 10.0098 45.752 11.9141 48.291 11.9141 C 50.9277 11.9141 52.6367 10.0586 52.6367 7.32422 L 52.6367 -0.830078 L 57.2754 2.7832 C 59.2285 4.39453 61.5723 4.29688 62.9883 2.29492 C 64.2578 0.537109 63.916 -1.75781 61.7676 -3.125 L 52.6367 -8.74023 L 52.6367 -13.6719 L 51.5625 -27.2949 L 62.8906 -19.5801 L 67.1875 -17.0898 L 67.4805 -6.44531 C 67.5781 -3.85742 69.4336 -2.44141 71.582 -2.63672 C 74.0234 -2.88086 75.2441 -4.88281 74.8047 -7.32422 L 74.0234 -13.1348 L 81.1035 -9.0332 C 83.4961 -7.66602 85.9375 -8.25195 87.207 -10.5469 C 88.4277 -12.793 87.7441 -15.2832 85.4492 -16.6016 L 78.3691 -20.7031 L 83.8379 -22.9492 C 86.1328 -23.7793 87.3047 -25.8301 86.2305 -28.0762 C 85.3027 -30.0293 83.2031 -30.957 80.957 -29.7363 L 71.5332 -24.6582 L 67.2363 -27.1484 L 54.8828 -33.0566 L 67.2363 -38.9648 L 71.5332 -41.4062 L 80.957 -36.3281 C 83.2031 -35.1562 85.3516 -36.0352 86.2793 -38.0371 C 87.3535 -40.2344 86.1816 -42.334 83.8379 -43.1641 L 78.418 -45.4102 L 85.4492 -49.4629 C 87.793 -50.8789 88.5254 -53.2227 87.207 -55.5176 C 85.9375 -57.7637 83.4473 -58.3984 81.1035 -57.0312 L 74.0234 -52.9297 L 74.8047 -58.7402 C 75.2441 -61.2305 74.0234 -63.2324 71.582 -63.4277 C 69.4336 -63.5742 67.5781 -62.207 67.4805 -59.668 L 67.1387 -48.9258 L 62.8906 -46.4844 L 51.5625 -38.7695 L 52.6367 -52.4414 L 52.6367 -57.373 L 61.7676 -62.9883 C 63.916 -64.3555 64.209 -66.6016 62.9883 -68.4082 C 61.6211 -70.4102 59.2285 -70.459 57.2754 -68.8477 L 52.6367 -65.2832 L 52.6367 -73.4375 C 52.6367 -76.1719 50.9277 -78.0273 48.291 -78.0273 C 45.752 -78.0273 43.9453 -76.123 43.9453 -73.4375 L 43.9453 -65.2832 L 39.2578 -68.8477 C 37.3535 -70.459 35.0098 -70.4102 33.5938 -68.4082 C 32.3242 -66.6016 32.666 -64.3555 34.8145 -62.9883 L 43.9453 -57.373 L 43.9453 -52.4414 L 45.0195 -38.7207 L 33.6914 -46.4844 L 29.3945 -48.9746 L 29.1016 -59.668 C 29.0039 -62.207 27.1484 -63.5742 25 -63.4277 C 22.5586 -63.2324 21.3379 -61.1816 21.7773 -58.7891 L 22.5586 -52.9297 L 15.4785 -57.0312 C 13.1836 -58.3496 10.6445 -57.7637 9.375 -55.5176 C 8.05664 -53.2227 8.78906 -50.7812 11.084 -49.4629 L 18.2129 -45.4102 L 12.7441 -43.1641 C 10.4004 -42.334 9.27734 -40.2344 10.3516 -37.9883 C 11.2793 -36.0352 13.3789 -35.1074 15.625 -36.3281 L 25.0488 -41.4062 L 29.3457 -38.9648 L 41.6992 -33.0566 L 29.3457 -27.1484 L 25.0977 -24.6582 L 15.625 -29.7363 C 13.3789 -30.957 11.2305 -30.0293 10.3516 -28.0762 C 9.27734 -25.8301 10.4004 -23.7793 12.7441 -22.9492 L 18.2129 -20.7031 L 11.1328 -16.6016 C 8.83789 -15.2832 8.05664 -12.793 9.375 -10.5469 C 10.6934 -8.25195 13.1348 -7.71484 15.4785 -9.0332 L 22.5586 -13.1348 L 21.7773 -7.37305 C 21.3379 -4.88281 22.5586 -2.83203 25 -2.63672 Z"/>
  </g>
  <g id="Semibold-M" transform="matrix(1 0 0 1 1996.2 1126)">
   <path d="M 24.5117 -3.41797 C 26.416 -3.32031 27.9785 -4.6875 28.0273 -6.93359 L 28.2715 -17.7734 L 32.5684 -20.3125 L 44.2383 -28.125 L 43.2617 -14.1602 L 43.2617 -9.13086 L 33.9355 -3.51562 C 31.9824 -2.34375 31.6406 -0.341797 32.666 1.26953 C 33.8867 3.125 35.9375 3.17383 37.6953 1.85547 L 43.2617 -1.95312 L 43.2617 6.54297 C 43.2617 8.88672 44.8242 10.5469 47.0703 10.5469 C 49.4141 10.5469 50.8789 8.93555 50.8789 6.54297 L 50.8789 -1.95312 L 56.3965 1.85547 C 58.1543 3.22266 60.2051 3.125 61.4258 1.26953 C 62.5 -0.341797 62.1094 -2.34375 60.1562 -3.51562 L 50.8789 -9.13086 L 50.8789 -14.1602 L 49.9023 -28.0762 L 61.5234 -20.3125 L 65.918 -17.7734 L 66.0645 -6.93359 C 66.1133 -4.63867 67.6758 -3.32031 69.6289 -3.41797 C 71.8262 -3.56445 72.9492 -5.32227 72.6562 -7.51953 L 72.0703 -14.209 L 79.4434 -9.91211 C 81.543 -8.74023 83.6914 -9.22852 84.8145 -11.2305 C 85.8887 -13.1836 85.3027 -15.4297 83.252 -16.5527 L 75.8789 -20.8008 L 81.9824 -23.6816 C 83.9844 -24.5117 84.9609 -26.3672 83.9844 -28.3203 C 83.1055 -30.0293 81.2012 -30.7617 79.1992 -29.6387 L 69.6777 -24.3652 L 65.332 -26.9043 L 52.7344 -33.0566 L 65.332 -39.209 L 69.6777 -41.6992 L 79.1992 -36.4258 C 81.1523 -35.3516 83.1543 -36.0352 84.0332 -37.793 C 85.0098 -39.7461 83.9844 -41.6016 81.9824 -42.4316 L 75.9277 -45.3125 L 83.252 -49.5605 C 85.3516 -50.7812 85.9863 -52.832 84.8145 -54.834 C 83.6914 -56.8359 81.4941 -57.373 79.4434 -56.1523 L 72.0703 -51.9043 L 72.6562 -58.5938 C 72.9492 -60.791 71.8262 -62.5488 69.6289 -62.6953 C 67.7246 -62.7441 66.1133 -61.4258 66.0645 -59.1797 L 65.8691 -48.291 L 61.5234 -45.8008 L 49.9023 -37.9883 L 50.8789 -52.002 L 50.8789 -56.9824 L 60.1562 -62.5977 C 62.1094 -63.7695 62.5 -65.7715 61.4258 -67.3828 C 60.2539 -69.2383 58.1543 -69.3359 56.3965 -67.9688 L 50.8789 -64.1602 L 50.8789 -72.6562 C 50.8789 -75.0488 49.4141 -76.6602 47.0703 -76.6602 C 44.8242 -76.6602 43.2617 -75 43.2617 -72.6562 L 43.2617 -64.1602 L 37.6953 -67.9688 C 35.9375 -69.3359 33.8867 -69.2383 32.666 -67.3828 C 31.5918 -65.7715 31.9824 -63.7695 33.9355 -62.5977 L 43.2617 -56.9824 L 43.2617 -52.002 L 44.2383 -37.9395 L 32.5684 -45.8008 L 28.2227 -48.3398 L 28.0273 -59.1797 C 27.9785 -61.4258 26.416 -62.793 24.5117 -62.6953 C 22.3145 -62.5488 21.1914 -60.791 21.4844 -58.6426 L 22.0215 -51.9043 L 14.6484 -56.1523 C 12.6465 -57.3242 10.4004 -56.8359 9.27734 -54.834 C 8.1543 -52.832 8.78906 -50.6836 10.8398 -49.5605 L 18.2129 -45.3125 L 12.1582 -42.4316 C 10.1074 -41.6016 9.13086 -39.7461 10.1074 -37.7441 C 10.9863 -36.0352 12.9395 -35.3516 14.9414 -36.4258 L 24.4141 -41.6992 L 28.7598 -39.209 L 41.3574 -33.0566 L 28.7598 -26.9043 L 24.4141 -24.3652 L 14.9414 -29.6875 C 12.9395 -30.7617 10.9863 -30.0781 10.1562 -28.3203 C 9.17969 -26.3672 10.1074 -24.5117 12.1094 -23.6816 L 18.2129 -20.8008 L 10.8398 -16.5527 C 8.83789 -15.4297 8.1543 -13.1836 9.27734 -11.2305 C 10.498 -9.22852 12.5977 -8.74023 14.6484 -9.91211 L 22.0215 -14.209 L 21.4844 -7.51953 C 21.1914 -5.32227 22.3145 -3.56445 24.5117 -3.41797 Z"/>
  </g>
  <g id="Medium-M" transform="matrix(1 0 0 1 1700.44 1126)">
   <path d="M 24.1211 -4.05273 C 25.8301 -3.95508 27.1973 -5.27344 27.2461 -7.32422 L 27.3438 -18.2617 L 31.7383 -20.8008 L 43.6523 -28.7598 L 42.7246 -14.502 L 42.7246 -9.375 L 33.252 -3.85742 C 31.4453 -2.7832 31.0547 -0.976562 31.9824 0.488281 C 33.0078 2.19727 34.8633 2.29492 36.5234 1.17188 L 42.7246 -2.73438 L 42.7246 5.95703 C 42.7246 8.05664 44.0918 9.52148 46.1426 9.52148 C 48.2422 9.52148 49.5117 8.05664 49.5117 5.95703 L 49.5117 -2.73438 L 55.6641 1.17188 C 57.3242 2.29492 59.1797 2.19727 60.2539 0.488281 C 61.1816 -0.976562 60.7422 -2.83203 58.9844 -3.85742 L 49.5117 -9.42383 L 49.5117 -14.502 L 48.6328 -28.7109 L 60.498 -20.8496 L 64.9414 -18.2617 L 64.9902 -7.32422 C 65.0391 -5.27344 66.4062 -3.95508 68.1152 -4.05273 C 70.1172 -4.10156 71.1426 -5.66406 70.9961 -7.66602 L 70.6543 -14.9414 L 78.2227 -10.5957 C 80.0781 -9.52148 81.9824 -9.96094 82.959 -11.7676 C 83.9844 -13.5254 83.3984 -15.4785 81.5918 -16.5039 L 74.0723 -20.8496 L 80.5664 -24.2188 C 82.373 -25.0977 83.2031 -26.7578 82.2754 -28.5156 C 81.3965 -30.0781 79.6387 -30.6152 77.8809 -29.5898 L 68.3105 -24.1699 L 63.916 -26.709 L 51.0742 -33.0566 L 63.916 -39.4043 L 68.3105 -41.9434 L 77.832 -36.5234 C 79.6387 -35.498 81.4453 -36.0352 82.2754 -37.5977 C 83.2031 -39.3555 82.373 -41.0645 80.5664 -41.8945 L 74.0723 -45.2637 L 81.6406 -49.6094 C 83.4473 -50.6836 84.0332 -52.5391 83.0078 -54.3457 C 81.9824 -56.1035 80.0293 -56.6406 78.2227 -55.5176 L 70.6543 -51.1719 L 70.9961 -58.4961 C 71.1426 -60.498 70.1172 -62.0605 68.1152 -62.1094 C 66.4062 -62.1582 65.0391 -60.8887 64.9902 -58.8379 L 64.8926 -47.8516 L 60.498 -45.3125 L 48.6328 -37.3535 L 49.5117 -51.6602 L 49.5117 -56.7383 L 58.9844 -62.2559 C 60.7422 -63.3301 61.1816 -65.1855 60.2539 -66.6504 C 59.1797 -68.3105 57.3242 -68.457 55.6641 -67.334 L 49.5117 -63.3789 L 49.5117 -72.0703 C 49.5117 -74.2188 48.2422 -75.6836 46.1426 -75.6836 C 44.0918 -75.6836 42.7246 -74.1699 42.7246 -72.0703 L 42.7246 -63.3789 L 36.5234 -67.334 C 34.8633 -68.457 33.0566 -68.3105 31.9824 -66.6504 C 31.0547 -65.1855 31.4453 -63.3301 33.252 -62.3047 L 42.7246 -56.7383 L 42.7246 -51.6602 L 43.6523 -37.3535 L 31.7383 -45.3125 L 27.2949 -47.8516 L 27.2461 -58.8379 C 27.1973 -60.8887 25.8301 -62.1582 24.1211 -62.1094 C 22.1191 -62.0117 21.0938 -60.498 21.2402 -58.4961 L 21.5332 -51.1719 L 14.0137 -55.5176 C 12.2559 -56.5918 10.2539 -56.1035 9.22852 -54.3457 C 8.20312 -52.5391 8.78906 -50.6348 10.5957 -49.6094 L 18.1152 -45.2637 L 11.6699 -41.8945 C 9.86328 -41.0645 9.0332 -39.4043 9.96094 -37.5977 C 10.7422 -36.0352 12.5977 -35.498 14.4043 -36.5234 L 23.9258 -41.9434 L 28.3203 -39.4043 L 41.1621 -33.0566 L 28.3203 -26.709 L 23.9258 -24.1699 L 14.4043 -29.6387 C 12.5977 -30.6152 10.791 -30.0781 10.0098 -28.5156 C 9.08203 -26.709 9.86328 -25.0977 11.6699 -24.2188 L 18.1152 -20.8496 L 10.6445 -16.5039 C 8.83789 -15.4785 8.25195 -13.5254 9.22852 -11.7676 C 10.3027 -9.96094 12.207 -9.57031 14.0137 -10.5957 L 21.582 -14.9414 L 21.2402 -7.66602 C 21.0938 -5.66406 22.1191 -4.10156 24.1211 -4.05273 Z"/>
  </g>
  <g id="Regular-M" transform="matrix(1 0 0 1 1404.95 1126)">
   <path d="M 23.6328 -4.78516 C 25.0977 -4.78516 26.2207 -6.05469 26.2207 -7.8125 L 26.1719 -18.8965 L 30.6641 -21.4844 L 42.8711 -29.541 L 42.041 -14.9414 L 42.041 -9.76562 L 32.373 -4.29688 C 30.8105 -3.41797 30.3223 -1.80664 31.0547 -0.537109 C 31.9336 0.976562 33.4961 1.17188 35.0098 0.292969 L 42.041 -3.71094 L 42.041 5.12695 C 41.9922 6.93359 43.1641 8.20312 44.873 8.20312 C 46.7285 8.20312 47.8027 6.93359 47.8027 5.12695 L 47.8027 -3.71094 L 54.7852 0.292969 C 56.2988 1.17188 57.8613 0.976562 58.6914 -0.488281 C 59.4727 -1.80664 58.9844 -3.41797 57.4219 -4.29688 L 47.8027 -9.76562 L 47.8027 -14.9414 L 46.9238 -29.541 L 59.1309 -21.5332 L 63.6719 -18.9453 L 63.5742 -7.8125 C 63.5742 -6.05469 64.6973 -4.78516 66.1621 -4.78516 C 67.9199 -4.78516 68.8477 -6.10352 68.8477 -7.8125 L 68.8965 -15.8691 L 76.5625 -11.4258 C 78.125 -10.5469 79.7363 -10.8887 80.6152 -12.4512 C 81.4941 -13.916 80.957 -15.625 79.4434 -16.4551 L 71.7773 -20.8984 L 78.7598 -24.9512 C 80.2734 -25.8301 80.9082 -27.2949 80.0293 -28.7598 C 79.1992 -30.0781 77.6367 -30.4688 76.123 -29.541 L 66.5039 -23.9258 L 62.0117 -26.5137 L 48.9746 -33.0566 L 62.0605 -39.5996 L 66.5527 -42.2363 L 76.123 -36.6211 C 77.6367 -35.6934 79.2969 -36.084 80.0293 -37.3535 C 80.9082 -38.8672 80.2734 -40.332 78.7598 -41.2109 L 71.7773 -45.2637 L 79.4434 -49.6582 C 81.0059 -50.5859 81.543 -52.1484 80.6152 -53.7109 C 79.7363 -55.1758 78.125 -55.6152 76.5625 -54.6875 L 68.8965 -50.2441 L 68.8477 -58.3496 C 68.8477 -60.0586 67.9199 -61.377 66.2109 -61.3281 C 64.6973 -61.3281 63.5742 -60.1074 63.5742 -58.3496 L 63.6719 -47.2168 L 59.1309 -44.6289 L 46.9238 -36.6211 L 47.8027 -51.2207 L 47.8027 -56.3965 L 57.4219 -61.8652 C 58.9844 -62.7441 59.4727 -64.3555 58.6914 -65.625 C 57.8613 -67.1387 56.2988 -67.334 54.7852 -66.4551 L 47.8027 -62.4512 L 47.8027 -71.2891 C 47.8027 -73.0957 46.7285 -74.3164 44.873 -74.3164 C 43.1641 -74.3164 41.9922 -73.0957 42.041 -71.2891 L 42.041 -62.4512 L 35.0098 -66.4551 C 33.4961 -67.2852 31.9336 -67.1387 31.0547 -65.625 C 30.3223 -64.3555 30.8105 -62.7441 32.373 -61.8652 L 42.041 -56.3965 L 42.041 -51.2207 L 42.8711 -36.5723 L 30.6641 -44.6289 L 26.123 -47.2656 L 26.2207 -58.3496 C 26.2207 -60.1074 25.0977 -61.3281 23.6328 -61.3281 C 21.875 -61.3281 20.9473 -60.0586 20.9473 -58.3496 L 20.8496 -50.293 L 13.2324 -54.6875 C 11.7188 -55.5664 10.0098 -55.1758 9.17969 -53.7109 C 8.25195 -52.1484 8.83789 -50.5371 10.3516 -49.6582 L 17.9688 -45.2637 L 11.0352 -41.2109 C 9.52148 -40.332 8.88672 -38.916 9.76562 -37.3535 C 10.4492 -36.084 12.1582 -35.6934 13.7207 -36.6211 L 23.291 -42.1875 L 27.7344 -39.5996 L 40.8203 -33.0566 L 27.7832 -26.5137 L 23.2422 -23.9258 L 13.6719 -29.541 C 12.1582 -30.4688 10.498 -30.0781 9.81445 -28.8086 C 8.93555 -27.2461 9.52148 -25.8301 11.0352 -24.9512 L 18.0176 -20.8984 L 10.3516 -16.4551 C 8.83789 -15.625 8.30078 -13.916 9.17969 -12.4512 C 10.1074 -10.8887 11.7188 -10.5957 13.2324 -11.4258 L 20.8984 -15.8691 L 20.9473 -7.8125 C 20.9473 -6.10352 21.8262 -4.78516 23.6328 -4.78516 Z"/>
  </g>
  <g id="Light-M" transform="matrix(1 0 0 1 1108.33 1126)">
   <path d="M 23.4863 -4.88281 C 24.707 -4.88281 25.6348 -5.9082 25.6348 -7.37305 L 25.5859 -19.2871 L 31.1035 -22.4609 L 43.2129 -30.2734 L 42.5293 -15.918 L 42.5293 -9.52148 L 32.0801 -3.56445 C 30.8594 -2.83203 30.4688 -1.61133 31.0547 -0.585938 C 31.7383 0.683594 33.0078 0.78125 34.2285 0.0976562 L 42.5293 -4.63867 L 42.5293 5.71289 C 42.4805 7.17773 43.457 8.20312 44.8242 8.20312 C 46.2402 8.20312 47.1191 7.17773 47.1191 5.71289 L 47.1191 -4.58984 L 55.3223 0.0976562 C 56.543 0.830078 57.8125 0.683594 58.5449 -0.537109 C 59.1309 -1.61133 58.7402 -2.88086 57.4707 -3.61328 L 47.1191 -9.52148 L 47.1191 -15.918 L 46.4355 -30.2246 L 58.4961 -22.5098 L 64.0625 -19.2871 L 64.0137 -7.37305 C 64.0137 -5.9082 64.8926 -4.88281 66.1133 -4.88281 C 67.5293 -4.88281 68.2617 -5.95703 68.2617 -7.37305 L 68.3105 -16.8457 L 77.2461 -11.6699 C 78.5156 -10.9375 79.834 -11.1816 80.5176 -12.4512 C 81.2012 -13.623 80.8105 -14.9902 79.541 -15.6738 L 70.5566 -20.8496 L 78.8086 -25.6348 C 80.0781 -26.3672 80.5664 -27.5391 79.834 -28.7109 C 79.1504 -29.7363 77.9785 -30.0781 76.709 -29.3457 L 66.3086 -23.291 L 60.791 -26.4648 L 48.0469 -33.0566 L 60.791 -39.5996 L 66.3574 -42.8223 L 76.6602 -36.8164 C 77.8809 -36.084 79.248 -36.377 79.8828 -37.4512 C 80.5664 -38.623 80.0293 -39.8438 78.8086 -40.5273 L 70.6055 -45.2637 L 79.5898 -50.4395 C 80.8105 -51.2207 81.25 -52.4414 80.5176 -53.7109 C 79.834 -54.8828 78.5156 -55.2246 77.2461 -54.4434 L 68.3105 -49.2676 L 68.2617 -58.8379 C 68.2617 -60.2539 67.5293 -61.2793 66.1133 -61.2305 C 64.8926 -61.1816 64.0137 -60.2539 64.0137 -58.8379 L 64.0137 -46.8262 L 58.4961 -43.6035 L 46.4355 -35.8887 L 47.1191 -50.2441 L 47.1191 -56.6406 L 57.4707 -62.5488 C 58.7402 -63.2812 59.1309 -64.5508 58.5449 -65.625 C 57.8125 -66.7969 56.543 -66.9922 55.3223 -66.2598 L 47.1191 -61.5723 L 47.1191 -71.875 C 47.1191 -73.3398 46.2402 -74.3164 44.8242 -74.3164 C 43.457 -74.3164 42.4805 -73.3398 42.5293 -71.875 L 42.5293 -61.5234 L 34.2285 -66.2598 C 33.0078 -66.9434 31.7383 -66.7969 31.0547 -65.5762 C 30.4688 -64.5508 30.8594 -63.2812 32.0801 -62.5977 L 42.5293 -56.6406 L 42.5293 -50.2441 L 43.2129 -35.8398 L 31.1035 -43.6035 L 25.5371 -46.8262 L 25.6348 -58.8379 C 25.6348 -60.2539 24.707 -61.2305 23.5352 -61.2305 C 22.1191 -61.2305 21.3867 -60.2539 21.3867 -58.8379 L 21.2891 -49.2676 L 12.3535 -54.4434 C 11.1328 -55.1758 9.76562 -54.8828 9.08203 -53.7109 C 8.34961 -52.4414 8.78906 -51.1719 10.0586 -50.4395 L 18.9941 -45.3125 L 10.8398 -40.5273 C 9.57031 -39.7949 9.0332 -38.7207 9.76562 -37.4512 C 10.3516 -36.377 11.7188 -36.084 12.9883 -36.8164 L 23.2422 -42.8223 L 28.8086 -39.5996 L 41.5527 -33.0566 L 28.8574 -26.4648 L 23.291 -23.291 L 12.8906 -29.3457 C 11.6211 -30.0781 10.3516 -29.7852 9.81445 -28.7109 C 9.13086 -27.4414 9.57031 -26.3672 10.791 -25.6348 L 19.043 -20.8008 L 10.0586 -15.6738 C 8.78906 -14.9902 8.39844 -13.623 9.08203 -12.4512 C 9.81445 -11.1816 11.1328 -10.9375 12.3535 -11.6699 L 21.2891 -16.8457 L 21.3379 -7.37305 C 21.3379 -5.95703 22.0703 -4.88281 23.4863 -4.88281 Z"/>
  </g>
  <g id="Thin-M" transform="matrix(1 0 0 1 811.744 1126)">
   <path d="M 23.3398 -5.0293 C 24.2188 -5.0293 24.8047 -5.76172 24.8047 -6.73828 L 24.8047 -19.7754 L 31.7383 -23.7793 L 43.6035 -31.2012 L 43.2129 -17.2363 L 43.2129 -9.27734 L 31.7383 -2.68555 C 30.9082 -2.14844 30.6641 -1.36719 31.0547 -0.634766 C 31.543 0.244141 32.3242 0.292969 33.2031 -0.195312 L 43.2129 -5.85938 L 43.2129 6.44531 C 43.1152 7.4707 43.7988 8.20312 44.6777 8.20312 C 45.6543 8.20312 46.2402 7.4707 46.2402 6.44531 L 46.2402 -5.81055 L 56.0547 -0.195312 C 56.9336 0.341797 57.8125 0.244141 58.252 -0.585938 C 58.7402 -1.36719 58.4473 -2.19727 57.5684 -2.73438 L 46.2402 -9.22852 L 46.2402 -17.2363 L 45.8008 -31.1523 L 57.6172 -23.8281 L 64.5508 -19.7754 L 64.5508 -6.73828 C 64.5508 -5.76172 65.1367 -5.0293 66.0156 -5.0293 C 66.9434 -5.0293 67.4805 -5.76172 67.4805 -6.73828 L 67.4805 -18.1152 L 78.1738 -11.9629 C 79.0527 -11.4746 79.9316 -11.5723 80.3711 -12.4512 C 80.8594 -13.1836 80.5664 -14.1602 79.6387 -14.5996 L 68.9941 -20.752 L 78.9062 -26.5625 C 79.7852 -27.0996 80.127 -27.832 79.5898 -28.6133 C 79.1016 -29.2969 78.3691 -29.5898 77.4902 -29.0527 L 65.9668 -22.4609 L 59.1309 -26.416 L 46.8262 -33.0078 L 59.1797 -39.5996 L 66.1133 -43.6523 L 77.4414 -37.1094 C 78.2715 -36.6211 79.1992 -36.7676 79.6387 -37.5488 C 80.127 -38.3301 79.7363 -39.209 78.8574 -39.6484 L 69.043 -45.3125 L 79.6875 -51.4648 C 80.5664 -52.002 80.8594 -52.832 80.3711 -53.7109 C 79.9805 -54.4434 79.0527 -54.6875 78.1738 -54.1016 L 67.4805 -47.9492 L 67.4316 -59.4727 C 67.4316 -60.4492 66.9434 -61.1328 65.9668 -61.084 C 65.1367 -61.0352 64.5508 -60.4492 64.5508 -59.4727 L 64.5508 -46.2402 L 57.6172 -42.2363 L 45.8008 -34.9121 L 46.2402 -48.9258 L 46.2402 -56.9336 L 57.5684 -63.4277 C 58.4473 -63.9648 58.7402 -64.7949 58.252 -65.5762 C 57.8125 -66.3574 56.9336 -66.5039 56.0547 -65.9668 L 46.2402 -60.3516 L 46.2402 -72.6074 C 46.2402 -73.6328 45.6543 -74.3164 44.6777 -74.3164 C 43.7988 -74.3164 43.1152 -73.6328 43.2129 -72.6074 L 43.2129 -60.3027 L 33.2031 -65.9668 C 32.3242 -66.4551 31.543 -66.3574 31.0547 -65.5273 C 30.6641 -64.7949 30.9082 -64.0137 31.7383 -63.4766 L 43.2129 -56.8848 L 43.2129 -48.9258 L 43.6035 -34.8633 L 31.7383 -42.2363 L 24.8047 -46.2891 L 24.8047 -59.4727 C 24.8047 -60.4492 24.2188 -61.084 23.3887 -61.084 C 22.4121 -61.084 21.9238 -60.4492 21.9238 -59.4727 L 21.875 -47.9492 L 11.1816 -54.1016 C 10.3516 -54.6875 9.375 -54.4434 8.98438 -53.7109 C 8.49609 -52.832 8.78906 -52.002 9.66797 -51.4648 L 20.3125 -45.3125 L 10.498 -39.6484 C 9.57031 -39.1113 9.22852 -38.3789 9.7168 -37.5488 C 10.1562 -36.7676 11.084 -36.5723 12.0117 -37.1094 L 23.2422 -43.6523 L 30.1758 -39.5996 L 42.5293 -33.0078 L 30.2734 -26.416 L 23.3398 -22.4121 L 11.8652 -29.0527 C 10.9863 -29.5898 10.2051 -29.3457 9.81445 -28.6133 C 9.32617 -27.7832 9.57031 -27.0996 10.4492 -26.5625 L 20.3613 -20.752 L 9.7168 -14.5996 C 8.78906 -14.1602 8.49609 -13.1836 8.98438 -12.4512 C 9.47266 -11.5723 10.3516 -11.4746 11.1816 -11.9629 L 21.875 -18.1152 L 21.875 -6.73828 C 21.875 -5.76172 22.3633 -5.0293 23.3398 -5.0293 Z"/>
  </g>
  <g id="Ultralight-M" transform="matrix(1 0 0 1 515.082 1126)">
   <path d="M 23.2422 -5.07812 C 23.9746 -5.07812 24.4141 -5.66406 24.4141 -6.44531 L 24.4141 -20.0684 L 32.0801 -24.4629 L 43.8477 -31.6895 L 43.5547 -17.9199 L 43.5547 -9.13086 L 31.5918 -2.19727 C 30.9082 -1.75781 30.7129 -1.2207 31.0547 -0.683594 C 31.3965 0 32.0312 0.0488281 32.666 -0.292969 L 43.5547 -6.49414 L 43.5547 6.83594 C 43.457 7.61719 43.9453 8.20312 44.6289 8.20312 C 45.3613 8.20312 45.752 7.61719 45.752 6.83594 L 45.752 -6.44531 L 56.4453 -0.292969 C 57.1289 0.0976562 57.7637 0 58.1543 -0.585938 C 58.4961 -1.2207 58.252 -1.80664 57.5684 -2.24609 L 45.752 -9.08203 L 45.752 -17.9199 L 45.459 -31.6406 L 57.1777 -24.4629 L 64.8438 -20.0684 L 64.8438 -6.44531 C 64.8438 -5.66406 65.2832 -5.07812 66.0156 -5.07812 C 66.6504 -5.07812 67.0898 -5.66406 67.0898 -6.44531 L 67.0898 -18.75 L 78.6133 -12.1094 C 79.2969 -11.7188 79.9805 -11.7676 80.3223 -12.4512 C 80.7129 -12.9883 80.4688 -13.7207 79.7363 -14.0137 L 68.1641 -20.7031 L 78.9551 -27.002 C 79.6387 -27.4414 79.8828 -27.9785 79.4434 -28.6133 C 79.1016 -29.0527 78.6133 -29.2969 77.8809 -28.9062 L 65.8203 -22.0703 L 58.252 -26.416 L 46.1914 -33.0078 L 58.3496 -39.5996 L 66.0156 -44.043 L 77.832 -37.2559 C 78.4668 -36.9141 79.1504 -36.9629 79.541 -37.5488 C 79.8828 -38.1836 79.5898 -38.8672 78.9062 -39.209 L 68.2617 -45.3613 L 79.7852 -52.002 C 80.4688 -52.4414 80.7129 -53.0273 80.3223 -53.7109 C 80.0293 -54.248 79.2969 -54.4434 78.6133 -53.9551 L 67.0898 -47.2656 L 67.041 -59.7656 C 67.041 -60.5957 66.6504 -61.0352 65.8691 -60.9863 C 65.2832 -60.9375 64.8438 -60.5957 64.8438 -59.7656 L 64.7949 -45.9473 L 57.1777 -41.5527 L 45.459 -34.4238 L 45.752 -48.2422 L 45.752 -57.0801 L 57.5684 -63.916 C 58.252 -64.3555 58.4961 -64.9414 58.1543 -65.5273 C 57.7637 -66.1621 57.1289 -66.2598 56.4453 -65.8691 L 45.752 -59.7168 L 45.752 -72.998 C 45.752 -73.7793 45.3613 -74.3164 44.6289 -74.3164 C 43.9453 -74.3164 43.457 -73.7793 43.5547 -72.998 L 43.5547 -59.668 L 32.666 -65.8691 C 32.0312 -66.2109 31.3965 -66.1621 31.0547 -65.4785 C 30.7129 -64.9414 30.9082 -64.4043 31.5918 -63.9648 L 43.5547 -57.0312 L 43.5547 -48.2422 L 43.8477 -34.3262 L 32.0801 -41.5527 L 24.4141 -45.9961 L 24.4141 -59.7656 C 24.4141 -60.5957 23.9746 -60.9863 23.291 -60.9863 C 22.5586 -60.9863 22.2168 -60.5957 22.2168 -59.7656 L 22.168 -47.2656 L 10.5957 -53.9551 C 9.96094 -54.4434 9.22852 -54.248 8.88672 -53.7109 C 8.54492 -53.0273 8.78906 -52.4414 9.47266 -52.002 L 20.9961 -45.3613 L 10.3516 -39.209 C 9.61914 -38.7695 9.375 -38.2324 9.7168 -37.5488 C 10.1074 -36.9629 10.7422 -36.8164 11.4746 -37.2559 L 23.2422 -44.043 L 30.9082 -39.5996 L 43.0664 -33.0078 L 30.957 -26.416 L 23.3398 -22.0215 L 11.377 -28.9062 C 10.6445 -29.2969 10.1074 -29.1504 9.76562 -28.5645 C 9.42383 -27.9297 9.61914 -27.4414 10.2539 -27.002 L 21.0938 -20.7031 L 9.52148 -14.0137 C 8.78906 -13.7207 8.54492 -12.9883 8.88672 -12.4512 C 9.27734 -11.7676 9.96094 -11.7188 10.5957 -12.1094 L 22.168 -18.75 L 22.168 -6.44531 C 22.168 -5.66406 22.5098 -5.07812 23.2422 -5.07812 Z"/>
  </g>
  <g id="Black-S" transform="matrix(1 0 0 1 2892.99 696)">
   <path d="M 20.6543 -8.10547 C 22.8516 -7.86133 24.8047 -9.08203 24.9512 -11.6211 L 25.4883 -19.7266 L 28.6621 -21.582 L 36.8652 -27.3926 L 35.8887 -17.3828 L 35.8887 -13.623 L 29.1504 -9.17969 C 27.002 -7.76367 26.9043 -5.46875 28.2227 -3.71094 C 29.6875 -1.75781 32.1777 -1.80664 33.9844 -3.61328 L 35.8887 -5.51758 L 35.8887 -0.244141 C 35.8887 2.53906 37.7441 4.49219 40.3809 4.49219 C 43.0664 4.49219 44.873 2.58789 44.873 -0.244141 L 44.873 -5.51758 L 46.7773 -3.61328 C 48.584 -1.80664 51.0254 -1.75781 52.5391 -3.71094 C 53.9062 -5.46875 53.7598 -7.76367 51.6113 -9.17969 L 44.873 -13.623 L 44.873 -17.3828 L 43.8965 -27.2949 L 52.0996 -21.4844 L 55.3711 -19.6289 L 55.8105 -11.6211 C 55.957 -9.0332 57.9102 -7.8125 60.1074 -8.10547 C 62.5488 -8.44727 63.7695 -10.5469 63.0859 -12.9883 L 62.4023 -15.5762 L 66.9434 -12.9395 C 69.3848 -11.5234 71.9238 -12.1582 73.2422 -14.502 C 74.5117 -16.7969 73.8281 -19.3848 71.4355 -20.752 L 66.8945 -23.3887 L 69.4824 -24.0723 C 71.875 -24.707 73.1934 -26.8066 72.2168 -29.1504 C 71.3867 -31.1523 69.3359 -32.2266 67.041 -31.0547 L 59.8633 -27.4902 L 56.5918 -29.3457 L 47.4609 -33.4961 L 56.5918 -37.6465 L 59.8145 -39.502 L 67.041 -35.8887 C 69.3359 -34.7656 71.3867 -35.8398 72.2656 -37.8906 C 73.2422 -40.1367 71.9238 -42.2852 69.4824 -42.9199 L 66.8945 -43.6035 L 71.4355 -46.2402 C 73.877 -47.6562 74.6094 -50.1465 73.291 -52.4414 C 71.9727 -54.7852 69.3359 -55.4199 66.9434 -54.0527 L 62.4023 -51.416 L 63.0859 -53.9551 C 63.7695 -56.4453 62.5488 -58.5938 60.1074 -58.8867 C 57.959 -59.1309 55.957 -57.9102 55.8105 -55.3711 L 55.3223 -47.2656 L 52.0996 -45.4102 L 43.8965 -39.5996 L 44.873 -49.6094 L 44.873 -53.3691 L 51.6113 -57.8125 C 53.7598 -59.2285 53.8574 -61.5234 52.5391 -63.2812 C 51.0742 -65.2344 48.584 -65.1855 46.7773 -63.3789 L 44.873 -61.4746 L 44.873 -66.748 C 44.873 -69.5801 43.0664 -71.4844 40.3809 -71.4844 C 37.7441 -71.4844 35.8887 -69.5312 35.8887 -66.748 L 35.8887 -61.4746 L 33.9844 -63.3789 C 32.1777 -65.1855 29.7363 -65.2344 28.2227 -63.2812 C 26.8555 -61.5234 27.002 -59.2285 29.1504 -57.8125 L 35.8887 -53.3691 L 35.8887 -49.6094 L 36.8652 -39.5508 L 28.6621 -45.4102 L 25.4395 -47.3145 L 24.9512 -55.3711 C 24.8047 -57.9102 22.8027 -59.1309 20.6543 -58.8867 C 18.2129 -58.5938 17.041 -56.3965 17.6758 -54.0039 L 18.4082 -51.416 L 13.8184 -54.0527 C 11.4258 -55.4199 8.78906 -54.7852 7.4707 -52.4414 C 6.15234 -50.1465 6.88477 -47.6074 9.27734 -46.2402 L 13.8672 -43.6035 L 11.2793 -42.9199 C 8.83789 -42.2852 7.56836 -40.0879 8.54492 -37.8418 C 9.42383 -35.8398 11.4258 -34.7168 13.7207 -35.8887 L 20.9473 -39.502 L 24.1699 -37.6465 L 33.3008 -33.4961 L 24.1699 -29.3457 L 20.9473 -27.4902 L 13.7207 -31.1035 C 11.4258 -32.2266 9.375 -31.1523 8.49609 -29.1016 C 7.51953 -26.8555 8.83789 -24.707 11.2793 -24.0723 L 13.8672 -23.3887 L 9.32617 -20.752 C 6.93359 -19.3848 6.15234 -16.7969 7.4707 -14.502 C 8.83789 -12.1582 11.377 -11.5234 13.8184 -12.9395 L 18.3594 -15.5762 L 17.6758 -13.0371 C 16.9922 -10.5469 18.2129 -8.39844 20.6543 -8.10547 Z"/>
  </g>
  <g id="Heavy-S" transform="matrix(1 0 0 1 2597.53 696)">
   <path d="M 20.166 -8.88672 C 22.168 -8.69141 23.877 -9.86328 23.9746 -12.1582 L 24.3652 -20.3125 L 27.5391 -22.168 L 36.084 -28.125 L 35.1562 -17.7246 L 35.1562 -14.0625 L 28.2715 -9.66797 C 26.3184 -8.44727 26.1719 -6.34766 27.2949 -4.73633 C 28.6133 -2.92969 30.8594 -2.92969 32.5195 -4.49219 L 35.1562 -6.78711 L 35.1562 -1.12305 C 35.1562 1.41602 36.8164 3.125 39.1602 3.125 C 41.6016 3.125 43.2129 1.41602 43.2129 -1.12305 L 43.2129 -6.78711 L 45.8008 -4.49219 C 47.5098 -2.92969 49.707 -2.92969 51.0254 -4.73633 C 52.2461 -6.34766 52.002 -8.44727 50.0488 -9.66797 L 43.2129 -14.0625 L 43.2129 -17.7246 L 42.2852 -28.0273 L 50.8301 -22.0703 L 54.0039 -20.2637 L 54.3457 -12.1582 C 54.4434 -9.81445 56.2012 -8.64258 58.1543 -8.88672 C 60.4004 -9.13086 61.5234 -10.9863 60.9863 -13.2324 L 60.3027 -16.6016 L 65.2344 -13.7695 C 67.4316 -12.5 69.6777 -13.0859 70.8984 -15.1855 C 72.0215 -17.2363 71.3867 -19.5801 69.2871 -20.8008 L 64.3555 -23.6328 L 67.627 -24.707 C 69.7754 -25.3906 70.9473 -27.2949 70.0195 -29.3945 C 69.1895 -31.2012 67.2852 -32.0801 65.2344 -31.0059 L 58.0078 -27.2949 L 54.834 -29.1016 L 45.4102 -33.4961 L 54.834 -37.8906 L 58.0078 -39.6973 L 65.2344 -35.9863 C 67.2852 -34.9121 69.1895 -35.8398 70.0195 -37.6465 C 70.9473 -39.6973 69.8242 -41.6016 67.627 -42.2852 L 64.3555 -43.3594 L 69.2871 -46.2402 C 71.4355 -47.5098 72.1191 -49.707 70.8984 -51.8066 C 69.7266 -53.9062 67.3828 -54.4922 65.2344 -53.2227 L 60.3027 -50.3906 L 60.9863 -53.7598 C 61.5234 -56.0059 60.4004 -57.9102 58.2031 -58.1543 C 56.25 -58.3496 54.4434 -57.1289 54.3457 -54.834 L 53.9551 -46.6797 L 50.8301 -44.873 L 42.2852 -38.916 L 43.2129 -49.2676 L 43.2129 -52.9297 L 50.0488 -57.3242 C 52.002 -58.5938 52.1973 -60.6934 51.0254 -62.3047 C 49.707 -64.1113 47.5098 -64.1113 45.8008 -62.5488 L 43.2129 -60.2051 L 43.2129 -65.918 C 43.2129 -68.457 41.6016 -70.166 39.1602 -70.166 C 36.8164 -70.166 35.1562 -68.4082 35.1562 -65.918 L 35.1562 -60.2051 L 32.5195 -62.5488 C 30.8594 -64.1113 28.6621 -64.1113 27.2949 -62.3047 C 26.123 -60.6934 26.3184 -58.5938 28.2715 -57.3242 L 35.1562 -52.9297 L 35.1562 -49.2676 L 36.084 -38.8672 L 27.5391 -44.873 L 24.3652 -46.7285 L 23.9746 -54.834 C 23.877 -57.1289 22.1191 -58.3496 20.166 -58.1543 C 17.9199 -57.9102 16.8457 -55.957 17.334 -53.8086 L 18.0176 -50.3906 L 13.0859 -53.2227 C 10.9863 -54.4434 8.59375 -53.9062 7.42188 -51.8066 C 6.25 -49.707 6.88477 -47.4609 9.0332 -46.2402 L 13.9648 -43.3594 L 10.6934 -42.2852 C 8.49609 -41.6016 7.42188 -39.6484 8.34961 -37.5977 C 9.17969 -35.8398 11.0352 -34.8633 13.0859 -35.9863 L 20.3125 -39.6973 L 23.4863 -37.8906 L 32.9102 -33.4961 L 23.4863 -29.1016 L 20.3125 -27.2949 L 13.0859 -31.0547 C 11.0352 -32.0801 9.13086 -31.2012 8.30078 -29.3457 C 7.37305 -27.3438 8.49609 -25.3906 10.6934 -24.707 L 13.9648 -23.6328 L 9.08203 -20.8008 C 6.93359 -19.5801 6.25 -17.2363 7.42188 -15.1855 C 8.64258 -13.0859 10.9375 -12.5 13.0859 -13.7695 L 18.0176 -16.6504 L 17.334 -13.2812 C 16.7969 -10.9863 17.9199 -9.08203 20.166 -8.88672 Z"/>
  </g>
  <g id="Bold-S" transform="matrix(1 0 0 1 2302.18 696)">
   <path d="M 19.6289 -9.7168 C 21.3379 -9.61914 22.8027 -10.7422 22.9004 -12.793 L 23.1445 -20.9961 L 26.2207 -22.8027 L 35.1562 -28.9062 L 34.2773 -18.1152 L 34.2773 -14.5508 L 27.2949 -10.2539 C 25.5371 -9.17969 25.293 -7.32422 26.2695 -5.85938 C 27.3926 -4.24805 29.3457 -4.19922 30.9082 -5.46875 L 34.2773 -8.05664 L 34.2773 -2.05078 C 34.2773 0.0976562 35.7422 1.61133 37.793 1.61133 C 39.9414 1.61133 41.3086 0.146484 41.3086 -2.05078 L 41.3086 -8.05664 L 44.7266 -5.46875 C 46.2891 -4.19922 48.1934 -4.24805 49.3164 -5.85938 C 50.3418 -7.32422 50.0488 -9.17969 48.291 -10.2539 L 41.3086 -14.5508 L 41.3086 -18.1152 L 40.4785 -28.8574 L 49.3652 -22.7539 L 52.4902 -20.9473 L 52.6855 -12.793 C 52.7832 -10.7422 54.248 -9.57031 56.0059 -9.7168 C 58.0078 -9.91211 58.9844 -11.5234 58.6426 -13.4766 L 58.1055 -17.7246 L 63.2812 -14.6973 C 65.1855 -13.623 67.1875 -14.0625 68.2129 -15.9668 C 69.2383 -17.7734 68.7012 -19.7754 66.7969 -20.8496 L 61.6211 -23.8281 L 65.5762 -25.4883 C 67.4316 -26.1719 68.3594 -27.832 67.5293 -29.6387 C 66.748 -31.25 64.9902 -31.9336 63.1836 -30.957 L 56.0059 -27.0996 L 52.8809 -28.8574 L 43.1152 -33.4961 L 52.8809 -38.1836 L 56.0059 -39.9414 L 63.1836 -36.0352 C 64.9902 -35.1074 66.748 -35.791 67.5293 -37.4023 C 68.4082 -39.1602 67.4316 -40.8691 65.5762 -41.5527 L 61.6211 -43.2129 L 66.7969 -46.1914 C 68.75 -47.3145 69.2871 -49.2188 68.2617 -51.0742 C 67.1875 -52.9297 65.1855 -53.418 63.2812 -52.3438 L 58.1055 -49.3164 L 58.6426 -53.5156 C 58.9844 -55.5176 58.0078 -57.1777 56.0059 -57.3242 C 54.2969 -57.4219 52.7832 -56.2988 52.6855 -54.248 L 52.4414 -46.0449 L 49.3652 -44.2383 L 40.4785 -38.1348 L 41.3086 -48.9258 L 41.3086 -52.4902 L 48.291 -56.7871 C 50.0488 -57.8613 50.293 -59.7168 49.3164 -61.1816 C 48.1934 -62.793 46.2891 -62.8418 44.7266 -61.5723 L 41.3086 -58.9844 L 41.3086 -64.9902 C 41.3086 -67.1875 39.9414 -68.7012 37.793 -68.7012 C 35.7422 -68.7012 34.2773 -67.1387 34.2773 -64.9902 L 34.2773 -58.9844 L 30.9082 -61.5723 C 29.3457 -62.8418 27.4414 -62.793 26.2695 -61.1816 C 25.293 -59.7168 25.5371 -57.8613 27.2949 -56.7871 L 34.2773 -52.4902 L 34.2773 -48.9258 L 35.1562 -38.0859 L 26.2207 -44.2383 L 23.0957 -46.0449 L 22.9004 -54.248 C 22.8027 -56.2988 21.3379 -57.4219 19.6289 -57.3242 C 17.627 -57.1777 16.6016 -55.5176 16.9434 -53.5645 L 17.4805 -49.3164 L 12.3047 -52.3438 C 10.4492 -53.3691 8.39844 -52.9297 7.37305 -51.0742 C 6.29883 -49.2188 6.88477 -47.2656 8.74023 -46.1914 L 13.9648 -43.2129 L 10.0098 -41.5527 C 8.1543 -40.8691 7.22656 -39.1602 8.10547 -37.3535 C 8.83789 -35.791 10.5957 -35.0586 12.4023 -36.0352 L 19.5801 -39.9414 L 22.7051 -38.1836 L 32.4707 -33.4961 L 22.7051 -28.8574 L 19.6289 -27.0996 L 12.4023 -31.0059 C 10.5957 -31.9336 8.83789 -31.25 8.10547 -29.6387 C 7.22656 -27.832 8.1543 -26.1719 10.0098 -25.4883 L 13.9648 -23.8281 L 8.78906 -20.8496 C 6.93359 -19.7754 6.29883 -17.7734 7.37305 -15.9668 C 8.44727 -14.0625 10.4004 -13.623 12.3047 -14.6973 L 17.4805 -17.7246 L 16.9434 -13.5254 C 16.6016 -11.5234 17.627 -9.86328 19.6289 -9.7168 Z"/>
  </g>
  <g id="Semibold-S" transform="matrix(1 0 0 1 2006.4 696)">
   <path d="M 19.2383 -10.3027 C 20.8008 -10.2539 22.0703 -11.377 22.1191 -13.2324 L 22.3145 -21.4844 L 25.3418 -23.2422 L 34.5215 -29.4434 L 33.6914 -18.4082 L 33.6914 -14.8438 L 26.6602 -10.6445 C 25 -9.66797 24.707 -7.95898 25.5859 -6.64062 C 26.5625 -5.12695 28.2715 -5.0293 29.7363 -6.15234 L 33.6914 -8.83789 L 33.6914 -2.73438 C 33.6914 -0.78125 35.0098 0.585938 36.8652 0.585938 C 38.8184 0.585938 40.0391 -0.732422 40.0391 -2.73438 L 40.0391 -8.83789 L 43.9453 -6.15234 C 45.4102 -5.0293 47.1191 -5.12695 48.1445 -6.64062 C 49.0234 -7.95898 48.6816 -9.66797 47.0703 -10.6445 L 40.0391 -14.8438 L 40.0391 -18.4082 L 39.209 -29.4434 L 48.3887 -23.2422 L 51.4648 -21.4355 L 51.5625 -13.2324 C 51.6113 -11.3281 52.9297 -10.2051 54.4922 -10.3027 C 56.3477 -10.4004 57.2754 -11.8652 57.0312 -13.6719 L 56.6406 -18.457 L 61.9629 -15.3809 C 63.6719 -14.3555 65.4297 -14.7949 66.4062 -16.4551 C 67.2852 -18.1152 66.7969 -19.9219 65.1367 -20.8496 L 59.8145 -23.9258 L 64.1602 -25.9766 C 65.8203 -26.709 66.6016 -28.2227 65.7715 -29.834 C 65.0391 -31.2988 63.4277 -31.8359 61.7676 -30.9082 L 54.6387 -26.9531 L 51.5625 -28.7109 L 41.5527 -33.5449 L 51.5625 -38.3301 L 54.5898 -40.0879 L 61.7676 -36.1328 C 63.4277 -35.2051 65.0879 -35.791 65.8203 -37.207 C 66.6504 -38.8184 65.8203 -40.3809 64.1602 -41.0645 L 59.8145 -43.1152 L 65.1367 -46.1914 C 66.8457 -47.168 67.3828 -48.9258 66.4062 -50.5859 C 65.4785 -52.1973 63.6719 -52.6855 61.9629 -51.709 L 56.6406 -48.6328 L 57.0312 -53.3691 C 57.2754 -55.1758 56.3477 -56.6406 54.541 -56.7383 C 52.9297 -56.8359 51.6113 -55.7129 51.5625 -53.8086 L 51.416 -45.6055 L 48.3887 -43.8477 L 39.209 -37.5977 L 40.0391 -48.6816 L 40.0391 -52.1973 L 47.0703 -56.3965 C 48.6816 -57.373 49.0234 -59.082 48.1445 -60.4004 C 47.168 -61.9141 45.4102 -62.0117 43.9453 -60.9375 L 40.0391 -58.2031 L 40.0391 -64.3555 C 40.0391 -66.3086 38.8184 -67.6758 36.8652 -67.6758 C 35.0098 -67.6758 33.6914 -66.3086 33.6914 -64.3555 L 33.6914 -58.2031 L 29.7363 -60.9375 C 28.2715 -62.0117 26.5625 -61.9141 25.5859 -60.4004 C 24.707 -59.082 25 -57.373 26.6602 -56.3965 L 33.6914 -52.1973 L 33.6914 -48.6816 L 34.5215 -37.5977 L 25.3418 -43.8477 L 22.2656 -45.6055 L 22.1191 -53.8086 C 22.0703 -55.7129 20.8008 -56.8359 19.2383 -56.7383 C 17.3828 -56.6406 16.4551 -55.1758 16.6504 -53.3691 L 17.041 -48.6328 L 11.7676 -51.709 C 10.0586 -52.6367 8.25195 -52.1973 7.32422 -50.5859 C 6.34766 -48.9258 6.88477 -47.1191 8.54492 -46.1914 L 13.8672 -43.1152 L 9.57031 -41.0645 C 7.91016 -40.3809 7.08008 -38.8184 7.91016 -37.207 C 8.64258 -35.791 10.3027 -35.2051 11.9141 -36.1328 L 19.0918 -40.0879 L 22.168 -38.3301 L 32.1777 -33.5449 L 22.168 -28.7109 L 19.0918 -26.9531 L 11.9141 -30.957 C 10.3027 -31.8359 8.64258 -31.2988 7.95898 -29.8828 C 7.12891 -28.2227 7.91016 -26.709 9.57031 -25.9766 L 13.8672 -23.9258 L 8.59375 -20.8496 C 6.93359 -19.9219 6.39648 -18.1152 7.32422 -16.4551 C 8.30078 -14.7949 10.0586 -14.4043 11.7676 -15.3809 L 17.041 -18.457 L 16.6504 -13.6719 C 16.4551 -11.8652 17.3828 -10.4004 19.2383 -10.3027 Z"/>
  </g>
  <g id="Medium-S" transform="matrix(1 0 0 1 1710.4 696)">
   <path d="M 18.9453 -10.7422 C 20.3613 -10.6934 21.5332 -11.8164 21.582 -13.5742 L 21.6309 -21.8262 L 24.6582 -23.5352 L 34.0332 -29.8828 L 33.252 -18.6035 L 33.252 -15.0879 L 26.123 -10.9375 C 24.6094 -10.0586 24.2676 -8.49609 25.0488 -7.22656 C 25.9277 -5.81055 27.4902 -5.71289 28.9062 -6.64062 L 33.252 -9.42383 L 33.252 -3.22266 C 33.252 -1.41602 34.4238 -0.195312 36.1328 -0.195312 C 37.9395 -0.195312 39.0137 -1.41602 39.0137 -3.22266 L 39.0137 -9.42383 L 43.3594 -6.64062 C 44.7754 -5.71289 46.3379 -5.81055 47.2656 -7.22656 C 48.0469 -8.49609 47.6562 -10.0586 46.1426 -10.9375 L 39.0137 -15.0879 L 39.0137 -18.6035 L 38.2324 -29.8828 L 47.6074 -23.584 L 50.6836 -21.8262 L 50.7324 -13.5742 C 50.7324 -11.8164 51.9043 -10.6934 53.3691 -10.7422 C 55.0781 -10.8398 55.957 -12.1094 55.8105 -13.8184 L 55.5664 -18.9453 L 60.9375 -15.8691 C 62.5 -14.9414 64.1602 -15.332 64.9902 -16.8457 C 65.8691 -18.3594 65.3809 -20.0195 63.8672 -20.8984 L 58.4961 -23.9746 L 63.0371 -26.3672 C 64.5996 -27.0996 65.2832 -28.5156 64.502 -29.9805 C 63.7695 -31.2988 62.207 -31.7871 60.7422 -30.9082 L 53.5645 -26.8066 L 50.5371 -28.5645 L 40.332 -33.5449 L 50.5371 -38.4766 L 53.5645 -40.2344 L 60.7422 -36.1328 C 62.207 -35.3027 63.7695 -35.7422 64.502 -37.0605 C 65.2832 -38.5254 64.5996 -39.9902 63.0371 -40.7227 L 58.4961 -43.0664 L 63.8672 -46.1914 C 65.4297 -47.0703 65.918 -48.6816 64.9902 -50.1953 C 64.1602 -51.709 62.5 -52.1484 60.9375 -51.2207 L 55.5664 -48.0957 L 55.8105 -53.2715 C 55.957 -54.9316 55.0781 -56.25 53.3691 -56.2988 C 51.9043 -56.3477 50.7324 -55.2246 50.7324 -53.5156 L 50.6836 -45.2637 L 47.6074 -43.5059 L 38.2324 -37.207 L 39.0137 -48.4863 L 39.0137 -51.9531 L 46.1426 -56.1523 C 47.6562 -57.0312 48.0469 -58.5938 47.2656 -59.8145 C 46.3379 -61.2793 44.7754 -61.377 43.3594 -60.4492 L 39.0137 -57.666 L 39.0137 -63.8672 C 39.0137 -65.625 37.9395 -66.8945 36.1328 -66.8945 C 34.4238 -66.8945 33.252 -65.625 33.252 -63.8672 L 33.252 -57.666 L 28.9062 -60.4492 C 27.4902 -61.377 25.9277 -61.2793 25.0488 -59.8145 C 24.2676 -58.5938 24.6094 -57.0312 26.123 -56.1523 L 33.252 -52.002 L 33.252 -48.4863 L 34.0332 -37.1582 L 24.6582 -43.5059 L 21.582 -45.2637 L 21.582 -53.5156 C 21.5332 -55.2246 20.3613 -56.3477 18.9453 -56.2988 C 17.2363 -56.25 16.3574 -54.9316 16.4551 -53.2715 L 16.6504 -48.1445 L 11.3281 -51.2207 C 9.81445 -52.0996 8.10547 -51.709 7.27539 -50.1953 C 6.39648 -48.6816 6.88477 -47.0703 8.39844 -46.1914 L 13.7695 -43.0664 L 9.22852 -40.7227 C 7.71484 -39.9902 6.98242 -38.5742 7.8125 -37.0605 C 8.44727 -35.7422 10.0586 -35.3027 11.5723 -36.1328 L 18.75 -40.2344 L 21.7773 -38.4766 L 31.9336 -33.5449 L 21.7773 -28.5645 L 18.7012 -26.8066 L 11.5723 -30.9082 C 10.0586 -31.7871 8.49609 -31.2988 7.8125 -30.0293 C 7.03125 -28.4668 7.71484 -27.0996 9.22852 -26.3672 L 13.7695 -23.9746 L 8.44727 -20.8984 C 6.88477 -20.0195 6.39648 -18.3594 7.27539 -16.8457 C 8.1543 -15.332 9.81445 -14.9902 11.3281 -15.8691 L 16.6992 -18.9453 L 16.4551 -13.8184 C 16.3574 -12.1094 17.2363 -10.791 18.9453 -10.7422 Z"/>
  </g>
  <g id="Regular-S" transform="matrix(1 0 0 1 1414.64 696)">
   <path d="M 18.5547 -11.3281 C 19.8242 -11.3281 20.8008 -12.4512 20.8008 -14.0137 L 20.8008 -22.2656 L 23.7793 -23.9746 L 33.3984 -30.4199 L 32.666 -18.8477 L 32.666 -15.3809 L 25.4883 -11.3281 C 24.0723 -10.5469 23.6816 -9.13086 24.3164 -8.00781 C 25.0977 -6.68945 26.4648 -6.54297 27.7832 -7.32422 L 32.666 -10.0586 L 32.666 -3.85742 C 32.666 -2.29492 33.6914 -1.2207 35.2051 -1.2207 C 36.8164 -1.2207 37.7441 -2.29492 37.7441 -3.85742 L 37.7441 -10.0586 L 42.627 -7.32422 C 43.9453 -6.54297 45.3125 -6.68945 46.0938 -8.00781 C 46.7285 -9.13086 46.3379 -10.5469 44.9707 -11.3281 L 37.7441 -15.3809 L 37.7441 -18.8477 L 37.0117 -30.4199 L 46.6309 -24.0234 L 49.6582 -22.2656 L 49.6094 -14.0137 C 49.6094 -12.4512 50.5859 -11.3281 51.8555 -11.3281 C 53.418 -11.3281 54.1992 -12.5 54.1992 -14.0137 L 54.248 -19.6289 L 59.668 -16.5039 C 61.0352 -15.6738 62.4512 -16.0156 63.1836 -17.3828 C 63.9648 -18.7012 63.5254 -20.166 62.207 -20.8984 L 56.7871 -24.0234 L 61.6699 -26.8555 C 62.9883 -27.6367 63.5254 -28.9062 62.793 -30.1758 C 62.0605 -31.3477 60.6445 -31.6895 59.3262 -30.8594 L 52.1973 -26.6602 L 49.1699 -28.418 L 38.7695 -33.5449 L 49.1699 -38.6719 L 52.1973 -40.4297 L 59.3262 -36.2305 C 60.6445 -35.4004 62.1094 -35.7422 62.793 -36.8652 C 63.5254 -38.1836 62.9883 -39.4531 61.6699 -40.2344 L 56.7871 -43.0664 L 62.207 -46.1426 C 63.5742 -46.9727 63.9648 -48.3398 63.1836 -49.707 C 62.4512 -51.0254 61.0352 -51.416 59.668 -50.5859 L 54.248 -47.5098 L 54.1992 -53.125 C 54.1992 -54.6387 53.418 -55.7617 51.9043 -55.7617 C 50.5859 -55.7617 49.6094 -54.6387 49.6094 -53.125 L 49.6582 -44.8242 L 46.6309 -43.1152 L 37.0117 -36.6699 L 37.7441 -48.2422 L 37.7441 -51.709 L 44.9707 -55.7617 C 46.3379 -56.543 46.7285 -57.959 46.0938 -59.082 C 45.3125 -60.4004 43.9453 -60.5469 42.627 -59.7656 L 37.7441 -57.0312 L 37.7441 -63.2324 C 37.7441 -64.7949 36.8164 -65.8691 35.2051 -65.8691 C 33.6914 -65.8691 32.666 -64.7949 32.666 -63.2324 L 32.666 -57.0312 L 27.7832 -59.7656 C 26.4648 -60.5469 25.0977 -60.4004 24.3164 -59.082 C 23.6816 -57.959 24.0723 -56.543 25.4883 -55.7617 L 32.666 -51.709 L 32.666 -48.2422 L 33.3984 -36.6699 L 23.7793 -43.1152 L 20.752 -44.8242 L 20.8008 -53.125 C 20.8008 -54.6387 19.8242 -55.7617 18.5547 -55.7617 C 16.9922 -55.7617 16.2109 -54.6387 16.2109 -53.125 L 16.1133 -47.5098 L 10.791 -50.5859 C 9.42383 -51.3672 7.95898 -51.0254 7.22656 -49.707 C 6.44531 -48.3398 6.88477 -46.9238 8.20312 -46.1426 L 13.623 -43.0664 L 8.78906 -40.2344 C 7.42188 -39.4531 6.88477 -38.2324 7.61719 -36.8652 C 8.25195 -35.7422 9.76562 -35.4004 11.084 -36.2305 L 18.2129 -40.3809 L 21.2402 -38.6719 L 31.6406 -33.5449 L 21.2402 -28.418 L 18.2129 -26.6602 L 11.084 -30.8594 C 9.76562 -31.6895 8.30078 -31.3477 7.66602 -30.2246 C 6.93359 -28.8574 7.42188 -27.6367 8.78906 -26.8555 L 13.5742 -24.0234 L 8.20312 -20.8984 C 6.88477 -20.166 6.49414 -18.7012 7.22656 -17.3828 C 8.00781 -16.0156 9.42383 -15.7227 10.791 -16.5039 L 16.1621 -19.5801 L 16.2109 -14.0137 C 16.2109 -12.5 16.9922 -11.3281 18.5547 -11.3281 Z"/>
  </g>
  <g id="Light-S" transform="matrix(1 0 0 1 1118 696)">
   <path d="M 18.457 -11.4258 C 19.4824 -11.4258 20.2637 -12.3047 20.2637 -13.5742 L 20.2637 -22.6074 L 24.1699 -24.8535 L 33.6914 -31.0547 L 33.1055 -19.7266 L 33.1055 -15.1855 L 25.2441 -10.6934 C 24.1211 -10.0586 23.7793 -8.98438 24.3164 -8.05664 C 24.9512 -6.98242 26.0254 -6.88477 27.0996 -7.4707 L 33.1055 -10.8887 L 33.1055 -3.36914 C 33.1055 -2.09961 33.9355 -1.2207 35.1074 -1.2207 C 36.4258 -1.2207 37.1582 -2.09961 37.1582 -3.36914 L 37.1582 -10.8887 L 43.1152 -7.4707 C 44.1895 -6.83594 45.3125 -6.98242 45.8984 -8.05664 C 46.4355 -8.98438 46.0938 -10.1074 45.0195 -10.7422 L 37.1582 -15.1855 L 37.1582 -19.7266 L 36.5723 -31.0547 L 46.0449 -24.9023 L 50 -22.6074 L 49.9512 -13.5742 C 49.9512 -12.3047 50.7324 -11.4258 51.8066 -11.4258 C 53.0273 -11.4258 53.7109 -12.3535 53.7109 -13.5742 L 53.7109 -20.459 L 60.2539 -16.6992 C 61.377 -16.0156 62.5 -16.2598 63.0859 -17.3828 C 63.7207 -18.4082 63.3789 -19.6289 62.2559 -20.2148 L 55.7129 -23.9746 L 61.7188 -27.4414 C 62.793 -28.0762 63.2324 -29.1016 62.5977 -30.127 C 62.0117 -31.0547 60.9375 -31.3477 59.8633 -30.6641 L 52.002 -26.123 L 48.0957 -28.3691 L 37.9883 -33.5449 L 48.0957 -38.6719 L 52.0508 -40.9668 L 59.8145 -36.4258 C 60.8887 -35.7422 62.0605 -35.9863 62.6465 -36.9141 C 63.2324 -37.9883 62.793 -39.0137 61.7188 -39.6484 L 55.7617 -43.1152 L 62.3047 -46.875 C 63.3789 -47.5098 63.7207 -48.584 63.0859 -49.707 C 62.5 -50.7324 61.377 -51.0742 60.2539 -50.3906 L 53.7109 -46.6309 L 53.6621 -53.5156 C 53.6621 -54.7852 53.0273 -55.6641 51.8066 -55.6641 C 50.7324 -55.6152 49.9512 -54.7852 49.9512 -53.5156 L 50 -44.4824 L 46.0449 -42.1875 L 36.5723 -35.9863 L 37.1582 -47.3633 L 37.1582 -51.9043 L 45.0195 -56.3477 C 46.0938 -56.9824 46.4355 -58.1055 45.8984 -59.0332 C 45.3125 -60.1074 44.1895 -60.2539 43.1152 -59.6191 L 37.1582 -56.2012 L 37.1582 -63.7207 C 37.1582 -64.9902 36.4258 -65.8691 35.1074 -65.8691 C 33.9355 -65.8691 33.1055 -64.9902 33.1055 -63.7207 L 33.1055 -56.2012 L 27.0996 -59.6191 C 26.0254 -60.2051 24.9512 -60.1074 24.3164 -59.0332 C 23.7793 -58.1055 24.1211 -57.0312 25.2441 -56.3965 L 33.1055 -51.9043 L 33.1055 -47.3633 L 33.6914 -35.9863 L 24.1699 -42.1875 L 20.2148 -44.4824 L 20.2637 -53.5156 C 20.2637 -54.7852 19.4824 -55.6641 18.457 -55.6641 C 17.1875 -55.6641 16.5527 -54.7852 16.5527 -53.5156 L 16.5039 -46.6309 L 10.0098 -50.3906 C 8.93555 -51.0254 7.71484 -50.7324 7.12891 -49.707 C 6.49414 -48.584 6.88477 -47.4609 7.95898 -46.875 L 14.502 -43.1152 L 8.54492 -39.6484 C 7.4707 -39.0137 7.03125 -38.0371 7.61719 -36.9141 C 8.1543 -35.9863 9.32617 -35.7422 10.4492 -36.4258 L 18.2129 -40.9668 L 22.168 -38.6719 L 32.2754 -33.5449 L 22.168 -28.3691 L 18.2129 -26.123 L 10.4004 -30.6641 C 9.32617 -31.3477 8.1543 -31.0547 7.66602 -30.1758 C 7.08008 -29.0527 7.4707 -28.0762 8.54492 -27.4414 L 14.502 -23.9746 L 7.95898 -20.2148 C 6.88477 -19.6289 6.54297 -18.4082 7.12891 -17.3828 C 7.76367 -16.2598 8.93555 -16.0645 10.0098 -16.6992 L 16.5039 -20.459 L 16.5527 -13.5742 C 16.5527 -12.3535 17.1875 -11.4258 18.457 -11.4258 Z"/>
  </g>
  <g id="Thin-S" transform="matrix(1 0 0 1 821.412 696)">
   <path d="M 18.3105 -11.5234 C 19.043 -11.5234 19.5801 -12.1582 19.5801 -13.0371 L 19.5801 -23.0469 L 24.7559 -26.0254 L 34.082 -31.8848 L 33.6914 -20.8984 L 33.6914 -14.9414 L 24.9512 -9.91211 C 24.1699 -9.42383 23.9746 -8.74023 24.3164 -8.10547 C 24.707 -7.37305 25.4395 -7.27539 26.1719 -7.71484 L 33.6914 -12.0117 L 33.6914 -2.73438 C 33.6426 -1.85547 34.2285 -1.2207 35.0098 -1.2207 C 35.8887 -1.2207 36.377 -1.85547 36.377 -2.73438 L 36.377 -11.9629 L 43.75 -7.71484 C 44.5312 -7.27539 45.2637 -7.37305 45.7031 -8.05664 C 46.0938 -8.74023 45.8008 -9.47266 45.0684 -9.91211 L 36.377 -14.8926 L 36.377 -20.8984 L 35.9863 -31.8359 L 45.3125 -26.0254 L 50.4883 -23.0469 L 50.4395 -13.0371 C 50.4395 -12.1582 50.9766 -11.5234 51.7578 -11.5234 C 52.5391 -11.5234 53.0273 -12.1582 53.0273 -13.0371 L 53.0273 -21.582 L 61.0352 -16.9434 C 61.8164 -16.5039 62.5977 -16.6016 62.9883 -17.3828 C 63.4277 -18.0664 63.1348 -18.8965 62.3535 -19.2383 L 54.3457 -23.877 L 61.8164 -28.2715 C 62.5488 -28.7109 62.8418 -29.3457 62.4023 -30.0781 C 61.9629 -30.6641 61.3281 -30.9082 60.5469 -30.4199 L 51.7578 -25.3906 L 46.6309 -28.3691 L 36.9141 -33.4961 L 46.6309 -38.6719 L 51.8555 -41.6504 L 60.498 -36.6699 C 61.2305 -36.2305 62.0117 -36.3281 62.4023 -37.0117 C 62.8418 -37.7441 62.5 -38.4766 61.7676 -38.8672 L 54.3945 -43.1152 L 62.4023 -47.7539 C 63.1836 -48.2422 63.4277 -48.9258 62.9883 -49.707 C 62.5977 -50.3906 61.8164 -50.5859 61.0352 -50.0977 L 53.0273 -45.459 L 52.9785 -54.1016 C 52.9785 -54.9316 52.5391 -55.5664 51.6602 -55.5176 C 50.9766 -55.4688 50.4395 -54.9805 50.4395 -54.1016 L 50.4395 -43.9453 L 45.3125 -41.0156 L 35.9863 -35.1562 L 36.377 -46.1914 L 36.377 -52.1973 L 45.0684 -57.1777 C 45.8008 -57.6172 46.0938 -58.3496 45.7031 -59.0332 C 45.2637 -59.7168 44.5312 -59.8145 43.75 -59.375 L 36.377 -55.127 L 36.377 -64.3555 C 36.377 -65.2344 35.8887 -65.8691 35.0098 -65.8691 C 34.2285 -65.8691 33.6426 -65.2344 33.6914 -64.3555 L 33.6914 -55.0781 L 26.1719 -59.375 C 25.4395 -59.8145 24.707 -59.7168 24.3164 -58.9844 C 23.9746 -58.3496 24.1699 -57.666 24.9512 -57.1777 L 33.6914 -52.1484 L 33.6914 -46.1914 L 34.082 -35.1074 L 24.7559 -41.0156 L 19.5312 -43.9941 L 19.5801 -54.1016 C 19.5801 -54.9805 19.043 -55.5176 18.3105 -55.5176 C 17.4805 -55.5176 17.041 -54.9316 17.041 -54.1016 L 16.9922 -45.459 L 8.98438 -50.0977 C 8.25195 -50.5859 7.42188 -50.3906 7.03125 -49.707 C 6.5918 -48.9258 6.88477 -48.1934 7.61719 -47.7539 L 15.625 -43.1152 L 8.25195 -38.8672 C 7.4707 -38.4277 7.17773 -37.793 7.61719 -37.0117 C 8.00781 -36.3281 8.78906 -36.1816 9.57031 -36.6699 L 18.2129 -41.6504 L 23.3887 -38.6719 L 33.1543 -33.4961 L 23.4375 -28.3691 L 18.2617 -25.3418 L 9.47266 -30.4199 C 8.69141 -30.9082 8.00781 -30.7129 7.66602 -30.0781 C 7.22656 -29.2969 7.4707 -28.7109 8.25195 -28.2715 L 15.7227 -23.877 L 7.66602 -19.2383 C 6.88477 -18.8965 6.64062 -18.0664 7.03125 -17.3828 C 7.4707 -16.6016 8.25195 -16.5039 8.98438 -16.9434 L 16.9922 -21.582 L 17.041 -13.0371 C 17.041 -12.1582 17.4316 -11.5234 18.3105 -11.5234 Z"/>
  </g>
  <g id="Ultralight-S" transform="matrix(1 0 0 1 524.75 696)">
   <path d="M 18.2129 -11.6211 C 18.8477 -11.6211 19.1895 -12.0605 19.1895 -12.7441 L 19.1895 -23.291 L 25 -26.6113 L 34.2773 -32.3242 L 33.9844 -21.4844 L 33.9844 -14.7949 L 24.8047 -9.47266 C 24.2188 -9.13086 24.0234 -8.64258 24.3164 -8.1543 C 24.6094 -7.56836 25.1465 -7.51953 25.7324 -7.8125 L 33.9844 -12.5488 L 33.9844 -2.39258 C 33.9355 -1.70898 34.375 -1.2207 34.9609 -1.2207 C 35.5957 -1.2207 35.9863 -1.70898 35.9863 -2.39258 L 35.9863 -12.5 L 44.0918 -7.8125 C 44.6777 -7.4707 45.2637 -7.56836 45.5566 -8.10547 C 45.8984 -8.64258 45.6543 -9.13086 45.1172 -9.52148 L 35.9863 -14.7461 L 35.9863 -21.4844 L 35.6934 -32.2754 L 44.9219 -26.6113 L 50.7324 -23.291 L 50.7324 -12.7441 C 50.7324 -12.0605 51.0742 -11.6211 51.709 -11.6211 C 52.2949 -11.6211 52.6367 -12.0605 52.6367 -12.7441 L 52.6367 -22.168 L 61.4746 -17.041 C 62.0605 -16.748 62.6465 -16.7969 62.9395 -17.3828 C 63.2812 -17.8711 63.0371 -18.5059 62.4512 -18.75 L 53.6133 -23.877 L 61.8652 -28.6621 C 62.4023 -29.0527 62.6465 -29.4922 62.2559 -30.0293 C 61.9629 -30.4688 61.5234 -30.6641 60.8887 -30.3223 L 51.6113 -25 L 45.8496 -28.3203 L 36.3281 -33.4961 L 45.8984 -38.6719 L 51.7578 -42.041 L 60.8398 -36.7676 C 61.4258 -36.4746 62.0117 -36.5234 62.3047 -37.0605 C 62.6465 -37.5977 62.3535 -38.1348 61.8164 -38.4766 L 53.6621 -43.1641 L 62.4512 -48.2422 C 63.0371 -48.584 63.2812 -49.1211 62.9395 -49.707 C 62.6953 -50.1953 62.0605 -50.3418 61.4746 -49.9512 L 52.6367 -44.873 L 52.5879 -54.3945 C 52.5879 -55.0781 52.2949 -55.4688 51.6113 -55.4199 C 51.0742 -55.3711 50.7324 -55.0781 50.7324 -54.3945 L 50.6836 -43.7012 L 44.9219 -40.3809 L 35.6934 -34.7168 L 35.9863 -45.6055 L 35.9863 -52.3438 L 45.1172 -57.5684 C 45.6543 -57.959 45.8984 -58.4473 45.5566 -58.9844 C 45.2637 -59.5215 44.6777 -59.6191 44.0918 -59.2773 L 35.9863 -54.5898 L 35.9863 -64.6973 C 35.9863 -65.3809 35.5957 -65.8691 34.9609 -65.8691 C 34.375 -65.8691 33.9355 -65.3809 33.9844 -64.6973 L 33.9844 -54.541 L 25.7324 -59.2773 C 25.1465 -59.5703 24.6094 -59.5215 24.3164 -58.9355 C 24.0234 -58.4473 24.2188 -57.959 24.8047 -57.6172 L 33.9844 -52.2949 L 33.9844 -45.6055 L 34.2773 -34.668 L 25 -40.3809 L 19.1895 -43.75 L 19.1895 -54.3945 C 19.1895 -55.0781 18.8477 -55.4199 18.2617 -55.4199 C 17.627 -55.4199 17.334 -55.0781 17.334 -54.3945 L 17.2852 -44.873 L 8.44727 -49.9512 C 7.86133 -50.3418 7.27539 -50.1953 6.98242 -49.707 C 6.68945 -49.1211 6.88477 -48.584 7.4707 -48.2422 L 16.2598 -43.1641 L 8.10547 -38.4766 C 7.51953 -38.0859 7.27539 -37.6465 7.61719 -37.0605 C 7.91016 -36.5234 8.49609 -36.4258 9.13086 -36.7676 L 18.2129 -42.041 L 24.0234 -38.6719 L 33.5938 -33.4961 L 24.0723 -28.3203 L 18.2617 -25 L 9.0332 -30.3223 C 8.39844 -30.6641 7.91016 -30.5176 7.66602 -30.0293 C 7.32422 -29.4434 7.51953 -29.0527 8.10547 -28.6621 L 16.3086 -23.877 L 7.51953 -18.75 C 6.88477 -18.5059 6.68945 -17.8711 6.98242 -17.3828 C 7.32422 -16.7969 7.86133 -16.748 8.44727 -17.041 L 17.2852 -22.168 L 17.2852 -12.7441 C 17.2852 -12.0605 17.5781 -11.6211 18.2129 -11.6211 Z"/>
  </g>
 </g>
</svg>
