<?xml version="1.0" encoding="UTF-8"?>
<!--Generator: Apple Native CoreSVG 123-->
<!DOCTYPE svg
PUBLIC "-//W3C//DTD SVG 1.1//EN"
       "http://www.w3.org/Graphics/SVG/1.1/DTD/svg11.dtd">
<svg version="1.1" xmlns="http://www.w3.org/2000/svg" xmlns:xlink="http://www.w3.org/1999/xlink" width="3300" height="2200">
 <!--glyph: "uni1001B8.medium", point size: 100.000000, font version: "Version 15.0d7e11", template writer version: "5"-->
 <g id="Notes">
  <rect height="2200" id="artboard" style="fill:white;opacity:1" width="3300" x="0" y="0"/>
  <line id="" style="fill:none;stroke:black;opacity:1;stroke-width:0.5;" x1="263" x2="3036" y1="292" y2="292"/>
  <text style="stroke:none;fill:black;font-family:-apple-system,&quot;SF Pro Display&quot;,&quot;SF Pro Text&quot;,Helvetica,sans-serif;font-weight:bold;" transform="matrix(1 0 0 1 263 322)">Weight/Scale Variations</text>
  <text style="stroke:none;fill:black;font-family:-apple-system,&quot;SF Pro Display&quot;,&quot;SF Pro Text&quot;,Helvetica,sans-serif;text-anchor:middle;" transform="matrix(1 0 0 1 559.711 322)">Ultralight</text>
  <text style="stroke:none;fill:black;font-family:-apple-system,&quot;SF Pro Display&quot;,&quot;SF Pro Text&quot;,Helvetica,sans-serif;text-anchor:middle;" transform="matrix(1 0 0 1 856.422 322)">Thin</text>
  <text style="stroke:none;fill:black;font-family:-apple-system,&quot;SF Pro Display&quot;,&quot;SF Pro Text&quot;,Helvetica,sans-serif;text-anchor:middle;" transform="matrix(1 0 0 1 1153.13 322)">Light</text>
  <text style="stroke:none;fill:black;font-family:-apple-system,&quot;SF Pro Display&quot;,&quot;SF Pro Text&quot;,Helvetica,sans-serif;text-anchor:middle;" transform="matrix(1 0 0 1 1449.84 322)">Regular</text>
  <text style="stroke:none;fill:black;font-family:-apple-system,&quot;SF Pro Display&quot;,&quot;SF Pro Text&quot;,Helvetica,sans-serif;text-anchor:middle;" transform="matrix(1 0 0 1 1746.56 322)">Medium</text>
  <text style="stroke:none;fill:black;font-family:-apple-system,&quot;SF Pro Display&quot;,&quot;SF Pro Text&quot;,Helvetica,sans-serif;text-anchor:middle;" transform="matrix(1 0 0 1 2043.27 322)">Semibold</text>
  <text style="stroke:none;fill:black;font-family:-apple-system,&quot;SF Pro Display&quot;,&quot;SF Pro Text&quot;,Helvetica,sans-serif;text-anchor:middle;" transform="matrix(1 0 0 1 2339.98 322)">Bold</text>
  <text style="stroke:none;fill:black;font-family:-apple-system,&quot;SF Pro Display&quot;,&quot;SF Pro Text&quot;,Helvetica,sans-serif;text-anchor:middle;" transform="matrix(1 0 0 1 2636.69 322)">Heavy</text>
  <text style="stroke:none;fill:black;font-family:-apple-system,&quot;SF Pro Display&quot;,&quot;SF Pro Text&quot;,Helvetica,sans-serif;text-anchor:middle;" transform="matrix(1 0 0 1 2933.4 322)">Black</text>
  <line id="" style="fill:none;stroke:black;opacity:1;stroke-width:0.5;" x1="263" x2="3036" y1="1903" y2="1903"/>
  <g id="" transform="matrix(1 0 0 1 263 1933)">
   <path d="M 9.24805 0.830078 C 13.5547 0.830078 17.1387 -2.74414 17.1387 -7.05078 C 17.1387 -11.3574 13.5449 -14.9316 9.23828 -14.9316 C 4.94141 -14.9316 1.36719 -11.3574 1.36719 -7.05078 C 1.36719 -2.74414 4.95117 0.830078 9.24805 0.830078 Z M 9.24805 -0.654297 C 5.70312 -0.654297 2.87109 -3.49609 2.87109 -7.05078 C 2.87109 -10.6055 5.69336 -13.4473 9.23828 -13.4473 C 12.793 -13.4473 15.6348 -10.6055 15.6445 -7.05078 C 15.6543 -3.49609 12.8027 -0.654297 9.24805 -0.654297 Z M 9.22852 -3.42773 C 9.69727 -3.42773 9.9707 -3.74023 9.9707 -4.25781 L 9.9707 -6.31836 L 12.1973 -6.31836 C 12.6953 -6.31836 13.0371 -6.57227 13.0371 -7.04102 C 13.0371 -7.51953 12.7148 -7.7832 12.1973 -7.7832 L 9.9707 -7.7832 L 9.9707 -10.0098 C 9.9707 -10.5273 9.69727 -10.8496 9.22852 -10.8496 C 8.75977 -10.8496 8.50586 -10.5078 8.50586 -10.0098 L 8.50586 -7.7832 L 6.29883 -7.7832 C 5.78125 -7.7832 5.44922 -7.51953 5.44922 -7.04102 C 5.44922 -6.57227 5.80078 -6.31836 6.29883 -6.31836 L 8.50586 -6.31836 L 8.50586 -4.25781 C 8.50586 -3.75977 8.75977 -3.42773 9.22852 -3.42773 Z"/>
  </g>
  <g id="" transform="matrix(1 0 0 1 281.506 1933)">
   <path d="M 11.709 2.91016 C 17.1582 2.91016 21.6699 -1.60156 21.6699 -7.05078 C 21.6699 -12.4902 17.1484 -17.0117 11.6992 -17.0117 C 6.25977 -17.0117 1.74805 -12.4902 1.74805 -7.05078 C 1.74805 -1.60156 6.26953 2.91016 11.709 2.91016 Z M 11.709 1.25 C 7.09961 1.25 3.41797 -2.44141 3.41797 -7.05078 C 3.41797 -11.6504 7.08984 -15.3516 11.6992 -15.3516 C 16.3086 -15.3516 20 -11.6504 20.0098 -7.05078 C 20.0195 -2.44141 16.3184 1.25 11.709 1.25 Z M 11.6895 -2.41211 C 12.207 -2.41211 12.5195 -2.77344 12.5195 -3.33984 L 12.5195 -6.23047 L 15.5762 -6.23047 C 16.123 -6.23047 16.5039 -6.51367 16.5039 -7.03125 C 16.5039 -7.55859 16.1426 -7.86133 15.5762 -7.86133 L 12.5195 -7.86133 L 12.5195 -10.9277 C 12.5195 -11.5039 12.207 -11.8555 11.6895 -11.8555 C 11.1719 -11.8555 10.8789 -11.4844 10.8789 -10.9277 L 10.8789 -7.86133 L 7.83203 -7.86133 C 7.26562 -7.86133 6.89453 -7.55859 6.89453 -7.03125 C 6.89453 -6.51367 7.28516 -6.23047 7.83203 -6.23047 L 10.8789 -6.23047 L 10.8789 -3.33984 C 10.8789 -2.79297 11.1719 -2.41211 11.6895 -2.41211 Z"/>
  </g>
  <g id="" transform="matrix(1 0 0 1 304.924 1933)">
   <path d="M 14.9707 5.67383 C 21.9336 5.67383 27.6953 -0.078125 27.6953 -7.04102 C 27.6953 -14.0039 21.9238 -19.7559 14.9609 -19.7559 C 8.00781 -19.7559 2.25586 -14.0039 2.25586 -7.04102 C 2.25586 -0.078125 8.01758 5.67383 14.9707 5.67383 Z M 14.9707 3.85742 C 8.93555 3.85742 4.08203 -1.00586 4.08203 -7.04102 C 4.08203 -13.0762 8.92578 -17.9395 14.9609 -17.9395 C 21.0059 -17.9395 25.8594 -13.0762 25.8691 -7.04102 C 25.8789 -1.00586 21.0156 3.85742 14.9707 3.85742 Z M 14.9512 -1.06445 C 15.5176 -1.06445 15.8691 -1.45508 15.8691 -2.06055 L 15.8691 -6.13281 L 20.1074 -6.13281 C 20.6934 -6.13281 21.1133 -6.46484 21.1133 -7.02148 C 21.1133 -7.59766 20.7227 -7.93945 20.1074 -7.93945 L 15.8691 -7.93945 L 15.8691 -12.1875 C 15.8691 -12.8027 15.5176 -13.1934 14.9512 -13.1934 C 14.3848 -13.1934 14.0625 -12.7832 14.0625 -12.1875 L 14.0625 -7.93945 L 9.83398 -7.93945 C 9.21875 -7.93945 8.80859 -7.59766 8.80859 -7.02148 C 8.80859 -6.46484 9.23828 -6.13281 9.83398 -6.13281 L 14.0625 -6.13281 L 14.0625 -2.06055 C 14.0625 -1.47461 14.3848 -1.06445 14.9512 -1.06445 Z"/>
  </g>
  <text style="stroke:none;fill:black;font-family:-apple-system,&quot;SF Pro Display&quot;,&quot;SF Pro Text&quot;,Helvetica,sans-serif;font-weight:bold;" transform="matrix(1 0 0 1 263 1953)">Design Variations</text>
  <text style="stroke:none;fill:black;font-family:-apple-system,&quot;SF Pro Display&quot;,&quot;SF Pro Text&quot;,Helvetica,sans-serif;" transform="matrix(1 0 0 1 263 1971)">Symbols are supported in up to nine weights and three scales.</text>
  <text style="stroke:none;fill:black;font-family:-apple-system,&quot;SF Pro Display&quot;,&quot;SF Pro Text&quot;,Helvetica,sans-serif;" transform="matrix(1 0 0 1 263 1989)">For optimal layout with text and other symbols, vertically align</text>
  <text style="stroke:none;fill:black;font-family:-apple-system,&quot;SF Pro Display&quot;,&quot;SF Pro Text&quot;,Helvetica,sans-serif;" transform="matrix(1 0 0 1 263 2007)">symbols with the adjacent text.</text>
  <rect height="14" id="" style="fill:#00AEEF;stroke:none;opacity:0.4;" width="3" x="776" y="1919"/>
  <g id="" transform="matrix(1 0 0 1 779 1933)">
   <path d="M 10.5273 0 L 12.373 0 L 7.17773 -14.0918 L 5.43945 -14.0918 L 0.244141 0 L 2.08984 0 L 3.50586 -4.0332 L 9.11133 -4.0332 Z M 6.2793 -11.9531 L 6.33789 -11.9531 L 8.59375 -5.52734 L 4.02344 -5.52734 Z"/>
  </g>
  <rect height="14" id="" style="fill:#00AEEF;stroke:none;opacity:0.4;" width="3" x="791.617" y="1919"/>
  <text style="stroke:none;fill:black;font-family:-apple-system,&quot;SF Pro Display&quot;,&quot;SF Pro Text&quot;,Helvetica,sans-serif;font-weight:bold;" transform="matrix(1 0 0 1 776 1953)">Margins</text>
  <text style="stroke:none;fill:black;font-family:-apple-system,&quot;SF Pro Display&quot;,&quot;SF Pro Text&quot;,Helvetica,sans-serif;" transform="matrix(1 0 0 1 776 1971)">Leading and trailing margins on the left and right side of each symbol</text>
  <text style="stroke:none;fill:black;font-family:-apple-system,&quot;SF Pro Display&quot;,&quot;SF Pro Text&quot;,Helvetica,sans-serif;" transform="matrix(1 0 0 1 776 1989)">can be adjusted by modifying the width of the blue rectangles.</text>
  <text style="stroke:none;fill:black;font-family:-apple-system,&quot;SF Pro Display&quot;,&quot;SF Pro Text&quot;,Helvetica,sans-serif;" transform="matrix(1 0 0 1 776 2007)">Modifications are automatically applied proportionally to all</text>
  <text style="stroke:none;fill:black;font-family:-apple-system,&quot;SF Pro Display&quot;,&quot;SF Pro Text&quot;,Helvetica,sans-serif;" transform="matrix(1 0 0 1 776 2025)">scales and weights.</text>
  <g id="" transform="matrix(1 0 0 1 1289 1933)">
   <path d="M 2.83203 3.11523 L 4.375 4.6582 C 5.22461 5.48828 6.19141 5.41992 7.06055 4.46289 L 17.2754 -6.66016 C 17.7051 -6.36719 18.0957 -6.37695 18.5645 -6.47461 L 19.6094 -6.68945 L 20.3027 -5.99609 L 20.2539 -5.47852 C 20.1855 -4.95117 20.3516 -4.53125 20.8496 -4.0332 L 21.6602 -3.22266 C 22.168 -2.71484 22.8223 -2.68555 23.3008 -3.16406 L 26.5527 -6.41602 C 27.0312 -6.89453 27.0117 -7.54883 26.5039 -8.05664 L 25.6836 -8.87695 C 25.1855 -9.375 24.7754 -9.55078 24.2383 -9.47266 L 23.7109 -9.41406 L 23.0566 -10.0781 L 23.3398 -11.2207 C 23.4863 -11.7871 23.3398 -12.2559 22.7148 -12.8613 L 20.3027 -15.2539 C 16.7578 -18.7793 12.2266 -18.6719 9.11133 -15.5371 C 8.69141 -15.1074 8.64258 -14.5215 8.91602 -14.0918 C 9.15039 -13.7207 9.62891 -13.4961 10.2734 -13.6621 C 11.7871 -14.043 13.3008 -13.9258 14.7852 -12.9199 L 14.1602 -11.3379 C 13.9258 -10.752 13.9453 -10.2734 14.1797 -9.83398 L 3.01758 0.439453 C 2.08008 1.30859 1.97266 2.25586 2.83203 3.11523 Z M 10.6738 -15.1465 C 13.3398 -17.1387 16.6504 -16.8262 19.0527 -14.4141 L 21.6797 -11.8066 C 21.9141 -11.5723 21.9434 -11.3867 21.8848 -11.0938 L 21.5039 -9.53125 L 23.0762 -7.95898 L 24.043 -8.04688 C 24.3262 -8.07617 24.4141 -8.05664 24.6387 -7.83203 L 25.2637 -7.20703 L 22.5098 -4.46289 L 21.8848 -5.07812 C 21.6602 -5.30273 21.6406 -5.40039 21.6699 -5.68359 L 21.7578 -6.64062 L 20.1953 -8.20312 L 18.5742 -7.89062 C 18.291 -7.83203 18.1445 -7.83203 17.9102 -8.07617 L 15.7324 -10.2539 C 15.5078 -10.4883 15.4785 -10.625 15.6055 -10.9473 L 16.5527 -13.2227 C 14.9512 -14.7559 12.8418 -15.6055 10.8008 -14.9512 C 10.7129 -14.9219 10.6445 -14.9414 10.6152 -14.9805 C 10.5859 -15.0293 10.5859 -15.0781 10.6738 -15.1465 Z M 4.10156 2.41211 C 3.61328 1.91406 3.78906 1.61133 4.12109 1.30859 L 15.0781 -8.80859 L 16.3086 -7.57812 L 6.15234 3.34961 C 5.84961 3.68164 5.46875 3.7793 5.06836 3.37891 Z"/>
  </g>
  <text style="stroke:none;fill:black;font-family:-apple-system,&quot;SF Pro Display&quot;,&quot;SF Pro Text&quot;,Helvetica,sans-serif;font-weight:bold;" transform="matrix(1 0 0 1 1289 1953)">Exporting</text>
  <text style="stroke:none;fill:black;font-family:-apple-system,&quot;SF Pro Display&quot;,&quot;SF Pro Text&quot;,Helvetica,sans-serif;" transform="matrix(1 0 0 1 1289 1971)">Symbols should be outlined when exporting to ensure the</text>
  <text style="stroke:none;fill:black;font-family:-apple-system,&quot;SF Pro Display&quot;,&quot;SF Pro Text&quot;,Helvetica,sans-serif;" transform="matrix(1 0 0 1 1289 1989)">design is preserved when submitting to Xcode.</text>
  <text id="template-version" style="stroke:none;fill:black;font-family:-apple-system,&quot;SF Pro Display&quot;,&quot;SF Pro Text&quot;,Helvetica,sans-serif;text-anchor:end;" transform="matrix(1 0 0 1 3036 1933)">Template v.1.0</text>
  <text style="stroke:none;fill:black;font-family:-apple-system,&quot;SF Pro Display&quot;,&quot;SF Pro Text&quot;,Helvetica,sans-serif;text-anchor:end;" transform="matrix(1 0 0 1 3036 1951)">Generated from sun.haze.fill</text>
  <text style="stroke:none;fill:black;font-family:-apple-system,&quot;SF Pro Display&quot;,&quot;SF Pro Text&quot;,Helvetica,sans-serif;text-anchor:end;" transform="matrix(1 0 0 1 3036 1969)">Typeset at 100 points</text>
  <text style="stroke:none;fill:black;font-family:-apple-system,&quot;SF Pro Display&quot;,&quot;SF Pro Text&quot;,Helvetica,sans-serif;" transform="matrix(1 0 0 1 263 726)">Small</text>
  <text style="stroke:none;fill:black;font-family:-apple-system,&quot;SF Pro Display&quot;,&quot;SF Pro Text&quot;,Helvetica,sans-serif;" transform="matrix(1 0 0 1 263 1156)">Medium</text>
  <text style="stroke:none;fill:black;font-family:-apple-system,&quot;SF Pro Display&quot;,&quot;SF Pro Text&quot;,Helvetica,sans-serif;" transform="matrix(1 0 0 1 263 1586)">Large</text>
 </g>
 <g id="Guides">
  <g id="H-reference" style="fill:#27AAE1;stroke:none;" transform="matrix(1 0 0 1 339 696)">
   <path d="M 54.9316 0 L 57.666 0 L 30.5664 -70.459 L 28.0762 -70.459 L 0.976562 0 L 3.66211 0 L 12.9395 -24.4629 L 45.7031 -24.4629 Z M 29.1992 -67.0898 L 29.4434 -67.0898 L 44.8242 -26.709 L 13.8184 -26.709 Z"/>
  </g>
  <line id="Baseline-S" style="fill:none;stroke:#27AAE1;opacity:1;stroke-width:0.577;" x1="263" x2="3036" y1="696" y2="696"/>
  <line id="Capline-S" style="fill:none;stroke:#27AAE1;opacity:1;stroke-width:0.577;" x1="263" x2="3036" y1="625.541" y2="625.541"/>
  <g id="H-reference" style="fill:#27AAE1;stroke:none;" transform="matrix(1 0 0 1 339 1126)">
   <path d="M 54.9316 0 L 57.666 0 L 30.5664 -70.459 L 28.0762 -70.459 L 0.976562 0 L 3.66211 0 L 12.9395 -24.4629 L 45.7031 -24.4629 Z M 29.1992 -67.0898 L 29.4434 -67.0898 L 44.8242 -26.709 L 13.8184 -26.709 Z"/>
  </g>
  <line id="Baseline-M" style="fill:none;stroke:#27AAE1;opacity:1;stroke-width:0.577;" x1="263" x2="3036" y1="1126" y2="1126"/>
  <line id="Capline-M" style="fill:none;stroke:#27AAE1;opacity:1;stroke-width:0.577;" x1="263" x2="3036" y1="1055.54" y2="1055.54"/>
  <g id="H-reference" style="fill:#27AAE1;stroke:none;" transform="matrix(1 0 0 1 339 1556)">
   <path d="M 54.9316 0 L 57.666 0 L 30.5664 -70.459 L 28.0762 -70.459 L 0.976562 0 L 3.66211 0 L 12.9395 -24.4629 L 45.7031 -24.4629 Z M 29.1992 -67.0898 L 29.4434 -67.0898 L 44.8242 -26.709 L 13.8184 -26.709 Z"/>
  </g>
  <line id="Baseline-L" style="fill:none;stroke:#27AAE1;opacity:1;stroke-width:0.577;" x1="263" x2="3036" y1="1556" y2="1556"/>
  <line id="Capline-L" style="fill:none;stroke:#27AAE1;opacity:1;stroke-width:0.577;" x1="263" x2="3036" y1="1485.54" y2="1485.54"/>
  <rect height="119.336" id="left-margin" style="fill:#00AEEF;stroke:none;opacity:0.4;" width="12.4512" x="1381.05" y="1030.79"/>
  <rect height="119.336" id="right-margin" style="fill:#00AEEF;stroke:none;opacity:0.4;" width="12.4512" x="1506.19" y="1030.79"/>
 </g>
 <g id="Symbols">
  <g id="Black-L" transform="matrix(1 0 0 1 2844.63 1556)">
   <path d="M 88.7695 -74.6094 C 92.8223 -74.6582 96.1426 -78.0762 96.1426 -82.3242 L 96.1426 -93.4082 C 96.1426 -97.7051 92.8223 -101.123 88.7695 -101.123 C 84.668 -101.123 81.3477 -97.7051 81.3477 -93.4082 L 81.3477 -82.3242 C 81.3477 -78.0762 84.668 -74.6094 88.7695 -74.6094 Z M 121.436 -61.084 C 124.316 -58.2031 129.102 -58.3496 132.129 -61.3281 L 139.99 -69.0918 C 143.018 -72.1191 143.018 -76.9043 140.137 -79.7852 C 137.305 -82.666 132.52 -82.6172 129.492 -79.541 L 121.631 -71.7773 C 118.652 -68.75 118.555 -63.916 121.436 -61.084 Z M 45.4102 -61.3281 C 48.3887 -58.3496 53.2227 -58.2031 56.1035 -61.084 C 58.9355 -63.9648 58.8867 -68.75 55.9082 -71.7773 L 48.0469 -79.541 C 44.9707 -82.6172 40.2344 -82.666 37.3535 -79.7852 C 34.4727 -76.9531 34.4727 -72.1191 37.5488 -69.0918 Z M 31.1523 0.244141 L 155.908 0.244141 C 159.033 0.244141 161.475 -2.00195 161.475 -5.0293 C 161.475 -8.00781 159.033 -10.2539 155.908 -10.2539 L 117.92 -10.2539 C 121.289 -15.6738 123.242 -21.9238 123.242 -28.6133 C 123.242 -47.7539 107.764 -63.2324 88.7695 -63.2324 C 69.7266 -63.2324 54.2969 -47.7539 54.2969 -28.6133 C 54.2969 -21.9238 56.25 -15.6738 59.6191 -10.2539 L 31.1523 -10.2539 C 27.9785 -10.2539 25.5371 -8.00781 25.5371 -5.0293 C 25.5371 -2.00195 27.9785 0.244141 31.1523 0.244141 Z M 23.7305 -23.7793 L 34.8633 -23.7793 C 39.1113 -23.7793 42.5781 -27.0996 42.5293 -31.2012 C 42.5293 -35.2539 39.1113 -38.5742 34.8633 -38.5742 L 23.7305 -38.5742 C 19.5312 -38.5742 16.0645 -35.2539 16.0645 -31.2012 C 16.0645 -27.0996 19.5801 -23.7793 23.7305 -23.7793 Z M 142.676 -23.7793 L 153.76 -23.7793 C 158.057 -23.7793 161.475 -27.0996 161.475 -31.2012 C 161.475 -35.2539 158.057 -38.5742 153.76 -38.5742 L 142.676 -38.5742 C 138.477 -38.5742 134.961 -35.2539 134.961 -31.2012 C 135.01 -27.0996 138.525 -23.7793 142.676 -23.7793 Z M 21.6309 24.4141 L 146.387 24.4141 C 149.561 24.4141 151.953 22.168 151.953 19.1895 C 151.953 16.1621 149.561 13.916 146.387 13.916 L 21.6309 13.916 C 18.5059 13.916 16.0645 16.1621 16.0645 19.1895 C 16.0645 22.168 18.5059 24.4141 21.6309 24.4141 Z M 31.1523 48.6328 L 155.908 48.6328 C 159.033 48.6328 161.475 46.3867 161.475 43.4082 C 161.475 40.3809 159.033 38.1348 155.908 38.1348 L 31.1523 38.1348 C 27.9785 38.1348 25.5371 40.3809 25.5371 43.4082 C 25.5371 46.3867 27.9785 48.6328 31.1523 48.6328 Z"/>
  </g>
  <g id="Heavy-L" transform="matrix(1 0 0 1 2547.92 1556)">
   <path d="M 88.7695 -75.6348 C 92.4316 -75.6836 95.459 -78.7598 95.459 -82.666 L 95.459 -95.2148 C 95.459 -99.1211 92.4316 -102.197 88.7695 -102.197 C 85.1074 -102.197 82.0801 -99.1211 82.0801 -95.2148 L 82.0801 -82.666 C 82.0801 -78.7598 85.1074 -75.5859 88.7695 -75.6348 Z M 121.387 -62.1094 C 123.975 -59.5215 128.32 -59.6191 131.055 -62.3535 L 139.99 -71.1914 C 142.773 -73.9746 142.725 -78.2715 140.137 -80.8594 C 137.598 -83.4961 133.301 -83.4473 130.518 -80.6641 L 121.582 -71.7773 C 118.848 -69.043 118.799 -64.6973 121.387 -62.1094 Z M 46.4355 -62.3535 C 49.1699 -59.6191 53.5645 -59.5215 56.1523 -62.1094 C 58.6914 -64.6973 58.6914 -69.043 55.9082 -71.7773 L 47.0215 -80.6641 C 44.2383 -83.4473 39.9902 -83.4473 37.3535 -80.8594 C 34.7656 -78.3203 34.7656 -73.9746 37.5488 -71.1914 Z M 30.6641 -1.17188 L 156.396 -1.17188 C 159.229 -1.17188 161.475 -3.22266 161.475 -5.95703 C 161.475 -8.74023 159.229 -10.791 156.396 -10.791 L 117.285 -10.791 C 120.947 -16.3086 123.096 -22.7539 123.096 -29.6875 C 123.096 -48.6328 107.666 -64.1113 88.7695 -64.1113 C 69.873 -64.1113 54.4434 -48.6328 54.4434 -29.6875 C 54.4434 -22.7539 56.5918 -16.3086 60.2539 -10.791 L 30.6641 -10.791 C 27.7832 -10.791 25.5371 -8.74023 25.5371 -5.95703 C 25.5371 -3.22266 27.7832 -1.17188 30.6641 -1.17188 Z M 23.0469 -25.3418 L 35.5957 -25.3418 C 39.5508 -25.3418 42.627 -28.3203 42.627 -31.9824 C 42.5781 -35.6445 39.5508 -38.6719 35.5957 -38.6719 L 23.0469 -38.6719 C 19.1895 -38.6719 16.0645 -35.6934 16.0645 -31.9824 C 16.0645 -28.3203 19.2383 -25.3418 23.0469 -25.3418 Z M 141.943 -25.3418 L 154.492 -25.3418 C 158.398 -25.3418 161.475 -28.3203 161.475 -31.9824 C 161.475 -35.6445 158.398 -38.6719 154.492 -38.6719 L 141.943 -38.6719 C 138.037 -38.6719 134.863 -35.6934 134.912 -31.9824 C 134.912 -28.3203 138.086 -25.3418 141.943 -25.3418 Z M 21.1426 23.0469 L 146.875 23.0469 C 149.756 23.0469 151.953 20.9961 151.953 18.2129 C 151.953 15.4785 149.756 13.4277 146.875 13.4277 L 21.1426 13.4277 C 18.2617 13.4277 16.0645 15.4785 16.0645 18.2129 C 16.0645 20.9961 18.2617 23.0469 21.1426 23.0469 Z M 30.6641 47.2656 L 156.396 47.2656 C 159.229 47.2656 161.475 45.2148 161.475 42.4316 C 161.475 39.6973 159.229 37.5977 156.396 37.5977 L 30.6641 37.5977 C 27.7832 37.5977 25.5371 39.6973 25.5371 42.4316 C 25.5371 45.2148 27.7832 47.2656 30.6641 47.2656 Z"/>
  </g>
  <g id="Bold-L" transform="matrix(1 0 0 1 2251.21 1556)">
   <path d="M 88.7695 -76.7578 C 91.9922 -76.8066 94.6289 -79.541 94.6289 -83.0078 L 94.6289 -97.2168 C 94.6289 -100.732 91.9922 -103.418 88.7695 -103.418 C 85.5469 -103.418 82.9102 -100.732 82.9102 -97.2168 L 82.9102 -83.0078 C 82.9102 -79.541 85.5469 -76.7578 88.7695 -76.7578 Z M 121.338 -63.2812 C 123.633 -61.0352 127.441 -61.084 129.883 -63.5254 L 139.941 -73.5352 C 142.48 -76.0742 142.432 -79.834 140.137 -82.0801 C 137.891 -84.375 134.131 -84.375 131.641 -81.8848 L 121.582 -71.875 C 119.141 -69.3848 119.043 -65.5273 121.338 -63.2812 Z M 47.6074 -63.5254 C 50.0977 -61.084 53.9551 -60.9863 56.2012 -63.2812 C 58.4473 -65.5762 58.3984 -69.3848 55.957 -71.875 L 45.8984 -81.8848 C 43.4082 -84.375 39.6484 -84.375 37.3535 -82.0801 C 35.1074 -79.834 35.0586 -76.0742 37.5488 -73.5352 Z M 30.0781 -2.68555 L 156.934 -2.68555 C 159.473 -2.68555 161.475 -4.54102 161.475 -7.03125 C 161.475 -9.52148 159.473 -11.377 156.934 -11.377 L 116.602 -11.377 C 120.557 -16.9434 122.852 -23.6328 122.852 -30.8594 C 122.852 -49.6582 107.52 -65.0391 88.7695 -65.0391 C 70.0195 -65.0391 54.6387 -49.6582 54.6387 -30.8594 C 54.6387 -23.6328 56.9824 -16.9434 60.9375 -11.377 L 30.0781 -11.377 C 27.5391 -11.377 25.5371 -9.52148 25.5371 -7.03125 C 25.5371 -4.54102 27.5391 -2.68555 30.0781 -2.68555 Z M 22.2656 -27.0508 L 36.4746 -27.0508 C 39.9902 -27.0508 42.7246 -29.6387 42.6758 -32.9102 C 42.6758 -36.1328 39.9902 -38.7695 36.4746 -38.7695 L 22.2656 -38.7695 C 18.7988 -38.7695 16.0645 -36.1328 16.0645 -32.9102 C 16.0645 -29.6875 18.8477 -27.0508 22.2656 -27.0508 Z M 141.064 -27.0508 L 155.273 -27.0508 C 158.789 -27.0508 161.475 -29.6387 161.475 -32.9102 C 161.475 -36.1328 158.789 -38.7695 155.273 -38.7695 L 141.064 -38.7695 C 137.598 -38.7695 134.814 -36.1328 134.814 -32.9102 C 134.863 -29.6875 137.646 -27.0508 141.064 -27.0508 Z M 20.6055 21.5332 L 147.412 21.5332 C 150 21.5332 151.953 19.6289 151.953 17.1875 C 151.953 14.6973 150 12.793 147.412 12.793 L 20.6055 12.793 C 18.0664 12.793 16.0645 14.6973 16.0645 17.1875 C 16.0645 19.6289 18.0664 21.5332 20.6055 21.5332 Z M 30.0781 45.7031 L 156.934 45.7031 C 159.473 45.7031 161.475 43.8477 161.475 41.3574 C 161.475 38.8672 159.473 37.0117 156.934 37.0117 L 30.0781 37.0117 C 27.5391 37.0117 25.5371 38.8672 25.5371 41.3574 C 25.5371 43.8477 27.5391 45.7031 30.0781 45.7031 Z"/>
  </g>
  <g id="Semibold-L" transform="matrix(1 0 0 1 1954.5 1556)">
   <path d="M 88.7695 -77.5879 C 91.6992 -77.5879 94.0918 -80.0781 94.0918 -83.252 L 94.0918 -98.584 C 94.0918 -101.807 91.6992 -104.248 88.7695 -104.248 C 85.8398 -104.248 83.4473 -101.807 83.4473 -98.584 L 83.4473 -83.252 C 83.4473 -80.0781 85.8398 -77.5391 88.7695 -77.5879 Z M 121.289 -64.1113 C 123.389 -62.0605 126.855 -62.1094 129.102 -64.3555 L 139.941 -75.1953 C 142.285 -77.4902 142.188 -80.8594 140.137 -82.959 C 138.135 -85.0098 134.717 -85.0586 132.422 -82.7148 L 121.533 -71.875 C 119.287 -69.6289 119.238 -66.1133 121.289 -64.1113 Z M 48.4375 -64.3555 C 50.6836 -62.1094 54.1992 -62.0117 56.2012 -64.1113 C 58.252 -66.1621 58.252 -69.6289 55.957 -71.875 L 45.1172 -82.7148 C 42.8223 -85.0586 39.4531 -84.9609 37.3535 -82.959 C 35.3027 -80.9082 35.2539 -77.4902 37.5977 -75.1953 Z M 29.7363 -3.75977 L 157.324 -3.75977 C 159.619 -3.75977 161.475 -5.46875 161.475 -7.76367 C 161.475 -10.0586 159.619 -11.8164 157.324 -11.8164 L 116.113 -11.8164 C 120.264 -17.4316 122.754 -24.2676 122.754 -31.6895 C 122.754 -50.3418 107.422 -65.7227 88.7695 -65.7227 C 70.1172 -65.7227 54.7852 -50.3418 54.7852 -31.6895 C 54.7852 -24.2676 57.2754 -17.4316 61.377 -11.8164 L 29.7363 -11.8164 C 27.3926 -11.8164 25.5371 -10.0586 25.5371 -7.76367 C 25.5371 -5.46875 27.3926 -3.75977 29.7363 -3.75977 Z M 21.7285 -28.2227 L 37.0605 -28.2227 C 40.2832 -28.2227 42.7734 -30.6152 42.7734 -33.5449 C 42.7246 -36.4258 40.2832 -38.8672 37.0605 -38.8672 L 21.7285 -38.8672 C 18.5547 -38.8672 16.0645 -36.4746 16.0645 -33.5449 C 16.0645 -30.6152 18.5547 -28.2227 21.7285 -28.2227 Z M 140.479 -28.2227 L 155.811 -28.2227 C 159.033 -28.2227 161.475 -30.6152 161.475 -33.5449 C 161.475 -36.4258 159.033 -38.8672 155.811 -38.8672 L 140.479 -38.8672 C 137.305 -38.8672 134.717 -36.4746 134.766 -33.5449 C 134.814 -30.6152 137.305 -28.2227 140.479 -28.2227 Z M 20.2148 20.459 L 147.803 20.459 C 150.146 20.459 151.953 18.75 151.953 16.4062 C 151.953 14.1113 150.146 12.4023 147.803 12.4023 L 20.2148 12.4023 C 17.8711 12.4023 16.0645 14.1113 16.0645 16.4062 C 16.0645 18.75 17.8711 20.459 20.2148 20.459 Z M 29.7363 44.6777 L 157.324 44.6777 C 159.619 44.6777 161.475 42.9199 161.475 40.625 C 161.475 38.3301 159.619 36.6211 157.324 36.6211 L 29.7363 36.6211 C 27.3926 36.6211 25.5371 38.3301 25.5371 40.625 C 25.5371 42.9199 27.3926 44.6777 29.7363 44.6777 Z"/>
  </g>
  <g id="Medium-L" transform="matrix(1 0 0 1 1657.79 1556)">
   <path d="M 88.7695 -78.1738 C 91.4551 -78.2227 93.6523 -80.4688 93.6523 -83.4473 L 93.6523 -99.6582 C 93.6523 -102.637 91.4551 -104.883 88.7695 -104.883 C 86.084 -104.883 83.8867 -102.637 83.8867 -99.6582 L 83.8867 -83.4473 C 83.8867 -80.4688 86.084 -78.125 88.7695 -78.1738 Z M 121.289 -64.6973 C 123.193 -62.8418 126.367 -62.8906 128.467 -64.9902 L 139.941 -76.416 C 142.139 -78.5645 142.041 -81.6895 140.137 -83.5938 C 138.281 -85.4492 135.156 -85.5469 133.008 -83.3496 L 121.533 -71.9238 C 119.434 -69.8242 119.385 -66.6016 121.289 -64.6973 Z M 49.0234 -64.9902 C 51.1719 -62.8906 54.3945 -62.793 56.25 -64.6973 C 58.1055 -66.6504 58.1055 -69.8242 56.0059 -71.9238 L 44.5312 -83.3496 C 42.3828 -85.5469 39.2578 -85.4492 37.3535 -83.5938 C 35.4492 -81.6895 35.4004 -78.5645 37.5977 -76.416 Z M 29.4434 -4.54102 L 157.568 -4.54102 C 159.766 -4.54102 161.475 -6.15234 161.475 -8.34961 C 161.475 -10.498 159.766 -12.1094 157.568 -12.1094 L 115.771 -12.1094 C 120.068 -17.7734 122.607 -24.707 122.607 -32.2754 C 122.607 -50.8301 107.324 -66.2109 88.7695 -66.2109 C 70.2148 -66.2109 54.8828 -50.8301 54.8828 -32.2754 C 54.8828 -24.707 57.4707 -17.7734 61.7676 -12.1094 L 29.4434 -12.1094 C 27.2461 -12.1094 25.5371 -10.498 25.5371 -8.34961 C 25.5371 -6.15234 27.2461 -4.54102 29.4434 -4.54102 Z M 21.2891 -29.1016 L 37.5 -29.1016 C 40.5273 -29.1016 42.8223 -31.2988 42.7734 -34.0332 C 42.7246 -36.6699 40.5273 -38.916 37.5 -38.916 L 21.2891 -38.916 C 18.3105 -38.916 16.0645 -36.7188 16.0645 -34.0332 C 16.0645 -31.2988 18.3594 -29.1016 21.2891 -29.1016 Z M 140.039 -29.1016 L 156.201 -29.1016 C 159.229 -29.1016 161.475 -31.2988 161.475 -34.0332 C 161.475 -36.6699 159.229 -38.916 156.201 -38.916 L 140.039 -38.916 C 137.061 -38.916 134.668 -36.7188 134.717 -34.0332 C 134.766 -31.2988 137.061 -29.1016 140.039 -29.1016 Z M 19.9219 19.6289 L 148.096 19.6289 C 150.293 19.6289 151.953 18.0176 151.953 15.8691 C 151.953 13.7207 150.293 12.1094 148.096 12.1094 L 19.9219 12.1094 C 17.7734 12.1094 16.0645 13.7207 16.0645 15.8691 C 16.0645 18.0176 17.7734 19.6289 19.9219 19.6289 Z M 29.4434 43.8477 L 157.568 43.8477 C 159.766 43.8477 161.475 42.2363 161.475 40.0879 C 161.475 37.9395 159.766 36.2793 157.568 36.2793 L 29.4434 36.2793 C 27.2461 36.2793 25.5371 37.9395 25.5371 40.0879 C 25.5371 42.2363 27.2461 43.8477 29.4434 43.8477 Z"/>
  </g>
  <g id="Regular-L" transform="matrix(1 0 0 1 1361.07 1556)">
   <path d="M 88.7695 -78.9551 C 91.1621 -79.0039 93.1152 -81.0059 93.1152 -83.6914 L 93.1152 -101.025 C 93.1152 -103.76 91.1621 -105.713 88.7695 -105.713 C 86.377 -105.713 84.4238 -103.76 84.4238 -101.025 L 84.4238 -83.6914 C 84.4238 -81.0059 86.377 -78.9062 88.7695 -78.9551 Z M 121.24 -65.5273 C 122.949 -63.8672 125.781 -63.8672 127.686 -65.7715 L 139.941 -78.0273 C 141.895 -79.9805 141.846 -82.7148 140.137 -84.4238 C 138.525 -86.084 135.742 -86.1816 133.74 -84.1797 L 121.533 -71.9727 C 119.58 -70.0195 119.531 -67.1875 121.24 -65.5273 Z M 49.8535 -65.7715 C 51.7578 -63.8672 54.6387 -63.8184 56.2988 -65.5273 C 57.9102 -67.2363 57.9102 -70.0195 56.0059 -71.9727 L 43.75 -84.1797 C 41.7969 -86.1816 39.0625 -86.084 37.3535 -84.4238 C 35.6934 -82.7148 35.5957 -79.9805 37.5977 -78.0273 Z M 29.0527 -5.61523 L 157.959 -5.61523 C 159.912 -5.61523 161.475 -7.08008 161.475 -9.08203 C 161.475 -11.0352 159.912 -12.5 157.959 -12.5 L 115.283 -12.5 C 119.775 -18.2129 122.51 -25.3418 122.51 -33.1055 C 122.51 -51.5625 107.227 -66.8945 88.7695 -66.8945 C 70.3125 -66.8945 55.0293 -51.5625 55.0293 -33.1055 C 55.0293 -25.3418 57.7637 -18.2129 62.2559 -12.5 L 29.0527 -12.5 C 27.0996 -12.5 25.5371 -11.0352 25.5371 -9.08203 C 25.5371 -7.08008 27.0996 -5.61523 29.0527 -5.61523 Z M 20.752 -30.2734 L 38.0859 -30.2734 C 40.8203 -30.2734 42.8711 -32.2266 42.8223 -34.6191 C 42.7734 -37.0117 40.8203 -38.9648 38.0859 -38.9648 L 20.752 -38.9648 C 18.0664 -38.9648 16.0645 -37.0117 16.0645 -34.6191 C 16.0645 -32.2266 18.0664 -30.2734 20.752 -30.2734 Z M 139.453 -30.2734 L 156.738 -30.2734 C 159.473 -30.2734 161.475 -32.2266 161.475 -34.6191 C 161.475 -37.0117 159.473 -38.9648 156.738 -38.9648 L 139.453 -38.9648 C 136.719 -38.9648 134.619 -37.0117 134.668 -34.6191 C 134.717 -32.2266 136.719 -30.2734 139.453 -30.2734 Z M 19.5801 18.6035 L 148.486 18.6035 C 150.439 18.6035 151.953 17.1387 151.953 15.1367 C 151.953 13.1836 150.439 11.6699 148.486 11.6699 L 19.5801 11.6699 C 17.627 11.6699 16.0645 13.1836 16.0645 15.1367 C 16.0645 17.1387 17.627 18.6035 19.5801 18.6035 Z M 29.0527 42.8223 L 157.959 42.8223 C 159.912 42.8223 161.475 41.3086 161.475 39.3555 C 161.475 37.4023 159.912 35.8887 157.959 35.8887 L 29.0527 35.8887 C 27.0996 35.8887 25.5371 37.4023 25.5371 39.3555 C 25.5371 41.3086 27.0996 42.8223 29.0527 42.8223 Z"/>
  </g>
  <g id="Light-L" transform="matrix(1 0 0 1 1064.36 1556)">
   <path d="M 88.7695 -79.3457 C 90.5762 -79.3457 92.041 -80.9082 92.041 -82.8613 L 92.041 -102.637 C 92.041 -104.639 90.5762 -106.104 88.7695 -106.104 C 86.9629 -106.104 85.4492 -104.639 85.4492 -102.637 L 85.4492 -82.8613 C 85.4492 -80.9082 86.9629 -79.2969 88.7695 -79.3457 Z M 51.4648 -66.0156 C 52.832 -64.6484 55.0293 -64.6484 56.2988 -65.918 C 57.5195 -67.1875 57.5195 -69.3359 56.1523 -70.7031 L 42.1387 -84.7168 C 40.6738 -86.1816 38.623 -86.0352 37.3535 -84.8145 C 36.084 -83.4961 35.9863 -81.4941 37.5 -80.0293 Z M 121.24 -65.918 C 122.51 -64.6484 124.707 -64.6484 126.074 -66.0156 L 140.039 -80.0293 C 141.504 -81.4941 141.455 -83.5449 140.137 -84.8145 C 138.916 -86.0352 136.865 -86.1816 135.352 -84.7168 L 121.387 -70.7031 C 120.02 -69.3359 119.971 -67.1387 121.24 -65.918 Z M 28.418 -6.73828 L 158.594 -6.73828 C 160.205 -6.73828 161.475 -7.86133 161.475 -9.47266 C 161.475 -11.0352 160.205 -12.207 158.594 -12.207 L 114.014 -12.207 C 118.945 -17.9688 121.924 -25.3906 121.924 -33.4961 C 121.924 -51.6602 106.982 -66.6992 88.7695 -66.6992 C 70.5566 -66.6992 55.5664 -51.6602 55.5664 -33.4961 C 55.5664 -25.3906 58.5938 -17.9199 63.5254 -12.207 L 28.418 -12.207 C 26.8066 -12.207 25.5371 -11.0352 25.5371 -9.47266 C 25.5371 -7.86133 26.8066 -6.73828 28.418 -6.73828 Z M 19.5312 -31.7383 L 39.3066 -31.7383 C 41.3574 -31.7383 42.8711 -33.2031 42.8223 -35.0098 C 42.8223 -36.7676 41.3574 -38.3301 39.3066 -38.3301 L 19.5312 -38.3301 C 17.5781 -38.3301 16.0645 -36.8164 16.0645 -35.0098 C 16.0645 -33.252 17.5781 -31.7383 19.5312 -31.7383 Z M 138.184 -31.7383 L 157.959 -31.7383 C 160.01 -31.7383 161.475 -33.2031 161.475 -35.0098 C 161.475 -36.7676 160.01 -38.3301 157.959 -38.3301 L 138.184 -38.3301 C 136.23 -38.3301 134.668 -36.8164 134.668 -35.0098 C 134.717 -33.252 136.23 -31.7383 138.184 -31.7383 Z M 18.8965 17.4805 L 149.121 17.4805 C 150.684 17.4805 151.953 16.3086 151.953 14.7461 C 151.953 13.1836 150.684 12.0117 149.121 12.0117 L 18.8965 12.0117 C 17.334 12.0117 16.0645 13.1836 16.0645 14.7461 C 16.0645 16.3086 17.334 17.4805 18.8965 17.4805 Z M 28.418 41.6992 L 158.594 41.6992 C 160.205 41.6992 161.475 40.5273 161.475 38.9648 C 161.475 37.4023 160.205 36.2305 158.594 36.2305 L 28.418 36.2305 C 26.8066 36.2305 25.5371 37.4023 25.5371 38.9648 C 25.5371 40.5273 26.8066 41.6992 28.418 41.6992 Z"/>
  </g>
  <g id="Thin-L" transform="matrix(1 0 0 1 767.653 1556)">
   <path d="M 88.7695 -79.834 C 89.7949 -79.834 90.6738 -80.7617 90.6738 -81.7383 L 90.6738 -104.736 C 90.6738 -105.811 89.7949 -106.641 88.7695 -106.641 C 87.7441 -106.641 86.8652 -105.811 86.8652 -104.736 L 86.8652 -81.7383 C 86.8652 -80.7617 87.7441 -79.834 88.7695 -79.834 Z M 53.6133 -66.4062 C 54.2969 -65.7227 55.5664 -65.7227 56.2988 -66.4062 C 56.9824 -67.1387 56.9824 -68.4082 56.2988 -69.0918 L 40.0391 -85.3516 C 39.209 -86.1816 38.0371 -86.0352 37.3535 -85.3027 C 36.6699 -84.5215 36.5234 -83.4961 37.3535 -82.666 Z M 121.24 -66.4062 C 121.973 -65.7227 123.242 -65.7227 123.926 -66.4062 L 140.186 -82.666 C 141.016 -83.4961 140.918 -84.6191 140.137 -85.3027 C 139.453 -85.9375 138.33 -86.1816 137.5 -85.3516 L 121.24 -69.0918 C 120.557 -68.4082 120.557 -67.1387 121.24 -66.4062 Z M 27.5391 -8.20312 L 159.473 -8.20312 C 160.547 -8.20312 161.475 -8.93555 161.475 -9.96094 C 161.475 -10.9863 160.547 -11.7188 159.473 -11.7188 L 112.256 -11.7188 C 117.773 -17.5781 121.191 -25.3906 121.191 -33.9844 C 121.191 -51.8066 106.641 -66.4551 88.7695 -66.4551 C 70.8984 -66.4551 56.2988 -51.8066 56.2988 -33.9844 C 56.2988 -25.3906 59.7656 -17.5781 65.2832 -11.7188 L 27.5391 -11.7188 C 26.4648 -11.7188 25.5371 -10.9863 25.5371 -9.96094 C 25.5371 -8.93555 26.4648 -8.20312 27.5391 -8.20312 Z M 17.9199 -33.6426 L 40.9668 -33.6426 C 42.041 -33.6426 42.8711 -34.4727 42.8223 -35.5469 C 42.8223 -36.4746 42.041 -37.4512 40.9668 -37.4512 L 17.9199 -37.4512 C 16.9434 -37.4512 16.0645 -36.5234 16.0645 -35.5469 C 16.0645 -34.5215 16.9434 -33.6426 17.9199 -33.6426 Z M 136.572 -33.6426 L 159.57 -33.6426 C 160.645 -33.6426 161.475 -34.4727 161.475 -35.5469 C 161.475 -36.4746 160.645 -37.4512 159.57 -37.4512 L 136.572 -37.4512 C 135.596 -37.4512 134.668 -36.5234 134.668 -35.5469 C 134.668 -34.5215 135.596 -33.6426 136.572 -33.6426 Z M 18.0664 16.0156 L 150 16.0156 C 151.074 16.0156 151.953 15.2832 151.953 14.2578 C 151.953 13.2324 151.074 12.4512 150 12.4512 L 18.0664 12.4512 C 16.9434 12.4512 16.0645 13.2324 16.0645 14.2578 C 16.0645 15.2832 16.9434 16.0156 18.0664 16.0156 Z M 27.5391 40.2344 L 159.473 40.2344 C 160.547 40.2344 161.475 39.502 161.475 38.4277 C 161.475 37.4023 160.547 36.6699 159.473 36.6699 L 27.5391 36.6699 C 26.4648 36.6699 25.5371 37.4023 25.5371 38.4277 C 25.5371 39.502 26.4648 40.2344 27.5391 40.2344 Z"/>
  </g>
  <g id="Ultralight-L" transform="matrix(1 0 0 1 470.942 1556)">
   <path d="M 88.7695 -80.127 C 89.3555 -80.127 89.9414 -80.6641 89.9414 -81.1523 L 89.9414 -105.859 C 89.9414 -106.396 89.3555 -106.885 88.7695 -106.885 C 88.1348 -106.885 87.5977 -106.396 87.5977 -105.859 L 87.5977 -81.1523 C 87.5977 -80.6641 88.1348 -80.127 88.7695 -80.127 Z M 54.7363 -66.5527 C 55.0293 -66.2598 55.8594 -66.2598 56.2988 -66.6992 C 56.6895 -67.0898 56.6895 -67.9199 56.3965 -68.2617 L 38.9648 -85.6934 C 38.4766 -86.1816 37.6953 -85.9863 37.3535 -85.5957 C 36.9629 -85.0586 36.7676 -84.4727 37.2559 -84.0332 Z M 121.24 -66.6992 C 121.68 -66.2598 122.51 -66.2598 122.803 -66.5527 L 140.283 -84.0332 C 140.771 -84.4727 140.674 -85.1562 140.137 -85.5957 C 139.746 -85.9375 139.062 -86.1816 138.574 -85.6934 L 121.143 -68.2617 C 120.801 -67.9199 120.85 -67.0898 121.24 -66.6992 Z M 27.0996 -8.93555 L 159.912 -8.93555 C 160.742 -8.93555 161.475 -9.47266 161.475 -10.2051 C 161.475 -10.9863 160.742 -11.5234 159.912 -11.5234 L 111.377 -11.5234 C 117.188 -17.3828 120.85 -25.3906 120.85 -34.2773 C 120.85 -51.8555 106.445 -66.3086 88.7695 -66.3086 C 71.0938 -66.3086 56.6895 -51.8555 56.6895 -34.2773 C 56.6895 -25.3906 60.3516 -17.3828 66.1621 -11.5234 L 27.0996 -11.5234 C 26.2695 -11.5234 25.5371 -10.9863 25.5371 -10.2051 C 25.5371 -9.47266 26.2695 -8.93555 27.0996 -8.93555 Z M 17.0898 -34.6191 L 41.7969 -34.6191 C 42.3828 -34.6191 42.8223 -35.1074 42.8223 -35.791 C 42.8711 -36.3281 42.3828 -36.9629 41.7969 -36.9629 L 17.0898 -36.9629 C 16.6504 -36.9629 16.0645 -36.4258 16.0645 -35.791 C 16.0645 -35.2051 16.6504 -34.6191 17.0898 -34.6191 Z M 135.742 -34.6191 L 160.4 -34.6191 C 160.986 -34.6191 161.475 -35.1074 161.475 -35.791 C 161.475 -36.3281 160.986 -36.9629 160.4 -36.9629 L 135.742 -36.9629 C 135.254 -36.9629 134.668 -36.4258 134.668 -35.791 C 134.668 -35.2051 135.254 -34.6191 135.742 -34.6191 Z M 17.627 15.2832 L 150.439 15.2832 C 151.27 15.2832 151.953 14.7461 151.953 13.9648 C 151.953 13.2324 151.27 12.6953 150.439 12.6953 L 17.627 12.6953 C 16.7969 12.6953 16.0645 13.2324 16.0645 13.9648 C 16.0645 14.7461 16.7969 15.2832 17.627 15.2832 Z M 27.0996 39.502 L 159.912 39.502 C 160.742 39.502 161.475 38.916 161.475 38.1836 C 161.475 37.4512 160.742 36.9141 159.912 36.9141 L 27.0996 36.9141 C 26.2695 36.9141 25.5371 37.4512 25.5371 38.1836 C 25.5371 38.916 26.2695 39.502 27.0996 39.502 Z"/>
  </g>
  <g id="Black-M" transform="matrix(1 0 0 1 2864.6 1126)">
   <path d="M 68.7988 -64.5996 C 72.168 -64.5996 74.9512 -67.4805 74.9512 -70.8496 L 74.9512 -78.7598 C 74.9512 -82.1777 72.168 -85.0098 68.7988 -85.0098 C 65.4297 -85.0098 62.6465 -82.1777 62.6465 -78.7598 L 62.6465 -70.8496 C 62.6465 -67.4805 65.4297 -64.5996 68.7988 -64.5996 Z M 34.668 -54.1504 C 37.0117 -51.8066 41.0156 -51.6602 43.4082 -54.0527 C 45.8008 -56.4453 45.752 -60.4492 43.3594 -62.793 L 37.7441 -68.3594 C 35.3027 -70.8008 31.3477 -70.8984 28.9551 -68.5059 C 26.5625 -66.1133 26.5625 -62.1094 29.0039 -59.668 Z M 94.1406 -54.0527 C 96.5332 -51.6602 100.537 -51.8066 102.93 -54.1504 L 108.545 -59.668 C 110.986 -62.1094 110.986 -66.1133 108.594 -68.5059 C 106.25 -70.8984 102.295 -70.8008 99.8535 -68.3594 L 94.2383 -62.793 C 91.8457 -60.4492 91.7969 -56.4453 94.1406 -54.0527 Z M 24.4629 -6.49414 L 120.508 -6.49414 C 123.145 -6.49414 125.146 -8.30078 125.146 -10.7422 C 125.146 -13.1836 123.145 -14.9902 120.508 -14.9902 L 91.5039 -14.9902 C 94.043 -19.1406 95.459 -23.8281 95.459 -28.8574 C 95.459 -43.75 83.5449 -55.6641 68.7988 -55.6641 C 54.0039 -55.6641 42.1387 -43.75 42.1387 -28.8574 C 42.1387 -23.8281 43.5547 -19.1406 46.0449 -14.9902 L 24.4629 -14.9902 C 21.8262 -14.9902 19.8242 -13.1836 19.8242 -10.7422 C 19.8242 -8.30078 21.8262 -6.49414 24.4629 -6.49414 Z M 18.7012 -25.0488 L 26.6113 -25.0488 C 30.0781 -25.0488 32.8613 -27.832 32.9102 -31.2012 C 32.9102 -34.5703 30.0781 -37.3535 26.6113 -37.3535 L 18.7012 -37.3535 C 15.332 -37.3535 12.4512 -34.5703 12.4512 -31.2012 C 12.4512 -27.832 15.3809 -25.0488 18.7012 -25.0488 Z M 110.938 -25.0488 L 118.896 -25.0488 C 122.314 -25.0488 125.146 -27.832 125.146 -31.2012 C 125.146 -34.5703 122.314 -37.3535 118.896 -37.3535 L 110.938 -37.3535 C 107.568 -37.3535 104.688 -34.5703 104.688 -31.2012 C 104.688 -27.832 107.666 -25.0488 110.938 -25.0488 Z M 17.0898 12.2559 L 113.135 12.2559 C 115.771 12.2559 117.773 10.4492 117.773 8.00781 C 117.773 5.56641 115.771 3.75977 113.135 3.75977 L 17.0898 3.75977 C 14.4531 3.75977 12.4512 5.56641 12.4512 8.00781 C 12.4512 10.4492 14.4531 12.2559 17.0898 12.2559 Z M 24.4629 31.0547 L 120.508 31.0547 C 123.145 31.0547 125.146 29.1992 125.146 26.7578 C 125.146 24.3164 123.145 22.5098 120.508 22.5098 L 24.4629 22.5098 C 21.8262 22.5098 19.8242 24.3164 19.8242 26.7578 C 19.8242 29.1992 21.8262 31.0547 24.4629 31.0547 Z"/>
  </g>
  <g id="Heavy-M" transform="matrix(1 0 0 1 2567.89 1126)">
   <path d="M 68.7988 -65.5762 C 71.875 -65.625 74.4141 -68.2617 74.4141 -71.4355 L 74.4141 -80.3223 C 74.4141 -83.5449 71.875 -86.084 68.7988 -86.084 C 65.6738 -86.084 63.1836 -83.5449 63.1836 -80.3223 L 63.1836 -71.4355 C 63.1836 -68.2617 65.6738 -65.5762 68.7988 -65.5762 Z M 94.1406 -55.0781 C 96.2891 -52.9297 99.9512 -53.0273 102.197 -55.2246 L 108.496 -61.4746 C 110.791 -63.7695 110.791 -67.3828 108.594 -69.5801 C 106.445 -71.7773 102.832 -71.7285 100.537 -69.4336 L 94.2383 -63.1836 C 91.9922 -60.9375 91.9434 -57.2754 94.1406 -55.0781 Z M 35.3516 -55.2246 C 37.5977 -53.0273 41.3086 -52.9297 43.457 -55.0781 C 45.6543 -57.2754 45.6055 -60.9375 43.3594 -63.1836 L 37.0605 -69.4336 C 34.7656 -71.7285 31.1523 -71.7773 28.9551 -69.5801 C 26.7578 -67.4316 26.7578 -63.7695 29.0527 -61.4746 Z M 24.0723 -7.71484 L 120.85 -7.71484 C 123.291 -7.71484 125.146 -9.42383 125.146 -11.6699 C 125.146 -13.9648 123.291 -15.6738 120.85 -15.6738 L 91.2109 -15.6738 C 93.8477 -19.873 95.4102 -24.707 95.4102 -29.9316 C 95.4102 -44.7266 83.4961 -56.6406 68.7988 -56.6406 C 54.1016 -56.6406 42.1875 -44.7266 42.1875 -29.9316 C 42.1875 -24.707 43.7012 -19.873 46.3867 -15.6738 L 24.0723 -15.6738 C 21.6797 -15.6738 19.8242 -13.9648 19.8242 -11.6699 C 19.8242 -9.42383 21.6797 -7.71484 24.0723 -7.71484 Z M 18.2617 -26.3672 L 27.1484 -26.3672 C 30.3711 -26.3672 32.959 -28.9062 32.959 -31.9824 C 32.959 -35.1074 30.3711 -37.5977 27.1484 -37.5977 L 18.2617 -37.5977 C 15.0879 -37.5977 12.4512 -35.1074 12.4512 -31.9824 C 12.4512 -28.9062 15.1367 -26.3672 18.2617 -26.3672 Z M 110.449 -26.3672 L 119.336 -26.3672 C 122.559 -26.3672 125.146 -28.9062 125.146 -31.9824 C 125.146 -35.1074 122.559 -37.5977 119.336 -37.5977 L 110.449 -37.5977 C 107.275 -37.5977 104.59 -35.1074 104.639 -31.9824 C 104.639 -28.9062 107.324 -26.3672 110.449 -26.3672 Z M 16.6992 11.0352 L 113.525 11.0352 C 115.918 11.0352 117.773 9.375 117.773 7.08008 C 117.773 4.78516 115.918 3.07617 113.525 3.07617 L 16.6992 3.07617 C 14.3066 3.07617 12.4512 4.78516 12.4512 7.08008 C 12.4512 9.375 14.3066 11.0352 16.6992 11.0352 Z M 24.0723 29.834 L 120.85 29.834 C 123.291 29.834 125.146 28.125 125.146 25.8301 C 125.146 23.5352 123.291 21.875 120.85 21.875 L 24.0723 21.875 C 21.6797 21.875 19.8242 23.5352 19.8242 25.8301 C 19.8242 28.125 21.6797 29.834 24.0723 29.834 Z"/>
  </g>
  <g id="Bold-M" transform="matrix(1 0 0 1 2271.18 1126)">
   <path d="M 68.7988 -66.748 C 71.582 -66.748 73.8281 -69.0918 73.8281 -72.0703 L 73.8281 -82.0312 C 73.8281 -85.0098 71.582 -87.3535 68.7988 -87.3535 C 66.0156 -87.3535 63.7207 -85.0098 63.7207 -82.0312 L 63.7207 -72.0703 C 63.7207 -69.0918 66.0156 -66.6992 68.7988 -66.748 Z M 94.043 -56.25 C 96.0449 -54.2969 99.3164 -54.3945 101.416 -56.4453 L 108.496 -63.4766 C 110.596 -65.5762 110.547 -68.8477 108.594 -70.8008 C 106.689 -72.7539 103.418 -72.7539 101.318 -70.6543 L 94.2383 -63.623 C 92.1387 -61.5234 92.0898 -58.2031 94.043 -56.25 Z M 36.1816 -56.4453 C 38.2812 -54.3945 41.5527 -54.2969 43.5059 -56.25 C 45.459 -58.252 45.4102 -61.5234 43.3594 -63.623 L 36.2793 -70.6543 C 34.1797 -72.7539 30.9082 -72.7539 28.9551 -70.8008 C 27.002 -68.8477 27.002 -65.5762 29.1016 -63.4766 Z M 23.6816 -9.08203 L 121.289 -9.08203 C 123.438 -9.08203 125.146 -10.6445 125.146 -12.7441 C 125.146 -14.8438 123.438 -16.4062 121.289 -16.4062 L 90.8203 -16.4062 C 93.6523 -20.6543 95.3613 -25.6836 95.3613 -31.1035 C 95.3613 -45.8008 83.3984 -57.7637 68.7988 -57.7637 C 54.1992 -57.7637 42.2363 -45.8008 42.2363 -31.1035 C 42.2363 -25.6836 43.8965 -20.6543 46.7773 -16.4062 L 23.6816 -16.4062 C 21.4844 -16.4062 19.8242 -14.8438 19.8242 -12.7441 C 19.8242 -10.6445 21.4844 -9.08203 23.6816 -9.08203 Z M 17.7734 -27.832 L 27.7344 -27.832 C 30.7129 -27.832 33.0566 -30.0781 33.0566 -32.8613 C 33.0078 -35.6445 30.7129 -37.9395 27.7344 -37.9395 L 17.7734 -37.9395 C 14.7949 -37.9395 12.4512 -35.6445 12.4512 -32.8613 C 12.4512 -30.0781 14.8438 -27.832 17.7734 -27.832 Z M 109.863 -27.832 L 119.824 -27.832 C 122.803 -27.832 125.146 -30.0781 125.146 -32.8613 C 125.146 -35.6445 122.803 -37.9395 119.824 -37.9395 L 109.863 -37.9395 C 106.934 -37.9395 104.492 -35.6445 104.541 -32.8613 C 104.541 -30.0781 106.934 -27.832 109.863 -27.832 Z M 16.3086 9.7168 L 113.916 9.7168 C 116.113 9.7168 117.773 8.10547 117.773 6.00586 C 117.773 3.90625 116.113 2.34375 113.916 2.34375 L 16.3086 2.34375 C 14.1113 2.34375 12.4512 3.90625 12.4512 6.00586 C 12.4512 8.10547 14.1113 9.7168 16.3086 9.7168 Z M 23.6816 28.4668 L 121.289 28.4668 C 123.438 28.4668 125.146 26.9043 125.146 24.8047 C 125.146 22.7051 123.438 21.0938 121.289 21.0938 L 23.6816 21.0938 C 21.4844 21.0938 19.8242 22.7051 19.8242 24.8047 C 19.8242 26.9043 21.4844 28.4668 23.6816 28.4668 Z"/>
  </g>
  <g id="Semibold-M" transform="matrix(1 0 0 1 1974.47 1126)">
   <path d="M 68.7988 -67.5293 C 71.3379 -67.5293 73.4375 -69.7266 73.4375 -72.5098 L 73.4375 -83.2031 C 73.4375 -86.0352 71.3379 -88.1836 68.7988 -88.1836 C 66.2109 -88.1836 64.1113 -86.0352 64.1113 -83.2031 L 64.1113 -72.5098 C 64.1113 -69.7266 66.2109 -67.4805 68.7988 -67.5293 Z M 94.043 -57.0801 C 95.8496 -55.2734 98.877 -55.3223 100.83 -57.2754 L 108.447 -64.8438 C 110.449 -66.8457 110.4 -69.8242 108.594 -71.6309 C 106.836 -73.4863 103.857 -73.4863 101.807 -71.4355 L 94.2383 -63.8672 C 92.2852 -61.9141 92.2363 -58.8379 94.043 -57.0801 Z M 36.7188 -57.2754 C 38.7207 -55.3223 41.748 -55.2734 43.5547 -57.0801 C 45.3613 -58.8867 45.3125 -61.9141 43.3594 -63.8672 L 35.7422 -71.4355 C 33.7402 -73.4863 30.7617 -73.4375 28.9551 -71.6309 C 27.1484 -69.873 27.1484 -66.8457 29.1504 -64.8438 Z M 23.3887 -10.0098 L 121.582 -10.0098 C 123.584 -10.0098 125.146 -11.4746 125.146 -13.4766 C 125.146 -15.4297 123.584 -16.8945 121.582 -16.8945 L 90.5273 -16.8945 C 93.5547 -21.2402 95.3125 -26.3672 95.3125 -31.9336 C 95.3125 -46.5332 83.3496 -58.5449 68.7988 -58.5449 C 54.248 -58.5449 42.2852 -46.5332 42.2852 -31.9336 C 42.2852 -26.3672 44.043 -21.2402 47.0215 -16.8945 L 23.3887 -16.8945 C 21.3867 -16.8945 19.8242 -15.4297 19.8242 -13.4766 C 19.8242 -11.4746 21.3867 -10.0098 23.3887 -10.0098 Z M 17.3828 -28.8086 L 28.125 -28.8086 C 30.957 -28.8086 33.1543 -30.9082 33.1055 -33.4961 C 33.0566 -36.0352 30.957 -38.1348 28.125 -38.1348 L 17.3828 -38.1348 C 14.5996 -38.1348 12.4512 -36.0352 12.4512 -33.4961 C 12.4512 -30.9082 14.6484 -28.8086 17.3828 -28.8086 Z M 109.473 -28.8086 L 120.166 -28.8086 C 122.998 -28.8086 125.146 -30.9082 125.146 -33.4961 C 125.146 -36.0352 122.998 -38.1348 120.166 -38.1348 L 109.473 -38.1348 C 106.689 -38.1348 104.443 -36.0352 104.492 -33.4961 C 104.492 -30.9082 106.689 -28.8086 109.473 -28.8086 Z M 16.0156 8.74023 L 114.209 8.74023 C 116.211 8.74023 117.773 7.27539 117.773 5.32227 C 117.773 3.32031 116.211 1.85547 114.209 1.85547 L 16.0156 1.85547 C 14.0137 1.85547 12.4512 3.32031 12.4512 5.32227 C 12.4512 7.27539 14.0137 8.74023 16.0156 8.74023 Z M 23.3887 27.5391 L 121.582 27.5391 C 123.584 27.5391 125.146 26.0254 125.146 24.0723 C 125.146 22.0703 123.584 20.6055 121.582 20.6055 L 23.3887 20.6055 C 21.3867 20.6055 19.8242 22.0703 19.8242 24.0723 C 19.8242 26.0254 21.3867 27.5391 23.3887 27.5391 Z"/>
  </g>
  <g id="Medium-M" transform="matrix(1 0 0 1 1677.76 1126)">
   <path d="M 68.7988 -68.1152 C 71.1914 -68.1641 73.1445 -70.166 73.1445 -72.8516 L 73.1445 -84.1309 C 73.1445 -86.8164 71.1914 -88.8184 68.7988 -88.8184 C 66.4062 -88.8184 64.4531 -86.8164 64.4531 -84.1309 L 64.4531 -72.8516 C 64.4531 -70.166 66.4062 -68.0664 68.7988 -68.1152 Z M 93.9941 -57.666 C 95.7031 -56.0059 98.5352 -56.0547 100.439 -57.9102 L 108.398 -65.918 C 110.352 -67.8223 110.303 -70.6055 108.594 -72.3145 C 106.934 -73.9746 104.15 -74.0234 102.246 -72.0703 L 94.2383 -64.1113 C 92.334 -62.207 92.2852 -59.3262 93.9941 -57.666 Z M 37.1582 -57.9102 C 39.0625 -56.0547 41.8945 -55.957 43.5547 -57.666 C 45.2637 -59.375 45.2148 -62.207 43.3594 -64.1113 L 35.3516 -72.0703 C 33.4473 -74.0234 30.6641 -73.9746 28.9551 -72.3145 C 27.2461 -70.6055 27.2461 -67.8223 29.1504 -65.918 Z M 23.1445 -10.6934 L 121.777 -10.6934 C 123.682 -10.6934 125.146 -12.1094 125.146 -14.0137 C 125.146 -15.8691 123.682 -17.2852 121.777 -17.2852 L 90.332 -17.2852 C 93.457 -21.6309 95.2637 -26.9043 95.2637 -32.5684 C 95.2637 -47.0703 83.3008 -59.1309 68.7988 -59.1309 C 54.2969 -59.1309 42.2852 -47.0703 42.2852 -32.5684 C 42.2852 -26.9043 44.1406 -21.6309 47.2656 -17.2852 L 23.1445 -17.2852 C 21.2891 -17.2852 19.8242 -15.8691 19.8242 -14.0137 C 19.8242 -12.1094 21.2891 -10.6934 23.1445 -10.6934 Z M 17.1387 -29.5898 L 28.418 -29.5898 C 31.1035 -29.5898 33.2031 -31.543 33.1543 -33.9355 C 33.1055 -36.3281 31.1035 -38.2812 28.418 -38.2812 L 17.1387 -38.2812 C 14.4531 -38.2812 12.4512 -36.3281 12.4512 -33.9355 C 12.4512 -31.543 14.502 -29.5898 17.1387 -29.5898 Z M 109.18 -29.5898 L 120.459 -29.5898 C 123.145 -29.5898 125.146 -31.543 125.146 -33.9355 C 125.146 -36.3281 123.145 -38.2812 120.459 -38.2812 L 109.18 -38.2812 C 106.494 -38.2812 104.395 -36.3281 104.443 -33.9355 C 104.492 -31.543 106.494 -29.5898 109.18 -29.5898 Z M 15.8203 8.05664 L 114.404 8.05664 C 116.309 8.05664 117.773 6.64062 117.773 4.73633 C 117.773 2.88086 116.309 1.46484 114.404 1.46484 L 15.8203 1.46484 C 13.916 1.46484 12.4512 2.88086 12.4512 4.73633 C 12.4512 6.64062 13.916 8.05664 15.8203 8.05664 Z M 23.1445 26.8066 L 121.777 26.8066 C 123.682 26.8066 125.146 25.3906 125.146 23.4863 C 125.146 21.6309 123.682 20.2148 121.777 20.2148 L 23.1445 20.2148 C 21.2891 20.2148 19.8242 21.6309 19.8242 23.4863 C 19.8242 25.3906 21.2891 26.8066 23.1445 26.8066 Z"/>
  </g>
  <g id="Regular-M" transform="matrix(1 0 0 1 1381.05 1126)">
   <path d="M 68.7988 -68.8965 C 70.9961 -68.9453 72.7539 -70.752 72.7539 -73.291 L 72.7539 -85.3027 C 72.7539 -87.8418 70.9961 -89.6484 68.7988 -89.6484 C 66.6016 -89.6484 64.8438 -87.8418 64.8438 -85.3027 L 64.8438 -73.291 C 64.8438 -70.752 66.6016 -68.8477 68.7988 -68.8965 Z M 93.9941 -58.4961 C 95.5078 -56.9824 98.0957 -56.9824 99.9023 -58.7402 L 108.398 -67.2363 C 110.205 -69.0918 110.156 -71.582 108.594 -73.1445 C 107.129 -74.6582 104.59 -74.707 102.734 -72.9004 L 94.2383 -64.4043 C 92.4805 -62.5977 92.4316 -60.0098 93.9941 -58.4961 Z M 37.6953 -58.7402 C 39.502 -56.9824 42.0898 -56.9336 43.6035 -58.4961 C 45.1172 -60.0586 45.1172 -62.5977 43.3105 -64.4043 L 34.8145 -72.9004 C 33.0078 -74.707 30.5176 -74.6582 28.9551 -73.1445 C 27.3926 -71.582 27.3926 -69.0918 29.1992 -67.2363 Z M 22.9004 -11.6211 L 122.07 -11.6211 C 123.779 -11.6211 125.146 -12.9883 125.146 -14.7461 C 125.146 -16.5039 123.779 -17.8223 122.07 -17.8223 L 90.0879 -17.8223 C 93.3105 -22.168 95.2637 -27.5391 95.2637 -33.3496 C 95.2637 -47.8027 83.252 -59.8633 68.7988 -59.8633 C 54.3457 -59.8633 42.334 -47.8027 42.334 -33.3496 C 42.334 -27.5391 44.2871 -22.168 47.5098 -17.8223 L 22.9004 -17.8223 C 21.1426 -17.8223 19.8242 -16.5039 19.8242 -14.7461 C 19.8242 -12.9883 21.1426 -11.6211 22.9004 -11.6211 Z M 16.7969 -30.5664 L 28.8086 -30.5664 C 31.3477 -30.5664 33.252 -32.373 33.2031 -34.5703 C 33.1543 -36.7188 31.3477 -38.5254 28.8086 -38.5254 L 16.7969 -38.5254 C 14.2578 -38.5254 12.4512 -36.7188 12.4512 -34.5703 C 12.4512 -32.373 14.2578 -30.5664 16.7969 -30.5664 Z M 108.789 -30.5664 L 120.801 -30.5664 C 123.34 -30.5664 125.146 -32.373 125.146 -34.5703 C 125.146 -36.7188 123.34 -38.5254 120.801 -38.5254 L 108.789 -38.5254 C 106.25 -38.5254 104.346 -36.7188 104.395 -34.5703 C 104.443 -32.373 106.25 -30.5664 108.789 -30.5664 Z M 15.5273 7.12891 L 114.697 7.12891 C 116.406 7.12891 117.773 5.81055 117.773 4.05273 C 117.773 2.29492 116.406 0.927734 114.697 0.927734 L 15.5273 0.927734 C 13.8184 0.927734 12.4512 2.29492 12.4512 4.05273 C 12.4512 5.81055 13.8184 7.12891 15.5273 7.12891 Z M 22.9004 25.8789 L 122.07 25.8789 C 123.779 25.8789 125.146 24.5605 125.146 22.8027 C 125.146 21.0449 123.779 19.7266 122.07 19.7266 L 22.9004 19.7266 C 21.1426 19.7266 19.8242 21.0449 19.8242 22.8027 C 19.8242 24.5605 21.1426 25.8789 22.9004 25.8789 Z"/>
  </g>
  <g id="Light-M" transform="matrix(1 0 0 1 1084.33 1126)">
   <path d="M 68.7988 -69.2383 C 70.459 -69.2871 71.8262 -70.6543 71.8262 -72.5098 L 71.8262 -86.7188 C 71.8262 -88.623 70.459 -89.9902 68.7988 -89.9902 C 67.1387 -89.9902 65.7715 -88.623 65.7715 -86.7188 L 65.7715 -72.5098 C 65.7715 -70.6543 67.1387 -69.1895 68.7988 -69.2383 Z M 93.9941 -58.8379 C 95.166 -57.666 97.1191 -57.666 98.4375 -58.9844 L 108.496 -69.043 C 109.863 -70.4102 109.814 -72.3145 108.594 -73.4863 C 107.471 -74.6094 105.566 -74.707 104.199 -73.3398 L 94.1406 -63.2812 C 92.8223 -61.9629 92.7734 -59.9609 93.9941 -58.8379 Z M 39.1602 -58.9844 C 40.4785 -57.666 42.4805 -57.666 43.6035 -58.8379 C 44.7754 -60.0098 44.7754 -61.9629 43.457 -63.2812 L 33.3984 -73.3398 C 32.0312 -74.707 30.127 -74.6094 28.9551 -73.4863 C 27.7832 -72.3145 27.7344 -70.4102 29.1016 -69.043 Z M 22.3145 -12.6465 L 122.656 -12.6465 C 124.023 -12.6465 125.146 -13.6719 125.146 -15.0879 C 125.146 -16.4551 124.023 -17.5293 122.656 -17.5293 L 88.916 -17.5293 C 92.5293 -21.9727 94.7754 -27.5879 94.7754 -33.6914 C 94.7754 -47.9004 83.0078 -59.7168 68.7988 -59.7168 C 54.5898 -59.7168 42.8223 -47.9004 42.8223 -33.6914 C 42.8223 -27.5879 45.0195 -21.9727 48.6328 -17.5293 L 22.3145 -17.5293 C 20.8984 -17.5293 19.8242 -16.4551 19.8242 -15.0879 C 19.8242 -13.6719 20.8984 -12.6465 22.3145 -12.6465 Z M 15.7227 -31.8848 L 29.9316 -31.8848 C 31.7871 -31.8848 33.252 -33.2031 33.2031 -34.9121 C 33.1543 -36.5234 31.7871 -37.9395 29.9316 -37.9395 L 15.7227 -37.9395 C 13.8672 -37.9395 12.4512 -36.5723 12.4512 -34.9121 C 12.4512 -33.252 13.8672 -31.8848 15.7227 -31.8848 Z M 107.666 -31.8848 L 121.875 -31.8848 C 123.779 -31.8848 125.146 -33.2031 125.146 -34.9121 C 125.146 -36.5234 123.779 -37.9395 121.875 -37.9395 L 107.666 -37.9395 C 105.811 -37.9395 104.346 -36.5723 104.395 -34.9121 C 104.395 -33.252 105.811 -31.8848 107.666 -31.8848 Z M 14.9414 6.10352 L 115.283 6.10352 C 116.65 6.10352 117.773 5.07812 117.773 3.66211 C 117.773 2.29492 116.65 1.2207 115.283 1.2207 L 14.9414 1.2207 C 13.5742 1.2207 12.4512 2.29492 12.4512 3.66211 C 12.4512 5.07812 13.5742 6.10352 14.9414 6.10352 Z M 22.3145 24.9023 L 122.656 24.9023 C 124.023 24.9023 125.146 23.8281 125.146 22.4609 C 125.146 21.0449 124.023 20.0195 122.656 20.0195 L 22.3145 20.0195 C 20.8984 20.0195 19.8242 21.0449 19.8242 22.4609 C 19.8242 23.8281 20.8984 24.9023 22.3145 24.9023 Z"/>
  </g>
  <g id="Thin-M" transform="matrix(1 0 0 1 787.623 1126)">
   <path d="M 68.7988 -69.6777 C 69.7266 -69.7266 70.5566 -70.5566 70.5566 -71.5332 L 70.5566 -88.6719 C 70.5566 -89.6973 69.7266 -90.4297 68.7988 -90.4297 C 67.8223 -90.4297 67.041 -89.6973 67.041 -88.6719 L 67.041 -71.5332 C 67.041 -70.5566 67.8223 -69.6777 68.7988 -69.6777 Z M 41.0645 -59.2773 C 41.748 -58.6426 42.9688 -58.5938 43.6035 -59.2773 C 44.2871 -59.9609 44.2871 -61.1328 43.6035 -61.8164 L 31.4941 -73.9258 C 30.7129 -74.707 29.5898 -74.6094 28.9551 -73.9258 C 28.2715 -73.2422 28.1738 -72.2168 28.9551 -71.4355 Z M 93.9941 -59.2773 C 94.6289 -58.6426 95.8496 -58.6426 96.4844 -59.2773 L 108.594 -71.4355 C 109.375 -72.2168 109.326 -73.2422 108.594 -73.9258 C 107.959 -74.5605 106.885 -74.707 106.104 -73.9258 L 93.9941 -61.8164 C 93.3105 -61.1328 93.3105 -59.9609 93.9941 -59.2773 Z M 21.5332 -13.9648 L 123.389 -13.9648 C 124.365 -13.9648 125.146 -14.6484 125.146 -15.5273 C 125.146 -16.4551 124.365 -17.1387 123.389 -17.1387 L 87.4023 -17.1387 C 91.5039 -21.6309 94.0918 -27.5879 94.0918 -34.1797 C 94.0918 -48.0469 82.7148 -59.4727 68.7988 -59.4727 C 54.8828 -59.4727 43.5059 -48.0469 43.5059 -34.1797 C 43.5059 -27.5879 46.0449 -21.6309 50.1953 -17.1387 L 21.5332 -17.1387 C 20.6055 -17.1387 19.8242 -16.4551 19.8242 -15.5273 C 19.8242 -14.6484 20.6055 -13.9648 21.5332 -13.9648 Z M 14.2578 -33.5938 L 31.3965 -33.5938 C 32.4219 -33.5938 33.2031 -34.3262 33.2031 -35.3516 C 33.2031 -36.2793 32.4219 -37.1094 31.3965 -37.1094 L 14.2578 -37.1094 C 13.2812 -37.1094 12.4512 -36.3281 12.4512 -35.3516 C 12.4512 -34.4238 13.2812 -33.5938 14.2578 -33.5938 Z M 106.201 -33.5938 L 123.34 -33.5938 C 124.365 -33.5938 125.146 -34.3262 125.146 -35.3516 C 125.146 -36.2793 124.365 -37.1094 123.34 -37.1094 L 106.201 -37.1094 C 105.225 -37.1094 104.346 -36.3281 104.395 -35.3516 C 104.395 -34.4238 105.225 -33.5938 106.201 -33.5938 Z M 14.1602 4.78516 L 116.064 4.78516 C 116.992 4.78516 117.773 4.15039 117.773 3.22266 C 117.773 2.29492 116.992 1.66016 116.064 1.66016 L 14.1602 1.66016 C 13.2324 1.66016 12.4512 2.29492 12.4512 3.22266 C 12.4512 4.15039 13.2324 4.78516 14.1602 4.78516 Z M 21.5332 23.584 L 123.389 23.584 C 124.365 23.584 125.146 22.9004 125.146 21.9727 C 125.146 21.0938 124.365 20.4102 123.389 20.4102 L 21.5332 20.4102 C 20.6055 20.4102 19.8242 21.0938 19.8242 21.9727 C 19.8242 22.9004 20.6055 23.584 21.5332 23.584 Z"/>
  </g>
  <g id="Ultralight-M" transform="matrix(1 0 0 1 490.912 1126)">
   <path d="M 68.7988 -69.9219 C 69.3848 -69.9219 69.9219 -70.459 69.9219 -70.9961 L 69.9219 -89.6484 C 69.9219 -90.2344 69.3848 -90.6738 68.7988 -90.6738 C 68.2129 -90.6738 67.6758 -90.2344 67.6758 -89.6484 L 67.6758 -70.9961 C 67.6758 -70.459 68.2129 -69.9219 68.7988 -69.9219 Z M 42.0898 -59.4727 C 42.4316 -59.1309 43.2129 -59.1309 43.6035 -59.5215 C 44.043 -59.9609 44.043 -60.6934 43.7012 -61.084 L 30.5176 -74.2188 C 30.0293 -74.707 29.2969 -74.6094 28.9551 -74.1699 C 28.5645 -73.6816 28.418 -73.0957 28.9062 -72.6074 Z M 93.9941 -59.5215 C 94.3848 -59.1309 95.166 -59.1309 95.5078 -59.4727 L 108.691 -72.6074 C 109.18 -73.0957 109.082 -73.7305 108.594 -74.1699 C 108.203 -74.5117 107.568 -74.707 107.08 -74.2188 L 93.8965 -61.084 C 93.5547 -60.6934 93.5547 -59.9609 93.9941 -59.5215 Z M 21.1426 -14.5996 L 123.779 -14.5996 C 124.512 -14.5996 125.146 -15.0879 125.146 -15.7715 C 125.146 -16.4551 124.512 -16.9434 123.779 -16.9434 L 86.5723 -16.9434 C 91.0156 -21.4355 93.75 -27.5879 93.75 -34.4238 C 93.75 -48.0957 82.5684 -59.375 68.7988 -59.375 C 55.0293 -59.375 43.8477 -48.0957 43.8477 -34.4238 C 43.8477 -27.5879 46.582 -21.4355 51.0254 -16.9434 L 21.1426 -16.9434 C 20.4102 -16.9434 19.8242 -16.4551 19.8242 -15.7715 C 19.8242 -15.0879 20.4102 -14.5996 21.1426 -14.5996 Z M 13.5254 -34.4727 L 32.1289 -34.4727 C 32.7148 -34.4727 33.2031 -34.9121 33.2031 -35.5957 C 33.2031 -36.1328 32.7148 -36.7188 32.1289 -36.7188 L 13.5254 -36.7188 C 12.9883 -36.7188 12.4512 -36.1816 12.4512 -35.5957 C 12.4512 -35.0098 12.9883 -34.4727 13.5254 -34.4727 Z M 105.42 -34.4727 L 124.072 -34.4727 C 124.658 -34.4727 125.146 -34.9121 125.146 -35.5957 C 125.146 -36.1328 124.658 -36.7188 124.072 -36.7188 L 105.42 -36.7188 C 104.932 -36.7188 104.395 -36.1816 104.395 -35.5957 C 104.395 -35.0098 104.932 -34.4727 105.42 -34.4727 Z M 13.7695 4.15039 L 116.455 4.15039 C 117.188 4.15039 117.773 3.66211 117.773 2.97852 C 117.773 2.34375 117.188 1.85547 116.455 1.85547 L 13.7695 1.85547 C 13.0371 1.85547 12.4512 2.34375 12.4512 2.97852 C 12.4512 3.66211 13.0371 4.15039 13.7695 4.15039 Z M 21.1426 22.9004 L 123.779 22.9004 C 124.512 22.9004 125.146 22.4121 125.146 21.7285 C 125.146 21.0938 124.512 20.6055 123.779 20.6055 L 21.1426 20.6055 C 20.4102 20.6055 19.8242 21.0938 19.8242 21.7285 C 19.8242 22.4121 20.4102 22.9004 21.1426 22.9004 Z"/>
  </g>
  <g id="Black-S" transform="matrix(1 0 0 1 2879.49 696)">
   <path d="M 53.9062 -58.3008 C 56.543 -58.3008 58.6914 -60.5469 58.6914 -63.1836 L 58.6914 -69.4336 C 58.6914 -72.1191 56.543 -74.3164 53.9062 -74.3164 C 51.2695 -74.3164 49.1211 -72.1191 49.1211 -69.4336 L 49.1211 -63.1836 C 49.1211 -60.5469 51.2695 -58.3008 53.9062 -58.3008 Z M 27.1973 -50.1465 C 29.0527 -48.291 32.1777 -48.1934 34.0332 -50.0488 C 35.8887 -51.9043 35.8398 -55.0293 33.9844 -56.8848 L 29.541 -61.2793 C 27.6367 -63.1836 24.5605 -63.2324 22.7051 -61.377 C 20.8496 -59.5215 20.8496 -56.3965 22.7539 -54.4922 Z M 73.7793 -50.0488 C 75.6348 -48.1934 78.7598 -48.291 80.6152 -50.1465 L 85.0586 -54.4922 C 86.9629 -56.3965 86.9629 -59.5215 85.1074 -61.377 C 83.252 -63.2324 80.1758 -63.1836 78.2715 -61.2793 L 73.8281 -56.8848 C 71.9727 -55.0293 71.9238 -51.9043 73.7793 -50.0488 Z M 19.1406 -12.793 L 94.4336 -12.793 C 96.4844 -12.793 98.0469 -14.209 98.0469 -16.1133 C 98.0469 -18.0176 96.4844 -19.4336 94.4336 -19.4336 L 71.7285 -19.4336 C 73.6816 -22.7051 74.8047 -26.3672 74.8047 -30.3223 C 74.8047 -41.9922 65.4785 -51.3184 53.9062 -51.3184 C 42.334 -51.3184 33.0078 -41.9922 33.0078 -30.3223 C 33.0078 -26.3672 34.1309 -22.7051 36.084 -19.4336 L 19.1406 -19.4336 C 17.0898 -19.4336 15.5273 -18.0176 15.5273 -16.1133 C 15.5273 -14.209 17.0898 -12.793 19.1406 -12.793 Z M 14.6484 -27.3438 L 20.8984 -27.3438 C 23.584 -27.3438 25.7812 -29.4922 25.7812 -32.1289 C 25.7812 -34.7656 23.584 -36.9141 20.8984 -36.9141 L 14.6484 -36.9141 C 12.0117 -36.9141 9.76562 -34.7656 9.76562 -32.1289 C 9.76562 -29.4922 12.0605 -27.3438 14.6484 -27.3438 Z M 86.9141 -27.3438 L 93.1641 -27.3438 C 95.8496 -27.3438 98.0469 -29.4922 98.0469 -32.1289 C 98.0469 -34.7656 95.8496 -36.9141 93.1641 -36.9141 L 86.9141 -36.9141 C 84.2773 -36.9141 82.0312 -34.7656 82.0312 -32.1289 C 82.0312 -29.4922 84.3262 -27.3438 86.9141 -27.3438 Z M 13.3789 1.9043 L 88.6719 1.9043 C 90.7227 1.9043 92.2852 0.488281 92.2852 -1.41602 C 92.2852 -3.32031 90.7227 -4.73633 88.6719 -4.73633 L 13.3789 -4.73633 C 11.3281 -4.73633 9.76562 -3.32031 9.76562 -1.41602 C 9.76562 0.488281 11.3281 1.9043 13.3789 1.9043 Z M 19.1406 16.6016 L 94.4336 16.6016 C 96.4844 16.6016 98.0469 15.1855 98.0469 13.2812 C 98.0469 11.377 96.4844 9.96094 94.4336 9.96094 L 19.1406 9.96094 C 17.0898 9.96094 15.5273 11.377 15.5273 13.2812 C 15.5273 15.1855 17.0898 16.6016 19.1406 16.6016 Z"/>
  </g>
  <g id="Heavy-S" transform="matrix(1 0 0 1 2582.78 696)">
   <path d="M 53.9062 -59.0332 C 56.3965 -59.0332 58.3984 -61.1328 58.3984 -63.7207 L 58.3984 -70.459 C 58.3984 -73.0469 56.3965 -75.0977 53.9062 -75.0977 C 51.416 -75.0977 49.4141 -73.0469 49.4141 -70.459 L 49.4141 -63.7207 C 49.4141 -61.1328 51.416 -59.0332 53.9062 -59.0332 Z M 73.7305 -50.8301 C 75.4883 -49.0723 78.418 -49.1699 80.2246 -50.9277 L 85.0098 -55.6641 C 86.8652 -57.5195 86.8652 -60.4004 85.1074 -62.1582 C 83.3496 -63.916 80.4688 -63.8672 78.6133 -62.0605 L 73.8281 -57.2754 C 72.0215 -55.4688 71.9727 -52.5391 73.7305 -50.8301 Z M 27.5879 -50.9277 C 29.3945 -49.1699 32.3242 -49.0723 34.082 -50.8301 C 35.791 -52.5391 35.791 -55.4688 33.9844 -57.2754 L 29.1992 -62.0605 C 27.3438 -63.8672 24.4629 -63.916 22.7051 -62.1582 C 20.9473 -60.4492 20.9473 -57.5195 22.8027 -55.6641 Z M 18.9453 -13.623 L 94.6289 -13.623 C 96.582 -13.623 98.0469 -14.9902 98.0469 -16.7969 C 98.0469 -18.6035 96.582 -19.9707 94.6289 -19.9707 L 71.582 -19.9707 C 73.6328 -23.2422 74.8047 -27.0508 74.8047 -31.1035 C 74.8047 -42.7246 65.4297 -52.0996 53.9062 -52.0996 C 42.3828 -52.0996 33.0078 -42.7246 33.0078 -31.1035 C 33.0078 -27.0508 34.1797 -23.2422 36.2305 -19.9707 L 18.9453 -19.9707 C 16.9922 -19.9707 15.5273 -18.6035 15.5273 -16.7969 C 15.5273 -14.9902 16.9922 -13.623 18.9453 -13.623 Z M 14.4043 -28.1738 L 21.1914 -28.1738 C 23.7793 -28.1738 25.8301 -30.2246 25.8301 -32.7148 C 25.8301 -35.1562 23.7793 -37.207 21.1914 -37.207 L 14.4043 -37.207 C 11.8652 -37.207 9.76562 -35.1562 9.76562 -32.7148 C 9.76562 -30.2246 11.9141 -28.1738 14.4043 -28.1738 Z M 86.6211 -28.1738 L 93.4082 -28.1738 C 95.9961 -28.1738 98.0469 -30.2246 98.0469 -32.7148 C 98.0469 -35.1562 95.9961 -37.207 93.4082 -37.207 L 86.6211 -37.207 C 84.082 -37.207 81.9824 -35.1562 81.9824 -32.7148 C 81.9824 -30.2246 84.1309 -28.1738 86.6211 -28.1738 Z M 13.1836 1.07422 L 88.8672 1.07422 C 90.8203 1.07422 92.2852 -0.292969 92.2852 -2.09961 C 92.2852 -3.90625 90.8203 -5.27344 88.8672 -5.27344 L 13.1836 -5.27344 C 11.2305 -5.27344 9.76562 -3.90625 9.76562 -2.09961 C 9.76562 -0.292969 11.2305 1.07422 13.1836 1.07422 Z M 18.9453 15.7715 L 94.6289 15.7715 C 96.582 15.7715 98.0469 14.4043 98.0469 12.5977 C 98.0469 10.791 96.582 9.42383 94.6289 9.42383 L 18.9453 9.42383 C 16.9922 9.42383 15.5273 10.791 15.5273 12.5977 C 15.5273 14.4043 16.9922 15.7715 18.9453 15.7715 Z"/>
  </g>
  <g id="Bold-S" transform="matrix(1 0 0 1 2286.07 696)">
   <path d="M 53.9062 -59.8633 C 56.2012 -59.9121 58.1055 -61.8164 58.1055 -64.3066 L 58.1055 -71.582 C 58.1055 -74.0723 56.2012 -76.0254 53.9062 -76.0254 C 51.6113 -76.0254 49.7559 -74.0723 49.7559 -71.582 L 49.7559 -64.3066 C 49.7559 -61.8164 51.6113 -59.8633 53.9062 -59.8633 Z M 73.7305 -51.6602 C 75.3418 -50.0488 78.0273 -50.0977 79.7852 -51.8555 L 84.9609 -56.9824 C 86.7188 -58.7402 86.7188 -61.4258 85.1074 -63.0859 C 83.4961 -64.6973 80.8105 -64.6973 79.0527 -62.8906 L 73.877 -57.7637 C 72.1191 -56.0059 72.0703 -53.2715 73.7305 -51.6602 Z M 28.0273 -51.8555 C 29.7852 -50.0977 32.5195 -50.0488 34.1309 -51.6602 C 35.6934 -53.2715 35.6934 -56.0059 33.9355 -57.7637 L 28.7598 -62.8906 C 27.002 -64.6973 24.3164 -64.6484 22.7051 -63.0859 C 21.0938 -61.4746 21.0938 -58.7402 22.8516 -56.9824 Z M 18.7012 -14.5508 L 94.873 -14.5508 C 96.6797 -14.5508 98.0469 -15.8203 98.0469 -17.5781 C 98.0469 -19.2871 96.6797 -20.6055 94.873 -20.6055 L 71.4355 -20.6055 C 73.584 -23.9258 74.8535 -27.7832 74.8535 -31.9824 C 74.8535 -43.5059 65.4297 -52.9785 53.9062 -52.9785 C 42.3828 -52.9785 32.959 -43.5059 32.959 -31.9824 C 32.959 -27.7832 34.2285 -23.9258 36.377 -20.6055 L 18.7012 -20.6055 C 16.8945 -20.6055 15.5273 -19.2871 15.5273 -17.5781 C 15.5273 -15.8203 16.8945 -14.5508 18.7012 -14.5508 Z M 14.1602 -29.1504 L 21.4844 -29.1504 C 23.9746 -29.1504 25.9277 -31.0059 25.9277 -33.3496 C 25.8789 -35.6445 23.9746 -37.5 21.4844 -37.5 L 14.1602 -37.5 C 11.7188 -37.5 9.76562 -35.6445 9.76562 -33.3496 C 9.76562 -31.0059 11.7188 -29.1504 14.1602 -29.1504 Z M 86.3281 -29.1504 L 93.6523 -29.1504 C 96.1426 -29.1504 98.0469 -31.0059 98.0469 -33.3496 C 98.0469 -35.6445 96.1426 -37.5 93.6523 -37.5 L 86.3281 -37.5 C 83.8867 -37.5 81.8848 -35.6445 81.9336 -33.3496 C 81.9336 -31.0059 83.8867 -29.1504 86.3281 -29.1504 Z M 12.9395 0.146484 L 89.1113 0.146484 C 90.918 0.146484 92.2852 -1.12305 92.2852 -2.88086 C 92.2852 -4.58984 90.918 -5.9082 89.1113 -5.9082 L 12.9395 -5.9082 C 11.1328 -5.9082 9.76562 -4.58984 9.76562 -2.88086 C 9.76562 -1.12305 11.1328 0.146484 12.9395 0.146484 Z M 18.7012 14.8438 L 94.873 14.8438 C 96.6797 14.8438 98.0469 13.5742 98.0469 11.8164 C 98.0469 10.1074 96.6797 8.78906 94.873 8.78906 L 18.7012 8.78906 C 16.8945 8.78906 15.5273 10.1074 15.5273 11.8164 C 15.5273 13.5742 16.8945 14.8438 18.7012 14.8438 Z"/>
  </g>
  <g id="Semibold-S" transform="matrix(1 0 0 1 1989.36 696)">
   <path d="M 53.9062 -60.4492 C 56.1035 -60.4492 57.8613 -62.3047 57.8613 -64.6973 L 57.8613 -72.3633 C 57.8613 -74.8047 56.1035 -76.6113 53.9062 -76.6113 C 51.709 -76.6113 49.9512 -74.8047 49.9512 -72.3633 L 49.9512 -64.6973 C 49.9512 -62.3047 51.709 -60.4004 53.9062 -60.4492 Z M 73.6816 -52.2461 C 75.2441 -50.7324 77.7832 -50.7812 79.4922 -52.4902 L 84.9121 -57.8613 C 86.6699 -59.6191 86.6211 -62.1094 85.1074 -63.6719 C 83.5938 -65.2344 81.0547 -65.2344 79.3457 -63.4766 L 73.877 -58.0566 C 72.168 -56.3477 72.1191 -53.7598 73.6816 -52.2461 Z M 28.3203 -52.4902 C 30.0293 -50.7812 32.6172 -50.6836 34.1309 -52.2461 C 35.6445 -53.8086 35.6445 -56.3477 33.9355 -58.0566 L 28.4668 -63.4766 C 26.7578 -65.2344 24.2676 -65.1855 22.7051 -63.6719 C 21.1426 -62.1582 21.1426 -59.6191 22.9004 -57.8613 Z M 18.5059 -15.1855 L 95.0684 -15.1855 C 96.7285 -15.1855 98.0469 -16.4062 98.0469 -18.0664 C 98.0469 -19.7266 96.7285 -20.9961 95.0684 -20.9961 L 71.3379 -20.9961 C 73.5352 -24.3652 74.8535 -28.3203 74.8535 -32.5684 C 74.8535 -44.043 65.3809 -53.5645 53.9062 -53.5645 C 42.4316 -53.5645 32.959 -44.043 32.959 -32.5684 C 32.959 -28.3203 34.2773 -24.3652 36.4746 -20.9961 L 18.5059 -20.9961 C 16.8457 -20.9961 15.5273 -19.7266 15.5273 -18.0664 C 15.5273 -16.4062 16.8457 -15.1855 18.5059 -15.1855 Z M 14.0137 -29.834 L 21.6797 -29.834 C 24.1211 -29.834 25.9766 -31.5918 25.9277 -33.7402 C 25.9277 -35.9375 24.1211 -37.6953 21.6797 -37.6953 L 14.0137 -37.6953 C 11.6211 -37.6953 9.76562 -35.9375 9.76562 -33.7402 C 9.76562 -31.5918 11.6211 -29.834 14.0137 -29.834 Z M 86.1328 -29.834 L 93.7988 -29.834 C 96.2402 -29.834 98.0469 -31.5918 98.0469 -33.7402 C 98.0469 -35.9375 96.2402 -37.6953 93.7988 -37.6953 L 86.1328 -37.6953 C 83.7402 -37.6953 81.8359 -35.9375 81.8848 -33.7402 C 81.8848 -31.5918 83.7402 -29.834 86.1328 -29.834 Z M 12.7441 -0.488281 L 89.3066 -0.488281 C 90.9668 -0.488281 92.2852 -1.70898 92.2852 -3.36914 C 92.2852 -5.0293 90.9668 -6.29883 89.3066 -6.29883 L 12.7441 -6.29883 C 11.084 -6.29883 9.76562 -5.0293 9.76562 -3.36914 C 9.76562 -1.70898 11.084 -0.488281 12.7441 -0.488281 Z M 18.5059 14.209 L 95.0684 14.209 C 96.7285 14.209 98.0469 12.9883 98.0469 11.3281 C 98.0469 9.66797 96.7285 8.39844 95.0684 8.39844 L 18.5059 8.39844 C 16.8457 8.39844 15.5273 9.66797 15.5273 11.3281 C 15.5273 12.9883 16.8457 14.209 18.5059 14.209 Z"/>
  </g>
  <g id="Medium-S" transform="matrix(1 0 0 1 1692.65 696)">
   <path d="M 53.9062 -60.8887 C 56.0059 -60.8887 57.7148 -62.6465 57.7148 -64.9902 L 57.7148 -72.998 C 57.7148 -75.3418 56.0059 -77.0996 53.9062 -77.0996 C 51.8066 -77.0996 50.1465 -75.3418 50.1465 -72.998 L 50.1465 -64.9902 C 50.1465 -62.6465 51.8066 -60.8398 53.9062 -60.8887 Z M 73.6816 -52.6855 C 75.1465 -51.2695 77.5879 -51.2695 79.248 -52.9297 L 84.9121 -58.5449 C 86.6211 -60.2539 86.5723 -62.6465 85.1074 -64.1602 C 83.6426 -65.625 81.2012 -65.625 79.541 -63.916 L 73.877 -58.3008 C 72.2168 -56.6406 72.168 -54.1504 73.6816 -52.6855 Z M 28.5645 -52.9297 C 30.2246 -51.2695 32.7148 -51.2207 34.1309 -52.6855 C 35.5957 -54.1992 35.5957 -56.6406 33.9355 -58.3008 L 28.2715 -63.916 C 26.6113 -65.625 24.1699 -65.5762 22.7051 -64.1602 C 21.2402 -62.6953 21.1914 -60.2539 22.9004 -58.5449 Z M 18.4082 -15.625 L 95.166 -15.625 C 96.7773 -15.625 98.0469 -16.8457 98.0469 -18.457 C 98.0469 -20.1172 96.7773 -21.3379 95.166 -21.3379 L 71.2402 -21.3379 C 73.5352 -24.707 74.8535 -28.7109 74.8535 -33.0078 C 74.8535 -44.4824 65.3809 -54.0039 53.9062 -54.0039 C 42.4316 -54.0039 32.959 -44.4824 32.959 -33.0078 C 32.959 -28.7109 34.2773 -24.707 36.5723 -21.3379 L 18.4082 -21.3379 C 16.7969 -21.3379 15.5273 -20.1172 15.5273 -18.457 C 15.5273 -16.8457 16.7969 -15.625 18.4082 -15.625 Z M 13.8672 -30.3223 L 21.8262 -30.3223 C 24.2188 -30.3223 26.0254 -31.9824 25.9766 -34.082 C 25.9277 -36.1816 24.2188 -37.8906 21.8262 -37.8906 L 13.8672 -37.8906 C 11.5234 -37.8906 9.76562 -36.1816 9.76562 -34.082 C 9.76562 -31.9824 11.5234 -30.3223 13.8672 -30.3223 Z M 85.9863 -30.3223 L 93.9453 -30.3223 C 96.2891 -30.3223 98.0469 -31.9824 98.0469 -34.082 C 98.0469 -36.1816 96.2891 -37.8906 93.9453 -37.8906 L 85.9863 -37.8906 C 83.6426 -37.8906 81.7871 -36.1816 81.8359 -34.082 C 81.8848 -31.9824 83.6426 -30.3223 85.9863 -30.3223 Z M 12.6465 -0.927734 L 89.4043 -0.927734 C 91.0156 -0.927734 92.2852 -2.14844 92.2852 -3.75977 C 92.2852 -5.41992 91.0156 -6.64062 89.4043 -6.64062 L 12.6465 -6.64062 C 11.0352 -6.64062 9.76562 -5.41992 9.76562 -3.75977 C 9.76562 -2.14844 11.0352 -0.927734 12.6465 -0.927734 Z M 18.4082 13.7695 L 95.166 13.7695 C 96.7773 13.7695 98.0469 12.5488 98.0469 10.9375 C 98.0469 9.27734 96.7773 8.05664 95.166 8.05664 L 18.4082 8.05664 C 16.7969 8.05664 15.5273 9.27734 15.5273 10.9375 C 15.5273 12.5488 16.7969 13.7695 18.4082 13.7695 Z"/>
  </g>
  <g id="Regular-S" transform="matrix(1 0 0 1 1395.94 696)">
   <path d="M 53.9062 -61.4258 C 55.8594 -61.4746 57.4707 -63.1348 57.4707 -65.4297 L 57.4707 -73.7793 C 57.4707 -76.0742 55.8594 -77.6855 53.9062 -77.6855 C 51.9531 -77.6855 50.3418 -76.0742 50.3418 -73.7793 L 50.3418 -65.4297 C 50.3418 -63.1348 51.9531 -61.377 53.9062 -61.4258 Z M 73.6328 -53.2715 C 75.0488 -51.9043 77.3438 -51.9043 78.9551 -53.5645 L 84.8633 -59.4727 C 86.5234 -61.084 86.4746 -63.3301 85.1074 -64.7461 C 83.7402 -66.1621 81.4453 -66.1621 79.834 -64.502 L 73.9258 -58.5938 C 72.2656 -56.9824 72.2168 -54.6387 73.6328 -53.2715 Z M 28.8574 -53.5645 C 30.4688 -51.9043 32.8125 -51.8555 34.1797 -53.2715 C 35.5469 -54.6875 35.5469 -56.9824 33.8867 -58.5938 L 27.9785 -64.502 C 26.3672 -66.1621 24.1211 -66.1133 22.7051 -64.7461 C 21.2891 -63.3789 21.2891 -61.084 22.9492 -59.4727 Z M 18.2129 -16.2598 L 95.3613 -16.2598 C 96.875 -16.2598 98.0469 -17.4316 98.0469 -18.9941 C 98.0469 -20.5566 96.875 -21.7285 95.3613 -21.7285 L 71.1426 -21.7285 C 73.4863 -25.1465 74.8535 -29.1992 74.8535 -33.5938 C 74.8535 -45.0195 65.332 -54.5898 53.9062 -54.5898 C 42.4805 -54.5898 32.959 -45.0195 32.959 -33.5938 C 32.959 -29.1992 34.3262 -25.1465 36.6699 -21.7285 L 18.2129 -21.7285 C 16.6992 -21.7285 15.5273 -20.5566 15.5273 -18.9941 C 15.5273 -17.4316 16.6992 -16.2598 18.2129 -16.2598 Z M 13.7207 -30.957 L 22.0703 -30.957 C 24.3164 -30.957 26.0742 -32.5684 26.0254 -34.5215 C 25.9766 -36.4746 24.3164 -38.0859 22.0703 -38.0859 L 13.7207 -38.0859 C 11.4258 -38.0859 9.76562 -36.4746 9.76562 -34.5215 C 9.76562 -32.5684 11.4258 -30.957 13.7207 -30.957 Z M 85.7422 -30.957 L 94.0918 -30.957 C 96.3867 -30.957 98.0469 -32.5684 98.0469 -34.5215 C 98.0469 -36.4746 96.3867 -38.0859 94.0918 -38.0859 L 85.7422 -38.0859 C 83.4961 -38.0859 81.7383 -36.4746 81.7871 -34.5215 C 81.8359 -32.5684 83.4961 -30.957 85.7422 -30.957 Z M 12.4512 -1.5625 L 89.5996 -1.5625 C 91.1133 -1.5625 92.2852 -2.73438 92.2852 -4.29688 C 92.2852 -5.85938 91.1133 -7.03125 89.5996 -7.03125 L 12.4512 -7.03125 C 10.9375 -7.03125 9.76562 -5.85938 9.76562 -4.29688 C 9.76562 -2.73438 10.9375 -1.5625 12.4512 -1.5625 Z M 18.2129 13.1348 L 95.3613 13.1348 C 96.875 13.1348 98.0469 11.9629 98.0469 10.4004 C 98.0469 8.83789 96.875 7.66602 95.3613 7.66602 L 18.2129 7.66602 C 16.6992 7.66602 15.5273 8.83789 15.5273 10.4004 C 15.5273 11.9629 16.6992 13.1348 18.2129 13.1348 Z"/>
  </g>
  <g id="Light-S" transform="matrix(1 0 0 1 1099.23 696)">
   <path d="M 53.9062 -61.7188 C 55.4199 -61.7676 56.6406 -63.0371 56.6406 -64.7461 L 56.6406 -75.0488 C 56.6406 -76.7578 55.4199 -77.9785 53.9062 -77.9785 C 52.3926 -77.9785 51.1719 -76.7578 51.1719 -75.0488 L 51.1719 -64.7461 C 51.1719 -63.0371 52.3926 -61.7188 53.9062 -61.7188 Z M 73.6328 -53.5645 C 74.707 -52.5391 76.4648 -52.5391 77.6855 -53.7598 L 84.9609 -61.0352 C 86.2305 -62.3047 86.1816 -64.0137 85.1074 -65.0391 C 84.082 -66.1133 82.3242 -66.1621 81.1035 -64.9414 L 73.8281 -57.6172 C 72.6074 -56.4453 72.5586 -54.6387 73.6328 -53.5645 Z M 30.127 -53.7598 C 31.3477 -52.5391 33.1543 -52.5391 34.1797 -53.5645 C 35.2051 -54.6387 35.2051 -56.4453 33.9844 -57.6172 L 26.709 -64.9414 C 25.4883 -66.1621 23.7793 -66.1133 22.7051 -65.0391 C 21.6309 -64.0137 21.582 -62.3047 22.8516 -61.0352 Z M 17.7246 -17.1387 L 95.8496 -17.1387 C 97.0703 -17.1387 98.0469 -18.0664 98.0469 -19.2871 C 98.0469 -20.5566 97.0703 -21.4844 95.8496 -21.4844 L 70.1172 -21.4844 C 72.8027 -24.9023 74.4141 -29.248 74.4141 -33.8867 C 74.4141 -45.1172 65.1367 -54.4434 53.9062 -54.4434 C 42.6758 -54.4434 33.3984 -45.1172 33.3984 -33.8867 C 33.3984 -29.248 35.0098 -24.9023 37.6953 -21.4844 L 17.7246 -21.4844 C 16.5039 -21.4844 15.5273 -20.5566 15.5273 -19.2871 C 15.5273 -18.0664 16.5039 -17.1387 17.7246 -17.1387 Z M 12.7441 -32.1289 L 23.0469 -32.1289 C 24.7559 -32.1289 26.0742 -33.3008 26.0254 -34.8145 C 25.9766 -36.3281 24.7559 -37.5488 23.0469 -37.5488 L 12.7441 -37.5488 C 11.0352 -37.5488 9.76562 -36.3281 9.76562 -34.8145 C 9.76562 -33.3496 11.0352 -32.1289 12.7441 -32.1289 Z M 84.7656 -32.1289 L 95.0684 -32.1289 C 96.8262 -32.1289 98.0469 -33.3008 98.0469 -34.8145 C 98.0469 -36.3281 96.8262 -37.5488 95.0684 -37.5488 L 84.7656 -37.5488 C 83.0566 -37.5488 81.7383 -36.3281 81.7871 -34.8145 C 81.8359 -33.3496 83.0566 -32.1289 84.7656 -32.1289 Z M 11.9629 -2.44141 L 90.0879 -2.44141 C 91.3086 -2.44141 92.2852 -3.36914 92.2852 -4.58984 C 92.2852 -5.85938 91.3086 -6.78711 90.0879 -6.78711 L 11.9629 -6.78711 C 10.7422 -6.78711 9.76562 -5.85938 9.76562 -4.58984 C 9.76562 -3.36914 10.7422 -2.44141 11.9629 -2.44141 Z M 17.7246 12.2559 L 95.8496 12.2559 C 97.0703 12.2559 98.0469 11.3281 98.0469 10.1074 C 98.0469 8.83789 97.0703 7.91016 95.8496 7.91016 L 17.7246 7.91016 C 16.5039 7.91016 15.5273 8.83789 15.5273 10.1074 C 15.5273 11.3281 16.5039 12.2559 17.7246 12.2559 Z"/>
  </g>
  <g id="Thin-S" transform="matrix(1 0 0 1 802.516 696)">
   <path d="M 53.9062 -62.1582 C 54.7852 -62.1582 55.5176 -62.9395 55.5176 -63.8672 L 55.5176 -76.709 C 55.5176 -77.6855 54.7852 -78.418 53.9062 -78.418 C 53.0273 -78.418 52.2949 -77.6855 52.2949 -76.709 L 52.2949 -63.8672 C 52.2949 -62.9395 53.0273 -62.1094 53.9062 -62.1582 Z M 31.8359 -54.0039 C 32.4707 -53.3691 33.5449 -53.3691 34.1797 -54.0039 C 34.8145 -54.6387 34.8145 -55.7129 34.1309 -56.3477 L 25.0488 -65.4297 C 24.3164 -66.1621 23.291 -66.0645 22.7051 -65.4785 C 22.0703 -64.7949 22.0215 -63.8672 22.7539 -63.1348 Z M 73.6328 -54.0039 C 74.2676 -53.3691 75.3418 -53.3691 75.9766 -54.0039 L 85.0586 -63.1348 C 85.791 -63.8672 85.7422 -64.8438 85.1074 -65.4785 C 84.4727 -66.0645 83.4961 -66.1621 82.7637 -65.4297 L 73.6816 -56.3477 C 72.998 -55.7129 72.998 -54.5898 73.6328 -54.0039 Z M 17.041 -18.3105 L 96.5332 -18.3105 C 97.3633 -18.3105 98.0469 -18.8965 98.0469 -19.7266 C 98.0469 -20.5078 97.3633 -21.1426 96.5332 -21.1426 L 68.75 -21.1426 C 71.9238 -24.6582 73.877 -29.248 73.877 -34.3262 C 73.877 -45.2148 64.8926 -54.2969 53.9062 -54.2969 C 42.9199 -54.2969 33.9355 -45.2148 33.9355 -34.3262 C 33.9355 -29.248 35.8887 -24.6582 39.0625 -21.1426 L 17.041 -21.1426 C 16.2109 -21.1426 15.5273 -20.5078 15.5273 -19.7266 C 15.5273 -18.8965 16.2109 -18.3105 17.041 -18.3105 Z M 11.4746 -33.5938 L 24.3164 -33.5938 C 25.293 -33.5938 26.0254 -34.3262 26.0254 -35.2539 C 26.0254 -36.084 25.293 -36.8652 24.3164 -36.8652 L 11.4746 -36.8652 C 10.5469 -36.8652 9.76562 -36.1328 9.76562 -35.2539 C 9.76562 -34.375 10.5469 -33.5938 11.4746 -33.5938 Z M 83.4961 -33.5938 L 96.3379 -33.5938 C 97.3145 -33.5938 98.0469 -34.3262 98.0469 -35.2539 C 98.0469 -36.084 97.3145 -36.8652 96.3379 -36.8652 L 83.4961 -36.8652 C 82.5684 -36.8652 81.7871 -36.1328 81.7871 -35.2539 C 81.7871 -34.375 82.5684 -33.5938 83.4961 -33.5938 Z M 11.2793 -3.61328 L 90.7715 -3.61328 C 91.6016 -3.61328 92.2852 -4.19922 92.2852 -5.0293 C 92.2852 -5.81055 91.6016 -6.44531 90.7715 -6.44531 L 11.2793 -6.44531 C 10.4492 -6.44531 9.76562 -5.81055 9.76562 -5.0293 C 9.76562 -4.19922 10.4492 -3.61328 11.2793 -3.61328 Z M 17.041 11.084 L 96.5332 11.084 C 97.3633 11.084 98.0469 10.498 98.0469 9.66797 C 98.0469 8.88672 97.3633 8.25195 96.5332 8.25195 L 17.041 8.25195 C 16.2109 8.25195 15.5273 8.88672 15.5273 9.66797 C 15.5273 10.498 16.2109 11.084 17.041 11.084 Z"/>
  </g>
  <g id="Ultralight-S" transform="matrix(1 0 0 1 505.805 696)">
   <path d="M 53.9062 -62.3535 C 54.4434 -62.3535 54.9805 -62.8418 54.9805 -63.3789 L 54.9805 -77.5879 C 54.9805 -78.1738 54.4434 -78.6133 53.9062 -78.6133 C 53.3691 -78.6133 52.832 -78.1738 52.832 -77.5879 L 52.832 -63.3789 C 52.832 -62.8418 53.3691 -62.3535 53.9062 -62.3535 Z M 32.7148 -54.1504 C 33.0566 -53.8086 33.7891 -53.8086 34.1797 -54.1992 C 34.5703 -54.5898 34.5703 -55.3223 34.2285 -55.6641 L 24.1699 -65.7227 C 23.7305 -66.1621 23.0469 -66.0645 22.7051 -65.6738 C 22.3145 -65.2344 22.2168 -64.6484 22.6562 -64.209 Z M 73.6328 -54.1992 C 74.0234 -53.8086 74.7559 -53.8086 75.0977 -54.1504 L 85.1562 -64.209 C 85.5957 -64.6484 85.5469 -65.2832 85.1074 -65.6738 C 84.7168 -66.0156 84.082 -66.1621 83.6426 -65.7227 L 73.584 -55.6641 C 73.2422 -55.3223 73.2422 -54.5898 73.6328 -54.1992 Z M 16.6992 -18.8965 L 96.875 -18.8965 C 97.5098 -18.8965 98.0469 -19.3359 98.0469 -19.9219 C 98.0469 -20.5078 97.5098 -20.9473 96.875 -20.9473 L 68.0664 -20.9473 C 71.4355 -24.4629 73.5352 -29.248 73.5352 -34.5215 C 73.5352 -45.3125 64.7461 -54.1504 53.9062 -54.1504 C 43.0664 -54.1504 34.2773 -45.3125 34.2773 -34.5215 C 34.2773 -29.248 36.377 -24.4629 39.7461 -20.9473 L 16.6992 -20.9473 C 16.0645 -20.9473 15.5273 -20.5078 15.5273 -19.9219 C 15.5273 -19.3359 16.0645 -18.8965 16.6992 -18.8965 Z M 10.791 -34.375 L 25 -34.375 C 25.5859 -34.375 26.0254 -34.8633 26.0254 -35.4492 C 26.0254 -35.9863 25.5859 -36.5234 25 -36.5234 L 10.791 -36.5234 C 10.2539 -36.5234 9.76562 -36.0352 9.76562 -35.4492 C 9.76562 -34.9121 10.2539 -34.375 10.791 -34.375 Z M 82.8125 -34.375 L 97.0215 -34.375 C 97.6074 -34.375 98.0469 -34.8633 98.0469 -35.4492 C 98.0469 -35.9863 97.6074 -36.5234 97.0215 -36.5234 L 82.8125 -36.5234 C 82.2754 -36.5234 81.7871 -36.0352 81.7871 -35.4492 C 81.7871 -34.9121 82.2754 -34.375 82.8125 -34.375 Z M 10.9375 -4.19922 L 91.1133 -4.19922 C 91.748 -4.19922 92.2852 -4.63867 92.2852 -5.22461 C 92.2852 -5.81055 91.748 -6.25 91.1133 -6.25 L 10.9375 -6.25 C 10.3027 -6.25 9.76562 -5.81055 9.76562 -5.22461 C 9.76562 -4.63867 10.3027 -4.19922 10.9375 -4.19922 Z M 16.6992 10.498 L 96.875 10.498 C 97.5098 10.498 98.0469 10.0586 98.0469 9.47266 C 98.0469 8.88672 97.5098 8.44727 96.875 8.44727 L 16.6992 8.44727 C 16.0645 8.44727 15.5273 8.88672 15.5273 9.47266 C 15.5273 10.0586 16.0645 10.498 16.6992 10.498 Z"/>
  </g>
 </g>
</svg>
