<?xml version="1.0" encoding="UTF-8"?>
<!--Generator: Apple Native CoreSVG 123-->
<!DOCTYPE svg
PUBLIC "-//W3C//DTD SVG 1.1//EN"
       "http://www.w3.org/Graphics/SVG/1.1/DTD/svg11.dtd">
<svg version="1.1" xmlns="http://www.w3.org/2000/svg" xmlns:xlink="http://www.w3.org/1999/xlink" width="3300" height="2200">
 <!--glyph: "uni1001B1.medium", point size: 100.000000, font version: "Version 15.0d7e11", template writer version: "5"-->
 <g id="Notes">
  <rect height="2200" id="artboard" style="fill:white;opacity:1" width="3300" x="0" y="0"/>
  <line id="" style="fill:none;stroke:black;opacity:1;stroke-width:0.5;" x1="263" x2="3036" y1="292" y2="292"/>
  <text style="stroke:none;fill:black;font-family:-apple-system,&quot;SF Pro Display&quot;,&quot;SF Pro Text&quot;,Helvetica,sans-serif;font-weight:bold;" transform="matrix(1 0 0 1 263 322)">Weight/Scale Variations</text>
  <text style="stroke:none;fill:black;font-family:-apple-system,&quot;SF Pro Display&quot;,&quot;SF Pro Text&quot;,Helvetica,sans-serif;text-anchor:middle;" transform="matrix(1 0 0 1 559.711 322)">Ultralight</text>
  <text style="stroke:none;fill:black;font-family:-apple-system,&quot;SF Pro Display&quot;,&quot;SF Pro Text&quot;,Helvetica,sans-serif;text-anchor:middle;" transform="matrix(1 0 0 1 856.422 322)">Thin</text>
  <text style="stroke:none;fill:black;font-family:-apple-system,&quot;SF Pro Display&quot;,&quot;SF Pro Text&quot;,Helvetica,sans-serif;text-anchor:middle;" transform="matrix(1 0 0 1 1153.13 322)">Light</text>
  <text style="stroke:none;fill:black;font-family:-apple-system,&quot;SF Pro Display&quot;,&quot;SF Pro Text&quot;,Helvetica,sans-serif;text-anchor:middle;" transform="matrix(1 0 0 1 1449.84 322)">Regular</text>
  <text style="stroke:none;fill:black;font-family:-apple-system,&quot;SF Pro Display&quot;,&quot;SF Pro Text&quot;,Helvetica,sans-serif;text-anchor:middle;" transform="matrix(1 0 0 1 1746.56 322)">Medium</text>
  <text style="stroke:none;fill:black;font-family:-apple-system,&quot;SF Pro Display&quot;,&quot;SF Pro Text&quot;,Helvetica,sans-serif;text-anchor:middle;" transform="matrix(1 0 0 1 2043.27 322)">Semibold</text>
  <text style="stroke:none;fill:black;font-family:-apple-system,&quot;SF Pro Display&quot;,&quot;SF Pro Text&quot;,Helvetica,sans-serif;text-anchor:middle;" transform="matrix(1 0 0 1 2339.98 322)">Bold</text>
  <text style="stroke:none;fill:black;font-family:-apple-system,&quot;SF Pro Display&quot;,&quot;SF Pro Text&quot;,Helvetica,sans-serif;text-anchor:middle;" transform="matrix(1 0 0 1 2636.69 322)">Heavy</text>
  <text style="stroke:none;fill:black;font-family:-apple-system,&quot;SF Pro Display&quot;,&quot;SF Pro Text&quot;,Helvetica,sans-serif;text-anchor:middle;" transform="matrix(1 0 0 1 2933.4 322)">Black</text>
  <line id="" style="fill:none;stroke:black;opacity:1;stroke-width:0.5;" x1="263" x2="3036" y1="1903" y2="1903"/>
  <g id="" transform="matrix(1 0 0 1 263 1933)">
   <path d="M 9.24805 0.830078 C 13.5547 0.830078 17.1387 -2.74414 17.1387 -7.05078 C 17.1387 -11.3574 13.5449 -14.9316 9.23828 -14.9316 C 4.94141 -14.9316 1.36719 -11.3574 1.36719 -7.05078 C 1.36719 -2.74414 4.95117 0.830078 9.24805 0.830078 Z M 9.24805 -0.654297 C 5.70312 -0.654297 2.87109 -3.49609 2.87109 -7.05078 C 2.87109 -10.6055 5.69336 -13.4473 9.23828 -13.4473 C 12.793 -13.4473 15.6348 -10.6055 15.6445 -7.05078 C 15.6543 -3.49609 12.8027 -0.654297 9.24805 -0.654297 Z M 9.22852 -3.42773 C 9.69727 -3.42773 9.9707 -3.74023 9.9707 -4.25781 L 9.9707 -6.31836 L 12.1973 -6.31836 C 12.6953 -6.31836 13.0371 -6.57227 13.0371 -7.04102 C 13.0371 -7.51953 12.7148 -7.7832 12.1973 -7.7832 L 9.9707 -7.7832 L 9.9707 -10.0098 C 9.9707 -10.5273 9.69727 -10.8496 9.22852 -10.8496 C 8.75977 -10.8496 8.50586 -10.5078 8.50586 -10.0098 L 8.50586 -7.7832 L 6.29883 -7.7832 C 5.78125 -7.7832 5.44922 -7.51953 5.44922 -7.04102 C 5.44922 -6.57227 5.80078 -6.31836 6.29883 -6.31836 L 8.50586 -6.31836 L 8.50586 -4.25781 C 8.50586 -3.75977 8.75977 -3.42773 9.22852 -3.42773 Z"/>
  </g>
  <g id="" transform="matrix(1 0 0 1 281.506 1933)">
   <path d="M 11.709 2.91016 C 17.1582 2.91016 21.6699 -1.60156 21.6699 -7.05078 C 21.6699 -12.4902 17.1484 -17.0117 11.6992 -17.0117 C 6.25977 -17.0117 1.74805 -12.4902 1.74805 -7.05078 C 1.74805 -1.60156 6.26953 2.91016 11.709 2.91016 Z M 11.709 1.25 C 7.09961 1.25 3.41797 -2.44141 3.41797 -7.05078 C 3.41797 -11.6504 7.08984 -15.3516 11.6992 -15.3516 C 16.3086 -15.3516 20 -11.6504 20.0098 -7.05078 C 20.0195 -2.44141 16.3184 1.25 11.709 1.25 Z M 11.6895 -2.41211 C 12.207 -2.41211 12.5195 -2.77344 12.5195 -3.33984 L 12.5195 -6.23047 L 15.5762 -6.23047 C 16.123 -6.23047 16.5039 -6.51367 16.5039 -7.03125 C 16.5039 -7.55859 16.1426 -7.86133 15.5762 -7.86133 L 12.5195 -7.86133 L 12.5195 -10.9277 C 12.5195 -11.5039 12.207 -11.8555 11.6895 -11.8555 C 11.1719 -11.8555 10.8789 -11.4844 10.8789 -10.9277 L 10.8789 -7.86133 L 7.83203 -7.86133 C 7.26562 -7.86133 6.89453 -7.55859 6.89453 -7.03125 C 6.89453 -6.51367 7.28516 -6.23047 7.83203 -6.23047 L 10.8789 -6.23047 L 10.8789 -3.33984 C 10.8789 -2.79297 11.1719 -2.41211 11.6895 -2.41211 Z"/>
  </g>
  <g id="" transform="matrix(1 0 0 1 304.924 1933)">
   <path d="M 14.9707 5.67383 C 21.9336 5.67383 27.6953 -0.078125 27.6953 -7.04102 C 27.6953 -14.0039 21.9238 -19.7559 14.9609 -19.7559 C 8.00781 -19.7559 2.25586 -14.0039 2.25586 -7.04102 C 2.25586 -0.078125 8.01758 5.67383 14.9707 5.67383 Z M 14.9707 3.85742 C 8.93555 3.85742 4.08203 -1.00586 4.08203 -7.04102 C 4.08203 -13.0762 8.92578 -17.9395 14.9609 -17.9395 C 21.0059 -17.9395 25.8594 -13.0762 25.8691 -7.04102 C 25.8789 -1.00586 21.0156 3.85742 14.9707 3.85742 Z M 14.9512 -1.06445 C 15.5176 -1.06445 15.8691 -1.45508 15.8691 -2.06055 L 15.8691 -6.13281 L 20.1074 -6.13281 C 20.6934 -6.13281 21.1133 -6.46484 21.1133 -7.02148 C 21.1133 -7.59766 20.7227 -7.93945 20.1074 -7.93945 L 15.8691 -7.93945 L 15.8691 -12.1875 C 15.8691 -12.8027 15.5176 -13.1934 14.9512 -13.1934 C 14.3848 -13.1934 14.0625 -12.7832 14.0625 -12.1875 L 14.0625 -7.93945 L 9.83398 -7.93945 C 9.21875 -7.93945 8.80859 -7.59766 8.80859 -7.02148 C 8.80859 -6.46484 9.23828 -6.13281 9.83398 -6.13281 L 14.0625 -6.13281 L 14.0625 -2.06055 C 14.0625 -1.47461 14.3848 -1.06445 14.9512 -1.06445 Z"/>
  </g>
  <text style="stroke:none;fill:black;font-family:-apple-system,&quot;SF Pro Display&quot;,&quot;SF Pro Text&quot;,Helvetica,sans-serif;font-weight:bold;" transform="matrix(1 0 0 1 263 1953)">Design Variations</text>
  <text style="stroke:none;fill:black;font-family:-apple-system,&quot;SF Pro Display&quot;,&quot;SF Pro Text&quot;,Helvetica,sans-serif;" transform="matrix(1 0 0 1 263 1971)">Symbols are supported in up to nine weights and three scales.</text>
  <text style="stroke:none;fill:black;font-family:-apple-system,&quot;SF Pro Display&quot;,&quot;SF Pro Text&quot;,Helvetica,sans-serif;" transform="matrix(1 0 0 1 263 1989)">For optimal layout with text and other symbols, vertically align</text>
  <text style="stroke:none;fill:black;font-family:-apple-system,&quot;SF Pro Display&quot;,&quot;SF Pro Text&quot;,Helvetica,sans-serif;" transform="matrix(1 0 0 1 263 2007)">symbols with the adjacent text.</text>
  <rect height="14" id="" style="fill:#00AEEF;stroke:none;opacity:0.4;" width="3" x="776" y="1919"/>
  <g id="" transform="matrix(1 0 0 1 779 1933)">
   <path d="M 10.5273 0 L 12.373 0 L 7.17773 -14.0918 L 5.43945 -14.0918 L 0.244141 0 L 2.08984 0 L 3.50586 -4.0332 L 9.11133 -4.0332 Z M 6.2793 -11.9531 L 6.33789 -11.9531 L 8.59375 -5.52734 L 4.02344 -5.52734 Z"/>
  </g>
  <rect height="14" id="" style="fill:#00AEEF;stroke:none;opacity:0.4;" width="3" x="791.617" y="1919"/>
  <text style="stroke:none;fill:black;font-family:-apple-system,&quot;SF Pro Display&quot;,&quot;SF Pro Text&quot;,Helvetica,sans-serif;font-weight:bold;" transform="matrix(1 0 0 1 776 1953)">Margins</text>
  <text style="stroke:none;fill:black;font-family:-apple-system,&quot;SF Pro Display&quot;,&quot;SF Pro Text&quot;,Helvetica,sans-serif;" transform="matrix(1 0 0 1 776 1971)">Leading and trailing margins on the left and right side of each symbol</text>
  <text style="stroke:none;fill:black;font-family:-apple-system,&quot;SF Pro Display&quot;,&quot;SF Pro Text&quot;,Helvetica,sans-serif;" transform="matrix(1 0 0 1 776 1989)">can be adjusted by modifying the width of the blue rectangles.</text>
  <text style="stroke:none;fill:black;font-family:-apple-system,&quot;SF Pro Display&quot;,&quot;SF Pro Text&quot;,Helvetica,sans-serif;" transform="matrix(1 0 0 1 776 2007)">Modifications are automatically applied proportionally to all</text>
  <text style="stroke:none;fill:black;font-family:-apple-system,&quot;SF Pro Display&quot;,&quot;SF Pro Text&quot;,Helvetica,sans-serif;" transform="matrix(1 0 0 1 776 2025)">scales and weights.</text>
  <g id="" transform="matrix(1 0 0 1 1289 1933)">
   <path d="M 2.83203 3.11523 L 4.375 4.6582 C 5.22461 5.48828 6.19141 5.41992 7.06055 4.46289 L 17.2754 -6.66016 C 17.7051 -6.36719 18.0957 -6.37695 18.5645 -6.47461 L 19.6094 -6.68945 L 20.3027 -5.99609 L 20.2539 -5.47852 C 20.1855 -4.95117 20.3516 -4.53125 20.8496 -4.0332 L 21.6602 -3.22266 C 22.168 -2.71484 22.8223 -2.68555 23.3008 -3.16406 L 26.5527 -6.41602 C 27.0312 -6.89453 27.0117 -7.54883 26.5039 -8.05664 L 25.6836 -8.87695 C 25.1855 -9.375 24.7754 -9.55078 24.2383 -9.47266 L 23.7109 -9.41406 L 23.0566 -10.0781 L 23.3398 -11.2207 C 23.4863 -11.7871 23.3398 -12.2559 22.7148 -12.8613 L 20.3027 -15.2539 C 16.7578 -18.7793 12.2266 -18.6719 9.11133 -15.5371 C 8.69141 -15.1074 8.64258 -14.5215 8.91602 -14.0918 C 9.15039 -13.7207 9.62891 -13.4961 10.2734 -13.6621 C 11.7871 -14.043 13.3008 -13.9258 14.7852 -12.9199 L 14.1602 -11.3379 C 13.9258 -10.752 13.9453 -10.2734 14.1797 -9.83398 L 3.01758 0.439453 C 2.08008 1.30859 1.97266 2.25586 2.83203 3.11523 Z M 10.6738 -15.1465 C 13.3398 -17.1387 16.6504 -16.8262 19.0527 -14.4141 L 21.6797 -11.8066 C 21.9141 -11.5723 21.9434 -11.3867 21.8848 -11.0938 L 21.5039 -9.53125 L 23.0762 -7.95898 L 24.043 -8.04688 C 24.3262 -8.07617 24.4141 -8.05664 24.6387 -7.83203 L 25.2637 -7.20703 L 22.5098 -4.46289 L 21.8848 -5.07812 C 21.6602 -5.30273 21.6406 -5.40039 21.6699 -5.68359 L 21.7578 -6.64062 L 20.1953 -8.20312 L 18.5742 -7.89062 C 18.291 -7.83203 18.1445 -7.83203 17.9102 -8.07617 L 15.7324 -10.2539 C 15.5078 -10.4883 15.4785 -10.625 15.6055 -10.9473 L 16.5527 -13.2227 C 14.9512 -14.7559 12.8418 -15.6055 10.8008 -14.9512 C 10.7129 -14.9219 10.6445 -14.9414 10.6152 -14.9805 C 10.5859 -15.0293 10.5859 -15.0781 10.6738 -15.1465 Z M 4.10156 2.41211 C 3.61328 1.91406 3.78906 1.61133 4.12109 1.30859 L 15.0781 -8.80859 L 16.3086 -7.57812 L 6.15234 3.34961 C 5.84961 3.68164 5.46875 3.7793 5.06836 3.37891 Z"/>
  </g>
  <text style="stroke:none;fill:black;font-family:-apple-system,&quot;SF Pro Display&quot;,&quot;SF Pro Text&quot;,Helvetica,sans-serif;font-weight:bold;" transform="matrix(1 0 0 1 1289 1953)">Exporting</text>
  <text style="stroke:none;fill:black;font-family:-apple-system,&quot;SF Pro Display&quot;,&quot;SF Pro Text&quot;,Helvetica,sans-serif;" transform="matrix(1 0 0 1 1289 1971)">Symbols should be outlined when exporting to ensure the</text>
  <text style="stroke:none;fill:black;font-family:-apple-system,&quot;SF Pro Display&quot;,&quot;SF Pro Text&quot;,Helvetica,sans-serif;" transform="matrix(1 0 0 1 1289 1989)">design is preserved when submitting to Xcode.</text>
  <text id="template-version" style="stroke:none;fill:black;font-family:-apple-system,&quot;SF Pro Display&quot;,&quot;SF Pro Text&quot;,Helvetica,sans-serif;text-anchor:end;" transform="matrix(1 0 0 1 3036 1933)">Template v.1.0</text>
  <text style="stroke:none;fill:black;font-family:-apple-system,&quot;SF Pro Display&quot;,&quot;SF Pro Text&quot;,Helvetica,sans-serif;text-anchor:end;" transform="matrix(1 0 0 1 3036 1951)">Generated from sunrise</text>
  <text style="stroke:none;fill:black;font-family:-apple-system,&quot;SF Pro Display&quot;,&quot;SF Pro Text&quot;,Helvetica,sans-serif;text-anchor:end;" transform="matrix(1 0 0 1 3036 1969)">Typeset at 100 points</text>
  <text style="stroke:none;fill:black;font-family:-apple-system,&quot;SF Pro Display&quot;,&quot;SF Pro Text&quot;,Helvetica,sans-serif;" transform="matrix(1 0 0 1 263 726)">Small</text>
  <text style="stroke:none;fill:black;font-family:-apple-system,&quot;SF Pro Display&quot;,&quot;SF Pro Text&quot;,Helvetica,sans-serif;" transform="matrix(1 0 0 1 263 1156)">Medium</text>
  <text style="stroke:none;fill:black;font-family:-apple-system,&quot;SF Pro Display&quot;,&quot;SF Pro Text&quot;,Helvetica,sans-serif;" transform="matrix(1 0 0 1 263 1586)">Large</text>
 </g>
 <g id="Guides">
  <g id="H-reference" style="fill:#27AAE1;stroke:none;" transform="matrix(1 0 0 1 339 696)">
   <path d="M 54.9316 0 L 57.666 0 L 30.5664 -70.459 L 28.0762 -70.459 L 0.976562 0 L 3.66211 0 L 12.9395 -24.4629 L 45.7031 -24.4629 Z M 29.1992 -67.0898 L 29.4434 -67.0898 L 44.8242 -26.709 L 13.8184 -26.709 Z"/>
  </g>
  <line id="Baseline-S" style="fill:none;stroke:#27AAE1;opacity:1;stroke-width:0.577;" x1="263" x2="3036" y1="696" y2="696"/>
  <line id="Capline-S" style="fill:none;stroke:#27AAE1;opacity:1;stroke-width:0.577;" x1="263" x2="3036" y1="625.541" y2="625.541"/>
  <g id="H-reference" style="fill:#27AAE1;stroke:none;" transform="matrix(1 0 0 1 339 1126)">
   <path d="M 54.9316 0 L 57.666 0 L 30.5664 -70.459 L 28.0762 -70.459 L 0.976562 0 L 3.66211 0 L 12.9395 -24.4629 L 45.7031 -24.4629 Z M 29.1992 -67.0898 L 29.4434 -67.0898 L 44.8242 -26.709 L 13.8184 -26.709 Z"/>
  </g>
  <line id="Baseline-M" style="fill:none;stroke:#27AAE1;opacity:1;stroke-width:0.577;" x1="263" x2="3036" y1="1126" y2="1126"/>
  <line id="Capline-M" style="fill:none;stroke:#27AAE1;opacity:1;stroke-width:0.577;" x1="263" x2="3036" y1="1055.54" y2="1055.54"/>
  <g id="H-reference" style="fill:#27AAE1;stroke:none;" transform="matrix(1 0 0 1 339 1556)">
   <path d="M 54.9316 0 L 57.666 0 L 30.5664 -70.459 L 28.0762 -70.459 L 0.976562 0 L 3.66211 0 L 12.9395 -24.4629 L 45.7031 -24.4629 Z M 29.1992 -67.0898 L 29.4434 -67.0898 L 44.8242 -26.709 L 13.8184 -26.709 Z"/>
  </g>
  <line id="Baseline-L" style="fill:none;stroke:#27AAE1;opacity:1;stroke-width:0.577;" x1="263" x2="3036" y1="1556" y2="1556"/>
  <line id="Capline-L" style="fill:none;stroke:#27AAE1;opacity:1;stroke-width:0.577;" x1="263" x2="3036" y1="1485.54" y2="1485.54"/>
  <rect height="119.336" id="left-margin" style="fill:#00AEEF;stroke:none;opacity:0.4;" width="12.4512" x="1374.82" y="1030.79"/>
  <rect height="119.336" id="right-margin" style="fill:#00AEEF;stroke:none;opacity:0.4;" width="12.4512" x="1512.42" y="1030.79"/>
 </g>
 <g id="Symbols">
  <g id="Black-L" transform="matrix(1 0 0 1 2836.6 1556)">
   <path d="M 96.8262 -62.1094 C 100.879 -62.1094 104.199 -65.625 104.199 -69.7754 L 104.15 -87.793 L 102.734 -98.9258 L 106.494 -93.0176 L 111.426 -87.3047 C 112.939 -85.4492 114.746 -84.082 117.334 -84.082 C 121.24 -84.082 124.17 -87.0605 124.17 -90.7227 C 124.17 -93.0664 122.803 -95.0684 120.947 -96.8262 L 102.393 -114.355 C 100.488 -116.113 98.9258 -116.846 96.8262 -116.846 C 94.6777 -116.846 93.1152 -116.113 91.2109 -114.355 L 72.6562 -96.8262 C 70.8008 -95.0684 69.4336 -93.0664 69.4336 -90.7227 C 69.4336 -87.0605 72.3633 -84.082 76.2695 -84.082 C 78.9062 -84.082 80.6641 -85.4492 82.1777 -87.3047 L 87.3535 -93.2129 L 90.8691 -98.9258 L 89.4531 -87.793 L 89.4043 -69.7754 C 89.4043 -65.625 92.7734 -62.1094 96.8262 -62.1094 Z M 129.492 -46.9727 C 132.373 -44.1406 137.158 -44.2383 140.137 -47.2656 L 148.047 -54.9805 C 151.074 -58.0566 151.074 -62.8418 148.193 -65.7227 C 145.312 -68.6035 140.576 -68.5547 137.549 -65.4785 L 129.639 -57.666 C 126.66 -54.6875 126.611 -49.8535 129.492 -46.9727 Z M 64.1602 -46.9727 C 66.9922 -49.8535 66.9434 -54.6875 63.9648 -57.666 L 56.1035 -65.4785 C 53.0273 -68.5547 48.291 -68.5547 45.4102 -65.7227 C 42.5293 -62.8418 42.5293 -58.0566 45.6055 -54.9805 L 53.4668 -47.2656 C 56.4453 -44.2383 61.2793 -44.0918 64.1602 -46.9727 Z M 25.1465 20.7031 L 168.457 20.7031 C 173.535 20.7031 177.539 16.3574 177.539 11.4746 C 177.539 6.39648 173.584 2.24609 168.457 2.24609 L 127.051 2.24609 C 130.176 -2.68555 131.592 -8.44727 131.592 -14.3066 C 131.592 -33.8379 115.967 -49.4141 96.8262 -49.4141 C 77.6367 -49.4141 62.0117 -33.8379 62.0117 -14.3066 C 62.0117 -8.44727 63.4277 -2.68555 66.5527 2.24609 L 25.1465 2.24609 C 20.0684 2.24609 16.0645 6.54297 16.0645 11.4746 C 16.0645 16.2109 20.166 20.7031 25.1465 20.7031 Z M 78.2715 -14.2578 C 78.2715 -24.8535 86.6699 -33.0566 96.8262 -33.0566 C 106.934 -33.0566 115.332 -24.8535 115.332 -14.2578 C 115.332 -7.4707 111.914 -1.36719 107.275 2.24609 L 86.3281 2.24609 C 81.7383 -1.36719 78.2715 -7.4707 78.2715 -14.2578 Z M 31.7871 -12.0605 L 42.8711 -12.0605 C 47.168 -12.0605 50.6348 -15.3809 50.5859 -19.4336 C 50.5859 -23.5352 47.168 -26.8555 42.8711 -26.8555 L 31.7871 -26.8555 C 27.5879 -26.8555 24.1211 -23.5352 24.1211 -19.4336 C 24.1211 -15.3809 27.6367 -12.0605 31.7871 -12.0605 Z M 150.732 -12.0605 L 161.816 -12.0605 C 166.113 -12.0605 169.482 -15.3809 169.482 -19.4336 C 169.482 -23.5352 166.113 -26.8555 161.816 -26.8555 L 150.732 -26.8555 C 146.484 -26.8555 143.018 -23.5352 143.018 -19.4336 C 143.018 -15.3809 146.533 -12.0605 150.732 -12.0605 Z"/>
  </g>
  <g id="Heavy-L" transform="matrix(1 0 0 1 2539.89 1556)">
   <path d="M 96.8262 -62.6953 C 100.439 -62.6953 103.467 -65.8691 103.467 -69.6777 L 103.467 -89.1602 L 102.197 -100.049 L 106.299 -94.1406 L 112.109 -87.7441 C 113.428 -86.1328 115.039 -84.9609 117.285 -84.9609 C 120.801 -84.9609 123.389 -87.5977 123.389 -90.918 C 123.389 -92.9688 122.266 -94.7266 120.605 -96.2891 L 101.758 -114.062 C 100.049 -115.674 98.6816 -116.309 96.8262 -116.309 C 94.9707 -116.309 93.5547 -115.674 91.8457 -114.062 L 72.998 -96.2891 C 71.3867 -94.7266 70.2148 -92.9688 70.2148 -90.918 C 70.2148 -87.5977 72.8027 -84.9609 76.3184 -84.9609 C 78.5645 -84.9609 80.1758 -86.1328 81.543 -87.7441 L 87.5977 -94.4336 L 91.4062 -100.049 L 90.1855 -89.1602 L 90.1367 -69.6777 C 90.1367 -65.8691 93.1641 -62.6953 96.8262 -62.6953 Z M 129.443 -47.0215 C 132.031 -44.4336 136.377 -44.5312 139.111 -47.2656 L 147.998 -56.0547 C 150.83 -58.8867 150.781 -63.1836 148.193 -65.7715 C 145.605 -68.3594 141.357 -68.3594 138.525 -65.5273 L 129.639 -56.6895 C 126.904 -53.9551 126.807 -49.5605 129.443 -47.0215 Z M 64.1602 -47.0215 C 66.748 -49.6094 66.6992 -53.9551 63.9648 -56.6895 L 55.0781 -65.5273 C 52.2949 -68.3594 47.998 -68.3594 45.4102 -65.7715 C 42.8223 -63.1836 42.8223 -58.8867 45.6055 -56.0547 L 54.4922 -47.2656 C 57.2266 -44.5312 61.6211 -44.3848 64.1602 -47.0215 Z M 24.1211 19.2383 L 169.482 19.2383 C 173.975 19.2383 177.539 15.4785 177.539 11.1816 C 177.539 6.73828 174.023 3.125 169.482 3.125 L 126.27 3.125 C 129.736 -2.00195 131.445 -8.05664 131.445 -14.4043 C 131.445 -33.6914 115.869 -49.2188 96.8262 -49.2188 C 77.7832 -49.2188 62.1582 -33.6914 62.1582 -14.4043 C 62.1582 -8.05664 63.8672 -2.00195 67.334 3.125 L 24.1211 3.125 C 19.6289 3.125 16.0645 6.83594 16.0645 11.1816 C 16.0645 15.3809 19.6777 19.2383 24.1211 19.2383 Z M 76.6602 -14.3555 C 76.6602 -25.6836 85.7422 -34.668 96.8262 -34.668 C 107.861 -34.668 116.992 -25.6836 116.992 -14.3555 C 116.992 -7.12891 113.281 -0.683594 108.252 3.125 L 85.3516 3.125 C 80.3223 -0.683594 76.6602 -7.12891 76.6602 -14.3555 Z M 31.1035 -12.0117 L 43.6523 -12.0117 C 47.5586 -12.0117 50.6836 -14.9902 50.6836 -18.6523 C 50.6348 -22.3633 47.5586 -25.3418 43.6523 -25.3418 L 31.1035 -25.3418 C 27.1973 -25.3418 24.1211 -22.3633 24.1211 -18.6523 C 24.1211 -14.9902 27.2461 -12.0117 31.1035 -12.0117 Z M 149.951 -12.0117 L 162.5 -12.0117 C 166.455 -12.0117 169.482 -14.9902 169.482 -18.6523 C 169.482 -22.3633 166.455 -25.3418 162.5 -25.3418 L 149.951 -25.3418 C 146.094 -25.3418 142.92 -22.3633 142.969 -18.6523 C 142.969 -14.9902 146.143 -12.0117 149.951 -12.0117 Z"/>
  </g>
  <g id="Bold-L" transform="matrix(1 0 0 1 2243.18 1556)">
   <path d="M 96.8262 -63.3301 C 100 -63.3301 102.686 -66.1621 102.686 -69.5312 L 102.686 -90.7227 L 101.66 -101.27 L 106.104 -95.4102 L 112.842 -88.2324 C 114.014 -86.9141 115.43 -85.9863 117.236 -85.9863 C 120.264 -85.9863 122.51 -88.2324 122.51 -91.1621 C 122.51 -92.9199 121.631 -94.3359 120.215 -95.7031 L 101.074 -113.77 C 99.5605 -115.186 98.3887 -115.723 96.8262 -115.723 C 95.2637 -115.723 94.043 -115.186 92.5293 -113.77 L 73.3887 -95.7031 C 71.9727 -94.3359 71.0938 -92.9199 71.0938 -91.1621 C 71.0938 -88.2324 73.3398 -85.9863 76.3672 -85.9863 C 78.1738 -85.9863 79.6387 -86.9141 80.7617 -88.2324 L 87.8418 -95.752 L 91.9922 -101.27 L 90.9668 -90.7227 L 90.918 -69.5312 C 90.918 -66.1621 93.6035 -63.3301 96.8262 -63.3301 Z M 129.395 -47.0215 C 131.689 -44.7754 135.498 -44.8242 137.939 -47.2656 L 147.998 -57.2754 C 150.537 -59.7656 150.439 -63.5254 148.193 -65.8203 C 145.947 -68.1152 142.188 -68.1152 139.648 -65.625 L 129.59 -55.5664 C 127.148 -53.125 127.1 -49.2676 129.395 -47.0215 Z M 64.209 -47.0215 C 66.5039 -49.3164 66.4551 -53.125 64.0137 -55.5664 L 53.9551 -65.625 C 51.416 -68.1152 47.7051 -68.0664 45.4102 -65.8203 C 43.1152 -63.5742 43.1152 -59.7656 45.6055 -57.2754 L 55.6641 -47.2656 C 58.1055 -44.8242 61.9629 -44.7266 64.209 -47.0215 Z M 22.9492 17.627 L 170.654 17.627 C 174.463 17.627 177.539 14.4531 177.539 10.8398 C 177.539 7.12891 174.512 4.10156 170.654 4.10156 L 125.439 4.10156 C 129.199 -1.2207 131.25 -7.66602 131.25 -14.4531 C 131.25 -33.5449 115.723 -49.0234 96.8262 -49.0234 C 77.8809 -49.0234 62.3535 -33.5449 62.3535 -14.4531 C 62.3535 -7.66602 64.4043 -1.2207 68.1641 4.10156 L 22.9492 4.10156 C 19.1406 4.10156 16.0645 7.22656 16.0645 10.8398 C 16.0645 14.4043 19.1895 17.627 22.9492 17.627 Z M 74.8047 -14.4043 C 74.8047 -26.709 84.7656 -36.5234 96.8262 -36.5234 C 108.887 -36.5234 118.799 -26.709 118.799 -14.4043 C 118.799 -6.78711 114.893 0.0488281 109.375 4.10156 L 84.2285 4.10156 C 78.7109 0.0488281 74.8047 -6.78711 74.8047 -14.4043 Z M 30.3223 -11.9629 L 44.4824 -11.9629 C 48.0469 -11.9629 50.7812 -14.5996 50.7324 -17.8223 C 50.6836 -21.0449 47.998 -23.6816 44.4824 -23.6816 L 30.3223 -23.6816 C 26.8555 -23.6816 24.1211 -21.0449 24.1211 -17.8223 C 24.1211 -14.5996 26.8555 -11.9629 30.3223 -11.9629 Z M 149.121 -11.9629 L 163.33 -11.9629 C 166.797 -11.9629 169.482 -14.5996 169.482 -17.8223 C 169.482 -21.0449 166.797 -23.6816 163.33 -23.6816 L 149.121 -23.6816 C 145.654 -23.6816 142.822 -21.0449 142.871 -17.8223 C 142.92 -14.5996 145.654 -11.9629 149.121 -11.9629 Z"/>
  </g>
  <g id="Semibold-L" transform="matrix(1 0 0 1 1946.46 1556)">
   <path d="M 96.8262 -63.7695 C 99.707 -63.7695 102.148 -66.3574 102.148 -69.4336 L 102.1 -91.748 L 101.221 -102.1 L 105.957 -96.2402 L 113.379 -88.5742 C 114.404 -87.4512 115.674 -86.6699 117.188 -86.6699 C 119.922 -86.6699 121.924 -88.6719 121.924 -91.3086 C 121.924 -92.8711 121.191 -94.0918 119.971 -95.2637 L 100.586 -113.574 C 99.2188 -114.844 98.1445 -115.332 96.8262 -115.332 C 95.459 -115.332 94.3848 -114.844 93.0176 -113.574 L 73.6328 -95.2637 C 72.4121 -94.0918 71.6797 -92.8711 71.6797 -91.3086 C 71.6797 -88.6719 73.6816 -86.6699 76.416 -86.6699 C 77.9297 -86.6699 79.248 -87.4512 80.2734 -88.5742 L 88.0371 -96.6797 L 92.3828 -102.1 L 91.5039 -91.748 L 91.4551 -69.4336 C 91.4551 -66.3574 93.8965 -63.7695 96.8262 -63.7695 Z M 129.346 -47.0215 C 131.445 -45.0195 134.863 -45.0195 137.158 -47.3145 L 147.998 -58.1055 C 150.293 -60.4004 150.244 -63.8184 148.193 -65.8691 C 146.191 -67.9688 142.773 -67.9688 140.43 -65.6738 L 129.59 -54.834 C 127.344 -52.5879 127.295 -49.0723 129.346 -47.0215 Z M 64.2578 -47.0215 C 66.3086 -49.1211 66.2598 -52.5879 64.0137 -54.834 L 53.1738 -65.6738 C 50.8301 -67.9688 47.4609 -67.9199 45.4102 -65.8691 C 43.3105 -63.8672 43.3105 -60.4004 45.6055 -58.1055 L 56.4941 -47.3145 C 58.7402 -45.0195 62.207 -44.9707 64.2578 -47.0215 Z M 22.168 16.5039 L 171.484 16.5039 C 174.805 16.5039 177.539 13.8184 177.539 10.6445 C 177.539 7.42188 174.805 4.78516 171.484 4.78516 L 124.854 4.78516 C 128.857 -0.683594 131.104 -7.37305 131.104 -14.502 C 131.104 -33.4473 115.625 -48.877 96.8262 -48.877 C 78.0273 -48.877 62.5 -33.4473 62.5 -14.502 C 62.5 -7.37305 64.7461 -0.683594 68.75 4.78516 L 22.168 4.78516 C 18.7988 4.78516 16.0645 7.4707 16.0645 10.6445 C 16.0645 13.7695 18.7988 16.5039 22.168 16.5039 Z M 73.584 -14.4531 C 73.584 -27.3438 84.0332 -37.793 96.8262 -37.793 C 109.57 -37.793 120.068 -27.3438 120.068 -14.4531 C 120.068 -6.54297 116.016 0.585938 110.156 4.78516 L 83.4473 4.78516 C 77.5879 0.585938 73.584 -6.54297 73.584 -14.4531 Z M 29.7852 -11.9141 L 45.1172 -11.9141 C 48.3398 -11.9141 50.8301 -14.3066 50.7812 -17.2363 C 50.7324 -20.1172 48.3398 -22.5098 45.1172 -22.5098 L 29.7852 -22.5098 C 26.5625 -22.5098 24.1211 -20.1172 24.1211 -17.2363 C 24.1211 -14.3066 26.6113 -11.9141 29.7852 -11.9141 Z M 148.535 -11.9141 L 163.867 -11.9141 C 167.09 -11.9141 169.482 -14.3066 169.482 -17.2363 C 169.482 -20.1172 167.09 -22.5098 163.867 -22.5098 L 148.535 -22.5098 C 145.312 -22.5098 142.773 -20.1172 142.822 -17.2363 C 142.871 -14.3066 145.361 -11.9141 148.535 -11.9141 Z"/>
  </g>
  <g id="Medium-L" transform="matrix(1 0 0 1 1649.75 1556)">
   <path d="M 96.8262 -64.1113 C 99.4629 -64.1113 101.709 -66.5039 101.709 -69.3848 L 101.709 -92.5781 L 100.928 -102.734 L 105.859 -96.9238 L 113.77 -88.8184 C 114.697 -87.8418 115.869 -87.207 117.188 -87.207 C 119.678 -87.207 121.484 -88.9648 121.484 -91.4062 C 121.484 -92.8223 120.898 -93.8965 119.775 -94.9707 L 100.244 -113.428 C 98.9746 -114.6 97.998 -115.039 96.8262 -115.039 C 95.6055 -115.039 94.6289 -114.6 93.4082 -113.428 L 73.8281 -94.9707 C 72.7539 -93.8965 72.1191 -92.8223 72.1191 -91.4062 C 72.1191 -88.9648 73.9258 -87.207 76.416 -87.207 C 77.7344 -87.207 78.9551 -87.8418 79.8828 -88.8184 L 88.1836 -97.3633 L 92.6758 -102.734 L 91.8945 -92.5781 L 91.8945 -69.3848 C 91.8945 -66.5039 94.1406 -64.1113 96.8262 -64.1113 Z M 129.346 -47.0215 C 131.25 -45.166 134.424 -45.2148 136.523 -47.3145 L 147.998 -58.7402 C 150.146 -60.8887 150.098 -64.0137 148.193 -65.918 C 146.338 -67.8223 143.213 -67.8223 141.016 -65.6738 L 129.59 -54.248 C 127.49 -52.1484 127.393 -48.9258 129.346 -47.0215 Z M 64.3066 -47.0215 C 66.1621 -48.9746 66.1621 -52.1484 64.0137 -54.248 L 52.5879 -65.6738 C 50.3906 -67.8223 47.3145 -67.7734 45.4102 -65.918 C 43.457 -64.0625 43.457 -60.8887 45.6055 -58.7402 L 57.0801 -47.3145 C 59.1797 -45.2148 62.4023 -45.1172 64.3066 -47.0215 Z M 21.5332 15.625 L 172.07 15.625 C 175.049 15.625 177.539 13.2812 177.539 10.4492 C 177.539 7.61719 175.098 5.27344 172.07 5.27344 L 124.365 5.27344 C 128.564 -0.244141 131.006 -7.12891 131.006 -14.502 C 131.006 -33.3496 115.527 -48.7793 96.8262 -48.7793 C 78.0762 -48.7793 62.5977 -33.3496 62.5977 -14.502 C 62.5977 -7.12891 65.0391 -0.244141 69.2383 5.27344 L 21.5332 5.27344 C 18.5547 5.27344 16.0645 7.61719 16.0645 10.4492 C 16.0645 13.2812 18.5547 15.625 21.5332 15.625 Z M 72.6074 -14.502 C 72.6074 -27.8809 83.5449 -38.7695 96.8262 -38.7695 C 110.107 -38.7695 120.996 -27.8809 120.996 -14.502 C 120.996 -6.34766 116.846 0.976562 110.742 5.27344 L 82.9102 5.27344 C 76.7578 0.976562 72.6074 -6.34766 72.6074 -14.502 Z M 29.3457 -11.8652 L 45.5566 -11.8652 C 48.584 -11.8652 50.8789 -14.0625 50.8301 -16.748 C 50.7812 -19.4336 48.5352 -21.6797 45.5566 -21.6797 L 29.3457 -21.6797 C 26.3672 -21.6797 24.1211 -19.4336 24.1211 -16.748 C 24.1211 -14.0625 26.3672 -11.8652 29.3457 -11.8652 Z M 148.047 -11.8652 L 164.258 -11.8652 C 167.285 -11.8652 169.482 -14.0625 169.482 -16.748 C 169.482 -19.4336 167.285 -21.6797 164.258 -21.6797 L 148.047 -21.6797 C 145.068 -21.6797 142.725 -19.4336 142.773 -16.748 C 142.822 -14.0625 145.117 -11.8652 148.047 -11.8652 Z"/>
  </g>
  <g id="Regular-L" transform="matrix(1 0 0 1 1353.04 1556)">
   <path d="M 96.8262 -64.5508 C 99.1699 -64.5508 101.172 -66.6992 101.172 -69.2871 L 101.172 -93.6035 L 100.537 -103.564 L 105.713 -97.7539 L 114.258 -89.1602 C 115.039 -88.3301 116.113 -87.8906 117.139 -87.8906 C 119.336 -87.8906 120.898 -89.4043 120.898 -91.5527 C 120.898 -92.7246 120.459 -93.6035 119.482 -94.5312 L 99.7559 -113.232 C 98.6328 -114.258 97.8027 -114.648 96.8262 -114.648 C 95.8008 -114.648 94.9707 -114.258 93.8477 -113.232 L 74.1211 -94.5312 C 73.1445 -93.6035 72.7539 -92.7246 72.7539 -91.5527 C 72.7539 -89.4043 74.3164 -87.8906 76.4648 -87.8906 C 77.4902 -87.8906 78.5645 -88.3301 79.3457 -89.1602 L 88.3789 -98.291 L 93.0664 -103.564 L 92.4316 -93.6035 L 92.4316 -69.2871 C 92.4316 -66.6992 94.4336 -64.5508 96.8262 -64.5508 Z M 129.297 -47.0703 C 131.006 -45.4102 133.838 -45.4102 135.742 -47.3145 L 147.998 -59.5703 C 149.951 -61.5234 149.854 -64.2578 148.193 -65.9668 C 146.582 -67.6758 143.799 -67.6758 141.797 -65.7227 L 129.541 -53.5156 C 127.637 -51.5625 127.588 -48.6816 129.297 -47.0703 Z M 64.3066 -47.0703 C 65.9668 -48.7793 65.9668 -51.5625 64.0625 -53.5156 L 51.8066 -65.7227 C 49.8535 -67.6758 47.0703 -67.627 45.4102 -65.9668 C 43.7012 -64.3066 43.6523 -61.5234 45.6543 -59.5703 L 57.8613 -47.3145 C 59.8145 -45.4102 62.6465 -45.3613 64.3066 -47.0703 Z M 20.752 14.5508 L 172.852 14.5508 C 175.391 14.5508 177.539 12.5977 177.539 10.2539 C 177.539 7.86133 175.391 5.95703 172.852 5.95703 L 123.779 5.95703 C 128.223 0.292969 130.859 -6.83594 130.859 -14.5508 C 130.859 -33.252 115.43 -48.6816 96.8262 -48.6816 C 78.1738 -48.6816 62.7441 -33.252 62.7441 -14.5508 C 62.7441 -6.83594 65.3809 0.292969 69.8242 5.95703 L 20.752 5.95703 C 18.2129 5.95703 16.0645 7.86133 16.0645 10.2539 C 16.0645 12.5977 18.2129 14.5508 20.752 14.5508 Z M 71.3867 -14.5508 C 71.3867 -28.5156 82.8125 -39.9902 96.8262 -39.9902 C 110.791 -39.9902 122.217 -28.5156 122.217 -14.5508 C 122.217 -6.10352 117.92 1.46484 111.475 5.95703 L 82.1289 5.95703 C 75.6836 1.46484 71.3867 -6.10352 71.3867 -14.5508 Z M 28.8086 -11.8164 L 46.1426 -11.8164 C 48.877 -11.8164 50.9277 -13.7695 50.8789 -16.1621 C 50.8301 -18.5547 48.877 -20.5078 46.1426 -20.5078 L 28.8086 -20.5078 C 26.123 -20.5078 24.1211 -18.5547 24.1211 -16.1621 C 24.1211 -13.7695 26.123 -11.8164 28.8086 -11.8164 Z M 147.461 -11.8164 L 164.795 -11.8164 C 167.529 -11.8164 169.482 -13.7695 169.482 -16.1621 C 169.482 -18.5547 167.529 -20.5078 164.795 -20.5078 L 147.461 -20.5078 C 144.775 -20.5078 142.676 -18.5547 142.725 -16.1621 C 142.773 -13.7695 144.775 -11.8164 147.461 -11.8164 Z"/>
  </g>
  <g id="Light-L" transform="matrix(1 0 0 1 1056.33 1556)">
   <path d="M 96.8262 -65.1855 C 98.6328 -65.1855 100.146 -66.748 100.146 -68.7012 L 100.146 -94.043 L 99.6582 -104.59 L 105.566 -98.2422 L 114.99 -88.6719 C 115.625 -88.0371 116.455 -87.6953 117.236 -87.6953 C 118.945 -87.6953 120.166 -88.8672 120.166 -90.5762 C 120.166 -91.6016 119.775 -92.334 118.994 -93.1152 L 99.0723 -112.305 C 98.291 -113.037 97.5586 -113.379 96.8262 -113.379 C 96.0449 -113.379 95.3125 -113.037 94.5312 -112.305 L 74.6094 -93.1152 C 73.8281 -92.334 73.4375 -91.6016 73.4375 -90.5762 C 73.4375 -88.8672 74.707 -87.6953 76.3672 -87.6953 C 77.1973 -87.6953 77.9785 -88.0371 78.6133 -88.6719 L 88.3301 -98.5352 L 93.9453 -104.59 L 93.457 -94.043 L 93.457 -68.7012 C 93.457 -66.748 94.9707 -65.1855 96.8262 -65.1855 Z M 129.297 -47.3633 C 130.566 -46.1426 132.715 -46.1426 134.131 -47.5098 L 148.096 -61.4746 C 149.561 -62.9395 149.463 -64.9902 148.193 -66.2598 C 147.021 -67.5293 144.873 -67.5781 143.408 -66.1621 L 129.443 -52.1973 C 128.076 -50.7812 128.027 -48.6328 129.297 -47.3633 Z M 64.3066 -47.3633 C 65.5762 -48.6328 65.5762 -50.7812 64.1602 -52.1973 L 50.1953 -66.1621 C 48.7305 -67.5781 46.6309 -67.5293 45.4102 -66.2598 C 44.0918 -65.0391 44.043 -62.9395 45.5078 -61.4746 L 59.5215 -47.5098 C 60.8887 -46.1426 63.0859 -46.0938 64.3066 -47.3633 Z M 19.6777 12.8906 L 173.975 12.8906 C 175.928 12.8906 177.539 11.4258 177.539 9.61914 C 177.539 7.8125 175.928 6.34766 173.975 6.34766 L 122.51 6.34766 C 127.344 0.585938 130.322 -6.78711 130.322 -14.8926 C 130.322 -33.3008 115.186 -48.3887 96.8262 -48.3887 C 78.418 -48.3887 63.3301 -33.3008 63.3301 -14.8926 C 63.3301 -6.78711 66.2598 0.585938 71.0938 6.34766 L 19.6777 6.34766 C 17.7246 6.34766 16.0645 7.8125 16.0645 9.61914 C 16.0645 11.4258 17.7246 12.8906 19.6777 12.8906 Z M 69.873 -14.8926 C 69.873 -29.6875 81.9824 -41.7969 96.8262 -41.7969 C 111.621 -41.7969 123.73 -29.6875 123.73 -14.8926 C 123.73 -6.20117 119.482 1.5625 113.037 6.34766 L 80.5664 6.34766 C 74.1211 1.5625 69.873 -6.20117 69.873 -14.8926 Z M 27.5879 -13.1836 L 47.3633 -13.1836 C 49.4141 -13.1836 50.9277 -14.6973 50.8789 -16.5039 C 50.8789 -18.2617 49.3652 -19.7754 47.3633 -19.7754 L 27.5879 -19.7754 C 25.6348 -19.7754 24.1211 -18.2617 24.1211 -16.5039 C 24.1211 -14.6973 25.6348 -13.1836 27.5879 -13.1836 Z M 146.24 -13.1836 L 166.016 -13.1836 C 168.018 -13.1836 169.482 -14.6973 169.482 -16.5039 C 169.482 -18.2617 168.018 -19.7754 166.016 -19.7754 L 146.24 -19.7754 C 144.287 -19.7754 142.676 -18.2617 142.725 -16.5039 C 142.773 -14.6973 144.287 -13.1836 146.24 -13.1836 Z"/>
  </g>
  <g id="Thin-L" transform="matrix(1 0 0 1 759.62 1556)">
   <path d="M 96.8262 -65.9668 C 97.9004 -65.9668 98.7793 -66.8457 98.7793 -67.9688 L 98.7793 -94.5801 L 98.4863 -105.908 L 105.371 -98.8281 L 115.918 -88.0371 C 116.406 -87.5977 116.895 -87.4023 117.383 -87.4023 C 118.408 -87.4023 119.238 -88.1836 119.238 -89.3066 C 119.238 -90.0391 118.896 -90.5762 118.311 -91.1621 L 98.2422 -111.035 C 97.8027 -111.426 97.2656 -111.719 96.8262 -111.719 C 96.3379 -111.719 95.8008 -111.426 95.3613 -111.035 L 75.293 -91.1621 C 74.707 -90.5762 74.3652 -90.0391 74.3652 -89.3066 C 74.3652 -88.1836 75.1953 -87.4023 76.2695 -87.4023 C 76.7578 -87.4023 77.2461 -87.5977 77.6855 -88.0371 L 88.2812 -98.877 L 95.1172 -105.908 L 94.8242 -94.5801 L 94.8242 -67.9688 C 94.8242 -66.8457 95.7031 -65.9668 96.8262 -65.9668 Z M 129.297 -47.8027 C 130.029 -47.0703 131.299 -47.0703 131.934 -47.7539 L 148.242 -64.0137 C 149.072 -64.7949 148.975 -65.9668 148.193 -66.6992 C 147.559 -67.3828 146.338 -67.4805 145.557 -66.748 L 129.248 -50.4395 C 128.613 -49.7559 128.564 -48.4863 129.297 -47.8027 Z M 64.3066 -47.8027 C 65.0391 -48.4863 65.0391 -49.7559 64.3555 -50.4395 L 48.0957 -66.748 C 47.2656 -67.4805 46.0449 -67.3828 45.4102 -66.6992 C 44.6289 -65.9668 44.5801 -64.7949 45.3613 -64.0137 L 61.6699 -47.7539 C 62.3047 -47.0703 63.623 -47.0703 64.3066 -47.8027 Z M 18.2129 10.6934 L 175.391 10.6934 C 176.562 10.6934 177.539 9.86328 177.539 8.78906 C 177.539 7.71484 176.562 6.88477 175.391 6.88477 L 120.801 6.88477 C 126.221 1.07422 129.59 -6.73828 129.59 -15.2832 C 129.59 -33.3496 114.844 -48.0469 96.8262 -48.0469 C 78.7598 -48.0469 64.0625 -33.3496 64.0625 -15.2832 C 64.0625 -6.73828 67.3828 1.07422 72.8027 6.88477 L 18.2129 6.88477 C 17.041 6.88477 16.0645 7.71484 16.0645 8.78906 C 16.0645 9.86328 17.041 10.6934 18.2129 10.6934 Z M 67.9199 -15.2832 C 67.9199 -31.25 80.8594 -44.1895 96.8262 -44.1895 C 112.744 -44.1895 125.732 -31.25 125.732 -15.2832 C 125.732 -6.34766 121.631 1.66016 115.234 6.88477 L 78.3691 6.88477 C 72.0215 1.66016 67.9199 -6.34766 67.9199 -15.2832 Z M 25.9766 -14.9902 L 49.0234 -14.9902 C 50.1465 -14.9902 50.8789 -15.8691 50.8789 -16.8945 C 50.8789 -17.9199 50.0488 -18.7988 49.0234 -18.7988 L 25.9766 -18.7988 C 25 -18.7988 24.1211 -17.9199 24.1211 -16.8945 C 24.1211 -15.8691 25 -14.9902 25.9766 -14.9902 Z M 144.629 -14.9902 L 167.627 -14.9902 C 168.701 -14.9902 169.482 -15.8691 169.482 -16.8945 C 169.482 -17.9199 168.701 -18.7988 167.627 -18.7988 L 144.629 -18.7988 C 143.604 -18.7988 142.725 -17.9199 142.725 -16.8945 C 142.725 -15.8691 143.604 -14.9902 144.629 -14.9902 Z"/>
  </g>
  <g id="Ultralight-L" transform="matrix(1 0 0 1 462.909 1556)">
   <path d="M 96.8262 -66.3574 C 97.5098 -66.3574 98.0957 -66.8945 98.0957 -67.5781 L 98.0957 -94.8242 L 97.9004 -106.592 L 105.273 -99.1211 L 116.406 -87.6953 C 116.797 -87.3535 117.09 -87.207 117.432 -87.207 C 118.164 -87.207 118.75 -87.8418 118.75 -88.6719 C 118.75 -89.2578 118.457 -89.6973 117.969 -90.1855 L 97.8027 -110.4 C 97.5586 -110.645 97.1191 -110.84 96.8262 -110.84 C 96.4844 -110.84 96.0449 -110.645 95.8008 -110.4 L 75.6836 -90.1855 C 75.1465 -89.6973 74.8535 -89.2578 74.8535 -88.6719 C 74.8535 -87.8418 75.4395 -87.207 76.1719 -87.207 C 76.5137 -87.207 76.8555 -87.3535 77.1973 -87.6953 L 88.2812 -99.0234 L 95.752 -106.592 L 95.5566 -94.8242 L 95.5566 -67.5781 C 95.5566 -66.8945 96.0938 -66.3574 96.8262 -66.3574 Z M 64.3066 -47.998 C 64.7461 -48.4375 64.7461 -49.2676 64.4531 -49.5605 L 46.9727 -66.9922 C 46.4844 -67.4316 45.752 -67.334 45.4102 -66.8945 C 44.9219 -66.4551 44.8242 -65.7227 45.3125 -65.332 L 62.7441 -47.8516 C 63.0859 -47.5586 63.8672 -47.5586 64.3066 -47.998 Z M 129.297 -47.998 C 129.736 -47.5586 130.566 -47.5586 130.859 -47.8516 L 148.291 -65.332 C 148.779 -65.7227 148.73 -66.4551 148.193 -66.8945 C 147.852 -67.334 147.119 -67.4316 146.631 -66.9922 L 129.15 -49.5605 C 128.857 -49.2676 128.857 -48.4375 129.297 -47.998 Z M 17.4805 9.52148 L 176.123 9.52148 C 176.904 9.52148 177.539 9.0332 177.539 8.34961 C 177.539 7.66602 176.904 7.17773 176.123 7.17773 L 119.873 7.17773 C 125.635 1.31836 129.199 -6.68945 129.199 -15.5273 C 129.199 -33.3496 114.648 -47.9004 96.8262 -47.9004 C 78.9551 -47.9004 64.4043 -33.3496 64.4043 -15.5273 C 64.4043 -6.68945 67.9688 1.31836 73.7305 7.17773 L 17.4805 7.17773 C 16.6992 7.17773 16.0645 7.66602 16.0645 8.34961 C 16.0645 9.0332 16.6992 9.52148 17.4805 9.52148 Z M 66.8945 -15.5273 C 66.8945 -32.0312 80.2734 -45.4102 96.8262 -45.4102 C 113.33 -45.4102 126.709 -32.0312 126.709 -15.5273 C 126.709 -6.44531 122.705 1.66016 116.406 7.17773 L 77.1973 7.17773 C 70.8984 1.66016 66.8945 -6.44531 66.8945 -15.5273 Z M 25.1465 -15.918 L 49.8535 -15.918 C 50.4883 -15.918 50.8789 -16.5039 50.8789 -17.1387 C 50.8789 -17.7246 50.3906 -18.3105 49.8535 -18.3105 L 25.1465 -18.3105 C 24.6582 -18.3105 24.1211 -17.7246 24.1211 -17.1387 C 24.1211 -16.5039 24.6582 -15.918 25.1465 -15.918 Z M 143.75 -15.918 L 168.457 -15.918 C 169.043 -15.918 169.482 -16.5039 169.482 -17.1387 C 169.482 -17.7246 169.043 -18.3105 168.457 -18.3105 L 143.75 -18.3105 C 143.311 -18.3105 142.725 -17.7246 142.725 -17.1387 C 142.725 -16.5039 143.311 -15.918 143.75 -15.918 Z"/>
  </g>
  <g id="Black-M" transform="matrix(1 0 0 1 2858.38 1126)">
   <path d="M 75.0488 -55.6152 C 78.418 -55.6152 81.1523 -58.4961 81.1523 -61.8652 L 81.1035 -74.3164 L 79.834 -83.6914 L 82.7148 -78.7109 L 85.8398 -74.7559 C 87.1582 -73.0469 88.6719 -71.7285 91.0645 -71.7285 C 94.3848 -71.7285 96.875 -74.3652 96.875 -77.4414 C 96.875 -79.541 95.5566 -81.3477 93.9453 -82.959 L 79.8828 -96.3867 C 78.3203 -97.9004 76.9043 -98.5352 75.0488 -98.5352 C 73.1445 -98.5352 71.7285 -97.9004 70.166 -96.3867 L 56.1035 -82.959 C 54.4922 -81.3477 53.1738 -79.541 53.1738 -77.4414 C 53.1738 -74.3652 55.6641 -71.7285 58.9844 -71.7285 C 61.377 -71.7285 62.8906 -73.0469 64.209 -74.7559 L 67.334 -78.7109 L 70.2148 -83.6914 L 68.9453 -74.3164 L 68.8965 -61.8652 C 68.8965 -58.4961 71.6309 -55.6152 75.0488 -55.6152 Z M 49.6582 -44.4824 C 52.0508 -46.875 51.9531 -50.8789 49.6094 -53.2715 L 43.9453 -58.8379 C 41.5527 -61.2793 37.5977 -61.3281 35.2051 -58.9355 C 32.8125 -56.5918 32.8125 -52.5391 35.2539 -50.0977 L 40.8691 -44.6289 C 43.2617 -42.2363 47.2656 -42.1387 49.6582 -44.4824 Z M 100.391 -44.4824 C 102.783 -42.1387 106.787 -42.2363 109.18 -44.6289 L 114.795 -50.0977 C 117.236 -52.5391 117.236 -56.5918 114.844 -58.9355 C 112.451 -61.3281 108.496 -61.2793 106.104 -58.8379 L 100.439 -53.2715 C 98.0957 -50.8789 97.998 -46.875 100.391 -44.4824 Z M 20.3125 9.17969 L 129.736 9.17969 C 134.131 9.17969 137.598 5.27344 137.598 1.02539 C 137.598 -3.4668 134.229 -7.17773 129.736 -7.17773 L 98.8281 -7.17773 C 101.074 -10.791 101.953 -14.9414 101.953 -19.1406 C 101.953 -34.3262 89.9414 -46.2891 75.0488 -46.2891 C 60.1074 -46.2891 48.0957 -34.3262 48.0957 -19.1406 C 48.0957 -14.9414 48.9746 -10.791 51.2207 -7.17773 L 20.3125 -7.17773 C 15.918 -7.17773 12.4512 -3.32031 12.4512 1.02539 C 12.4512 5.17578 15.9668 9.17969 20.3125 9.17969 Z M 62.0605 -19.043 C 62.0605 -26.6113 67.9199 -32.2754 75.0488 -32.2754 C 82.1289 -32.2754 87.9883 -26.6113 87.9883 -19.043 C 87.9883 -14.209 85.5957 -9.81445 82.5195 -7.17773 L 67.5293 -7.17773 C 64.4531 -9.81445 62.0605 -14.209 62.0605 -19.043 Z M 24.9512 -18.0664 L 32.8613 -18.0664 C 36.2793 -18.0664 39.1113 -20.8008 39.1113 -24.2188 C 39.1113 -27.5879 36.2793 -30.3223 32.8613 -30.3223 L 24.9512 -30.3223 C 21.582 -30.3223 18.7012 -27.5879 18.7012 -24.2188 C 18.7012 -20.8008 21.6309 -18.0664 24.9512 -18.0664 Z M 117.188 -18.0664 L 125.098 -18.0664 C 128.564 -18.0664 131.348 -20.8008 131.348 -24.2188 C 131.348 -27.5879 128.564 -30.3223 125.098 -30.3223 L 117.188 -30.3223 C 113.818 -30.3223 110.938 -27.5879 110.938 -24.2188 C 110.938 -20.8008 113.867 -18.0664 117.188 -18.0664 Z"/>
  </g>
  <g id="Heavy-M" transform="matrix(1 0 0 1 2561.66 1126)">
   <path d="M 75.0488 -56.1035 C 78.125 -56.1035 80.6641 -58.7402 80.6641 -61.8652 L 80.6152 -75.7324 L 79.4922 -84.6191 L 82.5195 -79.834 L 86.377 -75.3418 C 87.5488 -73.877 88.916 -72.8027 90.9668 -72.8027 C 93.9941 -72.8027 96.2402 -75.0977 96.2402 -77.9297 C 96.2402 -79.7363 95.1172 -81.3477 93.7012 -82.7148 L 79.3457 -96.3379 C 77.9297 -97.7051 76.6602 -98.291 75.0488 -98.291 C 73.3887 -98.291 72.1191 -97.7051 70.7031 -96.3379 L 56.3477 -82.7148 C 54.9316 -81.3477 53.8086 -79.7363 53.8086 -77.9297 C 53.8086 -75.0977 56.0547 -72.8027 59.082 -72.8027 C 61.1328 -72.8027 62.5 -73.877 63.6719 -75.3418 L 67.627 -79.9316 L 70.5566 -84.6191 L 69.4336 -75.7324 L 69.3848 -61.8652 C 69.3848 -58.7402 71.9238 -56.1035 75.0488 -56.1035 Z M 100.342 -44.4336 C 102.539 -42.2363 106.201 -42.334 108.447 -44.5801 L 114.746 -50.7812 C 117.041 -53.0762 117.041 -56.7383 114.844 -58.9355 C 112.695 -61.1328 109.082 -61.084 106.787 -58.7891 L 100.439 -52.5391 C 98.2422 -50.293 98.1445 -46.6309 100.342 -44.4336 Z M 49.707 -44.4336 C 51.8555 -46.6309 51.8066 -50.293 49.6094 -52.5391 L 43.2617 -58.7891 C 41.0156 -61.084 37.4023 -61.084 35.2051 -58.9355 C 33.0078 -56.7383 33.0078 -53.0762 35.3027 -50.7812 L 41.6016 -44.5801 C 43.8477 -42.334 47.5098 -42.2363 49.707 -44.4336 Z M 19.4336 8.05664 L 130.615 8.05664 C 134.521 8.05664 137.598 4.63867 137.598 0.878906 C 137.598 -3.07617 134.57 -6.29883 130.615 -6.29883 L 98.3398 -6.29883 C 100.781 -10.1074 101.904 -14.5508 101.904 -19.0918 C 101.904 -34.1797 89.8438 -46.1914 75.0488 -46.1914 C 60.2051 -46.1914 48.1445 -34.1797 48.1445 -19.0918 C 48.1445 -14.5508 49.2676 -10.1074 51.709 -6.29883 L 19.4336 -6.29883 C 15.5273 -6.29883 12.4512 -2.97852 12.4512 0.878906 C 12.4512 4.54102 15.5762 8.05664 19.4336 8.05664 Z M 60.6445 -19.043 C 60.6445 -27.2461 67.1387 -33.5938 75.0488 -33.5938 C 82.9102 -33.5938 89.4043 -27.2461 89.4043 -19.043 C 89.4043 -13.8184 86.7676 -9.08203 83.252 -6.29883 L 66.7969 -6.29883 C 63.2812 -9.08203 60.6445 -13.8184 60.6445 -19.043 Z M 24.5117 -17.627 L 33.3984 -17.627 C 36.6211 -17.627 39.209 -20.166 39.209 -23.291 C 39.1602 -26.3672 36.6211 -28.9062 33.3984 -28.9062 L 24.5117 -28.9062 C 21.3379 -28.9062 18.7012 -26.3672 18.7012 -23.291 C 18.7012 -20.166 21.3867 -17.627 24.5117 -17.627 Z M 116.65 -17.627 L 125.537 -17.627 C 128.76 -17.627 131.348 -20.166 131.348 -23.291 C 131.348 -26.3672 128.76 -28.9062 125.537 -28.9062 L 116.65 -28.9062 C 113.525 -28.9062 110.84 -26.3672 110.84 -23.291 C 110.889 -20.166 113.525 -17.627 116.65 -17.627 Z"/>
  </g>
  <g id="Bold-M" transform="matrix(1 0 0 1 2264.95 1126)">
   <path d="M 75.0488 -56.6406 C 77.7832 -56.6406 80.0781 -59.0332 80.0781 -61.9141 L 80.0293 -77.2949 L 79.1504 -85.6445 L 82.373 -81.1035 L 86.9629 -76.0254 C 87.9883 -74.8047 89.209 -73.9746 90.8691 -73.9746 C 93.5547 -73.9746 95.5078 -75.9277 95.5078 -78.418 C 95.5078 -79.9805 94.6289 -81.2988 93.4082 -82.4707 L 78.7598 -96.2891 C 77.4902 -97.5098 76.416 -97.998 75.0488 -97.998 C 73.6328 -97.998 72.5586 -97.5098 71.2891 -96.2891 L 56.6406 -82.4707 C 55.4199 -81.2988 54.541 -79.9805 54.541 -78.418 C 54.541 -75.9277 56.4941 -73.9746 59.1797 -73.9746 C 60.8398 -73.9746 62.0605 -74.8047 63.0859 -76.0254 L 67.9199 -81.2988 L 70.8984 -85.6445 L 70.0195 -77.2949 L 69.9707 -61.9141 C 69.9707 -59.0332 72.2656 -56.6406 75.0488 -56.6406 Z M 100.293 -44.3359 C 102.246 -42.4316 105.566 -42.4805 107.617 -44.5312 L 114.697 -51.5625 C 116.846 -53.6621 116.797 -56.9336 114.844 -58.8867 C 112.891 -60.8887 109.668 -60.8398 107.52 -58.7402 L 100.488 -51.709 C 98.3887 -49.6094 98.3398 -46.2891 100.293 -44.3359 Z M 49.7559 -44.3359 C 51.709 -46.3379 51.6602 -49.6094 49.5605 -51.709 L 42.5293 -58.7402 C 40.3809 -60.8398 37.1582 -60.8398 35.2051 -58.8867 C 33.2031 -56.9824 33.2031 -53.6621 35.3516 -51.5625 L 42.4316 -44.5312 C 44.4824 -42.4805 47.8027 -42.3828 49.7559 -44.3359 Z M 18.5059 6.73828 L 131.543 6.73828 C 134.912 6.73828 137.598 3.90625 137.598 0.683594 C 137.598 -2.63672 134.912 -5.37109 131.543 -5.37109 L 97.7539 -5.37109 C 100.439 -9.32617 101.855 -14.1113 101.855 -19.0918 C 101.855 -33.9844 89.7461 -46.0449 75.0488 -46.0449 C 60.3027 -46.0449 48.1934 -33.9844 48.1934 -19.0918 C 48.1934 -14.1113 49.6094 -9.32617 52.2949 -5.37109 L 18.5059 -5.37109 C 15.1367 -5.37109 12.4512 -2.53906 12.4512 0.683594 C 12.4512 3.85742 15.1855 6.73828 18.5059 6.73828 Z M 59.1309 -19.043 C 59.1309 -27.9785 66.3086 -35.1074 75.0488 -35.1074 C 83.7402 -35.1074 90.918 -27.9785 90.918 -19.043 C 90.918 -13.3789 88.0371 -8.34961 84.082 -5.37109 L 65.9668 -5.37109 C 62.0117 -8.34961 59.1309 -13.3789 59.1309 -19.043 Z M 23.9746 -17.1875 L 33.9355 -17.1875 C 36.9629 -17.1875 39.3066 -19.4824 39.2578 -22.2656 C 39.2578 -25.0488 36.9141 -27.2949 33.9355 -27.2949 L 23.9746 -27.2949 C 21.0449 -27.2949 18.7012 -25.0488 18.7012 -22.2656 C 18.7012 -19.4824 21.0938 -17.1875 23.9746 -17.1875 Z M 116.113 -17.1875 L 126.074 -17.1875 C 129.053 -17.1875 131.348 -19.4824 131.348 -22.2656 C 131.348 -25.0488 129.053 -27.2949 126.074 -27.2949 L 116.113 -27.2949 C 113.135 -27.2949 110.742 -25.0488 110.791 -22.2656 C 110.791 -19.4824 113.184 -17.1875 116.113 -17.1875 Z"/>
  </g>
  <g id="Semibold-M" transform="matrix(1 0 0 1 1968.24 1126)">
   <path d="M 75.0488 -56.9824 C 77.5879 -56.9824 79.6875 -59.2285 79.6875 -61.9141 L 79.6875 -78.3691 L 78.8574 -86.377 L 82.2266 -81.9336 L 87.4023 -76.4648 C 88.2812 -75.4883 89.4043 -74.7559 90.8203 -74.7559 C 93.2129 -74.7559 94.9707 -76.5137 94.9707 -78.8086 C 94.9707 -80.1758 94.3359 -81.25 93.2129 -82.3242 L 78.3691 -96.2891 C 77.1484 -97.3633 76.2207 -97.8027 75.0488 -97.8027 C 73.8281 -97.8027 72.9004 -97.3633 71.6797 -96.2891 L 56.8359 -82.3242 C 55.7129 -81.25 55.0781 -80.1758 55.0781 -78.8086 C 55.0781 -76.5137 56.8359 -74.7559 59.2285 -74.7559 C 60.6445 -74.7559 61.7676 -75.4883 62.6465 -76.4648 L 68.1152 -82.2754 L 71.1914 -86.377 L 70.3613 -78.3691 L 70.3613 -61.9141 C 70.3613 -59.2285 72.4609 -56.9824 75.0488 -56.9824 Z M 100.244 -44.2871 C 102.1 -42.5293 105.127 -42.5781 107.08 -44.5312 L 114.697 -52.0996 C 116.699 -54.1016 116.65 -57.0801 114.844 -58.8867 C 113.086 -60.6934 110.059 -60.6934 108.057 -58.6914 L 100.488 -51.123 C 98.4863 -49.1699 98.4375 -46.0938 100.244 -44.2871 Z M 49.8047 -44.2871 C 51.5625 -46.1426 51.5625 -49.1699 49.5605 -51.123 L 41.9922 -58.6914 C 39.9902 -60.6934 37.0117 -60.6934 35.2051 -58.8867 C 33.3496 -57.0801 33.3496 -54.1016 35.3516 -52.0996 L 42.9688 -44.5312 C 44.9219 -42.5781 47.998 -42.4805 49.8047 -44.2871 Z M 17.8711 5.85938 L 132.178 5.85938 C 135.156 5.85938 137.598 3.41797 137.598 0.585938 C 137.598 -2.29492 135.205 -4.6875 132.178 -4.6875 L 97.3633 -4.6875 C 100.244 -8.83789 101.807 -13.8184 101.807 -19.043 C 101.807 -33.8867 89.6973 -45.9473 75.0488 -45.9473 C 60.3516 -45.9473 48.2422 -33.8867 48.2422 -19.043 C 48.2422 -13.8184 49.8047 -8.83789 52.6855 -4.6875 L 17.8711 -4.6875 C 14.8926 -4.6875 12.4512 -2.29492 12.4512 0.585938 C 12.4512 3.36914 14.8926 5.85938 17.8711 5.85938 Z M 58.0566 -19.043 C 58.0566 -28.5156 65.7227 -36.1328 75.0488 -36.1328 C 84.3262 -36.1328 91.9922 -28.5156 91.9922 -19.043 C 91.9922 -13.0859 88.9648 -7.8125 84.6191 -4.6875 L 65.4297 -4.6875 C 61.084 -7.8125 58.0566 -13.0859 58.0566 -19.043 Z M 23.6328 -16.8945 L 34.375 -16.8945 C 37.1582 -16.8945 39.3555 -18.9453 39.3555 -21.5332 C 39.3066 -24.0723 37.1582 -26.1719 34.375 -26.1719 L 23.6328 -26.1719 C 20.8496 -26.1719 18.7012 -24.0723 18.7012 -21.5332 C 18.7012 -18.9453 20.8496 -16.8945 23.6328 -16.8945 Z M 115.674 -16.8945 L 126.416 -16.8945 C 129.248 -16.8945 131.348 -18.9453 131.348 -21.5332 C 131.348 -24.0723 129.248 -26.1719 126.416 -26.1719 L 115.674 -26.1719 C 112.891 -26.1719 110.693 -24.0723 110.693 -21.5332 C 110.742 -18.9453 112.939 -16.8945 115.674 -16.8945 Z"/>
  </g>
  <g id="Medium-M" transform="matrix(1 0 0 1 1671.53 1126)">
   <path d="M 75.0488 -57.2754 C 77.3926 -57.2754 79.3945 -59.375 79.3945 -61.9141 L 79.3945 -79.1992 L 78.6621 -86.9141 L 82.1289 -82.6172 L 87.7441 -76.8555 C 88.5254 -75.9766 89.5996 -75.3906 90.7715 -75.3906 C 93.0176 -75.3906 94.5801 -76.9531 94.5801 -79.0527 C 94.5801 -80.2734 94.043 -81.25 93.0664 -82.1777 L 78.0762 -96.2402 C 76.9531 -97.2656 76.123 -97.6562 75.0488 -97.6562 C 73.9258 -97.6562 73.0957 -97.2656 71.9727 -96.2402 L 56.9824 -82.1777 C 56.0059 -81.25 55.4688 -80.2734 55.4688 -79.0527 C 55.4688 -76.9531 57.0312 -75.3906 59.2773 -75.3906 C 60.4492 -75.3906 61.5234 -75.9766 62.3047 -76.8555 L 68.3105 -83.0078 L 71.3867 -86.9141 L 70.6543 -79.1992 L 70.6543 -61.9141 C 70.6543 -59.375 72.6562 -57.2754 75.0488 -57.2754 Z M 100.244 -44.2871 C 101.953 -42.5781 104.785 -42.627 106.689 -44.5312 L 114.648 -52.4902 C 116.602 -54.3945 116.504 -57.1777 114.844 -58.8867 C 113.184 -60.5957 110.4 -60.5957 108.447 -58.6914 L 100.488 -50.6836 C 98.584 -48.7793 98.5352 -45.9473 100.244 -44.2871 Z M 49.8047 -44.2871 C 51.4648 -45.9961 51.4648 -48.7793 49.5605 -50.6836 L 41.6016 -58.6914 C 39.6484 -60.5957 36.9141 -60.5469 35.2051 -58.8867 C 33.4961 -57.2266 33.4473 -54.3945 35.4004 -52.4902 L 43.3594 -44.5312 C 45.2637 -42.627 48.1445 -42.5781 49.8047 -44.2871 Z M 17.334 5.17578 L 132.715 5.17578 C 135.4 5.17578 137.598 3.02734 137.598 0.488281 C 137.598 -2.09961 135.4 -4.19922 132.715 -4.19922 L 97.0703 -4.19922 C 100.049 -8.44727 101.758 -13.5742 101.758 -19.043 C 101.758 -33.7891 89.6484 -45.8984 75.0488 -45.8984 C 60.4004 -45.8984 48.291 -33.7891 48.291 -19.043 C 48.291 -13.5742 50 -8.44727 52.9785 -4.19922 L 17.334 -4.19922 C 14.6484 -4.19922 12.4512 -2.05078 12.4512 0.488281 C 12.4512 2.97852 14.6973 5.17578 17.334 5.17578 Z M 57.2266 -19.043 C 57.2266 -28.9062 65.2832 -36.8652 75.0488 -36.8652 C 84.7656 -36.8652 92.8223 -28.9062 92.8223 -19.043 C 92.8223 -12.8906 89.6484 -7.42188 85.0098 -4.19922 L 65.0391 -4.19922 C 60.4004 -7.37305 57.2266 -12.8906 57.2266 -19.043 Z M 23.3887 -16.6504 L 34.668 -16.6504 C 37.3535 -16.6504 39.4043 -18.6035 39.4043 -20.9961 C 39.3555 -23.3887 37.3535 -25.3418 34.668 -25.3418 L 23.3887 -25.3418 C 20.7031 -25.3418 18.7012 -23.3887 18.7012 -20.9961 C 18.7012 -18.6035 20.7031 -16.6504 23.3887 -16.6504 Z M 115.381 -16.6504 L 126.66 -16.6504 C 129.346 -16.6504 131.348 -18.6035 131.348 -20.9961 C 131.348 -23.3887 129.346 -25.3418 126.66 -25.3418 L 115.381 -25.3418 C 112.744 -25.3418 110.645 -23.3887 110.693 -20.9961 C 110.693 -18.6035 112.744 -16.6504 115.381 -16.6504 Z"/>
  </g>
  <g id="Regular-M" transform="matrix(1 0 0 1 1374.82 1126)">
   <path d="M 75.0488 -57.6172 C 77.1973 -57.6172 79.0039 -59.5703 79.0039 -61.9629 L 79.0039 -80.2246 L 78.418 -87.5977 L 82.0312 -83.4473 L 88.1348 -77.2949 C 88.8672 -76.6113 89.7949 -76.1719 90.7227 -76.1719 C 92.6758 -76.1719 94.0918 -77.4902 94.0918 -79.4434 C 94.0918 -80.4688 93.75 -81.25 92.9199 -82.0312 L 77.6855 -96.1914 C 76.6602 -97.1191 75.9277 -97.4609 75.0488 -97.4609 C 74.1211 -97.4609 73.3887 -97.1191 72.3633 -96.1914 L 57.1289 -82.0312 C 56.2988 -81.25 55.957 -80.4688 55.957 -79.4434 C 55.957 -77.4902 57.373 -76.1719 59.3262 -76.1719 C 60.2539 -76.1719 61.1816 -76.6113 61.9141 -77.2949 L 68.5059 -83.9355 L 71.6309 -87.5977 L 71.0449 -80.2246 L 71.0449 -61.9629 C 71.0449 -59.5703 72.8516 -57.6172 75.0488 -57.6172 Z M 100.195 -44.2383 C 101.758 -42.7246 104.346 -42.7246 106.104 -44.4824 L 114.6 -52.9785 C 116.455 -54.7852 116.357 -57.3242 114.844 -58.8379 C 113.33 -60.4004 110.791 -60.4492 108.984 -58.6426 L 100.488 -50.1465 C 98.6816 -48.3398 98.6328 -45.7031 100.195 -44.2383 Z M 49.8535 -44.2383 C 51.3672 -45.752 51.3672 -48.3398 49.5605 -50.1465 L 41.0645 -58.6426 C 39.2578 -60.4492 36.7676 -60.3516 35.2051 -58.8379 C 33.6426 -57.373 33.5938 -54.7852 35.4492 -52.9785 L 43.9453 -44.4824 C 45.7031 -42.7246 48.3398 -42.6758 49.8535 -44.2383 Z M 16.6992 4.29688 L 133.35 4.29688 C 135.645 4.29688 137.598 2.53906 137.598 0.341797 C 137.598 -1.80664 135.645 -3.56445 133.35 -3.56445 L 96.6309 -3.56445 C 99.8535 -7.91016 101.709 -13.2324 101.709 -19.043 C 101.709 -33.6914 89.5996 -45.8008 75.0488 -45.8008 C 60.4492 -45.8008 48.3398 -33.6914 48.3398 -19.043 C 48.3398 -13.2324 50.1953 -7.91016 53.418 -3.56445 L 16.6992 -3.56445 C 14.4043 -3.56445 12.4512 -1.80664 12.4512 0.341797 C 12.4512 2.53906 14.4043 4.29688 16.6992 4.29688 Z M 56.1523 -19.043 C 56.1523 -29.3945 64.6973 -37.8906 75.0488 -37.8906 C 85.3516 -37.8906 93.8965 -29.3945 93.8965 -19.043 C 93.8965 -12.5977 90.5273 -6.88477 85.5469 -3.56445 L 64.502 -3.56445 C 59.5215 -6.88477 56.1523 -12.5977 56.1523 -19.043 Z M 23.0469 -16.3086 L 35.0586 -16.3086 C 37.5977 -16.3086 39.502 -18.1152 39.4531 -20.2637 C 39.4043 -22.4609 37.5488 -24.2676 35.0586 -24.2676 L 23.0469 -24.2676 C 20.5078 -24.2676 18.7012 -22.4609 18.7012 -20.2637 C 18.7012 -18.1152 20.5078 -16.3086 23.0469 -16.3086 Z M 114.99 -16.3086 L 127.002 -16.3086 C 129.541 -16.3086 131.348 -18.1152 131.348 -20.2637 C 131.348 -22.4609 129.541 -24.2676 127.002 -24.2676 L 114.99 -24.2676 C 112.5 -24.2676 110.547 -22.4609 110.596 -20.2637 C 110.645 -18.1152 112.5 -16.3086 114.99 -16.3086 Z"/>
  </g>
  <g id="Light-M" transform="matrix(1 0 0 1 1078.11 1126)">
   <path d="M 75.0488 -58.1543 C 76.6602 -58.1543 78.0762 -59.6191 78.0762 -61.4258 L 78.0762 -80.6152 L 77.6367 -88.5254 L 81.8848 -83.8379 L 88.7695 -76.8555 C 89.3555 -76.2695 90.0879 -75.9766 90.8203 -75.9766 C 92.334 -75.9766 93.457 -77.0508 93.457 -78.5645 C 93.457 -79.4434 93.1152 -80.0781 92.4316 -80.7129 L 77.0996 -95.3613 C 76.3184 -96.0449 75.7324 -96.3379 75.0488 -96.3379 C 74.3164 -96.3379 73.7305 -96.0449 72.9492 -95.3613 L 57.6172 -80.7129 C 56.9336 -80.0781 56.5918 -79.4434 56.5918 -78.5645 C 56.5918 -77.0508 57.7148 -75.9766 59.2285 -75.9766 C 59.9609 -75.9766 60.6934 -76.2695 61.2793 -76.8555 L 68.5059 -84.1797 L 72.4121 -88.5254 L 71.9727 -80.6152 L 71.9727 -61.4258 C 71.9727 -59.6191 73.3887 -58.1543 75.0488 -58.1543 Z M 100.195 -44.4824 C 101.367 -43.3594 103.369 -43.3594 104.639 -44.6777 L 114.697 -54.7363 C 116.064 -56.0547 116.016 -57.959 114.844 -59.1309 C 113.721 -60.3027 111.816 -60.3516 110.449 -59.0332 L 100.391 -48.9746 C 99.0723 -47.6562 99.0234 -45.6543 100.195 -44.4824 Z M 49.8535 -44.4824 C 50.9766 -45.6543 50.9766 -47.6562 49.6582 -48.9746 L 39.5996 -59.0332 C 38.2324 -60.3516 36.3281 -60.3027 35.2051 -59.1309 C 33.9844 -58.0078 33.9844 -56.0547 35.3516 -54.7363 L 45.4102 -44.6777 C 46.6797 -43.3594 48.6816 -43.3105 49.8535 -44.4824 Z M 15.7227 2.7832 L 134.326 2.7832 C 136.084 2.7832 137.598 1.46484 137.598 -0.195312 C 137.598 -1.85547 136.084 -3.17383 134.326 -3.17383 L 95.5078 -3.17383 C 99.0723 -7.61719 101.221 -13.2324 101.221 -19.3359 C 101.221 -33.6914 89.3555 -45.5566 75.0488 -45.5566 C 60.6934 -45.5566 48.8281 -33.6914 48.8281 -19.3359 C 48.8281 -13.2324 50.9766 -7.61719 54.541 -3.17383 L 15.7227 -3.17383 C 13.9648 -3.17383 12.4512 -1.85547 12.4512 -0.195312 C 12.4512 1.46484 13.9648 2.7832 15.7227 2.7832 Z M 54.834 -19.3359 C 54.834 -30.4199 63.916 -39.502 75.0488 -39.502 C 86.1328 -39.502 95.2148 -30.4199 95.2148 -19.3359 C 95.2148 -12.6953 91.8945 -6.73828 86.9141 -3.17383 L 63.1348 -3.17383 C 58.1543 -6.73828 54.834 -12.6953 54.834 -19.3359 Z M 21.9238 -17.5293 L 36.1328 -17.5293 C 38.0859 -17.5293 39.4531 -18.8965 39.4531 -20.5566 C 39.4043 -22.2168 38.0371 -23.584 36.1328 -23.584 L 21.9238 -23.584 C 20.0684 -23.584 18.7012 -22.2168 18.7012 -20.5566 C 18.7012 -18.8965 20.0684 -17.5293 21.9238 -17.5293 Z M 113.916 -17.5293 L 128.125 -17.5293 C 129.98 -17.5293 131.348 -18.8965 131.348 -20.5566 C 131.348 -22.2168 129.98 -23.584 128.125 -23.584 L 113.916 -23.584 C 112.061 -23.584 110.596 -22.2168 110.596 -20.5566 C 110.645 -18.8965 112.061 -17.5293 113.916 -17.5293 Z"/>
  </g>
  <g id="Thin-M" transform="matrix(1 0 0 1 781.398 1126)">
   <path d="M 75.0488 -58.8867 C 76.0254 -58.8867 76.8555 -59.7168 76.8555 -60.7422 L 76.8555 -81.1035 L 76.5625 -89.7461 L 81.6895 -84.375 L 89.6484 -76.2695 C 90.0391 -75.8789 90.4785 -75.7324 90.918 -75.7324 C 91.8945 -75.7324 92.627 -76.416 92.627 -77.4414 C 92.627 -78.0273 92.334 -78.5156 91.8457 -79.0039 L 76.3184 -94.2383 C 75.9277 -94.6289 75.4395 -94.873 75.0488 -94.873 C 74.6094 -94.873 74.1211 -94.6289 73.7305 -94.2383 L 58.2031 -79.0039 C 57.7148 -78.5156 57.4219 -78.0273 57.4219 -77.4414 C 57.4219 -76.416 58.1543 -75.7324 59.1309 -75.7324 C 59.5703 -75.7324 60.0098 -75.8789 60.4004 -76.2695 L 68.457 -84.4727 L 73.4863 -89.7461 L 73.1934 -81.1035 L 73.1934 -60.7422 C 73.1934 -59.7168 74.0234 -58.8867 75.0488 -58.8867 Z M 100.195 -44.873 C 100.879 -44.1895 102.051 -44.1895 102.734 -44.873 L 114.844 -56.9824 C 115.625 -57.7148 115.576 -58.8379 114.844 -59.5215 C 114.258 -60.2051 113.086 -60.2539 112.354 -59.5215 L 100.195 -47.4121 C 99.5605 -46.7285 99.5117 -45.5566 100.195 -44.873 Z M 49.8535 -44.873 C 50.4883 -45.5566 50.4883 -46.7285 49.8535 -47.4121 L 37.6953 -59.5215 C 36.9629 -60.2539 35.8398 -60.1562 35.2051 -59.5215 C 34.4727 -58.8379 34.4238 -57.7148 35.2051 -56.9824 L 47.3145 -44.873 C 47.998 -44.1895 49.1699 -44.1895 49.8535 -44.873 Z M 14.4531 0.830078 L 135.596 0.830078 C 136.719 0.830078 137.598 0.0488281 137.598 -0.927734 C 137.598 -1.95312 136.719 -2.68555 135.596 -2.68555 L 93.9941 -2.68555 C 98.0957 -7.17773 100.586 -13.1348 100.586 -19.6777 C 100.586 -33.7402 89.0625 -45.2637 75.0488 -45.2637 C 60.9863 -45.2637 49.4629 -33.7402 49.4629 -19.6777 C 49.4629 -13.1348 51.9531 -7.17773 56.0547 -2.68555 L 14.4531 -2.68555 C 13.3301 -2.68555 12.4512 -1.95312 12.4512 -0.927734 C 12.4512 0.0488281 13.3301 0.830078 14.4531 0.830078 Z M 53.0273 -19.6777 C 53.0273 -31.7871 62.8906 -41.6504 75.0488 -41.6504 C 87.1582 -41.6504 97.0215 -31.7871 97.0215 -19.6777 C 97.0215 -12.793 93.7988 -6.68945 88.8184 -2.68555 L 61.2305 -2.68555 C 56.25 -6.68945 53.0273 -12.793 53.0273 -19.6777 Z M 20.5078 -19.1895 L 37.6465 -19.1895 C 38.7207 -19.1895 39.4531 -19.9707 39.4531 -20.9473 C 39.4043 -21.875 38.6719 -22.7051 37.6465 -22.7051 L 20.5078 -22.7051 C 19.5312 -22.7051 18.7012 -21.875 18.7012 -20.9473 C 18.7012 -19.9707 19.5312 -19.1895 20.5078 -19.1895 Z M 112.402 -19.1895 L 129.541 -19.1895 C 130.566 -19.1895 131.348 -19.9707 131.348 -20.9473 C 131.348 -21.875 130.566 -22.7051 129.541 -22.7051 L 112.402 -22.7051 C 111.475 -22.7051 110.596 -21.875 110.596 -20.9473 C 110.645 -19.9707 111.475 -19.1895 112.402 -19.1895 Z"/>
  </g>
  <g id="Ultralight-M" transform="matrix(1 0 0 1 484.687 1126)">
   <path d="M 75.0488 -59.2285 C 75.6836 -59.2285 76.2207 -59.7656 76.2207 -60.4004 L 76.2207 -81.3477 L 76.0254 -90.332 L 81.6406 -84.6191 L 90.0879 -75.9766 C 90.3809 -75.6836 90.6738 -75.5859 90.9668 -75.5859 C 91.6504 -75.5859 92.1875 -76.123 92.1875 -76.8555 C 92.1875 -77.3438 91.9434 -77.6855 91.5039 -78.125 L 75.9277 -93.6523 C 75.6836 -93.8965 75.3418 -94.0918 75.0488 -94.0918 C 74.707 -94.0918 74.3652 -93.8965 74.1211 -93.6523 L 58.5449 -78.125 C 58.1055 -77.6855 57.8613 -77.3438 57.8613 -76.8555 C 57.8613 -76.123 58.3984 -75.5859 59.082 -75.5859 C 59.375 -75.5859 59.668 -75.6836 59.9609 -75.9766 L 68.4082 -84.6191 L 74.0234 -90.332 L 73.8281 -81.3477 L 73.8281 -60.4004 C 73.8281 -59.7656 74.3652 -59.2285 75.0488 -59.2285 Z M 49.8535 -45.0684 C 50.2441 -45.459 50.2441 -46.2402 49.9023 -46.582 L 36.7188 -59.7656 C 36.2793 -60.2051 35.5469 -60.1074 35.2051 -59.7168 C 34.7168 -59.2773 34.668 -58.5938 35.1074 -58.1543 L 48.291 -44.9707 C 48.6328 -44.6289 49.4141 -44.6289 49.8535 -45.0684 Z M 100.195 -45.0684 C 100.635 -44.6289 101.416 -44.6289 101.758 -44.9707 L 114.941 -58.1543 C 115.381 -58.5938 115.332 -59.2773 114.844 -59.7168 C 114.502 -60.1074 113.77 -60.2051 113.33 -59.7656 L 100.146 -46.582 C 99.8047 -46.2402 99.8047 -45.459 100.195 -45.0684 Z M 13.7695 -0.195312 L 136.279 -0.195312 C 137.012 -0.195312 137.598 -0.683594 137.598 -1.31836 C 137.598 -2.00195 137.012 -2.44141 136.279 -2.44141 L 93.1641 -2.44141 C 97.5586 -6.98242 100.244 -13.1348 100.244 -19.873 C 100.244 -33.7891 88.916 -45.1172 75.0488 -45.1172 C 61.1328 -45.1172 49.8047 -33.7891 49.8047 -19.873 C 49.8047 -13.1348 52.4902 -6.98242 56.8848 -2.44141 L 13.7695 -2.44141 C 13.0371 -2.44141 12.4512 -2.00195 12.4512 -1.31836 C 12.4512 -0.683594 13.0371 -0.195312 13.7695 -0.195312 Z M 52.1484 -19.873 C 52.1484 -32.5195 62.4023 -42.7734 75.0488 -42.7734 C 87.6465 -42.7734 97.9004 -32.5195 97.9004 -19.873 C 97.9004 -12.8906 94.7754 -6.64062 89.8438 -2.44141 L 60.2051 -2.44141 C 55.2734 -6.64062 52.1484 -12.8906 52.1484 -19.873 Z M 19.7266 -20.0195 L 38.3789 -20.0195 C 39.0137 -20.0195 39.4531 -20.5566 39.4531 -21.1426 C 39.4531 -21.7285 38.9648 -22.2656 38.3789 -22.2656 L 19.7266 -22.2656 C 19.2383 -22.2656 18.7012 -21.7285 18.7012 -21.1426 C 18.7012 -20.5566 19.2383 -20.0195 19.7266 -20.0195 Z M 111.67 -20.0195 L 130.322 -20.0195 C 130.908 -20.0195 131.348 -20.5566 131.348 -21.1426 C 131.348 -21.7285 130.908 -22.2656 130.322 -22.2656 L 111.67 -22.2656 C 111.133 -22.2656 110.596 -21.7285 110.596 -21.1426 C 110.596 -20.5566 111.133 -20.0195 111.67 -20.0195 Z"/>
  </g>
  <g id="Black-S" transform="matrix(1 0 0 1 2874.61 696)">
   <path d="M 58.7891 -51.2207 C 61.4258 -51.2207 63.5742 -53.4668 63.5742 -56.1035 L 63.5254 -65.9668 L 62.5488 -73.2422 L 64.7949 -69.3848 L 67.2852 -66.2598 C 68.3105 -64.9414 69.4824 -63.916 71.3379 -63.916 C 73.9258 -63.916 75.8789 -65.9668 75.8789 -68.3594 C 75.8789 -69.9707 74.8535 -71.3867 73.584 -72.6074 L 62.5488 -83.1543 C 61.3281 -84.3262 60.2539 -84.8145 58.7891 -84.8145 C 57.3242 -84.8145 56.25 -84.3262 55.0293 -83.1543 L 43.9941 -72.6074 C 42.7246 -71.3867 41.6992 -69.9707 41.6992 -68.3594 C 41.6992 -65.9668 43.6523 -63.916 46.2402 -63.916 C 48.0957 -63.916 49.2676 -64.9414 50.293 -66.2598 L 52.7832 -69.3848 L 55.0293 -73.2422 L 54.0527 -65.9668 L 54.0039 -56.1035 C 54.0039 -53.4668 56.1523 -51.2207 58.7891 -51.2207 Z M 38.916 -42.4805 C 40.7715 -44.3359 40.7227 -47.4609 38.8672 -49.3164 L 34.4238 -53.7109 C 32.5195 -55.6152 29.4434 -55.6641 27.5879 -53.8086 C 25.7324 -51.9531 25.7324 -48.8281 27.6367 -46.9238 L 32.0801 -42.5781 C 33.9355 -40.7227 37.0605 -40.625 38.916 -42.4805 Z M 78.6621 -42.4805 C 80.5176 -40.625 83.6426 -40.7227 85.498 -42.5781 L 89.9414 -46.9238 C 91.8457 -48.8281 91.8457 -51.9531 89.9902 -53.8086 C 88.1348 -55.6641 85.0586 -55.6152 83.1543 -53.7109 L 78.7109 -49.3164 C 76.8555 -47.4609 76.8066 -44.3359 78.6621 -42.4805 Z M 15.8691 -0.488281 L 101.709 -0.488281 C 105.127 -0.488281 107.812 -3.51562 107.812 -6.83594 C 107.812 -10.3027 105.176 -13.1836 101.709 -13.1836 L 77.3926 -13.1836 C 79.1504 -16.0156 79.8828 -19.3359 79.8828 -22.6074 C 79.8828 -34.5215 70.459 -43.8965 58.7891 -43.8965 C 47.1191 -43.8965 37.6953 -34.5215 37.6953 -22.6074 C 37.6953 -19.3359 38.4277 -16.0156 40.1855 -13.1836 L 15.8691 -13.1836 C 12.4512 -13.1836 9.76562 -10.2051 9.76562 -6.83594 C 9.76562 -3.61328 12.5 -0.488281 15.8691 -0.488281 Z M 48.5352 -22.5586 C 48.5352 -28.5156 53.1738 -33.0078 58.7891 -33.0078 C 64.4043 -33.0078 69.043 -28.5156 69.043 -22.5586 C 69.043 -18.75 67.1387 -15.2344 64.6973 -13.1836 L 52.8809 -13.1836 C 50.4395 -15.2344 48.5352 -18.75 48.5352 -22.5586 Z M 19.5312 -21.7285 L 25.7812 -21.7285 C 28.4668 -21.7285 30.6641 -23.877 30.6641 -26.5137 C 30.6641 -29.1504 28.4668 -31.2988 25.7812 -31.2988 L 19.5312 -31.2988 C 16.8945 -31.2988 14.6484 -29.1504 14.6484 -26.5137 C 14.6484 -23.877 16.9434 -21.7285 19.5312 -21.7285 Z M 91.7969 -21.7285 L 98.0469 -21.7285 C 100.732 -21.7285 102.93 -23.877 102.93 -26.5137 C 102.93 -29.1504 100.732 -31.2988 98.0469 -31.2988 L 91.7969 -31.2988 C 89.1602 -31.2988 86.9141 -29.1504 86.9141 -26.5137 C 86.9141 -23.877 89.209 -21.7285 91.7969 -21.7285 Z"/>
  </g>
  <g id="Heavy-S" transform="matrix(1 0 0 1 2577.9 696)">
   <path d="M 58.7891 -51.5137 C 61.2793 -51.5137 63.2812 -53.6621 63.2812 -56.2012 L 63.2324 -66.9922 L 62.4023 -73.8281 L 64.6973 -70.2148 L 67.627 -66.748 C 68.5547 -65.625 69.6777 -64.7461 71.2891 -64.7461 C 73.6816 -64.7461 75.4395 -66.6016 75.4395 -68.7988 C 75.4395 -70.2637 74.6094 -71.4844 73.4375 -72.6074 L 62.207 -83.2031 C 61.084 -84.3262 60.1074 -84.7656 58.7891 -84.7656 C 57.4707 -84.7656 56.4941 -84.3262 55.3711 -83.2031 L 44.1406 -72.6074 C 42.9688 -71.4844 42.1387 -70.2637 42.1387 -68.7988 C 42.1387 -66.6016 43.8965 -64.7461 46.2891 -64.7461 C 47.9004 -64.7461 49.0234 -65.625 49.9512 -66.748 L 52.9785 -70.3125 L 55.1758 -73.8281 L 54.3457 -66.9922 L 54.2969 -56.2012 C 54.2969 -53.6621 56.2988 -51.5137 58.7891 -51.5137 Z M 78.6133 -42.3828 C 80.3711 -40.6738 83.3008 -40.7227 85.1074 -42.5293 L 89.8926 -47.2656 C 91.748 -49.0723 91.748 -52.002 89.9902 -53.7598 C 88.2324 -55.5176 85.3516 -55.4688 83.4961 -53.6133 L 78.7109 -48.877 C 76.9043 -47.0703 76.8555 -44.1406 78.6133 -42.3828 Z M 38.9648 -42.3828 C 40.6738 -44.1406 40.6738 -47.0703 38.8672 -48.877 L 34.082 -53.6133 C 32.2266 -55.4688 29.3457 -55.5176 27.5879 -53.7598 C 25.8301 -52.002 25.8301 -49.0723 27.6855 -47.2656 L 32.4707 -42.5293 C 34.2773 -40.7227 37.207 -40.625 38.9648 -42.3828 Z M 15.332 -1.2207 L 102.246 -1.2207 C 105.371 -1.2207 107.812 -3.90625 107.812 -6.88477 C 107.812 -10.0098 105.371 -12.5488 102.246 -12.5488 L 77.1484 -12.5488 C 79.0527 -15.5273 79.8828 -18.9941 79.8828 -22.5586 C 79.8828 -34.375 70.4102 -43.8477 58.7891 -43.8477 C 47.168 -43.8477 37.6953 -34.375 37.6953 -22.5586 C 37.6953 -18.9941 38.5254 -15.5273 40.4297 -12.5488 L 15.332 -12.5488 C 12.207 -12.5488 9.76562 -9.91211 9.76562 -6.88477 C 9.76562 -3.95508 12.2559 -1.2207 15.332 -1.2207 Z M 47.6074 -22.5098 C 47.6074 -28.9062 52.6855 -33.8379 58.7891 -33.8379 C 64.8926 -33.8379 69.9707 -28.9062 69.9707 -22.5098 C 69.9707 -18.457 67.8711 -14.7461 65.1367 -12.5488 L 52.4414 -12.5488 C 49.707 -14.7461 47.6074 -18.457 47.6074 -22.5098 Z M 19.2871 -21.2891 L 26.0742 -21.2891 C 28.6621 -21.2891 30.7129 -23.291 30.7129 -25.7812 C 30.7129 -28.2715 28.6621 -30.2734 26.0742 -30.2734 L 19.2871 -30.2734 C 16.748 -30.2734 14.6484 -28.2715 14.6484 -25.7812 C 14.6484 -23.291 16.7969 -21.2891 19.2871 -21.2891 Z M 91.5039 -21.2891 L 98.291 -21.2891 C 100.879 -21.2891 102.93 -23.291 102.93 -25.7812 C 102.93 -28.2715 100.879 -30.2734 98.291 -30.2734 L 91.5039 -30.2734 C 88.9648 -30.2734 86.8652 -28.2715 86.8652 -25.7812 C 86.8652 -23.291 89.0137 -21.2891 91.5039 -21.2891 Z"/>
  </g>
  <g id="Bold-S" transform="matrix(1 0 0 1 2281.19 696)">
   <path d="M 58.7891 -51.8555 C 61.084 -51.8555 62.9883 -53.8574 62.9883 -56.25 L 62.9395 -68.1641 L 62.207 -74.5117 L 64.5508 -71.0938 L 68.0176 -67.334 C 68.8477 -66.3574 69.8242 -65.6738 71.1914 -65.6738 C 73.3398 -65.6738 74.9512 -67.2852 74.9512 -69.3359 C 74.9512 -70.5566 74.3164 -71.6309 73.291 -72.5586 L 61.8652 -83.3008 C 60.791 -84.2773 59.9121 -84.668 58.7891 -84.668 C 57.666 -84.668 56.8359 -84.2773 55.7129 -83.3008 L 44.2871 -72.5586 C 43.2617 -71.6309 42.627 -70.5566 42.627 -69.3359 C 42.627 -67.2852 44.2383 -65.6738 46.3867 -65.6738 C 47.7539 -65.6738 48.7305 -66.3574 49.5605 -67.334 L 53.2227 -71.3379 L 55.3711 -74.5117 L 54.6387 -68.1641 L 54.5898 -56.25 C 54.5898 -53.8574 56.4941 -51.8555 58.7891 -51.8555 Z M 78.6133 -42.2852 C 80.2246 -40.7227 82.9102 -40.7715 84.668 -42.4805 L 89.8438 -47.6074 C 91.6016 -49.4141 91.6016 -52.0996 89.9902 -53.7109 C 88.3789 -55.3223 85.6934 -55.3223 83.9355 -53.5645 L 78.7598 -48.3887 C 77.002 -46.6309 76.9531 -43.8965 78.6133 -42.2852 Z M 39.0137 -42.2852 C 40.5762 -43.9453 40.5762 -46.6309 38.8184 -48.3887 L 33.6426 -53.5645 C 31.8848 -55.3223 29.1992 -55.3223 27.5879 -53.7109 C 25.9766 -52.0996 25.9766 -49.4141 27.7344 -47.6074 L 32.9102 -42.4805 C 34.668 -40.7715 37.4023 -40.6738 39.0137 -42.2852 Z M 14.6973 -2.00195 L 102.881 -2.00195 C 105.615 -2.00195 107.812 -4.3457 107.812 -6.93359 C 107.812 -9.66797 105.615 -11.8652 102.881 -11.8652 L 76.8555 -11.8652 C 78.9062 -14.9902 79.9316 -18.6523 79.9316 -22.5098 C 79.9316 -34.2773 70.4102 -43.75 58.7891 -43.75 C 47.168 -43.75 37.6465 -34.2773 37.6465 -22.5098 C 37.6465 -18.6523 38.6719 -14.9902 40.7227 -11.8652 L 14.6973 -11.8652 C 11.9629 -11.8652 9.76562 -9.61914 9.76562 -6.93359 C 9.76562 -4.39453 12.0117 -2.00195 14.6973 -2.00195 Z M 46.582 -22.4609 C 46.582 -29.3457 52.0996 -34.7656 58.7891 -34.7656 C 65.4785 -34.7656 70.9961 -29.3457 70.9961 -22.4609 C 70.9961 -18.1152 68.7012 -14.1602 65.5762 -11.8652 L 52.002 -11.8652 C 48.877 -14.1602 46.582 -18.1152 46.582 -22.4609 Z M 19.043 -20.752 L 26.3672 -20.752 C 28.8574 -20.752 30.8105 -22.6562 30.8105 -24.9512 C 30.7617 -27.2461 28.8574 -29.1016 26.3672 -29.1016 L 19.043 -29.1016 C 16.6016 -29.1016 14.6484 -27.2461 14.6484 -24.9512 C 14.6484 -22.6562 16.6016 -20.752 19.043 -20.752 Z M 91.2109 -20.752 L 98.5352 -20.752 C 101.025 -20.752 102.93 -22.6562 102.93 -24.9512 C 102.93 -27.2461 101.025 -29.1016 98.5352 -29.1016 L 91.2109 -29.1016 C 88.7695 -29.1016 86.7676 -27.2461 86.8164 -24.9512 C 86.8164 -22.6562 88.7695 -20.752 91.2109 -20.752 Z"/>
  </g>
  <g id="Semibold-S" transform="matrix(1 0 0 1 1984.48 696)">
   <path d="M 58.7891 -52.0996 C 60.9375 -52.0996 62.7441 -54.0039 62.7441 -56.2988 L 62.7441 -68.9453 L 62.0605 -75 L 64.502 -71.7285 L 68.2617 -67.7246 C 69.043 -66.8945 69.9707 -66.3086 71.1426 -66.3086 C 73.1445 -66.3086 74.6094 -67.7734 74.6094 -69.6777 C 74.6094 -70.8008 74.0723 -71.6797 73.1934 -72.5586 L 61.5723 -83.3496 C 60.5469 -84.2773 59.8145 -84.6191 58.7891 -84.6191 C 57.7637 -84.6191 57.0312 -84.2773 56.0059 -83.3496 L 44.3848 -72.5586 C 43.5059 -71.6797 42.9688 -70.8008 42.9688 -69.6777 C 42.9688 -67.7734 44.4336 -66.3086 46.4355 -66.3086 C 47.6074 -66.3086 48.5352 -66.8945 49.3164 -67.7246 L 53.418 -72.0215 L 55.5176 -75 L 54.834 -68.9453 L 54.834 -56.2988 C 54.834 -54.0039 56.6406 -52.0996 58.7891 -52.0996 Z M 78.5645 -42.2363 C 80.127 -40.7227 82.666 -40.7715 84.375 -42.4805 L 89.7949 -47.8516 C 91.5527 -49.6094 91.5039 -52.0996 89.9902 -53.6621 C 88.4766 -55.2246 85.9375 -55.2246 84.2285 -53.4668 L 78.7598 -48.0469 C 77.0508 -46.3379 77.002 -43.75 78.5645 -42.2363 Z M 39.0137 -42.2363 C 40.5273 -43.7988 40.5273 -46.3379 38.8184 -48.0469 L 33.3496 -53.4668 C 31.6406 -55.2246 29.1504 -55.1758 27.5879 -53.6621 C 26.0254 -52.1484 26.0254 -49.6094 27.7832 -47.8516 L 33.2031 -42.4805 C 34.9121 -40.7715 37.5 -40.6738 39.0137 -42.2363 Z M 14.3066 -2.58789 L 103.271 -2.58789 C 105.762 -2.58789 107.812 -4.63867 107.812 -6.98242 C 107.812 -9.42383 105.811 -11.4258 103.271 -11.4258 L 76.6602 -11.4258 C 78.8086 -14.5996 79.9316 -18.457 79.9316 -22.4609 C 79.9316 -34.1797 70.3613 -43.7012 58.7891 -43.7012 C 47.2168 -43.7012 37.6465 -34.1797 37.6465 -22.4609 C 37.6465 -18.457 38.7695 -14.5996 40.918 -11.4258 L 14.3066 -11.4258 C 11.8164 -11.4258 9.76562 -9.375 9.76562 -6.98242 C 9.76562 -4.63867 11.8164 -2.58789 14.3066 -2.58789 Z M 45.8984 -22.4609 C 45.8984 -29.6387 51.709 -35.4004 58.7891 -35.4004 C 65.8691 -35.4004 71.6797 -29.6387 71.6797 -22.4609 C 71.6797 -17.8711 69.2871 -13.7695 65.918 -11.4258 L 51.6602 -11.4258 C 48.291 -13.7695 45.8984 -17.8711 45.8984 -22.4609 Z M 18.8965 -20.4102 L 26.5625 -20.4102 C 29.0039 -20.4102 30.8594 -22.2168 30.8105 -24.3652 C 30.8105 -26.5625 29.0039 -28.3203 26.5625 -28.3203 L 18.8965 -28.3203 C 16.5039 -28.3203 14.6484 -26.5625 14.6484 -24.3652 C 14.6484 -22.2168 16.5039 -20.4102 18.8965 -20.4102 Z M 91.0156 -20.4102 L 98.6816 -20.4102 C 101.123 -20.4102 102.93 -22.2168 102.93 -24.3652 C 102.93 -26.5625 101.123 -28.3203 98.6816 -28.3203 L 91.0156 -28.3203 C 88.623 -28.3203 86.7188 -26.5625 86.7676 -24.3652 C 86.7676 -22.2168 88.623 -20.4102 91.0156 -20.4102 Z"/>
  </g>
  <g id="Medium-S" transform="matrix(1 0 0 1 1687.77 696)">
   <path d="M 58.7891 -52.2949 C 60.8398 -52.2949 62.5977 -54.1016 62.5977 -56.3477 L 62.5488 -69.5312 L 61.9629 -75.3418 L 64.4043 -72.2168 L 68.5059 -68.0176 C 69.1895 -67.2852 70.0684 -66.7969 71.0938 -66.7969 C 72.998 -66.7969 74.3652 -68.1152 74.3652 -69.9219 C 74.3652 -70.9473 73.9258 -71.7773 73.1445 -72.5098 L 61.377 -83.3496 C 60.4004 -84.2773 59.7168 -84.5703 58.7891 -84.5703 C 57.8613 -84.5703 57.1777 -84.2773 56.2012 -83.3496 L 44.4336 -72.5098 C 43.6523 -71.7773 43.2129 -70.9473 43.2129 -69.9219 C 43.2129 -68.1152 44.5801 -66.7969 46.4844 -66.7969 C 47.5098 -66.7969 48.3887 -67.2852 49.0723 -68.0176 L 53.5156 -72.5586 L 55.6152 -75.3418 L 55.0293 -69.5312 L 54.9805 -56.3477 C 54.9805 -54.1016 56.7383 -52.2949 58.7891 -52.2949 Z M 78.5645 -42.1875 C 80.0293 -40.7715 82.4707 -40.7715 84.1309 -42.4316 L 89.7949 -48.0469 C 91.5039 -49.7559 91.4551 -52.1484 89.9902 -53.6621 C 88.5254 -55.127 86.084 -55.127 84.4238 -53.418 L 78.7598 -47.8027 C 77.0996 -46.1426 77.0508 -43.6523 78.5645 -42.1875 Z M 39.0137 -42.1875 C 40.4785 -43.7012 40.4785 -46.1426 38.8184 -47.8027 L 33.1543 -53.418 C 31.4941 -55.127 29.0527 -55.0781 27.5879 -53.6621 C 26.123 -52.1973 26.0742 -49.7559 27.7832 -48.0469 L 33.4473 -42.4316 C 35.1074 -40.7715 37.5977 -40.7227 39.0137 -42.1875 Z M 13.9648 -2.97852 L 103.613 -2.97852 C 105.908 -2.97852 107.812 -4.83398 107.812 -7.03125 C 107.812 -9.22852 105.908 -11.0352 103.613 -11.0352 L 76.4648 -11.0352 C 78.7109 -14.3555 79.9316 -18.2617 79.9316 -22.4609 C 79.9316 -34.082 70.3613 -43.6523 58.7891 -43.6523 C 47.2168 -43.6523 37.6465 -34.082 37.6465 -22.4609 C 37.6465 -18.2617 38.8672 -14.3555 41.1133 -11.0352 L 13.9648 -11.0352 C 11.6699 -11.0352 9.76562 -9.22852 9.76562 -7.03125 C 9.76562 -4.88281 11.6699 -2.97852 13.9648 -2.97852 Z M 45.3613 -22.4121 C 45.3613 -29.834 51.416 -35.8887 58.7891 -35.8887 C 66.1621 -35.8887 72.2168 -29.834 72.2168 -22.4121 C 72.2168 -17.6758 69.7266 -13.4766 66.1133 -11.0352 L 51.4648 -11.0352 C 47.8516 -13.4766 45.3613 -17.6758 45.3613 -22.4121 Z M 18.75 -20.166 L 26.709 -20.166 C 29.1016 -20.166 30.9082 -21.875 30.8594 -23.9258 C 30.8105 -26.0254 29.1016 -27.7344 26.709 -27.7344 L 18.75 -27.7344 C 16.4062 -27.7344 14.6484 -26.0254 14.6484 -23.9258 C 14.6484 -21.875 16.4062 -20.166 18.75 -20.166 Z M 90.8691 -20.166 L 98.8281 -20.166 C 101.172 -20.166 102.93 -21.875 102.93 -23.9258 C 102.93 -26.0254 101.172 -27.7344 98.8281 -27.7344 L 90.8691 -27.7344 C 88.5254 -27.7344 86.6699 -26.0254 86.7188 -23.9258 C 86.7676 -21.875 88.5254 -20.166 90.8691 -20.166 Z"/>
  </g>
  <g id="Regular-S" transform="matrix(1 0 0 1 1391.06 696)">
   <path d="M 58.7891 -52.5391 C 60.6934 -52.5391 62.3535 -54.248 62.3535 -56.3965 L 62.3535 -70.3125 L 61.8164 -75.8301 L 64.3555 -72.8027 L 68.75 -68.4082 C 69.3848 -67.7734 70.2148 -67.3828 71.0449 -67.3828 C 72.8027 -67.3828 74.0234 -68.6035 74.0234 -70.2637 C 74.0234 -71.1914 73.7305 -71.8262 73.0469 -72.5098 L 61.1328 -83.3984 C 60.2051 -84.2773 59.5703 -84.5215 58.7891 -84.5215 C 58.0078 -84.5215 57.373 -84.2773 56.4453 -83.3984 L 44.5312 -72.5098 C 43.8477 -71.8262 43.5547 -71.1914 43.5547 -70.2637 C 43.5547 -68.6035 44.7754 -67.3828 46.5332 -67.3828 C 47.3633 -67.3828 48.1934 -67.7734 48.8281 -68.4082 L 53.7109 -73.291 L 55.7617 -75.8301 L 55.2246 -70.3125 L 55.2246 -56.3965 C 55.2246 -54.248 56.8848 -52.5391 58.7891 -52.5391 Z M 78.5156 -42.1387 C 79.9316 -40.7715 82.2266 -40.7715 83.8379 -42.4316 L 89.7461 -48.291 C 91.4062 -49.9512 91.3574 -52.1973 89.9902 -53.6133 C 88.623 -55.0293 86.3281 -55.0293 84.7168 -53.3691 L 78.8086 -47.4609 C 77.1484 -45.8496 77.0996 -43.5059 78.5156 -42.1387 Z M 39.0625 -42.1387 C 40.4297 -43.5547 40.4297 -45.8496 38.7695 -47.4609 L 32.8613 -53.3691 C 31.25 -55.0293 29.0039 -54.9805 27.5879 -53.6133 C 26.1719 -52.2461 26.1719 -49.9512 27.832 -48.291 L 33.7402 -42.4316 C 35.3516 -40.7715 37.6953 -40.7227 39.0625 -42.1387 Z M 13.5742 -3.56445 L 104.004 -3.56445 C 106.055 -3.56445 107.812 -5.12695 107.812 -7.08008 C 107.812 -8.98438 106.055 -10.5957 104.004 -10.5957 L 76.2695 -10.5957 C 78.6133 -13.9648 79.9316 -18.0176 79.9316 -22.4121 C 79.9316 -33.9844 70.3125 -43.6035 58.7891 -43.6035 C 47.2656 -43.6035 37.6465 -33.9844 37.6465 -22.4121 C 37.6465 -18.0176 38.9648 -13.9648 41.3086 -10.5957 L 13.5742 -10.5957 C 11.5234 -10.5957 9.76562 -8.98438 9.76562 -7.08008 C 9.76562 -5.12695 11.5234 -3.56445 13.5742 -3.56445 Z M 44.6777 -22.4121 C 44.6777 -30.127 51.0742 -36.5234 58.7891 -36.5234 C 66.5039 -36.5234 72.9004 -30.127 72.9004 -22.4121 C 72.9004 -17.4805 70.3125 -13.0859 66.4062 -10.5957 L 51.1719 -10.5957 C 47.2656 -13.0859 44.6777 -17.4805 44.6777 -22.4121 Z M 18.6035 -19.8242 L 26.9531 -19.8242 C 29.248 -19.8242 30.957 -21.4355 30.9082 -23.3887 C 30.8594 -25.3418 29.1992 -26.9531 26.9531 -26.9531 L 18.6035 -26.9531 C 16.3086 -26.9531 14.6484 -25.3418 14.6484 -23.3887 C 14.6484 -21.4355 16.3086 -19.8242 18.6035 -19.8242 Z M 90.625 -19.8242 L 98.9746 -19.8242 C 101.27 -19.8242 102.93 -21.4355 102.93 -23.3887 C 102.93 -25.3418 101.27 -26.9531 98.9746 -26.9531 L 90.625 -26.9531 C 88.3789 -26.9531 86.6211 -25.3418 86.6699 -23.3887 C 86.7188 -21.4355 88.3789 -19.8242 90.625 -19.8242 Z"/>
  </g>
  <g id="Light-S" transform="matrix(1 0 0 1 1094.34 696)">
   <path d="M 58.7891 -52.9785 C 60.2539 -52.9785 61.5234 -54.2969 61.5234 -55.957 L 61.5234 -70.6543 L 61.1328 -76.6113 L 64.209 -73.1445 L 69.3359 -68.0176 C 69.8242 -67.5293 70.459 -67.2363 71.1426 -67.2363 C 72.5098 -67.2363 73.4863 -68.1641 73.4863 -69.5312 C 73.4863 -70.2637 73.1934 -70.8008 72.6074 -71.3379 L 60.6445 -82.666 C 59.9121 -83.3008 59.4238 -83.5449 58.7891 -83.5449 C 58.1543 -83.5449 57.666 -83.3008 56.9336 -82.666 L 44.9707 -71.3379 C 44.3848 -70.8008 44.0918 -70.2637 44.0918 -69.5312 C 44.0918 -68.1641 45.0684 -67.2363 46.4355 -67.2363 C 47.1191 -67.2363 47.7539 -67.5293 48.2422 -68.0176 L 53.6621 -73.4863 L 56.4453 -76.6113 L 56.0547 -70.6543 L 56.0547 -55.957 C 56.0547 -54.2969 57.3242 -52.9785 58.7891 -52.9785 Z M 78.5156 -42.3828 C 79.5898 -41.3574 81.3477 -41.3574 82.5684 -42.5781 L 89.8438 -49.8535 C 91.1133 -51.0742 91.0645 -52.7832 89.9902 -53.8574 C 88.9648 -54.9316 87.207 -54.9316 85.9863 -53.7109 L 78.7109 -46.4355 C 77.4902 -45.2148 77.4414 -43.4082 78.5156 -42.3828 Z M 39.0625 -42.3828 C 40.0879 -43.457 40.0879 -45.2148 38.8672 -46.4355 L 31.5918 -53.7109 C 30.3711 -54.9316 28.6621 -54.8828 27.5879 -53.8574 C 26.5137 -52.832 26.4648 -51.0742 27.7344 -49.8535 L 35.0098 -42.5781 C 36.2305 -41.3574 38.0371 -41.3086 39.0625 -42.3828 Z M 12.6953 -4.88281 L 104.883 -4.88281 C 106.494 -4.88281 107.812 -6.10352 107.812 -7.56836 C 107.812 -9.0332 106.494 -10.2539 104.883 -10.2539 L 75.293 -10.2539 C 77.9297 -13.7207 79.4922 -18.0176 79.4922 -22.6562 C 79.4922 -34.0332 70.1172 -43.4082 58.7891 -43.4082 C 47.4609 -43.4082 38.0859 -34.0332 38.0859 -22.6562 C 38.0859 -18.0176 39.6484 -13.7207 42.2852 -10.2539 L 12.6953 -10.2539 C 11.084 -10.2539 9.76562 -9.0332 9.76562 -7.56836 C 9.76562 -6.10352 11.084 -4.88281 12.6953 -4.88281 Z M 43.457 -22.6562 C 43.457 -31.0547 50.3906 -37.9883 58.7891 -37.9883 C 67.1875 -37.9883 74.1211 -31.0547 74.1211 -22.6562 C 74.1211 -17.5293 71.4844 -12.9395 67.5781 -10.2539 L 50 -10.2539 C 46.0938 -12.9395 43.457 -17.5293 43.457 -22.6562 Z M 17.627 -20.8984 L 27.9297 -20.8984 C 29.6387 -20.8984 30.957 -22.1191 30.9082 -23.6328 C 30.8594 -25.1465 29.6387 -26.3672 27.9297 -26.3672 L 17.627 -26.3672 C 15.918 -26.3672 14.6484 -25.1465 14.6484 -23.6328 C 14.6484 -22.1191 15.918 -20.8984 17.627 -20.8984 Z M 89.6484 -20.8984 L 99.9512 -20.8984 C 101.709 -20.8984 102.93 -22.1191 102.93 -23.6328 C 102.93 -25.1465 101.709 -26.3672 99.9512 -26.3672 L 89.6484 -26.3672 C 87.9395 -26.3672 86.6211 -25.1465 86.6699 -23.6328 C 86.7188 -22.1191 87.9395 -20.8984 89.6484 -20.8984 Z"/>
  </g>
  <g id="Thin-S" transform="matrix(1 0 0 1 797.633 696)">
   <path d="M 58.7891 -53.6133 C 59.7168 -53.6133 60.4492 -54.3945 60.4492 -55.3711 L 60.4492 -71.0449 L 60.2051 -77.6855 L 64.0625 -73.6328 L 70.0684 -67.5293 C 70.4102 -67.1875 70.8008 -66.9922 71.2402 -66.9922 C 72.0703 -66.9922 72.7539 -67.627 72.7539 -68.5059 C 72.7539 -69.043 72.5098 -69.4336 72.0703 -69.873 L 59.9609 -81.6895 C 59.5703 -82.0312 59.1797 -82.2266 58.7891 -82.2266 C 58.3984 -82.2266 58.0078 -82.0312 57.6172 -81.6895 L 45.5078 -69.873 C 45.0684 -69.4336 44.8242 -69.043 44.8242 -68.5059 C 44.8242 -67.627 45.5078 -66.9922 46.3379 -66.9922 C 46.7773 -66.9922 47.168 -67.1875 47.5098 -67.5293 L 53.6621 -73.7305 L 57.373 -77.6855 L 57.1289 -71.0449 L 57.1289 -55.3711 C 57.1289 -54.3945 57.8613 -53.6133 58.7891 -53.6133 Z M 78.5156 -42.7246 C 79.1504 -42.0898 80.2246 -42.0898 80.8594 -42.7246 L 89.9414 -51.8555 C 90.6738 -52.5391 90.625 -53.5645 89.9902 -54.1992 C 89.4043 -54.834 88.3789 -54.834 87.6465 -54.1504 L 78.5645 -45.0684 C 77.8809 -44.4336 77.8809 -43.3105 78.5156 -42.7246 Z M 39.0625 -42.7246 C 39.6973 -43.3594 39.6973 -44.4336 39.0137 -45.0684 L 29.9316 -54.1504 C 29.1992 -54.834 28.1738 -54.7852 27.5879 -54.1992 C 26.9043 -53.5645 26.9043 -52.5391 27.6367 -51.8555 L 36.7188 -42.7246 C 37.3535 -42.0898 38.4277 -42.0898 39.0625 -42.7246 Z M 11.5723 -6.5918 L 106.006 -6.5918 C 106.982 -6.5918 107.812 -7.32422 107.812 -8.20312 C 107.812 -9.13086 106.982 -9.86328 106.006 -9.86328 L 73.9258 -9.86328 C 77.0508 -13.3301 78.9551 -17.9688 78.9551 -22.998 C 78.9551 -34.0332 69.873 -43.1641 58.7891 -43.1641 C 47.7051 -43.1641 38.623 -34.0332 38.623 -22.998 C 38.623 -17.9688 40.5273 -13.3301 43.6523 -9.86328 L 11.5723 -9.86328 C 10.5957 -9.86328 9.76562 -9.13086 9.76562 -8.20312 C 9.76562 -7.32422 10.5957 -6.5918 11.5723 -6.5918 Z M 41.8945 -22.998 C 41.8945 -32.2754 49.5117 -39.8438 58.7891 -39.8438 C 68.0664 -39.8438 75.6836 -32.2754 75.6836 -22.998 C 75.6836 -17.627 73.1445 -12.8418 69.2383 -9.86328 L 48.3398 -9.86328 C 44.4336 -12.8418 41.8945 -17.627 41.8945 -22.998 Z M 16.3574 -22.3145 L 29.1992 -22.3145 C 30.2246 -22.3145 30.9082 -23.0957 30.9082 -23.9746 C 30.9082 -24.8535 30.1758 -25.5859 29.1992 -25.5859 L 16.3574 -25.5859 C 15.4297 -25.5859 14.6484 -24.8535 14.6484 -23.9746 C 14.6484 -23.0957 15.4297 -22.3145 16.3574 -22.3145 Z M 88.3789 -22.3145 L 101.221 -22.3145 C 102.197 -22.3145 102.93 -23.0957 102.93 -23.9746 C 102.93 -24.8535 102.197 -25.5859 101.221 -25.5859 L 88.3789 -25.5859 C 87.4512 -25.5859 86.6699 -24.8535 86.6699 -23.9746 C 86.6699 -23.0957 87.4512 -22.3145 88.3789 -22.3145 Z"/>
  </g>
  <g id="Ultralight-S" transform="matrix(1 0 0 1 500.922 696)">
   <path d="M 58.7891 -53.9551 C 59.375 -53.9551 59.9121 -54.4434 59.9121 -55.0293 L 59.9121 -71.2891 L 59.7168 -78.2227 L 63.9648 -73.877 L 70.459 -67.2363 C 70.752 -66.9922 70.9961 -66.8945 71.2891 -66.8945 C 71.875 -66.8945 72.3633 -67.334 72.3633 -67.9688 C 72.3633 -68.4082 72.168 -68.7012 71.7773 -69.0918 L 59.6191 -81.1523 C 59.375 -81.3965 59.082 -81.543 58.7891 -81.543 C 58.4961 -81.543 58.2031 -81.3965 57.959 -81.1523 L 45.8008 -69.0918 C 45.4102 -68.7012 45.2148 -68.4082 45.2148 -67.9688 C 45.2148 -67.334 45.7031 -66.8945 46.2891 -66.8945 C 46.582 -66.8945 46.8262 -66.9922 47.1191 -67.2363 L 53.6133 -73.877 L 57.8613 -78.2227 L 57.666 -71.2891 L 57.666 -55.0293 C 57.666 -54.4434 58.2031 -53.9551 58.7891 -53.9551 Z M 39.0625 -42.8711 C 39.4531 -43.2617 39.4531 -43.9941 39.1113 -44.3359 L 29.0527 -54.3945 C 28.6133 -54.7852 27.9297 -54.7363 27.5879 -54.3457 C 27.1484 -53.9551 27.0996 -53.2715 27.5391 -52.8809 L 37.5977 -42.8711 C 37.9395 -42.4805 38.6719 -42.4805 39.0625 -42.8711 Z M 78.5156 -42.8711 C 78.9062 -42.4805 79.6387 -42.4805 79.9805 -42.8711 L 90.0391 -52.8809 C 90.4785 -53.2715 90.4297 -53.9551 89.9902 -54.3457 C 89.6484 -54.7363 88.9648 -54.7852 88.5254 -54.3945 L 78.4668 -44.3359 C 78.125 -43.9941 78.125 -43.2617 78.5156 -42.8711 Z M 10.9863 -7.51953 L 106.592 -7.51953 C 107.275 -7.51953 107.812 -7.95898 107.812 -8.54492 C 107.812 -9.17969 107.275 -9.61914 106.592 -9.61914 L 73.2422 -9.61914 C 76.5625 -13.1348 78.6133 -17.9199 78.6133 -23.1445 C 78.6133 -34.082 69.7266 -43.0176 58.7891 -43.0176 C 47.8516 -43.0176 38.9648 -34.082 38.9648 -23.1445 C 38.9648 -17.9199 41.0156 -13.1348 44.3359 -9.61914 L 10.9863 -9.61914 C 10.3027 -9.61914 9.76562 -9.17969 9.76562 -8.54492 C 9.76562 -7.95898 10.3027 -7.51953 10.9863 -7.51953 Z M 41.1133 -23.1445 C 41.1133 -32.9102 49.0234 -40.8203 58.7891 -40.8203 C 68.5547 -40.8203 76.4648 -32.9102 76.4648 -23.1445 C 76.4648 -17.7246 73.9746 -12.8418 70.1172 -9.61914 L 47.4609 -9.61914 C 43.6035 -12.8418 41.1133 -17.7246 41.1133 -23.1445 Z M 15.6738 -23.0957 L 29.8828 -23.0957 C 30.5176 -23.0957 30.9082 -23.584 30.9082 -24.1211 C 30.9082 -24.707 30.4688 -25.1953 29.8828 -25.1953 L 15.6738 -25.1953 C 15.1367 -25.1953 14.6484 -24.707 14.6484 -24.1211 C 14.6484 -23.584 15.1367 -23.0957 15.6738 -23.0957 Z M 87.6953 -23.0957 L 101.904 -23.0957 C 102.49 -23.0957 102.93 -23.584 102.93 -24.1211 C 102.93 -24.707 102.49 -25.1953 101.904 -25.1953 L 87.6953 -25.1953 C 87.1582 -25.1953 86.6699 -24.707 86.6699 -24.1211 C 86.6699 -23.584 87.1582 -23.0957 87.6953 -23.0957 Z"/>
  </g>
 </g>
</svg>
