<?xml version="1.0" encoding="UTF-8"?>
<!--Generator: Apple Native CoreSVG 123-->
<!DOCTYPE svg
PUBLIC "-//W3C//DTD SVG 1.1//EN"
       "http://www.w3.org/Graphics/SVG/1.1/DTD/svg11.dtd">
<svg version="1.1" xmlns="http://www.w3.org/2000/svg" xmlns:xlink="http://www.w3.org/1999/xlink" width="3300" height="2200">
 <!--glyph: "uni1001EA.medium", point size: 100.000000, font version: "Version 15.0d7e11", template writer version: "5"-->
 <g id="Notes">
  <rect height="2200" id="artboard" style="fill:white;opacity:1" width="3300" x="0" y="0"/>
  <line id="" style="fill:none;stroke:black;opacity:1;stroke-width:0.5;" x1="263" x2="3036" y1="292" y2="292"/>
  <text style="stroke:none;fill:black;font-family:-apple-system,&quot;SF Pro Display&quot;,&quot;SF Pro Text&quot;,Helvetica,sans-serif;font-weight:bold;" transform="matrix(1 0 0 1 263 322)">Weight/Scale Variations</text>
  <text style="stroke:none;fill:black;font-family:-apple-system,&quot;SF Pro Display&quot;,&quot;SF Pro Text&quot;,Helvetica,sans-serif;text-anchor:middle;" transform="matrix(1 0 0 1 559.711 322)">Ultralight</text>
  <text style="stroke:none;fill:black;font-family:-apple-system,&quot;SF Pro Display&quot;,&quot;SF Pro Text&quot;,Helvetica,sans-serif;text-anchor:middle;" transform="matrix(1 0 0 1 856.422 322)">Thin</text>
  <text style="stroke:none;fill:black;font-family:-apple-system,&quot;SF Pro Display&quot;,&quot;SF Pro Text&quot;,Helvetica,sans-serif;text-anchor:middle;" transform="matrix(1 0 0 1 1153.13 322)">Light</text>
  <text style="stroke:none;fill:black;font-family:-apple-system,&quot;SF Pro Display&quot;,&quot;SF Pro Text&quot;,Helvetica,sans-serif;text-anchor:middle;" transform="matrix(1 0 0 1 1449.84 322)">Regular</text>
  <text style="stroke:none;fill:black;font-family:-apple-system,&quot;SF Pro Display&quot;,&quot;SF Pro Text&quot;,Helvetica,sans-serif;text-anchor:middle;" transform="matrix(1 0 0 1 1746.56 322)">Medium</text>
  <text style="stroke:none;fill:black;font-family:-apple-system,&quot;SF Pro Display&quot;,&quot;SF Pro Text&quot;,Helvetica,sans-serif;text-anchor:middle;" transform="matrix(1 0 0 1 2043.27 322)">Semibold</text>
  <text style="stroke:none;fill:black;font-family:-apple-system,&quot;SF Pro Display&quot;,&quot;SF Pro Text&quot;,Helvetica,sans-serif;text-anchor:middle;" transform="matrix(1 0 0 1 2339.98 322)">Bold</text>
  <text style="stroke:none;fill:black;font-family:-apple-system,&quot;SF Pro Display&quot;,&quot;SF Pro Text&quot;,Helvetica,sans-serif;text-anchor:middle;" transform="matrix(1 0 0 1 2636.69 322)">Heavy</text>
  <text style="stroke:none;fill:black;font-family:-apple-system,&quot;SF Pro Display&quot;,&quot;SF Pro Text&quot;,Helvetica,sans-serif;text-anchor:middle;" transform="matrix(1 0 0 1 2933.4 322)">Black</text>
  <line id="" style="fill:none;stroke:black;opacity:1;stroke-width:0.5;" x1="263" x2="3036" y1="1903" y2="1903"/>
  <g id="" transform="matrix(1 0 0 1 263 1933)">
   <path d="M 9.24805 0.830078 C 13.5547 0.830078 17.1387 -2.74414 17.1387 -7.05078 C 17.1387 -11.3574 13.5449 -14.9316 9.23828 -14.9316 C 4.94141 -14.9316 1.36719 -11.3574 1.36719 -7.05078 C 1.36719 -2.74414 4.95117 0.830078 9.24805 0.830078 Z M 9.24805 -0.654297 C 5.70312 -0.654297 2.87109 -3.49609 2.87109 -7.05078 C 2.87109 -10.6055 5.69336 -13.4473 9.23828 -13.4473 C 12.793 -13.4473 15.6348 -10.6055 15.6445 -7.05078 C 15.6543 -3.49609 12.8027 -0.654297 9.24805 -0.654297 Z M 9.22852 -3.42773 C 9.69727 -3.42773 9.9707 -3.74023 9.9707 -4.25781 L 9.9707 -6.31836 L 12.1973 -6.31836 C 12.6953 -6.31836 13.0371 -6.57227 13.0371 -7.04102 C 13.0371 -7.51953 12.7148 -7.7832 12.1973 -7.7832 L 9.9707 -7.7832 L 9.9707 -10.0098 C 9.9707 -10.5273 9.69727 -10.8496 9.22852 -10.8496 C 8.75977 -10.8496 8.50586 -10.5078 8.50586 -10.0098 L 8.50586 -7.7832 L 6.29883 -7.7832 C 5.78125 -7.7832 5.44922 -7.51953 5.44922 -7.04102 C 5.44922 -6.57227 5.80078 -6.31836 6.29883 -6.31836 L 8.50586 -6.31836 L 8.50586 -4.25781 C 8.50586 -3.75977 8.75977 -3.42773 9.22852 -3.42773 Z"/>
  </g>
  <g id="" transform="matrix(1 0 0 1 281.506 1933)">
   <path d="M 11.709 2.91016 C 17.1582 2.91016 21.6699 -1.60156 21.6699 -7.05078 C 21.6699 -12.4902 17.1484 -17.0117 11.6992 -17.0117 C 6.25977 -17.0117 1.74805 -12.4902 1.74805 -7.05078 C 1.74805 -1.60156 6.26953 2.91016 11.709 2.91016 Z M 11.709 1.25 C 7.09961 1.25 3.41797 -2.44141 3.41797 -7.05078 C 3.41797 -11.6504 7.08984 -15.3516 11.6992 -15.3516 C 16.3086 -15.3516 20 -11.6504 20.0098 -7.05078 C 20.0195 -2.44141 16.3184 1.25 11.709 1.25 Z M 11.6895 -2.41211 C 12.207 -2.41211 12.5195 -2.77344 12.5195 -3.33984 L 12.5195 -6.23047 L 15.5762 -6.23047 C 16.123 -6.23047 16.5039 -6.51367 16.5039 -7.03125 C 16.5039 -7.55859 16.1426 -7.86133 15.5762 -7.86133 L 12.5195 -7.86133 L 12.5195 -10.9277 C 12.5195 -11.5039 12.207 -11.8555 11.6895 -11.8555 C 11.1719 -11.8555 10.8789 -11.4844 10.8789 -10.9277 L 10.8789 -7.86133 L 7.83203 -7.86133 C 7.26562 -7.86133 6.89453 -7.55859 6.89453 -7.03125 C 6.89453 -6.51367 7.28516 -6.23047 7.83203 -6.23047 L 10.8789 -6.23047 L 10.8789 -3.33984 C 10.8789 -2.79297 11.1719 -2.41211 11.6895 -2.41211 Z"/>
  </g>
  <g id="" transform="matrix(1 0 0 1 304.924 1933)">
   <path d="M 14.9707 5.67383 C 21.9336 5.67383 27.6953 -0.078125 27.6953 -7.04102 C 27.6953 -14.0039 21.9238 -19.7559 14.9609 -19.7559 C 8.00781 -19.7559 2.25586 -14.0039 2.25586 -7.04102 C 2.25586 -0.078125 8.01758 5.67383 14.9707 5.67383 Z M 14.9707 3.85742 C 8.93555 3.85742 4.08203 -1.00586 4.08203 -7.04102 C 4.08203 -13.0762 8.92578 -17.9395 14.9609 -17.9395 C 21.0059 -17.9395 25.8594 -13.0762 25.8691 -7.04102 C 25.8789 -1.00586 21.0156 3.85742 14.9707 3.85742 Z M 14.9512 -1.06445 C 15.5176 -1.06445 15.8691 -1.45508 15.8691 -2.06055 L 15.8691 -6.13281 L 20.1074 -6.13281 C 20.6934 -6.13281 21.1133 -6.46484 21.1133 -7.02148 C 21.1133 -7.59766 20.7227 -7.93945 20.1074 -7.93945 L 15.8691 -7.93945 L 15.8691 -12.1875 C 15.8691 -12.8027 15.5176 -13.1934 14.9512 -13.1934 C 14.3848 -13.1934 14.0625 -12.7832 14.0625 -12.1875 L 14.0625 -7.93945 L 9.83398 -7.93945 C 9.21875 -7.93945 8.80859 -7.59766 8.80859 -7.02148 C 8.80859 -6.46484 9.23828 -6.13281 9.83398 -6.13281 L 14.0625 -6.13281 L 14.0625 -2.06055 C 14.0625 -1.47461 14.3848 -1.06445 14.9512 -1.06445 Z"/>
  </g>
  <text style="stroke:none;fill:black;font-family:-apple-system,&quot;SF Pro Display&quot;,&quot;SF Pro Text&quot;,Helvetica,sans-serif;font-weight:bold;" transform="matrix(1 0 0 1 263 1953)">Design Variations</text>
  <text style="stroke:none;fill:black;font-family:-apple-system,&quot;SF Pro Display&quot;,&quot;SF Pro Text&quot;,Helvetica,sans-serif;" transform="matrix(1 0 0 1 263 1971)">Symbols are supported in up to nine weights and three scales.</text>
  <text style="stroke:none;fill:black;font-family:-apple-system,&quot;SF Pro Display&quot;,&quot;SF Pro Text&quot;,Helvetica,sans-serif;" transform="matrix(1 0 0 1 263 1989)">For optimal layout with text and other symbols, vertically align</text>
  <text style="stroke:none;fill:black;font-family:-apple-system,&quot;SF Pro Display&quot;,&quot;SF Pro Text&quot;,Helvetica,sans-serif;" transform="matrix(1 0 0 1 263 2007)">symbols with the adjacent text.</text>
  <rect height="14" id="" style="fill:#00AEEF;stroke:none;opacity:0.4;" width="3" x="776" y="1919"/>
  <g id="" transform="matrix(1 0 0 1 779 1933)">
   <path d="M 10.5273 0 L 12.373 0 L 7.17773 -14.0918 L 5.43945 -14.0918 L 0.244141 0 L 2.08984 0 L 3.50586 -4.0332 L 9.11133 -4.0332 Z M 6.2793 -11.9531 L 6.33789 -11.9531 L 8.59375 -5.52734 L 4.02344 -5.52734 Z"/>
  </g>
  <rect height="14" id="" style="fill:#00AEEF;stroke:none;opacity:0.4;" width="3" x="791.617" y="1919"/>
  <text style="stroke:none;fill:black;font-family:-apple-system,&quot;SF Pro Display&quot;,&quot;SF Pro Text&quot;,Helvetica,sans-serif;font-weight:bold;" transform="matrix(1 0 0 1 776 1953)">Margins</text>
  <text style="stroke:none;fill:black;font-family:-apple-system,&quot;SF Pro Display&quot;,&quot;SF Pro Text&quot;,Helvetica,sans-serif;" transform="matrix(1 0 0 1 776 1971)">Leading and trailing margins on the left and right side of each symbol</text>
  <text style="stroke:none;fill:black;font-family:-apple-system,&quot;SF Pro Display&quot;,&quot;SF Pro Text&quot;,Helvetica,sans-serif;" transform="matrix(1 0 0 1 776 1989)">can be adjusted by modifying the width of the blue rectangles.</text>
  <text style="stroke:none;fill:black;font-family:-apple-system,&quot;SF Pro Display&quot;,&quot;SF Pro Text&quot;,Helvetica,sans-serif;" transform="matrix(1 0 0 1 776 2007)">Modifications are automatically applied proportionally to all</text>
  <text style="stroke:none;fill:black;font-family:-apple-system,&quot;SF Pro Display&quot;,&quot;SF Pro Text&quot;,Helvetica,sans-serif;" transform="matrix(1 0 0 1 776 2025)">scales and weights.</text>
  <g id="" transform="matrix(1 0 0 1 1289 1933)">
   <path d="M 2.83203 3.11523 L 4.375 4.6582 C 5.22461 5.48828 6.19141 5.41992 7.06055 4.46289 L 17.2754 -6.66016 C 17.7051 -6.36719 18.0957 -6.37695 18.5645 -6.47461 L 19.6094 -6.68945 L 20.3027 -5.99609 L 20.2539 -5.47852 C 20.1855 -4.95117 20.3516 -4.53125 20.8496 -4.0332 L 21.6602 -3.22266 C 22.168 -2.71484 22.8223 -2.68555 23.3008 -3.16406 L 26.5527 -6.41602 C 27.0312 -6.89453 27.0117 -7.54883 26.5039 -8.05664 L 25.6836 -8.87695 C 25.1855 -9.375 24.7754 -9.55078 24.2383 -9.47266 L 23.7109 -9.41406 L 23.0566 -10.0781 L 23.3398 -11.2207 C 23.4863 -11.7871 23.3398 -12.2559 22.7148 -12.8613 L 20.3027 -15.2539 C 16.7578 -18.7793 12.2266 -18.6719 9.11133 -15.5371 C 8.69141 -15.1074 8.64258 -14.5215 8.91602 -14.0918 C 9.15039 -13.7207 9.62891 -13.4961 10.2734 -13.6621 C 11.7871 -14.043 13.3008 -13.9258 14.7852 -12.9199 L 14.1602 -11.3379 C 13.9258 -10.752 13.9453 -10.2734 14.1797 -9.83398 L 3.01758 0.439453 C 2.08008 1.30859 1.97266 2.25586 2.83203 3.11523 Z M 10.6738 -15.1465 C 13.3398 -17.1387 16.6504 -16.8262 19.0527 -14.4141 L 21.6797 -11.8066 C 21.9141 -11.5723 21.9434 -11.3867 21.8848 -11.0938 L 21.5039 -9.53125 L 23.0762 -7.95898 L 24.043 -8.04688 C 24.3262 -8.07617 24.4141 -8.05664 24.6387 -7.83203 L 25.2637 -7.20703 L 22.5098 -4.46289 L 21.8848 -5.07812 C 21.6602 -5.30273 21.6406 -5.40039 21.6699 -5.68359 L 21.7578 -6.64062 L 20.1953 -8.20312 L 18.5742 -7.89062 C 18.291 -7.83203 18.1445 -7.83203 17.9102 -8.07617 L 15.7324 -10.2539 C 15.5078 -10.4883 15.4785 -10.625 15.6055 -10.9473 L 16.5527 -13.2227 C 14.9512 -14.7559 12.8418 -15.6055 10.8008 -14.9512 C 10.7129 -14.9219 10.6445 -14.9414 10.6152 -14.9805 C 10.5859 -15.0293 10.5859 -15.0781 10.6738 -15.1465 Z M 4.10156 2.41211 C 3.61328 1.91406 3.78906 1.61133 4.12109 1.30859 L 15.0781 -8.80859 L 16.3086 -7.57812 L 6.15234 3.34961 C 5.84961 3.68164 5.46875 3.7793 5.06836 3.37891 Z"/>
  </g>
  <text style="stroke:none;fill:black;font-family:-apple-system,&quot;SF Pro Display&quot;,&quot;SF Pro Text&quot;,Helvetica,sans-serif;font-weight:bold;" transform="matrix(1 0 0 1 1289 1953)">Exporting</text>
  <text style="stroke:none;fill:black;font-family:-apple-system,&quot;SF Pro Display&quot;,&quot;SF Pro Text&quot;,Helvetica,sans-serif;" transform="matrix(1 0 0 1 1289 1971)">Symbols should be outlined when exporting to ensure the</text>
  <text style="stroke:none;fill:black;font-family:-apple-system,&quot;SF Pro Display&quot;,&quot;SF Pro Text&quot;,Helvetica,sans-serif;" transform="matrix(1 0 0 1 1289 1989)">design is preserved when submitting to Xcode.</text>
  <text id="template-version" style="stroke:none;fill:black;font-family:-apple-system,&quot;SF Pro Display&quot;,&quot;SF Pro Text&quot;,Helvetica,sans-serif;text-anchor:end;" transform="matrix(1 0 0 1 3036 1933)">Template v.1.0</text>
  <text style="stroke:none;fill:black;font-family:-apple-system,&quot;SF Pro Display&quot;,&quot;SF Pro Text&quot;,Helvetica,sans-serif;text-anchor:end;" transform="matrix(1 0 0 1 3036 1951)">Generated from thermometer.sun</text>
  <text style="stroke:none;fill:black;font-family:-apple-system,&quot;SF Pro Display&quot;,&quot;SF Pro Text&quot;,Helvetica,sans-serif;text-anchor:end;" transform="matrix(1 0 0 1 3036 1969)">Typeset at 100 points</text>
  <text style="stroke:none;fill:black;font-family:-apple-system,&quot;SF Pro Display&quot;,&quot;SF Pro Text&quot;,Helvetica,sans-serif;" transform="matrix(1 0 0 1 263 726)">Small</text>
  <text style="stroke:none;fill:black;font-family:-apple-system,&quot;SF Pro Display&quot;,&quot;SF Pro Text&quot;,Helvetica,sans-serif;" transform="matrix(1 0 0 1 263 1156)">Medium</text>
  <text style="stroke:none;fill:black;font-family:-apple-system,&quot;SF Pro Display&quot;,&quot;SF Pro Text&quot;,Helvetica,sans-serif;" transform="matrix(1 0 0 1 263 1586)">Large</text>
 </g>
 <g id="Guides">
  <g id="H-reference" style="fill:#27AAE1;stroke:none;" transform="matrix(1 0 0 1 339 696)">
   <path d="M 54.9316 0 L 57.666 0 L 30.5664 -70.459 L 28.0762 -70.459 L 0.976562 0 L 3.66211 0 L 12.9395 -24.4629 L 45.7031 -24.4629 Z M 29.1992 -67.0898 L 29.4434 -67.0898 L 44.8242 -26.709 L 13.8184 -26.709 Z"/>
  </g>
  <line id="Baseline-S" style="fill:none;stroke:#27AAE1;opacity:1;stroke-width:0.577;" x1="263" x2="3036" y1="696" y2="696"/>
  <line id="Capline-S" style="fill:none;stroke:#27AAE1;opacity:1;stroke-width:0.577;" x1="263" x2="3036" y1="625.541" y2="625.541"/>
  <g id="H-reference" style="fill:#27AAE1;stroke:none;" transform="matrix(1 0 0 1 339 1126)">
   <path d="M 54.9316 0 L 57.666 0 L 30.5664 -70.459 L 28.0762 -70.459 L 0.976562 0 L 3.66211 0 L 12.9395 -24.4629 L 45.7031 -24.4629 Z M 29.1992 -67.0898 L 29.4434 -67.0898 L 44.8242 -26.709 L 13.8184 -26.709 Z"/>
  </g>
  <line id="Baseline-M" style="fill:none;stroke:#27AAE1;opacity:1;stroke-width:0.577;" x1="263" x2="3036" y1="1126" y2="1126"/>
  <line id="Capline-M" style="fill:none;stroke:#27AAE1;opacity:1;stroke-width:0.577;" x1="263" x2="3036" y1="1055.54" y2="1055.54"/>
  <g id="H-reference" style="fill:#27AAE1;stroke:none;" transform="matrix(1 0 0 1 339 1556)">
   <path d="M 54.9316 0 L 57.666 0 L 30.5664 -70.459 L 28.0762 -70.459 L 0.976562 0 L 3.66211 0 L 12.9395 -24.4629 L 45.7031 -24.4629 Z M 29.1992 -67.0898 L 29.4434 -67.0898 L 44.8242 -26.709 L 13.8184 -26.709 Z"/>
  </g>
  <line id="Baseline-L" style="fill:none;stroke:#27AAE1;opacity:1;stroke-width:0.577;" x1="263" x2="3036" y1="1556" y2="1556"/>
  <line id="Capline-L" style="fill:none;stroke:#27AAE1;opacity:1;stroke-width:0.577;" x1="263" x2="3036" y1="1485.54" y2="1485.54"/>
  <rect height="119.336" id="left-margin" style="fill:#00AEEF;stroke:none;opacity:0.4;" width="8.74023" x="1391.47" y="1030.79"/>
  <rect height="119.336" id="right-margin" style="fill:#00AEEF;stroke:none;opacity:0.4;" width="8.74023" x="1499.48" y="1030.79"/>
 </g>
 <g id="Symbols">
  <g id="Black-L" transform="matrix(1 0 0 1 2850.54 1556)">
   <path d="M 86.2305 -105.957 C 90.332 -105.957 93.6523 -109.424 93.6523 -113.525 L 93.6523 -124.316 C 93.6523 -128.516 90.332 -131.885 86.2305 -131.885 C 82.1289 -131.885 78.8086 -128.516 78.8086 -124.316 L 78.8086 -113.525 C 78.8086 -109.424 82.1289 -105.957 86.2305 -105.957 Z M 116.26 -93.457 C 119.141 -90.5762 123.975 -90.6738 126.904 -93.6035 L 134.57 -101.221 C 137.5 -104.102 137.5 -108.936 134.619 -111.816 C 131.738 -114.697 127.002 -114.648 124.072 -111.719 L 116.357 -104.102 C 113.379 -101.221 113.428 -96.3379 116.26 -93.457 Z M 50.9766 41.2598 C 72.7539 41.2598 90.5273 24.0234 90.5273 2.14844 C 90.5273 -8.39844 86.4746 -17.5293 79.0039 -24.8535 C 77.7832 -26.0742 77.5879 -26.6113 77.5879 -28.2227 L 77.5879 -30.5664 C 80.3711 -29.834 83.252 -29.4434 86.2793 -29.4434 C 105.078 -29.4434 120.215 -44.5801 120.215 -63.5254 C 120.215 -82.4219 105.078 -97.5586 86.2793 -97.5586 C 81.7383 -97.5586 77.4414 -96.7285 73.5352 -95.1172 C 68.9941 -102.832 60.9863 -107.422 50.9766 -107.422 C 34.9121 -107.422 24.1699 -95.8984 24.1699 -78.8086 L 24.2188 -28.2227 C 24.2188 -26.6113 23.9746 -25.9766 22.8027 -24.8535 C 15.1367 -17.7734 11.2793 -8.39844 11.2793 2.14844 C 11.2793 24.0234 29.0039 41.2598 50.9766 41.2598 Z M 50.9766 24.5605 C 38.2812 24.5605 28.0762 14.2578 28.0762 1.5625 C 28.0762 -6.73828 31.9336 -13.2324 38.4277 -17.5293 C 40.2832 -18.7012 41.0156 -19.6777 41.0156 -22.168 L 41.0156 -78.3203 C 41.0156 -85.7422 45.0195 -90.625 50.9766 -90.625 C 56.7871 -90.625 60.791 -85.7422 60.791 -78.3203 L 60.791 -22.168 C 60.791 -19.6777 61.5234 -18.7012 63.3789 -17.5293 C 69.873 -13.2324 73.7305 -6.73828 73.7305 1.5625 C 73.7305 14.2578 63.5254 24.5605 50.9766 24.5605 Z M 77.6367 -78.8086 C 77.6367 -79.3945 77.6367 -79.9316 77.5879 -80.5176 C 80.1758 -81.8359 83.1055 -82.6172 86.2305 -82.6172 C 96.7773 -82.6172 105.225 -74.1699 105.225 -63.5254 C 105.225 -52.832 96.7773 -44.3848 86.2305 -44.3848 C 83.1055 -44.3848 80.1758 -45.166 77.5879 -46.4844 Z M 50.8789 16.0156 C 58.8379 16.0156 65.2832 9.57031 65.2832 1.5625 C 65.2832 -4.00391 62.1582 -8.59375 57.5684 -11.084 C 55.6641 -12.1094 54.9805 -12.8418 54.9805 -15.7227 L 54.9805 -73.4375 C 54.9805 -76.4648 53.125 -78.3203 50.8789 -78.3203 C 48.6328 -78.3203 46.7773 -76.4648 46.7773 -73.4375 L 46.7773 -15.7227 C 46.7773 -12.8418 46.1426 -12.1094 44.2383 -11.084 C 39.6484 -8.59375 36.5234 -4.00391 36.5234 1.5625 C 36.5234 9.61914 42.9199 16.0156 50.8789 16.0156 Z M 136.133 -56.1523 L 146.924 -56.1035 C 151.074 -56.1035 154.443 -59.4238 154.443 -63.5254 C 154.443 -67.627 151.074 -70.9961 146.924 -70.9961 L 136.133 -71.0449 C 132.031 -71.0449 128.564 -67.627 128.564 -63.5254 C 128.564 -59.4238 132.031 -56.1523 136.133 -56.1523 Z M 123.975 -15.2832 C 126.953 -12.3535 131.689 -12.3047 134.57 -15.1855 C 137.451 -18.0664 137.354 -22.8027 134.473 -25.7812 L 126.855 -33.5449 C 124.023 -36.4258 119.092 -36.4258 116.211 -33.5449 C 113.33 -30.6641 113.477 -25.8789 116.357 -22.998 Z"/>
  </g>
  <g id="Heavy-L" transform="matrix(1 0 0 1 2555.73 1556)">
   <path d="M 83.252 -104.346 C 86.9629 -104.346 89.9902 -107.52 89.9902 -111.182 L 89.9902 -122.9 C 89.9902 -126.66 86.9629 -129.736 83.252 -129.736 C 79.541 -129.736 76.5137 -126.66 76.5137 -122.9 L 76.5137 -111.182 C 76.5137 -107.52 79.541 -104.346 83.252 -104.346 Z M 113.086 -91.9434 C 115.625 -89.3555 120.02 -89.4043 122.656 -92.041 L 130.957 -100.342 C 133.643 -102.93 133.643 -107.275 131.006 -109.912 C 128.418 -112.5 124.121 -112.451 121.484 -109.814 L 113.135 -101.514 C 110.449 -98.9258 110.498 -94.5312 113.086 -91.9434 Z M 49.2188 40.9668 C 70.0684 40.9668 87.0605 24.4141 87.0605 3.51562 C 87.0605 -6.78711 83.0566 -15.6738 75.5371 -22.9004 C 74.2676 -24.0723 74.0234 -24.707 74.0234 -26.416 L 74.0234 -30.1758 C 76.9531 -29.3457 80.0781 -28.9062 83.3008 -28.9062 C 101.66 -28.9062 116.455 -43.7012 116.455 -62.207 C 116.455 -80.7129 101.66 -95.5078 83.3008 -95.5078 C 78.8574 -95.5078 74.6582 -94.6289 70.8008 -93.0664 C 66.6992 -100.83 58.9844 -105.566 49.2188 -105.566 C 34.2773 -105.566 24.2188 -94.7754 24.2188 -78.7109 L 24.3164 -26.416 C 24.3164 -24.707 24.0234 -24.0234 22.7539 -22.9004 C 15.1367 -15.8691 11.2793 -6.78711 11.2793 3.51562 C 11.2793 24.4141 28.2227 40.9668 49.2188 40.9668 Z M 49.2188 26.3672 C 36.3281 26.3672 25.9766 15.918 25.9766 3.07617 C 25.9766 -5.17578 29.7852 -11.8164 36.3281 -16.1621 C 38.2324 -17.4316 38.9648 -18.5059 38.9648 -20.9961 L 38.9648 -78.2227 C 38.9648 -85.8887 43.1152 -90.8691 49.2188 -90.8691 C 55.1758 -90.8691 59.3262 -85.8887 59.3262 -78.2227 L 59.3262 -20.9961 C 59.3262 -18.5059 60.0586 -17.4316 61.9629 -16.1621 C 68.5547 -11.8164 72.3633 -5.17578 72.3633 3.07617 C 72.3633 15.918 61.9629 26.3672 49.2188 26.3672 Z M 74.1211 -78.7109 C 74.1211 -79.1016 74.0723 -79.4434 74.0723 -79.834 C 76.8066 -81.3477 79.9316 -82.1777 83.252 -82.1777 C 94.3359 -82.1777 103.125 -73.3887 103.125 -62.207 C 103.125 -51.0254 94.3359 -42.1875 83.252 -42.1875 C 79.9316 -42.1875 76.8066 -43.0176 74.0234 -44.4824 Z M 49.1699 17.8711 C 57.3242 17.8711 63.916 11.2305 63.916 3.02734 C 63.916 -2.63672 60.6934 -7.37305 56.0059 -9.91211 C 54.0039 -10.9863 53.3691 -11.7188 53.3691 -14.6973 L 53.3691 -73.1934 C 53.3691 -76.3184 51.4648 -78.2227 49.1699 -78.2227 C 46.8262 -78.2227 44.9707 -76.3184 44.9707 -73.1934 L 44.9707 -14.6973 C 44.9707 -11.7188 44.2871 -10.9863 42.334 -9.91211 C 37.6465 -7.37305 34.4238 -2.63672 34.4238 3.02734 C 34.4238 11.2793 41.0156 17.8711 49.1699 17.8711 Z M 132.08 -55.5176 L 143.848 -55.5176 C 147.559 -55.5176 150.635 -58.4961 150.635 -62.207 C 150.635 -65.918 147.559 -68.9453 143.848 -68.9453 L 132.08 -68.9941 C 128.418 -68.9941 125.293 -65.918 125.293 -62.207 C 125.293 -58.4961 128.418 -55.5176 132.08 -55.5176 Z M 121.436 -14.5508 C 124.072 -11.8652 128.369 -11.8652 130.957 -14.4531 C 133.594 -17.0898 133.496 -21.3379 130.908 -24.0234 L 122.607 -32.373 C 120.068 -35.0098 115.625 -35.0098 113.037 -32.373 C 110.449 -29.7852 110.498 -25.4883 113.135 -22.8516 Z"/>
  </g>
  <g id="Bold-L" transform="matrix(1 0 0 1 2261.17 1556)">
   <path d="M 79.8828 -102.588 C 83.1543 -102.588 85.8398 -105.322 85.8398 -108.545 L 85.8398 -121.338 C 85.8398 -124.609 83.1543 -127.295 79.8828 -127.295 C 76.6602 -127.295 73.9746 -124.609 73.9746 -121.338 L 73.9746 -108.545 C 73.9746 -105.322 76.6602 -102.588 79.8828 -102.588 Z M 109.473 -90.2344 C 111.719 -87.9395 115.625 -87.9883 117.92 -90.332 L 126.953 -99.3164 C 129.297 -101.66 129.297 -105.469 127.002 -107.764 C 124.707 -110.059 120.947 -110.01 118.604 -107.715 L 109.521 -98.6816 C 107.178 -96.3867 107.227 -92.5293 109.473 -90.2344 Z M 47.2656 40.6738 C 67.0898 40.6738 83.1543 24.8535 83.1543 5.0293 C 83.1543 -4.98047 79.1992 -13.6719 71.6797 -20.6543 C 70.3613 -21.875 70.0684 -22.6074 70.0684 -24.4141 L 70.0684 -29.834 C 73.1934 -28.8086 76.5137 -28.2715 79.9316 -28.2715 C 97.8516 -28.2715 112.256 -42.7246 112.256 -60.7422 C 112.256 -78.7598 97.8516 -93.1641 79.9316 -93.1641 C 75.5859 -93.1641 71.4844 -92.334 67.6758 -90.7227 C 64.0625 -98.6328 56.7383 -103.467 47.2656 -103.467 C 33.4961 -103.467 24.3164 -93.457 24.3164 -78.5645 L 24.3652 -24.4141 C 24.3652 -22.6074 24.0723 -21.875 22.7539 -20.6543 C 15.1367 -13.7695 11.2793 -4.98047 11.2793 5.0293 C 11.2793 24.8535 27.3438 40.6738 47.2656 40.6738 Z M 47.2656 28.418 C 34.1797 28.418 23.6328 17.7734 23.6328 4.73633 C 23.6328 -3.36914 27.3926 -10.2051 34.0332 -14.6484 C 35.9863 -15.9668 36.7188 -17.1387 36.7188 -19.7266 L 36.7188 -78.125 C 36.7188 -86.0352 40.9668 -91.1133 47.2656 -91.1133 C 53.4668 -91.1133 57.7148 -86.0352 57.7148 -78.125 L 57.7148 -19.7266 C 57.7148 -17.1387 58.4473 -15.9668 60.4004 -14.6484 C 67.041 -10.2051 70.8008 -3.36914 70.8008 4.73633 C 70.8008 17.7734 60.2539 28.418 47.2656 28.418 Z M 70.1172 -78.5645 C 70.1172 -78.7598 70.1172 -78.9551 70.1172 -79.1016 C 73.0469 -80.8105 76.3672 -81.7383 79.8828 -81.7383 C 91.6016 -81.7383 100.83 -72.5098 100.83 -60.7422 C 100.83 -48.9746 91.6016 -39.7461 79.8828 -39.7461 C 76.3672 -39.7461 73.0469 -40.625 70.0684 -42.1875 Z M 47.2168 19.9219 C 55.6152 19.9219 62.3535 13.0859 62.3535 4.6875 C 62.3535 -1.17188 59.082 -6.00586 54.248 -8.59375 C 52.1973 -9.7168 51.5137 -10.4492 51.5137 -13.5254 L 51.5137 -72.9004 C 51.5137 -76.1719 49.6094 -78.125 47.2168 -78.125 C 44.8242 -78.125 42.9199 -76.1719 42.9199 -72.9004 L 42.9199 -13.5254 C 42.9199 -10.4492 42.2363 -9.7168 40.1855 -8.59375 C 35.3516 -6.00586 32.0801 -1.17188 32.0801 4.6875 C 32.0801 13.1348 38.8184 19.9219 47.2168 19.9219 Z M 127.588 -54.834 L 140.381 -54.834 C 143.652 -54.834 146.289 -57.4707 146.338 -60.7422 C 146.338 -64.0137 143.652 -66.6504 140.381 -66.6504 L 127.588 -66.6992 C 124.365 -66.6992 121.631 -64.0137 121.631 -60.7422 C 121.631 -57.4707 124.365 -54.834 127.588 -54.834 Z M 118.555 -13.6719 C 120.898 -11.3281 124.658 -11.377 126.953 -13.6719 C 129.248 -15.9668 129.199 -19.7266 126.904 -22.0215 L 117.871 -31.1523 C 115.625 -33.3984 111.768 -33.3984 109.473 -31.1523 C 107.178 -28.8574 107.227 -25.0488 109.521 -22.7539 Z"/>
  </g>
  <g id="Semibold-L" transform="matrix(1 0 0 1 1965.95 1556)">
   <path d="M 77.5879 -101.318 C 80.5664 -101.318 83.0078 -103.857 83.0078 -106.738 L 83.0078 -120.215 C 83.0078 -123.193 80.5664 -125.635 77.5879 -125.635 C 74.6582 -125.635 72.2168 -123.193 72.2168 -120.215 L 72.2168 -106.738 C 72.2168 -103.857 74.6582 -101.318 77.5879 -101.318 Z M 107.031 -89.0625 C 109.033 -87.0117 112.549 -87.0117 114.697 -89.1113 L 124.17 -98.6328 C 126.318 -100.732 126.27 -104.199 124.219 -106.299 C 122.119 -108.35 118.75 -108.35 116.65 -106.25 L 107.031 -96.6797 C 104.932 -94.6289 104.98 -91.1621 107.031 -89.0625 Z M 45.9473 40.4785 C 64.9902 40.4785 80.4688 25.1465 80.4688 6.05469 C 80.4688 -3.71094 76.5625 -12.2559 68.9941 -19.1406 C 67.627 -20.3613 67.334 -21.1426 67.334 -23.0469 L 67.334 -29.5898 C 70.5566 -28.4668 74.0234 -27.832 77.6367 -27.832 C 95.2637 -27.832 109.375 -42.041 109.375 -59.7168 C 109.375 -77.3926 95.2637 -91.6016 77.6367 -91.6016 C 73.3398 -91.6016 69.2383 -90.7227 65.4785 -89.1113 C 62.2559 -97.1191 55.1758 -102.002 45.9473 -102.002 C 33.0078 -102.002 24.3652 -92.5781 24.3652 -78.4668 L 24.4141 -23.0469 C 24.4141 -21.1426 24.1211 -20.3613 22.7539 -19.1406 C 15.1367 -12.3047 11.2793 -3.71094 11.2793 6.05469 C 11.2793 25.1465 26.7578 40.4785 45.9473 40.4785 Z M 45.9473 29.834 C 32.7148 29.834 22.0215 19.043 22.0215 5.85938 C 22.0215 -2.14844 25.7324 -9.13086 32.4219 -13.623 C 34.375 -14.9902 35.1562 -16.2598 35.1562 -18.8477 L 35.1562 -78.0273 C 35.1562 -86.1328 39.502 -91.2598 45.9473 -91.2598 C 52.2461 -91.2598 56.5918 -86.1328 56.5918 -78.0273 L 56.5918 -18.8477 C 56.5918 -16.2598 57.373 -14.9902 59.3262 -13.623 C 66.0645 -9.13086 69.7754 -2.14844 69.7754 5.85938 C 69.7754 19.043 59.0332 29.834 45.9473 29.834 Z M 67.3828 -78.4668 L 67.3828 -78.6133 C 70.459 -80.4199 73.9746 -81.3965 77.5879 -81.3965 C 89.6973 -81.3965 99.2188 -71.875 99.2188 -59.7168 C 99.2188 -47.5586 89.6973 -38.0371 77.5879 -38.0371 C 73.9258 -38.0371 70.459 -38.9648 67.334 -40.625 Z M 45.8984 21.2891 C 54.3945 21.2891 61.2793 14.4043 61.2793 5.81055 C 61.2793 -0.146484 57.959 -5.0293 53.0273 -7.71484 C 50.9766 -8.83789 50.293 -9.61914 50.293 -12.6953 L 50.293 -72.7051 C 50.293 -76.0254 48.3398 -78.0273 45.8984 -78.0273 C 43.4082 -78.0273 41.4551 -76.0254 41.4551 -72.7051 L 41.4551 -12.6953 C 41.4551 -9.61914 40.7715 -8.83789 38.7207 -7.71484 C 33.8379 -5.0293 30.4688 -0.146484 30.4688 5.81055 C 30.4688 14.4531 37.3535 21.2891 45.8984 21.2891 Z M 124.512 -54.3945 L 137.988 -54.3457 C 140.918 -54.3457 143.359 -56.7871 143.359 -59.7168 C 143.408 -62.6953 140.918 -65.0879 137.988 -65.0879 L 124.512 -65.1367 C 121.582 -65.1367 119.092 -62.6953 119.092 -59.7168 C 119.092 -56.7871 121.582 -54.3945 124.512 -54.3945 Z M 116.602 -13.0859 C 118.701 -10.9863 122.119 -11.0352 124.17 -13.0859 C 126.27 -15.1855 126.27 -18.6035 124.17 -20.7031 L 114.6 -30.2734 C 112.549 -32.3242 109.082 -32.3242 106.982 -30.2734 C 104.932 -28.1738 104.98 -24.707 107.031 -22.6562 Z"/>
  </g>
  <g id="Medium-L" transform="matrix(1 0 0 1 1670.36 1556)">
   <path d="M 75.8789 -100.391 C 78.6133 -100.391 80.8594 -102.734 80.8594 -105.371 L 80.8594 -119.385 C 80.8594 -122.119 78.6133 -124.365 75.8789 -124.365 C 73.1445 -124.365 70.8984 -122.119 70.8984 -119.385 L 70.8984 -105.371 C 70.8984 -102.734 73.1445 -100.391 75.8789 -100.391 Z M 105.127 -88.1836 C 106.982 -86.2793 110.254 -86.2793 112.207 -88.2324 L 122.119 -98.1445 C 124.023 -100.049 124.023 -103.271 122.119 -105.176 C 120.215 -107.08 117.09 -107.08 115.137 -105.127 L 105.127 -95.166 C 103.223 -93.2617 103.271 -90.0879 105.127 -88.1836 Z M 44.9219 40.2832 C 63.4277 40.2832 78.418 25.3418 78.418 6.83594 C 78.418 -2.7832 74.5605 -11.1816 66.9922 -17.9688 C 65.5762 -19.2383 65.2344 -20.0195 65.2344 -21.9727 L 65.2344 -29.3945 C 68.6035 -28.1738 72.168 -27.5391 75.8789 -27.5391 C 93.2617 -27.5391 107.178 -41.5039 107.178 -58.9355 C 107.178 -76.416 93.2617 -90.3809 75.8789 -90.3809 C 71.6309 -90.3809 67.5293 -89.502 63.7695 -87.8418 C 60.8398 -95.9473 53.9551 -100.928 44.9219 -100.928 C 32.6172 -100.928 24.4141 -91.8945 24.4141 -78.3691 L 24.4629 -21.9727 C 24.4629 -20.0195 24.1699 -19.2383 22.7051 -17.9688 C 15.1367 -11.2305 11.2793 -2.7832 11.2793 6.83594 C 11.2793 25.3418 26.2695 40.2832 44.9219 40.2832 Z M 44.9219 30.8594 C 31.5918 30.8594 20.752 20.0195 20.752 6.73828 C 20.752 -1.2207 24.4629 -8.30078 31.2012 -12.8418 C 33.2031 -14.209 33.9844 -15.5273 33.9844 -18.1641 L 33.9844 -77.9785 C 33.9844 -86.1816 38.4277 -91.4062 44.9219 -91.4062 C 51.3184 -91.4062 55.7617 -86.1816 55.7617 -77.9785 L 55.7617 -18.1641 C 55.7617 -15.5273 56.543 -14.209 58.5449 -12.8418 C 65.2832 -8.30078 68.9453 -1.2207 68.9453 6.73828 C 68.9453 20.0195 58.1543 30.8594 44.9219 30.8594 Z M 75.8789 -81.2012 C 88.2812 -81.2012 97.998 -71.4355 97.998 -58.9355 C 97.998 -46.4844 88.2812 -36.7188 75.8789 -36.7188 C 72.0703 -36.7188 68.457 -37.6953 65.2832 -39.4531 L 65.332 -78.2715 C 68.5059 -80.127 72.1191 -81.2012 75.8789 -81.2012 Z M 44.873 22.3633 C 53.5156 22.3633 60.498 15.3809 60.498 6.68945 C 60.498 0.634766 57.0801 -4.3457 52.0996 -7.03125 C 50 -8.1543 49.3164 -8.93555 49.3164 -12.0605 L 49.3164 -72.5586 C 49.3164 -75.9277 47.3633 -77.9785 44.873 -77.9785 C 42.334 -77.9785 40.3809 -75.9277 40.3809 -72.5586 L 40.3809 -12.0605 C 40.3809 -8.93555 39.6973 -8.1543 37.6465 -7.03125 C 32.6172 -4.3457 29.248 0.634766 29.248 6.68945 C 29.248 15.4297 36.2305 22.3633 44.873 22.3633 Z M 122.168 -54.0039 L 136.182 -54.0039 C 138.867 -54.0039 141.113 -56.2012 141.113 -58.9355 C 141.162 -61.6699 138.867 -63.916 136.182 -63.916 L 122.168 -63.916 C 119.482 -63.916 117.188 -61.6699 117.188 -58.9355 C 117.188 -56.2012 119.482 -54.0039 122.168 -54.0039 Z M 115.137 -12.6465 C 117.041 -10.6934 120.166 -10.7422 122.119 -12.6953 C 124.023 -14.5996 124.023 -17.7246 122.07 -19.6289 L 112.109 -29.5898 C 110.205 -31.4941 107.031 -31.4941 105.127 -29.5898 C 103.223 -27.6855 103.223 -24.5117 105.127 -22.5586 Z"/>
  </g>
  <g id="Regular-L" transform="matrix(1 0 0 1 1375.11 1556)">
   <path d="M 73.584 -99.1699 C 76.0254 -99.1699 78.0273 -101.221 78.0273 -103.613 L 78.0273 -118.311 C 78.0273 -120.752 76.0254 -122.705 73.584 -122.705 C 71.1426 -122.705 69.1406 -120.752 69.1406 -118.311 L 69.1406 -103.613 C 69.1406 -101.221 71.1426 -99.1699 73.584 -99.1699 Z M 102.686 -87.0117 C 104.346 -85.3516 107.227 -85.3027 108.984 -87.0117 L 119.336 -97.4609 C 121.094 -99.1699 121.045 -102.002 119.336 -103.711 C 117.676 -105.42 114.893 -105.42 113.184 -103.711 L 102.686 -93.2129 C 100.977 -91.5039 101.025 -88.7207 102.686 -87.0117 Z M 43.6035 40.0879 C 61.377 40.0879 75.7812 25.6348 75.7812 7.86133 C 75.7812 -1.51367 71.9238 -9.81445 64.3555 -16.4551 C 62.8906 -17.7246 62.5488 -18.5547 62.5488 -20.6055 L 62.5488 -29.1992 C 66.0156 -27.832 69.7266 -27.0996 73.584 -27.0996 C 90.6738 -27.0996 104.346 -40.8203 104.346 -57.959 C 104.346 -75.0488 90.6738 -88.7695 73.584 -88.7695 C 69.3848 -88.7695 65.332 -87.8906 61.4746 -86.2305 C 58.9844 -94.4336 52.3926 -99.4629 43.6035 -99.4629 C 32.0801 -99.4629 24.4629 -91.0156 24.4629 -78.2715 L 24.5605 -20.6055 C 24.5605 -18.5547 24.2188 -17.7246 22.7051 -16.4551 C 15.1367 -9.81445 11.2793 -1.51367 11.2793 7.86133 C 11.2793 25.6348 25.6836 40.0879 43.6035 40.0879 Z M 43.6035 32.2754 C 30.127 32.2754 19.1895 21.2891 19.1895 7.86133 C 19.1895 -0.0488281 22.8027 -7.22656 29.5898 -11.8164 C 31.6406 -13.2324 32.4219 -14.6484 32.4219 -17.2852 L 32.4219 -77.9297 C 32.4219 -86.3281 36.9629 -91.5527 43.6035 -91.5527 C 50.0977 -91.5527 54.6387 -86.3281 54.6387 -77.9297 L 54.6387 -17.2852 C 54.6387 -14.6484 55.4199 -13.2324 57.4707 -11.8164 C 64.2578 -7.22656 67.8711 -0.0488281 67.8711 7.86133 C 67.8711 21.2891 56.9824 32.2754 43.6035 32.2754 Z M 73.584 -80.8594 C 86.377 -80.8594 96.3867 -70.8008 96.3867 -57.959 C 96.3867 -45.1172 86.377 -35.0586 73.584 -35.0586 C 69.6777 -35.0586 65.918 -36.0352 62.5488 -37.8906 L 62.5977 -77.7832 C 66.0156 -79.7852 69.7266 -80.8594 73.584 -80.8594 Z M 43.5547 23.7793 C 52.3438 23.7793 59.4238 16.6504 59.4238 7.8125 C 59.4238 1.66016 55.957 -3.41797 50.8789 -6.15234 C 48.7793 -7.27539 48.0957 -8.10547 48.0957 -11.2793 L 48.0957 -72.3633 C 48.0957 -75.8301 46.0938 -77.9297 43.5547 -77.9297 C 40.9668 -77.9297 39.0137 -75.8301 39.0137 -72.3633 L 39.0137 -11.2793 C 39.0137 -8.10547 38.2812 -7.27539 36.1816 -6.15234 C 31.1035 -3.41797 27.6367 1.66016 27.6367 7.8125 C 27.6367 16.6992 34.7168 23.7793 43.5547 23.7793 Z M 119.092 -53.5645 L 133.789 -53.5645 C 136.23 -53.5645 138.135 -55.5176 138.184 -57.959 C 138.232 -60.4004 136.23 -62.3535 133.789 -62.3535 L 119.092 -62.3535 C 116.699 -62.3535 114.697 -60.4004 114.697 -57.959 C 114.697 -55.5176 116.699 -53.5645 119.092 -53.5645 Z M 113.184 -12.0605 C 114.893 -10.3516 117.676 -10.4004 119.336 -12.1094 C 121.045 -13.8184 121.094 -16.6504 119.336 -18.3105 L 108.887 -28.7109 C 107.178 -30.3711 104.395 -30.4199 102.686 -28.7109 C 100.977 -27.0508 100.977 -24.1699 102.686 -22.5098 Z"/>
  </g>
  <g id="Light-L" transform="matrix(1 0 0 1 1079.23 1556)">
   <path d="M 72.6562 -100.586 C 74.4629 -100.586 75.9766 -102.148 75.9766 -103.906 L 75.9766 -120.068 C 75.9766 -121.924 74.4629 -123.389 72.6562 -123.389 C 70.8008 -123.389 69.2871 -121.924 69.2871 -120.068 L 69.2871 -103.906 C 69.2871 -102.148 70.8008 -100.586 72.6562 -100.586 Z M 101.758 -88.4766 C 102.979 -87.207 105.176 -87.1582 106.494 -88.4766 L 117.92 -99.9023 C 119.238 -101.221 119.189 -103.32 117.92 -104.59 C 116.65 -105.859 114.551 -105.908 113.232 -104.59 L 101.758 -93.1152 C 100.488 -91.8457 100.488 -89.7461 101.758 -88.4766 Z M 42.627 40.0879 C 60.0098 40.0879 73.9746 26.0742 73.9746 8.78906 C 73.9746 -0.390625 70.2148 -8.44727 62.5488 -14.8926 C 60.9375 -16.3086 60.5469 -17.2363 60.5469 -19.5312 L 60.5469 -31.6895 C 64.3555 -29.9805 68.4082 -29.1016 72.6562 -29.1016 C 89.4043 -29.1016 102.832 -42.5781 102.832 -59.375 C 102.832 -76.2207 89.4043 -89.6973 72.6562 -89.6973 C 68.0664 -89.6973 63.623 -88.5742 59.4727 -86.5234 C 57.0312 -94.2383 50.9277 -98.9258 42.627 -98.9258 C 31.7871 -98.9258 24.6094 -90.918 24.6094 -78.6621 L 24.707 -19.5312 C 24.707 -17.2363 24.3164 -16.3086 22.6562 -14.8926 C 15.0391 -8.44727 11.2793 -0.390625 11.2793 8.78906 C 11.2793 26.0742 25.2441 40.0879 42.627 40.0879 Z M 42.627 34.082 C 28.7109 34.082 17.334 22.7051 17.334 8.78906 C 17.334 0.830078 20.8496 -6.39648 27.832 -11.2305 C 29.9805 -12.7441 30.8105 -14.4043 30.8105 -17.1387 L 30.8105 -78.3691 C 30.8105 -87.3535 35.5957 -92.7734 42.627 -92.7734 C 49.6094 -92.7734 54.4434 -87.3535 54.4434 -78.3691 L 54.4434 -17.1387 C 54.4434 -14.4043 55.2734 -12.7441 57.4219 -11.2305 C 64.3555 -6.39648 67.8711 0.830078 67.8711 8.78906 C 67.8711 22.7051 56.543 34.082 42.627 34.082 Z M 60.5957 -78.6621 C 60.5957 -79.1016 60.5957 -79.5898 60.5957 -80.0293 C 64.3555 -82.3242 68.5059 -83.5449 72.6562 -83.5449 C 86.1328 -83.5449 96.7285 -72.9004 96.7285 -59.375 C 96.7285 -45.8496 86.1328 -35.2539 72.6562 -35.2539 C 68.4082 -35.2539 64.2578 -36.3281 60.5469 -38.4277 Z M 42.627 25.5859 C 51.9043 25.5859 59.375 18.1152 59.375 8.74023 C 59.375 2.24609 55.7617 -3.125 50.3906 -6.00586 C 48.1445 -7.17773 47.4121 -8.05664 47.4121 -11.4258 L 47.4121 -72.4609 C 47.4121 -76.123 45.3613 -78.3691 42.627 -78.3691 C 39.8926 -78.3691 37.8418 -76.123 37.8418 -72.4609 L 37.8418 -11.4258 C 37.8418 -8.05664 37.0605 -7.17773 34.8633 -6.00586 C 29.4922 -3.125 25.8301 2.24609 25.8301 8.74023 C 25.8301 18.1152 33.3008 25.5859 42.627 25.5859 Z M 117.041 -56.1035 L 133.203 -56.1035 C 135.059 -56.1035 136.475 -57.5684 136.523 -59.375 C 136.572 -61.2305 135.059 -62.6953 133.203 -62.6953 L 117.041 -62.6953 C 115.234 -62.6953 113.721 -61.2305 113.721 -59.375 C 113.721 -57.5684 115.234 -56.1035 117.041 -56.1035 Z M 113.232 -14.0137 C 114.551 -12.6953 116.65 -12.7441 117.92 -14.0625 C 119.189 -15.332 119.238 -17.3828 117.92 -18.7012 L 106.396 -30.1758 C 105.127 -31.3965 103.027 -31.4453 101.758 -30.1758 C 100.488 -28.8574 100.488 -26.7578 101.758 -25.4883 Z"/>
  </g>
  <g id="Thin-L" transform="matrix(1 0 0 1 783.619 1556)">
   <path d="M 71.3867 -102.49 C 72.4121 -102.49 73.291 -103.369 73.291 -104.297 L 73.291 -122.461 C 73.291 -123.486 72.4121 -124.316 71.3867 -124.316 C 70.3613 -124.316 69.4824 -123.486 69.4824 -122.461 L 69.4824 -104.297 C 69.4824 -103.369 70.3613 -102.49 71.3867 -102.49 Z M 100.488 -90.332 C 101.221 -89.6484 102.441 -89.5996 103.174 -90.332 L 115.967 -103.174 C 116.748 -103.955 116.699 -105.078 115.967 -105.811 C 115.283 -106.494 114.111 -106.592 113.33 -105.811 L 100.488 -92.9688 C 99.8047 -92.2363 99.8047 -91.0645 100.488 -90.332 Z M 41.4062 40.0879 C 58.1543 40.0879 71.5332 26.6113 71.5332 10.0098 C 71.5332 1.07422 67.9199 -6.68945 60.2051 -12.8906 C 58.3496 -14.4043 57.8613 -15.4785 57.8613 -18.1152 L 57.8613 -35.0586 C 62.1094 -32.8613 66.6992 -31.7383 71.3867 -31.7383 C 87.7441 -31.7383 100.879 -44.873 100.879 -61.2793 C 100.879 -77.7344 87.7441 -90.8691 71.3867 -90.8691 C 66.3574 -90.8691 61.4746 -89.502 56.8359 -86.8652 C 54.541 -93.9453 48.9746 -98.1934 41.4062 -98.1934 C 31.3965 -98.1934 24.8535 -90.7227 24.8535 -79.1504 L 24.9512 -18.1152 C 24.9512 -15.4785 24.4629 -14.4043 22.6074 -12.8906 C 14.8926 -6.68945 11.2305 1.07422 11.2305 10.0098 C 11.2305 26.6113 24.6582 40.0879 41.4062 40.0879 Z M 41.4062 36.4746 C 26.8555 36.4746 14.9414 24.5605 14.9414 10.0098 C 14.9414 2.00195 18.2617 -5.32227 25.4395 -10.4492 C 27.7344 -12.1094 28.6133 -14.1113 28.6133 -16.9922 L 28.6133 -78.9551 C 28.6133 -88.7207 33.8379 -94.4336 41.4062 -94.4336 C 48.9746 -94.4336 54.1504 -88.7207 54.1504 -78.9551 L 54.1504 -16.9922 C 54.1504 -14.1113 55.0293 -12.1094 57.3242 -10.4492 C 64.502 -5.32227 67.8711 2.00195 67.8711 10.0098 C 67.8711 24.5605 55.957 36.4746 41.4062 36.4746 Z M 57.959 -79.1504 C 57.959 -80.4199 57.8613 -81.6406 57.7148 -82.8613 C 62.0605 -85.6445 66.748 -87.1094 71.3867 -87.1094 C 85.791 -87.1094 97.1191 -75.6836 97.1191 -61.2793 C 97.1191 -46.9238 85.791 -35.498 71.3867 -35.498 C 66.748 -35.498 62.1094 -36.6699 57.9102 -39.1113 Z M 41.4062 28.0273 C 51.3672 28.0273 59.3262 20.0195 59.3262 10.0098 C 59.3262 3.02734 55.4688 -2.73438 49.707 -5.81055 C 47.3145 -7.08008 46.5332 -8.00781 46.5332 -11.5723 L 46.5332 -72.5586 C 46.5332 -76.5137 44.3848 -78.9551 41.4062 -78.9551 C 38.4277 -78.9551 36.2793 -76.5137 36.2793 -72.5586 L 36.2793 -11.5723 C 36.2793 -8.00781 35.4492 -7.08008 33.1055 -5.81055 C 27.3438 -2.73438 23.4375 3.02734 23.4375 10.0098 C 23.4375 20.0195 31.4453 28.0273 41.4062 28.0273 Z M 114.355 -59.4727 L 132.471 -59.4727 C 133.545 -59.4727 134.277 -60.3027 134.375 -61.2793 C 134.424 -62.3047 133.545 -63.1348 132.471 -63.1348 L 114.355 -63.1348 C 113.33 -63.1348 112.5 -62.3047 112.5 -61.2793 C 112.5 -60.3027 113.33 -59.4727 114.355 -59.4727 Z M 113.33 -16.5527 C 114.111 -15.7715 115.283 -15.8691 115.967 -16.6016 C 116.699 -17.2852 116.748 -18.4082 115.967 -19.1895 L 103.125 -32.0312 C 102.441 -32.7637 101.221 -32.7637 100.488 -32.0312 C 99.8047 -31.3477 99.8047 -30.127 100.488 -29.3945 Z"/>
  </g>
  <g id="Ultralight-L" transform="matrix(1 0 0 1 487.47 1556)">
   <path d="M 70.752 -103.467 C 71.3867 -103.467 71.9238 -104.004 71.9238 -104.541 L 71.9238 -123.682 C 71.9238 -124.268 71.3867 -124.756 70.752 -124.756 C 70.166 -124.756 69.5801 -124.268 69.5801 -123.682 L 69.5801 -104.541 C 69.5801 -104.004 70.166 -103.467 70.752 -103.467 Z M 99.8535 -91.3086 C 100.293 -90.8691 101.025 -90.8691 101.465 -91.3086 L 114.99 -104.834 C 115.479 -105.322 115.43 -106.006 114.99 -106.396 C 114.551 -106.836 113.916 -106.934 113.379 -106.396 L 99.8535 -92.8711 C 99.4629 -92.4805 99.4629 -91.748 99.8535 -91.3086 Z M 40.7715 40.0879 C 57.1777 40.0879 70.3125 26.8555 70.3125 10.6445 C 70.3125 1.85547 66.748 -5.81055 58.9844 -11.8652 C 56.9824 -13.4277 56.4941 -14.5508 56.4941 -17.3828 L 56.543 -36.8164 C 60.9863 -34.3262 65.8203 -33.1055 70.752 -33.1055 C 86.9141 -33.1055 99.8535 -46.0449 99.8535 -62.2559 C 99.8535 -78.5156 86.9141 -91.4551 70.752 -91.4551 C 65.4785 -91.4551 60.4004 -89.9414 55.4688 -86.9629 C 53.2715 -93.75 47.998 -97.8027 40.7715 -97.8027 C 31.1523 -97.8027 24.9512 -90.625 24.9512 -79.3945 L 25.0488 -17.3828 C 25.0488 -14.5508 24.5605 -13.4277 22.5586 -11.8652 C 14.8438 -5.81055 11.2305 1.85547 11.2305 10.6445 C 11.2305 26.8555 24.3652 40.0879 40.7715 40.0879 Z M 40.7715 37.6953 C 25.8789 37.6953 13.7207 25.4883 13.7207 10.6445 C 13.7207 2.58789 16.9434 -4.78516 24.2676 -10.0586 C 26.6113 -11.7676 27.4902 -13.9648 27.4902 -16.8945 L 27.4902 -79.248 C 27.4902 -89.4043 32.9102 -95.2637 40.7715 -95.2637 C 48.6328 -95.2637 54.0527 -89.4043 54.0527 -79.248 L 54.0527 -16.8945 C 54.0527 -13.9648 54.9316 -11.7676 57.3242 -10.0586 C 64.5996 -4.78516 67.8711 2.58789 67.8711 10.6445 C 67.8711 25.4883 55.6641 37.6953 40.7715 37.6953 Z M 56.5918 -79.3945 C 56.5918 -81.1035 56.4453 -82.7148 56.1523 -84.2285 C 60.8398 -87.3047 65.8691 -88.916 70.752 -88.916 C 85.6445 -88.916 97.3145 -77.1484 97.3145 -62.2559 C 97.3145 -47.4121 85.6445 -35.6445 70.752 -35.6445 C 65.918 -35.6445 61.0352 -36.8164 56.543 -39.4531 Z M 40.7715 29.248 C 51.0742 29.248 59.3262 20.9961 59.3262 10.6445 C 59.3262 3.4668 55.3223 -2.53906 49.3652 -5.71289 C 46.9238 -7.03125 46.0938 -8.00781 46.0938 -11.6699 L 46.0938 -72.6074 C 46.0938 -76.709 43.8965 -79.248 40.7715 -79.248 C 37.6465 -79.248 35.4492 -76.709 35.4492 -72.6074 L 35.4492 -11.6699 C 35.4492 -8.00781 34.668 -7.03125 32.1777 -5.71289 C 26.2207 -2.53906 22.2168 3.4668 22.2168 10.6445 C 22.2168 20.9961 30.4688 29.248 40.7715 29.248 Z M 112.939 -61.1816 L 132.08 -61.1816 C 132.764 -61.1816 133.154 -61.6699 133.252 -62.2559 C 133.35 -62.8906 132.764 -63.3789 132.08 -63.3789 L 112.939 -63.3789 C 112.354 -63.3789 111.865 -62.8906 111.865 -62.2559 C 111.865 -61.6699 112.354 -61.1816 112.939 -61.1816 Z M 113.379 -17.8711 C 113.916 -17.3828 114.551 -17.4805 114.99 -17.8711 C 115.43 -18.3105 115.479 -18.9453 114.99 -19.4824 L 101.465 -33.0078 C 101.025 -33.4473 100.293 -33.4473 99.8535 -33.0078 C 99.4629 -32.5684 99.4629 -31.8359 99.8535 -31.3965 Z"/>
  </g>
  <g id="Black-M" transform="matrix(1 0 0 1 2867.02 1126)">
   <path d="M 70.3613 -92.9688 C 73.7305 -92.9688 76.5137 -95.8496 76.5137 -99.2188 L 76.5137 -107.178 C 76.5137 -110.596 73.7305 -113.428 70.3613 -113.428 C 66.9922 -113.428 64.209 -110.596 64.209 -107.178 L 64.209 -99.2188 C 64.209 -95.8496 66.9922 -92.9688 70.3613 -92.9688 Z M 93.9453 -83.1543 C 96.3379 -80.8105 100.342 -80.9082 102.686 -83.3008 L 108.35 -88.8672 C 110.791 -91.2598 110.791 -95.2637 108.398 -97.6562 C 106.055 -100.049 102.1 -99.9512 99.6582 -97.5098 L 93.9941 -91.9922 C 91.5527 -89.6484 91.5527 -85.5469 93.9453 -83.1543 Z M 41.3574 24.4141 C 59.2773 24.4141 73.877 10.4004 73.877 -7.56836 C 73.877 -16.0156 70.752 -23.2422 64.9414 -29.0527 C 64.0137 -29.9805 63.8184 -30.4199 63.8184 -31.6895 L 63.8184 -33.3496 C 65.918 -32.8125 68.1641 -32.5195 70.4102 -32.5195 C 85.3516 -32.5195 97.4121 -44.5801 97.4121 -59.7168 C 97.4121 -74.7559 85.3516 -86.8164 70.4102 -86.8164 C 66.5039 -86.8164 62.793 -86.0352 59.4238 -84.5703 C 55.4688 -90.1367 49.1211 -93.4082 41.3574 -93.4082 C 27.832 -93.4082 18.7012 -83.7402 18.7012 -69.3848 L 18.7988 -31.6895 C 18.7988 -30.4199 18.6035 -29.9316 17.6758 -29.0527 C 11.6699 -23.4863 8.74023 -16.0156 8.74023 -7.56836 C 8.74023 10.4004 23.3398 24.4141 41.3574 24.4141 Z M 41.3574 9.61914 C 31.4941 9.61914 23.584 1.66016 23.584 -8.20312 C 23.584 -14.8438 26.6113 -19.6777 31.6406 -22.998 C 33.0566 -23.9258 33.6426 -24.6582 33.6426 -26.6113 L 33.6426 -68.9941 C 33.6426 -74.7559 36.7676 -78.5645 41.3574 -78.5645 C 45.8496 -78.5645 48.9746 -74.7559 48.9746 -68.9941 L 48.9746 -26.6113 C 48.9746 -24.6582 49.5117 -23.9258 50.9766 -22.998 C 56.0059 -19.6777 58.9844 -14.8438 58.9844 -8.20312 C 58.9844 1.66016 51.0742 9.61914 41.3574 9.61914 Z M 63.8672 -69.3848 C 63.8672 -70.4102 63.8672 -71.3867 63.7695 -72.3633 C 65.7227 -73.3887 67.9688 -73.9258 70.3613 -73.9258 C 78.1738 -73.9258 84.5215 -67.5781 84.5215 -59.7168 C 84.5215 -51.7578 78.1738 -45.4102 70.3613 -45.4102 C 67.9688 -45.4102 65.7715 -45.9961 63.8672 -46.9727 Z M 41.3086 3.02734 C 47.4609 3.02734 52.4414 -1.95312 52.4414 -8.20312 C 52.4414 -12.5 50.0488 -16.0645 46.4844 -18.0176 C 44.9707 -18.7988 44.4824 -19.3848 44.4824 -21.6309 L 44.4824 -65.1855 C 44.4824 -67.5781 43.0664 -68.9941 41.3086 -68.9941 C 39.5508 -68.9941 38.1348 -67.5781 38.1348 -65.1855 L 38.1348 -21.6309 C 38.1348 -19.3848 37.6465 -18.7988 36.1328 -18.0176 C 32.5684 -16.0645 30.127 -12.5 30.127 -8.20312 C 30.127 -1.95312 35.1074 3.02734 41.3086 3.02734 Z M 109.814 -53.6621 L 117.773 -53.5645 C 121.191 -53.5645 124.023 -56.3477 124.023 -59.7168 C 124.023 -63.0859 121.191 -65.8691 117.773 -65.8691 L 109.814 -65.918 C 106.445 -65.918 103.564 -63.0859 103.564 -59.7168 C 103.564 -56.3477 106.445 -53.6621 109.814 -53.6621 Z M 99.5605 -21.8262 C 102.051 -19.3848 105.957 -19.3359 108.35 -21.7285 C 110.742 -24.0723 110.596 -27.9785 108.252 -30.4688 L 102.734 -36.1816 C 100.391 -38.623 96.2402 -38.5742 93.8965 -36.1816 C 91.5039 -33.8379 91.6016 -29.8828 93.9941 -27.4902 Z"/>
  </g>
  <g id="Heavy-M" transform="matrix(1 0 0 1 2572.19 1126)">
   <path d="M 67.334 -90.8203 C 70.459 -90.8203 72.998 -93.5059 72.998 -96.582 L 72.998 -105.127 C 72.998 -108.301 70.459 -110.889 67.334 -110.889 C 64.209 -110.889 61.6699 -108.301 61.6699 -105.127 L 61.6699 -96.582 C 61.6699 -93.5059 64.209 -90.8203 67.334 -90.8203 Z M 90.6738 -81.1523 C 92.8711 -78.9551 96.5332 -79.0527 98.7305 -81.25 L 104.785 -87.2559 C 107.031 -89.4531 107.031 -93.1152 104.834 -95.3125 C 102.686 -97.5098 99.0723 -97.4609 96.8262 -95.2148 L 90.7227 -89.209 C 88.4766 -87.0605 88.4766 -83.3496 90.6738 -81.1523 Z M 39.6973 24.1211 C 56.6895 24.1211 70.5566 10.6934 70.5566 -6.34766 C 70.5566 -14.5508 67.4316 -21.582 61.6211 -27.2949 C 60.6445 -28.2227 60.4492 -28.7109 60.4492 -29.9805 L 60.4492 -32.3242 C 62.6953 -31.7383 64.9902 -31.4453 67.3828 -31.4453 C 81.9336 -31.4453 93.7012 -43.1641 93.7012 -57.9102 C 93.7012 -72.5586 81.9336 -84.3262 67.3828 -84.3262 C 63.7207 -84.3262 60.2539 -83.5938 57.0801 -82.2754 C 53.5156 -88.0371 47.3633 -91.5039 39.6973 -91.5039 C 27.1484 -91.5039 18.75 -82.5195 18.75 -69.1406 L 18.7988 -29.9805 C 18.7988 -28.7109 18.6035 -28.1738 17.627 -27.2949 C 11.6699 -21.7773 8.74023 -14.5508 8.74023 -6.34766 C 8.74023 10.6934 22.5586 24.1211 39.6973 24.1211 Z M 39.6973 11.1328 C 29.7852 11.1328 21.7773 3.07617 21.7773 -6.83594 C 21.7773 -13.3301 24.7559 -18.3105 29.834 -21.6797 C 31.2988 -22.6074 31.8359 -23.4375 31.8359 -25.3906 L 31.8359 -68.7988 C 31.8359 -74.6094 35.0098 -78.4668 39.6973 -78.4668 C 44.2383 -78.4668 47.4121 -74.6094 47.4121 -68.7988 L 47.4121 -25.3906 C 47.4121 -23.4375 47.998 -22.6074 49.4629 -21.6797 C 54.541 -18.3105 57.4707 -13.3301 57.4707 -6.83594 C 57.4707 3.07617 49.5117 11.1328 39.6973 11.1328 Z M 60.5469 -69.1406 C 60.5469 -69.8242 60.498 -70.459 60.4492 -71.0938 C 62.5 -72.168 64.8438 -72.8027 67.334 -72.8027 C 75.5859 -72.8027 82.1777 -66.1621 82.1777 -57.9102 C 82.1777 -49.5605 75.5859 -42.9688 67.334 -42.9688 C 64.8438 -42.9688 62.5488 -43.5547 60.498 -44.6289 Z M 39.6484 4.54102 C 45.8984 4.54102 50.9277 -0.537109 50.9277 -6.83594 C 50.9277 -11.1816 48.4863 -14.7949 44.873 -16.748 C 43.3594 -17.5781 42.8711 -18.1641 42.8711 -20.4102 L 42.8711 -64.9414 C 42.8711 -67.334 41.4062 -68.7988 39.6484 -68.7988 C 37.8418 -68.7988 36.4258 -67.334 36.4258 -64.9414 L 36.4258 -20.4102 C 36.4258 -18.1641 35.8887 -17.5781 34.375 -16.748 C 30.8105 -14.7949 28.3203 -11.1816 28.3203 -6.83594 C 28.3203 -0.537109 33.3984 4.54102 39.6484 4.54102 Z M 105.957 -52.2949 L 114.502 -52.2461 C 117.676 -52.2461 120.264 -54.7852 120.264 -57.9102 C 120.264 -60.9863 117.676 -63.5254 114.502 -63.5254 L 105.957 -63.5742 C 102.832 -63.5742 100.195 -60.9863 100.195 -57.9102 C 100.195 -54.7852 102.832 -52.2949 105.957 -52.2949 Z M 96.7773 -20.5078 C 99.0234 -18.2617 102.637 -18.2129 104.785 -20.4102 C 106.982 -22.6074 106.885 -26.1719 104.688 -28.4668 L 98.7305 -34.5703 C 96.582 -36.8164 92.8223 -36.7676 90.625 -34.5703 C 88.4277 -32.4219 88.5254 -28.7598 90.7227 -26.5625 Z"/>
  </g>
  <g id="Bold-M" transform="matrix(1 0 0 1 2277.6 1126)">
   <path d="M 63.9648 -88.4766 C 66.748 -88.4766 69.043 -90.8691 69.043 -93.6523 L 69.043 -102.881 C 69.043 -105.713 66.748 -108.057 63.9648 -108.057 C 61.1328 -108.057 58.8379 -105.713 58.8379 -102.881 L 58.8379 -93.6523 C 58.8379 -90.8691 61.1328 -88.4766 63.9648 -88.4766 Z M 87.0117 -78.8574 C 88.9648 -76.9043 92.2852 -76.9531 94.2871 -78.9551 L 100.83 -85.4492 C 102.832 -87.4512 102.832 -90.7227 100.879 -92.7246 C 98.877 -94.6777 95.6543 -94.6777 93.6523 -92.627 L 87.0605 -86.1328 C 85.0586 -84.1309 85.0586 -80.8594 87.0117 -78.8574 Z M 37.8418 23.7793 C 53.8086 23.7793 66.7969 11.0352 66.7969 -4.98047 C 66.7969 -12.8906 63.7207 -19.7754 57.9102 -25.293 C 56.9336 -26.2207 56.6895 -26.7578 56.6895 -28.0762 L 56.7383 -31.2012 C 59.0332 -30.5176 61.4746 -30.1758 63.9648 -30.1758 C 78.1738 -30.1758 89.5508 -41.6016 89.5508 -55.8594 C 89.5508 -70.1172 78.1738 -81.543 63.9648 -81.543 C 60.5957 -81.543 57.3242 -80.8594 54.3945 -79.6387 C 51.2695 -85.6934 45.3613 -89.3555 37.8418 -89.3555 C 26.416 -89.3555 18.7988 -81.1523 18.7988 -68.8965 L 18.8477 -28.0762 C 18.8477 -26.7578 18.6523 -26.2207 17.627 -25.293 C 11.7188 -19.873 8.74023 -12.8906 8.74023 -4.98047 C 8.74023 11.0352 21.7285 23.7793 37.8418 23.7793 Z M 37.8418 12.8418 C 27.832 12.8418 19.7266 4.6875 19.7266 -5.27344 C 19.7266 -11.6211 22.7051 -16.8457 27.7832 -20.2148 C 29.2969 -21.1914 29.834 -22.0215 29.834 -23.9746 L 29.834 -68.5547 C 29.834 -74.4629 33.0566 -78.3691 37.8418 -78.3691 C 42.4805 -78.3691 45.7031 -74.4629 45.7031 -68.5547 L 45.7031 -23.9746 C 45.7031 -22.0215 46.2891 -21.1914 47.7539 -20.2148 C 52.8809 -16.8457 55.8105 -11.6211 55.8105 -5.27344 C 55.8105 4.6875 47.7539 12.8418 37.8418 12.8418 Z M 56.7871 -68.8965 C 56.7871 -69.1406 56.7871 -69.3848 56.7871 -69.6289 C 58.8867 -70.8496 61.3281 -71.4844 63.9648 -71.4844 C 72.6562 -71.4844 79.541 -64.5996 79.541 -55.8594 C 79.541 -47.1191 72.6562 -40.1855 63.9648 -40.1855 C 61.3281 -40.1855 58.8867 -40.8203 56.7383 -41.9922 Z M 37.793 6.25 C 44.1406 6.25 49.2676 1.07422 49.2676 -5.32227 C 49.2676 -9.7168 46.7773 -13.3789 43.1152 -15.3809 C 41.5527 -16.2109 41.0645 -16.7969 41.0645 -19.0918 L 41.0645 -64.5996 C 41.0645 -67.041 39.5996 -68.5547 37.793 -68.5547 C 35.9863 -68.5547 34.5215 -67.041 34.5215 -64.5996 L 34.5215 -19.0918 C 34.5215 -16.7969 33.9844 -16.2109 32.4707 -15.3809 C 28.8086 -13.3789 26.3184 -9.7168 26.3184 -5.32227 C 26.3184 1.12305 31.4453 6.25 37.793 6.25 Z M 101.611 -50.7812 L 110.889 -50.7812 C 113.721 -50.7812 116.016 -53.0762 116.016 -55.8594 C 116.016 -58.6914 113.721 -60.9375 110.889 -60.9375 L 101.611 -60.9863 C 98.8281 -60.9863 96.4844 -58.6914 96.4844 -55.8594 C 96.4844 -53.0762 98.8281 -50.7812 101.611 -50.7812 Z M 93.6035 -18.9941 C 95.6055 -16.9922 98.877 -16.9922 100.83 -18.9453 C 102.783 -20.9473 102.734 -24.1699 100.781 -26.1719 L 94.2383 -32.8125 C 92.2852 -34.7656 88.9648 -34.7656 87.0117 -32.8125 C 85.0098 -30.8105 85.1074 -27.5391 87.0605 -25.5859 Z"/>
  </g>
  <g id="Semibold-M" transform="matrix(1 0 0 1 1982.35 1126)">
   <path d="M 61.6211 -86.8164 C 64.209 -86.8164 66.3574 -89.0137 66.3574 -91.6016 L 66.3574 -101.318 C 66.3574 -103.955 64.209 -106.055 61.6211 -106.055 C 59.0332 -106.055 56.8848 -103.955 56.8848 -101.318 L 56.8848 -91.6016 C 56.8848 -89.0137 59.0332 -86.8164 61.6211 -86.8164 Z M 84.5215 -77.2949 C 86.2793 -75.4883 89.3555 -75.4883 91.2109 -77.3438 L 98.0957 -84.2285 C 99.9512 -86.0352 99.9512 -89.1113 98.1445 -90.918 C 96.2891 -92.7246 93.3105 -92.7246 91.4551 -90.8691 L 84.5215 -83.9844 C 82.666 -82.1777 82.7148 -79.1016 84.5215 -77.2949 Z M 36.5723 23.5352 C 51.8066 23.5352 64.2578 11.2793 64.2578 -4.00391 C 64.2578 -11.7676 61.1816 -18.5059 55.3711 -23.9258 C 54.3457 -24.8535 54.1016 -25.3906 54.1016 -26.8066 L 54.1504 -30.4688 C 56.4941 -29.7363 59.0332 -29.2969 61.6211 -29.2969 C 75.5371 -29.2969 86.6699 -40.4785 86.6699 -54.4434 C 86.6699 -68.4082 75.5371 -79.5898 61.6211 -79.5898 C 58.3984 -79.5898 55.2734 -78.9551 52.3926 -77.7832 C 49.6582 -84.082 43.9453 -87.8906 36.5723 -87.8906 C 25.9277 -87.8906 18.7988 -80.1758 18.7988 -68.7012 L 18.8477 -26.8066 C 18.8477 -25.3906 18.6523 -24.8535 17.627 -23.9258 C 11.7676 -18.5547 8.74023 -11.7676 8.74023 -4.00391 C 8.74023 11.2793 21.1426 23.5352 36.5723 23.5352 Z M 36.5723 14.0137 C 26.4648 14.0137 18.3594 5.81055 18.3594 -4.19922 C 18.3594 -10.498 21.2891 -15.7715 26.416 -19.1895 C 27.8809 -20.2148 28.4668 -21.0449 28.4668 -23.0469 L 28.4668 -68.3594 C 28.4668 -74.3652 31.7383 -78.2715 36.5723 -78.2715 C 41.2598 -78.2715 44.5312 -74.3652 44.5312 -68.3594 L 44.5312 -23.0469 C 44.5312 -21.0449 45.1172 -20.2148 46.582 -19.1895 C 51.709 -15.7715 54.6387 -10.498 54.6387 -4.19922 C 54.6387 5.81055 46.5332 14.0137 36.5723 14.0137 Z M 61.6211 -70.6055 C 70.6055 -70.6055 77.7344 -63.5254 77.7344 -54.4434 C 77.7344 -45.4102 70.6055 -38.2812 61.6211 -38.2812 C 58.9355 -38.2812 56.3965 -38.9648 54.1504 -40.1855 L 54.1992 -68.6523 C 56.3965 -69.9219 58.9355 -70.6055 61.6211 -70.6055 Z M 36.4746 7.42188 C 42.9199 7.42188 48.0957 2.19727 48.0957 -4.24805 C 48.0957 -8.74023 45.5566 -12.4512 41.8945 -14.4531 C 40.332 -15.2832 39.7949 -15.8691 39.7949 -18.2129 L 39.7949 -64.3555 C 39.7949 -66.8457 38.3301 -68.3594 36.4746 -68.3594 C 34.668 -68.3594 33.2031 -66.8457 33.2031 -64.3555 L 33.2031 -18.2129 C 33.2031 -15.8691 32.666 -15.2832 31.1035 -14.4531 C 27.4414 -12.4512 24.9023 -8.74023 24.9023 -4.24805 C 24.9023 2.24609 30.0781 7.42188 36.4746 7.42188 Z M 98.6328 -49.7559 L 108.398 -49.7559 C 110.986 -49.7559 113.086 -51.8555 113.086 -54.4434 C 113.135 -57.0801 110.986 -59.1797 108.398 -59.1797 L 98.6328 -59.1797 C 96.0938 -59.1797 93.8965 -57.0801 93.8965 -54.4434 C 93.8965 -51.8555 96.0938 -49.7559 98.6328 -49.7559 Z M 91.4551 -17.9688 C 93.3105 -16.1133 96.2891 -16.1621 98.0957 -17.9688 C 99.9023 -19.7754 99.9023 -22.8027 98.0469 -24.6094 L 91.1621 -31.543 C 89.3555 -33.3496 86.3281 -33.3496 84.4727 -31.543 C 82.666 -29.7363 82.7148 -26.709 84.5215 -24.9023 Z"/>
  </g>
  <g id="Medium-M" transform="matrix(1 0 0 1 1686.74 1126)">
   <path d="M 59.8633 -85.5957 C 62.3047 -85.5957 64.3066 -87.6465 64.3066 -90.0391 L 64.3066 -100.146 C 64.3066 -102.588 62.3047 -104.59 59.8633 -104.59 C 57.4219 -104.59 55.4199 -102.588 55.4199 -100.146 L 55.4199 -90.0391 C 55.4199 -87.6465 57.4219 -85.5957 59.8633 -85.5957 Z M 82.6172 -76.123 C 84.2773 -74.4141 87.1582 -74.4141 88.916 -76.123 L 96.0449 -83.3008 C 97.7539 -85.0098 97.7539 -87.8418 96.0449 -89.5508 C 94.3359 -91.2598 91.5527 -91.2598 89.7949 -89.5508 L 82.6172 -82.373 C 80.9082 -80.6641 80.957 -77.832 82.6172 -76.123 Z M 35.5957 23.3887 C 50.3418 23.3887 62.3047 11.4746 62.3047 -3.32031 C 62.3047 -10.8887 59.2285 -17.5293 53.418 -22.9004 C 52.3926 -23.8281 52.1484 -24.4141 52.1484 -25.7812 L 52.1484 -29.8828 C 54.5898 -29.1016 57.1777 -28.6621 59.8633 -28.6621 C 73.5352 -28.6621 84.5215 -39.6484 84.5215 -53.418 C 84.5215 -67.1387 73.5352 -78.125 59.8633 -78.125 C 56.6895 -78.125 53.7109 -77.5391 50.8789 -76.3672 C 48.4375 -82.8125 42.8711 -86.7676 35.5957 -86.7676 C 25.5371 -86.7676 18.7988 -79.4922 18.7988 -68.5547 L 18.8965 -25.7812 C 18.8965 -24.4141 18.6523 -23.8281 17.627 -22.9004 C 11.7676 -17.5781 8.74023 -10.8887 8.74023 -3.32031 C 8.74023 11.4746 20.7031 23.3887 35.5957 23.3887 Z M 35.5957 14.8926 C 25.4395 14.8926 17.2852 6.68945 17.2852 -3.41797 C 17.2852 -9.61914 20.2148 -14.9902 25.3418 -18.457 C 26.8555 -19.4336 27.4414 -20.3613 27.4414 -22.3145 L 27.4414 -68.2129 C 27.4414 -74.3164 30.7129 -78.2227 35.5957 -78.2227 C 40.332 -78.2227 43.6035 -74.3164 43.6035 -68.2129 L 43.6035 -22.3145 C 43.6035 -20.3613 44.1895 -19.4336 45.7031 -18.457 C 50.8301 -14.9902 53.7598 -9.61914 53.7598 -3.41797 C 53.7598 6.68945 45.6055 14.8926 35.5957 14.8926 Z M 59.8633 -69.9219 C 69.0918 -69.9219 76.3184 -62.6953 76.3184 -53.418 C 76.3184 -44.0918 69.0918 -36.8652 59.8633 -36.8652 C 57.1289 -36.8652 54.4922 -37.5488 52.1973 -38.7695 L 52.1973 -67.9199 C 54.4922 -69.1895 57.1289 -69.9219 59.8633 -69.9219 Z M 35.498 8.30078 C 41.9922 8.30078 47.2168 3.02734 47.2168 -3.4668 C 47.2168 -7.95898 44.6777 -11.7188 40.918 -13.7207 C 39.3555 -14.5508 38.8672 -15.1367 38.8672 -17.4805 L 38.8672 -64.209 C 38.8672 -66.6992 37.4023 -68.2129 35.498 -68.2129 C 33.6426 -68.2129 32.1777 -66.6992 32.1777 -64.209 L 32.1777 -17.4805 C 32.1777 -15.1367 31.6895 -14.5508 30.127 -13.7207 C 26.3672 -11.7188 23.8281 -7.95898 23.8281 -3.4668 C 23.8281 3.07617 29.0527 8.30078 35.498 8.30078 Z M 96.3867 -48.9746 L 106.494 -48.9746 C 108.887 -48.9746 110.889 -50.9766 110.889 -53.418 C 110.889 -55.8594 108.887 -57.8125 106.494 -57.8125 L 96.3867 -57.8613 C 93.9941 -57.8613 91.9434 -55.8594 91.9434 -53.418 C 91.9434 -50.9766 93.9941 -48.9746 96.3867 -48.9746 Z M 89.7949 -17.1875 C 91.5039 -15.4785 94.3359 -15.5273 96.0449 -17.2363 C 97.7539 -18.8965 97.7051 -21.7285 95.9961 -23.4375 L 88.8184 -30.6152 C 87.1582 -32.2754 84.2773 -32.3242 82.5684 -30.6152 C 80.8594 -28.9062 80.9082 -26.0742 82.6172 -24.3652 Z"/>
  </g>
  <g id="Regular-M" transform="matrix(1 0 0 1 1391.47 1126)">
   <path d="M 57.5684 -83.9844 C 59.7656 -83.9844 61.6211 -85.8398 61.6211 -88.0371 L 61.6211 -98.584 C 61.6211 -100.83 59.7656 -102.637 57.5684 -102.637 C 55.3223 -102.637 53.4668 -100.83 53.4668 -98.584 L 53.4668 -88.0371 C 53.4668 -85.8398 55.3223 -83.9844 57.5684 -83.9844 Z M 80.127 -74.5605 C 81.6406 -72.998 84.2773 -72.9492 85.8887 -74.5605 L 93.3105 -82.0801 C 94.873 -83.6426 94.873 -86.2305 93.3105 -87.793 C 91.748 -89.3555 89.209 -89.3555 87.6465 -87.793 L 80.127 -80.2246 C 78.5645 -78.6621 78.6133 -76.123 80.127 -74.5605 Z M 34.3262 23.1445 C 48.3398 23.1445 59.7656 11.7188 59.7656 -2.34375 C 59.7656 -9.76562 56.7383 -16.2598 50.8789 -21.5332 C 49.8047 -22.5098 49.6094 -23.0469 49.6094 -24.5117 L 49.6094 -29.1992 C 52.0996 -28.2715 54.7852 -27.832 57.5684 -27.832 C 70.9473 -27.832 81.6895 -38.5742 81.6895 -52.002 C 81.6895 -65.4297 70.9473 -76.2207 57.5684 -76.2207 C 54.4922 -76.2207 51.5625 -75.6348 48.7793 -74.5117 C 46.8262 -81.2012 41.4551 -85.3516 34.3262 -85.3516 C 25.0488 -85.3516 18.8477 -78.5645 18.8477 -68.3594 L 18.8965 -24.5117 C 18.8965 -23.0469 18.7012 -22.5098 17.627 -21.5332 C 11.7676 -16.2598 8.74023 -9.76562 8.74023 -2.34375 C 8.74023 11.7188 20.166 23.1445 34.3262 23.1445 Z M 34.3262 16.0645 C 24.1211 16.0645 15.8691 7.76367 15.8691 -2.34375 C 15.8691 -8.44727 18.7988 -13.9648 23.9746 -17.4316 C 25.4883 -18.457 26.0742 -19.3848 26.0742 -21.3867 L 26.0742 -68.0664 C 26.0742 -74.2188 29.3945 -78.1738 34.3262 -78.1738 C 39.1113 -78.1738 42.4316 -74.2188 42.4316 -68.0664 L 42.4316 -21.3867 C 42.4316 -19.3848 43.0176 -18.457 44.5312 -17.4316 C 49.707 -13.9648 52.6367 -8.44727 52.6367 -2.34375 C 52.6367 7.76367 44.3848 16.0645 34.3262 16.0645 Z M 57.5684 -69.0918 C 67.0898 -69.0918 74.5117 -61.6211 74.5117 -52.002 C 74.5117 -42.4316 67.0898 -34.9609 57.5684 -34.9609 C 54.7363 -34.9609 52.0508 -35.6934 49.6094 -36.9629 L 49.6582 -66.9434 C 52.0508 -68.3105 54.7363 -69.0918 57.5684 -69.0918 Z M 34.2773 9.47266 C 40.7715 9.47266 46.0449 4.15039 46.0449 -2.39258 C 46.0449 -6.98242 43.5059 -10.7422 39.7461 -12.793 C 38.1348 -13.623 37.5977 -14.209 37.5977 -16.6016 L 37.5977 -63.9648 C 37.5977 -66.5039 36.1328 -68.0664 34.2773 -68.0664 C 32.373 -68.0664 30.9082 -66.5039 30.9082 -63.9648 L 30.9082 -16.6016 C 30.9082 -14.209 30.3711 -13.623 28.7598 -12.793 C 25 -10.7422 22.4609 -6.98242 22.4609 -2.39258 C 22.4609 4.19922 27.7344 9.47266 34.2773 9.47266 Z M 93.457 -47.9492 L 104.004 -47.9492 C 106.201 -47.9492 108.008 -49.8047 108.008 -52.002 C 108.008 -54.248 106.201 -56.0547 104.004 -56.0547 L 93.457 -56.0547 C 91.2598 -56.0547 89.4043 -54.248 89.4043 -52.002 C 89.4043 -49.8047 91.2598 -47.9492 93.457 -47.9492 Z M 87.6465 -16.1621 C 89.209 -14.5996 91.748 -14.6484 93.3105 -16.2109 C 94.873 -17.7734 94.873 -20.3613 93.3105 -21.875 L 85.791 -29.3945 C 84.2285 -30.9082 81.6895 -30.957 80.127 -29.3945 C 78.5645 -27.832 78.5645 -25.2441 80.127 -23.6816 Z"/>
  </g>
  <g id="Light-M" transform="matrix(1 0 0 1 1095.49 1126)">
   <path d="M 56.7383 -85.2539 C 58.3984 -85.2539 59.8145 -86.6699 59.8145 -88.3301 L 59.8145 -100.195 C 59.8145 -101.855 58.3984 -103.271 56.7383 -103.271 C 55.0293 -103.271 53.6133 -101.855 53.6133 -100.195 L 53.6133 -88.3301 C 53.6133 -86.6699 55.0293 -85.2539 56.7383 -85.2539 Z M 79.2969 -75.8301 C 80.4199 -74.6582 82.4219 -74.6582 83.6426 -75.8301 L 92.041 -84.2773 C 93.2129 -85.4492 93.2129 -87.4023 92.041 -88.5742 C 90.8691 -89.7461 88.916 -89.7949 87.7441 -88.5742 L 79.2969 -80.127 C 78.125 -78.9551 78.125 -77.002 79.2969 -75.8301 Z M 33.4961 23.1445 C 47.1191 23.1445 58.1543 12.0605 58.1543 -1.51367 C 58.1543 -8.74023 55.1758 -15.0879 49.2676 -20.166 C 48.0957 -21.1914 47.8027 -21.875 47.8027 -23.5352 L 47.8027 -31.3477 C 50.6348 -30.1758 53.6133 -29.5898 56.7383 -29.5898 C 69.873 -29.5898 80.3711 -40.1367 80.3711 -53.3203 C 80.3711 -66.5039 69.873 -77.0508 56.7383 -77.0508 C 53.3203 -77.0508 50.0488 -76.2695 46.9727 -74.8535 C 45.0684 -81.0547 40.1367 -84.8633 33.4961 -84.8633 C 24.7559 -84.8633 18.9941 -78.418 18.9941 -68.7012 L 19.0918 -23.5352 C 19.0918 -21.875 18.7988 -21.1914 17.5781 -20.166 C 11.7188 -15.0879 8.74023 -8.74023 8.74023 -1.51367 C 8.74023 12.0605 19.7754 23.1445 33.4961 23.1445 Z M 33.4961 17.6758 C 22.8516 17.6758 14.2578 9.0332 14.2578 -1.51367 C 14.2578 -7.66602 17.041 -13.2324 22.3633 -16.8945 C 23.9746 -18.0176 24.6094 -19.1895 24.6094 -21.2891 L 24.6094 -68.457 C 24.6094 -75.1465 28.2227 -79.2969 33.4961 -79.2969 C 38.6719 -79.2969 42.2852 -75.1465 42.2852 -68.457 L 42.2852 -21.2891 C 42.2852 -19.1895 42.9199 -18.0176 44.5312 -16.8945 C 49.8535 -13.2324 52.6367 -7.66602 52.6367 -1.51367 C 52.6367 9.0332 43.9941 17.6758 33.4961 17.6758 Z M 47.8516 -68.7012 L 47.8516 -68.9453 C 50.6348 -70.6055 53.6621 -71.4844 56.7383 -71.4844 C 66.8945 -71.4844 74.8047 -63.4766 74.8047 -53.3203 C 74.8047 -43.1152 66.8945 -35.1562 56.7383 -35.1562 C 53.6133 -35.1562 50.5371 -35.9375 47.8516 -37.4512 Z M 33.4473 11.084 C 40.4297 11.084 46.0449 5.46875 46.0449 -1.5625 C 46.0449 -6.44531 43.3105 -10.4492 39.2578 -12.6465 C 37.5977 -13.5254 37.0605 -14.209 37.0605 -16.6992 L 37.0605 -64.0625 C 37.0605 -66.7969 35.498 -68.457 33.4473 -68.457 C 31.3965 -68.457 29.834 -66.7969 29.834 -64.0625 L 29.834 -16.6992 C 29.834 -14.209 29.2969 -13.5254 27.5879 -12.6465 C 23.584 -10.4492 20.8496 -6.44531 20.8496 -1.5625 C 20.8496 5.46875 26.4648 11.084 33.4473 11.084 Z M 91.6016 -50.2441 L 103.516 -50.2441 C 105.176 -50.2441 106.543 -51.6113 106.543 -53.3203 C 106.592 -54.9805 105.176 -56.3477 103.516 -56.3477 L 91.6016 -56.3477 C 89.9902 -56.3477 88.5742 -54.9805 88.5742 -53.3203 C 88.5742 -51.6113 89.9902 -50.2441 91.6016 -50.2441 Z M 87.7441 -17.9199 C 88.916 -16.6992 90.8691 -16.748 92.041 -17.9688 C 93.2129 -19.1406 93.2129 -21.0449 92.041 -22.2656 L 83.5938 -30.6641 C 82.4219 -31.7871 80.4688 -31.8359 79.2969 -30.6641 C 78.125 -29.4922 78.125 -27.4902 79.2969 -26.3184 Z"/>
  </g>
  <g id="Thin-M" transform="matrix(1 0 0 1 799.733 1126)">
   <path d="M 55.6152 -86.9629 C 56.5918 -86.9629 57.4219 -87.793 57.4219 -88.6719 L 57.4219 -102.295 C 57.4219 -103.271 56.5918 -104.053 55.6152 -104.053 C 54.6387 -104.053 53.8086 -103.271 53.8086 -102.295 L 53.8086 -88.6719 C 53.8086 -87.793 54.6387 -86.9629 55.6152 -86.9629 Z M 78.1738 -77.5391 C 78.8574 -76.8555 79.9805 -76.8555 80.6641 -77.5391 L 90.332 -87.1582 C 91.0645 -87.8906 90.9668 -89.0137 90.332 -89.6484 C 89.6484 -90.332 88.5742 -90.3809 87.8418 -89.6484 L 78.1738 -80.0293 C 77.4902 -79.3457 77.5391 -78.2227 78.1738 -77.5391 Z M 32.373 23.1445 C 45.459 23.1445 56.0059 12.5488 56.0059 -0.439453 C 56.0059 -7.42188 53.125 -13.5254 47.168 -18.3594 C 45.8008 -19.4824 45.459 -20.3125 45.459 -22.2656 L 45.459 -34.375 C 48.6328 -32.7637 52.0996 -31.9824 55.6152 -31.9824 C 68.4082 -31.9824 78.6133 -42.1875 78.6133 -55.0293 C 78.6133 -67.8223 68.4082 -78.0762 55.6152 -78.0762 C 51.8066 -78.0762 48.1445 -77.0996 44.6289 -75.1465 C 42.8223 -80.8105 38.3789 -84.1797 32.373 -84.1797 C 24.4141 -84.1797 19.2383 -78.2715 19.2383 -69.1406 L 19.2871 -22.2656 C 19.2871 -20.3125 18.9453 -19.4824 17.5293 -18.3594 C 11.5723 -13.5254 8.74023 -7.42188 8.74023 -0.439453 C 8.74023 12.5488 19.2383 23.1445 32.373 23.1445 Z M 32.373 19.8242 C 21.2402 19.8242 12.1094 10.6934 12.1094 -0.439453 C 12.1094 -6.64062 14.7461 -12.3047 20.2637 -16.2109 C 22.0215 -17.4316 22.6562 -18.9453 22.6562 -21.1426 L 22.6562 -68.9941 C 22.6562 -76.3672 26.6113 -80.7617 32.373 -80.7617 C 38.1348 -80.7617 42.041 -76.3672 42.041 -68.9941 L 42.041 -21.1426 C 42.041 -18.9453 42.7246 -17.4316 44.4824 -16.2109 C 50 -12.3047 52.6367 -6.64062 52.6367 -0.439453 C 52.6367 10.6934 43.5059 19.8242 32.373 19.8242 Z M 45.5078 -69.1406 C 45.5078 -69.9707 45.459 -70.752 45.3613 -71.5332 C 48.6328 -73.584 52.1484 -74.6582 55.6152 -74.6582 C 66.6016 -74.6582 75.1953 -66.0156 75.1953 -55.0293 C 75.1953 -44.043 66.6016 -35.4004 55.6152 -35.4004 C 52.0996 -35.4004 48.6328 -36.2793 45.459 -38.0859 Z M 32.373 13.2812 C 39.9414 13.2812 45.9961 7.17773 45.9961 -0.439453 C 45.9961 -5.76172 43.0664 -10.1074 38.6719 -12.4512 C 36.8652 -13.4277 36.2793 -14.1602 36.2793 -16.8457 L 36.2793 -64.1602 C 36.2793 -67.1387 34.6191 -68.9941 32.373 -68.9941 C 30.127 -68.9941 28.4668 -67.1387 28.4668 -64.1602 L 28.4668 -16.8457 C 28.4668 -14.1602 27.8809 -13.4277 26.0742 -12.4512 C 21.6797 -10.1074 18.7012 -5.76172 18.7012 -0.439453 C 18.7012 7.17773 24.8047 13.2812 32.373 13.2812 Z M 89.209 -53.2715 L 102.832 -53.2715 C 103.857 -53.2715 104.59 -54.0527 104.639 -55.0293 C 104.688 -56.0059 103.857 -56.7871 102.832 -56.7871 L 89.209 -56.7871 C 88.2812 -56.7871 87.4512 -56.0059 87.4512 -55.0293 C 87.4512 -54.0527 88.2812 -53.2715 89.209 -53.2715 Z M 87.8418 -20.2148 C 88.5742 -19.4824 89.6484 -19.5312 90.332 -20.2148 C 90.9668 -20.8984 91.0645 -21.9727 90.332 -22.7051 L 80.6641 -32.3242 C 79.9805 -33.0078 78.8574 -33.0078 78.1738 -32.3242 C 77.4902 -31.6895 77.4902 -30.5176 78.1738 -29.8828 Z"/>
  </g>
  <g id="Ultralight-M" transform="matrix(1 0 0 1 503.51 1126)">
   <path d="M 55.0781 -87.793 C 55.6641 -87.793 56.2012 -88.3301 56.2012 -88.8672 L 56.2012 -103.418 C 56.2012 -104.004 55.6641 -104.492 55.0781 -104.492 C 54.4922 -104.492 53.9551 -104.004 53.9551 -103.418 L 53.9551 -88.8672 C 53.9551 -88.3301 54.4922 -87.793 55.0781 -87.793 Z M 77.6367 -78.418 C 78.0273 -77.9785 78.7598 -77.9785 79.1504 -78.418 L 89.4531 -88.6719 C 89.9414 -89.1602 89.8438 -89.7949 89.4531 -90.2344 C 89.0137 -90.625 88.3789 -90.6738 87.8906 -90.2344 L 77.6367 -79.9316 C 77.1973 -79.541 77.1973 -78.8086 77.6367 -78.418 Z M 31.8359 23.1445 C 44.6289 23.1445 54.8828 12.793 54.8828 0.146484 C 54.8828 -6.73828 52.0996 -12.6953 46.0938 -17.4316 C 44.6289 -18.6035 44.2383 -19.4824 44.2383 -21.6309 L 44.2383 -35.9375 C 47.6562 -34.082 51.3184 -33.1543 55.0781 -33.1543 C 67.627 -33.1543 77.7344 -43.2617 77.7344 -55.9082 C 77.7344 -68.5547 67.627 -78.6133 55.0781 -78.6133 C 51.0254 -78.6133 47.168 -77.4902 43.4082 -75.293 C 41.6992 -80.6641 37.5 -83.8379 31.8359 -83.8379 C 24.2676 -83.8379 19.3359 -78.1738 19.3359 -69.3848 L 19.3848 -21.6309 C 19.3848 -19.4824 19.043 -18.6035 17.5293 -17.4316 C 11.5234 -12.6953 8.74023 -6.73828 8.74023 0.146484 C 8.74023 12.793 18.9941 23.1445 31.8359 23.1445 Z M 31.8359 20.8984 C 20.4102 20.8984 11.0352 11.5723 11.0352 0.146484 C 11.0352 -6.10352 13.5742 -11.7676 19.1895 -15.8691 C 20.9961 -17.1387 21.6797 -18.7988 21.6797 -21.0449 L 21.6797 -69.2383 C 21.6797 -77.002 25.8301 -81.4941 31.8359 -81.4941 C 37.8418 -81.4941 41.9434 -77.002 41.9434 -69.2383 L 41.9434 -21.0449 C 41.9434 -18.7988 42.627 -17.1387 44.4336 -15.8691 C 50.0488 -11.7676 52.6367 -6.10352 52.6367 0.146484 C 52.6367 11.5723 43.2617 20.8984 31.8359 20.8984 Z M 44.2871 -69.3848 C 44.2871 -70.5566 44.1895 -71.7285 44.043 -72.8027 C 47.5586 -75.0977 51.3184 -76.2695 55.0781 -76.2695 C 66.4551 -76.2695 75.3906 -67.2852 75.3906 -55.9082 C 75.3906 -44.5312 66.4551 -35.498 55.0781 -35.498 C 51.3672 -35.498 47.6562 -36.4258 44.2383 -38.3789 Z M 31.8359 14.3555 C 39.6973 14.3555 45.9961 8.05664 45.9961 0.146484 C 45.9961 -5.37109 42.9688 -9.96094 38.3789 -12.4023 C 36.5234 -13.3789 35.8887 -14.1113 35.8887 -16.9434 L 35.8887 -64.1602 C 35.8887 -67.334 34.1797 -69.2383 31.8359 -69.2383 C 29.4434 -69.2383 27.7344 -67.334 27.7344 -64.1602 L 27.7344 -16.9434 C 27.7344 -14.1113 27.1484 -13.3789 25.2441 -12.4023 C 20.7031 -9.96094 17.627 -5.37109 17.627 0.146484 C 17.627 8.05664 23.9258 14.3555 31.8359 14.3555 Z M 87.9883 -54.834 L 102.49 -54.834 C 103.174 -54.834 103.564 -55.3223 103.662 -55.9082 C 103.711 -56.4941 103.174 -56.9824 102.49 -56.9824 L 87.9883 -56.9824 C 87.4023 -56.9824 86.9141 -56.4941 86.9141 -55.9082 C 86.9141 -55.3223 87.4023 -54.834 87.9883 -54.834 Z M 87.8906 -21.3867 C 88.3789 -20.8984 89.0137 -20.9961 89.4531 -21.3867 C 89.8438 -21.8262 89.9414 -22.4609 89.4531 -22.9492 L 79.1504 -33.2031 C 78.7598 -33.6426 78.0273 -33.6426 77.6367 -33.2031 C 77.1973 -32.8125 77.1973 -32.0801 77.6367 -31.6895 Z"/>
  </g>
  <g id="Black-S" transform="matrix(1 0 0 1 2881.54 696)">
   <path d="M 54.8828 -80.2734 C 57.5195 -80.2734 59.668 -82.5195 59.668 -85.1562 L 59.668 -91.4062 C 59.668 -94.0918 57.5195 -96.2891 54.8828 -96.2891 C 52.2461 -96.2891 50.0977 -94.0918 50.0977 -91.4062 L 50.0977 -85.1562 C 50.0977 -82.5195 52.2461 -80.2734 54.8828 -80.2734 Z M 73.3398 -72.6074 C 75.1953 -70.752 78.3203 -70.8496 80.1758 -72.7051 L 84.6191 -77.0996 C 86.5234 -78.9551 86.5234 -82.0801 84.668 -83.9355 C 82.8125 -85.791 79.7363 -85.7422 77.832 -83.8379 L 73.3887 -79.4922 C 71.4844 -77.6367 71.4844 -74.4629 73.3398 -72.6074 Z M 32.2754 11.4746 C 46.2402 11.4746 57.6172 0.537109 57.6172 -13.4766 C 57.6172 -20.0684 55.1758 -25.7324 50.6348 -30.2734 C 49.9023 -31.0059 49.7559 -31.3477 49.7559 -32.3242 L 49.7559 -33.6426 C 51.416 -33.252 53.125 -33.0078 54.9316 -33.0078 C 66.6016 -33.0078 76.0254 -42.4316 76.0254 -54.248 C 76.0254 -66.0156 66.6016 -75.4395 54.9316 -75.4395 C 51.9043 -75.4395 49.0234 -74.8047 46.3867 -73.6816 C 43.3105 -78.0762 38.3789 -80.6641 32.2754 -80.6641 C 21.7285 -80.6641 14.6484 -73.1445 14.6484 -61.9629 L 14.6973 -32.3242 C 14.6973 -31.3477 14.5508 -30.957 13.8184 -30.2734 C 9.13086 -25.9277 6.83594 -20.0684 6.83594 -13.4766 C 6.83594 0.537109 18.2129 11.4746 32.2754 11.4746 Z M 32.2754 0 C 24.5605 0 18.3594 -6.25 18.3594 -13.9648 C 18.3594 -19.1406 20.7031 -22.9492 24.6582 -25.5371 C 25.7812 -26.2695 26.2207 -26.8555 26.2207 -28.3691 L 26.2207 -61.6699 C 26.2207 -66.1621 28.6621 -69.1406 32.2754 -69.1406 C 35.791 -69.1406 38.2324 -66.1621 38.2324 -61.6699 L 38.2324 -28.3691 C 38.2324 -26.8555 38.6719 -26.2695 39.7949 -25.5371 C 43.75 -22.9492 46.0938 -19.1406 46.0938 -13.9648 C 46.0938 -6.25 39.8926 0 32.2754 0 Z M 49.8047 -61.9629 C 49.8047 -62.7441 49.7559 -63.4766 49.707 -64.209 C 51.2207 -64.9902 52.9785 -65.4297 54.8828 -65.4297 C 61.0352 -65.4297 66.0156 -60.4492 66.0156 -54.248 C 66.0156 -47.998 61.0352 -43.0176 54.8828 -43.0176 C 53.0273 -43.0176 51.3184 -43.457 49.7559 -44.2383 Z M 32.2266 -5.17578 C 37.0605 -5.17578 40.9668 -9.08203 40.9668 -13.9648 C 40.9668 -17.334 39.0625 -20.1172 36.2793 -21.6309 C 35.1074 -22.2656 34.7168 -22.7051 34.7168 -24.4629 L 34.7168 -58.6914 C 34.7168 -60.5469 33.5938 -61.6699 32.2266 -61.6699 C 30.8594 -61.6699 29.7363 -60.5469 29.7363 -58.6914 L 29.7363 -24.4629 C 29.7363 -22.7051 29.3457 -22.2656 28.1738 -21.6309 C 25.3906 -20.1172 23.4863 -17.334 23.4863 -13.9648 C 23.4863 -9.08203 27.3926 -5.17578 32.2266 -5.17578 Z M 85.7422 -49.5117 L 91.9922 -49.4629 C 94.6777 -49.4629 96.875 -51.6113 96.875 -54.248 C 96.875 -56.8848 94.6777 -59.0332 91.9922 -59.0332 L 85.7422 -59.082 C 83.1055 -59.082 80.8594 -56.8848 80.8594 -54.248 C 80.8594 -51.6113 83.1055 -49.5117 85.7422 -49.5117 Z M 77.7832 -24.6094 C 79.6875 -22.7051 82.7637 -22.6562 84.6191 -24.5117 C 86.4746 -26.3672 86.377 -29.3945 84.5215 -31.3477 L 80.1758 -35.8398 C 78.3691 -37.7441 75.1465 -37.6953 73.291 -35.8398 C 71.4355 -33.9844 71.5332 -30.9082 73.3887 -29.0527 Z"/>
  </g>
  <g id="Heavy-S" transform="matrix(1 0 0 1 2586.2 696)">
   <path d="M 52.6855 -78.5156 C 55.1758 -78.5156 57.1777 -80.6152 57.1777 -83.1055 L 57.1777 -89.6973 C 57.1777 -92.1875 55.1758 -94.2871 52.6855 -94.2871 C 50.1953 -94.2871 48.1445 -92.1875 48.1445 -89.6973 L 48.1445 -83.1055 C 48.1445 -80.6152 50.1953 -78.5156 52.6855 -78.5156 Z M 70.9473 -70.8984 C 72.6562 -69.1406 75.6348 -69.2383 77.3926 -70.9961 L 82.0312 -75.6348 C 83.8379 -77.3926 83.8379 -80.3223 82.0801 -82.0801 C 80.3223 -83.7891 77.4414 -83.7891 75.6348 -81.9824 L 70.9961 -77.3926 C 69.1895 -75.6348 69.1895 -72.6562 70.9473 -70.8984 Z M 31.1035 11.2305 C 44.3848 11.2305 55.2734 0.732422 55.2734 -12.6465 C 55.2734 -19.043 52.832 -24.6094 48.291 -29.0527 C 47.5098 -29.7852 47.3633 -30.1758 47.3633 -31.1523 L 47.4121 -32.6172 C 49.0723 -32.1777 50.8789 -31.9336 52.6855 -31.9336 C 64.1113 -31.9336 73.3398 -41.1621 73.3398 -52.7344 C 73.3398 -64.209 64.1113 -73.4375 52.6855 -73.4375 C 49.9023 -73.4375 47.2168 -72.9004 44.8242 -71.875 C 42.041 -76.5137 37.1582 -79.248 31.1035 -79.248 C 21.2402 -79.248 14.6484 -72.2168 14.6484 -61.7676 L 14.6973 -31.1523 C 14.6973 -30.1758 14.5508 -29.7363 13.8184 -29.0527 C 9.17969 -24.7559 6.83594 -19.043 6.83594 -12.6465 C 6.83594 0.732422 17.6758 11.2305 31.1035 11.2305 Z M 31.1035 0.976562 C 23.3398 0.976562 17.1387 -5.27344 17.1387 -12.9883 C 17.1387 -18.0664 19.4824 -22.0215 23.4375 -24.6094 C 24.5605 -25.3418 25 -25.9277 25 -27.4414 L 25 -61.4746 C 25 -65.9668 27.4902 -68.9453 31.1035 -68.9453 C 34.6191 -68.9453 37.0605 -65.9668 37.0605 -61.4746 L 37.0605 -27.4414 C 37.0605 -25.9277 37.5 -25.3418 38.623 -24.6094 C 42.5781 -22.0215 44.9219 -18.0664 44.9219 -12.9883 C 44.9219 -5.27344 38.7207 0.976562 31.1035 0.976562 Z M 47.4121 -61.7676 C 47.4121 -62.1582 47.4121 -62.5977 47.4121 -62.9883 C 48.9746 -63.8184 50.7324 -64.3066 52.6855 -64.3066 C 59.0332 -64.3066 64.1602 -59.1797 64.1602 -52.7344 C 64.1602 -46.2402 59.0332 -41.1133 52.6855 -41.1133 C 50.7324 -41.1133 48.9746 -41.5527 47.4121 -42.3828 Z M 31.0547 -4.19922 C 35.8887 -4.19922 39.7949 -8.10547 39.7949 -12.9883 C 39.7949 -16.4062 37.8906 -19.1895 35.1074 -20.7031 C 33.9355 -21.3379 33.5449 -21.7773 33.5449 -23.5352 L 33.5449 -58.4473 C 33.5449 -60.3027 32.4219 -61.4746 31.0547 -61.4746 C 29.6875 -61.4746 28.5645 -60.3027 28.5645 -58.4473 L 28.5645 -23.5352 C 28.5645 -21.7773 28.1738 -21.3379 27.002 -20.7031 C 24.1699 -19.1895 22.2656 -16.4062 22.2656 -12.9883 C 22.2656 -8.10547 26.1719 -4.19922 31.0547 -4.19922 Z M 83.0078 -48.2422 L 89.5508 -48.1934 C 92.0898 -48.1934 94.1406 -50.2441 94.1406 -52.7344 C 94.1406 -55.2246 92.0898 -57.2266 89.5508 -57.2266 L 83.0078 -57.2754 C 80.5176 -57.2754 78.418 -55.2246 78.418 -52.7344 C 78.418 -50.2441 80.5176 -48.2422 83.0078 -48.2422 Z M 75.6348 -23.3887 C 77.3926 -21.6309 80.3223 -21.582 82.0312 -23.3398 C 83.7891 -25.0977 83.7402 -27.9297 81.9824 -29.7363 L 77.3438 -34.4727 C 75.6348 -36.2305 72.6562 -36.2305 70.8984 -34.4727 C 69.1406 -32.7148 69.2383 -29.834 70.9961 -28.0762 Z"/>
  </g>
  <g id="Bold-S" transform="matrix(1 0 0 1 2291 696)">
   <path d="M 50.1953 -76.5625 C 52.4902 -76.5625 54.3945 -78.5156 54.3945 -80.8105 L 54.3945 -87.7441 C 54.3945 -90.0879 52.4902 -91.9922 50.1953 -91.9922 C 47.8516 -91.9922 45.9473 -90.0879 45.9473 -87.7441 L 45.9473 -80.8105 C 45.9473 -78.5156 47.8516 -76.5625 50.1953 -76.5625 Z M 68.2617 -69.043 C 69.873 -67.3828 72.6074 -67.4316 74.2676 -69.0918 L 79.1504 -73.9746 C 80.8105 -75.5859 80.8105 -78.3203 79.1992 -79.9805 C 77.5879 -81.5918 74.9023 -81.5918 73.2422 -79.9316 L 68.2617 -75 C 66.6016 -73.3887 66.6504 -70.6543 68.2617 -69.043 Z M 29.7852 10.9863 C 42.3828 10.9863 52.5879 0.976562 52.5879 -11.6699 C 52.5879 -17.9199 50.1953 -23.3398 45.6055 -27.7344 C 44.873 -28.418 44.7266 -28.8086 44.7266 -29.7852 L 44.7266 -31.543 C 46.4844 -31.0547 48.291 -30.7617 50.1953 -30.7617 C 61.377 -30.7617 70.3125 -39.7461 70.3125 -51.0254 C 70.3125 -62.207 61.377 -71.1914 50.1953 -71.1914 C 47.6562 -71.1914 45.2148 -70.7031 42.9688 -69.8242 C 40.5273 -74.7559 35.791 -77.6855 29.7852 -77.6855 C 20.752 -77.6855 14.6484 -71.1914 14.6484 -61.5234 L 14.6973 -29.7852 C 14.6973 -28.8086 14.5508 -28.418 13.8184 -27.7344 C 9.17969 -23.4375 6.83594 -17.9199 6.83594 -11.6699 C 6.83594 0.976562 17.0898 10.9863 29.7852 10.9863 Z M 29.7852 2.09961 C 22.0215 2.09961 15.7715 -4.19922 15.7715 -11.9141 C 15.7715 -16.8945 18.1152 -20.9473 22.0703 -23.5352 C 23.2422 -24.2676 23.6816 -24.9023 23.6816 -26.416 L 23.6816 -61.2305 C 23.6816 -65.7227 26.123 -68.75 29.7852 -68.75 C 33.3008 -68.75 35.791 -65.7227 35.791 -61.2305 L 35.791 -26.416 C 35.791 -24.9023 36.2305 -24.2676 37.3535 -23.5352 C 41.3086 -20.9473 43.6523 -16.8945 43.6523 -11.9141 C 43.6523 -4.19922 37.4023 2.09961 29.7852 2.09961 Z M 44.7754 -61.5234 L 44.7754 -61.6211 C 46.3867 -62.5 48.1934 -62.9883 50.1953 -62.9883 C 56.8359 -62.9883 62.1094 -57.7148 62.1094 -51.0254 C 62.1094 -44.2871 56.8359 -38.9648 50.1953 -38.9648 C 48.2422 -38.9648 46.3867 -39.4531 44.7266 -40.2832 Z M 29.7363 -3.07617 C 34.5703 -3.07617 38.5254 -7.03125 38.5254 -11.9629 C 38.5254 -15.332 36.6211 -18.1641 33.7891 -19.6777 C 32.6172 -20.3125 32.2266 -20.752 32.2266 -22.5098 L 32.2266 -58.2031 C 32.2266 -60.0586 31.1035 -61.2305 29.7363 -61.2305 C 28.3203 -61.2305 27.1973 -60.0586 27.1973 -58.2031 L 27.1973 -22.5098 C 27.1973 -20.752 26.8066 -20.3125 25.6348 -19.6777 C 22.8516 -18.1641 20.8984 -15.332 20.8984 -11.9629 C 20.8984 -7.03125 24.8535 -3.07617 29.7363 -3.07617 Z M 79.9316 -46.8262 L 86.8652 -46.7773 C 89.1602 -46.7773 91.1133 -48.6816 91.1133 -51.0254 C 91.1133 -53.3203 89.1602 -55.2246 86.8652 -55.2246 L 79.9316 -55.2246 C 77.5879 -55.2246 75.6348 -53.3203 75.6348 -51.0254 C 75.6348 -48.6816 77.5879 -46.8262 79.9316 -46.8262 Z M 73.1934 -22.0215 C 74.8535 -20.3613 77.5391 -20.3613 79.1504 -22.0215 C 80.8105 -23.6328 80.7617 -26.3184 79.1016 -27.9785 L 74.2188 -32.959 C 72.6074 -34.5703 69.873 -34.5703 68.2129 -32.959 C 66.6016 -31.2988 66.6504 -28.6133 68.2617 -26.9531 Z"/>
  </g>
  <g id="Semibold-S" transform="matrix(1 0 0 1 1995.34 696)">
   <path d="M 48.4863 -75.1953 C 50.6836 -75.1953 52.4902 -77.0508 52.4902 -79.248 L 52.4902 -86.4258 C 52.4902 -88.623 50.6836 -90.4785 48.4863 -90.4785 C 46.2402 -90.4785 44.4336 -88.623 44.4336 -86.4258 L 44.4336 -79.248 C 44.4336 -77.0508 46.2402 -75.1953 48.4863 -75.1953 Z M 66.4062 -67.7246 C 67.9199 -66.1621 70.5566 -66.1621 72.1191 -67.7246 L 77.1973 -72.8516 C 78.7598 -74.3652 78.7598 -77.002 77.1973 -78.5156 C 75.6348 -80.0781 73.0957 -80.0781 71.5332 -78.5156 L 66.4062 -73.3887 C 64.8438 -71.8262 64.8926 -69.2871 66.4062 -67.7246 Z M 28.8574 10.791 C 40.9668 10.791 50.7812 1.12305 50.7812 -11.0352 C 50.7812 -17.1387 48.3398 -22.4609 43.7988 -26.8066 C 43.0664 -27.4902 42.9199 -27.8809 42.9199 -28.9062 L 42.9199 -30.7617 C 44.6777 -30.2246 46.5332 -29.9805 48.4863 -29.9805 C 59.4727 -29.9805 68.2617 -38.8184 68.2617 -49.8047 C 68.2617 -60.8398 59.4727 -69.6777 48.4863 -69.6777 C 46.0449 -69.6777 43.75 -69.2383 41.6016 -68.4082 C 39.4531 -73.4863 34.8145 -76.6113 28.8574 -76.6113 C 20.3613 -76.6113 14.6484 -70.459 14.6484 -61.3281 L 14.6973 -28.9062 C 14.6973 -27.8809 14.5508 -27.4902 13.8184 -26.8066 C 9.22852 -22.5586 6.83594 -17.1387 6.83594 -11.0352 C 6.83594 1.12305 16.6504 10.791 28.8574 10.791 Z M 28.8574 2.83203 C 21.0938 2.83203 14.8438 -3.4668 14.8438 -11.1816 C 14.8438 -16.0645 17.1875 -20.2148 21.1426 -22.8027 C 22.3145 -23.584 22.7539 -24.1699 22.7539 -25.6836 L 22.7539 -61.0352 C 22.7539 -65.5762 25.1953 -68.6035 28.8574 -68.6035 C 32.4219 -68.6035 34.8633 -65.5762 34.8633 -61.0352 L 34.8633 -25.6836 C 34.8633 -24.1699 35.3516 -23.584 36.4746 -22.8027 C 40.4297 -20.2148 42.7734 -16.0645 42.7734 -11.1816 C 42.7734 -3.4668 36.5234 2.83203 28.8574 2.83203 Z M 48.4863 -62.1094 C 55.3223 -62.1094 60.6934 -56.7383 60.6934 -49.8047 C 60.6934 -42.9199 55.3223 -37.5 48.4863 -37.5 C 46.4844 -37.5 44.5801 -37.9883 42.9199 -38.8672 L 42.9688 -60.6934 C 44.5801 -61.6211 46.4355 -62.1094 48.4863 -62.1094 Z M 28.8086 -2.34375 C 33.6914 -2.34375 37.6465 -6.29883 37.6465 -11.2305 C 37.6465 -14.5996 35.6934 -17.4316 32.9102 -18.9453 C 31.7383 -19.5801 31.3477 -20.0195 31.3477 -21.8262 L 31.3477 -58.0566 C 31.3477 -59.9121 30.1758 -61.0352 28.8086 -61.0352 C 27.4414 -61.0352 26.3184 -59.9121 26.3184 -58.0566 L 26.3184 -21.8262 C 26.3184 -20.0195 25.8789 -19.5801 24.707 -18.9453 C 21.9238 -17.4316 19.9707 -14.5996 19.9707 -11.2305 C 19.9707 -6.29883 23.9258 -2.34375 28.8086 -2.34375 Z M 77.7832 -45.8008 L 84.9609 -45.8008 C 87.1582 -45.8008 89.0137 -47.6074 89.0137 -49.8047 C 89.0137 -52.0508 87.1582 -53.8574 84.9609 -53.8574 L 77.7832 -53.8574 C 75.5859 -53.8574 73.7305 -52.0508 73.7305 -49.8047 C 73.7305 -47.6074 75.5859 -45.8008 77.7832 -45.8008 Z M 71.5332 -21.0938 C 73.0957 -19.5312 75.6348 -19.5312 77.1973 -21.0938 C 78.7598 -22.6562 78.7109 -25.1953 77.1484 -26.7578 L 72.0703 -31.8848 C 70.5078 -33.3984 67.9199 -33.4473 66.3574 -31.8848 C 64.8438 -30.3223 64.8438 -27.7344 66.4062 -26.2207 Z"/>
  </g>
  <g id="Medium-S" transform="matrix(1 0 0 1 1699.44 696)">
   <path d="M 47.168 -74.1699 C 49.3164 -74.1699 51.0254 -75.9277 51.0254 -78.0273 L 51.0254 -85.4004 C 51.0254 -87.5488 49.3164 -89.2578 47.168 -89.2578 C 45.0195 -89.2578 43.3105 -87.5488 43.3105 -85.4004 L 43.3105 -78.0273 C 43.3105 -75.9277 45.0195 -74.1699 47.168 -74.1699 Z M 64.9902 -66.748 C 66.4551 -65.2344 68.9453 -65.2344 70.459 -66.748 L 75.6836 -71.9727 C 77.1973 -73.4863 77.1973 -75.9277 75.6836 -77.4414 C 74.2188 -78.9062 71.7773 -78.9062 70.2637 -77.3926 L 64.9902 -72.168 C 63.4766 -70.6543 63.5254 -68.2129 64.9902 -66.748 Z M 28.1738 10.6934 C 39.8926 10.6934 49.4141 1.2207 49.4141 -10.5469 C 49.4141 -16.5527 46.9727 -21.8262 42.4316 -26.0742 C 41.6504 -26.8066 41.5039 -27.1973 41.5039 -28.1738 L 41.5039 -30.1758 C 43.3105 -29.6387 45.2148 -29.3457 47.168 -29.3457 C 58.0078 -29.3457 66.6992 -38.0859 66.6992 -48.9258 C 66.6992 -59.7656 58.0078 -68.5059 47.168 -68.5059 C 44.873 -68.5059 42.627 -68.0664 40.5273 -67.2852 C 38.623 -72.5586 34.082 -75.7812 28.1738 -75.7812 C 20.1172 -75.7812 14.6484 -69.9219 14.6484 -61.1816 L 14.6973 -28.1738 C 14.6973 -27.1973 14.5508 -26.8066 13.8184 -26.0742 C 9.22852 -21.875 6.83594 -16.5527 6.83594 -10.5469 C 6.83594 1.2207 16.3574 10.6934 28.1738 10.6934 Z M 28.1738 3.41797 C 20.4102 3.41797 14.1602 -2.88086 14.1602 -10.5957 C 14.1602 -15.4297 16.4551 -19.6777 20.459 -22.2656 C 21.582 -22.998 22.0215 -23.6328 22.0215 -25.1465 L 22.0215 -60.9375 C 22.0215 -65.4785 24.5117 -68.457 28.1738 -68.457 C 31.7383 -68.457 34.2285 -65.4785 34.2285 -60.9375 L 34.2285 -25.1465 C 34.2285 -23.6328 34.668 -22.998 35.791 -22.2656 C 39.7461 -19.6777 42.0898 -15.4297 42.0898 -10.5957 C 42.0898 -2.88086 35.8398 3.41797 28.1738 3.41797 Z M 47.168 -61.4746 C 54.1504 -61.4746 59.668 -55.957 59.668 -48.9258 C 59.668 -41.8945 54.1504 -36.377 47.168 -36.377 C 45.166 -36.377 43.2129 -36.8652 41.5527 -37.793 L 41.5527 -60.0098 C 43.2129 -60.9375 45.1172 -61.4746 47.168 -61.4746 Z M 28.125 -1.75781 C 33.0078 -1.75781 36.9629 -5.76172 36.9629 -10.6445 C 36.9629 -14.0625 35.0586 -16.8945 32.2266 -18.4082 C 31.0547 -19.043 30.6152 -19.4824 30.6152 -21.2891 L 30.6152 -57.9102 C 30.6152 -59.7656 29.4922 -60.9375 28.125 -60.9375 C 26.709 -60.9375 25.5859 -59.7656 25.5859 -57.9102 L 25.5859 -21.2891 C 25.5859 -19.4824 25.1953 -19.043 24.0234 -18.4082 C 21.1914 -16.8945 19.2871 -14.0625 19.2871 -10.6445 C 19.2871 -5.71289 23.2422 -1.75781 28.125 -1.75781 Z M 76.1719 -45.0684 L 83.5449 -45.0684 C 85.6445 -45.0684 87.4023 -46.7773 87.4023 -48.9258 C 87.4023 -51.0742 85.6445 -52.7832 83.5449 -52.7832 L 76.1719 -52.7832 C 74.0723 -52.7832 72.3145 -51.0742 72.3145 -48.9258 C 72.3145 -46.7773 74.0723 -45.0684 76.1719 -45.0684 Z M 70.2637 -20.4102 C 71.7773 -18.8965 74.2188 -18.8965 75.6836 -20.4102 C 77.1973 -21.875 77.1484 -24.3652 75.6836 -25.8301 L 70.4102 -31.0547 C 68.9453 -32.5195 66.4551 -32.5684 64.9902 -31.0547 C 63.4766 -29.5898 63.5254 -27.0996 64.9902 -25.6348 Z"/>
  </g>
  <g id="Regular-S" transform="matrix(1 0 0 1 1403.78 696)">
   <path d="M 45.459 -72.8027 C 47.5098 -72.8027 49.1211 -74.5117 49.1211 -76.4648 L 49.1211 -84.082 C 49.1211 -86.084 47.5098 -87.7441 45.459 -87.7441 C 43.457 -87.7441 41.7969 -86.084 41.7969 -84.082 L 41.7969 -76.4648 C 41.7969 -74.5117 43.457 -72.8027 45.459 -72.8027 Z M 63.1348 -65.4297 C 64.502 -64.0137 66.8945 -63.9648 68.3594 -65.4297 L 73.7305 -70.8496 C 75.1465 -72.2656 75.1465 -74.6094 73.7305 -76.0254 C 72.3145 -77.3926 70.0195 -77.3926 68.6035 -76.0254 L 63.1348 -70.5566 C 61.7676 -69.1406 61.8164 -66.8457 63.1348 -65.4297 Z M 27.2461 10.498 C 38.4766 10.498 47.6074 1.36719 47.6074 -9.86328 C 47.6074 -15.7715 45.166 -20.9473 40.625 -25.1953 C 39.8438 -25.8789 39.6973 -26.2695 39.6973 -27.2949 L 39.6973 -29.4434 C 41.5527 -28.8574 43.457 -28.5645 45.459 -28.5645 C 56.1035 -28.5645 64.6484 -37.1094 64.6484 -47.7539 C 64.6484 -58.3984 56.1035 -66.9922 45.459 -66.9922 C 43.2617 -66.9922 41.1133 -66.5527 39.1113 -65.8691 C 37.5 -71.2891 33.1055 -74.707 27.2461 -74.707 C 19.7266 -74.707 14.6973 -69.2383 14.6973 -61.0352 L 14.7461 -27.2949 C 14.7461 -26.2695 14.5508 -25.8789 13.8184 -25.1953 C 9.27734 -20.9473 6.83594 -15.7715 6.83594 -9.86328 C 6.83594 1.36719 15.9668 10.498 27.2461 10.498 Z M 27.2461 4.15039 C 19.4824 4.15039 13.2324 -2.14844 13.2324 -9.86328 C 13.2324 -14.6484 15.5273 -18.9453 19.5312 -21.5332 C 20.6543 -22.3145 21.0938 -22.9004 21.0938 -24.4629 L 21.0938 -60.7422 C 21.0938 -65.332 23.584 -68.3594 27.2461 -68.3594 C 30.8594 -68.3594 33.3008 -65.332 33.3008 -60.7422 L 33.3008 -24.4629 C 33.3008 -22.9004 33.7891 -22.3145 34.9121 -21.5332 C 38.8672 -18.9453 41.2109 -14.6484 41.2109 -9.86328 C 41.2109 -2.14844 34.9609 4.15039 27.2461 4.15039 Z M 27.1973 -1.02539 C 32.1289 -1.02539 36.084 -5.0293 36.084 -9.91211 C 36.084 -13.3301 34.1309 -16.1621 31.3477 -17.7246 C 30.127 -18.3594 29.7363 -18.7988 29.7363 -20.5566 L 29.7363 -57.7148 C 29.7363 -59.6191 28.6133 -60.7422 27.1973 -60.7422 C 25.8301 -60.7422 24.707 -59.6191 24.707 -57.7148 L 24.707 -20.5566 C 24.707 -18.7988 24.3164 -18.3594 23.0957 -17.7246 C 20.2637 -16.1621 18.3594 -13.3301 18.3594 -9.91211 C 18.3594 -4.98047 22.3145 -1.02539 27.1973 -1.02539 Z M 45.459 -60.5957 C 52.6367 -60.5957 58.252 -54.9805 58.252 -47.7539 C 58.252 -40.5273 52.6367 -34.9609 45.459 -34.9609 C 43.4082 -34.9609 41.4551 -35.4492 39.7461 -36.3281 L 39.7461 -59.1309 C 41.4551 -60.0586 43.4082 -60.5957 45.459 -60.5957 Z M 74.0723 -44.0918 L 81.6895 -44.0918 C 83.6914 -44.0918 85.3027 -45.752 85.3027 -47.7539 C 85.3027 -49.7559 83.6914 -51.416 81.6895 -51.416 L 74.0723 -51.416 C 72.1191 -51.416 70.4102 -49.7559 70.4102 -47.7539 C 70.4102 -45.752 72.1191 -44.0918 74.0723 -44.0918 Z M 68.6035 -19.4824 C 70.0195 -18.0664 72.3145 -18.1152 73.7305 -19.4824 C 75.1465 -20.8984 75.1465 -23.2422 73.7305 -24.6094 L 68.2617 -30.0293 C 66.8457 -31.3965 64.5508 -31.4453 63.1348 -30.0293 C 61.7676 -28.6133 61.7676 -26.2695 63.1348 -24.8535 Z"/>
  </g>
  <g id="Light-S" transform="matrix(1 0 0 1 1107.7 696)">
   <path d="M 44.7266 -73.9258 C 46.2891 -73.9258 47.5586 -75.2441 47.5586 -76.709 L 47.5586 -85.498 C 47.5586 -87.0605 46.2891 -88.2812 44.7266 -88.2812 C 43.2129 -88.2812 41.9434 -87.0605 41.9434 -85.498 L 41.9434 -76.709 C 41.9434 -75.2441 43.2129 -73.9258 44.7266 -73.9258 Z M 62.4023 -66.5527 C 63.4766 -65.4785 65.2832 -65.4785 66.3574 -66.5527 L 72.5586 -72.8027 C 73.6816 -73.877 73.6328 -75.6348 72.5586 -76.709 C 71.5332 -77.7832 69.7754 -77.832 68.7012 -76.709 L 62.4023 -70.459 C 61.3281 -69.3848 61.377 -67.627 62.4023 -66.5527 Z M 26.5137 10.498 C 37.4023 10.498 46.1426 1.70898 46.1426 -9.13086 C 46.1426 -14.8438 43.7988 -19.9219 39.209 -23.9746 C 38.3301 -24.707 38.1348 -25.2441 38.1348 -26.4648 L 38.1348 -31.3477 C 40.2344 -30.5664 42.4316 -30.127 44.7266 -30.127 C 55.127 -30.127 63.4766 -38.4766 63.4766 -48.9258 C 63.4766 -59.3262 55.127 -67.6758 44.7266 -67.6758 C 42.2363 -67.6758 39.7949 -67.1387 37.5 -66.1621 C 35.9375 -71.1914 31.9336 -74.2676 26.5137 -74.2676 C 19.4824 -74.2676 14.8438 -69.1406 14.8438 -61.3281 L 14.8926 -26.4648 C 14.8926 -25.2441 14.6484 -24.707 13.7695 -23.9746 C 9.17969 -19.9219 6.83594 -14.8438 6.83594 -9.13086 C 6.83594 1.70898 15.625 10.498 26.5137 10.498 Z M 26.5137 5.61523 C 18.4082 5.61523 11.7676 -1.02539 11.7676 -9.13086 C 11.7676 -13.916 14.0137 -18.2617 18.1152 -21.0938 C 19.3359 -21.9238 19.8242 -22.7539 19.8242 -24.3652 L 19.8242 -61.084 C 19.8242 -66.1621 22.5586 -69.3359 26.5137 -69.3359 C 30.4688 -69.3359 33.1543 -66.1621 33.1543 -61.084 L 33.1543 -24.3652 C 33.1543 -22.7539 33.6426 -21.9238 34.8633 -21.0938 C 38.9648 -18.2617 41.2109 -13.916 41.2109 -9.13086 C 41.2109 -1.02539 34.6191 5.61523 26.5137 5.61523 Z M 44.7266 -62.6953 C 52.4414 -62.6953 58.4961 -56.6406 58.4961 -48.9258 C 58.4961 -41.1621 52.4414 -35.1074 44.7266 -35.1074 C 42.4316 -35.1074 40.1367 -35.6934 38.1348 -36.7676 L 38.1836 -60.8887 C 40.1855 -62.0605 42.4316 -62.6953 44.7266 -62.6953 Z M 26.5137 0.439453 C 31.7871 0.439453 36.084 -3.85742 36.084 -9.17969 C 36.084 -12.8906 33.9844 -15.918 30.9082 -17.5781 C 29.6387 -18.2617 29.248 -18.75 29.248 -20.6543 L 29.248 -57.7637 C 29.248 -59.8633 28.0273 -61.084 26.5137 -61.084 C 24.9512 -61.084 23.7793 -59.8633 23.7793 -57.7637 L 23.7793 -20.6543 C 23.7793 -18.75 23.3398 -18.2617 22.0703 -17.5781 C 18.9941 -15.918 16.9434 -12.8906 16.9434 -9.17969 C 16.9434 -3.80859 21.1914 0.439453 26.5137 0.439453 Z M 72.4609 -46.1426 L 81.25 -46.1426 C 82.7637 -46.1426 84.0332 -47.3633 84.0332 -48.9258 C 84.0332 -50.4395 82.7637 -51.6602 81.25 -51.6602 L 72.4609 -51.6602 C 70.9473 -51.6602 69.6777 -50.4395 69.6777 -48.9258 C 69.6777 -47.3633 70.9473 -46.1426 72.4609 -46.1426 Z M 68.7012 -20.9961 C 69.7754 -19.9219 71.5332 -19.9707 72.5586 -21.0449 C 73.6328 -22.1191 73.6816 -23.877 72.5586 -24.9023 L 66.3086 -31.1523 C 65.2344 -32.1777 63.4766 -32.2266 62.4023 -31.1523 C 61.3281 -30.0781 61.3281 -28.3203 62.4023 -27.2461 Z"/>
  </g>
  <g id="Thin-S" transform="matrix(1 0 0 1 811.842 696)">
   <path d="M 43.7988 -75.4395 C 44.6777 -75.4395 45.4102 -76.1719 45.4102 -77.0508 L 45.4102 -87.4023 C 45.4102 -88.2812 44.6777 -89.0137 43.7988 -89.0137 C 42.8711 -89.0137 42.1387 -88.2812 42.1387 -87.4023 L 42.1387 -77.0508 C 42.1387 -76.1719 42.8711 -75.4395 43.7988 -75.4395 Z M 61.4746 -68.0664 C 62.0605 -67.4316 63.1348 -67.4316 63.7695 -68.0664 L 71.0938 -75.3906 C 71.7285 -76.0254 71.6797 -77.0508 71.0938 -77.6855 C 70.459 -78.2715 69.4336 -78.3203 68.7988 -77.6855 L 61.4746 -70.3613 C 60.8398 -69.7266 60.8398 -68.6523 61.4746 -68.0664 Z M 25.5859 10.498 C 35.9375 10.498 44.2871 2.09961 44.2871 -8.20312 C 44.2871 -13.6719 41.9922 -18.5059 37.3535 -22.3633 C 36.2793 -23.2422 36.0352 -23.8281 36.0352 -25.3418 L 36.0352 -33.9844 C 38.4766 -32.8125 41.0645 -32.2266 43.7988 -32.2266 C 53.8574 -32.2266 61.9141 -40.2832 61.9141 -50.3906 C 61.9141 -60.498 53.8574 -68.6035 43.7988 -68.6035 C 40.8691 -68.6035 38.0859 -67.8711 35.4004 -66.4551 C 33.9844 -70.9961 30.3711 -73.7305 25.5859 -73.7305 C 19.1895 -73.7305 14.9902 -68.9941 14.9902 -61.7188 L 15.0391 -25.3418 C 15.0391 -23.8281 14.7949 -23.2422 13.7695 -22.3633 C 9.08203 -18.5059 6.83594 -13.6719 6.83594 -8.20312 C 6.83594 2.09961 15.1855 10.498 25.5859 10.498 Z M 25.5859 7.4707 C 16.9434 7.4707 9.91211 0.439453 9.91211 -8.20312 C 9.91211 -13.0371 11.9629 -17.4316 16.2598 -20.459 C 17.627 -21.4355 18.1152 -22.5098 18.1152 -24.2188 L 18.1152 -61.5723 C 18.1152 -67.2363 21.1426 -70.6055 25.5859 -70.6055 C 29.9805 -70.6055 33.0078 -67.2363 33.0078 -61.5723 L 33.0078 -24.2188 C 33.0078 -22.5098 33.4961 -21.4355 34.8633 -20.459 C 39.1113 -17.4316 41.2109 -13.0371 41.2109 -8.20312 C 41.2109 0.439453 34.1797 7.4707 25.5859 7.4707 Z M 36.084 -61.7188 C 36.084 -62.207 36.084 -62.6953 36.0352 -63.1836 C 38.4766 -64.6973 41.1133 -65.5273 43.7988 -65.5273 C 52.1973 -65.5273 58.8379 -58.8379 58.8379 -50.3906 C 58.8379 -41.9434 52.1973 -35.3027 43.7988 -35.3027 C 41.1133 -35.3027 38.4277 -35.9863 36.0352 -37.3535 Z M 25.5371 2.34375 C 31.3965 2.34375 36.0352 -2.34375 36.0352 -8.20312 C 36.0352 -12.2559 33.7891 -15.625 30.4199 -17.4316 C 29.0039 -18.1641 28.5645 -18.75 28.5645 -20.8008 L 28.5645 -57.8613 C 28.5645 -60.1562 27.2949 -61.5723 25.5371 -61.5723 C 23.8281 -61.5723 22.5586 -60.1562 22.5586 -57.8613 L 22.5586 -20.8008 C 22.5586 -18.75 22.0703 -18.1641 20.7031 -17.4316 C 17.334 -15.625 15.0391 -12.2559 15.0391 -8.20312 C 15.0391 -2.34375 19.7266 2.34375 25.5371 2.34375 Z M 70.3613 -48.7793 L 80.7129 -48.7793 C 81.5918 -48.7793 82.2754 -49.5117 82.3242 -50.3906 C 82.373 -51.3184 81.5918 -52.002 80.7129 -52.002 L 70.3613 -52.002 C 69.4824 -52.002 68.75 -51.3184 68.75 -50.3906 C 68.75 -49.5117 69.4824 -48.7793 70.3613 -48.7793 Z M 68.7988 -23.0469 C 69.4336 -22.3633 70.459 -22.4121 71.0938 -23.0469 C 71.6797 -23.6816 71.7285 -24.6582 71.0938 -25.3418 L 63.7207 -32.666 C 63.1348 -33.252 62.0605 -33.252 61.4746 -32.666 C 60.8398 -32.0312 60.8398 -30.957 61.4746 -30.3711 Z"/>
  </g>
  <g id="Ultralight-S" transform="matrix(1 0 0 1 515.57 696)">
   <path d="M 43.2617 -76.1719 C 43.8477 -76.1719 44.3359 -76.709 44.3359 -77.1973 L 44.3359 -88.3301 C 44.3359 -88.916 43.8477 -89.3555 43.2617 -89.3555 C 42.7246 -89.3555 42.2363 -88.916 42.2363 -88.3301 L 42.2363 -77.1973 C 42.2363 -76.709 42.7246 -76.1719 43.2617 -76.1719 Z M 60.9375 -68.7988 C 61.3281 -68.4082 62.0117 -68.4082 62.4023 -68.7988 L 70.3125 -76.709 C 70.752 -77.1484 70.7031 -77.7832 70.3125 -78.1738 C 69.9219 -78.5645 69.2871 -78.6133 68.8477 -78.1738 L 60.9375 -70.2637 C 60.5469 -69.873 60.5469 -69.1895 60.9375 -68.7988 Z M 25.0488 10.498 C 35.2051 10.498 43.3105 2.34375 43.3105 -7.66602 C 43.3105 -13.0859 41.0645 -17.7734 36.377 -21.5332 C 35.2539 -22.4609 34.9609 -23.0957 34.9609 -24.7559 L 34.9609 -35.3516 C 37.5977 -33.9844 40.3809 -33.3008 43.2617 -33.3008 C 53.1738 -33.3008 61.1328 -41.2598 61.1328 -51.1719 C 61.1328 -61.1328 53.1738 -69.0918 43.2617 -69.0918 C 40.1855 -69.0918 37.207 -68.2129 34.3262 -66.6016 C 32.959 -70.8496 29.6387 -73.3887 25.0488 -73.3887 C 19.043 -73.3887 15.1367 -68.8965 15.1367 -61.9141 L 15.1855 -24.7559 C 15.1855 -23.0957 14.8926 -22.4609 13.7207 -21.5332 C 9.0332 -17.7734 6.83594 -13.0859 6.83594 -7.66602 C 6.83594 2.34375 14.9414 10.498 25.0488 10.498 Z M 25.0488 8.44727 C 16.2109 8.44727 8.93555 1.17188 8.93555 -7.66602 C 8.93555 -12.5488 10.9375 -16.9922 15.2832 -20.1172 C 16.6992 -21.1426 17.2363 -22.4121 17.2363 -24.1211 L 17.2363 -61.8164 C 17.2363 -67.7734 20.4102 -71.2891 25.0488 -71.2891 C 29.6875 -71.2891 32.8613 -67.7734 32.8613 -61.8164 L 32.8613 -24.1211 C 32.8613 -22.4121 33.3984 -21.1426 34.8145 -20.1172 C 39.209 -16.9922 41.2109 -12.5488 41.2109 -7.66602 C 41.2109 1.17188 33.9355 8.44727 25.0488 8.44727 Z M 35.0098 -61.9141 C 35.0098 -62.7441 34.9609 -63.5742 34.8633 -64.3066 C 37.5488 -66.0645 40.4297 -66.9434 43.2617 -66.9434 C 52.0996 -66.9434 58.9844 -60.0098 58.9844 -51.1719 C 58.9844 -42.3828 52.0996 -35.4004 43.2617 -35.4004 C 40.4297 -35.4004 37.5977 -36.1328 34.9609 -37.6465 Z M 25.0488 3.32031 C 31.1523 3.32031 36.0352 -1.5625 36.0352 -7.66602 C 36.0352 -11.9141 33.6914 -15.4785 30.127 -17.334 C 28.7109 -18.1152 28.2227 -18.7012 28.2227 -20.8984 L 28.2227 -57.9102 C 28.2227 -60.3027 26.9043 -61.8164 25.0488 -61.8164 C 23.2422 -61.8164 21.9238 -60.3027 21.9238 -57.9102 L 21.9238 -20.8984 C 21.9238 -18.7012 21.4355 -18.1152 19.9707 -17.334 C 16.4551 -15.4785 14.1113 -11.9141 14.1113 -7.66602 C 14.1113 -1.5625 18.9941 3.32031 25.0488 3.32031 Z M 69.2383 -50.1953 L 80.3711 -50.1953 C 81.0059 -50.1953 81.3965 -50.6348 81.4453 -51.1719 C 81.4941 -51.7578 81.0059 -52.1973 80.3711 -52.1973 L 69.2383 -52.1973 C 68.7012 -52.1973 68.2129 -51.7578 68.2129 -51.1719 C 68.2129 -50.6348 68.7012 -50.1953 69.2383 -50.1953 Z M 68.8477 -24.0723 C 69.2871 -23.6328 69.9219 -23.6816 70.3125 -24.0723 C 70.7031 -24.4629 70.752 -25.0977 70.3125 -25.5371 L 62.4023 -33.3984 C 62.0117 -33.7891 61.3281 -33.7891 60.9375 -33.3984 C 60.5469 -33.0078 60.5469 -32.373 60.9375 -31.9336 Z"/>
  </g>
 </g>
</svg>
