<?xml version="1.0" encoding="UTF-8"?>
<!--Generator: Apple Native CoreSVG 123-->
<!DOCTYPE svg
PUBLIC "-//W3C//DTD SVG 1.1//EN"
       "http://www.w3.org/Graphics/SVG/1.1/DTD/svg11.dtd">
<svg version="1.1" xmlns="http://www.w3.org/2000/svg" xmlns:xlink="http://www.w3.org/1999/xlink" width="3300" height="2200">
 <!--glyph: "uni100583.medium", point size: 100.000000, font version: "Version 15.0d7e11", template writer version: "5"-->
 <g id="Notes">
  <rect height="2200" id="artboard" style="fill:white;opacity:1" width="3300" x="0" y="0"/>
  <line id="" style="fill:none;stroke:black;opacity:1;stroke-width:0.5;" x1="263" x2="3036" y1="292" y2="292"/>
  <text style="stroke:none;fill:black;font-family:-apple-system,&quot;SF Pro Display&quot;,&quot;SF Pro Text&quot;,Helvetica,sans-serif;font-weight:bold;" transform="matrix(1 0 0 1 263 322)">Weight/Scale Variations</text>
  <text style="stroke:none;fill:black;font-family:-apple-system,&quot;SF Pro Display&quot;,&quot;SF Pro Text&quot;,Helvetica,sans-serif;text-anchor:middle;" transform="matrix(1 0 0 1 559.711 322)">Ultralight</text>
  <text style="stroke:none;fill:black;font-family:-apple-system,&quot;SF Pro Display&quot;,&quot;SF Pro Text&quot;,Helvetica,sans-serif;text-anchor:middle;" transform="matrix(1 0 0 1 856.422 322)">Thin</text>
  <text style="stroke:none;fill:black;font-family:-apple-system,&quot;SF Pro Display&quot;,&quot;SF Pro Text&quot;,Helvetica,sans-serif;text-anchor:middle;" transform="matrix(1 0 0 1 1153.13 322)">Light</text>
  <text style="stroke:none;fill:black;font-family:-apple-system,&quot;SF Pro Display&quot;,&quot;SF Pro Text&quot;,Helvetica,sans-serif;text-anchor:middle;" transform="matrix(1 0 0 1 1449.84 322)">Regular</text>
  <text style="stroke:none;fill:black;font-family:-apple-system,&quot;SF Pro Display&quot;,&quot;SF Pro Text&quot;,Helvetica,sans-serif;text-anchor:middle;" transform="matrix(1 0 0 1 1746.56 322)">Medium</text>
  <text style="stroke:none;fill:black;font-family:-apple-system,&quot;SF Pro Display&quot;,&quot;SF Pro Text&quot;,Helvetica,sans-serif;text-anchor:middle;" transform="matrix(1 0 0 1 2043.27 322)">Semibold</text>
  <text style="stroke:none;fill:black;font-family:-apple-system,&quot;SF Pro Display&quot;,&quot;SF Pro Text&quot;,Helvetica,sans-serif;text-anchor:middle;" transform="matrix(1 0 0 1 2339.98 322)">Bold</text>
  <text style="stroke:none;fill:black;font-family:-apple-system,&quot;SF Pro Display&quot;,&quot;SF Pro Text&quot;,Helvetica,sans-serif;text-anchor:middle;" transform="matrix(1 0 0 1 2636.69 322)">Heavy</text>
  <text style="stroke:none;fill:black;font-family:-apple-system,&quot;SF Pro Display&quot;,&quot;SF Pro Text&quot;,Helvetica,sans-serif;text-anchor:middle;" transform="matrix(1 0 0 1 2933.4 322)">Black</text>
  <line id="" style="fill:none;stroke:black;opacity:1;stroke-width:0.5;" x1="263" x2="3036" y1="1903" y2="1903"/>
  <g id="" transform="matrix(1 0 0 1 263 1933)">
   <path d="M 9.24805 0.830078 C 13.5547 0.830078 17.1387 -2.74414 17.1387 -7.05078 C 17.1387 -11.3574 13.5449 -14.9316 9.23828 -14.9316 C 4.94141 -14.9316 1.36719 -11.3574 1.36719 -7.05078 C 1.36719 -2.74414 4.95117 0.830078 9.24805 0.830078 Z M 9.24805 -0.654297 C 5.70312 -0.654297 2.87109 -3.49609 2.87109 -7.05078 C 2.87109 -10.6055 5.69336 -13.4473 9.23828 -13.4473 C 12.793 -13.4473 15.6348 -10.6055 15.6445 -7.05078 C 15.6543 -3.49609 12.8027 -0.654297 9.24805 -0.654297 Z M 9.22852 -3.42773 C 9.69727 -3.42773 9.9707 -3.74023 9.9707 -4.25781 L 9.9707 -6.31836 L 12.1973 -6.31836 C 12.6953 -6.31836 13.0371 -6.57227 13.0371 -7.04102 C 13.0371 -7.51953 12.7148 -7.7832 12.1973 -7.7832 L 9.9707 -7.7832 L 9.9707 -10.0098 C 9.9707 -10.5273 9.69727 -10.8496 9.22852 -10.8496 C 8.75977 -10.8496 8.50586 -10.5078 8.50586 -10.0098 L 8.50586 -7.7832 L 6.29883 -7.7832 C 5.78125 -7.7832 5.44922 -7.51953 5.44922 -7.04102 C 5.44922 -6.57227 5.80078 -6.31836 6.29883 -6.31836 L 8.50586 -6.31836 L 8.50586 -4.25781 C 8.50586 -3.75977 8.75977 -3.42773 9.22852 -3.42773 Z"/>
  </g>
  <g id="" transform="matrix(1 0 0 1 281.506 1933)">
   <path d="M 11.709 2.91016 C 17.1582 2.91016 21.6699 -1.60156 21.6699 -7.05078 C 21.6699 -12.4902 17.1484 -17.0117 11.6992 -17.0117 C 6.25977 -17.0117 1.74805 -12.4902 1.74805 -7.05078 C 1.74805 -1.60156 6.26953 2.91016 11.709 2.91016 Z M 11.709 1.25 C 7.09961 1.25 3.41797 -2.44141 3.41797 -7.05078 C 3.41797 -11.6504 7.08984 -15.3516 11.6992 -15.3516 C 16.3086 -15.3516 20 -11.6504 20.0098 -7.05078 C 20.0195 -2.44141 16.3184 1.25 11.709 1.25 Z M 11.6895 -2.41211 C 12.207 -2.41211 12.5195 -2.77344 12.5195 -3.33984 L 12.5195 -6.23047 L 15.5762 -6.23047 C 16.123 -6.23047 16.5039 -6.51367 16.5039 -7.03125 C 16.5039 -7.55859 16.1426 -7.86133 15.5762 -7.86133 L 12.5195 -7.86133 L 12.5195 -10.9277 C 12.5195 -11.5039 12.207 -11.8555 11.6895 -11.8555 C 11.1719 -11.8555 10.8789 -11.4844 10.8789 -10.9277 L 10.8789 -7.86133 L 7.83203 -7.86133 C 7.26562 -7.86133 6.89453 -7.55859 6.89453 -7.03125 C 6.89453 -6.51367 7.28516 -6.23047 7.83203 -6.23047 L 10.8789 -6.23047 L 10.8789 -3.33984 C 10.8789 -2.79297 11.1719 -2.41211 11.6895 -2.41211 Z"/>
  </g>
  <g id="" transform="matrix(1 0 0 1 304.924 1933)">
   <path d="M 14.9707 5.67383 C 21.9336 5.67383 27.6953 -0.078125 27.6953 -7.04102 C 27.6953 -14.0039 21.9238 -19.7559 14.9609 -19.7559 C 8.00781 -19.7559 2.25586 -14.0039 2.25586 -7.04102 C 2.25586 -0.078125 8.01758 5.67383 14.9707 5.67383 Z M 14.9707 3.85742 C 8.93555 3.85742 4.08203 -1.00586 4.08203 -7.04102 C 4.08203 -13.0762 8.92578 -17.9395 14.9609 -17.9395 C 21.0059 -17.9395 25.8594 -13.0762 25.8691 -7.04102 C 25.8789 -1.00586 21.0156 3.85742 14.9707 3.85742 Z M 14.9512 -1.06445 C 15.5176 -1.06445 15.8691 -1.45508 15.8691 -2.06055 L 15.8691 -6.13281 L 20.1074 -6.13281 C 20.6934 -6.13281 21.1133 -6.46484 21.1133 -7.02148 C 21.1133 -7.59766 20.7227 -7.93945 20.1074 -7.93945 L 15.8691 -7.93945 L 15.8691 -12.1875 C 15.8691 -12.8027 15.5176 -13.1934 14.9512 -13.1934 C 14.3848 -13.1934 14.0625 -12.7832 14.0625 -12.1875 L 14.0625 -7.93945 L 9.83398 -7.93945 C 9.21875 -7.93945 8.80859 -7.59766 8.80859 -7.02148 C 8.80859 -6.46484 9.23828 -6.13281 9.83398 -6.13281 L 14.0625 -6.13281 L 14.0625 -2.06055 C 14.0625 -1.47461 14.3848 -1.06445 14.9512 -1.06445 Z"/>
  </g>
  <text style="stroke:none;fill:black;font-family:-apple-system,&quot;SF Pro Display&quot;,&quot;SF Pro Text&quot;,Helvetica,sans-serif;font-weight:bold;" transform="matrix(1 0 0 1 263 1953)">Design Variations</text>
  <text style="stroke:none;fill:black;font-family:-apple-system,&quot;SF Pro Display&quot;,&quot;SF Pro Text&quot;,Helvetica,sans-serif;" transform="matrix(1 0 0 1 263 1971)">Symbols are supported in up to nine weights and three scales.</text>
  <text style="stroke:none;fill:black;font-family:-apple-system,&quot;SF Pro Display&quot;,&quot;SF Pro Text&quot;,Helvetica,sans-serif;" transform="matrix(1 0 0 1 263 1989)">For optimal layout with text and other symbols, vertically align</text>
  <text style="stroke:none;fill:black;font-family:-apple-system,&quot;SF Pro Display&quot;,&quot;SF Pro Text&quot;,Helvetica,sans-serif;" transform="matrix(1 0 0 1 263 2007)">symbols with the adjacent text.</text>
  <rect height="14" id="" style="fill:#00AEEF;stroke:none;opacity:0.4;" width="3" x="776" y="1919"/>
  <g id="" transform="matrix(1 0 0 1 779 1933)">
   <path d="M 10.5273 0 L 12.373 0 L 7.17773 -14.0918 L 5.43945 -14.0918 L 0.244141 0 L 2.08984 0 L 3.50586 -4.0332 L 9.11133 -4.0332 Z M 6.2793 -11.9531 L 6.33789 -11.9531 L 8.59375 -5.52734 L 4.02344 -5.52734 Z"/>
  </g>
  <rect height="14" id="" style="fill:#00AEEF;stroke:none;opacity:0.4;" width="3" x="791.617" y="1919"/>
  <text style="stroke:none;fill:black;font-family:-apple-system,&quot;SF Pro Display&quot;,&quot;SF Pro Text&quot;,Helvetica,sans-serif;font-weight:bold;" transform="matrix(1 0 0 1 776 1953)">Margins</text>
  <text style="stroke:none;fill:black;font-family:-apple-system,&quot;SF Pro Display&quot;,&quot;SF Pro Text&quot;,Helvetica,sans-serif;" transform="matrix(1 0 0 1 776 1971)">Leading and trailing margins on the left and right side of each symbol</text>
  <text style="stroke:none;fill:black;font-family:-apple-system,&quot;SF Pro Display&quot;,&quot;SF Pro Text&quot;,Helvetica,sans-serif;" transform="matrix(1 0 0 1 776 1989)">can be adjusted by modifying the width of the blue rectangles.</text>
  <text style="stroke:none;fill:black;font-family:-apple-system,&quot;SF Pro Display&quot;,&quot;SF Pro Text&quot;,Helvetica,sans-serif;" transform="matrix(1 0 0 1 776 2007)">Modifications are automatically applied proportionally to all</text>
  <text style="stroke:none;fill:black;font-family:-apple-system,&quot;SF Pro Display&quot;,&quot;SF Pro Text&quot;,Helvetica,sans-serif;" transform="matrix(1 0 0 1 776 2025)">scales and weights.</text>
  <g id="" transform="matrix(1 0 0 1 1289 1933)">
   <path d="M 2.83203 3.11523 L 4.375 4.6582 C 5.22461 5.48828 6.19141 5.41992 7.06055 4.46289 L 17.2754 -6.66016 C 17.7051 -6.36719 18.0957 -6.37695 18.5645 -6.47461 L 19.6094 -6.68945 L 20.3027 -5.99609 L 20.2539 -5.47852 C 20.1855 -4.95117 20.3516 -4.53125 20.8496 -4.0332 L 21.6602 -3.22266 C 22.168 -2.71484 22.8223 -2.68555 23.3008 -3.16406 L 26.5527 -6.41602 C 27.0312 -6.89453 27.0117 -7.54883 26.5039 -8.05664 L 25.6836 -8.87695 C 25.1855 -9.375 24.7754 -9.55078 24.2383 -9.47266 L 23.7109 -9.41406 L 23.0566 -10.0781 L 23.3398 -11.2207 C 23.4863 -11.7871 23.3398 -12.2559 22.7148 -12.8613 L 20.3027 -15.2539 C 16.7578 -18.7793 12.2266 -18.6719 9.11133 -15.5371 C 8.69141 -15.1074 8.64258 -14.5215 8.91602 -14.0918 C 9.15039 -13.7207 9.62891 -13.4961 10.2734 -13.6621 C 11.7871 -14.043 13.3008 -13.9258 14.7852 -12.9199 L 14.1602 -11.3379 C 13.9258 -10.752 13.9453 -10.2734 14.1797 -9.83398 L 3.01758 0.439453 C 2.08008 1.30859 1.97266 2.25586 2.83203 3.11523 Z M 10.6738 -15.1465 C 13.3398 -17.1387 16.6504 -16.8262 19.0527 -14.4141 L 21.6797 -11.8066 C 21.9141 -11.5723 21.9434 -11.3867 21.8848 -11.0938 L 21.5039 -9.53125 L 23.0762 -7.95898 L 24.043 -8.04688 C 24.3262 -8.07617 24.4141 -8.05664 24.6387 -7.83203 L 25.2637 -7.20703 L 22.5098 -4.46289 L 21.8848 -5.07812 C 21.6602 -5.30273 21.6406 -5.40039 21.6699 -5.68359 L 21.7578 -6.64062 L 20.1953 -8.20312 L 18.5742 -7.89062 C 18.291 -7.83203 18.1445 -7.83203 17.9102 -8.07617 L 15.7324 -10.2539 C 15.5078 -10.4883 15.4785 -10.625 15.6055 -10.9473 L 16.5527 -13.2227 C 14.9512 -14.7559 12.8418 -15.6055 10.8008 -14.9512 C 10.7129 -14.9219 10.6445 -14.9414 10.6152 -14.9805 C 10.5859 -15.0293 10.5859 -15.0781 10.6738 -15.1465 Z M 4.10156 2.41211 C 3.61328 1.91406 3.78906 1.61133 4.12109 1.30859 L 15.0781 -8.80859 L 16.3086 -7.57812 L 6.15234 3.34961 C 5.84961 3.68164 5.46875 3.7793 5.06836 3.37891 Z"/>
  </g>
  <text style="stroke:none;fill:black;font-family:-apple-system,&quot;SF Pro Display&quot;,&quot;SF Pro Text&quot;,Helvetica,sans-serif;font-weight:bold;" transform="matrix(1 0 0 1 1289 1953)">Exporting</text>
  <text style="stroke:none;fill:black;font-family:-apple-system,&quot;SF Pro Display&quot;,&quot;SF Pro Text&quot;,Helvetica,sans-serif;" transform="matrix(1 0 0 1 1289 1971)">Symbols should be outlined when exporting to ensure the</text>
  <text style="stroke:none;fill:black;font-family:-apple-system,&quot;SF Pro Display&quot;,&quot;SF Pro Text&quot;,Helvetica,sans-serif;" transform="matrix(1 0 0 1 1289 1989)">design is preserved when submitting to Xcode.</text>
  <text id="template-version" style="stroke:none;fill:black;font-family:-apple-system,&quot;SF Pro Display&quot;,&quot;SF Pro Text&quot;,Helvetica,sans-serif;text-anchor:end;" transform="matrix(1 0 0 1 3036 1933)">Template v.1.0</text>
  <text style="stroke:none;fill:black;font-family:-apple-system,&quot;SF Pro Display&quot;,&quot;SF Pro Text&quot;,Helvetica,sans-serif;text-anchor:end;" transform="matrix(1 0 0 1 3036 1951)">Generated from zzz</text>
  <text style="stroke:none;fill:black;font-family:-apple-system,&quot;SF Pro Display&quot;,&quot;SF Pro Text&quot;,Helvetica,sans-serif;text-anchor:end;" transform="matrix(1 0 0 1 3036 1969)">Typeset at 100 points</text>
  <text style="stroke:none;fill:black;font-family:-apple-system,&quot;SF Pro Display&quot;,&quot;SF Pro Text&quot;,Helvetica,sans-serif;" transform="matrix(1 0 0 1 263 726)">Small</text>
  <text style="stroke:none;fill:black;font-family:-apple-system,&quot;SF Pro Display&quot;,&quot;SF Pro Text&quot;,Helvetica,sans-serif;" transform="matrix(1 0 0 1 263 1156)">Medium</text>
  <text style="stroke:none;fill:black;font-family:-apple-system,&quot;SF Pro Display&quot;,&quot;SF Pro Text&quot;,Helvetica,sans-serif;" transform="matrix(1 0 0 1 263 1586)">Large</text>
 </g>
 <g id="Guides">
  <g id="H-reference" style="fill:#27AAE1;stroke:none;" transform="matrix(1 0 0 1 339 696)">
   <path d="M 54.9316 0 L 57.666 0 L 30.5664 -70.459 L 28.0762 -70.459 L 0.976562 0 L 3.66211 0 L 12.9395 -24.4629 L 45.7031 -24.4629 Z M 29.1992 -67.0898 L 29.4434 -67.0898 L 44.8242 -26.709 L 13.8184 -26.709 Z"/>
  </g>
  <line id="Baseline-S" style="fill:none;stroke:#27AAE1;opacity:1;stroke-width:0.577;" x1="263" x2="3036" y1="696" y2="696"/>
  <line id="Capline-S" style="fill:none;stroke:#27AAE1;opacity:1;stroke-width:0.577;" x1="263" x2="3036" y1="625.541" y2="625.541"/>
  <g id="H-reference" style="fill:#27AAE1;stroke:none;" transform="matrix(1 0 0 1 339 1126)">
   <path d="M 54.9316 0 L 57.666 0 L 30.5664 -70.459 L 28.0762 -70.459 L 0.976562 0 L 3.66211 0 L 12.9395 -24.4629 L 45.7031 -24.4629 Z M 29.1992 -67.0898 L 29.4434 -67.0898 L 44.8242 -26.709 L 13.8184 -26.709 Z"/>
  </g>
  <line id="Baseline-M" style="fill:none;stroke:#27AAE1;opacity:1;stroke-width:0.577;" x1="263" x2="3036" y1="1126" y2="1126"/>
  <line id="Capline-M" style="fill:none;stroke:#27AAE1;opacity:1;stroke-width:0.577;" x1="263" x2="3036" y1="1055.54" y2="1055.54"/>
  <g id="H-reference" style="fill:#27AAE1;stroke:none;" transform="matrix(1 0 0 1 339 1556)">
   <path d="M 54.9316 0 L 57.666 0 L 30.5664 -70.459 L 28.0762 -70.459 L 0.976562 0 L 3.66211 0 L 12.9395 -24.4629 L 45.7031 -24.4629 Z M 29.1992 -67.0898 L 29.4434 -67.0898 L 44.8242 -26.709 L 13.8184 -26.709 Z"/>
  </g>
  <line id="Baseline-L" style="fill:none;stroke:#27AAE1;opacity:1;stroke-width:0.577;" x1="263" x2="3036" y1="1556" y2="1556"/>
  <line id="Capline-L" style="fill:none;stroke:#27AAE1;opacity:1;stroke-width:0.577;" x1="263" x2="3036" y1="1485.54" y2="1485.54"/>
  <rect height="119.336" id="left-margin" style="fill:#00AEEF;stroke:none;opacity:0.4;" width="12.5" x="1396.01" y="1030.79"/>
  <rect height="119.336" id="right-margin" style="fill:#00AEEF;stroke:none;opacity:0.4;" width="12.5" x="1491.18" y="1030.79"/>
 </g>
 <g id="Symbols">
  <g id="Black-L" transform="matrix(1 0 0 1 2856.62 1556)">
   <path d="M 26.5137 -36.5234 L 66.4551 -36.5234 C 71.7285 -36.5234 75.293 -39.7461 75.293 -44.9219 C 75.293 -50 71.7285 -53.2715 66.4551 -53.2715 L 41.1133 -53.2715 L 41.1133 -53.5645 L 70.752 -88.9648 C 73.4863 -92.2852 74.4629 -94.7266 74.4629 -97.7539 C 74.4629 -103.711 70.2148 -107.373 63.7207 -107.373 L 24.9023 -107.373 C 19.5801 -107.373 16.0645 -104.15 16.0645 -99.0234 C 16.0645 -93.8965 19.5801 -90.625 24.9023 -90.625 L 50.1465 -90.625 L 50.1465 -90.332 L 19.4824 -53.5156 C 17.3828 -51.0742 16.6504 -48.9258 16.6504 -45.8984 C 16.6504 -40.3809 20.752 -36.5234 26.5137 -36.5234 Z M 97.2168 -1.9043 L 128.857 -1.9043 C 134.033 -1.9043 137.5 -5.12695 137.5 -10.1562 C 137.5 -15.0879 133.984 -18.2617 128.857 -18.2617 L 111.23 -18.2617 L 111.23 -18.5547 L 132.568 -44.043 C 135.498 -47.5586 136.67 -49.9512 136.67 -52.9785 C 136.67 -58.7402 132.52 -62.3535 126.27 -62.3535 L 95.6055 -62.3535 C 90.4785 -62.3535 87.0605 -59.1797 87.0605 -54.1504 C 87.0605 -49.1699 90.4785 -45.9961 95.6055 -45.9961 L 113.281 -45.9961 L 113.281 -45.7031 L 90.918 -18.9453 C 88.5254 -16.1133 87.5977 -13.9648 87.5977 -11.084 C 87.5977 -5.66406 91.6016 -1.9043 97.2168 -1.9043 Z M 45.2148 33.6426 L 70.5566 33.6426 C 75.4395 33.6426 78.7109 30.5176 78.7109 25.7812 C 78.7109 20.9961 75.4395 18.0176 70.5566 18.0176 L 58.6426 18.0176 L 58.6426 17.6758 L 74.1211 -0.976562 C 76.8066 -4.29688 77.9785 -6.73828 77.9785 -9.76562 C 77.9785 -15.0391 74.2676 -18.2617 68.6035 -18.2617 L 43.5059 -18.2617 C 38.623 -18.2617 35.3516 -15.2344 35.3516 -10.498 C 35.3516 -5.71289 38.623 -2.63672 43.5059 -2.63672 L 55.7617 -2.63672 L 55.7617 -2.34375 L 39.1602 17.4805 C 36.8652 20.2637 36.084 22.1191 36.084 25.0488 C 36.084 30.0293 39.9414 33.6426 45.2148 33.6426 Z"/>
  </g>
  <g id="Heavy-L" transform="matrix(1 0 0 1 2561.86 1556)">
   <path d="M 25.3418 -37.3047 L 65.3809 -37.3047 C 70.0195 -37.3047 73.0469 -40.0879 73.0469 -44.6289 C 73.0469 -49.0723 70.0195 -51.9043 65.3809 -51.9043 L 37.793 -51.9043 L 37.793 -52.1484 L 68.9941 -89.5996 C 71.4844 -92.5781 72.3633 -94.7266 72.3633 -97.4609 C 72.3633 -102.734 68.6035 -106.006 62.793 -106.006 L 23.7793 -106.006 C 19.1406 -106.006 16.0645 -103.174 16.0645 -98.7305 C 16.0645 -94.2383 19.1406 -91.4062 23.7793 -91.4062 L 51.2695 -91.4062 L 51.2695 -91.1133 L 19.1406 -52.4902 C 17.2363 -50.2441 16.5527 -48.3398 16.5527 -45.6055 C 16.5527 -40.7227 20.2148 -37.3047 25.3418 -37.3047 Z M 94.3359 -2.97852 L 126.025 -2.97852 C 130.615 -2.97852 133.594 -5.76172 133.594 -10.1562 C 133.594 -14.502 130.566 -17.2363 126.025 -17.2363 L 106.201 -17.2363 L 106.201 -17.4805 L 129.102 -44.9219 C 131.738 -48.1445 132.812 -50.2441 132.812 -52.9297 C 132.812 -58.0566 129.199 -61.2793 123.535 -61.2793 L 92.7734 -61.2793 C 88.2324 -61.2793 85.2539 -58.5449 85.2539 -54.1504 C 85.2539 -49.7559 88.2324 -47.0215 92.7734 -47.0215 L 112.598 -47.0215 L 112.598 -46.7773 L 88.7695 -18.1641 C 86.6211 -15.5762 85.791 -13.6719 85.791 -11.084 C 85.791 -6.29883 89.3066 -2.97852 94.3359 -2.97852 Z M 43.8965 32.3242 L 69.2871 32.3242 C 73.584 32.3242 76.416 29.6387 76.416 25.4883 C 76.416 21.3379 73.584 18.75 69.2871 18.75 L 55.2734 18.75 L 55.2734 18.457 L 72.2168 -2.05078 C 74.6582 -5.07812 75.7324 -7.27539 75.7324 -9.96094 C 75.7324 -14.6484 72.4121 -17.4805 67.3828 -17.4805 L 42.2363 -17.4805 C 37.9395 -17.4805 35.1074 -14.8438 35.1074 -10.7422 C 35.1074 -6.54297 37.9395 -3.90625 42.2363 -3.90625 L 56.543 -3.90625 L 56.543 -3.61328 L 38.5254 17.9688 C 36.4746 20.459 35.7422 22.1191 35.7422 24.707 C 35.7422 29.1504 39.1602 32.3242 43.8965 32.3242 Z"/>
  </g>
  <g id="Bold-L" transform="matrix(1 0 0 1 2267.35 1556)">
   <path d="M 24.0723 -38.1836 L 64.1602 -38.1836 C 68.0664 -38.1836 70.6055 -40.4785 70.6055 -44.2871 C 70.6055 -48.0469 68.0664 -50.3418 64.1602 -50.3418 L 34.0332 -50.3418 L 34.0332 -50.6348 L 67.041 -90.2832 C 69.2383 -92.9199 69.9707 -94.7754 69.9707 -97.1191 C 69.9707 -101.66 66.7969 -104.492 61.7188 -104.492 L 22.5586 -104.492 C 18.6035 -104.492 16.1133 -102.148 16.1133 -98.3887 C 16.1133 -94.6289 18.6035 -92.2852 22.5586 -92.2852 L 52.5879 -92.2852 L 52.5879 -92.041 L 18.75 -51.2695 C 17.0898 -49.3164 16.5039 -47.6562 16.5039 -45.3125 C 16.5039 -41.1133 19.5801 -38.1836 24.0723 -38.1836 Z M 91.0645 -4.19922 L 122.852 -4.19922 C 126.709 -4.19922 129.199 -6.49414 129.199 -10.1562 C 129.199 -13.7695 126.709 -16.0156 122.852 -16.0156 L 100.537 -16.0156 L 100.537 -16.3086 L 125.244 -45.9473 C 127.588 -48.7793 128.516 -50.6348 128.516 -52.9297 C 128.516 -57.3242 125.439 -60.0586 120.508 -60.0586 L 89.5508 -60.0586 C 85.7422 -60.0586 83.3008 -57.8125 83.3008 -54.1504 C 83.3008 -50.4883 85.7422 -48.1934 89.5508 -48.1934 L 111.865 -48.1934 L 111.865 -47.9492 L 86.377 -17.2852 C 84.4727 -15.0391 83.7402 -13.3789 83.7402 -11.1328 C 83.7402 -7.03125 86.7188 -4.19922 91.0645 -4.19922 Z M 42.3828 30.9082 L 67.8711 30.9082 C 71.4844 30.9082 73.7793 28.6621 73.7793 25.1953 C 73.7793 21.7285 71.4844 19.6289 67.8711 19.6289 L 51.4648 19.6289 L 51.4648 19.3359 L 70.1172 -3.27148 C 72.3145 -6.00586 73.1934 -7.86133 73.1934 -10.1562 C 73.1934 -14.209 70.4102 -16.6016 66.0156 -16.6016 L 40.7715 -16.6016 C 37.1582 -16.6016 34.8633 -14.4531 34.8633 -11.0352 C 34.8633 -7.51953 37.1582 -5.37109 40.7715 -5.37109 L 57.4707 -5.37109 L 57.4707 -5.07812 L 37.8418 18.5059 C 36.0352 20.7031 35.4004 22.1191 35.4004 24.3652 C 35.4004 28.1738 38.2812 30.9082 42.3828 30.9082 Z"/>
  </g>
  <g id="Semibold-L" transform="matrix(1 0 0 1 1972.12 1556)">
   <path d="M 23.1934 -38.7695 L 63.2812 -38.7695 C 66.748 -38.7695 68.8965 -40.7715 68.8965 -44.0918 C 68.8965 -47.3145 66.748 -49.3164 63.2812 -49.3164 L 31.4941 -49.3164 L 31.4941 -49.5605 L 65.6738 -90.7227 C 67.7246 -93.1641 68.3594 -94.8242 68.3594 -96.875 C 68.3594 -100.879 65.5762 -103.418 60.9863 -103.418 L 21.6797 -103.418 C 18.2617 -103.418 16.1133 -101.416 16.1133 -98.1934 C 16.1133 -94.873 18.2617 -92.9199 21.6797 -92.9199 L 53.4668 -92.9199 L 53.4668 -92.627 L 18.5059 -50.4395 C 16.9434 -48.6328 16.4551 -47.2168 16.4551 -45.1172 C 16.4551 -41.4062 19.1895 -38.7695 23.1934 -38.7695 Z M 88.8672 -4.98047 L 120.703 -4.98047 C 124.072 -4.98047 126.172 -6.93359 126.172 -10.1562 C 126.172 -13.2812 124.072 -15.2344 120.703 -15.2344 L 96.6797 -15.2344 L 96.6797 -15.4785 L 122.559 -46.6309 C 124.707 -49.2188 125.537 -50.8789 125.537 -52.8809 C 125.537 -56.7871 122.852 -59.2285 118.408 -59.2285 L 87.3535 -59.2285 C 84.0332 -59.2285 81.9336 -57.3242 81.9336 -54.1504 C 81.9336 -50.9277 84.0332 -49.0234 87.3535 -49.0234 L 111.328 -49.0234 L 111.328 -48.7793 L 84.7168 -16.6992 C 82.959 -14.5996 82.3242 -13.1836 82.3242 -11.1816 C 82.3242 -7.51953 84.9121 -4.98047 88.8672 -4.98047 Z M 41.3574 29.8828 L 66.8945 29.8828 C 70.0195 29.8828 72.0215 28.0273 72.0215 25 C 72.0215 22.0215 70.0195 20.2148 66.8945 20.2148 L 48.8281 20.2148 L 48.8281 19.9219 L 68.6523 -4.15039 C 70.6543 -6.5918 71.4355 -8.30078 71.4355 -10.3027 C 71.4355 -13.8672 68.9941 -16.0156 65.0879 -16.0156 L 39.7949 -16.0156 C 36.6699 -16.0156 34.668 -14.1602 34.668 -11.1816 C 34.668 -8.1543 36.6699 -6.34766 39.7949 -6.34766 L 58.0566 -6.34766 L 58.0566 -6.05469 L 37.4023 18.8477 C 35.7422 20.8496 35.2051 22.168 35.2051 24.1211 C 35.2051 27.4414 37.6465 29.8828 41.3574 29.8828 Z"/>
  </g>
  <g id="Medium-L" transform="matrix(1 0 0 1 1676.56 1556)">
   <path d="M 22.5098 -39.2578 L 62.6465 -39.2578 C 65.7227 -39.2578 67.5781 -40.9668 67.5781 -43.8965 C 67.5781 -46.7773 65.7227 -48.4863 62.6465 -48.4863 L 29.541 -48.4863 L 29.541 -48.7305 L 64.6484 -91.0645 C 66.5527 -93.3594 67.0898 -94.8242 67.0898 -96.7285 C 67.0898 -100.342 64.5996 -102.637 60.4004 -102.637 L 21.0449 -102.637 C 17.9688 -102.637 16.1133 -100.879 16.1133 -97.998 C 16.1133 -95.0684 17.9688 -93.3594 21.0449 -93.3594 L 54.1016 -93.3594 L 54.1016 -93.1152 L 18.2617 -49.8047 C 16.8945 -48.1445 16.4551 -46.8262 16.4551 -44.9707 C 16.4551 -41.6016 18.8477 -39.2578 22.5098 -39.2578 Z M 87.1582 -5.61523 L 119.043 -5.61523 C 122.07 -5.61523 123.877 -7.32422 123.877 -10.1562 C 123.877 -12.9395 122.021 -14.5996 119.043 -14.5996 L 93.75 -14.5996 L 93.75 -14.8438 L 120.557 -47.168 C 122.559 -49.5605 123.291 -51.0742 123.291 -52.8809 C 123.291 -56.3965 120.898 -58.6426 116.846 -58.6426 L 85.6934 -58.6426 C 82.7148 -58.6426 80.9082 -56.9336 80.9082 -54.1016 C 80.9082 -51.3184 82.7148 -49.6582 85.6934 -49.6582 L 110.889 -49.6582 L 110.889 -49.3652 L 83.4473 -16.2109 C 81.8359 -14.3066 81.25 -12.9883 81.25 -11.1816 C 81.25 -7.91016 83.5449 -5.61523 87.1582 -5.61523 Z M 40.5762 29.1504 L 66.1621 29.1504 C 68.9453 29.1504 70.6543 27.4902 70.6543 24.8535 C 70.6543 22.2168 68.9453 20.6543 66.1621 20.6543 L 46.8262 20.6543 L 46.8262 20.4102 L 67.5293 -4.78516 C 69.4336 -7.08008 70.1172 -8.59375 70.1172 -10.4492 C 70.1172 -13.623 67.9199 -15.5762 64.3555 -15.5762 L 39.0625 -15.5762 C 36.2305 -15.5762 34.5215 -13.9648 34.5215 -11.3281 C 34.5215 -8.64258 36.2305 -7.08008 39.0625 -7.08008 L 58.5449 -7.08008 L 58.5449 -6.83594 L 37.0117 19.1406 C 35.498 20.9961 35.0098 22.168 35.0098 23.9746 C 35.0098 26.9531 37.207 29.1504 40.5762 29.1504 Z"/>
  </g>
  <g id="Regular-L" transform="matrix(1 0 0 1 1381.34 1556)">
   <path d="M 21.6309 -39.8438 L 61.8164 -39.8438 C 64.4043 -39.8438 65.918 -41.2598 65.918 -43.7012 C 65.918 -46.0449 64.4043 -47.4609 61.8164 -47.4609 L 26.9531 -47.4609 L 26.9531 -47.7051 L 63.2812 -91.5527 C 64.9902 -93.5547 65.4785 -94.873 65.4785 -96.4844 C 65.4785 -99.5605 63.3789 -101.562 59.7168 -101.562 L 20.2148 -101.562 C 17.627 -101.562 16.1133 -100.146 16.1133 -97.7539 C 16.1133 -95.3613 17.627 -93.9453 20.2148 -93.9453 L 54.9805 -93.9453 L 54.9805 -93.7012 L 18.0176 -49.0234 C 16.748 -47.5098 16.4062 -46.3867 16.4062 -44.7754 C 16.4062 -41.8945 18.4082 -39.8438 21.6309 -39.8438 Z M 84.9609 -6.44531 L 116.895 -6.44531 C 119.434 -6.44531 120.898 -7.8125 120.898 -10.1562 C 120.898 -12.4512 119.434 -13.8184 116.895 -13.8184 L 89.8926 -13.8184 L 89.8926 -14.0137 L 117.92 -47.8516 C 119.727 -50 120.312 -51.3184 120.312 -52.8809 C 120.312 -55.8594 118.359 -57.8125 114.746 -57.8125 L 83.4961 -57.8125 C 81.0059 -57.8125 79.541 -56.4453 79.541 -54.1016 C 79.541 -51.7578 81.0059 -50.4395 83.4961 -50.4395 L 110.4 -50.4395 L 110.4 -50.1953 L 81.7871 -15.625 C 80.3711 -13.916 79.8828 -12.793 79.8828 -11.2305 C 79.8828 -8.44727 81.7871 -6.44531 84.9609 -6.44531 Z M 39.5508 28.1738 L 65.1855 28.1738 C 67.4805 28.1738 68.8477 26.8555 68.8477 24.6582 C 68.8477 22.4609 67.4805 21.2402 65.1855 21.2402 L 44.2383 21.2402 L 44.2383 20.9961 L 66.1133 -5.61523 C 67.7734 -7.66602 68.3594 -9.0332 68.3594 -10.5957 C 68.3594 -13.3301 66.5039 -14.9902 63.4277 -14.9902 L 38.0371 -14.9902 C 35.7422 -14.9902 34.375 -13.6719 34.375 -11.5234 C 34.375 -9.27734 35.7422 -8.05664 38.0371 -8.05664 L 59.1797 -8.05664 L 59.1797 -7.8125 L 36.5723 19.5312 C 35.2051 21.1426 34.7656 22.168 34.7656 23.7305 C 34.7656 26.2695 36.6211 28.1738 39.5508 28.1738 Z"/>
  </g>
  <g id="Light-L" transform="matrix(1 0 0 1 1085.9 1556)">
   <path d="M 20.7031 -39.8926 L 61.0352 -39.8926 C 63.0371 -39.8926 64.2578 -41.0156 64.2578 -42.9199 C 64.2578 -44.8242 63.0371 -45.9473 61.0352 -45.9473 L 24.6094 -45.9473 L 24.6094 -46.1914 L 62.3535 -91.8457 C 63.623 -93.3105 64.0137 -94.4336 64.0137 -95.7031 C 64.0137 -98.2422 62.3535 -100.049 59.2773 -100.049 L 19.3848 -100.049 C 17.3828 -100.049 16.1621 -98.877 16.1621 -97.0215 C 16.1621 -95.1172 17.3828 -93.9941 19.3848 -93.9941 L 55.8105 -93.9941 L 55.8105 -93.75 L 17.627 -47.5586 C 16.6504 -46.3867 16.3086 -45.3613 16.3086 -44.0918 C 16.3086 -41.6992 17.9688 -39.8926 20.7031 -39.8926 Z M 83.1055 -7.17773 L 115.234 -7.17773 C 117.188 -7.17773 118.408 -8.30078 118.408 -10.1562 C 118.408 -12.0117 117.188 -13.0859 115.234 -13.0859 L 86.7188 -13.0859 L 86.7188 -13.3301 L 116.162 -48.8281 C 117.48 -50.4395 117.969 -51.5625 117.969 -52.832 C 117.969 -55.2734 116.357 -57.0312 113.33 -57.0312 L 81.7383 -57.0312 C 79.7852 -57.0312 78.6133 -55.9082 78.6133 -54.0527 C 78.6133 -52.1973 79.7852 -51.123 81.7383 -51.123 L 110.059 -51.123 L 110.059 -50.8789 L 80.2734 -14.8926 C 79.1992 -13.5742 78.7598 -12.5488 78.7598 -11.3281 C 78.7598 -8.98438 80.3711 -7.17773 83.1055 -7.17773 Z M 37.8418 26.8555 L 63.623 26.8555 C 65.4785 26.8555 66.6016 25.7324 66.6016 23.9746 C 66.6016 22.2168 65.4785 21.2402 63.623 21.2402 L 41.3086 21.2402 L 41.3086 20.9961 L 64.4531 -7.12891 C 65.7227 -8.69141 66.2109 -9.81445 66.2109 -11.084 C 66.2109 -13.3789 64.6484 -14.9414 61.9629 -14.9414 L 36.4258 -14.9414 C 34.5703 -14.9414 33.4473 -13.8672 33.4473 -12.1582 C 33.4473 -10.3516 34.5703 -9.32617 36.4258 -9.32617 L 58.7891 -9.32617 L 58.7891 -9.08203 L 35.1562 19.4824 C 34.082 20.752 33.6914 21.6797 33.6914 22.9004 C 33.6914 25.0977 35.2539 26.8555 37.8418 26.8555 Z"/>
  </g>
  <g id="Thin-L" transform="matrix(1 0 0 1 790.822 1556)">
   <path d="M 19.4824 -39.9414 L 59.9609 -39.9414 C 61.2305 -39.9414 62.0605 -40.7227 62.0605 -41.9434 C 62.0605 -43.1641 61.2305 -43.9453 59.9609 -43.9453 L 21.4355 -43.9453 L 21.4355 -44.1406 L 61.084 -92.1875 C 61.8164 -93.0176 62.1582 -93.8965 62.1582 -94.7266 C 62.1582 -96.5332 60.9375 -98.0469 58.7402 -98.0469 L 18.3105 -98.0469 C 17.0898 -98.0469 16.2598 -97.2168 16.2598 -95.9961 C 16.2598 -94.7754 17.0898 -94.043 18.3105 -94.043 L 56.8359 -94.043 L 56.8359 -93.7988 L 17.1387 -45.6543 C 16.5039 -44.9219 16.1621 -44.043 16.1621 -43.2129 C 16.1621 -41.4551 17.334 -39.9414 19.4824 -39.9414 Z M 80.6152 -8.1543 L 113.037 -8.1543 C 114.307 -8.1543 115.088 -8.93555 115.088 -10.1562 C 115.088 -11.377 114.307 -12.1094 113.037 -12.1094 L 82.5195 -12.1094 L 82.5195 -12.3535 L 113.818 -50.1953 C 114.551 -51.0254 114.893 -51.9043 114.893 -52.7344 C 114.893 -54.541 113.721 -56.0547 111.523 -56.0547 L 79.3945 -56.0547 C 78.1738 -56.0547 77.3438 -55.2246 77.3438 -54.0039 C 77.3438 -52.7832 78.1738 -52.0508 79.3945 -52.0508 L 109.668 -52.0508 L 109.668 -51.8555 L 78.3203 -13.916 C 77.6367 -13.1348 77.2949 -12.2559 77.2949 -11.4258 C 77.2949 -9.66797 78.4668 -8.1543 80.6152 -8.1543 Z M 35.5469 25.0977 L 61.5234 25.0977 C 62.7441 25.0977 63.5742 24.3164 63.5742 23.0957 C 63.5742 21.9238 62.7441 21.1914 61.5234 21.1914 L 37.4023 21.1914 L 37.4023 20.9473 L 62.3047 -9.17969 C 62.9883 -10.0098 63.3789 -10.8887 63.3789 -11.7188 C 63.3789 -13.4766 62.207 -14.9414 60.0586 -14.9414 L 34.2773 -14.9414 C 33.1055 -14.9414 32.2754 -14.1113 32.2754 -12.9395 C 32.2754 -11.7188 33.1055 -11.0352 34.2773 -11.0352 L 58.252 -11.0352 L 58.252 -10.791 L 33.252 19.4336 C 32.6172 20.2148 32.2754 21.0449 32.2754 21.875 C 32.2754 23.584 33.3984 25.0977 35.5469 25.0977 Z"/>
  </g>
  <g id="Ultralight-L" transform="matrix(1 0 0 1 494.965 1556)">
   <path d="M 18.8965 -39.9414 L 59.4727 -39.9414 C 60.3027 -39.9414 60.9375 -40.5762 60.9375 -41.4551 C 60.9375 -42.334 60.3027 -42.9199 59.4727 -42.9199 L 19.8242 -42.9199 L 19.8242 -43.1152 L 60.4492 -92.3828 C 60.8887 -92.8711 61.1816 -93.6035 61.1816 -94.1895 C 61.1816 -95.6543 60.2539 -97.0215 58.4473 -97.0215 L 17.7734 -97.0215 C 16.9434 -97.0215 16.3086 -96.3867 16.3086 -95.5078 C 16.3086 -94.6289 16.9434 -94.0918 17.7734 -94.0918 L 57.4219 -94.0918 L 57.4219 -93.8477 L 16.8945 -44.6777 C 16.4062 -44.1406 16.0645 -43.4082 16.0645 -42.7734 C 16.0645 -41.3086 16.9922 -39.9414 18.8965 -39.9414 Z M 79.3457 -8.64258 L 111.914 -8.64258 C 112.793 -8.64258 113.428 -9.27734 113.428 -10.1562 C 113.428 -11.084 112.793 -11.6211 111.914 -11.6211 L 80.3711 -11.6211 L 80.3711 -11.8652 L 112.598 -50.8789 C 113.037 -51.3184 113.33 -52.0996 113.33 -52.6855 C 113.33 -54.1504 112.354 -55.5176 110.547 -55.5176 L 78.1738 -55.5176 C 77.3438 -55.5176 76.709 -54.8828 76.709 -54.0039 C 76.709 -53.125 77.3438 -52.5391 78.1738 -52.5391 L 109.473 -52.5391 L 109.473 -52.2949 L 77.2949 -13.3789 C 76.8555 -12.8906 76.5625 -12.1094 76.5625 -11.4746 C 76.5625 -10.0098 77.4902 -8.64258 79.3457 -8.64258 Z M 34.375 24.2188 L 60.498 24.2188 C 61.377 24.2188 62.0117 23.584 62.0117 22.6562 C 62.0117 21.7285 61.377 21.1914 60.498 21.1914 L 35.4492 21.1914 L 35.4492 20.9473 L 61.1816 -10.2051 C 61.6211 -10.6445 61.9141 -11.4258 61.9141 -12.0117 C 61.9141 -13.4766 60.9375 -14.9414 59.082 -14.9414 L 33.2031 -14.9414 C 32.3242 -14.9414 31.6895 -14.2578 31.6895 -13.3301 C 31.6895 -12.4512 32.3242 -11.8652 33.2031 -11.8652 L 57.959 -11.8652 L 57.959 -11.6211 L 32.3242 19.3848 C 31.8359 19.9219 31.543 20.7031 31.543 21.3379 C 31.543 22.8027 32.4707 24.2188 34.375 24.2188 Z"/>
  </g>
  <g id="Black-M" transform="matrix(1 0 0 1 2871.93 1126)">
   <path d="M 21.582 -35.1562 L 52.5391 -35.1562 C 57.2266 -35.1562 60.4004 -38.1348 60.4004 -42.7246 C 60.4004 -47.2656 57.2266 -50.2441 52.5391 -50.2441 L 35.1074 -50.2441 L 35.1074 -50.4883 L 56.6895 -76.2207 C 58.9355 -78.9062 59.8145 -81.0547 59.8145 -83.6914 C 59.8145 -88.916 56.0059 -92.1875 50.4395 -92.1875 L 20.3125 -92.1875 C 15.6738 -92.1875 12.4512 -89.209 12.4512 -84.668 C 12.4512 -80.0781 15.6738 -77.0996 20.3125 -77.0996 L 37.7441 -77.0996 L 37.7441 -76.8555 L 15.332 -50.0977 C 13.5742 -47.998 12.8906 -46.1426 12.8906 -43.5059 C 12.8906 -38.623 16.5527 -35.1562 21.582 -35.1562 Z M 78.2715 -8.39844 L 102.734 -8.39844 C 107.324 -8.39844 110.498 -11.3281 110.498 -15.8203 C 110.498 -20.2148 107.275 -23.1445 102.734 -23.1445 L 91.2598 -23.1445 L 91.2598 -23.3887 L 106.445 -41.3574 C 108.789 -44.2383 109.863 -46.3379 109.863 -48.9746 C 109.863 -54.0527 106.152 -57.2754 100.732 -57.2754 L 77.002 -57.2754 C 72.4609 -57.2754 69.3359 -54.3945 69.3359 -49.9023 C 69.3359 -45.4102 72.4609 -42.5293 77.002 -42.5293 L 88.5254 -42.5293 L 88.5254 -42.2852 L 72.5586 -23.291 C 70.5566 -20.8984 69.7754 -18.9941 69.7754 -16.5039 C 69.7754 -11.7188 73.3398 -8.39844 78.2715 -8.39844 Z M 35.8887 19.1895 L 55.5176 19.1895 C 59.8633 19.1895 62.8906 16.3086 62.8906 12.0605 C 62.8906 7.76367 59.8633 4.98047 55.5176 4.98047 L 48.4863 4.98047 L 48.4863 4.73633 L 59.082 -8.05664 C 61.2793 -10.7422 62.3535 -12.8418 62.3535 -15.5273 C 62.3535 -20.166 58.9844 -23.1445 54.0527 -23.1445 L 34.5703 -23.1445 C 30.2246 -23.1445 27.1973 -20.3613 27.1973 -16.0645 C 27.1973 -11.7676 30.2246 -8.93555 34.5703 -8.93555 L 41.8945 -8.93555 L 41.8945 -8.69141 L 30.4199 4.93164 C 28.4668 7.27539 27.7832 8.98438 27.7832 11.4746 C 27.7832 15.9668 31.25 19.1895 35.8887 19.1895 Z"/>
  </g>
  <g id="Heavy-M" transform="matrix(1 0 0 1 2577.02 1126)">
   <path d="M 20.5566 -36.0352 L 51.5625 -36.0352 C 55.6641 -36.0352 58.4473 -38.5742 58.4473 -42.627 C 58.4473 -46.582 55.6641 -49.1211 51.5625 -49.1211 L 32.0801 -49.1211 L 32.0801 -49.3652 L 55.0293 -76.8066 C 57.0801 -79.2969 57.8613 -81.2012 57.8613 -83.5449 C 57.8613 -88.1836 54.541 -91.0645 49.5117 -91.0645 L 19.3359 -91.0645 C 15.2344 -91.0645 12.4512 -88.5254 12.4512 -84.5703 C 12.4512 -80.5176 15.2344 -77.9785 19.3359 -77.9785 L 38.7695 -77.9785 L 38.7695 -77.7344 L 15.0879 -49.3164 C 13.4766 -47.4121 12.8906 -45.752 12.8906 -43.3594 C 12.8906 -39.0625 16.0645 -36.0352 20.5566 -36.0352 Z M 75.5859 -9.32617 L 100.098 -9.32617 C 104.15 -9.32617 106.885 -11.9141 106.885 -15.8203 C 106.885 -19.6777 104.102 -22.168 100.098 -22.168 L 86.6211 -22.168 L 86.6211 -22.4121 L 103.125 -42.0898 C 105.322 -44.7754 106.299 -46.6309 106.299 -48.9746 C 106.299 -53.4668 103.027 -56.2988 98.1445 -56.2988 L 74.3652 -56.2988 C 70.3613 -56.2988 67.627 -53.8086 67.627 -49.9023 C 67.627 -45.9961 70.3613 -43.5059 74.3652 -43.5059 L 87.8906 -43.5059 L 87.8906 -43.2617 L 70.6055 -22.6074 C 68.7988 -20.459 68.0664 -18.75 68.0664 -16.5039 C 68.0664 -12.3047 71.1914 -9.32617 75.5859 -9.32617 Z M 34.9121 18.1152 L 54.541 18.1152 C 58.3496 18.1152 60.9863 15.6738 60.9863 11.9141 C 60.9863 8.20312 58.3496 5.81055 54.541 5.81055 L 45.5078 5.81055 L 45.5078 5.56641 L 57.4707 -8.83789 C 59.5215 -11.3281 60.4492 -13.2324 60.4492 -15.5762 C 60.4492 -19.7266 57.5195 -22.2656 53.0762 -22.2656 L 33.5938 -22.2656 C 29.7852 -22.2656 27.1973 -19.873 27.1973 -16.1621 C 27.1973 -12.4512 29.7852 -10.0098 33.5938 -10.0098 L 42.8711 -10.0098 L 42.8711 -9.76562 L 30.127 5.46875 C 28.3203 7.61719 27.7344 9.08203 27.7344 11.3281 C 27.7344 15.2832 30.7617 18.1152 34.9121 18.1152 Z"/>
  </g>
  <g id="Bold-M" transform="matrix(1 0 0 1 2282.34 1126)">
   <path d="M 19.4336 -36.9629 L 50.4883 -36.9629 C 53.9551 -36.9629 56.25 -39.0625 56.25 -42.4805 C 56.25 -45.8008 53.9551 -47.9004 50.4883 -47.9004 L 28.7109 -47.9004 L 28.7109 -48.0957 L 53.1738 -77.4902 C 55.0781 -79.7363 55.7129 -81.3477 55.7129 -83.3984 C 55.7129 -87.3535 52.8809 -89.8438 48.4863 -89.8438 L 18.2617 -89.8438 C 14.7461 -89.8438 12.5 -87.7441 12.5 -84.4238 C 12.5 -81.0059 14.7461 -78.9062 18.2617 -78.9062 L 39.9902 -78.9062 L 39.9902 -78.7109 L 14.7949 -48.3887 C 13.3301 -46.7285 12.8418 -45.2637 12.8418 -43.2617 C 12.8418 -39.5508 15.5762 -36.9629 19.4336 -36.9629 Z M 72.6074 -10.4492 L 97.168 -10.4492 C 100.586 -10.4492 102.832 -12.5 102.832 -15.8203 C 102.832 -19.043 100.586 -21.0938 97.168 -21.0938 L 81.3965 -21.0938 L 81.3965 -21.2891 L 99.4141 -42.9199 C 101.465 -45.3613 102.246 -46.9238 102.246 -48.9746 C 102.246 -52.7832 99.5117 -55.2246 95.2637 -55.2246 L 71.3867 -55.2246 C 68.0176 -55.2246 65.7715 -53.1738 65.7715 -49.9023 C 65.7715 -46.6309 68.0176 -44.5801 71.3867 -44.5801 L 87.1582 -44.5801 L 87.1582 -44.3359 L 68.4082 -21.875 C 66.7969 -19.9219 66.1621 -18.5059 66.1621 -16.5527 C 66.1621 -12.9395 68.7988 -10.4492 72.6074 -10.4492 Z M 33.7891 16.8945 L 53.4668 16.8945 C 56.6895 16.8945 58.7891 14.8926 58.7891 11.8164 C 58.7891 8.69141 56.6895 6.73828 53.4668 6.73828 L 42.2363 6.73828 L 42.2363 6.54297 L 55.6641 -9.7168 C 57.5195 -12.0117 58.3008 -13.6719 58.3008 -15.6738 C 58.3008 -19.1895 55.8105 -21.3379 52.0508 -21.3379 L 32.5195 -21.3379 C 29.2969 -21.3379 27.1973 -19.3848 27.1973 -16.3086 C 27.1973 -13.1348 29.2969 -11.1816 32.5195 -11.1816 L 43.9941 -11.1816 L 43.9941 -10.9863 L 29.7852 6.10352 C 28.2227 7.95898 27.6855 9.22852 27.6855 11.1816 C 27.6855 14.502 30.2246 16.8945 33.7891 16.8945 Z"/>
  </g>
  <g id="Semibold-M" transform="matrix(1 0 0 1 1987.02 1126)">
   <path d="M 18.7012 -37.6465 L 49.707 -37.6465 C 52.7832 -37.6465 54.7363 -39.4043 54.7363 -42.3828 C 54.7363 -45.2637 52.7832 -47.0703 49.707 -47.0703 L 26.3672 -47.0703 L 26.3672 -47.2656 L 51.9043 -77.9297 C 53.6621 -80.0293 54.1992 -81.4941 54.1992 -83.3008 C 54.1992 -86.8164 51.7578 -89.0137 47.8027 -89.0137 L 17.4805 -89.0137 C 14.4043 -89.0137 12.5 -87.207 12.5 -84.3262 C 12.5 -81.3477 14.4043 -79.5898 17.4805 -79.5898 L 40.7715 -79.5898 L 40.7715 -79.3457 L 14.5996 -47.8027 C 13.2812 -46.2402 12.8418 -44.9707 12.8418 -43.1641 C 12.8418 -39.8926 15.2344 -37.6465 18.7012 -37.6465 Z M 70.5566 -11.1816 L 95.1172 -11.1816 C 98.1445 -11.1816 100.049 -12.9395 100.049 -15.8203 C 100.049 -18.6035 98.1445 -20.3125 95.1172 -20.3125 L 77.7832 -20.3125 L 77.7832 -20.5566 L 96.875 -43.457 C 98.7793 -45.752 99.4629 -47.168 99.4629 -48.9258 C 99.4629 -52.3438 97.1191 -54.4434 93.2617 -54.4434 L 69.3359 -54.4434 C 66.3574 -54.4434 64.502 -52.7344 64.502 -49.9023 C 64.502 -47.0703 66.3574 -45.3125 69.3359 -45.3125 L 86.6699 -45.3125 L 86.6699 -45.1172 L 66.8945 -21.3379 C 65.4297 -19.5312 64.8438 -18.3105 64.8438 -16.5527 C 64.8438 -13.3789 67.1387 -11.1816 70.5566 -11.1816 Z M 33.0078 16.0645 L 52.7344 16.0645 C 55.5664 16.0645 57.3242 14.4043 57.3242 11.7188 C 57.3242 9.0332 55.5664 7.42188 52.7344 7.42188 L 39.9414 7.42188 L 39.9414 7.17773 L 54.3945 -10.3027 C 56.1523 -12.5 56.8359 -13.9648 56.8359 -15.7227 C 56.8359 -18.8477 54.6875 -20.7031 51.3184 -20.7031 L 31.7871 -20.7031 C 28.9551 -20.7031 27.1973 -18.9941 27.1973 -16.3574 C 27.1973 -13.6719 28.9551 -12.0117 31.7871 -12.0117 L 44.7754 -12.0117 L 44.7754 -11.8164 L 29.5898 6.49414 C 28.125 8.25195 27.6855 9.32617 27.6855 11.084 C 27.6855 14.0137 29.834 16.0645 33.0078 16.0645 Z"/>
  </g>
  <g id="Medium-M" transform="matrix(1 0 0 1 1691.36 1126)">
   <path d="M 18.1152 -38.1348 L 49.1699 -38.1348 C 51.9043 -38.1348 53.5645 -39.6973 53.5645 -42.2852 C 53.5645 -44.873 51.9043 -46.3867 49.1699 -46.3867 L 24.6094 -46.3867 L 24.6094 -46.582 L 50.9277 -78.2715 C 52.5879 -80.2734 53.0762 -81.5918 53.0762 -83.252 C 53.0762 -86.377 50.8789 -88.3301 47.2656 -88.3301 L 16.8945 -88.3301 C 14.1602 -88.3301 12.5 -86.7676 12.5 -84.2285 C 12.5 -81.6406 14.1602 -80.0781 16.8945 -80.0781 L 41.4062 -80.0781 L 41.4062 -79.8828 L 14.4531 -47.3145 C 13.1836 -45.8984 12.8418 -44.7266 12.8418 -43.0664 C 12.8418 -40.1367 14.9414 -38.1348 18.1152 -38.1348 Z M 68.9941 -11.7676 L 93.6035 -11.7676 C 96.2891 -11.7676 97.9004 -13.2812 97.9004 -15.8203 C 97.9004 -18.2617 96.2891 -19.7754 93.6035 -19.7754 L 75.0977 -19.7754 L 75.0977 -19.9707 L 94.9707 -43.8477 C 96.7285 -46.0449 97.3633 -47.3145 97.3633 -48.9258 C 97.3633 -52.002 95.2637 -53.9062 91.748 -53.9062 L 67.7734 -53.9062 C 65.1367 -53.9062 63.5254 -52.3926 63.5254 -49.9023 C 63.5254 -47.3633 65.1367 -45.8984 67.7734 -45.8984 L 86.2793 -45.8984 L 86.2793 -45.7031 L 65.7715 -20.9473 C 64.3555 -19.2871 63.8672 -18.1641 63.8672 -16.5527 C 63.8672 -13.7207 65.8691 -11.7676 68.9941 -11.7676 Z M 32.4707 15.4297 L 52.1973 15.4297 C 54.6875 15.4297 56.2012 14.0137 56.2012 11.6211 C 56.2012 9.27734 54.6875 7.91016 52.1973 7.91016 L 38.2324 7.91016 L 38.2324 7.71484 L 53.418 -10.791 C 55.127 -12.8418 55.7129 -14.1602 55.7129 -15.7715 C 55.7129 -18.5547 53.8086 -20.166 50.7324 -20.166 L 31.2012 -20.166 C 28.7109 -20.166 27.1973 -18.75 27.1973 -16.4551 C 27.1973 -14.0137 28.7109 -12.6465 31.2012 -12.6465 L 45.3613 -12.6465 L 45.3613 -12.4512 L 29.3945 6.78711 C 28.0762 8.44727 27.6367 9.42383 27.6367 10.9863 C 27.6367 13.5742 29.5898 15.4297 32.4707 15.4297 Z"/>
  </g>
  <g id="Regular-M" transform="matrix(1 0 0 1 1396.01 1126)">
   <path d="M 17.334 -38.7695 L 48.3887 -38.7695 C 50.7324 -38.7695 52.0508 -40.0391 52.0508 -42.1875 C 52.0508 -44.3359 50.7324 -45.5566 48.3887 -45.5566 L 22.3145 -45.5566 L 22.3145 -45.752 L 49.6582 -78.7109 C 51.2207 -80.5664 51.6113 -81.6895 51.6113 -83.1543 C 51.6113 -85.8398 49.7559 -87.5 46.5332 -87.5 L 16.1621 -87.5 C 13.8184 -87.5 12.5 -86.2793 12.5 -84.1309 C 12.5 -81.9336 13.8184 -80.7129 16.1621 -80.7129 L 42.1875 -80.7129 L 42.1875 -80.5176 L 14.209 -46.7285 C 13.1348 -45.4102 12.793 -44.4336 12.793 -43.0176 C 12.793 -40.4785 14.5996 -38.7695 17.334 -38.7695 Z M 66.9434 -12.5 L 91.6016 -12.5 C 93.8477 -12.5 95.166 -13.6719 95.166 -15.8203 C 95.166 -17.8223 93.8477 -19.043 91.6016 -19.043 L 71.5332 -19.043 L 71.5332 -19.2383 L 92.4316 -44.4336 C 94.0918 -46.4355 94.6289 -47.5586 94.6289 -48.9258 C 94.6289 -51.5625 92.8711 -53.1738 89.7949 -53.1738 L 65.7715 -53.1738 C 63.5254 -53.1738 62.2559 -51.9531 62.2559 -49.9023 C 62.2559 -47.8027 63.5254 -46.6309 65.7715 -46.6309 L 85.791 -46.6309 L 85.791 -46.4355 L 64.2578 -20.459 C 62.9883 -18.9453 62.5488 -17.9688 62.5488 -16.5527 C 62.5488 -14.1602 64.2578 -12.5 66.9434 -12.5 Z M 31.6895 14.6484 L 51.4648 14.6484 C 53.5156 14.6484 54.7363 13.4766 54.7363 11.5723 C 54.7363 9.61914 53.5156 8.54492 51.4648 8.54492 L 35.9863 8.54492 L 35.9863 8.34961 L 52.1973 -11.377 C 53.7598 -13.2812 54.248 -14.4531 54.248 -15.8691 C 54.248 -18.2129 52.6855 -19.5312 50.0488 -19.5312 L 30.4688 -19.5312 C 28.3691 -19.5312 27.1973 -18.4082 27.1973 -16.5039 C 27.1973 -14.5508 28.3691 -13.4277 30.4688 -13.4277 L 46.1426 -13.4277 L 46.1426 -13.2812 L 29.1992 7.22656 C 27.9785 8.69141 27.6367 9.52148 27.6367 10.8887 C 27.6367 13.0859 29.1992 14.6484 31.6895 14.6484 Z"/>
  </g>
  <g id="Light-M" transform="matrix(1 0 0 1 1100.45 1126)">
   <path d="M 16.5039 -38.8184 L 47.6562 -38.8184 C 49.4629 -38.8184 50.5371 -39.8438 50.5371 -41.5527 C 50.5371 -43.2129 49.4629 -44.1895 47.6562 -44.1895 L 20.166 -44.1895 L 20.166 -44.3848 L 48.7793 -78.9551 C 49.9512 -80.3711 50.293 -81.2988 50.293 -82.4707 C 50.293 -84.668 48.8281 -86.1328 46.1426 -86.1328 L 15.4297 -86.1328 C 13.623 -86.1328 12.5488 -85.1074 12.5488 -83.4473 C 12.5488 -81.7383 13.623 -80.7617 15.4297 -80.7617 L 42.9199 -80.7617 L 42.9199 -80.5664 L 13.8672 -45.459 C 12.9883 -44.3848 12.6953 -43.5547 12.6953 -42.3828 C 12.6953 -40.332 14.1602 -38.8184 16.5039 -38.8184 Z M 65.2344 -13.1348 L 90.0879 -13.1348 C 91.8457 -13.1348 92.8711 -14.1113 92.8711 -15.8203 C 92.8711 -17.4316 91.8457 -18.3594 90.0879 -18.3594 L 68.6523 -18.3594 L 68.6523 -18.5547 L 90.8203 -45.3125 C 92.0898 -46.8262 92.5293 -47.7539 92.5293 -48.877 C 92.5293 -51.0254 91.1133 -52.4902 88.4766 -52.4902 L 64.1602 -52.4902 C 62.4023 -52.4902 61.377 -51.5137 61.377 -49.8535 C 61.377 -48.1934 62.4023 -47.2656 64.1602 -47.2656 L 85.498 -47.2656 L 85.498 -47.0703 L 62.9395 -19.7754 C 61.9141 -18.6035 61.5723 -17.7734 61.5723 -16.6504 C 61.5723 -14.6484 62.9395 -13.1348 65.2344 -13.1348 Z M 30.127 13.4766 L 50.0488 13.4766 C 51.6602 13.4766 52.6367 12.5 52.6367 10.9375 C 52.6367 9.42383 51.6602 8.54492 50.0488 8.54492 L 33.3496 8.54492 L 33.3496 8.34961 L 50.7324 -12.7441 C 51.9043 -14.209 52.2949 -15.1855 52.2949 -16.3086 C 52.2949 -18.2617 50.9766 -19.5312 48.7305 -19.5312 L 29.0039 -19.5312 C 27.3438 -19.5312 26.3672 -18.5547 26.3672 -17.041 C 26.3672 -15.4785 27.3438 -14.5996 29.0039 -14.5996 L 45.752 -14.5996 L 45.752 -14.4043 L 27.8809 7.17773 C 26.9531 8.34961 26.6113 9.08203 26.6113 10.2051 C 26.6113 12.0605 27.9297 13.4766 30.127 13.4766 Z"/>
  </g>
  <g id="Thin-M" transform="matrix(1 0 0 1 805.226 1126)">
   <path d="M 15.3809 -38.8672 L 46.7285 -38.8672 C 47.8516 -38.8672 48.584 -39.5508 48.584 -40.6738 C 48.584 -41.748 47.8516 -42.3828 46.7285 -42.3828 L 17.334 -42.3828 L 17.334 -42.5781 L 47.6074 -79.2969 C 48.291 -80.0781 48.584 -80.8105 48.584 -81.543 C 48.584 -83.1055 47.5586 -84.3262 45.6543 -84.3262 L 14.4531 -84.3262 C 13.3301 -84.3262 12.5977 -83.6426 12.5977 -82.5684 C 12.5977 -81.4453 13.3301 -80.8105 14.4531 -80.8105 L 43.8477 -80.8105 L 43.8477 -80.6152 L 13.3789 -43.75 C 12.793 -43.0664 12.5488 -42.3828 12.5488 -41.6016 C 12.5488 -40.0879 13.5742 -38.8672 15.3809 -38.8672 Z M 63.0371 -14.0137 L 88.0859 -14.0137 C 89.209 -14.0137 89.9414 -14.7461 89.9414 -15.8203 C 89.9414 -16.8945 89.209 -17.5293 88.0859 -17.5293 L 64.8926 -17.5293 L 64.8926 -17.7246 L 88.7207 -46.5332 C 89.4043 -47.3633 89.6973 -48.0957 89.6973 -48.8281 C 89.6973 -50.3418 88.7207 -51.5625 86.8164 -51.5625 L 62.0117 -51.5625 C 60.9375 -51.5625 60.2051 -50.8789 60.2051 -49.8047 C 60.2051 -48.7305 60.9375 -48.0957 62.0117 -48.0957 L 85.1074 -48.0957 L 85.1074 -47.9004 L 61.1328 -18.8965 C 60.498 -18.2129 60.2051 -17.4805 60.2051 -16.748 C 60.2051 -15.2832 61.2305 -14.0137 63.0371 -14.0137 Z M 28.0273 11.9141 L 48.1445 11.9141 C 49.2188 11.9141 49.9023 11.2305 49.9023 10.1562 C 49.9023 9.13086 49.2188 8.49609 48.1445 8.49609 L 29.834 8.49609 L 29.834 8.30078 L 48.7305 -14.5996 C 49.4141 -15.3809 49.707 -16.1133 49.707 -16.8457 C 49.707 -18.3594 48.7305 -19.4824 46.9727 -19.4824 L 27.0508 -19.4824 C 25.9766 -19.4824 25.293 -18.7988 25.293 -17.7734 C 25.293 -16.6992 25.9766 -16.1133 27.0508 -16.1133 L 45.2637 -16.1133 L 45.2637 -15.918 L 26.1719 7.12891 C 25.5859 7.86133 25.293 8.49609 25.293 9.22852 C 25.293 10.6934 26.2695 11.9141 28.0273 11.9141 Z"/>
  </g>
  <g id="Ultralight-M" transform="matrix(1 0 0 1 509.296 1126)">
   <path d="M 14.7949 -38.8672 L 46.2402 -38.8672 C 47.0215 -38.8672 47.5586 -39.4043 47.5586 -40.2344 C 47.5586 -41.0156 47.0215 -41.5039 46.2402 -41.5039 L 15.8691 -41.5039 L 15.8691 -41.6504 L 47.0215 -79.4434 C 47.4609 -79.9316 47.7051 -80.5664 47.7051 -81.1035 C 47.7051 -82.3242 46.875 -83.4473 45.3613 -83.4473 L 13.916 -83.4473 C 13.1348 -83.4473 12.5977 -82.8613 12.5977 -82.0801 C 12.5977 -81.2988 13.1348 -80.8105 13.916 -80.8105 L 44.2871 -80.8105 L 44.2871 -80.6152 L 13.1348 -42.8711 C 12.7441 -42.3828 12.5 -41.748 12.5 -41.2109 C 12.5 -39.9902 13.2812 -38.8672 14.7949 -38.8672 Z M 61.8652 -14.502 L 87.0605 -14.502 C 87.8418 -14.502 88.3789 -15.0391 88.3789 -15.8203 C 88.3789 -16.6016 87.8418 -17.0898 87.0605 -17.0898 L 62.9395 -17.0898 L 62.9395 -17.2852 L 87.5977 -47.168 C 88.0371 -47.6074 88.2812 -48.2422 88.2812 -48.7793 C 88.2812 -50 87.5 -51.123 85.9375 -51.123 L 60.9375 -51.123 C 60.1562 -51.123 59.6191 -50.5859 59.6191 -49.8047 C 59.6191 -48.9746 60.1562 -48.4863 60.9375 -48.4863 L 84.8633 -48.4863 L 84.8633 -48.3398 L 60.2051 -18.457 C 59.8145 -17.9688 59.5215 -17.3828 59.5215 -16.7969 C 59.5215 -15.5762 60.3516 -14.502 61.8652 -14.502 Z M 27.002 11.084 L 47.168 11.084 C 47.9492 11.084 48.5352 10.5469 48.5352 9.76562 C 48.5352 8.98438 47.9492 8.49609 47.168 8.49609 L 28.0273 8.49609 L 28.0273 8.30078 L 47.7539 -15.5273 C 48.1445 -15.9668 48.3887 -16.6016 48.3887 -17.1387 C 48.3887 -18.3594 47.6074 -19.4824 46.0449 -19.4824 L 26.0742 -19.4824 C 25.2441 -19.4824 24.707 -18.9453 24.707 -18.1641 C 24.707 -17.3828 25.2441 -16.8945 26.0742 -16.8945 L 45.0195 -16.8945 L 45.0195 -16.6992 L 25.293 7.12891 C 24.9023 7.61719 24.6582 8.20312 24.6582 8.74023 C 24.6582 10.0098 25.4395 11.084 27.002 11.084 Z"/>
  </g>
  <g id="Black-S" transform="matrix(1 0 0 1 2885.35 696)">
   <path d="M 16.8457 -35.2539 L 41.1133 -35.2539 C 44.7266 -35.2539 47.2168 -37.5488 47.2168 -41.1133 C 47.2168 -44.6289 44.7266 -46.9238 41.1133 -46.9238 L 27.2949 -46.9238 L 27.2949 -47.1191 L 44.2871 -67.3828 C 46.0449 -69.4824 46.7285 -71.1426 46.7285 -73.1934 C 46.7285 -77.2461 43.7988 -79.7852 39.4531 -79.7852 L 15.8691 -79.7852 C 12.2559 -79.7852 9.76562 -77.4902 9.76562 -73.9746 C 9.76562 -70.4102 12.2559 -68.1152 15.8691 -68.1152 L 29.6387 -68.1152 L 29.6387 -67.9199 L 12.0117 -46.8262 C 10.6445 -45.2148 10.1074 -43.75 10.1074 -41.6992 C 10.1074 -37.9395 12.9395 -35.2539 16.8457 -35.2539 Z M 61.1328 -14.2578 L 80.3223 -14.2578 C 83.8867 -14.2578 86.3281 -16.5527 86.3281 -20.0195 C 86.3281 -23.4375 83.8379 -25.6836 80.3223 -25.6836 L 71.1914 -25.6836 L 71.1914 -25.8789 L 83.1543 -40.0879 C 85.0098 -42.334 85.8398 -43.9453 85.8398 -45.9961 C 85.8398 -49.9512 82.959 -52.4414 78.7598 -52.4414 L 60.1562 -52.4414 C 56.6406 -52.4414 54.1992 -50.1953 54.1992 -46.7285 C 54.1992 -43.2617 56.6406 -41.0156 60.1562 -41.0156 L 69.3359 -41.0156 L 69.3359 -40.8203 L 56.7383 -25.8301 C 55.1758 -23.9746 54.541 -22.5098 54.541 -20.5566 C 54.541 -16.8457 57.3242 -14.2578 61.1328 -14.2578 Z M 28.0762 7.32422 L 43.457 7.32422 C 46.8262 7.32422 49.1699 5.12695 49.1699 1.80664 C 49.1699 -1.51367 46.8262 -3.66211 43.457 -3.66211 L 37.793 -3.66211 L 37.793 -3.85742 L 46.1914 -13.9648 C 47.9004 -16.0645 48.7305 -17.7246 48.7305 -19.7754 C 48.7305 -23.3887 46.1426 -25.6836 42.2852 -25.6836 L 27.0508 -25.6836 C 23.6816 -25.6836 21.3379 -23.5352 21.3379 -20.2148 C 21.3379 -16.8945 23.6816 -14.6973 27.0508 -14.6973 L 32.9102 -14.6973 L 32.9102 -14.502 L 23.8281 -3.71094 C 22.3145 -1.9043 21.7773 -0.585938 21.7773 1.36719 C 21.7773 4.83398 24.4629 7.32422 28.0762 7.32422 Z"/>
  </g>
  <g id="Heavy-S" transform="matrix(1 0 0 1 2589.91 696)">
   <path d="M 16.1621 -35.8887 L 40.4297 -35.8887 C 43.7012 -35.8887 45.8496 -37.8906 45.8496 -41.1133 C 45.8496 -44.2383 43.7012 -46.2402 40.4297 -46.2402 L 25.2441 -46.2402 L 25.2441 -46.4355 L 43.1152 -67.8223 C 44.7754 -69.8242 45.4102 -71.2891 45.4102 -73.1445 C 45.4102 -76.8066 42.7734 -79.1016 38.7695 -79.1016 L 15.1855 -79.1016 C 11.9629 -79.1016 9.76562 -77.0996 9.76562 -73.9258 C 9.76562 -70.752 11.9629 -68.75 15.1855 -68.75 L 30.3711 -68.75 L 30.3711 -68.5547 L 11.8652 -46.3867 C 10.5469 -44.873 10.1074 -43.5547 10.1074 -41.6992 C 10.1074 -38.2812 12.6465 -35.8887 16.1621 -35.8887 Z M 59.2773 -14.9414 L 78.4668 -14.9414 C 81.6895 -14.9414 83.7891 -16.9434 83.7891 -20.0195 C 83.7891 -23.0469 81.6406 -25 78.4668 -25 L 67.9199 -25 L 67.9199 -25.1953 L 80.8105 -40.5273 C 82.5684 -42.6758 83.3008 -44.1406 83.3008 -45.9961 C 83.3008 -49.5605 80.7617 -51.7578 76.9043 -51.7578 L 58.3008 -51.7578 C 55.127 -51.7578 53.0273 -49.8047 53.0273 -46.7285 C 53.0273 -43.6523 55.127 -41.6992 58.3008 -41.6992 L 68.8477 -41.6992 L 68.8477 -41.5039 L 55.3711 -25.3906 C 53.9062 -23.6328 53.3691 -22.3633 53.3691 -20.5566 C 53.3691 -17.2363 55.8105 -14.9414 59.2773 -14.9414 Z M 27.4902 6.64062 L 42.8711 6.64062 C 45.8984 6.64062 47.9004 4.73633 47.9004 1.80664 C 47.9004 -1.17188 45.8984 -3.02734 42.8711 -3.02734 L 35.8398 -3.02734 L 35.8398 -3.22266 L 45.1172 -14.4043 C 46.7285 -16.4551 47.4609 -17.9199 47.4609 -19.7754 C 47.4609 -23.0469 45.166 -25.0488 41.6992 -25.0488 L 26.4648 -25.0488 C 23.4375 -25.0488 21.4355 -23.1445 21.4355 -20.2148 C 21.4355 -17.2852 23.4375 -15.3809 26.4648 -15.3809 L 33.6914 -15.3809 L 33.6914 -15.1855 L 23.7305 -3.32031 C 22.3145 -1.61133 21.875 -0.439453 21.875 1.31836 C 21.875 4.44336 24.2188 6.64062 27.4902 6.64062 Z"/>
  </g>
  <g id="Bold-S" transform="matrix(1 0 0 1 2294.62 696)">
   <path d="M 15.4297 -36.6211 L 39.6973 -36.6211 C 42.5293 -36.6211 44.3848 -38.3301 44.3848 -41.0645 C 44.3848 -43.75 42.5293 -45.459 39.6973 -45.459 L 22.9004 -45.459 L 22.9004 -45.6055 L 41.7969 -68.2617 C 43.3594 -70.166 43.8965 -71.4844 43.8965 -73.1445 C 43.8965 -76.3672 41.6016 -78.3203 38.0371 -78.3203 L 14.4531 -78.3203 C 11.6211 -78.3203 9.76562 -76.6113 9.76562 -73.9258 C 9.76562 -71.1914 11.6211 -69.4824 14.4531 -69.4824 L 31.2012 -69.4824 L 31.2012 -69.3359 L 11.6699 -45.8496 C 10.498 -44.4336 10.1074 -43.3105 10.1074 -41.6504 C 10.1074 -38.6719 12.3047 -36.6211 15.4297 -36.6211 Z M 57.1777 -15.6738 L 76.416 -15.6738 C 79.1992 -15.6738 80.957 -17.334 80.957 -20.0195 C 80.957 -22.6074 79.1504 -24.2676 76.416 -24.2676 L 64.3066 -24.2676 L 64.3066 -24.4141 L 78.1738 -41.0156 C 79.834 -43.0664 80.5176 -44.3359 80.5176 -45.9961 C 80.5176 -49.1211 78.3203 -51.0254 74.8535 -51.0254 L 56.2012 -51.0254 C 53.4668 -51.0254 51.709 -49.3652 51.709 -46.7285 C 51.709 -44.0918 53.4668 -42.4316 56.2012 -42.4316 L 68.3105 -42.4316 L 68.3105 -42.2852 L 53.8574 -24.9023 C 52.5391 -23.291 52.002 -22.168 52.002 -20.5566 C 52.002 -17.6758 54.1504 -15.6738 57.1777 -15.6738 Z M 26.8066 5.85938 L 42.2363 5.85938 C 44.8242 5.85938 46.5332 4.24805 46.5332 1.75781 C 46.5332 -0.732422 44.8242 -2.29492 42.2363 -2.29492 L 33.6426 -2.29492 L 33.6426 -2.49023 L 43.8965 -14.9414 C 45.459 -16.8457 46.0938 -18.1641 46.0938 -19.8242 C 46.0938 -22.6562 44.0918 -24.3164 41.0645 -24.3164 L 25.8301 -24.3164 C 23.1934 -24.3164 21.5332 -22.7539 21.5332 -20.2637 C 21.5332 -17.7246 23.1934 -16.1621 25.8301 -16.1621 L 34.6191 -16.1621 L 34.6191 -15.9668 L 23.6328 -2.83203 C 22.3633 -1.26953 21.9238 -0.292969 21.9238 1.31836 C 21.9238 3.95508 23.9746 5.85938 26.8066 5.85938 Z"/>
  </g>
  <g id="Semibold-S" transform="matrix(1 0 0 1 1998.88 696)">
   <path d="M 14.8926 -37.1094 L 39.1602 -37.1094 C 41.748 -37.1094 43.3105 -38.5742 43.3105 -41.0645 C 43.3105 -43.457 41.748 -44.9219 39.1602 -44.9219 L 21.2891 -44.9219 L 21.2891 -45.0684 L 40.918 -68.6035 C 42.4316 -70.4102 42.8711 -71.582 42.8711 -73.1445 C 42.8711 -76.0254 40.8203 -77.7832 37.5488 -77.7832 L 13.916 -77.7832 C 11.377 -77.7832 9.76562 -76.3184 9.76562 -73.9258 C 9.76562 -71.4355 11.377 -69.9707 13.916 -69.9707 L 31.7383 -69.9707 L 31.7383 -69.8242 L 11.5234 -45.5078 C 10.4492 -44.1895 10.1074 -43.1641 10.1074 -41.6504 C 10.1074 -38.9648 12.0605 -37.1094 14.8926 -37.1094 Z M 55.7617 -16.2109 L 74.9512 -16.2109 C 77.4902 -16.2109 79.0039 -17.627 79.0039 -20.0195 C 79.0039 -22.3145 77.4414 -23.7305 74.9512 -23.7305 L 61.8164 -23.7305 L 61.8164 -23.9258 L 76.3672 -41.4062 C 77.9785 -43.3594 78.5645 -44.4824 78.5645 -45.9961 C 78.5645 -48.7793 76.6113 -50.4883 73.4375 -50.4883 L 54.7852 -50.4883 C 52.3438 -50.4883 50.7812 -49.0723 50.7812 -46.7285 C 50.7812 -44.3848 52.3438 -42.9688 54.7852 -42.9688 L 67.9688 -42.9688 L 67.9688 -42.7734 L 52.832 -24.5605 C 51.5625 -23.0469 51.123 -22.0215 51.123 -20.5566 C 51.123 -17.9688 52.9785 -16.2109 55.7617 -16.2109 Z M 26.3672 5.32227 L 41.748 5.32227 C 44.0918 5.32227 45.5566 3.95508 45.5566 1.75781 C 45.5566 -0.488281 44.0918 -1.80664 41.748 -1.80664 L 32.1289 -1.80664 L 32.1289 -1.95312 L 43.0664 -15.2832 C 44.5801 -17.1387 45.1172 -18.3105 45.1172 -19.8242 C 45.1172 -22.3633 43.3594 -23.8281 40.625 -23.8281 L 25.3418 -23.8281 C 23.0469 -23.8281 21.582 -22.4609 21.582 -20.2637 C 21.582 -18.0176 23.0469 -16.6992 25.3418 -16.6992 L 35.2539 -16.6992 L 35.2539 -16.5039 L 23.584 -2.53906 C 22.3633 -1.02539 22.0215 -0.146484 22.0215 1.26953 C 22.0215 3.66211 23.7793 5.32227 26.3672 5.32227 Z"/>
  </g>
  <g id="Medium-S" transform="matrix(1 0 0 1 1702.9 696)">
   <path d="M 14.502 -37.5 L 38.7695 -37.5 C 41.1133 -37.5 42.5293 -38.8184 42.5293 -41.0156 C 42.5293 -43.2129 41.1133 -44.5312 38.7695 -44.5312 L 20.0684 -44.5312 L 20.0684 -44.6777 L 40.1855 -68.8477 C 41.6992 -70.6055 42.0898 -71.6797 42.0898 -73.0957 C 42.0898 -75.7812 40.2344 -77.3926 37.1582 -77.3926 L 13.5254 -77.3926 C 11.1816 -77.3926 9.76562 -76.0742 9.76562 -73.877 C 9.76562 -71.6797 11.1816 -70.3613 13.5254 -70.3613 L 32.1777 -70.3613 L 32.1777 -70.2148 L 11.4258 -45.2148 C 10.4004 -43.9453 10.1074 -43.0176 10.1074 -41.6016 C 10.1074 -39.1602 11.8652 -37.5 14.502 -37.5 Z M 54.6875 -16.6016 L 73.877 -16.6016 C 76.1719 -16.6016 77.5391 -17.8711 77.5391 -20.0195 C 77.5391 -22.1191 76.1719 -23.3398 73.877 -23.3398 L 59.9121 -23.3398 L 59.9121 -23.5352 L 75 -41.6504 C 76.5625 -43.5547 77.0996 -44.6289 77.0996 -45.9961 C 77.0996 -48.584 75.3418 -50.0977 72.3633 -50.0977 L 53.7109 -50.0977 C 51.4648 -50.0977 50.0977 -48.877 50.0977 -46.7285 C 50.0977 -44.5801 51.4648 -43.3594 53.7109 -43.3594 L 67.6758 -43.3594 L 67.6758 -43.1641 L 52.0508 -24.3164 C 50.8301 -22.8516 50.3906 -21.9238 50.3906 -20.5566 C 50.3906 -18.1641 52.0996 -16.6016 54.6875 -16.6016 Z M 26.0254 4.93164 L 41.4062 4.93164 C 43.5547 4.93164 44.8242 3.71094 44.8242 1.70898 C 44.8242 -0.244141 43.5547 -1.41602 41.4062 -1.41602 L 30.957 -1.41602 L 30.957 -1.5625 L 42.4316 -15.5273 C 43.8965 -17.334 44.3848 -18.457 44.3848 -19.8242 C 44.3848 -22.168 42.8223 -23.4375 40.2832 -23.4375 L 25 -23.4375 C 22.9004 -23.4375 21.6309 -22.2168 21.6309 -20.2637 C 21.6309 -18.2617 22.9004 -17.0898 25 -17.0898 L 35.6934 -17.0898 L 35.6934 -16.9434 L 23.5352 -2.29492 C 22.3633 -0.878906 22.0703 -0.0976562 22.0703 1.26953 C 22.0703 3.41797 23.6816 4.93164 26.0254 4.93164 Z"/>
  </g>
  <g id="Regular-S" transform="matrix(1 0 0 1 1407.14 696)">
   <path d="M 13.9648 -37.9883 L 38.2812 -37.9883 C 40.332 -37.9883 41.5039 -39.0625 41.5039 -41.0156 C 41.5039 -42.8711 40.332 -43.9941 38.2812 -43.9941 L 18.5059 -43.9941 L 18.5059 -44.1406 L 39.3066 -69.1895 C 40.7227 -70.8496 41.0645 -71.8262 41.0645 -73.0957 C 41.0645 -75.4395 39.4531 -76.8555 36.6699 -76.8555 L 13.0371 -76.8555 C 10.9375 -76.8555 9.76562 -75.7324 9.76562 -73.877 C 9.76562 -71.9238 10.9375 -70.8496 13.0371 -70.8496 L 32.7148 -70.8496 L 32.7148 -70.7031 L 11.3281 -44.873 C 10.3027 -43.7012 10.1074 -42.8711 10.1074 -41.6016 C 10.1074 -39.4043 11.6211 -37.9883 13.9648 -37.9883 Z M 53.2715 -17.0898 L 72.4609 -17.0898 C 74.5117 -17.0898 75.6348 -18.1152 75.6348 -20.0195 C 75.6348 -21.8262 74.5117 -22.8516 72.4609 -22.8516 L 57.4219 -22.8516 L 57.4219 -22.998 L 73.1934 -41.9922 C 74.6582 -43.7988 75.1465 -44.7754 75.1465 -45.9961 C 75.1465 -48.2422 73.6328 -49.6094 70.9473 -49.6094 L 52.2949 -49.6094 C 50.293 -49.6094 49.1699 -48.584 49.1699 -46.7285 C 49.1699 -44.873 50.293 -43.8477 52.2949 -43.8477 L 67.334 -43.8477 L 67.334 -43.7012 L 51.0254 -23.9746 C 49.8535 -22.6074 49.5117 -21.7773 49.5117 -20.5566 C 49.5117 -18.5059 50.9766 -17.0898 53.2715 -17.0898 Z M 25.5859 4.39453 L 40.9668 4.39453 C 42.8223 4.39453 43.8477 3.41797 43.8477 1.70898 C 43.8477 0 42.8223 -0.927734 40.9668 -0.927734 L 29.4434 -0.927734 L 29.4434 -1.07422 L 41.6016 -15.8691 C 43.0176 -17.627 43.457 -18.6035 43.457 -19.8242 C 43.457 -21.875 42.0898 -22.9492 39.8438 -22.9492 L 24.5605 -22.9492 C 22.7539 -22.9492 21.6797 -21.9727 21.6797 -20.3125 C 21.6797 -18.5547 22.7539 -17.627 24.5605 -17.627 L 36.3281 -17.627 L 36.3281 -17.4805 L 23.4863 -1.95312 C 22.4121 -0.634766 22.1191 0.0488281 22.1191 1.26953 C 22.1191 3.125 23.4863 4.39453 25.5859 4.39453 Z"/>
  </g>
  <g id="Light-S" transform="matrix(1 0 0 1 1111.43 696)">
   <path d="M 13.2324 -38.0371 L 37.5977 -38.0371 C 39.2578 -38.0371 40.1855 -38.916 40.1855 -40.4297 C 40.1855 -41.8945 39.2578 -42.7734 37.5977 -42.7734 L 16.6016 -42.7734 L 16.6016 -42.9199 L 38.5254 -69.3848 C 39.5996 -70.6543 39.8926 -71.4844 39.8926 -72.5098 C 39.8926 -74.4141 38.623 -75.6348 36.3281 -75.6348 L 12.3535 -75.6348 C 10.7422 -75.6348 9.81445 -74.7559 9.81445 -73.291 C 9.81445 -71.7285 10.7422 -70.8984 12.3535 -70.8984 L 33.3496 -70.8984 L 33.3496 -70.752 L 10.9863 -43.7012 C 10.2051 -42.7734 10.0098 -42.0898 10.0098 -41.0645 C 10.0098 -39.2578 11.2305 -38.0371 13.2324 -38.0371 Z M 51.7578 -17.6758 L 71.1426 -17.6758 C 72.7051 -17.6758 73.6328 -18.5547 73.6328 -20.0195 C 73.6328 -21.4355 72.7051 -22.2656 71.1426 -22.2656 L 54.8828 -22.2656 L 54.8828 -22.4121 L 71.7773 -42.7734 C 72.9004 -44.1406 73.291 -44.9707 73.291 -45.9473 C 73.291 -47.8027 72.0703 -49.0234 69.8242 -49.0234 L 50.8789 -49.0234 C 49.3164 -49.0234 48.3887 -48.1445 48.3887 -46.6797 C 48.3887 -45.2148 49.3164 -44.3848 50.8789 -44.3848 L 67.0898 -44.3848 L 67.0898 -44.2383 L 49.8047 -23.3887 C 48.9258 -22.3145 48.584 -21.6309 48.584 -20.6543 C 48.584 -18.8965 49.8047 -17.6758 51.7578 -17.6758 Z M 24.1699 3.36914 L 39.7461 3.36914 C 41.1621 3.36914 42.041 2.53906 42.041 1.17188 C 42.041 -0.195312 41.1621 -0.927734 39.7461 -0.927734 L 27.1484 -0.927734 L 27.1484 -1.07422 L 40.2832 -17.0898 C 41.3574 -18.4082 41.6992 -19.2383 41.6992 -20.2148 C 41.6992 -21.9238 40.5762 -22.9492 38.6719 -22.9492 L 23.291 -22.9492 C 21.8262 -22.9492 20.9473 -22.1191 20.9473 -20.8008 C 20.9473 -19.3848 21.8262 -18.6035 23.291 -18.6035 L 35.9863 -18.6035 L 35.9863 -18.457 L 22.3145 -2.00195 C 21.4844 -0.976562 21.2402 -0.341797 21.2402 0.634766 C 21.2402 2.19727 22.3633 3.36914 24.1699 3.36914 Z"/>
  </g>
  <g id="Thin-S" transform="matrix(1 0 0 1 816.041 696)">
   <path d="M 12.2559 -38.0371 L 36.7676 -38.0371 C 37.793 -38.0371 38.4277 -38.6719 38.4277 -39.6484 C 38.4277 -40.625 37.793 -41.2109 36.7676 -41.2109 L 14.1113 -41.2109 L 14.1113 -41.3574 L 37.5 -69.6777 C 38.1348 -70.4102 38.3789 -71.0449 38.3789 -71.6797 C 38.3789 -73.0469 37.5 -74.0723 35.8398 -74.0723 L 11.4746 -74.0723 C 10.498 -74.0723 9.86328 -73.4375 9.86328 -72.4609 C 9.86328 -71.4844 10.498 -70.8984 11.4746 -70.8984 L 34.1797 -70.8984 L 34.1797 -70.752 L 10.5957 -42.2363 C 10.0586 -41.6016 9.86328 -41.0645 9.86328 -40.3809 C 9.86328 -39.1113 10.7422 -38.0371 12.2559 -38.0371 Z M 49.8047 -18.457 L 69.3848 -18.457 C 70.3613 -18.457 70.9961 -19.043 70.9961 -20.0195 C 70.9961 -20.9473 70.3613 -21.5332 69.3848 -21.5332 L 51.5137 -21.5332 L 51.5137 -21.6797 L 69.873 -43.8477 C 70.5566 -44.6289 70.8008 -45.2148 70.8008 -45.8984 C 70.8008 -47.2168 69.9219 -48.1934 68.3105 -48.1934 L 48.9746 -48.1934 C 47.998 -48.1934 47.3633 -47.6074 47.3633 -46.6797 C 47.3633 -45.7031 47.998 -45.1172 48.9746 -45.1172 L 66.748 -45.1172 L 66.748 -44.9707 L 48.2422 -22.6074 C 47.6562 -21.9727 47.4121 -21.3867 47.4121 -20.752 C 47.4121 -19.4824 48.291 -18.457 49.8047 -18.457 Z M 22.3633 2.00195 L 38.0859 2.00195 C 39.0137 2.00195 39.5996 1.41602 39.5996 0.488281 C 39.5996 -0.439453 39.0137 -0.976562 38.0859 -0.976562 L 24.0234 -0.976562 L 24.0234 -1.12305 L 38.5742 -18.7012 C 39.1602 -19.4336 39.4531 -20.0684 39.4531 -20.7031 C 39.4531 -21.9727 38.623 -22.9004 37.1094 -22.9004 L 21.5332 -22.9004 C 20.6055 -22.9004 20.0195 -22.3145 20.0195 -21.4355 C 20.0195 -20.5078 20.6055 -19.9707 21.5332 -19.9707 L 35.5469 -19.9707 L 35.5469 -19.8242 L 20.8496 -2.00195 C 20.3125 -1.36719 20.0684 -0.830078 20.0684 -0.195312 C 20.0684 1.02539 20.8984 2.00195 22.3633 2.00195 Z"/>
  </g>
  <g id="Ultralight-S" transform="matrix(1 0 0 1 520.014 696)">
   <path d="M 11.7676 -38.0859 L 36.3281 -38.0859 C 37.0605 -38.0859 37.5 -38.5742 37.5 -39.2578 C 37.5 -39.9414 37.0605 -40.3809 36.3281 -40.3809 L 12.793 -40.3809 L 12.793 -40.5273 L 37.0117 -69.8242 C 37.4023 -70.3125 37.5977 -70.8008 37.5977 -71.2891 C 37.5977 -72.3145 36.9141 -73.2422 35.5957 -73.2422 L 11.0352 -73.2422 C 10.3516 -73.2422 9.86328 -72.7539 9.86328 -72.0703 C 9.86328 -71.3867 10.3516 -70.9473 11.0352 -70.9473 L 34.5703 -70.9473 L 34.5703 -70.8008 L 10.3516 -41.4551 C 10.0098 -41.0156 9.76562 -40.5273 9.76562 -40.0391 C 9.76562 -38.9648 10.4492 -38.0859 11.7676 -38.0859 Z M 48.7793 -18.8477 L 68.457 -18.8477 C 69.1895 -18.8477 69.6289 -19.3359 69.6289 -20.0195 C 69.6289 -20.7031 69.1895 -21.1426 68.457 -21.1426 L 49.8047 -21.1426 L 49.8047 -21.2891 L 68.9453 -44.3848 C 69.3359 -44.873 69.5312 -45.3613 69.5312 -45.8496 C 69.5312 -46.875 68.8477 -47.8027 67.5781 -47.8027 L 48.0469 -47.8027 C 47.3145 -47.8027 46.875 -47.3145 46.875 -46.6309 C 46.875 -45.9473 47.3145 -45.5078 48.0469 -45.5078 L 66.5527 -45.5078 L 66.5527 -45.3613 L 47.4121 -22.2168 C 47.0215 -21.7773 46.8262 -21.2891 46.8262 -20.8008 C 46.8262 -19.7754 47.5098 -18.8477 48.7793 -18.8477 Z M 21.4355 1.26953 L 37.207 1.26953 C 37.8906 1.26953 38.3789 0.830078 38.3789 0.146484 C 38.3789 -0.537109 37.8906 -0.976562 37.207 -0.976562 L 22.4609 -0.976562 L 22.4609 -1.12305 L 37.6465 -19.5312 C 38.0371 -19.9707 38.2812 -20.5078 38.2812 -20.9961 C 38.2812 -22.0215 37.5977 -22.9004 36.3281 -22.9004 L 20.6543 -22.9004 C 19.9707 -22.9004 19.4824 -22.4121 19.4824 -21.7285 C 19.4824 -21.0449 19.9707 -20.6543 20.6543 -20.6543 L 35.3027 -20.6543 L 35.3027 -20.5078 L 20.0684 -2.05078 C 19.6777 -1.61133 19.4824 -1.12305 19.4824 -0.634766 C 19.4824 0.390625 20.166 1.26953 21.4355 1.26953 Z"/>
  </g>
 </g>
</svg>
