<?xml version="1.0" encoding="UTF-8"?>
<!--Generator: Apple Native CoreSVG 123-->
<!DOCTYPE svg
PUBLIC "-//W3C//DTD SVG 1.1//EN"
       "http://www.w3.org/Graphics/SVG/1.1/DTD/svg11.dtd">
<svg version="1.1" xmlns="http://www.w3.org/2000/svg" xmlns:xlink="http://www.w3.org/1999/xlink" width="3300" height="2200">
 <!--glyph: "uni1001CD.medium", point size: 100.000000, font version: "Version 15.0d7e11", template writer version: "5"-->
 <g id="Notes">
  <rect height="2200" id="artboard" style="fill:white;opacity:1" width="3300" x="0" y="0"/>
  <line id="" style="fill:none;stroke:black;opacity:1;stroke-width:0.5;" x1="263" x2="3036" y1="292" y2="292"/>
  <text style="stroke:none;fill:black;font-family:-apple-system,&quot;SF Pro Display&quot;,&quot;SF Pro Text&quot;,Helvetica,sans-serif;font-weight:bold;" transform="matrix(1 0 0 1 263 322)">Weight/Scale Variations</text>
  <text style="stroke:none;fill:black;font-family:-apple-system,&quot;SF Pro Display&quot;,&quot;SF Pro Text&quot;,Helvetica,sans-serif;text-anchor:middle;" transform="matrix(1 0 0 1 559.711 322)">Ultralight</text>
  <text style="stroke:none;fill:black;font-family:-apple-system,&quot;SF Pro Display&quot;,&quot;SF Pro Text&quot;,Helvetica,sans-serif;text-anchor:middle;" transform="matrix(1 0 0 1 856.422 322)">Thin</text>
  <text style="stroke:none;fill:black;font-family:-apple-system,&quot;SF Pro Display&quot;,&quot;SF Pro Text&quot;,Helvetica,sans-serif;text-anchor:middle;" transform="matrix(1 0 0 1 1153.13 322)">Light</text>
  <text style="stroke:none;fill:black;font-family:-apple-system,&quot;SF Pro Display&quot;,&quot;SF Pro Text&quot;,Helvetica,sans-serif;text-anchor:middle;" transform="matrix(1 0 0 1 1449.84 322)">Regular</text>
  <text style="stroke:none;fill:black;font-family:-apple-system,&quot;SF Pro Display&quot;,&quot;SF Pro Text&quot;,Helvetica,sans-serif;text-anchor:middle;" transform="matrix(1 0 0 1 1746.56 322)">Medium</text>
  <text style="stroke:none;fill:black;font-family:-apple-system,&quot;SF Pro Display&quot;,&quot;SF Pro Text&quot;,Helvetica,sans-serif;text-anchor:middle;" transform="matrix(1 0 0 1 2043.27 322)">Semibold</text>
  <text style="stroke:none;fill:black;font-family:-apple-system,&quot;SF Pro Display&quot;,&quot;SF Pro Text&quot;,Helvetica,sans-serif;text-anchor:middle;" transform="matrix(1 0 0 1 2339.98 322)">Bold</text>
  <text style="stroke:none;fill:black;font-family:-apple-system,&quot;SF Pro Display&quot;,&quot;SF Pro Text&quot;,Helvetica,sans-serif;text-anchor:middle;" transform="matrix(1 0 0 1 2636.69 322)">Heavy</text>
  <text style="stroke:none;fill:black;font-family:-apple-system,&quot;SF Pro Display&quot;,&quot;SF Pro Text&quot;,Helvetica,sans-serif;text-anchor:middle;" transform="matrix(1 0 0 1 2933.4 322)">Black</text>
  <line id="" style="fill:none;stroke:black;opacity:1;stroke-width:0.5;" x1="263" x2="3036" y1="1903" y2="1903"/>
  <g id="" transform="matrix(1 0 0 1 263 1933)">
   <path d="M 9.24805 0.830078 C 13.5547 0.830078 17.1387 -2.74414 17.1387 -7.05078 C 17.1387 -11.3574 13.5449 -14.9316 9.23828 -14.9316 C 4.94141 -14.9316 1.36719 -11.3574 1.36719 -7.05078 C 1.36719 -2.74414 4.95117 0.830078 9.24805 0.830078 Z M 9.24805 -0.654297 C 5.70312 -0.654297 2.87109 -3.49609 2.87109 -7.05078 C 2.87109 -10.6055 5.69336 -13.4473 9.23828 -13.4473 C 12.793 -13.4473 15.6348 -10.6055 15.6445 -7.05078 C 15.6543 -3.49609 12.8027 -0.654297 9.24805 -0.654297 Z M 9.22852 -3.42773 C 9.69727 -3.42773 9.9707 -3.74023 9.9707 -4.25781 L 9.9707 -6.31836 L 12.1973 -6.31836 C 12.6953 -6.31836 13.0371 -6.57227 13.0371 -7.04102 C 13.0371 -7.51953 12.7148 -7.7832 12.1973 -7.7832 L 9.9707 -7.7832 L 9.9707 -10.0098 C 9.9707 -10.5273 9.69727 -10.8496 9.22852 -10.8496 C 8.75977 -10.8496 8.50586 -10.5078 8.50586 -10.0098 L 8.50586 -7.7832 L 6.29883 -7.7832 C 5.78125 -7.7832 5.44922 -7.51953 5.44922 -7.04102 C 5.44922 -6.57227 5.80078 -6.31836 6.29883 -6.31836 L 8.50586 -6.31836 L 8.50586 -4.25781 C 8.50586 -3.75977 8.75977 -3.42773 9.22852 -3.42773 Z"/>
  </g>
  <g id="" transform="matrix(1 0 0 1 281.506 1933)">
   <path d="M 11.709 2.91016 C 17.1582 2.91016 21.6699 -1.60156 21.6699 -7.05078 C 21.6699 -12.4902 17.1484 -17.0117 11.6992 -17.0117 C 6.25977 -17.0117 1.74805 -12.4902 1.74805 -7.05078 C 1.74805 -1.60156 6.26953 2.91016 11.709 2.91016 Z M 11.709 1.25 C 7.09961 1.25 3.41797 -2.44141 3.41797 -7.05078 C 3.41797 -11.6504 7.08984 -15.3516 11.6992 -15.3516 C 16.3086 -15.3516 20 -11.6504 20.0098 -7.05078 C 20.0195 -2.44141 16.3184 1.25 11.709 1.25 Z M 11.6895 -2.41211 C 12.207 -2.41211 12.5195 -2.77344 12.5195 -3.33984 L 12.5195 -6.23047 L 15.5762 -6.23047 C 16.123 -6.23047 16.5039 -6.51367 16.5039 -7.03125 C 16.5039 -7.55859 16.1426 -7.86133 15.5762 -7.86133 L 12.5195 -7.86133 L 12.5195 -10.9277 C 12.5195 -11.5039 12.207 -11.8555 11.6895 -11.8555 C 11.1719 -11.8555 10.8789 -11.4844 10.8789 -10.9277 L 10.8789 -7.86133 L 7.83203 -7.86133 C 7.26562 -7.86133 6.89453 -7.55859 6.89453 -7.03125 C 6.89453 -6.51367 7.28516 -6.23047 7.83203 -6.23047 L 10.8789 -6.23047 L 10.8789 -3.33984 C 10.8789 -2.79297 11.1719 -2.41211 11.6895 -2.41211 Z"/>
  </g>
  <g id="" transform="matrix(1 0 0 1 304.924 1933)">
   <path d="M 14.9707 5.67383 C 21.9336 5.67383 27.6953 -0.078125 27.6953 -7.04102 C 27.6953 -14.0039 21.9238 -19.7559 14.9609 -19.7559 C 8.00781 -19.7559 2.25586 -14.0039 2.25586 -7.04102 C 2.25586 -0.078125 8.01758 5.67383 14.9707 5.67383 Z M 14.9707 3.85742 C 8.93555 3.85742 4.08203 -1.00586 4.08203 -7.04102 C 4.08203 -13.0762 8.92578 -17.9395 14.9609 -17.9395 C 21.0059 -17.9395 25.8594 -13.0762 25.8691 -7.04102 C 25.8789 -1.00586 21.0156 3.85742 14.9707 3.85742 Z M 14.9512 -1.06445 C 15.5176 -1.06445 15.8691 -1.45508 15.8691 -2.06055 L 15.8691 -6.13281 L 20.1074 -6.13281 C 20.6934 -6.13281 21.1133 -6.46484 21.1133 -7.02148 C 21.1133 -7.59766 20.7227 -7.93945 20.1074 -7.93945 L 15.8691 -7.93945 L 15.8691 -12.1875 C 15.8691 -12.8027 15.5176 -13.1934 14.9512 -13.1934 C 14.3848 -13.1934 14.0625 -12.7832 14.0625 -12.1875 L 14.0625 -7.93945 L 9.83398 -7.93945 C 9.21875 -7.93945 8.80859 -7.59766 8.80859 -7.02148 C 8.80859 -6.46484 9.23828 -6.13281 9.83398 -6.13281 L 14.0625 -6.13281 L 14.0625 -2.06055 C 14.0625 -1.47461 14.3848 -1.06445 14.9512 -1.06445 Z"/>
  </g>
  <text style="stroke:none;fill:black;font-family:-apple-system,&quot;SF Pro Display&quot;,&quot;SF Pro Text&quot;,Helvetica,sans-serif;font-weight:bold;" transform="matrix(1 0 0 1 263 1953)">Design Variations</text>
  <text style="stroke:none;fill:black;font-family:-apple-system,&quot;SF Pro Display&quot;,&quot;SF Pro Text&quot;,Helvetica,sans-serif;" transform="matrix(1 0 0 1 263 1971)">Symbols are supported in up to nine weights and three scales.</text>
  <text style="stroke:none;fill:black;font-family:-apple-system,&quot;SF Pro Display&quot;,&quot;SF Pro Text&quot;,Helvetica,sans-serif;" transform="matrix(1 0 0 1 263 1989)">For optimal layout with text and other symbols, vertically align</text>
  <text style="stroke:none;fill:black;font-family:-apple-system,&quot;SF Pro Display&quot;,&quot;SF Pro Text&quot;,Helvetica,sans-serif;" transform="matrix(1 0 0 1 263 2007)">symbols with the adjacent text.</text>
  <rect height="14" id="" style="fill:#00AEEF;stroke:none;opacity:0.4;" width="3" x="776" y="1919"/>
  <g id="" transform="matrix(1 0 0 1 779 1933)">
   <path d="M 10.5273 0 L 12.373 0 L 7.17773 -14.0918 L 5.43945 -14.0918 L 0.244141 0 L 2.08984 0 L 3.50586 -4.0332 L 9.11133 -4.0332 Z M 6.2793 -11.9531 L 6.33789 -11.9531 L 8.59375 -5.52734 L 4.02344 -5.52734 Z"/>
  </g>
  <rect height="14" id="" style="fill:#00AEEF;stroke:none;opacity:0.4;" width="3" x="791.617" y="1919"/>
  <text style="stroke:none;fill:black;font-family:-apple-system,&quot;SF Pro Display&quot;,&quot;SF Pro Text&quot;,Helvetica,sans-serif;font-weight:bold;" transform="matrix(1 0 0 1 776 1953)">Margins</text>
  <text style="stroke:none;fill:black;font-family:-apple-system,&quot;SF Pro Display&quot;,&quot;SF Pro Text&quot;,Helvetica,sans-serif;" transform="matrix(1 0 0 1 776 1971)">Leading and trailing margins on the left and right side of each symbol</text>
  <text style="stroke:none;fill:black;font-family:-apple-system,&quot;SF Pro Display&quot;,&quot;SF Pro Text&quot;,Helvetica,sans-serif;" transform="matrix(1 0 0 1 776 1989)">can be adjusted by modifying the width of the blue rectangles.</text>
  <text style="stroke:none;fill:black;font-family:-apple-system,&quot;SF Pro Display&quot;,&quot;SF Pro Text&quot;,Helvetica,sans-serif;" transform="matrix(1 0 0 1 776 2007)">Modifications are automatically applied proportionally to all</text>
  <text style="stroke:none;fill:black;font-family:-apple-system,&quot;SF Pro Display&quot;,&quot;SF Pro Text&quot;,Helvetica,sans-serif;" transform="matrix(1 0 0 1 776 2025)">scales and weights.</text>
  <g id="" transform="matrix(1 0 0 1 1289 1933)">
   <path d="M 2.83203 3.11523 L 4.375 4.6582 C 5.22461 5.48828 6.19141 5.41992 7.06055 4.46289 L 17.2754 -6.66016 C 17.7051 -6.36719 18.0957 -6.37695 18.5645 -6.47461 L 19.6094 -6.68945 L 20.3027 -5.99609 L 20.2539 -5.47852 C 20.1855 -4.95117 20.3516 -4.53125 20.8496 -4.0332 L 21.6602 -3.22266 C 22.168 -2.71484 22.8223 -2.68555 23.3008 -3.16406 L 26.5527 -6.41602 C 27.0312 -6.89453 27.0117 -7.54883 26.5039 -8.05664 L 25.6836 -8.87695 C 25.1855 -9.375 24.7754 -9.55078 24.2383 -9.47266 L 23.7109 -9.41406 L 23.0566 -10.0781 L 23.3398 -11.2207 C 23.4863 -11.7871 23.3398 -12.2559 22.7148 -12.8613 L 20.3027 -15.2539 C 16.7578 -18.7793 12.2266 -18.6719 9.11133 -15.5371 C 8.69141 -15.1074 8.64258 -14.5215 8.91602 -14.0918 C 9.15039 -13.7207 9.62891 -13.4961 10.2734 -13.6621 C 11.7871 -14.043 13.3008 -13.9258 14.7852 -12.9199 L 14.1602 -11.3379 C 13.9258 -10.752 13.9453 -10.2734 14.1797 -9.83398 L 3.01758 0.439453 C 2.08008 1.30859 1.97266 2.25586 2.83203 3.11523 Z M 10.6738 -15.1465 C 13.3398 -17.1387 16.6504 -16.8262 19.0527 -14.4141 L 21.6797 -11.8066 C 21.9141 -11.5723 21.9434 -11.3867 21.8848 -11.0938 L 21.5039 -9.53125 L 23.0762 -7.95898 L 24.043 -8.04688 C 24.3262 -8.07617 24.4141 -8.05664 24.6387 -7.83203 L 25.2637 -7.20703 L 22.5098 -4.46289 L 21.8848 -5.07812 C 21.6602 -5.30273 21.6406 -5.40039 21.6699 -5.68359 L 21.7578 -6.64062 L 20.1953 -8.20312 L 18.5742 -7.89062 C 18.291 -7.83203 18.1445 -7.83203 17.9102 -8.07617 L 15.7324 -10.2539 C 15.5078 -10.4883 15.4785 -10.625 15.6055 -10.9473 L 16.5527 -13.2227 C 14.9512 -14.7559 12.8418 -15.6055 10.8008 -14.9512 C 10.7129 -14.9219 10.6445 -14.9414 10.6152 -14.9805 C 10.5859 -15.0293 10.5859 -15.0781 10.6738 -15.1465 Z M 4.10156 2.41211 C 3.61328 1.91406 3.78906 1.61133 4.12109 1.30859 L 15.0781 -8.80859 L 16.3086 -7.57812 L 6.15234 3.34961 C 5.84961 3.68164 5.46875 3.7793 5.06836 3.37891 Z"/>
  </g>
  <text style="stroke:none;fill:black;font-family:-apple-system,&quot;SF Pro Display&quot;,&quot;SF Pro Text&quot;,Helvetica,sans-serif;font-weight:bold;" transform="matrix(1 0 0 1 1289 1953)">Exporting</text>
  <text style="stroke:none;fill:black;font-family:-apple-system,&quot;SF Pro Display&quot;,&quot;SF Pro Text&quot;,Helvetica,sans-serif;" transform="matrix(1 0 0 1 1289 1971)">Symbols should be outlined when exporting to ensure the</text>
  <text style="stroke:none;fill:black;font-family:-apple-system,&quot;SF Pro Display&quot;,&quot;SF Pro Text&quot;,Helvetica,sans-serif;" transform="matrix(1 0 0 1 1289 1989)">design is preserved when submitting to Xcode.</text>
  <text id="template-version" style="stroke:none;fill:black;font-family:-apple-system,&quot;SF Pro Display&quot;,&quot;SF Pro Text&quot;,Helvetica,sans-serif;text-anchor:end;" transform="matrix(1 0 0 1 3036 1933)">Template v.1.0</text>
  <text style="stroke:none;fill:black;font-family:-apple-system,&quot;SF Pro Display&quot;,&quot;SF Pro Text&quot;,Helvetica,sans-serif;text-anchor:end;" transform="matrix(1 0 0 1 3036 1951)">Generated from cloud.hail.fill</text>
  <text style="stroke:none;fill:black;font-family:-apple-system,&quot;SF Pro Display&quot;,&quot;SF Pro Text&quot;,Helvetica,sans-serif;text-anchor:end;" transform="matrix(1 0 0 1 3036 1969)">Typeset at 100 points</text>
  <text style="stroke:none;fill:black;font-family:-apple-system,&quot;SF Pro Display&quot;,&quot;SF Pro Text&quot;,Helvetica,sans-serif;" transform="matrix(1 0 0 1 263 726)">Small</text>
  <text style="stroke:none;fill:black;font-family:-apple-system,&quot;SF Pro Display&quot;,&quot;SF Pro Text&quot;,Helvetica,sans-serif;" transform="matrix(1 0 0 1 263 1156)">Medium</text>
  <text style="stroke:none;fill:black;font-family:-apple-system,&quot;SF Pro Display&quot;,&quot;SF Pro Text&quot;,Helvetica,sans-serif;" transform="matrix(1 0 0 1 263 1586)">Large</text>
 </g>
 <g id="Guides">
  <g id="H-reference" style="fill:#27AAE1;stroke:none;" transform="matrix(1 0 0 1 339 696)">
   <path d="M 54.9316 0 L 57.666 0 L 30.5664 -70.459 L 28.0762 -70.459 L 0.976562 0 L 3.66211 0 L 12.9395 -24.4629 L 45.7031 -24.4629 Z M 29.1992 -67.0898 L 29.4434 -67.0898 L 44.8242 -26.709 L 13.8184 -26.709 Z"/>
  </g>
  <line id="Baseline-S" style="fill:none;stroke:#27AAE1;opacity:1;stroke-width:0.577;" x1="263" x2="3036" y1="696" y2="696"/>
  <line id="Capline-S" style="fill:none;stroke:#27AAE1;opacity:1;stroke-width:0.577;" x1="263" x2="3036" y1="625.541" y2="625.541"/>
  <g id="H-reference" style="fill:#27AAE1;stroke:none;" transform="matrix(1 0 0 1 339 1126)">
   <path d="M 54.9316 0 L 57.666 0 L 30.5664 -70.459 L 28.0762 -70.459 L 0.976562 0 L 3.66211 0 L 12.9395 -24.4629 L 45.7031 -24.4629 Z M 29.1992 -67.0898 L 29.4434 -67.0898 L 44.8242 -26.709 L 13.8184 -26.709 Z"/>
  </g>
  <line id="Baseline-M" style="fill:none;stroke:#27AAE1;opacity:1;stroke-width:0.577;" x1="263" x2="3036" y1="1126" y2="1126"/>
  <line id="Capline-M" style="fill:none;stroke:#27AAE1;opacity:1;stroke-width:0.577;" x1="263" x2="3036" y1="1055.54" y2="1055.54"/>
  <g id="H-reference" style="fill:#27AAE1;stroke:none;" transform="matrix(1 0 0 1 339 1556)">
   <path d="M 54.9316 0 L 57.666 0 L 30.5664 -70.459 L 28.0762 -70.459 L 0.976562 0 L 3.66211 0 L 12.9395 -24.4629 L 45.7031 -24.4629 Z M 29.1992 -67.0898 L 29.4434 -67.0898 L 44.8242 -26.709 L 13.8184 -26.709 Z"/>
  </g>
  <line id="Baseline-L" style="fill:none;stroke:#27AAE1;opacity:1;stroke-width:0.577;" x1="263" x2="3036" y1="1556" y2="1556"/>
  <line id="Capline-L" style="fill:none;stroke:#27AAE1;opacity:1;stroke-width:0.577;" x1="263" x2="3036" y1="1485.54" y2="1485.54"/>
  <rect height="119.336" id="left-margin" style="fill:#00AEEF;stroke:none;opacity:0.4;" width="8.74023" x="1385.86" y="1030.79"/>
  <rect height="119.336" id="right-margin" style="fill:#00AEEF;stroke:none;opacity:0.4;" width="8.74023" x="1505.09" y="1030.79"/>
 </g>
 <g id="Symbols">
  <g id="Black-L" transform="matrix(1 0 0 1 2846.24 1556)">
   <path d="M 44.4824 -0.341797 L 123.926 -0.341797 C 146.045 -0.341797 163.037 -17.0898 163.037 -38.8184 C 163.037 -60.8887 145.898 -77.6367 123.486 -77.4902 C 115.039 -93.8477 100.195 -102.686 80.9082 -102.686 C 56.1523 -102.686 35.8398 -85.0098 32.5195 -60.6445 C 20.0684 -56.4453 11.2793 -45.7031 11.2793 -31.5918 C 11.2793 -13.3789 25.0488 -0.341797 44.4824 -0.341797 Z M 54.834 23.4375 L 57.5684 18.6523 C 59.082 16.0645 58.3984 12.8906 55.7617 11.377 C 53.0762 9.86328 50.1465 10.791 48.584 13.5254 L 45.8008 18.3594 C 44.3848 20.8496 44.9707 24.0234 47.6074 25.5371 C 50.2441 27.0508 53.3691 25.9766 54.834 23.4375 Z M 82.3242 33.1055 L 90.625 18.7012 C 92.0898 16.2109 91.4062 12.9883 88.7695 11.4746 C 86.1328 9.96094 83.2031 10.8887 81.6406 13.5742 L 73.291 28.0273 C 71.875 30.5176 72.4609 33.6426 75.0977 35.2051 C 77.7344 36.6699 80.8594 35.5957 82.3242 33.1055 Z M 120.85 23.6816 L 123.584 18.8965 C 125.098 16.3086 124.414 13.1348 121.777 11.6211 C 119.092 10.1074 116.162 11.0352 114.6 13.7695 L 111.816 18.6035 C 110.4 21.0938 110.986 24.2676 113.623 25.7812 C 116.26 27.2949 119.385 26.2207 120.85 23.6816 Z M 40.625 45.2637 C 45.0195 45.2637 48.6816 41.6016 48.6816 37.1094 C 48.6816 32.8125 45.0195 29.1504 40.625 29.1504 C 36.1816 29.1504 32.5684 32.8125 32.5684 37.1094 C 32.5684 41.6016 36.1816 45.2637 40.625 45.2637 Z M 106.641 45.5078 C 111.035 45.5078 114.697 41.8457 114.697 37.3535 C 114.697 33.0566 111.035 29.3945 106.641 29.3945 C 102.246 29.3945 98.584 33.0566 98.584 37.3535 C 98.584 41.8457 102.246 45.5078 106.641 45.5078 Z M 68.1152 54.9316 C 72.5098 54.9316 76.1719 51.2695 76.1719 46.7773 C 76.1719 42.4316 72.5098 38.8184 68.1152 38.8184 C 63.7207 38.8184 60.0586 42.4316 60.0586 46.7773 C 60.0586 51.2695 63.7207 54.9316 68.1152 54.9316 Z"/>
  </g>
  <g id="Heavy-L" transform="matrix(1 0 0 1 2550.68 1556)">
   <path d="M 43.3594 -1.80664 L 122.559 -1.80664 C 144.141 -1.80664 160.742 -18.1152 160.742 -39.209 C 160.742 -60.6445 143.848 -76.8555 121.729 -76.709 C 113.379 -93.1152 98.584 -102.051 79.6875 -102.051 C 55.3711 -102.051 35.2539 -84.1797 32.3242 -60.0586 C 19.873 -56.0547 11.2793 -45.459 11.2793 -31.7383 C 11.2793 -14.2578 24.5117 -1.80664 43.3594 -1.80664 Z M 53.0762 22.0215 L 56.2988 16.4062 C 57.666 14.0625 57.0312 11.1328 54.6387 9.76562 C 52.1973 8.39844 49.5117 9.22852 48.0957 11.7188 L 44.8242 17.3828 C 43.5547 19.6777 44.0918 22.5098 46.4844 23.9258 C 48.9258 25.293 51.7578 24.3164 53.0762 22.0215 Z M 80.5664 31.6895 L 89.3555 16.5039 C 90.6738 14.1602 90.0879 11.2305 87.6953 9.86328 C 85.2539 8.44727 82.5684 9.32617 81.1523 11.7676 L 72.3633 27.0508 C 71.0449 29.2969 71.582 32.1777 74.0234 33.5449 C 76.416 34.9121 79.248 33.9844 80.5664 31.6895 Z M 119.092 22.2656 L 122.314 16.6504 C 123.73 14.3066 123.047 11.377 120.654 10.0098 C 118.213 8.59375 115.527 9.47266 114.111 11.9629 L 110.889 17.627 C 109.57 19.9219 110.107 22.7539 112.549 24.1699 C 114.941 25.5371 117.773 24.5605 119.092 22.2656 Z M 39.7949 42.9199 C 43.9941 42.9199 47.4609 39.4531 47.4609 35.1562 C 47.4609 31.0059 43.9941 27.5391 39.7949 27.5391 C 35.5957 27.5391 32.0801 31.0059 32.0801 35.1562 C 32.0801 39.4531 35.5957 42.9199 39.7949 42.9199 Z M 105.811 43.1641 C 110.01 43.1641 113.525 39.6973 113.525 35.4004 C 113.525 31.25 110.01 27.7832 105.811 27.7832 C 101.611 27.7832 98.0957 31.25 98.0957 35.4004 C 98.0957 39.6973 101.611 43.1641 105.811 43.1641 Z M 67.2852 52.5879 C 71.4844 52.5879 75 49.0723 75 44.8242 C 75 40.6738 71.4844 37.207 67.2852 37.207 C 63.0859 37.207 59.5703 40.6738 59.5703 44.8242 C 59.5703 49.0723 63.0859 52.5879 67.2852 52.5879 Z"/>
  </g>
  <g id="Bold-L" transform="matrix(1 0 0 1 2255.29 1556)">
   <path d="M 42.0898 -3.4668 L 121.045 -3.4668 C 141.992 -3.4668 158.105 -19.2871 158.105 -39.6973 C 158.105 -60.3516 141.553 -75.9277 119.775 -75.7812 C 111.523 -92.2363 96.7773 -101.318 78.3691 -101.318 C 54.4922 -101.318 34.668 -83.3008 32.0801 -59.375 C 19.6777 -55.6152 11.2793 -45.166 11.2793 -31.9824 C 11.2793 -15.2344 23.9258 -3.4668 42.0898 -3.4668 Z M 51.1719 20.4102 L 54.8828 13.916 C 56.1035 11.7676 55.5176 9.17969 53.3691 7.95898 C 51.2207 6.73828 48.7793 7.4707 47.5098 9.66797 L 43.75 16.2598 C 42.5781 18.3105 43.0664 20.8496 45.2637 22.1191 C 47.4121 23.291 49.9512 22.5098 51.1719 20.4102 Z M 78.6621 30.0293 L 87.9395 13.9648 C 89.1113 11.8652 88.5742 9.27734 86.4258 8.00781 C 84.2773 6.78711 81.8359 7.51953 80.5664 9.76562 L 71.2891 25.9277 C 70.0684 27.9785 70.6055 30.5176 72.7539 31.7383 C 74.9023 32.959 77.4414 32.1289 78.6621 30.0293 Z M 117.188 20.6543 L 120.898 14.1602 C 122.168 12.0117 121.533 9.42383 119.385 8.20312 C 117.236 6.93359 114.844 7.71484 113.574 9.91211 L 109.766 16.5039 C 108.643 18.5547 109.131 21.0938 111.279 22.3633 C 113.428 23.5352 115.967 22.7539 117.188 20.6543 Z M 38.8672 40.332 C 42.8711 40.332 46.1426 37.0117 46.1426 32.959 C 46.1426 29.0527 42.8711 25.7324 38.8672 25.7324 C 34.8633 25.7324 31.5918 29.0527 31.5918 32.959 C 31.5918 37.0117 34.8633 40.332 38.8672 40.332 Z M 104.883 40.5762 C 108.887 40.5762 112.158 37.2559 112.158 33.2031 C 112.158 29.2969 108.887 25.9766 104.883 25.9766 C 100.879 25.9766 97.6074 29.2969 97.6074 33.2031 C 97.6074 37.2559 100.879 40.5762 104.883 40.5762 Z M 66.3574 49.9512 C 70.3613 49.9512 73.6328 46.6309 73.6328 42.627 C 73.6328 38.6719 70.3613 35.3516 66.3574 35.3516 C 62.3535 35.3516 59.082 38.6719 59.082 42.627 C 59.082 46.6309 62.3535 49.9512 66.3574 49.9512 Z"/>
  </g>
  <g id="Semibold-L" transform="matrix(1 0 0 1 1959.45 1556)">
   <path d="M 41.2109 -4.58984 L 120.02 -4.58984 C 140.527 -4.58984 156.348 -20.0684 156.348 -39.9902 C 156.348 -60.1562 139.99 -75.3418 118.457 -75.1465 C 110.205 -91.6504 95.5566 -100.83 77.4414 -100.83 C 53.8574 -100.83 34.2285 -82.7148 31.9336 -58.9355 C 19.5312 -55.3223 11.2793 -44.9707 11.2793 -32.1289 C 11.2793 -15.918 23.5352 -4.58984 41.2109 -4.58984 Z M 49.8047 19.2871 L 53.9062 12.1582 C 55.0293 10.2051 54.4922 7.86133 52.5391 6.68945 C 50.5371 5.56641 48.291 6.25 47.1191 8.30078 L 43.0176 15.4785 C 41.9434 17.3828 42.3828 19.7266 44.3848 20.8496 C 46.3867 21.9727 48.6816 21.2402 49.8047 19.2871 Z M 77.2949 28.9551 L 86.9629 12.2559 C 88.0371 10.2539 87.5488 7.91016 85.5957 6.78711 C 83.5938 5.66406 81.3477 6.29883 80.1758 8.34961 L 70.5078 25.1465 C 69.4336 27.0508 69.9219 29.3457 71.9238 30.5176 C 73.877 31.5918 76.2207 30.8594 77.2949 28.9551 Z M 115.82 19.5312 L 119.922 12.4023 C 121.045 10.4492 120.508 8.10547 118.555 6.93359 C 116.553 5.81055 114.355 6.49414 113.184 8.54492 L 109.033 15.7227 C 107.959 17.627 108.447 19.9219 110.449 21.0938 C 112.402 22.2168 114.746 21.4844 115.82 19.5312 Z M 38.2324 38.5254 C 42.041 38.5254 45.2148 35.3027 45.2148 31.4453 C 45.2148 27.6855 42.0898 24.4629 38.2324 24.4629 C 34.375 24.4629 31.2012 27.6855 31.2012 31.4453 C 31.2012 35.3027 34.375 38.5254 38.2324 38.5254 Z M 104.297 38.7695 C 108.105 38.7695 111.279 35.5469 111.279 31.6895 C 111.279 27.9297 108.105 24.707 104.297 24.707 C 100.439 24.707 97.2168 27.9297 97.2168 31.6895 C 97.2168 35.5469 100.439 38.7695 104.297 38.7695 Z M 65.7715 48.1445 C 69.5801 48.1445 72.7539 44.9707 72.7539 41.1133 C 72.7539 37.3047 69.5801 34.1309 65.7715 34.1309 C 61.9141 34.1309 58.7402 37.3047 58.7402 41.1133 C 58.7402 44.9707 61.9141 48.1445 65.7715 48.1445 Z"/>
  </g>
  <g id="Medium-L" transform="matrix(1 0 0 1 1663.43 1556)">
   <path d="M 40.5762 -5.46875 L 119.238 -5.46875 C 139.404 -5.46875 154.98 -20.6543 154.98 -40.2344 C 154.98 -60.0098 138.818 -74.8535 117.432 -74.707 C 109.229 -91.2109 94.5801 -100.439 76.709 -100.439 C 53.418 -100.439 33.8867 -82.2266 31.8359 -58.5938 C 19.4336 -55.127 11.2793 -44.8242 11.2793 -32.2266 C 11.2793 -16.4062 23.1934 -5.46875 40.5762 -5.46875 Z M 48.7793 18.457 L 53.125 10.8398 C 54.248 9.0332 53.7109 6.83594 51.8555 5.76172 C 50.0488 4.6875 47.9492 5.37109 46.8262 7.22656 L 42.4316 14.8926 C 41.4551 16.6992 41.8945 18.8477 43.75 19.9219 C 45.5566 20.9473 47.7539 20.2637 48.7793 18.457 Z M 76.3184 28.0762 L 86.1816 10.9375 C 87.2559 9.08203 86.7676 6.88477 84.9121 5.81055 C 83.1055 4.78516 80.957 5.41992 79.8828 7.32422 L 69.9707 24.5605 C 68.8965 26.3184 69.3848 28.4668 71.2402 29.541 C 73.0957 30.5664 75.2441 29.9316 76.3184 28.0762 Z M 114.844 18.7012 L 119.189 11.084 C 120.264 9.27734 119.727 7.08008 117.92 6.00586 C 116.064 4.93164 113.965 5.56641 112.891 7.4707 L 108.496 15.1367 C 107.471 16.9434 107.91 19.0918 109.766 20.166 C 111.621 21.1914 113.77 20.5078 114.844 18.7012 Z M 37.793 37.1582 C 41.4551 37.1582 44.5312 34.0332 44.5312 30.2734 C 44.5312 26.6113 41.5039 23.5352 37.793 23.5352 C 34.0332 23.5352 30.957 26.6113 30.957 30.2734 C 30.957 34.0332 34.0332 37.1582 37.793 37.1582 Z M 103.809 37.4023 C 107.471 37.4023 110.547 34.2773 110.547 30.5176 C 110.547 26.8555 107.52 23.7793 103.809 23.7793 C 100.049 23.7793 96.9727 26.8555 96.9727 30.5176 C 96.9727 34.2773 100.049 37.4023 103.809 37.4023 Z M 65.2832 46.7773 C 68.9453 46.7773 72.0703 43.7012 72.0703 39.9414 C 72.0703 36.2793 68.9941 33.1543 65.2832 33.1543 C 61.5234 33.1543 58.4473 36.2793 58.4473 39.9414 C 58.4473 43.7012 61.5234 46.7773 65.2832 46.7773 Z"/>
  </g>
  <g id="Regular-L" transform="matrix(1 0 0 1 1367.62 1556)">
   <path d="M 39.6973 -6.5918 L 118.164 -6.5918 C 137.939 -6.5918 153.174 -21.4844 153.174 -40.5273 C 153.174 -59.8145 137.256 -74.2188 116.113 -74.0723 C 107.959 -90.625 93.3594 -99.9512 75.7812 -99.9512 C 52.7832 -99.9512 33.4473 -81.6406 31.6895 -58.1543 C 19.2871 -54.834 11.2793 -44.6289 11.2793 -32.373 C 11.2793 -17.0898 22.8027 -6.5918 39.6973 -6.5918 Z M 47.4609 17.334 L 52.1973 9.13086 C 53.1738 7.4707 52.6855 5.46875 51.0254 4.49219 C 49.3652 3.56445 47.4609 4.15039 46.4355 5.85938 L 41.6992 14.1113 C 40.8203 15.7715 41.2109 17.6758 42.9199 18.6523 C 44.5312 19.5801 46.5332 19.043 47.4609 17.334 Z M 75 27.002 L 85.2051 9.22852 C 86.1816 7.4707 85.7422 5.56641 84.082 4.58984 C 82.4219 3.66211 80.4688 4.19922 79.4922 5.9082 L 69.2383 23.7793 C 68.2617 25.4395 68.7012 27.3438 70.4102 28.3203 C 72.0703 29.248 74.0234 28.6621 75 27.002 Z M 113.525 17.5781 L 118.213 9.375 C 119.189 7.71484 118.701 5.71289 117.041 4.73633 C 115.381 3.80859 113.477 4.39453 112.5 6.10352 L 107.764 14.3555 C 106.836 16.0156 107.227 17.9199 108.936 18.8965 C 110.596 19.8242 112.549 19.2871 113.525 17.5781 Z M 37.1582 35.3516 C 40.6738 35.3516 43.6523 32.373 43.6523 28.8086 C 43.6523 25.293 40.7227 22.2656 37.1582 22.2656 C 33.5449 22.2656 30.6152 25.293 30.6152 28.8086 C 30.6152 32.373 33.5449 35.3516 37.1582 35.3516 Z M 103.174 35.5957 C 106.689 35.5957 109.668 32.6172 109.668 29.0527 C 109.668 25.5371 106.738 22.5098 103.174 22.5098 C 99.5605 22.5098 96.6309 25.5371 96.6309 29.0527 C 96.6309 32.6172 99.5605 35.5957 103.174 35.5957 Z M 64.6484 45.0195 C 68.2129 45.0195 71.1426 42.041 71.1426 38.4277 C 71.1426 34.9121 68.2129 31.9336 64.6484 31.9336 C 61.0352 31.9336 58.1055 34.9121 58.1055 38.4277 C 58.1055 42.041 61.0352 45.0195 64.6484 45.0195 Z"/>
  </g>
  <g id="Light-L" transform="matrix(1 0 0 1 1071.35 1556)">
   <path d="M 38.9648 -7.8125 L 117.822 -7.8125 C 137.207 -7.8125 152.295 -22.3633 152.295 -41.0156 C 152.295 -59.8633 136.523 -73.9746 115.723 -73.8281 C 107.52 -90.8203 93.1641 -100.049 75.4395 -100.049 C 52.832 -100.049 33.7891 -81.7871 32.0312 -58.252 C 19.4336 -54.9805 11.2793 -44.9707 11.2793 -32.8613 C 11.2793 -18.0664 22.5098 -7.8125 38.9648 -7.8125 Z M 46.2402 16.6016 L 51.5137 7.37305 C 52.3926 5.95703 52.002 4.39453 50.6836 3.61328 C 49.3652 2.83203 47.8027 3.32031 46.9727 4.73633 L 41.6504 14.0137 C 40.8691 15.4297 41.1621 16.9434 42.5293 17.7246 C 43.8477 18.5059 45.4102 18.0176 46.2402 16.6016 Z M 73.7305 26.2207 L 84.5703 7.4707 C 85.4004 6.00586 85.0586 4.44336 83.6914 3.66211 C 82.4219 2.92969 80.8105 3.36914 80.0293 4.83398 L 69.1406 23.6328 C 68.3105 25.0488 68.7012 26.6113 70.0195 27.3926 C 71.3867 28.1738 72.9492 27.6855 73.7305 26.2207 Z M 112.256 16.8457 L 117.529 7.61719 C 118.408 6.20117 118.018 4.63867 116.699 3.80859 C 115.381 3.07617 113.818 3.56445 112.988 4.98047 L 107.666 14.2578 C 106.885 15.6738 107.178 17.1875 108.545 17.9688 C 109.912 18.75 111.475 18.2617 112.256 16.8457 Z M 37.0605 33.5938 C 40.332 33.5938 43.0664 30.8105 43.0664 27.4902 C 43.0664 24.1699 40.3809 21.3867 37.0605 21.3867 C 33.6426 21.3867 30.9082 24.1699 30.9082 27.4902 C 30.9082 30.8105 33.6426 33.5938 37.0605 33.5938 Z M 103.076 33.8379 C 106.348 33.8379 109.131 31.0547 109.131 27.7344 C 109.131 24.4141 106.396 21.582 103.076 21.582 C 99.6582 21.582 96.9238 24.4141 96.9238 27.7344 C 96.9238 31.0547 99.6582 33.8379 103.076 33.8379 Z M 64.5508 43.2617 C 67.8223 43.2617 70.6055 40.4785 70.6055 37.1094 C 70.6055 33.8379 67.8711 31.0059 64.5508 31.0059 C 61.1328 31.0059 58.3984 33.8379 58.3984 37.1094 C 58.3984 40.4785 61.1328 43.2617 64.5508 43.2617 Z"/>
  </g>
  <g id="Thin-L" transform="matrix(1 0 0 1 775.245 1556)">
   <path d="M 37.9883 -9.42383 L 117.334 -9.42383 C 136.279 -9.42383 151.074 -23.584 151.074 -41.6992 C 151.074 -59.9609 135.596 -73.6328 115.234 -73.4863 C 106.885 -91.0156 92.9199 -100.195 74.9512 -100.195 C 52.832 -100.195 34.2285 -81.9336 32.5195 -58.3984 C 19.5801 -55.1758 11.2793 -45.3613 11.2793 -33.4961 C 11.2793 -19.3359 22.168 -9.42383 37.9883 -9.42383 Z M 44.6289 15.5762 L 50.6836 5.07812 C 51.3672 3.95508 51.0742 2.92969 50.1953 2.39258 C 49.3164 1.9043 48.291 2.19727 47.6074 3.32031 L 41.5527 13.8184 C 40.918 14.9414 41.1133 15.9668 42.041 16.5039 C 42.9688 17.041 43.9941 16.6992 44.6289 15.5762 Z M 72.1191 25.2441 L 83.7402 5.17578 C 84.3262 4.00391 84.1309 2.97852 83.2031 2.44141 C 82.373 1.95312 81.2988 2.24609 80.6641 3.36914 L 69.043 23.4863 C 68.4082 24.6094 68.6523 25.6348 69.5312 26.1719 C 70.459 26.709 71.4844 26.3672 72.1191 25.2441 Z M 110.645 15.8203 L 116.699 5.32227 C 117.383 4.19922 117.09 3.17383 116.211 2.58789 C 115.332 2.14844 114.307 2.44141 113.623 3.56445 L 107.568 14.0625 C 106.982 15.1855 107.129 16.2109 108.057 16.748 C 108.984 17.2852 110.01 16.9434 110.645 15.8203 Z M 36.9141 31.2988 C 39.8926 31.2988 42.334 28.7109 42.334 25.7324 C 42.334 22.7051 39.9414 20.166 36.9141 20.166 C 33.7402 20.166 31.2988 22.7051 31.2988 25.7324 C 31.2988 28.7109 33.7402 31.2988 36.9141 31.2988 Z M 102.93 31.543 C 105.908 31.543 108.398 28.9551 108.398 25.9766 C 108.398 22.9492 105.957 20.3613 102.93 20.3613 C 99.8047 20.3613 97.3145 22.9492 97.3145 25.9766 C 97.3145 28.9551 99.8047 31.543 102.93 31.543 Z M 64.4043 40.918 C 67.3828 40.918 69.873 38.3789 69.873 35.4004 C 69.873 32.373 67.4316 29.7852 64.4043 29.7852 C 61.2793 29.7852 58.7891 32.373 58.7891 35.4004 C 58.7891 38.3789 61.2793 40.918 64.4043 40.918 Z"/>
  </g>
  <g id="Ultralight-L" transform="matrix(1 0 0 1 478.852 1556)">
   <path d="M 37.5 -10.2539 L 117.09 -10.2539 C 135.791 -10.2539 150.439 -24.2188 150.439 -42.041 C 150.439 -59.9609 135.156 -73.4863 114.99 -73.291 C 106.592 -91.1133 92.7734 -100.293 74.707 -100.293 C 52.8809 -100.293 34.4727 -82.0312 32.8125 -58.4473 C 19.6777 -55.2734 11.2793 -45.6055 11.2793 -33.8379 C 11.2793 -19.9707 21.9727 -10.2539 37.5 -10.2539 Z M 43.75 15.0879 L 50.2441 3.90625 C 50.8301 2.92969 50.6348 2.14844 49.9023 1.75781 C 49.3164 1.41602 48.5352 1.61133 47.9492 2.58789 L 41.5039 13.7207 C 40.9668 14.6973 41.1133 15.4785 41.7969 15.918 C 42.4805 16.3086 43.2617 16.0156 43.75 15.0879 Z M 71.2891 24.707 L 83.3008 3.95508 C 83.7891 3.02734 83.6914 2.24609 82.959 1.80664 C 82.373 1.46484 81.543 1.70898 81.0059 2.63672 L 68.9941 23.3887 C 68.5059 24.3652 68.6035 25.1465 69.2871 25.5371 C 70.0195 25.9766 70.752 25.6836 71.2891 24.707 Z M 109.814 15.332 L 116.26 4.10156 C 116.846 3.17383 116.65 2.39258 115.967 2.00195 C 115.332 1.66016 114.6 1.85547 113.965 2.83203 L 107.52 13.9648 C 106.982 14.9414 107.129 15.7227 107.812 16.1621 C 108.545 16.5527 109.277 16.2598 109.814 15.332 Z M 36.8164 30.0781 C 39.6484 30.0781 41.9922 27.6855 41.9922 24.8535 C 41.9922 21.9727 39.6973 19.5312 36.8164 19.5312 C 33.8379 19.5312 31.4941 21.9727 31.4941 24.8535 C 31.4941 27.6855 33.8379 30.0781 36.8164 30.0781 Z M 102.832 30.3223 C 105.664 30.3223 108.008 27.9297 108.008 25.0977 C 108.008 22.168 105.762 19.7754 102.832 19.7754 C 99.8535 19.7754 97.5098 22.168 97.5098 25.0977 C 97.5098 27.9297 99.8535 30.3223 102.832 30.3223 Z M 64.3066 39.7461 C 67.1387 39.7461 69.4824 37.3047 69.4824 34.5215 C 69.4824 31.5918 67.2363 29.1504 64.3066 29.1504 C 61.3281 29.1504 58.9844 31.5918 58.9844 34.5215 C 58.9844 37.3047 61.3281 39.7461 64.3066 39.7461 Z"/>
  </g>
  <g id="Black-M" transform="matrix(1 0 0 1 2864.53 1126)">
   <path d="M 35.5469 -6.83594 L 97.7051 -6.83594 C 115.381 -6.83594 129.004 -20.3125 129.004 -37.7441 C 129.004 -55.4688 115.43 -69.043 97.8516 -68.9453 C 91.1621 -81.7871 79.6875 -88.4277 64.1602 -88.4277 C 44.5801 -88.4277 28.7109 -74.9512 25.6836 -55.7617 C 15.8691 -52.2461 8.74023 -43.8477 8.74023 -32.373 C 8.74023 -17.627 20.0195 -6.83594 35.5469 -6.83594 Z M 44.1406 11.8164 L 45.9961 8.59375 C 47.2656 6.44531 46.6797 3.85742 44.4824 2.58789 C 42.2852 1.31836 39.9414 2.09961 38.623 4.39453 L 36.7676 7.61719 C 35.5957 9.66797 35.9863 12.3047 38.1836 13.5742 C 40.3809 14.7949 42.9688 13.8672 44.1406 11.8164 Z M 65.4785 19.2871 L 71.6309 8.64258 C 72.8027 6.5918 72.3145 3.90625 70.1172 2.63672 C 67.9199 1.41602 65.5273 2.19727 64.209 4.44336 L 58.0566 15.0879 C 56.8848 17.1387 57.3242 19.7754 59.5215 21.0449 C 61.7188 22.2656 64.2578 21.3379 65.4785 19.2871 Z M 95.3125 11.9629 L 97.168 8.78906 C 98.4375 6.64062 97.8516 4.00391 95.6543 2.7832 C 93.457 1.51367 91.1133 2.24609 89.7949 4.58984 L 87.9395 7.76367 C 86.7188 9.86328 87.1582 12.5 89.3555 13.7207 C 91.5527 14.9902 94.1406 14.0625 95.3125 11.9629 Z M 32.5195 29.3457 C 36.084 29.3457 39.0137 26.416 39.0137 22.8027 C 39.0137 19.2871 36.084 16.3574 32.5195 16.3574 C 28.9551 16.3574 26.0254 19.2871 26.0254 22.8027 C 26.0254 26.416 28.9551 29.3457 32.5195 29.3457 Z M 83.6914 29.541 C 87.2559 29.541 90.1855 26.6113 90.1855 22.998 C 90.1855 19.4824 87.2559 16.5527 83.6914 16.5527 C 80.127 16.5527 77.1973 19.4824 77.1973 22.998 C 77.1973 26.6113 80.127 29.541 83.6914 29.541 Z M 53.8086 36.8652 C 57.373 36.8652 60.3027 33.8867 60.3027 30.2734 C 60.3027 26.7578 57.373 23.8281 53.8086 23.8281 C 50.2441 23.8281 47.3145 26.7578 47.3145 30.2734 C 47.3145 33.8867 50.2441 36.8652 53.8086 36.8652 Z"/>
  </g>
  <g id="Heavy-M" transform="matrix(1 0 0 1 2568.96 1126)">
   <path d="M 34.5215 -8.1543 L 96.2891 -8.1543 C 113.477 -8.1543 126.709 -21.1914 126.709 -38.0371 C 126.709 -55.1758 113.379 -68.2617 96.0449 -68.1152 C 89.4531 -80.9082 77.9785 -87.6953 62.9395 -87.6953 C 43.75 -87.6953 27.9785 -74.0234 25.3418 -55.0781 C 15.625 -51.8066 8.74023 -43.5059 8.74023 -32.4707 C 8.74023 -18.3594 19.4824 -8.1543 34.5215 -8.1543 Z M 42.5781 10.4004 L 44.7754 6.5918 C 45.9473 4.63867 45.4102 2.19727 43.3594 1.07422 C 41.3574 -0.0976562 39.1113 0.585938 37.9395 2.73438 L 35.7422 6.54297 C 34.6191 8.44727 35.0586 10.8398 37.0605 12.0117 C 39.1113 13.1836 41.4551 12.3535 42.5781 10.4004 Z M 63.916 17.8711 L 70.4102 6.68945 C 71.4844 4.73633 70.9961 2.29492 68.9941 1.12305 C 66.9434 -0.0488281 64.7461 0.683594 63.5254 2.7832 L 57.0312 14.0137 C 55.957 15.918 56.3477 18.3594 58.3984 19.4824 C 60.4004 20.6543 62.793 19.8242 63.916 17.8711 Z M 93.75 10.5957 L 95.9473 6.78711 C 97.1191 4.83398 96.582 2.39258 94.5312 1.2207 C 92.5293 0.0976562 90.2832 0.78125 89.1113 2.88086 L 86.9141 6.73828 C 85.791 8.64258 86.2305 11.0352 88.2324 12.207 C 90.2832 13.3789 92.627 12.5 93.75 10.5957 Z M 31.6406 27.2461 C 35.0586 27.2461 37.8418 24.4629 37.8418 20.9961 C 37.8418 17.627 35.0586 14.8438 31.6406 14.8438 C 28.2227 14.8438 25.4395 17.627 25.4395 20.9961 C 25.4395 24.4629 28.2227 27.2461 31.6406 27.2461 Z M 82.8125 27.4414 C 86.2305 27.4414 89.0137 24.6582 89.0137 21.1914 C 89.0137 17.8223 86.2305 14.9902 82.8125 14.9902 C 79.3945 14.9902 76.6113 17.8223 76.6113 21.1914 C 76.6113 24.6582 79.3945 27.4414 82.8125 27.4414 Z M 52.9785 34.7656 C 56.3477 34.7656 59.1797 31.9336 59.1797 28.4668 C 59.1797 25.0977 56.3477 22.3145 52.9785 22.3145 C 49.5605 22.3145 46.7285 25.0977 46.7285 28.4668 C 46.7285 31.9336 49.5605 34.7656 52.9785 34.7656 Z"/>
  </g>
  <g id="Bold-M" transform="matrix(1 0 0 1 2273.55 1126)">
   <path d="M 33.3984 -9.61914 L 94.7266 -9.61914 C 111.328 -9.61914 124.121 -22.168 124.121 -38.3789 C 124.121 -54.8828 111.084 -67.334 93.9941 -67.1875 C 87.5488 -79.9316 76.0742 -86.8652 61.5234 -86.8652 C 42.7734 -86.8652 27.2461 -73.0469 25 -54.3457 C 15.3809 -51.3184 8.74023 -43.1152 8.74023 -32.5684 C 8.74023 -19.1406 18.8965 -9.61914 33.3984 -9.61914 Z M 40.8203 8.88672 L 43.4082 4.39453 C 44.4336 2.58789 43.9453 0.390625 42.1387 -0.634766 C 40.2832 -1.70898 38.2324 -1.07422 37.1582 0.830078 L 34.5703 5.37109 C 33.5938 7.08008 33.9844 9.22852 35.8398 10.3027 C 37.6465 11.3281 39.7949 10.6445 40.8203 8.88672 Z M 62.1582 16.3574 L 68.9941 4.44336 C 70.0195 2.68555 69.5801 0.439453 67.7246 -0.585938 C 65.918 -1.66016 63.8672 -0.976562 62.793 0.878906 L 55.8594 12.8418 C 54.8828 14.5508 55.3223 16.748 57.1289 17.7734 C 58.9844 18.7988 61.1328 18.1152 62.1582 16.3574 Z M 91.9922 9.0332 L 94.5801 4.58984 C 95.6055 2.7832 95.1172 0.585938 93.3105 -0.488281 C 91.4551 -1.51367 89.4043 -0.878906 88.3301 0.976562 L 85.7422 5.51758 C 84.7656 7.27539 85.1562 9.42383 87.0117 10.498 C 88.8184 11.5234 90.9668 10.791 91.9922 9.0332 Z M 30.6641 24.9023 C 33.8867 24.9023 36.5723 22.2656 36.5723 18.9453 C 36.5723 15.7715 33.8867 13.1348 30.6641 13.1348 C 27.4414 13.1348 24.7559 15.7715 24.7559 18.9453 C 24.7559 22.2656 27.4414 24.9023 30.6641 24.9023 Z M 81.8359 25.0977 C 85.0586 25.0977 87.7441 22.4121 87.7441 19.1406 C 87.7441 15.9668 85.0586 13.2812 81.8359 13.2812 C 78.6133 13.2812 75.9277 15.9668 75.9277 19.1406 C 75.9277 22.4121 78.6133 25.0977 81.8359 25.0977 Z M 52.002 32.4219 C 55.2246 32.4219 57.9102 29.7363 57.9102 26.4648 C 57.9102 23.291 55.2246 20.6055 52.002 20.6055 C 48.7793 20.6055 46.0938 23.291 46.0938 26.4648 C 46.0938 29.7363 48.7793 32.4219 52.002 32.4219 Z"/>
  </g>
  <g id="Semibold-M" transform="matrix(1 0 0 1 1977.71 1126)">
   <path d="M 32.5684 -10.5957 L 93.6523 -10.5957 C 109.863 -10.5957 122.363 -22.8516 122.363 -38.623 C 122.363 -54.6387 109.521 -66.6992 92.627 -66.6016 C 86.2305 -79.248 74.7559 -86.3281 60.5957 -86.3281 C 42.0898 -86.3281 26.709 -72.3145 24.7559 -53.8086 C 15.1855 -50.9277 8.74023 -42.8223 8.74023 -32.6172 C 8.74023 -19.6777 18.5059 -10.5957 32.5684 -10.5957 Z M 39.5996 7.8125 L 42.4316 2.83203 C 43.4082 1.17188 42.9688 -0.830078 41.2598 -1.85547 C 39.5508 -2.83203 37.6465 -2.19727 36.6211 -0.488281 L 33.7891 4.54102 C 32.8613 6.15234 33.252 8.1543 34.9609 9.13086 C 36.6699 10.0586 38.6719 9.42383 39.5996 7.8125 Z M 60.9375 15.2832 L 68.0664 2.92969 C 68.9941 1.2207 68.5547 -0.78125 66.8945 -1.75781 C 65.1855 -2.73438 63.2324 -2.14844 62.2559 -0.439453 L 55.0781 12.0117 C 54.1504 13.623 54.541 15.625 56.2988 16.6016 C 57.959 17.5781 60.0098 16.9434 60.9375 15.2832 Z M 90.7715 8.00781 L 93.6035 3.02734 C 94.5801 1.36719 94.1406 -0.683594 92.4316 -1.66016 C 90.7227 -2.63672 88.8184 -2.05078 87.793 -0.292969 L 84.9121 4.73633 C 84.0332 6.34766 84.4238 8.34961 86.1328 9.32617 C 87.8418 10.2539 89.8438 9.61914 90.7715 8.00781 Z M 30.0293 23.291 C 33.1055 23.291 35.6934 20.7031 35.6934 17.5781 C 35.6934 14.502 33.1055 11.9141 30.0293 11.9141 C 26.9043 11.9141 24.3164 14.502 24.3164 17.5781 C 24.3164 20.7031 26.9043 23.291 30.0293 23.291 Z M 81.2012 23.4863 C 84.2773 23.4863 86.8652 20.8984 86.8652 17.7734 C 86.8652 14.6973 84.2773 12.1094 81.2012 12.1094 C 78.0762 12.1094 75.4883 14.6973 75.4883 17.7734 C 75.4883 20.8984 78.0762 23.4863 81.2012 23.4863 Z M 51.3184 30.7617 C 54.4434 30.7617 56.9824 28.2227 56.9824 25.0488 C 56.9824 22.0215 54.4434 19.4336 51.3184 19.4336 C 48.1934 19.4336 45.6543 22.0215 45.6543 25.0488 C 45.6543 28.2227 48.1934 30.7617 51.3184 30.7617 Z"/>
  </g>
  <g id="Medium-M" transform="matrix(1 0 0 1 1681.69 1126)">
   <path d="M 31.9824 -11.377 L 92.8711 -11.377 C 108.74 -11.377 120.996 -23.3398 120.996 -38.8184 C 120.996 -54.4922 108.301 -66.2109 91.5527 -66.1133 C 85.2539 -78.7598 73.7793 -85.8887 59.8633 -85.8887 C 41.6016 -85.8887 26.2695 -71.8262 24.5605 -53.418 C 15.0391 -50.6836 8.74023 -42.627 8.74023 -32.666 C 8.74023 -20.0684 18.2129 -11.377 31.9824 -11.377 Z M 38.7207 6.98242 L 41.748 1.66016 C 42.627 0.0976562 42.1875 -1.80664 40.625 -2.73438 C 39.0137 -3.66211 37.1582 -3.07617 36.2305 -1.46484 L 33.1543 3.90625 C 32.3242 5.41992 32.666 7.32422 34.3262 8.25195 C 35.8887 9.13086 37.793 8.54492 38.7207 6.98242 Z M 60.0098 14.4531 L 67.334 1.75781 C 68.2617 0.146484 67.8223 -1.75781 66.2109 -2.68555 C 64.5996 -3.61328 62.793 -3.07617 61.8652 -1.41602 L 54.4922 11.377 C 53.5645 12.8906 54.0039 14.7949 55.6152 15.7227 C 57.2266 16.6016 59.1309 16.0156 60.0098 14.4531 Z M 89.8438 7.17773 L 92.9199 1.85547 C 93.7988 0.292969 93.3594 -1.61133 91.7969 -2.53906 C 90.1855 -3.4668 88.3301 -2.88086 87.4023 -1.31836 L 84.3262 4.10156 C 83.4961 5.61523 83.8379 7.4707 85.498 8.39844 C 87.0605 9.32617 88.9648 8.74023 89.8438 7.17773 Z M 29.4922 22.0703 C 32.5195 22.0703 35.0098 19.5801 35.0098 16.5039 C 35.0098 13.5742 32.5195 11.0352 29.4922 11.0352 C 26.4648 11.0352 23.9746 13.5742 23.9746 16.5039 C 23.9746 19.5801 26.4648 22.0703 29.4922 22.0703 Z M 80.6641 22.2656 C 83.6914 22.2656 86.1816 19.7754 86.1816 16.6992 C 86.1816 13.7207 83.6914 11.2305 80.6641 11.2305 C 77.6367 11.2305 75.1465 13.7207 75.1465 16.6992 C 75.1465 19.7754 77.6367 22.2656 80.6641 22.2656 Z M 50.8301 29.541 C 53.8086 29.541 56.3477 27.0508 56.3477 23.9746 C 56.3477 21.0449 53.8574 18.5059 50.8301 18.5059 C 47.8027 18.5059 45.3125 21.0449 45.3125 23.9746 C 45.3125 27.0508 47.8027 29.541 50.8301 29.541 Z"/>
  </g>
  <g id="Regular-M" transform="matrix(1 0 0 1 1385.86 1126)">
   <path d="M 31.2012 -12.3535 L 91.7969 -12.3535 C 107.324 -12.3535 119.238 -24.0234 119.238 -39.0625 C 119.238 -54.248 106.738 -65.625 90.1855 -65.4785 C 83.9355 -78.0762 72.4609 -85.3027 58.9355 -85.3027 C 40.918 -85.3027 25.7324 -71.1426 24.3652 -52.9297 C 14.8926 -50.3418 8.74023 -42.334 8.74023 -32.7637 C 8.74023 -20.6543 17.8223 -12.3535 31.2012 -12.3535 Z M 37.5 5.95703 L 40.8203 0.146484 C 41.6504 -1.26953 41.2109 -3.02734 39.7461 -3.90625 C 38.2812 -4.73633 36.5723 -4.19922 35.7422 -2.7832 L 32.373 3.07617 C 31.5918 4.49219 31.9824 6.20117 33.4473 7.08008 C 34.9121 7.86133 36.6699 7.37305 37.5 5.95703 Z M 58.8379 13.4277 L 66.4062 0.244141 C 67.2363 -1.26953 66.8457 -2.97852 65.3809 -3.85742 C 63.8672 -4.6875 62.1582 -4.19922 61.3281 -2.73438 L 53.6621 10.5957 C 52.8809 11.9629 53.2715 13.6719 54.7852 14.5508 C 56.25 15.3809 58.0078 14.8438 58.8379 13.4277 Z M 88.6719 6.15234 L 91.9922 0.341797 C 92.8223 -1.07422 92.3828 -2.83203 90.918 -3.71094 C 89.4531 -4.54102 87.7441 -4.05273 86.8652 -2.58789 L 83.5449 3.27148 C 82.7637 4.6875 83.1055 6.39648 84.6191 7.27539 C 86.084 8.05664 87.8418 7.56836 88.6719 6.15234 Z M 28.8574 20.459 C 31.7383 20.459 34.1309 18.0664 34.1309 15.1367 C 34.1309 12.3047 31.7383 9.86328 28.8574 9.86328 C 25.9277 9.86328 23.5352 12.3047 23.5352 15.1367 C 23.5352 18.0664 25.9277 20.459 28.8574 20.459 Z M 80.0293 20.6543 C 82.9102 20.6543 85.3027 18.2617 85.3027 15.332 C 85.3027 12.5 82.9102 10.0586 80.0293 10.0586 C 77.0996 10.0586 74.707 12.5 74.707 15.332 C 74.707 18.2617 77.0996 20.6543 80.0293 20.6543 Z M 50.1465 27.9785 C 53.0273 27.9785 55.4688 25.5371 55.4688 22.6074 C 55.4688 19.7754 53.0762 17.334 50.1465 17.334 C 47.2656 17.334 44.873 19.7754 44.873 22.6074 C 44.873 25.5371 47.2656 27.9785 50.1465 27.9785 Z"/>
  </g>
  <g id="Light-M" transform="matrix(1 0 0 1 1089.56 1126)">
   <path d="M 30.5176 -13.4277 L 91.4551 -13.4277 C 106.641 -13.4277 118.408 -24.8535 118.408 -39.502 C 118.408 -54.2969 106.152 -65.3809 89.8438 -65.2344 C 83.5449 -78.2227 72.3145 -85.4492 58.6426 -85.4492 C 40.918 -85.4492 26.0254 -71.2402 24.6582 -53.0273 C 14.9902 -50.4395 8.74023 -42.627 8.74023 -33.1543 C 8.74023 -21.4844 17.5781 -13.4277 30.5176 -13.4277 Z M 36.377 5.27344 L 40.2344 -1.41602 C 40.9668 -2.63672 40.5762 -4.05273 39.4043 -4.73633 C 38.2324 -5.41992 36.8652 -4.98047 36.1816 -3.75977 L 32.3242 2.97852 C 31.6406 4.19922 31.9336 5.56641 33.1543 6.25 C 34.2773 6.88477 35.6934 6.49414 36.377 5.27344 Z M 57.7148 12.7441 L 65.8203 -1.36719 C 66.5527 -2.58789 66.2109 -3.95508 65.0391 -4.6875 C 63.8672 -5.32227 62.4512 -4.93164 61.7676 -3.71094 L 53.6133 10.4492 C 52.9297 11.6699 53.2227 13.0371 54.4434 13.7207 C 55.6152 14.4043 57.0312 13.9648 57.7148 12.7441 Z M 87.5488 5.46875 L 91.4062 -1.2207 C 92.0898 -2.44141 91.748 -3.85742 90.5762 -4.54102 C 89.4043 -5.22461 88.0371 -4.78516 87.3535 -3.56445 L 83.4473 3.17383 C 82.8125 4.3457 83.1055 5.71289 84.2773 6.44531 C 85.4492 7.08008 86.8652 6.68945 87.5488 5.46875 Z M 28.7598 18.8965 C 31.3965 18.8965 33.6426 16.6504 33.6426 13.9648 C 33.6426 11.2793 31.4453 9.0332 28.7598 9.0332 C 26.0254 9.0332 23.8281 11.2793 23.8281 13.9648 C 23.8281 16.6504 26.0254 18.8965 28.7598 18.8965 Z M 79.9316 19.0918 C 82.5684 19.0918 84.8145 16.8457 84.8145 14.1602 C 84.8145 11.4746 82.6172 9.22852 79.9316 9.22852 C 77.1973 9.22852 74.9512 11.4746 74.9512 14.1602 C 74.9512 16.8457 77.1973 19.0918 79.9316 19.0918 Z M 50.0488 26.3672 C 52.7344 26.3672 54.9316 24.1211 54.9316 21.4355 C 54.9316 18.7988 52.7832 16.5039 50.0488 16.5039 C 47.3633 16.5039 45.1172 18.7988 45.1172 21.4355 C 45.1172 24.1211 47.3633 26.3672 50.0488 26.3672 Z"/>
  </g>
  <g id="Thin-M" transform="matrix(1 0 0 1 793.385 1126)">
   <path d="M 29.6387 -14.8926 L 91.0156 -14.8926 C 105.811 -14.8926 117.334 -25.9766 117.334 -40.0879 C 117.334 -54.3457 105.322 -65.0879 89.4043 -64.9414 C 82.959 -78.418 72.0703 -85.5469 58.2031 -85.5469 C 40.9668 -85.5469 26.4648 -71.3867 25.0977 -53.125 C 15.1367 -50.6348 8.74023 -43.0176 8.74023 -33.7402 C 8.74023 -22.6562 17.2363 -14.8926 29.6387 -14.8926 Z M 34.9121 4.3457 L 39.4531 -3.51562 C 40.0391 -4.44336 39.7949 -5.37109 38.9648 -5.81055 C 38.2324 -6.25 37.3047 -6.00586 36.7676 -5.0293 L 32.2266 2.83203 C 31.6895 3.75977 31.8848 4.6875 32.7148 5.12695 C 33.4961 5.61523 34.4238 5.32227 34.9121 4.3457 Z M 56.25 11.8652 L 65.0879 -3.41797 C 65.5762 -4.39453 65.3809 -5.27344 64.5996 -5.76172 C 63.8672 -6.20117 62.8906 -5.95703 62.3535 -4.98047 L 53.5156 10.3027 C 53.0273 11.2305 53.1738 12.1582 54.0039 12.5977 C 54.7852 13.0859 55.7129 12.793 56.25 11.8652 Z M 86.084 4.54102 L 90.625 -3.32031 C 91.2109 -4.24805 90.9668 -5.17578 90.1367 -5.61523 C 89.4043 -6.05469 88.4766 -5.81055 87.9395 -4.88281 L 83.3984 3.02734 C 82.8613 3.95508 83.0566 4.83398 83.8379 5.32227 C 84.668 5.81055 85.5469 5.51758 86.084 4.54102 Z M 28.6133 16.8457 C 31.0059 16.8457 32.959 14.7949 32.959 12.4023 C 32.959 9.96094 31.0547 7.95898 28.6133 7.95898 C 26.123 7.95898 24.1699 9.96094 24.1699 12.4023 C 24.1699 14.7949 26.123 16.8457 28.6133 16.8457 Z M 79.7852 16.9922 C 82.1777 16.9922 84.1309 14.9902 84.1309 12.5977 C 84.1309 10.1562 82.2266 8.1543 79.7852 8.1543 C 77.2949 8.1543 75.3418 10.1562 75.3418 12.5977 C 75.3418 14.9902 77.2949 16.9922 79.7852 16.9922 Z M 49.9512 24.3164 C 52.2949 24.3164 54.2969 22.2656 54.2969 19.873 C 54.2969 17.4805 52.3438 15.4297 49.9512 15.4297 C 47.4609 15.4297 45.459 17.4805 45.459 19.873 C 45.459 22.2656 47.4609 24.3164 49.9512 24.3164 Z"/>
  </g>
  <g id="Ultralight-M" transform="matrix(1 0 0 1 496.967 1126)">
   <path d="M 29.1992 -15.625 L 90.8203 -15.625 C 105.371 -15.625 116.748 -26.5137 116.748 -40.3809 C 116.748 -54.3945 104.883 -64.8926 89.1602 -64.7949 C 82.7148 -78.5156 71.9238 -85.6445 57.959 -85.6445 C 40.9668 -85.6445 26.6602 -71.4844 25.3418 -53.2227 C 15.2344 -50.7324 8.74023 -43.2129 8.74023 -34.0332 C 8.74023 -23.1934 17.0898 -15.625 29.1992 -15.625 Z M 34.1797 3.90625 L 39.0625 -4.54102 C 39.5508 -5.37109 39.3555 -6.00586 38.7695 -6.39648 C 38.2324 -6.68945 37.5488 -6.49414 37.0605 -5.71289 L 32.1777 2.73438 C 31.7383 3.56445 31.8848 4.19922 32.4707 4.58984 C 33.0566 4.93164 33.7402 4.6875 34.1797 3.90625 Z M 55.4688 11.377 L 64.6973 -4.49219 C 65.0879 -5.27344 64.9902 -5.95703 64.3555 -6.34766 C 63.8184 -6.64062 63.0859 -6.44531 62.6953 -5.66406 L 53.4668 10.2539 C 53.0762 11.0352 53.1738 11.7188 53.7598 12.0605 C 54.3945 12.4023 55.0781 12.1582 55.4688 11.377 Z M 85.3516 4.10156 L 90.2344 -4.39453 C 90.7227 -5.17578 90.5273 -5.85938 89.9414 -6.20117 C 89.4043 -6.49414 88.7207 -6.29883 88.2324 -5.51758 L 83.3496 2.92969 C 82.9102 3.75977 83.0078 4.39453 83.6426 4.78516 C 84.2285 5.12695 84.9121 4.88281 85.3516 4.10156 Z M 28.5645 15.7715 C 30.7617 15.7715 32.666 13.8184 32.666 11.6211 C 32.666 9.32617 30.8594 7.37305 28.5645 7.37305 C 26.1719 7.37305 24.3164 9.32617 24.3164 11.6211 C 24.3164 13.8184 26.1719 15.7715 28.5645 15.7715 Z M 79.7363 15.9668 C 81.9336 15.9668 83.8379 14.0137 83.8379 11.7676 C 83.8379 9.47266 82.0312 7.56836 79.7363 7.56836 C 77.3438 7.56836 75.4883 9.47266 75.4883 11.7676 C 75.4883 14.0137 77.3438 15.9668 79.7363 15.9668 Z M 49.8535 23.2422 C 52.0996 23.2422 53.9551 21.3379 53.9551 19.0918 C 53.9551 16.7969 52.1484 14.8438 49.8535 14.8438 C 47.5098 14.8438 45.6543 16.7969 45.6543 19.0918 C 45.6543 21.3379 47.5098 23.2422 49.8535 23.2422 Z"/>
  </g>
  <g id="Black-S" transform="matrix(1 0 0 1 2879.54 696)">
   <path d="M 27.7832 -13.0859 L 76.416 -13.0859 C 90.2344 -13.0859 100.879 -23.584 100.879 -37.207 C 100.879 -51.0742 90.2832 -61.6699 76.5137 -61.5723 C 71.2891 -71.6309 62.3047 -76.8555 50.1465 -76.8555 C 34.8633 -76.8555 22.4121 -66.2598 20.0684 -51.2695 C 12.4023 -48.5352 6.83594 -41.9434 6.83594 -33.0078 C 6.83594 -21.4844 15.625 -13.0859 27.7832 -13.0859 Z M 34.4727 1.51367 L 35.9375 -1.02539 C 36.9141 -2.68555 36.4746 -4.73633 34.7656 -5.71289 C 33.0566 -6.68945 31.2012 -6.10352 30.1758 -4.29688 L 28.7109 -1.75781 C 27.7832 -0.146484 28.125 1.9043 29.834 2.88086 C 31.543 3.85742 33.5449 3.125 34.4727 1.51367 Z M 51.1719 7.37305 L 56.0059 -0.976562 C 56.9336 -2.58789 56.543 -4.6875 54.834 -5.66406 C 53.125 -6.64062 51.2695 -6.00586 50.2441 -4.24805 L 45.4102 4.10156 C 44.4824 5.71289 44.8242 7.76367 46.5332 8.74023 C 48.2422 9.7168 50.2441 8.98438 51.1719 7.37305 Z M 74.5605 1.66016 L 76.0254 -0.878906 C 77.002 -2.53906 76.5625 -4.58984 74.8535 -5.56641 C 73.1445 -6.54297 71.2891 -5.95703 70.2637 -4.15039 L 68.7988 -1.61133 C 67.8711 0 68.2129 2.05078 69.9219 3.02734 C 71.6309 4.00391 73.6328 3.27148 74.5605 1.66016 Z M 25.3906 15.2344 C 28.1738 15.2344 30.4688 12.9395 30.4688 10.1074 C 30.4688 7.37305 28.1738 5.07812 25.3906 5.07812 C 22.6074 5.07812 20.3125 7.37305 20.3125 10.1074 C 20.3125 12.9395 22.6074 15.2344 25.3906 15.2344 Z M 65.4785 15.3809 C 68.2617 15.3809 70.5566 13.0859 70.5566 10.2539 C 70.5566 7.51953 68.2617 5.22461 65.4785 5.22461 C 62.6953 5.22461 60.4004 7.51953 60.4004 10.2539 C 60.4004 13.0859 62.6953 15.3809 65.4785 15.3809 Z M 42.0898 21.0938 C 44.873 21.0938 47.168 18.7988 47.168 15.9668 C 47.168 13.2324 44.873 10.9375 42.0898 10.9375 C 39.3066 10.9375 37.0117 13.2324 37.0117 15.9668 C 37.0117 18.7988 39.3066 21.0938 42.0898 21.0938 Z"/>
  </g>
  <g id="Heavy-S" transform="matrix(1 0 0 1 2583.66 696)">
   <path d="M 27.0508 -13.9648 L 75.3906 -13.9648 C 88.8672 -13.9648 99.2188 -24.1699 99.2188 -37.4023 C 99.2188 -50.8301 88.7695 -61.084 75.1465 -60.9863 C 70.0195 -70.9473 61.0352 -76.2695 49.2676 -76.2695 C 34.1797 -76.2695 21.8262 -65.5762 19.7754 -50.7324 C 12.207 -48.1934 6.83594 -41.6504 6.83594 -33.0078 C 6.83594 -21.9238 15.2344 -13.9648 27.0508 -13.9648 Z M 33.3984 0.537109 L 35.0586 -2.39258 C 35.9863 -3.95508 35.5469 -5.85938 33.9355 -6.78711 C 32.3242 -7.71484 30.5664 -7.17773 29.5898 -5.46875 L 27.9297 -2.53906 C 27.0508 -1.02539 27.3926 0.878906 29.0039 1.80664 C 30.6152 2.73438 32.5195 2.05078 33.3984 0.537109 Z M 50.0977 6.39648 L 55.127 -2.34375 C 56.0059 -3.85742 55.6152 -5.81055 54.0039 -6.73828 C 52.3926 -7.66602 50.6348 -7.08008 49.6582 -5.41992 L 44.6289 3.32031 C 43.75 4.83398 44.0918 6.73828 45.7031 7.66602 C 47.3145 8.59375 49.2188 7.91016 50.0977 6.39648 Z M 73.4863 0.683594 L 75.1465 -2.24609 C 76.0742 -3.80859 75.6348 -5.71289 74.0234 -6.64062 C 72.4121 -7.56836 70.6543 -7.03125 69.6777 -5.32227 L 68.0176 -2.39258 C 67.1387 -0.878906 67.4805 1.02539 69.0918 1.95312 C 70.7031 2.88086 72.6074 2.19727 73.4863 0.683594 Z M 24.7559 13.8184 C 27.4414 13.8184 29.6387 11.5723 29.6387 8.83789 C 29.6387 6.20117 27.4414 4.00391 24.7559 4.00391 C 22.0703 4.00391 19.8242 6.20117 19.8242 8.83789 C 19.8242 11.5723 22.0703 13.8184 24.7559 13.8184 Z M 64.8438 13.9648 C 67.5293 13.9648 69.7266 11.7188 69.7266 8.98438 C 69.7266 6.34766 67.5293 4.15039 64.8438 4.15039 C 62.1582 4.15039 59.9121 6.34766 59.9121 8.98438 C 59.9121 11.7188 62.1582 13.9648 64.8438 13.9648 Z M 41.4551 19.6777 C 44.1406 19.6777 46.3379 17.4316 46.3379 14.6973 C 46.3379 12.0605 44.1406 9.86328 41.4551 9.86328 C 38.7695 9.86328 36.5234 12.0605 36.5234 14.6973 C 36.5234 17.4316 38.7695 19.6777 41.4551 19.6777 Z"/>
  </g>
  <g id="Bold-S" transform="matrix(1 0 0 1 2287.88 696)">
   <path d="M 26.2695 -14.9414 L 74.2188 -14.9414 C 87.3047 -14.9414 97.3633 -24.8047 97.3633 -37.5977 C 97.3633 -50.5859 87.1094 -60.4004 73.6328 -60.3027 C 68.6035 -70.166 59.5703 -75.6348 48.2422 -75.6348 C 33.4473 -75.6348 21.1914 -64.7949 19.4824 -50.1465 C 12.0117 -47.7539 6.83594 -41.3086 6.83594 -33.0566 C 6.83594 -22.4121 14.8438 -14.9414 26.2695 -14.9414 Z M 32.1777 -0.585938 L 34.082 -3.90625 C 34.9121 -5.32227 34.5215 -7.12891 33.0078 -8.00781 C 31.4941 -8.88672 29.834 -8.34961 28.9551 -6.83594 L 27.0508 -3.4668 C 26.2695 -2.05078 26.5625 -0.292969 28.0762 0.585938 C 29.5898 1.41602 31.3477 0.878906 32.1777 -0.585938 Z M 48.877 5.27344 L 54.1504 -3.85742 C 54.9805 -5.27344 54.5898 -7.08008 53.0762 -7.95898 C 51.5625 -8.83789 49.9023 -8.30078 49.0234 -6.78711 L 43.75 2.39258 C 42.9199 3.80859 43.2617 5.56641 44.7754 6.44531 C 46.2891 7.27539 48.0469 6.73828 48.877 5.27344 Z M 72.2656 -0.439453 L 74.1699 -3.75977 C 75 -5.17578 74.6094 -6.98242 73.0957 -7.86133 C 71.582 -8.74023 69.9219 -8.20312 69.043 -6.68945 L 67.1387 -3.32031 C 66.3574 -1.9043 66.6504 -0.146484 68.1641 0.732422 C 69.6777 1.5625 71.4355 1.02539 72.2656 -0.439453 Z M 24.0234 12.207 C 26.6113 12.207 28.7109 10.0586 28.7109 7.4707 C 28.7109 4.93164 26.6113 2.7832 24.0234 2.7832 C 21.4355 2.7832 19.2871 4.93164 19.2871 7.4707 C 19.2871 10.0586 21.4355 12.207 24.0234 12.207 Z M 64.1113 12.3535 C 66.6992 12.3535 68.7988 10.2051 68.7988 7.61719 C 68.7988 5.07812 66.6992 2.92969 64.1113 2.92969 C 61.5234 2.92969 59.375 5.07812 59.375 7.61719 C 59.375 10.2051 61.5234 12.3535 64.1113 12.3535 Z M 40.7227 18.0664 C 43.3105 18.0664 45.4102 15.918 45.4102 13.3301 C 45.4102 10.791 43.3105 8.64258 40.7227 8.64258 C 38.1348 8.64258 35.9863 10.791 35.9863 13.3301 C 35.9863 15.918 38.1348 18.0664 40.7227 18.0664 Z"/>
  </g>
  <g id="Semibold-S" transform="matrix(1 0 0 1 1991.83 696)">
   <path d="M 25.7324 -15.5762 L 73.4375 -15.5762 C 86.2305 -15.5762 96.0449 -25.293 96.0449 -37.7441 C 96.0449 -50.3906 85.9375 -59.9609 72.6074 -59.8633 C 67.627 -69.6289 58.5938 -75.1953 47.5586 -75.1953 C 32.9102 -75.1953 20.8008 -64.2578 19.2871 -49.7559 C 11.8652 -47.4609 6.83594 -41.0645 6.83594 -33.0566 C 6.83594 -22.7539 14.5508 -15.5762 25.7324 -15.5762 Z M 31.3477 -1.31836 L 33.3984 -4.93164 C 34.2285 -6.29883 33.7891 -8.00781 32.4219 -8.83789 C 30.957 -9.66797 29.3457 -9.13086 28.5156 -7.71484 L 26.416 -4.05273 C 25.6836 -2.73438 26.0254 -1.07422 27.4902 -0.244141 C 28.8574 0.537109 30.5664 0.0488281 31.3477 -1.31836 Z M 48.0469 4.54102 L 53.4668 -4.88281 C 54.248 -6.25 53.8574 -7.95898 52.4902 -8.78906 C 51.0254 -9.61914 49.4141 -9.13086 48.584 -7.66602 L 43.1152 1.80664 C 42.334 3.125 42.7246 4.78516 44.1895 5.61523 C 45.5566 6.39648 47.2656 5.9082 48.0469 4.54102 Z M 71.4355 -1.17188 L 73.4863 -4.78516 C 74.3164 -6.15234 73.877 -7.86133 72.5098 -8.69141 C 71.0449 -9.52148 69.4336 -8.98438 68.6035 -7.56836 L 66.5039 -3.90625 C 65.7715 -2.58789 66.1133 -0.927734 67.5781 -0.0976562 C 68.9453 0.683594 70.6543 0.195312 71.4355 -1.17188 Z M 23.5352 11.084 C 26.0254 11.084 28.0762 9.0332 28.0762 6.49414 C 28.0762 4.05273 26.0254 1.95312 23.5352 1.95312 C 20.9961 1.95312 18.9453 4.05273 18.9453 6.49414 C 18.9453 9.0332 20.9961 11.084 23.5352 11.084 Z M 63.623 11.2305 C 66.1133 11.2305 68.1641 9.17969 68.1641 6.64062 C 68.1641 4.19922 66.1133 2.09961 63.623 2.09961 C 61.084 2.09961 59.0332 4.19922 59.0332 6.64062 C 59.0332 9.17969 61.084 11.2305 63.623 11.2305 Z M 40.2344 16.9434 C 42.7246 16.9434 44.7754 14.8926 44.7754 12.3535 C 44.7754 9.91211 42.7246 7.8125 40.2344 7.8125 C 37.6953 7.8125 35.6445 9.91211 35.6445 12.3535 C 35.6445 14.8926 37.6953 16.9434 40.2344 16.9434 Z"/>
  </g>
  <g id="Medium-S" transform="matrix(1 0 0 1 1695.6 696)">
   <path d="M 25.293 -16.1133 L 72.8516 -16.1133 C 85.4492 -16.1133 95.0684 -25.6348 95.0684 -37.8418 C 95.0684 -50.293 85.0586 -59.6191 71.8262 -59.5215 C 66.8945 -69.2383 57.8613 -74.8535 47.0215 -74.8535 C 32.5195 -74.8535 20.459 -63.8184 19.0918 -49.4629 C 11.7188 -47.2656 6.83594 -40.918 6.83594 -33.0566 C 6.83594 -23.0469 14.3555 -16.1133 25.293 -16.1133 Z M 30.7129 -1.9043 L 32.9102 -5.71289 C 33.6426 -7.03125 33.252 -8.64258 31.9336 -9.47266 C 30.5176 -10.2539 28.9551 -9.76562 28.1738 -8.44727 L 25.9766 -4.54102 C 25.2441 -3.27148 25.5859 -1.66016 27.002 -0.878906 C 28.3203 -0.0976562 29.9805 -0.585938 30.7129 -1.9043 Z M 47.4121 3.95508 L 52.9785 -5.66406 C 53.7109 -6.98242 53.3203 -8.59375 52.002 -9.42383 C 50.5859 -10.2051 49.0234 -9.76562 48.2422 -8.39844 L 42.6758 1.31836 C 41.9434 2.58789 42.2852 4.19922 43.7012 4.98047 C 45.0195 5.76172 46.6797 5.27344 47.4121 3.95508 Z M 70.8008 -1.75781 L 72.998 -5.56641 C 73.7305 -6.88477 73.3398 -8.49609 72.0215 -9.32617 C 70.6055 -10.1074 69.043 -9.61914 68.2617 -8.30078 L 66.0645 -4.39453 C 65.332 -3.125 65.6738 -1.51367 67.0898 -0.732422 C 68.4082 0.0488281 70.0684 -0.439453 70.8008 -1.75781 Z M 23.1445 10.2539 C 25.5859 10.2539 27.5879 8.25195 27.5879 5.76172 C 27.5879 3.36914 25.5859 1.31836 23.1445 1.31836 C 20.7031 1.31836 18.6523 3.36914 18.6523 5.76172 C 18.6523 8.25195 20.7031 10.2539 23.1445 10.2539 Z M 63.2324 10.4004 C 65.6738 10.4004 67.6758 8.39844 67.6758 5.9082 C 67.6758 3.51562 65.6738 1.46484 63.2324 1.46484 C 60.791 1.46484 58.7402 3.51562 58.7402 5.9082 C 58.7402 8.39844 60.791 10.4004 63.2324 10.4004 Z M 39.8438 16.1133 C 42.2852 16.1133 44.2871 14.1113 44.2871 11.6211 C 44.2871 9.22852 42.2852 7.17773 39.8438 7.17773 C 37.4023 7.17773 35.3516 9.22852 35.3516 11.6211 C 35.3516 14.1113 37.4023 16.1133 39.8438 16.1133 Z"/>
  </g>
  <g id="Regular-S" transform="matrix(1 0 0 1 1399.53 696)">
   <path d="M 24.7559 -16.748 L 72.0703 -16.748 C 84.375 -16.748 93.7988 -26.0742 93.7988 -37.9883 C 93.7988 -50.0977 83.9355 -59.1309 70.8008 -59.0332 C 65.9668 -68.7012 56.8359 -74.4141 46.3379 -74.4141 C 32.0312 -74.4141 20.0195 -63.2812 18.8965 -49.0234 C 11.5723 -46.9727 6.83594 -40.6738 6.83594 -33.0566 C 6.83594 -23.3887 14.0625 -16.748 24.7559 -16.748 Z M 29.8828 -2.63672 L 32.2266 -6.73828 C 32.959 -7.95898 32.5684 -9.52148 31.2988 -10.3027 C 29.9805 -11.0352 28.4668 -10.5469 27.7344 -9.32617 L 25.3906 -5.12695 C 24.707 -3.95508 25.0488 -2.44141 26.3672 -1.70898 C 27.6367 -0.976562 29.1992 -1.41602 29.8828 -2.63672 Z M 46.582 3.22266 L 52.2949 -6.68945 C 53.0273 -7.95898 52.6367 -9.47266 51.3672 -10.2539 C 50.0488 -10.9863 48.5352 -10.5469 47.8027 -9.27734 L 42.0898 0.732422 C 41.3574 1.9043 41.748 3.41797 43.0664 4.15039 C 44.3359 4.88281 45.8984 4.44336 46.582 3.22266 Z M 69.9707 -2.49023 L 72.3145 -6.5918 C 73.0469 -7.8125 72.6562 -9.375 71.3867 -10.1562 C 70.0684 -10.8887 68.5547 -10.4004 67.8223 -9.17969 L 65.4785 -4.98047 C 64.7949 -3.80859 65.1367 -2.29492 66.4551 -1.5625 C 67.7246 -0.830078 69.2871 -1.26953 69.9707 -2.49023 Z M 22.6562 9.17969 C 25 9.17969 26.9531 7.22656 26.9531 4.78516 C 26.9531 2.49023 25 0.488281 22.6562 0.488281 C 20.2637 0.488281 18.3105 2.49023 18.3105 4.78516 C 18.3105 7.22656 20.2637 9.17969 22.6562 9.17969 Z M 62.7441 9.32617 C 65.0879 9.32617 67.041 7.37305 67.041 4.93164 C 67.041 2.63672 65.0879 0.634766 62.7441 0.634766 C 60.3516 0.634766 58.3984 2.63672 58.3984 4.93164 C 58.3984 7.37305 60.3516 9.32617 62.7441 9.32617 Z M 39.3555 15.0391 C 41.6992 15.0391 43.6523 13.0859 43.6523 10.6445 C 43.6523 8.34961 41.6992 6.34766 39.3555 6.34766 C 36.9629 6.34766 35.0098 8.34961 35.0098 10.6445 C 35.0098 13.0859 36.9629 15.0391 39.3555 15.0391 Z"/>
  </g>
  <g id="Light-S" transform="matrix(1 0 0 1 1103.18 696)">
   <path d="M 24.1699 -17.7246 L 71.7773 -17.7246 C 83.7891 -17.7246 93.0664 -26.8066 93.0664 -38.4277 C 93.0664 -50.1465 83.3984 -58.9355 70.5078 -58.8379 C 65.5762 -68.8477 56.6895 -74.5117 46.0449 -74.5117 C 32.0312 -74.5117 20.2637 -63.3789 19.1895 -49.1211 C 11.6699 -47.1191 6.83594 -40.918 6.83594 -33.4473 C 6.83594 -24.1211 13.8672 -17.7246 24.1699 -17.7246 Z M 28.9062 -3.22266 L 31.7383 -8.1543 C 32.3242 -9.17969 32.0312 -10.4004 31.0059 -11.0352 C 29.9805 -11.6211 28.7598 -11.2305 28.1738 -10.2051 L 25.3418 -5.22461 C 24.7559 -4.24805 25 -3.02734 26.0742 -2.44141 C 27.0996 -1.85547 28.3203 -2.19727 28.9062 -3.22266 Z M 45.6055 2.63672 L 51.8066 -8.10547 C 52.3926 -9.17969 52.0996 -10.3516 51.0742 -10.9863 C 50.0488 -11.5723 48.8281 -11.2305 48.2422 -10.1562 L 42.041 0.634766 C 41.4062 1.61133 41.6992 2.83203 42.7734 3.41797 C 43.7988 4.00391 45.0195 3.66211 45.6055 2.63672 Z M 68.9941 -3.07617 L 71.8262 -8.00781 C 72.4121 -9.0332 72.1191 -10.2539 71.0938 -10.8887 C 70.0684 -11.4746 68.8477 -11.084 68.2617 -10.0586 L 65.4297 -5.07812 C 64.8438 -4.10156 65.0879 -2.88086 66.1621 -2.29492 C 67.1875 -1.70898 68.4082 -2.05078 68.9941 -3.07617 Z M 22.5586 7.76367 C 24.707 7.76367 26.5137 5.95703 26.5137 3.75977 C 26.5137 1.61133 24.7559 -0.244141 22.5586 -0.244141 C 20.3613 -0.244141 18.5547 1.61133 18.5547 3.75977 C 18.5547 5.95703 20.3613 7.76367 22.5586 7.76367 Z M 62.6465 7.91016 C 64.7949 7.91016 66.6016 6.10352 66.6016 3.90625 C 66.6016 1.75781 64.8438 -0.0976562 62.6465 -0.0976562 C 60.4492 -0.0976562 58.6426 1.75781 58.6426 3.90625 C 58.6426 6.10352 60.4492 7.91016 62.6465 7.91016 Z M 39.2578 13.623 C 41.4062 13.623 43.2129 11.8164 43.2129 9.61914 C 43.2129 7.4707 41.4551 5.61523 39.2578 5.61523 C 37.0605 5.61523 35.2539 7.4707 35.2539 9.61914 C 35.2539 11.8164 37.0605 13.623 39.2578 13.623 Z"/>
  </g>
  <g id="Thin-S" transform="matrix(1 0 0 1 806.935 696)">
   <path d="M 23.3887 -18.9941 L 71.3867 -18.9941 C 83.0566 -18.9941 92.1387 -27.7344 92.1387 -38.916 C 92.1387 -50.1953 82.666 -58.6914 70.1172 -58.5938 C 65.0879 -69.043 56.4941 -74.6094 45.6543 -74.6094 C 32.0801 -74.6094 20.6055 -63.5254 19.5801 -49.2188 C 11.8164 -47.2656 6.83594 -41.2598 6.83594 -33.9355 C 6.83594 -25.1465 13.5742 -18.9941 23.3887 -18.9941 Z M 27.6367 -4.05273 L 31.0547 -9.96094 C 31.543 -10.7422 31.2988 -11.5723 30.6152 -11.9629 C 29.9316 -12.3535 29.1504 -12.1094 28.6621 -11.3281 L 25.2441 -5.37109 C 24.8047 -4.58984 25 -3.80859 25.6836 -3.36914 C 26.3672 -2.97852 27.1973 -3.22266 27.6367 -4.05273 Z M 44.3359 1.80664 L 51.123 -9.91211 C 51.5625 -10.7422 51.3672 -11.5234 50.6836 -11.9141 C 50 -12.3047 49.1699 -12.1094 48.7305 -11.2793 L 41.9434 0.488281 C 41.5039 1.26953 41.6992 2.05078 42.3828 2.49023 C 43.0664 2.88086 43.8965 2.63672 44.3359 1.80664 Z M 67.7246 -3.90625 L 71.1426 -9.81445 C 71.6309 -10.5957 71.3867 -11.4258 70.7031 -11.8164 C 70.0195 -12.207 69.2383 -11.9629 68.75 -11.1816 L 65.332 -5.22461 C 64.8926 -4.44336 65.0879 -3.66211 65.7715 -3.22266 C 66.4551 -2.83203 67.2852 -3.07617 67.7246 -3.90625 Z M 22.4609 5.95703 C 24.3652 5.95703 25.9766 4.29688 25.9766 2.39258 C 25.9766 0.439453 24.4141 -1.17188 22.4609 -1.17188 C 20.459 -1.17188 18.8477 0.439453 18.8477 2.39258 C 18.8477 4.29688 20.459 5.95703 22.4609 5.95703 Z M 62.5488 6.10352 C 64.4531 6.10352 66.0645 4.44336 66.0645 2.53906 C 66.0645 0.585938 64.502 -1.02539 62.5488 -1.02539 C 60.5469 -1.02539 58.9355 0.585938 58.9355 2.53906 C 58.9355 4.44336 60.5469 6.10352 62.5488 6.10352 Z M 39.1602 11.8164 C 41.0645 11.8164 42.6758 10.1562 42.6758 8.25195 C 42.6758 6.29883 41.1133 4.6875 39.1602 4.6875 C 37.1582 4.6875 35.5469 6.29883 35.5469 8.25195 C 35.5469 10.1562 37.1582 11.8164 39.1602 11.8164 Z"/>
  </g>
  <g id="Ultralight-S" transform="matrix(1 0 0 1 510.492 696)">
   <path d="M 22.998 -19.6777 L 71.1914 -19.6777 C 82.666 -19.6777 91.6016 -28.2715 91.6016 -39.209 C 91.6016 -50.2441 82.2754 -58.5449 69.9219 -58.4473 C 64.8438 -69.1406 56.3965 -74.707 45.459 -74.707 C 32.0801 -74.707 20.8008 -63.623 19.7754 -49.3164 C 11.9141 -47.3633 6.83594 -41.4062 6.83594 -34.2285 C 6.83594 -25.6836 13.4277 -19.6777 22.998 -19.6777 Z M 26.9531 -4.44336 L 30.7129 -10.9375 C 31.1035 -11.5723 30.957 -12.1582 30.4199 -12.5 C 29.9316 -12.7441 29.3457 -12.5977 28.9551 -11.9141 L 25.1953 -5.46875 C 24.8535 -4.78516 24.9512 -4.19922 25.4883 -3.90625 C 26.0254 -3.56445 26.6113 -3.75977 26.9531 -4.44336 Z M 43.6523 1.41602 L 50.7812 -10.8887 C 51.123 -11.5234 51.0254 -12.1094 50.4883 -12.4512 C 50 -12.6953 49.3652 -12.5488 49.0234 -11.8652 L 41.8945 0.390625 C 41.5527 1.07422 41.6504 1.66016 42.1875 1.95312 C 42.7246 2.29492 43.3105 2.09961 43.6523 1.41602 Z M 67.041 -4.29688 L 70.8008 -10.791 C 71.1914 -11.4258 71.0449 -12.0117 70.5078 -12.3535 C 70.0195 -12.5977 69.4336 -12.4512 69.043 -11.7676 L 65.2832 -5.32227 C 64.9414 -4.63867 65.0391 -4.05273 65.5762 -3.75977 C 66.1133 -3.41797 66.6992 -3.61328 67.041 -4.29688 Z M 22.3633 4.98047 C 24.1699 4.98047 25.6348 3.4668 25.6348 1.66016 C 25.6348 -0.146484 24.2188 -1.70898 22.3633 -1.70898 C 20.5078 -1.70898 18.9941 -0.146484 18.9941 1.66016 C 18.9941 3.4668 20.5078 4.98047 22.3633 4.98047 Z M 62.4512 5.12695 C 64.2578 5.12695 65.7227 3.61328 65.7227 1.80664 C 65.7227 0 64.3066 -1.5625 62.4512 -1.5625 C 60.5957 -1.5625 59.082 0 59.082 1.80664 C 59.082 3.61328 60.5957 5.12695 62.4512 5.12695 Z M 39.0625 10.8398 C 40.8691 10.8398 42.334 9.32617 42.334 7.51953 C 42.334 5.71289 40.918 4.15039 39.0625 4.15039 C 37.207 4.15039 35.6934 5.71289 35.6934 7.51953 C 35.6934 9.32617 37.207 10.8398 39.0625 10.8398 Z"/>
  </g>
 </g>
</svg>
