<?xml version="1.0" encoding="UTF-8"?>
<!--Generator: Apple Native CoreSVG 123-->
<!DOCTYPE svg
PUBLIC "-//W3C//DTD SVG 1.1//EN"
       "http://www.w3.org/Graphics/SVG/1.1/DTD/svg11.dtd">
<svg version="1.1" xmlns="http://www.w3.org/2000/svg" xmlns:xlink="http://www.w3.org/1999/xlink" width="3300" height="2200">
 <!--glyph: "uni1001DE.medium", point size: 100.000000, font version: "Version 15.0d7e11", template writer version: "5"-->
 <g id="Notes">
  <rect height="2200" id="artboard" style="fill:white;opacity:1" width="3300" x="0" y="0"/>
  <line id="" style="fill:none;stroke:black;opacity:1;stroke-width:0.5;" x1="263" x2="3036" y1="292" y2="292"/>
  <text style="stroke:none;fill:black;font-family:-apple-system,&quot;SF Pro Display&quot;,&quot;SF Pro Text&quot;,Helvetica,sans-serif;font-weight:bold;" transform="matrix(1 0 0 1 263 322)">Weight/Scale Variations</text>
  <text style="stroke:none;fill:black;font-family:-apple-system,&quot;SF Pro Display&quot;,&quot;SF Pro Text&quot;,Helvetica,sans-serif;text-anchor:middle;" transform="matrix(1 0 0 1 559.711 322)">Ultralight</text>
  <text style="stroke:none;fill:black;font-family:-apple-system,&quot;SF Pro Display&quot;,&quot;SF Pro Text&quot;,Helvetica,sans-serif;text-anchor:middle;" transform="matrix(1 0 0 1 856.422 322)">Thin</text>
  <text style="stroke:none;fill:black;font-family:-apple-system,&quot;SF Pro Display&quot;,&quot;SF Pro Text&quot;,Helvetica,sans-serif;text-anchor:middle;" transform="matrix(1 0 0 1 1153.13 322)">Light</text>
  <text style="stroke:none;fill:black;font-family:-apple-system,&quot;SF Pro Display&quot;,&quot;SF Pro Text&quot;,Helvetica,sans-serif;text-anchor:middle;" transform="matrix(1 0 0 1 1449.84 322)">Regular</text>
  <text style="stroke:none;fill:black;font-family:-apple-system,&quot;SF Pro Display&quot;,&quot;SF Pro Text&quot;,Helvetica,sans-serif;text-anchor:middle;" transform="matrix(1 0 0 1 1746.56 322)">Medium</text>
  <text style="stroke:none;fill:black;font-family:-apple-system,&quot;SF Pro Display&quot;,&quot;SF Pro Text&quot;,Helvetica,sans-serif;text-anchor:middle;" transform="matrix(1 0 0 1 2043.27 322)">Semibold</text>
  <text style="stroke:none;fill:black;font-family:-apple-system,&quot;SF Pro Display&quot;,&quot;SF Pro Text&quot;,Helvetica,sans-serif;text-anchor:middle;" transform="matrix(1 0 0 1 2339.98 322)">Bold</text>
  <text style="stroke:none;fill:black;font-family:-apple-system,&quot;SF Pro Display&quot;,&quot;SF Pro Text&quot;,Helvetica,sans-serif;text-anchor:middle;" transform="matrix(1 0 0 1 2636.69 322)">Heavy</text>
  <text style="stroke:none;fill:black;font-family:-apple-system,&quot;SF Pro Display&quot;,&quot;SF Pro Text&quot;,Helvetica,sans-serif;text-anchor:middle;" transform="matrix(1 0 0 1 2933.4 322)">Black</text>
  <line id="" style="fill:none;stroke:black;opacity:1;stroke-width:0.5;" x1="263" x2="3036" y1="1903" y2="1903"/>
  <g id="" transform="matrix(1 0 0 1 263 1933)">
   <path d="M 9.24805 0.830078 C 13.5547 0.830078 17.1387 -2.74414 17.1387 -7.05078 C 17.1387 -11.3574 13.5449 -14.9316 9.23828 -14.9316 C 4.94141 -14.9316 1.36719 -11.3574 1.36719 -7.05078 C 1.36719 -2.74414 4.95117 0.830078 9.24805 0.830078 Z M 9.24805 -0.654297 C 5.70312 -0.654297 2.87109 -3.49609 2.87109 -7.05078 C 2.87109 -10.6055 5.69336 -13.4473 9.23828 -13.4473 C 12.793 -13.4473 15.6348 -10.6055 15.6445 -7.05078 C 15.6543 -3.49609 12.8027 -0.654297 9.24805 -0.654297 Z M 9.22852 -3.42773 C 9.69727 -3.42773 9.9707 -3.74023 9.9707 -4.25781 L 9.9707 -6.31836 L 12.1973 -6.31836 C 12.6953 -6.31836 13.0371 -6.57227 13.0371 -7.04102 C 13.0371 -7.51953 12.7148 -7.7832 12.1973 -7.7832 L 9.9707 -7.7832 L 9.9707 -10.0098 C 9.9707 -10.5273 9.69727 -10.8496 9.22852 -10.8496 C 8.75977 -10.8496 8.50586 -10.5078 8.50586 -10.0098 L 8.50586 -7.7832 L 6.29883 -7.7832 C 5.78125 -7.7832 5.44922 -7.51953 5.44922 -7.04102 C 5.44922 -6.57227 5.80078 -6.31836 6.29883 -6.31836 L 8.50586 -6.31836 L 8.50586 -4.25781 C 8.50586 -3.75977 8.75977 -3.42773 9.22852 -3.42773 Z"/>
  </g>
  <g id="" transform="matrix(1 0 0 1 281.506 1933)">
   <path d="M 11.709 2.91016 C 17.1582 2.91016 21.6699 -1.60156 21.6699 -7.05078 C 21.6699 -12.4902 17.1484 -17.0117 11.6992 -17.0117 C 6.25977 -17.0117 1.74805 -12.4902 1.74805 -7.05078 C 1.74805 -1.60156 6.26953 2.91016 11.709 2.91016 Z M 11.709 1.25 C 7.09961 1.25 3.41797 -2.44141 3.41797 -7.05078 C 3.41797 -11.6504 7.08984 -15.3516 11.6992 -15.3516 C 16.3086 -15.3516 20 -11.6504 20.0098 -7.05078 C 20.0195 -2.44141 16.3184 1.25 11.709 1.25 Z M 11.6895 -2.41211 C 12.207 -2.41211 12.5195 -2.77344 12.5195 -3.33984 L 12.5195 -6.23047 L 15.5762 -6.23047 C 16.123 -6.23047 16.5039 -6.51367 16.5039 -7.03125 C 16.5039 -7.55859 16.1426 -7.86133 15.5762 -7.86133 L 12.5195 -7.86133 L 12.5195 -10.9277 C 12.5195 -11.5039 12.207 -11.8555 11.6895 -11.8555 C 11.1719 -11.8555 10.8789 -11.4844 10.8789 -10.9277 L 10.8789 -7.86133 L 7.83203 -7.86133 C 7.26562 -7.86133 6.89453 -7.55859 6.89453 -7.03125 C 6.89453 -6.51367 7.28516 -6.23047 7.83203 -6.23047 L 10.8789 -6.23047 L 10.8789 -3.33984 C 10.8789 -2.79297 11.1719 -2.41211 11.6895 -2.41211 Z"/>
  </g>
  <g id="" transform="matrix(1 0 0 1 304.924 1933)">
   <path d="M 14.9707 5.67383 C 21.9336 5.67383 27.6953 -0.078125 27.6953 -7.04102 C 27.6953 -14.0039 21.9238 -19.7559 14.9609 -19.7559 C 8.00781 -19.7559 2.25586 -14.0039 2.25586 -7.04102 C 2.25586 -0.078125 8.01758 5.67383 14.9707 5.67383 Z M 14.9707 3.85742 C 8.93555 3.85742 4.08203 -1.00586 4.08203 -7.04102 C 4.08203 -13.0762 8.92578 -17.9395 14.9609 -17.9395 C 21.0059 -17.9395 25.8594 -13.0762 25.8691 -7.04102 C 25.8789 -1.00586 21.0156 3.85742 14.9707 3.85742 Z M 14.9512 -1.06445 C 15.5176 -1.06445 15.8691 -1.45508 15.8691 -2.06055 L 15.8691 -6.13281 L 20.1074 -6.13281 C 20.6934 -6.13281 21.1133 -6.46484 21.1133 -7.02148 C 21.1133 -7.59766 20.7227 -7.93945 20.1074 -7.93945 L 15.8691 -7.93945 L 15.8691 -12.1875 C 15.8691 -12.8027 15.5176 -13.1934 14.9512 -13.1934 C 14.3848 -13.1934 14.0625 -12.7832 14.0625 -12.1875 L 14.0625 -7.93945 L 9.83398 -7.93945 C 9.21875 -7.93945 8.80859 -7.59766 8.80859 -7.02148 C 8.80859 -6.46484 9.23828 -6.13281 9.83398 -6.13281 L 14.0625 -6.13281 L 14.0625 -2.06055 C 14.0625 -1.47461 14.3848 -1.06445 14.9512 -1.06445 Z"/>
  </g>
  <text style="stroke:none;fill:black;font-family:-apple-system,&quot;SF Pro Display&quot;,&quot;SF Pro Text&quot;,Helvetica,sans-serif;font-weight:bold;" transform="matrix(1 0 0 1 263 1953)">Design Variations</text>
  <text style="stroke:none;fill:black;font-family:-apple-system,&quot;SF Pro Display&quot;,&quot;SF Pro Text&quot;,Helvetica,sans-serif;" transform="matrix(1 0 0 1 263 1971)">Symbols are supported in up to nine weights and three scales.</text>
  <text style="stroke:none;fill:black;font-family:-apple-system,&quot;SF Pro Display&quot;,&quot;SF Pro Text&quot;,Helvetica,sans-serif;" transform="matrix(1 0 0 1 263 1989)">For optimal layout with text and other symbols, vertically align</text>
  <text style="stroke:none;fill:black;font-family:-apple-system,&quot;SF Pro Display&quot;,&quot;SF Pro Text&quot;,Helvetica,sans-serif;" transform="matrix(1 0 0 1 263 2007)">symbols with the adjacent text.</text>
  <rect height="14" id="" style="fill:#00AEEF;stroke:none;opacity:0.4;" width="3" x="776" y="1919"/>
  <g id="" transform="matrix(1 0 0 1 779 1933)">
   <path d="M 10.5273 0 L 12.373 0 L 7.17773 -14.0918 L 5.43945 -14.0918 L 0.244141 0 L 2.08984 0 L 3.50586 -4.0332 L 9.11133 -4.0332 Z M 6.2793 -11.9531 L 6.33789 -11.9531 L 8.59375 -5.52734 L 4.02344 -5.52734 Z"/>
  </g>
  <rect height="14" id="" style="fill:#00AEEF;stroke:none;opacity:0.4;" width="3" x="791.617" y="1919"/>
  <text style="stroke:none;fill:black;font-family:-apple-system,&quot;SF Pro Display&quot;,&quot;SF Pro Text&quot;,Helvetica,sans-serif;font-weight:bold;" transform="matrix(1 0 0 1 776 1953)">Margins</text>
  <text style="stroke:none;fill:black;font-family:-apple-system,&quot;SF Pro Display&quot;,&quot;SF Pro Text&quot;,Helvetica,sans-serif;" transform="matrix(1 0 0 1 776 1971)">Leading and trailing margins on the left and right side of each symbol</text>
  <text style="stroke:none;fill:black;font-family:-apple-system,&quot;SF Pro Display&quot;,&quot;SF Pro Text&quot;,Helvetica,sans-serif;" transform="matrix(1 0 0 1 776 1989)">can be adjusted by modifying the width of the blue rectangles.</text>
  <text style="stroke:none;fill:black;font-family:-apple-system,&quot;SF Pro Display&quot;,&quot;SF Pro Text&quot;,Helvetica,sans-serif;" transform="matrix(1 0 0 1 776 2007)">Modifications are automatically applied proportionally to all</text>
  <text style="stroke:none;fill:black;font-family:-apple-system,&quot;SF Pro Display&quot;,&quot;SF Pro Text&quot;,Helvetica,sans-serif;" transform="matrix(1 0 0 1 776 2025)">scales and weights.</text>
  <g id="" transform="matrix(1 0 0 1 1289 1933)">
   <path d="M 2.83203 3.11523 L 4.375 4.6582 C 5.22461 5.48828 6.19141 5.41992 7.06055 4.46289 L 17.2754 -6.66016 C 17.7051 -6.36719 18.0957 -6.37695 18.5645 -6.47461 L 19.6094 -6.68945 L 20.3027 -5.99609 L 20.2539 -5.47852 C 20.1855 -4.95117 20.3516 -4.53125 20.8496 -4.0332 L 21.6602 -3.22266 C 22.168 -2.71484 22.8223 -2.68555 23.3008 -3.16406 L 26.5527 -6.41602 C 27.0312 -6.89453 27.0117 -7.54883 26.5039 -8.05664 L 25.6836 -8.87695 C 25.1855 -9.375 24.7754 -9.55078 24.2383 -9.47266 L 23.7109 -9.41406 L 23.0566 -10.0781 L 23.3398 -11.2207 C 23.4863 -11.7871 23.3398 -12.2559 22.7148 -12.8613 L 20.3027 -15.2539 C 16.7578 -18.7793 12.2266 -18.6719 9.11133 -15.5371 C 8.69141 -15.1074 8.64258 -14.5215 8.91602 -14.0918 C 9.15039 -13.7207 9.62891 -13.4961 10.2734 -13.6621 C 11.7871 -14.043 13.3008 -13.9258 14.7852 -12.9199 L 14.1602 -11.3379 C 13.9258 -10.752 13.9453 -10.2734 14.1797 -9.83398 L 3.01758 0.439453 C 2.08008 1.30859 1.97266 2.25586 2.83203 3.11523 Z M 10.6738 -15.1465 C 13.3398 -17.1387 16.6504 -16.8262 19.0527 -14.4141 L 21.6797 -11.8066 C 21.9141 -11.5723 21.9434 -11.3867 21.8848 -11.0938 L 21.5039 -9.53125 L 23.0762 -7.95898 L 24.043 -8.04688 C 24.3262 -8.07617 24.4141 -8.05664 24.6387 -7.83203 L 25.2637 -7.20703 L 22.5098 -4.46289 L 21.8848 -5.07812 C 21.6602 -5.30273 21.6406 -5.40039 21.6699 -5.68359 L 21.7578 -6.64062 L 20.1953 -8.20312 L 18.5742 -7.89062 C 18.291 -7.83203 18.1445 -7.83203 17.9102 -8.07617 L 15.7324 -10.2539 C 15.5078 -10.4883 15.4785 -10.625 15.6055 -10.9473 L 16.5527 -13.2227 C 14.9512 -14.7559 12.8418 -15.6055 10.8008 -14.9512 C 10.7129 -14.9219 10.6445 -14.9414 10.6152 -14.9805 C 10.5859 -15.0293 10.5859 -15.0781 10.6738 -15.1465 Z M 4.10156 2.41211 C 3.61328 1.91406 3.78906 1.61133 4.12109 1.30859 L 15.0781 -8.80859 L 16.3086 -7.57812 L 6.15234 3.34961 C 5.84961 3.68164 5.46875 3.7793 5.06836 3.37891 Z"/>
  </g>
  <text style="stroke:none;fill:black;font-family:-apple-system,&quot;SF Pro Display&quot;,&quot;SF Pro Text&quot;,Helvetica,sans-serif;font-weight:bold;" transform="matrix(1 0 0 1 1289 1953)">Exporting</text>
  <text style="stroke:none;fill:black;font-family:-apple-system,&quot;SF Pro Display&quot;,&quot;SF Pro Text&quot;,Helvetica,sans-serif;" transform="matrix(1 0 0 1 1289 1971)">Symbols should be outlined when exporting to ensure the</text>
  <text style="stroke:none;fill:black;font-family:-apple-system,&quot;SF Pro Display&quot;,&quot;SF Pro Text&quot;,Helvetica,sans-serif;" transform="matrix(1 0 0 1 1289 1989)">design is preserved when submitting to Xcode.</text>
  <text id="template-version" style="stroke:none;fill:black;font-family:-apple-system,&quot;SF Pro Display&quot;,&quot;SF Pro Text&quot;,Helvetica,sans-serif;text-anchor:end;" transform="matrix(1 0 0 1 3036 1933)">Template v.1.0</text>
  <text style="stroke:none;fill:black;font-family:-apple-system,&quot;SF Pro Display&quot;,&quot;SF Pro Text&quot;,Helvetica,sans-serif;text-anchor:end;" transform="matrix(1 0 0 1 3036 1951)">Generated from cloud.bolt.rain</text>
  <text style="stroke:none;fill:black;font-family:-apple-system,&quot;SF Pro Display&quot;,&quot;SF Pro Text&quot;,Helvetica,sans-serif;text-anchor:end;" transform="matrix(1 0 0 1 3036 1969)">Typeset at 100 points</text>
  <text style="stroke:none;fill:black;font-family:-apple-system,&quot;SF Pro Display&quot;,&quot;SF Pro Text&quot;,Helvetica,sans-serif;" transform="matrix(1 0 0 1 263 726)">Small</text>
  <text style="stroke:none;fill:black;font-family:-apple-system,&quot;SF Pro Display&quot;,&quot;SF Pro Text&quot;,Helvetica,sans-serif;" transform="matrix(1 0 0 1 263 1156)">Medium</text>
  <text style="stroke:none;fill:black;font-family:-apple-system,&quot;SF Pro Display&quot;,&quot;SF Pro Text&quot;,Helvetica,sans-serif;" transform="matrix(1 0 0 1 263 1586)">Large</text>
 </g>
 <g id="Guides">
  <g id="H-reference" style="fill:#27AAE1;stroke:none;" transform="matrix(1 0 0 1 339 696)">
   <path d="M 54.9316 0 L 57.666 0 L 30.5664 -70.459 L 28.0762 -70.459 L 0.976562 0 L 3.66211 0 L 12.9395 -24.4629 L 45.7031 -24.4629 Z M 29.1992 -67.0898 L 29.4434 -67.0898 L 44.8242 -26.709 L 13.8184 -26.709 Z"/>
  </g>
  <line id="Baseline-S" style="fill:none;stroke:#27AAE1;opacity:1;stroke-width:0.577;" x1="263" x2="3036" y1="696" y2="696"/>
  <line id="Capline-S" style="fill:none;stroke:#27AAE1;opacity:1;stroke-width:0.577;" x1="263" x2="3036" y1="625.541" y2="625.541"/>
  <g id="H-reference" style="fill:#27AAE1;stroke:none;" transform="matrix(1 0 0 1 339 1126)">
   <path d="M 54.9316 0 L 57.666 0 L 30.5664 -70.459 L 28.0762 -70.459 L 0.976562 0 L 3.66211 0 L 12.9395 -24.4629 L 45.7031 -24.4629 Z M 29.1992 -67.0898 L 29.4434 -67.0898 L 44.8242 -26.709 L 13.8184 -26.709 Z"/>
  </g>
  <line id="Baseline-M" style="fill:none;stroke:#27AAE1;opacity:1;stroke-width:0.577;" x1="263" x2="3036" y1="1126" y2="1126"/>
  <line id="Capline-M" style="fill:none;stroke:#27AAE1;opacity:1;stroke-width:0.577;" x1="263" x2="3036" y1="1055.54" y2="1055.54"/>
  <g id="H-reference" style="fill:#27AAE1;stroke:none;" transform="matrix(1 0 0 1 339 1556)">
   <path d="M 54.9316 0 L 57.666 0 L 30.5664 -70.459 L 28.0762 -70.459 L 0.976562 0 L 3.66211 0 L 12.9395 -24.4629 L 45.7031 -24.4629 Z M 29.1992 -67.0898 L 29.4434 -67.0898 L 44.8242 -26.709 L 13.8184 -26.709 Z"/>
  </g>
  <line id="Baseline-L" style="fill:none;stroke:#27AAE1;opacity:1;stroke-width:0.577;" x1="263" x2="3036" y1="1556" y2="1556"/>
  <line id="Capline-L" style="fill:none;stroke:#27AAE1;opacity:1;stroke-width:0.577;" x1="263" x2="3036" y1="1485.54" y2="1485.54"/>
  <rect height="119.336" id="left-margin" style="fill:#00AEEF;stroke:none;opacity:0.4;" width="8.74023" x="1385.34" y="1030.79"/>
  <rect height="119.336" id="right-margin" style="fill:#00AEEF;stroke:none;opacity:0.4;" width="8.74023" x="1505.61" y="1030.79"/>
 </g>
 <g id="Symbols">
  <g id="Black-L" transform="matrix(1 0 0 1 2845.61 1556)">
   <path d="M 45.1172 0.244141 L 124.561 0.244141 C 147.168 0.244141 164.307 -16.9922 164.307 -38.8672 C 164.307 -61.0352 147.217 -78.2227 124.512 -78.2227 C 117.236 -92.2363 103.613 -103.418 81.543 -103.418 C 55.8105 -103.418 35.9375 -84.8633 32.5684 -61.1816 C 20.4102 -56.9336 11.2793 -46.2402 11.2793 -31.6406 C 11.2793 -13.6719 24.7559 0.244141 45.1172 0.244141 Z M 45.6543 -17.7734 C 34.668 -17.7734 29.2969 -23.4375 29.2969 -31.2988 C 29.2969 -38.3301 33.6426 -43.5547 43.5547 -46.1426 C 47.8027 -47.2656 48.9258 -49.1699 49.5605 -53.4668 C 52.5391 -74.3652 65.3809 -85.4004 81.543 -85.4004 C 93.6035 -85.4004 103.809 -78.5156 110.742 -65.4785 C 112.598 -61.9629 114.6 -60.6934 118.994 -60.6934 C 137.842 -60.6934 146.289 -50.8789 146.289 -38.5254 C 146.289 -26.8066 137.549 -17.7734 124.219 -17.7734 Z M 69.4824 56.1523 C 70.0684 56.3965 70.752 56.25 71.4355 55.6152 L 106.006 24.6094 C 107.471 23.291 106.982 21.3867 105.078 21.3867 L 90.3809 21.3867 L 95.5078 11.5234 C 96.2402 10.1562 95.6543 9.08203 94.2383 9.08203 L 75.8789 9.08203 C 74.0723 9.08203 73.4375 9.7168 72.9004 11.0352 L 64.1602 30.9082 C 63.5254 32.4219 64.0625 33.4473 65.7227 33.4473 L 77.7344 33.4473 L 69.0918 54.3457 C 68.7012 55.2246 68.9453 55.9082 69.4824 56.1523 Z M 28.0273 33.1055 C 30.6641 34.5703 33.7891 33.4961 35.2539 31.0059 L 42.9688 17.627 C 44.4336 15.0879 43.7988 11.9141 41.1621 10.3516 C 38.4766 8.83789 35.5957 9.81445 33.9844 12.5 L 26.2207 25.9277 C 24.8047 28.418 25.3906 31.5918 28.0273 33.1055 Z M 117.09 33.1055 C 119.727 34.5703 122.852 33.4961 124.268 31.0059 L 132.031 17.627 C 133.496 15.0879 132.812 11.9141 130.176 10.3516 C 127.539 8.83789 124.609 9.81445 123.047 12.5 L 115.283 25.9277 C 113.818 28.418 114.404 31.5918 117.09 33.1055 Z M 40.0391 50.6836 C 42.6758 52.1973 45.8008 51.123 47.2168 48.6328 L 54.9805 35.2539 C 56.4453 32.7148 55.8105 29.4922 53.1738 27.9785 C 50.4883 26.4648 47.6074 27.4414 45.9961 30.127 L 38.2324 43.5547 C 36.8164 46.0449 37.4023 49.1699 40.0391 50.6836 Z M 129.102 50.6836 C 131.738 52.1973 134.863 51.123 136.279 48.6328 L 144.043 35.2539 C 145.508 32.7148 144.824 29.4922 142.188 27.9785 C 139.551 26.4648 136.621 27.4414 135.059 30.127 L 127.295 43.5547 C 125.83 46.0449 126.416 49.1699 129.102 50.6836 Z"/>
  </g>
  <g id="Heavy-L" transform="matrix(1 0 0 1 2550.04 1556)">
   <path d="M 43.9941 -1.17188 L 123.242 -1.17188 C 145.264 -1.17188 162.012 -17.9688 162.012 -39.209 C 162.012 -60.791 145.117 -77.2949 122.803 -77.2949 C 115.332 -91.748 101.562 -102.637 80.3711 -102.637 C 55.1758 -102.637 35.4492 -84.1309 32.373 -60.498 C 20.3613 -56.4941 11.2793 -45.9961 11.2793 -31.7383 C 11.2793 -14.5508 24.1211 -1.17188 43.9941 -1.17188 Z M 44.3848 -16.9434 C 32.8125 -16.9434 27.0508 -23.0957 27.0508 -31.3965 C 27.0508 -38.7207 31.5918 -44.4336 41.6992 -47.0703 C 45.7031 -48.0957 46.8262 -49.9023 47.3633 -53.9062 C 49.9512 -74.8047 63.5742 -86.8652 80.3711 -86.8652 C 93.0664 -86.8652 103.564 -79.6875 110.498 -66.3574 C 112.207 -63.0371 114.16 -61.8652 118.311 -61.8652 C 137.109 -61.8652 146.191 -51.6113 146.191 -38.8672 C 146.191 -26.5625 136.816 -16.9434 123.047 -16.9434 Z M 70.0684 54.0039 C 70.6543 54.248 71.3379 54.1016 72.0215 53.418 L 104.15 23.584 C 105.566 22.2656 105.029 20.4102 103.174 20.4102 L 89.1113 20.4102 L 94.4824 10.2051 C 95.2148 8.83789 94.6289 7.76367 93.2129 7.76367 L 76.5625 7.76367 C 74.7559 7.76367 74.1211 8.39844 73.584 9.7168 L 65.0391 29.1992 C 64.4043 30.7129 64.9902 31.6895 66.6504 31.6895 L 78.1738 31.6895 L 69.6777 52.1973 C 69.2871 53.0273 69.5312 53.7598 70.0684 54.0039 Z M 27.832 31.2988 C 30.2246 32.666 33.0566 31.7383 34.4238 29.4434 L 42.3828 15.6738 C 43.75 13.3301 43.1152 10.4004 40.6738 9.0332 C 38.2812 7.66602 35.5957 8.49609 34.1309 10.9863 L 26.1719 24.8047 C 24.8535 27.0508 25.3906 29.9316 27.832 31.2988 Z M 116.357 31.2988 C 118.75 32.666 121.631 31.7383 122.949 29.4434 L 130.908 15.6738 C 132.275 13.3301 131.641 10.4004 129.248 9.0332 C 126.807 7.66602 124.17 8.49609 122.705 10.9863 L 114.697 24.8047 C 113.379 27.0508 113.916 29.9316 116.357 31.2988 Z M 39.8926 48.9258 C 42.334 50.293 45.166 49.3652 46.4844 47.0215 L 54.4434 33.3008 C 55.8105 30.957 55.1758 28.0273 52.7832 26.6602 C 50.3418 25.2441 47.7051 26.123 46.2402 28.5645 L 38.2324 42.3828 C 36.9141 44.6777 37.4512 47.5586 39.8926 48.9258 Z M 128.467 48.9258 C 130.859 50.293 133.691 49.3652 135.01 47.0215 L 142.969 33.3008 C 144.336 30.957 143.701 28.0273 141.309 26.6602 C 138.867 25.2441 136.23 26.123 134.766 28.5645 L 126.807 42.3828 C 125.439 44.6777 126.025 47.5586 128.467 48.9258 Z"/>
  </g>
  <g id="Bold-L" transform="matrix(1 0 0 1 2254.63 1556)">
   <path d="M 42.7246 -2.68555 L 121.68 -2.68555 C 143.164 -2.68555 159.424 -18.9941 159.424 -39.5508 C 159.424 -60.4492 142.725 -76.2695 120.85 -76.2695 C 113.232 -91.1621 99.2676 -101.807 79.0039 -101.807 C 54.4434 -101.807 34.8145 -83.3008 32.1289 -59.7168 C 20.3125 -55.957 11.2793 -45.752 11.2793 -31.8359 C 11.2793 -15.5273 23.3398 -2.68555 42.7246 -2.68555 Z M 42.9688 -16.0156 C 30.7129 -16.0156 24.5605 -22.7051 24.5605 -31.543 C 24.5605 -39.209 29.2969 -45.3613 39.6973 -48.0957 C 43.3594 -49.0723 44.4824 -50.7324 44.9219 -54.4434 C 47.1191 -75.293 61.5723 -88.5254 79.0039 -88.5254 C 92.5293 -88.5254 103.369 -80.957 110.205 -67.3828 C 111.816 -64.2578 113.672 -63.1348 117.529 -63.1348 C 136.23 -63.1348 146.094 -52.4414 146.094 -39.209 C 146.094 -26.2695 135.938 -16.0156 121.777 -16.0156 Z M 70.752 51.6113 C 71.3379 51.8555 72.0215 51.6602 72.6562 50.9766 L 102.051 22.4609 C 103.418 21.0938 102.93 19.3359 101.074 19.3359 L 87.7441 19.3359 L 93.3594 8.74023 C 94.043 7.37305 93.5059 6.29883 92.0898 6.29883 L 77.2949 6.29883 C 75.5371 6.29883 74.9023 6.93359 74.3652 8.25195 L 66.0156 27.2461 C 65.3809 28.7598 66.0156 29.7363 67.627 29.7363 L 78.6621 29.7363 L 70.3125 49.8047 C 69.9707 50.6348 70.166 51.3672 70.752 51.6113 Z M 27.5879 29.3457 C 29.7363 30.5664 32.2754 29.7363 33.4473 27.6367 L 41.6504 13.4766 C 42.9199 11.3281 42.334 8.78906 40.1855 7.51953 C 37.9883 6.29883 35.6445 7.03125 34.3262 9.27734 L 26.0742 23.4863 C 24.9023 25.5371 25.3906 28.0762 27.5879 29.3457 Z M 115.576 29.3457 C 117.725 30.5664 120.264 29.7363 121.436 27.6367 L 129.639 13.4766 C 130.908 11.3281 130.273 8.78906 128.174 7.51953 C 125.977 6.29883 123.584 7.03125 122.314 9.27734 L 114.062 23.4863 C 112.842 25.5371 113.379 28.0762 115.576 29.3457 Z M 39.7461 46.9727 C 41.8945 48.1445 44.4336 47.3633 45.6543 45.2637 L 53.8574 31.1035 C 55.0781 28.9551 54.4922 26.3672 52.3438 25.1465 C 50.1953 23.9258 47.8027 24.6582 46.4844 26.8555 L 38.2812 41.1133 C 37.0605 43.1641 37.5977 45.7031 39.7461 46.9727 Z M 127.734 46.9727 C 129.883 48.1445 132.422 47.3633 133.643 45.2637 L 141.797 31.1035 C 143.066 28.9551 142.48 26.3672 140.332 25.1465 C 138.184 23.9258 135.791 24.6582 134.473 26.8555 L 126.221 41.1133 C 125.049 43.1641 125.537 45.7031 127.734 46.9727 Z"/>
  </g>
  <g id="Semibold-L" transform="matrix(1 0 0 1 1958.82 1556)">
   <path d="M 41.8457 -3.75977 L 120.654 -3.75977 C 141.699 -3.75977 157.617 -19.7266 157.617 -39.7949 C 157.617 -60.2539 141.113 -75.5859 119.482 -75.5859 C 111.768 -90.7715 97.7051 -101.27 78.0762 -101.27 C 53.9062 -101.27 34.4238 -82.7148 31.9824 -59.1797 C 20.2637 -55.6152 11.2793 -45.6055 11.2793 -31.8848 C 11.2793 -16.2598 22.8516 -3.75977 41.8457 -3.75977 Z M 41.9922 -15.332 C 29.2969 -15.332 22.8516 -22.4121 22.8516 -31.6406 C 22.8516 -39.502 27.6855 -46.0449 38.2812 -48.8281 C 41.748 -49.7559 42.8711 -51.3184 43.2129 -54.834 C 45.1172 -75.6348 60.1562 -89.6484 78.0762 -89.6484 C 92.1387 -89.6484 103.223 -81.8359 110.059 -68.1152 C 111.572 -65.0879 113.33 -64.0137 116.992 -64.0137 C 135.645 -64.0137 146.045 -53.0273 146.045 -39.4531 C 146.045 -26.0254 135.352 -15.332 120.898 -15.332 Z M 71.1914 49.9512 C 71.7773 50.1953 72.4609 50 73.0957 49.2676 L 100.635 21.6797 C 101.953 20.3125 101.416 18.6035 99.6094 18.6035 L 86.8164 18.6035 L 92.5781 7.71484 C 93.2617 6.34766 92.7246 5.32227 91.3086 5.32227 L 77.832 5.32227 C 76.0742 5.32227 75.4395 5.95703 74.9023 7.22656 L 66.6992 25.8789 C 66.0645 27.3926 66.748 28.3691 68.3594 28.3691 L 78.9551 28.3691 L 70.752 48.1445 C 70.4102 48.9746 70.6055 49.707 71.1914 49.9512 Z M 27.4414 27.9785 C 29.3945 29.1016 31.7383 28.3691 32.8125 26.416 L 41.1621 11.9629 C 42.334 9.96094 41.7969 7.61719 39.7949 6.49414 C 37.8418 5.37109 35.6445 6.05469 34.4238 8.05664 L 26.0254 22.6074 C 24.9023 24.5117 25.4395 26.8066 27.4414 27.9785 Z M 114.99 27.9785 C 116.992 29.1016 119.287 28.3691 120.41 26.416 L 128.76 11.9629 C 129.932 9.96094 129.346 7.61719 127.393 6.49414 C 125.439 5.37109 123.242 6.05469 122.021 8.05664 L 113.623 22.6074 C 112.5 24.5117 112.988 26.8066 114.99 27.9785 Z M 39.6484 45.6055 C 41.6016 46.6797 43.9453 45.9473 45.0684 43.9941 L 53.418 29.5898 C 54.5898 27.5879 54.0039 25.2441 52.0508 24.1211 C 50.0488 22.9492 47.8516 23.6328 46.6797 25.6836 L 38.2812 40.2344 C 37.1582 42.1387 37.6465 44.4336 39.6484 45.6055 Z M 127.246 45.6055 C 129.199 46.6797 131.543 45.9473 132.666 43.9941 L 141.016 29.5898 C 142.188 27.5879 141.602 25.2441 139.648 24.1211 C 137.646 22.9492 135.449 23.6328 134.229 25.6836 L 125.879 40.2344 C 124.756 42.1387 125.244 44.4336 127.246 45.6055 Z"/>
  </g>
  <g id="Medium-L" transform="matrix(1 0 0 1 1662.79 1556)">
   <path d="M 41.2109 -4.54102 L 119.873 -4.54102 C 140.625 -4.54102 156.25 -20.3125 156.25 -39.9414 C 156.25 -60.1074 139.844 -75.0488 118.457 -75.0488 C 110.693 -90.4785 96.4844 -100.83 77.3438 -100.83 C 53.5156 -100.83 34.1309 -82.2266 31.8359 -58.7891 C 20.2148 -55.3711 11.2793 -45.459 11.2793 -31.9824 C 11.2793 -16.748 22.4609 -4.54102 41.2109 -4.54102 Z M 41.2109 -14.8438 C 28.2227 -14.8438 21.582 -22.2168 21.582 -31.6895 C 21.582 -39.7461 26.5137 -46.5332 37.207 -49.3652 C 40.5273 -50.2441 41.6504 -51.7578 41.9434 -55.0781 C 43.6523 -75.8789 59.082 -90.5273 77.3438 -90.5273 C 91.8457 -90.5273 103.076 -82.4707 109.912 -68.6523 C 111.328 -65.7227 113.086 -64.6973 116.602 -64.6973 C 135.205 -64.6973 145.947 -53.4668 145.947 -39.6484 C 145.947 -25.8789 134.912 -14.8438 120.215 -14.8438 Z M 71.5332 48.6816 C 72.1191 48.9258 72.8027 48.7305 73.4375 47.998 L 99.5605 21.0938 C 100.83 19.7266 100.293 18.0664 98.5352 18.0664 L 86.084 18.0664 L 91.9434 6.93359 C 92.6758 5.56641 92.1387 4.54102 90.7227 4.54102 L 78.2227 4.54102 C 76.4648 4.54102 75.8301 5.17578 75.293 6.44531 L 67.2363 24.8535 C 66.5527 26.416 67.2852 27.3438 68.8477 27.3438 L 79.1992 27.3438 L 71.0938 46.875 C 70.752 47.7051 70.9473 48.4375 71.5332 48.6816 Z M 27.2949 26.9531 C 29.1016 27.9785 31.2988 27.2949 32.3242 25.4883 L 40.8203 10.791 C 41.9434 8.93555 41.3574 6.78711 39.5508 5.71289 C 37.6953 4.63867 35.6445 5.27344 34.5215 7.17773 L 25.9766 21.9238 C 24.9512 23.7305 25.4395 25.8789 27.2949 26.9531 Z M 114.6 26.9531 C 116.406 27.9785 118.604 27.2949 119.629 25.4883 L 128.125 10.791 C 129.248 8.93555 128.662 6.78711 126.855 5.71289 C 125 4.63867 122.949 5.27344 121.826 7.17773 L 113.281 21.9238 C 112.256 23.7305 112.744 25.8789 114.6 26.9531 Z M 39.5996 44.5312 C 41.4062 45.5566 43.6035 44.9219 44.6289 43.0664 L 53.0762 28.418 C 54.1992 26.5625 53.6621 24.3652 51.8066 23.291 C 50 22.2656 47.9492 22.9004 46.7773 24.8047 L 38.2812 39.5508 C 37.207 41.3086 37.6953 43.457 39.5996 44.5312 Z M 126.855 44.5312 C 128.711 45.5566 130.859 44.9219 131.934 43.0664 L 140.381 28.418 C 141.504 26.5625 140.967 24.3652 139.111 23.291 C 137.305 22.2656 135.205 22.9004 134.082 24.8047 L 125.586 39.5508 C 124.512 41.3086 125 43.457 126.855 44.5312 Z"/>
  </g>
  <g id="Regular-L" transform="matrix(1 0 0 1 1366.96 1556)">
   <path d="M 40.3809 -5.61523 L 118.848 -5.61523 C 139.16 -5.61523 154.492 -20.9961 154.492 -40.1855 C 154.492 -59.9121 138.232 -74.3652 117.139 -74.3652 C 109.277 -90.0879 94.9219 -100.244 76.4648 -100.244 C 53.0273 -100.244 33.6914 -81.6895 31.6895 -58.252 C 20.166 -55.0293 11.2793 -45.2637 11.2793 -32.0312 C 11.2793 -17.4316 21.9238 -5.61523 40.3809 -5.61523 Z M 40.2344 -14.209 C 26.8066 -14.209 19.873 -21.9727 19.873 -31.7871 C 19.873 -40.0879 24.9023 -47.2168 35.791 -50.0977 C 38.916 -50.9277 40.0391 -52.3438 40.2832 -55.4688 C 41.6992 -76.2207 57.7148 -91.6504 76.4648 -91.6504 C 91.4551 -91.6504 102.93 -83.3496 109.717 -69.3359 C 111.084 -66.5527 112.744 -65.5762 116.064 -65.5762 C 134.619 -65.5762 145.898 -54.0039 145.898 -39.9414 C 145.898 -25.6836 134.326 -14.209 119.336 -14.209 Z M 71.9727 47.0215 C 72.5586 47.2656 73.291 47.0703 73.877 46.3379 L 98.1445 20.3125 C 99.3164 18.9453 98.8281 17.334 97.0703 17.334 L 85.1562 17.334 L 91.1621 5.95703 C 91.8945 4.58984 91.3574 3.56445 89.9414 3.56445 L 78.7109 3.56445 C 76.9531 3.56445 76.3672 4.19922 75.8301 5.46875 L 67.9199 23.5352 C 67.2363 25.0488 67.9688 26.0254 69.5312 26.0254 L 79.541 26.0254 L 71.5332 45.2637 C 71.1914 46.0449 71.3867 46.7773 71.9727 47.0215 Z M 27.1484 25.5859 C 28.7598 26.5137 30.7617 25.9277 31.6895 24.2676 L 40.332 9.32617 C 41.3574 7.56836 40.8203 5.66406 39.209 4.6875 C 37.5488 3.71094 35.6445 4.24805 34.6191 6.00586 L 25.9277 21.0449 C 25 22.7051 25.4395 24.6094 27.1484 25.5859 Z M 114.062 25.5859 C 115.674 26.5137 117.676 25.9277 118.604 24.2676 L 127.246 9.32617 C 128.271 7.56836 127.734 5.66406 126.123 4.6875 C 124.463 3.71094 122.559 4.24805 121.533 6.00586 L 112.842 21.0449 C 111.914 22.7051 112.354 24.6094 114.062 25.5859 Z M 39.4531 43.2129 C 41.1133 44.1406 43.1152 43.5547 44.043 41.8457 L 52.6855 26.9043 C 53.7109 25.1953 53.1738 23.2422 51.5625 22.2656 C 49.8535 21.3379 47.998 21.875 46.9727 23.6328 L 38.2812 38.6719 C 37.3047 40.2832 37.793 42.2363 39.4531 43.2129 Z M 126.367 43.2129 C 128.027 44.1406 129.98 43.5547 130.957 41.8457 L 139.6 26.9043 C 140.625 25.1953 140.088 23.2422 138.428 22.2656 C 136.768 21.3379 134.912 21.875 133.887 23.6328 L 125.195 38.6719 C 124.219 40.2832 124.707 42.2363 126.367 43.2129 Z"/>
  </g>
  <g id="Light-L" transform="matrix(1 0 0 1 1070.71 1556)">
   <path d="M 39.5996 -6.73828 L 118.457 -6.73828 C 138.379 -6.73828 153.564 -21.7773 153.564 -40.5762 C 153.564 -59.8633 137.549 -74.0234 116.748 -74.0234 C 108.887 -89.9414 94.9219 -100.244 76.0742 -100.244 C 53.0273 -100.244 34.0332 -81.6895 32.0312 -58.252 C 20.4102 -55.0781 11.2793 -45.6055 11.2793 -32.4219 C 11.2793 -18.2617 21.6797 -6.73828 39.5996 -6.73828 Z M 39.5508 -13.2324 C 25.3906 -13.2324 17.8223 -21.7285 17.8223 -32.2266 C 17.8223 -41.5039 23.7793 -49.0723 34.8633 -52.002 C 37.5 -52.6855 38.3789 -53.8574 38.5742 -56.3477 C 39.8926 -77.3926 56.7383 -93.75 76.0742 -93.75 C 92.2852 -93.75 104.199 -84.668 110.986 -70.5566 C 112.109 -68.1641 113.525 -67.3828 116.357 -67.3828 C 134.766 -67.3828 147.021 -55.3223 147.021 -40.332 C 147.021 -25.3906 134.717 -13.2324 118.75 -13.2324 Z M 72.998 45.5078 C 73.584 45.752 74.3164 45.5566 74.9512 44.7754 L 95.8496 20.0195 C 96.9727 18.6035 96.4355 17.041 94.6777 17.041 L 83.5449 17.041 L 89.9414 5.07812 C 90.6738 3.71094 90.1367 2.63672 88.7207 2.63672 L 80.127 2.63672 C 78.3691 2.63672 77.7344 3.27148 77.1973 4.58984 L 69.4336 22.3145 C 68.75 23.877 69.5801 24.8047 71.1426 24.8047 L 80.3711 24.8047 L 72.5098 43.7012 C 72.168 44.5312 72.3633 45.2637 72.998 45.5078 Z M 27.1973 24.6582 C 28.5156 25.4395 30.0781 24.9512 30.9082 23.4863 L 40.1367 7.56836 C 41.0156 6.05469 40.5762 4.54102 39.2578 3.75977 C 37.9395 3.02734 36.4258 3.41797 35.5469 4.93164 L 26.2695 20.8984 C 25.4883 22.3145 25.8301 23.877 27.1973 24.6582 Z M 113.184 24.6582 C 114.502 25.4395 116.064 24.9512 116.895 23.4863 L 126.123 7.56836 C 127.002 6.05469 126.562 4.54102 125.244 3.75977 C 123.926 3.02734 122.412 3.41797 121.533 4.93164 L 112.256 20.8984 C 111.475 22.3145 111.816 23.877 113.184 24.6582 Z M 39.6973 42.2852 C 41.0156 43.0176 42.5781 42.5781 43.4082 41.1133 L 52.6367 25.1465 C 53.5156 23.6816 53.0762 22.168 51.7578 21.3867 C 50.4395 20.6055 48.9258 21.0449 48.0469 22.5098 L 38.8184 38.5254 C 37.9883 39.9414 38.3301 41.5039 39.6973 42.2852 Z M 125.684 42.2852 C 127.002 43.0176 128.564 42.5781 129.395 41.1133 L 138.623 25.1465 C 139.502 23.6816 139.062 22.168 137.744 21.3867 C 136.426 20.6055 134.912 21.0449 134.033 22.5098 L 124.805 38.5254 C 123.975 39.9414 124.316 41.5039 125.684 42.2852 Z"/>
  </g>
  <g id="Thin-L" transform="matrix(1 0 0 1 774.611 1556)">
   <path d="M 38.623 -8.20312 L 117.969 -8.20312 C 137.354 -8.20312 152.344 -22.8027 152.344 -41.0645 C 152.344 -59.7656 136.67 -73.5352 116.26 -73.5352 C 108.398 -89.7461 94.9219 -100.244 75.5859 -100.244 C 53.0273 -100.244 34.4727 -81.6895 32.5195 -58.252 C 20.752 -55.1758 11.2793 -45.9961 11.2793 -32.9102 C 11.2793 -19.3848 21.3379 -8.20312 38.623 -8.20312 Z M 38.623 -11.9629 C 23.5352 -11.9629 15.0391 -21.4355 15.0391 -32.8613 C 15.0391 -43.3594 22.2168 -51.5625 33.5938 -54.541 C 35.5957 -55.0781 36.2305 -55.8594 36.3281 -57.5684 C 37.5488 -79.0039 55.4688 -96.4844 75.5859 -96.4844 C 93.3594 -96.4844 105.811 -86.4258 112.646 -72.168 C 113.525 -70.3125 114.6 -69.7266 116.748 -69.7266 C 134.912 -69.7266 148.535 -57.0312 148.535 -40.918 C 148.535 -25 135.156 -11.9629 118.018 -11.9629 Z M 74.3164 43.5059 C 74.9512 43.75 75.7324 43.5059 76.3184 42.627 L 92.8711 19.6289 C 93.8965 18.1641 93.2617 16.6992 91.5039 16.6992 L 81.4453 16.6992 L 88.3301 3.90625 C 89.0625 2.53906 88.5254 1.41602 87.0605 1.41602 L 82.0312 1.41602 C 80.1758 1.41602 79.541 2.05078 79.0039 3.41797 L 71.4355 20.6543 C 70.752 22.3145 71.7285 23.1934 73.291 23.1934 L 81.4941 23.1934 L 73.8281 41.6016 C 73.4375 42.5293 73.6816 43.2617 74.3164 43.5059 Z M 27.2461 23.4375 C 28.1738 23.9746 29.1992 23.6328 29.834 22.5098 L 39.8438 5.22461 C 40.5273 4.10156 40.2344 3.07617 39.3066 2.53906 C 38.4766 2.05078 37.4512 2.34375 36.7676 3.4668 L 26.7578 20.752 C 26.123 21.875 26.3184 22.9004 27.2461 23.4375 Z M 112.012 23.4375 C 112.939 23.9746 113.965 23.6328 114.6 22.5098 L 124.609 5.22461 C 125.293 4.10156 125 3.07617 124.072 2.53906 C 123.242 2.05078 122.217 2.34375 121.533 3.4668 L 111.523 20.752 C 110.889 21.875 111.084 22.9004 112.012 23.4375 Z M 39.9902 41.0645 C 40.918 41.6016 41.9434 41.2598 42.5293 40.0879 L 52.5391 22.8516 C 53.2715 21.7285 52.9785 20.7031 52.0508 20.166 C 51.2207 19.6777 50.1953 19.9707 49.5117 21.0938 L 39.502 38.3789 C 38.8672 39.502 39.0625 40.5273 39.9902 41.0645 Z M 124.756 41.0645 C 125.684 41.6016 126.709 41.2598 127.295 40.0879 L 137.305 22.8516 C 138.037 21.7285 137.744 20.7031 136.816 20.166 C 135.986 19.6777 134.961 19.9707 134.277 21.0938 L 124.268 38.3789 C 123.633 39.502 123.828 40.5273 124.756 41.0645 Z"/>
  </g>
  <g id="Ultralight-L" transform="matrix(1 0 0 1 478.217 1556)">
   <path d="M 38.1348 -8.93555 L 117.725 -8.93555 C 136.816 -8.93555 151.709 -23.291 151.709 -41.3574 C 151.709 -59.7168 136.182 -73.291 116.016 -73.291 C 108.154 -89.6484 94.9219 -100.244 75.3418 -100.244 C 53.0273 -100.244 34.7168 -81.6895 32.8125 -58.252 C 20.9473 -55.2246 11.2793 -46.2402 11.2793 -33.1543 C 11.2793 -19.9219 21.1426 -8.93555 38.1348 -8.93555 Z M 38.1348 -11.3281 C 22.5586 -11.3281 13.6719 -21.2891 13.6719 -33.1543 C 13.6719 -44.3359 21.4355 -52.832 32.9102 -55.8594 C 34.6191 -56.2988 35.1074 -56.9336 35.1562 -58.1543 C 36.377 -79.834 54.7852 -97.8516 75.3418 -97.8516 C 93.8965 -97.8516 106.641 -87.3535 113.525 -72.998 C 114.258 -71.4355 115.137 -70.8984 116.943 -70.8984 C 135.01 -70.8984 149.316 -57.9102 149.316 -41.2109 C 149.316 -24.8047 135.4 -11.3281 117.676 -11.3281 Z M 75 42.4805 C 75.6348 42.7246 76.4648 42.4805 77.002 41.5527 L 91.3574 19.3848 C 92.2852 17.9199 91.6504 16.5039 89.8438 16.5039 L 80.3711 16.5039 L 87.5 3.27148 C 88.2324 1.9043 87.6953 0.78125 86.2305 0.78125 L 83.0078 0.78125 C 81.1523 0.78125 80.4688 1.41602 79.9316 2.7832 L 72.5098 19.8242 C 71.7773 21.5332 72.8516 22.4121 74.3652 22.4121 L 82.0801 22.4121 L 74.5117 40.5273 C 74.0723 41.5039 74.3164 42.2363 75 42.4805 Z M 27.2949 22.8027 C 27.9785 23.2422 28.7598 22.9492 29.248 21.9727 L 39.6973 4.05273 C 40.2832 3.07617 40.0879 2.34375 39.3555 1.9043 C 38.7695 1.5625 37.9883 1.75781 37.4023 2.73438 L 27.002 20.6543 C 26.4648 21.6309 26.6113 22.4121 27.2949 22.8027 Z M 111.426 22.8027 C 112.158 23.2422 112.891 22.9492 113.428 21.9727 L 123.828 4.05273 C 124.414 3.07617 124.219 2.34375 123.486 1.9043 C 122.9 1.5625 122.119 1.75781 121.533 2.73438 L 111.133 20.6543 C 110.596 21.6309 110.742 22.4121 111.426 22.8027 Z M 40.1367 40.4297 C 40.8203 40.8691 41.6016 40.5762 42.0898 39.5996 L 52.5391 21.6797 C 53.125 20.7031 52.9297 19.9219 52.1973 19.5312 C 51.6113 19.1895 50.8301 19.3848 50.2441 20.3613 L 39.8438 38.2812 C 39.3066 39.2578 39.4531 39.9902 40.1367 40.4297 Z M 124.268 40.4297 C 125 40.8691 125.732 40.5762 126.27 39.5996 L 136.67 21.6797 C 137.256 20.7031 137.061 19.9219 136.328 19.5312 C 135.742 19.1895 134.961 19.3848 134.375 20.3613 L 123.975 38.2812 C 123.438 39.2578 123.584 39.9902 124.268 40.4297 Z"/>
  </g>
  <g id="Black-M" transform="matrix(1 0 0 1 2864.04 1126)">
   <path d="M 36.084 -6.49414 L 98.1934 -6.49414 C 116.162 -6.49414 129.98 -20.2148 129.98 -37.8418 C 129.98 -55.5176 116.602 -69.5801 98.6816 -69.5801 C 93.2129 -79.9805 83.0566 -89.0625 64.6484 -89.0625 C 44.1406 -89.0625 28.7598 -74.7559 25.7324 -56.2988 C 16.0645 -52.6855 8.74023 -44.1895 8.74023 -32.5195 C 8.74023 -17.7246 19.9707 -6.49414 36.084 -6.49414 Z M 36.7188 -22.3633 C 28.5645 -22.3633 24.6094 -26.416 24.6094 -32.2754 C 24.6094 -37.8418 28.2227 -41.5527 35.6934 -43.457 C 39.0625 -44.3359 39.8926 -45.8496 40.4297 -49.2188 C 43.2129 -65.625 52.5879 -73.1934 64.6484 -73.1934 C 73.6328 -73.1934 81.3477 -67.9688 86.7676 -58.1055 C 88.2812 -55.3223 89.8438 -54.3457 93.2617 -54.3457 C 107.91 -54.3457 114.111 -47.0703 114.111 -37.5488 C 114.111 -28.9062 107.812 -22.3633 97.5098 -22.3633 Z M 53.6133 37.6953 C 54.0527 37.8906 54.5898 37.793 55.1758 37.2559 L 83.4473 12.3047 C 84.6191 11.3281 84.1797 9.76562 82.7148 9.76562 L 70.8496 9.76562 L 74.7559 2.29492 C 75.293 1.2207 74.8535 0.390625 73.7305 0.390625 L 58.6426 0.390625 C 57.2266 0.390625 56.6895 0.878906 56.2988 1.95312 L 49.3652 17.7246 C 48.8281 18.8965 49.2676 19.7266 50.5859 19.7266 L 60.1074 19.7266 L 53.2715 36.2793 C 52.9785 36.9629 53.1738 37.5 53.6133 37.6953 Z M 22.0215 19.6289 C 24.2188 20.8496 26.8066 19.9219 27.9785 17.8711 L 34.0332 7.4707 C 35.2539 5.37109 34.7168 2.68555 32.5195 1.41602 C 30.3711 0.195312 27.9785 0.976562 26.6602 3.27148 L 20.6055 13.6719 C 19.4336 15.7227 19.873 18.3594 22.0215 19.6289 Z M 91.2598 19.6289 C 93.4082 20.8496 95.9961 19.9219 97.168 17.8711 L 103.223 7.4707 C 104.443 5.37109 103.906 2.68555 101.758 1.41602 C 99.5605 0.195312 97.168 0.976562 95.8496 3.27148 L 89.7949 13.6719 C 88.623 15.7227 89.0625 18.3594 91.2598 19.6289 Z M 31.3477 33.252 C 33.4961 34.5215 36.084 33.5938 37.2559 31.4941 L 43.3105 21.0938 C 44.5312 19.043 43.9941 16.3574 41.8457 15.0879 C 39.6484 13.8184 37.2559 14.6484 35.9375 16.8945 L 29.8828 27.2949 C 28.7109 29.3945 29.1504 32.0312 31.3477 33.252 Z M 100.537 33.252 C 102.734 34.5215 105.273 33.5938 106.494 31.4941 L 112.5 21.0938 C 113.721 19.043 113.232 16.3574 111.035 15.0879 C 108.838 13.8184 106.445 14.6484 105.127 16.8945 L 99.0723 27.2949 C 97.9004 29.3945 98.3398 32.0312 100.537 33.252 Z"/>
  </g>
  <g id="Heavy-M" transform="matrix(1 0 0 1 2568.48 1126)">
   <path d="M 35.0586 -7.71484 L 96.7773 -7.71484 C 114.307 -7.71484 127.686 -21.0938 127.686 -38.0859 C 127.686 -55.2734 114.453 -68.6523 96.875 -68.6523 C 91.2109 -79.4922 80.8105 -88.2324 63.4277 -88.2324 C 43.4082 -88.2324 28.0762 -73.9258 25.3906 -55.5176 C 15.918 -52.1973 8.74023 -43.8965 8.74023 -32.5195 C 8.74023 -18.5059 19.2871 -7.71484 35.0586 -7.71484 Z M 35.498 -21.6797 C 26.9531 -21.6797 22.7051 -26.123 22.7051 -32.2754 C 22.7051 -37.8906 26.2695 -41.9922 33.9355 -43.9941 C 37.1582 -44.8242 37.9883 -46.2402 38.4766 -49.4629 C 40.8691 -65.7715 50.8789 -74.2676 63.4277 -74.2676 C 72.9004 -74.2676 80.8105 -68.8477 86.2305 -58.7402 C 87.6465 -56.1035 89.1602 -55.127 92.4316 -55.127 C 107.08 -55.127 113.721 -47.5586 113.721 -37.793 C 113.721 -28.7109 106.885 -21.6797 96.3867 -21.6797 Z M 53.9551 35.7422 C 54.3945 35.9375 54.9805 35.791 55.5176 35.3027 L 81.9824 11.3281 C 83.1543 10.3027 82.7148 8.78906 81.25 8.78906 L 69.9219 8.78906 L 73.9258 1.07422 C 74.5117 0.0488281 74.0723 -0.830078 72.9492 -0.830078 L 59.0332 -0.830078 C 57.6172 -0.830078 57.1289 -0.341797 56.6895 0.732422 L 49.9023 16.1621 C 49.4141 17.334 49.8535 18.1152 51.1719 18.1152 L 60.3516 18.1152 L 53.6621 34.3262 C 53.3691 35.0098 53.5156 35.5469 53.9551 35.7422 Z M 21.7773 17.9199 C 23.8281 19.0918 26.1719 18.2129 27.2949 16.3086 L 33.3984 5.76172 C 34.5215 3.80859 34.0332 1.36719 32.0312 0.195312 C 29.9805 -0.976562 27.7832 -0.195312 26.5625 1.85547 L 20.459 12.4512 C 19.3359 14.3555 19.7754 16.748 21.7773 17.9199 Z M 90.6738 17.9199 C 92.6758 19.0918 95.0684 18.2129 96.1914 16.3086 L 102.295 5.76172 C 103.418 3.80859 102.93 1.36719 100.928 0.195312 C 98.877 -0.976562 96.6797 -0.195312 95.459 1.85547 L 89.3066 12.4512 C 88.2324 14.3555 88.6719 16.748 90.6738 17.9199 Z M 31.1035 31.5918 C 33.1543 32.7148 35.498 31.8848 36.6211 29.9805 L 42.7246 19.3848 C 43.8477 17.4805 43.3594 14.9902 41.3574 13.8672 C 39.3066 12.6953 37.1094 13.4277 35.8887 15.5273 L 29.7852 26.0742 C 28.6621 27.9785 29.1016 30.4199 31.1035 31.5918 Z M 100 31.5918 C 102.051 32.7148 104.395 31.8848 105.518 29.9805 L 111.621 19.3848 C 112.744 17.4805 112.256 14.9902 110.254 13.8672 C 108.203 12.6953 106.006 13.4277 104.785 15.5273 L 98.6328 26.0742 C 97.5586 27.9785 97.998 30.4199 100 31.5918 Z"/>
  </g>
  <g id="Bold-M" transform="matrix(1 0 0 1 2273.06 1126)">
   <path d="M 33.8867 -9.08203 L 95.2637 -9.08203 C 112.256 -9.08203 125.098 -22.0215 125.098 -38.3789 C 125.098 -54.9805 112.061 -67.6758 94.8242 -67.6758 C 89.0137 -78.9062 78.3203 -87.3535 62.0605 -87.3535 C 42.627 -87.3535 27.3438 -72.998 25.0488 -54.6875 C 15.7715 -51.6113 8.74023 -43.5059 8.74023 -32.5195 C 8.74023 -19.3848 18.5547 -9.08203 33.8867 -9.08203 Z M 34.1309 -20.8984 C 25.0977 -20.8984 20.6055 -25.7324 20.6055 -32.2754 C 20.6055 -37.9883 24.1211 -42.4805 31.9824 -44.5312 C 35.0098 -45.3613 35.9375 -46.7285 36.3281 -49.8047 C 38.2812 -65.9668 48.9258 -75.4883 62.0605 -75.4883 C 72.0215 -75.4883 80.2246 -69.873 85.5469 -59.5215 C 86.8652 -56.9824 88.3789 -56.0547 91.5527 -56.0547 C 106.104 -56.0547 113.281 -48.0469 113.281 -38.0859 C 113.281 -28.4668 105.859 -20.8984 95.166 -20.8984 Z M 54.3945 33.5449 C 54.834 33.7402 55.3711 33.5938 55.9082 33.0566 L 80.3711 10.1562 C 81.4941 9.13086 81.1035 7.71484 79.6387 7.71484 L 68.8477 7.71484 L 73.0469 -0.244141 C 73.584 -1.31836 73.1934 -2.14844 72.0703 -2.14844 L 59.4238 -2.14844 C 58.0566 -2.14844 57.5684 -1.66016 57.1289 -0.634766 L 50.5371 14.3555 C 50.0488 15.5273 50.5371 16.3086 51.8066 16.3086 L 60.6445 16.3086 L 54.1016 32.1289 C 53.8086 32.8125 53.9551 33.3496 54.3945 33.5449 Z M 21.5332 16.0156 C 23.3398 17.041 25.4883 16.3574 26.5137 14.5996 L 32.7148 3.85742 C 33.7402 2.09961 33.252 -0.0976562 31.4453 -1.17188 C 29.5898 -2.24609 27.5879 -1.5625 26.4648 0.292969 L 20.2637 11.084 C 19.2383 12.793 19.6777 14.9414 21.5332 16.0156 Z M 90.0391 16.0156 C 91.8945 17.041 94.043 16.3574 95.0684 14.5996 L 101.27 3.85742 C 102.295 2.09961 101.807 -0.0976562 100 -1.17188 C 98.1445 -2.24609 96.1426 -1.5625 95.0195 0.292969 L 88.7695 11.084 C 87.793 12.793 88.2324 14.9414 90.0391 16.0156 Z M 30.9082 29.6875 C 32.7148 30.7129 34.8633 29.9805 35.8887 28.2227 L 42.0898 17.5293 C 43.1152 15.7227 42.627 13.5254 40.8203 12.5 C 38.9648 11.4258 36.9629 12.0605 35.8398 13.9648 L 29.6387 24.707 C 28.6133 26.4648 29.0527 28.6133 30.9082 29.6875 Z M 99.4141 29.6875 C 101.27 30.7129 103.418 29.9805 104.443 28.2227 L 110.645 17.5293 C 111.67 15.7227 111.182 13.5254 109.375 12.5 C 107.52 11.4258 105.518 12.0605 104.395 13.9648 L 98.1934 24.707 C 97.168 26.4648 97.6074 28.6133 99.4141 29.6875 Z"/>
  </g>
  <g id="Semibold-M" transform="matrix(1 0 0 1 1977.23 1126)">
   <path d="M 33.1055 -10.0098 L 94.1895 -10.0098 C 110.791 -10.0098 123.34 -22.6562 123.34 -38.5254 C 123.34 -54.7852 110.4 -66.9922 93.4082 -66.9922 C 87.5 -78.5156 76.5625 -86.7188 61.084 -86.7188 C 42.041 -86.7188 26.8555 -72.3145 24.8047 -54.1016 C 15.6738 -51.2207 8.74023 -43.2617 8.74023 -32.5195 C 8.74023 -19.9707 18.0664 -10.0098 33.1055 -10.0098 Z M 33.2031 -20.4102 C 23.8281 -20.4102 19.1406 -25.4883 19.1406 -32.2754 C 19.1406 -38.0859 22.6074 -42.8223 30.6641 -44.9707 C 33.5449 -45.7031 34.4727 -47.0215 34.8145 -50 C 36.4746 -66.0645 47.6074 -76.3184 61.084 -76.3184 C 71.4355 -76.3184 79.7852 -70.5566 85.1074 -60.0586 C 86.377 -57.5684 87.8418 -56.6895 90.918 -56.6895 C 105.42 -56.6895 112.939 -48.4375 112.939 -38.2812 C 112.939 -28.2715 105.176 -20.4102 94.2871 -20.4102 Z M 54.6875 32.0312 C 55.127 32.2266 55.6641 32.0801 56.2012 31.543 L 79.2969 9.375 C 80.3223 8.34961 79.9316 6.98242 78.5156 6.98242 L 68.1641 6.98242 L 72.4121 -1.17188 C 72.998 -2.24609 72.5586 -3.07617 71.4844 -3.07617 L 59.7168 -3.07617 C 58.3496 -3.07617 57.8613 -2.53906 57.4219 -1.5625 L 50.9766 13.1348 C 50.4883 14.3066 50.9766 15.0879 52.2461 15.0879 L 60.8398 15.0879 L 54.3945 30.6641 C 54.1016 31.2988 54.248 31.8359 54.6875 32.0312 Z M 21.3379 14.6973 C 22.998 15.6738 25.0488 15.0391 25.9766 13.3789 L 32.2266 2.58789 C 33.2031 0.878906 32.7148 -1.12305 31.0547 -2.09961 C 29.3457 -3.07617 27.4414 -2.49023 26.416 -0.78125 L 20.1172 10.1074 C 19.1895 11.7188 19.6289 13.7207 21.3379 14.6973 Z M 89.6484 14.6973 C 91.3086 15.6738 93.3105 15.0391 94.2871 13.3789 L 100.537 2.58789 C 101.514 0.878906 101.025 -1.12305 99.3652 -2.09961 C 97.6074 -3.07617 95.752 -2.49023 94.7266 -0.78125 L 88.4277 10.1074 C 87.5 11.7188 87.8906 13.7207 89.6484 14.6973 Z M 30.7617 28.3691 C 32.4219 29.2969 34.4238 28.6621 35.4004 27.0508 L 41.6504 16.2109 C 42.627 14.5508 42.1387 12.5 40.4297 11.5234 C 38.7207 10.5469 36.8652 11.1328 35.8398 12.8906 L 29.541 23.7793 C 28.6133 25.3906 29.0039 27.3926 30.7617 28.3691 Z M 99.0234 28.3691 C 100.732 29.2969 102.734 28.6621 103.662 27.0508 L 109.961 16.2109 C 110.938 14.5508 110.449 12.5 108.74 11.5234 C 107.031 10.5469 105.127 11.1328 104.15 12.8906 L 97.8516 23.7793 C 96.875 25.3906 97.3145 27.3926 99.0234 28.3691 Z"/>
  </g>
  <g id="Medium-M" transform="matrix(1 0 0 1 1681.17 1126)">
   <path d="M 32.4707 -10.6934 L 93.3594 -10.6934 C 109.717 -10.6934 122.021 -23.1445 122.021 -38.6719 C 122.021 -54.5898 109.131 -66.4551 92.3828 -66.4551 C 86.377 -78.2227 75.293 -86.2305 60.4004 -86.2305 C 41.6504 -86.2305 26.4648 -71.875 24.6094 -53.6621 C 15.5762 -50.9277 8.74023 -43.0664 8.74023 -32.5195 C 8.74023 -20.4102 17.6758 -10.6934 32.4707 -10.6934 Z M 32.5195 -19.9707 C 22.8516 -19.9707 18.0176 -25.293 18.0176 -32.2754 C 18.0176 -38.1348 21.4844 -43.1152 29.6387 -45.2637 C 32.4707 -45.9961 33.3984 -47.2656 33.6426 -50.1953 C 35.1074 -66.1621 46.582 -76.9531 60.4004 -76.9531 C 70.9961 -76.9531 79.4922 -71.0938 84.7656 -60.4492 C 85.9863 -58.0078 87.4512 -57.1289 90.4297 -57.1289 C 104.932 -57.1289 112.744 -48.6816 112.744 -38.4277 C 112.744 -28.1738 104.639 -19.9707 93.6523 -19.9707 Z M 54.9316 30.8594 C 55.3711 31.0547 55.9082 30.9082 56.3965 30.4199 L 78.418 8.78906 C 79.4434 7.71484 79.1016 6.39648 77.6855 6.39648 L 67.5781 6.39648 L 71.9727 -1.9043 C 72.5098 -2.92969 72.0703 -3.75977 70.9961 -3.75977 L 59.9121 -3.75977 C 58.5449 -3.75977 58.1055 -3.27148 57.666 -2.24609 L 51.3184 12.207 C 50.7812 13.3789 51.3184 14.1602 52.5391 14.1602 L 60.9863 14.1602 L 54.5898 29.4922 C 54.3457 30.127 54.4922 30.7129 54.9316 30.8594 Z M 21.1914 13.7207 C 22.7539 14.5996 24.6582 14.0625 25.5859 12.5 L 31.8848 1.5625 C 32.8125 0 32.3242 -1.9043 30.7617 -2.83203 C 29.1016 -3.75977 27.3438 -3.22266 26.3672 -1.61133 L 20.0195 9.375 C 19.1406 10.8887 19.5801 12.793 21.1914 13.7207 Z M 89.3066 13.7207 C 90.8691 14.5996 92.7734 14.0625 93.7012 12.5 L 100 1.5625 C 100.928 0 100.439 -1.9043 98.877 -2.83203 C 97.2656 -3.75977 95.459 -3.22266 94.4824 -1.61133 L 88.1348 9.375 C 87.2559 10.8887 87.6953 12.793 89.3066 13.7207 Z M 30.6152 27.3926 C 32.2266 28.2715 34.1309 27.6855 35.0098 26.123 L 41.3086 15.2344 C 42.2363 13.623 41.748 11.7188 40.1855 10.791 C 38.5742 9.91211 36.7676 10.4492 35.791 12.0605 L 29.4434 23.0469 C 28.5645 24.5605 29.0039 26.416 30.6152 27.3926 Z M 98.7305 27.3926 C 100.342 28.2715 102.246 27.6855 103.125 26.123 L 109.424 15.2344 C 110.352 13.623 109.863 11.7188 108.301 10.791 C 106.689 9.91211 104.883 10.4492 103.906 12.0605 L 97.6074 23.0469 C 96.6797 24.5605 97.1191 26.416 98.7305 27.3926 Z"/>
  </g>
  <g id="Regular-M" transform="matrix(1 0 0 1 1385.34 1126)">
   <path d="M 31.6895 -11.6211 L 92.2852 -11.6211 C 108.301 -11.6211 120.264 -23.7793 120.264 -38.8672 C 120.264 -54.3945 107.52 -65.7715 90.9668 -65.7715 C 84.8633 -77.832 73.5352 -85.5957 59.4727 -85.5957 C 41.0645 -85.5957 25.9277 -71.2402 24.3652 -53.0762 C 15.4785 -50.5371 8.74023 -42.8223 8.74023 -32.5195 C 8.74023 -20.9961 17.1387 -11.6211 31.6895 -11.6211 Z M 31.5918 -19.4824 C 21.582 -19.4824 16.5527 -25.0488 16.5527 -32.2754 C 16.5527 -38.1836 19.9707 -43.457 28.2715 -45.6543 C 31.0059 -46.3379 31.9824 -47.6074 32.1777 -50.3906 C 33.3008 -66.3086 45.3125 -77.7832 59.4727 -77.7832 C 70.4102 -77.7832 79.0527 -71.7773 84.3262 -60.9375 C 85.498 -58.5938 86.9141 -57.7637 89.7949 -57.7637 C 104.248 -57.7637 112.402 -49.0234 112.402 -38.623 C 112.402 -27.9785 103.906 -19.4824 92.7734 -19.4824 Z M 55.2246 29.3945 C 55.6641 29.5898 56.2012 29.4434 56.6895 28.9062 L 77.3438 8.00781 C 78.3203 6.93359 77.9785 5.66406 76.6113 5.66406 L 66.8945 5.66406 L 71.3379 -2.83203 C 71.9238 -3.85742 71.4844 -4.63867 70.4102 -4.63867 L 60.2051 -4.63867 C 58.8867 -4.63867 58.3984 -4.15039 57.959 -3.17383 L 51.7578 11.0352 C 51.2207 12.1582 51.7578 12.8906 52.9785 12.8906 L 61.1816 12.8906 L 54.8828 28.0273 C 54.6387 28.6133 54.7852 29.1992 55.2246 29.3945 Z M 20.9961 12.4023 C 22.4609 13.2324 24.2188 12.7441 25.0488 11.2793 L 31.3965 0.292969 C 32.2754 -1.2207 31.7871 -2.92969 30.3223 -3.75977 C 28.8574 -4.63867 27.1973 -4.15039 26.3184 -2.63672 L 19.9219 8.44727 C 19.0918 9.86328 19.4824 11.5723 20.9961 12.4023 Z M 88.8672 12.4023 C 90.332 13.2324 92.0898 12.7441 92.9199 11.2793 L 99.2676 0.292969 C 100.146 -1.2207 99.6582 -2.92969 98.2422 -3.75977 C 96.7285 -4.63867 95.0684 -4.15039 94.1895 -2.63672 L 87.793 8.44727 C 86.9629 9.86328 87.3535 11.5723 88.8672 12.4023 Z M 30.4688 26.0742 C 31.9336 26.9043 33.6914 26.416 34.5215 24.9512 L 40.8691 13.916 C 41.748 12.4512 41.2598 10.7422 39.7949 9.86328 C 38.3301 9.0332 36.6699 9.52148 35.791 10.9863 L 29.3945 22.1191 C 28.5645 23.4863 28.9551 25.1953 30.4688 26.0742 Z M 98.3398 26.0742 C 99.8047 26.9043 101.562 26.416 102.393 24.9512 L 108.74 13.916 C 109.619 12.4512 109.131 10.7422 107.715 9.86328 C 106.201 9.0332 104.541 9.52148 103.662 10.9863 L 97.2656 22.1191 C 96.4355 23.4863 96.8262 25.1953 98.3398 26.0742 Z"/>
  </g>
  <g id="Light-M" transform="matrix(1 0 0 1 1089.05 1126)">
   <path d="M 31.0547 -12.6465 L 91.9434 -12.6465 C 107.617 -12.6465 119.434 -24.4629 119.434 -39.209 C 119.434 -54.3457 106.885 -65.4297 90.6738 -65.4297 C 84.5703 -77.7344 73.5352 -85.5957 59.1309 -85.5957 C 41.0645 -85.5957 26.2207 -71.2402 24.6582 -53.0762 C 15.7227 -50.5859 8.74023 -43.1152 8.74023 -32.8613 C 8.74023 -21.7285 16.9434 -12.6465 31.0547 -12.6465 Z M 30.957 -18.6035 C 20.3125 -18.6035 14.6973 -24.8535 14.6973 -32.7148 C 14.6973 -39.4531 18.9453 -45.1172 27.4414 -47.3633 C 29.6875 -47.9492 30.4688 -48.9746 30.6641 -51.1719 C 31.7383 -67.3828 44.4336 -79.6387 59.1309 -79.6387 C 71.1426 -79.6387 80.1758 -72.9492 85.4492 -62.0605 C 86.4258 -60.0098 87.6465 -59.3262 90.0391 -59.3262 C 104.346 -59.3262 113.428 -50.1953 113.428 -39.0137 C 113.428 -27.7344 104.248 -18.6035 92.2852 -18.6035 Z M 56.1035 28.0273 C 56.5918 28.2227 57.1289 28.0762 57.6172 27.4902 L 75.293 7.71484 C 76.2207 6.64062 75.8301 5.41992 74.4629 5.41992 L 65.4785 5.41992 L 70.2637 -3.61328 C 70.8008 -4.6875 70.4102 -5.46875 69.2871 -5.46875 L 61.4746 -5.46875 C 60.1074 -5.46875 59.6191 -4.98047 59.2285 -4.00391 L 53.125 9.91211 C 52.5879 11.1328 53.2227 11.8164 54.4434 11.8164 L 61.9141 11.8164 L 55.7617 26.6113 C 55.4688 27.2949 55.6641 27.832 56.1035 28.0273 Z M 21.0449 11.6211 C 22.2168 12.2559 23.6328 11.8652 24.3164 10.6445 L 31.2012 -1.26953 C 31.9336 -2.53906 31.543 -3.90625 30.3711 -4.58984 C 29.1992 -5.27344 27.8809 -4.88281 27.1484 -3.61328 L 20.2148 8.34961 C 19.5312 9.52148 19.8242 10.8887 21.0449 11.6211 Z M 88.0859 11.6211 C 89.2578 12.2559 90.6738 11.8652 91.3574 10.6445 L 98.2422 -1.26953 C 98.9746 -2.53906 98.6328 -3.90625 97.4609 -4.58984 C 96.2891 -5.27344 94.9219 -4.88281 94.1895 -3.61328 L 87.2559 8.34961 C 86.5723 9.52148 86.9141 10.8887 88.0859 11.6211 Z M 30.6641 25.2441 C 31.8359 25.9277 33.252 25.4883 33.9355 24.2676 L 40.8203 12.3535 C 41.5527 11.084 41.1621 9.7168 39.9902 9.0332 C 38.8184 8.39844 37.5 8.74023 36.7676 10.0098 L 29.834 21.9727 C 29.1504 23.1934 29.4434 24.5605 30.6641 25.2441 Z M 97.7051 25.2441 C 98.877 25.9277 100.293 25.4883 100.977 24.2676 L 107.861 12.3535 C 108.594 11.084 108.252 9.7168 107.08 9.0332 C 105.908 8.39844 104.541 8.74023 103.809 10.0098 L 96.875 21.9727 C 96.1914 23.1934 96.5332 24.5605 97.7051 25.2441 Z"/>
  </g>
  <g id="Thin-M" transform="matrix(1 0 0 1 792.897 1126)">
   <path d="M 30.1758 -13.9648 L 91.5039 -13.9648 C 106.641 -13.9648 118.311 -25.3418 118.311 -39.6484 C 118.311 -54.248 106.104 -64.9902 90.2344 -64.9902 C 84.1309 -77.5391 73.5352 -85.5957 58.6914 -85.5957 C 41.0645 -85.5957 26.6113 -71.2402 25.0977 -53.0762 C 16.0156 -50.6836 8.74023 -43.5059 8.74023 -33.3008 C 8.74023 -22.7051 16.6016 -13.9648 30.1758 -13.9648 Z M 30.127 -17.4805 C 18.6523 -17.4805 12.2559 -24.6094 12.2559 -33.252 C 12.2559 -41.1133 17.5781 -47.3633 26.2695 -49.6582 C 27.9785 -50.0977 28.5645 -50.7812 28.6133 -52.2461 C 29.5898 -68.7988 43.2617 -82.0801 58.6914 -82.0801 C 72.1191 -82.0801 81.6406 -74.5117 86.9629 -63.4766 C 87.6953 -61.9629 88.5742 -61.4258 90.4297 -61.4258 C 104.541 -61.4258 114.795 -51.7578 114.795 -39.502 C 114.795 -27.3926 104.639 -17.4805 91.6504 -17.4805 Z M 57.2754 26.2207 C 57.7637 26.416 58.3984 26.2207 58.8379 25.5859 L 72.6562 7.37305 C 73.4375 6.25 72.9492 5.07812 71.582 5.07812 L 63.5742 5.07812 L 68.7988 -4.63867 C 69.3848 -5.71289 68.9453 -6.5918 67.8223 -6.5918 L 63.1836 -6.5918 C 61.7676 -6.5918 61.2793 -6.05469 60.8398 -5.0293 L 54.9316 8.44727 C 54.3945 9.7168 55.127 10.4004 56.3477 10.4004 L 62.9395 10.4004 L 56.9336 24.7559 C 56.6406 25.4883 56.7871 26.0254 57.2754 26.2207 Z M 21.0938 10.498 C 21.9238 10.9863 22.8027 10.6445 23.3398 9.7168 L 30.9082 -3.36914 C 31.4941 -4.3457 31.25 -5.22461 30.4688 -5.71289 C 29.6875 -6.10352 28.8086 -5.85938 28.2227 -4.93164 L 20.6543 8.20312 C 20.1172 9.13086 20.3125 10.0098 21.0938 10.498 Z M 87.0605 10.498 C 87.8906 10.9863 88.7695 10.6445 89.3066 9.7168 L 96.875 -3.36914 C 97.4609 -4.3457 97.2168 -5.22461 96.4355 -5.71289 C 95.6543 -6.10352 94.7754 -5.85938 94.1895 -4.93164 L 86.5723 8.20312 C 86.084 9.13086 86.2793 10.0098 87.0605 10.498 Z M 30.9082 24.1699 C 31.7383 24.6094 32.6172 24.3164 33.1543 23.3887 L 40.7227 10.3027 C 41.3086 9.32617 41.0645 8.44727 40.2832 7.95898 C 39.502 7.51953 38.623 7.76367 38.0371 8.74023 L 30.4688 21.8262 C 29.9316 22.7539 30.127 23.6816 30.9082 24.1699 Z M 96.875 24.1699 C 97.7051 24.6094 98.584 24.3164 99.1211 23.3887 L 106.689 10.3027 C 107.275 9.32617 107.031 8.44727 106.25 7.95898 C 105.469 7.51953 104.59 7.76367 104.004 8.74023 L 96.3867 21.8262 C 95.8984 22.7539 96.0938 23.6816 96.875 24.1699 Z"/>
  </g>
  <g id="Ultralight-M" transform="matrix(1 0 0 1 496.454 1126)">
   <path d="M 29.6875 -14.5996 L 91.3086 -14.5996 C 106.152 -14.5996 117.773 -25.8301 117.773 -39.8926 C 117.773 -54.1992 105.664 -64.7949 89.9902 -64.7949 C 83.8867 -77.4414 73.5352 -85.5957 58.4473 -85.5957 C 41.0645 -85.5957 26.8066 -71.2402 25.3418 -53.0762 C 16.1621 -50.7324 8.74023 -43.7012 8.74023 -33.5449 C 8.74023 -23.1934 16.4551 -14.5996 29.6875 -14.5996 Z M 29.6875 -16.8945 C 17.7734 -16.8945 10.9863 -24.4629 10.9863 -33.5449 C 10.9863 -41.9922 16.8457 -48.4863 25.6836 -50.8301 C 27.0996 -51.1719 27.5391 -51.709 27.5879 -52.832 C 28.5156 -69.5312 42.6758 -83.3496 58.4473 -83.3496 C 72.6074 -83.3496 82.4219 -75.3418 87.6953 -64.2578 C 88.3301 -62.9395 89.0625 -62.5 90.5762 -62.5 C 104.59 -62.5 115.479 -52.5391 115.479 -39.7461 C 115.479 -27.1973 104.883 -16.8945 91.3086 -16.8945 Z M 57.9102 25.293 C 58.3984 25.4883 59.0332 25.293 59.4727 24.6094 L 71.2891 7.17773 C 72.0215 6.05469 71.4844 4.93164 70.1172 4.93164 L 62.5977 4.93164 L 68.0664 -5.22461 C 68.6523 -6.25 68.2129 -7.12891 67.0898 -7.12891 L 64.0137 -7.12891 C 62.5977 -7.12891 62.1094 -6.64062 61.6699 -5.56641 L 55.8594 7.66602 C 55.3223 8.98438 56.1035 9.66797 57.3242 9.66797 L 63.4277 9.66797 L 57.5195 23.8281 C 57.2266 24.5605 57.4219 25.0977 57.9102 25.293 Z M 21.1426 9.96094 C 21.7773 10.3027 22.4121 10.0586 22.8516 9.27734 L 30.8105 -4.44336 C 31.2988 -5.22461 31.1035 -5.9082 30.5176 -6.25 C 29.9316 -6.54297 29.2969 -6.39648 28.8086 -5.56641 L 20.8496 8.10547 C 20.4102 8.88672 20.5566 9.57031 21.1426 9.96094 Z M 86.5234 9.96094 C 87.1582 10.3027 87.793 10.0586 88.2324 9.27734 L 96.1914 -4.44336 C 96.6797 -5.22461 96.4844 -5.9082 95.8984 -6.25 C 95.3613 -6.54297 94.6777 -6.39648 94.1895 -5.56641 L 86.2305 8.10547 C 85.791 8.88672 85.9375 9.57031 86.5234 9.96094 Z M 31.0547 23.584 C 31.6895 23.9746 32.3242 23.7305 32.7637 22.9004 L 40.7227 9.22852 C 41.2109 8.39844 41.0156 7.76367 40.4297 7.37305 C 39.8926 7.08008 39.209 7.27539 38.7207 8.05664 L 30.7617 21.7773 C 30.3223 22.5586 30.4688 23.2422 31.0547 23.584 Z M 96.4355 23.584 C 97.0703 23.9746 97.7539 23.7305 98.1445 22.9004 L 106.104 9.22852 C 106.592 8.39844 106.396 7.76367 105.811 7.37305 C 105.273 7.08008 104.59 7.27539 104.102 8.05664 L 96.1426 21.7773 C 95.752 22.5586 95.8496 23.2422 96.4355 23.584 Z"/>
  </g>
  <g id="Black-S" transform="matrix(1 0 0 1 2879.15 696)">
   <path d="M 28.1738 -12.793 L 76.8066 -12.793 C 90.8691 -12.793 101.66 -23.5352 101.66 -37.3047 C 101.66 -51.123 91.1621 -62.0605 77.1484 -62.0605 C 72.8516 -70.2637 64.8926 -77.3438 50.5371 -77.3438 C 34.5215 -77.3438 22.4609 -66.1133 20.1172 -51.6602 C 12.5488 -48.877 6.83594 -42.2363 6.83594 -33.1055 C 6.83594 -21.582 15.5762 -12.793 28.1738 -12.793 Z M 28.6621 -25.0977 C 22.2656 -25.0977 19.1406 -28.3203 19.1406 -32.9102 C 19.1406 -37.2559 21.9727 -40.1855 27.832 -41.6992 C 30.4688 -42.3828 31.1035 -43.5547 31.543 -46.1914 C 33.6914 -59.0332 41.0645 -65.0391 50.5371 -65.0391 C 57.6172 -65.0391 63.6719 -60.9375 67.9199 -53.1738 C 69.0918 -51.0254 70.3125 -50.2441 72.998 -50.2441 C 84.4727 -50.2441 89.3555 -44.5312 89.3555 -37.0605 C 89.3555 -30.2734 84.375 -25.0977 76.3184 -25.0977 Z M 41.9922 21.7773 C 42.334 21.9238 42.7734 21.8262 43.2129 21.4355 L 65.2832 1.95312 C 66.2109 1.17188 65.8691 -0.0488281 64.6973 -0.0488281 L 55.4199 -0.0488281 L 58.4961 -5.9082 C 58.9355 -6.73828 58.5938 -7.42188 57.7148 -7.42188 L 45.9473 -7.42188 C 44.8242 -7.42188 44.4336 -7.03125 44.0918 -6.20117 L 38.6719 6.15234 C 38.2812 7.08008 38.623 7.71484 39.6484 7.71484 L 47.0703 7.71484 L 41.748 20.6543 C 41.5039 21.1914 41.6504 21.6309 41.9922 21.7773 Z M 17.2363 7.61719 C 18.9453 8.59375 20.9473 7.86133 21.875 6.25 L 26.6113 -1.9043 C 27.5391 -3.51562 27.1484 -5.61523 25.4395 -6.5918 C 23.7305 -7.56836 21.875 -6.93359 20.8496 -5.17578 L 16.1133 2.97852 C 15.1855 4.58984 15.5273 6.64062 17.2363 7.61719 Z M 71.4355 7.61719 C 73.1445 8.59375 75.1465 7.86133 76.0742 6.25 L 80.8105 -1.9043 C 81.7383 -3.51562 81.3477 -5.61523 79.6387 -6.5918 C 77.9297 -7.56836 76.0742 -6.93359 75.0488 -5.17578 L 70.3125 2.97852 C 69.3848 4.58984 69.7266 6.64062 71.4355 7.61719 Z M 24.5117 18.3105 C 26.2207 19.2871 28.2227 18.5547 29.1504 16.9434 L 33.8867 8.78906 C 34.8145 7.17773 34.4238 5.07812 32.7148 4.10156 C 31.0059 3.125 29.1504 3.75977 28.125 5.51758 L 23.3887 13.6719 C 22.4609 15.2832 22.8027 17.334 24.5117 18.3105 Z M 78.7109 18.3105 C 80.4199 19.2871 82.4219 18.5547 83.3496 16.9434 L 88.0859 8.78906 C 89.0137 7.17773 88.623 5.07812 86.9141 4.10156 C 85.2051 3.125 83.3496 3.75977 82.3242 5.51758 L 77.5879 13.6719 C 76.6602 15.2832 77.002 17.334 78.7109 18.3105 Z"/>
  </g>
  <g id="Heavy-S" transform="matrix(1 0 0 1 2583.27 696)">
   <path d="M 27.4414 -13.623 L 75.7812 -13.623 C 89.5508 -13.623 100 -24.1211 100 -37.4512 C 100 -50.9277 89.5996 -61.4258 75.7812 -61.4258 C 71.3867 -69.873 63.1836 -76.709 49.6582 -76.709 C 33.9844 -76.709 21.9238 -65.4785 19.8242 -51.0742 C 12.4023 -48.4863 6.83594 -41.9434 6.83594 -33.0566 C 6.83594 -22.0703 15.0879 -13.623 27.4414 -13.623 Z M 27.832 -24.6582 C 21.1426 -24.6582 17.9199 -28.0762 17.9199 -32.8613 C 17.9199 -37.1582 20.6055 -40.332 26.6113 -41.8945 C 29.1504 -42.5781 29.834 -43.7012 30.2246 -46.2891 C 32.0801 -59.0332 39.8438 -65.6738 49.6582 -65.6738 C 56.9336 -65.6738 63.1348 -61.4746 67.334 -53.5645 C 68.457 -51.4648 69.7266 -50.6836 72.3633 -50.6836 C 83.7891 -50.6836 88.916 -44.7754 88.916 -37.207 C 88.916 -30.127 83.6426 -24.6582 75.5371 -24.6582 Z M 42.1875 20.4102 C 42.5293 20.5566 42.9688 20.459 43.4082 20.0684 L 64.4043 1.2207 C 65.2832 0.390625 64.9902 -0.78125 63.8184 -0.78125 L 54.8828 -0.78125 L 58.0078 -6.73828 C 58.4473 -7.56836 58.1055 -8.25195 57.2266 -8.25195 L 46.0938 -8.25195 C 44.9707 -8.25195 44.6289 -7.86133 44.2871 -7.03125 L 38.9648 5.07812 C 38.5742 5.95703 38.916 6.5918 39.9414 6.5918 L 47.2168 6.5918 L 41.9434 19.3359 C 41.6992 19.8242 41.8457 20.2637 42.1875 20.4102 Z M 17.041 6.39648 C 18.6523 7.32422 20.5566 6.64062 21.4355 5.12695 L 26.1719 -3.02734 C 27.0508 -4.54102 26.6602 -6.49414 25.0488 -7.42188 C 23.4375 -8.34961 21.6797 -7.76367 20.7031 -6.15234 L 15.9668 2.05078 C 15.0879 3.56445 15.4297 5.46875 17.041 6.39648 Z M 71.0938 6.39648 C 72.7051 7.32422 74.6094 6.64062 75.4883 5.12695 L 80.2246 -3.02734 C 81.1035 -4.54102 80.7129 -6.49414 79.1016 -7.42188 C 77.4902 -8.34961 75.7324 -7.76367 74.7559 -6.15234 L 70.0195 2.05078 C 69.1406 3.56445 69.4824 5.46875 71.0938 6.39648 Z M 24.3164 17.0898 C 25.9277 18.0176 27.832 17.334 28.7109 15.8203 L 33.4473 7.66602 C 34.3262 6.15234 33.9355 4.19922 32.3242 3.27148 C 30.7129 2.34375 28.9551 2.92969 27.9785 4.54102 L 23.2422 12.7441 C 22.3633 14.2578 22.7051 16.1621 24.3164 17.0898 Z M 78.3691 17.0898 C 79.9805 18.0176 81.8848 17.334 82.7637 15.8203 L 87.5 7.66602 C 88.3789 6.15234 87.9883 4.19922 86.377 3.27148 C 84.7656 2.34375 83.0078 2.92969 82.0312 4.54102 L 77.2949 12.7441 C 76.416 14.2578 76.7578 16.1621 78.3691 17.0898 Z"/>
  </g>
  <g id="Bold-S" transform="matrix(1 0 0 1 2287.49 696)">
   <path d="M 26.6602 -14.5508 L 74.6094 -14.5508 C 88.0371 -14.5508 98.1445 -24.7559 98.1445 -37.5977 C 98.1445 -50.6836 87.8418 -60.6934 74.2676 -60.6934 C 69.7266 -69.4824 61.2793 -76.0254 48.6328 -76.0254 C 33.3496 -76.0254 21.2891 -64.7949 19.5312 -50.4395 C 12.2559 -48.0469 6.83594 -41.6504 6.83594 -33.0566 C 6.83594 -22.6562 14.5508 -14.5508 26.6602 -14.5508 Z M 26.8555 -24.2188 C 19.873 -24.2188 16.5039 -27.832 16.5039 -32.8125 C 16.5039 -37.1094 19.043 -40.5273 25.1953 -42.1387 C 27.6855 -42.7734 28.418 -43.8965 28.7598 -46.4355 C 30.2734 -59.0332 38.4766 -66.3574 48.6328 -66.3574 C 56.2012 -66.3574 62.5488 -62.1094 66.6992 -54.0039 C 67.8223 -51.9043 69.043 -51.1719 71.582 -51.1719 C 83.0566 -51.1719 88.4766 -45.0195 88.4766 -37.4023 C 88.4766 -29.9805 82.8125 -24.2188 74.6094 -24.2188 Z M 42.3828 18.8965 C 42.7246 19.043 43.1641 18.9453 43.5547 18.5547 L 63.4277 0.390625 C 64.3066 -0.439453 64.0137 -1.5625 62.8906 -1.5625 L 54.248 -1.5625 L 57.4707 -7.66602 C 57.9102 -8.49609 57.5684 -9.13086 56.6895 -9.13086 L 46.2402 -9.13086 C 45.166 -9.13086 44.7754 -8.74023 44.4336 -7.95898 L 39.2578 3.85742 C 38.8672 4.73633 39.209 5.37109 40.2344 5.37109 L 47.3145 5.37109 L 42.1387 17.8223 C 41.9434 18.3105 42.041 18.75 42.3828 18.8965 Z M 16.8457 5.07812 C 18.3105 5.9082 20.1172 5.32227 20.8984 3.90625 L 25.6348 -4.29688 C 26.4648 -5.71289 26.0742 -7.51953 24.6094 -8.39844 C 23.0957 -9.27734 21.4355 -8.74023 20.5078 -7.22656 L 15.7715 1.02539 C 14.9414 2.44141 15.332 4.19922 16.8457 5.07812 Z M 70.7031 5.07812 C 72.2168 5.9082 73.9746 5.32227 74.8047 3.90625 L 79.541 -4.29688 C 80.3711 -5.71289 79.9805 -7.51953 78.4668 -8.39844 C 76.9531 -9.27734 75.293 -8.74023 74.4141 -7.22656 L 69.6777 1.02539 C 68.8477 2.44141 69.1895 4.19922 70.7031 5.07812 Z M 24.1211 15.7715 C 25.6348 16.6016 27.3926 16.0156 28.2227 14.5996 L 32.959 6.39648 C 33.7891 4.98047 33.3984 3.17383 31.8848 2.29492 C 30.3711 1.41602 28.7109 1.95312 27.832 3.4668 L 23.0957 11.7188 C 22.2656 13.0859 22.6074 14.8926 24.1211 15.7715 Z M 78.0273 15.7715 C 79.541 16.6016 81.2988 16.0156 82.1289 14.5996 L 86.8652 6.39648 C 87.6953 4.98047 87.3047 3.17383 85.791 2.29492 C 84.2773 1.41602 82.6172 1.95312 81.7383 3.4668 L 76.9531 11.7188 C 76.1719 13.0859 76.5137 14.8926 78.0273 15.7715 Z"/>
  </g>
  <g id="Semibold-S" transform="matrix(1 0 0 1 1991.44 696)">
   <path d="M 26.123 -15.1855 L 73.8281 -15.1855 C 87.0117 -15.1855 96.8262 -25.1953 96.8262 -37.6953 C 96.8262 -50.5371 86.6211 -60.2051 73.2422 -60.2051 C 68.6035 -69.1895 59.9121 -75.5371 47.9492 -75.5371 C 32.9102 -75.5371 20.8984 -64.2578 19.2871 -50 C 12.1582 -47.7051 6.83594 -41.4551 6.83594 -33.0078 C 6.83594 -23.0469 14.209 -15.1855 26.123 -15.1855 Z M 26.2207 -23.877 C 19.043 -23.877 15.5273 -27.6855 15.5273 -32.7637 C 15.5273 -37.0117 18.0176 -40.625 24.2676 -42.2852 C 26.6602 -42.9199 27.4414 -44.043 27.7344 -46.5332 C 29.0039 -59.0332 37.5488 -66.8457 47.9492 -66.8457 C 55.7129 -66.8457 62.1094 -62.5488 66.2598 -54.3457 C 67.334 -52.2461 68.5547 -51.5137 71.0938 -51.5137 C 82.5195 -51.5137 88.1348 -45.166 88.1348 -37.5 C 88.1348 -29.8828 82.2266 -23.877 74.0234 -23.877 Z M 42.5293 17.8711 C 42.9199 18.0176 43.3105 17.9199 43.7012 17.5293 L 62.7441 -0.195312 C 63.5742 -1.02539 63.3301 -2.09961 62.207 -2.09961 L 53.8086 -2.09961 L 57.0801 -8.30078 C 57.5195 -9.13086 57.1777 -9.76562 56.3477 -9.76562 L 46.3379 -9.76562 C 45.3125 -9.76562 44.9219 -9.375 44.5801 -8.59375 L 39.502 3.02734 C 39.1113 3.90625 39.4531 4.49219 40.4297 4.49219 L 47.4121 4.49219 L 42.2852 16.7969 C 42.0898 17.2852 42.1875 17.7246 42.5293 17.8711 Z M 16.6992 4.15039 C 18.0664 4.93164 19.7754 4.39453 20.5566 3.02734 L 25.293 -5.12695 C 26.123 -6.54297 25.6836 -8.20312 24.2676 -9.0332 C 22.8516 -9.86328 21.2402 -9.375 20.4102 -7.95898 L 15.625 0.292969 C 14.8438 1.61133 15.2344 3.32031 16.6992 4.15039 Z M 70.459 4.15039 C 71.875 4.93164 73.584 4.39453 74.3652 3.02734 L 79.0527 -5.12695 C 79.8828 -6.54297 79.4922 -8.20312 78.0762 -9.0332 C 76.6113 -9.86328 75.0488 -9.375 74.1699 -7.95898 L 69.4336 0.292969 C 68.6523 1.61133 68.9941 3.32031 70.459 4.15039 Z M 24.0234 14.8438 C 25.3906 15.625 27.0996 15.0879 27.8809 13.7207 L 32.6172 5.56641 C 33.4473 4.15039 33.0078 2.49023 31.5918 1.66016 C 30.1758 0.830078 28.5645 1.31836 27.7344 2.73438 L 22.9492 10.9863 C 22.168 12.3047 22.5586 14.0137 24.0234 14.8438 Z M 77.7832 14.8438 C 79.1992 15.625 80.9082 15.0879 81.6895 13.7207 L 86.377 5.56641 C 87.207 4.15039 86.8164 2.49023 85.4004 1.66016 C 83.9355 0.830078 82.373 1.31836 81.4941 2.73438 L 76.7578 10.9863 C 75.9766 12.3047 76.3184 14.0137 77.7832 14.8438 Z"/>
  </g>
  <g id="Medium-S" transform="matrix(1 0 0 1 1695.21 696)">
   <path d="M 25.6836 -15.625 L 73.2422 -15.625 C 86.2305 -15.625 95.8496 -25.4883 95.8496 -37.793 C 95.8496 -50.4395 85.7422 -59.8145 72.4609 -59.8145 C 67.7734 -68.9453 58.9355 -75.1953 47.4121 -75.1953 C 32.6172 -75.1953 20.5566 -63.916 19.1406 -49.6582 C 12.1094 -47.4609 6.83594 -41.2598 6.83594 -33.0078 C 6.83594 -23.3398 13.916 -15.625 25.6836 -15.625 Z M 25.6836 -23.6328 C 18.3594 -23.6328 14.8438 -27.5391 14.8438 -32.7637 C 14.8438 -36.9629 17.1875 -40.7227 23.5352 -42.3828 C 25.8789 -43.0176 26.709 -44.1406 26.9531 -46.6309 C 28.0762 -59.0332 36.8164 -67.1875 47.4121 -67.1875 C 55.3223 -67.1875 61.8164 -62.8418 65.918 -54.541 C 66.9922 -52.4902 68.2129 -51.7578 70.7031 -51.7578 C 82.1289 -51.7578 87.8906 -45.3125 87.8906 -37.5977 C 87.8906 -29.7852 81.8359 -23.6328 73.5352 -23.6328 Z M 42.6758 17.0898 C 43.0176 17.2363 43.4082 17.1387 43.7988 16.748 L 62.207 -0.634766 C 63.0371 -1.46484 62.793 -2.53906 61.7188 -2.53906 L 53.5156 -2.53906 L 56.7871 -8.78906 C 57.2266 -9.61914 56.8848 -10.2539 56.0547 -10.2539 L 46.4355 -10.2539 C 45.3613 -10.2539 45.0195 -9.86328 44.6777 -9.08203 L 39.6484 2.34375 C 39.2578 3.27148 39.5996 3.85742 40.5762 3.85742 L 47.4609 3.85742 L 42.4316 16.0156 C 42.2363 16.5039 42.334 16.9434 42.6758 17.0898 Z M 16.5527 3.41797 C 17.9199 4.19922 19.5312 3.71094 20.3125 2.39258 L 25.0488 -5.81055 C 25.8301 -7.12891 25.3906 -8.74023 24.0234 -9.52148 C 22.6562 -10.3516 21.1426 -9.86328 20.3125 -8.49609 L 15.5762 -0.244141 C 14.7949 1.02539 15.1855 2.63672 16.5527 3.41797 Z M 70.2637 3.41797 C 71.6309 4.19922 73.2422 3.71094 73.9746 2.39258 L 78.7109 -5.81055 C 79.4922 -7.12891 79.1016 -8.74023 77.7344 -9.52148 C 76.3672 -10.3516 74.8047 -9.86328 74.0234 -8.49609 L 69.2383 -0.244141 C 68.5059 1.02539 68.8477 2.63672 70.2637 3.41797 Z M 23.877 14.1113 C 25.2441 14.8926 26.9043 14.4043 27.6367 13.0859 L 32.373 4.88281 C 33.1543 3.56445 32.7148 1.95312 31.3965 1.17188 C 29.9805 0.341797 28.4668 0.830078 27.6367 2.19727 L 22.9004 10.4492 C 22.1191 11.7188 22.5098 13.3301 23.877 14.1113 Z M 77.5879 14.1113 C 78.9551 14.8926 80.5664 14.4043 81.3477 13.0859 L 86.0352 4.88281 C 86.8652 3.56445 86.4258 1.95312 85.0586 1.17188 C 83.6914 0.341797 82.1289 0.830078 81.3477 2.19727 L 76.5625 10.4492 C 75.8301 11.7188 76.2207 13.3301 77.5879 14.1113 Z"/>
  </g>
  <g id="Regular-S" transform="matrix(1 0 0 1 1399.14 696)">
   <path d="M 25.1465 -16.2598 L 72.4609 -16.2598 C 85.2051 -16.2598 94.5801 -25.9277 94.5801 -37.8906 C 94.5801 -50.293 84.5215 -59.3262 71.4355 -59.3262 C 66.6504 -68.7012 57.6172 -74.707 46.7285 -74.707 C 32.1777 -74.707 20.166 -63.4277 18.8965 -49.2188 C 12.0117 -47.168 6.83594 -41.0645 6.83594 -32.959 C 6.83594 -23.6816 13.5254 -16.2598 25.1465 -16.2598 Z M 25.0488 -23.291 C 17.5293 -23.291 13.8672 -27.3438 13.8672 -32.7148 C 13.8672 -36.9141 16.1621 -40.8203 22.5586 -42.5293 C 24.9023 -43.1641 25.7324 -44.2383 25.9277 -46.7285 C 26.8555 -59.0332 35.8887 -67.6758 46.7285 -67.6758 C 54.7852 -67.6758 61.4258 -63.2812 65.5273 -54.834 C 66.5039 -52.832 67.7246 -52.0996 70.2148 -52.0996 C 81.5918 -52.0996 87.5488 -45.5078 87.5488 -37.6953 C 87.5488 -29.6875 81.25 -23.291 72.9004 -23.291 Z M 42.8223 16.0645 C 43.1641 16.2109 43.5547 16.1133 43.9453 15.6738 L 61.5723 -1.2207 C 62.3535 -2.05078 62.1094 -3.07617 61.0352 -3.07617 L 53.0762 -3.07617 L 56.4453 -9.47266 C 56.8848 -10.3027 56.543 -10.8887 55.6641 -10.8887 L 46.5332 -10.8887 C 45.5078 -10.8887 45.166 -10.498 44.8242 -9.76562 L 39.8438 1.51367 C 39.4531 2.44141 39.8438 3.02734 40.8203 3.02734 L 47.5586 3.02734 L 42.5781 15.0391 C 42.3828 15.4785 42.4805 15.918 42.8223 16.0645 Z M 16.4062 2.49023 C 17.6758 3.22266 19.2383 2.7832 19.9707 1.5625 L 24.6582 -6.64062 C 25.4395 -7.91016 25 -9.42383 23.7305 -10.2051 C 22.4121 -10.9375 20.9473 -10.498 20.2148 -9.22852 L 15.4297 -0.927734 C 14.6973 0.244141 15.0879 1.75781 16.4062 2.49023 Z M 70.0195 2.49023 C 71.2891 3.22266 72.8027 2.7832 73.5352 1.5625 L 78.2715 -6.64062 C 79.0039 -7.91016 78.6133 -9.42383 77.3438 -10.2051 C 76.0254 -10.9375 74.5605 -10.498 73.7793 -9.22852 L 68.9941 -0.927734 C 68.3105 0.244141 68.6523 1.75781 70.0195 2.49023 Z M 23.7793 13.1836 C 25.0488 13.916 26.6113 13.4766 27.2949 12.2559 L 32.0312 4.05273 C 32.7637 2.7832 32.373 1.26953 31.1035 0.488281 C 29.7852 -0.244141 28.3203 0.195312 27.5391 1.46484 L 22.7539 9.76562 C 22.0703 10.9375 22.4609 12.4512 23.7793 13.1836 Z M 77.3438 13.1836 C 78.6133 13.916 80.1758 13.4766 80.9082 12.2559 L 85.5957 4.05273 C 86.377 2.7832 85.9375 1.26953 84.668 0.488281 C 83.3496 -0.244141 81.8848 0.195312 81.1035 1.46484 L 76.3672 9.76562 C 75.6348 10.9375 76.0254 12.4512 77.3438 13.1836 Z"/>
  </g>
  <g id="Light-S" transform="matrix(1 0 0 1 1102.79 696)">
   <path d="M 24.5605 -17.1387 L 72.168 -17.1387 C 84.5703 -17.1387 93.8477 -26.5137 93.8477 -38.1836 C 93.8477 -50.2441 83.9844 -59.0332 71.1426 -59.0332 C 66.3574 -68.5547 57.6172 -74.707 46.4355 -74.707 C 32.1777 -74.707 20.4102 -63.4277 19.1895 -49.2188 C 12.207 -47.2168 6.83594 -41.3086 6.83594 -33.252 C 6.83594 -24.3652 13.3301 -17.1387 24.5605 -17.1387 Z M 24.5117 -22.5586 C 16.4062 -22.5586 12.207 -27.1973 12.207 -33.1055 C 12.207 -38.0371 15.2344 -42.334 21.8262 -44.0918 C 23.7305 -44.5801 24.4629 -45.459 24.6094 -47.4121 C 25.4395 -60.0098 35.1074 -69.3359 46.4355 -69.3359 C 55.4688 -69.3359 62.4023 -64.3066 66.5039 -55.8105 C 67.334 -54.1016 68.3594 -53.5156 70.459 -53.5156 C 81.6895 -53.5156 88.4766 -46.5332 88.4766 -38.0371 C 88.4766 -29.4434 81.543 -22.5586 72.4609 -22.5586 Z M 43.6035 14.8438 C 43.9453 14.9902 44.3848 14.8926 44.7754 14.4531 L 59.7656 -1.46484 C 60.498 -2.29492 60.2051 -3.27148 59.1309 -3.27148 L 51.8066 -3.27148 L 55.4688 -10.1562 C 55.9082 -10.9863 55.5664 -11.6211 54.6875 -11.6211 L 47.6562 -11.6211 C 46.582 -11.6211 46.2402 -11.2305 45.8984 -10.4492 L 41.0645 0.537109 C 40.6738 1.46484 41.1133 2.05078 42.0898 2.05078 L 48.1934 2.05078 L 43.3594 13.7695 C 43.1152 14.2578 43.2617 14.6973 43.6035 14.8438 Z M 16.4551 1.75781 C 17.4805 2.34375 18.7012 2.00195 19.2871 0.976562 L 24.5117 -8.05664 C 25.1465 -9.13086 24.8047 -10.3027 23.7793 -10.9375 C 22.7539 -11.5234 21.582 -11.1816 20.9473 -10.1074 L 15.7227 -1.02539 C 15.1367 -0.0488281 15.3809 1.17188 16.4551 1.75781 Z M 69.2871 1.75781 C 70.3125 2.34375 71.582 2.00195 72.168 0.976562 L 77.3438 -8.05664 C 77.9785 -9.13086 77.6367 -10.3027 76.6113 -10.9375 C 75.5859 -11.5234 74.4141 -11.1816 73.7793 -10.1074 L 68.5547 -1.02539 C 67.9688 -0.0488281 68.2617 1.17188 69.2871 1.75781 Z M 23.9258 12.4512 C 24.9512 13.0371 26.1719 12.6953 26.8066 11.6699 L 31.9824 2.63672 C 32.6172 1.5625 32.2754 0.390625 31.25 -0.244141 C 30.2246 -0.830078 29.0527 -0.488281 28.418 0.585938 L 23.1934 9.66797 C 22.6074 10.6445 22.9004 11.8652 23.9258 12.4512 Z M 76.8066 12.4512 C 77.832 13.0371 79.0527 12.6953 79.6387 11.6699 L 84.8145 2.63672 C 85.4492 1.5625 85.1562 0.390625 84.1309 -0.244141 C 83.0566 -0.830078 81.8848 -0.488281 81.25 0.585938 L 76.0254 9.66797 C 75.4395 10.6445 75.7324 11.8652 76.8066 12.4512 Z"/>
  </g>
  <g id="Thin-S" transform="matrix(1 0 0 1 806.544 696)">
   <path d="M 23.7793 -18.3105 L 71.7773 -18.3105 C 83.7402 -18.3105 92.9199 -27.3438 92.9199 -38.623 C 92.9199 -50.1465 83.252 -58.6426 70.752 -58.6426 C 65.9668 -68.4082 57.6172 -74.707 46.0449 -74.707 C 32.1777 -74.707 20.752 -63.4277 19.5801 -49.2188 C 12.4512 -47.3145 6.83594 -41.6504 6.83594 -33.6426 C 6.83594 -25.2441 13.0859 -18.3105 23.7793 -18.3105 Z M 23.7793 -21.5332 C 14.8926 -21.5332 10.0586 -26.9531 10.0586 -33.5938 C 10.0586 -39.5508 14.0137 -44.2871 20.8008 -46.0938 C 22.2656 -46.4844 22.7051 -47.0703 22.8027 -48.3887 C 23.584 -61.2793 34.082 -71.4844 46.0449 -71.4844 C 56.2988 -71.4844 63.6719 -65.7227 67.8223 -57.0801 C 68.457 -55.8105 69.1895 -55.3711 70.752 -55.3711 C 81.8359 -55.3711 89.6484 -47.8516 89.6484 -38.4766 C 89.6484 -29.1504 81.8848 -21.5332 71.9238 -21.5332 Z M 44.6289 13.2812 C 45.0195 13.4277 45.5078 13.2812 45.8496 12.793 L 57.4219 -1.80664 C 58.0566 -2.63672 57.7148 -3.56445 56.6406 -3.56445 L 50.1465 -3.56445 L 54.1992 -11.084 C 54.6387 -11.9141 54.2969 -12.5488 53.418 -12.5488 L 49.1699 -12.5488 C 48.0469 -12.5488 47.6562 -12.1582 47.3145 -11.377 L 42.6758 -0.732422 C 42.2363 0.244141 42.8223 0.78125 43.75 0.78125 L 49.1211 0.78125 L 44.3848 12.1094 C 44.1406 12.6953 44.2871 13.1348 44.6289 13.2812 Z M 16.5039 0.830078 C 17.2363 1.2207 18.0176 0.976562 18.457 0.146484 L 24.2676 -9.86328 C 24.7559 -10.6934 24.5605 -11.4746 23.8281 -11.8652 C 23.1445 -12.2559 22.3633 -12.0605 21.875 -11.2305 L 16.0645 -1.17188 C 15.625 -0.390625 15.8203 0.390625 16.5039 0.830078 Z M 68.4082 0.830078 C 69.0918 1.2207 69.9219 0.976562 70.3613 0.146484 L 76.1719 -9.86328 C 76.6602 -10.6934 76.416 -11.4746 75.7324 -11.8652 C 75.0488 -12.2559 74.2676 -12.0605 73.7793 -11.2305 L 67.9688 -1.17188 C 67.5293 -0.390625 67.6758 0.390625 68.4082 0.830078 Z M 24.1699 11.5234 C 24.8535 11.9141 25.6836 11.6699 26.123 10.8398 L 31.9336 0.830078 C 32.4219 0 32.1777 -0.78125 31.4941 -1.17188 C 30.8105 -1.5625 30.0293 -1.36719 29.541 -0.537109 L 23.7305 9.52148 C 23.291 10.3027 23.4375 11.084 24.1699 11.5234 Z M 76.0742 11.5234 C 76.7578 11.9141 77.5391 11.6699 77.9785 10.8398 L 83.7891 0.830078 C 84.2773 0 84.082 -0.78125 83.3984 -1.17188 C 82.7148 -1.5625 81.9336 -1.36719 81.4453 -0.537109 L 75.6348 9.52148 C 75.1953 10.3027 75.3418 11.084 76.0742 11.5234 Z"/>
  </g>
  <g id="Ultralight-S" transform="matrix(1 0 0 1 510.102 696)">
   <path d="M 23.3887 -18.8965 L 71.582 -18.8965 C 83.3008 -18.8965 92.3828 -27.7344 92.3828 -38.8184 C 92.3828 -50.0977 82.9102 -58.4473 70.5566 -58.4473 C 65.7715 -68.3105 57.6172 -74.707 45.8496 -74.707 C 32.1777 -74.707 20.9473 -63.4277 19.7754 -49.2188 C 12.5977 -47.3633 6.83594 -41.7969 6.83594 -33.8379 C 6.83594 -25.6836 12.9395 -18.8965 23.3887 -18.8965 Z M 23.3887 -20.9961 C 14.1602 -20.9961 8.93555 -26.8555 8.93555 -33.8379 C 8.93555 -40.2832 13.3789 -45.3125 20.2637 -47.1191 C 21.4844 -47.4121 21.8262 -47.9004 21.875 -48.877 C 22.6074 -61.9141 33.5449 -72.6074 45.8496 -72.6074 C 56.7383 -72.6074 64.3555 -66.4551 68.5059 -57.7637 C 68.9941 -56.6895 69.6289 -56.3477 70.8984 -56.3477 C 81.9336 -56.3477 90.2832 -48.584 90.2832 -38.7207 C 90.2832 -29.0039 82.0801 -20.9961 71.582 -20.9961 Z M 45.166 12.4512 C 45.5566 12.5977 46.0449 12.4512 46.3867 11.9141 L 56.2012 -1.95312 C 56.7871 -2.83203 56.3965 -3.71094 55.3223 -3.71094 L 49.3164 -3.71094 L 53.5156 -11.5723 C 53.9551 -12.4023 53.6133 -13.0859 52.7344 -13.0859 L 49.9023 -13.0859 C 48.7793 -13.0859 48.4375 -12.6953 48.0957 -11.8652 L 43.5059 -1.41602 C 43.0664 -0.390625 43.7012 0.146484 44.6289 0.146484 L 49.5605 0.146484 L 44.9219 11.2793 C 44.6777 11.8652 44.8242 12.3047 45.166 12.4512 Z M 16.5527 0.292969 C 17.0898 0.634766 17.6758 0.439453 18.0176 -0.244141 L 24.1699 -10.8398 C 24.5605 -11.4746 24.4141 -12.0605 23.877 -12.4023 C 23.3887 -12.6465 22.8027 -12.5 22.4121 -11.8164 L 16.2598 -1.26953 C 15.918 -0.585938 16.0156 0 16.5527 0.292969 Z M 67.9199 0.292969 C 68.457 0.634766 69.043 0.439453 69.3848 -0.244141 L 75.5371 -10.8398 C 75.9277 -11.4746 75.7812 -12.0605 75.2441 -12.4023 C 74.7559 -12.6465 74.1699 -12.5 73.7793 -11.8164 L 67.627 -1.26953 C 67.2852 -0.585938 67.3828 0 67.9199 0.292969 Z M 24.2676 10.9863 C 24.8047 11.3281 25.3906 11.1328 25.7812 10.4492 L 31.8848 -0.146484 C 32.3242 -0.78125 32.1289 -1.36719 31.5918 -1.70898 C 31.1523 -1.95312 30.5664 -1.80664 30.127 -1.12305 L 24.0234 9.42383 C 23.6328 10.1074 23.7793 10.6934 24.2676 10.9863 Z M 75.6836 10.9863 C 76.2207 11.3281 76.8066 11.1328 77.1484 10.4492 L 83.252 -0.146484 C 83.6914 -0.78125 83.5449 -1.36719 83.0078 -1.70898 C 82.5195 -1.95312 81.9336 -1.80664 81.543 -1.12305 L 75.3906 9.42383 C 75.0488 10.1074 75.1465 10.6934 75.6836 10.9863 Z"/>
  </g>
 </g>
</svg>
