<?xml version="1.0" encoding="UTF-8"?>
<!--Generator: Apple Native CoreSVG 123-->
<!DOCTYPE svg
PUBLIC "-//W3C//DTD SVG 1.1//EN"
       "http://www.w3.org/Graphics/SVG/1.1/DTD/svg11.dtd">
<svg version="1.1" xmlns="http://www.w3.org/2000/svg" xmlns:xlink="http://www.w3.org/1999/xlink" width="3300" height="2200">
 <!--glyph: "uni1001E1.medium", point size: 100.000000, font version: "Version 15.0d7e11", template writer version: "5"-->
 <g id="Notes">
  <rect height="2200" id="artboard" style="fill:white;opacity:1" width="3300" x="0" y="0"/>
  <line id="" style="fill:none;stroke:black;opacity:1;stroke-width:0.5;" x1="263" x2="3036" y1="292" y2="292"/>
  <text style="stroke:none;fill:black;font-family:-apple-system,&quot;SF Pro Display&quot;,&quot;SF Pro Text&quot;,Helvetica,sans-serif;font-weight:bold;" transform="matrix(1 0 0 1 263 322)">Weight/Scale Variations</text>
  <text style="stroke:none;fill:black;font-family:-apple-system,&quot;SF Pro Display&quot;,&quot;SF Pro Text&quot;,Helvetica,sans-serif;text-anchor:middle;" transform="matrix(1 0 0 1 559.711 322)">Ultralight</text>
  <text style="stroke:none;fill:black;font-family:-apple-system,&quot;SF Pro Display&quot;,&quot;SF Pro Text&quot;,Helvetica,sans-serif;text-anchor:middle;" transform="matrix(1 0 0 1 856.422 322)">Thin</text>
  <text style="stroke:none;fill:black;font-family:-apple-system,&quot;SF Pro Display&quot;,&quot;SF Pro Text&quot;,Helvetica,sans-serif;text-anchor:middle;" transform="matrix(1 0 0 1 1153.13 322)">Light</text>
  <text style="stroke:none;fill:black;font-family:-apple-system,&quot;SF Pro Display&quot;,&quot;SF Pro Text&quot;,Helvetica,sans-serif;text-anchor:middle;" transform="matrix(1 0 0 1 1449.84 322)">Regular</text>
  <text style="stroke:none;fill:black;font-family:-apple-system,&quot;SF Pro Display&quot;,&quot;SF Pro Text&quot;,Helvetica,sans-serif;text-anchor:middle;" transform="matrix(1 0 0 1 1746.56 322)">Medium</text>
  <text style="stroke:none;fill:black;font-family:-apple-system,&quot;SF Pro Display&quot;,&quot;SF Pro Text&quot;,Helvetica,sans-serif;text-anchor:middle;" transform="matrix(1 0 0 1 2043.27 322)">Semibold</text>
  <text style="stroke:none;fill:black;font-family:-apple-system,&quot;SF Pro Display&quot;,&quot;SF Pro Text&quot;,Helvetica,sans-serif;text-anchor:middle;" transform="matrix(1 0 0 1 2339.98 322)">Bold</text>
  <text style="stroke:none;fill:black;font-family:-apple-system,&quot;SF Pro Display&quot;,&quot;SF Pro Text&quot;,Helvetica,sans-serif;text-anchor:middle;" transform="matrix(1 0 0 1 2636.69 322)">Heavy</text>
  <text style="stroke:none;fill:black;font-family:-apple-system,&quot;SF Pro Display&quot;,&quot;SF Pro Text&quot;,Helvetica,sans-serif;text-anchor:middle;" transform="matrix(1 0 0 1 2933.4 322)">Black</text>
  <line id="" style="fill:none;stroke:black;opacity:1;stroke-width:0.5;" x1="263" x2="3036" y1="1903" y2="1903"/>
  <g id="" transform="matrix(1 0 0 1 263 1933)">
   <path d="M 9.24805 0.830078 C 13.5547 0.830078 17.1387 -2.74414 17.1387 -7.05078 C 17.1387 -11.3574 13.5449 -14.9316 9.23828 -14.9316 C 4.94141 -14.9316 1.36719 -11.3574 1.36719 -7.05078 C 1.36719 -2.74414 4.95117 0.830078 9.24805 0.830078 Z M 9.24805 -0.654297 C 5.70312 -0.654297 2.87109 -3.49609 2.87109 -7.05078 C 2.87109 -10.6055 5.69336 -13.4473 9.23828 -13.4473 C 12.793 -13.4473 15.6348 -10.6055 15.6445 -7.05078 C 15.6543 -3.49609 12.8027 -0.654297 9.24805 -0.654297 Z M 9.22852 -3.42773 C 9.69727 -3.42773 9.9707 -3.74023 9.9707 -4.25781 L 9.9707 -6.31836 L 12.1973 -6.31836 C 12.6953 -6.31836 13.0371 -6.57227 13.0371 -7.04102 C 13.0371 -7.51953 12.7148 -7.7832 12.1973 -7.7832 L 9.9707 -7.7832 L 9.9707 -10.0098 C 9.9707 -10.5273 9.69727 -10.8496 9.22852 -10.8496 C 8.75977 -10.8496 8.50586 -10.5078 8.50586 -10.0098 L 8.50586 -7.7832 L 6.29883 -7.7832 C 5.78125 -7.7832 5.44922 -7.51953 5.44922 -7.04102 C 5.44922 -6.57227 5.80078 -6.31836 6.29883 -6.31836 L 8.50586 -6.31836 L 8.50586 -4.25781 C 8.50586 -3.75977 8.75977 -3.42773 9.22852 -3.42773 Z"/>
  </g>
  <g id="" transform="matrix(1 0 0 1 281.506 1933)">
   <path d="M 11.709 2.91016 C 17.1582 2.91016 21.6699 -1.60156 21.6699 -7.05078 C 21.6699 -12.4902 17.1484 -17.0117 11.6992 -17.0117 C 6.25977 -17.0117 1.74805 -12.4902 1.74805 -7.05078 C 1.74805 -1.60156 6.26953 2.91016 11.709 2.91016 Z M 11.709 1.25 C 7.09961 1.25 3.41797 -2.44141 3.41797 -7.05078 C 3.41797 -11.6504 7.08984 -15.3516 11.6992 -15.3516 C 16.3086 -15.3516 20 -11.6504 20.0098 -7.05078 C 20.0195 -2.44141 16.3184 1.25 11.709 1.25 Z M 11.6895 -2.41211 C 12.207 -2.41211 12.5195 -2.77344 12.5195 -3.33984 L 12.5195 -6.23047 L 15.5762 -6.23047 C 16.123 -6.23047 16.5039 -6.51367 16.5039 -7.03125 C 16.5039 -7.55859 16.1426 -7.86133 15.5762 -7.86133 L 12.5195 -7.86133 L 12.5195 -10.9277 C 12.5195 -11.5039 12.207 -11.8555 11.6895 -11.8555 C 11.1719 -11.8555 10.8789 -11.4844 10.8789 -10.9277 L 10.8789 -7.86133 L 7.83203 -7.86133 C 7.26562 -7.86133 6.89453 -7.55859 6.89453 -7.03125 C 6.89453 -6.51367 7.28516 -6.23047 7.83203 -6.23047 L 10.8789 -6.23047 L 10.8789 -3.33984 C 10.8789 -2.79297 11.1719 -2.41211 11.6895 -2.41211 Z"/>
  </g>
  <g id="" transform="matrix(1 0 0 1 304.924 1933)">
   <path d="M 14.9707 5.67383 C 21.9336 5.67383 27.6953 -0.078125 27.6953 -7.04102 C 27.6953 -14.0039 21.9238 -19.7559 14.9609 -19.7559 C 8.00781 -19.7559 2.25586 -14.0039 2.25586 -7.04102 C 2.25586 -0.078125 8.01758 5.67383 14.9707 5.67383 Z M 14.9707 3.85742 C 8.93555 3.85742 4.08203 -1.00586 4.08203 -7.04102 C 4.08203 -13.0762 8.92578 -17.9395 14.9609 -17.9395 C 21.0059 -17.9395 25.8594 -13.0762 25.8691 -7.04102 C 25.8789 -1.00586 21.0156 3.85742 14.9707 3.85742 Z M 14.9512 -1.06445 C 15.5176 -1.06445 15.8691 -1.45508 15.8691 -2.06055 L 15.8691 -6.13281 L 20.1074 -6.13281 C 20.6934 -6.13281 21.1133 -6.46484 21.1133 -7.02148 C 21.1133 -7.59766 20.7227 -7.93945 20.1074 -7.93945 L 15.8691 -7.93945 L 15.8691 -12.1875 C 15.8691 -12.8027 15.5176 -13.1934 14.9512 -13.1934 C 14.3848 -13.1934 14.0625 -12.7832 14.0625 -12.1875 L 14.0625 -7.93945 L 9.83398 -7.93945 C 9.21875 -7.93945 8.80859 -7.59766 8.80859 -7.02148 C 8.80859 -6.46484 9.23828 -6.13281 9.83398 -6.13281 L 14.0625 -6.13281 L 14.0625 -2.06055 C 14.0625 -1.47461 14.3848 -1.06445 14.9512 -1.06445 Z"/>
  </g>
  <text style="stroke:none;fill:black;font-family:-apple-system,&quot;SF Pro Display&quot;,&quot;SF Pro Text&quot;,Helvetica,sans-serif;font-weight:bold;" transform="matrix(1 0 0 1 263 1953)">Design Variations</text>
  <text style="stroke:none;fill:black;font-family:-apple-system,&quot;SF Pro Display&quot;,&quot;SF Pro Text&quot;,Helvetica,sans-serif;" transform="matrix(1 0 0 1 263 1971)">Symbols are supported in up to nine weights and three scales.</text>
  <text style="stroke:none;fill:black;font-family:-apple-system,&quot;SF Pro Display&quot;,&quot;SF Pro Text&quot;,Helvetica,sans-serif;" transform="matrix(1 0 0 1 263 1989)">For optimal layout with text and other symbols, vertically align</text>
  <text style="stroke:none;fill:black;font-family:-apple-system,&quot;SF Pro Display&quot;,&quot;SF Pro Text&quot;,Helvetica,sans-serif;" transform="matrix(1 0 0 1 263 2007)">symbols with the adjacent text.</text>
  <rect height="14" id="" style="fill:#00AEEF;stroke:none;opacity:0.4;" width="3" x="776" y="1919"/>
  <g id="" transform="matrix(1 0 0 1 779 1933)">
   <path d="M 10.5273 0 L 12.373 0 L 7.17773 -14.0918 L 5.43945 -14.0918 L 0.244141 0 L 2.08984 0 L 3.50586 -4.0332 L 9.11133 -4.0332 Z M 6.2793 -11.9531 L 6.33789 -11.9531 L 8.59375 -5.52734 L 4.02344 -5.52734 Z"/>
  </g>
  <rect height="14" id="" style="fill:#00AEEF;stroke:none;opacity:0.4;" width="3" x="791.617" y="1919"/>
  <text style="stroke:none;fill:black;font-family:-apple-system,&quot;SF Pro Display&quot;,&quot;SF Pro Text&quot;,Helvetica,sans-serif;font-weight:bold;" transform="matrix(1 0 0 1 776 1953)">Margins</text>
  <text style="stroke:none;fill:black;font-family:-apple-system,&quot;SF Pro Display&quot;,&quot;SF Pro Text&quot;,Helvetica,sans-serif;" transform="matrix(1 0 0 1 776 1971)">Leading and trailing margins on the left and right side of each symbol</text>
  <text style="stroke:none;fill:black;font-family:-apple-system,&quot;SF Pro Display&quot;,&quot;SF Pro Text&quot;,Helvetica,sans-serif;" transform="matrix(1 0 0 1 776 1989)">can be adjusted by modifying the width of the blue rectangles.</text>
  <text style="stroke:none;fill:black;font-family:-apple-system,&quot;SF Pro Display&quot;,&quot;SF Pro Text&quot;,Helvetica,sans-serif;" transform="matrix(1 0 0 1 776 2007)">Modifications are automatically applied proportionally to all</text>
  <text style="stroke:none;fill:black;font-family:-apple-system,&quot;SF Pro Display&quot;,&quot;SF Pro Text&quot;,Helvetica,sans-serif;" transform="matrix(1 0 0 1 776 2025)">scales and weights.</text>
  <g id="" transform="matrix(1 0 0 1 1289 1933)">
   <path d="M 2.83203 3.11523 L 4.375 4.6582 C 5.22461 5.48828 6.19141 5.41992 7.06055 4.46289 L 17.2754 -6.66016 C 17.7051 -6.36719 18.0957 -6.37695 18.5645 -6.47461 L 19.6094 -6.68945 L 20.3027 -5.99609 L 20.2539 -5.47852 C 20.1855 -4.95117 20.3516 -4.53125 20.8496 -4.0332 L 21.6602 -3.22266 C 22.168 -2.71484 22.8223 -2.68555 23.3008 -3.16406 L 26.5527 -6.41602 C 27.0312 -6.89453 27.0117 -7.54883 26.5039 -8.05664 L 25.6836 -8.87695 C 25.1855 -9.375 24.7754 -9.55078 24.2383 -9.47266 L 23.7109 -9.41406 L 23.0566 -10.0781 L 23.3398 -11.2207 C 23.4863 -11.7871 23.3398 -12.2559 22.7148 -12.8613 L 20.3027 -15.2539 C 16.7578 -18.7793 12.2266 -18.6719 9.11133 -15.5371 C 8.69141 -15.1074 8.64258 -14.5215 8.91602 -14.0918 C 9.15039 -13.7207 9.62891 -13.4961 10.2734 -13.6621 C 11.7871 -14.043 13.3008 -13.9258 14.7852 -12.9199 L 14.1602 -11.3379 C 13.9258 -10.752 13.9453 -10.2734 14.1797 -9.83398 L 3.01758 0.439453 C 2.08008 1.30859 1.97266 2.25586 2.83203 3.11523 Z M 10.6738 -15.1465 C 13.3398 -17.1387 16.6504 -16.8262 19.0527 -14.4141 L 21.6797 -11.8066 C 21.9141 -11.5723 21.9434 -11.3867 21.8848 -11.0938 L 21.5039 -9.53125 L 23.0762 -7.95898 L 24.043 -8.04688 C 24.3262 -8.07617 24.4141 -8.05664 24.6387 -7.83203 L 25.2637 -7.20703 L 22.5098 -4.46289 L 21.8848 -5.07812 C 21.6602 -5.30273 21.6406 -5.40039 21.6699 -5.68359 L 21.7578 -6.64062 L 20.1953 -8.20312 L 18.5742 -7.89062 C 18.291 -7.83203 18.1445 -7.83203 17.9102 -8.07617 L 15.7324 -10.2539 C 15.5078 -10.4883 15.4785 -10.625 15.6055 -10.9473 L 16.5527 -13.2227 C 14.9512 -14.7559 12.8418 -15.6055 10.8008 -14.9512 C 10.7129 -14.9219 10.6445 -14.9414 10.6152 -14.9805 C 10.5859 -15.0293 10.5859 -15.0781 10.6738 -15.1465 Z M 4.10156 2.41211 C 3.61328 1.91406 3.78906 1.61133 4.12109 1.30859 L 15.0781 -8.80859 L 16.3086 -7.57812 L 6.15234 3.34961 C 5.84961 3.68164 5.46875 3.7793 5.06836 3.37891 Z"/>
  </g>
  <text style="stroke:none;fill:black;font-family:-apple-system,&quot;SF Pro Display&quot;,&quot;SF Pro Text&quot;,Helvetica,sans-serif;font-weight:bold;" transform="matrix(1 0 0 1 1289 1953)">Exporting</text>
  <text style="stroke:none;fill:black;font-family:-apple-system,&quot;SF Pro Display&quot;,&quot;SF Pro Text&quot;,Helvetica,sans-serif;" transform="matrix(1 0 0 1 1289 1971)">Symbols should be outlined when exporting to ensure the</text>
  <text style="stroke:none;fill:black;font-family:-apple-system,&quot;SF Pro Display&quot;,&quot;SF Pro Text&quot;,Helvetica,sans-serif;" transform="matrix(1 0 0 1 1289 1989)">design is preserved when submitting to Xcode.</text>
  <text id="template-version" style="stroke:none;fill:black;font-family:-apple-system,&quot;SF Pro Display&quot;,&quot;SF Pro Text&quot;,Helvetica,sans-serif;text-anchor:end;" transform="matrix(1 0 0 1 3036 1933)">Template v.1.0</text>
  <text style="stroke:none;fill:black;font-family:-apple-system,&quot;SF Pro Display&quot;,&quot;SF Pro Text&quot;,Helvetica,sans-serif;text-anchor:end;" transform="matrix(1 0 0 1 3036 1951)">Generated from cloud.moon.bolt.fill</text>
  <text style="stroke:none;fill:black;font-family:-apple-system,&quot;SF Pro Display&quot;,&quot;SF Pro Text&quot;,Helvetica,sans-serif;text-anchor:end;" transform="matrix(1 0 0 1 3036 1969)">Typeset at 100 points</text>
  <text style="stroke:none;fill:black;font-family:-apple-system,&quot;SF Pro Display&quot;,&quot;SF Pro Text&quot;,Helvetica,sans-serif;" transform="matrix(1 0 0 1 263 726)">Small</text>
  <text style="stroke:none;fill:black;font-family:-apple-system,&quot;SF Pro Display&quot;,&quot;SF Pro Text&quot;,Helvetica,sans-serif;" transform="matrix(1 0 0 1 263 1156)">Medium</text>
  <text style="stroke:none;fill:black;font-family:-apple-system,&quot;SF Pro Display&quot;,&quot;SF Pro Text&quot;,Helvetica,sans-serif;" transform="matrix(1 0 0 1 263 1586)">Large</text>
 </g>
 <g id="Guides">
  <g id="H-reference" style="fill:#27AAE1;stroke:none;" transform="matrix(1 0 0 1 339 696)">
   <path d="M 54.9316 0 L 57.666 0 L 30.5664 -70.459 L 28.0762 -70.459 L 0.976562 0 L 3.66211 0 L 12.9395 -24.4629 L 45.7031 -24.4629 Z M 29.1992 -67.0898 L 29.4434 -67.0898 L 44.8242 -26.709 L 13.8184 -26.709 Z"/>
  </g>
  <line id="Baseline-S" style="fill:none;stroke:#27AAE1;opacity:1;stroke-width:0.577;" x1="263" x2="3036" y1="696" y2="696"/>
  <line id="Capline-S" style="fill:none;stroke:#27AAE1;opacity:1;stroke-width:0.577;" x1="263" x2="3036" y1="625.541" y2="625.541"/>
  <g id="H-reference" style="fill:#27AAE1;stroke:none;" transform="matrix(1 0 0 1 339 1126)">
   <path d="M 54.9316 0 L 57.666 0 L 30.5664 -70.459 L 28.0762 -70.459 L 0.976562 0 L 3.66211 0 L 12.9395 -24.4629 L 45.7031 -24.4629 Z M 29.1992 -67.0898 L 29.4434 -67.0898 L 44.8242 -26.709 L 13.8184 -26.709 Z"/>
  </g>
  <line id="Baseline-M" style="fill:none;stroke:#27AAE1;opacity:1;stroke-width:0.577;" x1="263" x2="3036" y1="1126" y2="1126"/>
  <line id="Capline-M" style="fill:none;stroke:#27AAE1;opacity:1;stroke-width:0.577;" x1="263" x2="3036" y1="1055.54" y2="1055.54"/>
  <g id="H-reference" style="fill:#27AAE1;stroke:none;" transform="matrix(1 0 0 1 339 1556)">
   <path d="M 54.9316 0 L 57.666 0 L 30.5664 -70.459 L 28.0762 -70.459 L 0.976562 0 L 3.66211 0 L 12.9395 -24.4629 L 45.7031 -24.4629 Z M 29.1992 -67.0898 L 29.4434 -67.0898 L 44.8242 -26.709 L 13.8184 -26.709 Z"/>
  </g>
  <line id="Baseline-L" style="fill:none;stroke:#27AAE1;opacity:1;stroke-width:0.577;" x1="263" x2="3036" y1="1556" y2="1556"/>
  <line id="Capline-L" style="fill:none;stroke:#27AAE1;opacity:1;stroke-width:0.577;" x1="263" x2="3036" y1="1485.54" y2="1485.54"/>
  <rect height="119.336" id="left-margin" style="fill:#00AEEF;stroke:none;opacity:0.4;" width="8.74023" x="1376.92" y="1030.79"/>
  <rect height="119.336" id="right-margin" style="fill:#00AEEF;stroke:none;opacity:0.4;" width="8.74023" x="1514.03" y="1030.79"/>
 </g>
 <g id="Symbols">
  <g id="Black-L" transform="matrix(1 0 0 1 2833.11 1556)">
   <path d="M 158.838 -31.3965 C 177.539 -36.6699 189.307 -52.832 189.307 -64.2578 C 189.307 -67.1875 188.086 -69.2871 185.791 -69.2871 C 182.031 -69.2871 177.148 -65.332 167.676 -65.2832 C 153.076 -65.1855 144.043 -74.1699 144.043 -87.6465 C 144.043 -96.875 147.803 -103.369 147.803 -107.373 C 147.803 -109.619 146.289 -111.084 143.652 -111.035 C 133.057 -110.791 115.82 -98.7793 111.523 -80.4688 C 114.258 -77.832 116.748 -74.5605 118.75 -70.5566 C 138.379 -69.7266 156.689 -54.1016 158.838 -31.3965 Z M 39.1602 7.32422 L 114.844 7.32422 C 133.35 7.32422 147.314 -7.03125 147.314 -26.0254 C 147.314 -45.752 132.471 -60.2539 112.109 -60.1562 C 105.615 -72.3145 93.2617 -83.0566 73.3887 -83.0566 C 50.7324 -83.0566 32.0801 -66.3086 30.2734 -44.1895 C 18.75 -41.1133 11.2793 -31.2012 11.2793 -18.8965 C 11.2793 -3.27148 22.5586 7.32422 39.1602 7.32422 Z M 97.8027 29.7363 L 83.1055 29.7363 L 88.2324 19.873 C 88.9648 18.5059 88.4277 17.4316 86.9629 17.4316 L 68.6035 17.4316 C 66.7969 17.4316 66.2109 18.0664 65.625 19.3848 L 56.8848 39.2578 C 56.25 40.7715 56.8359 41.7969 58.4961 41.7969 L 70.459 41.7969 L 61.8164 62.7441 C 61.4746 63.5742 61.6699 64.3066 62.2559 64.5508 C 62.793 64.7461 63.4766 64.5996 64.209 63.9648 L 98.7305 32.959 C 100.244 31.6895 99.707 29.7363 97.8027 29.7363 Z"/>
  </g>
  <g id="Heavy-L" transform="matrix(1 0 0 1 2537.98 1556)">
   <path d="M 155.371 -30.9082 C 174.512 -35.791 186.133 -51.8555 186.133 -62.8418 C 186.133 -65.625 184.961 -67.5781 182.764 -67.5781 C 179.248 -67.5781 174.316 -63.6719 165.137 -63.623 C 150.342 -63.5254 141.064 -72.6562 141.064 -86.377 C 141.064 -95.3125 144.922 -101.709 144.922 -105.518 C 144.922 -107.617 143.457 -109.033 140.869 -108.984 C 129.834 -108.594 113.477 -96.1914 109.57 -78.3203 C 112.061 -75.8789 114.355 -72.8516 116.211 -69.0918 C 136.035 -68.1152 153.564 -52.6367 155.371 -30.9082 Z M 38.5742 6.25 L 112.598 6.25 C 130.859 6.25 144.727 -7.86133 144.727 -26.3672 C 144.727 -45.5078 130.127 -59.6191 110.156 -59.5703 C 103.467 -72.2168 90.9668 -82.373 72.168 -82.373 C 50.0977 -82.373 31.8359 -65.8203 29.9805 -43.9941 C 18.6035 -40.918 11.2793 -31.25 11.2793 -19.2871 C 11.2793 -4.10156 22.3633 6.25 38.5742 6.25 Z M 95.5566 28.8086 L 81.4941 28.8086 L 86.8652 18.6035 C 87.5977 17.2363 87.0117 16.1621 85.5957 16.1621 L 68.8965 16.1621 C 67.1387 16.1621 66.5039 16.7969 65.918 18.1152 L 57.4219 37.5977 C 56.7383 39.1113 57.373 40.0879 58.9844 40.0879 L 70.5078 40.0879 L 62.0117 60.5957 C 61.6699 61.4746 61.8652 62.1582 62.4512 62.4023 C 63.0371 62.6465 63.7207 62.5 64.4043 61.8164 L 96.5332 31.9824 C 97.9492 30.7129 97.4121 28.8086 95.5566 28.8086 Z"/>
  </g>
  <g id="Bold-L" transform="matrix(1 0 0 1 2243.05 1556)">
   <path d="M 151.465 -30.3223 C 171.143 -34.7656 182.568 -50.7812 182.568 -61.2793 C 182.568 -63.8184 181.445 -65.6738 179.395 -65.6738 C 176.123 -65.6738 171.143 -61.8164 162.354 -61.7676 C 147.266 -61.7188 137.744 -70.9961 137.744 -84.9121 C 137.744 -93.6035 141.699 -99.8535 141.699 -103.369 C 141.699 -105.42 140.332 -106.738 137.793 -106.689 C 126.221 -106.104 110.889 -93.2617 107.373 -75.9277 C 109.619 -73.7305 111.67 -70.9473 113.379 -67.4805 C 133.496 -66.2598 150.098 -50.9766 151.465 -30.3223 Z M 37.9883 5.0293 L 110.059 5.0293 C 128.076 5.0293 141.846 -8.78906 141.846 -26.8066 C 141.846 -45.2148 127.49 -58.8867 108.008 -58.8867 C 101.025 -72.1191 88.3789 -81.5918 70.8008 -81.5918 C 49.4141 -81.5918 31.4941 -65.2344 29.6875 -43.8477 C 18.457 -40.7227 11.2793 -31.2988 11.2793 -19.6777 C 11.2793 -5.0293 22.1191 5.0293 37.9883 5.0293 Z M 93.0176 27.7832 L 79.6875 27.7832 L 85.3027 17.1875 C 85.9863 15.8203 85.4492 14.7461 84.0332 14.7461 L 69.2383 14.7461 C 67.4805 14.7461 66.8457 15.3809 66.3086 16.6992 L 57.959 35.6934 C 57.3242 37.207 57.959 38.1836 59.5703 38.1836 L 70.6055 38.1836 L 62.2559 58.252 C 61.9141 59.1309 62.1094 59.8145 62.6953 60.0586 C 63.2812 60.3027 63.9648 60.1074 64.5996 59.4238 L 93.9941 30.9082 C 95.3613 29.5898 94.873 27.7832 93.0176 27.7832 Z"/>
  </g>
  <g id="Semibold-L" transform="matrix(1 0 0 1 1947.59 1556)">
   <path d="M 148.779 -29.8828 C 168.799 -34.0332 180.078 -50 180.078 -60.2051 C 180.078 -62.5977 179.004 -64.3066 177.051 -64.3066 C 173.926 -64.3066 168.994 -60.5469 160.4 -60.498 C 145.117 -60.498 135.449 -69.8242 135.449 -83.9355 C 135.449 -92.4316 139.502 -98.584 139.502 -101.904 C 139.502 -103.906 138.135 -105.176 135.645 -105.078 C 123.73 -104.395 109.082 -91.2598 105.859 -74.2676 C 107.91 -72.2168 109.814 -69.6777 111.426 -66.3574 C 131.689 -65.0391 147.705 -49.8047 148.779 -29.8828 Z M 37.5488 4.19922 L 108.301 4.19922 C 126.123 4.19922 139.893 -9.42383 139.893 -27.0996 C 139.893 -45.0195 125.684 -58.3984 106.494 -58.3984 C 99.3652 -72.0215 86.5723 -81.0547 69.873 -81.0547 C 48.9258 -81.0547 31.2988 -64.8438 29.4922 -43.7012 C 18.4082 -40.5762 11.2793 -31.3477 11.2793 -19.9707 C 11.2793 -5.61523 21.9727 4.19922 37.5488 4.19922 Z M 91.2598 27.0996 L 78.4668 27.0996 L 84.2285 16.2109 C 84.9121 14.8438 84.375 13.7695 82.959 13.7695 L 69.4824 13.7695 C 67.7246 13.7695 67.0898 14.4531 66.5527 15.7227 L 58.3496 34.375 C 57.7148 35.8887 58.3984 36.8652 60.0098 36.8652 L 70.6055 36.8652 L 62.4023 56.6406 C 62.0605 57.5195 62.2559 58.1543 62.8418 58.3984 C 63.4277 58.6426 64.1113 58.4961 64.7461 57.7637 L 92.2852 30.1758 C 93.6035 28.8574 93.0664 27.0996 91.2598 27.0996 Z"/>
  </g>
  <g id="Medium-L" transform="matrix(1 0 0 1 1651.8 1556)">
   <path d="M 146.777 -29.5898 C 167.041 -33.5449 178.223 -49.4629 178.223 -59.375 C 178.223 -61.6699 177.148 -63.3301 175.244 -63.3301 C 172.314 -63.3301 167.334 -59.5703 158.936 -59.5703 C 143.506 -59.5215 133.691 -68.9453 133.691 -83.1543 C 133.691 -91.5039 137.793 -97.6074 137.793 -100.83 C 137.793 -102.734 136.523 -104.004 134.033 -103.857 C 121.826 -103.125 107.715 -89.6973 104.688 -72.998 C 106.641 -71.0938 108.447 -68.7012 109.912 -65.4785 C 130.371 -64.0625 145.898 -48.9258 146.777 -29.5898 Z M 37.207 3.56445 L 106.982 3.56445 C 124.658 3.56445 138.379 -9.91211 138.379 -27.2949 C 138.379 -44.873 124.268 -58.0078 105.371 -58.0566 C 98.0957 -71.9727 85.2539 -80.6152 69.1895 -80.6152 C 48.5352 -80.6152 31.1523 -64.5508 29.2969 -43.6035 C 18.3105 -40.4785 11.2793 -31.3965 11.2793 -20.2148 C 11.2793 -6.10352 21.8262 3.56445 37.207 3.56445 Z M 89.9414 26.5625 L 77.4902 26.5625 L 83.3984 15.4785 C 84.1309 14.1113 83.5449 13.0371 82.1289 13.0371 L 69.6289 13.0371 C 67.8711 13.0371 67.2852 13.6719 66.6992 14.9902 L 58.6426 33.3496 C 57.959 34.9121 58.6914 35.8398 60.3027 35.8398 L 70.6543 35.8398 L 62.5488 55.4199 C 62.1582 56.25 62.3535 56.9336 62.9395 57.1777 C 63.5742 57.4219 64.2578 57.2266 64.8926 56.543 L 90.9668 29.5898 C 92.2363 28.2715 91.748 26.5625 89.9414 26.5625 Z"/>
  </g>
  <g id="Regular-L" transform="matrix(1 0 0 1 1356.31 1556)">
   <path d="M 144.092 -29.1992 C 164.746 -32.8125 175.781 -48.6816 175.781 -58.252 C 175.781 -60.4492 174.756 -62.0117 172.949 -62.0117 C 170.166 -62.0117 165.137 -58.3008 156.982 -58.3008 C 141.406 -58.3008 131.445 -67.8223 131.445 -82.1777 C 131.445 -90.332 135.596 -96.3867 135.596 -99.3652 C 135.596 -101.27 134.375 -102.393 131.885 -102.295 C 119.385 -101.416 105.957 -87.7441 103.174 -71.3867 C 104.932 -69.6289 106.592 -67.3828 108.008 -64.3555 C 128.613 -62.8418 143.506 -47.8027 144.092 -29.1992 Z M 36.8164 2.73438 L 105.225 2.73438 C 122.754 2.73438 136.426 -10.5469 136.426 -27.5879 C 136.426 -44.6777 122.51 -57.5195 103.906 -57.5684 C 96.4355 -71.9238 83.4961 -80.0781 68.2617 -80.0781 C 48.0469 -80.0781 30.9082 -64.1602 29.1016 -43.457 C 18.2129 -40.3809 11.2793 -31.4453 11.2793 -20.459 C 11.2793 -6.73828 21.6797 2.73438 36.8164 2.73438 Z M 88.2324 25.8789 L 76.2695 25.8789 L 82.3242 14.502 C 83.0566 13.1348 82.4707 12.1094 81.1035 12.1094 L 69.873 12.1094 C 68.1152 12.1094 67.5293 12.7441 66.9434 14.0137 L 59.0332 32.0801 C 58.3496 33.5938 59.1309 34.5703 60.6934 34.5703 L 70.7031 34.5703 L 62.6953 53.8086 C 62.3535 54.6387 62.5488 55.3223 63.1348 55.5664 C 63.7207 55.8105 64.4043 55.6152 65.0391 54.8828 L 89.2578 28.8574 C 90.4785 27.5391 89.9902 25.8789 88.2324 25.8789 Z"/>
  </g>
  <g id="Light-L" transform="matrix(1 0 0 1 1060.38 1556)">
   <path d="M 142.139 -28.4668 C 164.111 -32.373 174.219 -48.1445 174.219 -56.6406 C 174.219 -58.4473 173.34 -59.668 171.777 -59.668 C 169.385 -59.668 163.77 -56.3965 156.348 -56.3965 C 140.479 -56.3965 130.225 -66.2598 130.225 -81.0059 C 130.225 -88.916 133.984 -94.873 133.984 -97.4121 C 133.984 -99.1699 132.812 -100.146 130.469 -99.9512 C 116.748 -98.584 105.127 -83.9355 103.125 -68.1641 C 104.639 -66.5039 106.006 -64.5996 107.178 -61.9629 C 127.002 -60.5469 141.211 -46.8262 142.139 -28.4668 Z M 35.9375 2.97852 L 104.688 2.97852 C 121.826 2.97852 135.254 -9.96094 135.254 -26.5137 C 135.254 -43.1641 121.533 -55.6641 103.223 -55.6641 C 95.6543 -70.3613 82.959 -78.5156 67.7734 -78.5156 C 47.9492 -78.5156 31.1035 -62.5977 29.3945 -41.9434 C 18.3105 -38.916 11.2793 -30.1758 11.2793 -19.4336 C 11.2793 -6.20117 21.3867 2.97852 35.9375 2.97852 Z M 85.498 26.6113 L 74.4141 26.6113 L 80.8105 14.5996 C 81.543 13.2324 80.957 12.207 79.541 12.207 L 70.9961 12.207 C 69.1895 12.207 68.6035 12.8418 68.0176 14.1113 L 60.2539 31.8359 C 59.5703 33.4473 60.4492 34.375 62.0117 34.375 L 71.2402 34.375 L 63.3789 53.2227 C 62.9883 54.1504 63.2324 54.834 63.8184 55.0781 C 64.4531 55.3223 65.1855 55.127 65.7715 54.2969 L 86.7188 29.5898 C 87.8418 28.1738 87.3047 26.6113 85.498 26.6113 Z"/>
  </g>
  <g id="Thin-L" transform="matrix(1 0 0 1 764.699 1556)">
   <path d="M 139.502 -27.5391 C 163.281 -31.7871 172.168 -47.3633 172.168 -54.4922 C 172.168 -55.7617 171.436 -56.5918 170.215 -56.5918 C 168.359 -56.5918 161.963 -53.8574 155.518 -53.8574 C 139.307 -53.8574 128.564 -64.1113 128.564 -79.4434 C 128.564 -87.0117 131.836 -92.8711 131.836 -94.8242 C 131.836 -96.3867 130.811 -97.168 128.564 -96.875 C 113.281 -94.8242 104.053 -78.9551 103.076 -63.916 C 104.248 -62.4023 105.176 -60.8398 106.055 -58.7891 C 124.854 -57.5195 138.184 -45.5566 139.502 -27.5391 Z M 34.8145 3.27148 L 104.004 3.27148 C 120.557 3.27148 133.691 -9.22852 133.691 -25.0977 C 133.691 -41.1621 120.264 -53.2227 102.393 -53.125 C 94.6289 -68.3105 82.2266 -76.416 67.0898 -76.416 C 47.7539 -76.416 31.3965 -60.498 29.834 -39.8926 C 18.457 -37.0605 11.2793 -28.5645 11.2793 -18.0176 C 11.2793 -5.51758 20.9473 3.27148 34.8145 3.27148 Z M 81.9336 27.5879 L 71.9238 27.5879 L 78.8086 14.7949 C 79.541 13.4277 78.9551 12.3047 77.5391 12.3047 L 72.5098 12.3047 C 70.6543 12.3047 70.0195 12.9395 69.4336 14.3066 L 61.9141 31.543 C 61.1816 33.2031 62.207 34.1309 63.7207 34.1309 L 71.9727 34.1309 L 64.2578 52.4902 C 63.8672 53.4668 64.1113 54.1504 64.7461 54.3945 C 65.3809 54.6387 66.1621 54.4434 66.748 53.5645 L 83.3496 30.5176 C 84.3262 29.0527 83.7402 27.5879 81.9336 27.5879 Z"/>
  </g>
  <g id="Ultralight-L" transform="matrix(1 0 0 1 468.5 1556)">
   <path d="M 138.184 -27.0996 C 162.842 -31.4941 171.143 -46.9727 171.143 -53.418 C 171.143 -54.3945 170.459 -55.0293 169.385 -55.0293 C 167.822 -55.0293 161.035 -52.5879 155.127 -52.5879 C 138.672 -52.5879 127.734 -63.0371 127.734 -78.6133 C 127.734 -86.0352 130.713 -91.8945 130.713 -93.5059 C 130.713 -94.9707 129.785 -95.6543 127.588 -95.3125 C 111.523 -92.8711 103.516 -76.416 103.027 -61.7188 C 104.053 -60.3027 104.785 -58.9355 105.518 -57.1777 C 123.73 -56.0059 136.621 -44.9219 138.184 -27.0996 Z M 34.2285 3.41797 L 103.662 3.41797 C 119.922 3.41797 132.91 -8.88672 132.91 -24.3652 C 132.91 -40.1855 119.629 -51.9531 101.953 -51.8555 C 94.0918 -67.2363 81.8848 -75.3906 66.748 -75.3906 C 47.6562 -75.3906 31.543 -59.4238 30.0293 -38.8672 C 18.5547 -36.084 11.2793 -27.6855 11.2793 -17.334 C 11.2793 -5.17578 20.752 3.41797 34.2285 3.41797 Z M 80.127 28.125 L 70.6543 28.125 L 77.7832 14.8926 C 78.5156 13.5254 77.9297 12.3535 76.4648 12.3535 L 73.2422 12.3535 C 71.3867 12.3535 70.752 12.9883 70.166 14.4043 L 62.7441 31.3965 C 62.0117 33.1055 63.0859 33.9844 64.6484 33.9844 L 72.3145 33.9844 L 64.7461 52.1484 C 64.3555 53.125 64.5996 53.8574 65.2344 54.0527 C 65.8691 54.2969 66.6992 54.0527 67.2363 53.1738 L 81.6406 31.0059 C 82.5684 29.541 81.8848 28.125 80.127 28.125 Z"/>
  </g>
  <g id="Black-M" transform="matrix(1 0 0 1 2853.93 1126)">
   <path d="M 126.709 -32.6172 C 141.309 -37.3535 150.195 -49.8535 150.195 -58.7891 C 150.195 -61.084 149.268 -62.6953 147.461 -62.6953 C 144.434 -62.6953 140.381 -59.8145 133.008 -59.7168 C 121.875 -59.6191 114.99 -66.6016 114.99 -77.002 C 114.99 -84.2773 117.578 -89.4531 117.578 -92.6758 C 117.578 -94.3848 116.357 -95.6055 114.307 -95.5078 C 106.104 -95.2637 92.4805 -85.9863 89.0625 -71.4355 C 91.3574 -69.1895 93.3594 -66.5039 94.9707 -63.2812 C 109.473 -62.9395 124.414 -51.3184 126.709 -32.6172 Z M 30.6641 -0.683594 L 91.7969 -0.683594 C 106.201 -0.683594 116.992 -11.9629 116.992 -27.002 C 116.992 -42.9688 105.322 -54.4922 89.1602 -54.3945 C 84.375 -63.2324 75.0977 -72.4121 58.2031 -72.4121 C 40.0879 -72.4121 25.3418 -59.1797 23.9746 -41.5527 C 14.7461 -39.2578 8.74023 -31.3965 8.74023 -21.5332 C 8.74023 -9.08203 17.5781 -0.683594 30.6641 -0.683594 Z M 77.4414 16.748 L 65.5762 16.748 L 69.4824 9.27734 C 70.0195 8.20312 69.5801 7.32422 68.457 7.32422 L 53.3691 7.32422 C 51.9531 7.32422 51.4648 7.8125 51.0254 8.88672 L 44.0918 24.707 C 43.5547 25.8789 43.9941 26.6602 45.3125 26.6602 L 54.834 26.6602 L 47.998 43.2129 C 47.7051 43.8965 47.9004 44.4824 48.3398 44.6777 C 48.7793 44.873 49.3164 44.7266 49.9023 44.2383 L 78.1738 19.2871 C 79.3457 18.3105 78.9062 16.748 77.4414 16.748 Z"/>
  </g>
  <g id="Heavy-M" transform="matrix(1 0 0 1 2558.76 1126)">
   <path d="M 123.438 -32.2266 C 138.184 -36.4746 147.119 -48.9746 147.119 -57.666 C 147.119 -59.8633 146.191 -61.4258 144.434 -61.4258 C 141.602 -61.4258 137.646 -58.4473 130.42 -58.3984 C 119.092 -58.3008 112.061 -65.3809 112.061 -75.8789 C 112.061 -83.0078 114.844 -88.0371 114.844 -91.1133 C 114.844 -92.7734 113.672 -93.9453 111.67 -93.8965 C 103.223 -93.6035 90.1367 -84.1309 86.9141 -69.9219 C 89.0137 -67.8711 90.918 -65.3809 92.4316 -62.3047 C 107.373 -61.7676 121.582 -49.9512 123.438 -32.2266 Z M 30.2734 -1.9043 L 89.4531 -1.9043 C 103.711 -1.9043 114.502 -12.9883 114.502 -27.6855 C 114.502 -43.0664 102.979 -54.2969 87.207 -54.1992 C 82.1777 -63.5742 72.7051 -72.0703 57.0312 -72.0703 C 39.4531 -72.0703 25 -59.0332 23.6328 -41.7969 C 14.5996 -39.4531 8.74023 -31.7871 8.74023 -22.2168 C 8.74023 -10.1074 17.4316 -1.9043 30.2734 -1.9043 Z M 75.6348 15.5273 L 64.3066 15.5273 L 68.3105 7.8125 C 68.8965 6.78711 68.457 5.9082 67.334 5.9082 L 53.418 5.9082 C 52.002 5.9082 51.5137 6.44531 51.0742 7.4707 L 44.2871 22.9004 C 43.7988 24.0723 44.2383 24.8535 45.5566 24.8535 L 54.7363 24.8535 L 48.0469 41.0645 C 47.7539 41.748 47.9492 42.2852 48.3887 42.4805 C 48.8281 42.6758 49.3652 42.5293 49.9023 42.041 L 76.416 18.0664 C 77.5391 17.041 77.0996 15.5273 75.6348 15.5273 Z"/>
  </g>
  <g id="Bold-M" transform="matrix(1 0 0 1 2263.78 1126)">
   <path d="M 119.775 -31.7871 C 134.668 -35.498 143.652 -47.9492 143.652 -56.3965 C 143.652 -58.4961 142.773 -60.0098 141.064 -60.0098 C 138.379 -60.0098 134.57 -56.9824 127.539 -56.9336 C 115.967 -56.8848 108.789 -63.9648 108.789 -74.6582 C 108.789 -81.543 111.768 -86.4746 111.768 -89.3555 C 111.768 -91.0156 110.693 -92.0898 108.691 -92.041 C 100.049 -91.6992 87.5 -82.0312 84.5215 -68.2617 C 86.4258 -66.4062 88.1836 -64.1113 89.5996 -61.2305 C 105.029 -60.4492 118.457 -48.4375 119.775 -31.7871 Z M 29.834 -3.32031 L 86.8164 -3.32031 C 100.928 -3.32031 111.719 -14.1602 111.719 -28.4668 C 111.719 -43.1641 100.391 -54.0039 85.0098 -54.0039 C 79.7852 -63.916 70.0684 -71.6309 55.7129 -71.6309 C 38.7207 -71.6309 24.6094 -58.8379 23.1934 -42.041 C 14.4043 -39.6484 8.74023 -32.1777 8.74023 -22.9492 C 8.74023 -11.2793 17.2852 -3.32031 29.834 -3.32031 Z M 73.6816 14.209 L 62.8906 14.209 L 67.041 6.25 C 67.627 5.17578 67.1875 4.3457 66.1133 4.3457 L 53.4668 4.3457 C 52.0508 4.3457 51.5625 4.83398 51.123 5.85938 L 44.5801 20.8496 C 44.043 22.0215 44.5312 22.8027 45.8008 22.8027 L 54.6387 22.8027 L 48.0957 38.6719 C 47.8027 39.3066 47.998 39.8438 48.4375 40.0391 C 48.877 40.2344 49.4141 40.0879 49.9512 39.5996 L 74.4141 16.6504 C 75.4883 15.6738 75.0977 14.209 73.6816 14.209 Z"/>
  </g>
  <g id="Semibold-M" transform="matrix(1 0 0 1 1968.27 1126)">
   <path d="M 117.236 -31.4941 C 132.275 -34.8145 141.26 -47.2168 141.26 -55.5176 C 141.26 -57.5684 140.381 -59.0332 138.77 -59.0332 C 136.182 -59.0332 132.471 -55.957 125.537 -55.957 C 113.867 -55.9082 106.494 -63.0371 106.494 -73.7793 C 106.494 -80.5176 109.668 -85.3516 109.668 -88.1348 C 109.668 -89.7461 108.594 -90.8203 106.641 -90.7715 C 97.8516 -90.4297 85.6934 -80.5664 82.8613 -67.0898 C 84.6191 -65.4297 86.2793 -63.2324 87.5977 -60.498 C 103.418 -59.5215 116.309 -47.3633 117.236 -31.4941 Z M 29.541 -4.24805 L 85.0098 -4.24805 C 99.0234 -4.24805 109.766 -14.9902 109.766 -29.0039 C 109.766 -43.2617 98.584 -53.8574 83.4961 -53.8574 C 78.0762 -64.1113 68.2129 -71.3867 54.7852 -71.3867 C 38.1836 -71.3867 24.3164 -58.7402 22.9004 -42.1875 C 14.2578 -39.7949 8.74023 -32.4707 8.74023 -23.4863 C 8.74023 -12.0605 17.1875 -4.24805 29.541 -4.24805 Z M 72.3145 13.3301 L 61.9141 13.3301 L 66.2109 5.12695 C 66.748 4.10156 66.3086 3.27148 65.2344 3.27148 L 53.4668 3.27148 C 52.0996 3.27148 51.6113 3.75977 51.1719 4.78516 L 44.7266 19.4824 C 44.2383 20.6543 44.7266 21.3867 45.9961 21.3867 L 54.5898 21.3867 L 48.1445 36.9629 C 47.8516 37.6465 47.998 38.1836 48.4375 38.3789 C 48.9258 38.5254 49.4629 38.4277 49.9512 37.8906 L 73.0469 15.7227 C 74.0723 14.6973 73.7305 13.3301 72.3145 13.3301 Z"/>
  </g>
  <g id="Medium-M" transform="matrix(1 0 0 1 1672.46 1126)">
   <path d="M 115.332 -31.25 C 130.42 -34.2773 139.453 -46.6797 139.453 -54.8828 C 139.453 -56.8359 138.623 -58.252 137.012 -58.252 C 134.521 -58.252 130.859 -55.1758 124.023 -55.1758 C 112.207 -55.1758 104.785 -62.3047 104.785 -73.1445 C 104.785 -79.7852 108.105 -84.5215 108.105 -87.2559 C 108.105 -88.8184 107.031 -89.8438 105.078 -89.7949 C 96.1914 -89.4531 84.3262 -79.4922 81.6406 -66.2109 C 83.3008 -64.6484 84.8145 -62.5977 86.1328 -59.9121 C 102.197 -58.7891 114.648 -46.582 115.332 -31.25 Z M 29.2969 -4.98047 L 83.6426 -4.98047 C 97.5586 -4.98047 108.301 -15.625 108.301 -29.3945 C 108.301 -43.3105 97.2656 -53.7109 82.373 -53.7598 C 76.8066 -64.3066 66.7969 -71.1426 54.1016 -71.1426 C 37.793 -71.1426 24.1211 -58.6426 22.6562 -42.334 C 14.1602 -39.8926 8.74023 -32.7148 8.74023 -23.877 C 8.74023 -12.6465 17.0898 -4.98047 29.2969 -4.98047 Z M 71.2402 12.5977 L 61.1328 12.5977 L 65.5273 4.29688 C 66.0645 3.27148 65.625 2.44141 64.5508 2.44141 L 53.4668 2.44141 C 52.1484 2.44141 51.6602 2.97852 51.2207 3.95508 L 44.873 18.4082 C 44.3848 19.5801 44.873 20.3613 46.0938 20.3613 L 54.541 20.3613 L 48.1445 35.7422 C 47.9004 36.377 48.0469 36.9141 48.4863 37.1094 C 48.9258 37.2559 49.4629 37.1582 49.9512 36.6211 L 71.9727 14.9902 C 72.998 13.9648 72.6562 12.5977 71.2402 12.5977 Z"/>
  </g>
  <g id="Regular-M" transform="matrix(1 0 0 1 1376.92 1126)">
   <path d="M 112.793 -30.957 C 128.076 -33.6426 137.109 -45.9961 137.109 -54.0039 C 137.109 -55.9082 136.279 -57.3242 134.717 -57.3242 C 132.324 -57.3242 128.76 -54.1992 122.021 -54.1992 C 110.107 -54.1992 102.588 -61.377 102.588 -72.2656 C 102.588 -78.7598 106.006 -83.4473 106.006 -86.0352 C 106.006 -87.5977 104.98 -88.5742 103.027 -88.5254 C 93.9941 -88.1348 82.5684 -78.0762 79.9805 -65.0879 C 81.4941 -63.6719 82.959 -61.7676 84.1797 -59.1797 C 100.586 -57.9102 112.5 -45.5078 112.793 -30.957 Z M 29.0039 -5.9082 L 81.8359 -5.9082 C 95.6543 -5.9082 106.396 -16.4062 106.396 -29.9316 C 106.396 -43.4082 95.459 -53.5645 80.8594 -53.6133 C 75.1465 -64.5508 64.9902 -70.8984 53.1738 -70.8984 C 37.3047 -70.8984 23.8281 -58.5449 22.3633 -42.4805 C 14.0625 -40.0391 8.74023 -32.959 8.74023 -24.4141 C 8.74023 -13.4277 16.9922 -5.9082 29.0039 -5.9082 Z M 69.9219 11.7188 L 60.2051 11.7188 L 64.6484 3.22266 C 65.2344 2.14844 64.7949 1.36719 63.7207 1.36719 L 53.5156 1.36719 C 52.1484 1.36719 51.709 1.9043 51.2695 2.83203 L 45.0684 17.041 C 44.5312 18.2129 45.0684 18.9453 46.2891 18.9453 L 54.4922 18.9453 L 48.1934 34.082 C 47.9492 34.7168 48.0469 35.2539 48.5352 35.4004 C 48.9746 35.5957 49.5117 35.4492 50 34.9121 L 70.6543 14.0625 C 71.6309 13.0371 71.2891 11.7188 69.9219 11.7188 Z"/>
  </g>
  <g id="Light-M" transform="matrix(1 0 0 1 1080.89 1126)">
   <path d="M 111.035 -30.3223 C 127.49 -33.252 135.742 -45.5078 135.742 -52.5391 C 135.742 -54.1016 134.961 -55.2246 133.643 -55.2246 C 131.641 -55.2246 127.539 -52.4902 121.436 -52.4902 C 109.277 -52.4902 101.465 -59.9609 101.465 -71.2402 C 101.465 -77.4902 104.541 -82.1289 104.541 -84.2773 C 104.541 -85.6934 103.613 -86.5723 101.758 -86.4258 C 91.6504 -85.5957 81.8359 -74.6582 79.9316 -62.207 C 81.25 -60.8887 82.4219 -59.2285 83.3984 -57.0312 C 99.1211 -55.8594 110.449 -44.6777 111.035 -30.3223 Z M 28.2227 -5.71289 L 81.3965 -5.71289 C 94.8242 -5.71289 105.371 -15.918 105.371 -28.9551 C 105.371 -42.041 94.6289 -51.9043 80.2734 -51.9043 C 74.4629 -63.1348 64.502 -69.4824 52.7344 -69.4824 C 37.207 -69.4824 24.0234 -57.1289 22.6562 -41.1133 C 14.1602 -38.7207 8.74023 -31.8848 8.74023 -23.4375 C 8.74023 -12.9883 16.6992 -5.71289 28.2227 -5.71289 Z M 67.4805 12.3535 L 58.4961 12.3535 L 63.2812 3.32031 C 63.8672 2.29492 63.4277 1.46484 62.3535 1.46484 L 54.4922 1.46484 C 53.125 1.46484 52.6855 1.95312 52.2461 2.97852 L 46.1426 16.8457 C 45.6055 18.0664 46.2402 18.7988 47.4609 18.7988 L 54.9805 18.7988 L 48.8281 33.5938 C 48.5352 34.2773 48.6816 34.7656 49.1699 34.9609 C 49.6094 35.1562 50.1953 35.0098 50.6348 34.4238 L 68.3594 14.6973 C 69.2383 13.623 68.8477 12.3535 67.4805 12.3535 Z"/>
  </g>
  <g id="Thin-M" transform="matrix(1 0 0 1 785.109 1126)">
   <path d="M 108.691 -29.4922 C 126.709 -32.7148 133.887 -44.8242 133.887 -50.6348 C 133.887 -51.709 133.252 -52.4414 132.227 -52.4414 C 130.713 -52.4414 125.928 -50.2441 120.703 -50.2441 C 108.203 -50.2441 100 -58.1055 100 -69.8242 C 100 -75.7812 102.637 -80.3223 102.637 -81.9824 C 102.637 -83.252 101.807 -83.8867 100.049 -83.6914 C 88.5254 -82.2266 80.8594 -70.2148 79.8828 -58.3496 C 80.9082 -57.1777 81.6895 -55.9082 82.4219 -54.1992 C 97.2168 -53.1738 107.764 -43.5059 108.691 -29.4922 Z M 27.2461 -5.46875 L 80.7617 -5.46875 C 93.7012 -5.46875 103.955 -15.2344 103.955 -27.6855 C 103.955 -40.2832 93.457 -49.707 79.541 -49.6582 C 73.5352 -61.3281 63.8672 -67.627 52.1484 -67.627 C 37.0605 -67.627 24.2676 -55.2734 23.0469 -39.3066 C 14.3066 -37.0605 8.74023 -30.4199 8.74023 -22.2168 C 8.74023 -12.3535 16.3086 -5.46875 27.2461 -5.46875 Z M 64.2578 13.2324 L 56.25 13.2324 L 61.5234 3.51562 C 62.0605 2.44141 61.6211 1.5625 60.498 1.5625 L 55.8594 1.5625 C 54.4434 1.5625 53.9551 2.09961 53.5156 3.125 L 47.6074 16.6016 C 47.0703 17.8711 47.8027 18.5547 49.0234 18.5547 L 55.6152 18.5547 L 49.6094 32.9102 C 49.3164 33.6426 49.5117 34.1797 50 34.375 C 50.4883 34.5703 51.0742 34.375 51.5137 33.7402 L 65.332 15.5273 C 66.1133 14.4043 65.6738 13.2324 64.2578 13.2324 Z"/>
  </g>
  <g id="Ultralight-M" transform="matrix(1 0 0 1 488.862 1126)">
   <path d="M 107.471 -29.0527 C 126.318 -32.4219 132.959 -44.4336 132.959 -49.6582 C 132.959 -50.4883 132.373 -51.0254 131.543 -51.0254 C 130.225 -51.0254 125.098 -49.0723 120.312 -49.0723 C 107.666 -49.0723 99.2188 -57.1289 99.2188 -69.0918 C 99.2188 -74.9023 101.66 -79.4434 101.66 -80.7617 C 101.66 -81.9824 100.928 -82.5195 99.1699 -82.2754 C 86.9629 -80.4688 80.3711 -67.9199 79.834 -56.3965 C 80.7129 -55.3223 81.2988 -54.1992 81.9336 -52.7344 C 96.2402 -51.8066 106.348 -42.9199 107.471 -29.0527 Z M 26.709 -5.32227 L 80.4688 -5.32227 C 93.1641 -5.32227 103.223 -14.8926 103.223 -27.0508 C 103.223 -39.3555 92.8711 -48.584 79.1504 -48.4863 C 73.0957 -60.3516 63.5742 -66.6504 51.8555 -66.6504 C 36.9629 -66.6504 24.4141 -54.2969 23.1934 -38.3789 C 14.3555 -36.1816 8.74023 -29.6387 8.74023 -21.582 C 8.74023 -12.0605 16.1621 -5.32227 26.709 -5.32227 Z M 62.6465 13.7207 L 55.127 13.7207 L 60.5957 3.56445 C 61.1328 2.49023 60.6934 1.66016 59.5703 1.66016 L 56.543 1.66016 C 55.0781 1.66016 54.5898 2.14844 54.1504 3.22266 L 48.3887 16.4551 C 47.8027 17.7734 48.6328 18.457 49.8047 18.457 L 55.957 18.457 L 50.0488 32.5684 C 49.707 33.3496 49.9023 33.8867 50.3906 34.082 C 50.9277 34.2773 51.5137 34.082 51.9531 33.3984 L 63.7695 15.918 C 64.502 14.7949 64.0137 13.7207 62.6465 13.7207 Z"/>
  </g>
  <g id="Black-S" transform="matrix(1 0 0 1 2871.27 696)">
   <path d="M 99.0234 -33.1543 C 110.449 -36.8164 117.432 -46.6309 117.432 -53.6133 C 117.432 -55.4199 116.699 -56.6895 115.283 -56.6895 C 112.939 -56.6895 109.766 -54.3945 104.004 -54.3457 C 95.2637 -54.248 89.8438 -59.7168 89.8438 -67.8711 C 89.8438 -73.584 91.8945 -77.6367 91.8945 -80.127 C 91.8945 -81.4941 90.9668 -82.4219 89.3555 -82.373 C 82.9102 -82.1777 72.2656 -74.9023 69.5801 -63.5254 C 71.3867 -61.7676 72.9492 -59.668 74.2188 -57.1777 C 85.5957 -56.8848 97.2656 -47.7539 99.0234 -33.1543 Z M 23.9746 -8.25195 L 71.7285 -8.25195 C 83.0078 -8.25195 91.4551 -17.0898 91.4551 -28.8574 C 91.4551 -41.3086 82.3242 -50.3418 69.6777 -50.2441 C 65.918 -57.2266 58.6426 -64.3555 45.5078 -64.3555 C 31.3477 -64.3555 19.8242 -54.0039 18.75 -40.2344 C 11.5234 -38.4277 6.83594 -32.2754 6.83594 -24.5605 C 6.83594 -14.8438 13.7695 -8.25195 23.9746 -8.25195 Z M 60.5469 5.37109 L 51.2695 5.37109 L 54.3457 -0.488281 C 54.7852 -1.31836 54.4434 -2.00195 53.5645 -2.00195 L 41.7969 -2.00195 C 40.6738 -2.00195 40.2832 -1.61133 39.9414 -0.78125 L 34.5215 11.5723 C 34.1309 12.5 34.4727 13.1348 35.498 13.1348 L 42.9199 13.1348 L 37.5977 26.0742 C 37.3535 26.6113 37.5 27.0508 37.8418 27.1973 C 38.1836 27.3438 38.623 27.2461 39.0625 26.8555 L 61.1328 7.37305 C 62.0605 6.5918 61.7188 5.37109 60.5469 5.37109 Z"/>
  </g>
  <g id="Heavy-S" transform="matrix(1 0 0 1 2575.65 696)">
   <path d="M 96.7285 -32.9102 C 108.105 -36.1816 115.234 -45.9961 115.234 -52.9297 C 115.234 -54.6875 114.502 -55.957 113.086 -55.957 C 110.84 -55.957 107.812 -53.5645 102.1 -53.5156 C 93.2129 -53.4668 87.7441 -58.9355 87.7441 -67.1387 C 87.7441 -72.7539 89.9902 -76.709 89.9902 -79.1504 C 89.9902 -80.4688 89.0625 -81.3965 87.4512 -81.3477 C 81.0059 -81.1523 70.5566 -73.8281 67.9688 -62.6953 C 69.6289 -61.084 71.1426 -59.082 72.3633 -56.6895 C 84.1797 -56.2012 95.3613 -46.7773 96.7285 -32.9102 Z M 23.7793 -9.22852 L 69.9707 -9.22852 C 81.2012 -9.22852 89.6484 -17.9688 89.6484 -29.4922 C 89.6484 -41.5527 80.6641 -50.3418 68.2617 -50.293 C 64.3555 -57.6172 56.8848 -64.2578 44.6289 -64.2578 C 30.8594 -64.2578 19.5312 -54.0527 18.4082 -40.5762 C 11.377 -38.7207 6.83594 -32.666 6.83594 -25.1953 C 6.83594 -15.6738 13.6719 -9.22852 23.7793 -9.22852 Z M 59.4727 4.39453 L 50.4883 4.39453 L 53.6133 -1.61133 C 54.0527 -2.44141 53.7109 -3.07617 52.8809 -3.07617 L 41.6992 -3.07617 C 40.625 -3.07617 40.2344 -2.68555 39.8926 -1.9043 L 34.5703 10.2051 C 34.1797 11.1328 34.5215 11.7676 35.5469 11.7676 L 42.8223 11.7676 L 37.5488 24.4629 C 37.3535 25 37.4512 25.4395 37.793 25.5859 C 38.1348 25.7324 38.5742 25.6348 39.0137 25.2441 L 60.0098 6.34766 C 60.9375 5.56641 60.5957 4.39453 59.4727 4.39453 Z"/>
  </g>
  <g id="Bold-S" transform="matrix(1 0 0 1 2280.19 696)">
   <path d="M 94.1406 -32.666 C 105.518 -35.498 112.744 -45.2637 112.744 -52.1484 C 112.744 -53.8574 112.012 -55.127 110.645 -55.127 C 108.447 -55.127 105.615 -52.6367 99.9512 -52.6367 C 90.9668 -52.5879 85.3516 -58.0566 85.3516 -66.3086 C 85.3516 -71.7773 87.8418 -75.6348 87.8418 -78.0273 C 87.8418 -79.3457 86.9141 -80.2246 85.3516 -80.1758 C 78.8574 -80.0293 68.6523 -72.6562 66.1133 -61.7676 C 67.6758 -60.3027 69.0918 -58.4473 70.2637 -56.1035 C 82.5684 -55.4199 93.2129 -45.752 94.1406 -32.666 Z M 23.5352 -10.3027 L 68.0176 -10.3027 C 79.1992 -10.3027 87.6465 -18.8965 87.6465 -30.1758 C 87.6465 -41.7969 78.7598 -50.3418 66.6504 -50.3418 C 62.5488 -58.0566 54.8828 -64.1113 43.7012 -64.1113 C 30.3223 -64.1113 19.1895 -54.1016 18.0664 -40.918 C 11.2305 -39.0137 6.83594 -33.1543 6.83594 -25.8789 C 6.83594 -16.6016 13.623 -10.3027 23.5352 -10.3027 Z M 58.252 3.32031 L 49.6094 3.32031 L 52.832 -2.83203 C 53.2715 -3.66211 52.9297 -4.29688 52.0508 -4.29688 L 41.6016 -4.29688 C 40.5273 -4.29688 40.1855 -3.90625 39.8438 -3.125 L 34.6191 8.69141 C 34.2285 9.61914 34.5703 10.2051 35.5957 10.2051 L 42.6758 10.2051 L 37.5 22.7051 C 37.3047 23.1934 37.4023 23.6328 37.793 23.7793 C 38.1348 23.9258 38.5254 23.8281 38.9648 23.4375 L 58.7891 5.22461 C 59.668 4.44336 59.375 3.32031 58.252 3.32031 Z"/>
  </g>
  <g id="Semibold-S" transform="matrix(1 0 0 1 1984.33 696)">
   <path d="M 92.334 -32.4707 C 103.711 -35.0098 111.035 -44.7754 111.035 -51.6113 C 111.035 -53.3203 110.352 -54.541 108.984 -54.541 C 106.836 -54.541 104.102 -52.002 98.4375 -52.002 C 89.4043 -51.9531 83.7402 -57.4707 83.7402 -65.7715 C 83.7402 -71.0938 86.3281 -74.9512 86.3281 -77.2461 C 86.3281 -78.5156 85.4492 -79.3945 83.8867 -79.3945 C 77.3438 -79.2969 67.334 -71.8262 64.8926 -61.1328 C 66.3086 -59.7656 67.6758 -58.0078 68.7988 -55.7129 C 81.4453 -54.8828 91.6992 -45.0195 92.334 -32.4707 Z M 23.3398 -11.084 L 66.6992 -11.084 C 77.7832 -11.084 86.2793 -19.5801 86.2793 -30.6641 C 86.2793 -41.9434 77.4902 -50.3906 65.5762 -50.3906 C 61.3281 -58.3496 53.5156 -64.0137 43.0176 -64.0137 C 29.9316 -64.0137 18.9941 -54.1016 17.8223 -41.1621 C 11.1328 -39.209 6.83594 -33.4473 6.83594 -26.3672 C 6.83594 -17.2363 13.5254 -11.084 23.3398 -11.084 Z M 57.373 2.53906 L 49.0234 2.53906 L 52.2949 -3.66211 C 52.7344 -4.49219 52.3926 -5.12695 51.5137 -5.12695 L 41.5527 -5.12695 C 40.4785 -5.12695 40.1367 -4.73633 39.7949 -3.95508 L 34.668 7.66602 C 34.2773 8.54492 34.6191 9.13086 35.6445 9.13086 L 42.5781 9.13086 L 37.5 21.4355 C 37.3047 21.9727 37.4023 22.3633 37.7441 22.5098 C 38.0859 22.6562 38.4766 22.5586 38.916 22.168 L 57.9102 4.44336 C 58.7891 3.66211 58.4961 2.53906 57.373 2.53906 Z"/>
  </g>
  <g id="Medium-S" transform="matrix(1 0 0 1 1688.25 696)">
   <path d="M 90.9668 -32.373 C 102.344 -34.668 109.766 -44.3848 109.766 -51.1719 C 109.766 -52.8809 109.033 -54.1016 107.715 -54.1016 C 105.615 -54.1016 102.979 -51.5137 97.3145 -51.5137 C 88.1836 -51.5137 82.5195 -57.0312 82.5195 -65.332 C 82.5195 -70.6055 85.2051 -74.3652 85.2051 -76.6602 C 85.2051 -77.9297 84.3262 -78.8086 82.7637 -78.8086 C 76.2207 -78.7109 66.3086 -71.2402 63.916 -60.6445 C 65.2832 -59.375 66.6504 -57.666 67.7246 -55.4199 C 80.6152 -54.4922 90.5762 -44.4336 90.9668 -32.373 Z M 23.2422 -11.6211 L 65.6738 -11.6211 C 76.7578 -11.6211 85.2539 -20.0684 85.2539 -31.0547 C 85.2539 -42.0898 76.4648 -50.3906 64.6973 -50.4395 C 60.4004 -58.5938 52.4902 -63.916 42.5293 -63.916 C 29.6387 -63.916 18.7988 -54.1504 17.627 -41.3574 C 11.0352 -39.4043 6.83594 -33.6914 6.83594 -26.709 C 6.83594 -17.7246 13.4766 -11.6211 23.2422 -11.6211 Z M 56.7383 1.95312 L 48.5352 1.95312 L 51.8555 -4.29688 C 52.2949 -5.12695 51.9531 -5.76172 51.123 -5.76172 L 41.5039 -5.76172 C 40.4297 -5.76172 40.0879 -5.37109 39.7461 -4.58984 L 34.7168 6.88477 C 34.3262 7.76367 34.668 8.34961 35.6445 8.34961 L 42.5293 8.34961 L 37.4512 20.5078 C 37.2559 21.0449 37.3535 21.4355 37.7441 21.582 C 38.0859 21.7285 38.4766 21.6309 38.8672 21.2402 L 57.2754 3.85742 C 58.1055 3.07617 57.8613 1.95312 56.7383 1.95312 Z"/>
  </g>
  <g id="Regular-S" transform="matrix(1 0 0 1 1392.37 696)">
   <path d="M 89.209 -32.1777 C 100.586 -34.1797 108.105 -43.8965 108.105 -50.6348 C 108.105 -52.2949 107.373 -53.5156 106.055 -53.5156 C 104.004 -53.5156 101.465 -50.9277 95.8496 -50.9277 C 86.6211 -50.9277 80.8594 -56.3965 80.8594 -64.7949 C 80.8594 -69.9707 83.7402 -73.6816 83.7402 -75.8789 C 83.7402 -77.1484 82.9102 -78.0273 81.3477 -77.9785 C 74.8047 -77.9297 65.0391 -70.4102 62.6953 -60.0098 C 63.9648 -58.8379 65.2344 -57.2266 66.3086 -55.0293 C 79.4922 -54.0039 89.1113 -43.7012 89.209 -32.1777 Z M 23.0957 -12.3535 L 64.3555 -12.3535 C 75.3418 -12.3535 83.8867 -20.7031 83.8867 -31.543 C 83.8867 -42.2852 75.1953 -50.3906 63.623 -50.4883 C 59.2285 -58.8867 51.123 -63.8672 41.8945 -63.8672 C 29.2969 -63.8672 18.6035 -54.1992 17.3828 -41.6016 C 10.9375 -39.5996 6.83594 -33.9844 6.83594 -27.1973 C 6.83594 -18.4082 13.4277 -12.3535 23.0957 -12.3535 Z M 55.9082 1.2207 L 47.9492 1.2207 L 51.3184 -5.17578 C 51.7578 -6.00586 51.416 -6.5918 50.5859 -6.5918 L 41.4062 -6.5918 C 40.3809 -6.5918 40.0391 -6.20117 39.6973 -5.46875 L 34.7656 5.81055 C 34.3262 6.73828 34.7168 7.27539 35.6934 7.27539 L 42.4316 7.27539 L 37.4512 19.2871 C 37.2559 19.8242 37.3535 20.2148 37.6953 20.3613 C 38.0371 20.5078 38.4277 20.4102 38.8184 19.9707 L 56.4453 3.07617 C 57.2266 2.29492 56.9824 1.2207 55.9082 1.2207 Z"/>
  </g>
  <g id="Light-S" transform="matrix(1 0 0 1 1096.3 696)">
   <path d="M 87.6465 -31.6406 C 100.098 -33.8379 106.836 -43.457 106.836 -49.3652 C 106.836 -50.7324 106.201 -51.709 105.078 -51.709 C 103.369 -51.709 100.391 -49.4141 95.3613 -49.4141 C 85.9375 -49.4141 79.8828 -55.1758 79.8828 -63.8184 C 79.8828 -68.7988 82.4707 -72.4609 82.4707 -74.3652 C 82.4707 -75.4883 81.6895 -76.2207 80.1758 -76.1719 C 72.7051 -75.6836 64.3555 -67.4316 62.6465 -57.4707 C 63.7207 -56.3965 64.7461 -54.9805 65.625 -53.125 C 78.2227 -52.1973 87.3047 -42.9688 87.6465 -31.6406 Z M 22.4121 -12.207 L 63.916 -12.207 C 74.6094 -12.207 82.9102 -20.2637 82.9102 -30.7129 C 82.9102 -41.0645 74.4629 -48.9258 63.1348 -48.9746 C 58.5938 -57.6172 50.7324 -62.5977 41.4551 -62.5977 C 29.1992 -62.5977 18.75 -52.9297 17.627 -40.3809 C 11.0352 -38.4766 6.83594 -33.0078 6.83594 -26.3672 C 6.83594 -17.9688 13.1836 -12.207 22.4121 -12.207 Z M 53.7598 1.80664 L 46.4844 1.80664 L 50.0977 -5.07812 C 50.5371 -5.9082 50.1953 -6.49414 49.3652 -6.49414 L 42.334 -6.49414 C 41.2598 -6.49414 40.8691 -6.10352 40.5273 -5.37109 L 35.7422 5.66406 C 35.3027 6.5918 35.7422 7.12891 36.7188 7.12891 L 42.8711 7.12891 L 37.9883 18.8477 C 37.793 19.3848 37.8906 19.7754 38.2324 19.9219 C 38.623 20.0684 39.0137 19.9707 39.4043 19.5312 L 54.3945 3.61328 C 55.1758 2.83203 54.834 1.80664 53.7598 1.80664 Z"/>
  </g>
  <g id="Thin-S" transform="matrix(1 0 0 1 800.392 696)">
   <path d="M 85.5957 -30.9082 C 99.4141 -33.3496 105.225 -42.8711 105.225 -47.6562 C 105.225 -48.584 104.736 -49.2676 103.857 -49.2676 C 102.588 -49.2676 98.9746 -47.4121 94.7266 -47.4121 C 84.9609 -47.4121 78.6133 -53.5156 78.6133 -62.5977 C 78.6133 -67.334 80.7617 -70.8984 80.7617 -72.3145 C 80.7617 -73.291 80.127 -73.877 78.7109 -73.7305 C 69.9707 -72.7051 63.5254 -63.4766 62.5977 -54.1016 C 63.4277 -53.125 64.1113 -52.0508 64.7461 -50.6348 C 76.5137 -49.8047 84.9121 -41.9434 85.5957 -30.9082 Z M 21.5332 -11.9629 L 63.3789 -11.9629 C 73.6328 -11.9629 81.6895 -19.7266 81.6895 -29.5898 C 81.6895 -39.502 73.4375 -46.9727 62.4512 -46.9727 C 57.8125 -56.0059 50.1465 -60.9375 40.9668 -60.9375 C 29.0527 -60.9375 18.9453 -51.2695 17.9688 -38.7695 C 11.1328 -36.9629 6.83594 -31.7383 6.83594 -25.2441 C 6.83594 -17.4316 12.8418 -11.9629 21.5332 -11.9629 Z M 50.9766 2.58789 L 44.4824 2.58789 L 48.5352 -4.93164 C 48.9746 -5.76172 48.6328 -6.39648 47.7539 -6.39648 L 43.5059 -6.39648 C 42.3828 -6.39648 41.9922 -6.00586 41.6504 -5.22461 L 37.0117 5.41992 C 36.5723 6.39648 37.1582 6.98242 38.0859 6.98242 L 43.457 6.98242 L 38.7207 18.3105 C 38.4766 18.8477 38.623 19.2871 38.9648 19.4336 C 39.3555 19.5801 39.8438 19.4336 40.1855 18.9453 L 51.7578 4.3457 C 52.3926 3.51562 52.0508 2.58789 50.9766 2.58789 Z"/>
  </g>
  <g id="Ultralight-S" transform="matrix(1 0 0 1 504.096 696)">
   <path d="M 84.5215 -30.5176 C 99.0723 -33.1055 104.395 -42.5293 104.395 -46.7773 C 104.395 -47.5098 103.955 -47.998 103.223 -47.998 C 102.148 -47.998 98.1934 -46.3867 94.3848 -46.3867 C 84.4727 -46.3867 77.9297 -52.6367 77.9297 -61.9629 C 77.9297 -66.5527 79.8828 -70.1172 79.8828 -71.2402 C 79.8828 -72.168 79.2969 -72.6562 77.9297 -72.4609 C 68.5547 -71.1426 63.0859 -61.4746 62.5488 -52.3438 C 63.2812 -51.4648 63.8184 -50.5371 64.3066 -49.3164 C 75.6348 -48.584 83.6914 -41.4062 84.5215 -30.5176 Z M 21.0449 -11.8652 L 63.0859 -11.8652 C 73.0957 -11.8652 81.0547 -19.3848 81.0547 -29.0039 C 81.0547 -38.7207 72.9004 -45.9961 62.1094 -45.9473 C 57.373 -55.1758 49.8535 -60.1074 40.6738 -60.1074 C 28.9551 -60.1074 19.043 -50.4395 18.1152 -37.9395 C 11.2305 -36.2305 6.83594 -31.0547 6.83594 -24.707 C 6.83594 -17.1387 12.6953 -11.8652 21.0449 -11.8652 Z M 49.5117 2.97852 L 43.5059 2.97852 L 47.7051 -4.83398 C 48.1445 -5.66406 47.8027 -6.34766 46.9238 -6.34766 L 44.0918 -6.34766 C 42.9688 -6.34766 42.5781 -5.95703 42.2363 -5.12695 L 37.6953 5.32227 C 37.2559 6.29883 37.8906 6.83594 38.8184 6.83594 L 43.75 6.83594 L 39.0625 17.9688 C 38.8184 18.5547 38.9648 18.9941 39.3555 19.1406 C 39.7461 19.2871 40.2344 19.1406 40.5762 18.6035 L 50.3418 4.73633 C 50.9766 3.85742 50.5859 2.97852 49.5117 2.97852 Z"/>
  </g>
 </g>
</svg>
