<?xml version="1.0" encoding="UTF-8"?>
<!--Generator: Apple Native CoreSVG 123-->
<!DOCTYPE svg
PUBLIC "-//W3C//DTD SVG 1.1//EN"
       "http://www.w3.org/Graphics/SVG/1.1/DTD/svg11.dtd">
<svg version="1.1" xmlns="http://www.w3.org/2000/svg" xmlns:xlink="http://www.w3.org/1999/xlink" width="3300" height="2200">
 <!--glyph: "uni1001DC.medium", point size: 100.000000, font version: "Version 15.0d7e11", template writer version: "5"-->
 <g id="Notes">
  <rect height="2200" id="artboard" style="fill:white;opacity:1" width="3300" x="0" y="0"/>
  <line id="" style="fill:none;stroke:black;opacity:1;stroke-width:0.5;" x1="263" x2="3036" y1="292" y2="292"/>
  <text style="stroke:none;fill:black;font-family:-apple-system,&quot;SF Pro Display&quot;,&quot;SF Pro Text&quot;,Helvetica,sans-serif;font-weight:bold;" transform="matrix(1 0 0 1 263 322)">Weight/Scale Variations</text>
  <text style="stroke:none;fill:black;font-family:-apple-system,&quot;SF Pro Display&quot;,&quot;SF Pro Text&quot;,Helvetica,sans-serif;text-anchor:middle;" transform="matrix(1 0 0 1 559.711 322)">Ultralight</text>
  <text style="stroke:none;fill:black;font-family:-apple-system,&quot;SF Pro Display&quot;,&quot;SF Pro Text&quot;,Helvetica,sans-serif;text-anchor:middle;" transform="matrix(1 0 0 1 856.422 322)">Thin</text>
  <text style="stroke:none;fill:black;font-family:-apple-system,&quot;SF Pro Display&quot;,&quot;SF Pro Text&quot;,Helvetica,sans-serif;text-anchor:middle;" transform="matrix(1 0 0 1 1153.13 322)">Light</text>
  <text style="stroke:none;fill:black;font-family:-apple-system,&quot;SF Pro Display&quot;,&quot;SF Pro Text&quot;,Helvetica,sans-serif;text-anchor:middle;" transform="matrix(1 0 0 1 1449.84 322)">Regular</text>
  <text style="stroke:none;fill:black;font-family:-apple-system,&quot;SF Pro Display&quot;,&quot;SF Pro Text&quot;,Helvetica,sans-serif;text-anchor:middle;" transform="matrix(1 0 0 1 1746.56 322)">Medium</text>
  <text style="stroke:none;fill:black;font-family:-apple-system,&quot;SF Pro Display&quot;,&quot;SF Pro Text&quot;,Helvetica,sans-serif;text-anchor:middle;" transform="matrix(1 0 0 1 2043.27 322)">Semibold</text>
  <text style="stroke:none;fill:black;font-family:-apple-system,&quot;SF Pro Display&quot;,&quot;SF Pro Text&quot;,Helvetica,sans-serif;text-anchor:middle;" transform="matrix(1 0 0 1 2339.98 322)">Bold</text>
  <text style="stroke:none;fill:black;font-family:-apple-system,&quot;SF Pro Display&quot;,&quot;SF Pro Text&quot;,Helvetica,sans-serif;text-anchor:middle;" transform="matrix(1 0 0 1 2636.69 322)">Heavy</text>
  <text style="stroke:none;fill:black;font-family:-apple-system,&quot;SF Pro Display&quot;,&quot;SF Pro Text&quot;,Helvetica,sans-serif;text-anchor:middle;" transform="matrix(1 0 0 1 2933.4 322)">Black</text>
  <line id="" style="fill:none;stroke:black;opacity:1;stroke-width:0.5;" x1="263" x2="3036" y1="1903" y2="1903"/>
  <g id="" transform="matrix(1 0 0 1 263 1933)">
   <path d="M 9.24805 0.830078 C 13.5547 0.830078 17.1387 -2.74414 17.1387 -7.05078 C 17.1387 -11.3574 13.5449 -14.9316 9.23828 -14.9316 C 4.94141 -14.9316 1.36719 -11.3574 1.36719 -7.05078 C 1.36719 -2.74414 4.95117 0.830078 9.24805 0.830078 Z M 9.24805 -0.654297 C 5.70312 -0.654297 2.87109 -3.49609 2.87109 -7.05078 C 2.87109 -10.6055 5.69336 -13.4473 9.23828 -13.4473 C 12.793 -13.4473 15.6348 -10.6055 15.6445 -7.05078 C 15.6543 -3.49609 12.8027 -0.654297 9.24805 -0.654297 Z M 9.22852 -3.42773 C 9.69727 -3.42773 9.9707 -3.74023 9.9707 -4.25781 L 9.9707 -6.31836 L 12.1973 -6.31836 C 12.6953 -6.31836 13.0371 -6.57227 13.0371 -7.04102 C 13.0371 -7.51953 12.7148 -7.7832 12.1973 -7.7832 L 9.9707 -7.7832 L 9.9707 -10.0098 C 9.9707 -10.5273 9.69727 -10.8496 9.22852 -10.8496 C 8.75977 -10.8496 8.50586 -10.5078 8.50586 -10.0098 L 8.50586 -7.7832 L 6.29883 -7.7832 C 5.78125 -7.7832 5.44922 -7.51953 5.44922 -7.04102 C 5.44922 -6.57227 5.80078 -6.31836 6.29883 -6.31836 L 8.50586 -6.31836 L 8.50586 -4.25781 C 8.50586 -3.75977 8.75977 -3.42773 9.22852 -3.42773 Z"/>
  </g>
  <g id="" transform="matrix(1 0 0 1 281.506 1933)">
   <path d="M 11.709 2.91016 C 17.1582 2.91016 21.6699 -1.60156 21.6699 -7.05078 C 21.6699 -12.4902 17.1484 -17.0117 11.6992 -17.0117 C 6.25977 -17.0117 1.74805 -12.4902 1.74805 -7.05078 C 1.74805 -1.60156 6.26953 2.91016 11.709 2.91016 Z M 11.709 1.25 C 7.09961 1.25 3.41797 -2.44141 3.41797 -7.05078 C 3.41797 -11.6504 7.08984 -15.3516 11.6992 -15.3516 C 16.3086 -15.3516 20 -11.6504 20.0098 -7.05078 C 20.0195 -2.44141 16.3184 1.25 11.709 1.25 Z M 11.6895 -2.41211 C 12.207 -2.41211 12.5195 -2.77344 12.5195 -3.33984 L 12.5195 -6.23047 L 15.5762 -6.23047 C 16.123 -6.23047 16.5039 -6.51367 16.5039 -7.03125 C 16.5039 -7.55859 16.1426 -7.86133 15.5762 -7.86133 L 12.5195 -7.86133 L 12.5195 -10.9277 C 12.5195 -11.5039 12.207 -11.8555 11.6895 -11.8555 C 11.1719 -11.8555 10.8789 -11.4844 10.8789 -10.9277 L 10.8789 -7.86133 L 7.83203 -7.86133 C 7.26562 -7.86133 6.89453 -7.55859 6.89453 -7.03125 C 6.89453 -6.51367 7.28516 -6.23047 7.83203 -6.23047 L 10.8789 -6.23047 L 10.8789 -3.33984 C 10.8789 -2.79297 11.1719 -2.41211 11.6895 -2.41211 Z"/>
  </g>
  <g id="" transform="matrix(1 0 0 1 304.924 1933)">
   <path d="M 14.9707 5.67383 C 21.9336 5.67383 27.6953 -0.078125 27.6953 -7.04102 C 27.6953 -14.0039 21.9238 -19.7559 14.9609 -19.7559 C 8.00781 -19.7559 2.25586 -14.0039 2.25586 -7.04102 C 2.25586 -0.078125 8.01758 5.67383 14.9707 5.67383 Z M 14.9707 3.85742 C 8.93555 3.85742 4.08203 -1.00586 4.08203 -7.04102 C 4.08203 -13.0762 8.92578 -17.9395 14.9609 -17.9395 C 21.0059 -17.9395 25.8594 -13.0762 25.8691 -7.04102 C 25.8789 -1.00586 21.0156 3.85742 14.9707 3.85742 Z M 14.9512 -1.06445 C 15.5176 -1.06445 15.8691 -1.45508 15.8691 -2.06055 L 15.8691 -6.13281 L 20.1074 -6.13281 C 20.6934 -6.13281 21.1133 -6.46484 21.1133 -7.02148 C 21.1133 -7.59766 20.7227 -7.93945 20.1074 -7.93945 L 15.8691 -7.93945 L 15.8691 -12.1875 C 15.8691 -12.8027 15.5176 -13.1934 14.9512 -13.1934 C 14.3848 -13.1934 14.0625 -12.7832 14.0625 -12.1875 L 14.0625 -7.93945 L 9.83398 -7.93945 C 9.21875 -7.93945 8.80859 -7.59766 8.80859 -7.02148 C 8.80859 -6.46484 9.23828 -6.13281 9.83398 -6.13281 L 14.0625 -6.13281 L 14.0625 -2.06055 C 14.0625 -1.47461 14.3848 -1.06445 14.9512 -1.06445 Z"/>
  </g>
  <text style="stroke:none;fill:black;font-family:-apple-system,&quot;SF Pro Display&quot;,&quot;SF Pro Text&quot;,Helvetica,sans-serif;font-weight:bold;" transform="matrix(1 0 0 1 263 1953)">Design Variations</text>
  <text style="stroke:none;fill:black;font-family:-apple-system,&quot;SF Pro Display&quot;,&quot;SF Pro Text&quot;,Helvetica,sans-serif;" transform="matrix(1 0 0 1 263 1971)">Symbols are supported in up to nine weights and three scales.</text>
  <text style="stroke:none;fill:black;font-family:-apple-system,&quot;SF Pro Display&quot;,&quot;SF Pro Text&quot;,Helvetica,sans-serif;" transform="matrix(1 0 0 1 263 1989)">For optimal layout with text and other symbols, vertically align</text>
  <text style="stroke:none;fill:black;font-family:-apple-system,&quot;SF Pro Display&quot;,&quot;SF Pro Text&quot;,Helvetica,sans-serif;" transform="matrix(1 0 0 1 263 2007)">symbols with the adjacent text.</text>
  <rect height="14" id="" style="fill:#00AEEF;stroke:none;opacity:0.4;" width="3" x="776" y="1919"/>
  <g id="" transform="matrix(1 0 0 1 779 1933)">
   <path d="M 10.5273 0 L 12.373 0 L 7.17773 -14.0918 L 5.43945 -14.0918 L 0.244141 0 L 2.08984 0 L 3.50586 -4.0332 L 9.11133 -4.0332 Z M 6.2793 -11.9531 L 6.33789 -11.9531 L 8.59375 -5.52734 L 4.02344 -5.52734 Z"/>
  </g>
  <rect height="14" id="" style="fill:#00AEEF;stroke:none;opacity:0.4;" width="3" x="791.617" y="1919"/>
  <text style="stroke:none;fill:black;font-family:-apple-system,&quot;SF Pro Display&quot;,&quot;SF Pro Text&quot;,Helvetica,sans-serif;font-weight:bold;" transform="matrix(1 0 0 1 776 1953)">Margins</text>
  <text style="stroke:none;fill:black;font-family:-apple-system,&quot;SF Pro Display&quot;,&quot;SF Pro Text&quot;,Helvetica,sans-serif;" transform="matrix(1 0 0 1 776 1971)">Leading and trailing margins on the left and right side of each symbol</text>
  <text style="stroke:none;fill:black;font-family:-apple-system,&quot;SF Pro Display&quot;,&quot;SF Pro Text&quot;,Helvetica,sans-serif;" transform="matrix(1 0 0 1 776 1989)">can be adjusted by modifying the width of the blue rectangles.</text>
  <text style="stroke:none;fill:black;font-family:-apple-system,&quot;SF Pro Display&quot;,&quot;SF Pro Text&quot;,Helvetica,sans-serif;" transform="matrix(1 0 0 1 776 2007)">Modifications are automatically applied proportionally to all</text>
  <text style="stroke:none;fill:black;font-family:-apple-system,&quot;SF Pro Display&quot;,&quot;SF Pro Text&quot;,Helvetica,sans-serif;" transform="matrix(1 0 0 1 776 2025)">scales and weights.</text>
  <g id="" transform="matrix(1 0 0 1 1289 1933)">
   <path d="M 2.83203 3.11523 L 4.375 4.6582 C 5.22461 5.48828 6.19141 5.41992 7.06055 4.46289 L 17.2754 -6.66016 C 17.7051 -6.36719 18.0957 -6.37695 18.5645 -6.47461 L 19.6094 -6.68945 L 20.3027 -5.99609 L 20.2539 -5.47852 C 20.1855 -4.95117 20.3516 -4.53125 20.8496 -4.0332 L 21.6602 -3.22266 C 22.168 -2.71484 22.8223 -2.68555 23.3008 -3.16406 L 26.5527 -6.41602 C 27.0312 -6.89453 27.0117 -7.54883 26.5039 -8.05664 L 25.6836 -8.87695 C 25.1855 -9.375 24.7754 -9.55078 24.2383 -9.47266 L 23.7109 -9.41406 L 23.0566 -10.0781 L 23.3398 -11.2207 C 23.4863 -11.7871 23.3398 -12.2559 22.7148 -12.8613 L 20.3027 -15.2539 C 16.7578 -18.7793 12.2266 -18.6719 9.11133 -15.5371 C 8.69141 -15.1074 8.64258 -14.5215 8.91602 -14.0918 C 9.15039 -13.7207 9.62891 -13.4961 10.2734 -13.6621 C 11.7871 -14.043 13.3008 -13.9258 14.7852 -12.9199 L 14.1602 -11.3379 C 13.9258 -10.752 13.9453 -10.2734 14.1797 -9.83398 L 3.01758 0.439453 C 2.08008 1.30859 1.97266 2.25586 2.83203 3.11523 Z M 10.6738 -15.1465 C 13.3398 -17.1387 16.6504 -16.8262 19.0527 -14.4141 L 21.6797 -11.8066 C 21.9141 -11.5723 21.9434 -11.3867 21.8848 -11.0938 L 21.5039 -9.53125 L 23.0762 -7.95898 L 24.043 -8.04688 C 24.3262 -8.07617 24.4141 -8.05664 24.6387 -7.83203 L 25.2637 -7.20703 L 22.5098 -4.46289 L 21.8848 -5.07812 C 21.6602 -5.30273 21.6406 -5.40039 21.6699 -5.68359 L 21.7578 -6.64062 L 20.1953 -8.20312 L 18.5742 -7.89062 C 18.291 -7.83203 18.1445 -7.83203 17.9102 -8.07617 L 15.7324 -10.2539 C 15.5078 -10.4883 15.4785 -10.625 15.6055 -10.9473 L 16.5527 -13.2227 C 14.9512 -14.7559 12.8418 -15.6055 10.8008 -14.9512 C 10.7129 -14.9219 10.6445 -14.9414 10.6152 -14.9805 C 10.5859 -15.0293 10.5859 -15.0781 10.6738 -15.1465 Z M 4.10156 2.41211 C 3.61328 1.91406 3.78906 1.61133 4.12109 1.30859 L 15.0781 -8.80859 L 16.3086 -7.57812 L 6.15234 3.34961 C 5.84961 3.68164 5.46875 3.7793 5.06836 3.37891 Z"/>
  </g>
  <text style="stroke:none;fill:black;font-family:-apple-system,&quot;SF Pro Display&quot;,&quot;SF Pro Text&quot;,Helvetica,sans-serif;font-weight:bold;" transform="matrix(1 0 0 1 1289 1953)">Exporting</text>
  <text style="stroke:none;fill:black;font-family:-apple-system,&quot;SF Pro Display&quot;,&quot;SF Pro Text&quot;,Helvetica,sans-serif;" transform="matrix(1 0 0 1 1289 1971)">Symbols should be outlined when exporting to ensure the</text>
  <text style="stroke:none;fill:black;font-family:-apple-system,&quot;SF Pro Display&quot;,&quot;SF Pro Text&quot;,Helvetica,sans-serif;" transform="matrix(1 0 0 1 1289 1989)">design is preserved when submitting to Xcode.</text>
  <text id="template-version" style="stroke:none;fill:black;font-family:-apple-system,&quot;SF Pro Display&quot;,&quot;SF Pro Text&quot;,Helvetica,sans-serif;text-anchor:end;" transform="matrix(1 0 0 1 3036 1933)">Template v.1.0</text>
  <text style="stroke:none;fill:black;font-family:-apple-system,&quot;SF Pro Display&quot;,&quot;SF Pro Text&quot;,Helvetica,sans-serif;text-anchor:end;" transform="matrix(1 0 0 1 3036 1951)">Generated from cloud.moon.rain</text>
  <text style="stroke:none;fill:black;font-family:-apple-system,&quot;SF Pro Display&quot;,&quot;SF Pro Text&quot;,Helvetica,sans-serif;text-anchor:end;" transform="matrix(1 0 0 1 3036 1969)">Typeset at 100 points</text>
  <text style="stroke:none;fill:black;font-family:-apple-system,&quot;SF Pro Display&quot;,&quot;SF Pro Text&quot;,Helvetica,sans-serif;" transform="matrix(1 0 0 1 263 726)">Small</text>
  <text style="stroke:none;fill:black;font-family:-apple-system,&quot;SF Pro Display&quot;,&quot;SF Pro Text&quot;,Helvetica,sans-serif;" transform="matrix(1 0 0 1 263 1156)">Medium</text>
  <text style="stroke:none;fill:black;font-family:-apple-system,&quot;SF Pro Display&quot;,&quot;SF Pro Text&quot;,Helvetica,sans-serif;" transform="matrix(1 0 0 1 263 1586)">Large</text>
 </g>
 <g id="Guides">
  <g id="H-reference" style="fill:#27AAE1;stroke:none;" transform="matrix(1 0 0 1 339 696)">
   <path d="M 54.9316 0 L 57.666 0 L 30.5664 -70.459 L 28.0762 -70.459 L 0.976562 0 L 3.66211 0 L 12.9395 -24.4629 L 45.7031 -24.4629 Z M 29.1992 -67.0898 L 29.4434 -67.0898 L 44.8242 -26.709 L 13.8184 -26.709 Z"/>
  </g>
  <line id="Baseline-S" style="fill:none;stroke:#27AAE1;opacity:1;stroke-width:0.577;" x1="263" x2="3036" y1="696" y2="696"/>
  <line id="Capline-S" style="fill:none;stroke:#27AAE1;opacity:1;stroke-width:0.577;" x1="263" x2="3036" y1="625.541" y2="625.541"/>
  <g id="H-reference" style="fill:#27AAE1;stroke:none;" transform="matrix(1 0 0 1 339 1126)">
   <path d="M 54.9316 0 L 57.666 0 L 30.5664 -70.459 L 28.0762 -70.459 L 0.976562 0 L 3.66211 0 L 12.9395 -24.4629 L 45.7031 -24.4629 Z M 29.1992 -67.0898 L 29.4434 -67.0898 L 44.8242 -26.709 L 13.8184 -26.709 Z"/>
  </g>
  <line id="Baseline-M" style="fill:none;stroke:#27AAE1;opacity:1;stroke-width:0.577;" x1="263" x2="3036" y1="1126" y2="1126"/>
  <line id="Capline-M" style="fill:none;stroke:#27AAE1;opacity:1;stroke-width:0.577;" x1="263" x2="3036" y1="1055.54" y2="1055.54"/>
  <g id="H-reference" style="fill:#27AAE1;stroke:none;" transform="matrix(1 0 0 1 339 1556)">
   <path d="M 54.9316 0 L 57.666 0 L 30.5664 -70.459 L 28.0762 -70.459 L 0.976562 0 L 3.66211 0 L 12.9395 -24.4629 L 45.7031 -24.4629 Z M 29.1992 -67.0898 L 29.4434 -67.0898 L 44.8242 -26.709 L 13.8184 -26.709 Z"/>
  </g>
  <line id="Baseline-L" style="fill:none;stroke:#27AAE1;opacity:1;stroke-width:0.577;" x1="263" x2="3036" y1="1556" y2="1556"/>
  <line id="Capline-L" style="fill:none;stroke:#27AAE1;opacity:1;stroke-width:0.577;" x1="263" x2="3036" y1="1485.54" y2="1485.54"/>
  <rect height="119.336" id="left-margin" style="fill:#00AEEF;stroke:none;opacity:0.4;" width="8.74023" x="1377.16" y="1030.79"/>
  <rect height="119.336" id="right-margin" style="fill:#00AEEF;stroke:none;opacity:0.4;" width="8.72336" x="1513.8" y="1030.79"/>
 </g>
 <g id="Symbols">
  <g id="Black-L" transform="matrix(1 0 0 1 2832.37 1556)">
   <path d="M 42.2363 8.59375 L 111.572 8.59375 C 131.885 8.59375 147.705 -6.93359 147.705 -26.9531 L 147.705 -27.0508 C 167.676 -26.8555 183.691 -37.8906 189.893 -55.0781 C 192.529 -62.4023 189.258 -68.6035 182.227 -68.6035 C 177.1 -68.6035 173.34 -66.5527 166.504 -66.5527 C 152.49 -66.5527 145.703 -74.0234 145.703 -88.3789 C 145.703 -96.0449 148.047 -101.123 148.047 -104.688 C 148.047 -111.621 141.797 -114.99 135.01 -112.646 C 118.457 -106.982 106.396 -90.4297 106.396 -72.5098 C 106.396 -72.1191 106.396 -71.6797 106.396 -71.2891 C 98.4863 -80.0293 87.3535 -84.7168 74.0234 -84.7168 C 51.8555 -84.7168 33.5449 -68.9941 29.9805 -47.0703 C 18.5059 -43.3105 11.2305 -33.1543 11.2305 -20.6055 C 11.2305 -3.66211 24.2676 8.59375 42.2363 8.59375 Z M 120.654 -72.5586 C 120.654 -82.5195 125.586 -91.748 133.398 -97.1191 L 134.229 -96.582 C 133.252 -93.5059 132.324 -89.209 132.324 -84.2773 C 132.324 -66.2598 144.727 -53.125 163.232 -53.125 C 168.213 -53.125 171.484 -54.1016 174.072 -54.9805 L 174.609 -54.3945 C 169.824 -46.4355 159.277 -40.918 144.629 -41.8457 C 140.479 -51.1719 132.52 -58.1543 122.559 -61.1816 C 121.289 -64.6973 120.654 -68.5547 120.654 -72.5586 Z M 42.6758 -8.74023 C 33.3008 -8.74023 28.6133 -13.5742 28.6133 -20.4102 C 28.6133 -26.4648 32.373 -31.1035 41.0156 -33.3008 C 44.6777 -34.2773 45.7031 -35.9375 46.2402 -39.6973 C 48.9258 -57.8613 60.0098 -67.4805 74.0234 -67.4805 C 84.4727 -67.4805 93.3105 -61.4258 99.3164 -50.1953 C 100.977 -47.1191 102.686 -45.9961 106.494 -45.9961 C 122.949 -45.9961 130.371 -37.5 130.371 -26.709 C 130.371 -16.5527 122.754 -8.74023 111.133 -8.74023 Z M 92.627 38.9648 L 100.391 25.5859 C 101.855 23.0469 101.172 19.873 98.5352 18.3105 C 95.8496 16.7969 92.9688 17.7734 91.4062 20.459 L 83.5938 33.8867 C 82.1777 36.377 82.7637 39.5508 85.4004 41.0645 C 88.0371 42.5293 91.1621 41.4551 92.627 38.9648 Z M 42.4805 39.0137 L 50.1953 25.6348 C 51.6602 23.0957 51.0254 19.873 48.3887 18.3594 C 45.7031 16.8457 42.8223 17.7734 41.2109 20.5078 L 33.4473 33.9355 C 32.0312 36.377 32.6172 39.5508 35.2539 41.0645 C 37.8906 42.5781 41.0156 41.5039 42.4805 39.0137 Z M 112.549 56.6406 L 120.264 43.2617 C 121.729 40.7227 121.094 37.5 118.457 35.9863 C 115.771 34.4727 112.891 35.4492 111.328 38.1348 L 103.516 51.5625 C 102.1 54.0527 102.686 57.1777 105.322 58.6914 C 107.959 60.2051 111.084 59.1309 112.549 56.6406 Z M 62.3535 56.6406 L 70.1172 43.2617 C 71.582 40.7715 70.9473 37.5488 68.2617 36.0352 C 65.625 34.4727 62.7441 35.4492 61.1328 38.1348 L 53.3691 51.5625 C 51.9043 54.0527 52.4902 57.2266 55.1758 58.7402 C 57.8125 60.2539 60.9375 59.1797 62.3535 56.6406 Z"/>
  </g>
  <g id="Heavy-L" transform="matrix(1 0 0 1 2537.57 1556)">
   <path d="M 41.1133 7.27539 L 110.205 7.27539 C 129.98 7.27539 145.312 -7.76367 145.312 -27.1973 C 145.312 -27.3438 145.312 -27.5391 145.312 -27.6855 C 165.576 -27.7344 180.566 -39.1113 186.182 -54.8828 C 188.574 -61.4746 185.547 -67.0898 179.199 -67.0898 C 174.463 -67.0898 170.752 -65.0879 163.867 -65.0879 C 149.365 -65.0879 142.09 -72.998 142.09 -87.4512 C 142.09 -95.1172 144.434 -99.8535 144.434 -103.369 C 144.434 -109.717 138.77 -112.793 132.422 -110.645 C 116.846 -105.42 104.736 -89.6484 104.736 -71.6797 C 104.736 -71.1914 104.736 -70.7031 104.736 -70.2148 C 96.9238 -79.0039 85.8887 -83.8379 72.8027 -83.8379 C 51.0254 -83.8379 33.0078 -68.0176 29.7852 -46.3867 C 18.5547 -42.7734 11.2305 -32.9102 11.2305 -20.6543 C 11.2305 -4.44336 23.6328 7.27539 41.1133 7.27539 Z M 117.48 -71.7773 C 117.48 -82.5684 123.34 -91.8457 131.25 -96.8262 L 132.031 -96.3379 C 131.006 -93.2617 130.029 -88.9648 130.029 -83.9355 C 130.029 -65.9668 142.529 -53.0762 160.986 -53.0762 C 165.82 -53.0762 169.434 -54.0039 172.119 -54.8828 L 172.607 -54.3945 C 168.213 -46.582 157.91 -40.1367 142.627 -40.8203 C 138.525 -50.5859 130.029 -57.8613 119.336 -60.5957 C 118.066 -64.0625 117.48 -67.8223 117.48 -71.7773 Z M 41.3574 -7.95898 C 31.543 -7.95898 26.5625 -13.2324 26.5625 -20.459 C 26.5625 -26.7578 30.4688 -31.7383 39.3066 -34.082 C 42.7734 -34.9609 43.75 -36.5234 44.2383 -40.0391 C 46.6309 -58.1543 58.252 -68.6035 72.8027 -68.6035 C 83.8867 -68.6035 92.9199 -62.3047 98.9258 -50.9277 C 100.488 -47.998 102.1 -46.9727 105.713 -46.9727 C 122.07 -46.9727 130.078 -38.0371 130.078 -26.9043 C 130.078 -16.2598 121.875 -7.95898 109.912 -7.95898 Z M 91.0645 37.5488 L 99.0234 23.7793 C 100.391 21.4355 99.7559 18.5547 97.3633 17.1387 C 94.9219 15.7715 92.2852 16.6016 90.8203 19.0918 L 82.8125 32.9102 C 81.4941 35.1562 82.0312 38.0371 84.4727 39.4531 C 86.9141 40.7715 89.7461 39.8438 91.0645 37.5488 Z M 40.918 37.5488 L 48.877 23.8281 C 50.2441 21.4844 49.6094 18.5547 47.2168 17.1875 C 44.7754 15.7715 42.1387 16.6504 40.6738 19.0918 L 32.666 32.9102 C 31.3477 35.2051 31.8848 38.0859 34.3262 39.4531 C 36.7188 40.8203 39.5996 39.8926 40.918 37.5488 Z M 110.938 55.2246 L 118.896 41.4551 C 120.264 39.1113 119.629 36.1816 117.236 34.8145 C 114.795 33.4473 112.158 34.2773 110.693 36.7676 L 102.686 50.5859 C 101.367 52.832 101.953 55.7129 104.346 57.0801 C 106.787 58.4473 109.619 57.5195 110.938 55.2246 Z M 60.791 55.2246 L 68.75 41.4551 C 70.1172 39.1602 69.4824 36.2305 67.0898 34.8145 C 64.6484 33.4473 62.0117 34.3262 60.5469 36.7676 L 52.5391 50.5859 C 51.2207 52.8809 51.7578 55.7617 54.1992 57.1289 C 56.6406 58.4961 59.4727 57.5195 60.791 55.2246 Z"/>
  </g>
  <g id="Bold-L" transform="matrix(1 0 0 1 2242.98 1556)">
   <path d="M 39.7949 5.81055 L 108.691 5.81055 C 127.832 5.81055 142.676 -8.74023 142.676 -27.3926 C 142.676 -27.7344 142.676 -28.0762 142.676 -28.418 C 163.184 -28.6621 177.051 -40.4785 182.031 -54.6387 C 184.18 -60.4492 181.396 -65.4297 175.781 -65.4297 C 171.484 -65.4297 167.822 -63.4766 160.938 -63.4766 C 145.85 -63.4766 138.037 -71.8262 138.037 -86.377 C 138.037 -94.043 140.43 -98.3887 140.43 -101.855 C 140.43 -107.568 135.4 -110.352 129.541 -108.398 C 115.137 -103.711 102.832 -88.7695 102.832 -70.7031 C 102.832 -70.1172 102.881 -69.5801 102.881 -68.9941 C 95.166 -77.832 84.3262 -82.8613 71.4844 -82.8613 C 50.0977 -82.8613 32.373 -66.8945 29.541 -45.6543 C 18.6035 -42.1875 11.2793 -32.666 11.2793 -20.6543 C 11.2793 -5.32227 22.9492 5.81055 39.7949 5.81055 Z M 113.916 -70.8496 C 113.916 -82.6172 120.801 -91.9434 128.857 -96.5332 L 129.541 -96.0449 C 128.516 -92.9688 127.49 -88.623 127.49 -83.5449 C 127.49 -65.6738 140.137 -52.9785 158.496 -52.9785 C 163.232 -52.9785 167.09 -53.8574 169.971 -54.834 L 170.41 -54.3457 C 166.455 -46.7285 156.348 -39.3066 140.381 -39.6973 C 136.328 -49.9512 127.246 -57.4707 115.723 -59.8145 C 114.551 -63.2812 113.916 -66.9922 113.916 -70.8496 Z M 39.9414 -7.12891 C 29.5898 -7.12891 24.2188 -12.8418 24.2188 -20.459 C 24.2188 -27.0996 28.3691 -32.5195 37.3535 -34.9121 C 40.5762 -35.7422 41.5527 -37.1582 41.9434 -40.4297 C 43.9941 -58.4961 56.3477 -69.9219 71.4844 -69.9219 C 83.2031 -69.9219 92.4805 -63.2324 98.4863 -51.709 C 99.9023 -48.9746 101.465 -47.998 104.785 -47.998 C 121.143 -47.998 129.736 -38.6719 129.736 -27.1484 C 129.736 -15.9668 120.898 -7.12891 108.545 -7.12891 Z M 89.3066 35.9375 L 97.5098 21.7285 C 98.7793 19.6289 98.1934 17.041 96.0449 15.8203 C 93.8477 14.5508 91.5039 15.332 90.1855 17.5293 L 81.9336 31.7871 C 80.7617 33.8379 81.25 36.377 83.4473 37.5977 C 85.5957 38.8184 88.1348 37.9883 89.3066 35.9375 Z M 39.1602 35.9375 L 47.3633 21.7773 C 48.6328 19.6777 48.0469 17.0898 45.8984 15.8203 C 43.7012 14.5996 41.3574 15.332 40.0391 17.5781 L 31.7871 31.7871 C 30.6152 33.8867 31.1035 36.4258 33.3008 37.6465 C 35.4492 38.8672 37.9883 38.0371 39.1602 35.9375 Z M 109.18 53.6133 L 117.383 39.4531 C 118.604 37.3047 118.018 34.7168 115.869 33.4961 C 113.721 32.2754 111.328 33.0078 110.01 35.2051 L 101.807 49.4629 C 100.586 51.5137 101.123 54.0527 103.271 55.3223 C 105.42 56.4941 107.959 55.7129 109.18 53.6133 Z M 59.0332 53.6133 L 67.2363 39.4531 C 68.457 37.3535 67.8711 34.7656 65.7227 33.5449 C 63.5742 32.2754 61.1816 33.0566 59.8633 35.2539 L 51.6602 49.5117 C 50.4395 51.5625 50.9766 54.1016 53.125 55.3223 C 55.2734 56.543 57.8125 55.7129 59.0332 53.6133 Z"/>
  </g>
  <g id="Semibold-L" transform="matrix(1 0 0 1 1947.71 1556)">
   <path d="M 38.916 4.83398 L 107.666 4.83398 C 126.318 4.83398 140.869 -9.375 140.869 -27.5879 C 140.869 -28.0273 140.869 -28.4668 140.82 -28.9062 C 161.523 -29.3457 174.658 -41.4062 179.199 -54.4922 C 181.152 -59.7656 178.516 -64.3066 173.438 -64.3066 C 169.385 -64.3066 165.869 -62.4023 158.936 -62.4023 C 143.457 -62.4023 135.254 -71.0449 135.254 -85.6445 C 135.254 -93.3105 137.646 -97.3633 137.646 -100.83 C 137.646 -106.104 133.057 -108.643 127.588 -106.836 C 113.916 -102.539 101.562 -88.1348 101.562 -70.0684 C 101.562 -69.4336 101.562 -68.7988 101.611 -68.1641 C 93.9453 -77.0508 83.2031 -82.1777 70.5566 -82.1777 C 49.4141 -82.1777 31.9336 -66.1621 29.3945 -45.1172 C 18.6035 -41.748 11.2793 -32.5195 11.2793 -20.7031 C 11.2793 -5.95703 22.4609 4.83398 38.916 4.83398 Z M 111.475 -70.2148 C 111.475 -82.666 119.092 -92.041 127.197 -96.2891 L 127.832 -95.8496 C 126.758 -92.8223 125.732 -88.4277 125.732 -83.3008 C 125.732 -65.4297 138.428 -52.9297 156.738 -52.9297 C 161.377 -52.9297 165.479 -53.7598 168.457 -54.7852 L 168.896 -54.3457 C 165.186 -46.8262 155.273 -38.7207 138.818 -38.916 C 134.863 -49.5117 125.342 -57.1777 113.281 -59.2773 C 112.109 -62.6953 111.475 -66.4062 111.475 -70.2148 Z M 38.916 -6.54297 C 28.2715 -6.54297 22.6074 -12.5977 22.6074 -20.5078 C 22.6074 -27.3438 26.8555 -33.0078 36.0352 -35.498 C 39.0625 -36.2793 40.0391 -37.6465 40.3809 -40.7227 C 42.1875 -58.6914 55.0293 -70.8496 70.5566 -70.8496 C 82.7148 -70.8496 92.2363 -63.916 98.1445 -52.2949 C 99.5117 -49.6582 101.025 -48.7305 104.199 -48.7305 C 120.459 -48.7305 129.541 -39.1113 129.541 -27.3438 C 129.541 -15.7227 120.215 -6.54297 107.617 -6.54297 Z M 88.1348 34.8145 L 96.4844 20.3613 C 97.6562 18.3594 97.0703 16.0156 95.1172 14.8926 C 93.1641 13.7695 90.9668 14.4043 89.7461 16.4551 L 81.3477 31.0059 C 80.2246 32.9102 80.7129 35.2051 82.7148 36.377 C 84.668 37.5 87.0117 36.7676 88.1348 34.8145 Z M 37.9883 34.8633 L 46.3379 20.4102 C 47.5098 18.4082 46.9238 16.0645 44.9707 14.9414 C 43.0176 13.8184 40.8203 14.4531 39.5996 16.5039 L 31.2012 31.0547 C 30.0781 32.959 30.5664 35.2539 32.5684 36.4258 C 34.5215 37.5 36.8652 36.7676 37.9883 34.8633 Z M 107.959 52.4902 L 116.309 38.0371 C 117.48 36.0352 116.895 33.7402 114.941 32.5684 C 112.988 31.4453 110.742 32.1289 109.57 34.1797 L 101.172 48.6816 C 100.049 50.5859 100.537 52.9297 102.539 54.0527 C 104.492 55.1758 106.836 54.4434 107.959 52.4902 Z M 57.8125 52.5391 L 66.1621 38.0859 C 67.334 36.084 66.748 33.7891 64.7949 32.6172 C 62.8418 31.4941 60.6445 32.1777 59.4238 34.1797 L 51.0254 48.7305 C 49.9023 50.6348 50.3906 52.9297 52.3926 54.1016 C 54.3457 55.2246 56.6895 54.4922 57.8125 52.5391 Z"/>
  </g>
  <g id="Medium-L" transform="matrix(1 0 0 1 1652.12 1556)">
   <path d="M 38.2812 4.05273 L 106.836 4.05273 C 125.195 4.05273 139.502 -9.86328 139.502 -27.6855 C 139.502 -28.2227 139.453 -28.7598 139.453 -29.248 C 160.254 -29.834 172.852 -42.0898 177.002 -54.3457 C 178.857 -59.2285 176.318 -63.4277 171.68 -63.4277 C 167.822 -63.4277 164.355 -61.5234 157.373 -61.5234 C 141.65 -61.5234 133.154 -70.459 133.154 -85.0586 C 133.154 -92.7246 135.547 -96.6309 135.547 -100.049 C 135.547 -104.98 131.299 -107.373 126.074 -105.664 C 112.988 -101.611 100.586 -87.6953 100.586 -69.5801 C 100.586 -68.8965 100.586 -68.1641 100.635 -67.5293 C 93.0176 -76.416 82.373 -81.6406 69.8242 -81.6406 C 48.9258 -81.6406 31.5918 -65.5762 29.2969 -44.7266 C 18.6523 -41.4551 11.2793 -32.373 11.2793 -20.7031 C 11.2793 -6.44531 22.0703 4.05273 38.2812 4.05273 Z M 109.619 -69.7266 C 109.619 -82.7148 117.773 -92.0898 125.977 -96.1426 L 126.562 -95.7031 C 125.439 -92.6758 124.365 -88.2812 124.365 -83.1055 C 124.365 -65.2832 137.158 -52.8809 155.42 -52.8809 C 160.01 -52.8809 164.258 -53.7109 167.334 -54.7363 L 167.773 -54.3457 C 164.258 -46.875 154.443 -38.2812 137.646 -38.3301 C 133.74 -49.1699 123.926 -56.9336 111.426 -58.7891 C 110.254 -62.207 109.619 -65.918 109.619 -69.7266 Z M 38.1836 -6.10352 C 27.2461 -6.10352 21.4355 -12.4023 21.4355 -20.5078 C 21.4355 -27.5391 25.7812 -33.3984 35.0098 -35.9375 C 37.9395 -36.6699 38.916 -37.9883 39.209 -40.918 C 40.8203 -58.8867 54.0039 -71.5332 69.8242 -71.5332 C 82.373 -71.5332 91.9922 -64.4043 97.9492 -52.7344 C 99.2188 -50.1953 100.684 -49.3164 103.711 -49.3164 C 119.971 -49.3164 129.346 -39.4531 129.346 -27.4414 C 129.346 -15.5762 119.727 -6.10352 106.885 -6.10352 Z M 87.207 33.9355 L 95.7031 19.2871 C 96.8262 17.4316 96.2402 15.2832 94.4336 14.209 C 92.5781 13.1348 90.5273 13.7695 89.4043 15.6738 L 80.8594 30.4199 C 79.834 32.1777 80.3223 34.3262 82.1777 35.4004 C 83.9844 36.4258 86.1816 35.791 87.207 33.9355 Z M 37.1094 33.9844 L 45.5566 19.3359 C 46.6797 17.4805 46.1426 15.2832 44.2871 14.209 C 42.4316 13.1836 40.3809 13.7695 39.2578 15.7227 L 30.7617 30.4688 C 29.6875 32.2266 30.1758 34.375 32.0312 35.4492 C 33.8867 36.4746 36.0352 35.8398 37.1094 33.9844 Z M 107.031 51.6602 L 115.527 37.0117 C 116.602 35.1074 116.064 32.959 114.258 31.8848 C 112.402 30.8594 110.352 31.4453 109.18 33.3496 L 100.684 48.0957 C 99.6582 49.9023 100.098 52.0508 102.002 53.125 C 103.809 54.1504 106.006 53.4668 107.031 51.6602 Z M 56.8848 51.709 L 65.3809 37.0605 C 66.5039 35.1562 65.918 33.0078 64.1113 31.9336 C 62.2559 30.8594 60.2051 31.4941 59.082 33.3984 L 50.5371 48.1445 C 49.5117 49.9512 50 52.0996 51.8555 53.1738 C 53.6621 54.1992 55.8594 53.5156 56.8848 51.709 Z"/>
  </g>
  <g id="Regular-L" transform="matrix(1 0 0 1 1356.85 1556)">
   <path d="M 37.4023 3.07617 L 105.811 3.07617 C 123.73 3.07617 137.695 -10.498 137.695 -27.8809 C 137.695 -28.5156 137.646 -29.1016 137.598 -29.7363 C 158.643 -30.4688 170.459 -43.0176 174.219 -54.1992 C 175.83 -58.4961 173.486 -62.3047 169.336 -62.3047 C 165.82 -62.3047 162.354 -60.4492 155.371 -60.4492 C 139.258 -60.4492 130.371 -69.6777 130.371 -84.3262 C 130.371 -91.9922 132.812 -95.6055 132.812 -99.0234 C 132.812 -103.516 128.955 -105.713 124.072 -104.15 C 111.768 -100.439 99.3164 -87.0605 99.3164 -68.9453 C 99.3164 -68.1641 99.3164 -67.4316 99.3652 -66.6504 C 91.8457 -75.6348 81.2988 -80.957 68.8965 -80.957 C 48.291 -80.957 31.1523 -64.8438 29.1504 -44.1895 C 18.6523 -41.0645 11.2793 -32.1777 11.2793 -20.7031 C 11.2793 -7.03125 21.582 3.07617 37.4023 3.07617 Z M 107.227 -69.1406 C 107.227 -82.7637 116.064 -92.1387 124.316 -95.9473 L 124.902 -95.5078 C 123.73 -92.4805 122.656 -88.0371 122.656 -82.8613 C 122.656 -65.0879 135.498 -52.7832 153.711 -52.7832 C 158.203 -52.7832 162.695 -53.6133 165.869 -54.6875 L 166.26 -54.3457 C 163.037 -46.9727 153.369 -37.6953 136.084 -37.5977 C 132.324 -48.6816 122.07 -56.6406 109.033 -58.2031 C 107.812 -61.6211 107.227 -65.2832 107.227 -69.1406 Z M 37.207 -5.51758 C 25.9277 -5.51758 19.8242 -12.1094 19.8242 -20.5078 C 19.8242 -27.7832 24.3164 -33.8867 33.6914 -36.4746 C 36.4258 -37.207 37.4023 -38.4277 37.6465 -41.2109 C 39.0625 -59.082 52.7344 -72.4121 68.8965 -72.4121 C 81.9336 -72.4121 91.6992 -65.0391 97.6074 -53.2715 C 98.8281 -50.8301 100.244 -50.0488 103.125 -50.0488 C 119.287 -50.0488 129.102 -39.8926 129.102 -27.6367 C 129.102 -15.3809 119.043 -5.51758 105.957 -5.51758 Z M 86.0352 32.8613 L 94.6777 17.9199 C 95.7031 16.1621 95.166 14.2578 93.5547 13.2812 C 91.8945 12.3047 89.9902 12.8418 88.9648 14.5996 L 80.2734 29.6387 C 79.2969 31.2988 79.7852 33.2031 81.4941 34.1797 C 83.1055 35.1074 85.1074 34.5215 86.0352 32.8613 Z M 35.8887 32.9102 L 44.5312 17.9688 C 45.6055 16.2109 45.0684 14.3066 43.4082 13.3301 C 41.748 12.3535 39.8438 12.9395 38.8184 14.6484 L 30.127 29.6875 C 29.1992 31.3477 29.6387 33.252 31.3477 34.2285 C 32.959 35.1562 34.9609 34.5703 35.8887 32.9102 Z M 105.811 50.5859 L 114.453 35.6445 C 115.479 33.8867 114.941 31.9824 113.33 31.0059 C 111.67 30.0293 109.766 30.5664 108.74 32.3242 L 100.049 47.3633 C 99.1211 48.9746 99.5605 50.9277 101.27 51.9043 C 102.881 52.832 104.883 52.2461 105.811 50.5859 Z M 55.7129 50.6348 L 64.3066 35.6934 C 65.3809 33.9355 64.8438 32.0312 63.1836 31.0547 C 61.5234 30.0781 59.668 30.6152 58.5938 32.373 L 49.9023 47.4121 C 48.9746 49.0234 49.4141 50.9766 51.123 51.9531 C 52.7832 52.8809 54.7363 52.2949 55.7129 50.6348 Z"/>
  </g>
  <g id="Light-L" transform="matrix(1 0 0 1 1061.19 1556)">
   <path d="M 36.5723 3.02734 L 105.322 3.02734 C 122.852 3.02734 136.523 -10.2051 136.523 -27.0508 C 136.523 -27.832 136.475 -28.6133 136.426 -29.3945 C 158.789 -30.0781 169.873 -44.5312 172.266 -54.3945 C 173.291 -57.6172 171.436 -60.3516 168.311 -60.3516 C 165.137 -60.3516 161.182 -58.252 153.857 -58.252 C 137.646 -58.252 128.271 -67.9199 128.271 -82.6172 C 128.271 -91.0156 130.957 -94.2383 130.957 -97.4609 C 130.957 -101.074 127.979 -102.734 124.023 -101.66 C 113.086 -98.9258 99.1211 -86.7188 99.1211 -67.5781 C 99.1211 -66.5527 99.1699 -65.5273 99.2188 -64.5508 C 91.7969 -73.9258 81.25 -79.6387 68.4082 -79.6387 C 48.1445 -79.6387 31.3965 -63.5254 29.4434 -42.9199 C 18.9941 -39.9414 11.2793 -31.4453 11.2793 -19.9219 C 11.2793 -6.93359 21.0449 3.02734 36.5723 3.02734 Z M 105.176 -67.7246 C 105.176 -83.3496 116.211 -92.5781 124.463 -95.4102 L 124.854 -95.0195 C 123.535 -91.9922 122.266 -87.3535 122.266 -81.6895 C 122.266 -64.3555 134.668 -52.2949 152.783 -52.2949 C 157.373 -52.2949 162.256 -53.1738 165.82 -54.4434 L 166.162 -54.1504 C 163.867 -46.9727 154.492 -35.5957 135.303 -35.4492 C 131.787 -47.168 120.898 -55.5664 107.031 -56.6406 C 105.811 -60.1562 105.176 -63.8672 105.176 -67.7246 Z M 36.4258 -3.41797 C 24.3652 -3.41797 17.7246 -10.6934 17.7246 -19.7754 C 17.7246 -27.8809 22.998 -34.2773 32.5684 -37.0117 C 34.9121 -37.6465 35.6934 -38.623 35.8887 -40.8203 C 37.207 -59.0332 51.6113 -73.1445 68.4082 -73.1445 C 82.5195 -73.1445 92.7246 -64.9902 98.6328 -53.1738 C 99.6582 -51.123 100.879 -50.4395 103.271 -50.4395 C 119.336 -50.4395 130.029 -39.8926 130.029 -26.8555 C 130.029 -13.916 119.287 -3.41797 105.42 -3.41797 Z M 84.6191 33.252 L 93.8477 17.2852 C 94.7266 15.8203 94.3359 14.3066 92.9688 13.4766 C 91.6992 12.7441 90.1855 13.1836 89.3066 14.6484 L 80.0293 30.6641 C 79.1992 32.0801 79.5898 33.5938 80.9082 34.4238 C 82.2754 35.1562 83.8379 34.668 84.6191 33.252 Z M 34.4727 33.252 L 43.7012 17.334 C 44.5801 15.8691 44.1895 14.3066 42.8223 13.5254 C 41.5527 12.793 40.0391 13.2324 39.1113 14.6973 L 29.8828 30.7129 C 29.0527 32.1289 29.3945 33.6426 30.7617 34.4238 C 32.1289 35.2051 33.6914 34.7168 34.4727 33.252 Z M 104.492 50.9277 L 113.721 34.9609 C 114.6 33.4961 114.209 31.9824 112.842 31.1523 C 111.572 30.4199 110.059 30.8594 109.18 32.3242 L 99.9023 48.3398 C 99.0723 49.7559 99.4141 51.2695 100.781 52.0996 C 102.148 52.832 103.711 52.3438 104.492 50.9277 Z M 54.3457 50.9277 L 63.5742 35.0098 C 64.4531 33.5449 64.0625 31.9824 62.6953 31.2012 C 61.377 30.4688 59.9121 30.9082 58.9844 32.373 L 49.7559 48.3887 C 48.9258 49.8047 49.2676 51.3184 50.6348 52.0996 C 51.9531 52.8809 53.5645 52.3926 54.3457 50.9277 Z"/>
  </g>
  <g id="Thin-L" transform="matrix(1 0 0 1 765.895 1556)">
   <path d="M 35.4492 3.02734 L 104.639 3.02734 C 121.68 3.02734 134.961 -9.81445 134.961 -25.9766 C 134.961 -26.9531 134.912 -27.9297 134.814 -28.9062 C 159.131 -29.3457 169.189 -46.6309 169.727 -54.5898 C 169.922 -56.4941 168.701 -57.8125 166.895 -57.8125 C 164.307 -57.8125 159.668 -55.3223 151.807 -55.3223 C 135.498 -55.3223 125.488 -65.5762 125.488 -80.3223 C 125.488 -89.7461 128.516 -92.4316 128.516 -95.4102 C 128.516 -97.8027 126.709 -98.7793 123.975 -98.291 C 114.844 -96.875 98.8281 -86.2305 98.8281 -65.7227 C 98.8281 -64.3555 98.9258 -62.9883 99.0723 -61.6211 C 91.748 -71.582 81.25 -77.8809 67.7246 -77.8809 C 47.998 -77.8809 31.6895 -61.7188 29.8828 -41.2109 C 19.4824 -38.4766 11.2793 -30.3711 11.2793 -18.8477 C 11.2793 -6.83594 20.3613 3.02734 35.4492 3.02734 Z M 102.539 -65.918 C 102.539 -84.1309 116.455 -93.1641 124.609 -94.6289 L 124.805 -94.3848 C 123.291 -91.4062 121.826 -86.4258 121.826 -80.127 C 121.826 -63.3301 133.545 -51.6602 151.611 -51.6602 C 156.25 -51.6602 161.621 -52.6367 165.771 -54.1016 L 166.016 -53.9551 C 165.039 -47.0215 156.055 -32.7148 134.18 -32.5684 C 131.104 -45.166 119.336 -54.1504 104.346 -54.5898 C 103.125 -58.2031 102.539 -61.9629 102.539 -65.918 Z M 35.4004 -0.683594 C 22.3145 -0.683594 14.9902 -8.83789 14.9902 -18.7988 C 14.9902 -27.9785 21.2891 -34.8145 31.1035 -37.7441 C 32.8613 -38.2324 33.3984 -38.916 33.4961 -40.3809 C 34.7656 -58.9844 50.1465 -74.1699 67.7246 -74.1699 C 83.252 -74.1699 94.043 -64.8926 100 -53.0762 C 100.781 -51.5137 101.66 -50.9766 103.516 -50.9766 C 119.434 -50.9766 131.25 -39.8438 131.25 -25.8301 C 131.25 -11.9629 119.58 -0.683594 104.688 -0.683594 Z M 82.7637 33.7402 L 92.7734 16.5039 C 93.457 15.3809 93.2129 14.3555 92.2852 13.7695 C 91.4062 13.3301 90.4297 13.5742 89.6973 14.7461 L 79.6875 32.0312 C 79.1016 33.1543 79.2969 34.1309 80.2246 34.7168 C 81.1035 35.2539 82.1289 34.8633 82.7637 33.7402 Z M 32.5684 33.7402 L 42.5781 16.5039 C 43.3105 15.3809 43.0176 14.3555 42.0898 13.8184 C 41.2598 13.3301 40.2344 13.623 39.5508 14.7461 L 29.541 32.0312 C 28.9062 33.1543 29.1016 34.1797 30.0293 34.7168 C 30.957 35.2539 31.9824 34.9121 32.5684 33.7402 Z M 102.783 51.3672 L 112.744 34.1309 C 113.477 32.959 113.184 31.9824 112.256 31.3965 C 111.426 30.957 110.4 31.2012 109.717 32.373 L 99.707 49.6094 C 99.0723 50.7324 99.2676 51.7578 100.195 52.3438 C 101.123 52.8809 102.148 52.4902 102.783 51.3672 Z M 52.5879 51.3672 L 62.5977 34.1309 C 63.2812 33.0078 62.9883 31.9824 62.1094 31.3965 C 61.2305 30.957 60.2539 31.25 59.5215 32.373 L 49.5117 49.6582 C 48.9258 50.7812 49.1211 51.8066 50.0488 52.3438 C 50.9277 52.8809 51.9531 52.5391 52.5879 51.3672 Z"/>
  </g>
  <g id="Ultralight-L" transform="matrix(1 0 0 1 469.916 1556)">
   <path d="M 34.8633 3.02734 L 104.297 3.02734 C 121.045 3.02734 134.18 -9.61914 134.18 -25.4395 C 134.18 -26.5137 134.082 -27.5879 133.984 -28.6133 C 159.326 -28.7598 168.896 -47.7539 168.408 -54.6875 C 168.213 -55.9082 167.334 -56.4941 166.211 -56.4941 C 163.867 -56.4941 158.838 -53.8574 150.781 -53.8574 C 134.424 -53.8574 124.023 -64.3555 124.023 -79.1992 C 124.023 -89.0625 127.246 -91.5039 127.246 -94.3359 C 127.246 -96.1426 126.025 -96.7773 123.926 -96.6309 C 115.771 -95.8008 98.6816 -85.9863 98.6816 -64.7949 C 98.6816 -63.2324 98.7793 -61.6211 99.0234 -60.0098 C 91.748 -70.3613 81.2988 -76.9531 67.3828 -76.9531 C 47.9004 -76.9531 31.8359 -60.791 30.127 -40.332 C 19.7266 -37.7441 11.2793 -29.8828 11.2793 -18.2617 C 11.2793 -6.78711 20.0195 3.02734 34.8633 3.02734 Z M 102.979 -53.4668 C 102.93 -53.5645 102.832 -53.7109 102.783 -53.8574 C 101.66 -57.4219 101.172 -61.1328 101.172 -64.9902 C 101.172 -84.5215 116.602 -93.457 124.707 -94.2871 L 124.805 -94.043 C 123.145 -91.1133 121.582 -85.9375 121.582 -79.3457 C 121.582 -62.8418 133.008 -51.3672 150.977 -51.3672 C 155.664 -51.3672 161.328 -52.3438 165.723 -53.9062 L 165.967 -53.8574 C 165.674 -47.0703 156.934 -31.2012 133.74 -31.1035 L 133.74 -30.3223 C 131.299 -43.75 118.848 -53.418 102.979 -53.4668 Z M 34.9121 0.732422 C 21.2891 0.732422 13.5742 -7.86133 13.5742 -18.3105 C 13.5742 -28.0762 20.4102 -35.0586 30.3711 -38.0859 C 31.8359 -38.5742 32.2266 -39.0137 32.3242 -40.1367 C 33.4961 -58.9844 49.4141 -74.6582 67.3828 -74.6582 C 83.3984 -74.6582 94.3359 -65.1855 100.391 -53.6621 C 100.488 -53.2227 100.635 -52.7832 100.781 -52.3438 L 101.025 -52.4414 C 101.611 -51.5625 102.344 -51.2695 103.662 -51.2695 C 119.434 -51.2695 131.885 -39.8438 131.885 -25.293 C 131.885 -10.9863 119.727 0.732422 104.297 0.732422 Z M 31.6406 34.0332 L 42.041 16.0645 C 42.627 15.1367 42.4316 14.3555 41.6992 13.916 C 41.1133 13.5742 40.332 13.8184 39.7461 14.7461 L 29.3457 32.666 C 28.8574 33.6426 28.9551 34.4238 29.6387 34.8633 C 30.3711 35.2539 31.1035 34.9609 31.6406 34.0332 Z M 81.8359 34.0332 L 92.2363 16.0645 C 92.8223 15.1367 92.627 14.3555 91.8945 13.916 C 91.3086 13.623 90.5273 13.8184 89.9414 14.7461 L 79.541 32.7148 C 79.0039 33.6914 79.1504 34.4238 79.834 34.8633 C 80.5664 35.2539 81.2988 34.9609 81.8359 34.0332 Z M 51.6602 51.6113 L 62.1094 33.6914 C 62.6953 32.7148 62.4512 31.9336 61.7676 31.543 C 61.1816 31.2012 60.4004 31.3965 59.8145 32.373 L 49.4141 50.293 C 48.877 51.2695 49.0234 52.002 49.707 52.4414 C 50.3906 52.8809 51.1719 52.5879 51.6602 51.6113 Z M 101.855 51.6113 L 112.256 33.6914 C 112.891 32.7148 112.646 31.9824 111.963 31.543 C 111.377 31.2012 110.596 31.3965 110.01 32.373 L 99.6094 50.293 C 99.0723 51.2695 99.2188 52.0508 99.9023 52.4414 C 100.586 52.8809 101.367 52.5879 101.855 51.6113 Z"/>
  </g>
  <g id="Black-M" transform="matrix(1 0 0 1 2853.1 1126)">
   <path d="M 33.8867 0.488281 L 88.0859 0.488281 C 104.297 0.488281 116.943 -11.9141 117.09 -27.9297 C 132.764 -27.3926 146.24 -36.377 151.172 -50.9766 C 153.223 -57.0801 150.684 -62.0605 144.824 -62.0605 C 140.576 -62.0605 137.256 -60.2539 131.787 -60.2539 C 121.582 -60.2539 116.748 -65.7227 116.748 -76.8066 C 116.748 -83.1055 118.604 -87.3047 118.604 -90.0391 C 118.604 -95.7031 113.477 -98.3887 108.105 -96.582 C 94.6777 -92.0898 84.6191 -78.9062 84.6191 -64.502 C 84.6191 -64.209 84.668 -63.8672 84.668 -63.5742 C 78.418 -70.5078 69.6289 -74.0723 58.7891 -74.0723 C 41.3086 -74.0723 26.9531 -61.9629 23.7305 -44.6289 C 14.5508 -41.6504 8.74023 -33.4961 8.74023 -23.4375 C 8.74023 -9.61914 19.4336 0.488281 33.8867 0.488281 Z M 96.7773 -64.502 C 96.7773 -72.1191 100.488 -79.1504 106.396 -83.252 L 107.031 -82.8613 C 106.25 -80.4688 105.518 -77.0996 105.518 -73.0957 C 105.518 -59.2773 114.697 -48.9746 129.102 -48.9746 C 133.105 -48.9746 135.547 -49.7559 137.549 -50.4395 L 137.988 -50.0488 C 134.229 -43.7012 125.879 -39.6484 114.404 -40.625 C 111.23 -47.5586 105.518 -52.832 98.291 -55.3711 C 97.2656 -58.2031 96.7773 -61.2793 96.7773 -64.502 Z M 34.4727 -14.6484 C 27.3926 -14.6484 23.877 -18.1641 23.877 -23.3398 C 23.877 -28.0762 27.0508 -31.3477 33.5449 -33.0078 C 36.5234 -33.7891 37.1582 -35.0586 37.6953 -37.9883 C 40.1367 -52.3438 48.291 -59.0332 58.7891 -59.0332 C 66.6504 -59.0332 73.3887 -54.3457 78.125 -45.752 C 79.4434 -43.4082 80.7617 -42.5293 83.7402 -42.5293 C 96.5332 -42.5293 102.002 -36.1816 102.002 -27.9297 C 102.002 -20.3125 96.4844 -14.6484 87.5 -14.6484 Z M 34.2773 24.4141 L 40.332 14.0137 C 41.5039 11.9629 41.0156 9.27734 38.8184 8.00781 C 36.6211 6.73828 34.2773 7.56836 32.959 9.81445 L 26.9043 20.2148 C 25.6836 22.3145 26.123 24.9512 28.3203 26.1719 C 30.5176 27.4414 33.1055 26.5137 34.2773 24.4141 Z M 73.1934 24.4141 L 79.1992 14.0137 C 80.4199 11.9629 79.9316 9.27734 77.7344 8.00781 C 75.5371 6.73828 73.1445 7.56836 71.8262 9.81445 L 65.7715 20.2148 C 64.5996 22.3145 65.0391 24.9512 67.2363 26.1719 C 69.4336 27.4414 71.9727 26.5137 73.1934 24.4141 Z M 49.8047 38.0859 L 55.8594 27.6855 C 57.0312 25.5859 56.543 22.9004 54.3457 21.6309 C 52.1484 20.4102 49.7559 21.2402 48.4863 23.4863 L 42.4316 33.8867 C 41.2109 35.9375 41.6504 38.5742 43.8477 39.8438 C 46.0449 41.1133 48.6328 40.1367 49.8047 38.0859 Z M 88.7207 38.0859 L 94.7266 27.6855 C 95.9473 25.5859 95.459 22.9004 93.2617 21.6797 C 91.0645 20.4102 88.6719 21.2402 87.3535 23.4863 L 81.2988 33.8867 C 80.127 35.9375 80.5664 38.5742 82.7637 39.8438 C 84.9609 41.1133 87.5 40.1367 88.7207 38.0859 Z"/>
  </g>
  <g id="Heavy-M" transform="matrix(1 0 0 1 2558.17 1126)">
   <path d="M 32.8613 -0.927734 L 86.7188 -0.927734 C 102.49 -0.927734 114.795 -13.0371 114.795 -28.5645 L 114.795 -28.6621 C 130.518 -28.418 143.018 -37.3535 147.607 -50.7324 C 149.561 -56.2988 147.119 -60.9375 141.748 -60.9375 C 137.793 -60.9375 134.717 -59.2773 129.346 -59.2773 C 118.555 -59.2773 113.33 -65.0391 113.33 -76.2207 C 113.33 -82.3242 115.186 -86.2793 115.186 -89.0137 C 115.186 -94.2383 110.449 -96.7773 105.322 -95.0195 C 92.5781 -90.8203 82.8613 -78.125 82.8613 -63.9648 C 82.8613 -63.623 82.8613 -63.2324 82.8613 -62.8906 C 76.709 -69.7754 68.0664 -73.4375 57.5684 -73.4375 C 40.3809 -73.4375 26.2695 -61.2793 23.4375 -44.2383 C 14.502 -41.3086 8.74023 -33.4473 8.74023 -23.6816 C 8.74023 -10.498 18.8965 -0.927734 32.8613 -0.927734 Z M 93.7988 -64.0137 C 93.7988 -72.0215 97.998 -79.1504 104.004 -83.1055 L 104.59 -82.7148 C 103.857 -80.3223 103.076 -76.9531 103.076 -72.998 C 103.076 -59.1309 112.549 -48.9746 126.855 -48.9746 C 130.762 -48.9746 133.35 -49.7559 135.4 -50.4395 L 135.84 -50.0488 C 132.275 -43.8965 124.121 -39.3066 112.402 -40.0391 C 109.229 -47.3145 103.027 -52.7832 95.2637 -55.127 C 94.2871 -57.8613 93.7988 -60.8887 93.7988 -64.0137 Z M 33.252 -14.3066 C 25.8789 -14.3066 22.168 -18.1641 22.168 -23.5352 C 22.168 -28.3691 25.293 -31.9824 31.9336 -33.6914 C 34.7656 -34.4238 35.498 -35.6934 35.9375 -38.4766 C 38.0371 -52.6855 46.6797 -60.1074 57.5684 -60.1074 C 65.8203 -60.1074 72.7051 -55.3223 77.3926 -46.582 C 78.6621 -44.2871 79.9316 -43.457 82.8125 -43.457 C 95.5566 -43.457 101.416 -36.8164 101.416 -28.3691 C 101.416 -20.4102 95.459 -14.3066 86.3281 -14.3066 Z M 71.8262 22.7539 L 77.9297 12.207 C 79.0527 10.2539 78.5645 7.8125 76.5625 6.64062 C 74.5117 5.46875 72.3145 6.25 71.0938 8.30078 L 64.9902 18.8965 C 63.8672 20.8008 64.3066 23.1934 66.3086 24.3652 C 68.3594 25.5371 70.7031 24.6582 71.8262 22.7539 Z M 32.959 22.7539 L 39.0625 12.207 C 40.1855 10.3027 39.6973 7.8125 37.6953 6.64062 C 35.6445 5.51758 33.4473 6.25 32.2266 8.30078 L 26.0742 18.8965 C 25 20.8008 25.4395 23.1934 27.4414 24.3652 C 29.4434 25.5371 31.8359 24.707 32.959 22.7539 Z M 87.3047 36.4258 L 93.4082 25.8789 C 94.5312 23.9258 94.043 21.4844 92.041 20.3125 C 89.9902 19.1406 87.793 19.873 86.5723 21.9727 L 80.4199 32.5684 C 79.3457 34.4727 79.7852 36.8652 81.7871 38.0371 C 83.7891 39.1602 86.1816 38.3301 87.3047 36.4258 Z M 48.4375 36.4258 L 54.541 25.8789 C 55.6641 23.9746 55.1758 21.4844 53.125 20.3125 C 51.123 19.1895 48.9258 19.9219 47.7051 21.9727 L 41.5527 32.5684 C 40.4785 34.4727 40.8691 36.8652 42.9199 38.0371 C 44.9219 39.209 47.3145 38.3789 48.4375 36.4258 Z"/>
  </g>
  <g id="Bold-M" transform="matrix(1 0 0 1 2263.49 1126)">
   <path d="M 31.6895 -2.53906 L 85.2051 -2.53906 C 100.391 -2.53906 112.207 -14.1113 112.207 -29.0527 C 112.207 -29.1992 112.207 -29.3457 112.207 -29.4922 C 127.93 -29.5898 139.355 -38.4277 143.652 -50.4395 C 145.459 -55.4199 143.164 -59.668 138.33 -59.668 C 134.717 -59.668 131.885 -58.1543 126.562 -58.1543 C 115.186 -58.1543 109.473 -64.3066 109.473 -75.5371 C 109.473 -81.4453 111.328 -85.0586 111.328 -87.793 C 111.328 -92.627 106.982 -94.9707 102.148 -93.3105 C 90.2832 -89.3555 80.8594 -77.2461 80.8594 -63.3301 C 80.8594 -62.9395 80.8594 -62.5488 80.8594 -62.1582 C 74.8047 -68.9941 66.3086 -72.7539 56.25 -72.7539 C 39.4043 -72.7539 25.4883 -60.4492 23.0469 -43.75 C 14.4043 -41.0156 8.74023 -33.3984 8.74023 -23.9258 C 8.74023 -11.5234 18.2129 -2.53906 31.6895 -2.53906 Z M 90.4785 -63.4277 C 90.4785 -71.9238 95.166 -79.1016 101.318 -82.9102 L 101.904 -82.5684 C 101.123 -80.1758 100.391 -76.8066 100.391 -72.9492 C 100.391 -59.0332 110.107 -49.0234 124.365 -49.0234 C 128.125 -49.0234 130.957 -49.7559 133.057 -50.4883 L 133.447 -50.0488 C 130.078 -44.043 122.119 -38.916 110.205 -39.4043 C 107.031 -47.0703 100.342 -52.7344 91.8945 -54.7852 C 90.9668 -57.4707 90.4785 -60.3516 90.4785 -63.4277 Z M 31.8359 -14.0137 C 24.1699 -14.0137 20.2148 -18.1641 20.2148 -23.7793 C 20.2148 -28.7109 23.291 -32.666 30.1758 -34.4727 C 32.8125 -35.1562 33.5938 -36.3281 33.9355 -39.0137 C 35.7422 -53.0762 44.873 -61.3281 56.25 -61.3281 C 64.8926 -61.3281 71.9238 -56.3965 76.6113 -47.5098 C 77.7832 -45.3125 79.0527 -44.4824 81.7871 -44.4824 C 94.4824 -44.4824 100.781 -37.5488 100.781 -28.8574 C 100.781 -20.5078 94.2871 -14.0137 84.9609 -14.0137 Z M 70.3125 20.8984 L 76.5137 10.1562 C 77.5879 8.39844 77.0996 6.20117 75.2441 5.12695 C 73.4375 4.05273 71.3867 4.73633 70.3125 6.5918 L 64.0625 17.334 C 63.0371 19.0918 63.4766 21.2402 65.332 22.3145 C 67.1387 23.3398 69.3359 22.6074 70.3125 20.8984 Z M 31.4453 20.8984 L 37.6465 10.2051 C 38.7207 8.39844 38.2324 6.20117 36.377 5.12695 C 34.5703 4.10156 32.5195 4.73633 31.4453 6.64062 L 25.1953 17.3828 C 24.1699 19.0918 24.6094 21.2891 26.4648 22.3633 C 28.2715 23.3887 30.4688 22.6562 31.4453 20.8984 Z M 85.7422 34.5703 L 91.9434 23.877 C 92.9688 22.0703 92.4805 19.873 90.6738 18.7988 C 88.8184 17.7734 86.8164 18.4082 85.6934 20.3125 L 79.4434 31.0547 C 78.4668 32.7637 78.9062 34.9609 80.7129 36.0352 C 82.5684 37.0605 84.7168 36.3281 85.7422 34.5703 Z M 46.875 34.5703 L 53.0762 23.877 C 54.1016 22.1191 53.6133 19.9219 51.8066 18.8477 C 49.9512 17.7734 47.9492 18.457 46.8262 20.3125 L 40.5762 31.0547 C 39.5996 32.8125 40.0391 34.9609 41.8457 36.0352 C 43.7012 37.0605 45.8496 36.3281 46.875 34.5703 Z"/>
  </g>
  <g id="Semibold-M" transform="matrix(1 0 0 1 1968.14 1126)">
   <path d="M 30.8594 -3.61328 L 84.1309 -3.61328 C 98.9258 -3.61328 110.449 -14.8926 110.449 -29.3945 C 110.449 -29.6387 110.449 -29.8828 110.449 -30.127 C 126.123 -30.3711 136.865 -39.1602 140.869 -50.1953 C 142.627 -54.834 140.43 -58.7891 135.938 -58.7891 C 132.568 -58.7891 129.932 -57.373 124.658 -57.373 C 112.891 -57.373 106.836 -63.8184 106.836 -75.0488 C 106.836 -80.8594 108.643 -84.2285 108.643 -86.9629 C 108.643 -91.5039 104.639 -93.7012 100 -92.1387 C 88.6719 -88.3789 79.4922 -76.6602 79.4922 -62.8906 C 79.4922 -62.4512 79.4922 -62.0605 79.4922 -61.6699 C 73.5352 -68.457 65.1367 -72.2656 55.3223 -72.2656 C 38.7207 -72.2656 24.9512 -59.9121 22.8027 -43.457 C 14.3555 -40.7715 8.74023 -33.3984 8.74023 -24.1211 C 8.74023 -12.207 17.7734 -3.61328 30.8594 -3.61328 Z M 88.2324 -62.9883 C 88.2324 -71.8262 93.2129 -79.1016 99.5117 -82.8125 L 100.049 -82.4219 C 99.2676 -80.0293 98.4863 -76.709 98.4863 -72.9004 C 98.4863 -58.9355 108.398 -49.0723 122.656 -49.0723 C 126.27 -49.0723 129.248 -49.7559 131.396 -50.4883 L 131.787 -50.0977 C 128.564 -44.1895 120.752 -38.6719 108.643 -38.9648 C 105.469 -46.875 98.4863 -52.6367 89.5996 -54.4922 C 88.6719 -57.1289 88.2324 -60.0098 88.2324 -62.9883 Z M 30.9082 -13.7695 C 22.998 -13.7695 18.8965 -18.1641 18.8965 -23.9746 C 18.8965 -29.0039 21.9238 -33.1543 28.9062 -35.0098 C 31.4453 -35.6445 32.2754 -36.8164 32.5684 -39.4043 C 34.1309 -53.3203 43.6523 -62.1582 55.3223 -62.1582 C 64.2578 -62.1582 71.4355 -57.1289 76.0254 -48.1445 C 77.1484 -45.9961 78.418 -45.2148 81.0547 -45.2148 C 93.75 -45.2148 100.293 -38.0371 100.293 -29.1992 C 100.293 -20.5566 93.5059 -13.7695 84.0332 -13.7695 Z M 69.2871 19.5801 L 75.5371 8.74023 C 76.5137 7.08008 76.0254 5.07812 74.3652 4.05273 C 72.6562 3.07617 70.752 3.66211 69.7266 5.41992 L 63.4277 16.3086 C 62.5 17.9199 62.9395 19.9219 64.6484 20.8984 C 66.3086 21.875 68.3594 21.2402 69.2871 19.5801 Z M 30.4199 19.6289 L 36.6699 8.78906 C 37.6953 7.12891 37.207 5.07812 35.498 4.10156 C 33.7891 3.125 31.8848 3.71094 30.8594 5.46875 L 24.5605 16.3574 C 23.6328 17.9688 24.0723 19.9707 25.7812 20.9473 C 27.4902 21.875 29.4922 21.2402 30.4199 19.6289 Z M 84.668 33.3008 L 90.918 22.4609 C 91.8945 20.8008 91.4062 18.75 89.6973 17.7734 C 87.9883 16.7969 86.1328 17.3828 85.1074 19.1406 L 78.8086 30.0293 C 77.832 31.6406 78.2715 33.6426 79.9805 34.6191 C 81.6895 35.5957 83.6914 34.9121 84.668 33.3008 Z M 45.8008 33.3496 L 52.0508 22.5098 C 53.0273 20.8496 52.5391 18.7988 50.8789 17.8223 C 49.1211 16.8457 47.2656 17.4316 46.2402 19.1406 L 39.9414 30.0293 C 39.0137 31.6406 39.4043 33.6426 41.1621 34.668 C 42.8223 35.5957 44.8242 34.9609 45.8008 33.3496 Z"/>
  </g>
  <g id="Medium-M" transform="matrix(1 0 0 1 1672.48 1126)">
   <path d="M 30.2246 -4.44336 L 83.3496 -4.44336 C 97.8516 -4.44336 109.131 -15.4785 109.131 -29.6387 C 109.131 -29.9805 109.082 -30.2734 109.082 -30.5664 C 124.756 -30.957 134.961 -39.7461 138.818 -50.0488 C 140.479 -54.3457 138.33 -58.1543 134.18 -58.1543 C 130.957 -58.1543 128.418 -56.7871 123.193 -56.7871 C 111.133 -56.7871 104.834 -63.4277 104.834 -74.707 C 104.834 -80.3711 106.641 -83.6426 106.641 -86.377 C 106.641 -90.6738 102.832 -92.7734 98.3398 -91.2598 C 87.4512 -87.6465 78.4668 -76.2207 78.4668 -62.5488 C 78.4668 -62.1094 78.4668 -61.6699 78.4668 -61.2793 C 72.5098 -68.0176 64.209 -71.9238 54.5898 -71.9238 C 38.1836 -71.9238 24.5117 -59.5215 22.6074 -43.2129 C 14.3066 -40.5762 8.74023 -33.3496 8.74023 -24.2676 C 8.74023 -12.7441 17.4805 -4.44336 30.2246 -4.44336 Z M 86.4746 -62.6953 C 86.4746 -71.7773 91.748 -79.1016 98.0957 -82.7148 L 98.6328 -82.3242 C 97.8516 -79.9805 97.0703 -76.6602 97.0703 -72.8516 C 97.0703 -58.8867 107.129 -49.0723 121.338 -49.0723 C 124.902 -49.0723 127.979 -49.707 130.176 -50.4883 L 130.518 -50.0977 C 127.393 -44.2383 119.678 -38.5254 107.471 -38.6719 C 104.346 -46.7285 97.0703 -52.5879 87.8906 -54.1992 C 86.9629 -56.8848 86.4746 -59.7168 86.4746 -62.6953 Z M 30.1758 -13.5742 C 22.1191 -13.5742 17.8711 -18.1641 17.8711 -24.0723 C 17.8711 -29.1504 20.8984 -33.4961 27.9785 -35.4004 C 30.4688 -36.0352 31.2988 -37.1582 31.543 -39.6973 C 32.9102 -53.5156 42.6758 -62.793 54.5898 -62.793 C 63.7695 -62.793 71.0449 -57.666 75.6348 -48.6328 C 76.709 -46.4844 77.9297 -45.752 80.5176 -45.752 C 93.1641 -45.752 100 -38.3789 100 -29.4434 C 100 -20.6055 92.9199 -13.5742 83.3496 -13.5742 Z M 68.5059 18.6035 L 74.8047 7.66602 C 75.7324 6.10352 75.2441 4.19922 73.6816 3.27148 C 72.0703 2.34375 70.2637 2.88086 69.2871 4.54102 L 62.9883 15.5273 C 62.0605 17.041 62.5 18.8965 64.1113 19.8242 C 65.7227 20.7031 67.627 20.166 68.5059 18.6035 Z M 29.6387 18.6523 L 35.9375 7.71484 C 36.9141 6.15234 36.4258 4.24805 34.8145 3.32031 C 33.2031 2.39258 31.4453 2.92969 30.4688 4.54102 L 24.1211 15.5273 C 23.2422 17.041 23.6328 18.9453 25.293 19.873 C 26.8555 20.752 28.7598 20.2148 29.6387 18.6523 Z M 83.8379 32.3242 L 90.1367 21.4355 C 91.0645 19.8242 90.5762 17.9199 89.0137 16.9922 C 87.4023 16.0645 85.5957 16.6016 84.6191 18.2617 L 78.2715 29.248 C 77.3926 30.7617 77.832 32.6172 79.4434 33.5449 C 81.0059 34.4727 82.9102 33.8867 83.8379 32.3242 Z M 44.9707 32.373 L 51.2695 21.4355 C 52.1973 19.873 51.7578 17.9688 50.1465 17.041 C 48.5352 16.1133 46.7285 16.6504 45.752 18.3105 L 39.4531 29.2969 C 38.5254 30.8105 38.9648 32.666 40.5762 33.5938 C 42.1875 34.4727 44.0918 33.9355 44.9707 32.373 Z"/>
  </g>
  <g id="Regular-M" transform="matrix(1 0 0 1 1377.16 1126)">
   <path d="M 29.4434 -5.56641 L 82.2754 -5.56641 C 96.3867 -5.56641 107.373 -16.2109 107.373 -29.9805 C 107.373 -30.3711 107.324 -30.7617 107.324 -31.1523 C 122.9 -31.7383 132.471 -40.4297 136.084 -49.8535 C 137.695 -53.7598 135.645 -57.2754 131.836 -57.2754 C 128.857 -57.2754 126.514 -56.0059 121.289 -56.0059 C 108.838 -56.0059 102.246 -62.9395 102.246 -74.2676 C 102.246 -79.7852 104.004 -82.8125 104.004 -85.5469 C 104.004 -89.5508 100.488 -91.5527 96.1914 -90.0879 C 85.8887 -86.6699 77.0996 -75.6348 77.0996 -62.1094 C 77.0996 -61.6699 77.0996 -61.2305 77.0996 -60.7422 C 71.2402 -67.4805 63.0371 -71.4355 53.6621 -71.4355 C 37.5 -71.4355 23.9746 -58.9355 22.3633 -42.9199 C 14.2578 -40.3809 8.74023 -33.3008 8.74023 -24.4629 C 8.74023 -13.4277 17.041 -5.56641 29.4434 -5.56641 Z M 84.2285 -62.3047 C 84.2285 -71.7285 89.8438 -79.1016 96.2891 -82.6172 L 96.7773 -82.2266 C 95.9961 -79.834 95.2148 -76.5625 95.2148 -72.8027 C 95.2148 -58.7891 105.469 -49.1211 119.629 -49.1211 C 123.096 -49.1211 126.318 -49.707 128.564 -50.4883 L 128.906 -50.0977 C 125.879 -44.3359 118.311 -38.2812 105.908 -38.2324 C 102.881 -46.4844 95.2637 -52.4414 85.6445 -53.8574 C 84.7168 -56.4941 84.2285 -59.3262 84.2285 -62.3047 Z M 29.248 -13.3789 C 20.9473 -13.3789 16.5527 -18.1152 16.5527 -24.2676 C 16.5527 -29.3945 19.5801 -33.9844 26.7578 -35.8887 C 29.1016 -36.5234 29.9805 -37.5977 30.1758 -40.0391 C 31.2988 -53.7598 41.4551 -63.623 53.6621 -63.623 C 63.1348 -63.623 70.5078 -58.3984 75.0488 -49.2676 C 76.123 -47.168 77.3438 -46.4844 79.7852 -46.4844 C 92.4316 -46.4844 99.5605 -38.8672 99.5605 -29.7852 C 99.5605 -20.6543 92.1387 -13.3789 82.4219 -13.3789 Z M 67.4805 17.334 L 73.8281 6.29883 C 74.707 4.78516 74.2676 3.07617 72.8027 2.24609 C 71.2891 1.36719 69.6289 1.85547 68.75 3.36914 L 62.3535 14.4531 C 61.5234 15.8691 61.9629 17.5781 63.4277 18.457 C 64.8926 19.2383 66.6504 18.75 67.4805 17.334 Z M 28.6621 17.3828 L 35.0098 6.34766 C 35.8887 4.83398 35.4004 3.125 33.9355 2.29492 C 32.4707 1.41602 30.8105 1.9043 29.9316 3.41797 L 23.4863 14.502 C 22.7051 15.918 23.0957 17.627 24.6094 18.5059 C 26.0742 19.2871 27.832 18.7988 28.6621 17.3828 Z M 82.7637 31.0547 L 89.1113 20.0684 C 89.9902 18.5547 89.502 16.8457 88.0859 15.9668 C 86.5723 15.1367 84.9121 15.625 84.0332 17.0898 L 77.6367 28.2227 C 76.8066 29.5898 77.1973 31.2988 78.7109 32.1777 C 80.1758 33.0078 81.9336 32.5195 82.7637 31.0547 Z M 43.8965 31.1035 L 50.2441 20.1172 C 51.1719 18.6035 50.6836 16.8945 49.2188 16.0156 C 47.7539 15.1855 46.0938 15.6738 45.166 17.1387 L 38.7695 28.2715 C 37.9395 29.6387 38.3789 31.3477 39.8926 32.2266 C 41.3086 33.0566 43.0664 32.5684 43.8965 31.1035 Z"/>
  </g>
  <g id="Light-M" transform="matrix(1 0 0 1 1081.4 1126)">
   <path d="M 28.6621 -5.56641 L 81.8359 -5.56641 C 95.6055 -5.56641 106.299 -15.9668 106.299 -29.248 C 106.299 -29.7852 106.299 -30.3223 106.25 -30.8594 C 122.949 -31.4453 131.885 -41.748 134.375 -50 C 135.4 -52.9785 133.789 -55.5664 130.859 -55.5664 C 128.271 -55.5664 125.439 -54.0527 119.922 -54.0527 C 107.373 -54.0527 100.342 -61.3281 100.342 -72.7051 C 100.342 -78.9062 102.295 -81.5918 102.295 -84.1309 C 102.295 -87.3535 99.6094 -88.8672 96.1426 -87.8418 C 87.0605 -85.2539 76.9043 -75.293 76.9043 -60.8887 C 76.9043 -60.2051 76.9043 -59.5703 76.9531 -58.8867 C 71.1426 -65.9668 62.9395 -70.2148 53.2227 -70.2148 C 37.3535 -70.2148 24.2188 -57.7637 22.6562 -41.748 C 14.5508 -39.3555 8.74023 -32.6172 8.74023 -23.7305 C 8.74023 -13.3789 16.5527 -5.56641 28.6621 -5.56641 Z M 82.4219 -61.0352 C 82.4219 -72.2656 89.9902 -79.4922 96.3867 -82.0801 L 96.7773 -81.7871 C 95.8008 -79.4434 94.9219 -75.9277 94.9219 -71.7773 C 94.9219 -58.1055 104.736 -48.6816 118.799 -48.6816 C 122.314 -48.6816 125.928 -49.3164 128.516 -50.2441 L 128.809 -50 C 126.611 -44.3359 119.189 -36.4746 105.176 -36.3281 C 102.344 -45.166 94.1895 -51.4648 83.8379 -52.5391 C 82.9102 -55.1758 82.4219 -58.0566 82.4219 -61.0352 Z M 28.5645 -11.5234 C 19.5801 -11.5234 14.6973 -16.8457 14.6973 -23.584 C 14.6973 -29.4922 18.4082 -34.3262 25.7324 -36.377 C 27.7344 -36.9141 28.418 -37.793 28.5645 -39.7461 C 29.6387 -53.7109 40.4785 -64.3066 53.2227 -64.3066 C 63.6719 -64.3066 71.3867 -58.3008 75.9766 -49.2188 C 76.8555 -47.4121 77.8809 -46.8262 79.9316 -46.8262 C 92.4316 -46.8262 100.342 -38.8672 100.342 -29.0527 C 100.342 -19.3359 92.334 -11.5234 81.9336 -11.5234 Z M 66.2109 17.6758 L 73.0957 5.76172 C 73.8281 4.49219 73.4863 3.125 72.3145 2.44141 C 71.1426 1.75781 69.7754 2.14844 69.043 3.41797 L 62.1094 15.3809 C 61.4258 16.6016 61.7676 17.9199 62.9395 18.6523 C 64.1113 19.2871 65.5273 18.8965 66.2109 17.6758 Z M 27.3438 17.6758 L 34.2285 5.76172 C 35.0098 4.54102 34.6191 3.17383 33.4473 2.44141 C 32.2754 1.80664 30.957 2.19727 30.1758 3.41797 L 23.2422 15.4297 C 22.5586 16.6016 22.9004 17.9688 24.0723 18.6523 C 25.2441 19.3359 26.6602 18.9453 27.3438 17.6758 Z M 81.543 31.3965 L 88.4277 19.4824 C 89.209 18.2129 88.8184 16.8457 87.6465 16.1621 C 86.4746 15.4785 85.1562 15.8691 84.375 17.1387 L 77.4902 29.1016 C 76.8066 30.2734 77.0996 31.6406 78.3203 32.373 C 79.4922 33.0078 80.8594 32.6172 81.543 31.3965 Z M 42.7246 31.3965 L 49.6094 19.4824 C 50.3418 18.2129 49.9512 16.8945 48.7793 16.1621 C 47.6074 15.5273 46.2891 15.8691 45.5566 17.1387 L 38.623 29.1504 C 37.9395 30.3223 38.2324 31.6895 39.4531 32.373 C 40.625 33.0566 41.9922 32.6172 42.7246 31.3965 Z"/>
  </g>
  <g id="Thin-M" transform="matrix(1 0 0 1 785.963 1126)">
   <path d="M 27.6855 -5.56641 L 81.2012 -5.56641 C 94.5312 -5.56641 104.883 -15.625 104.883 -28.3203 C 104.883 -29.0039 104.883 -29.7363 104.785 -30.4199 C 123.193 -30.8105 131.25 -43.6035 132.08 -50.1953 C 132.422 -51.9531 131.299 -53.2715 129.639 -53.2715 C 127.49 -53.2715 124.023 -51.4648 118.066 -51.4648 C 105.469 -51.4648 97.8027 -59.2285 97.8027 -70.7031 C 97.8027 -77.7344 100.098 -79.9805 100.098 -82.3242 C 100.098 -84.4238 98.4375 -85.3516 96.0449 -84.8633 C 88.623 -83.4473 76.6113 -74.8535 76.6113 -59.2773 C 76.6113 -58.3008 76.6602 -57.3242 76.7578 -56.3477 C 71.0449 -63.916 62.9395 -68.6523 52.5879 -68.6523 C 37.207 -68.6523 24.4629 -56.1523 23.0469 -40.2344 C 14.9902 -38.0371 8.69141 -31.6895 8.69141 -22.7539 C 8.69141 -13.2324 15.918 -5.56641 27.6855 -5.56641 Z M 80.0293 -59.4238 C 80.0293 -72.9492 90.1855 -80.0293 96.5332 -81.4453 L 96.7285 -81.2012 C 95.5566 -78.9062 94.4824 -75.0977 94.4824 -70.3613 C 94.4824 -57.2266 103.711 -48.0957 117.725 -48.0957 C 121.289 -48.0957 125.391 -48.8281 128.467 -49.9023 L 128.662 -49.8047 C 127.588 -44.3359 120.557 -33.9355 104.199 -33.7891 C 101.709 -43.3594 92.8223 -50.1953 81.4453 -50.6836 C 80.4688 -53.418 80.0293 -56.3477 80.0293 -59.4238 Z M 27.6367 -9.0332 C 17.7246 -9.0332 12.1582 -15.1855 12.1582 -22.7051 C 12.1582 -29.5898 16.8457 -34.8145 24.4141 -37.0117 C 25.8789 -37.4512 26.3672 -38.0371 26.4648 -39.3066 C 27.4414 -53.6621 39.1602 -65.1855 52.5879 -65.1855 C 64.3555 -65.1855 72.5586 -58.252 77.1973 -49.0723 C 77.832 -47.7539 78.6133 -47.3145 80.127 -47.3145 C 92.4805 -47.3145 101.416 -38.8184 101.416 -28.1738 C 101.416 -17.627 92.5781 -9.0332 81.25 -9.0332 Z M 64.502 18.1152 L 72.1191 5.0293 C 72.7051 4.05273 72.4609 3.17383 71.6309 2.68555 C 70.8984 2.29492 69.9707 2.53906 69.4336 3.4668 L 61.8164 16.6016 C 61.2793 17.5293 61.4746 18.4082 62.3047 18.8965 C 63.0859 19.3848 64.0137 19.043 64.502 18.1152 Z M 25.6348 18.1152 L 33.2031 5.0293 C 33.7891 4.10156 33.5449 3.17383 32.7637 2.68555 C 31.9824 2.29492 31.1035 2.53906 30.5176 3.4668 L 22.9492 16.6016 C 22.4121 17.5293 22.6074 18.457 23.3887 18.8965 C 24.2188 19.3848 25.1465 19.0918 25.6348 18.1152 Z M 79.9805 31.7871 L 87.5977 18.7012 C 88.1348 17.7246 87.8906 16.8457 87.1094 16.3574 C 86.3281 15.918 85.4492 16.2109 84.8633 17.1387 L 77.2949 30.2734 C 76.7578 31.2012 76.9531 32.0801 77.7344 32.5684 C 78.5645 33.0566 79.4922 32.7148 79.9805 31.7871 Z M 41.1133 31.7871 L 48.6816 18.7012 C 49.2676 17.7734 49.0234 16.8457 48.2422 16.3574 C 47.4609 15.9668 46.582 16.2109 45.9961 17.1387 L 38.3789 30.2734 C 37.8906 31.2012 38.0859 32.0801 38.8672 32.5684 C 39.6973 33.0566 40.5762 32.7637 41.1133 31.7871 Z"/>
  </g>
  <g id="Ultralight-M" transform="matrix(1 0 0 1 489.887 1126)">
   <path d="M 27.1484 -5.61523 L 80.9082 -5.61523 C 93.9941 -5.61523 104.199 -15.4297 104.199 -27.7832 C 104.199 -28.6133 104.15 -29.3945 104.053 -30.1758 C 123.389 -30.4688 130.957 -44.6289 130.859 -50.293 C 130.859 -51.416 130.078 -52.0996 129.004 -52.0996 C 127.1 -52.0996 123.291 -50.0977 117.139 -50.0977 C 104.492 -50.0977 96.5332 -58.1543 96.5332 -69.6289 C 96.5332 -77.1484 98.9746 -79.1504 98.9746 -81.3477 C 98.9746 -82.959 97.8516 -83.5449 95.9961 -83.3008 C 89.4043 -82.4707 76.5137 -74.6094 76.5137 -58.4473 C 76.5137 -57.2754 76.5625 -56.1035 76.709 -54.9316 C 71.0449 -62.8418 62.9395 -67.8711 52.2949 -67.8711 C 37.1094 -67.8711 24.6094 -55.3223 23.2422 -39.4531 C 15.1855 -37.4023 8.69141 -31.25 8.69141 -22.2656 C 8.69141 -13.1836 15.5762 -5.61523 27.1484 -5.61523 Z M 78.7598 -58.5449 C 78.7598 -73.291 90.2832 -80.2734 96.582 -81.1035 L 96.6797 -80.9082 C 95.459 -78.6133 94.2383 -74.6582 94.2383 -69.6777 C 94.2383 -56.7871 103.223 -47.8027 117.139 -47.8027 C 120.752 -47.8027 125.098 -48.584 128.418 -49.7559 L 128.613 -49.707 C 128.174 -44.3848 121.289 -32.5195 103.662 -32.4707 C 101.416 -42.4316 92.041 -49.5605 80.1758 -49.707 C 79.1992 -52.5391 78.7598 -55.5176 78.7598 -58.5449 Z M 27.1484 -7.8125 C 16.7969 -7.8125 10.8887 -14.3066 10.8887 -22.2656 C 10.8887 -29.6387 16.0645 -35.0098 23.7305 -37.3535 C 24.9512 -37.6953 25.293 -38.1348 25.3906 -39.1113 C 26.3184 -53.6621 38.4766 -65.6738 52.2949 -65.6738 C 64.6973 -65.6738 73.1934 -58.2031 77.7832 -49.0234 C 78.3691 -47.9492 78.9551 -47.5586 80.2734 -47.5586 C 92.5293 -47.5586 101.953 -38.8184 101.953 -27.6855 C 101.953 -16.748 92.7246 -7.8125 80.9082 -7.8125 Z M 24.7559 18.3594 L 32.7148 4.63867 C 33.2031 3.85742 33.0078 3.17383 32.4219 2.83203 C 31.8848 2.53906 31.2012 2.68555 30.7129 3.51562 L 22.7539 17.1875 C 22.3145 18.0176 22.4609 18.6523 23.0469 19.043 C 23.6816 19.3848 24.3164 19.1406 24.7559 18.3594 Z M 63.6719 18.3594 L 71.582 4.63867 C 72.0703 3.85742 71.9238 3.17383 71.2891 2.83203 C 70.752 2.53906 70.1172 2.73438 69.5801 3.51562 L 61.6699 17.1875 C 61.2305 18.0176 61.3281 18.6523 61.9629 19.043 C 62.5488 19.3848 63.2324 19.1406 63.6719 18.3594 Z M 40.2832 31.9824 L 48.2422 18.3105 C 48.7305 17.5293 48.5352 16.8457 47.9492 16.4551 C 47.4121 16.1621 46.7285 16.3574 46.2402 17.1387 L 38.2812 30.8594 C 37.8418 31.6406 37.9883 32.3242 38.5742 32.666 C 39.209 33.0566 39.8438 32.8125 40.2832 31.9824 Z M 79.1992 31.9824 L 87.1094 18.3105 C 87.5977 17.5293 87.4512 16.8457 86.8164 16.4551 C 86.2793 16.1621 85.5957 16.3574 85.1074 17.1387 L 77.1973 30.8594 C 76.7578 31.6406 76.8555 32.3242 77.4902 32.666 C 78.0762 33.0566 78.7598 32.8125 79.1992 31.9824 Z"/>
  </g>
  <g id="Black-S" transform="matrix(1 0 0 1 2870.63 696)">
   <path d="M 26.4648 -7.37305 L 68.8965 -7.37305 C 81.5918 -7.37305 91.4551 -17.041 91.5527 -29.5898 C 103.809 -29.1504 114.307 -36.1816 118.164 -47.5586 C 119.775 -52.2949 117.773 -56.2012 113.232 -56.2012 C 109.912 -56.2012 107.324 -54.7852 103.076 -54.7852 C 95.0195 -54.7852 91.2109 -59.082 91.2109 -67.7734 C 91.2109 -72.7051 92.6758 -75.9766 92.6758 -78.125 C 92.6758 -82.5195 88.6719 -84.6191 84.4727 -83.2031 C 73.9746 -79.6875 66.1621 -69.3848 66.1621 -58.1543 C 66.1621 -57.9102 66.1621 -57.666 66.1621 -57.4219 C 61.2793 -62.793 54.4434 -65.625 45.9473 -65.625 C 32.2754 -65.625 21.0449 -56.1523 18.5547 -42.5781 C 11.377 -40.2344 6.83594 -33.8867 6.83594 -26.0254 C 6.83594 -15.2344 15.1855 -7.37305 26.4648 -7.37305 Z M 75.5859 -58.1543 C 75.5859 -64.1113 78.5156 -69.6289 83.1543 -72.8516 L 83.6426 -72.5586 C 83.0566 -70.6543 82.4707 -68.0176 82.4707 -64.8926 C 82.4707 -54.0527 89.6973 -45.9961 100.977 -45.9961 C 104.102 -45.9961 106.006 -46.6309 107.568 -47.168 L 107.91 -46.8262 C 104.98 -41.8945 98.4375 -38.6719 89.4531 -39.4531 C 87.0117 -44.873 82.4707 -49.0234 76.8066 -51.0254 C 75.9766 -53.2227 75.5859 -55.6152 75.5859 -58.1543 Z M 26.9043 -19.0918 C 21.3379 -19.0918 18.6035 -21.875 18.6035 -25.9277 C 18.6035 -29.6387 21.0449 -32.2266 26.1719 -33.5449 C 28.4668 -34.1309 29.0039 -35.1562 29.3945 -37.4512 C 31.2988 -48.6816 37.6953 -53.9551 45.9473 -53.9551 C 52.1484 -53.9551 57.4219 -50.293 61.1328 -43.5547 C 62.1582 -41.6992 63.1836 -41.0156 65.5273 -41.0156 C 75.5371 -41.0156 79.834 -36.0352 79.834 -29.541 C 79.834 -23.584 75.4883 -19.0918 68.457 -19.0918 Z M 26.7578 11.377 L 31.4941 3.22266 C 32.4219 1.61133 32.0312 -0.488281 30.3223 -1.46484 C 28.6133 -2.44141 26.7578 -1.80664 25.7324 -0.0488281 L 20.9961 8.10547 C 20.0684 9.7168 20.4102 11.7676 22.1191 12.7441 C 23.8281 13.7207 25.8301 12.9883 26.7578 11.377 Z M 57.2266 11.377 L 61.9629 3.22266 C 62.8906 1.61133 62.5 -0.488281 60.791 -1.46484 C 59.082 -2.44141 57.2266 -1.80664 56.2012 -0.0488281 L 51.4648 8.10547 C 50.5371 9.7168 50.8789 11.7676 52.5879 12.7441 C 54.2969 13.7207 56.2988 12.9883 57.2266 11.377 Z M 38.916 22.0703 L 43.6523 13.916 C 44.5801 12.3047 44.1895 10.2051 42.4805 9.22852 C 40.7715 8.25195 38.916 8.88672 37.8906 10.6445 L 33.1543 18.7988 C 32.2266 20.4102 32.5684 22.4609 34.2773 23.4375 C 35.9863 24.4141 37.9883 23.6816 38.916 22.0703 Z M 69.3848 22.0703 L 74.1211 13.916 C 75.0488 12.3047 74.6582 10.2051 72.9492 9.22852 C 71.2402 8.25195 69.3848 8.88672 68.3594 10.6445 L 63.623 18.7988 C 62.6953 20.4102 63.0371 22.4609 64.7461 23.4375 C 66.4551 24.4141 68.457 23.6816 69.3848 22.0703 Z"/>
  </g>
  <g id="Heavy-S" transform="matrix(1 0 0 1 2575.19 696)">
   <path d="M 25.7324 -8.44727 L 67.9199 -8.44727 C 80.2734 -8.44727 89.8926 -17.9199 89.8926 -30.127 L 89.8926 -30.1758 C 102.1 -29.9805 111.914 -36.8164 115.625 -47.3145 C 117.236 -51.8066 115.283 -55.5176 110.986 -55.5176 C 107.861 -55.5176 105.518 -54.248 101.318 -54.248 C 92.8711 -54.248 88.8184 -58.7402 88.8184 -67.4805 C 88.8184 -72.2168 90.2344 -75.293 90.2344 -77.4414 C 90.2344 -81.6406 86.4258 -83.6914 82.3242 -82.2754 C 72.2656 -78.8574 64.7949 -68.8477 64.7949 -57.8613 C 64.7949 -57.6172 64.8438 -57.3242 64.8438 -57.0801 C 60.0098 -62.4512 53.2227 -65.2832 45.0684 -65.2832 C 31.5918 -65.2832 20.5078 -55.7617 18.2617 -42.3828 C 11.2793 -40.1367 6.83594 -33.9355 6.83594 -26.2695 C 6.83594 -15.918 14.7949 -8.44727 25.7324 -8.44727 Z M 73.5352 -57.9102 C 73.5352 -63.9648 76.5625 -69.5801 81.2988 -72.8027 L 81.7871 -72.4609 C 81.2012 -70.6055 80.6641 -68.0176 80.6641 -64.9414 C 80.6641 -54.0527 88.1348 -46.0938 99.3652 -46.0938 C 102.393 -46.0938 104.395 -46.6797 105.957 -47.2168 L 106.299 -46.875 C 103.418 -42.041 97.0215 -38.623 88.0371 -39.209 C 85.5469 -44.873 80.7129 -49.1211 74.6582 -50.9277 C 73.9258 -53.125 73.5352 -55.4199 73.5352 -57.9102 Z M 26.0254 -19.0918 C 20.3125 -19.0918 17.4805 -22.0215 17.4805 -26.1719 C 17.4805 -29.8828 19.8242 -32.666 25.0488 -34.0332 C 27.2949 -34.5703 27.8809 -35.5957 28.2227 -37.8418 C 29.8828 -48.9258 36.5723 -54.6875 45.0684 -54.6875 C 51.4648 -54.6875 56.7871 -51.0254 60.498 -44.1895 C 61.4746 -42.334 62.5 -41.6992 64.7949 -41.6992 C 74.8047 -41.6992 79.2969 -36.5234 79.2969 -29.9316 C 79.2969 -23.7793 74.6582 -19.0918 67.5781 -19.0918 Z M 56.3477 10.0586 L 61.084 1.9043 C 61.9629 0.341797 61.5723 -1.61133 59.9609 -2.53906 C 58.3496 -3.4668 56.5918 -2.88086 55.6152 -1.2207 L 50.8789 6.98242 C 50 8.49609 50.3418 10.4004 51.9531 11.3281 C 53.5645 12.2559 55.4688 11.5723 56.3477 10.0586 Z M 25.8789 10.0586 L 30.6152 1.9043 C 31.4941 0.341797 31.1035 -1.61133 29.4922 -2.53906 C 27.8809 -3.41797 26.123 -2.88086 25.1465 -1.2207 L 20.4102 6.98242 C 19.5312 8.49609 19.873 10.4004 21.4844 11.3281 C 23.0957 12.2559 25 11.5723 25.8789 10.0586 Z M 68.457 20.752 L 73.1934 12.5977 C 74.0723 11.084 73.6816 9.13086 72.0703 8.20312 C 70.459 7.27539 68.7012 7.86133 67.7246 9.47266 L 62.9883 17.6758 C 62.1094 19.1895 62.4512 21.0938 64.0625 22.0215 C 65.6738 22.9492 67.5781 22.3145 68.457 20.752 Z M 37.9883 20.8008 L 42.7246 12.5977 C 43.6035 11.084 43.2129 9.13086 41.6016 8.20312 C 39.9902 7.27539 38.2324 7.86133 37.2559 9.52148 L 32.5195 17.6758 C 31.6406 19.1895 31.9824 21.1426 33.5938 22.0703 C 35.2051 22.9492 37.1094 22.3145 37.9883 20.8008 Z"/>
  </g>
  <g id="Bold-S" transform="matrix(1 0 0 1 2279.89 696)">
   <path d="M 24.9512 -9.66797 L 66.7969 -9.66797 C 78.7598 -9.66797 88.0859 -18.7988 88.0859 -30.5664 L 88.0859 -30.8594 C 100.146 -30.9082 109.18 -37.5 112.793 -47.0703 C 114.355 -51.2207 112.451 -54.7852 108.496 -54.7852 C 105.566 -54.7852 103.467 -53.6133 99.3652 -53.6133 C 90.4785 -53.6133 86.1328 -58.3984 86.1328 -67.1875 C 86.1328 -71.6309 87.4512 -74.5605 87.4512 -76.709 C 87.4512 -80.7129 83.9355 -82.6172 79.9316 -81.25 C 70.3125 -77.9297 63.3301 -68.2129 63.3301 -57.5195 C 63.3301 -57.2754 63.3301 -57.0312 63.3301 -56.7383 C 58.5449 -62.0117 51.9043 -64.8926 44.0918 -64.8926 C 30.8594 -64.8926 19.873 -55.2734 17.9688 -42.1875 C 11.1816 -39.9902 6.83594 -33.9844 6.83594 -26.5625 C 6.83594 -16.6992 14.3555 -9.66797 24.9512 -9.66797 Z M 71.2402 -57.6172 C 71.2402 -63.8184 74.4141 -69.5312 79.248 -72.7051 L 79.7363 -72.4121 C 79.1504 -70.5078 78.6133 -67.9688 78.6133 -65.0391 C 78.6133 -54.0039 86.3281 -46.1426 97.5586 -46.1426 C 100.439 -46.1426 102.588 -46.6797 104.15 -47.2168 L 104.443 -46.875 C 101.66 -42.1387 95.3613 -38.5254 86.377 -38.9648 C 83.8867 -44.8242 78.8086 -49.1699 72.3145 -50.8301 C 71.582 -52.9297 71.2402 -55.2246 71.2402 -57.6172 Z M 25.0488 -19.043 C 19.1895 -19.043 16.2598 -22.168 16.2598 -26.416 C 16.2598 -30.127 18.457 -33.1543 23.7793 -34.5215 C 25.9766 -35.1074 26.6113 -36.084 26.9043 -38.3301 C 28.3203 -49.2188 35.3027 -55.5664 44.0918 -55.5664 C 50.6836 -55.5664 56.1035 -51.8555 59.7168 -44.9219 C 60.6934 -43.0664 61.7188 -42.4316 63.9648 -42.4316 C 73.9746 -42.4316 78.7109 -37.0605 78.7109 -30.4199 C 78.7109 -24.0234 73.7793 -19.043 66.6504 -19.043 Z M 55.3711 8.59375 L 60.0586 0.390625 C 60.9375 -1.07422 60.498 -2.83203 59.0332 -3.71094 C 57.5195 -4.58984 55.8594 -4.05273 54.9316 -2.53906 L 50.1953 5.66406 C 49.3652 7.08008 49.7559 8.88672 51.2695 9.7168 C 52.7344 10.5957 54.541 10.0098 55.3711 8.59375 Z M 24.9023 8.59375 L 29.6387 0.439453 C 30.4688 -1.02539 30.0781 -2.83203 28.5645 -3.71094 C 27.0508 -4.54102 25.3906 -4.05273 24.5117 -2.49023 L 19.7754 5.71289 C 18.9453 7.12891 19.2871 8.88672 20.8008 9.76562 C 22.3145 10.5957 24.0723 10.0098 24.9023 8.59375 Z M 67.3828 19.2871 L 72.1191 11.1328 C 72.9492 9.66797 72.5586 7.86133 71.0449 7.03125 C 69.5312 6.15234 67.8711 6.68945 66.9922 8.20312 L 62.2559 16.4062 C 61.4258 17.8223 61.7676 19.6289 63.2812 20.459 C 64.7949 21.3379 66.5527 20.752 67.3828 19.2871 Z M 36.9629 19.3359 L 41.6504 11.1816 C 42.5293 9.7168 42.0898 7.91016 40.625 7.03125 C 39.1113 6.20117 37.4512 6.68945 36.5723 8.20312 L 31.7871 16.4551 C 30.957 17.8711 31.3477 19.6289 32.8613 20.5078 C 34.3262 21.3379 36.1328 20.752 36.9629 19.3359 Z"/>
  </g>
  <g id="Semibold-S" transform="matrix(1 0 0 1 1984.16 696)">
   <path d="M 24.3652 -10.498 L 66.0156 -10.498 C 77.7344 -10.498 86.8164 -19.3848 86.8164 -30.9082 C 86.8164 -31.0547 86.8164 -31.2012 86.8164 -31.2988 C 98.7793 -31.543 107.324 -37.9395 110.84 -46.9238 C 112.402 -50.8301 110.498 -54.248 106.738 -54.248 C 104.004 -54.248 102.051 -53.2227 98.0469 -53.2227 C 88.8184 -53.2227 84.2285 -58.1543 84.2285 -66.9434 C 84.2285 -71.2402 85.5957 -74.0234 85.5957 -76.2207 C 85.5957 -80.0293 82.1777 -81.8848 78.2715 -80.5176 C 68.9941 -77.2949 62.2559 -67.7734 62.2559 -57.2754 C 62.2559 -57.0312 62.3047 -56.7871 62.3047 -56.543 C 57.5684 -61.7188 50.9766 -64.6484 43.457 -64.6484 C 30.3223 -64.6484 19.4336 -54.9805 17.7734 -42.041 C 11.1328 -39.8926 6.83594 -34.0332 6.83594 -26.7578 C 6.83594 -17.2363 14.0625 -10.498 24.3652 -10.498 Z M 69.6289 -57.373 C 69.6289 -63.7207 72.9004 -69.4824 77.832 -72.6562 L 78.3203 -72.3633 C 77.7344 -70.459 77.1973 -67.9688 77.1973 -65.0879 C 77.1973 -54.0039 85.1074 -46.2402 96.2891 -46.2402 C 99.1211 -46.2402 101.318 -46.7285 102.881 -47.2656 L 103.223 -46.9238 C 100.439 -42.2363 94.2383 -38.5254 85.2539 -38.7695 C 82.7637 -44.7754 77.4414 -49.1699 70.7031 -50.6836 C 70.0195 -52.7832 69.6289 -55.0293 69.6289 -57.373 Z M 24.4141 -19.043 C 18.4082 -19.043 15.3809 -22.2656 15.3809 -26.6113 C 15.3809 -30.3223 17.5293 -33.4961 22.9492 -34.9121 C 25.0488 -35.4492 25.7324 -36.4258 25.9766 -38.623 C 27.2461 -49.4141 34.4727 -56.1035 43.457 -56.1035 C 50.1465 -56.1035 55.6152 -52.4414 59.2285 -45.4102 C 60.1562 -43.6035 61.2305 -42.9688 63.4277 -42.9688 C 73.3887 -42.9688 78.2715 -37.4512 78.2715 -30.7129 C 78.2715 -24.1699 73.1445 -19.043 65.9668 -19.043 Z M 54.6387 7.56836 L 59.375 -0.634766 C 60.2051 -2.00195 59.7656 -3.71094 58.3984 -4.54102 C 56.9336 -5.37109 55.3223 -4.88281 54.4922 -3.41797 L 49.7559 4.78516 C 48.9746 6.15234 49.3164 7.8125 50.7812 8.64258 C 52.1973 9.42383 53.9062 8.88672 54.6387 7.56836 Z M 24.2188 7.56836 L 28.9551 -0.585938 C 29.7852 -2.00195 29.3457 -3.66211 27.9297 -4.49219 C 26.5137 -5.32227 24.9023 -4.83398 24.0723 -3.41797 L 19.2871 4.83398 C 18.5059 6.15234 18.8965 7.86133 20.3125 8.69141 C 21.7285 9.47266 23.4375 8.93555 24.2188 7.56836 Z M 66.6504 18.3105 L 71.3867 10.1074 C 72.2168 8.74023 71.7773 7.03125 70.3613 6.20117 C 68.9453 5.37109 67.334 5.85938 66.5039 7.32422 L 61.7676 15.5762 C 60.9863 16.8945 61.3281 18.5547 62.793 19.3848 C 64.209 20.166 65.8691 19.6777 66.6504 18.3105 Z M 36.2305 18.3594 L 40.9668 10.1562 C 41.748 8.78906 41.3574 7.08008 39.9414 6.25 C 38.4766 5.41992 36.9141 5.9082 36.084 7.32422 L 31.2988 15.5762 C 30.5176 16.8945 30.9082 18.6035 32.3242 19.4336 C 33.7402 20.2148 35.4492 19.6777 36.2305 18.3594 Z"/>
  </g>
  <g id="Medium-S" transform="matrix(1 0 0 1 1688.18 696)">
   <path d="M 23.9746 -11.1328 L 65.4297 -11.1328 C 76.9531 -11.1328 85.8398 -19.873 85.8398 -31.1523 C 85.8398 -31.3477 85.8398 -31.4941 85.8398 -31.6895 C 97.7051 -31.9824 105.908 -38.2812 109.375 -46.7773 C 110.938 -50.5371 109.033 -53.8574 105.42 -53.8574 C 102.783 -53.8574 100.977 -52.8809 97.0215 -52.8809 C 87.5977 -52.8809 82.8613 -57.959 82.8613 -66.7969 C 82.8613 -70.9473 84.1309 -73.6328 84.1309 -75.8301 C 84.1309 -79.541 80.8594 -81.3477 77.002 -79.9805 C 68.0176 -76.8066 61.4746 -67.4805 61.4746 -57.1289 C 61.4746 -56.8359 61.4746 -56.5918 61.5234 -56.3477 C 56.8359 -61.5234 50.293 -64.4531 42.9199 -64.4531 C 29.9316 -64.4531 19.0918 -54.7363 17.5781 -41.9434 C 11.0352 -39.8438 6.83594 -34.0332 6.83594 -26.9531 C 6.83594 -17.6758 13.8672 -11.1328 23.9746 -11.1328 Z M 68.4082 -57.2266 C 68.4082 -63.6719 71.7773 -69.4336 76.7578 -72.6074 L 77.2461 -72.3145 C 76.6602 -70.459 76.123 -67.9199 76.123 -65.1367 C 76.123 -54.0039 84.1797 -46.2402 95.3613 -46.2402 C 98.0957 -46.2402 100.391 -46.7285 101.953 -47.2656 L 102.246 -46.9238 C 99.5117 -42.334 93.4082 -38.4766 84.4238 -38.623 C 81.9336 -44.7266 76.4648 -49.2188 69.5312 -50.5859 C 68.7988 -52.6855 68.4082 -54.9316 68.4082 -57.2266 Z M 23.877 -18.9941 C 17.8223 -18.9941 14.7461 -22.3633 14.7461 -26.7578 C 14.7461 -30.4688 16.7969 -33.7402 22.2656 -35.1562 C 24.3652 -35.6934 25.0977 -36.6699 25.293 -38.8672 C 26.416 -49.5605 33.7891 -56.543 42.9199 -56.543 C 49.7559 -56.543 55.2734 -52.832 58.8379 -45.8008 C 59.7656 -43.9941 60.791 -43.3594 62.9883 -43.3594 C 72.9492 -43.3594 77.9785 -37.6953 77.9785 -30.957 C 77.9785 -24.3164 72.6562 -18.9941 65.4785 -18.9941 Z M 54.1504 6.78711 L 58.8867 -1.41602 C 59.668 -2.73438 59.2285 -4.3457 57.9102 -5.17578 C 56.4941 -5.95703 54.9805 -5.51758 54.1504 -4.15039 L 49.4141 4.15039 C 48.6328 5.41992 49.0234 7.03125 50.3906 7.8125 C 51.7578 8.54492 53.3691 8.05664 54.1504 6.78711 Z M 23.7305 6.83594 L 28.418 -1.36719 C 29.248 -2.73438 28.8086 -4.3457 27.4414 -5.12695 C 26.0742 -5.9082 24.5117 -5.46875 23.7305 -4.10156 L 18.9453 4.19922 C 18.2129 5.41992 18.6035 7.03125 19.9707 7.86133 C 21.3379 8.59375 22.9492 8.10547 23.7305 6.83594 Z M 66.1133 17.5293 L 70.8496 9.375 C 71.6309 8.00781 71.1914 6.39648 69.873 5.61523 C 68.457 4.83398 66.9434 5.27344 66.1133 6.64062 L 61.377 14.8926 C 60.5957 16.1621 60.9863 17.7734 62.3535 18.5547 C 63.7207 19.3359 65.3809 18.8477 66.1133 17.5293 Z M 35.6934 17.5781 L 40.3809 9.375 C 41.2109 8.05664 40.7715 6.44531 39.4043 5.66406 C 38.0371 4.83398 36.5234 5.32227 35.6934 6.68945 L 30.957 14.9414 C 30.1758 16.2109 30.5664 17.8223 31.9336 18.6035 C 33.3008 19.3848 34.9121 18.8965 35.6934 17.5781 Z"/>
  </g>
  <g id="Regular-S" transform="matrix(1 0 0 1 1392.42 696)">
   <path d="M 23.4375 -11.9629 L 64.6973 -11.9629 C 75.8789 -11.9629 84.6191 -20.459 84.6191 -31.4941 C 84.6191 -31.6895 84.6191 -31.9336 84.5703 -32.1777 C 96.3379 -32.6172 104.053 -38.7207 107.471 -46.582 C 108.984 -50.1465 107.129 -53.3691 103.711 -53.3691 C 101.221 -53.3691 99.6094 -52.4902 95.7031 -52.4902 C 85.9375 -52.4902 81.0059 -57.7148 81.0059 -66.5527 C 81.0059 -70.5566 82.2754 -73.0957 82.2754 -75.3418 C 82.2754 -78.8574 79.1504 -80.6641 75.3906 -79.2969 C 66.6992 -76.2207 60.4492 -67.041 60.4492 -56.8848 C 60.4492 -56.6406 60.4492 -56.3477 60.498 -56.1035 C 55.8594 -61.2305 49.4141 -64.1602 42.2852 -64.1602 C 29.4434 -64.1602 18.7012 -54.3945 17.3828 -41.7969 C 10.9863 -39.7461 6.83594 -34.082 6.83594 -27.1484 C 6.83594 -18.2129 13.5742 -11.9629 23.4375 -11.9629 Z M 66.8457 -57.0312 C 66.8457 -63.5742 70.3125 -69.3848 75.3418 -72.5586 L 75.8301 -72.2656 C 75.2441 -70.4102 74.7559 -67.9199 74.7559 -65.1855 C 74.7559 -54.0039 83.0078 -46.3379 94.0918 -46.3379 C 96.8262 -46.3379 99.1699 -46.7773 100.732 -47.2656 L 101.025 -46.9727 C 98.291 -42.3828 92.2852 -38.4277 83.3008 -38.4766 C 80.8594 -44.7266 75.1465 -49.2188 67.9199 -50.4395 C 67.2363 -52.4902 66.8457 -54.7363 66.8457 -57.0312 Z M 23.2422 -18.9941 C 17.0898 -18.9941 13.8672 -22.4609 13.8672 -26.9531 C 13.8672 -30.6152 15.8691 -34.082 21.4355 -35.5469 C 23.4863 -36.0352 24.2188 -37.0117 24.4141 -39.1602 C 25.3418 -49.7559 32.959 -57.1289 42.2852 -57.1289 C 49.2188 -57.1289 54.7852 -53.418 58.3496 -46.2891 C 59.2285 -44.4824 60.3027 -43.8477 62.4512 -43.8477 C 72.3633 -43.8477 77.5879 -38.0859 77.5879 -31.2988 C 77.5879 -24.4629 72.0703 -18.9941 64.7949 -18.9941 Z M 53.4668 5.76172 L 58.2031 -2.44141 C 58.9355 -3.71094 58.5449 -5.22461 57.2266 -5.95703 C 55.9082 -6.73828 54.4922 -6.29883 53.7109 -5.0293 L 48.9258 3.27148 C 48.2422 4.44336 48.584 5.95703 49.9023 6.73828 C 51.2207 7.42188 52.7344 6.98242 53.4668 5.76172 Z M 23.0469 5.81055 L 27.7832 -2.39258 C 28.5156 -3.66211 28.125 -5.17578 26.8066 -5.9082 C 25.4883 -6.68945 24.0234 -6.25 23.291 -4.98047 L 18.5059 3.32031 C 17.8223 4.49219 18.1641 6.00586 19.4824 6.78711 C 20.8008 7.4707 22.3145 7.03125 23.0469 5.81055 Z M 65.3809 16.5527 L 70.1172 8.34961 C 70.8984 7.08008 70.459 5.56641 69.1895 4.83398 C 67.8711 4.05273 66.4062 4.49219 65.625 5.76172 L 60.8887 14.0625 C 60.1562 15.2344 60.5469 16.748 61.8652 17.5293 C 63.1348 18.2129 64.6973 17.7734 65.3809 16.5527 Z M 34.9609 16.6016 L 39.6973 8.39844 C 40.4297 7.12891 40.0391 5.61523 38.7695 4.83398 C 37.4512 4.10156 35.9863 4.54102 35.2051 5.81055 L 30.4688 14.1113 C 29.7363 15.2832 30.127 16.7969 31.4453 17.5293 C 32.7148 18.2617 34.2773 17.8223 34.9609 16.6016 Z"/>
  </g>
  <g id="Light-S" transform="matrix(1 0 0 1 1096.57 696)">
   <path d="M 22.7539 -11.9629 L 64.2578 -11.9629 C 75.1953 -11.9629 83.6914 -20.2148 83.6914 -30.8105 C 83.6914 -31.2012 83.6914 -31.543 83.6426 -31.9336 C 96.2891 -32.373 103.516 -39.8438 105.908 -46.7285 C 106.982 -49.4141 105.518 -51.8066 102.881 -51.8066 C 100.732 -51.8066 98.6816 -50.7324 94.4824 -50.7324 C 84.668 -50.7324 79.3457 -56.2988 79.3457 -65.1855 C 79.3457 -69.7754 80.8105 -72.0215 80.8105 -74.0723 C 80.8105 -76.9043 78.3691 -78.2715 75.3418 -77.2949 C 67.7246 -74.9512 60.3027 -66.748 60.3027 -55.8105 C 60.3027 -55.3711 60.3027 -54.9316 60.3516 -54.4922 C 55.7617 -59.9121 49.3164 -63.1348 41.8457 -63.1348 C 29.3457 -63.1348 18.8965 -53.3203 17.627 -40.7715 C 11.2793 -38.8672 6.83594 -33.4473 6.83594 -26.4648 C 6.83594 -18.1152 13.1348 -11.9629 22.7539 -11.9629 Z M 65.2832 -55.957 C 65.2832 -64.0137 70.459 -69.7266 75.4395 -72.1191 L 75.8301 -71.875 C 75.0977 -70.0195 74.4629 -67.3828 74.4629 -64.2578 C 74.4629 -53.418 82.3242 -45.9473 93.4082 -45.9473 C 96.1426 -45.9473 98.8281 -46.4355 100.684 -47.0703 L 100.928 -46.8262 C 98.877 -42.3828 93.0176 -36.9141 82.666 -36.8164 C 80.3711 -43.5059 74.2188 -48.3398 66.3574 -49.3164 C 65.625 -51.3672 65.2832 -53.6133 65.2832 -55.957 Z M 22.6562 -17.334 C 15.8691 -17.334 12.207 -21.3379 12.207 -26.3672 C 12.207 -30.7129 14.8438 -34.375 20.5566 -35.9375 C 22.2656 -36.377 22.8516 -37.1582 22.998 -38.8672 C 23.877 -49.707 32.0801 -57.7148 41.8457 -57.7148 C 49.6582 -57.7148 55.5664 -53.3691 59.1797 -46.1914 C 59.9121 -44.6777 60.791 -44.1895 62.5977 -44.1895 C 72.4121 -44.1895 78.3203 -38.0859 78.3203 -30.6641 C 78.3203 -23.291 72.2656 -17.334 64.3555 -17.334 Z M 52.3438 6.05469 L 57.5195 -2.92969 C 58.2031 -4.00391 57.8613 -5.17578 56.8359 -5.81055 C 55.7617 -6.39648 54.6387 -6.05469 53.9551 -4.98047 L 48.7305 4.05273 C 48.1445 5.07812 48.4375 6.29883 49.5117 6.88477 C 50.5371 7.4707 51.7578 7.12891 52.3438 6.05469 Z M 21.9238 6.10352 L 27.0996 -2.88086 C 27.7344 -3.95508 27.3926 -5.17578 26.3672 -5.76172 C 25.3418 -6.34766 24.1699 -6.00586 23.5352 -4.93164 L 18.3105 4.10156 C 17.7246 5.12695 18.0176 6.29883 19.043 6.93359 C 20.0684 7.51953 21.3379 7.12891 21.9238 6.10352 Z M 64.3555 16.8457 L 69.5312 7.86133 C 70.166 6.78711 69.873 5.56641 68.8477 4.98047 C 67.7734 4.3457 66.6016 4.6875 65.9668 5.76172 L 60.7422 14.8438 C 60.1562 15.8203 60.4492 17.041 61.5234 17.6758 C 62.5488 18.2129 63.7695 17.8711 64.3555 16.8457 Z M 33.9355 16.8457 L 39.1113 7.86133 C 39.7461 6.78711 39.4043 5.61523 38.3789 4.98047 C 37.3535 4.39453 36.1816 4.73633 35.5469 5.81055 L 30.3223 14.8438 C 29.7363 15.8691 30.0293 17.0898 31.0547 17.6758 C 32.0801 18.2617 33.3008 17.9199 33.9355 16.8457 Z"/>
  </g>
  <g id="Thin-S" transform="matrix(1 0 0 1 800.978 696)">
   <path d="M 21.875 -12.0117 L 63.7695 -12.0117 C 74.2676 -12.0117 82.4707 -19.9219 82.4707 -29.9805 C 82.4707 -30.5176 82.4219 -31.0547 82.373 -31.543 C 96.4844 -31.9336 102.93 -41.4551 103.906 -46.9238 C 104.297 -48.5352 103.369 -49.8047 101.807 -49.8047 C 100.049 -49.8047 97.4609 -48.4375 92.8711 -48.4375 C 83.0078 -48.4375 77.1484 -54.4434 77.1484 -63.3789 C 77.1484 -68.75 78.8574 -70.6055 78.8574 -72.4609 C 78.8574 -74.3164 77.3438 -75.1465 75.293 -74.6582 C 69.1406 -73.3398 60.1074 -66.3574 60.1074 -54.3945 C 60.1074 -53.6621 60.1074 -52.9785 60.2051 -52.2461 C 55.7129 -58.1055 49.3164 -61.7188 41.3574 -61.7188 C 29.1992 -61.7188 19.1406 -51.9043 17.9688 -39.4531 C 11.6699 -37.6953 6.83594 -32.666 6.83594 -25.6348 C 6.83594 -18.0176 12.5977 -12.0117 21.875 -12.0117 Z M 63.1348 -54.4922 C 63.1348 -64.6484 70.6055 -70.2148 75.5859 -71.582 L 75.7812 -71.3867 C 74.9512 -69.5312 74.1211 -66.6504 74.1211 -63.0371 C 74.1211 -52.6367 81.4453 -45.459 92.4316 -45.459 C 95.2637 -45.459 98.3398 -45.9961 100.684 -46.8262 L 100.83 -46.6797 C 99.8047 -42.3828 94.1895 -34.668 81.8359 -34.5703 C 79.834 -41.9434 72.998 -47.168 64.2578 -47.7051 C 63.5254 -49.8047 63.1348 -52.0996 63.1348 -54.4922 Z M 21.8262 -15.1855 C 14.2578 -15.1855 10.0098 -19.8242 10.0098 -25.5859 C 10.0098 -30.8105 13.5254 -34.8145 19.3848 -36.5234 C 20.6543 -36.8652 21.0449 -37.3535 21.1426 -38.5254 C 21.9238 -49.707 30.957 -58.5449 41.3574 -58.5449 C 50.293 -58.5449 56.6406 -53.2715 60.2539 -46.0938 C 60.791 -44.9707 61.4258 -44.5801 62.7441 -44.5801 C 72.4609 -44.5801 79.248 -38.0371 79.248 -29.8828 C 79.248 -21.7773 72.5098 -15.1855 63.8184 -15.1855 Z M 50.8789 6.49414 L 56.6895 -3.56445 C 57.1777 -4.3457 56.9824 -5.17578 56.25 -5.56641 C 55.6152 -5.95703 54.7852 -5.71289 54.2969 -4.93164 L 48.4863 5.12695 C 48.0469 5.9082 48.2422 6.68945 48.9258 7.12891 C 49.6582 7.51953 50.4395 7.27539 50.8789 6.49414 Z M 20.4102 6.49414 L 26.2207 -3.51562 C 26.709 -4.3457 26.5137 -5.12695 25.8301 -5.56641 C 25.1465 -5.95703 24.3652 -5.71289 23.877 -4.93164 L 18.0664 5.12695 C 17.627 5.9082 17.7734 6.73828 18.5059 7.12891 C 19.1895 7.51953 19.9707 7.27539 20.4102 6.49414 Z M 62.9883 17.1875 L 68.7988 7.17773 C 69.2871 6.34766 69.043 5.56641 68.3594 5.12695 C 67.6758 4.78516 66.8945 4.98047 66.4062 5.81055 L 60.5957 15.8691 C 60.1562 16.6504 60.3516 17.4316 61.0352 17.8223 C 61.7188 18.2617 62.5488 17.9688 62.9883 17.1875 Z M 32.5195 17.1875 L 38.3301 7.17773 C 38.8184 6.39648 38.623 5.56641 37.8906 5.17578 C 37.2559 4.78516 36.4258 4.98047 35.9375 5.81055 L 30.127 15.8691 C 29.6875 16.6504 29.8828 17.4316 30.5664 17.8711 C 31.2988 18.2617 32.0801 18.0176 32.5195 17.1875 Z"/>
  </g>
  <g id="Ultralight-S" transform="matrix(1 0 0 1 504.828 696)">
   <path d="M 21.4355 -12.0117 L 63.4766 -12.0117 C 73.7793 -12.0117 81.8359 -19.7754 81.8359 -29.541 C 81.8359 -30.1758 81.7871 -30.7617 81.7383 -31.3477 C 96.6309 -31.5918 102.686 -42.334 102.881 -47.0215 C 102.93 -48.0469 102.246 -48.7793 101.27 -48.7793 C 99.707 -48.7793 96.8262 -47.2656 92.041 -47.2656 C 82.1289 -47.2656 75.9766 -53.4668 75.9766 -62.4512 C 75.9766 -68.2129 77.8809 -69.8242 77.8809 -71.6309 C 77.8809 -72.998 76.8066 -73.584 75.2441 -73.291 C 69.873 -72.5098 60.0098 -66.1621 60.0098 -53.6133 C 60.0098 -52.7832 60.0586 -51.9043 60.1562 -51.0254 C 55.7129 -57.1289 49.3164 -60.9863 41.0645 -60.9863 C 29.1016 -60.9863 19.2383 -51.1719 18.1641 -38.7207 C 11.8652 -37.1094 6.83594 -32.2266 6.83594 -25.1953 C 6.83594 -17.9688 12.3047 -12.0117 21.4355 -12.0117 Z M 62.0605 -53.7598 C 62.0605 -64.9902 70.752 -70.459 75.6836 -71.2402 L 75.7812 -71.0938 C 74.8047 -69.2871 73.9258 -66.2598 73.9258 -62.4023 C 73.9258 -52.2461 81.0059 -45.166 91.9434 -45.166 C 94.7754 -45.166 98.0957 -45.752 100.635 -46.6797 L 100.781 -46.582 C 100.293 -42.3828 94.8242 -33.4961 81.3965 -33.4473 C 79.541 -41.1133 72.3633 -46.6309 63.1836 -46.8262 C 62.4023 -49.0234 62.0605 -51.3184 62.0605 -53.7598 Z M 21.4355 -14.0625 C 13.4277 -14.0625 8.88672 -19.0918 8.88672 -25.1953 C 8.88672 -30.8594 12.793 -35.0098 18.7988 -36.8164 C 19.8242 -37.1094 20.1172 -37.4512 20.166 -38.3301 C 20.9473 -49.6582 30.3711 -58.9355 41.0645 -58.9355 C 50.6348 -58.9355 57.1777 -53.2227 60.791 -46.0449 C 61.2793 -45.1172 61.7676 -44.8242 62.8906 -44.8242 C 72.5098 -44.8242 79.7852 -38.0371 79.7852 -29.4434 C 79.7852 -20.9961 72.6074 -14.0625 63.4766 -14.0625 Z M 50.1465 6.68945 L 56.25 -3.85742 C 56.6406 -4.54102 56.4941 -5.12695 55.957 -5.46875 C 55.4688 -5.71289 54.9316 -5.56641 54.4922 -4.88281 L 48.3887 5.66406 C 47.998 6.34766 48.1445 6.93359 48.6328 7.22656 C 49.1699 7.56836 49.7559 7.37305 50.1465 6.68945 Z M 19.6777 6.68945 L 25.7812 -3.85742 C 26.1719 -4.54102 26.0254 -5.12695 25.4883 -5.46875 C 25.0488 -5.71289 24.4629 -5.56641 24.0234 -4.88281 L 17.9199 5.66406 C 17.5293 6.34766 17.6758 6.93359 18.1641 7.22656 C 18.7012 7.56836 19.2871 7.37305 19.6777 6.68945 Z M 62.2559 17.3828 L 68.4082 6.83594 C 68.7988 6.15234 68.6523 5.56641 68.1152 5.27344 C 67.627 4.98047 67.041 5.12695 66.6504 5.81055 L 60.498 16.4062 C 60.1562 17.041 60.2539 17.627 60.791 17.9688 C 61.3281 18.2617 61.9141 18.0664 62.2559 17.3828 Z M 31.7871 17.3828 L 37.9395 6.83594 C 38.3301 6.15234 38.1836 5.56641 37.6465 5.27344 C 37.1582 4.98047 36.5723 5.12695 36.1816 5.81055 L 30.0293 16.4062 C 29.6875 17.041 29.7852 17.627 30.3223 17.9688 C 30.8594 18.2617 31.4453 18.0664 31.7871 17.3828 Z"/>
  </g>
 </g>
</svg>
