<?xml version="1.0" encoding="UTF-8"?>
<!--Generator: Apple Native CoreSVG 123-->
<!DOCTYPE svg
PUBLIC "-//W3C//DTD SVG 1.1//EN"
       "http://www.w3.org/Graphics/SVG/1.1/DTD/svg11.dtd">
<svg version="1.1" xmlns="http://www.w3.org/2000/svg" xmlns:xlink="http://www.w3.org/1999/xlink" width="3300" height="2200">
 <!--glyph: "uni1001DB.medium", point size: 100.000000, font version: "Version 15.0d7e11", template writer version: "5"-->
 <g id="Notes">
  <rect height="2200" id="artboard" style="fill:white;opacity:1" width="3300" x="0" y="0"/>
  <line id="" style="fill:none;stroke:black;opacity:1;stroke-width:0.5;" x1="263" x2="3036" y1="292" y2="292"/>
  <text style="stroke:none;fill:black;font-family:-apple-system,&quot;SF Pro Display&quot;,&quot;SF Pro Text&quot;,Helvetica,sans-serif;font-weight:bold;" transform="matrix(1 0 0 1 263 322)">Weight/Scale Variations</text>
  <text style="stroke:none;fill:black;font-family:-apple-system,&quot;SF Pro Display&quot;,&quot;SF Pro Text&quot;,Helvetica,sans-serif;text-anchor:middle;" transform="matrix(1 0 0 1 559.711 322)">Ultralight</text>
  <text style="stroke:none;fill:black;font-family:-apple-system,&quot;SF Pro Display&quot;,&quot;SF Pro Text&quot;,Helvetica,sans-serif;text-anchor:middle;" transform="matrix(1 0 0 1 856.422 322)">Thin</text>
  <text style="stroke:none;fill:black;font-family:-apple-system,&quot;SF Pro Display&quot;,&quot;SF Pro Text&quot;,Helvetica,sans-serif;text-anchor:middle;" transform="matrix(1 0 0 1 1153.13 322)">Light</text>
  <text style="stroke:none;fill:black;font-family:-apple-system,&quot;SF Pro Display&quot;,&quot;SF Pro Text&quot;,Helvetica,sans-serif;text-anchor:middle;" transform="matrix(1 0 0 1 1449.84 322)">Regular</text>
  <text style="stroke:none;fill:black;font-family:-apple-system,&quot;SF Pro Display&quot;,&quot;SF Pro Text&quot;,Helvetica,sans-serif;text-anchor:middle;" transform="matrix(1 0 0 1 1746.56 322)">Medium</text>
  <text style="stroke:none;fill:black;font-family:-apple-system,&quot;SF Pro Display&quot;,&quot;SF Pro Text&quot;,Helvetica,sans-serif;text-anchor:middle;" transform="matrix(1 0 0 1 2043.27 322)">Semibold</text>
  <text style="stroke:none;fill:black;font-family:-apple-system,&quot;SF Pro Display&quot;,&quot;SF Pro Text&quot;,Helvetica,sans-serif;text-anchor:middle;" transform="matrix(1 0 0 1 2339.98 322)">Bold</text>
  <text style="stroke:none;fill:black;font-family:-apple-system,&quot;SF Pro Display&quot;,&quot;SF Pro Text&quot;,Helvetica,sans-serif;text-anchor:middle;" transform="matrix(1 0 0 1 2636.69 322)">Heavy</text>
  <text style="stroke:none;fill:black;font-family:-apple-system,&quot;SF Pro Display&quot;,&quot;SF Pro Text&quot;,Helvetica,sans-serif;text-anchor:middle;" transform="matrix(1 0 0 1 2933.4 322)">Black</text>
  <line id="" style="fill:none;stroke:black;opacity:1;stroke-width:0.5;" x1="263" x2="3036" y1="1903" y2="1903"/>
  <g id="" transform="matrix(1 0 0 1 263 1933)">
   <path d="M 9.24805 0.830078 C 13.5547 0.830078 17.1387 -2.74414 17.1387 -7.05078 C 17.1387 -11.3574 13.5449 -14.9316 9.23828 -14.9316 C 4.94141 -14.9316 1.36719 -11.3574 1.36719 -7.05078 C 1.36719 -2.74414 4.95117 0.830078 9.24805 0.830078 Z M 9.24805 -0.654297 C 5.70312 -0.654297 2.87109 -3.49609 2.87109 -7.05078 C 2.87109 -10.6055 5.69336 -13.4473 9.23828 -13.4473 C 12.793 -13.4473 15.6348 -10.6055 15.6445 -7.05078 C 15.6543 -3.49609 12.8027 -0.654297 9.24805 -0.654297 Z M 9.22852 -3.42773 C 9.69727 -3.42773 9.9707 -3.74023 9.9707 -4.25781 L 9.9707 -6.31836 L 12.1973 -6.31836 C 12.6953 -6.31836 13.0371 -6.57227 13.0371 -7.04102 C 13.0371 -7.51953 12.7148 -7.7832 12.1973 -7.7832 L 9.9707 -7.7832 L 9.9707 -10.0098 C 9.9707 -10.5273 9.69727 -10.8496 9.22852 -10.8496 C 8.75977 -10.8496 8.50586 -10.5078 8.50586 -10.0098 L 8.50586 -7.7832 L 6.29883 -7.7832 C 5.78125 -7.7832 5.44922 -7.51953 5.44922 -7.04102 C 5.44922 -6.57227 5.80078 -6.31836 6.29883 -6.31836 L 8.50586 -6.31836 L 8.50586 -4.25781 C 8.50586 -3.75977 8.75977 -3.42773 9.22852 -3.42773 Z"/>
  </g>
  <g id="" transform="matrix(1 0 0 1 281.506 1933)">
   <path d="M 11.709 2.91016 C 17.1582 2.91016 21.6699 -1.60156 21.6699 -7.05078 C 21.6699 -12.4902 17.1484 -17.0117 11.6992 -17.0117 C 6.25977 -17.0117 1.74805 -12.4902 1.74805 -7.05078 C 1.74805 -1.60156 6.26953 2.91016 11.709 2.91016 Z M 11.709 1.25 C 7.09961 1.25 3.41797 -2.44141 3.41797 -7.05078 C 3.41797 -11.6504 7.08984 -15.3516 11.6992 -15.3516 C 16.3086 -15.3516 20 -11.6504 20.0098 -7.05078 C 20.0195 -2.44141 16.3184 1.25 11.709 1.25 Z M 11.6895 -2.41211 C 12.207 -2.41211 12.5195 -2.77344 12.5195 -3.33984 L 12.5195 -6.23047 L 15.5762 -6.23047 C 16.123 -6.23047 16.5039 -6.51367 16.5039 -7.03125 C 16.5039 -7.55859 16.1426 -7.86133 15.5762 -7.86133 L 12.5195 -7.86133 L 12.5195 -10.9277 C 12.5195 -11.5039 12.207 -11.8555 11.6895 -11.8555 C 11.1719 -11.8555 10.8789 -11.4844 10.8789 -10.9277 L 10.8789 -7.86133 L 7.83203 -7.86133 C 7.26562 -7.86133 6.89453 -7.55859 6.89453 -7.03125 C 6.89453 -6.51367 7.28516 -6.23047 7.83203 -6.23047 L 10.8789 -6.23047 L 10.8789 -3.33984 C 10.8789 -2.79297 11.1719 -2.41211 11.6895 -2.41211 Z"/>
  </g>
  <g id="" transform="matrix(1 0 0 1 304.924 1933)">
   <path d="M 14.9707 5.67383 C 21.9336 5.67383 27.6953 -0.078125 27.6953 -7.04102 C 27.6953 -14.0039 21.9238 -19.7559 14.9609 -19.7559 C 8.00781 -19.7559 2.25586 -14.0039 2.25586 -7.04102 C 2.25586 -0.078125 8.01758 5.67383 14.9707 5.67383 Z M 14.9707 3.85742 C 8.93555 3.85742 4.08203 -1.00586 4.08203 -7.04102 C 4.08203 -13.0762 8.92578 -17.9395 14.9609 -17.9395 C 21.0059 -17.9395 25.8594 -13.0762 25.8691 -7.04102 C 25.8789 -1.00586 21.0156 3.85742 14.9707 3.85742 Z M 14.9512 -1.06445 C 15.5176 -1.06445 15.8691 -1.45508 15.8691 -2.06055 L 15.8691 -6.13281 L 20.1074 -6.13281 C 20.6934 -6.13281 21.1133 -6.46484 21.1133 -7.02148 C 21.1133 -7.59766 20.7227 -7.93945 20.1074 -7.93945 L 15.8691 -7.93945 L 15.8691 -12.1875 C 15.8691 -12.8027 15.5176 -13.1934 14.9512 -13.1934 C 14.3848 -13.1934 14.0625 -12.7832 14.0625 -12.1875 L 14.0625 -7.93945 L 9.83398 -7.93945 C 9.21875 -7.93945 8.80859 -7.59766 8.80859 -7.02148 C 8.80859 -6.46484 9.23828 -6.13281 9.83398 -6.13281 L 14.0625 -6.13281 L 14.0625 -2.06055 C 14.0625 -1.47461 14.3848 -1.06445 14.9512 -1.06445 Z"/>
  </g>
  <text style="stroke:none;fill:black;font-family:-apple-system,&quot;SF Pro Display&quot;,&quot;SF Pro Text&quot;,Helvetica,sans-serif;font-weight:bold;" transform="matrix(1 0 0 1 263 1953)">Design Variations</text>
  <text style="stroke:none;fill:black;font-family:-apple-system,&quot;SF Pro Display&quot;,&quot;SF Pro Text&quot;,Helvetica,sans-serif;" transform="matrix(1 0 0 1 263 1971)">Symbols are supported in up to nine weights and three scales.</text>
  <text style="stroke:none;fill:black;font-family:-apple-system,&quot;SF Pro Display&quot;,&quot;SF Pro Text&quot;,Helvetica,sans-serif;" transform="matrix(1 0 0 1 263 1989)">For optimal layout with text and other symbols, vertically align</text>
  <text style="stroke:none;fill:black;font-family:-apple-system,&quot;SF Pro Display&quot;,&quot;SF Pro Text&quot;,Helvetica,sans-serif;" transform="matrix(1 0 0 1 263 2007)">symbols with the adjacent text.</text>
  <rect height="14" id="" style="fill:#00AEEF;stroke:none;opacity:0.4;" width="3" x="776" y="1919"/>
  <g id="" transform="matrix(1 0 0 1 779 1933)">
   <path d="M 10.5273 0 L 12.373 0 L 7.17773 -14.0918 L 5.43945 -14.0918 L 0.244141 0 L 2.08984 0 L 3.50586 -4.0332 L 9.11133 -4.0332 Z M 6.2793 -11.9531 L 6.33789 -11.9531 L 8.59375 -5.52734 L 4.02344 -5.52734 Z"/>
  </g>
  <rect height="14" id="" style="fill:#00AEEF;stroke:none;opacity:0.4;" width="3" x="791.617" y="1919"/>
  <text style="stroke:none;fill:black;font-family:-apple-system,&quot;SF Pro Display&quot;,&quot;SF Pro Text&quot;,Helvetica,sans-serif;font-weight:bold;" transform="matrix(1 0 0 1 776 1953)">Margins</text>
  <text style="stroke:none;fill:black;font-family:-apple-system,&quot;SF Pro Display&quot;,&quot;SF Pro Text&quot;,Helvetica,sans-serif;" transform="matrix(1 0 0 1 776 1971)">Leading and trailing margins on the left and right side of each symbol</text>
  <text style="stroke:none;fill:black;font-family:-apple-system,&quot;SF Pro Display&quot;,&quot;SF Pro Text&quot;,Helvetica,sans-serif;" transform="matrix(1 0 0 1 776 1989)">can be adjusted by modifying the width of the blue rectangles.</text>
  <text style="stroke:none;fill:black;font-family:-apple-system,&quot;SF Pro Display&quot;,&quot;SF Pro Text&quot;,Helvetica,sans-serif;" transform="matrix(1 0 0 1 776 2007)">Modifications are automatically applied proportionally to all</text>
  <text style="stroke:none;fill:black;font-family:-apple-system,&quot;SF Pro Display&quot;,&quot;SF Pro Text&quot;,Helvetica,sans-serif;" transform="matrix(1 0 0 1 776 2025)">scales and weights.</text>
  <g id="" transform="matrix(1 0 0 1 1289 1933)">
   <path d="M 2.83203 3.11523 L 4.375 4.6582 C 5.22461 5.48828 6.19141 5.41992 7.06055 4.46289 L 17.2754 -6.66016 C 17.7051 -6.36719 18.0957 -6.37695 18.5645 -6.47461 L 19.6094 -6.68945 L 20.3027 -5.99609 L 20.2539 -5.47852 C 20.1855 -4.95117 20.3516 -4.53125 20.8496 -4.0332 L 21.6602 -3.22266 C 22.168 -2.71484 22.8223 -2.68555 23.3008 -3.16406 L 26.5527 -6.41602 C 27.0312 -6.89453 27.0117 -7.54883 26.5039 -8.05664 L 25.6836 -8.87695 C 25.1855 -9.375 24.7754 -9.55078 24.2383 -9.47266 L 23.7109 -9.41406 L 23.0566 -10.0781 L 23.3398 -11.2207 C 23.4863 -11.7871 23.3398 -12.2559 22.7148 -12.8613 L 20.3027 -15.2539 C 16.7578 -18.7793 12.2266 -18.6719 9.11133 -15.5371 C 8.69141 -15.1074 8.64258 -14.5215 8.91602 -14.0918 C 9.15039 -13.7207 9.62891 -13.4961 10.2734 -13.6621 C 11.7871 -14.043 13.3008 -13.9258 14.7852 -12.9199 L 14.1602 -11.3379 C 13.9258 -10.752 13.9453 -10.2734 14.1797 -9.83398 L 3.01758 0.439453 C 2.08008 1.30859 1.97266 2.25586 2.83203 3.11523 Z M 10.6738 -15.1465 C 13.3398 -17.1387 16.6504 -16.8262 19.0527 -14.4141 L 21.6797 -11.8066 C 21.9141 -11.5723 21.9434 -11.3867 21.8848 -11.0938 L 21.5039 -9.53125 L 23.0762 -7.95898 L 24.043 -8.04688 C 24.3262 -8.07617 24.4141 -8.05664 24.6387 -7.83203 L 25.2637 -7.20703 L 22.5098 -4.46289 L 21.8848 -5.07812 C 21.6602 -5.30273 21.6406 -5.40039 21.6699 -5.68359 L 21.7578 -6.64062 L 20.1953 -8.20312 L 18.5742 -7.89062 C 18.291 -7.83203 18.1445 -7.83203 17.9102 -8.07617 L 15.7324 -10.2539 C 15.5078 -10.4883 15.4785 -10.625 15.6055 -10.9473 L 16.5527 -13.2227 C 14.9512 -14.7559 12.8418 -15.6055 10.8008 -14.9512 C 10.7129 -14.9219 10.6445 -14.9414 10.6152 -14.9805 C 10.5859 -15.0293 10.5859 -15.0781 10.6738 -15.1465 Z M 4.10156 2.41211 C 3.61328 1.91406 3.78906 1.61133 4.12109 1.30859 L 15.0781 -8.80859 L 16.3086 -7.57812 L 6.15234 3.34961 C 5.84961 3.68164 5.46875 3.7793 5.06836 3.37891 Z"/>
  </g>
  <text style="stroke:none;fill:black;font-family:-apple-system,&quot;SF Pro Display&quot;,&quot;SF Pro Text&quot;,Helvetica,sans-serif;font-weight:bold;" transform="matrix(1 0 0 1 1289 1953)">Exporting</text>
  <text style="stroke:none;fill:black;font-family:-apple-system,&quot;SF Pro Display&quot;,&quot;SF Pro Text&quot;,Helvetica,sans-serif;" transform="matrix(1 0 0 1 1289 1971)">Symbols should be outlined when exporting to ensure the</text>
  <text style="stroke:none;fill:black;font-family:-apple-system,&quot;SF Pro Display&quot;,&quot;SF Pro Text&quot;,Helvetica,sans-serif;" transform="matrix(1 0 0 1 1289 1989)">design is preserved when submitting to Xcode.</text>
  <text id="template-version" style="stroke:none;fill:black;font-family:-apple-system,&quot;SF Pro Display&quot;,&quot;SF Pro Text&quot;,Helvetica,sans-serif;text-anchor:end;" transform="matrix(1 0 0 1 3036 1933)">Template v.1.0</text>
  <text style="stroke:none;fill:black;font-family:-apple-system,&quot;SF Pro Display&quot;,&quot;SF Pro Text&quot;,Helvetica,sans-serif;text-anchor:end;" transform="matrix(1 0 0 1 3036 1951)">Generated from cloud.moon.fill</text>
  <text style="stroke:none;fill:black;font-family:-apple-system,&quot;SF Pro Display&quot;,&quot;SF Pro Text&quot;,Helvetica,sans-serif;text-anchor:end;" transform="matrix(1 0 0 1 3036 1969)">Typeset at 100 points</text>
  <text style="stroke:none;fill:black;font-family:-apple-system,&quot;SF Pro Display&quot;,&quot;SF Pro Text&quot;,Helvetica,sans-serif;" transform="matrix(1 0 0 1 263 726)">Small</text>
  <text style="stroke:none;fill:black;font-family:-apple-system,&quot;SF Pro Display&quot;,&quot;SF Pro Text&quot;,Helvetica,sans-serif;" transform="matrix(1 0 0 1 263 1156)">Medium</text>
  <text style="stroke:none;fill:black;font-family:-apple-system,&quot;SF Pro Display&quot;,&quot;SF Pro Text&quot;,Helvetica,sans-serif;" transform="matrix(1 0 0 1 263 1586)">Large</text>
 </g>
 <g id="Guides">
  <g id="H-reference" style="fill:#27AAE1;stroke:none;" transform="matrix(1 0 0 1 339 696)">
   <path d="M 54.9316 0 L 57.666 0 L 30.5664 -70.459 L 28.0762 -70.459 L 0.976562 0 L 3.66211 0 L 12.9395 -24.4629 L 45.7031 -24.4629 Z M 29.1992 -67.0898 L 29.4434 -67.0898 L 44.8242 -26.709 L 13.8184 -26.709 Z"/>
  </g>
  <line id="Baseline-S" style="fill:none;stroke:#27AAE1;opacity:1;stroke-width:0.577;" x1="263" x2="3036" y1="696" y2="696"/>
  <line id="Capline-S" style="fill:none;stroke:#27AAE1;opacity:1;stroke-width:0.577;" x1="263" x2="3036" y1="625.541" y2="625.541"/>
  <g id="H-reference" style="fill:#27AAE1;stroke:none;" transform="matrix(1 0 0 1 339 1126)">
   <path d="M 54.9316 0 L 57.666 0 L 30.5664 -70.459 L 28.0762 -70.459 L 0.976562 0 L 3.66211 0 L 12.9395 -24.4629 L 45.7031 -24.4629 Z M 29.1992 -67.0898 L 29.4434 -67.0898 L 44.8242 -26.709 L 13.8184 -26.709 Z"/>
  </g>
  <line id="Baseline-M" style="fill:none;stroke:#27AAE1;opacity:1;stroke-width:0.577;" x1="263" x2="3036" y1="1126" y2="1126"/>
  <line id="Capline-M" style="fill:none;stroke:#27AAE1;opacity:1;stroke-width:0.577;" x1="263" x2="3036" y1="1055.54" y2="1055.54"/>
  <g id="H-reference" style="fill:#27AAE1;stroke:none;" transform="matrix(1 0 0 1 339 1556)">
   <path d="M 54.9316 0 L 57.666 0 L 30.5664 -70.459 L 28.0762 -70.459 L 0.976562 0 L 3.66211 0 L 12.9395 -24.4629 L 45.7031 -24.4629 Z M 29.1992 -67.0898 L 29.4434 -67.0898 L 44.8242 -26.709 L 13.8184 -26.709 Z"/>
  </g>
  <line id="Baseline-L" style="fill:none;stroke:#27AAE1;opacity:1;stroke-width:0.577;" x1="263" x2="3036" y1="1556" y2="1556"/>
  <line id="Capline-L" style="fill:none;stroke:#27AAE1;opacity:1;stroke-width:0.577;" x1="263" x2="3036" y1="1485.54" y2="1485.54"/>
  <rect height="119.336" id="left-margin" style="fill:#00AEEF;stroke:none;opacity:0.4;" width="8.74023" x="1376.92" y="1030.79"/>
  <rect height="119.336" id="right-margin" style="fill:#00AEEF;stroke:none;opacity:0.4;" width="8.74023" x="1514.03" y="1030.79"/>
 </g>
 <g id="Symbols">
  <g id="Black-L" transform="matrix(1 0 0 1 2833.11 1556)">
   <path d="M 158.838 -25.9277 C 177.539 -31.2012 189.307 -47.3145 189.307 -58.7891 C 189.307 -61.7188 188.086 -63.8184 185.791 -63.8184 C 182.031 -63.8184 177.148 -59.8633 167.676 -59.7656 C 153.076 -59.668 144.043 -68.6523 144.043 -82.1777 C 144.043 -91.3574 147.803 -97.9004 147.803 -101.904 C 147.803 -104.102 146.289 -105.615 143.652 -105.566 C 133.057 -105.322 115.82 -93.3105 111.523 -74.9512 C 114.258 -72.3145 116.748 -69.043 118.75 -65.0879 C 138.379 -64.209 156.689 -48.584 158.838 -25.9277 Z M 39.1602 12.8418 L 114.844 12.8418 C 133.35 12.8418 147.314 -1.51367 147.314 -20.5078 C 147.314 -40.2832 132.471 -54.7363 112.109 -54.6875 C 105.615 -66.7969 93.2617 -77.5879 73.3887 -77.5879 C 50.7324 -77.5879 32.0801 -60.8398 30.2734 -38.6719 C 18.75 -35.5957 11.2793 -25.7324 11.2793 -13.4277 C 11.2793 2.19727 22.5586 12.8418 39.1602 12.8418 Z"/>
  </g>
  <g id="Heavy-L" transform="matrix(1 0 0 1 2537.98 1556)">
   <path d="M 155.371 -24.6094 C 174.512 -29.4922 186.133 -45.6055 186.133 -56.5918 C 186.133 -59.3262 184.961 -61.3281 182.764 -61.3281 C 179.248 -61.3281 174.316 -57.4219 165.137 -57.373 C 150.342 -57.2754 141.064 -66.4062 141.064 -80.127 C 141.064 -89.0625 144.922 -95.459 144.922 -99.2188 C 144.922 -101.367 143.457 -102.783 140.869 -102.734 C 129.834 -102.344 113.477 -89.8926 109.57 -72.0215 C 112.061 -69.6289 114.355 -66.6016 116.211 -62.8418 C 136.035 -61.8164 153.564 -46.3379 155.371 -24.6094 Z M 38.5742 12.5 L 112.598 12.5 C 130.859 12.5 144.727 -1.61133 144.727 -20.1172 C 144.727 -39.2578 130.127 -53.3203 110.156 -53.3203 C 103.467 -65.918 90.9668 -76.123 72.168 -76.123 C 50.0977 -76.123 31.8359 -59.5703 29.9805 -37.7441 C 18.6035 -34.668 11.2793 -25 11.2793 -13.0371 C 11.2793 2.14844 22.3633 12.5 38.5742 12.5 Z"/>
  </g>
  <g id="Bold-L" transform="matrix(1 0 0 1 2243.05 1556)">
   <path d="M 151.465 -23.1934 C 171.143 -27.6367 182.568 -43.6523 182.568 -54.1504 C 182.568 -56.6895 181.445 -58.5449 179.395 -58.5449 C 176.123 -58.5449 171.143 -54.6875 162.354 -54.6875 C 147.266 -54.5898 137.744 -63.8672 137.744 -77.7832 C 137.744 -86.4746 141.699 -92.7734 141.699 -96.2402 C 141.699 -98.291 140.332 -99.6582 137.793 -99.5605 C 126.221 -99.0234 110.889 -86.1328 107.373 -68.7988 C 109.619 -66.6016 111.67 -63.8672 113.379 -60.3516 C 133.496 -59.1309 150.098 -43.8477 151.465 -23.1934 Z M 37.9883 12.1582 L 110.059 12.1582 C 128.076 12.1582 141.846 -1.66016 141.846 -19.6777 C 141.846 -38.0859 127.49 -51.7578 108.008 -51.7578 C 101.025 -64.9902 88.3789 -74.4629 70.8008 -74.4629 C 49.4141 -74.4629 31.4941 -58.1055 29.6875 -36.7188 C 18.457 -33.5938 11.2793 -24.2188 11.2793 -12.5977 C 11.2793 2.09961 22.1191 12.1582 37.9883 12.1582 Z"/>
  </g>
  <g id="Semibold-L" transform="matrix(1 0 0 1 1947.59 1556)">
   <path d="M 148.779 -22.168 C 168.799 -26.3672 180.078 -42.2852 180.078 -52.4902 C 180.078 -54.8828 179.004 -56.5918 177.051 -56.5918 C 173.926 -56.5918 168.994 -52.832 160.4 -52.7832 C 145.117 -52.7832 135.449 -62.1582 135.449 -76.2207 C 135.449 -84.7168 139.502 -90.8691 139.502 -94.1895 C 139.502 -96.1914 138.135 -97.4609 135.645 -97.3633 C 123.73 -96.6797 109.082 -83.5449 105.859 -66.5527 C 107.91 -64.502 109.814 -61.9629 111.426 -58.6426 C 131.689 -57.3242 147.705 -42.0898 148.779 -22.168 Z M 37.5488 11.9141 L 108.301 11.9141 C 126.123 11.9141 139.893 -1.70898 139.893 -19.3848 C 139.893 -37.3047 125.684 -50.6836 106.494 -50.6836 C 99.3652 -64.3066 86.5723 -73.3398 69.873 -73.3398 C 48.9258 -73.3398 31.2988 -57.1289 29.4922 -35.9863 C 18.4082 -32.9102 11.2793 -23.6328 11.2793 -12.2559 C 11.2793 2.05078 21.9727 11.9141 37.5488 11.9141 Z"/>
  </g>
  <g id="Medium-L" transform="matrix(1 0 0 1 1651.8 1556)">
   <path d="M 146.777 -21.4355 C 167.041 -25.3906 178.223 -41.3086 178.223 -51.2207 C 178.223 -53.5156 177.148 -55.1758 175.244 -55.1758 C 172.314 -55.1758 167.334 -51.416 158.936 -51.416 C 143.506 -51.3672 133.691 -60.791 133.691 -75 C 133.691 -83.3496 137.793 -89.4531 137.793 -92.6758 C 137.793 -94.5801 136.523 -95.8008 134.033 -95.7031 C 121.826 -94.9707 107.715 -81.543 104.688 -64.8438 C 106.641 -62.9395 108.447 -60.498 109.912 -57.3242 C 130.371 -55.9082 145.898 -40.7715 146.777 -21.4355 Z M 37.207 11.7188 L 106.982 11.7188 C 124.658 11.7188 138.379 -1.75781 138.379 -19.1406 C 138.379 -36.7188 124.268 -49.8535 105.371 -49.9023 C 98.0957 -63.8184 85.2539 -72.4609 69.1895 -72.4609 C 48.5352 -72.4609 31.1523 -56.3965 29.2969 -35.4492 C 18.3105 -32.3242 11.2793 -23.2422 11.2793 -12.0117 C 11.2793 2.05078 21.8262 11.7188 37.207 11.7188 Z"/>
  </g>
  <g id="Regular-L" transform="matrix(1 0 0 1 1356.31 1556)">
   <path d="M 144.092 -20.459 C 164.746 -24.0723 175.781 -39.9414 175.781 -49.5117 C 175.781 -51.709 174.756 -53.2715 172.949 -53.2715 C 170.166 -53.2715 165.137 -49.5605 156.982 -49.5605 C 141.406 -49.5605 131.445 -59.082 131.445 -73.4375 C 131.445 -81.5918 135.596 -87.6465 135.596 -90.625 C 135.596 -92.5293 134.375 -93.6523 131.885 -93.5547 C 119.385 -92.6758 105.957 -79.0039 103.174 -62.6465 C 104.932 -60.8887 106.592 -58.6426 108.008 -55.6152 C 128.613 -54.0527 143.506 -39.0625 144.092 -20.459 Z M 36.8164 11.4746 L 105.225 11.4746 C 122.754 11.4746 136.426 -1.80664 136.426 -18.8477 C 136.426 -35.9375 122.51 -48.7793 103.906 -48.8281 C 96.4355 -63.1836 83.4961 -71.3379 68.2617 -71.3379 C 48.0469 -71.3379 30.9082 -55.4199 29.1016 -34.7168 C 18.2129 -31.6406 11.2793 -22.6562 11.2793 -11.7188 C 11.2793 2.00195 21.6797 11.4746 36.8164 11.4746 Z"/>
  </g>
  <g id="Light-L" transform="matrix(1 0 0 1 1060.38 1556)">
   <path d="M 142.139 -20.8984 C 164.111 -24.8047 174.219 -40.5762 174.219 -49.0723 C 174.219 -50.8301 173.34 -52.0996 171.777 -52.0996 C 169.385 -52.0996 163.77 -48.8281 156.348 -48.8281 C 140.479 -48.8281 130.225 -58.6426 130.225 -73.4375 C 130.225 -81.3477 133.984 -87.3047 133.984 -89.8438 C 133.984 -91.6016 132.812 -92.5781 130.469 -92.3828 C 116.748 -91.0156 105.127 -76.3672 103.125 -60.5957 C 104.639 -58.9355 106.006 -56.9824 107.178 -54.3945 C 127.002 -52.9785 141.211 -39.2578 142.139 -20.8984 Z M 35.9375 10.5469 L 104.688 10.5469 C 121.826 10.5469 135.254 -2.39258 135.254 -18.9453 C 135.254 -35.5957 121.533 -48.0957 103.223 -48.0957 C 95.6543 -62.793 82.959 -70.9473 67.7734 -70.9473 C 47.9492 -70.9473 31.1035 -55.0293 29.3945 -34.375 C 18.3105 -31.3477 11.2793 -22.6074 11.2793 -11.8652 C 11.2793 1.36719 21.3867 10.5469 35.9375 10.5469 Z"/>
  </g>
  <g id="Thin-L" transform="matrix(1 0 0 1 764.699 1556)">
   <path d="M 139.502 -21.5332 C 163.281 -25.7812 172.168 -41.3574 172.168 -48.4375 C 172.168 -49.707 171.436 -50.5371 170.215 -50.5371 C 168.359 -50.5371 161.963 -47.8516 155.518 -47.8516 C 139.307 -47.8516 128.564 -58.1055 128.564 -73.3887 C 128.564 -80.957 131.836 -86.8652 131.836 -88.7695 C 131.836 -90.3809 130.811 -91.1621 128.564 -90.8691 C 113.281 -88.7695 104.053 -72.9492 103.076 -57.8613 C 104.248 -56.3965 105.176 -54.834 106.055 -52.7344 C 124.854 -51.5137 138.184 -39.5508 139.502 -21.5332 Z M 34.8145 9.27734 L 104.004 9.27734 C 120.557 9.27734 133.691 -3.22266 133.691 -19.0918 C 133.691 -35.1562 120.264 -47.168 102.393 -47.1191 C 94.6289 -62.2559 82.2266 -70.4102 67.0898 -70.4102 C 47.7539 -70.4102 31.3965 -54.4922 29.834 -33.8867 C 18.457 -31.0059 11.2793 -22.5098 11.2793 -12.0117 C 11.2793 0.488281 20.9473 9.27734 34.8145 9.27734 Z"/>
  </g>
  <g id="Ultralight-L" transform="matrix(1 0 0 1 468.5 1556)">
   <path d="M 138.184 -21.8262 C 162.842 -26.2695 171.143 -41.748 171.143 -48.1445 C 171.143 -49.1699 170.459 -49.7559 169.385 -49.7559 C 167.822 -49.7559 161.035 -47.3145 155.127 -47.3145 C 138.672 -47.3145 127.734 -57.8125 127.734 -73.3887 C 127.734 -80.7617 130.713 -86.6211 130.713 -88.2324 C 130.713 -89.7461 129.785 -90.3809 127.588 -90.0391 C 111.523 -87.6465 103.516 -71.1914 103.027 -56.4941 C 104.053 -55.0781 104.785 -53.7109 105.518 -51.9043 C 123.73 -50.7324 136.621 -39.6973 138.184 -21.8262 Z M 34.2285 8.64258 L 103.662 8.64258 C 119.922 8.64258 132.91 -3.61328 132.91 -19.1406 C 132.91 -34.9121 119.629 -46.7285 101.953 -46.6309 C 94.0918 -62.0117 81.8848 -70.1172 66.748 -70.1172 C 47.6562 -70.1172 31.543 -54.1992 30.0293 -33.6426 C 18.5547 -30.8594 11.2793 -22.4609 11.2793 -12.0605 C 11.2793 0.0488281 20.752 8.64258 34.2285 8.64258 Z"/>
  </g>
  <g id="Black-M" transform="matrix(1 0 0 1 2853.93 1126)">
   <path d="M 126.709 -29.9805 C 141.309 -34.7168 150.195 -47.2656 150.195 -56.1523 C 150.195 -58.4961 149.268 -60.1074 147.461 -60.1074 C 144.434 -60.1074 140.381 -57.1777 133.008 -57.1289 C 121.875 -56.9824 114.99 -63.9648 114.99 -74.3652 C 114.99 -81.6895 117.578 -86.8652 117.578 -90.0391 C 117.578 -91.7969 116.357 -92.9688 114.307 -92.9199 C 106.104 -92.6758 92.4805 -83.3984 89.0625 -68.8477 C 91.3574 -66.5527 93.3594 -63.8672 94.9707 -60.6934 C 109.473 -60.3516 124.414 -48.7305 126.709 -29.9805 Z M 30.6641 1.95312 L 91.7969 1.95312 C 106.201 1.95312 116.992 -9.375 116.992 -24.4141 C 116.992 -40.332 105.322 -51.9043 89.1602 -51.7578 C 84.375 -60.6445 75.0977 -69.8242 58.2031 -69.8242 C 40.0879 -69.8242 25.3418 -56.5918 23.9746 -38.9648 C 14.7461 -36.6699 8.74023 -28.8086 8.74023 -18.8965 C 8.74023 -6.49414 17.5781 1.95312 30.6641 1.95312 Z"/>
  </g>
  <g id="Heavy-M" transform="matrix(1 0 0 1 2558.76 1126)">
   <path d="M 123.438 -28.4668 C 138.184 -32.7148 147.119 -45.2148 147.119 -53.9062 C 147.119 -56.1035 146.191 -57.666 144.434 -57.666 C 141.602 -57.666 137.646 -54.7363 130.42 -54.6875 C 119.092 -54.5898 112.061 -61.6211 112.061 -72.1191 C 112.061 -79.248 114.844 -84.3262 114.844 -87.3535 C 114.844 -89.0625 113.672 -90.1855 111.67 -90.1367 C 103.223 -89.8438 90.1367 -80.3711 86.9141 -66.2109 C 89.0137 -64.1113 90.918 -61.6211 92.4316 -58.5938 C 107.373 -58.0078 121.582 -46.2402 123.438 -28.4668 Z M 30.2734 1.85547 L 89.4531 1.85547 C 103.711 1.85547 114.502 -9.27734 114.502 -23.9258 C 114.502 -39.3066 102.979 -50.5371 87.207 -50.4395 C 82.1777 -59.8145 72.7051 -68.3105 57.0312 -68.3105 C 39.4531 -68.3105 25 -55.2734 23.6328 -38.0371 C 14.5996 -35.6934 8.74023 -28.0273 8.74023 -18.457 C 8.74023 -6.39648 17.4316 1.85547 30.2734 1.85547 Z"/>
  </g>
  <g id="Bold-M" transform="matrix(1 0 0 1 2263.78 1126)">
   <path d="M 119.775 -26.7578 C 134.668 -30.4688 143.652 -42.9199 143.652 -51.3672 C 143.652 -53.4668 142.773 -54.9805 141.064 -54.9805 C 138.379 -54.9805 134.57 -51.9531 127.539 -51.9531 C 115.967 -51.8555 108.789 -58.9844 108.789 -69.6289 C 108.789 -76.5137 111.768 -81.4453 111.768 -84.3262 C 111.768 -85.9863 110.693 -87.0605 108.691 -87.0117 C 100.049 -86.6699 87.5 -77.002 84.5215 -63.2324 C 86.4258 -61.377 88.1836 -59.082 89.5996 -56.2012 C 105.029 -55.4199 118.457 -43.4082 119.775 -26.7578 Z M 29.834 1.70898 L 86.8164 1.70898 C 100.928 1.70898 111.719 -9.17969 111.719 -23.4375 C 111.719 -38.1348 100.391 -49.0234 85.0098 -48.9746 C 79.7852 -58.8867 70.0684 -66.6504 55.7129 -66.6504 C 38.7207 -66.6504 24.6094 -53.8574 23.1934 -37.0117 C 14.4043 -34.6191 8.74023 -27.1484 8.74023 -17.9199 C 8.74023 -6.25 17.2852 1.70898 29.834 1.70898 Z"/>
  </g>
  <g id="Semibold-M" transform="matrix(1 0 0 1 1968.27 1126)">
   <path d="M 117.236 -25.5859 C 132.275 -28.9062 141.26 -41.3086 141.26 -49.6094 C 141.26 -51.6602 140.381 -53.125 138.77 -53.125 C 136.182 -53.125 132.471 -50.0488 125.537 -50.0488 C 113.867 -50 106.494 -57.1289 106.494 -67.8711 C 106.494 -74.6094 109.668 -79.4922 109.668 -82.2754 C 109.668 -83.8379 108.594 -84.9121 106.641 -84.8633 C 97.8516 -84.5215 85.6934 -74.6582 82.8613 -61.1816 C 84.6191 -59.5215 86.2793 -57.373 87.5977 -54.5898 C 103.418 -53.6133 116.309 -41.4551 117.236 -25.5859 Z M 29.541 1.66016 L 85.0098 1.66016 C 99.0234 1.66016 109.766 -9.08203 109.766 -23.0957 C 109.766 -37.3535 98.584 -47.9492 83.4961 -47.9492 C 78.0762 -58.252 68.2129 -65.4785 54.7852 -65.4785 C 38.1836 -65.4785 24.3164 -52.832 22.9004 -36.2793 C 14.2578 -33.8867 8.74023 -26.5625 8.74023 -17.5781 C 8.74023 -6.15234 17.1875 1.66016 29.541 1.66016 Z"/>
  </g>
  <g id="Medium-M" transform="matrix(1 0 0 1 1672.46 1126)">
   <path d="M 115.332 -24.6582 C 130.42 -27.7344 139.453 -40.1367 139.453 -48.291 C 139.453 -50.293 138.623 -51.709 137.012 -51.709 C 134.521 -51.709 130.859 -48.6328 124.023 -48.6328 C 112.207 -48.584 104.785 -55.7617 104.785 -66.5527 C 104.785 -73.1934 108.105 -77.9785 108.105 -80.6641 C 108.105 -82.2266 107.031 -83.252 105.078 -83.2031 C 96.1914 -82.8613 84.3262 -72.9004 81.6406 -59.668 C 83.3008 -58.0566 84.8145 -56.0547 86.1328 -53.3691 C 102.197 -52.2461 114.648 -39.9902 115.332 -24.6582 Z M 29.2969 1.5625 L 83.6426 1.5625 C 97.5586 1.5625 108.301 -9.0332 108.301 -22.8516 C 108.301 -36.7188 97.2656 -47.168 82.373 -47.2168 C 76.8066 -57.7148 66.7969 -64.5996 54.1016 -64.5996 C 37.793 -64.5996 24.1211 -52.0996 22.6562 -35.7422 C 14.1602 -33.3008 8.74023 -26.123 8.74023 -17.2852 C 8.74023 -6.10352 17.0898 1.5625 29.2969 1.5625 Z"/>
  </g>
  <g id="Regular-M" transform="matrix(1 0 0 1 1376.92 1126)">
   <path d="M 112.793 -23.4863 C 128.076 -26.1719 137.109 -38.5742 137.109 -46.582 C 137.109 -48.4863 136.279 -49.8535 134.717 -49.8535 C 132.324 -49.8535 128.76 -46.7285 122.021 -46.7285 C 110.107 -46.7285 102.588 -53.9551 102.588 -64.8438 C 102.588 -71.3379 106.006 -76.0254 106.006 -78.6133 C 106.006 -80.127 104.98 -81.1523 103.027 -81.1035 C 93.9941 -80.7129 82.5684 -70.6055 79.9805 -57.6172 C 81.4941 -56.2012 82.959 -54.2969 84.1797 -51.7578 C 100.586 -50.4883 112.5 -38.0859 112.793 -23.4863 Z M 29.0039 1.51367 L 81.8359 1.51367 C 95.6543 1.51367 106.396 -8.98438 106.396 -22.5098 C 106.396 -35.9375 95.459 -46.0938 80.8594 -46.1914 C 75.1465 -57.0801 64.9902 -63.4277 53.1738 -63.4277 C 37.3047 -63.4277 23.8281 -51.123 22.3633 -35.0586 C 14.0625 -32.5684 8.74023 -25.5371 8.74023 -16.9434 C 8.74023 -6.00586 16.9922 1.51367 29.0039 1.51367 Z"/>
  </g>
  <g id="Light-M" transform="matrix(1 0 0 1 1080.89 1126)">
   <path d="M 111.035 -23.9258 C 127.49 -26.8555 135.742 -39.1113 135.742 -46.1426 C 135.742 -47.7051 134.961 -48.8281 133.643 -48.8281 C 131.641 -48.8281 127.539 -46.0938 121.436 -46.0938 C 109.277 -46.0938 101.465 -53.5645 101.465 -64.8438 C 101.465 -71.0938 104.541 -75.7324 104.541 -77.8809 C 104.541 -79.2969 103.613 -80.1758 101.758 -80.0293 C 91.6504 -79.1992 81.8359 -68.3105 79.9316 -55.8105 C 81.25 -54.4922 82.4219 -52.832 83.3984 -50.6348 C 99.1211 -49.4629 110.449 -38.2812 111.035 -23.9258 Z M 28.2227 0.683594 L 81.3965 0.683594 C 94.8242 0.683594 105.371 -9.52148 105.371 -22.5586 C 105.371 -35.6445 94.6289 -45.5078 80.2734 -45.5078 C 74.4629 -56.7383 64.502 -63.0859 52.7344 -63.0859 C 37.207 -63.0859 24.0234 -50.7324 22.6562 -34.7168 C 14.1602 -32.3242 8.74023 -25.4883 8.74023 -17.041 C 8.74023 -6.5918 16.6992 0.683594 28.2227 0.683594 Z"/>
  </g>
  <g id="Thin-M" transform="matrix(1 0 0 1 785.109 1126)">
   <path d="M 108.691 -24.4629 C 126.709 -27.6855 133.887 -39.7949 133.887 -45.6055 C 133.887 -46.6797 133.252 -47.4609 132.227 -47.4609 C 130.713 -47.4609 125.928 -45.2148 120.703 -45.2148 C 108.203 -45.2148 100 -53.0762 100 -64.7949 C 100 -70.752 102.637 -75.3418 102.637 -76.9531 C 102.637 -78.2227 101.807 -78.8574 100.049 -78.6621 C 88.5254 -77.1973 80.8594 -65.1855 79.8828 -53.3691 C 80.9082 -52.1973 81.6895 -50.8789 82.4219 -49.1699 C 97.2168 -48.1445 107.764 -38.5254 108.691 -24.4629 Z M 27.2461 -0.439453 L 80.7617 -0.439453 C 93.7012 -0.439453 103.955 -10.2539 103.955 -22.7051 C 103.955 -35.2539 93.457 -44.6777 79.541 -44.6289 C 73.5352 -56.2988 63.8672 -62.5977 52.1484 -62.5977 C 37.0605 -62.5977 24.2676 -50.2441 23.0469 -34.2773 C 14.3066 -32.0312 8.74023 -25.3906 8.74023 -17.1875 C 8.74023 -7.37305 16.3086 -0.439453 27.2461 -0.439453 Z"/>
  </g>
  <g id="Ultralight-M" transform="matrix(1 0 0 1 488.862 1126)">
   <path d="M 107.471 -24.7559 C 126.318 -28.125 132.959 -40.1367 132.959 -45.3125 C 132.959 -46.1914 132.373 -46.7285 131.543 -46.7285 C 130.225 -46.7285 125.098 -44.7754 120.312 -44.7754 C 107.666 -44.7754 99.2188 -52.832 99.2188 -64.7949 C 99.2188 -70.6055 101.66 -75.1465 101.66 -76.4648 C 101.66 -77.6367 100.928 -78.2227 99.1699 -77.9785 C 86.9629 -76.1719 80.3711 -63.623 79.834 -52.0996 C 80.7129 -50.9766 81.2988 -49.9023 81.9336 -48.3887 C 96.2402 -47.4609 106.348 -38.623 107.471 -24.7559 Z M 26.709 -1.02539 L 80.4688 -1.02539 C 93.1641 -1.02539 103.223 -10.5957 103.223 -22.7539 C 103.223 -35.0586 92.8711 -44.2871 79.1504 -44.1895 C 73.0957 -56.0547 63.5742 -62.3535 51.8555 -62.3535 C 36.9629 -62.3535 24.4141 -50 23.1934 -34.082 C 14.3555 -31.8848 8.74023 -25.3418 8.74023 -17.2363 C 8.74023 -7.76367 16.1621 -1.02539 26.709 -1.02539 Z"/>
  </g>
  <g id="Black-S" transform="matrix(1 0 0 1 2871.27 696)">
   <path d="M 99.0234 -31.0059 C 110.449 -34.668 117.432 -44.4824 117.432 -51.4648 C 117.432 -53.2715 116.699 -54.541 115.283 -54.541 C 112.939 -54.541 109.766 -52.2461 104.004 -52.1973 C 95.2637 -52.0996 89.8438 -57.5684 89.8438 -65.7227 C 89.8438 -71.4355 91.8945 -75.4883 91.8945 -77.9785 C 91.8945 -79.3457 90.9668 -80.2734 89.3555 -80.2246 C 82.9102 -80.0293 72.2656 -72.7539 69.5801 -61.377 C 71.3867 -59.6191 72.9492 -57.5195 74.2188 -55.0293 C 85.5957 -54.7363 97.2656 -45.6055 99.0234 -31.0059 Z M 23.9746 -6.10352 L 71.7285 -6.10352 C 83.0078 -6.10352 91.4551 -14.9414 91.4551 -26.709 C 91.4551 -39.1602 82.3242 -48.1934 69.6777 -48.0957 C 65.918 -55.0781 58.6426 -62.207 45.5078 -62.207 C 31.3477 -62.207 19.8242 -51.8555 18.75 -38.0859 C 11.5234 -36.2793 6.83594 -30.127 6.83594 -22.4121 C 6.83594 -12.6953 13.7695 -6.10352 23.9746 -6.10352 Z"/>
  </g>
  <g id="Heavy-S" transform="matrix(1 0 0 1 2575.65 696)">
   <path d="M 96.7285 -29.7852 C 108.105 -33.0566 115.234 -42.8711 115.234 -49.7559 C 115.234 -51.5625 114.502 -52.832 113.086 -52.832 C 110.84 -52.832 107.812 -50.4395 102.1 -50.3906 C 93.2129 -50.3418 87.7441 -55.8105 87.7441 -64.0137 C 87.7441 -69.5801 89.9902 -73.584 89.9902 -75.9766 C 89.9902 -77.3438 89.0625 -78.2227 87.4512 -78.2227 C 81.0059 -78.0273 70.5566 -70.7031 67.9688 -59.5703 C 69.6289 -57.959 71.1426 -55.957 72.3633 -53.5156 C 84.1797 -53.0762 95.3613 -43.6523 96.7285 -29.7852 Z M 23.7793 -6.10352 L 69.9707 -6.10352 C 81.2012 -6.10352 89.6484 -14.7949 89.6484 -26.3672 C 89.6484 -38.3789 80.6641 -47.2168 68.2617 -47.168 C 64.3555 -54.4922 56.8848 -61.084 44.6289 -61.084 C 30.8594 -61.084 19.5312 -50.9277 18.4082 -37.4023 C 11.377 -35.5469 6.83594 -29.541 6.83594 -22.0703 C 6.83594 -12.5488 13.6719 -6.10352 23.7793 -6.10352 Z"/>
  </g>
  <g id="Bold-S" transform="matrix(1 0 0 1 2280.19 696)">
   <path d="M 94.1406 -28.418 C 105.518 -31.25 112.744 -41.0156 112.744 -47.9004 C 112.744 -49.6094 112.012 -50.8789 110.645 -50.8789 C 108.447 -50.8789 105.615 -48.3887 99.9512 -48.3887 C 90.9668 -48.3398 85.3516 -53.8086 85.3516 -62.0605 C 85.3516 -67.5293 87.8418 -71.4355 87.8418 -73.7793 C 87.8418 -75.0977 86.9141 -75.9766 85.3516 -75.9277 C 78.8574 -75.8301 68.6523 -68.4082 66.1133 -57.5195 C 67.6758 -56.0547 69.0918 -54.1992 70.2637 -51.8555 C 82.5684 -51.1719 93.2129 -41.5039 94.1406 -28.418 Z M 23.5352 -6.05469 L 68.0176 -6.05469 C 79.1992 -6.05469 87.6465 -14.6484 87.6465 -25.9766 C 87.6465 -37.5488 78.7598 -46.1426 66.6504 -46.0938 C 62.5488 -53.8086 54.8828 -59.8633 43.7012 -59.8633 C 30.3223 -59.8633 19.1895 -49.8535 18.0664 -36.6699 C 11.2305 -34.7656 6.83594 -28.9062 6.83594 -21.6309 C 6.83594 -12.3535 13.623 -6.05469 23.5352 -6.05469 Z"/>
  </g>
  <g id="Semibold-S" transform="matrix(1 0 0 1 1984.33 696)">
   <path d="M 92.334 -27.4902 C 103.711 -30.0293 111.035 -39.7949 111.035 -46.582 C 111.035 -48.291 110.352 -49.5117 108.984 -49.5117 C 106.836 -49.5117 104.102 -47.0215 98.4375 -47.0215 C 89.4043 -46.9727 83.7402 -52.4902 83.7402 -60.7422 C 83.7402 -66.1133 86.3281 -69.9219 86.3281 -72.2656 C 86.3281 -73.5352 85.4492 -74.4141 83.8867 -74.3652 C 77.3438 -74.2676 67.334 -66.8457 64.8926 -56.1035 C 66.3086 -54.7852 67.6758 -52.9785 68.7988 -50.7324 C 81.4453 -49.9023 91.6992 -39.9902 92.334 -27.4902 Z M 23.3398 -6.05469 L 66.6992 -6.05469 C 77.7832 -6.05469 86.2793 -14.5508 86.2793 -25.6836 C 86.2793 -36.9629 77.4902 -45.3613 65.5762 -45.4102 C 61.3281 -53.3203 53.5156 -58.9844 43.0176 -58.9844 C 29.9316 -58.9844 18.9941 -49.1211 17.8223 -36.1328 C 11.1328 -34.2285 6.83594 -28.4668 6.83594 -21.3379 C 6.83594 -12.2559 13.5254 -6.05469 23.3398 -6.05469 Z"/>
  </g>
  <g id="Medium-S" transform="matrix(1 0 0 1 1688.25 696)">
   <path d="M 90.9668 -26.7578 C 102.344 -29.0527 109.766 -38.8184 109.766 -45.6055 C 109.766 -47.2656 109.033 -48.5352 107.715 -48.5352 C 105.615 -48.5352 102.979 -45.9473 97.3145 -45.9473 C 88.1836 -45.9473 82.5195 -51.416 82.5195 -59.7656 C 82.5195 -65.0391 85.2051 -68.7988 85.2051 -71.0938 C 85.2051 -72.3633 84.3262 -73.2422 82.7637 -73.1934 C 76.2207 -73.0957 66.3086 -65.6738 63.916 -55.0781 C 65.2832 -53.8086 66.6504 -52.0996 67.7246 -49.8535 C 80.6152 -48.9258 90.5762 -38.8672 90.9668 -26.7578 Z M 23.2422 -6.05469 L 65.6738 -6.05469 C 76.7578 -6.05469 85.2539 -14.502 85.2539 -25.4883 C 85.2539 -36.5234 76.4648 -44.7754 64.6973 -44.8242 C 60.4004 -52.9785 52.4902 -58.3496 42.5293 -58.3496 C 29.6387 -58.3496 18.7988 -48.584 17.627 -35.7422 C 11.0352 -33.7891 6.83594 -28.125 6.83594 -21.1426 C 6.83594 -12.1582 13.4766 -6.05469 23.2422 -6.05469 Z"/>
  </g>
  <g id="Regular-S" transform="matrix(1 0 0 1 1392.37 696)">
   <path d="M 89.209 -25.8301 C 100.586 -27.832 108.105 -37.5977 108.105 -44.3359 C 108.105 -45.9961 107.373 -47.2168 106.055 -47.2168 C 104.004 -47.2168 101.465 -44.5801 95.8496 -44.5801 C 86.6211 -44.5801 80.8594 -50.0977 80.8594 -58.4473 C 80.8594 -63.623 83.7402 -67.334 83.7402 -69.5801 C 83.7402 -70.8008 82.9102 -71.6797 81.3477 -71.6797 C 74.8047 -71.582 65.0391 -64.1113 62.6953 -53.6621 C 63.9648 -52.4902 65.2344 -50.8789 66.3086 -48.6816 C 79.4922 -47.6562 89.1113 -37.4023 89.209 -25.8301 Z M 23.0957 -6.05469 L 64.3555 -6.05469 C 75.3418 -6.05469 83.8867 -14.4043 83.8867 -25.1953 C 83.8867 -35.9375 75.1953 -44.043 63.623 -44.1406 C 59.2285 -52.5391 51.123 -57.5195 41.8945 -57.5195 C 29.2969 -57.5195 18.6035 -47.8516 17.3828 -35.2539 C 10.9375 -33.252 6.83594 -27.6855 6.83594 -20.8496 C 6.83594 -12.0605 13.4277 -6.05469 23.0957 -6.05469 Z"/>
  </g>
  <g id="Light-S" transform="matrix(1 0 0 1 1096.3 696)">
   <path d="M 87.6465 -26.2207 C 100.098 -28.418 106.836 -38.0371 106.836 -43.9453 C 106.836 -45.3125 106.201 -46.2891 105.078 -46.2891 C 103.369 -46.2891 100.391 -43.9941 95.3613 -43.9941 C 85.9375 -43.9941 79.8828 -49.7559 79.8828 -58.4473 C 79.8828 -63.4277 82.4707 -67.0898 82.4707 -68.9453 C 82.4707 -70.0684 81.6895 -70.8008 80.1758 -70.752 C 72.7051 -70.2637 64.3555 -62.0117 62.6465 -52.0508 C 63.7207 -50.9766 64.7461 -49.6094 65.625 -47.7051 C 78.2227 -46.7773 87.3047 -37.5488 87.6465 -26.2207 Z M 22.4121 -6.78711 L 63.916 -6.78711 C 74.6094 -6.78711 82.9102 -14.8926 82.9102 -25.293 C 82.9102 -35.6934 74.4629 -43.5059 63.1348 -43.5547 C 58.5938 -52.2461 50.7324 -57.1777 41.4551 -57.1777 C 29.1992 -57.1777 18.75 -47.5098 17.627 -34.9609 C 11.0352 -33.0566 6.83594 -27.6367 6.83594 -20.9473 C 6.83594 -12.5488 13.1836 -6.78711 22.4121 -6.78711 Z"/>
  </g>
  <g id="Thin-S" transform="matrix(1 0 0 1 800.392 696)">
   <path d="M 85.5957 -26.709 C 99.4141 -29.1504 105.225 -38.6719 105.225 -43.457 C 105.225 -44.4336 104.736 -45.0684 103.857 -45.0684 C 102.588 -45.0684 98.9746 -43.2129 94.7266 -43.2129 C 84.9609 -43.2129 78.6133 -49.3164 78.6133 -58.3984 C 78.6133 -63.1348 80.7617 -66.748 80.7617 -68.1152 C 80.7617 -69.1406 80.127 -69.6777 78.7109 -69.5312 C 69.9707 -68.5059 63.5254 -59.2773 62.5977 -49.9023 C 63.4277 -48.9258 64.1113 -47.8516 64.7461 -46.4355 C 76.5137 -45.6055 84.9121 -37.7441 85.5957 -26.709 Z M 21.5332 -7.76367 L 63.3789 -7.76367 C 73.6328 -7.76367 81.6895 -15.5273 81.6895 -25.3906 C 81.6895 -35.3516 73.4375 -42.7734 62.4512 -42.7734 C 57.8125 -51.8066 50.1465 -56.7871 40.9668 -56.7871 C 29.0527 -56.7871 18.9453 -47.1191 17.9688 -34.5703 C 11.1328 -32.8125 6.83594 -27.5391 6.83594 -21.0449 C 6.83594 -13.2324 12.8418 -7.76367 21.5332 -7.76367 Z"/>
  </g>
  <g id="Ultralight-S" transform="matrix(1 0 0 1 504.096 696)">
   <path d="M 84.5215 -26.9531 C 99.0723 -29.541 104.395 -39.0137 104.395 -43.2129 C 104.395 -43.9453 103.955 -44.4336 103.223 -44.4336 C 102.148 -44.4336 98.1934 -42.8223 94.3848 -42.8223 C 84.4727 -42.8223 77.9297 -49.0723 77.9297 -58.3984 C 77.9297 -62.9883 79.8828 -66.5527 79.8828 -67.6758 C 79.8828 -68.6035 79.2969 -69.0918 77.9297 -68.8965 C 68.5547 -67.5781 63.0859 -57.9102 62.5488 -48.7793 C 63.2812 -47.9004 63.8184 -46.9727 64.3066 -45.752 C 75.6348 -45.0195 83.6914 -37.8418 84.5215 -26.9531 Z M 21.0449 -8.30078 L 63.0859 -8.30078 C 73.0957 -8.30078 81.0547 -15.8203 81.0547 -25.4395 C 81.0547 -35.1562 72.9004 -42.4316 62.1094 -42.3828 C 57.373 -51.6113 49.8535 -56.543 40.6738 -56.543 C 28.9551 -56.543 19.043 -46.875 18.1152 -34.375 C 11.2305 -32.666 6.83594 -27.4902 6.83594 -21.1426 C 6.83594 -13.5742 12.6953 -8.30078 21.0449 -8.30078 Z"/>
  </g>
 </g>
</svg>
