<?xml version="1.0" encoding="UTF-8"?>
<!--Generator: Apple Native CoreSVG 123-->
<!DOCTYPE svg
PUBLIC "-//W3C//DTD SVG 1.1//EN"
       "http://www.w3.org/Graphics/SVG/1.1/DTD/svg11.dtd">
<svg version="1.1" xmlns="http://www.w3.org/2000/svg" xmlns:xlink="http://www.w3.org/1999/xlink" width="3300" height="2200">
 <!--glyph: "uni1001DA.medium", point size: 100.000000, font version: "Version 15.0d7e11", template writer version: "5"-->
 <g id="Notes">
  <rect height="2200" id="artboard" style="fill:white;opacity:1" width="3300" x="0" y="0"/>
  <line id="" style="fill:none;stroke:black;opacity:1;stroke-width:0.5;" x1="263" x2="3036" y1="292" y2="292"/>
  <text style="stroke:none;fill:black;font-family:-apple-system,&quot;SF Pro Display&quot;,&quot;SF Pro Text&quot;,Helvetica,sans-serif;font-weight:bold;" transform="matrix(1 0 0 1 263 322)">Weight/Scale Variations</text>
  <text style="stroke:none;fill:black;font-family:-apple-system,&quot;SF Pro Display&quot;,&quot;SF Pro Text&quot;,Helvetica,sans-serif;text-anchor:middle;" transform="matrix(1 0 0 1 559.711 322)">Ultralight</text>
  <text style="stroke:none;fill:black;font-family:-apple-system,&quot;SF Pro Display&quot;,&quot;SF Pro Text&quot;,Helvetica,sans-serif;text-anchor:middle;" transform="matrix(1 0 0 1 856.422 322)">Thin</text>
  <text style="stroke:none;fill:black;font-family:-apple-system,&quot;SF Pro Display&quot;,&quot;SF Pro Text&quot;,Helvetica,sans-serif;text-anchor:middle;" transform="matrix(1 0 0 1 1153.13 322)">Light</text>
  <text style="stroke:none;fill:black;font-family:-apple-system,&quot;SF Pro Display&quot;,&quot;SF Pro Text&quot;,Helvetica,sans-serif;text-anchor:middle;" transform="matrix(1 0 0 1 1449.84 322)">Regular</text>
  <text style="stroke:none;fill:black;font-family:-apple-system,&quot;SF Pro Display&quot;,&quot;SF Pro Text&quot;,Helvetica,sans-serif;text-anchor:middle;" transform="matrix(1 0 0 1 1746.56 322)">Medium</text>
  <text style="stroke:none;fill:black;font-family:-apple-system,&quot;SF Pro Display&quot;,&quot;SF Pro Text&quot;,Helvetica,sans-serif;text-anchor:middle;" transform="matrix(1 0 0 1 2043.27 322)">Semibold</text>
  <text style="stroke:none;fill:black;font-family:-apple-system,&quot;SF Pro Display&quot;,&quot;SF Pro Text&quot;,Helvetica,sans-serif;text-anchor:middle;" transform="matrix(1 0 0 1 2339.98 322)">Bold</text>
  <text style="stroke:none;fill:black;font-family:-apple-system,&quot;SF Pro Display&quot;,&quot;SF Pro Text&quot;,Helvetica,sans-serif;text-anchor:middle;" transform="matrix(1 0 0 1 2636.69 322)">Heavy</text>
  <text style="stroke:none;fill:black;font-family:-apple-system,&quot;SF Pro Display&quot;,&quot;SF Pro Text&quot;,Helvetica,sans-serif;text-anchor:middle;" transform="matrix(1 0 0 1 2933.4 322)">Black</text>
  <line id="" style="fill:none;stroke:black;opacity:1;stroke-width:0.5;" x1="263" x2="3036" y1="1903" y2="1903"/>
  <g id="" transform="matrix(1 0 0 1 263 1933)">
   <path d="M 9.24805 0.830078 C 13.5547 0.830078 17.1387 -2.74414 17.1387 -7.05078 C 17.1387 -11.3574 13.5449 -14.9316 9.23828 -14.9316 C 4.94141 -14.9316 1.36719 -11.3574 1.36719 -7.05078 C 1.36719 -2.74414 4.95117 0.830078 9.24805 0.830078 Z M 9.24805 -0.654297 C 5.70312 -0.654297 2.87109 -3.49609 2.87109 -7.05078 C 2.87109 -10.6055 5.69336 -13.4473 9.23828 -13.4473 C 12.793 -13.4473 15.6348 -10.6055 15.6445 -7.05078 C 15.6543 -3.49609 12.8027 -0.654297 9.24805 -0.654297 Z M 9.22852 -3.42773 C 9.69727 -3.42773 9.9707 -3.74023 9.9707 -4.25781 L 9.9707 -6.31836 L 12.1973 -6.31836 C 12.6953 -6.31836 13.0371 -6.57227 13.0371 -7.04102 C 13.0371 -7.51953 12.7148 -7.7832 12.1973 -7.7832 L 9.9707 -7.7832 L 9.9707 -10.0098 C 9.9707 -10.5273 9.69727 -10.8496 9.22852 -10.8496 C 8.75977 -10.8496 8.50586 -10.5078 8.50586 -10.0098 L 8.50586 -7.7832 L 6.29883 -7.7832 C 5.78125 -7.7832 5.44922 -7.51953 5.44922 -7.04102 C 5.44922 -6.57227 5.80078 -6.31836 6.29883 -6.31836 L 8.50586 -6.31836 L 8.50586 -4.25781 C 8.50586 -3.75977 8.75977 -3.42773 9.22852 -3.42773 Z"/>
  </g>
  <g id="" transform="matrix(1 0 0 1 281.506 1933)">
   <path d="M 11.709 2.91016 C 17.1582 2.91016 21.6699 -1.60156 21.6699 -7.05078 C 21.6699 -12.4902 17.1484 -17.0117 11.6992 -17.0117 C 6.25977 -17.0117 1.74805 -12.4902 1.74805 -7.05078 C 1.74805 -1.60156 6.26953 2.91016 11.709 2.91016 Z M 11.709 1.25 C 7.09961 1.25 3.41797 -2.44141 3.41797 -7.05078 C 3.41797 -11.6504 7.08984 -15.3516 11.6992 -15.3516 C 16.3086 -15.3516 20 -11.6504 20.0098 -7.05078 C 20.0195 -2.44141 16.3184 1.25 11.709 1.25 Z M 11.6895 -2.41211 C 12.207 -2.41211 12.5195 -2.77344 12.5195 -3.33984 L 12.5195 -6.23047 L 15.5762 -6.23047 C 16.123 -6.23047 16.5039 -6.51367 16.5039 -7.03125 C 16.5039 -7.55859 16.1426 -7.86133 15.5762 -7.86133 L 12.5195 -7.86133 L 12.5195 -10.9277 C 12.5195 -11.5039 12.207 -11.8555 11.6895 -11.8555 C 11.1719 -11.8555 10.8789 -11.4844 10.8789 -10.9277 L 10.8789 -7.86133 L 7.83203 -7.86133 C 7.26562 -7.86133 6.89453 -7.55859 6.89453 -7.03125 C 6.89453 -6.51367 7.28516 -6.23047 7.83203 -6.23047 L 10.8789 -6.23047 L 10.8789 -3.33984 C 10.8789 -2.79297 11.1719 -2.41211 11.6895 -2.41211 Z"/>
  </g>
  <g id="" transform="matrix(1 0 0 1 304.924 1933)">
   <path d="M 14.9707 5.67383 C 21.9336 5.67383 27.6953 -0.078125 27.6953 -7.04102 C 27.6953 -14.0039 21.9238 -19.7559 14.9609 -19.7559 C 8.00781 -19.7559 2.25586 -14.0039 2.25586 -7.04102 C 2.25586 -0.078125 8.01758 5.67383 14.9707 5.67383 Z M 14.9707 3.85742 C 8.93555 3.85742 4.08203 -1.00586 4.08203 -7.04102 C 4.08203 -13.0762 8.92578 -17.9395 14.9609 -17.9395 C 21.0059 -17.9395 25.8594 -13.0762 25.8691 -7.04102 C 25.8789 -1.00586 21.0156 3.85742 14.9707 3.85742 Z M 14.9512 -1.06445 C 15.5176 -1.06445 15.8691 -1.45508 15.8691 -2.06055 L 15.8691 -6.13281 L 20.1074 -6.13281 C 20.6934 -6.13281 21.1133 -6.46484 21.1133 -7.02148 C 21.1133 -7.59766 20.7227 -7.93945 20.1074 -7.93945 L 15.8691 -7.93945 L 15.8691 -12.1875 C 15.8691 -12.8027 15.5176 -13.1934 14.9512 -13.1934 C 14.3848 -13.1934 14.0625 -12.7832 14.0625 -12.1875 L 14.0625 -7.93945 L 9.83398 -7.93945 C 9.21875 -7.93945 8.80859 -7.59766 8.80859 -7.02148 C 8.80859 -6.46484 9.23828 -6.13281 9.83398 -6.13281 L 14.0625 -6.13281 L 14.0625 -2.06055 C 14.0625 -1.47461 14.3848 -1.06445 14.9512 -1.06445 Z"/>
  </g>
  <text style="stroke:none;fill:black;font-family:-apple-system,&quot;SF Pro Display&quot;,&quot;SF Pro Text&quot;,Helvetica,sans-serif;font-weight:bold;" transform="matrix(1 0 0 1 263 1953)">Design Variations</text>
  <text style="stroke:none;fill:black;font-family:-apple-system,&quot;SF Pro Display&quot;,&quot;SF Pro Text&quot;,Helvetica,sans-serif;" transform="matrix(1 0 0 1 263 1971)">Symbols are supported in up to nine weights and three scales.</text>
  <text style="stroke:none;fill:black;font-family:-apple-system,&quot;SF Pro Display&quot;,&quot;SF Pro Text&quot;,Helvetica,sans-serif;" transform="matrix(1 0 0 1 263 1989)">For optimal layout with text and other symbols, vertically align</text>
  <text style="stroke:none;fill:black;font-family:-apple-system,&quot;SF Pro Display&quot;,&quot;SF Pro Text&quot;,Helvetica,sans-serif;" transform="matrix(1 0 0 1 263 2007)">symbols with the adjacent text.</text>
  <rect height="14" id="" style="fill:#00AEEF;stroke:none;opacity:0.4;" width="3" x="776" y="1919"/>
  <g id="" transform="matrix(1 0 0 1 779 1933)">
   <path d="M 10.5273 0 L 12.373 0 L 7.17773 -14.0918 L 5.43945 -14.0918 L 0.244141 0 L 2.08984 0 L 3.50586 -4.0332 L 9.11133 -4.0332 Z M 6.2793 -11.9531 L 6.33789 -11.9531 L 8.59375 -5.52734 L 4.02344 -5.52734 Z"/>
  </g>
  <rect height="14" id="" style="fill:#00AEEF;stroke:none;opacity:0.4;" width="3" x="791.617" y="1919"/>
  <text style="stroke:none;fill:black;font-family:-apple-system,&quot;SF Pro Display&quot;,&quot;SF Pro Text&quot;,Helvetica,sans-serif;font-weight:bold;" transform="matrix(1 0 0 1 776 1953)">Margins</text>
  <text style="stroke:none;fill:black;font-family:-apple-system,&quot;SF Pro Display&quot;,&quot;SF Pro Text&quot;,Helvetica,sans-serif;" transform="matrix(1 0 0 1 776 1971)">Leading and trailing margins on the left and right side of each symbol</text>
  <text style="stroke:none;fill:black;font-family:-apple-system,&quot;SF Pro Display&quot;,&quot;SF Pro Text&quot;,Helvetica,sans-serif;" transform="matrix(1 0 0 1 776 1989)">can be adjusted by modifying the width of the blue rectangles.</text>
  <text style="stroke:none;fill:black;font-family:-apple-system,&quot;SF Pro Display&quot;,&quot;SF Pro Text&quot;,Helvetica,sans-serif;" transform="matrix(1 0 0 1 776 2007)">Modifications are automatically applied proportionally to all</text>
  <text style="stroke:none;fill:black;font-family:-apple-system,&quot;SF Pro Display&quot;,&quot;SF Pro Text&quot;,Helvetica,sans-serif;" transform="matrix(1 0 0 1 776 2025)">scales and weights.</text>
  <g id="" transform="matrix(1 0 0 1 1289 1933)">
   <path d="M 2.83203 3.11523 L 4.375 4.6582 C 5.22461 5.48828 6.19141 5.41992 7.06055 4.46289 L 17.2754 -6.66016 C 17.7051 -6.36719 18.0957 -6.37695 18.5645 -6.47461 L 19.6094 -6.68945 L 20.3027 -5.99609 L 20.2539 -5.47852 C 20.1855 -4.95117 20.3516 -4.53125 20.8496 -4.0332 L 21.6602 -3.22266 C 22.168 -2.71484 22.8223 -2.68555 23.3008 -3.16406 L 26.5527 -6.41602 C 27.0312 -6.89453 27.0117 -7.54883 26.5039 -8.05664 L 25.6836 -8.87695 C 25.1855 -9.375 24.7754 -9.55078 24.2383 -9.47266 L 23.7109 -9.41406 L 23.0566 -10.0781 L 23.3398 -11.2207 C 23.4863 -11.7871 23.3398 -12.2559 22.7148 -12.8613 L 20.3027 -15.2539 C 16.7578 -18.7793 12.2266 -18.6719 9.11133 -15.5371 C 8.69141 -15.1074 8.64258 -14.5215 8.91602 -14.0918 C 9.15039 -13.7207 9.62891 -13.4961 10.2734 -13.6621 C 11.7871 -14.043 13.3008 -13.9258 14.7852 -12.9199 L 14.1602 -11.3379 C 13.9258 -10.752 13.9453 -10.2734 14.1797 -9.83398 L 3.01758 0.439453 C 2.08008 1.30859 1.97266 2.25586 2.83203 3.11523 Z M 10.6738 -15.1465 C 13.3398 -17.1387 16.6504 -16.8262 19.0527 -14.4141 L 21.6797 -11.8066 C 21.9141 -11.5723 21.9434 -11.3867 21.8848 -11.0938 L 21.5039 -9.53125 L 23.0762 -7.95898 L 24.043 -8.04688 C 24.3262 -8.07617 24.4141 -8.05664 24.6387 -7.83203 L 25.2637 -7.20703 L 22.5098 -4.46289 L 21.8848 -5.07812 C 21.6602 -5.30273 21.6406 -5.40039 21.6699 -5.68359 L 21.7578 -6.64062 L 20.1953 -8.20312 L 18.5742 -7.89062 C 18.291 -7.83203 18.1445 -7.83203 17.9102 -8.07617 L 15.7324 -10.2539 C 15.5078 -10.4883 15.4785 -10.625 15.6055 -10.9473 L 16.5527 -13.2227 C 14.9512 -14.7559 12.8418 -15.6055 10.8008 -14.9512 C 10.7129 -14.9219 10.6445 -14.9414 10.6152 -14.9805 C 10.5859 -15.0293 10.5859 -15.0781 10.6738 -15.1465 Z M 4.10156 2.41211 C 3.61328 1.91406 3.78906 1.61133 4.12109 1.30859 L 15.0781 -8.80859 L 16.3086 -7.57812 L 6.15234 3.34961 C 5.84961 3.68164 5.46875 3.7793 5.06836 3.37891 Z"/>
  </g>
  <text style="stroke:none;fill:black;font-family:-apple-system,&quot;SF Pro Display&quot;,&quot;SF Pro Text&quot;,Helvetica,sans-serif;font-weight:bold;" transform="matrix(1 0 0 1 1289 1953)">Exporting</text>
  <text style="stroke:none;fill:black;font-family:-apple-system,&quot;SF Pro Display&quot;,&quot;SF Pro Text&quot;,Helvetica,sans-serif;" transform="matrix(1 0 0 1 1289 1971)">Symbols should be outlined when exporting to ensure the</text>
  <text style="stroke:none;fill:black;font-family:-apple-system,&quot;SF Pro Display&quot;,&quot;SF Pro Text&quot;,Helvetica,sans-serif;" transform="matrix(1 0 0 1 1289 1989)">design is preserved when submitting to Xcode.</text>
  <text id="template-version" style="stroke:none;fill:black;font-family:-apple-system,&quot;SF Pro Display&quot;,&quot;SF Pro Text&quot;,Helvetica,sans-serif;text-anchor:end;" transform="matrix(1 0 0 1 3036 1933)">Template v.1.0</text>
  <text style="stroke:none;fill:black;font-family:-apple-system,&quot;SF Pro Display&quot;,&quot;SF Pro Text&quot;,Helvetica,sans-serif;text-anchor:end;" transform="matrix(1 0 0 1 3036 1951)">Generated from cloud.moon</text>
  <text style="stroke:none;fill:black;font-family:-apple-system,&quot;SF Pro Display&quot;,&quot;SF Pro Text&quot;,Helvetica,sans-serif;text-anchor:end;" transform="matrix(1 0 0 1 3036 1969)">Typeset at 100 points</text>
  <text style="stroke:none;fill:black;font-family:-apple-system,&quot;SF Pro Display&quot;,&quot;SF Pro Text&quot;,Helvetica,sans-serif;" transform="matrix(1 0 0 1 263 726)">Small</text>
  <text style="stroke:none;fill:black;font-family:-apple-system,&quot;SF Pro Display&quot;,&quot;SF Pro Text&quot;,Helvetica,sans-serif;" transform="matrix(1 0 0 1 263 1156)">Medium</text>
  <text style="stroke:none;fill:black;font-family:-apple-system,&quot;SF Pro Display&quot;,&quot;SF Pro Text&quot;,Helvetica,sans-serif;" transform="matrix(1 0 0 1 263 1586)">Large</text>
 </g>
 <g id="Guides">
  <g id="H-reference" style="fill:#27AAE1;stroke:none;" transform="matrix(1 0 0 1 339 696)">
   <path d="M 54.9316 0 L 57.666 0 L 30.5664 -70.459 L 28.0762 -70.459 L 0.976562 0 L 3.66211 0 L 12.9395 -24.4629 L 45.7031 -24.4629 Z M 29.1992 -67.0898 L 29.4434 -67.0898 L 44.8242 -26.709 L 13.8184 -26.709 Z"/>
  </g>
  <line id="Baseline-S" style="fill:none;stroke:#27AAE1;opacity:1;stroke-width:0.577;" x1="263" x2="3036" y1="696" y2="696"/>
  <line id="Capline-S" style="fill:none;stroke:#27AAE1;opacity:1;stroke-width:0.577;" x1="263" x2="3036" y1="625.541" y2="625.541"/>
  <g id="H-reference" style="fill:#27AAE1;stroke:none;" transform="matrix(1 0 0 1 339 1126)">
   <path d="M 54.9316 0 L 57.666 0 L 30.5664 -70.459 L 28.0762 -70.459 L 0.976562 0 L 3.66211 0 L 12.9395 -24.4629 L 45.7031 -24.4629 Z M 29.1992 -67.0898 L 29.4434 -67.0898 L 44.8242 -26.709 L 13.8184 -26.709 Z"/>
  </g>
  <line id="Baseline-M" style="fill:none;stroke:#27AAE1;opacity:1;stroke-width:0.577;" x1="263" x2="3036" y1="1126" y2="1126"/>
  <line id="Capline-M" style="fill:none;stroke:#27AAE1;opacity:1;stroke-width:0.577;" x1="263" x2="3036" y1="1055.54" y2="1055.54"/>
  <g id="H-reference" style="fill:#27AAE1;stroke:none;" transform="matrix(1 0 0 1 339 1556)">
   <path d="M 54.9316 0 L 57.666 0 L 30.5664 -70.459 L 28.0762 -70.459 L 0.976562 0 L 3.66211 0 L 12.9395 -24.4629 L 45.7031 -24.4629 Z M 29.1992 -67.0898 L 29.4434 -67.0898 L 44.8242 -26.709 L 13.8184 -26.709 Z"/>
  </g>
  <line id="Baseline-L" style="fill:none;stroke:#27AAE1;opacity:1;stroke-width:0.577;" x1="263" x2="3036" y1="1556" y2="1556"/>
  <line id="Capline-L" style="fill:none;stroke:#27AAE1;opacity:1;stroke-width:0.577;" x1="263" x2="3036" y1="1485.54" y2="1485.54"/>
  <rect height="119.336" id="left-margin" style="fill:#00AEEF;stroke:none;opacity:0.4;" width="8.74023" x="1377.16" y="1030.79"/>
  <rect height="119.336" id="right-margin" style="fill:#00AEEF;stroke:none;opacity:0.4;" width="8.72336" x="1513.8" y="1030.79"/>
 </g>
 <g id="Symbols">
  <g id="Black-L" transform="matrix(1 0 0 1 2832.37 1556)">
   <path d="M 42.2363 14.4531 L 111.572 14.4531 C 131.885 14.4531 147.705 -1.12305 147.705 -21.0938 L 147.705 -21.2402 C 167.676 -20.9961 183.691 -32.0801 189.893 -49.2676 C 192.529 -56.543 189.258 -62.7441 182.227 -62.7441 C 177.1 -62.7441 173.34 -60.6934 166.504 -60.6934 C 152.49 -60.6934 145.703 -68.1641 145.703 -82.5195 C 145.703 -90.1855 148.047 -95.2637 148.047 -98.877 C 148.047 -105.762 141.797 -109.131 135.01 -106.787 C 118.457 -101.123 106.396 -84.6191 106.396 -66.6504 C 106.396 -66.2598 106.396 -65.8691 106.396 -65.4297 C 98.4863 -74.2188 87.3535 -78.8574 74.0234 -78.8574 C 51.8555 -78.8574 33.5449 -63.1348 29.9805 -41.2109 C 18.5059 -37.4512 11.2305 -27.2949 11.2305 -14.7949 C 11.2305 2.19727 24.2676 14.4531 42.2363 14.4531 Z M 120.654 -66.6992 C 120.654 -76.6602 125.586 -85.8887 133.398 -91.2598 L 134.229 -90.7715 C 133.252 -87.6465 132.324 -83.3984 132.324 -78.418 C 132.324 -60.4004 144.727 -47.3145 163.232 -47.3145 C 168.213 -47.3145 171.484 -48.2422 174.072 -49.1211 L 174.609 -48.5352 C 169.824 -40.5762 159.277 -35.0586 144.629 -35.9863 C 140.479 -45.3125 132.52 -52.3438 122.559 -55.3223 C 121.289 -58.8379 120.654 -62.6953 120.654 -66.6992 Z M 42.6758 -2.88086 C 33.3008 -2.88086 28.6133 -7.71484 28.6133 -14.5508 C 28.6133 -20.6055 32.373 -25.2441 41.0156 -27.4414 C 44.6777 -28.418 45.7031 -30.0781 46.2402 -33.8379 C 48.9258 -52.002 60.0098 -61.6211 74.0234 -61.6211 C 84.4727 -61.6211 93.3105 -55.6152 99.3164 -44.3359 C 100.977 -41.2598 102.686 -40.1855 106.494 -40.1855 C 122.949 -40.1855 130.371 -31.6406 130.371 -20.8496 C 130.371 -10.6934 122.754 -2.88086 111.133 -2.88086 Z"/>
  </g>
  <g id="Heavy-L" transform="matrix(1 0 0 1 2537.57 1556)">
   <path d="M 41.1133 13.8672 L 110.205 13.8672 C 129.98 13.8672 145.312 -1.2207 145.312 -20.6055 C 145.312 -20.8008 145.312 -20.9473 145.312 -21.1426 C 165.576 -21.1426 180.566 -32.5684 186.182 -48.3398 C 188.574 -54.9316 185.547 -60.5469 179.199 -60.5469 C 174.463 -60.5469 170.752 -58.5449 163.867 -58.5449 C 149.365 -58.5449 142.09 -66.4062 142.09 -80.8594 C 142.09 -88.5254 144.434 -93.2617 144.434 -96.7773 C 144.434 -103.125 138.77 -106.201 132.422 -104.053 C 116.846 -98.877 104.736 -83.1055 104.736 -65.0879 C 104.736 -64.5996 104.736 -64.1113 104.736 -63.623 C 96.9238 -72.4609 85.8887 -77.2461 72.8027 -77.2461 C 51.0254 -77.2461 33.0078 -61.4258 29.7852 -39.8438 C 18.5547 -36.2305 11.2305 -26.3672 11.2305 -14.0625 C 11.2305 2.09961 23.6328 13.8672 41.1133 13.8672 Z M 117.48 -65.1855 C 117.48 -75.9766 123.34 -85.3027 131.25 -90.2832 L 132.031 -89.7949 C 131.006 -86.6699 130.029 -82.373 130.029 -77.3926 C 130.029 -59.4238 142.529 -46.4844 160.986 -46.4844 C 165.82 -46.4844 169.434 -47.4121 172.119 -48.3398 L 172.607 -47.8027 C 168.213 -39.9902 157.91 -33.5938 142.627 -34.2773 C 138.525 -44.043 130.029 -51.2695 119.336 -54.0039 C 118.066 -57.4707 117.48 -61.2793 117.48 -65.1855 Z M 41.3574 -1.41602 C 31.543 -1.41602 26.5625 -6.68945 26.5625 -13.8672 C 26.5625 -20.2148 30.4688 -25.1953 39.3066 -27.4902 C 42.7734 -28.3691 43.75 -29.9316 44.2383 -33.4473 C 46.6309 -51.6113 58.252 -62.0605 72.8027 -62.0605 C 83.8867 -62.0605 92.9199 -55.7129 98.9258 -44.3359 C 100.488 -41.4551 102.1 -40.3809 105.713 -40.3809 C 122.07 -40.3809 130.078 -31.4941 130.078 -20.3613 C 130.078 -9.66797 121.875 -1.41602 109.912 -1.41602 Z"/>
  </g>
  <g id="Bold-L" transform="matrix(1 0 0 1 2242.98 1556)">
   <path d="M 39.7949 13.1836 L 108.691 13.1836 C 127.832 13.1836 142.676 -1.36719 142.676 -20.0684 C 142.676 -20.3613 142.676 -20.7031 142.676 -21.0449 C 163.184 -21.2891 177.051 -33.1055 182.031 -47.2656 C 184.18 -53.0762 181.396 -58.0566 175.781 -58.0566 C 171.484 -58.0566 167.822 -56.1035 160.938 -56.1035 C 145.85 -56.1035 138.037 -64.4531 138.037 -79.0039 C 138.037 -86.6699 140.43 -91.0156 140.43 -94.4824 C 140.43 -100.195 135.4 -102.979 129.541 -101.025 C 115.137 -96.3379 102.832 -81.3965 102.832 -63.3301 C 102.832 -62.7441 102.881 -62.207 102.881 -61.6211 C 95.166 -70.459 84.3262 -75.4883 71.4844 -75.4883 C 50.0977 -75.4883 32.373 -59.5703 29.541 -38.2812 C 18.6035 -34.8145 11.2793 -25.293 11.2793 -13.2812 C 11.2793 2.05078 22.9492 13.1836 39.7949 13.1836 Z M 113.916 -63.4766 C 113.916 -75.2441 120.801 -84.5703 128.857 -89.1602 L 129.541 -88.6719 C 128.516 -85.5957 127.49 -81.25 127.49 -76.1719 C 127.49 -58.3008 140.137 -45.6055 158.496 -45.6055 C 163.232 -45.6055 167.09 -46.4844 169.971 -47.4609 L 170.41 -46.9727 C 166.455 -39.3555 156.348 -31.9336 140.381 -32.3242 C 136.328 -42.5781 127.246 -50.0977 115.723 -52.4414 C 114.551 -55.9082 113.916 -59.6191 113.916 -63.4766 Z M 39.9414 0.244141 C 29.5898 0.244141 24.2188 -5.46875 24.2188 -13.0859 C 24.2188 -19.7266 28.3691 -25.1465 37.3535 -27.5391 C 40.5762 -28.3691 41.5527 -29.7852 41.9434 -33.0566 C 43.9941 -51.123 56.3477 -62.5488 71.4844 -62.5488 C 83.2031 -62.5488 92.4805 -55.8594 98.4863 -44.3359 C 99.9023 -41.6016 101.465 -40.625 104.785 -40.625 C 121.143 -40.625 129.736 -31.2988 129.736 -19.7754 C 129.736 -8.59375 120.898 0.244141 108.545 0.244141 Z"/>
  </g>
  <g id="Semibold-L" transform="matrix(1 0 0 1 1947.71 1556)">
   <path d="M 38.916 12.7441 L 107.666 12.7441 C 126.318 12.7441 140.869 -1.41602 140.869 -19.6777 C 140.869 -20.1172 140.869 -20.5078 140.82 -20.9473 C 161.523 -21.3867 174.658 -33.4473 179.199 -46.582 C 181.152 -51.8066 178.516 -56.3477 173.438 -56.3477 C 169.385 -56.3477 165.869 -54.4434 158.936 -54.4434 C 143.457 -54.4434 135.254 -63.1348 135.254 -77.6855 C 135.254 -85.3516 137.646 -89.4531 137.646 -92.9199 C 137.646 -98.1934 133.057 -100.732 127.588 -98.9258 C 113.916 -94.5801 101.562 -80.2246 101.562 -62.1094 C 101.562 -61.4746 101.562 -60.8398 101.611 -60.2051 C 93.9453 -69.1406 83.2031 -74.2188 70.5566 -74.2188 C 49.4141 -74.2188 31.9336 -58.252 29.3945 -37.1582 C 18.6035 -33.8379 11.2793 -24.5605 11.2793 -12.7441 C 11.2793 1.95312 22.4609 12.7441 38.916 12.7441 Z M 111.475 -62.3047 C 111.475 -74.7559 119.092 -84.082 127.197 -88.3789 L 127.832 -87.9395 C 126.758 -84.8633 125.732 -80.5176 125.732 -75.3906 C 125.732 -57.5195 138.428 -44.9707 156.738 -44.9707 C 161.377 -44.9707 165.479 -45.8496 168.457 -46.875 L 168.896 -46.4355 C 165.186 -38.8672 155.273 -30.8105 138.818 -31.0059 C 134.863 -41.5527 125.342 -49.2676 113.281 -51.3184 C 112.109 -54.7363 111.475 -58.4473 111.475 -62.3047 Z M 38.916 1.41602 C 28.2715 1.41602 22.6074 -4.6875 22.6074 -12.5488 C 22.6074 -19.4336 26.8555 -25.0977 36.0352 -27.5391 C 39.0625 -28.3691 40.0391 -29.6875 40.3809 -32.7637 C 42.1875 -50.7812 55.0293 -62.8906 70.5566 -62.8906 C 82.7148 -62.8906 92.2363 -56.0059 98.1445 -44.3848 C 99.5117 -41.748 101.025 -40.8203 104.199 -40.8203 C 120.459 -40.8203 129.541 -31.2012 129.541 -19.3848 C 129.541 -7.8125 120.215 1.41602 107.617 1.41602 Z"/>
  </g>
  <g id="Medium-L" transform="matrix(1 0 0 1 1652.12 1556)">
   <path d="M 38.2812 12.4023 L 106.836 12.4023 C 125.195 12.4023 139.502 -1.51367 139.502 -19.3848 C 139.502 -19.873 139.453 -20.4102 139.453 -20.8984 C 160.254 -21.4844 172.852 -33.7402 177.002 -45.9961 C 178.857 -50.8789 176.318 -55.0781 171.68 -55.0781 C 167.822 -55.0781 164.355 -53.1738 157.373 -53.1738 C 141.65 -53.1738 133.154 -62.1094 133.154 -76.709 C 133.154 -84.375 135.547 -88.2812 135.547 -91.6992 C 135.547 -96.6309 131.299 -99.0234 126.074 -97.3145 C 112.988 -93.2617 100.586 -79.3457 100.586 -61.2305 C 100.586 -60.5469 100.586 -59.8633 100.635 -59.1797 C 93.0176 -68.0664 82.373 -73.291 69.8242 -73.291 C 48.9258 -73.291 31.5918 -57.2266 29.2969 -36.377 C 18.6523 -33.1055 11.2793 -24.0234 11.2793 -12.3535 C 11.2793 1.9043 22.0703 12.4023 38.2812 12.4023 Z M 109.619 -61.4258 C 109.619 -74.3652 117.773 -83.7402 125.977 -87.793 L 126.562 -87.3535 C 125.439 -84.3262 124.365 -79.9316 124.365 -74.7559 C 124.365 -56.9336 137.158 -44.5312 155.42 -44.5312 C 160.01 -44.5312 164.258 -45.3613 167.334 -46.3867 L 167.773 -45.9961 C 164.258 -38.5254 154.443 -29.9316 137.646 -29.9805 C 133.74 -40.8203 123.926 -48.584 111.426 -50.4395 C 110.254 -53.8574 109.619 -57.5684 109.619 -61.4258 Z M 38.1836 2.24609 C 27.2461 2.24609 21.4355 -4.05273 21.4355 -12.1582 C 21.4355 -19.1895 25.7812 -25.0488 35.0098 -27.5879 C 37.9395 -28.3203 38.916 -29.6387 39.209 -32.5684 C 40.8203 -50.5371 54.0039 -63.1836 69.8242 -63.1836 C 82.373 -63.1836 91.9922 -56.0547 97.9492 -44.3848 C 99.2188 -41.8457 100.684 -40.9668 103.711 -40.9668 C 119.971 -40.9668 129.346 -31.1035 129.346 -19.0918 C 129.346 -7.22656 119.727 2.24609 106.885 2.24609 Z"/>
  </g>
  <g id="Regular-L" transform="matrix(1 0 0 1 1356.85 1556)">
   <path d="M 37.4023 11.9629 L 105.811 11.9629 C 123.73 11.9629 137.695 -1.61133 137.695 -18.9941 C 137.695 -19.5801 137.646 -20.2148 137.598 -20.8496 C 158.643 -21.582 170.459 -34.1309 174.219 -45.3125 C 175.83 -49.6094 173.486 -53.3691 169.336 -53.3691 C 165.82 -53.3691 162.354 -51.5625 155.371 -51.5625 C 139.258 -51.5625 130.371 -60.791 130.371 -75.4395 C 130.371 -83.1055 132.812 -86.7188 132.812 -90.1367 C 132.812 -94.6289 128.955 -96.8262 124.072 -95.2637 C 111.768 -91.5527 99.3164 -78.1738 99.3164 -60.0098 C 99.3164 -59.2773 99.3164 -58.4961 99.3652 -57.7637 C 91.8457 -66.748 81.2988 -72.0703 68.8965 -72.0703 C 48.291 -72.0703 31.1523 -55.957 29.1504 -35.3027 C 18.6523 -32.1289 11.2793 -23.291 11.2793 -11.8164 C 11.2793 1.85547 21.582 11.9629 37.4023 11.9629 Z M 107.227 -60.2539 C 107.227 -73.8281 116.064 -83.252 124.316 -87.0605 L 124.902 -86.6211 C 123.73 -83.5938 122.656 -79.1504 122.656 -73.9746 C 122.656 -56.1523 135.498 -43.8965 153.711 -43.8965 C 158.203 -43.8965 162.695 -44.7266 165.869 -45.8008 L 166.26 -45.4102 C 163.037 -38.0859 153.369 -28.8086 136.084 -28.6621 C 132.324 -39.7949 122.07 -47.7539 109.033 -49.2676 C 107.812 -52.6855 107.227 -56.3965 107.227 -60.2539 Z M 37.207 3.41797 C 25.9277 3.41797 19.8242 -3.22266 19.8242 -11.6211 C 19.8242 -18.8965 24.3164 -25 33.6914 -27.5879 C 36.4258 -28.3203 37.4023 -29.541 37.6465 -32.2754 C 39.0625 -50.1953 52.7344 -63.5254 68.8965 -63.5254 C 81.9336 -63.5254 91.6992 -56.1523 97.6074 -44.3848 C 98.8281 -41.9434 100.244 -41.1133 103.125 -41.1133 C 119.287 -41.1133 129.102 -31.0059 129.102 -18.7012 C 129.102 -6.49414 119.043 3.41797 105.957 3.41797 Z"/>
  </g>
  <g id="Light-L" transform="matrix(1 0 0 1 1061.19 1556)">
   <path d="M 36.5723 10.8887 L 105.322 10.8887 C 122.852 10.8887 136.523 -2.34375 136.523 -19.2383 C 136.523 -20.0195 136.475 -20.8008 136.426 -21.5332 C 158.789 -22.2168 169.873 -36.7188 172.266 -46.5332 C 173.291 -49.8047 171.436 -52.5391 168.311 -52.5391 C 165.137 -52.5391 161.182 -50.4395 153.857 -50.4395 C 137.646 -50.4395 128.271 -60.1074 128.271 -74.8047 C 128.271 -83.2031 130.957 -86.4258 130.957 -89.6484 C 130.957 -93.2617 127.979 -94.9219 124.023 -93.7988 C 113.086 -91.0645 99.1211 -78.9062 99.1211 -59.7168 C 99.1211 -58.7402 99.1699 -57.7148 99.2188 -56.7383 C 91.7969 -66.1133 81.25 -71.8262 68.4082 -71.8262 C 48.1445 -71.8262 31.3965 -55.6641 29.4434 -35.0586 C 18.9941 -32.1289 11.2793 -23.584 11.2793 -12.0605 C 11.2793 0.878906 21.0449 10.8887 36.5723 10.8887 Z M 105.176 -59.9121 C 105.176 -75.4883 116.211 -84.7656 124.463 -87.5488 L 124.854 -87.207 C 123.535 -84.1797 122.266 -79.541 122.266 -73.877 C 122.266 -56.4941 134.668 -44.4824 152.783 -44.4824 C 157.373 -44.4824 162.256 -45.3613 165.82 -46.6309 L 166.162 -46.3379 C 163.867 -39.1602 154.492 -27.7832 135.303 -27.6367 C 131.787 -39.3555 120.898 -47.7051 107.031 -48.8281 C 105.811 -52.2949 105.176 -56.0547 105.176 -59.9121 Z M 36.4258 4.39453 C 24.3652 4.39453 17.7246 -2.88086 17.7246 -11.9629 C 17.7246 -20.0684 22.998 -26.4648 32.5684 -29.1992 C 34.9121 -29.834 35.6934 -30.8105 35.8887 -33.0078 C 37.207 -51.2207 51.6113 -65.332 68.4082 -65.332 C 82.5195 -65.332 92.7246 -57.1777 98.6328 -45.3613 C 99.6582 -43.3105 100.879 -42.627 103.271 -42.627 C 119.336 -42.627 130.029 -32.0801 130.029 -18.9941 C 130.029 -6.10352 119.287 4.39453 105.42 4.39453 Z"/>
  </g>
  <g id="Thin-L" transform="matrix(1 0 0 1 765.895 1556)">
   <path d="M 35.4492 9.42383 L 104.639 9.42383 C 121.68 9.42383 134.961 -3.36914 134.961 -19.5801 C 134.961 -20.5566 134.912 -21.5332 134.814 -22.5098 C 159.131 -22.9004 169.189 -40.2344 169.727 -48.1934 C 169.922 -50.0977 168.701 -51.416 166.895 -51.416 C 164.307 -51.416 159.668 -48.9258 151.807 -48.9258 C 135.498 -48.9258 125.488 -59.1797 125.488 -73.9258 C 125.488 -83.3496 128.516 -86.0352 128.516 -89.0137 C 128.516 -91.4062 126.709 -92.3828 123.975 -91.8945 C 114.844 -90.4297 98.8281 -79.834 98.8281 -59.3262 C 98.8281 -57.959 98.9258 -56.5918 99.0723 -55.2246 C 91.748 -65.1855 81.25 -71.4844 67.7246 -71.4844 C 47.998 -71.4844 31.6895 -55.3223 29.8828 -34.7656 C 19.4824 -32.0801 11.2793 -23.9746 11.2793 -12.4023 C 11.2793 -0.439453 20.3613 9.42383 35.4492 9.42383 Z M 102.539 -59.5215 C 102.539 -77.7344 116.455 -86.7676 124.609 -88.2324 L 124.805 -87.9883 C 123.291 -85.0098 121.826 -80.0293 121.826 -73.7305 C 121.826 -56.9336 133.545 -45.2637 151.611 -45.2637 C 156.25 -45.2637 161.621 -46.2402 165.771 -47.7051 L 166.016 -47.5586 C 165.039 -40.625 156.055 -26.2695 134.18 -26.1719 C 131.104 -38.7695 119.336 -47.7051 104.346 -48.1445 C 103.125 -51.7578 102.539 -55.5664 102.539 -59.5215 Z M 35.4004 5.71289 C 22.3145 5.71289 14.9902 -2.44141 14.9902 -12.4023 C 14.9902 -21.582 21.2891 -28.418 31.1035 -31.3477 C 32.8613 -31.8359 33.3984 -32.4707 33.4961 -33.9844 C 34.7656 -52.5879 50.1465 -67.7734 67.7246 -67.7734 C 83.252 -67.7734 94.043 -58.4961 100 -46.6797 C 100.781 -45.0684 101.66 -44.5801 103.516 -44.5801 C 119.434 -44.5801 131.25 -33.4473 131.25 -19.3848 C 131.25 -5.56641 119.58 5.71289 104.688 5.71289 Z"/>
  </g>
  <g id="Ultralight-L" transform="matrix(1 0 0 1 469.916 1556)">
   <path d="M 34.8633 8.69141 L 104.297 8.69141 C 121.045 8.69141 134.18 -3.90625 134.18 -19.7754 C 134.18 -20.8496 134.082 -21.9238 133.984 -22.9492 C 159.326 -23.0957 168.896 -42.0898 168.408 -49.0234 C 168.213 -50.1953 167.334 -50.8301 166.211 -50.8301 C 163.867 -50.8301 158.838 -48.1934 150.781 -48.1934 C 134.424 -48.1934 124.023 -58.6914 124.023 -73.4863 C 124.023 -83.3984 127.246 -85.8398 127.246 -88.6719 C 127.246 -90.4785 126.025 -91.1133 123.926 -90.918 C 115.771 -90.1367 98.6816 -80.2734 98.6816 -59.1309 C 98.6816 -57.5195 98.7793 -55.957 99.0234 -54.3457 C 91.748 -64.6973 81.2988 -71.2891 67.3828 -71.2891 C 47.9004 -71.2891 31.8359 -55.127 30.127 -34.6191 C 19.7266 -32.0312 11.2793 -24.1699 11.2793 -12.5977 C 11.2793 -1.07422 20.0195 8.69141 34.8633 8.69141 Z M 102.979 -47.8027 C 102.93 -47.9004 102.832 -48.0469 102.783 -48.1445 C 101.66 -51.7578 101.172 -55.4688 101.172 -59.2773 C 101.172 -78.8574 116.602 -87.793 124.707 -88.5742 L 124.805 -88.3789 C 123.145 -85.4004 121.582 -80.2734 121.582 -73.6816 C 121.582 -57.1777 133.008 -45.6543 150.977 -45.6543 C 155.664 -45.6543 161.328 -46.6797 165.723 -48.2422 L 165.967 -48.1934 C 165.674 -41.4062 156.934 -25.5371 133.74 -25.4395 L 133.74 -24.6582 C 131.299 -38.0859 118.848 -47.7051 102.979 -47.8027 Z M 34.9121 6.39648 C 21.2891 6.39648 13.5742 -2.19727 13.5742 -12.5977 C 13.5742 -22.3633 20.4102 -29.3945 30.3711 -32.4219 C 31.8359 -32.8613 32.2266 -33.3496 32.3242 -34.4727 C 33.4961 -53.3203 49.4141 -68.9941 67.3828 -68.9941 C 83.3984 -68.9941 94.3359 -59.5215 100.391 -47.9492 C 100.488 -47.5098 100.635 -47.0703 100.781 -46.6797 L 101.025 -46.7773 C 101.611 -45.8984 102.344 -45.5566 103.662 -45.5566 C 119.434 -45.5566 131.885 -34.1797 131.885 -19.5801 C 131.885 -5.32227 119.727 6.39648 104.297 6.39648 Z"/>
  </g>
  <g id="Black-M" transform="matrix(1 0 0 1 2853.1 1126)">
   <path d="M 33.8867 3.4668 L 88.0859 3.4668 C 104.297 3.4668 116.943 -8.93555 117.09 -24.9512 C 132.764 -24.4141 146.24 -33.3496 151.172 -47.998 C 153.223 -54.1016 150.684 -59.082 144.824 -59.082 C 140.576 -59.082 137.256 -57.2754 131.787 -57.2754 C 121.582 -57.2754 116.748 -62.7441 116.748 -73.8281 C 116.748 -80.127 118.604 -84.3262 118.604 -87.0605 C 118.604 -92.7246 113.477 -95.4102 108.105 -93.6035 C 94.6777 -89.1113 84.6191 -75.9277 84.6191 -61.5234 C 84.6191 -61.2305 84.668 -60.8887 84.668 -60.5957 C 78.418 -67.4805 69.6289 -71.0938 58.7891 -71.0938 C 41.3086 -71.0938 26.9531 -58.9844 23.7305 -41.6504 C 14.5508 -38.623 8.74023 -30.5176 8.74023 -20.459 C 8.74023 -6.64062 19.4336 3.4668 33.8867 3.4668 Z M 96.7773 -61.5234 C 96.7773 -69.1406 100.488 -76.1719 106.396 -80.2734 L 107.031 -79.8828 C 106.25 -77.4414 105.518 -74.0723 105.518 -70.0684 C 105.518 -56.25 114.697 -45.9473 129.102 -45.9473 C 133.105 -45.9473 135.547 -46.7773 137.549 -47.4609 L 137.988 -47.0215 C 134.229 -40.7227 125.879 -36.6699 114.404 -37.6465 C 111.23 -44.5801 105.518 -49.8535 98.291 -52.3926 C 97.2656 -55.2246 96.7773 -58.3008 96.7773 -61.5234 Z M 34.4727 -11.6211 C 27.3926 -11.6211 23.877 -15.1855 23.877 -20.3125 C 23.877 -25.0488 27.0508 -28.3691 33.5449 -30.0293 C 36.5234 -30.7617 37.1582 -32.0801 37.6953 -35.0098 C 40.1367 -49.3652 48.291 -56.0547 58.7891 -56.0547 C 66.6504 -56.0547 73.3887 -51.3672 78.125 -42.7734 C 79.4434 -40.4297 80.7617 -39.5508 83.7402 -39.5508 C 96.5332 -39.5508 102.002 -33.2031 102.002 -24.9023 C 102.002 -17.334 96.4844 -11.6211 87.5 -11.6211 Z"/>
  </g>
  <g id="Heavy-M" transform="matrix(1 0 0 1 2558.17 1126)">
   <path d="M 32.8613 3.125 L 86.7188 3.125 C 102.49 3.125 114.795 -8.98438 114.795 -24.5117 L 114.795 -24.6094 C 130.518 -24.3652 143.018 -33.3008 147.607 -46.6797 C 149.561 -52.2461 147.119 -56.8848 141.748 -56.8848 C 137.793 -56.8848 134.717 -55.1758 129.346 -55.1758 C 118.555 -55.1758 113.33 -60.9863 113.33 -72.168 C 113.33 -78.2715 115.186 -82.2266 115.186 -84.9609 C 115.186 -90.1855 110.449 -92.7246 105.322 -90.9668 C 92.5781 -86.7676 82.8613 -74.0723 82.8613 -59.9121 C 82.8613 -59.5703 82.8613 -59.1797 82.8613 -58.8379 C 76.709 -65.7227 68.0664 -69.3848 57.5684 -69.3848 C 40.3809 -69.3848 26.2695 -57.2266 23.4375 -40.1855 C 14.502 -37.2559 8.74023 -29.3945 8.74023 -19.6289 C 8.74023 -6.44531 18.8965 3.125 32.8613 3.125 Z M 93.7988 -59.9609 C 93.7988 -67.9688 97.998 -75.0977 104.004 -79.0527 L 104.59 -78.6621 C 103.857 -76.2695 103.076 -72.9004 103.076 -68.9453 C 103.076 -55.0781 112.549 -44.9219 126.855 -44.9219 C 130.762 -44.9219 133.35 -45.7031 135.4 -46.3867 L 135.84 -45.9961 C 132.275 -39.8438 124.121 -35.2539 112.402 -35.9863 C 109.229 -43.2617 103.027 -48.7305 95.2637 -51.0742 C 94.2871 -53.8086 93.7988 -56.8359 93.7988 -59.9609 Z M 33.252 -10.2539 C 25.8789 -10.2539 22.168 -14.1113 22.168 -19.4824 C 22.168 -24.3164 25.293 -27.9297 31.9336 -29.6387 C 34.7656 -30.3711 35.498 -31.6406 35.9375 -34.4238 C 38.0371 -48.6328 46.6797 -56.0547 57.5684 -56.0547 C 65.8203 -56.0547 72.7051 -51.2695 77.3926 -42.5293 C 78.6621 -40.2344 79.9316 -39.4043 82.8125 -39.4043 C 95.5566 -39.4043 101.416 -32.7637 101.416 -24.3164 C 101.416 -16.3574 95.459 -10.2539 86.3281 -10.2539 Z"/>
  </g>
  <g id="Bold-M" transform="matrix(1 0 0 1 2263.49 1126)">
   <path d="M 31.6895 2.68555 L 85.2051 2.68555 C 100.391 2.68555 112.207 -8.88672 112.207 -23.7793 C 112.207 -23.9746 112.207 -24.1211 112.207 -24.2676 C 127.93 -24.3164 139.355 -33.2031 143.652 -45.166 C 145.459 -50.1465 143.164 -54.4434 138.33 -54.4434 C 134.717 -54.4434 131.885 -52.8809 126.562 -52.8809 C 115.186 -52.8809 109.473 -59.082 109.473 -70.2637 C 109.473 -76.2207 111.328 -79.834 111.328 -82.5684 C 111.328 -87.3535 106.982 -89.6973 102.148 -88.0859 C 90.2832 -84.1309 80.8594 -72.0215 80.8594 -58.0566 C 80.8594 -57.666 80.8594 -57.2754 80.8594 -56.9336 C 74.8047 -63.7207 66.3086 -67.4805 56.25 -67.4805 C 39.4043 -67.4805 25.4883 -55.2246 23.0469 -38.5254 C 14.4043 -35.7422 8.74023 -28.1738 8.74023 -18.7012 C 8.74023 -6.29883 18.2129 2.68555 31.6895 2.68555 Z M 90.4785 -58.1543 C 90.4785 -66.6504 95.166 -73.877 101.318 -77.6855 L 101.904 -77.2949 C 101.123 -74.9023 100.391 -71.582 100.391 -67.6758 C 100.391 -53.7598 110.107 -43.7988 124.365 -43.7988 C 128.125 -43.7988 130.957 -44.4824 133.057 -45.2148 L 133.447 -44.8242 C 130.078 -38.8184 122.119 -33.6914 110.205 -34.1797 C 107.031 -41.7969 100.342 -47.4609 91.8945 -49.5117 C 90.9668 -52.1973 90.4785 -55.127 90.4785 -58.1543 Z M 31.8359 -8.74023 C 24.1699 -8.74023 20.2148 -12.8906 20.2148 -18.5547 C 20.2148 -23.4863 23.291 -27.3926 30.1758 -29.1992 C 32.8125 -29.8828 33.5938 -31.1035 33.9355 -33.7891 C 35.7422 -47.8027 44.873 -56.0547 56.25 -56.0547 C 64.8926 -56.0547 71.9238 -51.123 76.6113 -42.2852 C 77.7832 -40.0391 79.0527 -39.2578 81.7871 -39.2578 C 94.4824 -39.2578 100.781 -32.2754 100.781 -23.584 C 100.781 -15.2344 94.2871 -8.74023 84.9609 -8.74023 Z"/>
  </g>
  <g id="Semibold-M" transform="matrix(1 0 0 1 1968.14 1126)">
   <path d="M 30.8594 2.44141 L 84.1309 2.44141 C 98.9258 2.44141 110.449 -8.83789 110.449 -23.3398 C 110.449 -23.584 110.449 -23.8281 110.449 -24.0234 C 126.123 -24.3164 136.865 -33.1055 140.869 -44.1406 C 142.627 -48.7305 140.43 -52.7344 135.938 -52.7344 C 132.568 -52.7344 129.932 -51.3184 124.658 -51.3184 C 112.891 -51.3184 106.836 -57.7637 106.836 -68.9941 C 106.836 -74.8047 108.643 -78.1738 108.643 -80.9082 C 108.643 -85.4492 104.639 -87.6465 100 -86.084 C 88.6719 -82.3242 79.4922 -70.6055 79.4922 -56.8359 C 79.4922 -56.3965 79.4922 -56.0059 79.4922 -55.5664 C 73.5352 -62.4023 65.1367 -66.2109 55.3223 -66.2109 C 38.7207 -66.2109 24.9512 -53.8574 22.8027 -37.4023 C 14.3555 -34.7168 8.74023 -27.2949 8.74023 -18.0664 C 8.74023 -6.15234 17.7734 2.44141 30.8594 2.44141 Z M 88.2324 -56.9336 C 88.2324 -65.7715 93.2129 -73.0469 99.5117 -76.7578 L 100.049 -76.3672 C 99.2676 -73.9746 98.4863 -70.6543 98.4863 -66.7969 C 98.4863 -52.8809 108.398 -43.0176 122.656 -43.0176 C 126.27 -43.0176 129.248 -43.6523 131.396 -44.3848 L 131.787 -43.9941 C 128.564 -38.0859 120.752 -32.6172 108.643 -32.9102 C 105.469 -40.7715 98.4863 -46.582 89.5996 -48.3887 C 88.6719 -51.0742 88.2324 -53.9551 88.2324 -56.9336 Z M 30.9082 -7.71484 C 22.998 -7.71484 18.8965 -12.0605 18.8965 -17.8711 C 18.8965 -22.9004 21.9238 -27.0996 28.9062 -28.9062 C 31.4453 -29.5898 32.2754 -30.7129 32.5684 -33.3496 C 34.1309 -47.2168 43.6523 -56.1035 55.3223 -56.1035 C 64.2578 -56.1035 71.4355 -51.0254 76.0254 -42.0898 C 77.1484 -39.8926 78.418 -39.1602 81.0547 -39.1602 C 93.75 -39.1602 100.293 -31.9336 100.293 -23.0957 C 100.293 -14.502 93.5059 -7.71484 84.0332 -7.71484 Z"/>
  </g>
  <g id="Medium-M" transform="matrix(1 0 0 1 1672.48 1126)">
   <path d="M 30.2246 2.24609 L 83.3496 2.24609 C 97.8516 2.24609 109.131 -8.78906 109.131 -22.9492 C 109.131 -23.2422 109.082 -23.584 109.082 -23.877 C 124.756 -24.2676 134.961 -33.0566 138.818 -43.3594 C 140.479 -47.6562 138.33 -51.4648 134.18 -51.4648 C 130.957 -51.4648 128.418 -50.0977 123.193 -50.0977 C 111.133 -50.0977 104.834 -56.7383 104.834 -68.0176 C 104.834 -73.6816 106.641 -76.9531 106.641 -79.6875 C 106.641 -83.9844 102.832 -86.084 98.3398 -84.5703 C 87.4512 -80.957 78.4668 -69.5312 78.4668 -55.8594 C 78.4668 -55.4199 78.4668 -54.9805 78.4668 -54.5898 C 72.5098 -61.3281 64.209 -65.2344 54.5898 -65.2344 C 38.1836 -65.2344 24.5117 -52.7832 22.6074 -36.5234 C 14.3066 -33.8867 8.74023 -26.6602 8.74023 -17.5781 C 8.74023 -6.05469 17.4805 2.24609 30.2246 2.24609 Z M 86.4746 -56.0059 C 86.4746 -65.0879 91.748 -72.4121 98.0957 -76.0254 L 98.6328 -75.6348 C 97.8516 -73.291 97.0703 -69.9707 97.0703 -66.1621 C 97.0703 -52.1484 107.129 -42.3828 121.338 -42.3828 C 124.902 -42.3828 127.979 -43.0176 130.176 -43.75 L 130.518 -43.4082 C 127.393 -37.5488 119.678 -31.7871 107.471 -31.9824 C 104.346 -40.0391 97.0703 -45.8496 87.8906 -47.5098 C 86.9629 -50.1953 86.4746 -53.0273 86.4746 -56.0059 Z M 30.1758 -6.88477 C 22.1191 -6.88477 17.8711 -11.4746 17.8711 -17.3828 C 17.8711 -22.4609 20.8984 -26.8066 27.9785 -28.7109 C 30.4688 -29.3457 31.2988 -30.4688 31.543 -33.0078 C 32.9102 -46.8262 42.6758 -56.1035 54.5898 -56.1035 C 63.7695 -56.1035 71.0449 -50.9766 75.6348 -41.9434 C 76.709 -39.7949 77.9297 -39.0625 80.5176 -39.0625 C 93.1641 -39.0625 100 -31.6895 100 -22.7539 C 100 -13.916 92.9199 -6.88477 83.3496 -6.88477 Z"/>
  </g>
  <g id="Regular-M" transform="matrix(1 0 0 1 1377.16 1126)">
   <path d="M 29.4434 1.95312 L 82.2754 1.95312 C 96.3867 1.95312 107.373 -8.74023 107.373 -22.5098 C 107.373 -22.9004 107.324 -23.291 107.324 -23.6328 C 122.9 -24.2188 132.471 -32.9102 136.084 -42.334 C 137.695 -46.2402 135.645 -49.8047 131.836 -49.8047 C 128.857 -49.8047 126.514 -48.5352 121.289 -48.5352 C 108.838 -48.5352 102.246 -55.4199 102.246 -66.748 C 102.246 -72.2656 104.004 -75.293 104.004 -78.0273 C 104.004 -82.0312 100.488 -84.0332 96.1914 -82.5684 C 85.8887 -79.1504 77.0996 -68.1152 77.0996 -54.5898 C 77.0996 -54.1504 77.0996 -53.7109 77.0996 -53.2715 C 71.2402 -60.0098 63.0371 -63.916 53.6621 -63.916 C 37.5 -63.916 23.9746 -51.4648 22.3633 -35.4004 C 14.2578 -32.8613 8.74023 -25.8301 8.74023 -16.9434 C 8.74023 -5.95703 17.041 1.95312 29.4434 1.95312 Z M 84.2285 -54.7852 C 84.2285 -64.209 89.8438 -71.582 96.2891 -75.0977 L 96.7773 -74.707 C 95.9961 -72.3633 95.2148 -69.043 95.2148 -65.2832 C 95.2148 -51.2695 105.469 -41.6016 119.629 -41.6016 C 123.096 -41.6016 126.318 -42.2363 128.564 -42.9688 L 128.906 -42.627 C 125.879 -36.8652 118.311 -30.7617 105.908 -30.7617 C 102.881 -39.0137 95.2637 -44.9707 85.6445 -46.3379 C 84.7168 -48.9746 84.2285 -51.8555 84.2285 -54.7852 Z M 29.248 -5.85938 C 20.9473 -5.85938 16.5527 -10.6445 16.5527 -16.748 C 16.5527 -21.9238 19.5801 -26.4648 26.7578 -28.418 C 29.1016 -29.0039 29.9805 -30.0781 30.1758 -32.5684 C 31.2988 -46.2402 41.4551 -56.1035 53.6621 -56.1035 C 63.1348 -56.1035 70.5078 -50.8789 75.0488 -41.7969 C 76.123 -39.6973 77.3438 -38.9648 79.7852 -38.9648 C 92.4316 -38.9648 99.5605 -31.3477 99.5605 -22.2656 C 99.5605 -13.1836 92.1387 -5.85938 82.4219 -5.85938 Z"/>
  </g>
  <g id="Light-M" transform="matrix(1 0 0 1 1081.4 1126)">
   <path d="M 28.6621 0.976562 L 81.8359 0.976562 C 95.6055 0.976562 106.299 -9.42383 106.299 -22.7051 C 106.299 -23.2422 106.299 -23.7793 106.25 -24.3164 C 122.949 -24.9023 131.885 -35.2051 134.375 -43.457 C 135.4 -46.4355 133.789 -49.0234 130.859 -49.0234 C 128.271 -49.0234 125.439 -47.5098 119.922 -47.5098 C 107.373 -47.5098 100.342 -54.7852 100.342 -66.1621 C 100.342 -72.3633 102.295 -75.0488 102.295 -77.5879 C 102.295 -80.8105 99.6094 -82.3242 96.1426 -81.2988 C 87.0605 -78.7109 76.9043 -68.75 76.9043 -54.3457 C 76.9043 -53.6621 76.9043 -53.0273 76.9531 -52.3438 C 71.1426 -59.4238 62.9395 -63.6719 53.2227 -63.6719 C 37.3535 -63.6719 24.2188 -51.2207 22.6562 -35.2051 C 14.5508 -32.8125 8.74023 -26.0742 8.74023 -17.1875 C 8.74023 -6.83594 16.5527 0.976562 28.6621 0.976562 Z M 82.4219 -54.4922 C 82.4219 -65.7227 89.9902 -72.9492 96.3867 -75.5371 L 96.7773 -75.2441 C 95.8008 -72.9004 94.9219 -69.3848 94.9219 -65.2344 C 94.9219 -51.5625 104.736 -42.1387 118.799 -42.1387 C 122.314 -42.1387 125.928 -42.7734 128.516 -43.7012 L 128.809 -43.457 C 126.611 -37.793 119.189 -29.9316 105.176 -29.7852 C 102.344 -38.623 94.1895 -44.9219 83.8379 -45.9961 C 82.9102 -48.6328 82.4219 -51.5137 82.4219 -54.4922 Z M 28.5645 -4.98047 C 19.5801 -4.98047 14.6973 -10.3027 14.6973 -17.041 C 14.6973 -22.9492 18.4082 -27.7832 25.7324 -29.834 C 27.7344 -30.3711 28.418 -31.25 28.5645 -33.2031 C 29.6387 -47.168 40.4785 -57.7637 53.2227 -57.7637 C 63.6719 -57.7637 71.3867 -51.7578 75.9766 -42.6758 C 76.8555 -40.8691 77.8809 -40.2832 79.9316 -40.2832 C 92.4316 -40.2832 100.342 -32.3242 100.342 -22.5098 C 100.342 -12.793 92.334 -4.98047 81.9336 -4.98047 Z"/>
  </g>
  <g id="Thin-M" transform="matrix(1 0 0 1 785.963 1126)">
   <path d="M 27.6855 -0.292969 L 81.2012 -0.292969 C 94.5312 -0.292969 104.883 -10.3516 104.883 -23.0469 C 104.883 -23.7305 104.883 -24.4629 104.785 -25.1465 C 123.193 -25.5371 131.25 -38.3301 132.08 -44.9219 C 132.422 -46.6797 131.299 -47.998 129.639 -47.998 C 127.49 -47.998 124.023 -46.1914 118.066 -46.1914 C 105.469 -46.1914 97.8027 -53.9551 97.8027 -65.4297 C 97.8027 -72.4609 100.098 -74.707 100.098 -77.0508 C 100.098 -79.1504 98.4375 -80.0781 96.0449 -79.5898 C 88.623 -78.1738 76.6113 -69.5801 76.6113 -54.0039 C 76.6113 -53.0273 76.6602 -52.0508 76.7578 -51.0742 C 71.0449 -58.6426 62.9395 -63.3789 52.5879 -63.3789 C 37.207 -63.3789 24.4629 -50.8789 23.0469 -34.9609 C 14.9902 -32.8125 8.69141 -26.416 8.69141 -17.4805 C 8.69141 -7.95898 15.918 -0.292969 27.6855 -0.292969 Z M 80.0293 -54.1504 C 80.0293 -67.6758 90.1855 -74.7559 96.5332 -76.1719 L 96.7285 -75.9277 C 95.5566 -73.6328 94.4824 -69.8242 94.4824 -65.0879 C 94.4824 -51.9531 103.711 -42.8223 117.725 -42.8223 C 121.289 -42.8223 125.391 -43.5547 128.467 -44.6777 L 128.662 -44.5312 C 127.588 -39.0625 120.557 -28.6621 104.199 -28.5156 C 101.709 -38.0859 92.8223 -44.9219 81.4453 -45.4102 C 80.4688 -48.1445 80.0293 -51.0742 80.0293 -54.1504 Z M 27.6367 -3.75977 C 17.7246 -3.75977 12.1582 -9.91211 12.1582 -17.4316 C 12.1582 -24.3164 16.8457 -29.541 24.4141 -31.7383 C 25.8789 -32.1777 26.3672 -32.7637 26.4648 -34.0332 C 27.4414 -48.3887 39.1602 -59.9121 52.5879 -59.9121 C 64.3555 -59.9121 72.5586 -52.9785 77.1973 -43.7988 C 77.832 -42.4805 78.6133 -42.041 80.127 -42.041 C 92.4805 -42.041 101.416 -33.5449 101.416 -22.9004 C 101.416 -12.3535 92.5781 -3.75977 81.25 -3.75977 Z"/>
  </g>
  <g id="Ultralight-M" transform="matrix(1 0 0 1 489.887 1126)">
   <path d="M 27.1484 -0.976562 L 80.9082 -0.976562 C 93.9941 -0.976562 104.199 -10.791 104.199 -23.1934 C 104.199 -23.9746 104.15 -24.8047 104.053 -25.5859 C 123.389 -25.8301 130.957 -39.9902 130.859 -45.6543 C 130.859 -46.7773 130.078 -47.5098 129.004 -47.5098 C 127.1 -47.5098 123.291 -45.5078 117.139 -45.5078 C 104.492 -45.5078 96.5332 -53.5645 96.5332 -65.0391 C 96.5332 -72.5586 98.9746 -74.5117 98.9746 -76.7578 C 98.9746 -78.3203 97.8516 -78.9062 95.9961 -78.7109 C 89.4043 -77.8809 76.5137 -70.0195 76.5137 -53.8086 C 76.5137 -52.6367 76.5625 -51.4648 76.709 -50.293 C 71.0449 -58.2031 62.9395 -63.2324 52.2949 -63.2324 C 37.1094 -63.2324 24.6094 -50.6836 23.2422 -34.8145 C 15.1855 -32.7637 8.69141 -26.6113 8.69141 -17.627 C 8.69141 -8.59375 15.5762 -0.976562 27.1484 -0.976562 Z M 78.7598 -53.9551 C 78.7598 -68.7012 90.2832 -75.6836 96.582 -76.4648 L 96.6797 -76.3184 C 95.459 -73.9746 94.2383 -70.0684 94.2383 -65.0391 C 94.2383 -52.1484 103.223 -43.2129 117.139 -43.2129 C 120.752 -43.2129 125.098 -43.9453 128.418 -45.166 L 128.613 -45.0684 C 128.174 -39.7461 121.289 -27.9297 103.662 -27.832 C 101.416 -37.8418 92.041 -44.9219 80.1758 -45.0684 C 79.1992 -47.9004 78.7598 -50.8789 78.7598 -53.9551 Z M 27.1484 -3.17383 C 16.7969 -3.17383 10.8887 -9.66797 10.8887 -17.627 C 10.8887 -25.0488 16.0645 -30.4199 23.7305 -32.7148 C 24.9512 -33.1055 25.293 -33.4961 25.3906 -34.4727 C 26.3184 -49.0234 38.4766 -61.0352 52.2949 -61.0352 C 64.6973 -61.0352 73.1934 -53.5645 77.7832 -44.3848 C 78.3691 -43.3105 78.9551 -42.9199 80.2734 -42.9199 C 92.5293 -42.9199 101.953 -34.1797 101.953 -23.0469 C 101.953 -12.1094 92.7246 -3.17383 80.9082 -3.17383 Z"/>
  </g>
  <g id="Black-S" transform="matrix(1 0 0 1 2870.63 696)">
   <path d="M 26.4648 -4.93164 L 68.8965 -4.93164 C 81.5918 -4.93164 91.4551 -14.5996 91.5527 -27.1484 C 103.809 -26.709 114.307 -33.7402 118.164 -45.1172 C 119.775 -49.8535 117.773 -53.7598 113.232 -53.7598 C 109.912 -53.7598 107.324 -52.3438 103.076 -52.3438 C 95.0195 -52.3438 91.2109 -56.6406 91.2109 -65.332 C 91.2109 -70.2637 92.6758 -73.5352 92.6758 -75.6836 C 92.6758 -80.0781 88.6719 -82.1777 84.4727 -80.7617 C 73.9746 -77.2461 66.1621 -66.9434 66.1621 -55.7129 C 66.1621 -55.4688 66.1621 -55.2246 66.1621 -54.9805 C 61.2793 -60.3516 54.4434 -63.1836 45.9473 -63.1836 C 32.2754 -63.1836 21.0449 -53.7109 18.5547 -40.1367 C 11.377 -37.793 6.83594 -31.4453 6.83594 -23.584 C 6.83594 -12.793 15.1855 -4.93164 26.4648 -4.93164 Z M 75.5859 -55.7129 C 75.5859 -61.6699 78.5156 -67.1875 83.1543 -70.4102 L 83.6426 -70.1172 C 83.0566 -68.2129 82.4707 -65.5762 82.4707 -62.4512 C 82.4707 -51.6113 89.6973 -43.5547 100.977 -43.5547 C 104.102 -43.5547 106.006 -44.1895 107.568 -44.7266 L 107.91 -44.3848 C 104.98 -39.4531 98.4375 -36.2305 89.4531 -37.0117 C 87.0117 -42.4316 82.4707 -46.582 76.8066 -48.584 C 75.9766 -50.7812 75.5859 -53.1738 75.5859 -55.7129 Z M 26.9043 -16.6504 C 21.3379 -16.6504 18.6035 -19.4336 18.6035 -23.4863 C 18.6035 -27.1973 21.0449 -29.7852 26.1719 -31.1035 C 28.4668 -31.6895 29.0039 -32.7148 29.3945 -35.0098 C 31.2988 -46.2402 37.6953 -51.5137 45.9473 -51.5137 C 52.1484 -51.5137 57.4219 -47.8516 61.1328 -41.1133 C 62.1582 -39.2578 63.1836 -38.5742 65.5273 -38.5742 C 75.5371 -38.5742 79.834 -33.5938 79.834 -27.0996 C 79.834 -21.1426 75.4883 -16.6504 68.457 -16.6504 Z"/>
  </g>
  <g id="Heavy-S" transform="matrix(1 0 0 1 2575.19 696)">
   <path d="M 25.7324 -5.07812 L 67.9199 -5.07812 C 80.2734 -5.07812 89.8926 -14.5508 89.8926 -26.7578 L 89.8926 -26.8066 C 102.1 -26.6602 111.914 -33.4473 115.625 -43.9941 C 117.236 -48.4375 115.283 -52.1484 110.986 -52.1484 C 107.861 -52.1484 105.518 -50.8789 101.318 -50.8789 C 92.8711 -50.8789 88.8184 -55.4199 88.8184 -64.1113 C 88.8184 -68.8477 90.2344 -71.9238 90.2344 -74.1211 C 90.2344 -78.2715 86.4258 -80.3223 82.3242 -78.9062 C 72.2656 -75.4883 64.7949 -65.4785 64.7949 -54.4922 C 64.7949 -54.248 64.8438 -54.0039 64.8438 -53.7598 C 60.0098 -59.082 53.2227 -61.9141 45.0684 -61.9141 C 31.5918 -61.9141 20.5078 -52.3926 18.2617 -39.0137 C 11.2793 -36.7676 6.83594 -30.5664 6.83594 -22.9004 C 6.83594 -12.5488 14.7949 -5.07812 25.7324 -5.07812 Z M 73.5352 -54.541 C 73.5352 -60.5957 76.5625 -66.2109 81.2988 -69.4336 L 81.7871 -69.1406 C 81.2012 -67.2363 80.6641 -64.6484 80.6641 -61.5723 C 80.6641 -50.6836 88.1348 -42.7246 99.3652 -42.7246 C 102.393 -42.7246 104.395 -43.3105 105.957 -43.8477 L 106.299 -43.5059 C 103.418 -38.6719 97.0215 -35.2539 88.0371 -35.8398 C 85.5469 -41.5039 80.7129 -45.752 74.6582 -47.6074 C 73.9258 -49.7559 73.5352 -52.0996 73.5352 -54.541 Z M 26.0254 -15.7227 C 20.3125 -15.7227 17.4805 -18.6523 17.4805 -22.8027 C 17.4805 -26.5137 19.8242 -29.2969 25.0488 -30.6641 C 27.2949 -31.2012 27.8809 -32.2266 28.2227 -34.4727 C 29.8828 -45.5566 36.5723 -51.3672 45.0684 -51.3672 C 51.4648 -51.3672 56.7871 -47.6562 60.498 -40.8203 C 61.4746 -39.0137 62.5 -38.3301 64.7949 -38.3301 C 74.8047 -38.3301 79.2969 -33.1543 79.2969 -26.6113 C 79.2969 -20.4102 74.6582 -15.7227 67.5781 -15.7227 Z"/>
  </g>
  <g id="Bold-S" transform="matrix(1 0 0 1 2279.89 696)">
   <path d="M 24.9512 -5.27344 L 66.7969 -5.27344 C 78.7598 -5.27344 88.0859 -14.4043 88.0859 -26.1719 L 88.0859 -26.4648 C 100.146 -26.5137 109.18 -33.1055 112.793 -42.6758 C 114.355 -46.8262 112.451 -50.3906 108.496 -50.3906 C 105.566 -50.3906 103.467 -49.2188 99.3652 -49.2188 C 90.4785 -49.2188 86.1328 -54.0039 86.1328 -62.793 C 86.1328 -67.2363 87.4512 -70.166 87.4512 -72.3145 C 87.4512 -76.3184 83.9355 -78.2227 79.9316 -76.8555 C 70.3125 -73.5352 63.3301 -63.8184 63.3301 -53.125 C 63.3301 -52.8809 63.3301 -52.6367 63.3301 -52.3438 C 58.5449 -57.6172 51.9043 -60.498 44.0918 -60.498 C 30.8594 -60.498 19.873 -50.8789 17.9688 -37.793 C 11.1816 -35.5957 6.83594 -29.5898 6.83594 -22.168 C 6.83594 -12.3047 14.3555 -5.27344 24.9512 -5.27344 Z M 71.2402 -53.2227 C 71.2402 -59.4238 74.4141 -65.1367 79.248 -68.3105 L 79.7363 -68.0176 C 79.1504 -66.1133 78.6133 -63.5742 78.6133 -60.6445 C 78.6133 -49.6094 86.3281 -41.748 97.5586 -41.748 C 100.439 -41.748 102.588 -42.2852 104.15 -42.8223 L 104.443 -42.4805 C 101.66 -37.7441 95.3613 -34.1309 86.377 -34.5703 C 83.8867 -40.4297 78.8086 -44.7754 72.3145 -46.4355 C 71.582 -48.5352 71.2402 -50.8301 71.2402 -53.2227 Z M 25.0488 -14.6484 C 19.1895 -14.6484 16.2598 -17.7734 16.2598 -22.0215 C 16.2598 -25.7324 18.457 -28.7598 23.7793 -30.127 C 25.9766 -30.7129 26.6113 -31.6895 26.9043 -33.9355 C 28.3203 -44.8242 35.3027 -51.1719 44.0918 -51.1719 C 50.6836 -51.1719 56.1035 -47.4609 59.7168 -40.5273 C 60.6934 -38.6719 61.7188 -38.0371 63.9648 -38.0371 C 73.9746 -38.0371 78.7109 -32.666 78.7109 -26.0254 C 78.7109 -19.6289 73.7793 -14.6484 66.6504 -14.6484 Z"/>
  </g>
  <g id="Semibold-S" transform="matrix(1 0 0 1 1984.16 696)">
   <path d="M 24.3652 -5.41992 L 66.0156 -5.41992 C 77.7344 -5.41992 86.8164 -14.3066 86.8164 -25.7812 C 86.8164 -25.9277 86.8164 -26.0742 86.8164 -26.2207 C 98.7793 -26.416 107.324 -32.8613 110.84 -41.7969 C 112.402 -45.7031 110.498 -49.1699 106.738 -49.1699 C 104.004 -49.1699 102.051 -48.0957 98.0469 -48.0957 C 88.8184 -48.0957 84.2285 -53.0273 84.2285 -61.8164 C 84.2285 -66.1621 85.5957 -68.8965 85.5957 -71.0938 C 85.5957 -74.9023 82.1777 -76.8066 78.2715 -75.4395 C 68.9941 -72.2168 62.2559 -62.6953 62.2559 -52.1973 C 62.2559 -51.9531 62.3047 -51.6602 62.3047 -51.416 C 57.5684 -56.6406 50.9766 -59.5215 43.457 -59.5215 C 30.3223 -59.5215 19.4336 -49.8535 17.7734 -36.9629 C 11.1328 -34.8145 6.83594 -28.9062 6.83594 -21.6797 C 6.83594 -12.1582 14.0625 -5.41992 24.3652 -5.41992 Z M 69.6289 -52.2949 C 69.6289 -58.6426 72.9004 -64.3555 77.832 -67.5781 L 78.3203 -67.2363 C 77.7344 -65.3809 77.1973 -62.8418 77.1973 -59.9609 C 77.1973 -48.9258 85.1074 -41.1133 96.2891 -41.1133 C 99.1211 -41.1133 101.318 -41.6016 102.881 -42.1387 L 103.223 -41.7969 C 100.439 -37.1582 94.2383 -33.3984 85.2539 -33.6914 C 82.7637 -39.6484 77.4414 -44.0918 70.7031 -45.6055 C 70.0195 -47.7051 69.6289 -49.9512 69.6289 -52.2949 Z M 24.4141 -13.916 C 18.4082 -13.916 15.3809 -17.1875 15.3809 -21.5332 C 15.3809 -25.1953 17.5293 -28.3691 22.9492 -29.7852 C 25.0488 -30.3223 25.7324 -31.2988 25.9766 -33.4961 C 27.2461 -44.2871 34.4727 -51.0254 43.457 -51.0254 C 50.1465 -51.0254 55.6152 -47.3145 59.2285 -40.2832 C 60.1562 -38.4766 61.2305 -37.8418 63.4277 -37.8418 C 73.3887 -37.8418 78.2715 -32.3242 78.2715 -25.6348 C 78.2715 -19.0918 73.1445 -13.916 65.9668 -13.916 Z"/>
  </g>
  <g id="Medium-S" transform="matrix(1 0 0 1 1688.18 696)">
   <path d="M 23.9746 -5.51758 L 65.4297 -5.51758 C 76.9531 -5.51758 85.8398 -14.209 85.8398 -25.5371 C 85.8398 -25.6836 85.8398 -25.8789 85.8398 -26.0254 C 97.7051 -26.3672 105.908 -32.6172 109.375 -41.1133 C 110.938 -44.873 109.033 -48.1934 105.42 -48.1934 C 102.783 -48.1934 100.977 -47.2656 97.0215 -47.2656 C 87.5977 -47.2656 82.8613 -52.2949 82.8613 -61.1328 C 82.8613 -65.332 84.1309 -67.9688 84.1309 -70.166 C 84.1309 -73.877 80.8594 -75.7324 77.002 -74.3652 C 68.0176 -71.1914 61.4746 -61.8164 61.4746 -51.4648 C 61.4746 -51.2207 61.4746 -50.9766 61.5234 -50.6836 C 56.8359 -55.8594 50.293 -58.7891 42.9199 -58.7891 C 29.9316 -58.7891 19.0918 -49.0723 17.5781 -36.3281 C 11.0352 -34.1797 6.83594 -28.418 6.83594 -21.2891 C 6.83594 -12.0117 13.8672 -5.51758 23.9746 -5.51758 Z M 68.4082 -51.6113 C 68.4082 -58.0078 71.7773 -63.8184 76.7578 -66.9922 L 77.2461 -66.6504 C 76.6602 -64.7949 76.123 -62.3047 76.123 -59.4727 C 76.123 -48.3887 84.1797 -40.625 95.3613 -40.625 C 98.0957 -40.625 100.391 -41.1133 101.953 -41.6016 L 102.246 -41.3086 C 99.5117 -36.6699 93.4082 -32.8125 84.4238 -33.0078 C 81.9336 -39.1113 76.4648 -43.5547 69.5312 -44.9707 C 68.7988 -47.0215 68.4082 -49.2676 68.4082 -51.6113 Z M 23.877 -13.3789 C 17.8223 -13.3789 14.7461 -16.6992 14.7461 -21.1426 C 14.7461 -24.8047 16.7969 -28.125 22.2656 -29.541 C 24.3652 -30.0781 25.0977 -31.0059 25.293 -33.2031 C 26.416 -43.8965 33.7891 -50.9277 42.9199 -50.9277 C 49.7559 -50.9277 55.2734 -47.2168 58.8379 -40.1367 C 59.7656 -38.3301 60.791 -37.6953 62.9883 -37.6953 C 72.9492 -37.6953 77.9785 -32.0801 77.9785 -25.3418 C 77.9785 -18.6523 72.6562 -13.3789 65.4785 -13.3789 Z"/>
  </g>
  <g id="Regular-S" transform="matrix(1 0 0 1 1392.42 696)">
   <path d="M 23.4375 -5.61523 L 64.6973 -5.61523 C 75.8789 -5.61523 84.6191 -14.1113 84.6191 -25.1465 C 84.6191 -25.3906 84.6191 -25.5859 84.5703 -25.8301 C 96.3379 -26.2695 104.053 -32.373 107.471 -40.2832 C 108.984 -43.7988 107.129 -47.0215 103.711 -47.0215 C 101.221 -47.0215 99.6094 -46.1426 95.7031 -46.1426 C 85.9375 -46.1426 81.0059 -51.3672 81.0059 -60.2051 C 81.0059 -64.209 82.2754 -66.748 82.2754 -68.9941 C 82.2754 -72.5098 79.1504 -74.3164 75.3906 -72.9492 C 66.6992 -69.873 60.4492 -60.6934 60.4492 -50.5371 C 60.4492 -50.293 60.4492 -50 60.498 -49.7559 C 55.8594 -54.8828 49.4141 -57.8125 42.2852 -57.8125 C 29.4434 -57.8125 18.7012 -48.0469 17.3828 -35.4492 C 10.9863 -33.3984 6.83594 -27.7344 6.83594 -20.8008 C 6.83594 -11.8652 13.5742 -5.61523 23.4375 -5.61523 Z M 66.8457 -50.6836 C 66.8457 -57.2266 70.3125 -63.0371 75.3418 -66.2109 L 75.8301 -65.918 C 75.2441 -64.0625 74.7559 -61.5723 74.7559 -58.8379 C 74.7559 -47.6562 83.0078 -39.9902 94.0918 -39.9902 C 96.8262 -39.9902 99.1699 -40.4297 100.732 -40.918 L 101.025 -40.625 C 98.291 -36.0352 92.2852 -32.0801 83.3008 -32.1289 C 80.8594 -38.3789 75.1465 -42.8711 67.9199 -44.0918 C 67.2363 -46.1426 66.8457 -48.3887 66.8457 -50.6836 Z M 23.2422 -12.6465 C 17.0898 -12.6465 13.8672 -16.1133 13.8672 -20.6055 C 13.8672 -24.2676 15.8691 -27.7344 21.4355 -29.1992 C 23.4863 -29.6875 24.2188 -30.6641 24.4141 -32.8125 C 25.3418 -43.4082 32.959 -50.7812 42.2852 -50.7812 C 49.2188 -50.7812 54.7852 -47.0703 58.3496 -39.9414 C 59.2285 -38.1348 60.3027 -37.5 62.4512 -37.5 C 72.3633 -37.5 77.5879 -31.7383 77.5879 -24.9512 C 77.5879 -18.1152 72.0703 -12.6465 64.7949 -12.6465 Z"/>
  </g>
  <g id="Light-S" transform="matrix(1 0 0 1 1096.57 696)">
   <path d="M 22.7539 -6.49414 L 64.2578 -6.49414 C 75.1953 -6.49414 83.6914 -14.7461 83.6914 -25.3418 C 83.6914 -25.6836 83.6914 -26.0742 83.6426 -26.416 C 96.2891 -26.9043 103.516 -34.3262 105.908 -41.2598 C 106.982 -43.9453 105.518 -46.3379 102.881 -46.3379 C 100.732 -46.3379 98.6816 -45.2148 94.4824 -45.2148 C 84.668 -45.2148 79.3457 -50.8301 79.3457 -59.7168 C 79.3457 -64.3066 80.8105 -66.5039 80.8105 -68.6035 C 80.8105 -71.4355 78.3691 -72.8027 75.3418 -71.7773 C 67.7246 -69.4824 60.3027 -61.2305 60.3027 -50.293 C 60.3027 -49.8535 60.3027 -49.4141 60.3516 -49.0234 C 55.7617 -54.3945 49.3164 -57.6172 41.8457 -57.6172 C 29.3457 -57.6172 18.8965 -47.8516 17.627 -35.3027 C 11.2793 -33.3496 6.83594 -27.9785 6.83594 -20.9961 C 6.83594 -12.6465 13.1348 -6.49414 22.7539 -6.49414 Z M 65.2832 -50.4395 C 65.2832 -58.5449 70.459 -64.2578 75.4395 -66.6504 L 75.8301 -66.3574 C 75.0977 -64.5508 74.4629 -61.8652 74.4629 -58.7402 C 74.4629 -47.9004 82.3242 -40.4297 93.4082 -40.4297 C 96.1426 -40.4297 98.8281 -40.918 100.684 -41.6016 L 100.928 -41.3574 C 98.877 -36.8652 93.0176 -31.3965 82.666 -31.3477 C 80.3711 -38.0371 74.2188 -42.8223 66.3574 -43.7988 C 65.625 -45.8984 65.2832 -48.0957 65.2832 -50.4395 Z M 22.6562 -11.8652 C 15.8691 -11.8652 12.207 -15.8203 12.207 -20.8496 C 12.207 -25.1953 14.8438 -28.9062 20.5566 -30.4688 C 22.2656 -30.9082 22.8516 -31.6406 22.998 -33.3984 C 23.877 -44.2383 32.0801 -52.2461 41.8457 -52.2461 C 49.6582 -52.2461 55.5664 -47.8516 59.1797 -40.7227 C 59.9121 -39.209 60.791 -38.6719 62.5977 -38.6719 C 72.4121 -38.6719 78.3203 -32.5684 78.3203 -25.1953 C 78.3203 -17.8223 72.2656 -11.8652 64.3555 -11.8652 Z"/>
  </g>
  <g id="Thin-S" transform="matrix(1 0 0 1 800.978 696)">
   <path d="M 21.875 -7.61719 L 63.7695 -7.61719 C 74.2676 -7.61719 82.4707 -15.5273 82.4707 -25.5859 C 82.4707 -26.123 82.4219 -26.6602 82.373 -27.1973 C 96.4844 -27.5391 102.93 -37.0605 103.906 -42.5293 C 104.297 -44.1406 103.369 -45.459 101.807 -45.459 C 100.049 -45.459 97.4609 -44.043 92.8711 -44.043 C 83.0078 -44.043 77.1484 -50.0977 77.1484 -59.0332 C 77.1484 -64.4043 78.8574 -66.2109 78.8574 -68.1152 C 78.8574 -69.9707 77.3438 -70.8008 75.293 -70.3125 C 69.1406 -68.9941 60.1074 -61.9629 60.1074 -50 C 60.1074 -49.3164 60.1074 -48.584 60.2051 -47.9004 C 55.7129 -53.7598 49.3164 -57.373 41.3574 -57.373 C 29.1992 -57.373 19.1406 -47.5586 17.9688 -35.0586 C 11.6699 -33.3496 6.83594 -28.2715 6.83594 -21.2402 C 6.83594 -13.6719 12.5977 -7.61719 21.875 -7.61719 Z M 63.1348 -50.0977 C 63.1348 -60.2539 70.6055 -65.8203 75.5859 -67.1875 L 75.7812 -66.9922 C 74.9512 -65.1855 74.1211 -62.2559 74.1211 -58.6426 C 74.1211 -48.2422 81.4453 -41.0645 92.4316 -41.0645 C 95.2637 -41.0645 98.3398 -41.6016 100.684 -42.4316 L 100.83 -42.2852 C 99.8047 -37.9883 94.1895 -30.3223 81.8359 -30.2246 C 79.834 -37.5977 72.998 -42.8223 64.2578 -43.3105 C 63.5254 -45.459 63.1348 -47.7539 63.1348 -50.0977 Z M 21.8262 -10.8398 C 14.2578 -10.8398 10.0098 -15.4785 10.0098 -21.1914 C 10.0098 -26.416 13.5254 -30.4199 19.3848 -32.1289 C 20.6543 -32.4707 21.0449 -33.0078 21.1426 -34.1309 C 21.9238 -45.3125 30.957 -54.1504 41.3574 -54.1504 C 50.293 -54.1504 56.6406 -48.877 60.2539 -41.748 C 60.791 -40.625 61.4258 -40.2344 62.7441 -40.2344 C 72.4609 -40.2344 79.248 -33.6914 79.248 -25.4883 C 79.248 -17.3828 72.5098 -10.8398 63.8184 -10.8398 Z"/>
  </g>
  <g id="Ultralight-S" transform="matrix(1 0 0 1 504.828 696)">
   <path d="M 21.4355 -8.20312 L 63.4766 -8.20312 C 73.7793 -8.20312 81.8359 -15.9668 81.8359 -25.7324 C 81.8359 -26.3672 81.7871 -26.9531 81.7383 -27.5391 C 96.6309 -27.7832 102.686 -38.5254 102.881 -43.2129 C 102.93 -44.2383 102.246 -44.9707 101.27 -44.9707 C 99.707 -44.9707 96.8262 -43.457 92.041 -43.457 C 82.1289 -43.457 75.9766 -49.707 75.9766 -58.6914 C 75.9766 -64.4531 77.8809 -66.0645 77.8809 -67.8223 C 77.8809 -69.2383 76.8066 -69.7754 75.2441 -69.5312 C 69.873 -68.7012 60.0098 -62.3535 60.0098 -49.8535 C 60.0098 -48.9746 60.0586 -48.0957 60.1562 -47.2656 C 55.7129 -53.3691 49.3164 -57.2266 41.0645 -57.2266 C 29.1016 -57.2266 19.2383 -47.4121 18.1641 -34.9609 C 11.8652 -33.3008 6.83594 -28.418 6.83594 -21.3867 C 6.83594 -14.209 12.3047 -8.20312 21.4355 -8.20312 Z M 62.0605 -49.9512 C 62.0605 -61.1816 70.752 -66.6504 75.6836 -67.4805 L 75.7812 -67.334 C 74.8047 -65.4785 73.9258 -62.4512 73.9258 -58.5938 C 73.9258 -48.4375 81.0059 -41.4062 91.9434 -41.4062 C 94.7754 -41.4062 98.0957 -41.9434 100.635 -42.8711 L 100.781 -42.8223 C 100.293 -38.5742 94.8242 -29.6875 81.3965 -29.6387 C 79.541 -37.3535 72.3633 -42.8223 63.1836 -43.0176 C 62.4023 -45.2148 62.0605 -47.5586 62.0605 -49.9512 Z M 21.4355 -10.3027 C 13.4277 -10.3027 8.88672 -15.2832 8.88672 -21.3867 C 8.88672 -27.0508 12.793 -31.2012 18.7988 -33.0078 C 19.8242 -33.3008 20.1172 -33.6914 20.166 -34.5215 C 20.9473 -45.8496 30.3711 -55.127 41.0645 -55.127 C 50.6348 -55.127 57.1777 -49.4141 60.791 -42.2852 C 61.2793 -41.3574 61.7676 -41.0156 62.8906 -41.0156 C 72.5098 -41.0156 79.7852 -34.2285 79.7852 -25.6348 C 79.7852 -17.1875 72.6074 -10.3027 63.4766 -10.3027 Z"/>
  </g>
 </g>
</svg>
