<?xml version="1.0" encoding="UTF-8"?>
<!--Generator: Apple Native CoreSVG 123-->
<!DOCTYPE svg
PUBLIC "-//W3C//DTD SVG 1.1//EN"
       "http://www.w3.org/Graphics/SVG/1.1/DTD/svg11.dtd">
<svg version="1.1" xmlns="http://www.w3.org/2000/svg" xmlns:xlink="http://www.w3.org/1999/xlink" width="3300" height="2200">
 <!--glyph: "uni1001D3.medium", point size: 100.000000, font version: "Version 15.0d7e11", template writer version: "5"-->
 <g id="Notes">
  <rect height="2200" id="artboard" style="fill:white;opacity:1" width="3300" x="0" y="0"/>
  <line id="" style="fill:none;stroke:black;opacity:1;stroke-width:0.5;" x1="263" x2="3036" y1="292" y2="292"/>
  <text style="stroke:none;fill:black;font-family:-apple-system,&quot;SF Pro Display&quot;,&quot;SF Pro Text&quot;,Helvetica,sans-serif;font-weight:bold;" transform="matrix(1 0 0 1 263 322)">Weight/Scale Variations</text>
  <text style="stroke:none;fill:black;font-family:-apple-system,&quot;SF Pro Display&quot;,&quot;SF Pro Text&quot;,Helvetica,sans-serif;text-anchor:middle;" transform="matrix(1 0 0 1 559.711 322)">Ultralight</text>
  <text style="stroke:none;fill:black;font-family:-apple-system,&quot;SF Pro Display&quot;,&quot;SF Pro Text&quot;,Helvetica,sans-serif;text-anchor:middle;" transform="matrix(1 0 0 1 856.422 322)">Thin</text>
  <text style="stroke:none;fill:black;font-family:-apple-system,&quot;SF Pro Display&quot;,&quot;SF Pro Text&quot;,Helvetica,sans-serif;text-anchor:middle;" transform="matrix(1 0 0 1 1153.13 322)">Light</text>
  <text style="stroke:none;fill:black;font-family:-apple-system,&quot;SF Pro Display&quot;,&quot;SF Pro Text&quot;,Helvetica,sans-serif;text-anchor:middle;" transform="matrix(1 0 0 1 1449.84 322)">Regular</text>
  <text style="stroke:none;fill:black;font-family:-apple-system,&quot;SF Pro Display&quot;,&quot;SF Pro Text&quot;,Helvetica,sans-serif;text-anchor:middle;" transform="matrix(1 0 0 1 1746.56 322)">Medium</text>
  <text style="stroke:none;fill:black;font-family:-apple-system,&quot;SF Pro Display&quot;,&quot;SF Pro Text&quot;,Helvetica,sans-serif;text-anchor:middle;" transform="matrix(1 0 0 1 2043.27 322)">Semibold</text>
  <text style="stroke:none;fill:black;font-family:-apple-system,&quot;SF Pro Display&quot;,&quot;SF Pro Text&quot;,Helvetica,sans-serif;text-anchor:middle;" transform="matrix(1 0 0 1 2339.98 322)">Bold</text>
  <text style="stroke:none;fill:black;font-family:-apple-system,&quot;SF Pro Display&quot;,&quot;SF Pro Text&quot;,Helvetica,sans-serif;text-anchor:middle;" transform="matrix(1 0 0 1 2636.69 322)">Heavy</text>
  <text style="stroke:none;fill:black;font-family:-apple-system,&quot;SF Pro Display&quot;,&quot;SF Pro Text&quot;,Helvetica,sans-serif;text-anchor:middle;" transform="matrix(1 0 0 1 2933.4 322)">Black</text>
  <line id="" style="fill:none;stroke:black;opacity:1;stroke-width:0.5;" x1="263" x2="3036" y1="1903" y2="1903"/>
  <g id="" transform="matrix(1 0 0 1 263 1933)">
   <path d="M 9.24805 0.830078 C 13.5547 0.830078 17.1387 -2.74414 17.1387 -7.05078 C 17.1387 -11.3574 13.5449 -14.9316 9.23828 -14.9316 C 4.94141 -14.9316 1.36719 -11.3574 1.36719 -7.05078 C 1.36719 -2.74414 4.95117 0.830078 9.24805 0.830078 Z M 9.24805 -0.654297 C 5.70312 -0.654297 2.87109 -3.49609 2.87109 -7.05078 C 2.87109 -10.6055 5.69336 -13.4473 9.23828 -13.4473 C 12.793 -13.4473 15.6348 -10.6055 15.6445 -7.05078 C 15.6543 -3.49609 12.8027 -0.654297 9.24805 -0.654297 Z M 9.22852 -3.42773 C 9.69727 -3.42773 9.9707 -3.74023 9.9707 -4.25781 L 9.9707 -6.31836 L 12.1973 -6.31836 C 12.6953 -6.31836 13.0371 -6.57227 13.0371 -7.04102 C 13.0371 -7.51953 12.7148 -7.7832 12.1973 -7.7832 L 9.9707 -7.7832 L 9.9707 -10.0098 C 9.9707 -10.5273 9.69727 -10.8496 9.22852 -10.8496 C 8.75977 -10.8496 8.50586 -10.5078 8.50586 -10.0098 L 8.50586 -7.7832 L 6.29883 -7.7832 C 5.78125 -7.7832 5.44922 -7.51953 5.44922 -7.04102 C 5.44922 -6.57227 5.80078 -6.31836 6.29883 -6.31836 L 8.50586 -6.31836 L 8.50586 -4.25781 C 8.50586 -3.75977 8.75977 -3.42773 9.22852 -3.42773 Z"/>
  </g>
  <g id="" transform="matrix(1 0 0 1 281.506 1933)">
   <path d="M 11.709 2.91016 C 17.1582 2.91016 21.6699 -1.60156 21.6699 -7.05078 C 21.6699 -12.4902 17.1484 -17.0117 11.6992 -17.0117 C 6.25977 -17.0117 1.74805 -12.4902 1.74805 -7.05078 C 1.74805 -1.60156 6.26953 2.91016 11.709 2.91016 Z M 11.709 1.25 C 7.09961 1.25 3.41797 -2.44141 3.41797 -7.05078 C 3.41797 -11.6504 7.08984 -15.3516 11.6992 -15.3516 C 16.3086 -15.3516 20 -11.6504 20.0098 -7.05078 C 20.0195 -2.44141 16.3184 1.25 11.709 1.25 Z M 11.6895 -2.41211 C 12.207 -2.41211 12.5195 -2.77344 12.5195 -3.33984 L 12.5195 -6.23047 L 15.5762 -6.23047 C 16.123 -6.23047 16.5039 -6.51367 16.5039 -7.03125 C 16.5039 -7.55859 16.1426 -7.86133 15.5762 -7.86133 L 12.5195 -7.86133 L 12.5195 -10.9277 C 12.5195 -11.5039 12.207 -11.8555 11.6895 -11.8555 C 11.1719 -11.8555 10.8789 -11.4844 10.8789 -10.9277 L 10.8789 -7.86133 L 7.83203 -7.86133 C 7.26562 -7.86133 6.89453 -7.55859 6.89453 -7.03125 C 6.89453 -6.51367 7.28516 -6.23047 7.83203 -6.23047 L 10.8789 -6.23047 L 10.8789 -3.33984 C 10.8789 -2.79297 11.1719 -2.41211 11.6895 -2.41211 Z"/>
  </g>
  <g id="" transform="matrix(1 0 0 1 304.924 1933)">
   <path d="M 14.9707 5.67383 C 21.9336 5.67383 27.6953 -0.078125 27.6953 -7.04102 C 27.6953 -14.0039 21.9238 -19.7559 14.9609 -19.7559 C 8.00781 -19.7559 2.25586 -14.0039 2.25586 -7.04102 C 2.25586 -0.078125 8.01758 5.67383 14.9707 5.67383 Z M 14.9707 3.85742 C 8.93555 3.85742 4.08203 -1.00586 4.08203 -7.04102 C 4.08203 -13.0762 8.92578 -17.9395 14.9609 -17.9395 C 21.0059 -17.9395 25.8594 -13.0762 25.8691 -7.04102 C 25.8789 -1.00586 21.0156 3.85742 14.9707 3.85742 Z M 14.9512 -1.06445 C 15.5176 -1.06445 15.8691 -1.45508 15.8691 -2.06055 L 15.8691 -6.13281 L 20.1074 -6.13281 C 20.6934 -6.13281 21.1133 -6.46484 21.1133 -7.02148 C 21.1133 -7.59766 20.7227 -7.93945 20.1074 -7.93945 L 15.8691 -7.93945 L 15.8691 -12.1875 C 15.8691 -12.8027 15.5176 -13.1934 14.9512 -13.1934 C 14.3848 -13.1934 14.0625 -12.7832 14.0625 -12.1875 L 14.0625 -7.93945 L 9.83398 -7.93945 C 9.21875 -7.93945 8.80859 -7.59766 8.80859 -7.02148 C 8.80859 -6.46484 9.23828 -6.13281 9.83398 -6.13281 L 14.0625 -6.13281 L 14.0625 -2.06055 C 14.0625 -1.47461 14.3848 -1.06445 14.9512 -1.06445 Z"/>
  </g>
  <text style="stroke:none;fill:black;font-family:-apple-system,&quot;SF Pro Display&quot;,&quot;SF Pro Text&quot;,Helvetica,sans-serif;font-weight:bold;" transform="matrix(1 0 0 1 263 1953)">Design Variations</text>
  <text style="stroke:none;fill:black;font-family:-apple-system,&quot;SF Pro Display&quot;,&quot;SF Pro Text&quot;,Helvetica,sans-serif;" transform="matrix(1 0 0 1 263 1971)">Symbols are supported in up to nine weights and three scales.</text>
  <text style="stroke:none;fill:black;font-family:-apple-system,&quot;SF Pro Display&quot;,&quot;SF Pro Text&quot;,Helvetica,sans-serif;" transform="matrix(1 0 0 1 263 1989)">For optimal layout with text and other symbols, vertically align</text>
  <text style="stroke:none;fill:black;font-family:-apple-system,&quot;SF Pro Display&quot;,&quot;SF Pro Text&quot;,Helvetica,sans-serif;" transform="matrix(1 0 0 1 263 2007)">symbols with the adjacent text.</text>
  <rect height="14" id="" style="fill:#00AEEF;stroke:none;opacity:0.4;" width="3" x="776" y="1919"/>
  <g id="" transform="matrix(1 0 0 1 779 1933)">
   <path d="M 10.5273 0 L 12.373 0 L 7.17773 -14.0918 L 5.43945 -14.0918 L 0.244141 0 L 2.08984 0 L 3.50586 -4.0332 L 9.11133 -4.0332 Z M 6.2793 -11.9531 L 6.33789 -11.9531 L 8.59375 -5.52734 L 4.02344 -5.52734 Z"/>
  </g>
  <rect height="14" id="" style="fill:#00AEEF;stroke:none;opacity:0.4;" width="3" x="791.617" y="1919"/>
  <text style="stroke:none;fill:black;font-family:-apple-system,&quot;SF Pro Display&quot;,&quot;SF Pro Text&quot;,Helvetica,sans-serif;font-weight:bold;" transform="matrix(1 0 0 1 776 1953)">Margins</text>
  <text style="stroke:none;fill:black;font-family:-apple-system,&quot;SF Pro Display&quot;,&quot;SF Pro Text&quot;,Helvetica,sans-serif;" transform="matrix(1 0 0 1 776 1971)">Leading and trailing margins on the left and right side of each symbol</text>
  <text style="stroke:none;fill:black;font-family:-apple-system,&quot;SF Pro Display&quot;,&quot;SF Pro Text&quot;,Helvetica,sans-serif;" transform="matrix(1 0 0 1 776 1989)">can be adjusted by modifying the width of the blue rectangles.</text>
  <text style="stroke:none;fill:black;font-family:-apple-system,&quot;SF Pro Display&quot;,&quot;SF Pro Text&quot;,Helvetica,sans-serif;" transform="matrix(1 0 0 1 776 2007)">Modifications are automatically applied proportionally to all</text>
  <text style="stroke:none;fill:black;font-family:-apple-system,&quot;SF Pro Display&quot;,&quot;SF Pro Text&quot;,Helvetica,sans-serif;" transform="matrix(1 0 0 1 776 2025)">scales and weights.</text>
  <g id="" transform="matrix(1 0 0 1 1289 1933)">
   <path d="M 2.83203 3.11523 L 4.375 4.6582 C 5.22461 5.48828 6.19141 5.41992 7.06055 4.46289 L 17.2754 -6.66016 C 17.7051 -6.36719 18.0957 -6.37695 18.5645 -6.47461 L 19.6094 -6.68945 L 20.3027 -5.99609 L 20.2539 -5.47852 C 20.1855 -4.95117 20.3516 -4.53125 20.8496 -4.0332 L 21.6602 -3.22266 C 22.168 -2.71484 22.8223 -2.68555 23.3008 -3.16406 L 26.5527 -6.41602 C 27.0312 -6.89453 27.0117 -7.54883 26.5039 -8.05664 L 25.6836 -8.87695 C 25.1855 -9.375 24.7754 -9.55078 24.2383 -9.47266 L 23.7109 -9.41406 L 23.0566 -10.0781 L 23.3398 -11.2207 C 23.4863 -11.7871 23.3398 -12.2559 22.7148 -12.8613 L 20.3027 -15.2539 C 16.7578 -18.7793 12.2266 -18.6719 9.11133 -15.5371 C 8.69141 -15.1074 8.64258 -14.5215 8.91602 -14.0918 C 9.15039 -13.7207 9.62891 -13.4961 10.2734 -13.6621 C 11.7871 -14.043 13.3008 -13.9258 14.7852 -12.9199 L 14.1602 -11.3379 C 13.9258 -10.752 13.9453 -10.2734 14.1797 -9.83398 L 3.01758 0.439453 C 2.08008 1.30859 1.97266 2.25586 2.83203 3.11523 Z M 10.6738 -15.1465 C 13.3398 -17.1387 16.6504 -16.8262 19.0527 -14.4141 L 21.6797 -11.8066 C 21.9141 -11.5723 21.9434 -11.3867 21.8848 -11.0938 L 21.5039 -9.53125 L 23.0762 -7.95898 L 24.043 -8.04688 C 24.3262 -8.07617 24.4141 -8.05664 24.6387 -7.83203 L 25.2637 -7.20703 L 22.5098 -4.46289 L 21.8848 -5.07812 C 21.6602 -5.30273 21.6406 -5.40039 21.6699 -5.68359 L 21.7578 -6.64062 L 20.1953 -8.20312 L 18.5742 -7.89062 C 18.291 -7.83203 18.1445 -7.83203 17.9102 -8.07617 L 15.7324 -10.2539 C 15.5078 -10.4883 15.4785 -10.625 15.6055 -10.9473 L 16.5527 -13.2227 C 14.9512 -14.7559 12.8418 -15.6055 10.8008 -14.9512 C 10.7129 -14.9219 10.6445 -14.9414 10.6152 -14.9805 C 10.5859 -15.0293 10.5859 -15.0781 10.6738 -15.1465 Z M 4.10156 2.41211 C 3.61328 1.91406 3.78906 1.61133 4.12109 1.30859 L 15.0781 -8.80859 L 16.3086 -7.57812 L 6.15234 3.34961 C 5.84961 3.68164 5.46875 3.7793 5.06836 3.37891 Z"/>
  </g>
  <text style="stroke:none;fill:black;font-family:-apple-system,&quot;SF Pro Display&quot;,&quot;SF Pro Text&quot;,Helvetica,sans-serif;font-weight:bold;" transform="matrix(1 0 0 1 1289 1953)">Exporting</text>
  <text style="stroke:none;fill:black;font-family:-apple-system,&quot;SF Pro Display&quot;,&quot;SF Pro Text&quot;,Helvetica,sans-serif;" transform="matrix(1 0 0 1 1289 1971)">Symbols should be outlined when exporting to ensure the</text>
  <text style="stroke:none;fill:black;font-family:-apple-system,&quot;SF Pro Display&quot;,&quot;SF Pro Text&quot;,Helvetica,sans-serif;" transform="matrix(1 0 0 1 1289 1989)">design is preserved when submitting to Xcode.</text>
  <text id="template-version" style="stroke:none;fill:black;font-family:-apple-system,&quot;SF Pro Display&quot;,&quot;SF Pro Text&quot;,Helvetica,sans-serif;text-anchor:end;" transform="matrix(1 0 0 1 3036 1933)">Template v.1.0</text>
  <text style="stroke:none;fill:black;font-family:-apple-system,&quot;SF Pro Display&quot;,&quot;SF Pro Text&quot;,Helvetica,sans-serif;text-anchor:end;" transform="matrix(1 0 0 1 3036 1951)">Generated from cloud.bolt.fill</text>
  <text style="stroke:none;fill:black;font-family:-apple-system,&quot;SF Pro Display&quot;,&quot;SF Pro Text&quot;,Helvetica,sans-serif;text-anchor:end;" transform="matrix(1 0 0 1 3036 1969)">Typeset at 100 points</text>
  <text style="stroke:none;fill:black;font-family:-apple-system,&quot;SF Pro Display&quot;,&quot;SF Pro Text&quot;,Helvetica,sans-serif;" transform="matrix(1 0 0 1 263 726)">Small</text>
  <text style="stroke:none;fill:black;font-family:-apple-system,&quot;SF Pro Display&quot;,&quot;SF Pro Text&quot;,Helvetica,sans-serif;" transform="matrix(1 0 0 1 263 1156)">Medium</text>
  <text style="stroke:none;fill:black;font-family:-apple-system,&quot;SF Pro Display&quot;,&quot;SF Pro Text&quot;,Helvetica,sans-serif;" transform="matrix(1 0 0 1 263 1586)">Large</text>
 </g>
 <g id="Guides">
  <g id="H-reference" style="fill:#27AAE1;stroke:none;" transform="matrix(1 0 0 1 339 696)">
   <path d="M 54.9316 0 L 57.666 0 L 30.5664 -70.459 L 28.0762 -70.459 L 0.976562 0 L 3.66211 0 L 12.9395 -24.4629 L 45.7031 -24.4629 Z M 29.1992 -67.0898 L 29.4434 -67.0898 L 44.8242 -26.709 L 13.8184 -26.709 Z"/>
  </g>
  <line id="Baseline-S" style="fill:none;stroke:#27AAE1;opacity:1;stroke-width:0.577;" x1="263" x2="3036" y1="696" y2="696"/>
  <line id="Capline-S" style="fill:none;stroke:#27AAE1;opacity:1;stroke-width:0.577;" x1="263" x2="3036" y1="625.541" y2="625.541"/>
  <g id="H-reference" style="fill:#27AAE1;stroke:none;" transform="matrix(1 0 0 1 339 1126)">
   <path d="M 54.9316 0 L 57.666 0 L 30.5664 -70.459 L 28.0762 -70.459 L 0.976562 0 L 3.66211 0 L 12.9395 -24.4629 L 45.7031 -24.4629 Z M 29.1992 -67.0898 L 29.4434 -67.0898 L 44.8242 -26.709 L 13.8184 -26.709 Z"/>
  </g>
  <line id="Baseline-M" style="fill:none;stroke:#27AAE1;opacity:1;stroke-width:0.577;" x1="263" x2="3036" y1="1126" y2="1126"/>
  <line id="Capline-M" style="fill:none;stroke:#27AAE1;opacity:1;stroke-width:0.577;" x1="263" x2="3036" y1="1055.54" y2="1055.54"/>
  <g id="H-reference" style="fill:#27AAE1;stroke:none;" transform="matrix(1 0 0 1 339 1556)">
   <path d="M 54.9316 0 L 57.666 0 L 30.5664 -70.459 L 28.0762 -70.459 L 0.976562 0 L 3.66211 0 L 12.9395 -24.4629 L 45.7031 -24.4629 Z M 29.1992 -67.0898 L 29.4434 -67.0898 L 44.8242 -26.709 L 13.8184 -26.709 Z"/>
  </g>
  <line id="Baseline-L" style="fill:none;stroke:#27AAE1;opacity:1;stroke-width:0.577;" x1="263" x2="3036" y1="1556" y2="1556"/>
  <line id="Capline-L" style="fill:none;stroke:#27AAE1;opacity:1;stroke-width:0.577;" x1="263" x2="3036" y1="1485.54" y2="1485.54"/>
  <rect height="119.336" id="left-margin" style="fill:#00AEEF;stroke:none;opacity:0.4;" width="8.74023" x="1385.86" y="1030.79"/>
  <rect height="119.336" id="right-margin" style="fill:#00AEEF;stroke:none;opacity:0.4;" width="8.74023" x="1505.09" y="1030.79"/>
 </g>
 <g id="Symbols">
  <g id="Black-L" transform="matrix(1 0 0 1 2846.24 1556)">
   <path d="M 44.4824 -0.341797 L 123.926 -0.341797 C 146.045 -0.341797 163.037 -17.0898 163.037 -38.8184 C 163.037 -60.8887 145.898 -77.6367 123.486 -77.4902 C 115.039 -93.8477 100.195 -102.686 80.9082 -102.686 C 56.1523 -102.686 35.8398 -85.0098 32.5195 -60.6445 C 20.0684 -56.4453 11.2793 -45.7031 11.2793 -31.5918 C 11.2793 -13.3789 25.0488 -0.341797 44.4824 -0.341797 Z M 108.008 21.4844 L 93.1641 21.4844 L 98.3398 11.5234 C 99.0723 10.1562 98.4863 9.08203 97.0703 9.08203 L 77.9297 9.08203 C 76.123 9.08203 75.4883 9.7168 74.9023 11.084 L 65.625 32.1777 C 64.9902 33.7402 65.5762 34.7656 67.2363 34.7656 L 79.3945 34.7656 L 71.0938 54.834 C 70.7031 55.7129 70.9473 56.3965 71.4844 56.6406 C 72.0703 56.8848 72.7539 56.7383 73.4863 56.1035 L 108.936 24.7559 C 110.449 23.4863 109.912 21.4844 108.008 21.4844 Z"/>
  </g>
  <g id="Heavy-L" transform="matrix(1 0 0 1 2550.68 1556)">
   <path d="M 43.3594 -1.80664 L 122.559 -1.80664 C 144.141 -1.80664 160.742 -18.1152 160.742 -39.209 C 160.742 -60.6445 143.848 -76.8555 121.729 -76.709 C 113.379 -93.1152 98.584 -102.051 79.6875 -102.051 C 55.3711 -102.051 35.2539 -84.1797 32.3242 -60.0586 C 19.873 -56.0547 11.2793 -45.459 11.2793 -31.7383 C 11.2793 -14.2578 24.5117 -1.80664 43.3594 -1.80664 Z M 105.029 20.8496 L 90.7715 20.8496 L 96.3379 10.2539 C 97.0703 8.88672 96.4844 7.76367 95.0684 7.76367 L 77.7344 7.76367 C 75.8789 7.76367 75.2441 8.39844 74.707 9.76562 L 65.5762 30.5664 C 64.8926 32.0801 65.5273 33.1055 67.1875 33.1055 L 78.9062 33.1055 L 70.5078 53.418 C 70.166 54.248 70.3613 54.9805 70.9473 55.2246 C 71.4844 55.4688 72.2168 55.3223 72.9004 54.6387 L 106.006 24.1211 C 107.471 22.7539 106.934 20.8496 105.029 20.8496 Z"/>
  </g>
  <g id="Bold-L" transform="matrix(1 0 0 1 2255.29 1556)">
   <path d="M 42.0898 -3.4668 L 121.045 -3.4668 C 141.992 -3.4668 158.105 -19.2871 158.105 -39.6973 C 158.105 -60.3516 141.553 -75.9277 119.775 -75.7812 C 111.523 -92.2363 96.7773 -101.318 78.3691 -101.318 C 54.4922 -101.318 34.668 -83.3008 32.0801 -59.375 C 19.6777 -55.6152 11.2793 -45.166 11.2793 -31.9824 C 11.2793 -15.2344 23.9258 -3.4668 42.0898 -3.4668 Z M 101.709 20.166 L 88.1348 20.166 L 94.0918 8.78906 C 94.8242 7.42188 94.2383 6.29883 92.8223 6.29883 L 77.4902 6.29883 C 75.6348 6.29883 75 6.93359 74.4629 8.30078 L 65.4785 28.7109 C 64.8438 30.2734 65.4785 31.25 67.1387 31.25 L 78.3691 31.25 L 69.873 51.8066 C 69.5312 52.6855 69.7266 53.3691 70.3125 53.6133 C 70.8984 53.8574 71.582 53.7109 72.2656 52.9785 L 102.734 23.3398 C 104.102 21.9727 103.564 20.166 101.709 20.166 Z"/>
  </g>
  <g id="Semibold-L" transform="matrix(1 0 0 1 1959.45 1556)">
   <path d="M 41.2109 -4.58984 L 120.02 -4.58984 C 140.527 -4.58984 156.348 -20.0684 156.348 -39.9902 C 156.348 -60.1562 139.99 -75.3418 118.457 -75.1465 C 110.205 -91.6504 95.5566 -100.83 77.4414 -100.83 C 53.8574 -100.83 34.2285 -82.7148 31.9336 -58.9355 C 19.5312 -55.3223 11.2793 -44.9707 11.2793 -32.1289 C 11.2793 -15.918 23.5352 -4.58984 41.2109 -4.58984 Z M 99.4141 19.6777 L 86.3281 19.6777 L 92.5293 7.76367 C 93.2617 6.39648 92.7246 5.32227 91.3086 5.32227 L 77.2949 5.32227 C 75.4883 5.32227 74.8535 5.95703 74.2676 7.27539 L 65.4297 27.4414 C 64.7461 29.0039 65.4297 29.9805 67.0898 29.9805 L 77.9785 29.9805 L 69.4336 50.6836 C 69.0918 51.5625 69.2871 52.2949 69.873 52.5391 C 70.459 52.7832 71.1426 52.5879 71.8262 51.8555 L 100.439 22.8027 C 101.807 21.4355 101.27 19.6777 99.4141 19.6777 Z"/>
  </g>
  <g id="Medium-L" transform="matrix(1 0 0 1 1663.43 1556)">
   <path d="M 40.5762 -5.46875 L 119.238 -5.46875 C 139.404 -5.46875 154.98 -20.6543 154.98 -40.2344 C 154.98 -60.0098 138.818 -74.8535 117.432 -74.707 C 109.229 -91.2109 94.5801 -100.439 76.709 -100.439 C 53.418 -100.439 33.8867 -82.2266 31.8359 -58.5938 C 19.4336 -55.127 11.2793 -44.8242 11.2793 -32.2266 C 11.2793 -16.4062 23.1934 -5.46875 40.5762 -5.46875 Z M 97.6562 19.2871 L 84.9609 19.2871 L 91.3574 6.98242 C 92.0898 5.61523 91.5039 4.54102 90.1367 4.54102 L 77.1484 4.54102 C 75.3418 4.54102 74.707 5.17578 74.1699 6.49414 L 65.3809 26.4648 C 64.6973 28.0273 65.4297 29.0039 67.0898 29.0039 L 77.6855 29.0039 L 69.0918 49.8535 C 68.75 50.7324 68.9453 51.4648 69.5312 51.709 C 70.1172 51.9531 70.8496 51.7578 71.4844 51.0254 L 98.7305 22.4121 C 100.049 21.0449 99.5117 19.2871 97.6562 19.2871 Z"/>
  </g>
  <g id="Regular-L" transform="matrix(1 0 0 1 1367.62 1556)">
   <path d="M 39.6973 -6.5918 L 118.164 -6.5918 C 137.939 -6.5918 153.174 -21.4844 153.174 -40.5273 C 153.174 -59.8145 137.256 -74.2188 116.113 -74.0723 C 107.959 -90.625 93.3594 -99.9512 75.7812 -99.9512 C 52.7832 -99.9512 33.4473 -81.6406 31.6895 -58.1543 C 19.2871 -54.834 11.2793 -44.6289 11.2793 -32.373 C 11.2793 -17.0898 22.8027 -6.5918 39.6973 -6.5918 Z M 95.4102 18.7988 L 83.1543 18.7988 L 89.8438 6.00586 C 90.5762 4.63867 89.9902 3.56445 88.623 3.56445 L 77.002 3.56445 C 75.1953 3.56445 74.5605 4.19922 73.9746 5.51758 L 65.332 25.1953 C 64.6484 26.8066 65.4297 27.7344 67.041 27.7344 L 77.3438 27.7344 L 68.6523 48.7793 C 68.3105 49.6094 68.5059 50.3418 69.0918 50.5859 C 69.6777 50.8301 70.4102 50.6348 71.0449 49.9023 L 96.4844 21.9238 C 97.7539 20.5078 97.2168 18.7988 95.4102 18.7988 Z"/>
  </g>
  <g id="Light-L" transform="matrix(1 0 0 1 1071.35 1556)">
   <path d="M 38.9648 -7.8125 L 117.822 -7.8125 C 137.207 -7.8125 152.295 -22.3633 152.295 -41.0156 C 152.295 -59.8633 136.523 -73.9746 115.723 -73.8281 C 107.52 -90.8203 93.1641 -100.049 75.4395 -100.049 C 52.832 -100.049 33.7891 -81.7871 32.0312 -58.252 C 19.4336 -54.9805 11.2793 -44.9707 11.2793 -32.8613 C 11.2793 -18.0664 22.5098 -7.8125 38.9648 -7.8125 Z M 92.2363 19.1406 L 80.9082 19.1406 L 88.2324 5.07812 C 88.9648 3.71094 88.4277 2.63672 87.0117 2.63672 L 78.1738 2.63672 C 76.3672 2.63672 75.7324 3.27148 75.1465 4.58984 L 66.4551 24.4629 C 65.7715 26.123 66.6016 27.002 68.2129 27.002 L 77.6367 27.002 L 68.8965 48.291 C 68.5059 49.1699 68.75 49.9023 69.3359 50.1465 C 69.9707 50.3906 70.7031 50.1953 71.3379 49.4141 L 93.457 22.168 C 94.6289 20.752 94.043 19.1406 92.2363 19.1406 Z"/>
  </g>
  <g id="Thin-L" transform="matrix(1 0 0 1 775.245 1556)">
   <path d="M 37.9883 -9.42383 L 117.334 -9.42383 C 136.279 -9.42383 151.074 -23.584 151.074 -41.6992 C 151.074 -59.9609 135.596 -73.6328 115.234 -73.4863 C 106.885 -91.0156 92.9199 -100.195 74.9512 -100.195 C 52.832 -100.195 34.2285 -81.9336 32.5195 -58.3984 C 19.5801 -55.1758 11.2793 -45.3613 11.2793 -33.4961 C 11.2793 -19.3359 22.168 -9.42383 37.9883 -9.42383 Z M 88.0859 19.5312 L 77.9785 19.5312 L 86.1328 3.90625 C 86.8652 2.53906 86.3281 1.41602 84.8633 1.41602 L 79.7852 1.41602 C 77.9297 1.41602 77.2949 2.05078 76.709 3.41797 L 67.9199 23.5352 C 67.1875 25.1953 68.2129 26.0742 69.7266 26.0742 L 78.0273 26.0742 L 69.1895 47.6562 C 68.7988 48.584 69.043 49.3164 69.6777 49.5605 C 70.3125 49.8047 71.0938 49.5605 71.6797 48.7305 L 89.4531 22.4609 C 90.4785 21.0449 89.8438 19.5312 88.0859 19.5312 Z"/>
  </g>
  <g id="Ultralight-L" transform="matrix(1 0 0 1 478.852 1556)">
   <path d="M 37.5 -10.2539 L 117.09 -10.2539 C 135.791 -10.2539 150.439 -24.2188 150.439 -42.041 C 150.439 -59.9609 135.156 -73.4863 114.99 -73.291 C 106.592 -91.1133 92.7734 -100.293 74.707 -100.293 C 52.8809 -100.293 34.4727 -82.0312 32.8125 -58.4473 C 19.6777 -55.2734 11.2793 -45.6055 11.2793 -33.8379 C 11.2793 -19.9707 21.9727 -10.2539 37.5 -10.2539 Z M 85.9375 19.7754 L 76.4648 19.7754 L 85.0586 3.27148 C 85.791 1.9043 85.2051 0.78125 83.7891 0.78125 L 80.6152 0.78125 C 78.7598 0.78125 78.0762 1.41602 77.5391 2.7832 L 68.6523 23.0469 C 67.9199 24.7559 68.9941 25.6348 70.5078 25.6348 L 78.2227 25.6348 L 69.3359 47.3145 C 68.9453 48.291 69.1895 49.0234 69.8242 49.2676 C 70.459 49.5117 71.2891 49.2676 71.8262 48.3398 L 87.4023 22.6074 C 88.3301 21.1914 87.6953 19.7754 85.9375 19.7754 Z"/>
  </g>
  <g id="Black-M" transform="matrix(1 0 0 1 2864.53 1126)">
   <path d="M 35.5469 -6.83594 L 97.7051 -6.83594 C 115.381 -6.83594 129.004 -20.3125 129.004 -37.7441 C 129.004 -55.4688 115.43 -69.043 97.8516 -68.9453 C 91.1621 -81.7871 79.6875 -88.4277 64.1602 -88.4277 C 44.5801 -88.4277 28.7109 -74.9512 25.6836 -55.7617 C 15.8691 -52.2461 8.74023 -43.8477 8.74023 -32.373 C 8.74023 -17.627 20.0195 -6.83594 35.5469 -6.83594 Z M 86.0352 9.76562 L 74.1699 9.76562 L 78.0762 2.29492 C 78.6133 1.2207 78.1738 0.390625 77.0508 0.390625 L 61.377 0.390625 C 59.9121 0.390625 59.4238 0.878906 58.9844 1.9043 L 51.5625 18.8477 C 51.0742 20.0684 51.4648 20.8496 52.7832 20.8496 L 62.3535 20.8496 L 56.0059 36.2305 C 55.6641 36.9141 55.8594 37.5 56.2988 37.6953 C 56.7383 37.8418 57.3242 37.7441 57.8613 37.2559 L 86.7676 12.3047 C 87.9395 11.3281 87.5 9.76562 86.0352 9.76562 Z"/>
  </g>
  <g id="Heavy-M" transform="matrix(1 0 0 1 2568.96 1126)">
   <path d="M 34.5215 -8.1543 L 96.2891 -8.1543 C 113.477 -8.1543 126.709 -21.1914 126.709 -38.0371 C 126.709 -55.1758 113.379 -68.2617 96.0449 -68.1152 C 89.4531 -80.9082 77.9785 -87.6953 62.9395 -87.6953 C 43.75 -87.6953 27.9785 -74.0234 25.3418 -55.0781 C 15.625 -51.8066 8.74023 -43.5059 8.74023 -32.4707 C 8.74023 -18.3594 19.4824 -8.1543 34.5215 -8.1543 Z M 83.5938 8.98438 L 72.168 8.98438 L 76.2695 1.12305 C 76.8555 0.0488281 76.416 -0.830078 75.293 -0.830078 L 60.791 -0.830078 C 59.375 -0.830078 58.8867 -0.341797 58.4473 0.732422 L 51.1719 17.2363 C 50.6836 18.457 51.123 19.2383 52.4414 19.2383 L 61.7188 19.2383 L 55.3223 34.8145 C 55.0293 35.498 55.1758 36.0352 55.6152 36.2305 C 56.0547 36.4258 56.5918 36.2793 57.1777 35.791 L 84.375 11.5234 C 85.498 10.498 85.0586 8.98438 83.5938 8.98438 Z"/>
  </g>
  <g id="Bold-M" transform="matrix(1 0 0 1 2273.55 1126)">
   <path d="M 33.3984 -9.61914 L 94.7266 -9.61914 C 111.328 -9.61914 124.121 -22.168 124.121 -38.3789 C 124.121 -54.8828 111.084 -67.334 93.9941 -67.1875 C 87.5488 -79.9316 76.0742 -86.8652 61.5234 -86.8652 C 42.7734 -86.8652 27.2461 -73.0469 25 -54.3457 C 15.3809 -51.3184 8.74023 -43.1152 8.74023 -32.5684 C 8.74023 -19.1406 18.8965 -9.61914 33.3984 -9.61914 Z M 80.8594 8.10547 L 69.9219 8.10547 L 74.3164 -0.244141 C 74.8535 -1.26953 74.4141 -2.14844 73.3398 -2.14844 L 60.1562 -2.14844 C 58.7402 -2.14844 58.252 -1.66016 57.8125 -0.585938 L 50.7812 15.4297 C 50.293 16.6504 50.7324 17.4316 52.0508 17.4316 L 61.0352 17.4316 L 54.541 33.2031 C 54.248 33.8379 54.3945 34.4238 54.8828 34.6191 C 55.3223 34.8145 55.8594 34.668 56.3965 34.1309 L 81.6406 10.5957 C 82.7637 9.57031 82.3242 8.10547 80.8594 8.10547 Z"/>
  </g>
  <g id="Semibold-M" transform="matrix(1 0 0 1 1977.71 1126)">
   <path d="M 32.5684 -10.5957 L 93.6523 -10.5957 C 109.863 -10.5957 122.363 -22.8516 122.363 -38.623 C 122.363 -54.6387 109.521 -66.6992 92.627 -66.6016 C 86.2305 -79.248 74.7559 -86.3281 60.5957 -86.3281 C 42.0898 -86.3281 26.709 -72.3145 24.7559 -53.8086 C 15.1855 -50.9277 8.74023 -42.8223 8.74023 -32.6172 C 8.74023 -19.6777 18.5059 -10.5957 32.5684 -10.5957 Z M 79.0039 7.51953 L 68.4082 7.51953 L 72.9492 -1.17188 C 73.4863 -2.19727 73.0469 -3.07617 71.9727 -3.07617 L 59.7168 -3.07617 C 58.3496 -3.07617 57.8125 -2.53906 57.4219 -1.51367 L 50.4883 14.209 C 50 15.3809 50.4883 16.1621 51.7578 16.1621 L 60.5957 16.1621 L 54.0039 32.0801 C 53.7109 32.7637 53.9062 33.3008 54.3457 33.4961 C 54.7852 33.6914 55.3223 33.5449 55.8594 33.0078 L 79.7852 10.0098 C 80.8594 8.93555 80.4688 7.51953 79.0039 7.51953 Z"/>
  </g>
  <g id="Medium-M" transform="matrix(1 0 0 1 1681.69 1126)">
   <path d="M 31.9824 -11.377 L 92.8711 -11.377 C 108.74 -11.377 120.996 -23.3398 120.996 -38.8184 C 120.996 -54.4922 108.301 -66.2109 91.5527 -66.1133 C 85.2539 -78.7598 73.7793 -85.8887 59.8633 -85.8887 C 41.6016 -85.8887 26.2695 -71.8262 24.5605 -53.418 C 15.0391 -50.6836 8.74023 -42.627 8.74023 -32.666 C 8.74023 -20.0684 18.2129 -11.377 31.9824 -11.377 Z M 77.5879 7.08008 L 67.2363 7.08008 L 71.875 -1.85547 C 72.4609 -2.92969 72.0215 -3.75977 70.9473 -3.75977 L 59.4238 -3.75977 C 58.0078 -3.75977 57.5195 -3.27148 57.0801 -2.24609 L 50.293 13.2324 C 49.7559 14.4531 50.293 15.1855 51.5625 15.1855 L 60.2051 15.1855 L 53.6133 31.25 C 53.3203 31.8848 53.4668 32.4707 53.9551 32.666 C 54.3945 32.8125 54.9316 32.7148 55.4688 32.1777 L 78.3691 9.52148 C 79.4434 8.44727 79.0039 7.08008 77.5879 7.08008 Z"/>
  </g>
  <g id="Regular-M" transform="matrix(1 0 0 1 1385.86 1126)">
   <path d="M 31.2012 -12.3535 L 91.7969 -12.3535 C 107.324 -12.3535 119.238 -24.0234 119.238 -39.0625 C 119.238 -54.248 106.738 -65.625 90.1855 -65.4785 C 83.9355 -78.0762 72.4609 -85.3027 58.9355 -85.3027 C 40.918 -85.3027 25.7324 -71.1426 24.3652 -52.9297 C 14.8926 -50.3418 8.74023 -42.334 8.74023 -32.7637 C 8.74023 -20.6543 17.8223 -12.3535 31.2012 -12.3535 Z M 75.7324 6.49414 L 65.7227 6.49414 L 70.5078 -2.7832 C 71.0938 -3.80859 70.6543 -4.63867 69.5801 -4.63867 L 58.9844 -4.63867 C 57.6172 -4.63867 57.0801 -4.15039 56.6406 -3.125 L 50 12.0117 C 49.5117 13.2324 50 13.9648 51.2695 13.9648 L 59.7656 13.9648 L 53.0762 30.127 C 52.832 30.8105 52.9785 31.3477 53.418 31.543 C 53.8574 31.7383 54.3945 31.5918 54.9316 31.0547 L 76.5137 8.93555 C 77.5391 7.86133 77.1484 6.49414 75.7324 6.49414 Z"/>
  </g>
  <g id="Light-M" transform="matrix(1 0 0 1 1089.56 1126)">
   <path d="M 30.5176 -13.4277 L 91.4551 -13.4277 C 106.641 -13.4277 118.408 -24.8535 118.408 -39.502 C 118.408 -54.2969 106.152 -65.3809 89.8438 -65.2344 C 83.5449 -78.2227 72.3145 -85.4492 58.6426 -85.4492 C 40.918 -85.4492 26.0254 -71.2402 24.6582 -53.0273 C 14.9902 -50.4395 8.74023 -42.627 8.74023 -33.1543 C 8.74023 -21.4844 17.5781 -13.4277 30.5176 -13.4277 Z M 72.9004 6.73828 L 63.7207 6.73828 L 69.0918 -3.56445 C 69.6777 -4.63867 69.2383 -5.46875 68.1152 -5.46875 L 60.0586 -5.46875 C 58.6426 -5.46875 58.1543 -4.98047 57.7148 -3.95508 L 50.9766 11.377 C 50.4883 12.5977 51.0742 13.3301 52.3438 13.3301 L 60.0098 13.3301 L 53.2715 29.6875 C 53.0273 30.3711 53.1738 30.957 53.6133 31.1523 C 54.1016 31.3477 54.6387 31.1523 55.1758 30.5664 L 73.7793 9.13086 C 74.7559 8.05664 74.3164 6.73828 72.9004 6.73828 Z"/>
  </g>
  <g id="Thin-M" transform="matrix(1 0 0 1 793.385 1126)">
   <path d="M 29.6387 -14.8926 L 91.0156 -14.8926 C 105.811 -14.8926 117.334 -25.9766 117.334 -40.0879 C 117.334 -54.3457 105.322 -65.0879 89.4043 -64.9414 C 82.959 -78.418 72.0703 -85.5469 58.2031 -85.5469 C 40.9668 -85.5469 26.4648 -71.3867 25.0977 -53.125 C 15.1367 -50.6348 8.74023 -43.0176 8.74023 -33.7402 C 8.74023 -22.6562 17.2363 -14.8926 29.6387 -14.8926 Z M 69.1406 7.12891 L 61.0352 7.12891 L 67.2363 -4.63867 C 67.7734 -5.71289 67.334 -6.5918 66.2109 -6.5918 L 61.4746 -6.5918 C 60.0586 -6.5918 59.5703 -6.05469 59.1309 -5.0293 L 52.2949 10.498 C 51.7578 11.8164 52.4902 12.5 53.7109 12.5 L 60.4004 12.5 L 53.5645 29.1504 C 53.2715 29.8828 53.418 30.4199 53.9062 30.6152 C 54.3945 30.8105 55.0293 30.6152 55.4688 29.9805 L 70.2148 9.42383 C 70.9961 8.30078 70.5078 7.12891 69.1406 7.12891 Z"/>
  </g>
  <g id="Ultralight-M" transform="matrix(1 0 0 1 496.967 1126)">
   <path d="M 29.1992 -15.625 L 90.8203 -15.625 C 105.371 -15.625 116.748 -26.5137 116.748 -40.3809 C 116.748 -54.3945 104.883 -64.8926 89.1602 -64.7949 C 82.7148 -78.5156 71.9238 -85.6445 57.959 -85.6445 C 40.9668 -85.6445 26.6602 -71.4844 25.3418 -53.2227 C 15.2344 -50.7324 8.74023 -43.2129 8.74023 -34.0332 C 8.74023 -23.1934 17.0898 -15.625 29.1992 -15.625 Z M 67.2363 7.32422 L 59.7168 7.32422 L 66.2598 -5.22461 C 66.7969 -6.25 66.3574 -7.12891 65.2344 -7.12891 L 62.207 -7.12891 C 60.791 -7.12891 60.3027 -6.64062 59.8633 -5.56641 L 52.9785 10.0586 C 52.4414 11.377 53.2227 12.0605 54.4434 12.0605 L 60.5469 12.0605 L 53.7109 28.8574 C 53.3691 29.5898 53.5645 30.1758 54.0527 30.3223 C 54.541 30.5176 55.1758 30.3223 55.6152 29.6387 L 68.3594 9.57031 C 69.0918 8.44727 68.6035 7.32422 67.2363 7.32422 Z"/>
  </g>
  <g id="Black-S" transform="matrix(1 0 0 1 2879.54 696)">
   <path d="M 27.7832 -13.0859 L 76.416 -13.0859 C 90.2344 -13.0859 100.879 -23.584 100.879 -37.207 C 100.879 -51.0742 90.2832 -61.6699 76.5137 -61.5723 C 71.2891 -71.6309 62.3047 -76.8555 50.1465 -76.8555 C 34.8633 -76.8555 22.4121 -66.2598 20.0684 -51.2695 C 12.4023 -48.5352 6.83594 -41.9434 6.83594 -33.0078 C 6.83594 -21.4844 15.625 -13.0859 27.7832 -13.0859 Z M 67.2363 -0.0488281 L 57.959 -0.0488281 L 61.0352 -5.9082 C 61.4746 -6.73828 61.1328 -7.42188 60.2539 -7.42188 L 47.998 -7.42188 C 46.875 -7.42188 46.4844 -7.03125 46.1426 -6.20117 L 40.332 7.03125 C 39.9414 7.95898 40.2832 8.59375 41.3086 8.59375 L 48.7793 8.59375 L 43.7988 20.6543 C 43.5547 21.1914 43.7012 21.6309 44.043 21.7773 C 44.3848 21.9238 44.8242 21.8262 45.2637 21.4355 L 67.8223 1.95312 C 68.75 1.17188 68.4082 -0.0488281 67.2363 -0.0488281 Z"/>
  </g>
  <g id="Heavy-S" transform="matrix(1 0 0 1 2583.66 696)">
   <path d="M 27.0508 -13.9648 L 75.3906 -13.9648 C 88.8672 -13.9648 99.2188 -24.1699 99.2188 -37.4023 C 99.2188 -50.8301 88.7695 -61.084 75.1465 -60.9863 C 70.0195 -70.9473 61.0352 -76.2695 49.2676 -76.2695 C 34.1797 -76.2695 21.8262 -65.5762 19.7754 -50.7324 C 12.207 -48.1934 6.83594 -41.6504 6.83594 -33.0078 C 6.83594 -21.9238 15.2344 -13.9648 27.0508 -13.9648 Z M 65.6738 -0.683594 L 56.6895 -0.683594 L 59.8145 -6.73828 C 60.2539 -7.56836 59.9121 -8.25195 59.082 -8.25195 L 47.4609 -8.25195 C 46.3379 -8.25195 45.9473 -7.86133 45.6055 -7.03125 L 39.9414 5.85938 C 39.5508 6.78711 39.8926 7.42188 40.918 7.42188 L 48.291 7.42188 L 43.2617 19.5801 C 43.0176 20.1172 43.1641 20.5566 43.5059 20.7031 C 43.8477 20.8496 44.2871 20.752 44.7266 20.3613 L 66.2598 1.31836 C 67.1875 0.537109 66.8457 -0.683594 65.6738 -0.683594 Z"/>
  </g>
  <g id="Bold-S" transform="matrix(1 0 0 1 2287.88 696)">
   <path d="M 26.2695 -14.9414 L 74.2188 -14.9414 C 87.3047 -14.9414 97.3633 -24.8047 97.3633 -37.5977 C 97.3633 -50.5859 87.1094 -60.4004 73.6328 -60.3027 C 68.6035 -70.166 59.5703 -75.6348 48.2422 -75.6348 C 33.4473 -75.6348 21.1914 -64.7949 19.4824 -50.1465 C 12.0117 -47.7539 6.83594 -41.3086 6.83594 -33.0566 C 6.83594 -22.4121 14.8438 -14.9414 26.2695 -14.9414 Z M 63.9648 -1.36719 L 55.2246 -1.36719 L 58.4961 -7.66602 C 58.9355 -8.49609 58.5938 -9.13086 57.7148 -9.13086 L 46.8262 -9.13086 C 45.752 -9.13086 45.3613 -8.74023 45.0195 -7.95898 L 39.502 4.54102 C 39.1113 5.51758 39.4531 6.10352 40.4785 6.10352 L 47.7051 6.10352 L 42.627 18.4082 C 42.4316 18.9453 42.5293 19.3848 42.8711 19.5312 C 43.2129 19.6777 43.6523 19.5801 44.0918 19.1895 L 64.5508 0.585938 C 65.4297 -0.195312 65.0879 -1.36719 63.9648 -1.36719 Z"/>
  </g>
  <g id="Semibold-S" transform="matrix(1 0 0 1 1991.83 696)">
   <path d="M 25.7324 -15.5762 L 73.4375 -15.5762 C 86.2305 -15.5762 96.0449 -25.293 96.0449 -37.7441 C 96.0449 -50.3906 85.9375 -59.9609 72.6074 -59.8633 C 67.627 -69.6289 58.5938 -75.1953 47.5586 -75.1953 C 32.9102 -75.1953 20.8008 -64.2578 19.2871 -49.7559 C 11.8652 -47.4609 6.83594 -41.0645 6.83594 -33.0566 C 6.83594 -22.7539 14.5508 -15.5762 25.7324 -15.5762 Z M 62.793 -1.85547 L 54.1992 -1.85547 L 57.5684 -8.30078 C 58.0078 -9.13086 57.666 -9.76562 56.7871 -9.76562 L 46.4355 -9.76562 C 45.3125 -9.76562 44.9219 -9.375 44.5801 -8.59375 L 39.209 3.66211 C 38.8184 4.58984 39.1602 5.17578 40.1855 5.17578 L 47.3633 5.17578 L 42.2363 17.627 C 41.9922 18.1152 42.1387 18.5547 42.4805 18.7012 C 42.8223 18.8477 43.2129 18.75 43.6523 18.3594 L 63.3301 0.0976562 C 64.209 -0.683594 63.916 -1.85547 62.793 -1.85547 Z"/>
  </g>
  <g id="Medium-S" transform="matrix(1 0 0 1 1695.6 696)">
   <path d="M 25.293 -16.1133 L 72.8516 -16.1133 C 85.4492 -16.1133 95.0684 -25.6348 95.0684 -37.8418 C 95.0684 -50.293 85.0586 -59.6191 71.8262 -59.5215 C 66.8945 -69.2383 57.8613 -74.8535 47.0215 -74.8535 C 32.5195 -74.8535 20.459 -63.8184 19.0918 -49.4629 C 11.7188 -47.2656 6.83594 -40.918 6.83594 -33.0566 C 6.83594 -23.0469 14.3555 -16.1133 25.293 -16.1133 Z M 61.8652 -2.19727 L 53.418 -2.19727 L 56.8359 -8.78906 C 57.2754 -9.61914 56.9336 -10.2539 56.1035 -10.2539 L 46.0938 -10.2539 C 45.0195 -10.2539 44.6289 -9.86328 44.2871 -9.08203 L 38.9648 2.97852 C 38.5742 3.90625 38.916 4.49219 39.9414 4.49219 L 47.0703 4.49219 L 41.8945 16.9922 C 41.6992 17.4805 41.7969 17.9199 42.1387 18.0664 C 42.4805 18.2129 42.9199 18.1152 43.3105 17.7246 L 62.4512 -0.244141 C 63.3301 -1.07422 62.9883 -2.19727 61.8652 -2.19727 Z"/>
  </g>
  <g id="Regular-S" transform="matrix(1 0 0 1 1399.53 696)">
   <path d="M 24.7559 -16.748 L 72.0703 -16.748 C 84.375 -16.748 93.7988 -26.0742 93.7988 -37.9883 C 93.7988 -50.0977 83.9355 -59.1309 70.8008 -59.0332 C 65.9668 -68.7012 56.8359 -74.4141 46.3379 -74.4141 C 32.0312 -74.4141 20.0195 -63.2812 18.8965 -49.0234 C 11.5723 -46.9727 6.83594 -40.6738 6.83594 -33.0566 C 6.83594 -23.3887 14.0625 -16.748 24.7559 -16.748 Z M 60.6934 -2.68555 L 52.4414 -2.68555 L 55.9082 -9.42383 C 56.3477 -10.2539 56.0059 -10.8887 55.1758 -10.8887 L 45.6543 -10.8887 C 44.5801 -10.8887 44.1895 -10.498 43.8477 -9.7168 L 38.6719 2.09961 C 38.2812 3.02734 38.623 3.61328 39.6484 3.61328 L 46.6797 3.61328 L 41.5039 16.2109 C 41.3086 16.6992 41.4062 17.1387 41.748 17.2852 C 42.0898 17.4316 42.4805 17.334 42.9199 16.9434 L 61.2305 -0.732422 C 62.1094 -1.5625 61.8164 -2.68555 60.6934 -2.68555 Z"/>
  </g>
  <g id="Light-S" transform="matrix(1 0 0 1 1103.18 696)">
   <path d="M 24.1699 -17.7246 L 71.7773 -17.7246 C 83.7891 -17.7246 93.0664 -26.8066 93.0664 -38.4277 C 93.0664 -50.1465 83.3984 -58.9355 70.5078 -58.8379 C 65.5762 -68.8477 56.6895 -74.5117 46.0449 -74.5117 C 32.0312 -74.5117 20.2637 -63.3789 19.1895 -49.1211 C 11.6699 -47.1191 6.83594 -40.918 6.83594 -33.4473 C 6.83594 -24.1211 13.8672 -17.7246 24.1699 -17.7246 Z M 58.2031 -2.44141 L 50.6836 -2.44141 L 54.6875 -10.1074 C 55.127 -10.9375 54.7852 -11.6211 53.9062 -11.6211 L 46.6309 -11.6211 C 45.5566 -11.6211 45.166 -11.2305 44.8242 -10.4004 L 39.5508 1.51367 C 39.1602 2.49023 39.5996 3.07617 40.5762 3.07617 L 46.9238 3.07617 L 41.6504 15.8203 C 41.4551 16.3574 41.5527 16.7969 41.9434 16.9434 C 42.2852 17.0898 42.7246 16.9434 43.1152 16.5039 L 58.8379 -0.537109 C 59.6191 -1.41602 59.2773 -2.44141 58.2031 -2.44141 Z"/>
  </g>
  <g id="Thin-S" transform="matrix(1 0 0 1 806.935 696)">
   <path d="M 23.3887 -18.9941 L 71.3867 -18.9941 C 83.0566 -18.9941 92.1387 -27.7344 92.1387 -38.916 C 92.1387 -50.1953 82.666 -58.6914 70.1172 -58.5938 C 65.0879 -69.043 56.4941 -74.6094 45.6543 -74.6094 C 32.0801 -74.6094 20.6055 -63.5254 19.5801 -49.2188 C 11.8164 -47.2656 6.83594 -41.2598 6.83594 -33.9355 C 6.83594 -25.1465 13.5742 -18.9941 23.3887 -18.9941 Z M 54.8828 -2.09961 L 48.3398 -2.09961 L 53.0273 -11.084 C 53.4668 -11.9141 53.125 -12.5488 52.2461 -12.5488 L 47.9004 -12.5488 C 46.7773 -12.5488 46.3867 -12.1582 46.0449 -11.377 L 40.7227 0.78125 C 40.2832 1.75781 40.8691 2.34375 41.7969 2.34375 L 47.2168 2.34375 L 41.8945 15.332 C 41.6504 15.8691 41.7969 16.3086 42.1875 16.4551 C 42.5293 16.6016 43.0176 16.4551 43.3594 15.9668 L 55.6641 -0.292969 C 56.3477 -1.17188 55.957 -2.09961 54.8828 -2.09961 Z"/>
  </g>
  <g id="Ultralight-S" transform="matrix(1 0 0 1 510.492 696)">
   <path d="M 22.998 -19.6777 L 71.1914 -19.6777 C 82.666 -19.6777 91.6016 -28.2715 91.6016 -39.209 C 91.6016 -50.2441 82.2754 -58.5449 69.9219 -58.4473 C 64.8438 -69.1406 56.3965 -74.707 45.459 -74.707 C 32.0801 -74.707 20.8008 -63.623 19.7754 -49.3164 C 11.9141 -47.3633 6.83594 -41.4062 6.83594 -34.2285 C 6.83594 -25.6836 13.4277 -19.6777 22.998 -19.6777 Z M 53.1738 -1.95312 L 47.1191 -1.95312 L 52.1484 -11.5723 C 52.5879 -12.4023 52.2461 -13.0859 51.3672 -13.0859 L 48.5352 -13.0859 C 47.4121 -13.0859 47.0215 -12.6953 46.6797 -11.8652 L 41.3086 0.390625 C 40.8691 1.41602 41.5039 1.95312 42.4316 1.95312 L 47.4121 1.95312 L 41.9922 15.0391 C 41.748 15.625 41.8945 16.0645 42.2852 16.2109 C 42.6758 16.3574 43.1641 16.2109 43.5059 15.6738 L 54.0527 -0.195312 C 54.6387 -1.07422 54.248 -1.95312 53.1738 -1.95312 Z"/>
  </g>
 </g>
</svg>
