<?xml version="1.0" encoding="UTF-8"?>
<!--Generator: Apple Native CoreSVG 123-->
<!DOCTYPE svg
PUBLIC "-//W3C//DTD SVG 1.1//EN"
       "http://www.w3.org/Graphics/SVG/1.1/DTD/svg11.dtd">
<svg version="1.1" xmlns="http://www.w3.org/2000/svg" xmlns:xlink="http://www.w3.org/1999/xlink" width="3300" height="2200">
 <!--glyph: "uni1001C9.medium", point size: 100.000000, font version: "Version 15.0d7e11", template writer version: "5"-->
 <g id="Notes">
  <rect height="2200" id="artboard" style="fill:white;opacity:1" width="3300" x="0" y="0"/>
  <line id="" style="fill:none;stroke:black;opacity:1;stroke-width:0.5;" x1="263" x2="3036" y1="292" y2="292"/>
  <text style="stroke:none;fill:black;font-family:-apple-system,&quot;SF Pro Display&quot;,&quot;SF Pro Text&quot;,Helvetica,sans-serif;font-weight:bold;" transform="matrix(1 0 0 1 263 322)">Weight/Scale Variations</text>
  <text style="stroke:none;fill:black;font-family:-apple-system,&quot;SF Pro Display&quot;,&quot;SF Pro Text&quot;,Helvetica,sans-serif;text-anchor:middle;" transform="matrix(1 0 0 1 559.711 322)">Ultralight</text>
  <text style="stroke:none;fill:black;font-family:-apple-system,&quot;SF Pro Display&quot;,&quot;SF Pro Text&quot;,Helvetica,sans-serif;text-anchor:middle;" transform="matrix(1 0 0 1 856.422 322)">Thin</text>
  <text style="stroke:none;fill:black;font-family:-apple-system,&quot;SF Pro Display&quot;,&quot;SF Pro Text&quot;,Helvetica,sans-serif;text-anchor:middle;" transform="matrix(1 0 0 1 1153.13 322)">Light</text>
  <text style="stroke:none;fill:black;font-family:-apple-system,&quot;SF Pro Display&quot;,&quot;SF Pro Text&quot;,Helvetica,sans-serif;text-anchor:middle;" transform="matrix(1 0 0 1 1449.84 322)">Regular</text>
  <text style="stroke:none;fill:black;font-family:-apple-system,&quot;SF Pro Display&quot;,&quot;SF Pro Text&quot;,Helvetica,sans-serif;text-anchor:middle;" transform="matrix(1 0 0 1 1746.56 322)">Medium</text>
  <text style="stroke:none;fill:black;font-family:-apple-system,&quot;SF Pro Display&quot;,&quot;SF Pro Text&quot;,Helvetica,sans-serif;text-anchor:middle;" transform="matrix(1 0 0 1 2043.27 322)">Semibold</text>
  <text style="stroke:none;fill:black;font-family:-apple-system,&quot;SF Pro Display&quot;,&quot;SF Pro Text&quot;,Helvetica,sans-serif;text-anchor:middle;" transform="matrix(1 0 0 1 2339.98 322)">Bold</text>
  <text style="stroke:none;fill:black;font-family:-apple-system,&quot;SF Pro Display&quot;,&quot;SF Pro Text&quot;,Helvetica,sans-serif;text-anchor:middle;" transform="matrix(1 0 0 1 2636.69 322)">Heavy</text>
  <text style="stroke:none;fill:black;font-family:-apple-system,&quot;SF Pro Display&quot;,&quot;SF Pro Text&quot;,Helvetica,sans-serif;text-anchor:middle;" transform="matrix(1 0 0 1 2933.4 322)">Black</text>
  <line id="" style="fill:none;stroke:black;opacity:1;stroke-width:0.5;" x1="263" x2="3036" y1="1903" y2="1903"/>
  <g id="" transform="matrix(1 0 0 1 263 1933)">
   <path d="M 9.24805 0.830078 C 13.5547 0.830078 17.1387 -2.74414 17.1387 -7.05078 C 17.1387 -11.3574 13.5449 -14.9316 9.23828 -14.9316 C 4.94141 -14.9316 1.36719 -11.3574 1.36719 -7.05078 C 1.36719 -2.74414 4.95117 0.830078 9.24805 0.830078 Z M 9.24805 -0.654297 C 5.70312 -0.654297 2.87109 -3.49609 2.87109 -7.05078 C 2.87109 -10.6055 5.69336 -13.4473 9.23828 -13.4473 C 12.793 -13.4473 15.6348 -10.6055 15.6445 -7.05078 C 15.6543 -3.49609 12.8027 -0.654297 9.24805 -0.654297 Z M 9.22852 -3.42773 C 9.69727 -3.42773 9.9707 -3.74023 9.9707 -4.25781 L 9.9707 -6.31836 L 12.1973 -6.31836 C 12.6953 -6.31836 13.0371 -6.57227 13.0371 -7.04102 C 13.0371 -7.51953 12.7148 -7.7832 12.1973 -7.7832 L 9.9707 -7.7832 L 9.9707 -10.0098 C 9.9707 -10.5273 9.69727 -10.8496 9.22852 -10.8496 C 8.75977 -10.8496 8.50586 -10.5078 8.50586 -10.0098 L 8.50586 -7.7832 L 6.29883 -7.7832 C 5.78125 -7.7832 5.44922 -7.51953 5.44922 -7.04102 C 5.44922 -6.57227 5.80078 -6.31836 6.29883 -6.31836 L 8.50586 -6.31836 L 8.50586 -4.25781 C 8.50586 -3.75977 8.75977 -3.42773 9.22852 -3.42773 Z"/>
  </g>
  <g id="" transform="matrix(1 0 0 1 281.506 1933)">
   <path d="M 11.709 2.91016 C 17.1582 2.91016 21.6699 -1.60156 21.6699 -7.05078 C 21.6699 -12.4902 17.1484 -17.0117 11.6992 -17.0117 C 6.25977 -17.0117 1.74805 -12.4902 1.74805 -7.05078 C 1.74805 -1.60156 6.26953 2.91016 11.709 2.91016 Z M 11.709 1.25 C 7.09961 1.25 3.41797 -2.44141 3.41797 -7.05078 C 3.41797 -11.6504 7.08984 -15.3516 11.6992 -15.3516 C 16.3086 -15.3516 20 -11.6504 20.0098 -7.05078 C 20.0195 -2.44141 16.3184 1.25 11.709 1.25 Z M 11.6895 -2.41211 C 12.207 -2.41211 12.5195 -2.77344 12.5195 -3.33984 L 12.5195 -6.23047 L 15.5762 -6.23047 C 16.123 -6.23047 16.5039 -6.51367 16.5039 -7.03125 C 16.5039 -7.55859 16.1426 -7.86133 15.5762 -7.86133 L 12.5195 -7.86133 L 12.5195 -10.9277 C 12.5195 -11.5039 12.207 -11.8555 11.6895 -11.8555 C 11.1719 -11.8555 10.8789 -11.4844 10.8789 -10.9277 L 10.8789 -7.86133 L 7.83203 -7.86133 C 7.26562 -7.86133 6.89453 -7.55859 6.89453 -7.03125 C 6.89453 -6.51367 7.28516 -6.23047 7.83203 -6.23047 L 10.8789 -6.23047 L 10.8789 -3.33984 C 10.8789 -2.79297 11.1719 -2.41211 11.6895 -2.41211 Z"/>
  </g>
  <g id="" transform="matrix(1 0 0 1 304.924 1933)">
   <path d="M 14.9707 5.67383 C 21.9336 5.67383 27.6953 -0.078125 27.6953 -7.04102 C 27.6953 -14.0039 21.9238 -19.7559 14.9609 -19.7559 C 8.00781 -19.7559 2.25586 -14.0039 2.25586 -7.04102 C 2.25586 -0.078125 8.01758 5.67383 14.9707 5.67383 Z M 14.9707 3.85742 C 8.93555 3.85742 4.08203 -1.00586 4.08203 -7.04102 C 4.08203 -13.0762 8.92578 -17.9395 14.9609 -17.9395 C 21.0059 -17.9395 25.8594 -13.0762 25.8691 -7.04102 C 25.8789 -1.00586 21.0156 3.85742 14.9707 3.85742 Z M 14.9512 -1.06445 C 15.5176 -1.06445 15.8691 -1.45508 15.8691 -2.06055 L 15.8691 -6.13281 L 20.1074 -6.13281 C 20.6934 -6.13281 21.1133 -6.46484 21.1133 -7.02148 C 21.1133 -7.59766 20.7227 -7.93945 20.1074 -7.93945 L 15.8691 -7.93945 L 15.8691 -12.1875 C 15.8691 -12.8027 15.5176 -13.1934 14.9512 -13.1934 C 14.3848 -13.1934 14.0625 -12.7832 14.0625 -12.1875 L 14.0625 -7.93945 L 9.83398 -7.93945 C 9.21875 -7.93945 8.80859 -7.59766 8.80859 -7.02148 C 8.80859 -6.46484 9.23828 -6.13281 9.83398 -6.13281 L 14.0625 -6.13281 L 14.0625 -2.06055 C 14.0625 -1.47461 14.3848 -1.06445 14.9512 -1.06445 Z"/>
  </g>
  <text style="stroke:none;fill:black;font-family:-apple-system,&quot;SF Pro Display&quot;,&quot;SF Pro Text&quot;,Helvetica,sans-serif;font-weight:bold;" transform="matrix(1 0 0 1 263 1953)">Design Variations</text>
  <text style="stroke:none;fill:black;font-family:-apple-system,&quot;SF Pro Display&quot;,&quot;SF Pro Text&quot;,Helvetica,sans-serif;" transform="matrix(1 0 0 1 263 1971)">Symbols are supported in up to nine weights and three scales.</text>
  <text style="stroke:none;fill:black;font-family:-apple-system,&quot;SF Pro Display&quot;,&quot;SF Pro Text&quot;,Helvetica,sans-serif;" transform="matrix(1 0 0 1 263 1989)">For optimal layout with text and other symbols, vertically align</text>
  <text style="stroke:none;fill:black;font-family:-apple-system,&quot;SF Pro Display&quot;,&quot;SF Pro Text&quot;,Helvetica,sans-serif;" transform="matrix(1 0 0 1 263 2007)">symbols with the adjacent text.</text>
  <rect height="14" id="" style="fill:#00AEEF;stroke:none;opacity:0.4;" width="3" x="776" y="1919"/>
  <g id="" transform="matrix(1 0 0 1 779 1933)">
   <path d="M 10.5273 0 L 12.373 0 L 7.17773 -14.0918 L 5.43945 -14.0918 L 0.244141 0 L 2.08984 0 L 3.50586 -4.0332 L 9.11133 -4.0332 Z M 6.2793 -11.9531 L 6.33789 -11.9531 L 8.59375 -5.52734 L 4.02344 -5.52734 Z"/>
  </g>
  <rect height="14" id="" style="fill:#00AEEF;stroke:none;opacity:0.4;" width="3" x="791.617" y="1919"/>
  <text style="stroke:none;fill:black;font-family:-apple-system,&quot;SF Pro Display&quot;,&quot;SF Pro Text&quot;,Helvetica,sans-serif;font-weight:bold;" transform="matrix(1 0 0 1 776 1953)">Margins</text>
  <text style="stroke:none;fill:black;font-family:-apple-system,&quot;SF Pro Display&quot;,&quot;SF Pro Text&quot;,Helvetica,sans-serif;" transform="matrix(1 0 0 1 776 1971)">Leading and trailing margins on the left and right side of each symbol</text>
  <text style="stroke:none;fill:black;font-family:-apple-system,&quot;SF Pro Display&quot;,&quot;SF Pro Text&quot;,Helvetica,sans-serif;" transform="matrix(1 0 0 1 776 1989)">can be adjusted by modifying the width of the blue rectangles.</text>
  <text style="stroke:none;fill:black;font-family:-apple-system,&quot;SF Pro Display&quot;,&quot;SF Pro Text&quot;,Helvetica,sans-serif;" transform="matrix(1 0 0 1 776 2007)">Modifications are automatically applied proportionally to all</text>
  <text style="stroke:none;fill:black;font-family:-apple-system,&quot;SF Pro Display&quot;,&quot;SF Pro Text&quot;,Helvetica,sans-serif;" transform="matrix(1 0 0 1 776 2025)">scales and weights.</text>
  <g id="" transform="matrix(1 0 0 1 1289 1933)">
   <path d="M 2.83203 3.11523 L 4.375 4.6582 C 5.22461 5.48828 6.19141 5.41992 7.06055 4.46289 L 17.2754 -6.66016 C 17.7051 -6.36719 18.0957 -6.37695 18.5645 -6.47461 L 19.6094 -6.68945 L 20.3027 -5.99609 L 20.2539 -5.47852 C 20.1855 -4.95117 20.3516 -4.53125 20.8496 -4.0332 L 21.6602 -3.22266 C 22.168 -2.71484 22.8223 -2.68555 23.3008 -3.16406 L 26.5527 -6.41602 C 27.0312 -6.89453 27.0117 -7.54883 26.5039 -8.05664 L 25.6836 -8.87695 C 25.1855 -9.375 24.7754 -9.55078 24.2383 -9.47266 L 23.7109 -9.41406 L 23.0566 -10.0781 L 23.3398 -11.2207 C 23.4863 -11.7871 23.3398 -12.2559 22.7148 -12.8613 L 20.3027 -15.2539 C 16.7578 -18.7793 12.2266 -18.6719 9.11133 -15.5371 C 8.69141 -15.1074 8.64258 -14.5215 8.91602 -14.0918 C 9.15039 -13.7207 9.62891 -13.4961 10.2734 -13.6621 C 11.7871 -14.043 13.3008 -13.9258 14.7852 -12.9199 L 14.1602 -11.3379 C 13.9258 -10.752 13.9453 -10.2734 14.1797 -9.83398 L 3.01758 0.439453 C 2.08008 1.30859 1.97266 2.25586 2.83203 3.11523 Z M 10.6738 -15.1465 C 13.3398 -17.1387 16.6504 -16.8262 19.0527 -14.4141 L 21.6797 -11.8066 C 21.9141 -11.5723 21.9434 -11.3867 21.8848 -11.0938 L 21.5039 -9.53125 L 23.0762 -7.95898 L 24.043 -8.04688 C 24.3262 -8.07617 24.4141 -8.05664 24.6387 -7.83203 L 25.2637 -7.20703 L 22.5098 -4.46289 L 21.8848 -5.07812 C 21.6602 -5.30273 21.6406 -5.40039 21.6699 -5.68359 L 21.7578 -6.64062 L 20.1953 -8.20312 L 18.5742 -7.89062 C 18.291 -7.83203 18.1445 -7.83203 17.9102 -8.07617 L 15.7324 -10.2539 C 15.5078 -10.4883 15.4785 -10.625 15.6055 -10.9473 L 16.5527 -13.2227 C 14.9512 -14.7559 12.8418 -15.6055 10.8008 -14.9512 C 10.7129 -14.9219 10.6445 -14.9414 10.6152 -14.9805 C 10.5859 -15.0293 10.5859 -15.0781 10.6738 -15.1465 Z M 4.10156 2.41211 C 3.61328 1.91406 3.78906 1.61133 4.12109 1.30859 L 15.0781 -8.80859 L 16.3086 -7.57812 L 6.15234 3.34961 C 5.84961 3.68164 5.46875 3.7793 5.06836 3.37891 Z"/>
  </g>
  <text style="stroke:none;fill:black;font-family:-apple-system,&quot;SF Pro Display&quot;,&quot;SF Pro Text&quot;,Helvetica,sans-serif;font-weight:bold;" transform="matrix(1 0 0 1 1289 1953)">Exporting</text>
  <text style="stroke:none;fill:black;font-family:-apple-system,&quot;SF Pro Display&quot;,&quot;SF Pro Text&quot;,Helvetica,sans-serif;" transform="matrix(1 0 0 1 1289 1971)">Symbols should be outlined when exporting to ensure the</text>
  <text style="stroke:none;fill:black;font-family:-apple-system,&quot;SF Pro Display&quot;,&quot;SF Pro Text&quot;,Helvetica,sans-serif;" transform="matrix(1 0 0 1 1289 1989)">design is preserved when submitting to Xcode.</text>
  <text id="template-version" style="stroke:none;fill:black;font-family:-apple-system,&quot;SF Pro Display&quot;,&quot;SF Pro Text&quot;,Helvetica,sans-serif;text-anchor:end;" transform="matrix(1 0 0 1 3036 1933)">Template v.1.0</text>
  <text style="stroke:none;fill:black;font-family:-apple-system,&quot;SF Pro Display&quot;,&quot;SF Pro Text&quot;,Helvetica,sans-serif;text-anchor:end;" transform="matrix(1 0 0 1 3036 1951)">Generated from cloud.heavyrain.fill</text>
  <text style="stroke:none;fill:black;font-family:-apple-system,&quot;SF Pro Display&quot;,&quot;SF Pro Text&quot;,Helvetica,sans-serif;text-anchor:end;" transform="matrix(1 0 0 1 3036 1969)">Typeset at 100 points</text>
  <text style="stroke:none;fill:black;font-family:-apple-system,&quot;SF Pro Display&quot;,&quot;SF Pro Text&quot;,Helvetica,sans-serif;" transform="matrix(1 0 0 1 263 726)">Small</text>
  <text style="stroke:none;fill:black;font-family:-apple-system,&quot;SF Pro Display&quot;,&quot;SF Pro Text&quot;,Helvetica,sans-serif;" transform="matrix(1 0 0 1 263 1156)">Medium</text>
  <text style="stroke:none;fill:black;font-family:-apple-system,&quot;SF Pro Display&quot;,&quot;SF Pro Text&quot;,Helvetica,sans-serif;" transform="matrix(1 0 0 1 263 1586)">Large</text>
 </g>
 <g id="Guides">
  <g id="H-reference" style="fill:#27AAE1;stroke:none;" transform="matrix(1 0 0 1 339 696)">
   <path d="M 54.9316 0 L 57.666 0 L 30.5664 -70.459 L 28.0762 -70.459 L 0.976562 0 L 3.66211 0 L 12.9395 -24.4629 L 45.7031 -24.4629 Z M 29.1992 -67.0898 L 29.4434 -67.0898 L 44.8242 -26.709 L 13.8184 -26.709 Z"/>
  </g>
  <line id="Baseline-S" style="fill:none;stroke:#27AAE1;opacity:1;stroke-width:0.577;" x1="263" x2="3036" y1="696" y2="696"/>
  <line id="Capline-S" style="fill:none;stroke:#27AAE1;opacity:1;stroke-width:0.577;" x1="263" x2="3036" y1="625.541" y2="625.541"/>
  <g id="H-reference" style="fill:#27AAE1;stroke:none;" transform="matrix(1 0 0 1 339 1126)">
   <path d="M 54.9316 0 L 57.666 0 L 30.5664 -70.459 L 28.0762 -70.459 L 0.976562 0 L 3.66211 0 L 12.9395 -24.4629 L 45.7031 -24.4629 Z M 29.1992 -67.0898 L 29.4434 -67.0898 L 44.8242 -26.709 L 13.8184 -26.709 Z"/>
  </g>
  <line id="Baseline-M" style="fill:none;stroke:#27AAE1;opacity:1;stroke-width:0.577;" x1="263" x2="3036" y1="1126" y2="1126"/>
  <line id="Capline-M" style="fill:none;stroke:#27AAE1;opacity:1;stroke-width:0.577;" x1="263" x2="3036" y1="1055.54" y2="1055.54"/>
  <g id="H-reference" style="fill:#27AAE1;stroke:none;" transform="matrix(1 0 0 1 339 1556)">
   <path d="M 54.9316 0 L 57.666 0 L 30.5664 -70.459 L 28.0762 -70.459 L 0.976562 0 L 3.66211 0 L 12.9395 -24.4629 L 45.7031 -24.4629 Z M 29.1992 -67.0898 L 29.4434 -67.0898 L 44.8242 -26.709 L 13.8184 -26.709 Z"/>
  </g>
  <line id="Baseline-L" style="fill:none;stroke:#27AAE1;opacity:1;stroke-width:0.577;" x1="263" x2="3036" y1="1556" y2="1556"/>
  <line id="Capline-L" style="fill:none;stroke:#27AAE1;opacity:1;stroke-width:0.577;" x1="263" x2="3036" y1="1485.54" y2="1485.54"/>
  <rect height="119.336" id="left-margin" style="fill:#00AEEF;stroke:none;opacity:0.4;" width="8.74023" x="1385.86" y="1030.79"/>
  <rect height="119.336" id="right-margin" style="fill:#00AEEF;stroke:none;opacity:0.4;" width="8.74023" x="1505.09" y="1030.79"/>
 </g>
 <g id="Symbols">
  <g id="Black-L" transform="matrix(1 0 0 1 2846.24 1556)">
   <path d="M 44.4824 -0.341797 L 123.926 -0.341797 C 146.045 -0.341797 163.037 -17.0898 163.037 -38.8184 C 163.037 -60.8887 145.898 -77.6367 123.486 -77.4902 C 115.039 -93.8477 100.195 -102.686 80.9082 -102.686 C 56.1523 -102.686 35.8398 -85.0098 32.5195 -60.6445 C 20.0684 -56.4453 11.2793 -45.7031 11.2793 -31.5918 C 11.2793 -13.3789 25.0488 -0.341797 44.4824 -0.341797 Z M 61.4258 49.9512 L 79.541 18.7012 C 81.0059 16.1621 80.3223 12.9883 77.6855 11.4746 C 75.0488 9.96094 72.0703 10.9375 70.5566 13.5742 L 52.4414 44.873 C 51.0254 47.3633 51.5625 50.5371 54.248 52.0508 C 56.8848 53.5156 60.0098 52.4414 61.4258 49.9512 Z M 111.523 50 L 129.688 18.6523 C 131.152 16.1621 130.518 12.9395 127.881 11.4746 C 125.195 9.96094 122.217 10.9375 120.752 13.5742 L 102.637 44.8242 C 101.172 47.3633 101.758 50.5371 104.395 52.0508 C 106.982 53.5156 110.107 52.4414 111.523 50 Z M 36.2305 50 L 54.3457 18.7988 C 55.8105 16.2109 55.127 13.0371 52.4902 11.5234 C 49.8047 10.0098 46.875 10.9863 45.3613 13.6719 L 27.1973 44.9219 C 25.7812 47.4121 26.3672 50.5859 29.0039 52.0996 C 31.6406 53.6133 34.7656 52.5391 36.2305 50 Z M 86.4258 50 L 104.492 18.7988 C 105.957 16.2109 105.322 13.0371 102.686 11.5234 C 100 10.0098 97.0703 10.9863 95.5078 13.6719 L 77.3926 44.9219 C 75.9766 47.4121 76.5625 50.5859 79.1992 52.0996 C 81.8359 53.6133 84.9609 52.5391 86.4258 50 Z"/>
  </g>
  <g id="Heavy-L" transform="matrix(1 0 0 1 2550.68 1556)">
   <path d="M 43.3594 -1.75781 L 122.559 -1.75781 C 144.141 -1.75781 160.742 -18.0664 160.742 -39.1602 C 160.742 -60.5957 143.848 -76.8066 121.729 -76.6602 C 113.379 -93.0664 98.584 -102.002 79.6875 -102.002 C 55.3711 -102.002 35.2539 -84.1797 32.3242 -60.0098 C 19.873 -56.0059 11.2793 -45.4102 11.2793 -31.7383 C 11.2793 -14.209 24.5117 -1.75781 43.3594 -1.75781 Z M 59.5703 48.0957 L 77.832 16.5039 C 79.1992 14.1113 78.5645 11.2305 76.1719 9.86328 C 73.7305 8.44727 71.0449 9.32617 69.6289 11.7676 L 51.3184 43.457 C 50 45.752 50.5371 48.584 52.9785 50 C 55.3711 51.3672 58.2031 50.3906 59.5703 48.0957 Z M 109.668 48.0957 L 128.027 16.4062 C 129.346 14.1113 128.711 11.1816 126.318 9.86328 C 123.926 8.49609 121.191 9.32617 119.824 11.7676 L 101.514 43.4082 C 100.146 45.752 100.732 48.584 103.125 50 C 105.469 51.3672 108.35 50.3906 109.668 48.0957 Z M 34.375 48.1445 L 52.6855 16.5039 C 54.0039 14.1602 53.3691 11.2793 50.9766 9.86328 C 48.584 8.49609 45.8496 9.375 44.4336 11.8164 L 26.123 43.5059 C 24.8047 45.752 25.3418 48.6328 27.7832 50.0488 C 30.1758 51.416 33.0566 50.4395 34.375 48.1445 Z M 84.5215 48.1445 L 102.832 16.5039 C 104.199 14.1602 103.564 11.2793 101.172 9.86328 C 98.7305 8.49609 96.0449 9.375 94.6289 11.8164 L 76.3184 43.5059 C 75 45.752 75.5371 48.6328 77.9785 50.0488 C 80.3711 51.416 83.2031 50.4395 84.5215 48.1445 Z"/>
  </g>
  <g id="Bold-L" transform="matrix(1 0 0 1 2255.29 1556)">
   <path d="M 42.0898 -3.36914 L 121.045 -3.36914 C 141.992 -3.36914 158.105 -19.1895 158.105 -39.5996 C 158.105 -60.2539 141.553 -75.8789 119.775 -75.6836 C 111.523 -92.1387 96.7773 -101.221 78.3691 -101.221 C 54.4922 -101.221 34.668 -83.252 32.0801 -59.2773 C 19.6777 -55.5176 11.2793 -45.0684 11.2793 -31.8848 C 11.2793 -15.1367 23.9258 -3.36914 42.0898 -3.36914 Z M 57.4219 45.9961 L 75.9766 13.9648 C 77.1973 11.8164 76.6113 9.27734 74.4629 8.00781 C 72.3145 6.78711 69.873 7.51953 68.6035 9.76562 L 50.0488 41.8457 C 48.877 43.8965 49.3652 46.4355 51.5625 47.7051 C 53.7109 48.9258 56.25 48.0957 57.4219 45.9961 Z M 32.2754 46.0449 L 50.7812 14.0137 C 52.0508 11.8164 51.4648 9.32617 49.3164 8.05664 C 47.1191 6.83594 44.7266 7.56836 43.457 9.76562 L 24.9023 41.8945 C 23.7305 43.9453 24.2188 46.4844 26.416 47.7051 C 28.5156 48.9258 31.1035 48.0957 32.2754 46.0449 Z M 82.4707 46.0449 L 100.977 14.0137 C 102.246 11.8164 101.611 9.32617 99.4629 8.05664 C 97.3145 6.83594 94.9219 7.56836 93.6523 9.76562 L 75.0977 41.8945 C 73.9258 43.9453 74.4141 46.4844 76.5625 47.7051 C 78.7109 48.9258 81.25 48.0957 82.4707 46.0449 Z M 107.52 46.0449 L 126.123 13.916 C 127.344 11.8164 126.758 9.22852 124.609 8.00781 C 122.51 6.88477 120.02 7.51953 118.799 9.7168 L 100.293 41.7969 C 99.0234 43.8965 99.5605 46.4355 101.709 47.7051 C 103.76 48.9258 106.348 48.0957 107.52 46.0449 Z"/>
  </g>
  <g id="Semibold-L" transform="matrix(1 0 0 1 1959.45 1556)">
   <path d="M 41.2109 -4.49219 L 120.02 -4.49219 C 140.527 -4.49219 156.348 -19.9707 156.348 -39.8438 C 156.348 -60.0098 139.99 -75.1953 118.457 -75.0488 C 110.205 -91.5527 95.5566 -100.684 77.4414 -100.684 C 53.8574 -100.684 34.2285 -82.5684 31.9336 -58.7891 C 19.5312 -55.2246 11.2793 -44.873 11.2793 -31.9824 C 11.2793 -15.7715 23.5352 -4.49219 41.2109 -4.49219 Z M 56.0059 44.5312 L 74.6582 12.2559 C 75.8301 10.2051 75.2441 7.91016 73.291 6.78711 C 71.3379 5.66406 69.0918 6.29883 67.9199 8.34961 L 49.2188 40.7715 C 48.1445 42.6758 48.584 44.9707 50.5859 46.0938 C 52.5391 47.2168 54.8828 46.4844 56.0059 44.5312 Z M 30.8594 44.5801 L 49.5117 12.2559 C 50.6836 10.2539 50.0977 7.95898 48.1445 6.78711 C 46.1426 5.66406 43.9453 6.29883 42.7734 8.39844 L 24.0723 40.7715 C 22.998 42.6758 23.4375 44.9707 25.4395 46.1426 C 27.3926 47.2656 29.7363 46.5332 30.8594 44.5801 Z M 81.0059 44.5801 L 99.707 12.2559 C 100.879 10.2539 100.293 7.95898 98.3398 6.78711 C 96.3379 5.66406 94.1406 6.29883 92.9199 8.39844 L 74.2188 40.7715 C 73.1445 42.6758 73.6328 44.9707 75.6348 46.1426 C 77.5879 47.2656 79.9316 46.5332 81.0059 44.5801 Z M 106.055 44.5801 L 124.805 12.1582 C 125.928 10.2051 125.391 7.86133 123.438 6.78711 C 121.484 5.71289 119.238 6.29883 118.066 8.30078 L 99.4141 40.6738 C 98.291 42.6758 98.7793 44.9707 100.732 46.0938 C 102.588 47.2168 104.98 46.4844 106.055 44.5801 Z"/>
  </g>
  <g id="Medium-L" transform="matrix(1 0 0 1 1663.43 1556)">
   <path d="M 40.5762 -5.32227 L 119.238 -5.32227 C 139.404 -5.32227 154.98 -20.5078 154.98 -40.0879 C 154.98 -59.8633 138.818 -74.707 117.432 -74.5605 C 109.229 -91.0645 94.5801 -100.293 76.709 -100.293 C 53.418 -100.293 33.8867 -82.0801 31.8359 -58.4473 C 19.4336 -54.9805 11.2793 -44.6777 11.2793 -32.0801 C 11.2793 -16.2598 23.1934 -5.32227 40.5762 -5.32227 Z M 54.8828 43.457 L 73.6816 10.9375 C 74.8047 9.0332 74.2188 6.88477 72.4121 5.81055 C 70.5566 4.78516 68.5059 5.37109 67.3828 7.32422 L 48.5352 39.8926 C 47.5586 41.6992 47.998 43.8477 49.8535 44.9219 C 51.6602 45.9473 53.8574 45.3125 54.8828 43.457 Z M 29.7363 43.457 L 48.5352 10.9375 C 49.6582 9.0332 49.0723 6.93359 47.2656 5.85938 C 45.4102 4.78516 43.3594 5.37109 42.2363 7.32422 L 23.3887 39.9414 C 22.4121 41.6992 22.8516 43.8477 24.707 44.9219 C 26.5137 45.9473 28.7109 45.3125 29.7363 43.457 Z M 79.9316 43.457 L 98.7305 10.9375 C 99.8535 9.0332 99.2676 6.93359 97.4609 5.85938 C 95.6055 4.78516 93.5547 5.37109 92.4316 7.32422 L 73.584 39.9414 C 72.6074 41.6992 73.0469 43.8477 74.9023 44.9219 C 76.709 45.9473 78.9062 45.3125 79.9316 43.457 Z M 104.932 43.5059 L 123.828 10.8398 C 124.902 9.0332 124.365 6.83594 122.559 5.81055 C 120.752 4.88281 118.652 5.37109 117.529 7.27539 L 98.7793 39.8438 C 97.7051 41.6992 98.1445 43.8477 100 44.9219 C 101.709 45.9473 103.955 45.3125 104.932 43.5059 Z"/>
  </g>
  <g id="Regular-L" transform="matrix(1 0 0 1 1367.62 1556)">
   <path d="M 39.6973 -6.39648 L 118.164 -6.39648 C 137.939 -6.39648 153.174 -21.2891 153.174 -40.332 C 153.174 -59.6191 137.256 -74.0723 116.113 -73.877 C 107.959 -90.4297 93.3594 -99.7559 75.7812 -99.7559 C 52.7832 -99.7559 33.4473 -81.4453 31.6895 -57.959 C 19.2871 -54.6387 11.2793 -44.4336 11.2793 -32.1777 C 11.2793 -16.8945 22.8027 -6.39648 39.6973 -6.39648 Z M 28.3203 42.041 L 47.2656 9.22852 C 48.291 7.42188 47.7539 5.56641 46.1426 4.58984 C 44.4336 3.66211 42.5781 4.15039 41.5527 5.9082 L 22.5586 38.8184 C 21.6797 40.4785 22.0703 42.3828 23.7793 43.3594 C 25.3906 44.2871 27.3926 43.7012 28.3203 42.041 Z M 53.4668 42.041 L 72.3633 9.22852 C 73.4375 7.42188 72.9004 5.56641 71.2402 4.58984 C 69.5801 3.66211 67.7246 4.15039 66.6504 5.9082 L 47.7051 38.8184 C 46.7773 40.4785 47.168 42.3828 48.877 43.3594 C 50.5371 44.2871 52.4902 43.7012 53.4668 42.041 Z M 78.5156 42.041 L 97.4609 9.22852 C 98.4863 7.42188 97.9492 5.56641 96.2891 4.58984 C 94.6289 3.66211 92.7734 4.15039 91.748 5.9082 L 72.7539 38.8184 C 71.8262 40.4785 72.2656 42.3828 73.9258 43.3594 C 75.5859 44.2871 77.5391 43.7012 78.5156 42.041 Z M 103.516 42.0898 L 122.51 9.13086 C 123.486 7.42188 122.998 5.46875 121.387 4.58984 C 119.775 3.75977 117.822 4.15039 116.846 5.85938 L 97.9004 38.7207 C 96.9238 40.4785 97.3633 42.3828 99.0234 43.3594 C 100.586 44.2871 102.588 43.7012 103.516 42.0898 Z"/>
  </g>
  <g id="Light-L" transform="matrix(1 0 0 1 1071.35 1556)">
   <path d="M 38.9648 -7.51953 L 117.822 -7.51953 C 137.207 -7.51953 152.295 -22.0703 152.295 -40.7227 C 152.295 -59.5703 136.523 -73.6816 115.723 -73.5352 C 107.52 -90.5273 93.1641 -99.7559 75.4395 -99.7559 C 52.832 -99.7559 33.7891 -81.4941 32.0312 -57.959 C 19.4336 -54.6875 11.2793 -44.6777 11.2793 -32.5684 C 11.2793 -17.7734 22.5098 -7.51953 38.9648 -7.51953 Z M 27.4414 41.2598 L 46.9727 7.4707 C 47.8516 5.95703 47.4121 4.44336 46.0938 3.66211 C 44.7754 2.92969 43.2617 3.32031 42.3828 4.83398 L 22.8516 38.6719 C 22.0703 40.0879 22.3633 41.6504 23.7305 42.4316 C 25.0488 43.2129 26.6113 42.7246 27.4414 41.2598 Z M 52.5879 41.2598 L 72.0703 7.4707 C 72.998 5.95703 72.5586 4.44336 71.2402 3.66211 C 69.9219 2.92969 68.4082 3.32031 67.5293 4.83398 L 47.9492 38.6719 C 47.168 40.0879 47.5098 41.6504 48.877 42.4316 C 50.1953 43.2129 51.7578 42.7246 52.5879 41.2598 Z M 77.6367 41.2598 L 97.1191 7.4707 C 97.998 5.95703 97.6074 4.44336 96.2402 3.66211 C 94.9707 2.92969 93.457 3.32031 92.5781 4.83398 L 72.998 38.6719 C 72.2168 40.0879 72.5586 41.6504 73.9258 42.4316 C 75.2441 43.2129 76.8066 42.7246 77.6367 41.2598 Z M 102.637 41.3086 L 122.217 7.42188 C 123.096 5.95703 122.705 4.39453 121.387 3.66211 C 120.117 2.97852 118.555 3.32031 117.676 4.78516 L 98.1934 38.623 C 97.3633 40.0879 97.7051 41.6504 99.0234 42.4316 C 100.293 43.2129 101.904 42.7246 102.637 41.3086 Z"/>
  </g>
  <g id="Thin-L" transform="matrix(1 0 0 1 775.245 1556)">
   <path d="M 37.9883 -8.98438 L 117.334 -8.98438 C 136.279 -8.98438 151.074 -23.1445 151.074 -41.2598 C 151.074 -59.4727 135.596 -73.1934 115.234 -73.0469 C 106.885 -90.5762 92.9199 -99.7559 74.9512 -99.7559 C 52.832 -99.7559 34.2285 -81.4941 32.5195 -57.959 C 19.5801 -54.7363 11.2793 -44.9219 11.2793 -33.0566 C 11.2793 -18.8965 22.168 -8.98438 37.9883 -8.98438 Z M 26.2207 40.2832 L 46.5332 5.17578 C 47.2168 4.00391 46.9238 2.97852 46.0449 2.44141 C 45.166 1.95312 44.1895 2.24609 43.457 3.36914 L 23.1934 38.5254 C 22.5586 39.6484 22.7539 40.6738 23.6816 41.2109 C 24.6094 41.748 25.6348 41.4062 26.2207 40.2832 Z M 51.416 40.2832 L 71.6797 5.17578 C 72.4121 4.00391 72.1191 2.97852 71.1914 2.44141 C 70.3613 1.95312 69.3359 2.24609 68.6523 3.36914 L 48.3398 38.5254 C 47.7051 39.6484 47.9004 40.6738 48.8281 41.2109 C 49.7559 41.748 50.7812 41.4062 51.416 40.2832 Z M 76.416 40.2832 L 96.7285 5.17578 C 97.4121 4.00391 97.1191 2.97852 96.1914 2.44141 C 95.3613 1.95312 94.3359 2.24609 93.6523 3.36914 L 73.3398 38.5254 C 72.7539 39.6484 72.9492 40.6738 73.877 41.2109 C 74.7559 41.748 75.7812 41.4062 76.416 40.2832 Z M 101.562 40.2832 L 121.875 5.12695 C 122.559 4.00391 122.266 2.97852 121.387 2.44141 C 120.557 2.00195 119.531 2.24609 118.848 3.36914 L 98.5352 38.5254 C 97.9004 39.6484 98.0957 40.6738 99.0234 41.2109 C 99.9023 41.748 100.977 41.4062 101.562 40.2832 Z"/>
  </g>
  <g id="Ultralight-L" transform="matrix(1 0 0 1 478.852 1556)">
   <path d="M 37.5 -9.7168 L 117.09 -9.7168 C 135.791 -9.7168 150.439 -23.7305 150.439 -41.5039 C 150.439 -59.4727 135.156 -72.9492 114.99 -72.8027 C 106.592 -90.625 92.7734 -99.7559 74.707 -99.7559 C 52.8809 -99.7559 34.4727 -81.4941 32.8125 -57.959 C 19.6777 -54.7363 11.2793 -45.0684 11.2793 -33.3008 C 11.2793 -19.4824 21.9727 -9.7168 37.5 -9.7168 Z M 100.977 39.7461 L 121.68 3.95508 C 122.266 3.02734 122.07 2.24609 121.387 1.80664 C 120.752 1.46484 120.02 1.70898 119.385 2.63672 L 98.6816 38.4277 C 98.1934 39.4043 98.3398 40.1855 99.0234 40.5762 C 99.707 41.0156 100.488 40.7227 100.977 39.7461 Z M 25.6348 39.7461 L 46.3379 3.95508 C 46.9238 3.02734 46.7285 2.24609 45.9961 1.80664 C 45.4102 1.46484 44.6289 1.70898 44.043 2.63672 L 23.3398 38.4277 C 22.8027 39.4043 22.9492 40.1855 23.6328 40.5762 C 24.3652 41.0156 25.0977 40.7227 25.6348 39.7461 Z M 50.7812 39.7461 L 71.4844 3.95508 C 72.0703 3.02734 71.875 2.24609 71.1914 1.80664 C 70.5566 1.46484 69.8242 1.70898 69.2383 2.63672 L 48.5352 38.4277 C 47.998 39.4043 48.1445 40.1855 48.8281 40.5762 C 49.5117 41.0156 50.293 40.7227 50.7812 39.7461 Z M 75.7812 39.7461 L 96.4844 3.95508 C 97.1191 3.02734 96.875 2.24609 96.1914 1.80664 C 95.6055 1.46484 94.8242 1.70898 94.2383 2.63672 L 73.5352 38.4277 C 72.998 39.4043 73.1445 40.1855 73.8281 40.5762 C 74.5117 41.0156 75.293 40.7227 75.7812 39.7461 Z"/>
  </g>
  <g id="Black-M" transform="matrix(1 0 0 1 2864.53 1126)">
   <path d="M 35.5469 -6.83594 L 97.7051 -6.83594 C 115.381 -6.83594 129.004 -20.3125 129.004 -37.7441 C 129.004 -55.4688 115.43 -69.043 97.8516 -68.9453 C 91.1621 -81.7871 79.6875 -88.4277 64.1602 -88.4277 C 44.5801 -88.4277 28.7109 -74.9512 25.6836 -55.7617 C 15.8691 -52.2461 8.74023 -43.8477 8.74023 -32.373 C 8.74023 -17.627 20.0195 -6.83594 35.5469 -6.83594 Z M 88.5742 32.9102 L 102.637 8.64258 C 103.857 6.5918 103.32 3.90625 101.172 2.63672 C 98.9746 1.36719 96.5332 2.29492 95.2637 4.49219 L 81.1523 28.7109 C 79.9805 30.7617 80.4199 33.3984 82.6172 34.668 C 84.8145 35.9375 87.3535 34.9609 88.5742 32.9102 Z M 49.6582 32.9102 L 63.7695 8.64258 C 64.9414 6.5918 64.4531 3.90625 62.2559 2.63672 C 60.0586 1.41602 57.6172 2.29492 56.3477 4.44336 L 42.2852 28.7109 C 41.1133 30.7617 41.5039 33.3984 43.7012 34.668 C 45.8984 35.9375 48.4863 34.9609 49.6582 32.9102 Z M 30.0781 32.959 L 44.1895 8.74023 C 45.3613 6.64062 44.873 3.95508 42.6758 2.73438 C 40.4785 1.46484 38.0371 2.34375 36.8164 4.54102 L 22.7051 28.7598 C 21.5332 30.8594 21.9727 33.4961 24.1211 34.7168 C 26.3184 35.9863 28.9062 35.0586 30.0781 32.959 Z M 68.9941 32.959 L 83.0566 8.74023 C 84.2773 6.64062 83.7891 3.95508 81.5918 2.73438 C 79.3945 1.46484 76.9531 2.34375 75.6836 4.54102 L 61.6211 28.7598 C 60.4004 30.8594 60.8398 33.4961 63.0371 34.7168 C 65.2344 35.9863 67.7734 35.0586 68.9941 32.959 Z"/>
  </g>
  <g id="Heavy-M" transform="matrix(1 0 0 1 2568.96 1126)">
   <path d="M 34.5215 -8.1543 L 96.2891 -8.1543 C 113.477 -8.1543 126.709 -21.1426 126.709 -38.0371 C 126.709 -55.1758 113.379 -68.2129 96.0449 -68.1152 C 89.4531 -80.9082 77.9785 -87.6953 62.9395 -87.6953 C 43.75 -87.6953 27.9785 -74.0234 25.3418 -55.0781 C 15.625 -51.8066 8.74023 -43.457 8.74023 -32.4707 C 8.74023 -18.3105 19.4824 -8.1543 34.5215 -8.1543 Z M 47.8516 31.0547 L 62.0117 6.68945 C 63.0859 4.73633 62.5977 2.29492 60.5957 1.12305 C 58.5938 -0.0488281 56.2988 0.732422 55.127 2.7832 L 40.9668 27.1973 C 39.8926 29.1016 40.332 31.4941 42.334 32.666 C 44.3848 33.8379 46.7285 32.959 47.8516 31.0547 Z M 86.7188 31.0547 L 100.879 6.64062 C 102.002 4.73633 101.514 2.24609 99.4629 1.12305 C 97.4609 0 95.2148 0.732422 94.043 2.7832 L 79.8828 27.1484 C 78.7598 29.1016 79.1992 31.4941 81.2012 32.666 C 83.2031 33.8379 85.5957 32.959 86.7188 31.0547 Z M 28.3203 31.1035 L 42.4316 6.73828 C 43.5547 4.78516 43.0664 2.34375 41.0645 1.17188 C 39.0137 0 36.7676 0.78125 35.5957 2.83203 L 21.4355 27.2461 C 20.3613 29.1504 20.752 31.543 22.8027 32.7148 C 24.8047 33.8867 27.1973 33.0078 28.3203 31.1035 Z M 67.1875 31.1035 L 81.3477 6.73828 C 82.4707 4.78516 81.9824 2.34375 79.9316 1.17188 C 77.9297 0 75.6348 0.78125 74.5117 2.83203 L 60.3516 27.2461 C 59.2285 29.1504 59.668 31.543 61.6699 32.7148 C 63.7207 33.8867 66.0645 33.0078 67.1875 31.1035 Z"/>
  </g>
  <g id="Bold-M" transform="matrix(1 0 0 1 2273.55 1126)">
   <path d="M 33.3984 -9.57031 L 94.7266 -9.57031 C 111.328 -9.57031 124.121 -22.1191 124.121 -38.3301 C 124.121 -54.834 111.084 -67.2852 93.9941 -67.1875 C 87.5488 -79.8828 76.0742 -86.8652 61.5234 -86.8652 C 42.7734 -86.8652 27.2461 -72.998 25 -54.2969 C 15.3809 -51.2695 8.74023 -43.0664 8.74023 -32.5195 C 8.74023 -19.0918 18.8965 -9.57031 33.3984 -9.57031 Z M 45.8008 29.0039 L 60.0098 4.44336 C 61.0352 2.63672 60.5469 0.439453 58.7402 -0.585938 C 56.8848 -1.66016 54.834 -0.976562 53.7598 0.878906 L 39.5508 25.4883 C 38.5742 27.1973 38.9648 29.3945 40.8203 30.4199 C 42.627 31.4453 44.7754 30.7617 45.8008 29.0039 Z M 84.6191 29.0039 L 98.877 4.39453 C 99.9023 2.63672 99.4141 0.390625 97.6074 -0.585938 C 95.8008 -1.61133 93.7012 -0.976562 92.6758 0.830078 L 78.4668 25.4395 C 77.4414 27.1973 77.832 29.3945 79.6875 30.4199 C 81.4453 31.4453 83.6426 30.7617 84.6191 29.0039 Z M 26.2695 29.0039 L 40.4785 4.49219 C 41.5527 2.68555 41.0645 0.488281 39.209 -0.585938 C 37.4023 -1.61133 35.3516 -0.976562 34.2773 0.927734 L 20.0195 25.4883 C 19.043 27.2461 19.4336 29.3945 21.2891 30.4688 C 23.0957 31.4941 25.293 30.7617 26.2695 29.0039 Z M 65.1855 29.0039 L 79.3945 4.49219 C 80.4199 2.68555 79.9316 0.488281 78.125 -0.585938 C 76.2695 -1.61133 74.2188 -0.976562 73.1445 0.927734 L 58.9355 25.4883 C 57.9102 27.2461 58.3496 29.3945 60.2051 30.4688 C 62.0117 31.4941 64.1602 30.7617 65.1855 29.0039 Z"/>
  </g>
  <g id="Semibold-M" transform="matrix(1 0 0 1 1977.71 1126)">
   <path d="M 32.5684 -10.5469 L 93.6523 -10.5469 C 109.863 -10.5469 122.363 -22.8027 122.363 -38.5742 C 122.363 -54.5898 109.521 -66.6504 92.627 -66.5039 C 86.2305 -79.1992 74.7559 -86.2793 60.5957 -86.2793 C 42.0898 -86.2793 26.709 -72.2656 24.7559 -53.7598 C 15.1855 -50.8789 8.74023 -42.7734 8.74023 -32.5684 C 8.74023 -19.6289 18.5059 -10.5469 32.5684 -10.5469 Z M 44.3848 27.5879 L 58.6426 2.92969 C 59.6191 1.2207 59.1309 -0.78125 57.4707 -1.75781 C 55.7617 -2.73438 53.8574 -2.19727 52.832 -0.439453 L 38.5254 24.3164 C 37.6465 25.8789 38.0371 27.9297 39.7461 28.9062 C 41.4551 29.834 43.457 29.1992 44.3848 27.5879 Z M 24.9023 27.5879 L 39.1602 2.92969 C 40.1367 1.2207 39.6484 -0.78125 37.9395 -1.75781 C 36.2305 -2.73438 34.3262 -2.14844 33.3496 -0.390625 L 19.043 24.3164 C 18.1641 25.9277 18.5059 27.9297 20.2637 28.9062 C 21.9238 29.8828 23.9746 29.248 24.9023 27.5879 Z M 63.7695 27.5879 L 78.0273 2.92969 C 79.0039 1.2207 78.5645 -0.78125 76.8555 -1.75781 C 75.1465 -2.73438 73.2422 -2.14844 72.2168 -0.390625 L 57.959 24.3164 C 57.0312 25.9277 57.4219 27.9297 59.1309 28.9062 C 60.8398 29.8828 62.8418 29.248 63.7695 27.5879 Z M 83.2031 27.5879 L 97.5098 2.83203 C 98.4375 1.2207 97.998 -0.878906 96.3379 -1.75781 C 94.6289 -2.68555 92.6758 -2.19727 91.6992 -0.439453 L 77.4902 24.2188 C 76.5137 25.8789 76.9043 27.9297 78.6133 28.9062 C 80.2246 29.834 82.2754 29.1992 83.2031 27.5879 Z"/>
  </g>
  <g id="Medium-M" transform="matrix(1 0 0 1 1681.69 1126)">
   <path d="M 31.9824 -11.2793 L 92.8711 -11.2793 C 108.74 -11.2793 120.996 -23.291 120.996 -38.7695 C 120.996 -54.3945 108.301 -66.1621 91.5527 -66.0156 C 85.2539 -78.6621 73.7793 -85.8398 59.8633 -85.8398 C 41.6016 -85.8398 26.2695 -71.7285 24.5605 -53.3691 C 15.0391 -50.5859 8.74023 -42.5293 8.74023 -32.6172 C 8.74023 -20.0195 18.2129 -11.2793 31.9824 -11.2793 Z M 43.3105 26.4648 L 57.6172 1.75781 C 58.5449 0.0976562 58.0566 -1.75781 56.4941 -2.68555 C 54.8828 -3.61328 53.0762 -3.07617 52.0996 -1.41602 L 37.793 23.3887 C 36.9141 24.9023 37.3047 26.8066 38.9648 27.7344 C 40.5273 28.6133 42.4316 28.0273 43.3105 26.4648 Z M 23.8281 26.5137 L 38.1348 1.75781 C 39.0625 0.0976562 38.5742 -1.70898 37.0117 -2.63672 C 35.4004 -3.56445 33.5938 -3.07617 32.6172 -1.41602 L 18.3105 23.3887 C 17.4805 24.9512 17.8223 26.8066 19.4824 27.7344 C 21.0449 28.6133 22.9492 28.0762 23.8281 26.5137 Z M 62.7441 26.5137 L 77.002 1.75781 C 77.9785 0.0976562 77.4902 -1.70898 75.8789 -2.63672 C 74.2676 -3.56445 72.4609 -3.07617 71.5332 -1.41602 L 57.1777 23.3887 C 56.3477 24.9512 56.7383 26.8066 58.3496 27.7344 C 59.9609 28.6133 61.8652 28.0762 62.7441 26.5137 Z M 82.0801 26.5137 L 96.4844 1.66016 C 97.3633 0.0976562 96.9238 -1.80664 95.3613 -2.68555 C 93.75 -3.51562 91.9434 -3.07617 91.0156 -1.46484 L 76.709 23.3398 C 75.7812 24.9023 76.2207 26.8066 77.7832 27.7344 C 79.2969 28.6133 81.25 28.0273 82.0801 26.5137 Z"/>
  </g>
  <g id="Regular-M" transform="matrix(1 0 0 1 1385.86 1126)">
   <path d="M 31.2012 -12.2559 L 91.7969 -12.2559 C 107.324 -12.2559 119.238 -23.9746 119.238 -38.9648 C 119.238 -54.1504 106.738 -65.5273 90.1855 -65.3809 C 83.9355 -77.9785 72.4609 -85.2539 58.9355 -85.2539 C 40.918 -85.2539 25.7324 -71.0449 24.3652 -52.832 C 14.8926 -50.2441 8.74023 -42.2852 8.74023 -32.666 C 8.74023 -20.5566 17.8223 -12.2559 31.2012 -12.2559 Z M 22.4609 25.0977 L 36.8164 0.244141 C 37.6953 -1.31836 37.207 -2.97852 35.7422 -3.85742 C 34.2773 -4.6875 32.6172 -4.24805 31.7383 -2.73438 L 17.334 22.2168 C 16.5527 23.6328 16.9434 25.3418 18.457 26.2207 C 19.873 27.002 21.6309 26.5137 22.4609 25.0977 Z M 41.9434 25.0977 L 56.25 0.244141 C 57.1289 -1.31836 56.6895 -2.97852 55.2246 -3.85742 C 53.7109 -4.6875 52.0508 -4.24805 51.1719 -2.73438 L 36.8164 22.2168 C 36.0352 23.6328 36.377 25.3418 37.8906 26.2207 C 39.3555 27.002 41.1133 26.5137 41.9434 25.0977 Z M 61.377 25.0977 L 75.6836 0.244141 C 76.5625 -1.31836 76.123 -2.97852 74.6582 -3.85742 C 73.1445 -4.6875 71.4844 -4.24805 70.6055 -2.73438 L 56.25 22.2168 C 55.4688 23.6328 55.8105 25.3418 57.3242 26.2207 C 58.7891 27.002 60.5469 26.5137 61.377 25.0977 Z M 80.6641 25.1465 L 95.1172 0.146484 C 95.9473 -1.31836 95.5078 -3.07617 94.043 -3.85742 C 92.627 -4.58984 90.918 -4.24805 90.0879 -2.7832 L 75.7324 22.1191 C 74.8535 23.6328 75.293 25.3418 76.7578 26.2207 C 78.0762 27.002 79.8828 26.5137 80.6641 25.1465 Z"/>
  </g>
  <g id="Light-M" transform="matrix(1 0 0 1 1089.56 1126)">
   <path d="M 30.5176 -13.2812 L 91.4551 -13.2812 C 106.641 -13.2812 118.408 -24.6582 118.408 -39.3066 C 118.408 -54.1016 106.152 -65.1855 89.8438 -65.0879 C 83.5449 -78.0273 72.3145 -85.2539 58.6426 -85.2539 C 40.918 -85.2539 26.0254 -71.0449 24.6582 -52.832 C 14.9902 -50.293 8.74023 -42.4316 8.74023 -33.0078 C 8.74023 -21.2891 17.5781 -13.2812 30.5176 -13.2812 Z M 21.6797 24.4141 L 36.5234 -1.36719 C 37.2559 -2.63672 36.9141 -3.95508 35.7422 -4.6875 C 34.5703 -5.32227 33.2031 -4.98047 32.4707 -3.71094 L 17.5781 22.1191 C 16.8945 23.291 17.1875 24.6582 18.4082 25.3906 C 19.5801 26.0254 20.9473 25.6348 21.6797 24.4141 Z M 41.1621 24.4141 L 56.0059 -1.36719 C 56.7383 -2.63672 56.3965 -3.95508 55.2246 -4.6875 C 54.0527 -5.32227 52.6855 -4.98047 51.9531 -3.71094 L 37.0605 22.1191 C 36.377 23.291 36.6699 24.6582 37.8906 25.3906 C 39.0625 26.0254 40.4297 25.6348 41.1621 24.4141 Z M 60.5469 24.4141 L 75.3906 -1.36719 C 76.1719 -2.63672 75.7812 -3.95508 74.6094 -4.6875 C 73.4375 -5.32227 72.1191 -4.98047 71.3379 -3.71094 L 56.4453 22.1191 C 55.8105 23.291 56.1035 24.6582 57.2754 25.3906 C 58.4473 26.0254 59.8633 25.6348 60.5469 24.4141 Z M 79.9316 24.4141 L 94.873 -1.41602 C 95.6055 -2.63672 95.2148 -4.05273 94.043 -4.6875 C 92.9199 -5.27344 91.5527 -4.98047 90.8203 -3.71094 L 75.9766 22.0703 C 75.2441 23.291 75.5859 24.6582 76.7578 25.3906 C 77.832 26.0254 79.248 25.6348 79.9316 24.4141 Z"/>
  </g>
  <g id="Thin-M" transform="matrix(1 0 0 1 793.385 1126)">
   <path d="M 29.6387 -14.5508 L 91.0156 -14.5508 C 105.811 -14.5508 117.334 -25.6348 117.334 -39.7949 C 117.334 -54.0527 105.322 -64.7461 89.4043 -64.6484 C 82.959 -78.125 72.0703 -85.2539 58.2031 -85.2539 C 40.9668 -85.2539 26.4648 -71.0938 25.0977 -52.832 C 15.1367 -50.3418 8.74023 -42.6758 8.74023 -33.4473 C 8.74023 -22.3145 17.2363 -14.5508 29.6387 -14.5508 Z M 20.6055 23.4863 L 36.1328 -3.41797 C 36.7188 -4.39453 36.4746 -5.27344 35.6934 -5.76172 C 34.9121 -6.20117 34.0332 -5.95703 33.4473 -4.98047 L 17.8711 21.9727 C 17.3828 22.9004 17.5293 23.7793 18.3594 24.2676 C 19.1406 24.7559 20.0684 24.4629 20.6055 23.4863 Z M 40.0879 23.4863 L 55.6641 -3.41797 C 56.25 -4.39453 55.957 -5.27344 55.1758 -5.76172 C 54.4434 -6.20117 53.5156 -5.95703 52.9297 -4.98047 L 37.4023 21.9727 C 36.8652 22.9004 37.0605 23.7793 37.8418 24.2676 C 38.6719 24.7559 39.5508 24.4629 40.0879 23.4863 Z M 59.4727 23.4863 L 75.0488 -3.41797 C 75.6348 -4.39453 75.3906 -5.27344 74.5605 -5.76172 C 73.8281 -6.20117 72.9492 -5.95703 72.3633 -4.98047 L 56.7871 21.9727 C 56.25 22.9004 56.4453 23.7793 57.2266 24.2676 C 58.0566 24.7559 58.9844 24.4629 59.4727 23.4863 Z M 78.9551 23.4863 L 94.5312 -3.4668 C 95.1172 -4.39453 94.873 -5.32227 94.043 -5.76172 C 93.3105 -6.15234 92.4316 -5.95703 91.8457 -4.98047 L 76.2695 21.9238 C 75.7324 22.9004 75.9277 23.7793 76.7578 24.2676 C 77.4902 24.7559 78.418 24.4629 78.9551 23.4863 Z"/>
  </g>
  <g id="Ultralight-M" transform="matrix(1 0 0 1 496.967 1126)">
   <path d="M 29.1992 -15.2344 L 90.8203 -15.2344 C 105.371 -15.2344 116.748 -26.123 116.748 -40.0391 C 116.748 -54.0039 104.883 -64.5508 89.1602 -64.4043 C 82.7148 -78.125 71.9238 -85.2539 57.959 -85.2539 C 40.9668 -85.2539 26.6602 -71.0938 25.3418 -52.832 C 15.2344 -50.3418 8.74023 -42.8223 8.74023 -33.6426 C 8.74023 -22.8516 17.0898 -15.2344 29.1992 -15.2344 Z M 78.418 23.0469 L 94.3359 -4.49219 C 94.873 -5.27344 94.6777 -5.95703 94.043 -6.34766 C 93.5059 -6.64062 92.8711 -6.44531 92.3828 -5.66406 L 76.416 21.875 C 76.0254 22.7051 76.123 23.3398 76.7578 23.7305 C 77.3438 24.0723 78.0273 23.8281 78.418 23.0469 Z M 20.0195 23.0469 L 35.9375 -4.49219 C 36.4746 -5.27344 36.2793 -5.95703 35.6445 -6.34766 C 35.1074 -6.64062 34.4727 -6.44531 33.9844 -5.66406 L 18.0176 21.875 C 17.627 22.7051 17.7246 23.3398 18.3594 23.7305 C 18.9453 24.0723 19.6289 23.8281 20.0195 23.0469 Z M 39.5508 23.0469 L 55.4688 -4.49219 C 55.957 -5.27344 55.7617 -5.95703 55.1758 -6.34766 C 54.6387 -6.64062 53.9551 -6.44531 53.4668 -5.66406 L 37.5488 21.875 C 37.1094 22.7051 37.2559 23.3398 37.8418 23.7305 C 38.4766 24.0723 39.1113 23.8281 39.5508 23.0469 Z M 58.9355 23.0469 L 74.8535 -4.49219 C 75.3418 -5.27344 75.1465 -5.95703 74.5605 -6.34766 C 74.0234 -6.64062 73.3398 -6.44531 72.8516 -5.66406 L 56.9336 21.875 C 56.4941 22.7051 56.6406 23.3398 57.2266 23.7305 C 57.8125 24.0723 58.4961 23.8281 58.9355 23.0469 Z"/>
  </g>
  <g id="Black-S" transform="matrix(1 0 0 1 2879.54 696)">
   <path d="M 27.7832 -13.0859 L 76.416 -13.0859 C 90.2344 -13.0859 100.879 -23.584 100.879 -37.207 C 100.879 -51.0742 90.2832 -61.6699 76.5137 -61.5723 C 71.2891 -71.6309 62.3047 -76.8555 50.1465 -76.8555 C 34.8633 -76.8555 22.4121 -66.2598 20.0684 -51.2695 C 12.4023 -48.5352 6.83594 -41.9434 6.83594 -33.0078 C 6.83594 -21.4844 15.625 -13.0859 27.7832 -13.0859 Z M 38.7695 18.0176 L 49.8047 -0.976562 C 50.7324 -2.58789 50.3418 -4.6875 48.6328 -5.66406 C 46.9238 -6.64062 45.0195 -5.95703 44.043 -4.24805 L 33.0078 14.7461 C 32.0801 16.3574 32.4219 18.4082 34.1309 19.3848 C 35.8398 20.3613 37.8418 19.6289 38.7695 18.0176 Z M 69.2383 18.0176 L 80.2734 -0.976562 C 81.2012 -2.58789 80.8105 -4.6875 79.1016 -5.66406 C 77.3926 -6.64062 75.4883 -5.95703 74.5117 -4.24805 L 63.4766 14.7461 C 62.5488 16.3574 62.8906 18.4082 64.5996 19.3848 C 66.3086 20.3613 68.3105 19.6289 69.2383 18.0176 Z M 23.4375 18.0664 L 34.4727 -0.927734 C 35.4004 -2.53906 35.0098 -4.63867 33.3008 -5.61523 C 31.5918 -6.5918 29.6875 -5.9082 28.7109 -4.19922 L 17.6758 14.7949 C 16.748 16.4062 17.0898 18.457 18.7988 19.4336 C 20.5078 20.4102 22.5098 19.6777 23.4375 18.0664 Z M 53.9062 18.0664 L 64.9414 -0.927734 C 65.8691 -2.53906 65.4785 -4.63867 63.7695 -5.61523 C 62.0605 -6.5918 60.1562 -5.9082 59.1797 -4.19922 L 48.1445 14.7949 C 47.2168 16.4062 47.5586 18.457 49.2676 19.4336 C 50.9766 20.4102 52.9785 19.6777 53.9062 18.0664 Z"/>
  </g>
  <g id="Heavy-S" transform="matrix(1 0 0 1 2583.66 696)">
   <path d="M 27.0508 -13.9648 L 75.3906 -13.9648 C 88.8672 -13.9648 99.2188 -24.1699 99.2188 -37.4023 C 99.2188 -50.8301 88.7695 -61.084 75.1465 -60.9863 C 70.0195 -70.9473 61.0352 -76.2695 49.2676 -76.2695 C 34.1797 -76.2695 21.8262 -65.5762 19.7754 -50.7324 C 12.207 -48.1445 6.83594 -41.6504 6.83594 -33.0078 C 6.83594 -21.9238 15.2344 -13.9648 27.0508 -13.9648 Z M 37.4512 16.6992 L 48.4863 -2.34375 C 49.3652 -3.85742 48.9746 -5.81055 47.3633 -6.73828 C 45.752 -7.66602 43.9453 -7.03125 43.0176 -5.41992 L 31.9824 13.5742 C 31.1035 15.0879 31.4453 17.041 33.1055 17.9688 C 34.668 18.8477 36.5723 18.2129 37.4512 16.6992 Z M 67.9199 16.6992 L 78.9551 -2.34375 C 79.834 -3.85742 79.4434 -5.85938 77.832 -6.73828 C 76.2207 -7.66602 74.4141 -7.03125 73.4863 -5.46875 L 62.4512 13.5742 C 61.5723 15.0879 61.9141 17.041 63.5254 17.9688 C 65.1367 18.8477 67.041 18.2129 67.9199 16.6992 Z M 22.168 16.6992 L 33.1543 -2.29492 C 34.082 -3.80859 33.6426 -5.76172 32.0312 -6.68945 C 30.4199 -7.61719 28.6621 -7.03125 27.7344 -5.41992 L 16.6992 13.623 C 15.8203 15.1367 16.1621 17.041 17.7734 17.9688 C 19.3848 18.8965 21.2891 18.2617 22.168 16.6992 Z M 52.6367 16.6992 L 63.623 -2.29492 C 64.5508 -3.80859 64.1113 -5.76172 62.5 -6.68945 C 60.8887 -7.61719 59.1309 -7.03125 58.2031 -5.41992 L 47.168 13.623 C 46.2891 15.1367 46.6309 17.041 48.2422 17.9688 C 49.8535 18.8965 51.7578 18.2617 52.6367 16.6992 Z"/>
  </g>
  <g id="Bold-S" transform="matrix(1 0 0 1 2287.88 696)">
   <path d="M 26.2695 -14.9414 L 74.2188 -14.9414 C 87.3047 -14.9414 97.3633 -24.8047 97.3633 -37.5977 C 97.3633 -50.5859 87.1094 -60.4004 73.6328 -60.3027 C 68.6035 -70.166 59.5703 -75.6348 48.2422 -75.6348 C 33.4473 -75.6348 21.1914 -64.7949 19.4824 -50.1465 C 12.0117 -47.7539 6.83594 -41.3086 6.83594 -33.0566 C 6.83594 -22.4121 14.8438 -14.9414 26.2695 -14.9414 Z M 35.9863 15.1855 L 47.0215 -3.85742 C 47.8516 -5.32227 47.4609 -7.08008 45.9473 -7.95898 C 44.4336 -8.83789 42.7734 -8.30078 41.8945 -6.78711 L 30.8594 12.3047 C 30.0781 13.6719 30.3711 15.4785 31.8848 16.3574 C 33.3984 17.1875 35.1562 16.6016 35.9863 15.1855 Z M 66.4062 15.1855 L 77.4414 -3.85742 C 78.2715 -5.32227 77.8809 -7.12891 76.416 -7.95898 C 74.9023 -8.78906 73.1934 -8.30078 72.3633 -6.78711 L 61.3281 12.2559 C 60.498 13.6719 60.8398 15.4785 62.3535 16.3574 C 63.8184 17.1875 65.625 16.6016 66.4062 15.1855 Z M 20.7031 15.1855 L 31.7383 -3.80859 C 32.5684 -5.27344 32.1777 -7.08008 30.6641 -7.91016 C 29.1504 -8.78906 27.4414 -8.25195 26.6113 -6.73828 L 15.5762 12.3047 C 14.7949 13.7207 15.0879 15.4785 16.6016 16.3574 C 18.1152 17.1875 19.873 16.6504 20.7031 15.1855 Z M 51.1719 15.1855 L 62.207 -3.80859 C 63.0371 -5.27344 62.6465 -7.08008 61.1328 -7.91016 C 59.6191 -8.78906 57.9102 -8.25195 57.0801 -6.73828 L 46.0449 12.3047 C 45.2637 13.7207 45.5566 15.4785 47.0703 16.3574 C 48.584 17.1875 50.3418 16.6504 51.1719 15.1855 Z"/>
  </g>
  <g id="Semibold-S" transform="matrix(1 0 0 1 1991.83 696)">
   <path d="M 25.7324 -15.5762 L 73.4375 -15.5762 C 86.2305 -15.5762 96.0449 -25.2441 96.0449 -37.7441 C 96.0449 -50.3906 85.9375 -59.9609 72.6074 -59.8633 C 67.627 -69.6289 58.5938 -75.1953 47.5586 -75.1953 C 32.9102 -75.1953 20.8008 -64.209 19.2871 -49.7559 C 11.8652 -47.4609 6.83594 -41.0645 6.83594 -33.0566 C 6.83594 -22.7539 14.5508 -15.5762 25.7324 -15.5762 Z M 35.0098 14.1602 L 45.9961 -4.88281 C 46.7773 -6.29883 46.3867 -7.95898 44.9707 -8.78906 C 43.5059 -9.61914 41.9434 -9.13086 41.1133 -7.66602 L 30.0781 11.4258 C 29.3457 12.7441 29.6387 14.4043 31.1035 15.2344 C 32.5195 16.0156 34.2285 15.5273 35.0098 14.1602 Z M 19.7266 14.1602 L 30.7129 -4.83398 C 31.543 -6.29883 31.1035 -7.95898 29.6875 -8.78906 C 28.2715 -9.57031 26.6602 -9.13086 25.8301 -7.66602 L 14.7949 11.4258 C 14.0625 12.7441 14.4043 14.4043 15.8203 15.2344 C 17.2363 16.0645 18.9453 15.5273 19.7266 14.1602 Z M 50.1953 14.1602 L 61.1816 -4.83398 C 62.0117 -6.29883 61.5723 -7.95898 60.1562 -8.78906 C 58.7402 -9.57031 57.1289 -9.13086 56.2988 -7.66602 L 45.2637 11.4258 C 44.5312 12.7441 44.873 14.4043 46.2891 15.2344 C 47.7051 16.0645 49.4141 15.5273 50.1953 14.1602 Z M 65.3809 14.1602 L 76.416 -4.93164 C 77.1973 -6.29883 76.8066 -8.00781 75.3906 -8.78906 C 73.9746 -9.52148 72.3633 -9.13086 71.582 -7.71484 L 60.5469 11.3281 C 59.7656 12.7441 60.1074 14.4043 61.5234 15.2344 C 62.8906 16.0156 64.5996 15.5273 65.3809 14.1602 Z"/>
  </g>
  <g id="Medium-S" transform="matrix(1 0 0 1 1695.6 696)">
   <path d="M 25.293 -16.1133 L 72.8516 -16.1133 C 85.4492 -16.1133 95.0684 -25.5859 95.0684 -37.8418 C 95.0684 -50.2441 85.0586 -59.5703 71.8262 -59.4727 C 66.8945 -69.2383 57.8613 -74.8535 47.0215 -74.8535 C 32.5195 -74.8535 20.459 -63.8184 19.0918 -49.4141 C 11.7188 -47.2656 6.83594 -40.8691 6.83594 -33.0566 C 6.83594 -23.0469 14.3555 -16.1133 25.293 -16.1133 Z M 34.2285 13.3789 L 45.2148 -5.66406 C 45.9961 -7.03125 45.5566 -8.59375 44.2383 -9.42383 C 42.8223 -10.2051 41.3086 -9.76562 40.4785 -8.39844 L 29.4922 10.7422 C 28.7598 12.0117 29.1016 13.623 30.4688 14.4043 C 31.8359 15.1367 33.4961 14.6484 34.2285 13.3789 Z M 18.9941 13.3789 L 29.9316 -5.66406 C 30.7617 -7.03125 30.3223 -8.59375 28.9551 -9.42383 C 27.5879 -10.2051 26.0254 -9.76562 25.2441 -8.34961 L 14.209 10.7422 C 13.5254 12.0117 13.8184 13.623 15.2344 14.4043 C 16.6016 15.1367 18.2129 14.6973 18.9941 13.3789 Z M 49.4629 13.3789 L 60.4004 -5.66406 C 61.2305 -7.03125 60.791 -8.59375 59.4238 -9.42383 C 58.0566 -10.2051 56.4941 -9.76562 55.7129 -8.34961 L 44.6777 10.7422 C 43.9941 12.0117 44.2871 13.623 45.7031 14.4043 C 47.0703 15.1367 48.6816 14.6973 49.4629 13.3789 Z M 64.5996 13.4277 L 75.6348 -5.71289 C 76.3672 -7.03125 76.0254 -8.69141 74.6582 -9.42383 C 73.291 -10.1074 71.7285 -9.76562 70.9473 -8.39844 L 59.9609 10.6445 C 59.1797 12.0117 59.5703 13.623 60.9375 14.4043 C 62.207 15.1367 63.8672 14.6484 64.5996 13.4277 Z"/>
  </g>
  <g id="Regular-S" transform="matrix(1 0 0 1 1399.53 696)">
   <path d="M 24.7559 -16.748 L 72.0703 -16.748 C 84.375 -16.748 93.7988 -26.0254 93.7988 -37.9883 C 93.7988 -50.0977 83.9355 -59.1309 70.8008 -59.0332 C 65.9668 -68.7012 56.8359 -74.4141 46.3379 -74.4141 C 32.0312 -74.4141 20.0195 -63.2812 18.8965 -49.0234 C 11.5723 -46.9727 6.83594 -40.6738 6.83594 -33.0566 C 6.83594 -23.3398 14.0625 -16.748 24.7559 -16.748 Z M 17.9688 12.3535 L 28.9551 -6.68945 C 29.7363 -8.00781 29.2969 -9.47266 28.0273 -10.2539 C 26.709 -10.9863 25.2441 -10.5957 24.4629 -9.27734 L 13.4766 9.86328 C 12.793 11.0352 13.1348 12.5488 14.4531 13.2812 C 15.7227 14.0137 17.2852 13.5742 17.9688 12.3535 Z M 33.2031 12.3535 L 44.1895 -6.68945 C 44.9707 -8.00781 44.5312 -9.47266 43.2617 -10.2539 C 41.9434 -10.9863 40.4785 -10.5957 39.6973 -9.27734 L 28.7109 9.86328 C 28.0273 11.0352 28.3691 12.5488 29.6875 13.2812 C 30.957 14.0137 32.5195 13.5742 33.2031 12.3535 Z M 48.4375 12.3535 L 59.4238 -6.68945 C 60.2051 -8.00781 59.7656 -9.47266 58.4961 -10.2539 C 57.1777 -10.9863 55.7129 -10.5957 54.9316 -9.27734 L 43.9453 9.86328 C 43.2617 11.0352 43.6035 12.5488 44.9219 13.2812 C 46.1914 14.0137 47.7539 13.5742 48.4375 12.3535 Z M 63.5742 12.4023 L 74.6094 -6.78711 C 75.3418 -8.00781 74.9512 -9.57031 73.6816 -10.2539 C 72.4121 -10.8887 70.8984 -10.5957 70.166 -9.32617 L 59.2285 9.76562 C 58.4473 11.0352 58.8379 12.5488 60.1074 13.2812 C 61.2793 14.0137 62.8906 13.5742 63.5742 12.4023 Z"/>
  </g>
  <g id="Light-S" transform="matrix(1 0 0 1 1103.18 696)">
   <path d="M 24.1699 -17.627 L 71.7773 -17.627 C 83.7891 -17.627 93.0664 -26.709 93.0664 -38.2812 C 93.0664 -50.0488 83.3984 -58.8379 70.5078 -58.7402 C 65.5762 -68.75 56.6895 -74.4141 46.0449 -74.4141 C 32.0312 -74.4141 20.2637 -63.2812 19.1895 -49.0234 C 11.6699 -47.0215 6.83594 -40.8203 6.83594 -33.3496 C 6.83594 -24.0234 13.8672 -17.627 24.1699 -17.627 Z M 17.2852 11.7676 L 28.7109 -8.10547 C 29.3457 -9.17969 29.0039 -10.3516 27.9785 -10.9863 C 26.9531 -11.5723 25.7812 -11.2793 25.1465 -10.1562 L 13.6719 9.76562 C 13.0859 10.7422 13.3789 11.9629 14.4043 12.5488 C 15.4297 13.1348 16.6992 12.793 17.2852 11.7676 Z M 32.5195 11.7676 L 43.9453 -8.10547 C 44.6289 -9.17969 44.2871 -10.3516 43.2617 -10.9863 C 42.1875 -11.5723 41.0156 -11.2793 40.3809 -10.1562 L 28.9062 9.76562 C 28.3691 10.7422 28.6133 11.9629 29.6875 12.5488 C 30.7129 13.1348 31.9336 12.793 32.5195 11.7676 Z M 47.7539 11.7676 L 59.1797 -8.10547 C 59.8145 -9.17969 59.4727 -10.3516 58.4473 -10.9863 C 57.4219 -11.5723 56.25 -11.2793 55.6152 -10.1562 L 44.1406 9.76562 C 43.5547 10.7422 43.8477 11.9629 44.873 12.5488 C 45.8984 13.1348 47.168 12.793 47.7539 11.7676 Z M 62.8906 11.7676 L 74.4141 -8.1543 C 75 -9.17969 74.707 -10.4004 73.6816 -10.9863 C 72.6562 -11.4746 71.4844 -11.2793 70.8496 -10.1562 L 59.4238 9.66797 C 58.7891 10.7422 59.082 11.9629 60.1074 12.5488 C 61.084 13.1348 62.3535 12.793 62.8906 11.7676 Z"/>
  </g>
  <g id="Thin-S" transform="matrix(1 0 0 1 806.935 696)">
   <path d="M 23.3887 -18.7988 L 71.3867 -18.7988 C 83.0566 -18.7988 92.1387 -27.5391 92.1387 -38.7207 C 92.1387 -50 82.666 -58.4473 70.1172 -58.3496 C 65.0879 -68.7988 56.4941 -74.4141 45.6543 -74.4141 C 32.0801 -74.4141 20.6055 -63.3301 19.5801 -49.0234 C 11.8164 -47.0215 6.83594 -41.0156 6.83594 -33.7402 C 6.83594 -24.9023 13.5742 -18.7988 23.3887 -18.7988 Z M 16.3086 10.9375 L 28.3691 -9.91211 C 28.8574 -10.7422 28.6621 -11.5234 27.9785 -11.9141 C 27.2949 -12.3047 26.5137 -12.1094 26.0254 -11.2793 L 13.916 9.61914 C 13.5254 10.4004 13.6719 11.1816 14.4043 11.6211 C 15.0879 12.0117 15.8691 11.7676 16.3086 10.9375 Z M 31.5918 10.9375 L 43.6523 -9.91211 C 44.1406 -10.7422 43.9453 -11.5234 43.2129 -11.9141 C 42.5293 -12.3047 41.748 -12.1094 41.2598 -11.2793 L 29.1992 9.61914 C 28.7598 10.4004 28.9551 11.1816 29.6387 11.6211 C 30.3711 12.0117 31.1523 11.7676 31.5918 10.9375 Z M 46.7773 10.9375 L 58.8379 -9.91211 C 59.3262 -10.7422 59.1309 -11.5234 58.4473 -11.9141 C 57.7637 -12.3047 56.9824 -12.1094 56.4941 -11.2793 L 44.3848 9.61914 C 43.9941 10.4004 44.1406 11.1816 44.873 11.6211 C 45.5566 12.0117 46.3379 11.7676 46.7773 10.9375 Z M 62.0117 10.9863 L 74.1211 -9.96094 C 74.6094 -10.7422 74.3652 -11.5234 73.6816 -11.9141 C 72.998 -12.3047 72.2168 -12.1094 71.7285 -11.2793 L 59.668 9.57031 C 59.2285 10.4004 59.4238 11.1816 60.1074 11.6211 C 60.791 12.0117 61.6211 11.7676 62.0117 10.9863 Z"/>
  </g>
  <g id="Ultralight-S" transform="matrix(1 0 0 1 510.492 696)">
   <path d="M 22.998 -19.3848 L 71.1914 -19.3848 C 82.666 -19.3848 91.6016 -27.9785 91.6016 -38.916 C 91.6016 -49.9512 82.2754 -58.252 69.9219 -58.1543 C 64.8438 -68.8477 56.3965 -74.4141 45.459 -74.4141 C 32.0801 -74.4141 20.8008 -63.3301 19.7754 -49.0234 C 11.9141 -47.0703 6.83594 -41.1133 6.83594 -33.9355 C 6.83594 -25.3906 13.4277 -19.3848 22.998 -19.3848 Z M 15.8203 10.5469 L 28.2227 -10.8887 C 28.6133 -11.5234 28.4668 -12.1094 27.9297 -12.4512 C 27.4414 -12.6953 26.8555 -12.5488 26.4648 -11.8652 L 14.0625 9.52148 C 13.7207 10.2051 13.8184 10.791 14.3555 11.084 C 14.8926 11.4258 15.4785 11.2305 15.8203 10.5469 Z M 31.1035 10.5469 L 43.5059 -10.8887 C 43.8965 -11.5234 43.75 -12.1094 43.2129 -12.4512 C 42.7246 -12.6953 42.1387 -12.5488 41.748 -11.8652 L 29.3457 9.52148 C 29.0039 10.2051 29.1016 10.791 29.6387 11.084 C 30.1758 11.4258 30.7617 11.2305 31.1035 10.5469 Z M 46.2891 10.5469 L 58.6914 -10.8887 C 59.082 -11.5234 58.9355 -12.1094 58.3984 -12.4512 C 57.9102 -12.6953 57.3242 -12.5488 56.9336 -11.8652 L 44.5312 9.52148 C 44.1895 10.2051 44.2871 10.791 44.8242 11.084 C 45.3613 11.4258 45.9473 11.2305 46.2891 10.5469 Z M 61.5723 10.5469 L 73.9746 -10.8887 C 74.3652 -11.5234 74.2188 -12.1094 73.6816 -12.4512 C 73.1934 -12.6953 72.6074 -12.5488 72.2168 -11.8652 L 59.8145 9.52148 C 59.4727 10.2051 59.5703 10.791 60.1074 11.084 C 60.6445 11.4258 61.2305 11.2305 61.5723 10.5469 Z"/>
  </g>
 </g>
</svg>
