<?xml version="1.0" encoding="UTF-8"?>
<!--Generator: Apple Native CoreSVG 123-->
<!DOCTYPE svg
PUBLIC "-//W3C//DTD SVG 1.1//EN"
       "http://www.w3.org/Graphics/SVG/1.1/DTD/svg11.dtd">
<svg version="1.1" xmlns="http://www.w3.org/2000/svg" xmlns:xlink="http://www.w3.org/1999/xlink" width="3300" height="2200">
 <!--glyph: "uni1001C2.medium", point size: 100.000000, font version: "Version 15.0d7e11", template writer version: "5"-->
 <g id="Notes">
  <rect height="2200" id="artboard" style="fill:white;opacity:1" width="3300" x="0" y="0"/>
  <line id="" style="fill:none;stroke:black;opacity:1;stroke-width:0.5;" x1="263" x2="3036" y1="292" y2="292"/>
  <text style="stroke:none;fill:black;font-family:-apple-system,&quot;SF Pro Display&quot;,&quot;SF Pro Text&quot;,Helvetica,sans-serif;font-weight:bold;" transform="matrix(1 0 0 1 263 322)">Weight/Scale Variations</text>
  <text style="stroke:none;fill:black;font-family:-apple-system,&quot;SF Pro Display&quot;,&quot;SF Pro Text&quot;,Helvetica,sans-serif;text-anchor:middle;" transform="matrix(1 0 0 1 559.711 322)">Ultralight</text>
  <text style="stroke:none;fill:black;font-family:-apple-system,&quot;SF Pro Display&quot;,&quot;SF Pro Text&quot;,Helvetica,sans-serif;text-anchor:middle;" transform="matrix(1 0 0 1 856.422 322)">Thin</text>
  <text style="stroke:none;fill:black;font-family:-apple-system,&quot;SF Pro Display&quot;,&quot;SF Pro Text&quot;,Helvetica,sans-serif;text-anchor:middle;" transform="matrix(1 0 0 1 1153.13 322)">Light</text>
  <text style="stroke:none;fill:black;font-family:-apple-system,&quot;SF Pro Display&quot;,&quot;SF Pro Text&quot;,Helvetica,sans-serif;text-anchor:middle;" transform="matrix(1 0 0 1 1449.84 322)">Regular</text>
  <text style="stroke:none;fill:black;font-family:-apple-system,&quot;SF Pro Display&quot;,&quot;SF Pro Text&quot;,Helvetica,sans-serif;text-anchor:middle;" transform="matrix(1 0 0 1 1746.56 322)">Medium</text>
  <text style="stroke:none;fill:black;font-family:-apple-system,&quot;SF Pro Display&quot;,&quot;SF Pro Text&quot;,Helvetica,sans-serif;text-anchor:middle;" transform="matrix(1 0 0 1 2043.27 322)">Semibold</text>
  <text style="stroke:none;fill:black;font-family:-apple-system,&quot;SF Pro Display&quot;,&quot;SF Pro Text&quot;,Helvetica,sans-serif;text-anchor:middle;" transform="matrix(1 0 0 1 2339.98 322)">Bold</text>
  <text style="stroke:none;fill:black;font-family:-apple-system,&quot;SF Pro Display&quot;,&quot;SF Pro Text&quot;,Helvetica,sans-serif;text-anchor:middle;" transform="matrix(1 0 0 1 2636.69 322)">Heavy</text>
  <text style="stroke:none;fill:black;font-family:-apple-system,&quot;SF Pro Display&quot;,&quot;SF Pro Text&quot;,Helvetica,sans-serif;text-anchor:middle;" transform="matrix(1 0 0 1 2933.4 322)">Black</text>
  <line id="" style="fill:none;stroke:black;opacity:1;stroke-width:0.5;" x1="263" x2="3036" y1="1903" y2="1903"/>
  <g id="" transform="matrix(1 0 0 1 263 1933)">
   <path d="M 9.24805 0.830078 C 13.5547 0.830078 17.1387 -2.74414 17.1387 -7.05078 C 17.1387 -11.3574 13.5449 -14.9316 9.23828 -14.9316 C 4.94141 -14.9316 1.36719 -11.3574 1.36719 -7.05078 C 1.36719 -2.74414 4.95117 0.830078 9.24805 0.830078 Z M 9.24805 -0.654297 C 5.70312 -0.654297 2.87109 -3.49609 2.87109 -7.05078 C 2.87109 -10.6055 5.69336 -13.4473 9.23828 -13.4473 C 12.793 -13.4473 15.6348 -10.6055 15.6445 -7.05078 C 15.6543 -3.49609 12.8027 -0.654297 9.24805 -0.654297 Z M 9.22852 -3.42773 C 9.69727 -3.42773 9.9707 -3.74023 9.9707 -4.25781 L 9.9707 -6.31836 L 12.1973 -6.31836 C 12.6953 -6.31836 13.0371 -6.57227 13.0371 -7.04102 C 13.0371 -7.51953 12.7148 -7.7832 12.1973 -7.7832 L 9.9707 -7.7832 L 9.9707 -10.0098 C 9.9707 -10.5273 9.69727 -10.8496 9.22852 -10.8496 C 8.75977 -10.8496 8.50586 -10.5078 8.50586 -10.0098 L 8.50586 -7.7832 L 6.29883 -7.7832 C 5.78125 -7.7832 5.44922 -7.51953 5.44922 -7.04102 C 5.44922 -6.57227 5.80078 -6.31836 6.29883 -6.31836 L 8.50586 -6.31836 L 8.50586 -4.25781 C 8.50586 -3.75977 8.75977 -3.42773 9.22852 -3.42773 Z"/>
  </g>
  <g id="" transform="matrix(1 0 0 1 281.506 1933)">
   <path d="M 11.709 2.91016 C 17.1582 2.91016 21.6699 -1.60156 21.6699 -7.05078 C 21.6699 -12.4902 17.1484 -17.0117 11.6992 -17.0117 C 6.25977 -17.0117 1.74805 -12.4902 1.74805 -7.05078 C 1.74805 -1.60156 6.26953 2.91016 11.709 2.91016 Z M 11.709 1.25 C 7.09961 1.25 3.41797 -2.44141 3.41797 -7.05078 C 3.41797 -11.6504 7.08984 -15.3516 11.6992 -15.3516 C 16.3086 -15.3516 20 -11.6504 20.0098 -7.05078 C 20.0195 -2.44141 16.3184 1.25 11.709 1.25 Z M 11.6895 -2.41211 C 12.207 -2.41211 12.5195 -2.77344 12.5195 -3.33984 L 12.5195 -6.23047 L 15.5762 -6.23047 C 16.123 -6.23047 16.5039 -6.51367 16.5039 -7.03125 C 16.5039 -7.55859 16.1426 -7.86133 15.5762 -7.86133 L 12.5195 -7.86133 L 12.5195 -10.9277 C 12.5195 -11.5039 12.207 -11.8555 11.6895 -11.8555 C 11.1719 -11.8555 10.8789 -11.4844 10.8789 -10.9277 L 10.8789 -7.86133 L 7.83203 -7.86133 C 7.26562 -7.86133 6.89453 -7.55859 6.89453 -7.03125 C 6.89453 -6.51367 7.28516 -6.23047 7.83203 -6.23047 L 10.8789 -6.23047 L 10.8789 -3.33984 C 10.8789 -2.79297 11.1719 -2.41211 11.6895 -2.41211 Z"/>
  </g>
  <g id="" transform="matrix(1 0 0 1 304.924 1933)">
   <path d="M 14.9707 5.67383 C 21.9336 5.67383 27.6953 -0.078125 27.6953 -7.04102 C 27.6953 -14.0039 21.9238 -19.7559 14.9609 -19.7559 C 8.00781 -19.7559 2.25586 -14.0039 2.25586 -7.04102 C 2.25586 -0.078125 8.01758 5.67383 14.9707 5.67383 Z M 14.9707 3.85742 C 8.93555 3.85742 4.08203 -1.00586 4.08203 -7.04102 C 4.08203 -13.0762 8.92578 -17.9395 14.9609 -17.9395 C 21.0059 -17.9395 25.8594 -13.0762 25.8691 -7.04102 C 25.8789 -1.00586 21.0156 3.85742 14.9707 3.85742 Z M 14.9512 -1.06445 C 15.5176 -1.06445 15.8691 -1.45508 15.8691 -2.06055 L 15.8691 -6.13281 L 20.1074 -6.13281 C 20.6934 -6.13281 21.1133 -6.46484 21.1133 -7.02148 C 21.1133 -7.59766 20.7227 -7.93945 20.1074 -7.93945 L 15.8691 -7.93945 L 15.8691 -12.1875 C 15.8691 -12.8027 15.5176 -13.1934 14.9512 -13.1934 C 14.3848 -13.1934 14.0625 -12.7832 14.0625 -12.1875 L 14.0625 -7.93945 L 9.83398 -7.93945 C 9.21875 -7.93945 8.80859 -7.59766 8.80859 -7.02148 C 8.80859 -6.46484 9.23828 -6.13281 9.83398 -6.13281 L 14.0625 -6.13281 L 14.0625 -2.06055 C 14.0625 -1.47461 14.3848 -1.06445 14.9512 -1.06445 Z"/>
  </g>
  <text style="stroke:none;fill:black;font-family:-apple-system,&quot;SF Pro Display&quot;,&quot;SF Pro Text&quot;,Helvetica,sans-serif;font-weight:bold;" transform="matrix(1 0 0 1 263 1953)">Design Variations</text>
  <text style="stroke:none;fill:black;font-family:-apple-system,&quot;SF Pro Display&quot;,&quot;SF Pro Text&quot;,Helvetica,sans-serif;" transform="matrix(1 0 0 1 263 1971)">Symbols are supported in up to nine weights and three scales.</text>
  <text style="stroke:none;fill:black;font-family:-apple-system,&quot;SF Pro Display&quot;,&quot;SF Pro Text&quot;,Helvetica,sans-serif;" transform="matrix(1 0 0 1 263 1989)">For optimal layout with text and other symbols, vertically align</text>
  <text style="stroke:none;fill:black;font-family:-apple-system,&quot;SF Pro Display&quot;,&quot;SF Pro Text&quot;,Helvetica,sans-serif;" transform="matrix(1 0 0 1 263 2007)">symbols with the adjacent text.</text>
  <rect height="14" id="" style="fill:#00AEEF;stroke:none;opacity:0.4;" width="3" x="776" y="1919"/>
  <g id="" transform="matrix(1 0 0 1 779 1933)">
   <path d="M 10.5273 0 L 12.373 0 L 7.17773 -14.0918 L 5.43945 -14.0918 L 0.244141 0 L 2.08984 0 L 3.50586 -4.0332 L 9.11133 -4.0332 Z M 6.2793 -11.9531 L 6.33789 -11.9531 L 8.59375 -5.52734 L 4.02344 -5.52734 Z"/>
  </g>
  <rect height="14" id="" style="fill:#00AEEF;stroke:none;opacity:0.4;" width="3" x="791.617" y="1919"/>
  <text style="stroke:none;fill:black;font-family:-apple-system,&quot;SF Pro Display&quot;,&quot;SF Pro Text&quot;,Helvetica,sans-serif;font-weight:bold;" transform="matrix(1 0 0 1 776 1953)">Margins</text>
  <text style="stroke:none;fill:black;font-family:-apple-system,&quot;SF Pro Display&quot;,&quot;SF Pro Text&quot;,Helvetica,sans-serif;" transform="matrix(1 0 0 1 776 1971)">Leading and trailing margins on the left and right side of each symbol</text>
  <text style="stroke:none;fill:black;font-family:-apple-system,&quot;SF Pro Display&quot;,&quot;SF Pro Text&quot;,Helvetica,sans-serif;" transform="matrix(1 0 0 1 776 1989)">can be adjusted by modifying the width of the blue rectangles.</text>
  <text style="stroke:none;fill:black;font-family:-apple-system,&quot;SF Pro Display&quot;,&quot;SF Pro Text&quot;,Helvetica,sans-serif;" transform="matrix(1 0 0 1 776 2007)">Modifications are automatically applied proportionally to all</text>
  <text style="stroke:none;fill:black;font-family:-apple-system,&quot;SF Pro Display&quot;,&quot;SF Pro Text&quot;,Helvetica,sans-serif;" transform="matrix(1 0 0 1 776 2025)">scales and weights.</text>
  <g id="" transform="matrix(1 0 0 1 1289 1933)">
   <path d="M 2.83203 3.11523 L 4.375 4.6582 C 5.22461 5.48828 6.19141 5.41992 7.06055 4.46289 L 17.2754 -6.66016 C 17.7051 -6.36719 18.0957 -6.37695 18.5645 -6.47461 L 19.6094 -6.68945 L 20.3027 -5.99609 L 20.2539 -5.47852 C 20.1855 -4.95117 20.3516 -4.53125 20.8496 -4.0332 L 21.6602 -3.22266 C 22.168 -2.71484 22.8223 -2.68555 23.3008 -3.16406 L 26.5527 -6.41602 C 27.0312 -6.89453 27.0117 -7.54883 26.5039 -8.05664 L 25.6836 -8.87695 C 25.1855 -9.375 24.7754 -9.55078 24.2383 -9.47266 L 23.7109 -9.41406 L 23.0566 -10.0781 L 23.3398 -11.2207 C 23.4863 -11.7871 23.3398 -12.2559 22.7148 -12.8613 L 20.3027 -15.2539 C 16.7578 -18.7793 12.2266 -18.6719 9.11133 -15.5371 C 8.69141 -15.1074 8.64258 -14.5215 8.91602 -14.0918 C 9.15039 -13.7207 9.62891 -13.4961 10.2734 -13.6621 C 11.7871 -14.043 13.3008 -13.9258 14.7852 -12.9199 L 14.1602 -11.3379 C 13.9258 -10.752 13.9453 -10.2734 14.1797 -9.83398 L 3.01758 0.439453 C 2.08008 1.30859 1.97266 2.25586 2.83203 3.11523 Z M 10.6738 -15.1465 C 13.3398 -17.1387 16.6504 -16.8262 19.0527 -14.4141 L 21.6797 -11.8066 C 21.9141 -11.5723 21.9434 -11.3867 21.8848 -11.0938 L 21.5039 -9.53125 L 23.0762 -7.95898 L 24.043 -8.04688 C 24.3262 -8.07617 24.4141 -8.05664 24.6387 -7.83203 L 25.2637 -7.20703 L 22.5098 -4.46289 L 21.8848 -5.07812 C 21.6602 -5.30273 21.6406 -5.40039 21.6699 -5.68359 L 21.7578 -6.64062 L 20.1953 -8.20312 L 18.5742 -7.89062 C 18.291 -7.83203 18.1445 -7.83203 17.9102 -8.07617 L 15.7324 -10.2539 C 15.5078 -10.4883 15.4785 -10.625 15.6055 -10.9473 L 16.5527 -13.2227 C 14.9512 -14.7559 12.8418 -15.6055 10.8008 -14.9512 C 10.7129 -14.9219 10.6445 -14.9414 10.6152 -14.9805 C 10.5859 -15.0293 10.5859 -15.0781 10.6738 -15.1465 Z M 4.10156 2.41211 C 3.61328 1.91406 3.78906 1.61133 4.12109 1.30859 L 15.0781 -8.80859 L 16.3086 -7.57812 L 6.15234 3.34961 C 5.84961 3.68164 5.46875 3.7793 5.06836 3.37891 Z"/>
  </g>
  <text style="stroke:none;fill:black;font-family:-apple-system,&quot;SF Pro Display&quot;,&quot;SF Pro Text&quot;,Helvetica,sans-serif;font-weight:bold;" transform="matrix(1 0 0 1 1289 1953)">Exporting</text>
  <text style="stroke:none;fill:black;font-family:-apple-system,&quot;SF Pro Display&quot;,&quot;SF Pro Text&quot;,Helvetica,sans-serif;" transform="matrix(1 0 0 1 1289 1971)">Symbols should be outlined when exporting to ensure the</text>
  <text style="stroke:none;fill:black;font-family:-apple-system,&quot;SF Pro Display&quot;,&quot;SF Pro Text&quot;,Helvetica,sans-serif;" transform="matrix(1 0 0 1 1289 1989)">design is preserved when submitting to Xcode.</text>
  <text id="template-version" style="stroke:none;fill:black;font-family:-apple-system,&quot;SF Pro Display&quot;,&quot;SF Pro Text&quot;,Helvetica,sans-serif;text-anchor:end;" transform="matrix(1 0 0 1 3036 1933)">Template v.1.0</text>
  <text style="stroke:none;fill:black;font-family:-apple-system,&quot;SF Pro Display&quot;,&quot;SF Pro Text&quot;,Helvetica,sans-serif;text-anchor:end;" transform="matrix(1 0 0 1 3036 1951)">Generated from cloud</text>
  <text style="stroke:none;fill:black;font-family:-apple-system,&quot;SF Pro Display&quot;,&quot;SF Pro Text&quot;,Helvetica,sans-serif;text-anchor:end;" transform="matrix(1 0 0 1 3036 1969)">Typeset at 100 points</text>
  <text style="stroke:none;fill:black;font-family:-apple-system,&quot;SF Pro Display&quot;,&quot;SF Pro Text&quot;,Helvetica,sans-serif;" transform="matrix(1 0 0 1 263 726)">Small</text>
  <text style="stroke:none;fill:black;font-family:-apple-system,&quot;SF Pro Display&quot;,&quot;SF Pro Text&quot;,Helvetica,sans-serif;" transform="matrix(1 0 0 1 263 1156)">Medium</text>
  <text style="stroke:none;fill:black;font-family:-apple-system,&quot;SF Pro Display&quot;,&quot;SF Pro Text&quot;,Helvetica,sans-serif;" transform="matrix(1 0 0 1 263 1586)">Large</text>
 </g>
 <g id="Guides">
  <g id="H-reference" style="fill:#27AAE1;stroke:none;" transform="matrix(1 0 0 1 339 696)">
   <path d="M 54.9316 0 L 57.666 0 L 30.5664 -70.459 L 28.0762 -70.459 L 0.976562 0 L 3.66211 0 L 12.9395 -24.4629 L 45.7031 -24.4629 Z M 29.1992 -67.0898 L 29.4434 -67.0898 L 44.8242 -26.709 L 13.8184 -26.709 Z"/>
  </g>
  <line id="Baseline-S" style="fill:none;stroke:#27AAE1;opacity:1;stroke-width:0.577;" x1="263" x2="3036" y1="696" y2="696"/>
  <line id="Capline-S" style="fill:none;stroke:#27AAE1;opacity:1;stroke-width:0.577;" x1="263" x2="3036" y1="625.541" y2="625.541"/>
  <g id="H-reference" style="fill:#27AAE1;stroke:none;" transform="matrix(1 0 0 1 339 1126)">
   <path d="M 54.9316 0 L 57.666 0 L 30.5664 -70.459 L 28.0762 -70.459 L 0.976562 0 L 3.66211 0 L 12.9395 -24.4629 L 45.7031 -24.4629 Z M 29.1992 -67.0898 L 29.4434 -67.0898 L 44.8242 -26.709 L 13.8184 -26.709 Z"/>
  </g>
  <line id="Baseline-M" style="fill:none;stroke:#27AAE1;opacity:1;stroke-width:0.577;" x1="263" x2="3036" y1="1126" y2="1126"/>
  <line id="Capline-M" style="fill:none;stroke:#27AAE1;opacity:1;stroke-width:0.577;" x1="263" x2="3036" y1="1055.54" y2="1055.54"/>
  <g id="H-reference" style="fill:#27AAE1;stroke:none;" transform="matrix(1 0 0 1 339 1556)">
   <path d="M 54.9316 0 L 57.666 0 L 30.5664 -70.459 L 28.0762 -70.459 L 0.976562 0 L 3.66211 0 L 12.9395 -24.4629 L 45.7031 -24.4629 Z M 29.1992 -67.0898 L 29.4434 -67.0898 L 44.8242 -26.709 L 13.8184 -26.709 Z"/>
  </g>
  <line id="Baseline-L" style="fill:none;stroke:#27AAE1;opacity:1;stroke-width:0.577;" x1="263" x2="3036" y1="1556" y2="1556"/>
  <line id="Capline-L" style="fill:none;stroke:#27AAE1;opacity:1;stroke-width:0.577;" x1="263" x2="3036" y1="1485.54" y2="1485.54"/>
  <rect height="119.336" id="left-margin" style="fill:#00AEEF;stroke:none;opacity:0.4;" width="8.74023" x="1385.34" y="1030.79"/>
  <rect height="119.336" id="right-margin" style="fill:#00AEEF;stroke:none;opacity:0.4;" width="8.74023" x="1505.61" y="1030.79"/>
 </g>
 <g id="Symbols">
  <g id="Black-L" transform="matrix(1 0 0 1 2845.61 1556)">
   <path d="M 45.1172 16.9922 L 124.561 16.9922 C 147.168 16.9922 164.307 -0.244141 164.307 -22.1191 C 164.307 -44.2871 147.217 -61.4746 124.512 -61.4746 C 117.236 -75.4883 103.613 -86.6211 81.543 -86.6211 C 55.8105 -86.6211 35.9375 -68.1152 32.5684 -44.4336 C 20.4102 -40.1855 11.2793 -29.4434 11.2793 -14.8926 C 11.2793 3.125 24.7559 16.9922 45.1172 16.9922 Z M 45.6543 -1.02539 C 34.668 -1.02539 29.2969 -6.68945 29.2969 -14.5508 C 29.2969 -21.582 33.6426 -26.8066 43.5547 -29.3945 C 47.8027 -30.5176 48.9258 -32.4219 49.5605 -36.7188 C 52.5391 -57.6172 65.3809 -68.6035 81.543 -68.6035 C 93.6035 -68.6035 103.809 -61.7676 110.742 -48.7305 C 112.598 -45.2148 114.6 -43.9453 118.994 -43.9453 C 137.842 -43.9453 146.289 -34.1309 146.289 -21.7285 C 146.289 -10.0586 137.549 -1.02539 124.219 -1.02539 Z"/>
  </g>
  <g id="Heavy-L" transform="matrix(1 0 0 1 2550.04 1556)">
   <path d="M 43.9941 15.9668 L 123.242 15.9668 C 145.264 15.9668 162.012 -0.830078 162.012 -22.0703 C 162.012 -43.6523 145.117 -60.1562 122.803 -60.1562 C 115.332 -74.6094 101.562 -85.5469 80.3711 -85.5469 C 55.1758 -85.5469 35.4492 -66.9922 32.373 -43.3594 C 20.3613 -39.3555 11.2793 -28.8574 11.2793 -14.5996 C 11.2793 2.58789 24.1211 15.9668 43.9941 15.9668 Z M 44.3848 0.195312 C 32.8125 0.195312 27.0508 -5.95703 27.0508 -14.3066 C 27.0508 -21.582 31.5918 -27.2949 41.6992 -29.9316 C 45.7031 -31.0059 46.8262 -32.7637 47.3633 -36.8164 C 49.9512 -57.666 63.5742 -69.7266 80.3711 -69.7266 C 93.0664 -69.7266 103.564 -62.5488 110.498 -49.2676 C 112.207 -45.8984 114.16 -44.7266 118.311 -44.7266 C 137.109 -44.7266 146.191 -34.5215 146.191 -21.7285 C 146.191 -9.42383 136.816 0.195312 123.047 0.195312 Z"/>
  </g>
  <g id="Bold-L" transform="matrix(1 0 0 1 2254.63 1556)">
   <path d="M 42.7246 14.8438 L 121.68 14.8438 C 143.164 14.8438 159.424 -1.46484 159.424 -21.9727 C 159.424 -42.9199 142.725 -58.7402 120.85 -58.7402 C 113.232 -73.6328 99.2676 -84.2773 79.0039 -84.2773 C 54.4434 -84.2773 34.8145 -65.7227 32.1289 -42.1875 C 20.3125 -38.4277 11.2793 -28.2227 11.2793 -14.3066 C 11.2793 2.00195 23.3398 14.8438 42.7246 14.8438 Z M 42.9688 1.5625 C 30.7129 1.5625 24.5605 -5.12695 24.5605 -14.0137 C 24.5605 -21.6309 29.2969 -27.832 39.6973 -30.5664 C 43.3594 -31.543 44.4824 -33.2031 44.9219 -36.9141 C 47.1191 -57.7637 61.5723 -70.9961 79.0039 -70.9961 C 92.5293 -70.9961 103.369 -63.3789 110.205 -49.8535 C 111.816 -46.6797 113.672 -45.6055 117.529 -45.6055 C 136.23 -45.6055 146.094 -34.9121 146.094 -21.6797 C 146.094 -8.69141 135.938 1.5625 121.777 1.5625 Z"/>
  </g>
  <g id="Semibold-L" transform="matrix(1 0 0 1 1958.82 1556)">
   <path d="M 41.8457 14.0625 L 120.654 14.0625 C 141.699 14.0625 157.617 -1.9043 157.617 -21.9238 C 157.617 -42.4316 141.113 -57.7637 119.482 -57.7637 C 111.768 -72.9492 97.7051 -83.3984 78.0762 -83.3984 C 53.9062 -83.3984 34.4238 -64.8438 31.9824 -41.3574 C 20.2637 -37.793 11.2793 -27.7344 11.2793 -14.0625 C 11.2793 1.61133 22.8516 14.0625 41.8457 14.0625 Z M 41.9922 2.49023 C 29.2969 2.49023 22.8516 -4.58984 22.8516 -13.8184 C 22.8516 -21.6797 27.6855 -28.2227 38.2812 -31.0059 C 41.748 -31.8848 42.8711 -33.4961 43.2129 -36.9629 C 45.1172 -57.8125 60.1562 -71.8262 78.0762 -71.8262 C 92.1387 -71.8262 103.223 -63.9648 110.059 -50.2441 C 111.572 -47.2656 113.33 -46.1914 116.992 -46.1914 C 135.645 -46.1914 146.045 -35.2051 146.045 -21.6309 C 146.045 -8.20312 135.352 2.49023 120.898 2.49023 Z"/>
  </g>
  <g id="Medium-L" transform="matrix(1 0 0 1 1662.79 1556)">
   <path d="M 41.2109 13.4766 L 119.873 13.4766 C 140.625 13.4766 156.25 -2.24609 156.25 -21.875 C 156.25 -42.041 139.844 -57.0312 118.457 -57.0312 C 110.693 -72.4609 96.4844 -82.7637 77.3438 -82.7637 C 53.5156 -82.7637 34.1309 -64.209 31.8359 -40.7227 C 20.2148 -37.3047 11.2793 -27.3926 11.2793 -13.916 C 11.2793 1.26953 22.4609 13.4766 41.2109 13.4766 Z M 41.2109 3.22266 C 28.2227 3.22266 21.582 -4.15039 21.582 -13.623 C 21.582 -21.7285 26.5137 -28.5156 37.207 -31.2988 C 40.5273 -32.1777 41.6504 -33.6914 41.9434 -37.0605 C 43.6523 -57.8125 59.082 -72.4609 77.3438 -72.4609 C 91.8457 -72.4609 103.076 -64.4043 109.912 -50.5859 C 111.328 -47.6562 113.086 -46.6309 116.602 -46.6309 C 135.205 -46.6309 145.947 -35.4004 145.947 -21.6309 C 145.947 -7.86133 134.912 3.22266 120.215 3.22266 Z"/>
  </g>
  <g id="Regular-L" transform="matrix(1 0 0 1 1366.96 1556)">
   <path d="M 40.3809 12.7441 L 118.848 12.7441 C 139.16 12.7441 154.492 -2.68555 154.492 -21.8262 C 154.492 -41.6016 138.232 -56.0547 117.139 -56.0547 C 109.277 -71.7773 94.9219 -81.9336 76.4648 -81.9336 C 53.0273 -81.9336 33.6914 -63.3301 31.6895 -39.9414 C 20.166 -36.6699 11.2793 -26.9531 11.2793 -13.6719 C 11.2793 0.878906 21.9238 12.7441 40.3809 12.7441 Z M 40.2344 4.15039 C 26.8066 4.15039 19.873 -3.61328 19.873 -13.4277 C 19.873 -21.7285 24.9023 -28.8574 35.791 -31.7383 C 38.916 -32.5684 40.0391 -33.9844 40.2832 -37.1094 C 41.6992 -57.8613 57.7148 -73.3398 76.4648 -73.3398 C 91.4551 -73.3398 102.93 -64.9902 109.717 -50.9766 C 111.084 -48.1934 112.744 -47.2656 116.064 -47.2656 C 134.619 -47.2656 145.898 -35.6934 145.898 -21.582 C 145.898 -7.37305 134.326 4.15039 119.336 4.15039 Z"/>
  </g>
  <g id="Light-L" transform="matrix(1 0 0 1 1070.71 1556)">
   <path d="M 39.5996 11.6211 L 118.457 11.6211 C 138.379 11.6211 153.564 -3.41797 153.564 -22.2168 C 153.564 -41.5039 137.549 -55.6641 116.748 -55.6641 C 108.887 -71.6309 94.9219 -81.9336 76.0742 -81.9336 C 53.0273 -81.9336 34.0332 -63.3301 32.0312 -39.9414 C 20.4102 -36.7676 11.2793 -27.2461 11.2793 -14.0625 C 11.2793 0.0488281 21.6797 11.6211 39.5996 11.6211 Z M 39.5508 5.07812 C 25.3906 5.07812 17.8223 -3.36914 17.8223 -13.916 C 17.8223 -23.1445 23.7793 -30.7617 34.8633 -33.6426 C 37.5 -34.375 38.3789 -35.498 38.5742 -38.0371 C 39.8926 -59.082 56.7383 -75.3906 76.0742 -75.3906 C 92.2852 -75.3906 104.199 -66.3574 110.986 -52.1973 C 112.109 -49.8535 113.525 -49.0234 116.357 -49.0234 C 134.766 -49.0234 147.021 -36.9629 147.021 -22.0215 C 147.021 -7.03125 134.717 5.07812 118.75 5.07812 Z"/>
  </g>
  <g id="Thin-L" transform="matrix(1 0 0 1 774.611 1556)">
   <path d="M 38.623 10.1562 L 117.969 10.1562 C 137.354 10.1562 152.344 -4.44336 152.344 -22.7539 C 152.344 -41.4062 136.67 -55.1758 116.26 -55.1758 C 108.398 -71.4355 94.9219 -81.9336 75.5859 -81.9336 C 53.0273 -81.9336 34.4727 -63.3301 32.5195 -39.9414 C 20.752 -36.8652 11.2793 -27.6855 11.2793 -14.5508 C 11.2793 -1.02539 21.3379 10.1562 38.623 10.1562 Z M 38.623 6.39648 C 23.5352 6.39648 15.0391 -3.07617 15.0391 -14.502 C 15.0391 -25.0488 22.2168 -33.252 33.5938 -36.1816 C 35.5957 -36.7188 36.2305 -37.5488 36.3281 -39.209 C 37.5488 -60.6445 55.4688 -78.125 75.5859 -78.125 C 93.3594 -78.125 105.811 -68.1152 112.646 -53.8086 C 113.525 -52.002 114.6 -51.3672 116.748 -51.3672 C 134.912 -51.3672 148.535 -38.6719 148.535 -22.5586 C 148.535 -6.64062 135.156 6.39648 118.018 6.39648 Z"/>
  </g>
  <g id="Ultralight-L" transform="matrix(1 0 0 1 478.217 1556)">
   <path d="M 38.1348 9.42383 L 117.725 9.42383 C 136.816 9.42383 151.709 -4.98047 151.709 -22.998 C 151.709 -41.3574 136.182 -54.9316 116.016 -54.9316 C 108.154 -71.3379 94.9219 -81.9336 75.3418 -81.9336 C 53.0273 -81.9336 34.7168 -63.3301 32.8125 -39.9414 C 20.9473 -36.9141 11.2793 -27.8809 11.2793 -14.7949 C 11.2793 -1.61133 21.1426 9.42383 38.1348 9.42383 Z M 38.1348 7.03125 C 22.5586 7.03125 13.6719 -2.92969 13.6719 -14.8438 C 13.6719 -26.0254 21.4355 -34.5215 32.9102 -37.5 C 34.6191 -37.9395 35.1074 -38.5742 35.1562 -39.8438 C 36.377 -61.4746 54.7852 -79.541 75.3418 -79.541 C 93.8965 -79.541 106.641 -68.9941 113.525 -54.6387 C 114.258 -53.0762 115.137 -52.5879 116.943 -52.5879 C 135.01 -52.5879 149.316 -39.5508 149.316 -22.8516 C 149.316 -6.44531 135.4 7.03125 117.676 7.03125 Z"/>
  </g>
  <g id="Black-M" transform="matrix(1 0 0 1 2864.04 1126)">
   <path d="M 36.084 6.00586 L 98.1934 6.00586 C 116.162 6.00586 129.98 -7.76367 129.98 -25.3906 C 129.98 -43.0664 116.602 -57.0801 98.6816 -57.0801 C 93.2129 -67.5293 83.0566 -76.5625 64.6484 -76.5625 C 44.1406 -76.5625 28.7598 -62.2559 25.7324 -43.7988 C 16.0645 -40.2344 8.74023 -31.7383 8.74023 -20.0195 C 8.74023 -5.27344 19.9707 6.00586 36.084 6.00586 Z M 36.7188 -9.86328 C 28.5645 -9.86328 24.6094 -13.9648 24.6094 -19.7754 C 24.6094 -25.3418 28.2227 -29.0527 35.6934 -31.0059 C 39.0625 -31.8359 39.8926 -33.3496 40.4297 -36.7188 C 43.2129 -53.125 52.5879 -60.7422 64.6484 -60.7422 C 73.6328 -60.7422 81.3477 -55.4688 86.7676 -45.6055 C 88.2812 -42.8711 89.8438 -41.8457 93.2617 -41.8457 C 107.91 -41.8457 114.111 -34.5703 114.111 -25.0488 C 114.111 -16.4551 107.812 -9.86328 97.5098 -9.86328 Z"/>
  </g>
  <g id="Heavy-M" transform="matrix(1 0 0 1 2568.48 1126)">
   <path d="M 35.0586 5.17578 L 96.7773 5.17578 C 114.307 5.17578 127.686 -8.1543 127.686 -25.1953 C 127.686 -42.3828 114.453 -55.7617 96.875 -55.7617 C 91.2109 -66.6016 80.8105 -75.3418 63.4277 -75.3418 C 43.4082 -75.3418 28.0762 -61.0352 25.3906 -42.627 C 15.918 -39.3066 8.74023 -31.0059 8.74023 -19.6289 C 8.74023 -5.61523 19.2871 5.17578 35.0586 5.17578 Z M 35.498 -8.78906 C 26.9531 -8.78906 22.7051 -13.2324 22.7051 -19.3848 C 22.7051 -25 26.2695 -29.1016 33.9355 -31.1035 C 37.1582 -31.9336 37.9883 -33.3496 38.4766 -36.5723 C 40.8691 -52.8809 50.8789 -61.377 63.4277 -61.377 C 72.9004 -61.377 80.8105 -55.957 86.2305 -45.8496 C 87.6465 -43.2129 89.1602 -42.2363 92.4316 -42.2363 C 107.08 -42.2363 113.721 -34.668 113.721 -24.9023 C 113.721 -15.8203 106.885 -8.78906 96.3867 -8.78906 Z"/>
  </g>
  <g id="Bold-M" transform="matrix(1 0 0 1 2273.06 1126)">
   <path d="M 33.8867 4.29688 L 95.2637 4.29688 C 112.256 4.29688 125.098 -8.64258 125.098 -25 C 125.098 -41.6016 112.061 -54.3457 94.8242 -54.3457 C 89.0137 -65.5762 78.3203 -73.9746 62.0605 -73.9746 C 42.627 -73.9746 27.3438 -59.6191 25.0488 -41.3574 C 15.7715 -38.2812 8.74023 -30.1758 8.74023 -19.1895 C 8.74023 -6.00586 18.5547 4.29688 33.8867 4.29688 Z M 34.1309 -7.56836 C 25.0977 -7.56836 20.6055 -12.4023 20.6055 -18.9453 C 20.6055 -24.6582 24.1211 -29.1504 31.9824 -31.2012 C 35.0098 -31.9824 35.9375 -33.3496 36.3281 -36.4258 C 38.2812 -52.6367 48.9258 -62.1582 62.0605 -62.1582 C 72.0215 -62.1582 80.2246 -56.543 85.5469 -46.1914 C 86.8652 -43.6035 88.3789 -42.6758 91.5527 -42.6758 C 106.104 -42.6758 113.281 -34.7168 113.281 -24.7559 C 113.281 -15.1367 105.859 -7.56836 95.166 -7.56836 Z"/>
  </g>
  <g id="Semibold-M" transform="matrix(1 0 0 1 1977.23 1126)">
   <path d="M 33.1055 3.66211 L 94.1895 3.66211 C 110.791 3.66211 123.34 -8.98438 123.34 -24.8535 C 123.34 -41.1133 110.4 -53.3203 93.4082 -53.3203 C 87.5 -64.8438 76.5625 -73.0469 61.084 -73.0469 C 42.041 -73.0469 26.8555 -58.6914 24.8047 -40.4297 C 15.6738 -37.5488 8.74023 -29.6387 8.74023 -18.8965 C 8.74023 -6.29883 18.0664 3.66211 33.1055 3.66211 Z M 33.2031 -6.73828 C 23.8281 -6.73828 19.1406 -11.8164 19.1406 -18.6035 C 19.1406 -24.4141 22.6074 -29.1504 30.6641 -31.2988 C 33.5449 -32.0312 34.4727 -33.3984 34.8145 -36.3281 C 36.4746 -52.4414 47.6074 -62.6465 61.084 -62.6465 C 71.4355 -62.6465 79.7852 -56.8848 85.1074 -46.3867 C 86.377 -43.8965 87.8418 -43.0176 90.918 -43.0176 C 105.42 -43.0176 112.939 -34.7656 112.939 -24.6094 C 112.939 -14.6484 105.176 -6.73828 94.2871 -6.73828 Z"/>
  </g>
  <g id="Medium-M" transform="matrix(1 0 0 1 1681.17 1126)">
   <path d="M 32.4707 3.17383 L 93.3594 3.17383 C 109.717 3.17383 122.021 -9.22852 122.021 -24.7559 C 122.021 -40.7227 109.131 -52.5391 92.3828 -52.5391 C 86.377 -64.3555 75.293 -72.3633 60.4004 -72.3633 C 41.6504 -72.3633 26.4648 -57.959 24.6094 -39.7461 C 15.5762 -37.0117 8.74023 -29.1992 8.74023 -18.6523 C 8.74023 -6.49414 17.6758 3.17383 32.4707 3.17383 Z M 32.5195 -6.10352 C 22.8516 -6.10352 18.0176 -11.4258 18.0176 -18.4082 C 18.0176 -24.2188 21.4844 -29.1992 29.6387 -31.3477 C 32.4707 -32.0801 33.3984 -33.3984 33.6426 -36.2793 C 35.1074 -52.2949 46.582 -63.0371 60.4004 -63.0371 C 70.9961 -63.0371 79.4922 -57.1777 84.7656 -46.5332 C 85.9863 -44.0918 87.4512 -43.2129 90.4297 -43.2129 C 104.932 -43.2129 112.744 -34.8145 112.744 -24.5117 C 112.744 -14.2578 104.639 -6.10352 93.6523 -6.10352 Z"/>
  </g>
  <g id="Regular-M" transform="matrix(1 0 0 1 1385.34 1126)">
   <path d="M 31.6895 2.58789 L 92.2852 2.58789 C 108.301 2.58789 120.264 -9.57031 120.264 -24.6582 C 120.264 -40.1855 107.52 -51.5625 90.9668 -51.5625 C 84.8633 -63.623 73.5352 -71.3867 59.4727 -71.3867 C 41.0645 -71.3867 25.9277 -57.0312 24.3652 -38.8672 C 15.4785 -36.3281 8.74023 -28.6133 8.74023 -18.3105 C 8.74023 -6.78711 17.1387 2.58789 31.6895 2.58789 Z M 31.5918 -5.27344 C 21.582 -5.27344 16.5527 -10.8398 16.5527 -18.0664 C 16.5527 -23.9746 19.9707 -29.1992 28.2715 -31.4453 C 31.0059 -32.1289 31.9824 -33.3984 32.1777 -36.1816 C 33.3008 -52.0996 45.3125 -63.5742 59.4727 -63.5742 C 70.4102 -63.5742 79.0527 -57.5684 84.3262 -46.7285 C 85.498 -44.3848 86.9141 -43.5547 89.7949 -43.5547 C 104.248 -43.5547 112.402 -34.8145 112.402 -24.4141 C 112.402 -13.7695 103.906 -5.27344 92.7734 -5.27344 Z"/>
  </g>
  <g id="Light-M" transform="matrix(1 0 0 1 1089.05 1126)">
   <path d="M 31.0547 1.5625 L 91.9434 1.5625 C 107.617 1.5625 119.434 -10.2539 119.434 -25 C 119.434 -40.1367 106.885 -51.2207 90.6738 -51.2207 C 84.5703 -63.5254 73.5352 -71.3867 59.1309 -71.3867 C 41.0645 -71.3867 26.2207 -57.0312 24.6582 -38.8672 C 15.7227 -36.377 8.74023 -28.9062 8.74023 -18.6523 C 8.74023 -7.51953 16.9434 1.5625 31.0547 1.5625 Z M 30.957 -4.39453 C 20.3125 -4.39453 14.6973 -10.6445 14.6973 -18.5059 C 14.6973 -25.2441 18.9453 -30.9082 27.4414 -33.1543 C 29.6875 -33.7402 30.4688 -34.7656 30.6641 -36.9629 C 31.7383 -53.1738 44.4336 -65.4297 59.1309 -65.4297 C 71.1426 -65.4297 80.1758 -58.7402 85.4492 -47.8516 C 86.4258 -45.8008 87.6465 -45.1172 90.0391 -45.1172 C 104.346 -45.1172 113.428 -35.9863 113.428 -24.8047 C 113.428 -13.5254 104.248 -4.39453 92.2852 -4.39453 Z"/>
  </g>
  <g id="Thin-M" transform="matrix(1 0 0 1 792.897 1126)">
   <path d="M 30.1758 0.244141 L 91.5039 0.244141 C 106.641 0.244141 118.311 -11.1328 118.311 -25.4395 C 118.311 -40.0391 106.104 -50.7812 90.2344 -50.7812 C 84.1309 -63.3301 73.5352 -71.3867 58.6914 -71.3867 C 41.0645 -71.3867 26.6113 -57.0312 25.0977 -38.8672 C 16.0156 -36.4746 8.74023 -29.2969 8.74023 -19.0918 C 8.74023 -8.49609 16.6016 0.244141 30.1758 0.244141 Z M 30.127 -3.27148 C 18.6523 -3.27148 12.2559 -10.4004 12.2559 -19.043 C 12.2559 -26.9043 17.5781 -33.1543 26.2695 -35.4492 C 27.9785 -35.8887 28.5645 -36.5723 28.6133 -38.0371 C 29.5898 -54.5898 43.2617 -67.8711 58.6914 -67.8711 C 72.1191 -67.8711 81.6406 -60.3027 86.9629 -49.2676 C 87.6953 -47.7539 88.5742 -47.2168 90.4297 -47.2168 C 104.541 -47.2168 114.795 -37.5488 114.795 -25.293 C 114.795 -13.1836 104.639 -3.27148 91.6504 -3.27148 Z"/>
  </g>
  <g id="Ultralight-M" transform="matrix(1 0 0 1 496.454 1126)">
   <path d="M 29.6875 -0.390625 L 91.3086 -0.390625 C 106.152 -0.390625 117.773 -11.6211 117.773 -25.6836 C 117.773 -39.9902 105.664 -50.5859 89.9902 -50.5859 C 83.8867 -63.2324 73.5352 -71.3867 58.4473 -71.3867 C 41.0645 -71.3867 26.8066 -57.0312 25.3418 -38.8672 C 16.1621 -36.5234 8.74023 -29.4922 8.74023 -19.3359 C 8.74023 -8.98438 16.4551 -0.390625 29.6875 -0.390625 Z M 29.6875 -2.68555 C 17.7734 -2.68555 10.9863 -10.2539 10.9863 -19.3359 C 10.9863 -27.7832 16.8457 -34.2773 25.6836 -36.6211 C 27.0996 -36.9629 27.5391 -37.5 27.5879 -38.623 C 28.5156 -55.3223 42.6758 -69.1406 58.4473 -69.1406 C 72.6074 -69.1406 82.4219 -61.1328 87.6953 -50.0488 C 88.3301 -48.7305 89.0625 -48.291 90.5762 -48.291 C 104.59 -48.291 115.479 -38.3301 115.479 -25.5371 C 115.479 -12.9883 104.883 -2.68555 91.3086 -2.68555 Z"/>
  </g>
  <g id="Black-S" transform="matrix(1 0 0 1 2879.15 696)">
   <path d="M 28.1738 -2.97852 L 76.8066 -2.97852 C 90.8691 -2.97852 101.66 -13.7207 101.66 -27.4902 C 101.66 -41.3086 91.1621 -52.2461 77.1484 -52.2461 C 72.8516 -60.4492 64.8926 -67.5293 50.5371 -67.5293 C 34.5215 -67.5293 22.4609 -56.2988 20.1172 -41.8457 C 12.5488 -39.0625 6.83594 -32.4219 6.83594 -23.291 C 6.83594 -11.7676 15.5762 -2.97852 28.1738 -2.97852 Z M 28.6621 -15.2832 C 22.2656 -15.2832 19.1406 -18.5059 19.1406 -23.0957 C 19.1406 -27.4414 21.9727 -30.3711 27.832 -31.8848 C 30.4688 -32.5684 31.1035 -33.7402 31.543 -36.377 C 33.6914 -49.2188 41.0645 -55.2246 50.5371 -55.2246 C 57.6172 -55.2246 63.6719 -51.123 67.9199 -43.3594 C 69.0918 -41.2109 70.3125 -40.4297 72.998 -40.4297 C 84.4727 -40.4297 89.3555 -34.7168 89.3555 -27.2461 C 89.3555 -20.459 84.375 -15.2832 76.3184 -15.2832 Z"/>
  </g>
  <g id="Heavy-S" transform="matrix(1 0 0 1 2583.27 696)">
   <path d="M 27.4414 -3.4668 L 75.7812 -3.4668 C 89.5508 -3.4668 100 -13.9648 100 -27.2949 C 100 -40.8203 89.5996 -51.2695 75.7812 -51.2695 C 71.3867 -59.7656 63.1836 -66.6016 49.6582 -66.6016 C 33.9844 -66.6016 21.9238 -55.3711 19.8242 -40.9668 C 12.4023 -38.3301 6.83594 -31.8359 6.83594 -22.9492 C 6.83594 -11.9629 15.0879 -3.4668 27.4414 -3.4668 Z M 27.832 -14.5508 C 21.1426 -14.5508 17.9199 -17.9688 17.9199 -22.7539 C 17.9199 -27.0508 20.6055 -30.2246 26.6113 -31.7871 C 29.1504 -32.4219 29.834 -33.5938 30.2246 -36.1816 C 32.0801 -48.9258 39.8438 -55.5176 49.6582 -55.5176 C 56.9336 -55.5176 63.1348 -51.3672 67.334 -43.457 C 68.457 -41.3086 69.7266 -40.5762 72.3633 -40.5762 C 83.7891 -40.5762 88.916 -34.6191 88.916 -27.0996 C 88.916 -20.0195 83.6426 -14.5508 75.5371 -14.5508 Z"/>
  </g>
  <g id="Bold-S" transform="matrix(1 0 0 1 2287.49 696)">
   <path d="M 26.6602 -4.05273 L 74.6094 -4.05273 C 88.0371 -4.05273 98.1445 -14.2578 98.1445 -27.1484 C 98.1445 -40.2344 87.8418 -50.1953 74.2676 -50.1953 C 69.7266 -58.9844 61.2793 -65.5762 48.6328 -65.5762 C 33.3496 -65.5762 21.2891 -54.2969 19.5312 -39.9902 C 12.2559 -37.5488 6.83594 -31.1523 6.83594 -22.5586 C 6.83594 -12.1582 14.5508 -4.05273 26.6602 -4.05273 Z M 26.8555 -13.7207 C 19.873 -13.7207 16.5039 -17.3828 16.5039 -22.3633 C 16.5039 -26.6113 19.043 -30.0293 25.1953 -31.6406 C 27.6855 -32.3242 28.418 -33.4473 28.7598 -35.9863 C 30.2734 -48.584 38.4766 -55.8594 48.6328 -55.8594 C 56.2012 -55.8594 62.5488 -51.6113 66.6992 -43.5547 C 67.8223 -41.4551 69.043 -40.7227 71.582 -40.7227 C 83.0566 -40.7227 88.4766 -34.5215 88.4766 -26.9043 C 88.4766 -19.5312 82.8125 -13.7207 74.6094 -13.7207 Z"/>
  </g>
  <g id="Semibold-S" transform="matrix(1 0 0 1 1991.44 696)">
   <path d="M 26.123 -4.44336 L 73.8281 -4.44336 C 87.0117 -4.44336 96.8262 -14.4531 96.8262 -27.002 C 96.8262 -39.8438 86.6211 -49.4629 73.2422 -49.4629 C 68.6035 -58.4473 59.9121 -64.8438 47.9492 -64.8438 C 32.9102 -64.8438 20.8984 -53.5645 19.2871 -39.2578 C 12.1582 -37.0117 6.83594 -30.7129 6.83594 -22.3145 C 6.83594 -12.3047 14.209 -4.44336 26.123 -4.44336 Z M 26.2207 -13.1836 C 19.043 -13.1836 15.5273 -16.9434 15.5273 -22.0703 C 15.5273 -26.3184 18.0176 -29.9316 24.2676 -31.5918 C 26.6602 -32.2266 27.4414 -33.3008 27.7344 -35.8398 C 29.0039 -48.3398 37.5488 -56.1035 47.9492 -56.1035 C 55.7129 -56.1035 62.1094 -51.8066 66.2598 -43.6035 C 67.334 -41.5527 68.5547 -40.8203 71.0938 -40.8203 C 82.5195 -40.8203 88.1348 -34.4727 88.1348 -26.8066 C 88.1348 -19.1895 82.2266 -13.1836 74.0234 -13.1836 Z"/>
  </g>
  <g id="Medium-S" transform="matrix(1 0 0 1 1695.21 696)">
   <path d="M 25.6836 -4.73633 L 73.2422 -4.73633 C 86.2305 -4.73633 95.8496 -14.5996 95.8496 -26.9043 C 95.8496 -39.5508 85.7422 -48.9258 72.4609 -48.9258 C 67.7734 -58.0566 58.9355 -64.3066 47.4121 -64.3066 C 32.6172 -64.3066 20.5566 -53.0273 19.1406 -38.7695 C 12.1094 -36.5723 6.83594 -30.3711 6.83594 -22.0703 C 6.83594 -12.4023 13.916 -4.73633 25.6836 -4.73633 Z M 25.6836 -12.7441 C 18.3594 -12.7441 14.8438 -16.6504 14.8438 -21.875 C 14.8438 -26.0742 17.1875 -29.834 23.5352 -31.4941 C 25.8789 -32.1289 26.709 -33.252 26.9531 -35.7422 C 28.0762 -48.1445 36.8164 -56.2988 47.4121 -56.2988 C 55.3223 -56.2988 61.8164 -51.9531 65.918 -43.6523 C 66.9922 -41.6016 68.2129 -40.8691 70.7031 -40.8691 C 82.1289 -40.8691 87.8906 -34.4238 87.8906 -26.709 C 87.8906 -18.8965 81.8359 -12.7441 73.5352 -12.7441 Z"/>
  </g>
  <g id="Regular-S" transform="matrix(1 0 0 1 1399.14 696)">
   <path d="M 25.1465 -5.12695 L 72.4609 -5.12695 C 85.2051 -5.12695 94.5801 -14.7949 94.5801 -26.7578 C 94.5801 -39.1602 84.5215 -48.1934 71.4355 -48.1934 C 66.6504 -57.5684 57.6172 -63.5742 46.7285 -63.5742 C 32.1777 -63.5742 20.166 -52.2949 18.8965 -38.0859 C 12.0117 -36.0352 6.83594 -29.9316 6.83594 -21.8262 C 6.83594 -12.5488 13.5254 -5.12695 25.1465 -5.12695 Z M 25.0488 -12.1582 C 17.5293 -12.1582 13.8672 -16.2109 13.8672 -21.582 C 13.8672 -25.7812 16.1621 -29.6875 22.5586 -31.3965 C 24.9023 -32.0312 25.7324 -33.1055 25.9277 -35.5957 C 26.8555 -47.9004 35.8887 -56.543 46.7285 -56.543 C 54.7852 -56.543 61.4258 -52.1484 65.5273 -43.7012 C 66.5039 -41.6992 67.7246 -40.9668 70.2148 -40.9668 C 81.5918 -40.9668 87.5488 -34.375 87.5488 -26.5625 C 87.5488 -18.5547 81.25 -12.1582 72.9004 -12.1582 Z"/>
  </g>
  <g id="Light-S" transform="matrix(1 0 0 1 1102.79 696)">
   <path d="M 24.5605 -6.00586 L 72.168 -6.00586 C 84.5703 -6.00586 93.8477 -15.3809 93.8477 -27.0508 C 93.8477 -39.1113 83.9844 -47.9004 71.1426 -47.9004 C 66.3574 -57.4219 57.6172 -63.5742 46.4355 -63.5742 C 32.1777 -63.5742 20.4102 -52.2949 19.1895 -38.0859 C 12.207 -36.084 6.83594 -30.1758 6.83594 -22.1191 C 6.83594 -13.2324 13.3301 -6.00586 24.5605 -6.00586 Z M 24.5117 -11.4258 C 16.4062 -11.4258 12.207 -16.0645 12.207 -21.9727 C 12.207 -26.9043 15.2344 -31.2012 21.8262 -32.959 C 23.7305 -33.4473 24.4629 -34.3262 24.6094 -36.2793 C 25.4395 -48.877 35.1074 -58.2031 46.4355 -58.2031 C 55.4688 -58.2031 62.4023 -53.1738 66.5039 -44.6777 C 67.334 -42.9688 68.3594 -42.3828 70.459 -42.3828 C 81.6895 -42.3828 88.4766 -35.4004 88.4766 -26.9043 C 88.4766 -18.3105 81.543 -11.4258 72.4609 -11.4258 Z"/>
  </g>
  <g id="Thin-S" transform="matrix(1 0 0 1 806.544 696)">
   <path d="M 23.7793 -7.17773 L 71.7773 -7.17773 C 83.7402 -7.17773 92.9199 -16.2109 92.9199 -27.4902 C 92.9199 -39.0137 83.252 -47.5098 70.752 -47.5098 C 65.9668 -57.2754 57.6172 -63.5742 46.0449 -63.5742 C 32.1777 -63.5742 20.752 -52.2949 19.5801 -38.0859 C 12.4512 -36.1816 6.83594 -30.5176 6.83594 -22.5098 C 6.83594 -14.1113 13.0859 -7.17773 23.7793 -7.17773 Z M 23.7793 -10.4004 C 14.8926 -10.4004 10.0586 -15.8203 10.0586 -22.4609 C 10.0586 -28.418 14.0137 -33.1543 20.8008 -34.9609 C 22.2656 -35.3516 22.7051 -35.9375 22.8027 -37.2559 C 23.584 -50.1465 34.082 -60.3516 46.0449 -60.3516 C 56.2988 -60.3516 63.6719 -54.5898 67.8223 -45.9473 C 68.457 -44.6777 69.1895 -44.2383 70.752 -44.2383 C 81.8359 -44.2383 89.6484 -36.7188 89.6484 -27.3438 C 89.6484 -18.0176 81.8848 -10.4004 71.9238 -10.4004 Z"/>
  </g>
  <g id="Ultralight-S" transform="matrix(1 0 0 1 510.102 696)">
   <path d="M 23.3887 -7.76367 L 71.582 -7.76367 C 83.3008 -7.76367 92.3828 -16.6016 92.3828 -27.6855 C 92.3828 -38.9648 82.9102 -47.3145 70.5566 -47.3145 C 65.7715 -57.1777 57.6172 -63.5742 45.8496 -63.5742 C 32.1777 -63.5742 20.9473 -52.2949 19.7754 -38.0859 C 12.5977 -36.2305 6.83594 -30.6641 6.83594 -22.7051 C 6.83594 -14.5508 12.9395 -7.76367 23.3887 -7.76367 Z M 23.3887 -9.86328 C 14.1602 -9.86328 8.93555 -15.7227 8.93555 -22.7051 C 8.93555 -29.1504 13.3789 -34.1797 20.2637 -35.9863 C 21.4844 -36.2793 21.8262 -36.7676 21.875 -37.7441 C 22.6074 -50.7812 33.5449 -61.4746 45.8496 -61.4746 C 56.7383 -61.4746 64.3555 -55.3223 68.5059 -46.6309 C 68.9941 -45.5566 69.6289 -45.2148 70.8984 -45.2148 C 81.9336 -45.2148 90.2832 -37.4512 90.2832 -27.5879 C 90.2832 -17.8711 82.0801 -9.86328 71.582 -9.86328 Z"/>
  </g>
 </g>
</svg>
