<?xml version="1.0" encoding="UTF-8"?>
<!--Generator: Apple Native CoreSVG 123-->
<!DOCTYPE svg
PUBLIC "-//W3C//DTD SVG 1.1//EN"
       "http://www.w3.org/Graphics/SVG/1.1/DTD/svg11.dtd">
<svg version="1.1" xmlns="http://www.w3.org/2000/svg" xmlns:xlink="http://www.w3.org/1999/xlink" width="3300" height="2200">
 <!--glyph: "uni1001D4.medium", point size: 100.000000, font version: "Version 15.0d7e11", template writer version: "5"-->
 <g id="Notes">
  <rect height="2200" id="artboard" style="fill:white;opacity:1" width="3300" x="0" y="0"/>
  <line id="" style="fill:none;stroke:black;opacity:1;stroke-width:0.5;" x1="263" x2="3036" y1="292" y2="292"/>
  <text style="stroke:none;fill:black;font-family:-apple-system,&quot;SF Pro Display&quot;,&quot;SF Pro Text&quot;,Helvetica,sans-serif;font-weight:bold;" transform="matrix(1 0 0 1 263 322)">Weight/Scale Variations</text>
  <text style="stroke:none;fill:black;font-family:-apple-system,&quot;SF Pro Display&quot;,&quot;SF Pro Text&quot;,Helvetica,sans-serif;text-anchor:middle;" transform="matrix(1 0 0 1 559.711 322)">Ultralight</text>
  <text style="stroke:none;fill:black;font-family:-apple-system,&quot;SF Pro Display&quot;,&quot;SF Pro Text&quot;,Helvetica,sans-serif;text-anchor:middle;" transform="matrix(1 0 0 1 856.422 322)">Thin</text>
  <text style="stroke:none;fill:black;font-family:-apple-system,&quot;SF Pro Display&quot;,&quot;SF Pro Text&quot;,Helvetica,sans-serif;text-anchor:middle;" transform="matrix(1 0 0 1 1153.13 322)">Light</text>
  <text style="stroke:none;fill:black;font-family:-apple-system,&quot;SF Pro Display&quot;,&quot;SF Pro Text&quot;,Helvetica,sans-serif;text-anchor:middle;" transform="matrix(1 0 0 1 1449.84 322)">Regular</text>
  <text style="stroke:none;fill:black;font-family:-apple-system,&quot;SF Pro Display&quot;,&quot;SF Pro Text&quot;,Helvetica,sans-serif;text-anchor:middle;" transform="matrix(1 0 0 1 1746.56 322)">Medium</text>
  <text style="stroke:none;fill:black;font-family:-apple-system,&quot;SF Pro Display&quot;,&quot;SF Pro Text&quot;,Helvetica,sans-serif;text-anchor:middle;" transform="matrix(1 0 0 1 2043.27 322)">Semibold</text>
  <text style="stroke:none;fill:black;font-family:-apple-system,&quot;SF Pro Display&quot;,&quot;SF Pro Text&quot;,Helvetica,sans-serif;text-anchor:middle;" transform="matrix(1 0 0 1 2339.98 322)">Bold</text>
  <text style="stroke:none;fill:black;font-family:-apple-system,&quot;SF Pro Display&quot;,&quot;SF Pro Text&quot;,Helvetica,sans-serif;text-anchor:middle;" transform="matrix(1 0 0 1 2636.69 322)">Heavy</text>
  <text style="stroke:none;fill:black;font-family:-apple-system,&quot;SF Pro Display&quot;,&quot;SF Pro Text&quot;,Helvetica,sans-serif;text-anchor:middle;" transform="matrix(1 0 0 1 2933.4 322)">Black</text>
  <line id="" style="fill:none;stroke:black;opacity:1;stroke-width:0.5;" x1="263" x2="3036" y1="1903" y2="1903"/>
  <g id="" transform="matrix(1 0 0 1 263 1933)">
   <path d="M 9.24805 0.830078 C 13.5547 0.830078 17.1387 -2.74414 17.1387 -7.05078 C 17.1387 -11.3574 13.5449 -14.9316 9.23828 -14.9316 C 4.94141 -14.9316 1.36719 -11.3574 1.36719 -7.05078 C 1.36719 -2.74414 4.95117 0.830078 9.24805 0.830078 Z M 9.24805 -0.654297 C 5.70312 -0.654297 2.87109 -3.49609 2.87109 -7.05078 C 2.87109 -10.6055 5.69336 -13.4473 9.23828 -13.4473 C 12.793 -13.4473 15.6348 -10.6055 15.6445 -7.05078 C 15.6543 -3.49609 12.8027 -0.654297 9.24805 -0.654297 Z M 9.22852 -3.42773 C 9.69727 -3.42773 9.9707 -3.74023 9.9707 -4.25781 L 9.9707 -6.31836 L 12.1973 -6.31836 C 12.6953 -6.31836 13.0371 -6.57227 13.0371 -7.04102 C 13.0371 -7.51953 12.7148 -7.7832 12.1973 -7.7832 L 9.9707 -7.7832 L 9.9707 -10.0098 C 9.9707 -10.5273 9.69727 -10.8496 9.22852 -10.8496 C 8.75977 -10.8496 8.50586 -10.5078 8.50586 -10.0098 L 8.50586 -7.7832 L 6.29883 -7.7832 C 5.78125 -7.7832 5.44922 -7.51953 5.44922 -7.04102 C 5.44922 -6.57227 5.80078 -6.31836 6.29883 -6.31836 L 8.50586 -6.31836 L 8.50586 -4.25781 C 8.50586 -3.75977 8.75977 -3.42773 9.22852 -3.42773 Z"/>
  </g>
  <g id="" transform="matrix(1 0 0 1 281.506 1933)">
   <path d="M 11.709 2.91016 C 17.1582 2.91016 21.6699 -1.60156 21.6699 -7.05078 C 21.6699 -12.4902 17.1484 -17.0117 11.6992 -17.0117 C 6.25977 -17.0117 1.74805 -12.4902 1.74805 -7.05078 C 1.74805 -1.60156 6.26953 2.91016 11.709 2.91016 Z M 11.709 1.25 C 7.09961 1.25 3.41797 -2.44141 3.41797 -7.05078 C 3.41797 -11.6504 7.08984 -15.3516 11.6992 -15.3516 C 16.3086 -15.3516 20 -11.6504 20.0098 -7.05078 C 20.0195 -2.44141 16.3184 1.25 11.709 1.25 Z M 11.6895 -2.41211 C 12.207 -2.41211 12.5195 -2.77344 12.5195 -3.33984 L 12.5195 -6.23047 L 15.5762 -6.23047 C 16.123 -6.23047 16.5039 -6.51367 16.5039 -7.03125 C 16.5039 -7.55859 16.1426 -7.86133 15.5762 -7.86133 L 12.5195 -7.86133 L 12.5195 -10.9277 C 12.5195 -11.5039 12.207 -11.8555 11.6895 -11.8555 C 11.1719 -11.8555 10.8789 -11.4844 10.8789 -10.9277 L 10.8789 -7.86133 L 7.83203 -7.86133 C 7.26562 -7.86133 6.89453 -7.55859 6.89453 -7.03125 C 6.89453 -6.51367 7.28516 -6.23047 7.83203 -6.23047 L 10.8789 -6.23047 L 10.8789 -3.33984 C 10.8789 -2.79297 11.1719 -2.41211 11.6895 -2.41211 Z"/>
  </g>
  <g id="" transform="matrix(1 0 0 1 304.924 1933)">
   <path d="M 14.9707 5.67383 C 21.9336 5.67383 27.6953 -0.078125 27.6953 -7.04102 C 27.6953 -14.0039 21.9238 -19.7559 14.9609 -19.7559 C 8.00781 -19.7559 2.25586 -14.0039 2.25586 -7.04102 C 2.25586 -0.078125 8.01758 5.67383 14.9707 5.67383 Z M 14.9707 3.85742 C 8.93555 3.85742 4.08203 -1.00586 4.08203 -7.04102 C 4.08203 -13.0762 8.92578 -17.9395 14.9609 -17.9395 C 21.0059 -17.9395 25.8594 -13.0762 25.8691 -7.04102 C 25.8789 -1.00586 21.0156 3.85742 14.9707 3.85742 Z M 14.9512 -1.06445 C 15.5176 -1.06445 15.8691 -1.45508 15.8691 -2.06055 L 15.8691 -6.13281 L 20.1074 -6.13281 C 20.6934 -6.13281 21.1133 -6.46484 21.1133 -7.02148 C 21.1133 -7.59766 20.7227 -7.93945 20.1074 -7.93945 L 15.8691 -7.93945 L 15.8691 -12.1875 C 15.8691 -12.8027 15.5176 -13.1934 14.9512 -13.1934 C 14.3848 -13.1934 14.0625 -12.7832 14.0625 -12.1875 L 14.0625 -7.93945 L 9.83398 -7.93945 C 9.21875 -7.93945 8.80859 -7.59766 8.80859 -7.02148 C 8.80859 -6.46484 9.23828 -6.13281 9.83398 -6.13281 L 14.0625 -6.13281 L 14.0625 -2.06055 C 14.0625 -1.47461 14.3848 -1.06445 14.9512 -1.06445 Z"/>
  </g>
  <text style="stroke:none;fill:black;font-family:-apple-system,&quot;SF Pro Display&quot;,&quot;SF Pro Text&quot;,Helvetica,sans-serif;font-weight:bold;" transform="matrix(1 0 0 1 263 1953)">Design Variations</text>
  <text style="stroke:none;fill:black;font-family:-apple-system,&quot;SF Pro Display&quot;,&quot;SF Pro Text&quot;,Helvetica,sans-serif;" transform="matrix(1 0 0 1 263 1971)">Symbols are supported in up to nine weights and three scales.</text>
  <text style="stroke:none;fill:black;font-family:-apple-system,&quot;SF Pro Display&quot;,&quot;SF Pro Text&quot;,Helvetica,sans-serif;" transform="matrix(1 0 0 1 263 1989)">For optimal layout with text and other symbols, vertically align</text>
  <text style="stroke:none;fill:black;font-family:-apple-system,&quot;SF Pro Display&quot;,&quot;SF Pro Text&quot;,Helvetica,sans-serif;" transform="matrix(1 0 0 1 263 2007)">symbols with the adjacent text.</text>
  <rect height="14" id="" style="fill:#00AEEF;stroke:none;opacity:0.4;" width="3" x="776" y="1919"/>
  <g id="" transform="matrix(1 0 0 1 779 1933)">
   <path d="M 10.5273 0 L 12.373 0 L 7.17773 -14.0918 L 5.43945 -14.0918 L 0.244141 0 L 2.08984 0 L 3.50586 -4.0332 L 9.11133 -4.0332 Z M 6.2793 -11.9531 L 6.33789 -11.9531 L 8.59375 -5.52734 L 4.02344 -5.52734 Z"/>
  </g>
  <rect height="14" id="" style="fill:#00AEEF;stroke:none;opacity:0.4;" width="3" x="791.617" y="1919"/>
  <text style="stroke:none;fill:black;font-family:-apple-system,&quot;SF Pro Display&quot;,&quot;SF Pro Text&quot;,Helvetica,sans-serif;font-weight:bold;" transform="matrix(1 0 0 1 776 1953)">Margins</text>
  <text style="stroke:none;fill:black;font-family:-apple-system,&quot;SF Pro Display&quot;,&quot;SF Pro Text&quot;,Helvetica,sans-serif;" transform="matrix(1 0 0 1 776 1971)">Leading and trailing margins on the left and right side of each symbol</text>
  <text style="stroke:none;fill:black;font-family:-apple-system,&quot;SF Pro Display&quot;,&quot;SF Pro Text&quot;,Helvetica,sans-serif;" transform="matrix(1 0 0 1 776 1989)">can be adjusted by modifying the width of the blue rectangles.</text>
  <text style="stroke:none;fill:black;font-family:-apple-system,&quot;SF Pro Display&quot;,&quot;SF Pro Text&quot;,Helvetica,sans-serif;" transform="matrix(1 0 0 1 776 2007)">Modifications are automatically applied proportionally to all</text>
  <text style="stroke:none;fill:black;font-family:-apple-system,&quot;SF Pro Display&quot;,&quot;SF Pro Text&quot;,Helvetica,sans-serif;" transform="matrix(1 0 0 1 776 2025)">scales and weights.</text>
  <g id="" transform="matrix(1 0 0 1 1289 1933)">
   <path d="M 2.83203 3.11523 L 4.375 4.6582 C 5.22461 5.48828 6.19141 5.41992 7.06055 4.46289 L 17.2754 -6.66016 C 17.7051 -6.36719 18.0957 -6.37695 18.5645 -6.47461 L 19.6094 -6.68945 L 20.3027 -5.99609 L 20.2539 -5.47852 C 20.1855 -4.95117 20.3516 -4.53125 20.8496 -4.0332 L 21.6602 -3.22266 C 22.168 -2.71484 22.8223 -2.68555 23.3008 -3.16406 L 26.5527 -6.41602 C 27.0312 -6.89453 27.0117 -7.54883 26.5039 -8.05664 L 25.6836 -8.87695 C 25.1855 -9.375 24.7754 -9.55078 24.2383 -9.47266 L 23.7109 -9.41406 L 23.0566 -10.0781 L 23.3398 -11.2207 C 23.4863 -11.7871 23.3398 -12.2559 22.7148 -12.8613 L 20.3027 -15.2539 C 16.7578 -18.7793 12.2266 -18.6719 9.11133 -15.5371 C 8.69141 -15.1074 8.64258 -14.5215 8.91602 -14.0918 C 9.15039 -13.7207 9.62891 -13.4961 10.2734 -13.6621 C 11.7871 -14.043 13.3008 -13.9258 14.7852 -12.9199 L 14.1602 -11.3379 C 13.9258 -10.752 13.9453 -10.2734 14.1797 -9.83398 L 3.01758 0.439453 C 2.08008 1.30859 1.97266 2.25586 2.83203 3.11523 Z M 10.6738 -15.1465 C 13.3398 -17.1387 16.6504 -16.8262 19.0527 -14.4141 L 21.6797 -11.8066 C 21.9141 -11.5723 21.9434 -11.3867 21.8848 -11.0938 L 21.5039 -9.53125 L 23.0762 -7.95898 L 24.043 -8.04688 C 24.3262 -8.07617 24.4141 -8.05664 24.6387 -7.83203 L 25.2637 -7.20703 L 22.5098 -4.46289 L 21.8848 -5.07812 C 21.6602 -5.30273 21.6406 -5.40039 21.6699 -5.68359 L 21.7578 -6.64062 L 20.1953 -8.20312 L 18.5742 -7.89062 C 18.291 -7.83203 18.1445 -7.83203 17.9102 -8.07617 L 15.7324 -10.2539 C 15.5078 -10.4883 15.4785 -10.625 15.6055 -10.9473 L 16.5527 -13.2227 C 14.9512 -14.7559 12.8418 -15.6055 10.8008 -14.9512 C 10.7129 -14.9219 10.6445 -14.9414 10.6152 -14.9805 C 10.5859 -15.0293 10.5859 -15.0781 10.6738 -15.1465 Z M 4.10156 2.41211 C 3.61328 1.91406 3.78906 1.61133 4.12109 1.30859 L 15.0781 -8.80859 L 16.3086 -7.57812 L 6.15234 3.34961 C 5.84961 3.68164 5.46875 3.7793 5.06836 3.37891 Z"/>
  </g>
  <text style="stroke:none;fill:black;font-family:-apple-system,&quot;SF Pro Display&quot;,&quot;SF Pro Text&quot;,Helvetica,sans-serif;font-weight:bold;" transform="matrix(1 0 0 1 1289 1953)">Exporting</text>
  <text style="stroke:none;fill:black;font-family:-apple-system,&quot;SF Pro Display&quot;,&quot;SF Pro Text&quot;,Helvetica,sans-serif;" transform="matrix(1 0 0 1 1289 1971)">Symbols should be outlined when exporting to ensure the</text>
  <text style="stroke:none;fill:black;font-family:-apple-system,&quot;SF Pro Display&quot;,&quot;SF Pro Text&quot;,Helvetica,sans-serif;" transform="matrix(1 0 0 1 1289 1989)">design is preserved when submitting to Xcode.</text>
  <text id="template-version" style="stroke:none;fill:black;font-family:-apple-system,&quot;SF Pro Display&quot;,&quot;SF Pro Text&quot;,Helvetica,sans-serif;text-anchor:end;" transform="matrix(1 0 0 1 3036 1933)">Template v.1.0</text>
  <text style="stroke:none;fill:black;font-family:-apple-system,&quot;SF Pro Display&quot;,&quot;SF Pro Text&quot;,Helvetica,sans-serif;text-anchor:end;" transform="matrix(1 0 0 1 3036 1951)">Generated from cloud.sun</text>
  <text style="stroke:none;fill:black;font-family:-apple-system,&quot;SF Pro Display&quot;,&quot;SF Pro Text&quot;,Helvetica,sans-serif;text-anchor:end;" transform="matrix(1 0 0 1 3036 1969)">Typeset at 100 points</text>
  <text style="stroke:none;fill:black;font-family:-apple-system,&quot;SF Pro Display&quot;,&quot;SF Pro Text&quot;,Helvetica,sans-serif;" transform="matrix(1 0 0 1 263 726)">Small</text>
  <text style="stroke:none;fill:black;font-family:-apple-system,&quot;SF Pro Display&quot;,&quot;SF Pro Text&quot;,Helvetica,sans-serif;" transform="matrix(1 0 0 1 263 1156)">Medium</text>
  <text style="stroke:none;fill:black;font-family:-apple-system,&quot;SF Pro Display&quot;,&quot;SF Pro Text&quot;,Helvetica,sans-serif;" transform="matrix(1 0 0 1 263 1586)">Large</text>
 </g>
 <g id="Guides">
  <g id="H-reference" style="fill:#27AAE1;stroke:none;" transform="matrix(1 0 0 1 339 696)">
   <path d="M 54.9316 0 L 57.666 0 L 30.5664 -70.459 L 28.0762 -70.459 L 0.976562 0 L 3.66211 0 L 12.9395 -24.4629 L 45.7031 -24.4629 Z M 29.1992 -67.0898 L 29.4434 -67.0898 L 44.8242 -26.709 L 13.8184 -26.709 Z"/>
  </g>
  <line id="Baseline-S" style="fill:none;stroke:#27AAE1;opacity:1;stroke-width:0.577;" x1="263" x2="3036" y1="696" y2="696"/>
  <line id="Capline-S" style="fill:none;stroke:#27AAE1;opacity:1;stroke-width:0.577;" x1="263" x2="3036" y1="625.541" y2="625.541"/>
  <g id="H-reference" style="fill:#27AAE1;stroke:none;" transform="matrix(1 0 0 1 339 1126)">
   <path d="M 54.9316 0 L 57.666 0 L 30.5664 -70.459 L 28.0762 -70.459 L 0.976562 0 L 3.66211 0 L 12.9395 -24.4629 L 45.7031 -24.4629 Z M 29.1992 -67.0898 L 29.4434 -67.0898 L 44.8242 -26.709 L 13.8184 -26.709 Z"/>
  </g>
  <line id="Baseline-M" style="fill:none;stroke:#27AAE1;opacity:1;stroke-width:0.577;" x1="263" x2="3036" y1="1126" y2="1126"/>
  <line id="Capline-M" style="fill:none;stroke:#27AAE1;opacity:1;stroke-width:0.577;" x1="263" x2="3036" y1="1055.54" y2="1055.54"/>
  <g id="H-reference" style="fill:#27AAE1;stroke:none;" transform="matrix(1 0 0 1 339 1556)">
   <path d="M 54.9316 0 L 57.666 0 L 30.5664 -70.459 L 28.0762 -70.459 L 0.976562 0 L 3.66211 0 L 12.9395 -24.4629 L 45.7031 -24.4629 Z M 29.1992 -67.0898 L 29.4434 -67.0898 L 44.8242 -26.709 L 13.8184 -26.709 Z"/>
  </g>
  <line id="Baseline-L" style="fill:none;stroke:#27AAE1;opacity:1;stroke-width:0.577;" x1="263" x2="3036" y1="1556" y2="1556"/>
  <line id="Capline-L" style="fill:none;stroke:#27AAE1;opacity:1;stroke-width:0.577;" x1="263" x2="3036" y1="1485.54" y2="1485.54"/>
  <rect height="119.336" id="left-margin" style="fill:#00AEEF;stroke:none;opacity:0.4;" width="8.74023" x="1370.21" y="1030.79"/>
  <rect height="119.336" id="right-margin" style="fill:#00AEEF;stroke:none;opacity:0.4;" width="8.73929" x="1520.74" y="1030.79"/>
 </g>
 <g id="Symbols">
  <g id="Black-L" transform="matrix(1 0 0 1 2823.41 1556)">
   <path d="M 140.43 -97.9492 C 144.531 -97.9492 147.852 -101.416 147.852 -105.518 L 147.852 -116.309 C 147.852 -120.508 144.531 -123.877 140.43 -123.877 C 136.328 -123.877 133.008 -120.508 133.008 -116.309 L 133.008 -105.518 C 133.008 -101.416 136.328 -97.9492 140.43 -97.9492 Z M 99.8047 -85.6445 C 102.783 -82.666 107.568 -82.6172 110.449 -85.498 C 113.281 -88.3789 113.184 -93.1152 110.303 -96.0938 L 102.734 -103.857 C 99.9023 -106.787 94.9707 -106.738 92.0898 -103.857 C 89.209 -100.977 89.3066 -96.1914 92.1875 -93.3105 Z M 170.459 -85.4492 C 173.34 -82.5684 178.174 -82.666 181.104 -85.5957 L 188.77 -93.2129 C 191.699 -96.0938 191.699 -100.928 188.818 -103.809 C 185.938 -106.689 181.201 -106.641 178.223 -103.711 L 170.508 -96.0938 C 167.578 -93.2129 167.627 -88.3301 170.459 -85.4492 Z M 42.2852 14.4531 L 111.621 14.4531 C 131.934 14.4531 147.754 -1.12305 147.754 -21.0938 C 147.754 -21.4844 147.754 -21.875 147.754 -22.2656 C 162.988 -25.4395 174.463 -39.0137 174.463 -55.4688 C 174.463 -74.3652 159.326 -89.502 140.527 -89.502 C 124.561 -89.502 111.377 -78.8086 107.52 -64.209 C 99.5117 -73.7793 87.9883 -78.8574 74.0723 -78.8574 C 51.9043 -78.8574 33.5938 -63.1348 30.0293 -41.2109 C 18.5547 -37.4512 11.2793 -27.2949 11.2793 -14.7949 C 11.2793 2.19727 24.3164 14.4531 42.2852 14.4531 Z M 140.479 -74.5605 C 151.025 -74.5605 159.473 -66.1133 159.473 -55.4688 C 159.473 -46.0938 152.93 -38.4277 144.287 -36.8652 C 139.893 -46.0938 131.641 -52.9785 121.387 -55.6641 C 121.387 -66.1133 129.834 -74.5605 140.479 -74.5605 Z M 190.332 -48.1445 L 201.172 -48.1445 C 205.273 -48.1445 208.691 -51.416 208.691 -55.5176 C 208.691 -59.6191 205.273 -63.0371 201.172 -63.0371 L 190.332 -63.0371 C 186.23 -63.0371 182.764 -59.6191 182.764 -55.5176 C 182.764 -51.416 186.23 -48.1445 190.332 -48.1445 Z M 42.7246 -2.88086 C 33.3496 -2.88086 28.6621 -7.71484 28.6621 -14.5508 C 28.6621 -20.6055 32.4219 -25.2441 41.0645 -27.4414 C 44.7266 -28.418 45.752 -30.0781 46.2891 -33.8379 C 48.9746 -52.002 60.0586 -61.6211 74.0723 -61.6211 C 84.5215 -61.6211 93.3594 -55.6152 99.3652 -44.3359 C 101.025 -41.2598 102.734 -40.1855 106.543 -40.1855 C 122.998 -40.1855 130.42 -31.6406 130.42 -20.8496 C 130.42 -10.6934 122.803 -2.88086 111.182 -2.88086 Z M 178.174 -7.27539 C 181.104 -4.3457 185.889 -4.29688 188.77 -7.17773 C 191.65 -10.0586 191.504 -14.7949 188.623 -17.7734 L 181.055 -25.5371 C 178.223 -28.418 173.291 -28.418 170.41 -25.5371 C 167.529 -22.6562 167.627 -17.8711 170.508 -14.9902 Z"/>
  </g>
  <g id="Heavy-L" transform="matrix(1 0 0 1 2528.46 1556)">
   <path d="M 137.744 -96.2891 C 141.455 -96.2891 144.482 -99.4629 144.482 -103.125 L 144.482 -114.844 C 144.482 -118.604 141.455 -121.68 137.744 -121.68 C 134.033 -121.68 131.006 -118.604 131.006 -114.844 L 131.006 -103.125 C 131.006 -99.4629 134.033 -96.2891 137.744 -96.2891 Z M 98.3887 -84.0332 C 101.025 -81.3477 105.42 -81.3477 107.959 -83.9355 C 110.547 -86.5234 110.498 -90.7715 107.861 -93.457 L 99.6094 -101.904 C 97.0215 -104.541 92.627 -104.492 90.0391 -101.904 C 87.4023 -99.2676 87.5 -94.9707 90.0879 -92.334 Z M 167.578 -83.8867 C 170.166 -81.2988 174.561 -81.3477 177.197 -83.9844 L 185.498 -92.2852 C 188.135 -94.873 188.135 -99.2188 185.547 -101.855 C 182.91 -104.443 178.662 -104.395 175.977 -101.758 L 167.627 -93.457 C 164.99 -90.8691 164.99 -86.4746 167.578 -83.8867 Z M 41.1133 13.8184 L 110.254 13.8184 C 130.029 13.8184 145.361 -1.2207 145.361 -20.6055 C 145.361 -20.9961 145.361 -21.3867 145.361 -21.7773 C 160.059 -25.0977 170.996 -38.2324 170.996 -54.1016 C 170.996 -72.5586 156.201 -87.4023 137.842 -87.4023 C 122.266 -87.4023 109.375 -76.9531 105.615 -62.6953 C 97.7051 -72.1191 86.4258 -77.2949 72.8516 -77.2949 C 51.0742 -77.2949 33.0078 -61.4258 29.834 -39.8438 C 18.6035 -36.2305 11.2793 -26.3672 11.2793 -14.0625 C 11.2793 2.09961 23.6816 13.8184 41.1133 13.8184 Z M 137.793 -74.0723 C 148.877 -74.0723 157.715 -65.2832 157.715 -54.1016 C 157.715 -44.5801 151.172 -36.7676 142.432 -34.7656 C 138.037 -44.7266 129.053 -52.002 117.822 -54.3945 C 117.822 -65.2832 126.611 -74.0723 137.793 -74.0723 Z M 41.4062 -1.41602 C 31.5918 -1.41602 26.5625 -6.68945 26.5625 -13.8672 C 26.5625 -20.2148 30.5176 -25.1953 39.3066 -27.4902 C 42.7734 -28.418 43.7988 -29.9316 44.2383 -33.4961 C 46.6309 -51.6113 58.3008 -62.0605 72.8516 -62.0605 C 83.9355 -62.0605 92.9688 -55.7617 98.9746 -44.3359 C 100.488 -41.4551 102.148 -40.3809 105.713 -40.3809 C 122.119 -40.3809 130.127 -31.4941 130.127 -20.3613 C 130.127 -9.7168 121.924 -1.41602 109.912 -1.41602 Z M 186.621 -47.4609 L 198.389 -47.4609 C 202.1 -47.4609 205.176 -50.4395 205.176 -54.1504 C 205.176 -57.8613 202.1 -60.9375 198.389 -60.9375 L 186.621 -60.9375 C 182.959 -60.9375 179.834 -57.8613 179.834 -54.1504 C 179.834 -50.4395 182.959 -47.4609 186.621 -47.4609 Z M 175.928 -6.49414 C 178.613 -3.80859 182.861 -3.80859 185.498 -6.39648 C 188.086 -9.0332 187.988 -13.2812 185.4 -15.9668 L 177.1 -24.3164 C 174.561 -26.9531 170.117 -26.9531 167.529 -24.3164 C 164.941 -21.7285 165.039 -17.4316 167.627 -14.7949 Z"/>
  </g>
  <g id="Bold-L" transform="matrix(1 0 0 1 2233.73 1556)">
   <path d="M 134.766 -94.4336 C 138.037 -94.4336 140.723 -97.2168 140.723 -100.439 L 140.723 -113.184 C 140.723 -116.504 138.037 -119.189 134.766 -119.189 C 131.494 -119.189 128.809 -116.504 128.809 -113.184 L 128.809 -100.439 C 128.809 -97.2168 131.494 -94.4336 134.766 -94.4336 Z M 96.7773 -82.2266 C 99.1211 -79.8828 102.979 -79.8828 105.225 -82.1777 C 107.471 -84.4727 107.422 -88.1836 105.176 -90.5273 L 96.0938 -99.6582 C 93.8477 -102.002 89.9902 -101.953 87.6953 -99.6582 C 85.4004 -97.3633 85.4492 -93.6035 87.7441 -91.2598 Z M 164.355 -82.1289 C 166.602 -79.834 170.459 -79.8828 172.803 -82.1777 L 181.836 -91.2109 C 184.131 -93.5059 184.131 -97.3633 181.836 -99.6582 C 179.541 -101.953 175.781 -101.904 173.438 -99.5605 L 164.355 -90.5273 C 162.061 -88.2812 162.109 -84.4238 164.355 -82.1289 Z M 39.8438 13.1836 L 108.74 13.1836 C 127.832 13.1836 142.725 -1.36719 142.725 -20.0684 C 142.725 -20.459 142.725 -20.8008 142.676 -21.1914 C 156.787 -24.7559 167.139 -37.4023 167.139 -52.5879 C 167.139 -70.6055 152.734 -85.0098 134.814 -85.0098 C 119.678 -85.0098 107.129 -74.9023 103.467 -60.9863 C 95.7031 -70.2637 84.6191 -75.4883 71.4844 -75.4883 C 50.0977 -75.4883 32.373 -59.5703 29.5898 -38.2812 C 18.6035 -34.8145 11.2793 -25.293 11.2793 -13.3301 C 11.2793 2.00195 22.9492 13.1836 39.8438 13.1836 Z M 134.766 -73.584 C 146.484 -73.584 155.713 -64.3066 155.713 -52.5879 C 155.713 -42.8711 149.268 -34.8633 140.381 -32.4219 C 136.084 -43.2129 126.221 -50.9277 113.818 -52.832 C 113.818 -64.3066 123.047 -73.584 134.766 -73.584 Z M 39.9414 0.244141 C 29.6387 0.244141 24.2676 -5.51758 24.2676 -13.0859 C 24.2676 -19.7754 28.3691 -25.1465 37.4023 -27.5391 C 40.5762 -28.3691 41.6016 -29.834 41.9922 -33.0566 C 44.043 -51.123 56.3965 -62.5977 71.4844 -62.5977 C 83.252 -62.5977 92.5293 -55.9082 98.4863 -44.3848 C 99.9512 -41.6504 101.465 -40.6738 104.834 -40.6738 C 121.143 -40.6738 129.785 -31.3477 129.785 -19.7754 C 129.785 -8.59375 120.898 0.244141 108.545 0.244141 Z M 182.471 -46.7285 L 195.264 -46.7285 C 198.535 -46.7285 201.221 -49.3652 201.221 -52.6367 C 201.221 -55.8594 198.535 -58.5449 195.264 -58.5449 L 182.471 -58.5449 C 179.248 -58.5449 176.514 -55.8594 176.514 -52.6367 C 176.514 -49.3652 179.248 -46.7285 182.471 -46.7285 Z M 173.438 -5.56641 C 175.781 -3.22266 179.541 -3.27148 181.836 -5.51758 C 184.082 -7.8125 184.082 -11.6211 181.738 -13.916 L 172.705 -22.998 C 170.459 -25.293 166.602 -25.293 164.307 -22.998 C 162.012 -20.7031 162.061 -16.8945 164.355 -14.5996 Z"/>
  </g>
  <g id="Semibold-L" transform="matrix(1 0 0 1 1938.38 1556)">
   <path d="M 132.715 -93.1641 C 135.645 -93.1641 138.086 -95.7031 138.086 -98.584 L 138.086 -112.061 C 138.086 -115.039 135.645 -117.48 132.715 -117.48 C 129.736 -117.48 127.295 -115.039 127.295 -112.061 L 127.295 -98.584 C 127.295 -95.7031 129.736 -93.1641 132.715 -93.1641 Z M 95.6543 -80.957 C 97.7539 -78.8574 101.27 -78.8574 103.32 -80.957 C 105.322 -83.0078 105.322 -86.4258 103.271 -88.5254 L 93.7012 -98.1445 C 91.6504 -100.244 88.1836 -100.195 86.084 -98.1445 C 84.0332 -96.0449 84.0332 -92.627 86.1328 -90.5273 Z M 162.109 -80.9082 C 164.16 -78.8574 167.676 -78.8574 169.775 -80.957 L 179.297 -90.4785 C 181.396 -92.5781 181.396 -96.0449 179.297 -98.1445 C 177.246 -100.195 173.828 -100.195 171.729 -98.0957 L 162.109 -88.5254 C 160.01 -86.4746 160.059 -83.0078 162.109 -80.9082 Z M 38.9648 12.7441 L 107.666 12.7441 C 126.367 12.7441 140.869 -1.46484 140.869 -19.6777 C 140.869 -20.0684 140.869 -20.4102 140.869 -20.8008 C 154.541 -24.4629 164.502 -36.7676 164.502 -51.5137 C 164.502 -69.2383 150.342 -83.3984 132.715 -83.3984 C 117.92 -83.3984 105.566 -73.4375 101.953 -59.8145 C 94.2871 -68.9941 83.3984 -74.2676 70.5566 -74.2676 C 49.4629 -74.2676 31.9336 -58.252 29.3945 -37.207 C 18.6035 -33.8867 11.2793 -24.6094 11.2793 -12.793 C 11.2793 1.95312 22.4609 12.7441 38.9648 12.7441 Z M 132.715 -73.2422 C 144.824 -73.2422 154.346 -63.6719 154.346 -51.5137 C 154.346 -41.6992 147.9 -33.5449 138.916 -30.8105 C 134.766 -42.1387 124.268 -50.1953 111.084 -51.6602 C 111.084 -63.6719 120.605 -73.2422 132.715 -73.2422 Z M 38.9648 1.36719 C 28.2715 1.36719 22.6562 -4.6875 22.6562 -12.5977 C 22.6562 -19.4336 26.9043 -25.0977 36.0352 -27.5879 C 39.1113 -28.3691 40.0879 -29.7363 40.3809 -32.8125 C 42.2363 -50.7812 55.0293 -62.9395 70.5566 -62.9395 C 82.7637 -62.9395 92.2363 -56.0059 98.1934 -44.3848 C 99.5117 -41.748 101.025 -40.8203 104.199 -40.8203 C 120.459 -40.8203 129.541 -31.25 129.541 -19.4336 C 129.541 -7.8125 120.215 1.36719 107.617 1.36719 Z M 179.639 -46.1914 L 193.115 -46.1914 C 196.045 -46.1914 198.486 -48.584 198.486 -51.5625 C 198.535 -54.4922 196.045 -56.9336 193.115 -56.9336 L 179.639 -56.9336 C 176.709 -56.9336 174.219 -54.4922 174.219 -51.5625 C 174.219 -48.584 176.709 -46.1914 179.639 -46.1914 Z M 171.68 -4.93164 C 173.828 -2.83203 177.197 -2.88086 179.297 -4.93164 C 181.348 -7.03125 181.348 -10.4492 179.248 -12.5488 L 169.678 -22.1191 C 167.627 -24.1699 164.16 -24.1699 162.109 -22.1191 C 160.01 -20.0195 160.059 -16.5527 162.109 -14.502 Z"/>
  </g>
  <g id="Medium-L" transform="matrix(1 0 0 1 1642.7 1556)">
   <path d="M 131.152 -92.2363 C 133.887 -92.2363 136.133 -94.5312 136.133 -97.168 L 136.133 -111.182 C 136.133 -113.965 133.887 -116.162 131.152 -116.162 C 128.418 -116.162 126.172 -113.965 126.172 -111.182 L 126.172 -97.168 C 126.172 -94.5312 128.418 -92.2363 131.152 -92.2363 Z M 94.7754 -80.0293 C 96.7773 -78.0762 100 -78.125 101.855 -80.0293 C 103.711 -81.9336 103.76 -85.0586 101.855 -87.0117 L 91.8945 -96.9727 C 89.9414 -98.9258 86.8164 -98.877 84.9121 -96.9727 C 83.0078 -95.0684 82.959 -91.8945 84.9121 -89.9902 Z M 160.4 -80.0293 C 162.305 -78.0762 165.527 -78.0762 167.48 -80.0293 L 177.393 -89.9414 C 179.297 -91.8945 179.297 -95.0684 177.393 -96.9727 C 175.488 -98.877 172.363 -98.877 170.41 -96.9727 L 160.4 -87.0117 C 158.496 -85.1074 158.545 -81.9336 160.4 -80.0293 Z M 38.2812 12.3535 L 106.885 12.3535 C 125.244 12.3535 139.502 -1.51367 139.502 -19.3848 C 139.502 -19.7266 139.502 -20.1172 139.453 -20.459 C 152.832 -24.2676 162.5 -36.3281 162.5 -50.7324 C 162.5 -68.1641 148.535 -82.1289 131.152 -82.1289 C 116.553 -82.1289 104.443 -72.3633 100.879 -58.9355 C 93.2617 -68.0176 82.4707 -73.3398 69.8242 -73.3398 C 48.9258 -73.3398 31.5918 -57.2754 29.2969 -36.377 C 18.6523 -33.1543 11.2793 -24.0234 11.2793 -12.3535 C 11.2793 1.9043 22.0703 12.3535 38.2812 12.3535 Z M 131.152 -72.9492 C 143.555 -72.9492 153.271 -63.1836 153.271 -50.7324 C 153.271 -40.8203 146.875 -32.5195 137.793 -29.5898 C 133.789 -41.3086 122.803 -49.6094 108.984 -50.7812 C 108.984 -63.1836 118.701 -72.9492 131.152 -72.9492 Z M 38.1836 2.24609 C 27.2461 2.24609 21.4355 -4.05273 21.4355 -12.1582 C 21.4355 -19.2383 25.7812 -25.0977 35.0098 -27.5879 C 37.9395 -28.3691 38.916 -29.6387 39.209 -32.6172 C 40.8691 -50.5371 54.0527 -63.1836 69.8242 -63.1836 C 82.373 -63.1836 91.9922 -56.1035 97.9492 -44.3848 C 99.2188 -41.8457 100.684 -40.9668 103.711 -40.9668 C 119.971 -40.9668 129.346 -31.1523 129.346 -19.1406 C 129.346 -7.27539 119.727 2.24609 106.885 2.24609 Z M 177.49 -45.8008 L 191.455 -45.8008 C 194.189 -45.8008 196.436 -47.998 196.436 -50.7324 C 196.484 -53.4668 194.189 -55.7129 191.455 -55.7129 L 177.49 -55.7129 C 174.805 -55.7129 172.51 -53.4668 172.51 -50.7324 C 172.51 -47.998 174.805 -45.8008 177.49 -45.8008 Z M 170.41 -4.44336 C 172.314 -2.53906 175.439 -2.58789 177.393 -4.49219 C 179.297 -6.39648 179.297 -9.57031 177.344 -11.4746 L 167.383 -21.3867 C 165.479 -23.291 162.305 -23.3398 160.4 -21.3867 C 158.496 -19.4824 158.496 -16.3086 160.4 -14.4043 Z"/>
  </g>
  <g id="Regular-L" transform="matrix(1 0 0 1 1347.33 1556)">
   <path d="M 129.102 -90.9668 C 131.543 -90.9668 133.545 -93.0176 133.545 -95.3613 L 133.545 -110.059 C 133.545 -112.5 131.543 -114.502 129.102 -114.502 C 126.66 -114.502 124.658 -112.5 124.658 -110.059 L 124.658 -95.3613 C 124.658 -93.0176 126.66 -90.9668 129.102 -90.9668 Z M 93.7012 -78.8086 C 95.459 -77.0508 98.3398 -77.0996 100 -78.8086 C 101.611 -80.5176 101.66 -83.3008 100 -85.0098 L 89.502 -95.459 C 87.793 -97.2168 85.0098 -97.168 83.3008 -95.459 C 81.6406 -93.7988 81.5918 -90.9668 83.3008 -89.2578 Z M 158.203 -78.8086 C 159.863 -77.0996 162.744 -77.0508 164.502 -78.8086 L 174.854 -89.2578 C 176.611 -90.9668 176.562 -93.7988 174.854 -95.459 C 173.193 -97.168 170.41 -97.2168 168.701 -95.459 L 158.203 -85.0098 C 156.494 -83.3008 156.543 -80.5176 158.203 -78.8086 Z M 37.4023 11.9141 L 105.811 11.9141 C 123.73 11.9141 137.695 -1.61133 137.695 -18.9941 C 137.695 -19.3359 137.646 -19.6777 137.646 -20.0195 C 150.586 -24.0234 159.863 -35.7422 159.863 -49.707 C 159.863 -66.7969 146.191 -80.5176 129.102 -80.5176 C 114.795 -80.5176 102.881 -70.9473 99.4141 -57.7637 C 91.8457 -66.748 81.2988 -72.1191 68.8965 -72.1191 C 48.291 -72.1191 31.1523 -56.0059 29.1504 -35.3516 C 18.6523 -32.1777 11.2793 -23.3398 11.2793 -11.8652 C 11.2793 1.80664 21.582 11.9141 37.4023 11.9141 Z M 106.25 -49.707 C 106.25 -62.5488 116.309 -72.6074 129.102 -72.6074 C 141.895 -72.6074 151.904 -62.5488 151.904 -49.707 C 151.904 -39.5996 145.557 -31.2012 136.328 -27.9297 C 132.52 -40.2344 120.947 -48.877 106.25 -49.5605 C 106.25 -49.5605 106.25 -49.6094 106.25 -49.707 Z M 37.207 3.36914 C 25.9277 3.36914 19.8242 -3.27148 19.8242 -11.6699 C 19.8242 -18.8965 24.3164 -25.0488 33.6914 -27.6367 C 36.4258 -28.3691 37.4023 -29.541 37.6465 -32.3242 C 39.0625 -50.2441 52.7344 -63.5254 68.8965 -63.5254 C 81.9336 -63.5254 91.6992 -56.2012 97.6074 -44.4336 C 98.8281 -41.9922 100.244 -41.1621 103.125 -41.1621 C 119.287 -41.1621 129.102 -31.0547 129.102 -18.75 C 129.102 -6.49414 119.043 3.36914 105.957 3.36914 Z M 174.658 -45.2637 L 189.355 -45.2637 C 191.748 -45.2637 193.701 -47.2656 193.75 -49.707 C 193.799 -52.1484 191.748 -54.1016 189.355 -54.1016 L 174.658 -54.1016 C 172.266 -54.1016 170.215 -52.1484 170.215 -49.707 C 170.215 -47.2656 172.266 -45.2637 174.658 -45.2637 Z M 168.701 -3.85742 C 170.41 -2.09961 173.193 -2.19727 174.854 -3.90625 C 176.562 -5.61523 176.611 -8.39844 174.854 -10.1074 L 164.404 -20.5078 C 162.695 -22.168 159.912 -22.2168 158.203 -20.5078 C 156.494 -18.7988 156.494 -15.9668 158.203 -14.2578 Z"/>
  </g>
  <g id="Light-L" transform="matrix(1 0 0 1 1050.98 1556)">
   <path d="M 129.102 -91.6992 C 130.908 -91.6992 132.422 -93.2617 132.422 -95.0195 L 132.422 -111.182 C 132.422 -112.988 130.908 -114.502 129.102 -114.502 C 127.246 -114.502 125.732 -112.988 125.732 -111.182 L 125.732 -95.0195 C 125.732 -93.2617 127.246 -91.6992 129.102 -91.6992 Z M 95.2637 -79.541 C 96.5332 -78.2227 98.7305 -78.2715 99.9512 -79.541 C 101.221 -80.8105 101.221 -82.9102 99.9512 -84.2285 L 88.4766 -95.7031 C 87.1582 -97.0215 85.1074 -96.9727 83.8379 -95.7031 C 82.5684 -94.4336 82.5195 -92.334 83.8379 -91.0156 Z M 158.203 -79.541 C 159.424 -78.2715 161.621 -78.2227 162.891 -79.541 L 174.316 -91.0156 C 175.684 -92.334 175.635 -94.4336 174.316 -95.7031 C 173.047 -96.9727 170.996 -97.0215 169.678 -95.7031 L 158.203 -84.2285 C 156.934 -82.9102 156.934 -80.8105 158.203 -79.541 Z M 36.5234 10.8398 L 105.322 10.8398 C 122.852 10.8398 136.475 -2.39258 136.475 -19.2871 C 136.475 -19.873 136.475 -20.4102 136.426 -20.9961 C 149.756 -24.7559 159.277 -36.4258 159.277 -50.4395 C 159.277 -67.2363 145.85 -80.7129 129.102 -80.7129 C 114.355 -80.7129 102.197 -70.3613 99.4629 -56.4453 C 91.9922 -66.0156 81.3965 -71.875 68.4082 -71.875 C 48.1445 -71.875 31.3477 -55.7129 29.4434 -35.1074 C 18.9941 -32.1777 11.2793 -23.6328 11.2793 -12.1094 C 11.2793 0.830078 21.0449 10.8398 36.5234 10.8398 Z M 105.029 -50.4395 C 105.029 -63.9648 115.576 -74.5605 129.102 -74.5605 C 142.578 -74.5605 153.125 -63.9648 153.125 -50.4395 C 153.125 -39.502 145.85 -30.3223 135.449 -27.0996 C 131.982 -39.6973 120.117 -48.5352 105.078 -48.9746 C 105.029 -49.4629 105.029 -49.9512 105.029 -50.4395 Z M 36.4258 4.3457 C 24.3652 4.3457 17.7246 -2.92969 17.7246 -12.0117 C 17.7246 -20.1172 22.998 -26.5137 32.5684 -29.248 C 34.9121 -29.8828 35.6934 -30.8594 35.8887 -33.0566 C 37.207 -51.2695 51.6113 -65.3809 68.4082 -65.3809 C 82.4707 -65.3809 92.7246 -57.2266 98.6328 -45.4102 C 99.6582 -43.3594 100.83 -42.6758 103.271 -42.6758 C 119.336 -42.6758 130.029 -32.1289 130.029 -19.043 C 130.029 -6.15234 119.287 4.3457 105.42 4.3457 Z M 173.486 -47.1191 L 189.697 -47.1191 C 191.553 -47.1191 192.969 -48.6328 193.018 -50.4395 C 193.066 -52.2461 191.553 -53.7598 189.697 -53.7598 L 173.486 -53.7598 C 171.729 -53.7598 170.215 -52.2461 170.215 -50.4395 C 170.215 -48.6328 171.729 -47.1191 173.486 -47.1191 Z M 169.678 -5.07812 C 170.996 -3.75977 173.047 -3.85742 174.316 -5.12695 C 175.635 -6.39648 175.684 -8.49609 174.316 -9.76562 L 162.842 -21.2402 C 161.572 -22.5098 159.473 -22.5098 158.203 -21.2402 C 156.934 -19.9707 156.934 -17.8223 158.203 -16.5527 Z"/>
  </g>
  <g id="Thin-L" transform="matrix(1 0 0 1 754.786 1556)">
   <path d="M 129.053 -92.6758 C 130.078 -92.6758 130.957 -93.5547 130.957 -94.5312 L 130.957 -112.646 C 130.957 -113.672 130.078 -114.502 129.053 -114.502 C 128.027 -114.502 127.148 -113.672 127.148 -112.646 L 127.148 -94.5312 C 127.148 -93.5547 128.027 -92.6758 129.053 -92.6758 Z M 158.154 -80.5176 C 158.887 -79.834 160.107 -79.834 160.791 -80.5176 L 173.633 -93.3594 C 174.414 -94.1406 174.365 -95.2637 173.633 -95.9961 C 172.9 -96.6797 171.777 -96.7773 170.996 -95.9961 L 158.154 -83.1543 C 157.471 -82.4219 157.471 -81.25 158.154 -80.5176 Z M 97.3145 -80.5176 C 98.0469 -79.834 99.2188 -79.834 99.9512 -80.5176 C 100.635 -81.25 100.684 -82.4219 99.9512 -83.1543 L 87.1094 -95.9961 C 86.3281 -96.7773 85.2051 -96.6797 84.4727 -95.9961 C 83.7891 -95.2637 83.6914 -94.1406 84.4727 -93.3594 Z M 35.4004 9.32617 L 104.639 9.32617 C 121.631 9.32617 134.912 -3.4668 134.912 -19.6289 C 134.912 -20.5078 134.912 -21.3867 134.814 -22.2168 C 148.633 -25.7812 158.545 -37.4023 158.545 -51.416 C 158.545 -67.8223 145.41 -80.957 129.053 -80.957 C 113.672 -80.957 101.172 -69.3848 99.707 -54.2969 C 92.3828 -64.8438 81.6406 -71.5332 67.7246 -71.5332 C 47.9492 -71.5332 31.6895 -55.3711 29.8828 -34.8633 C 19.4824 -32.1289 11.2305 -24.0723 11.2305 -12.5 C 11.2305 -0.488281 20.3613 9.32617 35.4004 9.32617 Z M 103.369 -51.416 C 103.369 -65.8203 114.648 -77.1973 129.053 -77.1973 C 143.457 -77.1973 154.785 -65.8203 154.785 -51.416 C 154.785 -39.3066 146.289 -29.1992 134.229 -25.9766 C 131.201 -38.916 119.043 -48.0957 103.613 -48.2422 C 103.467 -49.2676 103.369 -50.3418 103.369 -51.416 Z M 35.4004 5.66406 C 22.3145 5.66406 14.9414 -2.49023 14.9414 -12.4512 C 14.9414 -21.6797 21.2891 -28.4668 31.1035 -31.3965 C 32.8613 -31.9336 33.3984 -32.5684 33.4961 -34.0332 C 34.7168 -52.6855 50.1465 -67.8223 67.7246 -67.8223 C 83.252 -67.8223 94.043 -58.5449 100 -46.7285 C 100.781 -45.166 101.66 -44.6289 103.516 -44.6289 C 119.385 -44.6289 131.25 -33.5449 131.25 -19.4824 C 131.25 -5.66406 119.58 5.66406 104.639 5.66406 Z M 171.973 -49.5605 L 190.137 -49.5605 C 191.211 -49.5605 191.943 -50.3906 192.041 -51.416 C 192.09 -52.4414 191.211 -53.2715 190.137 -53.2715 L 171.973 -53.2715 C 170.996 -53.2715 170.166 -52.4414 170.166 -51.416 C 170.166 -50.3906 170.996 -49.5605 171.973 -49.5605 Z M 170.996 -6.78711 C 171.777 -5.95703 172.9 -6.05469 173.633 -6.78711 C 174.365 -7.4707 174.414 -8.64258 173.633 -9.375 L 160.791 -22.2168 C 160.107 -22.9492 158.887 -22.9492 158.154 -22.2168 C 157.471 -21.5332 157.471 -20.3125 158.154 -19.5801 Z"/>
  </g>
  <g id="Ultralight-L" transform="matrix(1 0 0 1 458.32 1556)">
   <path d="M 129.053 -93.1641 C 129.639 -93.1641 130.225 -93.75 130.225 -94.2383 L 130.225 -113.379 C 130.225 -114.014 129.639 -114.502 129.053 -114.502 C 128.467 -114.502 127.881 -114.014 127.881 -113.379 L 127.881 -94.2383 C 127.881 -93.75 128.467 -93.1641 129.053 -93.1641 Z M 98.3398 -81.0059 C 98.7793 -80.6152 99.5117 -80.6152 99.9512 -81.0059 C 100.391 -81.4453 100.342 -82.1777 99.9512 -82.6172 L 86.4258 -96.1426 C 85.8887 -96.6309 85.2539 -96.582 84.8145 -96.1426 C 84.4238 -95.7031 84.3262 -95.0684 84.8145 -94.5801 Z M 158.154 -81.0059 C 158.594 -80.6152 159.326 -80.6152 159.717 -81.0059 L 173.291 -94.5801 C 173.779 -95.0684 173.682 -95.7031 173.291 -96.1426 C 172.852 -96.582 172.217 -96.6309 171.68 -96.1426 L 158.154 -82.6172 C 157.715 -82.1777 157.715 -81.4453 158.154 -81.0059 Z M 34.8633 8.59375 L 104.297 8.59375 C 121.045 8.59375 134.131 -4.00391 134.131 -19.8242 C 134.131 -20.8496 134.082 -21.875 133.984 -22.9004 C 147.998 -26.3184 158.154 -37.8906 158.154 -51.9043 C 158.154 -68.1641 145.215 -81.1035 129.053 -81.1035 C 113.281 -81.1035 100.537 -68.7012 100 -52.9785 C 92.6758 -64.1602 81.9336 -71.3867 67.3828 -71.3867 C 47.8516 -71.3867 31.8359 -55.2246 30.0781 -34.7168 C 19.7266 -32.1289 11.2305 -24.2676 11.2305 -12.6953 C 11.2305 -1.17188 19.9707 8.59375 34.8633 8.59375 Z M 102.93 -47.8516 C 102.881 -47.998 102.832 -48.1445 102.734 -48.2422 C 102.637 -49.3164 102.49 -50.6348 102.49 -51.9043 C 102.49 -66.748 114.209 -78.5156 129.053 -78.5156 C 143.896 -78.5156 155.566 -66.748 155.566 -51.9043 C 155.566 -39.209 146.484 -28.6133 133.545 -25.3906 C 130.859 -38.4766 118.555 -47.8027 102.93 -47.8516 Z M 34.8633 6.29883 C 21.2891 6.29883 13.5254 -2.24609 13.5254 -12.6953 C 13.5254 -22.4609 20.3613 -29.4922 30.3223 -32.5195 C 31.7871 -32.959 32.2266 -33.4473 32.2754 -34.5703 C 33.4473 -53.3691 49.4141 -69.0918 67.3828 -69.0918 C 83.6426 -69.0918 94.7266 -59.2285 100.684 -47.4121 C 101.318 -46.0938 102.051 -45.6543 103.613 -45.6543 C 119.434 -45.6543 131.836 -34.2773 131.836 -19.6777 C 131.836 -5.37109 119.727 6.29883 104.248 6.29883 Z M 171.24 -50.8301 L 190.381 -50.8301 C 191.064 -50.8301 191.455 -51.3184 191.553 -51.9043 C 191.65 -52.5391 191.064 -52.9785 190.381 -52.9785 L 171.24 -52.9785 C 170.605 -52.9785 170.117 -52.5391 170.117 -51.9043 C 170.117 -51.3184 170.605 -50.8301 171.24 -50.8301 Z M 171.68 -7.61719 C 172.217 -7.08008 172.852 -7.17773 173.291 -7.61719 C 173.682 -8.00781 173.779 -8.69141 173.291 -9.17969 L 159.766 -22.7051 C 159.326 -23.1445 158.594 -23.1445 158.154 -22.7051 C 157.715 -22.3145 157.715 -21.582 158.154 -21.1426 Z"/>
  </g>
  <g id="Black-M" transform="matrix(1 0 0 1 2845.97 1126)">
   <path d="M 112.451 -86.4746 C 115.82 -86.4746 118.555 -89.3555 118.555 -92.7246 L 118.555 -100.684 C 118.555 -104.102 115.82 -106.934 112.451 -106.934 C 109.033 -106.934 106.299 -104.102 106.299 -100.684 L 106.299 -92.7246 C 106.299 -89.3555 109.033 -86.4746 112.451 -86.4746 Z M 80.127 -76.8555 C 82.5684 -74.4141 86.5234 -74.3652 88.916 -76.709 C 91.3086 -79.1016 91.1621 -83.0078 88.7695 -85.498 L 83.252 -91.2109 C 80.957 -93.6523 76.8066 -93.6035 74.4141 -91.2109 C 72.0703 -88.8184 72.168 -84.8633 74.5605 -82.5195 Z M 136.035 -76.6602 C 138.379 -74.2676 142.383 -74.4141 144.775 -76.8066 L 150.439 -82.373 C 152.881 -84.7656 152.881 -88.7695 150.488 -91.1621 C 148.096 -93.5059 144.189 -93.457 141.699 -91.0156 L 136.084 -85.498 C 133.643 -83.1055 133.643 -79.0527 136.035 -76.6602 Z M 33.8867 3.4668 L 88.0859 3.4668 C 104.395 3.4668 117.09 -9.0332 117.09 -25.0977 C 117.09 -25.5371 117.09 -25.9277 117.041 -26.3184 C 129.834 -28.4668 139.551 -39.5996 139.551 -53.125 C 139.551 -68.2129 127.49 -80.2734 112.549 -80.2734 C 99.4141 -80.2734 88.623 -71.2402 85.9375 -59.0332 C 79.6875 -66.9434 70.4102 -71.0938 58.7891 -71.0938 C 41.3086 -71.0938 26.9531 -58.9844 23.7305 -41.6504 C 14.5508 -38.623 8.74023 -30.5176 8.74023 -20.459 C 8.74023 -6.64062 19.4336 3.4668 33.8867 3.4668 Z M 98.1934 -53.125 C 98.1934 -61.0352 104.541 -67.3828 112.5 -67.3828 C 120.312 -67.3828 126.66 -61.0352 126.66 -53.125 C 126.66 -45.6055 120.996 -39.5508 113.818 -38.8672 C 110.547 -45.2148 105.029 -50.0488 98.2422 -52.4414 C 98.1934 -52.6367 98.1934 -52.8809 98.1934 -53.125 Z M 151.904 -47.1191 L 159.814 -47.1191 C 163.281 -47.1191 166.113 -49.8047 166.113 -53.2227 C 166.113 -56.5918 163.281 -59.4238 159.814 -59.4238 L 151.904 -59.4238 C 148.486 -59.4238 145.605 -56.5918 145.605 -53.2227 C 145.605 -49.8047 148.486 -47.1191 151.904 -47.1191 Z M 34.4727 -11.6211 C 27.3926 -11.6211 23.877 -15.1855 23.877 -20.3125 C 23.877 -25.0488 27.0508 -28.3691 33.5449 -30.0293 C 36.5234 -30.7617 37.1582 -32.0801 37.6953 -35.0098 C 40.1367 -49.3652 48.291 -56.0547 58.7891 -56.0547 C 66.6504 -56.0547 73.3887 -51.3672 78.125 -42.7734 C 79.4434 -40.4297 80.7617 -39.5508 83.7402 -39.5508 C 96.5332 -39.5508 102.002 -33.2031 102.002 -24.9023 C 102.002 -17.334 96.4844 -11.6211 87.5 -11.6211 Z M 141.65 -15.332 C 144.092 -12.8906 148.047 -12.8418 150.439 -15.1855 C 152.832 -17.5781 152.686 -21.4844 150.293 -23.9746 L 144.775 -29.6875 C 142.48 -32.1289 138.33 -32.0801 135.938 -29.6875 C 133.594 -27.2949 133.691 -23.3398 136.084 -20.9961 Z"/>
  </g>
  <g id="Heavy-M" transform="matrix(1 0 0 1 2551.09 1126)">
   <path d="M 109.521 -84.4727 C 112.598 -84.4727 115.137 -87.1094 115.137 -90.1855 L 115.137 -98.7793 C 115.137 -101.904 112.598 -104.492 109.521 -104.492 C 106.396 -104.492 103.857 -101.904 103.857 -98.7793 L 103.857 -90.1855 C 103.857 -87.1094 106.396 -84.4727 109.521 -84.4727 Z M 78.1738 -74.9023 C 80.4199 -72.6562 84.0332 -72.6074 86.2305 -74.8047 C 88.3789 -77.002 88.2812 -80.5664 86.1328 -82.8613 L 80.127 -88.9648 C 77.9785 -91.2109 74.2188 -91.1621 72.0215 -88.9648 C 69.873 -86.8164 69.9219 -83.1543 72.1191 -81.0059 Z M 132.861 -74.7559 C 135.01 -72.5586 138.721 -72.6562 140.918 -74.8535 L 146.973 -80.9082 C 149.219 -83.0566 149.219 -86.7676 147.021 -88.916 C 144.824 -91.1133 141.211 -91.0645 139.014 -88.8184 L 132.91 -82.8613 C 130.664 -80.6641 130.664 -76.9531 132.861 -74.7559 Z M 32.8613 3.125 L 86.7188 3.125 C 102.49 3.125 114.795 -8.98438 114.795 -24.5117 C 114.795 -24.8535 114.795 -25.1953 114.746 -25.5371 C 126.855 -27.9297 135.938 -38.5742 135.938 -51.4648 C 135.938 -66.1133 124.17 -77.8809 109.619 -77.8809 C 97.0215 -77.8809 86.6211 -69.3359 83.8379 -57.7148 C 77.6367 -65.332 68.6523 -69.3848 57.5684 -69.3848 C 40.3809 -69.3848 26.2695 -57.2266 23.4375 -40.1855 C 14.502 -37.2559 8.74023 -29.3945 8.74023 -19.6289 C 8.74023 -6.44531 18.8965 3.125 32.8613 3.125 Z M 94.6289 -51.4648 C 94.6289 -59.7656 101.221 -66.3574 109.57 -66.3574 C 117.773 -66.3574 124.365 -59.7656 124.365 -51.4648 C 124.365 -43.9941 119.043 -37.9395 112.061 -36.8164 C 108.691 -43.8477 102.393 -49.1211 94.6289 -51.2695 C 94.6289 -51.3184 94.6289 -51.3672 94.6289 -51.4648 Z M 148.145 -45.8984 L 156.689 -45.8984 C 159.863 -45.8984 162.402 -48.3887 162.451 -51.5137 C 162.451 -54.6387 159.863 -57.2266 156.689 -57.2266 L 148.145 -57.2266 C 145.02 -57.2266 142.383 -54.6387 142.383 -51.5137 C 142.383 -48.3887 145.02 -45.8984 148.145 -45.8984 Z M 33.252 -10.2539 C 25.8789 -10.2539 22.168 -14.1113 22.168 -19.4824 C 22.168 -24.3164 25.293 -27.9297 31.9336 -29.6387 C 34.7656 -30.3711 35.498 -31.6406 35.9375 -34.4238 C 38.0371 -48.6328 46.6797 -56.0547 57.5684 -56.0547 C 65.8203 -56.0547 72.7051 -51.2695 77.3926 -42.5293 C 78.6621 -40.2344 79.9316 -39.4043 82.8125 -39.4043 C 95.5566 -39.4043 101.416 -32.7637 101.416 -24.3164 C 101.416 -16.3574 95.459 -10.2539 86.3281 -10.2539 Z M 138.965 -14.1113 C 141.162 -11.8652 144.775 -11.8652 146.973 -14.0137 C 149.17 -16.2109 149.072 -19.7754 146.875 -22.0703 L 140.869 -28.2227 C 138.77 -30.4199 135.01 -30.3711 132.812 -28.2227 C 130.615 -26.0254 130.713 -22.4121 132.91 -20.2148 Z"/>
  </g>
  <g id="Bold-M" transform="matrix(1 0 0 1 2256.43 1126)">
   <path d="M 106.25 -82.2266 C 109.033 -82.2266 111.328 -84.6191 111.328 -87.4023 L 111.328 -96.6309 C 111.328 -99.4629 109.033 -101.807 106.25 -101.807 C 103.418 -101.807 101.123 -99.4629 101.123 -96.6309 L 101.123 -87.4023 C 101.123 -84.6191 103.418 -82.2266 106.25 -82.2266 Z M 75.9277 -72.7051 C 77.9785 -70.7031 81.25 -70.7031 83.2031 -72.6562 C 85.1562 -74.6094 85.1074 -77.832 83.1543 -79.8828 L 76.6113 -86.5234 C 74.6582 -88.5254 71.3379 -88.4766 69.3359 -86.5234 C 67.3828 -84.5215 67.4316 -81.25 69.4336 -79.2969 Z M 129.297 -72.6074 C 131.25 -70.6543 134.57 -70.7031 136.572 -72.7051 L 143.115 -79.1992 C 145.117 -81.2012 145.117 -84.5215 143.164 -86.4746 C 141.162 -88.4277 137.939 -88.4277 135.938 -86.4258 L 129.346 -79.8828 C 127.344 -77.9297 127.344 -74.6094 129.297 -72.6074 Z M 31.6895 2.68555 L 85.2051 2.68555 C 100.391 2.68555 112.207 -8.88672 112.207 -23.7793 C 112.207 -24.1211 112.207 -24.4141 112.207 -24.6582 C 123.486 -27.2949 131.885 -37.4023 131.885 -49.5605 C 131.885 -63.8184 120.459 -75.2441 106.299 -75.2441 C 94.3359 -75.2441 84.375 -67.2363 81.4453 -56.25 C 75.3906 -63.4766 66.6504 -67.5293 56.25 -67.5293 C 39.4043 -67.5293 25.4883 -55.2246 23.0469 -38.5254 C 14.4043 -35.7422 8.74023 -28.1738 8.74023 -18.7012 C 8.74023 -6.29883 18.2129 2.68555 31.6895 2.68555 Z M 106.25 -65.2344 C 114.941 -65.2344 121.826 -58.3008 121.826 -49.5605 C 121.826 -42.1875 116.846 -36.1328 110.059 -34.4727 C 106.641 -42.334 99.5605 -48.0469 90.625 -49.8047 C 90.625 -58.3008 97.5098 -65.2344 106.25 -65.2344 Z M 31.8359 -8.74023 C 24.1699 -8.74023 20.2148 -12.8906 20.2148 -18.5547 C 20.2148 -23.4863 23.291 -27.4414 30.1758 -29.1992 C 32.8125 -29.8828 33.5938 -31.1035 33.9355 -33.7891 C 35.7422 -47.8027 44.873 -56.1035 56.25 -56.1035 C 64.8926 -56.1035 71.9238 -51.123 76.6113 -42.2852 C 77.7832 -40.0391 79.0527 -39.2578 81.7871 -39.2578 C 94.4824 -39.2578 100.781 -32.2754 100.781 -23.584 C 100.781 -15.2832 94.2871 -8.74023 84.9609 -8.74023 Z M 143.945 -44.5312 L 153.174 -44.5312 C 156.006 -44.5312 158.301 -46.8262 158.35 -49.6094 C 158.35 -52.4414 156.006 -54.7363 153.174 -54.7363 L 143.945 -54.7363 C 141.162 -54.7363 138.77 -52.4414 138.77 -49.6094 C 138.77 -46.8262 141.162 -44.5312 143.945 -44.5312 Z M 135.889 -12.7441 C 137.891 -10.7422 141.162 -10.7422 143.115 -12.7441 C 145.068 -14.6973 145.02 -17.9199 143.066 -19.9219 L 136.523 -26.5625 C 134.619 -28.5156 131.25 -28.5156 129.297 -26.5625 C 127.295 -24.5605 127.393 -21.2891 129.346 -19.3359 Z"/>
  </g>
  <g id="Semibold-M" transform="matrix(1 0 0 1 1961.14 1126)">
   <path d="M 104.004 -80.6641 C 106.592 -80.6641 108.691 -82.8613 108.691 -85.4492 L 108.691 -95.166 C 108.691 -97.8027 106.592 -99.9023 104.004 -99.9023 C 101.367 -99.9023 99.2676 -97.8027 99.2676 -95.166 L 99.2676 -85.4492 C 99.2676 -82.8613 101.367 -80.6641 104.004 -80.6641 Z M 74.4141 -71.1914 C 76.2695 -69.3359 79.3457 -69.3359 81.1035 -71.1914 C 82.9102 -72.998 82.9102 -75.9766 81.0547 -77.832 L 74.1699 -84.7656 C 72.3633 -86.6211 69.3359 -86.6211 67.5293 -84.7656 C 65.6738 -82.959 65.7227 -79.9316 67.5293 -78.125 Z M 126.855 -71.1426 C 128.662 -69.3359 131.738 -69.3359 133.594 -71.1914 L 140.479 -78.0762 C 142.334 -79.8828 142.285 -82.959 140.479 -84.7656 C 138.672 -86.5723 135.693 -86.5723 133.838 -84.7168 L 126.904 -77.832 C 125.049 -76.0254 125.098 -72.9492 126.855 -71.1426 Z M 30.8594 2.44141 L 84.1309 2.44141 C 98.9258 2.44141 110.449 -8.83789 110.449 -23.3398 C 110.449 -23.584 110.449 -23.8281 110.449 -24.0723 C 121.191 -26.9043 129.053 -36.6211 129.053 -48.291 C 129.053 -62.2559 117.92 -73.4375 104.004 -73.4375 C 92.4316 -73.4375 82.8125 -65.7715 79.834 -55.2246 C 73.8281 -62.2559 65.2832 -66.2109 55.3223 -66.2109 C 38.7207 -66.2109 24.9512 -53.8574 22.8027 -37.4023 C 14.3555 -34.7168 8.74023 -27.3438 8.74023 -18.0664 C 8.74023 -6.15234 17.7734 2.44141 30.8594 2.44141 Z M 104.004 -64.4531 C 112.988 -64.4531 120.117 -57.3242 120.117 -48.291 C 120.117 -40.918 115.283 -34.8633 108.643 -32.9102 C 105.322 -41.3086 97.6074 -47.3145 87.8906 -48.7305 C 88.1348 -57.5684 95.1172 -64.4531 104.004 -64.4531 Z M 30.9082 -7.71484 C 22.998 -7.71484 18.8965 -12.1094 18.8965 -17.8711 C 18.8965 -22.9004 21.9238 -27.0996 28.9062 -28.9062 C 31.4453 -29.5898 32.2754 -30.7129 32.5684 -33.3496 C 34.1309 -47.2656 43.6523 -56.1035 55.3223 -56.1035 C 64.2578 -56.1035 71.4355 -51.0254 76.0254 -42.0898 C 77.1484 -39.9414 78.418 -39.1602 81.0547 -39.1602 C 93.75 -39.1602 100.293 -31.9336 100.293 -23.0957 C 100.293 -14.502 93.5059 -7.71484 84.0332 -7.71484 Z M 141.064 -43.6035 L 150.781 -43.6035 C 153.369 -43.6035 155.469 -45.7031 155.518 -48.291 C 155.518 -50.9277 153.369 -53.0273 150.781 -53.0273 L 141.064 -53.0273 C 138.477 -53.0273 136.279 -50.9277 136.279 -48.291 C 136.279 -45.7031 138.477 -43.6035 141.064 -43.6035 Z M 133.789 -11.8164 C 135.645 -9.96094 138.623 -10.0098 140.479 -11.8164 C 142.285 -13.623 142.236 -16.6504 140.43 -18.457 L 133.545 -25.3906 C 131.738 -27.1973 128.662 -27.1973 126.855 -25.3906 C 125.049 -23.584 125.049 -20.5566 126.904 -18.75 Z"/>
  </g>
  <g id="Medium-M" transform="matrix(1 0 0 1 1665.5 1126)">
   <path d="M 102.295 -79.541 C 104.736 -79.541 106.689 -81.5918 106.689 -83.9844 L 106.689 -94.043 C 106.689 -96.4844 104.736 -98.4863 102.295 -98.4863 C 99.8535 -98.4863 97.8516 -96.4844 97.8516 -94.043 L 97.8516 -83.9844 C 97.8516 -81.5918 99.8535 -79.541 102.295 -79.541 Z M 73.2422 -70.0684 C 75 -68.3105 77.8809 -68.3594 79.541 -70.0684 C 81.2012 -71.7773 81.2012 -74.5605 79.541 -76.2695 L 72.3633 -83.4961 C 70.6543 -85.2051 67.8223 -85.2051 66.1133 -83.4961 C 64.4043 -81.7871 64.4043 -78.9551 66.1133 -77.2461 Z M 125 -70.0195 C 126.709 -68.3105 129.59 -68.3105 131.348 -70.0684 L 138.428 -77.1973 C 140.186 -78.9062 140.186 -81.7871 138.477 -83.4961 C 136.768 -85.2051 133.936 -85.2051 132.227 -83.4473 L 125.049 -76.2695 C 123.291 -74.5605 123.34 -71.7285 125 -70.0195 Z M 30.2246 2.19727 L 83.3496 2.19727 C 97.8516 2.19727 109.131 -8.78906 109.131 -22.9492 C 109.131 -23.1934 109.082 -23.3887 109.082 -23.584 C 119.482 -26.5625 126.953 -35.9863 126.953 -47.3145 C 126.953 -61.0352 115.967 -72.0215 102.295 -72.0215 C 91.0156 -72.0215 81.6406 -64.6484 78.6133 -54.4434 C 72.6562 -61.2793 64.3066 -65.2344 54.5898 -65.2344 C 38.1836 -65.2344 24.5117 -52.832 22.6074 -36.5234 C 14.3066 -33.9355 8.74023 -26.6602 8.74023 -17.5781 C 8.74023 -6.05469 17.4805 2.19727 30.2246 2.19727 Z M 102.295 -63.8672 C 111.523 -63.8672 118.75 -56.5918 118.75 -47.3145 C 118.75 -39.9902 114.111 -33.8867 107.568 -31.6895 C 104.297 -40.4785 96.0938 -46.7285 85.791 -47.8516 C 86.084 -56.8848 93.2129 -63.8672 102.295 -63.8672 Z M 30.1758 -6.93359 C 22.1191 -6.93359 17.8711 -11.4746 17.8711 -17.3828 C 17.8711 -22.4609 20.8984 -26.8066 27.9785 -28.7109 C 30.4688 -29.3457 31.2988 -30.4688 31.543 -33.0078 C 32.9102 -46.8262 42.6758 -56.1035 54.5898 -56.1035 C 63.7695 -56.1035 71.0449 -50.9766 75.6348 -41.9434 C 76.709 -39.8438 77.9297 -39.0625 80.5176 -39.0625 C 93.1641 -39.0625 100 -31.6895 100 -22.7539 C 100 -13.916 92.9199 -6.93359 83.3496 -6.93359 Z M 138.867 -42.9199 L 148.926 -42.9199 C 151.367 -42.9199 153.369 -44.873 153.369 -47.3145 C 153.369 -49.7559 151.367 -51.7578 148.926 -51.7578 L 138.867 -51.7578 C 136.475 -51.7578 134.424 -49.7559 134.424 -47.3145 C 134.424 -44.873 136.475 -42.9199 138.867 -42.9199 Z M 132.227 -11.1328 C 133.936 -9.375 136.719 -9.42383 138.428 -11.1328 C 140.137 -12.8418 140.137 -15.6738 138.428 -17.3828 L 131.25 -24.5117 C 129.541 -26.2207 126.709 -26.2207 125 -24.5117 C 123.291 -22.8027 123.34 -19.9707 125.049 -18.2617 Z"/>
  </g>
  <g id="Regular-M" transform="matrix(1 0 0 1 1370.21 1126)">
   <path d="M 100.049 -77.9785 C 102.295 -77.9785 104.102 -79.8828 104.102 -82.0312 L 104.102 -92.5781 C 104.102 -94.8242 102.295 -96.6309 100.049 -96.6309 C 97.8027 -96.6309 95.9961 -94.8242 95.9961 -92.5781 L 95.9961 -82.0312 C 95.9961 -79.8828 97.8027 -77.9785 100.049 -77.9785 Z M 71.7285 -68.6035 C 73.3398 -66.9922 75.9766 -67.041 77.4902 -68.6035 C 79.0039 -70.166 79.0527 -72.7051 77.4902 -74.2676 L 69.9707 -81.7871 C 68.3594 -83.3496 65.8203 -83.3496 64.2578 -81.7871 C 62.6953 -80.2246 62.6953 -77.6367 64.2578 -76.0742 Z M 122.607 -68.6035 C 124.121 -67.041 126.758 -66.9922 128.369 -68.6035 L 135.791 -76.0742 C 137.402 -77.6367 137.354 -80.2246 135.791 -81.7871 C 134.277 -83.3496 131.738 -83.3496 130.127 -81.7871 L 122.607 -74.2676 C 121.045 -72.7051 121.094 -70.166 122.607 -68.6035 Z M 29.4434 1.95312 L 82.2754 1.95312 C 96.3867 1.95312 107.373 -8.74023 107.373 -22.5098 C 107.373 -22.6562 107.373 -22.8027 107.373 -22.9004 C 117.188 -26.123 124.219 -35.2051 124.219 -46.0449 C 124.219 -59.4727 113.477 -70.2148 100.049 -70.2148 C 89.209 -70.2148 80.0781 -63.1836 77.002 -53.3691 C 71.1426 -60.0586 62.9883 -63.9648 53.6621 -63.9648 C 37.5 -63.9648 23.9746 -51.4648 22.3633 -35.4004 C 14.2578 -32.8613 8.74023 -25.8301 8.74023 -16.9434 C 8.74023 -5.95703 17.041 1.95312 29.4434 1.95312 Z M 100.049 -63.0859 C 109.57 -63.0859 117.041 -55.6152 117.041 -46.0449 C 117.041 -38.7207 112.598 -32.5684 106.152 -30.0781 C 103.027 -39.4043 94.1895 -45.9473 83.0566 -46.6309 C 83.3984 -55.9082 90.7227 -63.0859 100.049 -63.0859 Z M 29.248 -5.85938 C 20.9473 -5.85938 16.5527 -10.6445 16.5527 -16.748 C 16.5527 -21.9238 19.5801 -26.5137 26.7578 -28.418 C 29.1016 -29.0527 29.9805 -30.0781 30.1758 -32.5684 C 31.2988 -46.2402 41.4551 -56.1035 53.6621 -56.1035 C 63.1348 -56.1035 70.5078 -50.8789 75.0488 -41.7969 C 76.123 -39.6973 77.3438 -38.9648 79.7852 -38.9648 C 92.4316 -38.9648 99.5605 -31.3477 99.5605 -22.2656 C 99.5605 -13.1836 92.1387 -5.85938 82.4219 -5.85938 Z M 135.986 -41.9922 L 146.533 -41.9922 C 148.73 -41.9922 150.537 -43.7988 150.537 -46.0449 C 150.586 -48.2422 148.73 -50.0488 146.533 -50.0488 L 135.986 -50.0488 C 133.789 -50.0488 131.934 -48.2422 131.934 -46.0449 C 131.934 -43.7988 133.789 -41.9922 135.986 -41.9922 Z M 130.127 -10.2051 C 131.738 -8.64258 134.277 -8.69141 135.791 -10.2539 C 137.354 -11.8164 137.402 -14.4043 135.791 -15.918 L 128.271 -23.3887 C 126.709 -24.9023 124.17 -24.9512 122.607 -23.3887 C 121.045 -21.8262 121.045 -19.2383 122.607 -17.6758 Z"/>
  </g>
  <g id="Light-M" transform="matrix(1 0 0 1 1073.81 1126)">
   <path d="M 100.049 -78.6621 C 101.709 -78.6621 103.125 -80.0781 103.125 -81.6895 L 103.125 -93.6035 C 103.125 -95.2637 101.709 -96.6309 100.049 -96.6309 C 98.3398 -96.6309 96.9727 -95.2637 96.9727 -93.6035 L 96.9727 -81.6895 C 96.9727 -80.0781 98.3398 -78.6621 100.049 -78.6621 Z M 73.1445 -69.2383 C 74.3164 -68.0176 76.3184 -68.0664 77.4902 -69.2383 C 78.6133 -70.4102 78.6621 -72.3633 77.4902 -73.5352 L 69.043 -81.9824 C 67.8223 -83.2031 65.918 -83.1543 64.7461 -81.9824 C 63.5742 -80.8105 63.5254 -78.8574 64.7461 -77.6855 Z M 122.607 -69.2383 C 123.73 -68.0664 125.732 -68.0176 126.953 -69.2383 L 135.352 -77.6855 C 136.572 -78.8574 136.523 -80.8105 135.352 -81.9824 C 134.18 -83.1543 132.275 -83.2031 131.055 -81.9824 L 122.607 -73.5352 C 121.436 -72.3633 121.484 -70.4102 122.607 -69.2383 Z M 28.7109 0.927734 L 81.8359 0.927734 C 95.6055 0.927734 106.299 -9.42383 106.299 -22.7539 C 106.299 -23.0957 106.299 -23.4375 106.299 -23.7793 C 116.455 -26.8066 123.682 -35.8398 123.682 -46.6797 C 123.682 -59.8633 113.184 -70.4102 100.049 -70.4102 C 88.8184 -70.4102 79.541 -62.7441 77.0508 -52.2949 C 71.2402 -59.4238 63.0371 -63.7207 53.2227 -63.7207 C 37.4023 -63.7207 24.2188 -51.2207 22.7051 -35.2539 C 14.5996 -32.8613 8.74023 -26.123 8.74023 -17.1875 C 8.74023 -6.83594 16.5527 0.927734 28.7109 0.927734 Z M 81.9336 -46.6797 C 81.9336 -56.8848 89.8926 -64.8438 100.049 -64.8438 C 110.205 -64.8438 118.164 -56.8848 118.164 -46.6797 C 118.164 -38.5742 112.891 -31.8359 105.371 -29.2969 C 102.539 -38.916 93.457 -45.7031 81.9824 -46.1426 C 81.9336 -46.3379 81.9336 -46.4844 81.9336 -46.6797 Z M 28.5645 -4.98047 C 19.5801 -4.98047 14.6973 -10.3516 14.6973 -17.0898 C 14.6973 -22.998 18.4082 -27.832 25.7324 -29.8828 C 27.7344 -30.4199 28.418 -31.25 28.6133 -33.2031 C 29.6875 -47.2168 40.4785 -57.7637 53.2227 -57.7637 C 63.6719 -57.7637 71.3867 -51.8066 75.9766 -42.6758 C 76.8555 -40.918 77.8809 -40.332 79.9805 -40.332 C 92.4805 -40.332 100.342 -32.3242 100.342 -22.5586 C 100.342 -12.8418 92.334 -4.98047 81.9336 -4.98047 Z M 134.961 -43.6523 L 146.875 -43.6523 C 148.535 -43.6523 149.902 -45.0195 149.902 -46.6797 C 149.951 -48.3887 148.535 -49.7559 146.875 -49.7559 L 134.961 -49.7559 C 133.35 -49.7559 131.934 -48.3887 131.934 -46.6797 C 131.934 -45.0195 133.35 -43.6523 134.961 -43.6523 Z M 131.055 -11.3281 C 132.275 -10.1074 134.18 -10.1562 135.352 -11.3281 C 136.523 -12.5488 136.572 -14.4531 135.352 -15.625 L 126.904 -24.0723 C 125.732 -25.1953 123.779 -25.2441 122.607 -24.0723 C 121.436 -22.9004 121.436 -20.8984 122.607 -19.7266 Z"/>
  </g>
  <g id="Thin-M" transform="matrix(1 0 0 1 777.516 1126)">
   <path d="M 100.049 -79.541 C 101.025 -79.541 101.855 -80.3711 101.855 -81.2988 L 101.855 -94.9219 C 101.855 -95.8496 101.025 -96.6309 100.049 -96.6309 C 99.0723 -96.6309 98.2422 -95.8496 98.2422 -94.9219 L 98.2422 -81.2988 C 98.2422 -80.3711 99.0723 -79.541 100.049 -79.541 Z M 75 -70.1172 C 75.6836 -69.4336 76.8066 -69.4336 77.4902 -70.1172 C 78.125 -70.8008 78.1738 -71.9238 77.4902 -72.6074 L 67.8223 -82.2754 C 67.0898 -82.959 66.0156 -82.9102 65.332 -82.2754 C 64.6973 -81.5918 64.6484 -80.4688 65.332 -79.7852 Z M 122.607 -70.1172 C 123.291 -69.4336 124.414 -69.4336 125.098 -70.1172 L 134.717 -79.7852 C 135.449 -80.4688 135.4 -81.5918 134.717 -82.2754 C 134.082 -82.9102 133.008 -82.959 132.275 -82.2754 L 122.607 -72.6074 C 121.924 -71.9238 121.924 -70.8008 122.607 -70.1172 Z M 27.7344 -0.341797 L 81.25 -0.341797 C 94.5801 -0.341797 104.932 -10.4004 104.932 -23.0957 C 104.932 -23.6816 104.932 -24.2676 104.883 -24.9023 C 115.43 -27.6855 123.047 -36.7188 123.047 -47.5586 C 123.047 -60.4004 112.793 -70.6055 100.049 -70.6055 C 88.2812 -70.6055 78.6621 -61.9141 77.2461 -50.5371 C 71.5332 -58.4473 63.2324 -63.4277 52.6367 -63.4277 C 37.2559 -63.4277 24.5117 -50.9277 23.0957 -35.0098 C 15.0391 -32.8613 8.74023 -26.4648 8.74023 -17.5293 C 8.74023 -8.00781 15.9668 -0.341797 27.7344 -0.341797 Z M 80.4688 -47.5586 C 80.4688 -58.5449 89.0625 -67.1875 100.049 -67.1875 C 110.986 -67.1875 119.629 -58.5449 119.629 -47.5586 C 119.629 -38.4277 113.281 -30.8105 104.297 -28.2715 C 101.855 -38.2324 92.5293 -45.3125 80.6152 -45.5078 C 80.5176 -46.1426 80.4688 -46.875 80.4688 -47.5586 Z M 27.6855 -3.85742 C 17.7734 -3.85742 12.207 -9.96094 12.207 -17.4805 C 12.207 -24.3652 16.8945 -29.5898 24.4629 -31.7871 C 25.9277 -32.2266 26.416 -32.8125 26.5137 -34.082 C 27.4902 -48.4375 39.209 -59.9609 52.6367 -59.9609 C 64.3555 -59.9609 72.6074 -53.0273 77.1973 -43.8477 C 77.8809 -42.5293 78.6133 -42.0898 80.1758 -42.0898 C 92.5293 -42.0898 101.465 -33.5938 101.465 -22.9492 C 101.465 -12.4023 92.627 -3.85742 81.2988 -3.85742 Z M 133.643 -45.8008 L 147.266 -45.8008 C 148.291 -45.8008 149.023 -46.582 149.072 -47.5586 C 149.121 -48.5352 148.291 -49.3164 147.266 -49.3164 L 133.643 -49.3164 C 132.715 -49.3164 131.885 -48.5352 131.885 -47.5586 C 131.885 -46.582 132.715 -45.8008 133.643 -45.8008 Z M 132.275 -12.793 C 133.008 -12.0605 134.082 -12.1582 134.717 -12.8418 C 135.4 -13.4766 135.449 -14.5996 134.717 -15.2832 L 125.098 -24.9512 C 124.414 -25.5859 123.291 -25.6348 122.607 -24.9512 C 121.924 -24.2676 121.924 -23.1445 122.607 -22.4609 Z"/>
  </g>
  <g id="Ultralight-M" transform="matrix(1 0 0 1 481.025 1126)">
   <path d="M 100.049 -79.9805 C 100.635 -79.9805 101.172 -80.5176 101.172 -81.0547 L 101.172 -95.6055 C 101.172 -96.1914 100.635 -96.6309 100.049 -96.6309 C 99.4629 -96.6309 98.9258 -96.1914 98.9258 -95.6055 L 98.9258 -81.0547 C 98.9258 -80.5176 99.4629 -79.9805 100.049 -79.9805 Z M 75.9277 -70.5566 C 76.3672 -70.166 77.0508 -70.166 77.4902 -70.5566 C 77.8809 -70.9961 77.8809 -71.6797 77.4902 -72.1191 L 67.2363 -82.373 C 66.748 -82.8613 66.0645 -82.8125 65.6738 -82.373 C 65.2344 -81.9824 65.1855 -81.3477 65.6738 -80.8594 Z M 122.607 -70.5566 C 123.047 -70.166 123.73 -70.166 124.17 -70.5566 L 134.424 -80.8594 C 134.912 -81.3477 134.814 -81.9824 134.424 -82.373 C 133.984 -82.8125 133.35 -82.8613 132.861 -82.373 L 122.607 -72.1191 C 122.168 -71.6797 122.168 -70.9961 122.607 -70.5566 Z M 27.1973 -1.02539 L 80.957 -1.02539 C 93.9941 -1.02539 104.248 -10.8887 104.248 -23.2422 C 104.248 -23.9746 104.199 -24.7559 104.102 -25.4883 C 114.941 -28.125 122.705 -37.1094 122.705 -47.998 C 122.705 -60.6445 112.598 -70.752 100.049 -70.752 C 87.9395 -70.752 78.125 -61.377 77.4414 -49.4141 C 71.7285 -57.8613 63.4277 -63.2812 52.3438 -63.2812 C 37.1582 -63.2812 24.6582 -50.7812 23.291 -34.8633 C 15.2344 -32.8125 8.74023 -26.6602 8.74023 -17.6758 C 8.74023 -8.64258 15.625 -1.02539 27.1973 -1.02539 Z M 79.7363 -47.998 C 79.7363 -59.375 88.6719 -68.4082 100.049 -68.4082 C 111.426 -68.4082 120.361 -59.375 120.361 -47.998 C 120.361 -38.3301 113.477 -30.2734 103.76 -27.7832 C 101.514 -37.8906 92.041 -45.0684 79.9316 -45.166 C 79.834 -45.8984 79.7363 -46.9727 79.7363 -47.998 Z M 27.1973 -3.22266 C 16.8457 -3.22266 10.9375 -9.76562 10.9375 -17.7246 C 10.9375 -25.0977 16.1133 -30.4688 23.7793 -32.7637 C 25 -33.1543 25.3418 -33.5938 25.4395 -34.5703 C 26.3672 -49.0723 38.5254 -61.084 52.3438 -61.084 C 64.7461 -61.084 73.2422 -53.6133 77.832 -44.4824 C 78.418 -43.3594 79.0039 -43.0176 80.2734 -43.0176 C 92.5781 -43.0176 102.002 -34.2773 102.002 -23.1445 C 102.002 -12.1582 92.7734 -3.22266 80.957 -3.22266 Z M 132.959 -46.9238 L 147.51 -46.9238 C 148.145 -46.9238 148.535 -47.4121 148.633 -47.998 C 148.682 -48.584 148.145 -49.0723 147.51 -49.0723 L 132.959 -49.0723 C 132.373 -49.0723 131.885 -48.584 131.885 -47.998 C 131.885 -47.4121 132.373 -46.9238 132.959 -46.9238 Z M 132.861 -13.5742 C 133.35 -13.0859 133.984 -13.1348 134.424 -13.5742 C 134.814 -13.9648 134.912 -14.6484 134.424 -15.1367 L 124.17 -25.3906 C 123.73 -25.7812 122.998 -25.7812 122.607 -25.3906 C 122.168 -24.9512 122.168 -24.2676 122.607 -23.8281 Z"/>
  </g>
  <g id="Black-S" transform="matrix(1 0 0 1 2865.07 696)">
   <path d="M 87.8418 -75.1953 C 90.4785 -75.1953 92.627 -77.4414 92.627 -80.0781 L 92.627 -86.3281 C 92.627 -89.0137 90.4785 -91.2109 87.8418 -91.2109 C 85.2051 -91.2109 83.0566 -89.0137 83.0566 -86.3281 L 83.0566 -80.0781 C 83.0566 -77.4414 85.2051 -75.1953 87.8418 -75.1953 Z M 62.5977 -67.6758 C 64.502 -65.7715 67.5781 -65.7227 69.4336 -67.5781 C 71.2891 -69.4336 71.1914 -72.4609 69.3359 -74.4141 L 64.9902 -78.9062 C 63.1836 -80.8105 59.9609 -80.7617 58.1055 -78.9062 C 56.25 -77.0508 56.3477 -73.9746 58.2031 -72.1191 Z M 106.299 -67.5293 C 108.154 -65.6738 111.279 -65.7715 113.135 -67.627 L 117.578 -72.0215 C 119.482 -73.877 119.482 -77.002 117.627 -78.8574 C 115.771 -80.7129 112.695 -80.6641 110.791 -78.7598 L 106.348 -74.4141 C 104.443 -72.5586 104.443 -69.3848 106.299 -67.5293 Z M 26.4648 -4.93164 L 68.8965 -4.93164 C 81.6406 -4.93164 91.5527 -14.6973 91.5527 -27.2461 C 91.5527 -27.5879 91.5527 -27.8809 91.5527 -28.1738 C 101.465 -29.8828 109.033 -38.5254 109.033 -49.1211 C 109.033 -60.8887 99.6094 -70.3125 87.9395 -70.3125 C 77.6855 -70.3125 69.2871 -63.2812 67.1387 -53.8086 C 62.2559 -59.9609 55.0293 -63.1836 45.9473 -63.1836 C 32.2754 -63.1836 21.0449 -53.7109 18.5547 -40.1367 C 11.377 -37.793 6.83594 -31.4453 6.83594 -23.584 C 6.83594 -12.793 15.1855 -4.93164 26.4648 -4.93164 Z M 76.6602 -49.1211 C 76.6602 -55.3223 81.6406 -60.3027 87.8906 -60.3027 C 94.043 -60.3027 99.0234 -55.3223 99.0234 -49.1211 C 99.0234 -43.2617 94.6289 -38.4766 89.0137 -37.9395 C 86.4258 -42.9688 82.0801 -46.7773 76.6602 -48.6328 C 76.6602 -48.7793 76.6602 -48.9258 76.6602 -49.1211 Z M 118.701 -44.4336 L 124.951 -44.4336 C 127.637 -44.4336 129.834 -46.5332 129.834 -49.1699 C 129.834 -51.8066 127.637 -54.0039 124.951 -54.0039 L 118.701 -54.0039 C 116.064 -54.0039 113.818 -51.8066 113.818 -49.1699 C 113.818 -46.5332 116.064 -44.4336 118.701 -44.4336 Z M 26.9043 -16.6504 C 21.3379 -16.6504 18.6035 -19.4336 18.6035 -23.4863 C 18.6035 -27.1973 21.0449 -29.7852 26.1719 -31.1035 C 28.4668 -31.6895 29.0039 -32.7148 29.3945 -35.0098 C 31.2988 -46.2402 37.6953 -51.5137 45.9473 -51.5137 C 52.1484 -51.5137 57.4219 -47.8516 61.1328 -41.1133 C 62.1582 -39.2578 63.1836 -38.5742 65.5273 -38.5742 C 75.5371 -38.5742 79.834 -33.5938 79.834 -27.0996 C 79.834 -21.1426 75.4883 -16.6504 68.457 -16.6504 Z M 110.742 -19.5312 C 112.646 -17.627 115.723 -17.5781 117.578 -19.4336 C 119.434 -21.2891 119.336 -24.3164 117.48 -26.2695 L 113.135 -30.7617 C 111.328 -32.666 108.105 -32.6172 106.25 -30.7617 C 104.395 -28.9062 104.492 -25.8301 106.348 -23.9746 Z"/>
  </g>
  <g id="Heavy-S" transform="matrix(1 0 0 1 2569.72 696)">
   <path d="M 85.5957 -73.584 C 88.0859 -73.584 90.1367 -75.7324 90.1367 -78.1738 L 90.1367 -84.7656 C 90.1367 -87.3047 88.0859 -89.3555 85.5957 -89.3555 C 83.1055 -89.3555 81.1035 -87.3047 81.1035 -84.7656 L 81.1035 -78.1738 C 81.1035 -75.7324 83.1055 -73.584 85.5957 -73.584 Z M 60.9375 -66.1133 C 62.6953 -64.3066 65.625 -64.3066 67.3828 -66.0156 C 69.0918 -67.7734 69.043 -70.6543 67.2852 -72.4609 L 62.6953 -77.1973 C 60.9863 -78.9551 57.959 -78.9551 56.2012 -77.1973 C 54.4922 -75.4395 54.541 -72.5098 56.2988 -70.8008 Z M 103.857 -66.0156 C 105.615 -64.2578 108.545 -64.3066 110.352 -66.0645 L 114.99 -70.7031 C 116.797 -72.4609 116.797 -75.3906 115.039 -77.1484 C 113.281 -78.9062 110.4 -78.8574 108.594 -77.0508 L 103.906 -72.4609 C 102.148 -70.7031 102.148 -67.7246 103.857 -66.0156 Z M 25.7324 -5.07812 L 67.9199 -5.07812 C 80.2734 -5.07812 89.8926 -14.5508 89.8926 -26.7578 C 89.8926 -27.002 89.8926 -27.2461 89.8926 -27.4902 C 99.2676 -29.3945 106.299 -37.6953 106.299 -47.7539 C 106.299 -59.2773 97.1191 -68.5059 85.6934 -68.5059 C 75.8789 -68.5059 67.8223 -61.9141 65.5273 -52.9297 C 60.6934 -58.7891 53.6621 -61.9141 45.0684 -61.9141 C 31.5918 -61.9141 20.5078 -52.3926 18.2617 -39.0137 C 11.2793 -36.7676 6.83594 -30.5664 6.83594 -22.9004 C 6.83594 -12.5488 14.7949 -5.07812 25.7324 -5.07812 Z M 85.6445 -59.3262 C 92.041 -59.3262 97.168 -54.1992 97.168 -47.7539 C 97.168 -42.041 93.0664 -37.3535 87.7441 -36.4258 C 85.1074 -41.9922 80.1758 -46.0938 74.0723 -47.7539 C 74.0723 -54.1992 79.1992 -59.3262 85.6445 -59.3262 Z M 115.967 -43.3105 L 122.51 -43.3105 C 125.049 -43.3105 127.1 -45.3125 127.1 -47.8027 C 127.1 -50.293 125.049 -52.3438 122.51 -52.3438 L 115.967 -52.3438 C 113.477 -52.3438 111.328 -50.293 111.328 -47.8027 C 111.328 -45.3125 113.477 -43.3105 115.967 -43.3105 Z M 26.0254 -15.7227 C 20.3125 -15.7227 17.4805 -18.6523 17.4805 -22.8027 C 17.4805 -26.5137 19.8242 -29.2969 25.0488 -30.6641 C 27.2949 -31.2012 27.8809 -32.2266 28.2227 -34.4727 C 29.8828 -45.5566 36.5723 -51.3672 45.0684 -51.3672 C 51.4648 -51.3672 56.7871 -47.6562 60.498 -40.8203 C 61.4746 -39.0137 62.5 -38.3301 64.7949 -38.3301 C 74.8047 -38.3301 79.2969 -33.1543 79.2969 -26.6113 C 79.2969 -20.4102 74.6582 -15.7227 67.5781 -15.7227 Z M 108.545 -18.457 C 110.352 -16.6992 113.232 -16.6504 114.99 -18.4082 C 116.748 -20.166 116.65 -23.0469 114.893 -24.8535 L 110.303 -29.541 C 108.594 -31.3477 105.615 -31.2988 103.857 -29.541 C 102.1 -27.7832 102.148 -24.9023 103.906 -23.1445 Z"/>
  </g>
  <g id="Bold-S" transform="matrix(1 0 0 1 2274.55 696)">
   <path d="M 83.1055 -71.8262 C 85.4492 -71.8262 87.3047 -73.7793 87.3047 -76.0742 L 87.3047 -83.0078 C 87.3047 -85.3516 85.4492 -87.3047 83.1055 -87.3047 C 80.7617 -87.3047 78.9062 -85.3516 78.9062 -83.0078 L 78.9062 -76.0742 C 78.9062 -73.7793 80.7617 -71.8262 83.1055 -71.8262 Z M 59.0332 -64.3555 C 60.7422 -62.6953 63.4766 -62.6953 65.0879 -64.3066 C 66.6504 -65.918 66.6504 -68.6035 65.0391 -70.2637 L 60.1074 -75.2441 C 58.4961 -76.9043 55.7617 -76.9043 54.1016 -75.2441 C 52.4902 -73.6328 52.5391 -70.8984 54.1504 -69.2871 Z M 101.172 -64.3066 C 102.783 -62.6465 105.518 -62.6953 107.178 -64.3555 L 112.109 -69.2383 C 113.77 -70.8496 113.77 -73.584 112.109 -75.2441 C 110.498 -76.8555 107.812 -76.8555 106.152 -75.1953 L 101.221 -70.2637 C 99.5605 -68.6523 99.5605 -65.918 101.172 -64.3066 Z M 24.9512 -5.27344 L 66.7969 -5.27344 C 78.7598 -5.27344 88.0859 -14.4043 88.0859 -26.1719 C 88.0859 -26.3672 88.0859 -26.5625 88.0859 -26.709 C 96.8262 -28.8574 103.271 -36.7188 103.271 -46.2402 C 103.271 -57.4707 94.3359 -66.4551 83.1543 -66.4551 C 73.877 -66.4551 66.1621 -60.3516 63.7207 -51.9043 C 58.9355 -57.4707 52.1484 -60.498 44.0918 -60.498 C 30.8594 -60.498 19.873 -50.8789 17.9688 -37.793 C 11.1816 -35.5957 6.83594 -29.5898 6.83594 -22.168 C 6.83594 -12.3047 14.3555 -5.27344 24.9512 -5.27344 Z M 83.1543 -58.252 C 89.7949 -58.252 95.0684 -52.9785 95.0684 -46.2402 C 95.0684 -40.6738 91.3574 -36.0352 86.3281 -34.7656 C 83.6426 -40.8691 78.0762 -45.3125 71.1426 -46.6797 C 71.3867 -53.2227 76.5625 -58.252 83.1543 -58.252 Z M 25.0488 -14.6484 C 19.1895 -14.6484 16.2598 -17.7734 16.2598 -22.0703 C 16.2598 -25.7324 18.457 -28.7598 23.7793 -30.127 C 25.9766 -30.7129 26.6113 -31.6895 26.9043 -33.9355 C 28.3203 -44.8242 35.3027 -51.1719 44.0918 -51.1719 C 50.6836 -51.1719 56.1035 -47.4609 59.7168 -40.5273 C 60.6934 -38.6719 61.7188 -38.0371 63.9648 -38.0371 C 73.9746 -38.0371 78.7109 -32.666 78.7109 -26.0254 C 78.7109 -19.6289 73.7793 -14.6484 66.6504 -14.6484 Z M 112.842 -42.0898 L 119.824 -42.0898 C 122.119 -42.0898 124.023 -43.9453 124.023 -46.2891 C 124.072 -48.584 122.119 -50.4883 119.824 -50.4883 L 112.842 -50.4883 C 110.547 -50.4883 108.594 -48.584 108.594 -46.2891 C 108.594 -43.9453 110.547 -42.0898 112.842 -42.0898 Z M 106.104 -17.2852 C 107.764 -15.625 110.449 -15.625 112.109 -17.2852 C 113.721 -18.8965 113.672 -21.582 112.061 -23.2422 L 107.129 -28.2227 C 105.518 -29.834 102.783 -29.834 101.172 -28.2227 C 99.5117 -26.5625 99.5605 -23.877 101.221 -22.2168 Z"/>
  </g>
  <g id="Semibold-S" transform="matrix(1 0 0 1 1978.89 696)">
   <path d="M 81.3965 -70.5566 C 83.5938 -70.5566 85.4004 -72.4121 85.4004 -74.6094 L 85.4004 -81.7871 C 85.4004 -84.0332 83.5938 -85.8398 81.3965 -85.8398 C 79.1504 -85.8398 77.3438 -84.0332 77.3438 -81.7871 L 77.3438 -74.6094 C 77.3438 -72.4121 79.1504 -70.5566 81.3965 -70.5566 Z M 57.7637 -63.1348 C 59.3262 -61.5723 61.9629 -61.5723 63.4766 -63.1348 C 64.9902 -64.6484 64.9902 -67.1875 63.4277 -68.7988 L 58.3496 -73.9258 C 56.7871 -75.4883 54.1992 -75.4883 52.6367 -73.9258 C 51.123 -72.3633 51.123 -69.8242 52.6855 -68.2617 Z M 99.3164 -63.0859 C 100.83 -61.5723 103.467 -61.5723 105.029 -63.1348 L 110.107 -68.2129 C 111.67 -69.7754 111.67 -72.3633 110.107 -73.9258 C 108.594 -75.4883 106.006 -75.4395 104.443 -73.877 L 99.3164 -68.7988 C 97.7539 -67.2363 97.8027 -64.6484 99.3164 -63.0859 Z M 24.3652 -5.41992 L 66.0156 -5.41992 C 77.7344 -5.41992 86.8164 -14.3066 86.8164 -25.8301 C 86.8164 -25.9277 86.8164 -26.0742 86.8164 -26.1719 C 95.1172 -28.4668 101.172 -36.084 101.172 -45.2148 C 101.172 -56.2012 92.3828 -65.0391 81.3965 -65.0391 C 72.4609 -65.0391 64.9902 -59.2285 62.5 -51.2207 C 57.7637 -56.543 51.0742 -59.5215 43.457 -59.5215 C 30.3223 -59.5215 19.4336 -49.8535 17.7734 -36.9629 C 11.1328 -34.8145 6.83594 -28.9062 6.83594 -21.6797 C 6.83594 -12.1582 14.0625 -5.41992 24.3652 -5.41992 Z M 81.3965 -57.4707 C 88.2324 -57.4707 93.6523 -52.0996 93.6523 -45.2148 C 93.6523 -39.6973 90.1367 -35.1562 85.3027 -33.5938 C 82.6172 -40.0879 76.6602 -44.7754 69.1406 -45.8984 C 69.4824 -52.4414 74.7559 -57.4707 81.3965 -57.4707 Z M 24.4141 -13.916 C 18.4082 -13.916 15.3809 -17.1875 15.3809 -21.5332 C 15.3809 -25.1953 17.5293 -28.3691 22.9492 -29.7852 C 25.0488 -30.3223 25.7324 -31.2988 25.9766 -33.4961 C 27.2461 -44.2871 34.4727 -51.0254 43.457 -51.0254 C 50.1465 -51.0254 55.6152 -47.3145 59.2285 -40.332 C 60.1562 -38.4766 61.2305 -37.8418 63.4277 -37.8418 C 73.3887 -37.8418 78.2715 -32.3242 78.2715 -25.6348 C 78.2715 -19.0918 73.1445 -13.916 65.9668 -13.916 Z M 110.742 -41.2109 L 117.92 -41.2109 C 120.117 -41.2109 121.924 -43.0176 121.924 -45.2148 C 121.924 -47.4121 120.117 -49.2188 117.92 -49.2188 L 110.742 -49.2188 C 108.545 -49.2188 106.689 -47.4121 106.689 -45.2148 C 106.689 -43.0176 108.545 -41.2109 110.742 -41.2109 Z M 104.443 -16.5039 C 106.006 -14.9414 108.545 -14.9414 110.107 -16.5039 C 111.67 -18.0176 111.621 -20.6055 110.059 -22.168 L 104.98 -27.2461 C 103.418 -28.8086 100.83 -28.8086 99.2676 -27.2461 C 97.7539 -25.7324 97.7539 -23.1445 99.3164 -21.582 Z"/>
  </g>
  <g id="Medium-S" transform="matrix(1 0 0 1 1682.96 696)">
   <path d="M 80.0781 -69.6289 C 82.1777 -69.6289 83.9355 -71.4355 83.9355 -73.4863 L 83.9355 -80.9082 C 83.9355 -83.0078 82.1777 -84.7656 80.0781 -84.7656 C 77.9297 -84.7656 76.2207 -83.0078 76.2207 -80.9082 L 76.2207 -73.4863 C 76.2207 -71.4355 77.9297 -69.6289 80.0781 -69.6289 Z M 56.7871 -62.2559 C 58.3008 -60.6934 60.8398 -60.7422 62.2559 -62.207 C 63.7207 -63.7207 63.7207 -66.1133 62.2559 -67.627 L 56.9824 -72.9492 C 55.5176 -74.4141 53.0273 -74.4141 51.5625 -72.9492 C 50.0488 -71.4355 50.0977 -68.9453 51.5625 -67.4805 Z M 97.9004 -62.207 C 99.3164 -60.7422 101.855 -60.6934 103.369 -62.207 L 108.594 -67.4805 C 110.107 -68.9453 110.107 -71.4355 108.594 -72.9004 C 107.129 -74.4141 104.688 -74.4141 103.174 -72.9004 L 97.9004 -67.627 C 96.3867 -66.1621 96.4355 -63.6719 97.9004 -62.207 Z M 23.9746 -5.51758 L 65.4297 -5.51758 C 76.9531 -5.51758 85.8398 -14.209 85.8398 -25.5371 L 85.8398 -25.7324 C 93.8477 -28.1738 99.6094 -35.5957 99.6094 -44.3848 C 99.6094 -55.2734 90.918 -63.9648 80.0781 -63.9648 C 71.4355 -63.9648 64.1602 -58.3984 61.5723 -50.6348 C 56.8848 -55.8594 50.3418 -58.7891 42.9199 -58.7891 C 29.9316 -58.7891 19.0918 -49.0723 17.5781 -36.3281 C 11.0352 -34.1797 6.83594 -28.418 6.83594 -21.2891 C 6.83594 -12.0117 13.8672 -5.51758 23.9746 -5.51758 Z M 80.0781 -56.9336 C 87.0605 -56.9336 92.5781 -51.416 92.5781 -44.3848 C 92.5781 -38.9648 89.2578 -34.4238 84.5215 -32.7148 C 81.8848 -39.502 75.5859 -44.3359 67.627 -45.2637 C 68.0664 -51.9043 73.3887 -56.9336 80.0781 -56.9336 Z M 23.877 -13.3789 C 17.8223 -13.3789 14.7461 -16.6992 14.7461 -21.1426 C 14.7461 -24.8047 16.7969 -28.125 22.2656 -29.541 C 24.3652 -30.0781 25.0977 -31.0059 25.293 -33.2031 C 26.416 -43.8965 33.7891 -50.9277 42.9199 -50.9277 C 49.7559 -50.9277 55.2734 -47.2168 58.8379 -40.1367 C 59.7656 -38.3301 60.791 -37.6953 62.9883 -37.6953 C 72.9492 -37.6953 77.9785 -32.0801 77.9785 -25.3418 C 77.9785 -18.6523 72.6562 -13.3789 65.4785 -13.3789 Z M 109.131 -40.5762 L 116.504 -40.5762 C 118.604 -40.5762 120.361 -42.2852 120.361 -44.4336 C 120.361 -46.5332 118.604 -48.291 116.504 -48.291 L 109.131 -48.291 C 107.031 -48.291 105.225 -46.5332 105.225 -44.4336 C 105.225 -42.2852 107.031 -40.5762 109.131 -40.5762 Z M 103.174 -15.8691 C 104.688 -14.3555 107.08 -14.4043 108.594 -15.8691 C 110.059 -17.3828 110.059 -19.8242 108.594 -21.2891 L 103.32 -26.5625 C 101.855 -28.0273 99.3652 -28.0273 97.9004 -26.5625 C 96.3867 -25.0977 96.4355 -22.6074 97.9004 -21.0938 Z"/>
  </g>
  <g id="Regular-S" transform="matrix(1 0 0 1 1387.3 696)">
   <path d="M 78.3691 -68.4082 C 80.3711 -68.4082 82.0312 -70.1172 82.0312 -72.0703 L 82.0312 -79.6875 C 82.0312 -81.6895 80.3711 -83.3496 78.3691 -83.3496 C 76.3672 -83.3496 74.707 -81.6895 74.707 -79.6875 L 74.707 -72.0703 C 74.707 -70.1172 76.3672 -68.4082 78.3691 -68.4082 Z M 96.0449 -61.0352 C 97.4121 -59.6191 99.8047 -59.5703 101.27 -61.0352 L 106.641 -66.4551 C 108.008 -67.8711 108.008 -70.2148 106.641 -71.6309 C 105.225 -72.998 102.93 -72.998 101.514 -71.6309 L 96.0449 -66.1621 C 94.6289 -64.7461 94.6777 -62.4512 96.0449 -61.0352 Z M 55.4688 -61.0352 C 56.9336 -59.5703 59.3262 -59.6191 60.6934 -61.0352 C 62.0605 -62.4512 62.1094 -64.7461 60.6934 -66.1621 L 55.2246 -71.6309 C 53.8086 -72.998 51.5137 -72.998 50.0977 -71.6309 C 48.7305 -70.2148 48.7305 -67.8711 50.0977 -66.4551 Z M 23.4375 -5.61523 L 64.6973 -5.61523 C 75.8789 -5.61523 84.6191 -14.1113 84.6191 -25.1465 L 84.6191 -25.1953 C 92.1387 -27.7832 97.5098 -34.9121 97.5098 -43.3594 C 97.5098 -54.0039 89.0137 -62.5977 78.3691 -62.5977 C 70.0195 -62.5977 62.9883 -57.3242 60.3516 -49.9023 C 55.7129 -54.9316 49.3164 -57.8125 42.2852 -57.8125 C 29.4434 -57.8125 18.7012 -48.0469 17.3828 -35.4492 C 10.9863 -33.3984 6.83594 -27.7344 6.83594 -20.8008 C 6.83594 -11.8652 13.5742 -5.61523 23.4375 -5.61523 Z M 78.3691 -56.2012 C 85.5469 -56.2012 91.1621 -50.5859 91.1621 -43.3594 C 91.1621 -38.0371 88.0371 -33.5449 83.4961 -31.5918 C 80.957 -38.7207 74.1699 -43.75 65.625 -44.3848 C 66.1621 -51.123 71.5332 -56.2012 78.3691 -56.2012 Z M 23.2422 -12.6465 C 17.0898 -12.6465 13.8672 -16.1133 13.8672 -20.6055 C 13.8672 -24.2676 15.8691 -27.7344 21.4355 -29.1992 C 23.4863 -29.6875 24.2188 -30.6641 24.4141 -32.8125 C 25.3418 -43.4082 32.959 -50.7812 42.2852 -50.7812 C 49.2188 -50.7812 54.7852 -47.0703 58.3496 -39.9414 C 59.2285 -38.1348 60.3027 -37.5 62.4512 -37.5 C 72.3633 -37.5 77.5879 -31.7383 77.5879 -24.9512 C 77.5879 -18.1152 72.0703 -12.6465 64.7949 -12.6465 Z M 107.031 -39.6973 L 114.648 -39.6973 C 116.602 -39.6973 118.262 -41.3574 118.262 -43.3594 C 118.262 -45.3613 116.602 -47.0215 114.648 -47.0215 L 107.031 -47.0215 C 105.029 -47.0215 103.369 -45.3613 103.369 -43.3594 C 103.369 -41.3574 105.029 -39.6973 107.031 -39.6973 Z M 101.514 -15.0879 C 102.93 -13.6719 105.225 -13.7207 106.641 -15.1367 C 108.008 -16.5039 108.008 -18.8477 106.641 -20.2148 L 101.172 -25.6348 C 99.7559 -27.002 97.4609 -27.0508 96.0449 -25.6348 C 94.6289 -24.2188 94.6289 -21.875 96.0449 -20.5078 Z"/>
  </g>
  <g id="Light-S" transform="matrix(1 0 0 1 1090.88 696)">
   <path d="M 78.3691 -68.9941 C 79.8828 -68.9941 81.1523 -70.3125 81.1523 -71.7773 L 81.1523 -80.5664 C 81.1523 -82.1289 79.8828 -83.3496 78.3691 -83.3496 C 76.8555 -83.3496 75.5859 -82.1289 75.5859 -80.5664 L 75.5859 -71.7773 C 75.5859 -70.3125 76.8555 -68.9941 78.3691 -68.9941 Z M 56.7383 -61.6211 C 57.8613 -60.5469 59.668 -60.5469 60.6934 -61.6211 C 61.7188 -62.6953 61.7676 -64.4531 60.6934 -65.5273 L 54.4434 -71.7773 C 53.3203 -72.8516 51.6113 -72.8516 50.5371 -71.7773 C 49.4629 -70.7031 49.4629 -68.9453 50.5371 -67.8711 Z M 96.0449 -61.6211 C 97.0703 -60.5469 98.877 -60.5469 100 -61.6211 L 106.201 -67.8711 C 107.275 -68.9453 107.275 -70.7031 106.201 -71.7773 C 105.127 -72.8516 103.418 -72.8516 102.295 -71.7773 L 96.0449 -65.5273 C 94.9707 -64.4531 95.0195 -62.6953 96.0449 -61.6211 Z M 22.7539 -6.49414 L 64.2578 -6.49414 C 75.1953 -6.49414 83.6914 -14.7461 83.6914 -25.3418 C 83.6914 -25.5371 83.6914 -25.7324 83.6914 -25.9277 C 91.5039 -28.3691 97.0703 -35.498 97.0703 -43.9453 C 97.0703 -54.3457 88.7695 -62.7441 78.3691 -62.7441 C 69.7266 -62.7441 62.5 -56.9336 60.3516 -49.0234 C 55.7617 -54.4434 49.3164 -57.6172 41.8457 -57.6172 C 29.3457 -57.6172 18.8965 -47.8516 17.627 -35.3027 C 11.2793 -33.3984 6.83594 -27.9785 6.83594 -20.9961 C 6.83594 -12.6465 13.1348 -6.49414 22.7539 -6.49414 Z M 78.3691 -57.7637 C 86.084 -57.7637 92.1387 -51.709 92.1387 -43.9453 C 92.1387 -37.8906 88.3301 -32.8613 82.8613 -30.8594 C 80.5176 -38.3301 73.4863 -43.5547 64.5996 -43.9453 C 64.5996 -51.709 70.6543 -57.7637 78.3691 -57.7637 Z M 22.6562 -11.8652 C 15.8691 -11.8652 12.207 -15.8691 12.207 -20.8984 C 12.207 -25.2441 14.8438 -28.9062 20.5566 -30.4688 C 22.2656 -30.9082 22.8516 -31.6895 22.998 -33.3984 C 23.877 -44.2383 32.0801 -52.2461 41.8457 -52.2461 C 49.6582 -52.2461 55.5664 -47.8516 59.1797 -40.7227 C 59.9121 -39.209 60.791 -38.7207 62.5977 -38.7207 C 72.4121 -38.7207 78.3203 -32.5684 78.3203 -25.1953 C 78.3203 -17.8223 72.2656 -11.8652 64.3555 -11.8652 Z M 106.104 -41.1621 L 114.941 -41.1621 C 116.455 -41.1621 117.676 -42.4316 117.676 -43.9453 C 117.725 -45.459 116.455 -46.7285 114.941 -46.7285 L 106.104 -46.7285 C 104.639 -46.7285 103.369 -45.459 103.369 -43.9453 C 103.369 -42.4316 104.639 -41.1621 106.104 -41.1621 Z M 102.295 -16.0645 C 103.418 -14.9902 105.127 -15.0391 106.201 -16.1133 C 107.275 -17.1875 107.275 -18.9453 106.201 -19.9707 L 99.9512 -26.2207 C 98.877 -27.2461 97.1191 -27.2949 96.0449 -26.2207 C 94.9707 -25.1465 94.9707 -23.3887 96.0449 -22.3145 Z"/>
  </g>
  <g id="Thin-S" transform="matrix(1 0 0 1 794.533 696)">
   <path d="M 78.3691 -69.7754 C 79.248 -69.7754 80.0293 -70.5566 80.0293 -71.3867 L 80.0293 -81.7383 C 80.0293 -82.6172 79.248 -83.3496 78.3691 -83.3496 C 77.4902 -83.3496 76.709 -82.6172 76.709 -81.7383 L 76.709 -71.3867 C 76.709 -70.5566 77.4902 -69.7754 78.3691 -69.7754 Z M 96.0449 -62.4023 C 96.6797 -61.7676 97.7051 -61.7676 98.3398 -62.4023 L 105.664 -69.7266 C 106.348 -70.3613 106.299 -71.3867 105.664 -72.0215 C 105.029 -72.6562 104.053 -72.7051 103.369 -72.0215 L 96.0449 -64.6973 C 95.4102 -64.0625 95.4102 -63.0371 96.0449 -62.4023 Z M 58.3984 -62.4023 C 59.0332 -61.7676 60.0586 -61.7676 60.6934 -62.4023 C 61.3281 -63.0371 61.3281 -64.0625 60.6934 -64.6973 L 53.3691 -72.0215 C 52.6855 -72.7051 51.709 -72.6562 51.0742 -72.0215 C 50.4395 -71.3867 50.3906 -70.3613 51.0742 -69.7266 Z M 21.875 -7.66602 L 63.7695 -7.66602 C 74.2676 -7.66602 82.4707 -15.5762 82.4707 -25.6348 C 82.4707 -26.0742 82.4219 -26.5137 82.4219 -26.9043 C 90.625 -29.1504 96.5332 -36.2305 96.5332 -44.7266 C 96.5332 -54.834 88.4277 -62.8906 78.3691 -62.8906 C 69.2871 -62.8906 61.8164 -56.2988 60.4492 -47.5586 C 55.957 -53.6133 49.4629 -57.373 41.3574 -57.373 C 29.1992 -57.373 19.1406 -47.6074 17.9688 -35.1074 C 11.6699 -33.3496 6.83594 -28.3203 6.83594 -21.2891 C 6.83594 -13.6719 12.5977 -7.66602 21.875 -7.66602 Z M 63.3301 -44.7266 C 63.3301 -53.1738 69.9219 -59.8145 78.3691 -59.8145 C 86.8164 -59.8145 93.4082 -53.1738 93.4082 -44.7266 C 93.4082 -37.7441 88.6719 -31.9336 81.9336 -29.9805 C 79.9316 -37.7441 72.6562 -43.1641 63.4277 -43.4082 C 63.3301 -43.7988 63.3301 -44.2871 63.3301 -44.7266 Z M 21.8262 -10.8398 C 14.2578 -10.8398 10.0098 -15.5273 10.0098 -21.2402 C 10.0098 -26.4648 13.5254 -30.4688 19.3848 -32.1777 C 20.6543 -32.5195 21.0449 -33.0078 21.1426 -34.1797 C 21.9238 -45.3613 30.957 -54.1992 41.3574 -54.1992 C 50.293 -54.1992 56.6406 -48.9258 60.2539 -41.748 C 60.791 -40.625 61.4258 -40.2832 62.7441 -40.2832 C 72.4609 -40.2832 79.248 -33.6914 79.248 -25.5371 C 79.248 -17.4316 72.5098 -10.8398 63.8184 -10.8398 Z M 104.932 -43.1152 L 115.283 -43.1152 C 116.211 -43.1152 116.895 -43.8477 116.943 -44.7266 C 116.992 -45.6055 116.211 -46.3379 115.283 -46.3379 L 104.932 -46.3379 C 104.053 -46.3379 103.32 -45.6055 103.32 -44.7266 C 103.32 -43.8477 104.053 -43.1152 104.932 -43.1152 Z M 103.369 -17.3828 C 104.053 -16.6992 105.029 -16.748 105.664 -17.3828 C 106.299 -18.0176 106.348 -19.043 105.664 -19.6777 L 98.3398 -27.002 C 97.7051 -27.5879 96.6797 -27.6367 96.0449 -27.002 C 95.4102 -26.3672 95.4102 -25.3418 96.0449 -24.707 Z"/>
  </g>
  <g id="Ultralight-S" transform="matrix(1 0 0 1 498.017 696)">
   <path d="M 78.3691 -70.166 C 78.9551 -70.166 79.4434 -70.6543 79.4434 -71.1914 L 79.4434 -82.3242 C 79.4434 -82.9102 78.9551 -83.3496 78.3691 -83.3496 C 77.7832 -83.3496 77.2949 -82.9102 77.2949 -82.3242 L 77.2949 -71.1914 C 77.2949 -70.6543 77.7832 -70.166 78.3691 -70.166 Z M 59.2285 -62.793 C 59.6191 -62.4023 60.3027 -62.4023 60.6934 -62.793 C 61.084 -63.1836 61.084 -63.8672 60.6934 -64.2578 L 52.832 -72.1191 C 52.3926 -72.5586 51.7578 -72.5586 51.3672 -72.1191 C 50.9766 -71.7285 50.9277 -71.1426 51.3672 -70.7031 Z M 96.0449 -62.793 C 96.4355 -62.4023 97.1191 -62.4023 97.5098 -62.793 L 105.371 -70.7031 C 105.811 -71.1426 105.762 -71.7285 105.371 -72.1191 C 104.98 -72.5586 104.346 -72.5586 103.906 -72.1191 L 96.0449 -64.2578 C 95.6543 -63.8672 95.6543 -63.1836 96.0449 -62.793 Z M 21.4355 -8.25195 L 63.4766 -8.25195 C 73.7793 -8.25195 81.8359 -16.0156 81.8359 -25.7812 C 81.8359 -26.3672 81.7871 -26.9043 81.7383 -27.4414 C 90.1855 -29.541 96.1914 -36.6211 96.1914 -45.1172 C 96.1914 -55.0781 88.2812 -63.0371 78.3691 -63.0371 C 68.9941 -63.0371 61.377 -55.8594 60.5957 -46.6309 C 56.1523 -53.125 49.6094 -57.2754 41.0645 -57.2754 C 29.1016 -57.2754 19.2383 -47.4609 18.1641 -35.0098 C 11.8652 -33.3496 6.83594 -28.4668 6.83594 -21.4355 C 6.83594 -14.209 12.3047 -8.25195 21.4355 -8.25195 Z M 62.6465 -45.1172 C 62.6465 -53.9062 69.5801 -60.8887 78.3691 -60.8887 C 87.1582 -60.8887 94.0918 -53.9062 94.0918 -45.1172 C 94.0918 -37.6953 88.8672 -31.4941 81.3965 -29.541 C 79.6387 -37.4023 72.2168 -43.0176 62.793 -43.0664 C 62.7441 -43.75 62.6465 -44.4336 62.6465 -45.1172 Z M 21.4355 -10.3027 C 13.4277 -10.3027 8.88672 -15.332 8.88672 -21.4355 C 8.88672 -27.0996 12.793 -31.25 18.7988 -33.0566 C 19.8242 -33.3496 20.1172 -33.7402 20.166 -34.5703 C 20.9473 -45.8984 30.3711 -55.1758 41.0645 -55.1758 C 50.6348 -55.1758 57.1777 -49.4629 60.791 -42.2852 C 61.2793 -41.4062 61.7676 -41.0645 62.8906 -41.0645 C 72.5098 -41.0645 79.7852 -34.2773 79.7852 -25.6836 C 79.7852 -17.2363 72.6074 -10.3027 63.4766 -10.3027 Z M 104.346 -44.0918 L 115.479 -44.0918 C 116.113 -44.0918 116.504 -44.5801 116.553 -45.1172 C 116.602 -45.7031 116.113 -46.1426 115.479 -46.1426 L 104.346 -46.1426 C 103.76 -46.1426 103.32 -45.7031 103.32 -45.1172 C 103.32 -44.5801 103.76 -44.0918 104.346 -44.0918 Z M 103.906 -18.0664 C 104.346 -17.627 104.98 -17.6758 105.371 -18.0664 C 105.762 -18.457 105.811 -19.0918 105.371 -19.5312 L 97.5098 -27.3926 C 97.1191 -27.7832 96.4355 -27.7832 96.0449 -27.3926 C 95.6543 -27.002 95.6543 -26.3184 96.0449 -25.9277 Z"/>
  </g>
 </g>
</svg>
