<?xml version="1.0" encoding="UTF-8"?>
<!--Generator: Apple Native CoreSVG 123-->
<!DOCTYPE svg
PUBLIC "-//W3C//DTD SVG 1.1//EN"
       "http://www.w3.org/Graphics/SVG/1.1/DTD/svg11.dtd">
<svg version="1.1" xmlns="http://www.w3.org/2000/svg" xmlns:xlink="http://www.w3.org/1999/xlink" width="3300" height="2200">
 <!--glyph: "uni1001C4.medium", point size: 100.000000, font version: "Version 15.0d7e11", template writer version: "5"-->
 <g id="Notes">
  <rect height="2200" id="artboard" style="fill:white;opacity:1" width="3300" x="0" y="0"/>
  <line id="" style="fill:none;stroke:black;opacity:1;stroke-width:0.5;" x1="263" x2="3036" y1="292" y2="292"/>
  <text style="stroke:none;fill:black;font-family:-apple-system,&quot;SF Pro Display&quot;,&quot;SF Pro Text&quot;,Helvetica,sans-serif;font-weight:bold;" transform="matrix(1 0 0 1 263 322)">Weight/Scale Variations</text>
  <text style="stroke:none;fill:black;font-family:-apple-system,&quot;SF Pro Display&quot;,&quot;SF Pro Text&quot;,Helvetica,sans-serif;text-anchor:middle;" transform="matrix(1 0 0 1 559.711 322)">Ultralight</text>
  <text style="stroke:none;fill:black;font-family:-apple-system,&quot;SF Pro Display&quot;,&quot;SF Pro Text&quot;,Helvetica,sans-serif;text-anchor:middle;" transform="matrix(1 0 0 1 856.422 322)">Thin</text>
  <text style="stroke:none;fill:black;font-family:-apple-system,&quot;SF Pro Display&quot;,&quot;SF Pro Text&quot;,Helvetica,sans-serif;text-anchor:middle;" transform="matrix(1 0 0 1 1153.13 322)">Light</text>
  <text style="stroke:none;fill:black;font-family:-apple-system,&quot;SF Pro Display&quot;,&quot;SF Pro Text&quot;,Helvetica,sans-serif;text-anchor:middle;" transform="matrix(1 0 0 1 1449.84 322)">Regular</text>
  <text style="stroke:none;fill:black;font-family:-apple-system,&quot;SF Pro Display&quot;,&quot;SF Pro Text&quot;,Helvetica,sans-serif;text-anchor:middle;" transform="matrix(1 0 0 1 1746.56 322)">Medium</text>
  <text style="stroke:none;fill:black;font-family:-apple-system,&quot;SF Pro Display&quot;,&quot;SF Pro Text&quot;,Helvetica,sans-serif;text-anchor:middle;" transform="matrix(1 0 0 1 2043.27 322)">Semibold</text>
  <text style="stroke:none;fill:black;font-family:-apple-system,&quot;SF Pro Display&quot;,&quot;SF Pro Text&quot;,Helvetica,sans-serif;text-anchor:middle;" transform="matrix(1 0 0 1 2339.98 322)">Bold</text>
  <text style="stroke:none;fill:black;font-family:-apple-system,&quot;SF Pro Display&quot;,&quot;SF Pro Text&quot;,Helvetica,sans-serif;text-anchor:middle;" transform="matrix(1 0 0 1 2636.69 322)">Heavy</text>
  <text style="stroke:none;fill:black;font-family:-apple-system,&quot;SF Pro Display&quot;,&quot;SF Pro Text&quot;,Helvetica,sans-serif;text-anchor:middle;" transform="matrix(1 0 0 1 2933.4 322)">Black</text>
  <line id="" style="fill:none;stroke:black;opacity:1;stroke-width:0.5;" x1="263" x2="3036" y1="1903" y2="1903"/>
  <g id="" transform="matrix(1 0 0 1 263 1933)">
   <path d="M 9.24805 0.830078 C 13.5547 0.830078 17.1387 -2.74414 17.1387 -7.05078 C 17.1387 -11.3574 13.5449 -14.9316 9.23828 -14.9316 C 4.94141 -14.9316 1.36719 -11.3574 1.36719 -7.05078 C 1.36719 -2.74414 4.95117 0.830078 9.24805 0.830078 Z M 9.24805 -0.654297 C 5.70312 -0.654297 2.87109 -3.49609 2.87109 -7.05078 C 2.87109 -10.6055 5.69336 -13.4473 9.23828 -13.4473 C 12.793 -13.4473 15.6348 -10.6055 15.6445 -7.05078 C 15.6543 -3.49609 12.8027 -0.654297 9.24805 -0.654297 Z M 9.22852 -3.42773 C 9.69727 -3.42773 9.9707 -3.74023 9.9707 -4.25781 L 9.9707 -6.31836 L 12.1973 -6.31836 C 12.6953 -6.31836 13.0371 -6.57227 13.0371 -7.04102 C 13.0371 -7.51953 12.7148 -7.7832 12.1973 -7.7832 L 9.9707 -7.7832 L 9.9707 -10.0098 C 9.9707 -10.5273 9.69727 -10.8496 9.22852 -10.8496 C 8.75977 -10.8496 8.50586 -10.5078 8.50586 -10.0098 L 8.50586 -7.7832 L 6.29883 -7.7832 C 5.78125 -7.7832 5.44922 -7.51953 5.44922 -7.04102 C 5.44922 -6.57227 5.80078 -6.31836 6.29883 -6.31836 L 8.50586 -6.31836 L 8.50586 -4.25781 C 8.50586 -3.75977 8.75977 -3.42773 9.22852 -3.42773 Z"/>
  </g>
  <g id="" transform="matrix(1 0 0 1 281.506 1933)">
   <path d="M 11.709 2.91016 C 17.1582 2.91016 21.6699 -1.60156 21.6699 -7.05078 C 21.6699 -12.4902 17.1484 -17.0117 11.6992 -17.0117 C 6.25977 -17.0117 1.74805 -12.4902 1.74805 -7.05078 C 1.74805 -1.60156 6.26953 2.91016 11.709 2.91016 Z M 11.709 1.25 C 7.09961 1.25 3.41797 -2.44141 3.41797 -7.05078 C 3.41797 -11.6504 7.08984 -15.3516 11.6992 -15.3516 C 16.3086 -15.3516 20 -11.6504 20.0098 -7.05078 C 20.0195 -2.44141 16.3184 1.25 11.709 1.25 Z M 11.6895 -2.41211 C 12.207 -2.41211 12.5195 -2.77344 12.5195 -3.33984 L 12.5195 -6.23047 L 15.5762 -6.23047 C 16.123 -6.23047 16.5039 -6.51367 16.5039 -7.03125 C 16.5039 -7.55859 16.1426 -7.86133 15.5762 -7.86133 L 12.5195 -7.86133 L 12.5195 -10.9277 C 12.5195 -11.5039 12.207 -11.8555 11.6895 -11.8555 C 11.1719 -11.8555 10.8789 -11.4844 10.8789 -10.9277 L 10.8789 -7.86133 L 7.83203 -7.86133 C 7.26562 -7.86133 6.89453 -7.55859 6.89453 -7.03125 C 6.89453 -6.51367 7.28516 -6.23047 7.83203 -6.23047 L 10.8789 -6.23047 L 10.8789 -3.33984 C 10.8789 -2.79297 11.1719 -2.41211 11.6895 -2.41211 Z"/>
  </g>
  <g id="" transform="matrix(1 0 0 1 304.924 1933)">
   <path d="M 14.9707 5.67383 C 21.9336 5.67383 27.6953 -0.078125 27.6953 -7.04102 C 27.6953 -14.0039 21.9238 -19.7559 14.9609 -19.7559 C 8.00781 -19.7559 2.25586 -14.0039 2.25586 -7.04102 C 2.25586 -0.078125 8.01758 5.67383 14.9707 5.67383 Z M 14.9707 3.85742 C 8.93555 3.85742 4.08203 -1.00586 4.08203 -7.04102 C 4.08203 -13.0762 8.92578 -17.9395 14.9609 -17.9395 C 21.0059 -17.9395 25.8594 -13.0762 25.8691 -7.04102 C 25.8789 -1.00586 21.0156 3.85742 14.9707 3.85742 Z M 14.9512 -1.06445 C 15.5176 -1.06445 15.8691 -1.45508 15.8691 -2.06055 L 15.8691 -6.13281 L 20.1074 -6.13281 C 20.6934 -6.13281 21.1133 -6.46484 21.1133 -7.02148 C 21.1133 -7.59766 20.7227 -7.93945 20.1074 -7.93945 L 15.8691 -7.93945 L 15.8691 -12.1875 C 15.8691 -12.8027 15.5176 -13.1934 14.9512 -13.1934 C 14.3848 -13.1934 14.0625 -12.7832 14.0625 -12.1875 L 14.0625 -7.93945 L 9.83398 -7.93945 C 9.21875 -7.93945 8.80859 -7.59766 8.80859 -7.02148 C 8.80859 -6.46484 9.23828 -6.13281 9.83398 -6.13281 L 14.0625 -6.13281 L 14.0625 -2.06055 C 14.0625 -1.47461 14.3848 -1.06445 14.9512 -1.06445 Z"/>
  </g>
  <text style="stroke:none;fill:black;font-family:-apple-system,&quot;SF Pro Display&quot;,&quot;SF Pro Text&quot;,Helvetica,sans-serif;font-weight:bold;" transform="matrix(1 0 0 1 263 1953)">Design Variations</text>
  <text style="stroke:none;fill:black;font-family:-apple-system,&quot;SF Pro Display&quot;,&quot;SF Pro Text&quot;,Helvetica,sans-serif;" transform="matrix(1 0 0 1 263 1971)">Symbols are supported in up to nine weights and three scales.</text>
  <text style="stroke:none;fill:black;font-family:-apple-system,&quot;SF Pro Display&quot;,&quot;SF Pro Text&quot;,Helvetica,sans-serif;" transform="matrix(1 0 0 1 263 1989)">For optimal layout with text and other symbols, vertically align</text>
  <text style="stroke:none;fill:black;font-family:-apple-system,&quot;SF Pro Display&quot;,&quot;SF Pro Text&quot;,Helvetica,sans-serif;" transform="matrix(1 0 0 1 263 2007)">symbols with the adjacent text.</text>
  <rect height="14" id="" style="fill:#00AEEF;stroke:none;opacity:0.4;" width="3" x="776" y="1919"/>
  <g id="" transform="matrix(1 0 0 1 779 1933)">
   <path d="M 10.5273 0 L 12.373 0 L 7.17773 -14.0918 L 5.43945 -14.0918 L 0.244141 0 L 2.08984 0 L 3.50586 -4.0332 L 9.11133 -4.0332 Z M 6.2793 -11.9531 L 6.33789 -11.9531 L 8.59375 -5.52734 L 4.02344 -5.52734 Z"/>
  </g>
  <rect height="14" id="" style="fill:#00AEEF;stroke:none;opacity:0.4;" width="3" x="791.617" y="1919"/>
  <text style="stroke:none;fill:black;font-family:-apple-system,&quot;SF Pro Display&quot;,&quot;SF Pro Text&quot;,Helvetica,sans-serif;font-weight:bold;" transform="matrix(1 0 0 1 776 1953)">Margins</text>
  <text style="stroke:none;fill:black;font-family:-apple-system,&quot;SF Pro Display&quot;,&quot;SF Pro Text&quot;,Helvetica,sans-serif;" transform="matrix(1 0 0 1 776 1971)">Leading and trailing margins on the left and right side of each symbol</text>
  <text style="stroke:none;fill:black;font-family:-apple-system,&quot;SF Pro Display&quot;,&quot;SF Pro Text&quot;,Helvetica,sans-serif;" transform="matrix(1 0 0 1 776 1989)">can be adjusted by modifying the width of the blue rectangles.</text>
  <text style="stroke:none;fill:black;font-family:-apple-system,&quot;SF Pro Display&quot;,&quot;SF Pro Text&quot;,Helvetica,sans-serif;" transform="matrix(1 0 0 1 776 2007)">Modifications are automatically applied proportionally to all</text>
  <text style="stroke:none;fill:black;font-family:-apple-system,&quot;SF Pro Display&quot;,&quot;SF Pro Text&quot;,Helvetica,sans-serif;" transform="matrix(1 0 0 1 776 2025)">scales and weights.</text>
  <g id="" transform="matrix(1 0 0 1 1289 1933)">
   <path d="M 2.83203 3.11523 L 4.375 4.6582 C 5.22461 5.48828 6.19141 5.41992 7.06055 4.46289 L 17.2754 -6.66016 C 17.7051 -6.36719 18.0957 -6.37695 18.5645 -6.47461 L 19.6094 -6.68945 L 20.3027 -5.99609 L 20.2539 -5.47852 C 20.1855 -4.95117 20.3516 -4.53125 20.8496 -4.0332 L 21.6602 -3.22266 C 22.168 -2.71484 22.8223 -2.68555 23.3008 -3.16406 L 26.5527 -6.41602 C 27.0312 -6.89453 27.0117 -7.54883 26.5039 -8.05664 L 25.6836 -8.87695 C 25.1855 -9.375 24.7754 -9.55078 24.2383 -9.47266 L 23.7109 -9.41406 L 23.0566 -10.0781 L 23.3398 -11.2207 C 23.4863 -11.7871 23.3398 -12.2559 22.7148 -12.8613 L 20.3027 -15.2539 C 16.7578 -18.7793 12.2266 -18.6719 9.11133 -15.5371 C 8.69141 -15.1074 8.64258 -14.5215 8.91602 -14.0918 C 9.15039 -13.7207 9.62891 -13.4961 10.2734 -13.6621 C 11.7871 -14.043 13.3008 -13.9258 14.7852 -12.9199 L 14.1602 -11.3379 C 13.9258 -10.752 13.9453 -10.2734 14.1797 -9.83398 L 3.01758 0.439453 C 2.08008 1.30859 1.97266 2.25586 2.83203 3.11523 Z M 10.6738 -15.1465 C 13.3398 -17.1387 16.6504 -16.8262 19.0527 -14.4141 L 21.6797 -11.8066 C 21.9141 -11.5723 21.9434 -11.3867 21.8848 -11.0938 L 21.5039 -9.53125 L 23.0762 -7.95898 L 24.043 -8.04688 C 24.3262 -8.07617 24.4141 -8.05664 24.6387 -7.83203 L 25.2637 -7.20703 L 22.5098 -4.46289 L 21.8848 -5.07812 C 21.6602 -5.30273 21.6406 -5.40039 21.6699 -5.68359 L 21.7578 -6.64062 L 20.1953 -8.20312 L 18.5742 -7.89062 C 18.291 -7.83203 18.1445 -7.83203 17.9102 -8.07617 L 15.7324 -10.2539 C 15.5078 -10.4883 15.4785 -10.625 15.6055 -10.9473 L 16.5527 -13.2227 C 14.9512 -14.7559 12.8418 -15.6055 10.8008 -14.9512 C 10.7129 -14.9219 10.6445 -14.9414 10.6152 -14.9805 C 10.5859 -15.0293 10.5859 -15.0781 10.6738 -15.1465 Z M 4.10156 2.41211 C 3.61328 1.91406 3.78906 1.61133 4.12109 1.30859 L 15.0781 -8.80859 L 16.3086 -7.57812 L 6.15234 3.34961 C 5.84961 3.68164 5.46875 3.7793 5.06836 3.37891 Z"/>
  </g>
  <text style="stroke:none;fill:black;font-family:-apple-system,&quot;SF Pro Display&quot;,&quot;SF Pro Text&quot;,Helvetica,sans-serif;font-weight:bold;" transform="matrix(1 0 0 1 1289 1953)">Exporting</text>
  <text style="stroke:none;fill:black;font-family:-apple-system,&quot;SF Pro Display&quot;,&quot;SF Pro Text&quot;,Helvetica,sans-serif;" transform="matrix(1 0 0 1 1289 1971)">Symbols should be outlined when exporting to ensure the</text>
  <text style="stroke:none;fill:black;font-family:-apple-system,&quot;SF Pro Display&quot;,&quot;SF Pro Text&quot;,Helvetica,sans-serif;" transform="matrix(1 0 0 1 1289 1989)">design is preserved when submitting to Xcode.</text>
  <text id="template-version" style="stroke:none;fill:black;font-family:-apple-system,&quot;SF Pro Display&quot;,&quot;SF Pro Text&quot;,Helvetica,sans-serif;text-anchor:end;" transform="matrix(1 0 0 1 3036 1933)">Template v.1.0</text>
  <text style="stroke:none;fill:black;font-family:-apple-system,&quot;SF Pro Display&quot;,&quot;SF Pro Text&quot;,Helvetica,sans-serif;text-anchor:end;" transform="matrix(1 0 0 1 3036 1951)">Generated from cloud.drizzle</text>
  <text style="stroke:none;fill:black;font-family:-apple-system,&quot;SF Pro Display&quot;,&quot;SF Pro Text&quot;,Helvetica,sans-serif;text-anchor:end;" transform="matrix(1 0 0 1 3036 1969)">Typeset at 100 points</text>
  <text style="stroke:none;fill:black;font-family:-apple-system,&quot;SF Pro Display&quot;,&quot;SF Pro Text&quot;,Helvetica,sans-serif;" transform="matrix(1 0 0 1 263 726)">Small</text>
  <text style="stroke:none;fill:black;font-family:-apple-system,&quot;SF Pro Display&quot;,&quot;SF Pro Text&quot;,Helvetica,sans-serif;" transform="matrix(1 0 0 1 263 1156)">Medium</text>
  <text style="stroke:none;fill:black;font-family:-apple-system,&quot;SF Pro Display&quot;,&quot;SF Pro Text&quot;,Helvetica,sans-serif;" transform="matrix(1 0 0 1 263 1586)">Large</text>
 </g>
 <g id="Guides">
  <g id="H-reference" style="fill:#27AAE1;stroke:none;" transform="matrix(1 0 0 1 339 696)">
   <path d="M 54.9316 0 L 57.666 0 L 30.5664 -70.459 L 28.0762 -70.459 L 0.976562 0 L 3.66211 0 L 12.9395 -24.4629 L 45.7031 -24.4629 Z M 29.1992 -67.0898 L 29.4434 -67.0898 L 44.8242 -26.709 L 13.8184 -26.709 Z"/>
  </g>
  <line id="Baseline-S" style="fill:none;stroke:#27AAE1;opacity:1;stroke-width:0.577;" x1="263" x2="3036" y1="696" y2="696"/>
  <line id="Capline-S" style="fill:none;stroke:#27AAE1;opacity:1;stroke-width:0.577;" x1="263" x2="3036" y1="625.541" y2="625.541"/>
  <g id="H-reference" style="fill:#27AAE1;stroke:none;" transform="matrix(1 0 0 1 339 1126)">
   <path d="M 54.9316 0 L 57.666 0 L 30.5664 -70.459 L 28.0762 -70.459 L 0.976562 0 L 3.66211 0 L 12.9395 -24.4629 L 45.7031 -24.4629 Z M 29.1992 -67.0898 L 29.4434 -67.0898 L 44.8242 -26.709 L 13.8184 -26.709 Z"/>
  </g>
  <line id="Baseline-M" style="fill:none;stroke:#27AAE1;opacity:1;stroke-width:0.577;" x1="263" x2="3036" y1="1126" y2="1126"/>
  <line id="Capline-M" style="fill:none;stroke:#27AAE1;opacity:1;stroke-width:0.577;" x1="263" x2="3036" y1="1055.54" y2="1055.54"/>
  <g id="H-reference" style="fill:#27AAE1;stroke:none;" transform="matrix(1 0 0 1 339 1556)">
   <path d="M 54.9316 0 L 57.666 0 L 30.5664 -70.459 L 28.0762 -70.459 L 0.976562 0 L 3.66211 0 L 12.9395 -24.4629 L 45.7031 -24.4629 Z M 29.1992 -67.0898 L 29.4434 -67.0898 L 44.8242 -26.709 L 13.8184 -26.709 Z"/>
  </g>
  <line id="Baseline-L" style="fill:none;stroke:#27AAE1;opacity:1;stroke-width:0.577;" x1="263" x2="3036" y1="1556" y2="1556"/>
  <line id="Capline-L" style="fill:none;stroke:#27AAE1;opacity:1;stroke-width:0.577;" x1="263" x2="3036" y1="1485.54" y2="1485.54"/>
  <rect height="119.336" id="left-margin" style="fill:#00AEEF;stroke:none;opacity:0.4;" width="8.74023" x="1385.34" y="1030.79"/>
  <rect height="119.336" id="right-margin" style="fill:#00AEEF;stroke:none;opacity:0.4;" width="8.74023" x="1505.61" y="1030.79"/>
 </g>
 <g id="Symbols">
  <g id="Black-L" transform="matrix(1 0 0 1 2845.61 1556)">
   <path d="M 45.1172 0.244141 L 124.561 0.244141 C 147.168 0.244141 164.307 -16.9922 164.307 -38.8672 C 164.307 -61.0352 147.217 -78.2227 124.512 -78.2227 C 117.236 -92.2363 103.613 -103.418 81.543 -103.418 C 55.8105 -103.418 35.9375 -84.8633 32.5684 -61.1816 C 20.4102 -56.9336 11.2793 -46.2402 11.2793 -31.6406 C 11.2793 -13.6719 24.7559 0.244141 45.1172 0.244141 Z M 45.6543 -17.7734 C 34.668 -17.7734 29.2969 -23.4375 29.2969 -31.2988 C 29.2969 -38.3301 33.6426 -43.5547 43.5547 -46.1426 C 47.8027 -47.2656 48.9258 -49.1699 49.5605 -53.4668 C 52.5391 -74.3652 65.3809 -85.4004 81.543 -85.4004 C 93.6035 -85.4004 103.809 -78.5156 110.742 -65.4785 C 112.598 -61.9629 114.6 -60.6934 118.994 -60.6934 C 137.842 -60.6934 146.289 -50.8789 146.289 -38.5254 C 146.289 -26.8066 137.549 -17.7734 124.219 -17.7734 Z M 97.6562 32.1289 L 105.42 18.75 C 106.885 16.2109 106.201 12.9883 103.564 11.4746 C 100.928 9.96094 97.998 10.8887 96.4355 13.623 L 88.6719 27.0508 C 87.207 29.541 87.793 32.666 90.4785 34.1797 C 93.1152 35.6934 96.2402 34.6191 97.6562 32.1289 Z M 47.5098 32.1289 L 55.2734 18.75 C 56.7383 16.2109 56.0547 13.0371 53.418 11.4746 C 50.7324 9.96094 47.8516 10.9375 46.2891 13.623 L 38.4766 27.0508 C 37.0605 29.541 37.6465 32.7148 40.2832 34.2285 C 42.9199 35.6934 46.0449 34.6191 47.5098 32.1289 Z M 117.578 49.7559 L 125.342 36.377 C 126.807 33.8867 126.123 30.6641 123.486 29.1504 C 120.85 27.5879 117.92 28.5645 116.357 31.25 L 108.545 44.6777 C 107.129 47.168 107.715 50.3418 110.352 51.8555 C 113.037 53.3691 116.113 52.2949 117.578 49.7559 Z M 67.4316 49.8047 L 75.1465 36.4258 C 76.6113 33.8867 75.9766 30.6641 73.3398 29.1504 C 70.6543 27.6367 67.7734 28.6133 66.2109 31.2988 L 58.3984 44.7266 C 56.9824 47.2168 57.5684 50.3418 60.2051 51.8555 C 62.8418 53.3691 65.9668 52.2949 67.4316 49.8047 Z"/>
  </g>
  <g id="Heavy-L" transform="matrix(1 0 0 1 2550.04 1556)">
   <path d="M 43.9941 -1.17188 L 123.242 -1.17188 C 145.264 -1.17188 162.012 -17.9688 162.012 -39.209 C 162.012 -60.791 145.117 -77.2949 122.803 -77.2949 C 115.332 -91.748 101.562 -102.637 80.3711 -102.637 C 55.1758 -102.637 35.4492 -84.1309 32.373 -60.498 C 20.3613 -56.4941 11.2793 -45.9961 11.2793 -31.7383 C 11.2793 -14.5508 24.1211 -1.17188 43.9941 -1.17188 Z M 44.3848 -16.9434 C 32.8125 -16.9434 27.0508 -23.0957 27.0508 -31.3965 C 27.0508 -38.7207 31.5918 -44.4336 41.6992 -47.0703 C 45.7031 -48.0957 46.8262 -49.9023 47.3633 -53.9062 C 49.9512 -74.8047 63.5742 -86.8652 80.3711 -86.8652 C 93.0664 -86.8652 103.564 -79.6875 110.498 -66.3574 C 112.207 -63.0371 114.16 -61.8652 118.311 -61.8652 C 137.109 -61.8652 146.191 -51.6113 146.191 -38.8672 C 146.191 -26.5625 136.816 -16.9434 123.047 -16.9434 Z M 96.0449 30.2246 L 104.004 16.4551 C 105.371 14.1602 104.736 11.2305 102.344 9.81445 C 99.9023 8.44727 97.2656 9.32617 95.8008 11.7676 L 87.793 25.5859 C 86.4746 27.8809 87.0117 30.7129 89.4531 32.1289 C 91.8457 33.4961 94.7266 32.5195 96.0449 30.2246 Z M 45.8984 30.2734 L 53.8574 16.5039 C 55.2246 14.1602 54.5898 11.2793 52.1973 9.86328 C 49.7559 8.49609 47.0703 9.32617 45.6543 11.8164 L 37.6465 25.6348 C 36.3281 27.8809 36.8652 30.7617 39.3066 32.1777 C 41.6992 33.5449 44.5801 32.5684 45.8984 30.2734 Z M 115.918 47.9004 L 123.877 34.1309 C 125.244 31.7871 124.609 28.9062 122.217 27.4902 C 119.775 26.123 117.139 27.002 115.674 29.4434 L 107.666 43.2617 C 106.348 45.5566 106.934 48.3887 109.326 49.8047 C 111.768 51.1719 114.6 50.1953 115.918 47.9004 Z M 65.7715 47.9492 L 73.7305 34.1797 C 75.0977 31.8359 74.4629 28.9062 72.0703 27.5391 C 69.6289 26.1719 66.9922 27.002 65.5273 29.4922 L 57.5195 43.3105 C 56.2012 45.5566 56.7383 48.4375 59.1797 49.8047 C 61.5723 51.1719 64.4531 50.2441 65.7715 47.9492 Z"/>
  </g>
  <g id="Bold-L" transform="matrix(1 0 0 1 2254.63 1556)">
   <path d="M 42.7246 -2.68555 L 121.68 -2.68555 C 143.164 -2.68555 159.424 -18.9941 159.424 -39.5508 C 159.424 -60.4492 142.725 -76.2695 120.85 -76.2695 C 113.232 -91.1621 99.2676 -101.807 79.0039 -101.807 C 54.4434 -101.807 34.8145 -83.3008 32.1289 -59.7168 C 20.3125 -55.957 11.2793 -45.752 11.2793 -31.8359 C 11.2793 -15.5273 23.3398 -2.68555 42.7246 -2.68555 Z M 42.9688 -16.0156 C 30.7129 -16.0156 24.5605 -22.7051 24.5605 -31.543 C 24.5605 -39.209 29.2969 -45.3613 39.6973 -48.0957 C 43.3594 -49.0723 44.4824 -50.7324 44.9219 -54.4434 C 47.1191 -75.293 61.5723 -88.5254 79.0039 -88.5254 C 92.5293 -88.5254 103.369 -80.957 110.205 -67.3828 C 111.816 -64.2578 113.672 -63.1348 117.529 -63.1348 C 136.23 -63.1348 146.094 -52.4414 146.094 -39.209 C 146.094 -26.2695 135.938 -16.0156 121.777 -16.0156 Z M 94.2383 28.125 L 102.441 13.9648 C 103.662 11.8164 103.076 9.22852 100.928 8.00781 C 98.7793 6.78711 96.3867 7.51953 95.0684 9.7168 L 86.8652 23.9746 C 85.6445 26.0254 86.1816 28.5645 88.3301 29.834 C 90.4785 31.0059 93.0176 30.2246 94.2383 28.125 Z M 44.0918 28.1738 L 52.2949 13.9648 C 53.5156 11.8652 52.9297 9.27734 50.7812 8.05664 C 48.6328 6.78711 46.2402 7.56836 44.9219 9.76562 L 36.7188 24.0234 C 35.498 26.0742 36.0352 28.6133 38.1836 29.834 C 40.332 31.0547 42.8711 30.2246 44.0918 28.1738 Z M 114.062 45.8008 L 122.266 31.6406 C 123.535 29.4922 122.9 26.9531 120.801 25.6836 C 118.604 24.4629 116.211 25.1953 114.941 27.3926 L 106.689 41.6504 C 105.518 43.7012 106.006 46.2402 108.203 47.5098 C 110.352 48.7305 112.891 47.9004 114.062 45.8008 Z M 63.916 45.8496 L 72.1191 31.6895 C 73.3887 29.541 72.7539 26.9531 70.6543 25.7324 C 68.457 24.5117 66.0645 25.2441 64.7949 27.4414 L 56.543 41.6992 C 55.3711 43.75 55.8594 46.2891 58.0566 47.5586 C 60.2051 48.7305 62.7441 47.9492 63.916 45.8496 Z"/>
  </g>
  <g id="Semibold-L" transform="matrix(1 0 0 1 1958.82 1556)">
   <path d="M 41.8457 -3.75977 L 120.654 -3.75977 C 141.699 -3.75977 157.617 -19.7266 157.617 -39.7949 C 157.617 -60.2539 141.113 -75.5859 119.482 -75.5859 C 111.768 -90.7715 97.7051 -101.27 78.0762 -101.27 C 53.9062 -101.27 34.4238 -82.7148 31.9824 -59.1797 C 20.2637 -55.6152 11.2793 -45.6055 11.2793 -31.8848 C 11.2793 -16.2598 22.8516 -3.75977 41.8457 -3.75977 Z M 41.9922 -15.332 C 29.2969 -15.332 22.8516 -22.4121 22.8516 -31.6406 C 22.8516 -39.502 27.6855 -46.0449 38.2812 -48.8281 C 41.748 -49.7559 42.8711 -51.3184 43.2129 -54.834 C 45.1172 -75.6348 60.1562 -89.6484 78.0762 -89.6484 C 92.1387 -89.6484 103.223 -81.8359 110.059 -68.1152 C 111.572 -65.0879 113.33 -64.0137 116.992 -64.0137 C 135.645 -64.0137 146.045 -53.0273 146.045 -39.4531 C 146.045 -26.0254 135.352 -15.332 120.898 -15.332 Z M 92.9688 26.6602 L 101.318 12.207 C 102.49 10.2051 101.953 7.91016 99.9512 6.73828 C 97.998 5.61523 95.8008 6.29883 94.5801 8.30078 L 86.1816 22.8516 C 85.0586 24.7559 85.5957 27.0508 87.5977 28.2227 C 89.5508 29.3457 91.8945 28.6133 92.9688 26.6602 Z M 42.8223 26.709 L 51.2207 12.2559 C 52.3926 10.2539 51.8066 7.91016 49.8535 6.78711 C 47.8516 5.66406 45.6543 6.29883 44.4336 8.34961 L 36.0352 22.9004 C 34.9609 24.8047 35.4492 27.0996 37.4512 28.2715 C 39.4043 29.3945 41.748 28.6621 42.8223 26.709 Z M 112.793 44.3359 L 121.143 29.8828 C 122.314 27.9297 121.777 25.5859 119.775 24.4141 C 117.822 23.291 115.625 23.9746 114.404 26.0254 L 106.006 40.5273 C 104.883 42.4316 105.42 44.7754 107.422 45.8984 C 109.375 47.0215 111.719 46.2891 112.793 44.3359 Z M 62.6465 44.3848 L 70.9961 29.9316 C 72.2168 27.9785 71.6309 25.6348 69.6777 24.4629 C 67.6758 23.3398 65.4785 24.0234 64.2578 26.0742 L 55.8594 40.5762 C 54.7363 42.4805 55.2734 44.8242 57.2754 45.9473 C 59.2285 47.0703 61.5723 46.3379 62.6465 44.3848 Z"/>
  </g>
  <g id="Medium-L" transform="matrix(1 0 0 1 1662.79 1556)">
   <path d="M 41.2109 -4.54102 L 119.873 -4.54102 C 140.625 -4.54102 156.25 -20.3125 156.25 -39.9414 C 156.25 -60.1074 139.844 -75.0488 118.457 -75.0488 C 110.693 -90.4785 96.4844 -100.83 77.3438 -100.83 C 53.5156 -100.83 34.1309 -82.2266 31.8359 -58.7891 C 20.2148 -55.3711 11.2793 -45.459 11.2793 -31.9824 C 11.2793 -16.748 22.4609 -4.54102 41.2109 -4.54102 Z M 41.2109 -14.8438 C 28.2227 -14.8438 21.582 -22.2168 21.582 -31.6895 C 21.582 -39.7461 26.5137 -46.5332 37.207 -49.3652 C 40.5273 -50.2441 41.6504 -51.7578 41.9434 -55.0781 C 43.6523 -75.8789 59.082 -90.5273 77.3438 -90.5273 C 91.8457 -90.5273 103.076 -82.4707 109.912 -68.6523 C 111.328 -65.7227 113.086 -64.6973 116.602 -64.6973 C 135.205 -64.6973 145.947 -53.4668 145.947 -39.6484 C 145.947 -25.8789 134.912 -14.8438 120.215 -14.8438 Z M 92.041 25.5371 L 100.537 10.8887 C 101.611 8.98438 101.074 6.83594 99.2676 5.76172 C 97.4121 4.73633 95.3613 5.32227 94.1895 7.27539 L 85.6934 22.0215 C 84.668 23.7793 85.1074 25.9277 87.0117 27.002 C 88.8184 28.0273 91.0156 27.3926 92.041 25.5371 Z M 41.8945 25.5859 L 50.3906 10.9375 C 51.5137 9.0332 50.9277 6.88477 49.1211 5.81055 C 47.2656 4.78516 45.2148 5.37109 44.0918 7.27539 L 35.5469 22.0703 C 34.5215 23.8281 35.0098 25.9766 36.8652 27.0508 C 38.6719 28.0762 40.8691 27.4414 41.8945 25.5859 Z M 111.865 43.2617 L 120.312 28.5645 C 121.436 26.709 120.85 24.5605 119.043 23.4863 C 117.188 22.4121 115.137 23.0469 114.014 24.9512 L 105.518 39.6973 C 104.443 41.5039 104.932 43.6523 106.787 44.7266 C 108.643 45.752 110.791 45.0684 111.865 43.2617 Z M 61.7188 43.3105 L 70.166 28.6133 C 71.2891 26.7578 70.752 24.6094 68.8965 23.5352 C 67.0898 22.4609 64.9902 23.0957 63.8672 25 L 55.3711 39.7461 C 54.2969 41.5527 54.7852 43.7012 56.6406 44.7754 C 58.4961 45.8008 60.6445 45.1172 61.7188 43.3105 Z"/>
  </g>
  <g id="Regular-L" transform="matrix(1 0 0 1 1366.96 1556)">
   <path d="M 40.3809 -5.61523 L 118.848 -5.61523 C 139.16 -5.61523 154.492 -20.9961 154.492 -40.1855 C 154.492 -59.9121 138.232 -74.3652 117.139 -74.3652 C 109.277 -90.0879 94.9219 -100.244 76.4648 -100.244 C 53.0273 -100.244 33.6914 -81.6895 31.6895 -58.252 C 20.166 -55.0293 11.2793 -45.2637 11.2793 -32.0312 C 11.2793 -17.4316 21.9238 -5.61523 40.3809 -5.61523 Z M 40.2344 -14.209 C 26.8066 -14.209 19.873 -21.9727 19.873 -31.7871 C 19.873 -40.0879 24.9023 -47.2168 35.791 -50.0977 C 38.916 -50.9277 40.0391 -52.3438 40.2832 -55.4688 C 41.6992 -76.2207 57.7148 -91.6504 76.4648 -91.6504 C 91.4551 -91.6504 102.93 -83.3496 109.717 -69.3359 C 111.084 -66.5527 112.744 -65.5762 116.064 -65.5762 C 134.619 -65.5762 145.898 -54.0039 145.898 -39.9414 C 145.898 -25.6836 134.326 -14.209 119.336 -14.209 Z M 90.8203 24.1211 L 99.4629 9.17969 C 100.488 7.42188 99.9512 5.51758 98.291 4.54102 C 96.6309 3.56445 94.7754 4.10156 93.7012 5.85938 L 85.0586 20.8984 C 84.082 22.5586 84.5215 24.4629 86.2305 25.4395 C 87.8906 26.3672 89.8438 25.7812 90.8203 24.1211 Z M 40.6738 24.1699 L 49.3164 9.22852 C 50.3418 7.4707 49.8047 5.56641 48.1445 4.58984 C 46.4844 3.61328 44.6289 4.15039 43.6035 5.9082 L 34.9121 20.9473 C 33.9355 22.6074 34.4238 24.5117 36.084 25.4883 C 37.7441 26.416 39.6973 25.8301 40.6738 24.1699 Z M 110.596 41.7969 L 119.238 26.8555 C 120.264 25.1465 119.727 23.1934 118.066 22.2168 C 116.406 21.2891 114.551 21.8262 113.477 23.584 L 104.834 38.623 C 103.857 40.2344 104.297 42.1875 106.006 43.1641 C 107.666 44.0918 109.619 43.5059 110.596 41.7969 Z M 60.4492 41.8457 L 69.0918 26.9043 C 70.1172 25.1953 69.5801 23.2422 67.9199 22.2656 C 66.2598 21.3379 64.4043 21.875 63.3789 23.6328 L 54.6875 38.6719 C 53.7109 40.2832 54.1992 42.2363 55.8594 43.2129 C 57.5195 44.1406 59.4727 43.5547 60.4492 41.8457 Z"/>
  </g>
  <g id="Light-L" transform="matrix(1 0 0 1 1070.71 1556)">
   <path d="M 39.5996 -6.73828 L 118.457 -6.73828 C 138.379 -6.73828 153.564 -21.7773 153.564 -40.5762 C 153.564 -59.8633 137.549 -74.0234 116.748 -74.0234 C 108.887 -89.9414 94.9219 -100.244 76.0742 -100.244 C 53.0273 -100.244 34.0332 -81.6895 32.0312 -58.252 C 20.4102 -55.0781 11.2793 -45.6055 11.2793 -32.4219 C 11.2793 -18.2617 21.6797 -6.73828 39.5996 -6.73828 Z M 39.5508 -13.2324 C 25.3906 -13.2324 17.8223 -21.7285 17.8223 -32.2266 C 17.8223 -41.5039 23.7793 -49.0723 34.8633 -52.002 C 37.5 -52.6855 38.3789 -53.8574 38.5742 -56.3477 C 39.8926 -77.3926 56.7383 -93.75 76.0742 -93.75 C 92.2852 -93.75 104.199 -84.668 110.986 -70.5566 C 112.109 -68.1641 113.525 -67.3828 116.357 -67.3828 C 134.766 -67.3828 147.021 -55.3223 147.021 -40.332 C 147.021 -25.3906 134.717 -13.2324 118.75 -13.2324 Z M 89.1113 23.3887 L 98.3398 7.4707 C 99.2188 6.00586 98.8281 4.44336 97.4609 3.66211 C 96.1914 2.92969 94.6777 3.32031 93.7988 4.83398 L 84.5215 20.8496 C 83.6914 22.2656 84.082 23.7793 85.4004 24.5605 C 86.7676 25.3418 88.3301 24.8535 89.1113 23.3887 Z M 38.9648 23.4375 L 48.1934 7.4707 C 49.0723 6.00586 48.6816 4.49219 47.3145 3.71094 C 45.9961 2.92969 44.5312 3.36914 43.6035 4.83398 L 34.375 20.8496 C 33.5449 22.2656 33.8867 23.8281 35.2539 24.6094 C 36.6211 25.3418 38.1836 24.9023 38.9648 23.4375 Z M 108.984 41.0645 L 118.213 25.1465 C 119.092 23.6816 118.701 22.1191 117.334 21.3379 C 116.064 20.6055 114.551 20.9961 113.672 22.5098 L 104.395 38.4766 C 103.564 39.8926 103.906 41.4551 105.273 42.2363 C 106.641 43.0176 108.203 42.5293 108.984 41.0645 Z M 58.8379 41.1133 L 68.0664 25.1465 C 68.9453 23.6816 68.5547 22.168 67.1875 21.3867 C 65.8691 20.6055 64.4043 21.0449 63.4766 22.5098 L 54.248 38.5254 C 53.418 39.9414 53.7598 41.5039 55.127 42.2852 C 56.4453 43.0176 58.0566 42.5781 58.8379 41.1133 Z"/>
  </g>
  <g id="Thin-L" transform="matrix(1 0 0 1 774.611 1556)">
   <path d="M 38.623 -8.20312 L 117.969 -8.20312 C 137.354 -8.20312 152.344 -22.8027 152.344 -41.0645 C 152.344 -59.7656 136.67 -73.5352 116.26 -73.5352 C 108.398 -89.7461 94.9219 -100.244 75.5859 -100.244 C 53.0273 -100.244 34.4727 -81.6895 32.5195 -58.252 C 20.752 -55.1758 11.2793 -45.9961 11.2793 -32.9102 C 11.2793 -19.3848 21.3379 -8.20312 38.623 -8.20312 Z M 38.623 -11.9629 C 23.5352 -11.9629 15.0391 -21.4355 15.0391 -32.8613 C 15.0391 -43.3594 22.2168 -51.5625 33.5938 -54.541 C 35.5957 -55.0781 36.2305 -55.8594 36.3281 -57.5684 C 37.5488 -79.0039 55.4688 -96.4844 75.5859 -96.4844 C 93.3594 -96.4844 105.811 -86.4258 112.646 -72.168 C 113.525 -70.3125 114.6 -69.7266 116.748 -69.7266 C 134.912 -69.7266 148.535 -57.0312 148.535 -40.918 C 148.535 -25 135.156 -11.9629 118.018 -11.9629 Z M 86.9141 22.4609 L 96.9238 5.22461 C 97.6074 4.10156 97.3145 3.07617 96.3867 2.49023 C 95.5566 2.05078 94.5312 2.29492 93.8477 3.4668 L 83.8379 20.752 C 83.2031 21.875 83.4473 22.8516 84.3262 23.4375 C 85.2539 23.9746 86.2793 23.584 86.9141 22.4609 Z M 36.7188 22.4609 L 46.7285 5.22461 C 47.4121 4.10156 47.168 3.07617 46.2402 2.53906 C 45.3613 2.05078 44.3848 2.34375 43.6523 3.4668 L 33.6426 20.752 C 33.0566 21.875 33.252 22.9004 34.1797 23.4375 C 35.1074 23.9746 36.1328 23.6328 36.7188 22.4609 Z M 106.885 40.0879 L 116.895 22.8516 C 117.578 21.6797 117.334 20.7031 116.406 20.1172 C 115.576 19.6777 114.551 19.9219 113.867 21.0938 L 103.809 38.3301 C 103.223 39.4531 103.418 40.4785 104.346 41.0645 C 105.273 41.6016 106.299 41.2109 106.885 40.0879 Z M 56.7383 40.0879 L 66.6992 22.8516 C 67.4316 21.7285 67.1387 20.7031 66.2109 20.166 C 65.3809 19.6777 64.3555 19.9707 63.6719 21.0938 L 53.6621 38.3789 C 53.0273 39.502 53.2227 40.5273 54.1504 41.0645 C 55.0781 41.6016 56.1035 41.2598 56.7383 40.0879 Z"/>
  </g>
  <g id="Ultralight-L" transform="matrix(1 0 0 1 478.217 1556)">
   <path d="M 38.1348 -8.93555 L 117.725 -8.93555 C 136.816 -8.93555 151.709 -23.291 151.709 -41.3574 C 151.709 -59.7168 136.182 -73.291 116.016 -73.291 C 108.154 -89.6484 94.9219 -100.244 75.3418 -100.244 C 53.0273 -100.244 34.7168 -81.6895 32.8125 -58.252 C 20.9473 -55.2246 11.2793 -46.2402 11.2793 -33.1543 C 11.2793 -19.9219 21.1426 -8.93555 38.1348 -8.93555 Z M 38.1348 -11.3281 C 22.5586 -11.3281 13.6719 -21.2891 13.6719 -33.1543 C 13.6719 -44.3359 21.4355 -52.832 32.9102 -55.8594 C 34.6191 -56.2988 35.1074 -56.9336 35.1562 -58.1543 C 36.377 -79.834 54.7852 -97.8516 75.3418 -97.8516 C 93.8965 -97.8516 106.641 -87.3535 113.525 -72.998 C 114.258 -71.4355 115.137 -70.8984 116.943 -70.8984 C 135.01 -70.8984 149.316 -57.9102 149.316 -41.2109 C 149.316 -24.8047 135.4 -11.3281 117.676 -11.3281 Z M 35.5957 21.9727 L 45.9961 4.05273 C 46.582 3.07617 46.3867 2.34375 45.6543 1.9043 C 45.0684 1.5625 44.2871 1.80664 43.7012 2.73438 L 33.3008 20.6543 C 32.7637 21.6309 32.9102 22.4121 33.5938 22.8027 C 34.3262 23.2422 35.0586 22.9492 35.5957 21.9727 Z M 85.7422 22.0215 L 96.1914 4.05273 C 96.7773 3.125 96.582 2.34375 95.8496 1.9043 C 95.2637 1.5625 94.4824 1.80664 93.8965 2.73438 L 83.4961 20.6543 C 82.959 21.6309 83.1055 22.4121 83.7891 22.8516 C 84.4727 23.2422 85.2539 22.9492 85.7422 22.0215 Z M 55.6152 39.5996 L 66.0156 21.6797 C 66.6504 20.7031 66.4062 19.9219 65.7227 19.5312 C 65.1367 19.1895 64.3555 19.3848 63.7695 20.3613 L 53.3691 38.2812 C 52.832 39.2578 52.9785 39.9902 53.6621 40.4297 C 54.3457 40.8691 55.127 40.5762 55.6152 39.5996 Z M 105.811 39.5996 L 116.211 21.6797 C 116.797 20.7031 116.602 19.9219 115.918 19.5312 C 115.283 19.1895 114.551 19.3848 113.965 20.3613 L 103.564 38.2812 C 103.027 39.2578 103.174 39.9902 103.857 40.4297 C 104.541 40.8691 105.322 40.5762 105.811 39.5996 Z"/>
  </g>
  <g id="Black-M" transform="matrix(1 0 0 1 2864.04 1126)">
   <path d="M 36.084 -6.49414 L 98.1934 -6.49414 C 116.162 -6.49414 129.98 -20.2148 129.98 -37.8418 C 129.98 -55.5176 116.602 -69.5801 98.6816 -69.5801 C 93.2129 -79.9805 83.0566 -89.0625 64.6484 -89.0625 C 44.1406 -89.0625 28.7598 -74.7559 25.7324 -56.2988 C 16.0645 -52.6855 8.74023 -44.1895 8.74023 -32.5195 C 8.74023 -17.7246 19.9707 -6.49414 36.084 -6.49414 Z M 36.7188 -22.3633 C 28.5645 -22.3633 24.6094 -26.416 24.6094 -32.2754 C 24.6094 -37.8418 28.2227 -41.5527 35.6934 -43.457 C 39.0625 -44.3359 39.8926 -45.8496 40.4297 -49.2188 C 43.2129 -65.625 52.5879 -73.1934 64.6484 -73.1934 C 73.6328 -73.1934 81.3477 -67.9688 86.7676 -58.1055 C 88.2812 -55.3223 89.8438 -54.3457 93.2617 -54.3457 C 107.91 -54.3457 114.111 -47.0703 114.111 -37.5488 C 114.111 -28.9062 107.812 -22.3633 97.5098 -22.3633 Z M 38.0859 19.1406 L 44.1406 8.74023 C 45.3125 6.64062 44.8242 3.95508 42.627 2.73438 C 40.4297 1.46484 38.0371 2.29492 36.7188 4.54102 L 30.6641 14.9414 C 29.4922 16.9922 29.9316 19.6289 32.1289 20.8984 C 34.3262 22.168 36.8652 21.1914 38.0859 19.1406 Z M 76.9531 19.1406 L 83.0078 8.74023 C 84.1797 6.64062 83.6914 3.95508 81.4941 2.73438 C 79.2969 1.46484 76.9531 2.29492 75.6348 4.54102 L 69.5801 14.9414 C 68.4082 16.9922 68.7988 19.6289 70.9961 20.8984 C 73.1934 22.168 75.7812 21.1914 76.9531 19.1406 Z M 53.6133 32.7637 L 59.668 22.3633 C 60.8398 20.3125 60.3516 17.627 58.1543 16.3574 C 55.957 15.0879 53.5645 15.918 52.2461 18.1641 L 46.1914 28.5645 C 45.0195 30.6641 45.459 33.3008 47.6562 34.5215 C 49.8535 35.791 52.3926 34.8633 53.6133 32.7637 Z M 92.4805 32.7637 L 98.5352 22.3633 C 99.707 20.3125 99.2188 17.627 97.0215 16.3574 C 94.8242 15.0879 92.4805 15.918 91.1621 18.1641 L 85.1074 28.5645 C 83.9355 30.6641 84.3262 33.3008 86.5234 34.5215 C 88.7207 35.791 91.3086 34.8633 92.4805 32.7637 Z"/>
  </g>
  <g id="Heavy-M" transform="matrix(1 0 0 1 2568.48 1126)">
   <path d="M 35.0586 -7.71484 L 96.7773 -7.71484 C 114.307 -7.71484 127.686 -21.0938 127.686 -38.0859 C 127.686 -55.2734 114.453 -68.6523 96.875 -68.6523 C 91.2109 -79.4922 80.8105 -88.2324 63.4277 -88.2324 C 43.4082 -88.2324 28.0762 -73.9258 25.3906 -55.5176 C 15.918 -52.1973 8.74023 -43.8965 8.74023 -32.5195 C 8.74023 -18.5059 19.2871 -7.71484 35.0586 -7.71484 Z M 35.498 -21.6797 C 26.9531 -21.6797 22.7051 -26.123 22.7051 -32.2754 C 22.7051 -37.8906 26.2695 -41.9922 33.9355 -43.9941 C 37.1582 -44.8242 37.9883 -46.2402 38.4766 -49.4629 C 40.8691 -65.7715 50.8789 -74.2676 63.4277 -74.2676 C 72.9004 -74.2676 80.8105 -68.8477 86.2305 -58.7402 C 87.6465 -56.1035 89.1602 -55.127 92.4316 -55.127 C 107.08 -55.127 113.721 -47.5586 113.721 -37.793 C 113.721 -28.7109 106.885 -21.6797 96.3867 -21.6797 Z M 75.6348 17.2363 L 81.7383 6.68945 C 82.8613 4.78516 82.373 2.29492 80.3711 1.12305 C 78.3203 0 76.123 0.732422 74.9023 2.7832 L 68.7988 13.3789 C 67.6758 15.2832 68.1152 17.7246 70.1172 18.8477 C 72.168 20.0195 74.5117 19.1895 75.6348 17.2363 Z M 36.7676 17.2852 L 42.8711 6.68945 C 43.9941 4.78516 43.5059 2.29492 41.5039 1.17188 C 39.4531 0 37.2559 0.732422 36.0352 2.83203 L 29.8828 13.3789 C 28.8086 15.2832 29.248 17.7246 31.25 18.8965 C 33.252 20.0195 35.6445 19.1895 36.7676 17.2852 Z M 91.1133 30.9082 L 97.2168 20.3613 C 98.3398 18.457 97.8516 15.9668 95.8496 14.7949 C 93.7988 13.6719 91.6016 14.4043 90.3809 16.4551 L 84.2285 27.0508 C 83.1543 28.9551 83.5938 31.3965 85.5957 32.5195 C 87.5977 33.6914 89.9902 32.8613 91.1133 30.9082 Z M 52.2461 30.957 L 58.3496 20.3613 C 59.4727 18.457 58.9844 15.9668 56.9336 14.8438 C 54.9316 13.6719 52.7344 14.4043 51.5137 16.5039 L 45.3613 27.0508 C 44.2871 28.9551 44.6777 31.3965 46.7285 32.5195 C 48.7305 33.6914 51.123 32.8613 52.2461 30.957 Z"/>
  </g>
  <g id="Bold-M" transform="matrix(1 0 0 1 2273.06 1126)">
   <path d="M 33.8867 -9.08203 L 95.2637 -9.08203 C 112.256 -9.08203 125.098 -22.0215 125.098 -38.3789 C 125.098 -54.9805 112.061 -67.6758 94.8242 -67.6758 C 89.0137 -78.9062 78.3203 -87.3535 62.0605 -87.3535 C 42.627 -87.3535 27.3438 -72.998 25.0488 -54.6875 C 15.7715 -51.6113 8.74023 -43.5059 8.74023 -32.5195 C 8.74023 -19.3848 18.5547 -9.08203 33.8867 -9.08203 Z M 34.1309 -20.8984 C 25.0977 -20.8984 20.6055 -25.7324 20.6055 -32.2754 C 20.6055 -37.9883 24.1211 -42.4805 31.9824 -44.5312 C 35.0098 -45.3613 35.9375 -46.7285 36.3281 -49.8047 C 38.2812 -65.9668 48.9258 -75.4883 62.0605 -75.4883 C 72.0215 -75.4883 80.2246 -69.873 85.5469 -59.5215 C 86.8652 -56.9824 88.3789 -56.0547 91.5527 -56.0547 C 106.104 -56.0547 113.281 -48.0469 113.281 -38.0859 C 113.281 -28.4668 105.859 -20.8984 95.166 -20.8984 Z M 74.1699 15.1367 L 80.3711 4.44336 C 81.3965 2.63672 80.9082 0.439453 79.0527 -0.585938 C 77.2461 -1.66016 75.1953 -1.02539 74.1211 0.878906 L 67.8711 11.6211 C 66.8945 13.3789 67.2852 15.5273 69.1406 16.6016 C 70.9961 17.627 73.1445 16.8945 74.1699 15.1367 Z M 35.3027 15.1855 L 41.5039 4.44336 C 42.5293 2.68555 42.041 0.488281 40.1855 -0.585938 C 38.3789 -1.61133 36.3281 -0.976562 35.2539 0.878906 L 29.0039 11.6699 C 28.0273 13.3789 28.418 15.5762 30.2734 16.6016 C 32.1289 17.627 34.2773 16.9434 35.3027 15.1855 Z M 89.5508 28.8574 L 95.752 18.1152 C 96.7773 16.3574 96.2891 14.1602 94.4824 13.0859 C 92.627 12.0605 90.625 12.6953 89.502 14.5508 L 83.3008 25.3418 C 82.2754 27.0508 82.7148 29.248 84.5703 30.2734 C 86.377 31.2988 88.5254 30.6152 89.5508 28.8574 Z M 50.6836 28.8574 L 56.8848 18.1641 C 57.9102 16.3574 57.4219 14.1602 55.6152 13.1348 C 53.7598 12.0605 51.7578 12.6953 50.6348 14.5996 L 44.4336 25.3418 C 43.4082 27.0996 43.8477 29.248 45.7031 30.3223 C 47.5098 31.3477 49.6582 30.6152 50.6836 28.8574 Z"/>
  </g>
  <g id="Semibold-M" transform="matrix(1 0 0 1 1977.23 1126)">
   <path d="M 33.1055 -10.0098 L 94.1895 -10.0098 C 110.791 -10.0098 123.34 -22.6562 123.34 -38.5254 C 123.34 -54.7852 110.4 -66.9922 93.4082 -66.9922 C 87.5 -78.5156 76.5625 -86.7188 61.084 -86.7188 C 42.041 -86.7188 26.8555 -72.3145 24.8047 -54.1016 C 15.6738 -51.2207 8.74023 -43.2617 8.74023 -32.5195 C 8.74023 -19.9707 18.0664 -10.0098 33.1055 -10.0098 Z M 33.2031 -20.4102 C 23.8281 -20.4102 19.1406 -25.4883 19.1406 -32.2754 C 19.1406 -38.0859 22.6074 -42.8223 30.6641 -44.9707 C 33.5449 -45.7031 34.4727 -47.0215 34.8145 -50 C 36.4746 -66.0645 47.6074 -76.3184 61.084 -76.3184 C 71.4355 -76.3184 79.7852 -70.5566 85.1074 -60.0586 C 86.377 -57.5684 87.8418 -56.6895 90.918 -56.6895 C 105.42 -56.6895 112.939 -48.4375 112.939 -38.2812 C 112.939 -28.2715 105.176 -20.4102 94.2871 -20.4102 Z M 73.1445 13.6719 L 79.3945 2.88086 C 80.3711 1.2207 79.8828 -0.830078 78.1738 -1.80664 C 76.4648 -2.7832 74.6094 -2.19727 73.584 -0.488281 L 67.2852 10.4004 C 66.3086 12.0117 66.748 14.0137 68.457 15.0391 C 70.166 15.9668 72.168 15.332 73.1445 13.6719 Z M 34.2773 13.7207 L 40.5273 2.88086 C 41.5039 1.2207 41.0156 -0.78125 39.3555 -1.75781 C 37.5977 -2.73438 35.7422 -2.14844 34.7168 -0.439453 L 28.418 10.4492 C 27.4902 12.0605 27.8809 14.0625 29.6387 15.0391 C 31.2988 16.0156 33.3008 15.3809 34.2773 13.7207 Z M 88.4766 27.3926 L 94.7266 16.6016 C 95.7031 14.8926 95.2148 12.8906 93.5547 11.9141 C 91.8457 10.9375 89.9414 11.5234 88.916 13.2324 L 82.6172 24.1211 C 81.6895 25.7324 82.1289 27.7344 83.8379 28.7109 C 85.498 29.6875 87.5488 29.0527 88.4766 27.3926 Z M 49.6094 27.4414 L 55.8594 16.6016 C 56.8359 14.9414 56.3965 12.9395 54.6875 11.9141 C 52.9785 10.9375 51.0742 11.5234 50.0488 13.2812 L 43.75 24.1699 C 42.8223 25.7812 43.2617 27.7832 44.9707 28.7598 C 46.6797 29.7363 48.6816 29.1016 49.6094 27.4414 Z"/>
  </g>
  <g id="Medium-M" transform="matrix(1 0 0 1 1681.17 1126)">
   <path d="M 32.4707 -10.6934 L 93.3594 -10.6934 C 109.717 -10.6934 122.021 -23.1445 122.021 -38.6719 C 122.021 -54.5898 109.131 -66.4551 92.3828 -66.4551 C 86.377 -78.2227 75.293 -86.2305 60.4004 -86.2305 C 41.6504 -86.2305 26.4648 -71.875 24.6094 -53.6621 C 15.5762 -50.9277 8.74023 -43.0664 8.74023 -32.5195 C 8.74023 -20.4102 17.6758 -10.6934 32.4707 -10.6934 Z M 32.5195 -19.9707 C 22.8516 -19.9707 18.0176 -25.293 18.0176 -32.2754 C 18.0176 -38.1348 21.4844 -43.1152 29.6387 -45.2637 C 32.4707 -45.9961 33.3984 -47.2656 33.6426 -50.1953 C 35.1074 -66.1621 46.582 -76.9531 60.4004 -76.9531 C 70.9961 -76.9531 79.4922 -71.0938 84.7656 -60.4492 C 85.9863 -58.0078 87.4512 -57.1289 90.4297 -57.1289 C 104.932 -57.1289 112.744 -48.6816 112.744 -38.4277 C 112.744 -28.1738 104.639 -19.9707 93.6523 -19.9707 Z M 72.3633 12.5977 L 78.6621 1.70898 C 79.5898 0.0976562 79.1016 -1.80664 77.5391 -2.73438 C 75.8789 -3.66211 74.1211 -3.125 73.1445 -1.46484 L 66.7969 9.52148 C 65.918 11.0352 66.3574 12.8906 67.9688 13.8184 C 69.5312 14.7461 71.4355 14.1602 72.3633 12.5977 Z M 33.4961 12.6465 L 39.7949 1.70898 C 40.7227 0.146484 40.2344 -1.75781 38.6719 -2.68555 C 37.0605 -3.61328 35.2539 -3.07617 34.2773 -1.41602 L 27.9785 9.52148 C 27.0508 11.084 27.4902 12.9395 29.1016 13.8672 C 30.7129 14.7461 32.6172 14.209 33.4961 12.6465 Z M 87.6465 26.3184 L 93.9453 15.4297 C 94.9219 13.8184 94.4336 11.9141 92.8223 10.9863 C 91.2109 10.0586 89.4531 10.5957 88.4766 12.2559 L 82.1289 23.2422 C 81.25 24.7559 81.6406 26.6113 83.3008 27.5391 C 84.8633 28.4668 86.7676 27.8809 87.6465 26.3184 Z M 48.8281 26.3672 L 55.127 15.4785 C 56.0547 13.8672 55.5664 11.9629 54.0039 11.0352 C 52.3926 10.1074 50.5859 10.6445 49.6094 12.3047 L 43.2617 23.291 C 42.3828 24.8047 42.8223 26.6602 44.4336 27.5879 C 45.9961 28.5156 47.9004 27.9297 48.8281 26.3672 Z"/>
  </g>
  <g id="Regular-M" transform="matrix(1 0 0 1 1385.34 1126)">
   <path d="M 31.6895 -11.6211 L 92.2852 -11.6211 C 108.301 -11.6211 120.264 -23.7793 120.264 -38.8672 C 120.264 -54.3945 107.52 -65.7715 90.9668 -65.7715 C 84.8633 -77.832 73.5352 -85.5957 59.4727 -85.5957 C 41.0645 -85.5957 25.9277 -71.2402 24.3652 -53.0762 C 15.4785 -50.5371 8.74023 -42.8223 8.74023 -32.5195 C 8.74023 -20.9961 17.1387 -11.6211 31.6895 -11.6211 Z M 31.5918 -19.4824 C 21.582 -19.4824 16.5527 -25.0488 16.5527 -32.2754 C 16.5527 -38.1836 19.9707 -43.457 28.2715 -45.6543 C 31.0059 -46.3379 31.9824 -47.6074 32.1777 -50.3906 C 33.3008 -66.3086 45.3125 -77.7832 59.4727 -77.7832 C 70.4102 -77.7832 79.0527 -71.7773 84.3262 -60.9375 C 85.498 -58.5938 86.9141 -57.7637 89.7949 -57.7637 C 104.248 -57.7637 112.402 -49.0234 112.402 -38.623 C 112.402 -27.9785 103.906 -19.4824 92.7734 -19.4824 Z M 71.3379 11.1328 L 77.6855 0.146484 C 78.5645 -1.36719 78.0762 -3.07617 76.6602 -3.90625 C 75.1465 -4.78516 73.4863 -4.29688 72.6074 -2.7832 L 66.2109 8.30078 C 65.3809 9.7168 65.7715 11.4258 67.2852 12.3047 C 68.75 13.0859 70.5078 12.5977 71.3379 11.1328 Z M 32.4707 11.1816 L 38.8184 0.195312 C 39.7461 -1.31836 39.2578 -3.02734 37.793 -3.85742 C 36.3281 -4.73633 34.668 -4.24805 33.7402 -2.73438 L 27.3438 8.34961 C 26.5137 9.76562 26.9531 11.4746 28.4668 12.3047 C 29.8828 13.1348 31.6406 12.6465 32.4707 11.1816 Z M 86.6211 24.9023 L 92.9688 13.8672 C 93.8477 12.4023 93.3594 10.6934 91.8945 9.81445 C 90.4297 8.98438 88.7695 9.47266 87.8906 10.9375 L 81.4941 22.0703 C 80.6641 23.4375 81.0547 25.1465 82.5684 26.0254 C 84.0332 26.8555 85.791 26.3672 86.6211 24.9023 Z M 47.7539 24.9512 L 54.1016 13.916 C 55.0293 12.4512 54.541 10.7422 53.0762 9.86328 C 51.5625 9.0332 49.9023 9.52148 49.0234 10.9863 L 42.627 22.1191 C 41.7969 23.4863 42.2363 25.1953 43.7012 26.0742 C 45.166 26.9043 46.9238 26.416 47.7539 24.9512 Z"/>
  </g>
  <g id="Light-M" transform="matrix(1 0 0 1 1089.05 1126)">
   <path d="M 31.0547 -12.6465 L 91.9434 -12.6465 C 107.617 -12.6465 119.434 -24.4629 119.434 -39.209 C 119.434 -54.3457 106.885 -65.4297 90.6738 -65.4297 C 84.5703 -77.7344 73.5352 -85.5957 59.1309 -85.5957 C 41.0645 -85.5957 26.2207 -71.2402 24.6582 -53.0762 C 15.7227 -50.5859 8.74023 -43.1152 8.74023 -32.8613 C 8.74023 -21.7285 16.9434 -12.6465 31.0547 -12.6465 Z M 30.957 -18.6035 C 20.3125 -18.6035 14.6973 -24.8535 14.6973 -32.7148 C 14.6973 -39.4531 18.9453 -45.1172 27.4414 -47.3633 C 29.6875 -47.9492 30.4688 -48.9746 30.6641 -51.1719 C 31.7383 -67.3828 44.4336 -79.6387 59.1309 -79.6387 C 71.1426 -79.6387 80.1758 -72.9492 85.4492 -62.0605 C 86.4258 -60.0098 87.6465 -59.3262 90.0391 -59.3262 C 104.346 -59.3262 113.428 -50.1953 113.428 -39.0137 C 113.428 -27.7344 104.248 -18.6035 92.2852 -18.6035 Z M 69.8242 10.5469 L 76.709 -1.36719 C 77.4414 -2.63672 77.0996 -4.00391 75.9277 -4.6875 C 74.7559 -5.37109 73.3887 -4.98047 72.6562 -3.71094 L 65.7227 8.25195 C 65.0391 9.42383 65.3809 10.791 66.5527 11.5234 C 67.7246 12.1582 69.1406 11.7676 69.8242 10.5469 Z M 30.957 10.5469 L 37.8418 -1.36719 C 38.623 -2.58789 38.2324 -3.95508 37.0605 -4.6875 C 35.8887 -5.32227 34.5703 -4.98047 33.7891 -3.71094 L 26.8555 8.30078 C 26.1719 9.47266 26.5137 10.8398 27.6855 11.5234 C 28.8574 12.207 30.2734 11.7676 30.957 10.5469 Z M 85.1562 24.2188 L 92.041 12.3535 C 92.8223 11.084 92.4316 9.7168 91.2598 9.0332 C 90.0879 8.34961 88.7695 8.74023 87.9883 10.0098 L 81.1035 21.9727 C 80.4199 23.1445 80.7129 24.5117 81.9336 25.1953 C 83.1055 25.8789 84.4727 25.4883 85.1562 24.2188 Z M 46.3379 24.2676 L 53.2227 12.3535 C 53.9551 11.084 53.5645 9.7168 52.3926 9.0332 C 51.2207 8.39844 49.9023 8.74023 49.1699 10.0098 L 42.2363 21.9727 C 41.5527 23.1934 41.8457 24.5605 43.0664 25.2441 C 44.2383 25.9277 45.6055 25.4883 46.3379 24.2676 Z"/>
  </g>
  <g id="Thin-M" transform="matrix(1 0 0 1 792.897 1126)">
   <path d="M 30.1758 -13.9648 L 91.5039 -13.9648 C 106.641 -13.9648 118.311 -25.3418 118.311 -39.6484 C 118.311 -54.248 106.104 -64.9902 90.2344 -64.9902 C 84.1309 -77.5391 73.5352 -85.5957 58.6914 -85.5957 C 41.0645 -85.5957 26.6113 -71.2402 25.0977 -53.0762 C 16.0156 -50.6836 8.74023 -43.5059 8.74023 -33.3008 C 8.74023 -22.7051 16.6016 -13.9648 30.1758 -13.9648 Z M 30.127 -17.4805 C 18.6523 -17.4805 12.2559 -24.6094 12.2559 -33.252 C 12.2559 -41.1133 17.5781 -47.3633 26.2695 -49.6582 C 27.9785 -50.0977 28.5645 -50.7812 28.6133 -52.2461 C 29.5898 -68.7988 43.2617 -82.0801 58.6914 -82.0801 C 72.1191 -82.0801 81.6406 -74.5117 86.9629 -63.4766 C 87.6953 -61.9629 88.5742 -61.4258 90.4297 -61.4258 C 104.541 -61.4258 114.795 -51.7578 114.795 -39.502 C 114.795 -27.3926 104.639 -17.4805 91.6504 -17.4805 Z M 67.8223 9.7168 L 75.3906 -3.41797 C 75.9766 -4.3457 75.7324 -5.27344 74.9512 -5.71289 C 74.1699 -6.15234 73.291 -5.9082 72.7051 -4.93164 L 65.1367 8.1543 C 64.5996 9.08203 64.7949 10.0098 65.5762 10.4492 C 66.4062 10.9375 67.2852 10.6445 67.8223 9.7168 Z M 28.9551 9.7168 L 36.5234 -3.36914 C 37.1094 -4.3457 36.8652 -5.22461 36.084 -5.71289 C 35.3027 -6.15234 34.4238 -5.9082 33.8379 -4.93164 L 26.2207 8.1543 C 25.7324 9.08203 25.9277 10.0098 26.709 10.498 C 27.5391 10.9375 28.418 10.6445 28.9551 9.7168 Z M 83.3008 23.3398 L 90.8691 10.2539 C 91.4551 9.32617 91.2109 8.39844 90.4297 7.95898 C 89.6484 7.51953 88.7695 7.76367 88.1836 8.69141 L 80.5664 21.8262 C 80.0781 22.7539 80.2734 23.6816 81.0547 24.1211 C 81.8848 24.6094 82.7637 24.3164 83.3008 23.3398 Z M 44.4336 23.3887 L 52.002 10.3027 C 52.5879 9.32617 52.3438 8.44727 51.5137 7.95898 C 50.7812 7.51953 49.9023 7.76367 49.3164 8.74023 L 41.6992 21.8262 C 41.2109 22.7539 41.3574 23.6816 42.1875 24.1699 C 42.9688 24.6094 43.8965 24.3164 44.4336 23.3887 Z"/>
  </g>
  <g id="Ultralight-M" transform="matrix(1 0 0 1 496.454 1126)">
   <path d="M 29.6875 -14.5996 L 91.3086 -14.5996 C 106.152 -14.5996 117.773 -25.8301 117.773 -39.8926 C 117.773 -54.1992 105.664 -64.7949 89.9902 -64.7949 C 83.8867 -77.4414 73.5352 -85.5957 58.4473 -85.5957 C 41.0645 -85.5957 26.8066 -71.2402 25.3418 -53.0762 C 16.1621 -50.7324 8.74023 -43.7012 8.74023 -33.5449 C 8.74023 -23.1934 16.4551 -14.5996 29.6875 -14.5996 Z M 29.6875 -16.8945 C 17.7734 -16.8945 10.9863 -24.4629 10.9863 -33.5449 C 10.9863 -41.9922 16.8457 -48.4863 25.6836 -50.8301 C 27.0996 -51.1719 27.5391 -51.709 27.5879 -52.832 C 28.5156 -69.5312 42.6758 -83.3496 58.4473 -83.3496 C 72.6074 -83.3496 82.4219 -75.3418 87.6953 -64.2578 C 88.3301 -62.9395 89.0625 -62.5 90.5762 -62.5 C 104.59 -62.5 115.479 -52.5391 115.479 -39.7461 C 115.479 -27.1973 104.883 -16.8945 91.3086 -16.8945 Z M 27.9297 9.27734 L 35.8398 -4.44336 C 36.3281 -5.22461 36.1816 -5.9082 35.5469 -6.25 C 35.0098 -6.54297 34.3262 -6.39648 33.8379 -5.56641 L 25.9277 8.10547 C 25.4883 8.93555 25.5859 9.57031 26.2207 9.96094 C 26.8066 10.3027 27.4902 10.0586 27.9297 9.27734 Z M 66.7969 9.27734 L 74.7559 -4.44336 C 75.2441 -5.22461 75.0488 -5.9082 74.4629 -6.25 C 73.9258 -6.54297 73.2422 -6.39648 72.7539 -5.56641 L 64.7949 8.10547 C 64.3555 8.93555 64.502 9.57031 65.0879 9.96094 C 65.7227 10.3027 66.3574 10.0586 66.7969 9.27734 Z M 43.457 22.9004 L 51.3672 9.22852 C 51.8555 8.39844 51.709 7.76367 51.0742 7.37305 C 50.5371 7.08008 49.8535 7.27539 49.3652 8.05664 L 41.4551 21.7773 C 41.0156 22.5586 41.1133 23.2422 41.748 23.584 C 42.334 23.9746 43.0176 23.7305 43.457 22.9004 Z M 82.3242 22.9004 L 90.2832 9.22852 C 90.7715 8.39844 90.5762 7.76367 89.9902 7.37305 C 89.4531 7.08008 88.7695 7.27539 88.2812 8.05664 L 80.3223 21.7773 C 79.8828 22.5586 80.0293 23.2422 80.6152 23.584 C 81.25 23.9746 81.8848 23.7305 82.3242 22.9004 Z"/>
  </g>
  <g id="Black-S" transform="matrix(1 0 0 1 2879.15 696)">
   <path d="M 28.1738 -12.793 L 76.8066 -12.793 C 90.8691 -12.793 101.66 -23.5352 101.66 -37.3047 C 101.66 -51.123 91.1621 -62.0605 77.1484 -62.0605 C 72.8516 -70.2637 64.8926 -77.3438 50.5371 -77.3438 C 34.5215 -77.3438 22.4609 -66.1133 20.1172 -51.6602 C 12.5488 -48.877 6.83594 -42.2363 6.83594 -33.1055 C 6.83594 -21.582 15.5762 -12.793 28.1738 -12.793 Z M 28.6621 -25.0977 C 22.2656 -25.0977 19.1406 -28.3203 19.1406 -32.9102 C 19.1406 -37.2559 21.9727 -40.1855 27.832 -41.6992 C 30.4688 -42.3828 31.1035 -43.5547 31.543 -46.1914 C 33.6914 -59.0332 41.0645 -65.0391 50.5371 -65.0391 C 57.6172 -65.0391 63.6719 -60.9375 67.9199 -53.1738 C 69.0918 -51.0254 70.3125 -50.2441 72.998 -50.2441 C 84.4727 -50.2441 89.3555 -44.5312 89.3555 -37.0605 C 89.3555 -30.2734 84.375 -25.0977 76.3184 -25.0977 Z M 29.7363 7.22656 L 34.4727 -0.927734 C 35.4004 -2.53906 35.0098 -4.63867 33.3008 -5.61523 C 31.5918 -6.5918 29.7363 -5.95703 28.7109 -4.19922 L 23.9746 3.95508 C 23.0469 5.56641 23.3887 7.61719 25.0977 8.59375 C 26.8066 9.57031 28.8086 8.83789 29.7363 7.22656 Z M 60.2051 7.22656 L 64.9414 -0.927734 C 65.8691 -2.53906 65.4785 -4.63867 63.7695 -5.61523 C 62.0605 -6.5918 60.2051 -5.95703 59.1797 -4.19922 L 54.4434 3.95508 C 53.5156 5.56641 53.8574 7.61719 55.5664 8.59375 C 57.2754 9.57031 59.2773 8.83789 60.2051 7.22656 Z M 41.8945 17.9199 L 46.6309 9.76562 C 47.5586 8.1543 47.168 6.05469 45.459 5.07812 C 43.75 4.10156 41.8945 4.73633 40.8691 6.49414 L 36.1328 14.6484 C 35.2051 16.2598 35.5469 18.3105 37.2559 19.2871 C 38.9648 20.2637 40.9668 19.5312 41.8945 17.9199 Z M 72.3633 17.9199 L 77.0996 9.76562 C 78.0273 8.1543 77.6367 6.05469 75.9277 5.07812 C 74.2188 4.10156 72.3633 4.73633 71.3379 6.49414 L 66.6016 14.6484 C 65.6738 16.2598 66.0156 18.3105 67.7246 19.2871 C 69.4336 20.2637 71.4355 19.5312 72.3633 17.9199 Z"/>
  </g>
  <g id="Heavy-S" transform="matrix(1 0 0 1 2583.27 696)">
   <path d="M 27.4414 -13.623 L 75.7812 -13.623 C 89.5508 -13.623 100 -24.1211 100 -37.4512 C 100 -50.9277 89.5996 -61.4258 75.7812 -61.4258 C 71.3867 -69.873 63.1836 -76.709 49.6582 -76.709 C 33.9844 -76.709 21.9238 -65.4785 19.8242 -51.0742 C 12.4023 -48.4863 6.83594 -41.9434 6.83594 -33.0566 C 6.83594 -22.0703 15.0879 -13.623 27.4414 -13.623 Z M 27.832 -24.6582 C 21.1426 -24.6582 17.9199 -28.0762 17.9199 -32.8613 C 17.9199 -37.1582 20.6055 -40.332 26.6113 -41.8945 C 29.1504 -42.5781 29.834 -43.7012 30.2246 -46.2891 C 32.0801 -59.0332 39.8438 -65.6738 49.6582 -65.6738 C 56.9336 -65.6738 63.1348 -61.4746 67.334 -53.5645 C 68.457 -51.4648 69.7266 -50.6836 72.3633 -50.6836 C 83.7891 -50.6836 88.916 -44.7754 88.916 -37.207 C 88.916 -30.127 83.6426 -24.6582 75.5371 -24.6582 Z M 59.375 5.85938 L 64.1113 -2.29492 C 64.9902 -3.85742 64.5996 -5.81055 62.9883 -6.73828 C 61.377 -7.66602 59.5703 -7.08008 58.6426 -5.41992 L 53.9062 2.7832 C 53.0273 4.29688 53.3691 6.20117 54.9805 7.12891 C 56.5918 8.05664 58.4961 7.37305 59.375 5.85938 Z M 28.9062 5.85938 L 33.6426 -2.29492 C 34.5215 -3.80859 34.1309 -5.81055 32.5195 -6.73828 C 30.9082 -7.61719 29.1504 -7.03125 28.1738 -5.41992 L 23.4375 2.7832 C 22.5586 4.29688 22.9004 6.20117 24.5117 7.12891 C 26.123 8.05664 28.0273 7.37305 28.9062 5.85938 Z M 71.4355 16.5527 L 76.1719 8.39844 C 77.0996 6.88477 76.6602 4.93164 75.0977 4.00391 C 73.4375 3.07617 71.6797 3.66211 70.752 5.27344 L 65.9668 13.4766 C 65.0879 14.9902 65.4785 16.8945 67.0898 17.8223 C 68.7012 18.75 70.6055 18.1152 71.4355 16.5527 Z M 41.0156 16.6016 L 45.752 8.39844 C 46.6309 6.88477 46.2402 4.93164 44.6289 4.00391 C 43.0176 3.07617 41.2598 3.66211 40.2832 5.32227 L 35.5469 13.4766 C 34.668 14.9902 35.0098 16.9434 36.6211 17.8711 C 38.2324 18.75 40.1367 18.1152 41.0156 16.6016 Z"/>
  </g>
  <g id="Bold-S" transform="matrix(1 0 0 1 2287.49 696)">
   <path d="M 26.6602 -14.5508 L 74.6094 -14.5508 C 88.0371 -14.5508 98.1445 -24.7559 98.1445 -37.5977 C 98.1445 -50.6836 87.8418 -60.6934 74.2676 -60.6934 C 69.7266 -69.4824 61.2793 -76.0254 48.6328 -76.0254 C 33.3496 -76.0254 21.2891 -64.7949 19.5312 -50.4395 C 12.2559 -48.0469 6.83594 -41.6504 6.83594 -33.0566 C 6.83594 -22.6562 14.5508 -14.5508 26.6602 -14.5508 Z M 26.8555 -24.2188 C 19.873 -24.2188 16.5039 -27.832 16.5039 -32.8125 C 16.5039 -37.1094 19.043 -40.5273 25.1953 -42.1387 C 27.6855 -42.7734 28.418 -43.8965 28.7598 -46.4355 C 30.2734 -59.0332 38.4766 -66.3574 48.6328 -66.3574 C 56.2012 -66.3574 62.5488 -62.1094 66.6992 -54.0039 C 67.8223 -51.9043 69.043 -51.1719 71.582 -51.1719 C 83.0566 -51.1719 88.4766 -45.0195 88.4766 -37.4023 C 88.4766 -29.9805 82.8125 -24.2188 74.6094 -24.2188 Z M 58.3984 4.3457 L 63.1348 -3.85742 C 63.9648 -5.32227 63.5742 -7.12891 62.0605 -7.95898 C 60.5469 -8.83789 58.8867 -8.30078 58.0078 -6.78711 L 53.2715 1.41602 C 52.4414 2.83203 52.7832 4.63867 54.2969 5.46875 C 55.8105 6.34766 57.5684 5.76172 58.3984 4.3457 Z M 27.9785 4.3457 L 32.666 -3.80859 C 33.5449 -5.27344 33.1055 -7.08008 31.6406 -7.95898 C 30.127 -8.78906 28.4668 -8.30078 27.5879 -6.78711 L 22.8027 1.46484 C 21.9727 2.88086 22.3633 4.63867 23.877 5.51758 C 25.3418 6.34766 27.1484 5.76172 27.9785 4.3457 Z M 70.459 15.0391 L 75.1953 6.88477 C 76.0254 5.41992 75.6348 3.61328 74.1211 2.7832 C 72.6074 1.9043 70.9473 2.44141 70.0684 3.95508 L 65.2832 12.1582 C 64.502 13.5742 64.8438 15.332 66.3574 16.2109 C 67.8711 17.041 69.6289 16.5039 70.459 15.0391 Z M 39.9902 15.0879 L 44.7266 6.88477 C 45.5566 5.46875 45.166 3.66211 43.6523 2.7832 C 42.1387 1.9043 40.4785 2.44141 39.5996 3.95508 L 34.8633 12.207 C 34.0332 13.5742 34.375 15.3809 35.8887 16.2598 C 37.4023 17.0898 39.1602 16.5039 39.9902 15.0879 Z"/>
  </g>
  <g id="Semibold-S" transform="matrix(1 0 0 1 1991.44 696)">
   <path d="M 26.123 -15.1855 L 73.8281 -15.1855 C 87.0117 -15.1855 96.8262 -25.1953 96.8262 -37.6953 C 96.8262 -50.5371 86.6211 -60.2051 73.2422 -60.2051 C 68.6035 -69.1895 59.9121 -75.5371 47.9492 -75.5371 C 32.9102 -75.5371 20.8984 -64.2578 19.2871 -50 C 12.1582 -47.7051 6.83594 -41.4551 6.83594 -33.0078 C 6.83594 -23.0469 14.209 -15.1855 26.123 -15.1855 Z M 26.2207 -23.877 C 19.043 -23.877 15.5273 -27.6855 15.5273 -32.7637 C 15.5273 -37.0117 18.0176 -40.625 24.2676 -42.2852 C 26.6602 -42.9199 27.4414 -44.043 27.7344 -46.5332 C 29.0039 -59.0332 37.5488 -66.8457 47.9492 -66.8457 C 55.7129 -66.8457 62.1094 -62.5488 66.2598 -54.3457 C 67.334 -52.2461 68.5547 -51.5137 71.0938 -51.5137 C 82.5195 -51.5137 88.1348 -45.166 88.1348 -37.5 C 88.1348 -29.8828 82.2266 -23.877 74.0234 -23.877 Z M 57.7637 3.27148 L 62.4512 -4.93164 C 63.2812 -6.29883 62.8906 -8.00781 61.4746 -8.83789 C 60.0098 -9.66797 58.4473 -9.17969 57.5684 -7.71484 L 52.832 0.537109 C 52.0508 1.85547 52.3926 3.51562 53.8574 4.3457 C 55.2734 5.12695 56.9824 4.63867 57.7637 3.27148 Z M 27.2949 3.27148 L 32.0312 -4.88281 C 32.8613 -6.25 32.4219 -7.95898 31.0059 -8.78906 C 29.5898 -9.61914 27.9785 -9.13086 27.1484 -7.71484 L 22.4121 0.537109 C 21.6309 1.85547 21.9727 3.56445 23.4375 4.39453 C 24.8535 5.17578 26.5137 4.63867 27.2949 3.27148 Z M 69.7266 14.0137 L 74.4629 5.85938 C 75.293 4.44336 74.8535 2.73438 73.4375 1.9043 C 72.0215 1.12305 70.4102 1.61133 69.5801 3.02734 L 64.8438 11.2793 C 64.0625 12.5977 64.4043 14.2578 65.8691 15.0879 C 67.2852 15.918 68.9453 15.3809 69.7266 14.0137 Z M 39.3066 14.0625 L 44.043 5.85938 C 44.873 4.49219 44.4336 2.7832 43.0176 1.95312 C 41.6016 1.12305 39.9902 1.61133 39.1602 3.07617 L 34.375 11.3281 C 33.5938 12.6465 33.9844 14.3066 35.4004 15.1367 C 36.8164 15.918 38.5254 15.4297 39.3066 14.0625 Z"/>
  </g>
  <g id="Medium-S" transform="matrix(1 0 0 1 1695.21 696)">
   <path d="M 25.6836 -15.625 L 73.2422 -15.625 C 86.2305 -15.625 95.8496 -25.4883 95.8496 -37.793 C 95.8496 -50.4395 85.7422 -59.8145 72.4609 -59.8145 C 67.7734 -68.9453 58.9355 -75.1953 47.4121 -75.1953 C 32.6172 -75.1953 20.5566 -63.916 19.1406 -49.6582 C 12.1094 -47.4609 6.83594 -41.2598 6.83594 -33.0078 C 6.83594 -23.3398 13.916 -15.625 25.6836 -15.625 Z M 25.6836 -23.6328 C 18.3594 -23.6328 14.8438 -27.5391 14.8438 -32.7637 C 14.8438 -36.9629 17.1875 -40.7227 23.5352 -42.3828 C 25.8789 -43.0176 26.709 -44.1406 26.9531 -46.6309 C 28.0762 -59.0332 36.8164 -67.1875 47.4121 -67.1875 C 55.3223 -67.1875 61.8164 -62.8418 65.918 -54.541 C 66.9922 -52.4902 68.2129 -51.7578 70.7031 -51.7578 C 82.1289 -51.7578 87.8906 -45.3125 87.8906 -37.5977 C 87.8906 -29.7852 81.8359 -23.6328 73.5352 -23.6328 Z M 57.2266 2.44141 L 61.9629 -5.71289 C 62.7441 -7.08008 62.3535 -8.69141 60.9863 -9.47266 C 59.6191 -10.2539 58.0566 -9.81445 57.2754 -8.44727 L 52.4902 -0.195312 C 51.7578 1.07422 52.0996 2.68555 53.5156 3.4668 C 54.8828 4.24805 56.4941 3.75977 57.2266 2.44141 Z M 26.8066 2.49023 L 31.543 -5.66406 C 32.3242 -7.03125 31.9336 -8.64258 30.5664 -9.42383 C 29.1504 -10.2539 27.6367 -9.76562 26.8555 -8.39844 L 22.0703 -0.146484 C 21.3379 1.12305 21.6797 2.73438 23.0957 3.51562 C 24.4141 4.29688 26.0742 3.80859 26.8066 2.49023 Z M 69.2383 13.2324 L 73.9258 5.0293 C 74.7559 3.71094 74.3164 2.09961 72.9492 1.26953 C 71.582 0.488281 70.0195 0.976562 69.2383 2.34375 L 64.4531 10.5957 C 63.7207 11.8652 64.1113 13.4766 65.4785 14.2578 C 66.8457 15.0391 68.457 14.5508 69.2383 13.2324 Z M 38.7695 13.2812 L 43.5059 5.07812 C 44.2871 3.75977 43.8965 2.14844 42.5293 1.31836 C 41.1621 0.537109 39.5996 0.976562 38.8184 2.34375 L 34.0332 10.6445 C 33.3008 11.9141 33.6426 13.5254 35.0586 14.3066 C 36.4258 15.0391 38.0371 14.5508 38.7695 13.2812 Z"/>
  </g>
  <g id="Regular-S" transform="matrix(1 0 0 1 1399.14 696)">
   <path d="M 25.1465 -16.2598 L 72.4609 -16.2598 C 85.2051 -16.2598 94.5801 -25.9277 94.5801 -37.8906 C 94.5801 -50.293 84.5215 -59.3262 71.4355 -59.3262 C 66.6504 -68.7012 57.6172 -74.707 46.7285 -74.707 C 32.1777 -74.707 20.166 -63.4277 18.8965 -49.2188 C 12.0117 -47.168 6.83594 -41.0645 6.83594 -32.959 C 6.83594 -23.6816 13.5254 -16.2598 25.1465 -16.2598 Z M 25.0488 -23.291 C 17.5293 -23.291 13.8672 -27.3438 13.8672 -32.7148 C 13.8672 -36.9141 16.1621 -40.8203 22.5586 -42.5293 C 24.9023 -43.1641 25.7324 -44.2383 25.9277 -46.7285 C 26.8555 -59.0332 35.8887 -67.6758 46.7285 -67.6758 C 54.7852 -67.6758 61.4258 -63.2812 65.5273 -54.834 C 66.5039 -52.832 67.7246 -52.0996 70.2148 -52.0996 C 81.5918 -52.0996 87.5488 -45.5078 87.5488 -37.6953 C 87.5488 -29.6875 81.25 -23.291 72.9004 -23.291 Z M 56.5918 1.41602 L 61.3281 -6.78711 C 62.0605 -8.05664 61.6699 -9.57031 60.4004 -10.3027 C 59.082 -11.084 57.6172 -10.6445 56.8359 -9.375 L 52.0996 -1.07422 C 51.3672 0.0976562 51.7578 1.61133 53.0762 2.39258 C 54.3457 3.07617 55.9082 2.63672 56.5918 1.41602 Z M 26.1719 1.46484 L 30.9082 -6.73828 C 31.6406 -8.00781 31.25 -9.52148 29.9805 -10.3027 C 28.6621 -11.0352 27.1973 -10.5957 26.416 -9.32617 L 21.6309 -1.02539 C 20.9473 0.146484 21.3379 1.66016 22.6562 2.39258 C 23.9258 3.125 25.4883 2.68555 26.1719 1.46484 Z M 68.5059 12.207 L 73.2422 4.00391 C 74.0234 2.73438 73.584 1.2207 72.3145 0.439453 C 70.9961 -0.292969 69.5312 0.146484 68.75 1.41602 L 64.0137 9.7168 C 63.2812 10.8887 63.6719 12.4023 64.9902 13.1348 C 66.2598 13.8672 67.8223 13.4277 68.5059 12.207 Z M 38.0859 12.2559 L 42.8223 4.05273 C 43.6035 2.7832 43.1641 1.26953 41.8945 0.488281 C 40.5762 -0.244141 39.1113 0.195312 38.3301 1.46484 L 33.5938 9.76562 C 32.8613 10.9375 33.252 12.4512 34.5703 13.1836 C 35.8398 13.916 37.4023 13.4766 38.0859 12.2559 Z"/>
  </g>
  <g id="Light-S" transform="matrix(1 0 0 1 1102.79 696)">
   <path d="M 24.5605 -17.1387 L 72.168 -17.1387 C 84.5703 -17.1387 93.8477 -26.5137 93.8477 -38.1836 C 93.8477 -50.2441 83.9844 -59.0332 71.1426 -59.0332 C 66.3574 -68.5547 57.6172 -74.707 46.4355 -74.707 C 32.1777 -74.707 20.4102 -63.4277 19.1895 -49.2188 C 12.207 -47.2168 6.83594 -41.3086 6.83594 -33.252 C 6.83594 -24.3652 13.3301 -17.1387 24.5605 -17.1387 Z M 24.5117 -22.5586 C 16.4062 -22.5586 12.207 -27.1973 12.207 -33.1055 C 12.207 -38.0371 15.2344 -42.334 21.8262 -44.0918 C 23.7305 -44.5801 24.4629 -45.459 24.6094 -47.4121 C 25.4395 -60.0098 35.1074 -69.3359 46.4355 -69.3359 C 55.4688 -69.3359 62.4023 -64.3066 66.5039 -55.8105 C 67.334 -54.1016 68.3594 -53.5156 70.459 -53.5156 C 81.6895 -53.5156 88.4766 -46.5332 88.4766 -38.0371 C 88.4766 -29.4434 81.543 -22.5586 72.4609 -22.5586 Z M 55.2734 0.878906 L 60.4492 -8.10547 C 61.084 -9.22852 60.7422 -10.4004 59.7168 -11.0352 C 58.6914 -11.6211 57.5195 -11.2793 56.8848 -10.2051 L 51.6602 -1.12305 C 51.0742 -0.146484 51.3672 1.07422 52.3926 1.66016 C 53.418 2.24609 54.6875 1.9043 55.2734 0.878906 Z M 24.8535 0.878906 L 30.0293 -8.10547 C 30.6641 -9.17969 30.3223 -10.3516 29.2969 -10.9863 C 28.2715 -11.5723 27.0996 -11.2305 26.4648 -10.1562 L 21.2402 -1.12305 C 20.6543 -0.0976562 20.8984 1.12305 21.9727 1.70898 C 22.998 2.29492 24.2188 1.95312 24.8535 0.878906 Z M 67.2852 11.6211 L 72.4609 2.63672 C 73.0957 1.5625 72.7539 0.341797 71.7285 -0.244141 C 70.7031 -0.830078 69.5312 -0.537109 68.8965 0.585938 L 63.6719 9.61914 C 63.0859 10.6445 63.3789 11.8164 64.4043 12.4512 C 65.4297 13.0371 66.6504 12.6465 67.2852 11.6211 Z M 36.8164 11.6699 L 42.041 2.63672 C 42.6758 1.5625 42.334 0.390625 41.3086 -0.244141 C 40.2832 -0.830078 39.1113 -0.488281 38.4277 0.585938 L 33.252 9.66797 C 32.6172 10.6445 32.9102 11.8652 33.9844 12.4512 C 35.0098 13.0371 36.2305 12.6953 36.8164 11.6699 Z"/>
  </g>
  <g id="Thin-S" transform="matrix(1 0 0 1 806.544 696)">
   <path d="M 23.7793 -18.3105 L 71.7773 -18.3105 C 83.7402 -18.3105 92.9199 -27.3438 92.9199 -38.623 C 92.9199 -50.1465 83.252 -58.6426 70.752 -58.6426 C 65.9668 -68.4082 57.6172 -74.707 46.0449 -74.707 C 32.1777 -74.707 20.752 -63.4277 19.5801 -49.2188 C 12.4512 -47.3145 6.83594 -41.6504 6.83594 -33.6426 C 6.83594 -25.2441 13.0859 -18.3105 23.7793 -18.3105 Z M 23.7793 -21.5332 C 14.8926 -21.5332 10.0586 -26.9531 10.0586 -33.5938 C 10.0586 -39.5508 14.0137 -44.2871 20.8008 -46.0938 C 22.2656 -46.4844 22.7051 -47.0703 22.8027 -48.3887 C 23.584 -61.2793 34.082 -71.4844 46.0449 -71.4844 C 56.2988 -71.4844 63.6719 -65.7227 67.8223 -57.0801 C 68.457 -55.8105 69.1895 -55.3711 70.752 -55.3711 C 81.8359 -55.3711 89.6484 -47.8516 89.6484 -38.4766 C 89.6484 -29.1504 81.8848 -21.5332 71.9238 -21.5332 Z M 53.5156 0.146484 L 59.3262 -9.91211 C 59.8145 -10.6934 59.5703 -11.5234 58.8867 -11.9141 C 58.2031 -12.3047 57.4219 -12.0605 56.9336 -11.2793 L 51.123 -1.2207 C 50.6836 -0.439453 50.8789 0.341797 51.5625 0.78125 C 52.2461 1.17188 53.0762 0.927734 53.5156 0.146484 Z M 23.0469 0.146484 L 28.8574 -9.91211 C 29.3457 -10.6934 29.1504 -11.4746 28.418 -11.9141 C 27.7832 -12.3047 27.002 -12.0605 26.4648 -11.2793 L 20.6543 -1.2207 C 20.2148 -0.439453 20.4102 0.390625 21.0938 0.78125 C 21.8262 1.17188 22.6074 0.927734 23.0469 0.146484 Z M 65.625 10.8398 L 71.4355 0.830078 C 71.9238 0 71.6797 -0.78125 70.9961 -1.2207 C 70.3125 -1.5625 69.5312 -1.36719 69.043 -0.537109 L 63.2324 9.52148 C 62.793 10.3027 62.9395 11.084 63.6719 11.4746 C 64.3555 11.9141 65.1855 11.6211 65.625 10.8398 Z M 35.1562 10.8398 L 40.9668 0.830078 C 41.4551 0 41.2109 -0.78125 40.5273 -1.17188 C 39.8438 -1.5625 39.0625 -1.36719 38.5742 -0.537109 L 32.7637 9.52148 C 32.3242 10.3027 32.5195 11.084 33.2031 11.5234 C 33.8867 11.9141 34.7168 11.6699 35.1562 10.8398 Z"/>
  </g>
  <g id="Ultralight-S" transform="matrix(1 0 0 1 510.102 696)">
   <path d="M 23.3887 -18.8965 L 71.582 -18.8965 C 83.3008 -18.8965 92.3828 -27.7344 92.3828 -38.8184 C 92.3828 -50.0977 82.9102 -58.4473 70.5566 -58.4473 C 65.7715 -68.3105 57.6172 -74.707 45.8496 -74.707 C 32.1777 -74.707 20.9473 -63.4277 19.7754 -49.2188 C 12.5977 -47.3633 6.83594 -41.7969 6.83594 -33.8379 C 6.83594 -25.6836 12.9395 -18.8965 23.3887 -18.8965 Z M 23.3887 -20.9961 C 14.1602 -20.9961 8.93555 -26.8555 8.93555 -33.8379 C 8.93555 -40.2832 13.3789 -45.3125 20.2637 -47.1191 C 21.4844 -47.4121 21.8262 -47.9004 21.875 -48.877 C 22.6074 -61.9141 33.5449 -72.6074 45.8496 -72.6074 C 56.7383 -72.6074 64.3555 -66.4551 68.5059 -57.7637 C 68.9941 -56.6895 69.6289 -56.3477 70.8984 -56.3477 C 81.9336 -56.3477 90.2832 -48.584 90.2832 -38.7207 C 90.2832 -29.0039 82.0801 -20.9961 71.582 -20.9961 Z M 52.5879 -0.244141 L 58.7402 -10.8398 C 59.1309 -11.4746 58.9844 -12.0605 58.4473 -12.4023 C 57.959 -12.6465 57.373 -12.5 56.9824 -11.8164 L 50.8301 -1.26953 C 50.4883 -0.585938 50.5859 0 51.123 0.292969 C 51.6602 0.634766 52.2461 0.390625 52.5879 -0.244141 Z M 22.1191 -0.244141 L 28.2715 -10.8398 C 28.6621 -11.4746 28.5156 -12.0605 27.9785 -12.4023 C 27.4902 -12.6465 26.9043 -12.5 26.5137 -11.8164 L 20.3613 -1.26953 C 20.0195 -0.585938 20.1172 0 20.6543 0.292969 C 21.1914 0.634766 21.7773 0.390625 22.1191 -0.244141 Z M 64.7461 10.4492 L 70.8984 -0.146484 C 71.2891 -0.78125 71.1426 -1.36719 70.6055 -1.70898 C 70.1172 -1.95312 69.5312 -1.80664 69.1406 -1.12305 L 62.9883 9.42383 C 62.6465 10.1074 62.7441 10.6934 63.2812 10.9863 C 63.8184 11.3281 64.4043 11.084 64.7461 10.4492 Z M 34.2773 10.4492 L 40.4297 -0.146484 C 40.8203 -0.78125 40.6738 -1.36719 40.1367 -1.70898 C 39.6484 -1.95312 39.0625 -1.80664 38.6719 -1.12305 L 32.5195 9.42383 C 32.1777 10.1074 32.2754 10.6934 32.8125 10.9863 C 33.3496 11.3281 33.9355 11.1328 34.2773 10.4492 Z"/>
  </g>
 </g>
</svg>
