<?xml version="1.0" encoding="UTF-8"?>
<!--Generator: Apple Native CoreSVG 123-->
<!DOCTYPE svg
PUBLIC "-//W3C//DTD SVG 1.1//EN"
       "http://www.w3.org/Graphics/SVG/1.1/DTD/svg11.dtd">
<svg version="1.1" xmlns="http://www.w3.org/2000/svg" xmlns:xlink="http://www.w3.org/1999/xlink" width="3300" height="2200">
 <!--glyph: "uni1001D9.medium", point size: 100.000000, font version: "Version 15.0d7e11", template writer version: "5"-->
 <g id="Notes">
  <rect height="2200" id="artboard" style="fill:white;opacity:1" width="3300" x="0" y="0"/>
  <line id="" style="fill:none;stroke:black;opacity:1;stroke-width:0.5;" x1="263" x2="3036" y1="292" y2="292"/>
  <text style="stroke:none;fill:black;font-family:-apple-system,&quot;SF Pro Display&quot;,&quot;SF Pro Text&quot;,Helvetica,sans-serif;font-weight:bold;" transform="matrix(1 0 0 1 263 322)">Weight/Scale Variations</text>
  <text style="stroke:none;fill:black;font-family:-apple-system,&quot;SF Pro Display&quot;,&quot;SF Pro Text&quot;,Helvetica,sans-serif;text-anchor:middle;" transform="matrix(1 0 0 1 559.711 322)">Ultralight</text>
  <text style="stroke:none;fill:black;font-family:-apple-system,&quot;SF Pro Display&quot;,&quot;SF Pro Text&quot;,Helvetica,sans-serif;text-anchor:middle;" transform="matrix(1 0 0 1 856.422 322)">Thin</text>
  <text style="stroke:none;fill:black;font-family:-apple-system,&quot;SF Pro Display&quot;,&quot;SF Pro Text&quot;,Helvetica,sans-serif;text-anchor:middle;" transform="matrix(1 0 0 1 1153.13 322)">Light</text>
  <text style="stroke:none;fill:black;font-family:-apple-system,&quot;SF Pro Display&quot;,&quot;SF Pro Text&quot;,Helvetica,sans-serif;text-anchor:middle;" transform="matrix(1 0 0 1 1449.84 322)">Regular</text>
  <text style="stroke:none;fill:black;font-family:-apple-system,&quot;SF Pro Display&quot;,&quot;SF Pro Text&quot;,Helvetica,sans-serif;text-anchor:middle;" transform="matrix(1 0 0 1 1746.56 322)">Medium</text>
  <text style="stroke:none;fill:black;font-family:-apple-system,&quot;SF Pro Display&quot;,&quot;SF Pro Text&quot;,Helvetica,sans-serif;text-anchor:middle;" transform="matrix(1 0 0 1 2043.27 322)">Semibold</text>
  <text style="stroke:none;fill:black;font-family:-apple-system,&quot;SF Pro Display&quot;,&quot;SF Pro Text&quot;,Helvetica,sans-serif;text-anchor:middle;" transform="matrix(1 0 0 1 2339.98 322)">Bold</text>
  <text style="stroke:none;fill:black;font-family:-apple-system,&quot;SF Pro Display&quot;,&quot;SF Pro Text&quot;,Helvetica,sans-serif;text-anchor:middle;" transform="matrix(1 0 0 1 2636.69 322)">Heavy</text>
  <text style="stroke:none;fill:black;font-family:-apple-system,&quot;SF Pro Display&quot;,&quot;SF Pro Text&quot;,Helvetica,sans-serif;text-anchor:middle;" transform="matrix(1 0 0 1 2933.4 322)">Black</text>
  <line id="" style="fill:none;stroke:black;opacity:1;stroke-width:0.5;" x1="263" x2="3036" y1="1903" y2="1903"/>
  <g id="" transform="matrix(1 0 0 1 263 1933)">
   <path d="M 9.24805 0.830078 C 13.5547 0.830078 17.1387 -2.74414 17.1387 -7.05078 C 17.1387 -11.3574 13.5449 -14.9316 9.23828 -14.9316 C 4.94141 -14.9316 1.36719 -11.3574 1.36719 -7.05078 C 1.36719 -2.74414 4.95117 0.830078 9.24805 0.830078 Z M 9.24805 -0.654297 C 5.70312 -0.654297 2.87109 -3.49609 2.87109 -7.05078 C 2.87109 -10.6055 5.69336 -13.4473 9.23828 -13.4473 C 12.793 -13.4473 15.6348 -10.6055 15.6445 -7.05078 C 15.6543 -3.49609 12.8027 -0.654297 9.24805 -0.654297 Z M 9.22852 -3.42773 C 9.69727 -3.42773 9.9707 -3.74023 9.9707 -4.25781 L 9.9707 -6.31836 L 12.1973 -6.31836 C 12.6953 -6.31836 13.0371 -6.57227 13.0371 -7.04102 C 13.0371 -7.51953 12.7148 -7.7832 12.1973 -7.7832 L 9.9707 -7.7832 L 9.9707 -10.0098 C 9.9707 -10.5273 9.69727 -10.8496 9.22852 -10.8496 C 8.75977 -10.8496 8.50586 -10.5078 8.50586 -10.0098 L 8.50586 -7.7832 L 6.29883 -7.7832 C 5.78125 -7.7832 5.44922 -7.51953 5.44922 -7.04102 C 5.44922 -6.57227 5.80078 -6.31836 6.29883 -6.31836 L 8.50586 -6.31836 L 8.50586 -4.25781 C 8.50586 -3.75977 8.75977 -3.42773 9.22852 -3.42773 Z"/>
  </g>
  <g id="" transform="matrix(1 0 0 1 281.506 1933)">
   <path d="M 11.709 2.91016 C 17.1582 2.91016 21.6699 -1.60156 21.6699 -7.05078 C 21.6699 -12.4902 17.1484 -17.0117 11.6992 -17.0117 C 6.25977 -17.0117 1.74805 -12.4902 1.74805 -7.05078 C 1.74805 -1.60156 6.26953 2.91016 11.709 2.91016 Z M 11.709 1.25 C 7.09961 1.25 3.41797 -2.44141 3.41797 -7.05078 C 3.41797 -11.6504 7.08984 -15.3516 11.6992 -15.3516 C 16.3086 -15.3516 20 -11.6504 20.0098 -7.05078 C 20.0195 -2.44141 16.3184 1.25 11.709 1.25 Z M 11.6895 -2.41211 C 12.207 -2.41211 12.5195 -2.77344 12.5195 -3.33984 L 12.5195 -6.23047 L 15.5762 -6.23047 C 16.123 -6.23047 16.5039 -6.51367 16.5039 -7.03125 C 16.5039 -7.55859 16.1426 -7.86133 15.5762 -7.86133 L 12.5195 -7.86133 L 12.5195 -10.9277 C 12.5195 -11.5039 12.207 -11.8555 11.6895 -11.8555 C 11.1719 -11.8555 10.8789 -11.4844 10.8789 -10.9277 L 10.8789 -7.86133 L 7.83203 -7.86133 C 7.26562 -7.86133 6.89453 -7.55859 6.89453 -7.03125 C 6.89453 -6.51367 7.28516 -6.23047 7.83203 -6.23047 L 10.8789 -6.23047 L 10.8789 -3.33984 C 10.8789 -2.79297 11.1719 -2.41211 11.6895 -2.41211 Z"/>
  </g>
  <g id="" transform="matrix(1 0 0 1 304.924 1933)">
   <path d="M 14.9707 5.67383 C 21.9336 5.67383 27.6953 -0.078125 27.6953 -7.04102 C 27.6953 -14.0039 21.9238 -19.7559 14.9609 -19.7559 C 8.00781 -19.7559 2.25586 -14.0039 2.25586 -7.04102 C 2.25586 -0.078125 8.01758 5.67383 14.9707 5.67383 Z M 14.9707 3.85742 C 8.93555 3.85742 4.08203 -1.00586 4.08203 -7.04102 C 4.08203 -13.0762 8.92578 -17.9395 14.9609 -17.9395 C 21.0059 -17.9395 25.8594 -13.0762 25.8691 -7.04102 C 25.8789 -1.00586 21.0156 3.85742 14.9707 3.85742 Z M 14.9512 -1.06445 C 15.5176 -1.06445 15.8691 -1.45508 15.8691 -2.06055 L 15.8691 -6.13281 L 20.1074 -6.13281 C 20.6934 -6.13281 21.1133 -6.46484 21.1133 -7.02148 C 21.1133 -7.59766 20.7227 -7.93945 20.1074 -7.93945 L 15.8691 -7.93945 L 15.8691 -12.1875 C 15.8691 -12.8027 15.5176 -13.1934 14.9512 -13.1934 C 14.3848 -13.1934 14.0625 -12.7832 14.0625 -12.1875 L 14.0625 -7.93945 L 9.83398 -7.93945 C 9.21875 -7.93945 8.80859 -7.59766 8.80859 -7.02148 C 8.80859 -6.46484 9.23828 -6.13281 9.83398 -6.13281 L 14.0625 -6.13281 L 14.0625 -2.06055 C 14.0625 -1.47461 14.3848 -1.06445 14.9512 -1.06445 Z"/>
  </g>
  <text style="stroke:none;fill:black;font-family:-apple-system,&quot;SF Pro Display&quot;,&quot;SF Pro Text&quot;,Helvetica,sans-serif;font-weight:bold;" transform="matrix(1 0 0 1 263 1953)">Design Variations</text>
  <text style="stroke:none;fill:black;font-family:-apple-system,&quot;SF Pro Display&quot;,&quot;SF Pro Text&quot;,Helvetica,sans-serif;" transform="matrix(1 0 0 1 263 1971)">Symbols are supported in up to nine weights and three scales.</text>
  <text style="stroke:none;fill:black;font-family:-apple-system,&quot;SF Pro Display&quot;,&quot;SF Pro Text&quot;,Helvetica,sans-serif;" transform="matrix(1 0 0 1 263 1989)">For optimal layout with text and other symbols, vertically align</text>
  <text style="stroke:none;fill:black;font-family:-apple-system,&quot;SF Pro Display&quot;,&quot;SF Pro Text&quot;,Helvetica,sans-serif;" transform="matrix(1 0 0 1 263 2007)">symbols with the adjacent text.</text>
  <rect height="14" id="" style="fill:#00AEEF;stroke:none;opacity:0.4;" width="3" x="776" y="1919"/>
  <g id="" transform="matrix(1 0 0 1 779 1933)">
   <path d="M 10.5273 0 L 12.373 0 L 7.17773 -14.0918 L 5.43945 -14.0918 L 0.244141 0 L 2.08984 0 L 3.50586 -4.0332 L 9.11133 -4.0332 Z M 6.2793 -11.9531 L 6.33789 -11.9531 L 8.59375 -5.52734 L 4.02344 -5.52734 Z"/>
  </g>
  <rect height="14" id="" style="fill:#00AEEF;stroke:none;opacity:0.4;" width="3" x="791.617" y="1919"/>
  <text style="stroke:none;fill:black;font-family:-apple-system,&quot;SF Pro Display&quot;,&quot;SF Pro Text&quot;,Helvetica,sans-serif;font-weight:bold;" transform="matrix(1 0 0 1 776 1953)">Margins</text>
  <text style="stroke:none;fill:black;font-family:-apple-system,&quot;SF Pro Display&quot;,&quot;SF Pro Text&quot;,Helvetica,sans-serif;" transform="matrix(1 0 0 1 776 1971)">Leading and trailing margins on the left and right side of each symbol</text>
  <text style="stroke:none;fill:black;font-family:-apple-system,&quot;SF Pro Display&quot;,&quot;SF Pro Text&quot;,Helvetica,sans-serif;" transform="matrix(1 0 0 1 776 1989)">can be adjusted by modifying the width of the blue rectangles.</text>
  <text style="stroke:none;fill:black;font-family:-apple-system,&quot;SF Pro Display&quot;,&quot;SF Pro Text&quot;,Helvetica,sans-serif;" transform="matrix(1 0 0 1 776 2007)">Modifications are automatically applied proportionally to all</text>
  <text style="stroke:none;fill:black;font-family:-apple-system,&quot;SF Pro Display&quot;,&quot;SF Pro Text&quot;,Helvetica,sans-serif;" transform="matrix(1 0 0 1 776 2025)">scales and weights.</text>
  <g id="" transform="matrix(1 0 0 1 1289 1933)">
   <path d="M 2.83203 3.11523 L 4.375 4.6582 C 5.22461 5.48828 6.19141 5.41992 7.06055 4.46289 L 17.2754 -6.66016 C 17.7051 -6.36719 18.0957 -6.37695 18.5645 -6.47461 L 19.6094 -6.68945 L 20.3027 -5.99609 L 20.2539 -5.47852 C 20.1855 -4.95117 20.3516 -4.53125 20.8496 -4.0332 L 21.6602 -3.22266 C 22.168 -2.71484 22.8223 -2.68555 23.3008 -3.16406 L 26.5527 -6.41602 C 27.0312 -6.89453 27.0117 -7.54883 26.5039 -8.05664 L 25.6836 -8.87695 C 25.1855 -9.375 24.7754 -9.55078 24.2383 -9.47266 L 23.7109 -9.41406 L 23.0566 -10.0781 L 23.3398 -11.2207 C 23.4863 -11.7871 23.3398 -12.2559 22.7148 -12.8613 L 20.3027 -15.2539 C 16.7578 -18.7793 12.2266 -18.6719 9.11133 -15.5371 C 8.69141 -15.1074 8.64258 -14.5215 8.91602 -14.0918 C 9.15039 -13.7207 9.62891 -13.4961 10.2734 -13.6621 C 11.7871 -14.043 13.3008 -13.9258 14.7852 -12.9199 L 14.1602 -11.3379 C 13.9258 -10.752 13.9453 -10.2734 14.1797 -9.83398 L 3.01758 0.439453 C 2.08008 1.30859 1.97266 2.25586 2.83203 3.11523 Z M 10.6738 -15.1465 C 13.3398 -17.1387 16.6504 -16.8262 19.0527 -14.4141 L 21.6797 -11.8066 C 21.9141 -11.5723 21.9434 -11.3867 21.8848 -11.0938 L 21.5039 -9.53125 L 23.0762 -7.95898 L 24.043 -8.04688 C 24.3262 -8.07617 24.4141 -8.05664 24.6387 -7.83203 L 25.2637 -7.20703 L 22.5098 -4.46289 L 21.8848 -5.07812 C 21.6602 -5.30273 21.6406 -5.40039 21.6699 -5.68359 L 21.7578 -6.64062 L 20.1953 -8.20312 L 18.5742 -7.89062 C 18.291 -7.83203 18.1445 -7.83203 17.9102 -8.07617 L 15.7324 -10.2539 C 15.5078 -10.4883 15.4785 -10.625 15.6055 -10.9473 L 16.5527 -13.2227 C 14.9512 -14.7559 12.8418 -15.6055 10.8008 -14.9512 C 10.7129 -14.9219 10.6445 -14.9414 10.6152 -14.9805 C 10.5859 -15.0293 10.5859 -15.0781 10.6738 -15.1465 Z M 4.10156 2.41211 C 3.61328 1.91406 3.78906 1.61133 4.12109 1.30859 L 15.0781 -8.80859 L 16.3086 -7.57812 L 6.15234 3.34961 C 5.84961 3.68164 5.46875 3.7793 5.06836 3.37891 Z"/>
  </g>
  <text style="stroke:none;fill:black;font-family:-apple-system,&quot;SF Pro Display&quot;,&quot;SF Pro Text&quot;,Helvetica,sans-serif;font-weight:bold;" transform="matrix(1 0 0 1 1289 1953)">Exporting</text>
  <text style="stroke:none;fill:black;font-family:-apple-system,&quot;SF Pro Display&quot;,&quot;SF Pro Text&quot;,Helvetica,sans-serif;" transform="matrix(1 0 0 1 1289 1971)">Symbols should be outlined when exporting to ensure the</text>
  <text style="stroke:none;fill:black;font-family:-apple-system,&quot;SF Pro Display&quot;,&quot;SF Pro Text&quot;,Helvetica,sans-serif;" transform="matrix(1 0 0 1 1289 1989)">design is preserved when submitting to Xcode.</text>
  <text id="template-version" style="stroke:none;fill:black;font-family:-apple-system,&quot;SF Pro Display&quot;,&quot;SF Pro Text&quot;,Helvetica,sans-serif;text-anchor:end;" transform="matrix(1 0 0 1 3036 1933)">Template v.1.0</text>
  <text style="stroke:none;fill:black;font-family:-apple-system,&quot;SF Pro Display&quot;,&quot;SF Pro Text&quot;,Helvetica,sans-serif;text-anchor:end;" transform="matrix(1 0 0 1 3036 1951)">Generated from cloud.sun.bolt.fill</text>
  <text style="stroke:none;fill:black;font-family:-apple-system,&quot;SF Pro Display&quot;,&quot;SF Pro Text&quot;,Helvetica,sans-serif;text-anchor:end;" transform="matrix(1 0 0 1 3036 1969)">Typeset at 100 points</text>
  <text style="stroke:none;fill:black;font-family:-apple-system,&quot;SF Pro Display&quot;,&quot;SF Pro Text&quot;,Helvetica,sans-serif;" transform="matrix(1 0 0 1 263 726)">Small</text>
  <text style="stroke:none;fill:black;font-family:-apple-system,&quot;SF Pro Display&quot;,&quot;SF Pro Text&quot;,Helvetica,sans-serif;" transform="matrix(1 0 0 1 263 1156)">Medium</text>
  <text style="stroke:none;fill:black;font-family:-apple-system,&quot;SF Pro Display&quot;,&quot;SF Pro Text&quot;,Helvetica,sans-serif;" transform="matrix(1 0 0 1 263 1586)">Large</text>
 </g>
 <g id="Guides">
  <g id="H-reference" style="fill:#27AAE1;stroke:none;" transform="matrix(1 0 0 1 339 696)">
   <path d="M 54.9316 0 L 57.666 0 L 30.5664 -70.459 L 28.0762 -70.459 L 0.976562 0 L 3.66211 0 L 12.9395 -24.4629 L 45.7031 -24.4629 Z M 29.1992 -67.0898 L 29.4434 -67.0898 L 44.8242 -26.709 L 13.8184 -26.709 Z"/>
  </g>
  <line id="Baseline-S" style="fill:none;stroke:#27AAE1;opacity:1;stroke-width:0.577;" x1="263" x2="3036" y1="696" y2="696"/>
  <line id="Capline-S" style="fill:none;stroke:#27AAE1;opacity:1;stroke-width:0.577;" x1="263" x2="3036" y1="625.541" y2="625.541"/>
  <g id="H-reference" style="fill:#27AAE1;stroke:none;" transform="matrix(1 0 0 1 339 1126)">
   <path d="M 54.9316 0 L 57.666 0 L 30.5664 -70.459 L 28.0762 -70.459 L 0.976562 0 L 3.66211 0 L 12.9395 -24.4629 L 45.7031 -24.4629 Z M 29.1992 -67.0898 L 29.4434 -67.0898 L 44.8242 -26.709 L 13.8184 -26.709 Z"/>
  </g>
  <line id="Baseline-M" style="fill:none;stroke:#27AAE1;opacity:1;stroke-width:0.577;" x1="263" x2="3036" y1="1126" y2="1126"/>
  <line id="Capline-M" style="fill:none;stroke:#27AAE1;opacity:1;stroke-width:0.577;" x1="263" x2="3036" y1="1055.54" y2="1055.54"/>
  <g id="H-reference" style="fill:#27AAE1;stroke:none;" transform="matrix(1 0 0 1 339 1556)">
   <path d="M 54.9316 0 L 57.666 0 L 30.5664 -70.459 L 28.0762 -70.459 L 0.976562 0 L 3.66211 0 L 12.9395 -24.4629 L 45.7031 -24.4629 Z M 29.1992 -67.0898 L 29.4434 -67.0898 L 44.8242 -26.709 L 13.8184 -26.709 Z"/>
  </g>
  <line id="Baseline-L" style="fill:none;stroke:#27AAE1;opacity:1;stroke-width:0.577;" x1="263" x2="3036" y1="1556" y2="1556"/>
  <line id="Capline-L" style="fill:none;stroke:#27AAE1;opacity:1;stroke-width:0.577;" x1="263" x2="3036" y1="1485.54" y2="1485.54"/>
  <rect height="119.336" id="left-margin" style="fill:#00AEEF;stroke:none;opacity:0.4;" width="8.74023" x="1370.4" y="1030.79"/>
  <rect height="119.336" id="right-margin" style="fill:#00AEEF;stroke:none;opacity:0.4;" width="8.74023" x="1520.55" y="1030.79"/>
 </g>
 <g id="Symbols">
  <g id="Black-L" transform="matrix(1 0 0 1 2824.32 1556)">
   <path d="M 138.623 -104.785 C 142.725 -104.785 146.094 -108.301 146.094 -112.354 L 146.094 -123.193 C 146.094 -127.344 142.725 -130.713 138.623 -130.713 C 134.521 -130.713 131.201 -127.344 131.201 -123.193 L 131.201 -112.354 C 131.201 -108.301 134.521 -104.785 138.623 -104.785 Z M 97.998 -92.4805 C 100.977 -89.502 105.762 -89.502 108.643 -92.3828 C 111.475 -95.2637 111.426 -99.9512 108.545 -102.93 L 100.928 -110.693 C 98.0957 -113.672 93.1641 -113.574 90.2832 -110.693 C 87.4023 -107.812 87.5488 -103.027 90.4297 -100.195 Z M 168.652 -92.2852 C 171.533 -89.4043 176.416 -89.502 179.297 -92.4316 L 186.963 -100.049 C 189.893 -102.93 189.893 -107.764 187.012 -110.645 C 184.131 -113.525 179.395 -113.477 176.465 -110.547 L 168.75 -102.93 C 165.771 -100.049 165.82 -95.166 168.652 -92.2852 Z M 157.812 -35.8398 C 166.064 -41.6504 171.484 -51.416 171.484 -62.4512 C 171.484 -80.5176 156.836 -95.1172 138.77 -95.1172 C 127.002 -95.1172 116.65 -88.9648 111.377 -80.3223 C 114.258 -77.4902 116.748 -74.1699 118.848 -70.166 C 138.477 -69.043 154.395 -55.1758 157.812 -35.8398 Z M 39.1602 7.32422 L 114.844 7.32422 C 133.35 7.32422 147.314 -7.03125 147.314 -26.0254 C 147.314 -45.8008 132.471 -60.2539 112.109 -60.2051 C 105.615 -72.3145 93.2617 -83.1055 73.3887 -83.1055 C 50.7324 -83.1055 32.0801 -66.3574 30.2734 -44.1895 C 18.75 -41.1133 11.2793 -31.25 11.2793 -18.9453 C 11.2793 -3.32031 22.5586 7.32422 39.1602 7.32422 Z M 188.525 -54.9805 L 199.365 -54.9805 C 203.467 -54.9805 206.885 -58.252 206.885 -62.3535 C 206.885 -66.4551 203.467 -69.873 199.365 -69.873 L 188.525 -69.873 C 184.473 -69.873 180.957 -66.4551 180.957 -62.3535 C 180.957 -58.252 184.473 -54.9805 188.525 -54.9805 Z M 176.367 -14.1113 C 179.346 -11.1816 184.082 -11.1328 186.963 -14.0137 C 189.844 -16.8945 189.746 -21.6309 186.865 -24.6094 L 179.248 -32.373 C 176.416 -35.3027 171.484 -35.2539 168.604 -32.373 C 165.723 -29.4922 165.869 -24.707 168.75 -21.8262 Z M 97.8027 29.7363 L 83.1055 29.7363 L 88.2324 19.873 C 88.9648 18.5059 88.4277 17.4316 86.9629 17.4316 L 68.6035 17.4316 C 66.7969 17.4316 66.2109 18.0664 65.625 19.3848 L 56.8848 39.2578 C 56.25 40.7715 56.8359 41.7969 58.4961 41.7969 L 70.459 41.7969 L 61.8164 62.7441 C 61.4746 63.5742 61.6699 64.3066 62.2559 64.5508 C 62.793 64.7461 63.4766 64.5996 64.209 63.9648 L 98.7305 32.959 C 100.244 31.6895 99.707 29.7363 97.8027 29.7363 Z"/>
  </g>
  <g id="Heavy-L" transform="matrix(1 0 0 1 2529.27 1556)">
   <path d="M 136.182 -103.662 C 139.893 -103.662 142.92 -106.787 142.92 -110.498 L 142.92 -122.217 C 142.92 -125.977 139.893 -129.053 136.182 -129.053 C 132.471 -129.053 129.443 -125.977 129.443 -122.217 L 129.443 -110.498 C 129.443 -106.787 132.471 -103.662 136.182 -103.662 Z M 96.7773 -91.4062 C 99.4629 -88.7207 103.809 -88.7207 106.396 -91.3086 C 108.984 -93.8965 108.887 -98.1445 106.299 -100.83 L 98.0469 -109.229 C 95.459 -111.914 91.0645 -111.865 88.4277 -109.229 C 85.8398 -106.641 85.9375 -102.344 88.5254 -99.707 Z M 166.016 -91.2598 C 168.555 -88.6719 172.998 -88.7207 175.586 -91.3574 L 183.936 -99.6582 C 186.572 -102.246 186.572 -106.592 183.936 -109.229 C 181.348 -111.816 177.051 -111.768 174.414 -109.131 L 166.064 -100.83 C 163.428 -98.2422 163.428 -93.8477 166.016 -91.2598 Z M 154.443 -34.8145 C 162.988 -40.7227 168.555 -50.4883 168.555 -61.5723 C 168.555 -79.3945 154.102 -93.7988 136.279 -93.7988 C 124.512 -93.7988 114.209 -87.5488 109.033 -78.6621 C 111.865 -75.8789 114.307 -72.6074 116.309 -68.7012 C 136.084 -67.4805 151.367 -53.9062 154.443 -34.8145 Z M 38.5742 6.29883 L 112.598 6.29883 C 130.859 6.29883 144.727 -7.8125 144.727 -26.3672 C 144.727 -45.459 130.127 -59.5703 110.156 -59.5215 C 103.467 -72.168 90.9668 -82.3242 72.168 -82.3242 C 50.0977 -82.3242 31.8359 -65.7715 29.9805 -43.9941 C 18.6035 -40.918 11.2793 -31.25 11.2793 -19.2383 C 11.2793 -4.05273 22.3633 6.29883 38.5742 6.29883 Z M 185.059 -54.834 L 196.777 -54.834 C 200.537 -54.834 203.564 -57.8125 203.564 -61.5234 C 203.613 -65.2344 200.537 -68.3105 196.777 -68.3105 L 185.059 -68.3105 C 181.396 -68.3105 178.223 -65.2344 178.223 -61.5234 C 178.223 -57.8125 181.396 -54.834 185.059 -54.834 Z M 174.365 -13.8184 C 177.002 -11.1816 181.299 -11.1816 183.936 -13.7695 C 186.523 -16.3574 186.426 -20.6543 183.838 -23.3398 L 175.537 -31.6895 C 172.998 -34.3262 168.555 -34.3262 165.967 -31.6895 C 163.379 -29.1016 163.428 -24.7559 166.064 -22.168 Z M 95.5566 28.8086 L 81.4941 28.8086 L 86.8652 18.6035 C 87.5977 17.2363 87.0117 16.1621 85.5957 16.1621 L 68.8965 16.1621 C 67.1387 16.1621 66.5039 16.7969 65.918 18.1152 L 57.4219 37.5977 C 56.7383 39.1113 57.373 40.0879 58.9844 40.0879 L 70.5078 40.0879 L 62.0117 60.5957 C 61.6699 61.4746 61.8652 62.1582 62.4512 62.4023 C 63.0371 62.6465 63.7207 62.5 64.4043 61.8164 L 96.5332 31.9824 C 97.9492 30.7129 97.4121 28.8086 95.5566 28.8086 Z"/>
  </g>
  <g id="Bold-L" transform="matrix(1 0 0 1 2234.39 1556)">
   <path d="M 133.447 -102.393 C 136.719 -102.393 139.404 -105.176 139.404 -108.398 L 139.404 -121.143 C 139.404 -124.463 136.719 -127.148 133.447 -127.148 C 130.176 -127.148 127.49 -124.463 127.49 -121.143 L 127.49 -108.398 C 127.49 -105.176 130.176 -102.393 133.447 -102.393 Z M 95.459 -90.1855 C 97.8027 -87.793 101.66 -87.8418 103.906 -90.0879 C 106.152 -92.3828 106.104 -96.1426 103.809 -98.4863 L 94.7754 -107.617 C 92.5293 -109.961 88.6719 -109.912 86.377 -107.617 C 84.082 -105.322 84.1309 -101.514 86.4258 -99.2188 Z M 163.037 -90.0879 C 165.283 -87.793 169.141 -87.793 171.484 -90.1367 L 180.518 -99.1699 C 182.812 -101.465 182.812 -105.273 180.518 -107.568 C 178.223 -109.863 174.463 -109.863 172.119 -107.52 L 163.037 -98.4863 C 160.742 -96.1914 160.742 -92.3828 163.037 -90.0879 Z M 150.635 -33.6914 C 159.521 -39.6484 165.234 -49.4141 165.234 -60.5957 C 165.234 -78.1738 151.074 -92.334 133.496 -92.334 C 121.729 -92.334 111.523 -85.9863 106.396 -76.8555 C 109.18 -74.0234 111.523 -70.8984 113.525 -67.0898 C 133.447 -65.7227 147.998 -52.4414 150.635 -33.6914 Z M 37.9883 5.12695 L 110.059 5.12695 C 128.076 5.12695 141.846 -8.69141 141.846 -26.709 C 141.846 -45.1172 127.49 -58.7891 108.008 -58.7891 C 101.025 -72.0215 88.3789 -81.4941 70.8008 -81.4941 C 49.4141 -81.4941 31.4941 -65.1367 29.6875 -43.75 C 18.457 -40.625 11.2793 -31.25 11.2793 -19.6289 C 11.2793 -4.93164 22.1191 5.12695 37.9883 5.12695 Z M 181.152 -54.6387 L 193.945 -54.6387 C 197.217 -54.6387 199.902 -57.2754 199.902 -60.5469 C 199.902 -63.8184 197.217 -66.5039 193.945 -66.5039 L 181.152 -66.5039 C 177.93 -66.5039 175.195 -63.8184 175.195 -60.5469 C 175.195 -57.2754 177.93 -54.6387 181.152 -54.6387 Z M 172.119 -13.5254 C 174.463 -11.1816 178.223 -11.1816 180.518 -13.4766 C 182.764 -15.7715 182.764 -19.5312 180.42 -21.875 L 171.387 -30.957 C 169.141 -33.252 165.283 -33.252 162.988 -30.957 C 160.693 -28.6621 160.742 -24.8535 163.037 -22.5586 Z M 93.0176 27.7832 L 79.6875 27.7832 L 85.3027 17.1875 C 85.9863 15.8203 85.4492 14.7461 84.0332 14.7461 L 69.2383 14.7461 C 67.4805 14.7461 66.8457 15.3809 66.3086 16.6992 L 57.959 35.6934 C 57.3242 37.207 57.959 38.1836 59.5703 38.1836 L 70.6055 38.1836 L 62.2559 58.252 C 61.9141 59.1309 62.1094 59.8145 62.6953 60.0586 C 63.2812 60.3027 63.9648 60.1074 64.5996 59.4238 L 93.9941 30.9082 C 95.3613 29.5898 94.873 27.7832 93.0176 27.7832 Z"/>
  </g>
  <g id="Semibold-L" transform="matrix(1 0 0 1 1938.95 1556)">
   <path d="M 131.543 -101.514 C 134.521 -101.514 136.963 -104.053 136.963 -106.934 L 136.963 -120.41 C 136.963 -123.389 134.521 -125.83 131.543 -125.83 C 128.564 -125.83 126.172 -123.389 126.172 -120.41 L 126.172 -106.934 C 126.172 -104.053 128.564 -101.514 131.543 -101.514 Z M 94.4824 -89.3066 C 96.6309 -87.207 100.146 -87.207 102.148 -89.3066 C 104.199 -91.3574 104.199 -94.7754 102.1 -96.875 L 92.5781 -106.494 C 90.4785 -108.594 87.0605 -108.545 84.9609 -106.494 C 82.9102 -104.395 82.9102 -100.977 85.0098 -98.877 Z M 160.938 -89.2578 C 162.988 -87.207 166.504 -87.207 168.604 -89.3066 L 178.125 -98.8281 C 180.273 -100.928 180.225 -104.395 178.174 -106.494 C 176.074 -108.545 172.705 -108.545 170.557 -106.445 L 160.986 -96.875 C 158.887 -94.8242 158.936 -91.3574 160.938 -89.2578 Z M 148.047 -32.959 C 157.178 -38.916 162.988 -48.6816 162.988 -59.9121 C 162.988 -77.3438 148.975 -91.3574 131.592 -91.3574 C 119.824 -91.3574 109.668 -84.9121 104.59 -75.5859 C 107.324 -72.7539 109.619 -69.6777 111.572 -65.9668 C 131.641 -64.502 145.654 -51.4648 148.047 -32.959 Z M 37.5488 4.3457 L 108.301 4.3457 C 126.123 4.3457 139.893 -9.27734 139.893 -26.9531 C 139.893 -44.873 125.684 -58.252 106.494 -58.252 C 99.3652 -71.9238 86.5723 -80.9082 69.873 -80.9082 C 48.9258 -80.9082 31.2988 -64.6973 29.4922 -43.5547 C 18.4082 -40.4785 11.2793 -31.25 11.2793 -19.873 C 11.2793 -5.51758 21.9727 4.3457 37.5488 4.3457 Z M 178.467 -54.541 L 191.943 -54.541 C 194.922 -54.541 197.314 -56.9336 197.363 -59.9121 C 197.363 -62.8418 194.922 -65.2832 191.943 -65.2832 L 178.467 -65.2832 C 175.586 -65.2832 173.096 -62.8418 173.096 -59.9121 C 173.096 -56.9336 175.586 -54.541 178.467 -54.541 Z M 170.557 -13.2812 C 172.656 -11.1816 176.074 -11.2305 178.125 -13.2812 C 180.225 -15.3809 180.176 -18.7988 178.125 -20.8496 L 168.555 -30.4688 C 166.504 -32.5195 163.037 -32.5195 160.938 -30.4688 C 158.887 -28.3691 158.887 -24.9023 160.986 -22.8516 Z M 91.2598 27.0996 L 78.4668 27.0996 L 84.2285 16.2109 C 84.9121 14.8438 84.375 13.7695 82.959 13.7695 L 69.4824 13.7695 C 67.7246 13.7695 67.0898 14.4531 66.5527 15.7227 L 58.3496 34.375 C 57.7148 35.8887 58.3984 36.8652 60.0098 36.8652 L 70.6055 36.8652 L 62.4023 56.6406 C 62.0605 57.5195 62.2559 58.1543 62.8418 58.3984 C 63.4277 58.6426 64.1113 58.4961 64.7461 57.7637 L 92.2852 30.1758 C 93.6035 28.8574 93.0664 27.0996 91.2598 27.0996 Z"/>
  </g>
  <g id="Medium-L" transform="matrix(1 0 0 1 1643.21 1556)">
   <path d="M 130.127 -100.879 C 132.861 -100.879 135.107 -103.174 135.107 -105.859 L 135.107 -119.824 C 135.107 -122.607 132.861 -124.805 130.127 -124.805 C 127.393 -124.805 125.146 -122.607 125.146 -119.824 L 125.146 -105.859 C 125.146 -103.174 127.393 -100.879 130.127 -100.879 Z M 93.7988 -88.6719 C 95.752 -86.7188 98.9746 -86.7676 100.83 -88.6719 C 102.734 -90.5762 102.734 -93.7012 100.83 -95.6543 L 90.8691 -105.615 C 88.9648 -107.568 85.791 -107.568 83.8867 -105.615 C 81.9824 -103.711 81.9824 -100.537 83.8867 -98.6328 Z M 159.424 -88.6719 C 161.279 -86.7676 164.502 -86.7188 166.455 -88.6719 L 176.367 -98.584 C 178.32 -100.537 178.271 -103.711 176.367 -105.615 C 174.463 -107.52 171.338 -107.568 169.385 -105.615 L 159.424 -95.6543 C 157.471 -93.75 157.52 -90.5762 159.424 -88.6719 Z M 146.045 -32.373 C 155.371 -38.3789 161.23 -48.0957 161.23 -59.4238 C 161.23 -76.709 147.412 -90.5762 130.127 -90.5762 C 118.359 -90.5762 108.252 -84.082 103.223 -74.6094 C 105.908 -71.8262 108.203 -68.7988 110.107 -65.1367 C 130.273 -63.623 143.896 -50.7324 146.045 -32.373 Z M 37.207 3.71094 L 106.982 3.71094 C 124.658 3.71094 138.379 -9.76562 138.379 -27.1484 C 138.379 -44.6777 124.268 -57.8125 105.371 -57.8613 C 98.0957 -71.8262 85.2539 -80.4688 69.1895 -80.4688 C 48.5352 -80.4688 31.1523 -64.4043 29.2969 -43.457 C 18.3105 -40.332 11.2793 -31.25 11.2793 -20.0195 C 11.2793 -5.95703 21.8262 3.71094 37.207 3.71094 Z M 176.465 -54.4434 L 190.479 -54.4434 C 193.213 -54.4434 195.41 -56.6406 195.41 -59.375 C 195.459 -62.1094 193.213 -64.3555 190.479 -64.3555 L 176.465 -64.3555 C 173.779 -64.3555 171.484 -62.1094 171.484 -59.375 C 171.484 -56.6406 173.779 -54.4434 176.465 -54.4434 Z M 169.385 -13.1348 C 171.338 -11.1816 174.463 -11.2305 176.367 -13.1348 C 178.271 -15.0391 178.271 -18.2129 176.318 -20.1172 L 166.357 -30.0781 C 164.502 -31.9336 161.279 -31.9824 159.375 -30.0781 C 157.471 -28.125 157.52 -24.9512 159.424 -23.0469 Z M 89.9414 26.5625 L 77.4902 26.5625 L 83.3984 15.4785 C 84.1309 14.1113 83.5449 13.0371 82.1289 13.0371 L 69.6289 13.0371 C 67.8711 13.0371 67.2852 13.6719 66.6992 14.9902 L 58.6426 33.3496 C 57.959 34.9121 58.6914 35.8398 60.3027 35.8398 L 70.6543 35.8398 L 62.5488 55.4199 C 62.1582 56.25 62.3535 56.9336 62.9395 57.1777 C 63.5742 57.4219 64.2578 57.2266 64.8926 56.543 L 90.9668 29.5898 C 92.2363 28.2715 91.748 26.5625 89.9414 26.5625 Z"/>
  </g>
  <g id="Regular-L" transform="matrix(1 0 0 1 1347.74 1556)">
   <path d="M 128.271 -100 C 130.664 -100 132.715 -102.051 132.715 -104.395 L 132.715 -119.141 C 132.715 -121.533 130.664 -123.535 128.271 -123.535 C 125.83 -123.535 123.828 -121.533 123.828 -119.141 L 123.828 -104.395 C 123.828 -102.051 125.83 -100 128.271 -100 Z M 92.8711 -87.8418 C 94.5801 -86.084 97.5098 -86.1328 99.1211 -87.8418 C 100.781 -89.5508 100.83 -92.334 99.1211 -94.043 L 88.6719 -104.541 C 86.9141 -106.25 84.1797 -106.201 82.4707 -104.541 C 80.7617 -102.832 80.7617 -100 82.4707 -98.291 Z M 157.373 -87.8418 C 159.033 -86.1328 161.914 -86.084 163.672 -87.8418 L 174.023 -98.291 C 175.732 -100 175.732 -102.832 174.023 -104.541 C 172.314 -106.201 169.58 -106.25 167.822 -104.541 L 157.373 -94.043 C 155.664 -92.334 155.713 -89.5508 157.373 -87.8418 Z M 143.457 -31.5918 C 153.027 -37.6953 158.984 -47.3633 158.984 -58.7402 C 158.984 -75.8789 145.312 -89.5996 128.271 -89.5996 C 116.455 -89.5996 106.396 -83.0078 101.465 -73.3398 C 104.102 -70.5566 106.299 -67.5781 108.203 -64.0137 C 128.467 -62.4023 141.602 -49.707 143.457 -31.5918 Z M 36.8164 2.92969 L 105.225 2.92969 C 122.754 2.92969 136.426 -10.3516 136.426 -27.3926 C 136.426 -44.4824 122.51 -57.3242 103.906 -57.373 C 96.4355 -71.7285 83.4961 -79.8828 68.2617 -79.8828 C 48.0469 -79.8828 30.9082 -63.9648 29.1016 -43.2617 C 18.2129 -40.1855 11.2793 -31.2012 11.2793 -20.2637 C 11.2793 -6.54297 21.6797 2.92969 36.8164 2.92969 Z M 173.828 -54.3457 L 188.525 -54.3457 C 190.918 -54.3457 192.871 -56.2988 192.92 -58.7402 C 192.92 -61.1816 190.918 -63.1348 188.525 -63.1348 L 173.828 -63.1348 C 171.436 -63.1348 169.385 -61.1816 169.385 -58.7402 C 169.385 -56.2988 171.436 -54.3457 173.828 -54.3457 Z M 167.822 -12.8906 C 169.58 -11.1816 172.314 -11.2305 174.023 -12.9395 C 175.732 -14.6484 175.732 -17.4316 174.023 -19.1406 L 163.574 -29.541 C 161.865 -31.2012 159.082 -31.25 157.373 -29.541 C 155.664 -27.832 155.664 -25 157.373 -23.291 Z M 88.2324 25.8789 L 76.2695 25.8789 L 82.3242 14.502 C 83.0566 13.1348 82.4707 12.1094 81.1035 12.1094 L 69.873 12.1094 C 68.1152 12.1094 67.5293 12.7441 66.9434 14.0137 L 59.0332 32.0801 C 58.3496 33.5938 59.1309 34.5703 60.6934 34.5703 L 70.7031 34.5703 L 62.6953 53.8086 C 62.3535 54.6387 62.5488 55.3223 63.1348 55.5664 C 63.7207 55.8105 64.4043 55.6152 65.0391 54.8828 L 89.2578 28.8574 C 90.4785 27.5391 89.9902 25.8789 88.2324 25.8789 Z"/>
  </g>
  <g id="Light-L" transform="matrix(1 0 0 1 1051.62 1556)">
   <path d="M 127.832 -99.6094 C 129.639 -99.6094 131.201 -101.172 131.201 -102.93 L 131.201 -119.092 C 131.201 -120.898 129.639 -122.412 127.832 -122.412 C 126.025 -122.412 124.463 -120.898 124.463 -119.092 L 124.463 -102.93 C 124.463 -101.172 126.025 -99.6094 127.832 -99.6094 Z M 93.9941 -87.4512 C 95.3125 -86.1816 97.4609 -86.1816 98.7305 -87.4512 C 99.9512 -88.7207 100 -90.8691 98.7305 -92.1387 L 87.207 -103.613 C 85.8887 -104.932 83.8379 -104.883 82.5684 -103.613 C 81.2988 -102.344 81.25 -100.244 82.5684 -98.9258 Z M 156.934 -87.4512 C 158.203 -86.1816 160.352 -86.1816 161.67 -87.4512 L 173.096 -98.9258 C 174.414 -100.244 174.365 -102.344 173.096 -103.613 C 171.826 -104.883 169.775 -104.932 168.408 -103.613 L 156.934 -92.1387 C 155.664 -90.8691 155.713 -88.7207 156.934 -87.4512 Z M 141.699 -31.0059 C 151.611 -36.8164 158.008 -46.6309 158.008 -58.3496 C 158.008 -75.1953 144.58 -88.623 127.832 -88.623 C 115.576 -88.623 105.225 -81.4453 100.684 -71.0938 C 103.271 -68.2129 105.469 -65.1855 107.275 -61.7676 C 126.904 -60.2539 139.6 -47.9004 141.699 -31.0059 Z M 35.9375 3.32031 L 104.688 3.32031 C 121.826 3.32031 135.254 -9.61914 135.254 -26.1719 C 135.254 -42.7734 121.533 -55.2734 103.223 -55.3223 C 95.6543 -69.9707 82.9102 -78.125 67.7734 -78.125 C 47.9004 -78.125 31.1035 -62.207 29.3945 -41.5527 C 18.3105 -38.5742 11.2793 -29.834 11.2793 -19.043 C 11.2793 -5.85938 21.3379 3.32031 35.9375 3.32031 Z M 172.266 -55.0293 L 188.428 -55.0293 C 190.283 -55.0293 191.699 -56.543 191.748 -58.3496 C 191.797 -60.2051 190.283 -61.6699 188.428 -61.6699 L 172.266 -61.6699 C 170.459 -61.6699 168.945 -60.2051 168.945 -58.3496 C 168.945 -56.543 170.459 -55.0293 172.266 -55.0293 Z M 168.408 -13.0371 C 169.775 -11.7188 171.826 -11.7676 173.096 -13.0371 C 174.365 -14.3066 174.414 -16.4062 173.096 -17.7246 L 161.621 -29.1504 C 160.303 -30.4199 158.203 -30.4199 156.934 -29.1504 C 155.664 -27.8809 155.664 -25.7324 156.934 -24.4629 Z M 85.498 26.6113 L 74.3652 26.6113 L 80.8105 14.5996 C 81.4941 13.2324 80.957 12.207 79.541 12.207 L 70.9961 12.207 C 69.1895 12.207 68.6035 12.8418 68.0176 14.1113 L 60.2539 31.8359 C 59.5703 33.4473 60.4492 34.375 61.9629 34.375 L 71.2402 34.375 L 63.3789 53.2227 C 62.9883 54.1504 63.1836 54.834 63.8184 55.0781 C 64.4043 55.3223 65.1855 55.127 65.7715 54.2969 L 86.7188 29.5898 C 87.8418 28.1738 87.2559 26.6113 85.498 26.6113 Z"/>
  </g>
  <g id="Thin-L" transform="matrix(1 0 0 1 755.665 1556)">
   <path d="M 127.295 -99.1211 C 128.271 -99.1211 129.199 -100 129.199 -100.928 L 129.199 -119.092 C 129.199 -120.068 128.271 -120.898 127.295 -120.898 C 126.27 -120.898 125.342 -120.068 125.342 -119.092 L 125.342 -100.928 C 125.342 -100 126.27 -99.1211 127.295 -99.1211 Z M 156.396 -86.9629 C 157.08 -86.2305 158.301 -86.2305 159.033 -86.9629 L 171.826 -99.8047 C 172.607 -100.586 172.559 -101.709 171.826 -102.393 C 171.143 -103.125 170.02 -103.223 169.238 -102.393 L 156.396 -89.5996 C 155.664 -88.8672 155.664 -87.6465 156.396 -86.9629 Z M 95.5078 -86.9629 C 96.2402 -86.2305 97.4609 -86.2305 98.1445 -86.9629 C 98.877 -87.6465 98.877 -88.8672 98.1445 -89.5996 L 85.3027 -102.393 C 84.5215 -103.223 83.3984 -103.125 82.7148 -102.393 C 81.9824 -101.709 81.9336 -100.586 82.7148 -99.8047 Z M 139.404 -30.1758 C 149.805 -35.6445 156.738 -45.6543 156.738 -57.8613 C 156.738 -74.2676 143.604 -87.4023 127.295 -87.4023 C 114.355 -87.4023 103.662 -79.3945 99.6582 -68.0664 C 102.148 -65.1367 104.346 -62.0117 106.055 -58.7402 C 124.805 -57.3242 136.914 -45.459 139.404 -30.1758 Z M 34.7656 3.85742 L 104.004 3.85742 C 120.557 3.85742 133.643 -8.64258 133.643 -24.5117 C 133.643 -40.5762 120.215 -52.6367 102.344 -52.5391 C 94.5801 -67.7246 82.1777 -75.8301 67.0898 -75.8301 C 47.7051 -75.8301 31.3477 -59.9121 29.7852 -39.3066 C 18.457 -36.4746 11.2305 -27.9785 11.2305 -17.4316 C 11.2305 -4.93164 20.9473 3.85742 34.7656 3.85742 Z M 170.215 -56.0059 L 188.33 -56.0059 C 189.453 -56.0059 190.186 -56.8359 190.234 -57.8613 C 190.332 -58.8379 189.453 -59.668 188.33 -59.668 L 170.215 -59.668 C 169.189 -59.668 168.359 -58.8379 168.359 -57.8613 C 168.359 -56.8359 169.189 -56.0059 170.215 -56.0059 Z M 169.238 -13.1836 C 170.02 -12.4023 171.143 -12.5 171.826 -13.1836 C 172.559 -13.916 172.607 -15.0391 171.826 -15.8203 L 159.033 -28.6621 C 158.301 -29.3457 157.08 -29.3457 156.396 -28.6621 C 155.664 -27.9297 155.664 -26.709 156.396 -26.0254 Z M 81.9336 27.5879 L 71.875 27.5879 L 78.7598 14.7949 C 79.4922 13.4277 78.9062 12.3047 77.4902 12.3047 L 72.4609 12.3047 C 70.6055 12.3047 69.9707 12.9395 69.4336 14.3066 L 61.8652 31.543 C 61.1816 33.2031 62.1582 34.1309 63.7207 34.1309 L 71.9238 34.1309 L 64.2578 52.4902 C 63.8672 53.4668 64.0625 54.1504 64.6973 54.3945 C 65.332 54.6387 66.1621 54.4434 66.6992 53.5645 L 83.3008 30.5176 C 84.3262 29.0527 83.6914 27.5879 81.9336 27.5879 Z"/>
  </g>
  <g id="Ultralight-L" transform="matrix(1 0 0 1 459.345 1556)">
   <path d="M 127.002 -98.8281 C 127.588 -98.8281 128.174 -99.4141 128.174 -99.9023 L 128.174 -119.043 C 128.174 -119.678 127.588 -120.166 127.002 -120.166 C 126.367 -120.166 125.83 -119.678 125.83 -119.043 L 125.83 -99.9023 C 125.83 -99.4141 126.367 -98.8281 127.002 -98.8281 Z M 96.2891 -86.6699 C 96.7285 -86.2793 97.4609 -86.2793 97.8516 -86.6699 C 98.291 -87.1094 98.291 -87.8418 97.8516 -88.2812 L 84.375 -101.807 C 83.8379 -102.295 83.2031 -102.246 82.7637 -101.807 C 82.3242 -101.367 82.2754 -100.732 82.7637 -100.195 Z M 156.104 -86.6699 C 156.543 -86.2793 157.275 -86.2793 157.666 -86.6699 L 171.191 -100.195 C 171.729 -100.732 171.631 -101.367 171.191 -101.807 C 170.801 -102.246 170.117 -102.295 169.629 -101.807 L 156.104 -88.2812 C 155.664 -87.8418 155.664 -87.1094 156.104 -86.6699 Z M 138.232 -29.7852 C 148.877 -35.0586 156.055 -45.166 156.055 -57.5684 C 156.055 -73.8281 143.115 -86.7676 127.002 -86.7676 C 113.721 -86.7676 102.832 -78.3691 99.1211 -66.5527 C 101.611 -63.5254 103.76 -60.4004 105.42 -57.2266 C 123.73 -55.8594 135.547 -44.2383 138.232 -29.7852 Z M 34.1797 4.10156 L 103.613 4.10156 C 119.873 4.10156 132.861 -8.1543 132.861 -23.6816 C 132.861 -39.4531 119.58 -51.2695 101.904 -51.1719 C 94.043 -66.5527 81.8359 -74.6582 66.6992 -74.6582 C 47.6074 -74.6582 31.4941 -58.7402 29.9805 -38.1836 C 18.5059 -35.4004 11.2305 -27.002 11.2305 -16.6016 C 11.2305 -4.49219 20.7031 4.10156 34.1797 4.10156 Z M 169.141 -56.4941 L 188.281 -56.4941 C 189.014 -56.4941 189.404 -56.9824 189.502 -57.5684 C 189.551 -58.2031 189.014 -58.6426 188.281 -58.6426 L 169.141 -58.6426 C 168.555 -58.6426 168.066 -58.2031 168.066 -57.5684 C 168.066 -56.9824 168.555 -56.4941 169.141 -56.4941 Z M 169.629 -13.2812 C 170.117 -12.7441 170.801 -12.8418 171.191 -13.2812 C 171.631 -13.6719 171.729 -14.3555 171.191 -14.8438 L 157.666 -28.3691 C 157.275 -28.8086 156.543 -28.8086 156.104 -28.3691 C 155.664 -27.9785 155.664 -27.2461 156.104 -26.8066 Z M 80.0781 28.125 L 70.6055 28.125 L 77.7344 14.8926 C 78.4668 13.5254 77.8809 12.3535 76.416 12.3535 L 73.1934 12.3535 C 71.3379 12.3535 70.7031 12.9883 70.1172 14.4043 L 62.6953 31.3965 C 61.9629 33.1055 63.0371 33.9844 64.5996 33.9844 L 72.2656 33.9844 L 64.6973 52.1484 C 64.3066 53.125 64.5508 53.8574 65.1855 54.0527 C 65.8203 54.2969 66.6504 54.0527 67.1875 53.1738 L 81.5918 31.0059 C 82.5195 29.541 81.8359 28.125 80.0781 28.125 Z"/>
  </g>
  <g id="Black-M" transform="matrix(1 0 0 1 2846.95 1126)">
   <path d="M 110.498 -90.4785 C 113.916 -90.4785 116.65 -93.3594 116.65 -96.7285 L 116.65 -104.688 C 116.65 -108.105 113.916 -110.938 110.498 -110.938 C 107.129 -110.938 104.395 -108.105 104.395 -104.688 L 104.395 -96.7285 C 104.395 -93.3594 107.129 -90.4785 110.498 -90.4785 Z M 78.2227 -80.8594 C 80.6641 -78.418 84.6191 -78.3691 87.0117 -80.7129 C 89.4043 -83.1055 89.2578 -87.0117 86.8652 -89.502 L 81.3477 -95.2148 C 79.0527 -97.6562 74.9023 -97.6074 72.5098 -95.2148 C 70.1172 -92.8223 70.2637 -88.8672 72.6562 -86.5234 Z M 134.082 -80.6641 C 136.475 -78.2715 140.479 -78.418 142.871 -80.8105 L 148.535 -86.377 C 150.977 -88.7695 150.977 -92.7734 148.584 -95.166 C 146.191 -97.5098 142.236 -97.4609 139.795 -95.0195 L 134.18 -89.502 C 131.738 -87.1094 131.738 -83.0566 134.082 -80.6641 Z M 125.977 -36.7188 C 132.129 -41.0156 136.328 -48.6816 136.328 -57.2754 C 136.328 -71.4355 124.805 -82.9102 110.645 -82.9102 C 101.27 -82.9102 93.0176 -77.9297 89.0625 -71.1914 C 91.3574 -68.9453 93.3594 -66.2598 94.9707 -63.0371 C 109.668 -62.4023 122.656 -51.4648 125.977 -36.7188 Z M 30.6641 -0.683594 L 91.7969 -0.683594 C 106.201 -0.683594 116.992 -11.9629 116.992 -27.002 C 116.992 -42.9688 105.322 -54.4922 89.1602 -54.3945 C 84.375 -63.2324 75.0977 -72.4121 58.2031 -72.4121 C 40.0879 -72.4121 25.3418 -59.1797 23.9746 -41.5527 C 14.7461 -39.2578 8.74023 -31.3965 8.74023 -21.5332 C 8.74023 -9.08203 17.5781 -0.683594 30.6641 -0.683594 Z M 149.951 -51.123 L 157.91 -51.123 C 161.377 -51.123 164.16 -53.8086 164.16 -57.2266 C 164.16 -60.5957 161.377 -63.4277 157.91 -63.4277 L 149.951 -63.4277 C 146.582 -63.4277 143.701 -60.5957 143.701 -57.2266 C 143.701 -53.8086 146.582 -51.123 149.951 -51.123 Z M 139.746 -19.3359 C 142.188 -16.8945 146.143 -16.8457 148.535 -19.2383 C 150.879 -21.582 150.781 -25.4883 148.389 -27.9785 L 142.871 -33.6914 C 140.576 -36.1328 136.426 -36.084 134.033 -33.6914 C 131.641 -31.2988 131.787 -27.3926 134.18 -25 Z M 77.4414 16.748 L 65.5762 16.748 L 69.4824 9.27734 C 70.0195 8.20312 69.5801 7.32422 68.457 7.32422 L 53.3691 7.32422 C 51.9531 7.32422 51.4648 7.8125 51.0254 8.88672 L 44.0918 24.707 C 43.5547 25.8789 43.9941 26.6602 45.3125 26.6602 L 54.834 26.6602 L 47.998 43.2129 C 47.7051 43.8965 47.9004 44.4824 48.3398 44.6777 C 48.7793 44.873 49.3164 44.7266 49.9023 44.2383 L 78.1738 19.2871 C 79.3457 18.3105 78.9062 16.748 77.4414 16.748 Z"/>
  </g>
  <g id="Heavy-M" transform="matrix(1 0 0 1 2551.87 1126)">
   <path d="M 107.959 -89.3066 C 111.035 -89.3066 113.574 -91.9922 113.574 -95.0684 L 113.574 -103.613 C 113.574 -106.787 111.035 -109.375 107.959 -109.375 C 104.834 -109.375 102.295 -106.787 102.295 -103.613 L 102.295 -95.0684 C 102.295 -91.9922 104.834 -89.3066 107.959 -89.3066 Z M 76.6113 -79.7852 C 78.8574 -77.5391 82.4707 -77.4902 84.668 -79.6875 C 86.8164 -81.8359 86.7676 -85.4492 84.5703 -87.6953 L 78.5645 -93.8477 C 76.416 -96.0938 72.6562 -96.0449 70.459 -93.8477 C 68.3105 -91.6504 68.3594 -88.0371 70.5566 -85.8398 Z M 131.299 -79.6387 C 133.447 -77.4414 137.158 -77.5391 139.355 -79.7363 L 145.41 -85.7422 C 147.656 -87.9395 147.656 -91.6016 145.459 -93.7988 C 143.262 -95.9961 139.648 -95.9473 137.451 -93.7012 L 131.348 -87.6953 C 129.102 -85.5469 129.102 -81.7871 131.299 -79.6387 Z M 122.705 -35.791 C 129.102 -40.1855 133.398 -47.8027 133.398 -56.4453 C 133.398 -70.4102 122.021 -81.7383 108.057 -81.7383 C 98.7793 -81.7383 90.6738 -76.8066 86.6699 -69.9707 C 88.9648 -67.7734 90.8691 -65.1855 92.4805 -62.0605 C 107.471 -61.2305 119.873 -50.5371 122.705 -35.791 Z M 30.2734 -1.9043 L 89.4531 -1.9043 C 103.711 -1.9043 114.502 -12.9883 114.502 -27.6855 C 114.502 -43.0176 102.979 -54.248 87.207 -54.1992 C 82.1777 -63.5254 72.7051 -72.0215 57.0312 -72.0215 C 39.4531 -72.0215 25 -59.0332 23.6328 -41.748 C 14.5996 -39.4531 8.74023 -31.7383 8.74023 -22.168 C 8.74023 -10.1074 17.4316 -1.9043 30.2734 -1.9043 Z M 146.582 -50.7812 L 155.127 -50.7812 C 158.301 -50.7812 160.84 -53.2715 160.889 -56.3965 C 160.889 -59.4727 158.301 -62.0605 155.127 -62.0605 L 146.582 -62.0605 C 143.457 -62.0605 140.82 -59.4727 140.82 -56.3965 C 140.82 -53.2715 143.457 -50.7812 146.582 -50.7812 Z M 137.402 -18.9941 C 139.6 -16.748 143.213 -16.6992 145.41 -18.8965 C 147.607 -21.0938 147.51 -24.6582 145.312 -26.9531 L 139.307 -33.0566 C 137.207 -35.3027 133.447 -35.2539 131.25 -33.0566 C 129.053 -30.9082 129.15 -27.2461 131.348 -25.0488 Z M 75.6348 15.5273 L 64.3066 15.5273 L 68.3105 7.8125 C 68.8965 6.78711 68.457 5.9082 67.334 5.9082 L 53.418 5.9082 C 52.002 5.9082 51.5137 6.44531 51.0742 7.4707 L 44.2871 22.9004 C 43.7988 24.0723 44.2383 24.8535 45.5566 24.8535 L 54.7363 24.8535 L 48.0469 41.0645 C 47.7539 41.748 47.9492 42.2852 48.3887 42.4805 C 48.8281 42.6758 49.3652 42.5293 49.9023 42.041 L 76.416 18.0664 C 77.5391 17.041 77.0996 15.5273 75.6348 15.5273 Z"/>
  </g>
  <g id="Bold-M" transform="matrix(1 0 0 1 2257.02 1126)">
   <path d="M 105.078 -88.0371 C 107.861 -88.0371 110.156 -90.4297 110.156 -93.2129 L 110.156 -102.441 C 110.156 -105.322 107.861 -107.617 105.078 -107.617 C 102.246 -107.617 99.9512 -105.322 99.9512 -102.441 L 99.9512 -93.2129 C 99.9512 -90.4297 102.246 -88.0371 105.078 -88.0371 Z M 74.7559 -78.5645 C 76.8066 -76.5137 80.0781 -76.5137 82.0312 -78.4668 C 83.9844 -80.4688 83.9355 -83.6914 81.9824 -85.6934 L 75.4395 -92.334 C 73.4863 -94.3359 70.166 -94.2871 68.1641 -92.334 C 66.2109 -90.3809 66.2598 -87.1094 68.2617 -85.1074 Z M 128.125 -78.4668 C 130.078 -76.4648 133.398 -76.5137 135.4 -78.5156 L 141.943 -85.0586 C 143.945 -87.0117 143.945 -90.332 141.992 -92.2852 C 140.039 -94.2871 136.768 -94.2383 134.766 -92.2363 L 128.174 -85.6934 C 126.172 -83.7402 126.221 -80.4199 128.125 -78.4668 Z M 119.043 -34.7168 C 125.732 -39.3066 130.078 -46.875 130.078 -55.4688 C 130.078 -69.2871 118.945 -80.4199 105.127 -80.4199 C 96.0449 -80.4199 88.0859 -75.5371 84.0332 -68.6035 C 86.2305 -66.4551 88.1348 -63.9648 89.6973 -60.9375 C 105.029 -59.9609 116.748 -49.4629 119.043 -34.7168 Z M 29.834 -3.27148 L 86.8164 -3.27148 C 100.928 -3.27148 111.719 -14.1602 111.719 -28.418 C 111.719 -43.1641 100.391 -54.0039 85.0098 -53.9551 C 79.7852 -63.8672 70.0684 -71.6309 55.7129 -71.6309 C 38.7207 -71.6309 24.6094 -58.8379 23.1934 -41.9922 C 14.4043 -39.5996 8.74023 -32.1777 8.74023 -22.9492 C 8.74023 -11.2305 17.2852 -3.27148 29.834 -3.27148 Z M 142.773 -50.3906 L 152.002 -50.3906 C 154.834 -50.3906 157.129 -52.6367 157.178 -55.4199 C 157.178 -58.252 154.834 -60.5469 152.002 -60.5469 L 142.773 -60.5469 C 139.99 -60.5469 137.598 -58.252 137.598 -55.4199 C 137.598 -52.6367 139.99 -50.3906 142.773 -50.3906 Z M 134.717 -18.6035 C 136.719 -16.6016 139.99 -16.6016 141.943 -18.5547 C 143.945 -20.5078 143.848 -23.7793 141.895 -25.7812 L 135.352 -32.373 C 133.447 -34.375 130.078 -34.3262 128.125 -32.373 C 126.123 -30.4199 126.221 -27.1484 128.174 -25.1465 Z M 73.6816 14.209 L 62.8906 14.209 L 67.041 6.25 C 67.627 5.17578 67.1875 4.3457 66.1133 4.3457 L 53.4668 4.3457 C 52.0508 4.3457 51.5625 4.83398 51.123 5.85938 L 44.5801 20.8496 C 44.043 22.0215 44.5312 22.8027 45.8008 22.8027 L 54.6387 22.8027 L 48.0957 38.6719 C 47.8027 39.3066 47.998 39.8438 48.4375 40.0391 C 48.877 40.2344 49.4141 40.0879 49.9512 39.5996 L 74.4141 16.6504 C 75.4883 15.6738 75.0977 14.209 73.6816 14.209 Z"/>
  </g>
  <g id="Semibold-M" transform="matrix(1 0 0 1 1961.6 1126)">
   <path d="M 103.076 -87.1582 C 105.664 -87.1582 107.812 -89.3555 107.812 -91.9434 L 107.812 -101.66 C 107.812 -104.297 105.664 -106.396 103.076 -106.396 C 100.488 -106.396 98.3887 -104.297 98.3887 -101.66 L 98.3887 -91.9434 C 98.3887 -89.3555 100.488 -87.1582 103.076 -87.1582 Z M 73.4863 -77.6855 C 75.3906 -75.8301 78.418 -75.8301 80.2246 -77.6855 C 82.0312 -79.4922 81.9824 -82.4707 80.1758 -84.3262 L 73.291 -91.2598 C 71.4844 -93.1152 68.4082 -93.1152 66.6016 -91.2598 C 64.7949 -89.4531 64.8438 -86.4258 66.6504 -84.6191 Z M 125.977 -77.6367 C 127.783 -75.8301 130.859 -75.8301 132.715 -77.6855 L 139.551 -84.5703 C 141.406 -86.377 141.406 -89.4531 139.6 -91.2598 C 137.744 -93.0664 134.766 -93.0664 132.91 -91.2109 L 125.977 -84.3262 C 124.17 -82.5195 124.17 -79.4434 125.977 -77.6367 Z M 116.553 -34.0332 C 123.438 -38.6719 127.783 -46.1914 127.783 -54.834 C 127.783 -68.5059 116.797 -79.4922 103.125 -79.4922 C 94.1406 -79.4922 86.2793 -74.6582 82.2266 -67.6758 C 84.375 -65.5273 86.1816 -63.1348 87.7441 -60.1562 C 103.369 -59.082 114.6 -48.7793 116.553 -34.0332 Z M 29.541 -4.19922 L 85.0098 -4.19922 C 99.0234 -4.19922 109.766 -14.9414 109.766 -28.9551 C 109.766 -43.2129 98.584 -53.8086 83.4961 -53.8086 C 78.0762 -64.1113 68.2129 -71.3379 54.7852 -71.3379 C 38.1836 -71.3379 24.3164 -58.6914 22.9004 -42.1387 C 14.2578 -39.7461 8.74023 -32.4219 8.74023 -23.4375 C 8.74023 -12.0117 17.1875 -4.19922 29.541 -4.19922 Z M 140.137 -50.0977 L 149.854 -50.0977 C 152.49 -50.0977 154.59 -52.1973 154.59 -54.7852 C 154.59 -57.4219 152.49 -59.5215 149.854 -59.5215 L 140.137 -59.5215 C 137.598 -59.5215 135.4 -57.4219 135.4 -54.7852 C 135.4 -52.1973 137.598 -50.0977 140.137 -50.0977 Z M 132.91 -18.3105 C 134.766 -16.4551 137.744 -16.5039 139.551 -18.3105 C 141.406 -20.1172 141.357 -23.1445 139.502 -24.9512 L 132.617 -31.8848 C 130.811 -33.6914 127.783 -33.6914 125.977 -31.8848 C 124.121 -30.0781 124.17 -27.0508 125.977 -25.2441 Z M 72.3145 13.3301 L 61.9141 13.3301 L 66.2109 5.12695 C 66.748 4.10156 66.3086 3.27148 65.2344 3.27148 L 53.4668 3.27148 C 52.0996 3.27148 51.6113 3.75977 51.1719 4.78516 L 44.7266 19.4824 C 44.2383 20.6543 44.7266 21.3867 45.9961 21.3867 L 54.5898 21.3867 L 48.1445 36.9629 C 47.8516 37.6465 47.998 38.1836 48.4375 38.3789 C 48.9258 38.5254 49.4629 38.4277 49.9512 37.8906 L 73.0469 15.7227 C 74.0723 14.6973 73.7305 13.3301 72.3145 13.3301 Z"/>
  </g>
  <g id="Medium-M" transform="matrix(1 0 0 1 1665.84 1126)">
   <path d="M 101.562 -86.5234 C 104.004 -86.5234 106.006 -88.5742 106.006 -90.9668 L 106.006 -101.025 C 106.006 -103.516 104.004 -105.518 101.562 -105.518 C 99.1211 -105.518 97.168 -103.516 97.168 -101.025 L 97.168 -90.9668 C 97.168 -88.5742 99.1211 -86.5234 101.562 -86.5234 Z M 72.5586 -77.0508 C 74.3164 -75.293 77.1973 -75.3418 78.8574 -77.0508 C 80.5176 -78.7598 80.5176 -81.543 78.8086 -83.252 L 71.6309 -90.4785 C 69.9707 -92.1875 67.1387 -92.1875 65.4297 -90.4785 C 63.7207 -88.7695 63.7207 -85.9375 65.4297 -84.2285 Z M 124.316 -77.0508 C 125.977 -75.3418 128.906 -75.293 130.615 -77.0508 L 137.744 -84.1797 C 139.502 -85.9375 139.453 -88.7695 137.744 -90.4785 C 136.084 -92.1875 133.252 -92.1875 131.543 -90.4297 L 124.365 -83.252 C 122.607 -81.5918 122.656 -78.7598 124.316 -77.0508 Z M 114.648 -33.4473 C 121.68 -38.2324 126.025 -45.7031 126.025 -54.3457 C 126.025 -67.8711 115.137 -78.8086 101.611 -78.8086 C 92.6758 -78.8086 84.9121 -74.0234 80.8594 -66.9922 C 82.959 -64.8438 84.7656 -62.5 86.2793 -59.6191 C 102.1 -58.3984 112.988 -48.2422 114.648 -33.4473 Z M 29.2969 -4.93164 L 83.6426 -4.93164 C 97.5586 -4.93164 108.301 -15.5762 108.301 -29.3457 C 108.301 -43.2617 97.2656 -53.6621 82.373 -53.7109 C 76.8066 -64.2578 66.7969 -71.0938 54.1016 -71.0938 C 37.793 -71.0938 24.1211 -58.5938 22.6562 -42.2852 C 14.1602 -39.8438 8.74023 -32.666 8.74023 -23.8281 C 8.74023 -12.5977 17.0898 -4.93164 29.2969 -4.93164 Z M 138.184 -49.9023 L 148.242 -49.9023 C 150.684 -49.9023 152.637 -51.8555 152.686 -54.2969 C 152.686 -56.7383 150.684 -58.7402 148.242 -58.7402 L 138.184 -58.7402 C 135.742 -58.7402 133.691 -56.7383 133.691 -54.2969 C 133.691 -51.8555 135.742 -49.9023 138.184 -49.9023 Z M 131.543 -18.1152 C 133.252 -16.4062 136.035 -16.4062 137.744 -18.1152 C 139.453 -19.8242 139.453 -22.6562 137.744 -24.3652 L 130.566 -31.543 C 128.857 -33.2031 126.025 -33.252 124.316 -31.543 C 122.607 -29.834 122.656 -26.9531 124.365 -25.293 Z M 71.2402 12.5977 L 61.1328 12.5977 L 65.5273 4.29688 C 66.0645 3.27148 65.625 2.44141 64.5508 2.44141 L 53.4668 2.44141 C 52.1484 2.44141 51.6602 2.97852 51.2207 3.95508 L 44.873 18.4082 C 44.3848 19.5801 44.873 20.3613 46.0938 20.3613 L 54.541 20.3613 L 48.1445 35.7422 C 47.9004 36.377 48.0469 36.9141 48.4863 37.1094 C 48.9258 37.2559 49.4629 37.1582 49.9512 36.6211 L 71.9727 14.9902 C 72.998 13.9648 72.6562 12.5977 71.2402 12.5977 Z"/>
  </g>
  <g id="Regular-M" transform="matrix(1 0 0 1 1370.4 1126)">
   <path d="M 99.6094 -85.6445 C 101.855 -85.6445 103.662 -87.5488 103.662 -89.6973 L 103.662 -100.244 C 103.662 -102.49 101.855 -104.297 99.6094 -104.297 C 97.4121 -104.297 95.5566 -102.49 95.5566 -100.244 L 95.5566 -89.6973 C 95.5566 -87.5488 97.4121 -85.6445 99.6094 -85.6445 Z M 71.2891 -76.2207 C 72.9004 -74.6094 75.5371 -74.6582 77.0508 -76.2207 C 78.5645 -77.7832 78.6133 -80.3711 77.0508 -81.8848 L 69.5312 -89.4531 C 67.9688 -91.0156 65.4297 -91.0156 63.8672 -89.4531 C 62.3047 -87.8906 62.3047 -85.3027 63.8672 -83.7402 Z M 122.168 -76.2207 C 123.682 -74.6582 126.367 -74.6094 127.93 -76.2207 L 135.4 -83.7402 C 136.963 -85.3027 136.963 -87.8906 135.4 -89.4531 C 133.838 -91.0156 131.299 -91.0156 129.736 -89.4531 L 122.168 -81.8848 C 120.605 -80.3711 120.654 -77.7832 122.168 -76.2207 Z M 112.158 -32.7637 C 119.385 -37.5977 123.779 -45.0684 123.779 -53.6621 C 123.779 -67.0898 113.037 -77.8809 99.6094 -77.8809 C 90.7715 -77.8809 83.1055 -73.1445 79.0527 -66.0645 C 81.1035 -63.9648 82.8613 -61.6699 84.375 -58.8379 C 100.439 -57.5195 110.84 -47.5098 112.158 -32.7637 Z M 29.0039 -5.85938 L 81.8359 -5.85938 C 95.6543 -5.85938 106.396 -16.3574 106.396 -29.8828 C 106.396 -43.3105 95.459 -53.4668 80.8594 -53.5645 C 75.1465 -64.502 64.9902 -70.8008 53.1738 -70.8008 C 37.3047 -70.8008 23.8281 -58.4961 22.3633 -42.4316 C 14.0625 -39.9414 8.74023 -32.9102 8.74023 -24.3164 C 8.74023 -13.3789 16.9922 -5.85938 29.0039 -5.85938 Z M 135.547 -49.6094 L 146.143 -49.6094 C 148.34 -49.6094 150.146 -51.416 150.146 -53.6621 C 150.146 -55.9082 148.34 -57.7148 146.143 -57.7148 L 135.547 -57.7148 C 133.398 -57.7148 131.543 -55.9082 131.543 -53.6621 C 131.543 -51.416 133.398 -49.6094 135.547 -49.6094 Z M 129.736 -17.8223 C 131.299 -16.2598 133.838 -16.3086 135.4 -17.8711 C 136.963 -19.4336 136.963 -22.0215 135.4 -23.584 L 127.832 -31.0547 C 126.318 -32.5684 123.73 -32.6172 122.168 -31.0547 C 120.605 -29.4922 120.605 -26.9043 122.168 -25.3418 Z M 69.9219 11.7188 L 60.2051 11.7188 L 64.6484 3.22266 C 65.2344 2.14844 64.7949 1.36719 63.7207 1.36719 L 53.5156 1.36719 C 52.1484 1.36719 51.709 1.9043 51.2695 2.83203 L 45.0684 17.041 C 44.5312 18.2129 45.0684 18.9453 46.2891 18.9453 L 54.4922 18.9453 L 48.1934 34.082 C 47.9492 34.7168 48.0469 35.2539 48.5352 35.4004 C 48.9746 35.5957 49.5117 35.4492 50 34.9121 L 70.6543 14.0625 C 71.6309 13.0371 71.2891 11.7188 69.9219 11.7188 Z"/>
  </g>
  <g id="Light-M" transform="matrix(1 0 0 1 1074.2 1126)">
   <path d="M 99.2676 -85.3027 C 100.928 -85.3027 102.344 -86.7188 102.344 -88.3301 L 102.344 -100.244 C 102.344 -101.904 100.928 -103.271 99.2676 -103.271 C 97.5586 -103.271 96.1914 -101.904 96.1914 -100.244 L 96.1914 -88.3301 C 96.1914 -86.7188 97.5586 -85.3027 99.2676 -85.3027 Z M 72.3145 -75.8789 C 73.5352 -74.6582 75.5371 -74.707 76.709 -75.8789 C 77.832 -77.0508 77.8809 -79.0039 76.709 -80.1758 L 68.2617 -88.623 C 67.041 -89.8438 65.1367 -89.7949 63.9648 -88.623 C 62.793 -87.4512 62.7441 -85.498 63.9648 -84.3262 Z M 121.826 -75.8789 C 122.949 -74.707 124.951 -74.6582 126.172 -75.8789 L 134.57 -84.3262 C 135.791 -85.498 135.742 -87.4512 134.57 -88.623 C 133.398 -89.7949 131.494 -89.8438 130.273 -88.623 L 121.826 -80.1758 C 120.654 -79.0039 120.654 -77.0508 121.826 -75.8789 Z M 110.596 -32.2266 C 118.115 -36.8164 122.9 -44.3848 122.9 -53.3203 C 122.9 -66.5039 112.402 -77.0508 99.2676 -77.0508 C 89.9902 -77.0508 82.0801 -71.7285 78.3691 -64.0137 C 80.4199 -61.8652 82.1289 -59.5215 83.5449 -56.7871 C 99.0234 -55.5664 109.082 -45.8496 110.596 -32.2266 Z M 28.2227 -5.51758 L 81.3965 -5.51758 C 94.8242 -5.51758 105.371 -15.7227 105.371 -28.7598 C 105.371 -41.8457 94.6289 -51.6602 80.2734 -51.709 C 74.4629 -62.9395 64.502 -69.2871 52.7344 -69.2871 C 37.207 -69.2871 24.0234 -56.9336 22.6562 -40.918 C 14.1602 -38.5254 8.74023 -31.6406 8.74023 -23.2422 C 8.74023 -12.793 16.6992 -5.51758 28.2227 -5.51758 Z M 134.18 -50.293 L 146.094 -50.293 C 147.754 -50.293 149.121 -51.6602 149.121 -53.3203 C 149.17 -55.0293 147.754 -56.3965 146.094 -56.3965 L 134.18 -56.3965 C 132.52 -56.3965 131.152 -55.0293 131.152 -53.3203 C 131.152 -51.6602 132.52 -50.293 134.18 -50.293 Z M 130.273 -17.9688 C 131.494 -16.748 133.398 -16.7969 134.57 -17.9688 C 135.742 -19.1895 135.791 -21.0938 134.57 -22.2656 L 126.123 -30.7129 C 124.951 -31.8359 122.998 -31.8848 121.826 -30.7129 C 120.654 -29.541 120.654 -27.5391 121.826 -26.3672 Z M 67.4805 12.3535 L 58.4961 12.3535 L 63.2812 3.32031 C 63.8672 2.29492 63.4277 1.46484 62.3535 1.46484 L 54.4922 1.46484 C 53.125 1.46484 52.6855 1.95312 52.2461 2.97852 L 46.1426 16.8457 C 45.6055 18.0664 46.2402 18.7988 47.4609 18.7988 L 54.9805 18.7988 L 48.8281 33.5938 C 48.5352 34.2773 48.6816 34.7656 49.1699 34.9609 C 49.6094 35.1562 50.1953 35.0098 50.6348 34.4238 L 68.3594 14.6973 C 69.2383 13.623 68.8477 12.3535 67.4805 12.3535 Z"/>
  </g>
  <g id="Thin-M" transform="matrix(1 0 0 1 778.151 1126)">
   <path d="M 98.7793 -84.8145 C 99.7559 -84.8145 100.586 -85.6934 100.586 -86.5723 L 100.586 -100.195 C 100.586 -101.172 99.7559 -101.953 98.7793 -101.953 C 97.8027 -101.953 96.9727 -101.172 96.9727 -100.195 L 96.9727 -86.5723 C 96.9727 -85.6934 97.8027 -84.8145 98.7793 -84.8145 Z M 73.7305 -75.4395 C 74.4141 -74.7559 75.5371 -74.7559 76.2207 -75.4395 C 76.8555 -76.123 76.9043 -77.2461 76.2207 -77.8809 L 66.5527 -87.5488 C 65.8203 -88.2812 64.7461 -88.2324 64.0625 -87.5488 C 63.4277 -86.8652 63.3789 -85.791 64.0625 -85.0586 Z M 121.338 -75.4395 C 122.021 -74.7559 123.145 -74.7559 123.828 -75.4395 L 133.447 -85.0586 C 134.18 -85.791 134.131 -86.8652 133.447 -87.5488 C 132.812 -88.2324 131.738 -88.2812 131.006 -87.5488 L 121.338 -77.8809 C 120.654 -77.2461 120.654 -76.123 121.338 -75.4395 Z M 108.545 -31.4941 C 116.504 -35.791 121.777 -43.5059 121.777 -52.8809 C 121.777 -65.6738 111.523 -75.9277 98.7793 -75.9277 C 88.916 -75.9277 80.7129 -69.9219 77.4902 -61.3281 C 79.4434 -59.082 81.1035 -56.6895 82.4707 -54.1016 C 97.168 -52.9785 106.689 -43.7012 108.545 -31.4941 Z M 27.2461 -5.07812 L 80.7617 -5.07812 C 93.7012 -5.07812 103.955 -14.8438 103.955 -27.2949 C 103.955 -39.8438 93.457 -49.2676 79.541 -49.2676 C 73.5352 -60.8887 63.8672 -67.1875 52.1484 -67.1875 C 37.0605 -67.1875 24.2676 -54.8828 23.0469 -38.8672 C 14.3066 -36.6699 8.74023 -29.9805 8.74023 -21.7773 C 8.74023 -11.9629 16.3086 -5.07812 27.2461 -5.07812 Z M 132.373 -51.123 L 145.996 -51.123 C 147.021 -51.123 147.754 -51.9043 147.803 -52.8809 C 147.852 -53.8086 147.021 -54.5898 145.996 -54.5898 L 132.373 -54.5898 C 131.445 -54.5898 130.615 -53.8086 130.615 -52.8809 C 130.615 -51.9043 131.445 -51.123 132.373 -51.123 Z M 131.006 -18.1152 C 131.738 -17.3828 132.812 -17.4316 133.447 -18.1152 C 134.131 -18.7988 134.18 -19.873 133.447 -20.6055 L 123.828 -30.2246 C 123.145 -30.9082 122.021 -30.9082 121.338 -30.2246 C 120.654 -29.5898 120.654 -28.418 121.338 -27.7344 Z M 64.2578 13.2324 L 56.25 13.2324 L 61.5234 3.51562 C 62.0605 2.44141 61.6211 1.5625 60.498 1.5625 L 55.8594 1.5625 C 54.4434 1.5625 53.9551 2.09961 53.5156 3.125 L 47.6074 16.6016 C 47.0703 17.8711 47.8027 18.5547 49.0234 18.5547 L 55.6152 18.5547 L 49.6094 32.9102 C 49.3164 33.6426 49.5117 34.1797 50 34.375 C 50.4883 34.5703 51.0742 34.375 51.5137 33.7402 L 65.332 15.5273 C 66.1133 14.4043 65.6738 13.2324 64.2578 13.2324 Z"/>
  </g>
  <g id="Ultralight-M" transform="matrix(1 0 0 1 481.781 1126)">
   <path d="M 98.5352 -84.6191 C 99.1211 -84.6191 99.6582 -85.1562 99.6582 -85.6934 L 99.6582 -100.195 C 99.6582 -100.781 99.1211 -101.27 98.5352 -101.27 C 97.9492 -101.27 97.4121 -100.781 97.4121 -100.195 L 97.4121 -85.6934 C 97.4121 -85.1562 97.9492 -84.6191 98.5352 -84.6191 Z M 74.4141 -75.1953 C 74.8535 -74.7559 75.5371 -74.7559 75.9766 -75.1953 C 76.3672 -75.5859 76.3672 -76.3184 75.9766 -76.7578 L 65.6738 -87.0117 C 65.2344 -87.5 64.5508 -87.4023 64.1602 -87.0117 C 63.7207 -86.5723 63.6719 -85.9375 64.1602 -85.4492 Z M 121.094 -75.1953 C 121.484 -74.7559 122.217 -74.7559 122.656 -75.1953 L 132.91 -85.4492 C 133.398 -85.9375 133.301 -86.5723 132.91 -87.0117 C 132.471 -87.4023 131.836 -87.5 131.348 -87.0117 L 121.094 -76.7578 C 120.654 -76.3184 120.654 -75.5859 121.094 -75.1953 Z M 107.52 -31.1035 C 115.674 -35.3027 121.191 -43.0664 121.191 -52.6367 C 121.191 -65.2832 111.084 -75.3418 98.5352 -75.3418 C 88.3301 -75.3418 79.9805 -68.9453 77.002 -59.9609 C 78.9551 -57.666 80.6152 -55.2246 81.9336 -52.7344 C 96.2402 -51.6602 105.518 -42.5781 107.52 -31.1035 Z M 26.709 -4.83398 L 80.4688 -4.83398 C 93.1641 -4.83398 103.223 -14.4043 103.223 -26.5137 C 103.223 -38.8672 92.8711 -48.0469 79.1504 -47.998 C 73.0957 -59.8633 63.5742 -66.1621 51.8555 -66.1621 C 36.9629 -66.1621 24.4141 -53.8086 23.1934 -37.8418 C 14.3555 -35.6934 8.74023 -29.1504 8.74023 -21.0449 C 8.74023 -11.5234 16.1621 -4.83398 26.709 -4.83398 Z M 131.445 -51.5625 L 145.996 -51.5625 C 146.631 -51.5625 147.021 -52.0508 147.119 -52.6367 C 147.168 -53.2227 146.631 -53.7109 145.996 -53.7109 L 131.445 -53.7109 C 130.859 -53.7109 130.371 -53.2227 130.371 -52.6367 C 130.371 -52.0508 130.859 -51.5625 131.445 -51.5625 Z M 131.348 -18.2129 C 131.836 -17.7246 132.471 -17.7734 132.91 -18.2129 C 133.301 -18.6035 133.398 -19.2383 132.91 -19.7266 L 122.656 -30.0293 C 122.217 -30.4199 121.484 -30.4199 121.094 -30.0293 C 120.654 -29.5898 120.654 -28.8574 121.094 -28.4668 Z M 62.6465 13.7207 L 55.127 13.7207 L 60.5957 3.56445 C 61.1328 2.49023 60.6934 1.66016 59.5703 1.66016 L 56.543 1.66016 C 55.0781 1.66016 54.5898 2.14844 54.1504 3.22266 L 48.3887 16.4551 C 47.8027 17.7734 48.6328 18.457 49.8047 18.457 L 55.957 18.457 L 50.0488 32.5684 C 49.707 33.3496 49.9023 33.8867 50.3906 34.082 C 50.9277 34.2773 51.5137 34.082 51.9531 33.3984 L 63.7695 15.918 C 64.502 14.7949 64.0137 13.7207 62.6465 13.7207 Z"/>
  </g>
  <g id="Black-S" transform="matrix(1 0 0 1 2865.8 696)">
   <path d="M 86.377 -78.418 C 89.0137 -78.418 91.1621 -80.6641 91.1621 -83.3008 L 91.1621 -89.5508 C 91.1621 -92.2363 89.0137 -94.4336 86.377 -94.4336 C 83.7402 -94.4336 81.5918 -92.2363 81.5918 -89.5508 L 81.5918 -83.3008 C 81.5918 -80.6641 83.7402 -78.418 86.377 -78.418 Z M 61.1328 -70.8984 C 63.0371 -68.9941 66.1133 -68.9453 67.9688 -70.8008 C 69.8242 -72.6562 69.7266 -75.6836 67.8711 -77.6367 L 63.5254 -82.1289 C 61.7188 -84.0332 58.4961 -83.9844 56.6406 -82.1289 C 54.7852 -80.2734 54.8828 -77.1973 56.7383 -75.3418 Z M 104.834 -70.752 C 106.689 -68.8965 109.814 -68.9941 111.67 -70.8496 L 116.113 -75.2441 C 118.018 -77.0996 118.018 -80.2246 116.162 -82.0801 C 114.307 -83.9355 111.23 -83.8867 109.326 -81.9824 L 104.883 -77.6367 C 102.979 -75.7812 102.979 -72.6074 104.834 -70.752 Z M 98.4375 -36.3281 C 103.271 -39.6973 106.592 -45.7031 106.592 -52.4414 C 106.592 -63.5254 97.5586 -72.5098 86.4746 -72.5098 C 79.1504 -72.5098 72.7051 -68.6035 69.5801 -63.3301 C 71.3867 -61.5723 72.9492 -59.4727 74.2188 -56.9824 C 85.7422 -56.4453 95.8984 -47.9004 98.4375 -36.3281 Z M 23.9746 -8.25195 L 71.7285 -8.25195 C 83.0078 -8.25195 91.4551 -17.0898 91.4551 -28.8574 C 91.4551 -41.3086 82.3242 -50.3418 69.6777 -50.2441 C 65.918 -57.2266 58.6426 -64.3555 45.5078 -64.3555 C 31.3477 -64.3555 19.8242 -54.0039 18.75 -40.2344 C 11.5234 -38.4277 6.83594 -32.2754 6.83594 -24.5605 C 6.83594 -14.8438 13.7695 -8.25195 23.9746 -8.25195 Z M 117.236 -47.6562 L 123.486 -47.6562 C 126.172 -47.6562 128.369 -49.7559 128.369 -52.3926 C 128.369 -55.0293 126.172 -57.2266 123.486 -57.2266 L 117.236 -57.2266 C 114.6 -57.2266 112.354 -55.0293 112.354 -52.3926 C 112.354 -49.7559 114.6 -47.6562 117.236 -47.6562 Z M 109.277 -22.7539 C 111.182 -20.8496 114.258 -20.8008 116.113 -22.6562 C 117.969 -24.5117 117.871 -27.5391 116.016 -29.4922 L 111.67 -33.9844 C 109.863 -35.8887 106.641 -35.8398 104.785 -33.9844 C 102.93 -32.1289 103.027 -29.0527 104.883 -27.1973 Z M 60.5469 5.37109 L 51.2695 5.37109 L 54.3457 -0.488281 C 54.7852 -1.31836 54.4434 -2.00195 53.5645 -2.00195 L 41.7969 -2.00195 C 40.6738 -2.00195 40.2832 -1.61133 39.9414 -0.78125 L 34.5215 11.5723 C 34.1309 12.5 34.4727 13.1348 35.498 13.1348 L 42.9199 13.1348 L 37.5977 26.0742 C 37.3535 26.6113 37.5 27.0508 37.8418 27.1973 C 38.1836 27.3438 38.623 27.2461 39.0625 26.8555 L 61.1328 7.37305 C 62.0605 6.5918 61.7188 5.37109 60.5469 5.37109 Z"/>
  </g>
  <g id="Heavy-S" transform="matrix(1 0 0 1 2570.31 696)">
   <path d="M 84.4727 -77.5879 C 86.9629 -77.5879 88.9648 -79.6875 88.9648 -82.1777 L 88.9648 -88.7695 C 88.9648 -91.2598 86.9629 -93.3594 84.4727 -93.3594 C 81.9824 -93.3594 79.9316 -91.2598 79.9316 -88.7695 L 79.9316 -82.1777 C 79.9316 -79.6875 81.9824 -77.5879 84.4727 -77.5879 Z M 59.7656 -70.1172 C 61.5723 -68.3105 64.4531 -68.2617 66.2109 -70.0195 C 67.9688 -71.7773 67.8711 -74.6094 66.1621 -76.4648 L 61.5234 -81.2012 C 59.8145 -82.959 56.8359 -82.9102 55.0781 -81.2012 C 53.3203 -79.4434 53.3691 -76.5137 55.127 -74.7559 Z M 102.734 -69.9707 C 104.443 -68.2617 107.422 -68.3105 109.18 -70.0684 L 113.818 -74.707 C 115.625 -76.4648 115.625 -79.3945 113.867 -81.1523 C 112.109 -82.9102 109.229 -82.8613 107.422 -81.0547 L 102.783 -76.4648 C 100.977 -74.707 100.977 -71.7285 102.734 -69.9707 Z M 96.1426 -35.6934 C 101.123 -39.1602 104.395 -45.1172 104.395 -51.8066 C 104.395 -62.793 95.5078 -71.6797 84.5215 -71.6797 C 77.3438 -71.6797 71.0449 -67.9199 67.8711 -62.6465 C 69.6289 -60.8887 71.1426 -58.8867 72.4121 -56.4453 C 84.2285 -55.7617 93.9453 -47.3633 96.1426 -35.6934 Z M 23.7793 -9.22852 L 69.9707 -9.22852 C 81.2012 -9.22852 89.6484 -17.9688 89.6484 -29.4922 C 89.6484 -41.5527 80.6641 -50.3418 68.2617 -50.293 C 64.3555 -57.6172 56.8848 -64.2578 44.6289 -64.2578 C 30.8594 -64.2578 19.5312 -54.0527 18.4082 -40.5762 C 11.377 -38.7207 6.83594 -32.666 6.83594 -25.1953 C 6.83594 -15.6738 13.6719 -9.22852 23.7793 -9.22852 Z M 114.795 -47.3145 L 121.387 -47.3145 C 123.877 -47.3145 125.928 -49.3164 125.928 -51.8066 C 125.928 -54.2969 123.877 -56.3477 121.387 -56.3477 L 114.795 -56.3477 C 112.305 -56.3477 110.205 -54.2969 110.205 -51.8066 C 110.205 -49.3164 112.305 -47.3145 114.795 -47.3145 Z M 107.422 -22.4609 C 109.18 -20.7031 112.109 -20.6543 113.818 -22.4121 C 115.576 -24.1699 115.527 -27.002 113.77 -28.8574 L 109.131 -33.5449 C 107.422 -35.3027 104.443 -35.3027 102.686 -33.5449 C 100.928 -31.7871 101.025 -28.9062 102.783 -27.1484 Z M 59.4727 4.39453 L 50.4883 4.39453 L 53.6133 -1.61133 C 54.0527 -2.44141 53.7109 -3.07617 52.8809 -3.07617 L 41.6992 -3.07617 C 40.625 -3.07617 40.2344 -2.68555 39.8926 -1.9043 L 34.5703 10.2051 C 34.1797 11.1328 34.5215 11.7676 35.5469 11.7676 L 42.8223 11.7676 L 37.5488 24.4629 C 37.3535 25 37.4512 25.4395 37.793 25.5859 C 38.1348 25.7324 38.5742 25.6348 39.0137 25.2441 L 60.0098 6.34766 C 60.9375 5.56641 60.5957 4.39453 59.4727 4.39453 Z"/>
  </g>
  <g id="Bold-S" transform="matrix(1 0 0 1 2274.94 696)">
   <path d="M 82.2754 -76.6602 C 84.6191 -76.6602 86.5234 -78.6133 86.5234 -80.9082 L 86.5234 -87.8418 C 86.5234 -90.2344 84.6191 -92.1387 82.2754 -92.1387 C 79.9805 -92.1387 78.0762 -90.2344 78.0762 -87.8418 L 78.0762 -80.9082 C 78.0762 -78.6133 79.9805 -76.6602 82.2754 -76.6602 Z M 58.252 -69.1895 C 59.9121 -67.5293 62.6465 -67.5293 64.2578 -69.1406 C 65.8691 -70.8008 65.8203 -73.4375 64.209 -75.1465 L 59.2773 -80.127 C 57.7148 -81.7871 54.9316 -81.7383 53.3203 -80.127 C 51.6602 -78.4668 51.709 -75.7812 53.3691 -74.1211 Z M 100.342 -69.1406 C 101.953 -67.5293 104.736 -67.5293 106.396 -69.1895 L 111.279 -74.0723 C 112.939 -75.7324 112.939 -78.4668 111.328 -80.0781 C 109.668 -81.7383 106.982 -81.6895 105.322 -80.0293 L 100.391 -75.1465 C 98.7305 -73.4863 98.7793 -70.752 100.342 -69.1406 Z M 93.5547 -34.9609 C 98.6816 -38.5742 102.002 -44.4824 102.002 -51.123 C 102.002 -62.0117 93.2129 -70.8008 82.3242 -70.8008 C 75.3418 -70.8008 69.1406 -67.0898 65.918 -61.8652 C 67.627 -60.1562 69.0918 -58.252 70.3613 -55.8594 C 82.5684 -55.0293 91.7969 -46.7773 93.5547 -34.9609 Z M 23.5352 -10.3027 L 68.0176 -10.3027 C 79.1992 -10.3027 87.6465 -18.8965 87.6465 -30.2246 C 87.6465 -41.7969 78.7598 -50.3906 66.6504 -50.3906 C 62.5488 -58.0566 54.8828 -64.1113 43.7012 -64.1113 C 30.3223 -64.1113 19.1895 -54.1016 18.0664 -40.918 C 11.2305 -39.0137 6.83594 -33.1543 6.83594 -25.8789 C 6.83594 -16.6504 13.623 -10.3027 23.5352 -10.3027 Z M 112.061 -46.9238 L 118.994 -46.9238 C 121.338 -46.9238 123.242 -48.7793 123.242 -51.123 C 123.242 -53.4668 121.338 -55.3711 118.994 -55.3711 L 112.061 -55.3711 C 109.766 -55.3711 107.764 -53.4668 107.764 -51.123 C 107.764 -48.7793 109.766 -46.9238 112.061 -46.9238 Z M 105.322 -22.168 C 106.982 -20.5078 109.668 -20.5078 111.279 -22.1191 C 112.939 -23.7793 112.891 -26.4648 111.23 -28.0762 L 106.348 -33.0566 C 104.736 -34.668 101.953 -34.668 100.342 -33.0566 C 98.7305 -31.4453 98.7793 -28.7109 100.391 -27.0996 Z M 58.252 3.32031 L 49.6094 3.32031 L 52.832 -2.83203 C 53.2715 -3.66211 52.9297 -4.29688 52.0508 -4.29688 L 41.6016 -4.29688 C 40.5273 -4.29688 40.1855 -3.90625 39.8438 -3.125 L 34.6191 8.69141 C 34.2285 9.61914 34.5703 10.2051 35.5957 10.2051 L 42.6758 10.2051 L 37.5 22.7051 C 37.3047 23.1934 37.4023 23.6328 37.793 23.7793 C 38.1348 23.9258 38.5254 23.8281 38.9648 23.4375 L 58.7891 5.22461 C 59.668 4.44336 59.375 3.32031 58.252 3.32031 Z"/>
  </g>
  <g id="Semibold-S" transform="matrix(1 0 0 1 1979.16 696)">
   <path d="M 80.8105 -76.0254 C 83.0078 -76.0254 84.8145 -77.8809 84.8145 -80.0781 L 84.8145 -87.2559 C 84.8145 -89.502 83.0078 -91.3086 80.8105 -91.3086 C 78.6133 -91.3086 76.8066 -89.502 76.8066 -87.2559 L 76.8066 -80.0781 C 76.8066 -77.8809 78.6133 -76.0254 80.8105 -76.0254 Z M 57.1777 -68.6035 C 58.7891 -66.9922 61.377 -67.041 62.8906 -68.5547 C 64.4043 -70.1172 64.4043 -72.6562 62.8906 -74.2188 L 57.7637 -79.3945 C 56.25 -80.957 53.6133 -80.9082 52.0996 -79.3945 C 50.5371 -77.832 50.5859 -75.2441 52.0996 -73.6816 Z M 98.7305 -68.5547 C 100.244 -66.9922 102.881 -66.9922 104.443 -68.6035 L 109.521 -73.6816 C 111.084 -75.2441 111.084 -77.832 109.57 -79.3457 C 108.008 -80.9082 105.469 -80.9082 103.906 -79.3457 L 98.7305 -74.2188 C 97.168 -72.6562 97.2168 -70.1172 98.7305 -68.5547 Z M 91.748 -34.4238 C 97.0215 -38.1836 100.293 -44.043 100.293 -50.6836 C 100.293 -61.4746 91.6504 -70.166 80.8594 -70.166 C 73.9258 -70.166 67.8711 -66.5527 64.5996 -61.3281 C 66.2598 -59.668 67.7246 -57.7637 68.9453 -55.4199 C 81.3965 -54.541 90.332 -46.3379 91.748 -34.4238 Z M 23.3398 -11.084 L 66.6992 -11.084 C 77.7832 -11.084 86.2793 -19.5801 86.2793 -30.7129 C 86.2793 -41.9922 77.4902 -50.3906 65.5762 -50.3906 C 61.3281 -58.3496 53.5156 -64.0137 43.0176 -64.0137 C 29.9316 -64.0137 18.9941 -54.1504 17.8223 -41.1621 C 11.1328 -39.2578 6.83594 -33.4961 6.83594 -26.3672 C 6.83594 -17.2852 13.5254 -11.084 23.3398 -11.084 Z M 110.156 -46.6797 L 117.334 -46.6797 C 119.531 -46.6797 121.387 -48.4375 121.387 -50.6348 C 121.387 -52.8809 119.531 -54.6875 117.334 -54.6875 L 110.156 -54.6875 C 107.959 -54.6875 106.104 -52.8809 106.104 -50.6348 C 106.104 -48.4375 107.959 -46.6797 110.156 -46.6797 Z M 103.857 -21.9238 C 105.42 -20.3613 107.959 -20.3613 109.521 -21.9238 C 111.084 -23.4863 111.035 -26.0254 109.521 -27.5879 L 104.395 -32.7148 C 102.881 -34.2285 100.244 -34.2773 98.7305 -32.7148 C 97.168 -31.1523 97.2168 -28.6133 98.7305 -27.0508 Z M 57.373 2.53906 L 49.0234 2.53906 L 52.2949 -3.66211 C 52.7344 -4.49219 52.3926 -5.12695 51.5137 -5.12695 L 41.5527 -5.12695 C 40.4785 -5.12695 40.1367 -4.73633 39.7949 -3.95508 L 34.668 7.66602 C 34.2773 8.54492 34.6191 9.13086 35.6445 9.13086 L 42.5781 9.13086 L 37.5 21.4355 C 37.3047 21.9727 37.4023 22.3633 37.7441 22.5098 C 38.0859 22.6562 38.4766 22.5586 38.916 22.168 L 57.9102 4.44336 C 58.7891 3.66211 58.4961 2.53906 57.373 2.53906 Z"/>
  </g>
  <g id="Medium-S" transform="matrix(1 0 0 1 1683.15 696)">
   <path d="M 79.6875 -75.5371 C 81.7871 -75.5371 83.5449 -77.3438 83.5449 -79.3945 L 83.5449 -86.7676 C 83.5449 -88.916 81.7871 -90.6738 79.6875 -90.6738 C 77.5391 -90.6738 75.8301 -88.916 75.8301 -86.7676 L 75.8301 -79.3945 C 75.8301 -77.3438 77.5391 -75.5371 79.6875 -75.5371 Z M 56.3965 -68.1152 C 57.9102 -66.6016 60.4492 -66.6504 61.8652 -68.1152 C 63.3301 -69.5801 63.3301 -72.0215 61.8652 -73.5352 L 56.5918 -78.8086 C 55.127 -80.3223 52.6367 -80.3223 51.1719 -78.8086 C 49.6582 -77.3438 49.707 -74.8535 51.1719 -73.3887 Z M 97.5098 -68.1152 C 98.9258 -66.6016 101.465 -66.6016 102.979 -68.1152 L 108.203 -73.3398 C 109.717 -74.8535 109.717 -77.3438 108.203 -78.8086 C 106.738 -80.3223 104.297 -80.2734 102.783 -78.8086 L 97.5098 -73.5352 C 95.9961 -72.0703 96.0449 -69.5801 97.5098 -68.1152 Z M 90.3809 -34.0332 C 95.752 -37.8906 99.0234 -43.7012 99.0234 -50.293 C 99.0234 -61.0352 90.4297 -69.6777 79.6875 -69.6777 C 72.9004 -69.6777 66.8945 -66.1621 63.5742 -60.8887 C 65.2344 -59.2773 66.6504 -57.4219 67.8711 -55.127 C 80.5176 -54.1504 89.1602 -46.0449 90.3809 -34.0332 Z M 23.2422 -11.6699 L 65.6738 -11.6699 C 76.7578 -11.6699 85.2539 -20.0684 85.2539 -31.0547 C 85.2539 -42.1387 76.4648 -50.3906 64.6973 -50.4395 C 60.4004 -58.5938 52.4902 -63.9648 42.5293 -63.9648 C 29.6387 -63.9648 18.7988 -54.1504 17.627 -41.3574 C 11.0352 -39.4043 6.83594 -33.7402 6.83594 -26.7578 C 6.83594 -17.7734 13.4766 -11.6699 23.2422 -11.6699 Z M 108.74 -46.4355 L 116.113 -46.4355 C 118.213 -46.4355 119.971 -48.1934 119.971 -50.293 C 119.971 -52.4414 118.213 -54.1504 116.113 -54.1504 L 108.74 -54.1504 C 106.641 -54.1504 104.834 -52.4414 104.834 -50.293 C 104.834 -48.1934 106.641 -46.4355 108.74 -46.4355 Z M 102.783 -21.7773 C 104.297 -20.2637 106.689 -20.3125 108.203 -21.7773 C 109.668 -23.291 109.668 -25.7324 108.203 -27.1973 L 102.93 -32.4707 C 101.465 -33.9355 98.9746 -33.9355 97.5098 -32.4707 C 95.9961 -30.957 96.0449 -28.5156 97.5098 -27.002 Z M 56.7383 1.95312 L 48.5352 1.95312 L 51.8555 -4.29688 C 52.2949 -5.12695 51.9531 -5.76172 51.123 -5.76172 L 41.5039 -5.76172 C 40.4297 -5.76172 40.0879 -5.37109 39.7461 -4.58984 L 34.7168 6.88477 C 34.3262 7.76367 34.668 8.34961 35.6445 8.34961 L 42.5293 8.34961 L 37.4512 20.5078 C 37.2559 21.0449 37.3535 21.4355 37.7441 21.582 C 38.0859 21.7285 38.4766 21.6309 38.8672 21.2402 L 57.2754 3.85742 C 58.1055 3.07617 57.8613 1.95312 56.7383 1.95312 Z"/>
  </g>
  <g id="Regular-S" transform="matrix(1 0 0 1 1387.37 696)">
   <path d="M 78.2227 -74.9023 C 80.2246 -74.9023 81.8848 -76.5625 81.8848 -78.5645 L 81.8848 -86.1816 C 81.8848 -88.1836 80.2246 -89.8438 78.2227 -89.8438 C 76.2207 -89.8438 74.5605 -88.1836 74.5605 -86.1816 L 74.5605 -78.5645 C 74.5605 -76.5625 76.2207 -74.9023 78.2227 -74.9023 Z M 95.8984 -67.5293 C 97.2656 -66.1133 99.6582 -66.0645 101.074 -67.5293 L 106.445 -72.9492 C 107.861 -74.3652 107.861 -76.709 106.445 -78.0762 C 105.078 -79.4922 102.783 -79.4922 101.367 -78.0762 L 95.8984 -72.6562 C 94.4824 -71.2402 94.5312 -68.9453 95.8984 -67.5293 Z M 55.3223 -67.5293 C 56.7871 -66.0645 59.1797 -66.1133 60.5469 -67.5293 C 61.9141 -68.9453 61.9629 -71.2402 60.5469 -72.6562 L 55.0781 -78.0762 C 53.6621 -79.4922 51.3672 -79.4922 49.9512 -78.0762 C 48.584 -76.709 48.5352 -74.3652 49.9512 -72.9492 Z M 88.623 -33.5449 C 94.0918 -37.5 97.3633 -43.2617 97.3633 -49.8535 C 97.3633 -60.498 88.8672 -69.043 78.2227 -69.043 C 71.4844 -69.043 65.625 -65.625 62.2559 -60.4004 C 63.916 -58.7402 65.2832 -56.9824 66.4551 -54.7363 C 79.3945 -53.6621 87.6953 -45.6543 88.623 -33.5449 Z M 23.0957 -12.4023 L 64.3555 -12.4023 C 75.3418 -12.4023 83.8867 -20.752 83.8867 -31.543 C 83.8867 -42.2852 75.1953 -50.3906 63.623 -50.4883 C 59.2285 -58.8867 51.123 -63.8672 41.8945 -63.8672 C 29.2969 -63.8672 18.6035 -54.1992 17.3828 -41.6016 C 10.9375 -39.5996 6.83594 -34.0332 6.83594 -27.2461 C 6.83594 -18.4082 13.4277 -12.4023 23.0957 -12.4023 Z M 106.885 -46.1914 L 114.502 -46.1914 C 116.455 -46.1914 118.115 -47.8516 118.115 -49.8535 C 118.115 -51.8555 116.455 -53.5156 114.502 -53.5156 L 106.885 -53.5156 C 104.883 -53.5156 103.223 -51.8555 103.223 -49.8535 C 103.223 -47.8516 104.883 -46.1914 106.885 -46.1914 Z M 101.367 -21.5332 C 102.783 -20.166 105.078 -20.2148 106.445 -21.582 C 107.861 -22.998 107.861 -25.3418 106.445 -26.709 L 100.977 -32.1289 C 99.6094 -33.4961 97.3145 -33.5449 95.8984 -32.1289 C 94.4824 -30.7129 94.4824 -28.3691 95.8984 -26.9531 Z M 55.9082 1.2207 L 47.9492 1.2207 L 51.3184 -5.17578 C 51.7578 -6.00586 51.416 -6.5918 50.5859 -6.5918 L 41.4062 -6.5918 C 40.3809 -6.5918 40.0391 -6.20117 39.6973 -5.46875 L 34.7656 5.81055 C 34.3262 6.73828 34.7168 7.27539 35.6934 7.27539 L 42.4316 7.27539 L 37.4512 19.2871 C 37.2559 19.8242 37.3535 20.2148 37.6953 20.3613 C 38.0371 20.5078 38.4277 20.4102 38.8184 19.9707 L 56.4453 3.07617 C 57.2266 2.29492 56.9824 1.2207 55.9082 1.2207 Z"/>
  </g>
  <g id="Light-S" transform="matrix(1 0 0 1 1091.1 696)">
   <path d="M 77.8809 -74.6094 C 79.4434 -74.6094 80.6641 -75.8789 80.6641 -77.3438 L 80.6641 -86.1816 C 80.6641 -87.6953 79.4434 -88.916 77.8809 -88.916 C 76.3672 -88.916 75.0977 -87.6953 75.0977 -86.1816 L 75.0977 -77.3438 C 75.0977 -75.8789 76.3672 -74.6094 77.8809 -74.6094 Z M 56.25 -67.2363 C 57.373 -66.1133 59.1797 -66.1621 60.2051 -67.2363 C 61.2305 -68.2617 61.2793 -70.0195 60.2051 -71.0938 L 53.9551 -77.3926 C 52.8809 -78.4668 51.123 -78.4668 50.0488 -77.3926 C 48.9746 -76.3184 48.9746 -74.5605 50.0488 -73.4375 Z M 95.5566 -67.2363 C 96.582 -66.1621 98.4375 -66.1133 99.5117 -67.2363 L 105.713 -73.4375 C 106.836 -74.5605 106.787 -76.3184 105.713 -77.3926 C 104.639 -78.4668 102.93 -78.4668 101.855 -77.3926 L 95.5566 -71.0938 C 94.4824 -70.0195 94.5312 -68.2617 95.5566 -67.2363 Z M 87.2559 -33.0566 C 93.0176 -36.7676 96.6309 -42.6758 96.6309 -49.5605 C 96.6309 -59.9609 88.2812 -68.3105 77.8809 -68.3105 C 70.8008 -68.3105 64.6973 -64.3555 61.6699 -58.5938 C 63.2324 -56.8848 64.5996 -55.0781 65.7715 -52.9297 C 78.125 -51.9043 86.1328 -44.1895 87.2559 -33.0566 Z M 22.4121 -12.1094 L 63.916 -12.1094 C 74.6094 -12.1094 82.9102 -20.166 82.9102 -30.5664 C 82.9102 -40.9668 74.4629 -48.8281 63.1348 -48.8281 C 58.5938 -57.5195 50.7324 -62.5 41.4551 -62.5 C 29.1992 -62.5 18.75 -52.832 17.627 -40.2832 C 11.0352 -38.3789 6.83594 -32.9102 6.83594 -26.2695 C 6.83594 -17.8711 13.1836 -12.1094 22.4121 -12.1094 Z M 105.664 -46.7773 L 114.453 -46.7773 C 115.967 -46.7773 117.188 -47.998 117.188 -49.5605 C 117.236 -51.0742 115.967 -52.2949 114.453 -52.2949 L 105.664 -52.2949 C 104.15 -52.2949 102.881 -51.0742 102.881 -49.5605 C 102.881 -47.998 104.15 -46.7773 105.664 -46.7773 Z M 101.855 -21.6309 C 102.93 -20.5566 104.639 -20.6055 105.713 -21.6797 C 106.787 -22.7539 106.836 -24.5117 105.713 -25.5859 L 99.4629 -31.8359 C 98.3887 -32.8613 96.6309 -32.8613 95.5566 -31.8359 C 94.4824 -30.7617 94.4824 -28.9551 95.5566 -27.8809 Z M 53.7598 1.80664 L 46.4844 1.80664 L 50.0977 -5.07812 C 50.5371 -5.9082 50.1953 -6.49414 49.3652 -6.49414 L 42.334 -6.49414 C 41.2598 -6.49414 40.8691 -6.10352 40.5273 -5.37109 L 35.7422 5.66406 C 35.3027 6.5918 35.7422 7.12891 36.7188 7.12891 L 42.8711 7.12891 L 37.9883 18.8477 C 37.793 19.3848 37.8906 19.7754 38.2324 19.9219 C 38.623 20.0684 39.0137 19.9707 39.4043 19.5312 L 54.3945 3.61328 C 55.1758 2.83203 54.834 1.80664 53.7598 1.80664 Z"/>
  </g>
  <g id="Thin-S" transform="matrix(1 0 0 1 794.996 696)">
   <path d="M 77.4902 -74.1699 C 78.3691 -74.1699 79.1016 -74.9512 79.1016 -75.7812 L 79.1016 -86.1328 C 79.1016 -87.0605 78.3691 -87.7441 77.4902 -87.7441 C 76.5625 -87.7441 75.8301 -87.0605 75.8301 -86.1328 L 75.8301 -75.7812 C 75.8301 -74.9512 76.5625 -74.1699 77.4902 -74.1699 Z M 95.166 -66.7969 C 95.752 -66.1621 96.8262 -66.1621 97.4609 -66.7969 L 104.785 -74.1211 C 105.42 -74.8047 105.371 -75.8301 104.785 -76.416 C 104.15 -77.0508 103.125 -77.0996 102.49 -76.416 L 95.166 -69.0918 C 94.5312 -68.457 94.5312 -67.4316 95.166 -66.7969 Z M 57.4707 -66.7969 C 58.1055 -66.1621 59.1797 -66.1621 59.8145 -66.7969 C 60.4004 -67.4316 60.4004 -68.457 59.8145 -69.0918 L 52.4414 -76.416 C 51.8066 -77.0996 50.7812 -77.0508 50.1465 -76.416 C 49.5605 -75.8301 49.5117 -74.8047 50.1465 -74.1211 Z M 85.4492 -32.4219 C 91.6016 -35.8887 95.6055 -41.8945 95.6055 -49.1211 C 95.6055 -59.2285 87.5488 -67.334 77.4902 -67.334 C 69.8242 -67.334 63.4766 -62.7441 60.8398 -56.2012 C 62.4023 -54.4434 63.7207 -52.5879 64.7949 -50.5371 C 76.4648 -49.6582 84.0332 -42.2852 85.4492 -32.4219 Z M 21.5332 -11.6699 L 63.3789 -11.6699 C 73.6328 -11.6699 81.6895 -19.4336 81.6895 -29.2969 C 81.6895 -39.2578 73.4375 -46.6797 62.4512 -46.6797 C 57.8125 -55.7129 50.1465 -60.6934 40.9668 -60.6934 C 29.0527 -60.6934 18.9453 -51.0254 17.9688 -38.4766 C 11.1328 -36.7188 6.83594 -31.4453 6.83594 -25 C 6.83594 -17.1387 12.8418 -11.6699 21.5332 -11.6699 Z M 104.053 -47.5098 L 114.404 -47.5098 C 115.332 -47.5098 116.016 -48.2422 116.016 -49.1211 C 116.064 -50.0488 115.332 -50.7324 114.404 -50.7324 L 104.053 -50.7324 C 103.174 -50.7324 102.441 -50.0488 102.441 -49.1211 C 102.441 -48.2422 103.174 -47.5098 104.053 -47.5098 Z M 102.49 -21.7773 C 103.125 -21.1426 104.15 -21.1914 104.785 -21.7773 C 105.371 -22.4121 105.42 -23.4375 104.785 -24.0723 L 97.4121 -31.3965 C 96.8262 -32.0312 95.752 -32.0312 95.166 -31.3965 C 94.5312 -30.7617 94.5312 -29.7363 95.166 -29.1016 Z M 50.9766 2.58789 L 44.4824 2.58789 L 48.5352 -4.93164 C 48.9746 -5.76172 48.6328 -6.39648 47.7539 -6.39648 L 43.5059 -6.39648 C 42.3828 -6.39648 41.9922 -6.00586 41.6504 -5.22461 L 37.0117 5.41992 C 36.5723 6.39648 37.1582 6.98242 38.0859 6.98242 L 43.457 6.98242 L 38.7207 18.3105 C 38.4766 18.8477 38.623 19.2871 38.9648 19.4336 C 39.3555 19.5801 39.8438 19.4336 40.1855 18.9453 L 51.7578 4.3457 C 52.3926 3.51562 52.0508 2.58789 50.9766 2.58789 Z"/>
  </g>
  <g id="Ultralight-S" transform="matrix(1 0 0 1 498.578 696)">
   <path d="M 77.2461 -73.9746 C 77.832 -73.9746 78.3203 -74.4629 78.3203 -75 L 78.3203 -86.1328 C 78.3203 -86.7188 77.832 -87.1582 77.2461 -87.1582 C 76.6602 -87.1582 76.1719 -86.7188 76.1719 -86.1328 L 76.1719 -75 C 76.1719 -74.4629 76.6602 -73.9746 77.2461 -73.9746 Z M 58.1055 -66.6016 C 58.4961 -66.2109 59.1797 -66.2109 59.5703 -66.6016 C 59.9609 -66.9922 59.9609 -67.6758 59.5703 -68.0664 L 51.709 -75.9277 C 51.2695 -76.3672 50.6348 -76.3184 50.2441 -75.9277 C 49.8535 -75.5371 49.8047 -74.9023 50.2441 -74.4629 Z M 94.9219 -66.6016 C 95.3125 -66.2109 95.9961 -66.2109 96.3867 -66.6016 L 104.248 -74.4629 C 104.688 -74.9023 104.639 -75.5371 104.248 -75.9277 C 103.857 -76.3184 103.223 -76.3672 102.783 -75.9277 L 94.9219 -68.0664 C 94.5312 -67.6758 94.5312 -66.9922 94.9219 -66.6016 Z M 84.4727 -32.1289 C 90.8203 -35.4004 95.0684 -41.5039 95.0684 -48.9258 C 95.0684 -58.8867 87.1582 -66.7969 77.2461 -66.7969 C 69.3359 -66.7969 62.8418 -61.9141 60.4492 -54.9805 C 61.9629 -53.1738 63.2812 -51.2695 64.3066 -49.3164 C 75.6348 -48.4863 82.959 -41.3086 84.4727 -32.1289 Z M 21.0449 -11.4746 L 63.0859 -11.4746 C 73.0957 -11.4746 81.0547 -19.043 81.0547 -28.6133 C 81.0547 -38.3301 72.9004 -45.6055 62.1094 -45.5566 C 57.373 -54.7852 49.8535 -59.7168 40.6738 -59.7168 C 28.9551 -59.7168 19.043 -50.0488 18.1152 -37.5488 C 11.2305 -35.8398 6.83594 -30.7129 6.83594 -24.3164 C 6.83594 -16.7969 12.6953 -11.4746 21.0449 -11.4746 Z M 103.223 -47.9004 L 114.355 -47.9004 C 114.99 -47.9004 115.381 -48.3398 115.43 -48.9258 C 115.479 -49.5117 114.99 -49.9512 114.355 -49.9512 L 103.223 -49.9512 C 102.637 -49.9512 102.197 -49.5117 102.197 -48.9258 C 102.197 -48.3398 102.637 -47.9004 103.223 -47.9004 Z M 102.783 -21.875 C 103.223 -21.4355 103.857 -21.4844 104.248 -21.875 C 104.639 -22.2656 104.688 -22.9004 104.248 -23.3398 L 96.3867 -31.2012 C 95.9961 -31.5918 95.3125 -31.5918 94.9219 -31.2012 C 94.5312 -30.8105 94.5312 -30.127 94.9219 -29.7363 Z M 49.5117 2.97852 L 43.5059 2.97852 L 47.7051 -4.83398 C 48.1445 -5.66406 47.8027 -6.34766 46.9238 -6.34766 L 44.0918 -6.34766 C 42.9688 -6.34766 42.5781 -5.95703 42.2363 -5.12695 L 37.6953 5.32227 C 37.2559 6.29883 37.8906 6.83594 38.8184 6.83594 L 43.75 6.83594 L 39.0625 17.9688 C 38.8184 18.5547 38.9648 18.9941 39.3555 19.1406 C 39.7461 19.2871 40.2344 19.1406 40.5762 18.6035 L 50.3418 4.73633 C 50.9766 3.85742 50.5859 2.97852 49.5117 2.97852 Z"/>
  </g>
 </g>
</svg>
