<?xml version="1.0" encoding="UTF-8"?>
<!--Generator: Apple Native CoreSVG 123-->
<!DOCTYPE svg
PUBLIC "-//W3C//DTD SVG 1.1//EN"
       "http://www.w3.org/Graphics/SVG/1.1/DTD/svg11.dtd">
<svg version="1.1" xmlns="http://www.w3.org/2000/svg" xmlns:xlink="http://www.w3.org/1999/xlink" width="3300" height="2200">
 <!--glyph: "uni1001D5.medium", point size: 100.000000, font version: "Version 15.0d7e11", template writer version: "5"-->
 <g id="Notes">
  <rect height="2200" id="artboard" style="fill:white;opacity:1" width="3300" x="0" y="0"/>
  <line id="" style="fill:none;stroke:black;opacity:1;stroke-width:0.5;" x1="263" x2="3036" y1="292" y2="292"/>
  <text style="stroke:none;fill:black;font-family:-apple-system,&quot;SF Pro Display&quot;,&quot;SF Pro Text&quot;,Helvetica,sans-serif;font-weight:bold;" transform="matrix(1 0 0 1 263 322)">Weight/Scale Variations</text>
  <text style="stroke:none;fill:black;font-family:-apple-system,&quot;SF Pro Display&quot;,&quot;SF Pro Text&quot;,Helvetica,sans-serif;text-anchor:middle;" transform="matrix(1 0 0 1 559.711 322)">Ultralight</text>
  <text style="stroke:none;fill:black;font-family:-apple-system,&quot;SF Pro Display&quot;,&quot;SF Pro Text&quot;,Helvetica,sans-serif;text-anchor:middle;" transform="matrix(1 0 0 1 856.422 322)">Thin</text>
  <text style="stroke:none;fill:black;font-family:-apple-system,&quot;SF Pro Display&quot;,&quot;SF Pro Text&quot;,Helvetica,sans-serif;text-anchor:middle;" transform="matrix(1 0 0 1 1153.13 322)">Light</text>
  <text style="stroke:none;fill:black;font-family:-apple-system,&quot;SF Pro Display&quot;,&quot;SF Pro Text&quot;,Helvetica,sans-serif;text-anchor:middle;" transform="matrix(1 0 0 1 1449.84 322)">Regular</text>
  <text style="stroke:none;fill:black;font-family:-apple-system,&quot;SF Pro Display&quot;,&quot;SF Pro Text&quot;,Helvetica,sans-serif;text-anchor:middle;" transform="matrix(1 0 0 1 1746.56 322)">Medium</text>
  <text style="stroke:none;fill:black;font-family:-apple-system,&quot;SF Pro Display&quot;,&quot;SF Pro Text&quot;,Helvetica,sans-serif;text-anchor:middle;" transform="matrix(1 0 0 1 2043.27 322)">Semibold</text>
  <text style="stroke:none;fill:black;font-family:-apple-system,&quot;SF Pro Display&quot;,&quot;SF Pro Text&quot;,Helvetica,sans-serif;text-anchor:middle;" transform="matrix(1 0 0 1 2339.98 322)">Bold</text>
  <text style="stroke:none;fill:black;font-family:-apple-system,&quot;SF Pro Display&quot;,&quot;SF Pro Text&quot;,Helvetica,sans-serif;text-anchor:middle;" transform="matrix(1 0 0 1 2636.69 322)">Heavy</text>
  <text style="stroke:none;fill:black;font-family:-apple-system,&quot;SF Pro Display&quot;,&quot;SF Pro Text&quot;,Helvetica,sans-serif;text-anchor:middle;" transform="matrix(1 0 0 1 2933.4 322)">Black</text>
  <line id="" style="fill:none;stroke:black;opacity:1;stroke-width:0.5;" x1="263" x2="3036" y1="1903" y2="1903"/>
  <g id="" transform="matrix(1 0 0 1 263 1933)">
   <path d="M 9.24805 0.830078 C 13.5547 0.830078 17.1387 -2.74414 17.1387 -7.05078 C 17.1387 -11.3574 13.5449 -14.9316 9.23828 -14.9316 C 4.94141 -14.9316 1.36719 -11.3574 1.36719 -7.05078 C 1.36719 -2.74414 4.95117 0.830078 9.24805 0.830078 Z M 9.24805 -0.654297 C 5.70312 -0.654297 2.87109 -3.49609 2.87109 -7.05078 C 2.87109 -10.6055 5.69336 -13.4473 9.23828 -13.4473 C 12.793 -13.4473 15.6348 -10.6055 15.6445 -7.05078 C 15.6543 -3.49609 12.8027 -0.654297 9.24805 -0.654297 Z M 9.22852 -3.42773 C 9.69727 -3.42773 9.9707 -3.74023 9.9707 -4.25781 L 9.9707 -6.31836 L 12.1973 -6.31836 C 12.6953 -6.31836 13.0371 -6.57227 13.0371 -7.04102 C 13.0371 -7.51953 12.7148 -7.7832 12.1973 -7.7832 L 9.9707 -7.7832 L 9.9707 -10.0098 C 9.9707 -10.5273 9.69727 -10.8496 9.22852 -10.8496 C 8.75977 -10.8496 8.50586 -10.5078 8.50586 -10.0098 L 8.50586 -7.7832 L 6.29883 -7.7832 C 5.78125 -7.7832 5.44922 -7.51953 5.44922 -7.04102 C 5.44922 -6.57227 5.80078 -6.31836 6.29883 -6.31836 L 8.50586 -6.31836 L 8.50586 -4.25781 C 8.50586 -3.75977 8.75977 -3.42773 9.22852 -3.42773 Z"/>
  </g>
  <g id="" transform="matrix(1 0 0 1 281.506 1933)">
   <path d="M 11.709 2.91016 C 17.1582 2.91016 21.6699 -1.60156 21.6699 -7.05078 C 21.6699 -12.4902 17.1484 -17.0117 11.6992 -17.0117 C 6.25977 -17.0117 1.74805 -12.4902 1.74805 -7.05078 C 1.74805 -1.60156 6.26953 2.91016 11.709 2.91016 Z M 11.709 1.25 C 7.09961 1.25 3.41797 -2.44141 3.41797 -7.05078 C 3.41797 -11.6504 7.08984 -15.3516 11.6992 -15.3516 C 16.3086 -15.3516 20 -11.6504 20.0098 -7.05078 C 20.0195 -2.44141 16.3184 1.25 11.709 1.25 Z M 11.6895 -2.41211 C 12.207 -2.41211 12.5195 -2.77344 12.5195 -3.33984 L 12.5195 -6.23047 L 15.5762 -6.23047 C 16.123 -6.23047 16.5039 -6.51367 16.5039 -7.03125 C 16.5039 -7.55859 16.1426 -7.86133 15.5762 -7.86133 L 12.5195 -7.86133 L 12.5195 -10.9277 C 12.5195 -11.5039 12.207 -11.8555 11.6895 -11.8555 C 11.1719 -11.8555 10.8789 -11.4844 10.8789 -10.9277 L 10.8789 -7.86133 L 7.83203 -7.86133 C 7.26562 -7.86133 6.89453 -7.55859 6.89453 -7.03125 C 6.89453 -6.51367 7.28516 -6.23047 7.83203 -6.23047 L 10.8789 -6.23047 L 10.8789 -3.33984 C 10.8789 -2.79297 11.1719 -2.41211 11.6895 -2.41211 Z"/>
  </g>
  <g id="" transform="matrix(1 0 0 1 304.924 1933)">
   <path d="M 14.9707 5.67383 C 21.9336 5.67383 27.6953 -0.078125 27.6953 -7.04102 C 27.6953 -14.0039 21.9238 -19.7559 14.9609 -19.7559 C 8.00781 -19.7559 2.25586 -14.0039 2.25586 -7.04102 C 2.25586 -0.078125 8.01758 5.67383 14.9707 5.67383 Z M 14.9707 3.85742 C 8.93555 3.85742 4.08203 -1.00586 4.08203 -7.04102 C 4.08203 -13.0762 8.92578 -17.9395 14.9609 -17.9395 C 21.0059 -17.9395 25.8594 -13.0762 25.8691 -7.04102 C 25.8789 -1.00586 21.0156 3.85742 14.9707 3.85742 Z M 14.9512 -1.06445 C 15.5176 -1.06445 15.8691 -1.45508 15.8691 -2.06055 L 15.8691 -6.13281 L 20.1074 -6.13281 C 20.6934 -6.13281 21.1133 -6.46484 21.1133 -7.02148 C 21.1133 -7.59766 20.7227 -7.93945 20.1074 -7.93945 L 15.8691 -7.93945 L 15.8691 -12.1875 C 15.8691 -12.8027 15.5176 -13.1934 14.9512 -13.1934 C 14.3848 -13.1934 14.0625 -12.7832 14.0625 -12.1875 L 14.0625 -7.93945 L 9.83398 -7.93945 C 9.21875 -7.93945 8.80859 -7.59766 8.80859 -7.02148 C 8.80859 -6.46484 9.23828 -6.13281 9.83398 -6.13281 L 14.0625 -6.13281 L 14.0625 -2.06055 C 14.0625 -1.47461 14.3848 -1.06445 14.9512 -1.06445 Z"/>
  </g>
  <text style="stroke:none;fill:black;font-family:-apple-system,&quot;SF Pro Display&quot;,&quot;SF Pro Text&quot;,Helvetica,sans-serif;font-weight:bold;" transform="matrix(1 0 0 1 263 1953)">Design Variations</text>
  <text style="stroke:none;fill:black;font-family:-apple-system,&quot;SF Pro Display&quot;,&quot;SF Pro Text&quot;,Helvetica,sans-serif;" transform="matrix(1 0 0 1 263 1971)">Symbols are supported in up to nine weights and three scales.</text>
  <text style="stroke:none;fill:black;font-family:-apple-system,&quot;SF Pro Display&quot;,&quot;SF Pro Text&quot;,Helvetica,sans-serif;" transform="matrix(1 0 0 1 263 1989)">For optimal layout with text and other symbols, vertically align</text>
  <text style="stroke:none;fill:black;font-family:-apple-system,&quot;SF Pro Display&quot;,&quot;SF Pro Text&quot;,Helvetica,sans-serif;" transform="matrix(1 0 0 1 263 2007)">symbols with the adjacent text.</text>
  <rect height="14" id="" style="fill:#00AEEF;stroke:none;opacity:0.4;" width="3" x="776" y="1919"/>
  <g id="" transform="matrix(1 0 0 1 779 1933)">
   <path d="M 10.5273 0 L 12.373 0 L 7.17773 -14.0918 L 5.43945 -14.0918 L 0.244141 0 L 2.08984 0 L 3.50586 -4.0332 L 9.11133 -4.0332 Z M 6.2793 -11.9531 L 6.33789 -11.9531 L 8.59375 -5.52734 L 4.02344 -5.52734 Z"/>
  </g>
  <rect height="14" id="" style="fill:#00AEEF;stroke:none;opacity:0.4;" width="3" x="791.617" y="1919"/>
  <text style="stroke:none;fill:black;font-family:-apple-system,&quot;SF Pro Display&quot;,&quot;SF Pro Text&quot;,Helvetica,sans-serif;font-weight:bold;" transform="matrix(1 0 0 1 776 1953)">Margins</text>
  <text style="stroke:none;fill:black;font-family:-apple-system,&quot;SF Pro Display&quot;,&quot;SF Pro Text&quot;,Helvetica,sans-serif;" transform="matrix(1 0 0 1 776 1971)">Leading and trailing margins on the left and right side of each symbol</text>
  <text style="stroke:none;fill:black;font-family:-apple-system,&quot;SF Pro Display&quot;,&quot;SF Pro Text&quot;,Helvetica,sans-serif;" transform="matrix(1 0 0 1 776 1989)">can be adjusted by modifying the width of the blue rectangles.</text>
  <text style="stroke:none;fill:black;font-family:-apple-system,&quot;SF Pro Display&quot;,&quot;SF Pro Text&quot;,Helvetica,sans-serif;" transform="matrix(1 0 0 1 776 2007)">Modifications are automatically applied proportionally to all</text>
  <text style="stroke:none;fill:black;font-family:-apple-system,&quot;SF Pro Display&quot;,&quot;SF Pro Text&quot;,Helvetica,sans-serif;" transform="matrix(1 0 0 1 776 2025)">scales and weights.</text>
  <g id="" transform="matrix(1 0 0 1 1289 1933)">
   <path d="M 2.83203 3.11523 L 4.375 4.6582 C 5.22461 5.48828 6.19141 5.41992 7.06055 4.46289 L 17.2754 -6.66016 C 17.7051 -6.36719 18.0957 -6.37695 18.5645 -6.47461 L 19.6094 -6.68945 L 20.3027 -5.99609 L 20.2539 -5.47852 C 20.1855 -4.95117 20.3516 -4.53125 20.8496 -4.0332 L 21.6602 -3.22266 C 22.168 -2.71484 22.8223 -2.68555 23.3008 -3.16406 L 26.5527 -6.41602 C 27.0312 -6.89453 27.0117 -7.54883 26.5039 -8.05664 L 25.6836 -8.87695 C 25.1855 -9.375 24.7754 -9.55078 24.2383 -9.47266 L 23.7109 -9.41406 L 23.0566 -10.0781 L 23.3398 -11.2207 C 23.4863 -11.7871 23.3398 -12.2559 22.7148 -12.8613 L 20.3027 -15.2539 C 16.7578 -18.7793 12.2266 -18.6719 9.11133 -15.5371 C 8.69141 -15.1074 8.64258 -14.5215 8.91602 -14.0918 C 9.15039 -13.7207 9.62891 -13.4961 10.2734 -13.6621 C 11.7871 -14.043 13.3008 -13.9258 14.7852 -12.9199 L 14.1602 -11.3379 C 13.9258 -10.752 13.9453 -10.2734 14.1797 -9.83398 L 3.01758 0.439453 C 2.08008 1.30859 1.97266 2.25586 2.83203 3.11523 Z M 10.6738 -15.1465 C 13.3398 -17.1387 16.6504 -16.8262 19.0527 -14.4141 L 21.6797 -11.8066 C 21.9141 -11.5723 21.9434 -11.3867 21.8848 -11.0938 L 21.5039 -9.53125 L 23.0762 -7.95898 L 24.043 -8.04688 C 24.3262 -8.07617 24.4141 -8.05664 24.6387 -7.83203 L 25.2637 -7.20703 L 22.5098 -4.46289 L 21.8848 -5.07812 C 21.6602 -5.30273 21.6406 -5.40039 21.6699 -5.68359 L 21.7578 -6.64062 L 20.1953 -8.20312 L 18.5742 -7.89062 C 18.291 -7.83203 18.1445 -7.83203 17.9102 -8.07617 L 15.7324 -10.2539 C 15.5078 -10.4883 15.4785 -10.625 15.6055 -10.9473 L 16.5527 -13.2227 C 14.9512 -14.7559 12.8418 -15.6055 10.8008 -14.9512 C 10.7129 -14.9219 10.6445 -14.9414 10.6152 -14.9805 C 10.5859 -15.0293 10.5859 -15.0781 10.6738 -15.1465 Z M 4.10156 2.41211 C 3.61328 1.91406 3.78906 1.61133 4.12109 1.30859 L 15.0781 -8.80859 L 16.3086 -7.57812 L 6.15234 3.34961 C 5.84961 3.68164 5.46875 3.7793 5.06836 3.37891 Z"/>
  </g>
  <text style="stroke:none;fill:black;font-family:-apple-system,&quot;SF Pro Display&quot;,&quot;SF Pro Text&quot;,Helvetica,sans-serif;font-weight:bold;" transform="matrix(1 0 0 1 1289 1953)">Exporting</text>
  <text style="stroke:none;fill:black;font-family:-apple-system,&quot;SF Pro Display&quot;,&quot;SF Pro Text&quot;,Helvetica,sans-serif;" transform="matrix(1 0 0 1 1289 1971)">Symbols should be outlined when exporting to ensure the</text>
  <text style="stroke:none;fill:black;font-family:-apple-system,&quot;SF Pro Display&quot;,&quot;SF Pro Text&quot;,Helvetica,sans-serif;" transform="matrix(1 0 0 1 1289 1989)">design is preserved when submitting to Xcode.</text>
  <text id="template-version" style="stroke:none;fill:black;font-family:-apple-system,&quot;SF Pro Display&quot;,&quot;SF Pro Text&quot;,Helvetica,sans-serif;text-anchor:end;" transform="matrix(1 0 0 1 3036 1933)">Template v.1.0</text>
  <text style="stroke:none;fill:black;font-family:-apple-system,&quot;SF Pro Display&quot;,&quot;SF Pro Text&quot;,Helvetica,sans-serif;text-anchor:end;" transform="matrix(1 0 0 1 3036 1951)">Generated from cloud.sun.fill</text>
  <text style="stroke:none;fill:black;font-family:-apple-system,&quot;SF Pro Display&quot;,&quot;SF Pro Text&quot;,Helvetica,sans-serif;text-anchor:end;" transform="matrix(1 0 0 1 3036 1969)">Typeset at 100 points</text>
  <text style="stroke:none;fill:black;font-family:-apple-system,&quot;SF Pro Display&quot;,&quot;SF Pro Text&quot;,Helvetica,sans-serif;" transform="matrix(1 0 0 1 263 726)">Small</text>
  <text style="stroke:none;fill:black;font-family:-apple-system,&quot;SF Pro Display&quot;,&quot;SF Pro Text&quot;,Helvetica,sans-serif;" transform="matrix(1 0 0 1 263 1156)">Medium</text>
  <text style="stroke:none;fill:black;font-family:-apple-system,&quot;SF Pro Display&quot;,&quot;SF Pro Text&quot;,Helvetica,sans-serif;" transform="matrix(1 0 0 1 263 1586)">Large</text>
 </g>
 <g id="Guides">
  <g id="H-reference" style="fill:#27AAE1;stroke:none;" transform="matrix(1 0 0 1 339 696)">
   <path d="M 54.9316 0 L 57.666 0 L 30.5664 -70.459 L 28.0762 -70.459 L 0.976562 0 L 3.66211 0 L 12.9395 -24.4629 L 45.7031 -24.4629 Z M 29.1992 -67.0898 L 29.4434 -67.0898 L 44.8242 -26.709 L 13.8184 -26.709 Z"/>
  </g>
  <line id="Baseline-S" style="fill:none;stroke:#27AAE1;opacity:1;stroke-width:0.577;" x1="263" x2="3036" y1="696" y2="696"/>
  <line id="Capline-S" style="fill:none;stroke:#27AAE1;opacity:1;stroke-width:0.577;" x1="263" x2="3036" y1="625.541" y2="625.541"/>
  <g id="H-reference" style="fill:#27AAE1;stroke:none;" transform="matrix(1 0 0 1 339 1126)">
   <path d="M 54.9316 0 L 57.666 0 L 30.5664 -70.459 L 28.0762 -70.459 L 0.976562 0 L 3.66211 0 L 12.9395 -24.4629 L 45.7031 -24.4629 Z M 29.1992 -67.0898 L 29.4434 -67.0898 L 44.8242 -26.709 L 13.8184 -26.709 Z"/>
  </g>
  <line id="Baseline-M" style="fill:none;stroke:#27AAE1;opacity:1;stroke-width:0.577;" x1="263" x2="3036" y1="1126" y2="1126"/>
  <line id="Capline-M" style="fill:none;stroke:#27AAE1;opacity:1;stroke-width:0.577;" x1="263" x2="3036" y1="1055.54" y2="1055.54"/>
  <g id="H-reference" style="fill:#27AAE1;stroke:none;" transform="matrix(1 0 0 1 339 1556)">
   <path d="M 54.9316 0 L 57.666 0 L 30.5664 -70.459 L 28.0762 -70.459 L 0.976562 0 L 3.66211 0 L 12.9395 -24.4629 L 45.7031 -24.4629 Z M 29.1992 -67.0898 L 29.4434 -67.0898 L 44.8242 -26.709 L 13.8184 -26.709 Z"/>
  </g>
  <line id="Baseline-L" style="fill:none;stroke:#27AAE1;opacity:1;stroke-width:0.577;" x1="263" x2="3036" y1="1556" y2="1556"/>
  <line id="Capline-L" style="fill:none;stroke:#27AAE1;opacity:1;stroke-width:0.577;" x1="263" x2="3036" y1="1485.54" y2="1485.54"/>
  <rect height="119.336" id="left-margin" style="fill:#00AEEF;stroke:none;opacity:0.4;" width="8.74023" x="1370.4" y="1030.79"/>
  <rect height="119.336" id="right-margin" style="fill:#00AEEF;stroke:none;opacity:0.4;" width="8.74023" x="1520.55" y="1030.79"/>
 </g>
 <g id="Symbols">
  <g id="Black-L" transform="matrix(1 0 0 1 2824.32 1556)">
   <path d="M 138.623 -99.3164 C 142.725 -99.3164 146.094 -102.783 146.094 -106.836 L 146.094 -117.676 C 146.094 -121.826 142.725 -125.244 138.623 -125.244 C 134.521 -125.244 131.201 -121.826 131.201 -117.676 L 131.201 -106.836 C 131.201 -102.783 134.521 -99.3164 138.623 -99.3164 Z M 97.998 -86.9629 C 100.977 -84.0332 105.762 -83.9844 108.643 -86.8652 C 111.475 -89.7461 111.426 -94.4336 108.545 -97.4609 L 100.928 -105.225 C 98.0957 -108.154 93.1641 -108.105 90.2832 -105.225 C 87.4023 -102.344 87.5488 -97.5586 90.4297 -94.6777 Z M 168.652 -86.8164 C 171.533 -83.9355 176.416 -84.0332 179.297 -86.9141 L 186.963 -94.5801 C 189.893 -97.4609 189.893 -102.295 187.012 -105.176 C 184.131 -108.057 179.395 -107.959 176.465 -105.029 L 168.75 -97.4609 C 165.771 -94.5801 165.82 -89.6973 168.652 -86.8164 Z M 157.812 -30.3223 C 166.064 -36.1328 171.484 -45.9473 171.484 -56.9336 C 171.484 -75 156.836 -89.6484 138.77 -89.6484 C 127.002 -89.6484 116.65 -83.4473 111.377 -74.8047 C 114.258 -71.9727 116.748 -68.7012 118.848 -64.6973 C 138.477 -63.5742 154.395 -49.707 157.812 -30.3223 Z M 39.1602 12.793 L 114.844 12.793 C 133.35 12.793 147.314 -1.5625 147.314 -20.5566 C 147.314 -40.2832 132.471 -54.7852 112.109 -54.6875 C 105.615 -66.7969 93.2617 -77.5879 73.3887 -77.5879 C 50.7324 -77.5879 32.0801 -60.8398 30.2734 -38.7207 C 18.75 -35.6445 11.2793 -25.7324 11.2793 -13.4277 C 11.2793 2.19727 22.5586 12.793 39.1602 12.793 Z M 188.525 -49.5117 L 199.365 -49.5117 C 203.467 -49.5117 206.885 -52.7832 206.885 -56.8848 C 206.885 -60.9863 203.467 -64.3555 199.365 -64.3555 L 188.525 -64.3555 C 184.473 -64.3555 180.957 -60.9863 180.957 -56.8848 C 180.957 -52.7832 184.473 -49.5117 188.525 -49.5117 Z M 176.367 -8.64258 C 179.346 -5.71289 184.082 -5.66406 186.963 -8.54492 C 189.844 -11.4258 189.746 -16.1621 186.865 -19.0918 L 179.248 -26.8555 C 176.416 -29.7852 171.484 -29.7363 168.604 -26.8555 C 165.723 -23.9746 165.869 -19.1895 168.75 -16.3086 Z"/>
  </g>
  <g id="Heavy-L" transform="matrix(1 0 0 1 2529.27 1556)">
   <path d="M 136.182 -97.4121 C 139.893 -97.4121 142.92 -100.537 142.92 -104.199 L 142.92 -115.967 C 142.92 -119.727 139.893 -122.754 136.182 -122.754 C 132.471 -122.754 129.443 -119.727 129.443 -115.967 L 129.443 -104.199 C 129.443 -100.537 132.471 -97.4121 136.182 -97.4121 Z M 96.7773 -85.1074 C 99.4629 -82.4707 103.809 -82.4219 106.396 -85.0586 C 108.984 -87.6465 108.887 -91.8945 106.299 -94.5801 L 98.0469 -102.979 C 95.459 -105.664 91.0645 -105.566 88.4277 -102.979 C 85.8398 -100.391 85.9375 -96.0938 88.5254 -93.457 Z M 166.016 -85.0098 C 168.555 -82.373 172.998 -82.4707 175.586 -85.0586 L 183.936 -93.3594 C 186.572 -95.9961 186.572 -100.342 183.936 -102.93 C 181.348 -105.566 177.051 -105.518 174.414 -102.832 L 166.064 -94.5801 C 163.428 -91.9922 163.428 -87.5977 166.016 -85.0098 Z M 154.443 -28.5645 C 162.988 -34.4238 168.555 -44.1895 168.555 -55.3223 C 168.555 -73.1445 154.102 -87.5488 136.279 -87.5488 C 124.512 -87.5488 114.209 -81.2988 109.033 -72.4121 C 111.865 -69.5801 114.307 -66.3574 116.309 -62.4512 C 136.084 -61.2305 151.367 -47.6562 154.443 -28.5645 Z M 38.5742 12.5488 L 112.598 12.5488 C 130.859 12.5488 144.727 -1.5625 144.727 -20.1172 C 144.727 -39.209 130.127 -53.3203 110.156 -53.2715 C 103.467 -65.918 90.9668 -76.0742 72.168 -76.0742 C 50.0977 -76.0742 31.8359 -59.5215 29.9805 -37.6953 C 18.6035 -34.6191 11.2793 -25 11.2793 -12.9883 C 11.2793 2.19727 22.3633 12.5488 38.5742 12.5488 Z M 185.059 -48.584 L 196.777 -48.584 C 200.537 -48.584 203.564 -51.5625 203.564 -55.2734 C 203.613 -58.9844 200.537 -62.0117 196.777 -62.0117 L 185.059 -62.0117 C 181.396 -62.0117 178.223 -58.9844 178.223 -55.2734 C 178.223 -51.5625 181.396 -48.584 185.059 -48.584 Z M 174.365 -7.56836 C 177.002 -4.93164 181.299 -4.93164 183.936 -7.51953 C 186.523 -10.1074 186.426 -14.4043 183.838 -17.041 L 175.537 -25.4395 C 172.998 -28.0762 168.555 -28.0273 165.967 -25.4395 C 163.379 -22.8516 163.428 -18.5059 166.064 -15.918 Z"/>
  </g>
  <g id="Bold-L" transform="matrix(1 0 0 1 2234.39 1556)">
   <path d="M 133.447 -95.2637 C 136.719 -95.2637 139.404 -98.0469 139.404 -101.27 L 139.404 -114.014 C 139.404 -117.334 136.719 -120.02 133.447 -120.02 C 130.176 -120.02 127.49 -117.334 127.49 -114.014 L 127.49 -101.27 C 127.49 -98.0469 130.176 -95.2637 133.447 -95.2637 Z M 95.459 -83.0566 C 97.8027 -80.7129 101.66 -80.7129 103.906 -83.0078 C 106.152 -85.3027 106.104 -89.0137 103.809 -91.3574 L 94.7754 -100.488 C 92.5293 -102.832 88.6719 -102.783 86.377 -100.488 C 84.082 -98.1934 84.1309 -94.4336 86.4258 -92.0898 Z M 163.037 -82.959 C 165.283 -80.6641 169.141 -80.7129 171.484 -83.0078 L 180.518 -92.041 C 182.812 -94.3359 182.812 -98.1934 180.518 -100.488 C 178.223 -102.734 174.463 -102.734 172.119 -100.391 L 163.037 -91.3574 C 160.742 -89.0625 160.742 -85.2539 163.037 -82.959 Z M 150.635 -26.6113 C 159.521 -32.5195 165.234 -42.2852 165.234 -53.4668 C 165.234 -71.0449 151.074 -85.2539 133.496 -85.2539 C 121.729 -85.2539 111.523 -78.8574 106.396 -69.7266 C 109.18 -66.8945 111.523 -63.7695 113.525 -59.9609 C 133.447 -58.5938 147.998 -45.3613 150.635 -26.6113 Z M 37.9883 12.2559 L 110.059 12.2559 C 128.076 12.2559 141.846 -1.5625 141.846 -19.5801 C 141.846 -37.9883 127.49 -51.6602 108.008 -51.6602 C 101.025 -64.8926 88.3789 -74.3652 70.8008 -74.3652 C 49.4141 -74.3652 31.4941 -58.0566 29.6875 -36.6211 C 18.457 -33.5449 11.2793 -24.1211 11.2793 -12.5 C 11.2793 2.19727 22.1191 12.2559 37.9883 12.2559 Z M 181.152 -47.5586 L 193.945 -47.5586 C 197.217 -47.5586 199.902 -50.1953 199.902 -53.418 C 199.902 -56.6895 197.217 -59.375 193.945 -59.375 L 181.152 -59.375 C 177.93 -59.375 175.195 -56.6895 175.195 -53.418 C 175.195 -50.1953 177.93 -47.5586 181.152 -47.5586 Z M 172.119 -6.39648 C 174.463 -4.05273 178.223 -4.10156 180.518 -6.34766 C 182.764 -8.64258 182.764 -12.4023 180.42 -14.7461 L 171.387 -23.8281 C 169.141 -26.123 165.283 -26.123 162.988 -23.8281 C 160.693 -21.5332 160.742 -17.7246 163.037 -15.4297 Z"/>
  </g>
  <g id="Semibold-L" transform="matrix(1 0 0 1 1938.95 1556)">
   <path d="M 131.543 -93.7988 C 134.521 -93.7988 136.963 -96.3379 136.963 -99.2188 L 136.963 -112.695 C 136.963 -115.674 134.521 -118.115 131.543 -118.115 C 128.564 -118.115 126.172 -115.674 126.172 -112.695 L 126.172 -99.2188 C 126.172 -96.3379 128.564 -93.7988 131.543 -93.7988 Z M 94.4824 -81.6406 C 96.6309 -79.4922 100.146 -79.4922 102.148 -81.5918 C 104.199 -83.6426 104.199 -87.0605 102.1 -89.1602 L 92.5781 -98.7793 C 90.4785 -100.879 87.0605 -100.83 84.9609 -98.7793 C 82.9102 -96.6797 82.9102 -93.2617 85.0098 -91.1621 Z M 160.938 -81.543 C 162.988 -79.4922 166.504 -79.4922 168.604 -81.5918 L 178.125 -91.1133 C 180.273 -93.2129 180.225 -96.6797 178.174 -98.7793 C 176.074 -100.83 172.705 -100.83 170.557 -98.7305 L 160.986 -89.1602 C 158.887 -87.1094 158.936 -83.6426 160.938 -81.543 Z M 148.047 -25.2441 C 157.178 -31.2012 162.988 -40.9668 162.988 -52.1973 C 162.988 -69.6289 148.975 -83.6426 131.592 -83.6426 C 119.824 -83.6426 109.668 -77.1973 104.59 -67.8711 C 107.324 -65.0879 109.619 -61.9629 111.572 -58.252 C 131.641 -56.8359 145.654 -43.75 148.047 -25.2441 Z M 37.5488 12.0605 L 108.301 12.0605 C 126.123 12.0605 139.893 -1.5625 139.893 -19.2383 C 139.893 -37.1582 125.684 -50.5371 106.494 -50.5371 C 99.3652 -64.209 86.5723 -73.1934 69.873 -73.1934 C 48.9258 -73.1934 31.2988 -57.0312 29.4922 -35.8398 C 18.4082 -32.7637 11.2793 -23.5352 11.2793 -12.1582 C 11.2793 2.19727 21.9727 12.0605 37.5488 12.0605 Z M 178.467 -46.8262 L 191.943 -46.8262 C 194.922 -46.8262 197.314 -49.2188 197.363 -52.1973 C 197.363 -55.1758 194.922 -57.5684 191.943 -57.5684 L 178.467 -57.5684 C 175.586 -57.5684 173.096 -55.1758 173.096 -52.1973 C 173.096 -49.2188 175.586 -46.8262 178.467 -46.8262 Z M 170.557 -5.56641 C 172.656 -3.4668 176.074 -3.51562 178.125 -5.56641 C 180.225 -7.66602 180.176 -11.084 178.125 -13.1836 L 168.555 -22.7539 C 166.504 -24.8047 163.037 -24.8047 160.938 -22.7539 C 158.887 -20.6543 158.887 -17.1875 160.986 -15.1367 Z"/>
  </g>
  <g id="Medium-L" transform="matrix(1 0 0 1 1643.21 1556)">
   <path d="M 130.127 -92.7246 C 132.861 -92.7246 135.107 -95.0195 135.107 -97.7051 L 135.107 -111.67 C 135.107 -114.453 132.861 -116.65 130.127 -116.65 C 127.393 -116.65 125.146 -114.453 125.146 -111.67 L 125.146 -97.7051 C 125.146 -95.0195 127.393 -92.7246 130.127 -92.7246 Z M 93.7988 -80.5176 C 95.752 -78.5645 98.9746 -78.6133 100.83 -80.5176 C 102.734 -82.4219 102.734 -85.5469 100.83 -87.5 L 90.8691 -97.4609 C 88.9648 -99.4141 85.791 -99.3652 83.8867 -97.4609 C 81.9824 -95.5566 81.9824 -92.3828 83.8867 -90.4785 Z M 159.424 -80.5176 C 161.279 -78.5645 164.502 -78.5645 166.455 -80.5176 L 176.367 -90.4297 C 178.32 -92.3828 178.271 -95.5566 176.367 -97.4609 C 174.463 -99.3652 171.338 -99.4141 169.385 -97.4609 L 159.424 -87.5 C 157.471 -85.5957 157.52 -82.4219 159.424 -80.5176 Z M 146.045 -24.2188 C 155.371 -30.2246 161.23 -39.9414 161.23 -51.2695 C 161.23 -68.5547 147.412 -82.4219 130.127 -82.4219 C 118.359 -82.4219 108.252 -75.9277 103.223 -66.4551 C 105.908 -63.6719 108.203 -60.5957 110.107 -56.9824 C 130.273 -55.4688 143.896 -42.5781 146.045 -24.2188 Z M 37.207 11.8652 L 106.982 11.8652 C 124.658 11.8652 138.379 -1.5625 138.379 -18.9941 C 138.379 -36.5234 124.268 -49.6582 105.371 -49.707 C 98.0957 -63.6719 85.2539 -72.3145 69.1895 -72.3145 C 48.5352 -72.3145 31.1523 -56.25 29.2969 -35.3027 C 18.3105 -32.1777 11.2793 -23.0469 11.2793 -11.8652 C 11.2793 2.19727 21.8262 11.8652 37.207 11.8652 Z M 176.465 -46.2891 L 190.479 -46.2891 C 193.213 -46.2891 195.41 -48.4863 195.41 -51.2207 C 195.459 -53.9551 193.213 -56.2012 190.479 -56.2012 L 176.465 -56.2012 C 173.779 -56.2012 171.484 -53.9551 171.484 -51.2207 C 171.484 -48.4863 173.779 -46.2891 176.465 -46.2891 Z M 169.385 -4.93164 C 171.338 -3.02734 174.463 -3.07617 176.367 -4.98047 C 178.271 -6.88477 178.271 -10.0586 176.318 -11.9629 L 166.357 -21.9238 C 164.502 -23.7793 161.279 -23.8281 159.375 -21.9238 C 157.471 -19.9707 157.52 -16.7969 159.424 -14.8926 Z"/>
  </g>
  <g id="Regular-L" transform="matrix(1 0 0 1 1347.74 1556)">
   <path d="M 128.271 -91.2598 C 130.664 -91.2598 132.715 -93.3105 132.715 -95.6543 L 132.715 -110.352 C 132.715 -112.793 130.664 -114.795 128.271 -114.795 C 125.83 -114.795 123.828 -112.793 123.828 -110.352 L 123.828 -95.6543 C 123.828 -93.3105 125.83 -91.2598 128.271 -91.2598 Z M 92.8711 -79.1016 C 94.5801 -77.3438 97.5098 -77.3926 99.1211 -79.1016 C 100.781 -80.8105 100.83 -83.5938 99.1211 -85.3027 L 88.6719 -95.8008 C 86.9141 -97.5098 84.1797 -97.4609 82.4707 -95.8008 C 80.7617 -94.0918 80.7617 -91.2598 82.4707 -89.5508 Z M 157.373 -79.1016 C 159.033 -77.3926 161.914 -77.3438 163.672 -79.1016 L 174.023 -89.5508 C 175.732 -91.2598 175.732 -94.0918 174.023 -95.8008 C 172.314 -97.4609 169.58 -97.5098 167.822 -95.8008 L 157.373 -85.3027 C 155.664 -83.5938 155.713 -80.8105 157.373 -79.1016 Z M 143.457 -22.8516 C 153.027 -28.9062 158.984 -38.623 158.984 -50 C 158.984 -67.1387 145.312 -80.8594 128.271 -80.8594 C 116.455 -80.8594 106.396 -74.2676 101.465 -64.5996 C 104.102 -61.8164 106.299 -58.8379 108.203 -55.2734 C 128.467 -53.6621 141.602 -40.9668 143.457 -22.8516 Z M 36.8164 11.6699 L 105.225 11.6699 C 122.754 11.6699 136.426 -1.61133 136.426 -18.6523 C 136.426 -35.7422 122.51 -48.584 103.906 -48.6328 C 96.4355 -62.9883 83.4961 -71.1426 68.2617 -71.1426 C 48.0469 -71.1426 30.9082 -55.2246 29.1016 -34.5215 C 18.2129 -31.3965 11.2793 -22.4609 11.2793 -11.5234 C 11.2793 2.19727 21.6797 11.6699 36.8164 11.6699 Z M 173.828 -45.6055 L 188.525 -45.6055 C 190.918 -45.6055 192.871 -47.5586 192.92 -50 C 192.92 -52.4414 190.918 -54.3945 188.525 -54.3945 L 173.828 -54.3945 C 171.436 -54.3945 169.385 -52.4414 169.385 -50 C 169.385 -47.5586 171.436 -45.6055 173.828 -45.6055 Z M 167.822 -4.15039 C 169.58 -2.39258 172.314 -2.49023 174.023 -4.19922 C 175.732 -5.9082 175.732 -8.69141 174.023 -10.4004 L 163.574 -20.8008 C 161.865 -22.4609 159.082 -22.5098 157.373 -20.8008 C 155.664 -19.0918 155.664 -16.2598 157.373 -14.5508 Z"/>
  </g>
  <g id="Light-L" transform="matrix(1 0 0 1 1051.62 1556)">
   <path d="M 127.832 -92.041 C 129.639 -92.041 131.201 -93.6035 131.201 -95.3613 L 131.201 -111.523 C 131.201 -113.33 129.639 -114.844 127.832 -114.844 C 126.025 -114.844 124.463 -113.33 124.463 -111.523 L 124.463 -95.3613 C 124.463 -93.6035 126.025 -92.041 127.832 -92.041 Z M 93.9941 -79.8828 C 95.3125 -78.5645 97.4609 -78.6133 98.7305 -79.8828 C 99.9512 -81.1523 100 -83.252 98.7305 -84.5703 L 87.207 -96.0449 C 85.8887 -97.3633 83.8379 -97.3145 82.5684 -96.0449 C 81.2988 -94.7754 81.25 -92.6758 82.5684 -91.3574 Z M 156.934 -79.8828 C 158.203 -78.6133 160.352 -78.5645 161.67 -79.8828 L 173.096 -91.3574 C 174.414 -92.6758 174.365 -94.7754 173.096 -96.0449 C 171.826 -97.3145 169.775 -97.3633 168.408 -96.0449 L 156.934 -84.5703 C 155.664 -83.252 155.713 -81.1523 156.934 -79.8828 Z M 141.699 -23.3887 C 151.611 -29.248 158.008 -39.0625 158.008 -50.7812 C 158.008 -67.5781 144.58 -81.0547 127.832 -81.0547 C 115.576 -81.0547 105.225 -73.877 100.684 -63.5254 C 103.271 -60.6445 105.469 -57.6172 107.275 -54.1504 C 126.904 -52.6367 139.6 -40.332 141.699 -23.3887 Z M 35.9375 10.8887 L 104.688 10.8887 C 121.826 10.8887 135.254 -2.05078 135.254 -18.6035 C 135.254 -35.2051 121.533 -47.7051 103.223 -47.7051 C 95.6543 -62.4023 82.9102 -70.5566 67.7734 -70.5566 C 47.9004 -70.5566 31.1035 -54.6387 29.3945 -33.9844 C 18.3105 -31.0059 11.2793 -22.2656 11.2793 -11.4746 C 11.2793 1.70898 21.3379 10.8887 35.9375 10.8887 Z M 172.266 -47.4609 L 188.428 -47.4609 C 190.283 -47.4609 191.699 -48.9746 191.748 -50.7812 C 191.797 -52.5879 190.283 -54.1016 188.428 -54.1016 L 172.266 -54.1016 C 170.459 -54.1016 168.945 -52.5879 168.945 -50.7812 C 168.945 -48.9746 170.459 -47.4609 172.266 -47.4609 Z M 168.408 -5.41992 C 169.775 -4.10156 171.826 -4.19922 173.096 -5.46875 C 174.365 -6.73828 174.414 -8.83789 173.096 -10.1074 L 161.621 -21.582 C 160.303 -22.8516 158.203 -22.8516 156.934 -21.582 C 155.664 -20.3125 155.664 -18.1641 156.934 -16.8945 Z"/>
  </g>
  <g id="Thin-L" transform="matrix(1 0 0 1 755.665 1556)">
   <path d="M 127.295 -93.0664 C 128.271 -93.0664 129.199 -93.9453 129.199 -94.873 L 129.199 -113.037 C 129.199 -114.062 128.271 -114.893 127.295 -114.893 C 126.27 -114.893 125.342 -114.062 125.342 -113.037 L 125.342 -94.873 C 125.342 -93.9453 126.27 -93.0664 127.295 -93.0664 Z M 156.396 -80.9082 C 157.08 -80.2246 158.301 -80.1758 159.033 -80.9082 L 171.826 -93.75 C 172.607 -94.5312 172.559 -95.6543 171.826 -96.3867 C 171.143 -97.0703 170.02 -97.168 169.238 -96.3867 L 156.396 -83.5449 C 155.664 -82.8125 155.664 -81.6406 156.396 -80.9082 Z M 95.5078 -80.9082 C 96.2402 -80.1758 97.4609 -80.2246 98.1445 -80.9082 C 98.877 -81.6406 98.877 -82.8125 98.1445 -83.5449 L 85.3027 -96.3867 C 84.5215 -97.168 83.3984 -97.0703 82.7148 -96.3867 C 81.9824 -95.6543 81.9336 -94.5312 82.7148 -93.75 Z M 139.404 -24.1211 C 149.805 -29.6387 156.738 -39.6484 156.738 -51.8066 C 156.738 -68.2129 143.604 -81.3477 127.295 -81.3477 C 114.355 -81.3477 103.662 -73.3398 99.6582 -62.0117 C 102.148 -59.082 104.346 -55.957 106.055 -52.6855 C 124.805 -51.3184 136.914 -39.4531 139.404 -24.1211 Z M 34.7656 9.86328 L 104.004 9.86328 C 120.557 9.86328 133.643 -2.63672 133.643 -18.5059 C 133.643 -34.5703 120.215 -46.582 102.344 -46.5332 C 94.5801 -61.6699 82.1777 -69.8242 67.0898 -69.8242 C 47.7051 -69.8242 31.3477 -53.9062 29.7852 -33.3008 C 18.457 -30.4199 11.2305 -21.9238 11.2305 -11.4258 C 11.2305 1.07422 20.9473 9.86328 34.7656 9.86328 Z M 170.215 -49.9512 L 188.33 -49.9512 C 189.453 -49.9512 190.186 -50.7812 190.234 -51.8066 C 190.332 -52.832 189.453 -53.6621 188.33 -53.6621 L 170.215 -53.6621 C 169.189 -53.6621 168.359 -52.832 168.359 -51.8066 C 168.359 -50.7812 169.189 -49.9512 170.215 -49.9512 Z M 169.238 -7.12891 C 170.02 -6.34766 171.143 -6.44531 171.826 -7.17773 C 172.559 -7.86133 172.607 -8.98438 171.826 -9.76562 L 159.033 -22.6074 C 158.301 -23.3398 157.08 -23.3398 156.396 -22.6074 C 155.664 -21.9238 155.664 -20.7031 156.396 -19.9707 Z"/>
  </g>
  <g id="Ultralight-L" transform="matrix(1 0 0 1 459.345 1556)">
   <path d="M 127.002 -93.6035 C 127.588 -93.6035 128.174 -94.1406 128.174 -94.6777 L 128.174 -113.818 C 128.174 -114.404 127.588 -114.893 127.002 -114.893 C 126.367 -114.893 125.83 -114.404 125.83 -113.818 L 125.83 -94.6777 C 125.83 -94.1406 126.367 -93.6035 127.002 -93.6035 Z M 96.2891 -81.4453 C 96.7285 -81.0059 97.4609 -81.0059 97.8516 -81.4453 C 98.291 -81.8848 98.291 -82.6172 97.8516 -83.0566 L 84.375 -96.5332 C 83.8379 -97.0703 83.2031 -96.9727 82.7637 -96.5332 C 82.3242 -96.1426 82.2754 -95.459 82.7637 -94.9707 Z M 156.104 -81.4453 C 156.543 -81.0059 157.275 -81.0059 157.666 -81.4453 L 171.191 -94.9707 C 171.729 -95.459 171.631 -96.1426 171.191 -96.5332 C 170.801 -96.9727 170.117 -97.0703 169.629 -96.5332 L 156.104 -83.0566 C 155.664 -82.6172 155.664 -81.8848 156.104 -81.4453 Z M 138.232 -24.5117 C 148.877 -29.834 156.055 -39.8926 156.055 -52.3438 C 156.055 -68.5547 143.115 -81.4941 127.002 -81.4941 C 113.721 -81.4941 102.832 -73.0957 99.1211 -61.2793 C 101.611 -58.3008 103.76 -55.127 105.42 -51.9531 C 123.73 -50.6348 135.547 -39.0137 138.232 -24.5117 Z M 34.1797 9.375 L 103.613 9.375 C 119.873 9.375 132.861 -2.92969 132.861 -18.457 C 132.861 -34.2285 119.58 -45.9961 101.904 -45.8984 C 94.043 -61.3281 81.8359 -69.4336 66.6992 -69.4336 C 47.6074 -69.4336 31.4941 -53.5156 29.9805 -32.9102 C 18.5059 -30.127 11.2305 -21.7773 11.2305 -11.377 C 11.2305 0.78125 20.7031 9.375 34.1797 9.375 Z M 169.141 -51.2695 L 188.281 -51.2695 C 189.014 -51.2695 189.404 -51.709 189.502 -52.3438 C 189.551 -52.9297 189.014 -53.418 188.281 -53.418 L 169.141 -53.418 C 168.555 -53.418 168.066 -52.9297 168.066 -52.3438 C 168.066 -51.709 168.555 -51.2695 169.141 -51.2695 Z M 169.629 -8.00781 C 170.117 -7.51953 170.801 -7.61719 171.191 -8.00781 C 171.631 -8.44727 171.729 -9.08203 171.191 -9.61914 L 157.666 -23.1445 C 157.275 -23.584 156.543 -23.584 156.104 -23.1445 C 155.664 -22.7051 155.664 -21.9727 156.104 -21.5332 Z"/>
  </g>
  <g id="Black-M" transform="matrix(1 0 0 1 2846.95 1126)">
   <path d="M 110.498 -87.8418 C 113.916 -87.8418 116.65 -90.7227 116.65 -94.1406 L 116.65 -102.051 C 116.65 -105.518 113.916 -108.35 110.498 -108.35 C 107.129 -108.35 104.395 -105.518 104.395 -102.051 L 104.395 -94.1406 C 104.395 -90.7227 107.129 -87.8418 110.498 -87.8418 Z M 78.2227 -78.2715 C 80.6641 -75.8301 84.6191 -75.7324 87.0117 -78.125 C 89.4043 -80.5176 89.2578 -84.375 86.8652 -86.9141 L 81.3477 -92.627 C 79.0527 -95.0684 74.9023 -94.9707 72.5098 -92.627 C 70.1172 -90.2344 70.2637 -86.2793 72.6562 -83.8867 Z M 134.082 -78.0762 C 136.475 -75.6836 140.479 -75.8301 142.871 -78.1738 L 148.535 -83.7891 C 150.977 -86.1328 150.977 -90.1855 148.584 -92.5293 C 146.191 -94.9219 142.236 -94.873 139.795 -92.4316 L 134.18 -86.9141 C 131.738 -84.5215 131.738 -80.4199 134.082 -78.0762 Z M 125.977 -34.1309 C 132.129 -38.3789 136.328 -46.0449 136.328 -54.6875 C 136.328 -68.8477 124.805 -80.3223 110.645 -80.3223 C 101.27 -80.3223 93.0176 -75.293 89.0625 -68.5547 C 91.3574 -66.3086 93.3594 -63.623 94.9707 -60.4492 C 109.668 -59.7656 122.656 -48.877 125.977 -34.1309 Z M 30.6641 1.95312 L 91.7969 1.95312 C 106.201 1.95312 116.992 -9.375 116.992 -24.4141 C 116.992 -40.332 105.322 -51.9043 89.1602 -51.7578 C 84.375 -60.6445 75.0977 -69.8242 58.2031 -69.8242 C 40.0879 -69.8242 25.3418 -56.5918 23.9746 -38.9648 C 14.7461 -36.6699 8.74023 -28.8086 8.74023 -18.8965 C 8.74023 -6.49414 17.5781 1.95312 30.6641 1.95312 Z M 149.951 -48.5352 L 157.91 -48.5352 C 161.377 -48.5352 164.16 -51.2207 164.16 -54.5898 C 164.16 -58.0078 161.377 -60.791 157.91 -60.791 L 149.951 -60.791 C 146.582 -60.791 143.701 -58.0078 143.701 -54.5898 C 143.701 -51.2207 146.582 -48.5352 149.951 -48.5352 Z M 139.746 -16.748 C 142.188 -14.3066 146.143 -14.209 148.535 -16.6016 C 150.879 -18.9941 150.781 -22.8516 148.389 -25.3906 L 142.871 -31.1035 C 140.576 -33.5449 136.426 -33.4473 134.033 -31.1035 C 131.641 -28.7109 131.787 -24.7559 134.18 -22.3633 Z"/>
  </g>
  <g id="Heavy-M" transform="matrix(1 0 0 1 2551.87 1126)">
   <path d="M 107.959 -85.5957 C 111.035 -85.5957 113.574 -88.2324 113.574 -91.3086 L 113.574 -99.9023 C 113.574 -103.027 111.035 -105.615 107.959 -105.615 C 104.834 -105.615 102.295 -103.027 102.295 -99.9023 L 102.295 -91.3086 C 102.295 -88.2324 104.834 -85.5957 107.959 -85.5957 Z M 76.6113 -76.0254 C 78.8574 -73.7793 82.4707 -73.7305 84.668 -75.9277 C 86.8164 -78.125 86.7676 -81.6895 84.5703 -83.9844 L 78.5645 -90.0879 C 76.416 -92.334 72.6562 -92.2852 70.459 -90.0879 C 68.3105 -87.9395 68.3594 -84.2773 70.5566 -82.0801 Z M 131.299 -75.8789 C 133.447 -73.6816 137.158 -73.7793 139.355 -75.9766 L 145.41 -81.9824 C 147.656 -84.1797 147.656 -87.8906 145.459 -90.0391 C 143.262 -92.2363 139.648 -92.1875 137.451 -89.9414 L 131.348 -83.9844 C 129.102 -81.7871 129.102 -78.0762 131.299 -75.8789 Z M 122.705 -32.0312 C 129.102 -36.4746 133.398 -44.0918 133.398 -52.6855 C 133.398 -66.6504 122.021 -77.9785 108.057 -77.9785 C 98.7793 -77.9785 90.6738 -73.0469 86.6699 -66.2109 C 88.9648 -64.0137 90.8691 -61.4258 92.4805 -58.3008 C 107.471 -57.5195 119.873 -46.7773 122.705 -32.0312 Z M 30.2734 1.85547 L 89.4531 1.85547 C 103.711 1.85547 114.502 -9.22852 114.502 -23.9258 C 114.502 -39.3066 102.979 -50.5371 87.207 -50.4395 C 82.1777 -59.8145 72.7051 -68.3105 57.0312 -68.3105 C 39.4531 -68.3105 25 -55.2734 23.6328 -38.0371 C 14.5996 -35.6934 8.74023 -28.0273 8.74023 -18.457 C 8.74023 -6.34766 17.4316 1.85547 30.2734 1.85547 Z M 146.582 -47.0215 L 155.127 -47.0215 C 158.301 -47.0215 160.84 -49.5117 160.889 -52.6367 C 160.889 -55.7617 158.301 -58.3496 155.127 -58.3496 L 146.582 -58.3496 C 143.457 -58.3496 140.82 -55.7617 140.82 -52.6367 C 140.82 -49.5117 143.457 -47.0215 146.582 -47.0215 Z M 137.402 -15.2344 C 139.6 -12.9883 143.213 -12.9883 145.41 -15.1367 C 147.607 -17.334 147.51 -20.8984 145.312 -23.1934 L 139.307 -29.3457 C 137.207 -31.543 133.447 -31.4941 131.25 -29.3457 C 129.053 -27.1484 129.15 -23.4863 131.348 -21.3379 Z"/>
  </g>
  <g id="Bold-M" transform="matrix(1 0 0 1 2257.02 1126)">
   <path d="M 105.078 -83.0566 C 107.861 -83.0566 110.156 -85.4004 110.156 -88.1836 L 110.156 -97.4609 C 110.156 -100.293 107.861 -102.588 105.078 -102.588 C 102.246 -102.588 99.9512 -100.293 99.9512 -97.4609 L 99.9512 -88.1836 C 99.9512 -85.4004 102.246 -83.0566 105.078 -83.0566 Z M 74.7559 -73.5352 C 76.8066 -71.4844 80.0781 -71.4844 82.0312 -73.4863 C 83.9844 -75.4395 83.9355 -78.6621 81.9824 -80.6641 L 75.4395 -87.3047 C 73.4863 -89.3066 70.166 -89.2578 68.1641 -87.3047 C 66.2109 -85.3516 66.2598 -82.0801 68.2617 -80.0781 Z M 128.125 -73.4375 C 130.078 -71.4844 133.398 -71.4844 135.4 -73.4863 L 141.943 -80.0293 C 143.945 -81.9824 143.945 -85.3027 141.992 -87.2559 C 140.039 -89.2578 136.768 -89.209 134.766 -87.207 L 128.174 -80.6641 C 126.172 -78.7109 126.221 -75.3906 128.125 -73.4375 Z M 119.043 -29.7363 C 125.732 -34.2773 130.078 -41.8457 130.078 -50.4395 C 130.078 -64.2578 118.945 -75.3906 105.127 -75.3906 C 96.0449 -75.3906 88.0859 -70.5078 84.0332 -63.623 C 86.2305 -61.4258 88.1348 -58.9355 89.6973 -55.9082 C 105.029 -54.9316 116.748 -44.4824 119.043 -29.7363 Z M 29.834 1.75781 L 86.8164 1.75781 C 100.928 1.75781 111.719 -9.13086 111.719 -23.4375 C 111.719 -38.1348 100.391 -48.9746 85.0098 -48.9258 C 79.7852 -58.8379 70.0684 -66.6016 55.7129 -66.6016 C 38.7207 -66.6016 24.6094 -53.8086 23.1934 -36.9629 C 14.4043 -34.5703 8.74023 -27.1484 8.74023 -17.9199 C 8.74023 -6.20117 17.2852 1.75781 29.834 1.75781 Z M 142.773 -45.3613 L 152.002 -45.3613 C 154.834 -45.3613 157.129 -47.6074 157.178 -50.4395 C 157.178 -53.2227 154.834 -55.5664 152.002 -55.5664 L 142.773 -55.5664 C 139.99 -55.5664 137.598 -53.2227 137.598 -50.4395 C 137.598 -47.6074 139.99 -45.3613 142.773 -45.3613 Z M 134.717 -13.5742 C 136.719 -11.5723 139.99 -11.5723 141.943 -13.5254 C 143.945 -15.4785 143.848 -18.75 141.895 -20.752 L 135.352 -27.3438 C 133.447 -29.3457 130.078 -29.2969 128.125 -27.3438 C 126.123 -25.3906 126.221 -22.1191 128.174 -20.1172 Z"/>
  </g>
  <g id="Semibold-M" transform="matrix(1 0 0 1 1961.6 1126)">
   <path d="M 103.076 -81.2988 C 105.664 -81.2988 107.812 -83.4961 107.812 -86.0352 L 107.812 -95.752 C 107.812 -98.3887 105.664 -100.488 103.076 -100.488 C 100.488 -100.488 98.3887 -98.3887 98.3887 -95.752 L 98.3887 -86.0352 C 98.3887 -83.4961 100.488 -81.2988 103.076 -81.2988 Z M 73.4863 -71.8262 C 75.3906 -69.9219 78.418 -69.9219 80.2246 -71.7773 C 82.0312 -73.584 81.9824 -76.5625 80.1758 -78.418 L 73.291 -85.4004 C 71.4844 -87.207 68.4082 -87.207 66.6016 -85.4004 C 64.7949 -83.5449 64.8438 -80.5176 66.6504 -78.7109 Z M 125.977 -71.7285 C 127.783 -69.9219 130.859 -69.9219 132.715 -71.7773 L 139.551 -78.6621 C 141.406 -80.5176 141.406 -83.5449 139.6 -85.3516 C 137.744 -87.1582 134.766 -87.1582 132.91 -85.3027 L 125.977 -78.418 C 124.17 -76.6113 124.17 -73.584 125.977 -71.7285 Z M 116.553 -28.125 C 123.438 -32.8125 127.783 -40.332 127.783 -48.9258 C 127.783 -62.5977 116.797 -73.584 103.125 -73.584 C 94.1406 -73.584 86.2793 -68.75 82.2266 -61.8164 C 84.375 -59.6191 86.1816 -57.2266 87.7441 -54.2969 C 103.369 -53.1738 114.6 -42.8711 116.553 -28.125 Z M 29.541 1.70898 L 85.0098 1.70898 C 99.0234 1.70898 109.766 -9.0332 109.766 -23.0469 C 109.766 -37.3047 98.584 -47.9004 83.4961 -47.9004 C 78.0762 -58.2031 68.2129 -65.4297 54.7852 -65.4297 C 38.1836 -65.4297 24.3164 -52.7832 22.9004 -36.2305 C 14.2578 -33.8379 8.74023 -26.5137 8.74023 -17.5293 C 8.74023 -6.10352 17.1875 1.70898 29.541 1.70898 Z M 140.137 -44.1895 L 149.854 -44.1895 C 152.49 -44.1895 154.59 -46.2891 154.59 -48.877 C 154.59 -51.5137 152.49 -53.6133 149.854 -53.6133 L 140.137 -53.6133 C 137.598 -53.6133 135.4 -51.5137 135.4 -48.877 C 135.4 -46.2891 137.598 -44.1895 140.137 -44.1895 Z M 132.91 -12.4023 C 134.766 -10.5469 137.744 -10.5957 139.551 -12.4023 C 141.406 -14.209 141.357 -17.2363 139.502 -19.0918 L 132.617 -25.9766 C 130.811 -27.7832 127.783 -27.832 125.977 -25.9766 C 124.121 -24.1699 124.17 -21.1426 125.977 -19.3359 Z"/>
  </g>
  <g id="Medium-M" transform="matrix(1 0 0 1 1665.84 1126)">
   <path d="M 101.562 -79.9316 C 104.004 -79.9316 106.006 -81.9824 106.006 -84.375 L 106.006 -94.4824 C 106.006 -96.9238 104.004 -98.9258 101.562 -98.9258 C 99.1211 -98.9258 97.168 -96.9238 97.168 -94.4824 L 97.168 -84.375 C 97.168 -81.9824 99.1211 -79.9316 101.562 -79.9316 Z M 72.5586 -70.5078 C 74.3164 -68.75 77.1973 -68.75 78.8574 -70.459 C 80.5176 -72.168 80.5176 -75 78.8086 -76.709 L 71.6309 -83.9355 C 69.9707 -85.6445 67.1387 -85.6445 65.4297 -83.9355 C 63.7207 -82.2266 63.7207 -79.3945 65.4297 -77.6367 Z M 124.316 -70.459 C 125.977 -68.75 128.906 -68.75 130.615 -70.5078 L 137.744 -77.6367 C 139.502 -79.3457 139.453 -82.1777 137.744 -83.8867 C 136.084 -85.5957 133.252 -85.5957 131.543 -83.8867 L 124.365 -76.709 C 122.607 -75 122.656 -72.168 124.316 -70.459 Z M 114.648 -26.9043 C 121.68 -31.6406 126.025 -39.1602 126.025 -47.7539 C 126.025 -61.3281 115.137 -72.2168 101.611 -72.2168 C 92.6758 -72.2168 84.9121 -67.4316 80.8594 -60.4004 C 82.959 -58.3008 84.7656 -55.9082 86.2793 -53.0273 C 102.1 -51.8555 112.988 -41.6504 114.648 -26.9043 Z M 29.2969 1.61133 L 83.6426 1.61133 C 97.5586 1.61133 108.301 -8.98438 108.301 -22.8027 C 108.301 -36.6699 97.2656 -47.1191 82.373 -47.168 C 76.8066 -57.666 66.7969 -64.5508 54.1016 -64.5508 C 37.793 -64.5508 24.1211 -52.0508 22.6562 -35.6934 C 14.1602 -33.252 8.74023 -26.0742 8.74023 -17.2363 C 8.74023 -6.05469 17.0898 1.61133 29.2969 1.61133 Z M 138.184 -43.3105 L 148.242 -43.3105 C 150.684 -43.3105 152.637 -45.3125 152.686 -47.7539 C 152.686 -50.1953 150.684 -52.1973 148.242 -52.1973 L 138.184 -52.1973 C 135.742 -52.1973 133.691 -50.1953 133.691 -47.7539 C 133.691 -45.3125 135.742 -43.3105 138.184 -43.3105 Z M 131.543 -11.5234 C 133.252 -9.81445 136.035 -9.86328 137.744 -11.5723 C 139.453 -13.2812 139.453 -16.1133 137.744 -17.7734 L 130.566 -24.9512 C 128.857 -26.6602 126.025 -26.6602 124.316 -24.9512 C 122.607 -23.2422 122.656 -20.4102 124.365 -18.7012 Z"/>
  </g>
  <g id="Regular-M" transform="matrix(1 0 0 1 1370.4 1126)">
   <path d="M 99.6094 -78.2227 C 101.855 -78.2227 103.662 -80.0781 103.662 -82.2754 L 103.662 -92.8223 C 103.662 -95.0684 101.855 -96.875 99.6094 -96.875 C 97.4121 -96.875 95.5566 -95.0684 95.5566 -92.8223 L 95.5566 -82.2754 C 95.5566 -80.0781 97.4121 -78.2227 99.6094 -78.2227 Z M 71.2891 -68.7988 C 72.9004 -67.1875 75.5371 -67.2363 77.0508 -68.7988 C 78.5645 -70.3613 78.6133 -72.9004 77.0508 -74.4629 L 69.5312 -81.9824 C 67.9688 -83.5938 65.4297 -83.5449 63.8672 -81.9824 C 62.3047 -80.4688 62.3047 -77.8809 63.8672 -76.2695 Z M 122.168 -68.7988 C 123.682 -67.2363 126.367 -67.1875 127.93 -68.7988 L 135.4 -76.2695 C 136.963 -77.8809 136.963 -80.4688 135.4 -81.9824 C 133.838 -83.5449 131.299 -83.5938 129.736 -81.9824 L 122.168 -74.4629 C 120.605 -72.9004 120.654 -70.3613 122.168 -68.7988 Z M 112.158 -25.3418 C 119.385 -30.1758 123.779 -37.6465 123.779 -46.2402 C 123.779 -59.668 113.037 -70.459 99.6094 -70.459 C 90.7715 -70.459 83.1055 -65.7227 79.0527 -58.6426 C 81.1035 -56.543 82.8613 -54.248 84.375 -51.416 C 100.439 -50.0977 110.84 -40.0879 112.158 -25.3418 Z M 29.0039 1.5625 L 81.8359 1.5625 C 95.6543 1.5625 106.396 -8.88672 106.396 -22.4121 C 106.396 -35.8887 95.459 -46.0449 80.8594 -46.1426 C 75.1465 -57.0312 64.9902 -63.3789 53.1738 -63.3789 C 37.3047 -63.3789 23.8281 -51.0254 22.3633 -35.0098 C 14.0625 -32.5195 8.74023 -25.4883 8.74023 -16.8945 C 8.74023 -5.95703 16.9922 1.5625 29.0039 1.5625 Z M 135.547 -42.1875 L 146.143 -42.1875 C 148.34 -42.1875 150.146 -43.9941 150.146 -46.2402 C 150.146 -48.4863 148.34 -50.293 146.143 -50.293 L 135.547 -50.293 C 133.398 -50.293 131.543 -48.4863 131.543 -46.2402 C 131.543 -43.9941 133.398 -42.1875 135.547 -42.1875 Z M 129.736 -10.4004 C 131.299 -8.83789 133.838 -8.88672 135.4 -10.4492 C 136.963 -12.0117 136.963 -14.5996 135.4 -16.1133 L 127.832 -23.6328 C 126.318 -25.1465 123.73 -25.1953 122.168 -23.6328 C 120.605 -22.0703 120.605 -19.4336 122.168 -17.8711 Z"/>
  </g>
  <g id="Light-M" transform="matrix(1 0 0 1 1074.2 1126)">
   <path d="M 99.2676 -78.9062 C 100.928 -78.9062 102.344 -80.3223 102.344 -81.9824 L 102.344 -93.8477 C 102.344 -95.5078 100.928 -96.875 99.2676 -96.875 C 97.5586 -96.875 96.1914 -95.5078 96.1914 -93.8477 L 96.1914 -81.9824 C 96.1914 -80.3223 97.5586 -78.9062 99.2676 -78.9062 Z M 72.3145 -69.4824 C 73.5352 -68.2617 75.5371 -68.3105 76.709 -69.4824 C 77.832 -70.6543 77.8809 -72.6074 76.709 -73.7793 L 68.2617 -82.2266 C 67.041 -83.4473 65.1367 -83.3984 63.9648 -82.2266 C 62.793 -81.0547 62.7441 -79.1016 63.9648 -77.9297 Z M 121.826 -69.4824 C 122.949 -68.3105 124.951 -68.2617 126.172 -69.4824 L 134.57 -77.9297 C 135.791 -79.1016 135.742 -81.0547 134.57 -82.2266 C 133.398 -83.3984 131.494 -83.4473 130.273 -82.2266 L 121.826 -73.7793 C 120.654 -72.6074 120.654 -70.6543 121.826 -69.4824 Z M 110.596 -25.8301 C 118.115 -30.4688 122.9 -37.9883 122.9 -46.9238 C 122.9 -60.1074 112.402 -70.6543 99.2676 -70.6543 C 89.9902 -70.6543 82.0801 -65.332 78.3691 -57.6172 C 80.4199 -55.4688 82.1289 -53.125 83.5449 -50.3906 C 99.0234 -49.1699 109.082 -39.4531 110.596 -25.8301 Z M 28.2227 0.878906 L 81.3965 0.878906 C 94.8242 0.878906 105.371 -9.32617 105.371 -22.3633 C 105.371 -35.4492 94.6289 -45.2637 80.2734 -45.3125 C 74.4629 -56.543 64.502 -62.8906 52.7344 -62.8906 C 37.207 -62.8906 24.0234 -50.5371 22.6562 -34.5215 C 14.1602 -32.1289 8.74023 -25.293 8.74023 -16.8457 C 8.74023 -6.39648 16.6992 0.878906 28.2227 0.878906 Z M 134.18 -43.8965 L 146.094 -43.8965 C 147.754 -43.8965 149.121 -45.2637 149.121 -46.9238 C 149.17 -48.6328 147.754 -50 146.094 -50 L 134.18 -50 C 132.52 -50 131.152 -48.6328 131.152 -46.9238 C 131.152 -45.2637 132.52 -43.8965 134.18 -43.8965 Z M 130.273 -11.5723 C 131.494 -10.3516 133.398 -10.4004 134.57 -11.6211 C 135.742 -12.793 135.791 -14.6973 134.57 -15.8691 L 126.123 -24.3164 C 124.951 -25.4395 122.998 -25.4883 121.826 -24.3164 C 120.654 -23.1445 120.654 -21.1426 121.826 -19.9707 Z"/>
  </g>
  <g id="Thin-M" transform="matrix(1 0 0 1 778.151 1126)">
   <path d="M 98.7793 -79.834 C 99.7559 -79.834 100.586 -80.6641 100.586 -81.543 L 100.586 -95.2148 C 100.586 -96.1426 99.7559 -96.9238 98.7793 -96.9238 C 97.8027 -96.9238 96.9727 -96.1426 96.9727 -95.2148 L 96.9727 -81.543 C 96.9727 -80.6641 97.8027 -79.834 98.7793 -79.834 Z M 73.7305 -70.4102 C 74.4141 -69.7266 75.5371 -69.7266 76.2207 -70.4102 C 76.8555 -71.0938 76.9043 -72.2168 76.2207 -72.9004 L 66.5527 -82.5684 C 65.8203 -83.252 64.7461 -83.2031 64.0625 -82.5684 C 63.4277 -81.8848 63.3789 -80.7617 64.0625 -80.0781 Z M 121.338 -70.4102 C 122.021 -69.7266 123.145 -69.7266 123.828 -70.4102 L 133.447 -80.0781 C 134.18 -80.7617 134.131 -81.8848 133.447 -82.5684 C 132.812 -83.2031 131.738 -83.252 131.006 -82.5684 L 121.338 -72.9004 C 120.654 -72.2168 120.654 -71.0938 121.338 -70.4102 Z M 108.545 -26.4648 C 116.504 -30.8105 121.777 -38.5254 121.777 -47.8516 C 121.777 -60.6934 111.523 -70.8984 98.7793 -70.8984 C 88.916 -70.8984 80.7129 -64.8926 77.4902 -56.2988 C 79.4434 -54.0527 81.1035 -51.6602 82.4707 -49.0723 C 97.168 -47.998 106.689 -38.6719 108.545 -26.4648 Z M 27.2461 -0.0488281 L 80.7617 -0.0488281 C 93.7012 -0.0488281 103.955 -9.81445 103.955 -22.2656 C 103.955 -34.8633 93.457 -44.2871 79.541 -44.2383 C 73.5352 -55.9082 63.8672 -62.207 52.1484 -62.207 C 37.0605 -62.207 24.2676 -49.8535 23.0469 -33.8867 C 14.3066 -31.6406 8.74023 -25 8.74023 -16.7969 C 8.74023 -6.93359 16.3086 -0.0488281 27.2461 -0.0488281 Z M 132.373 -46.0938 L 145.996 -46.0938 C 147.021 -46.0938 147.754 -46.875 147.803 -47.8516 C 147.852 -48.8281 147.021 -49.6094 145.996 -49.6094 L 132.373 -49.6094 C 131.445 -49.6094 130.615 -48.8281 130.615 -47.8516 C 130.615 -46.875 131.445 -46.0938 132.373 -46.0938 Z M 131.006 -13.0859 C 131.738 -12.3535 132.812 -12.4512 133.447 -13.0859 C 134.131 -13.7695 134.18 -14.8926 133.447 -15.5762 L 123.828 -25.2441 C 123.145 -25.8789 122.021 -25.8789 121.338 -25.2441 C 120.654 -24.5605 120.654 -23.4375 121.338 -22.7539 Z"/>
  </g>
  <g id="Ultralight-M" transform="matrix(1 0 0 1 481.781 1126)">
   <path d="M 98.5352 -80.2734 C 99.1211 -80.2734 99.6582 -80.8105 99.6582 -81.3477 L 99.6582 -95.8984 C 99.6582 -96.4844 99.1211 -96.9727 98.5352 -96.9727 C 97.9492 -96.9727 97.4121 -96.4844 97.4121 -95.8984 L 97.4121 -81.3477 C 97.4121 -80.8105 97.9492 -80.2734 98.5352 -80.2734 Z M 74.4141 -70.8984 C 74.8535 -70.459 75.5371 -70.459 75.9766 -70.8984 C 76.3672 -71.2891 76.3672 -72.0215 75.9766 -72.4121 L 65.6738 -82.7148 C 65.2344 -83.2031 64.5508 -83.1055 64.1602 -82.7148 C 63.7207 -82.2754 63.6719 -81.6406 64.1602 -81.1523 Z M 121.094 -70.8984 C 121.484 -70.459 122.217 -70.459 122.656 -70.8984 L 132.91 -81.1523 C 133.398 -81.6406 133.301 -82.2754 132.91 -82.7148 C 132.471 -83.1055 131.836 -83.2031 131.348 -82.7148 L 121.094 -72.4121 C 120.654 -72.0215 120.654 -71.2891 121.094 -70.8984 Z M 107.52 -26.8066 C 115.674 -30.957 121.191 -38.7695 121.191 -48.3398 C 121.191 -60.9863 111.084 -71.0449 98.5352 -71.0449 C 88.3301 -71.0449 79.9805 -64.6484 77.002 -55.6641 C 78.9551 -53.3203 80.6152 -50.9277 81.9336 -48.4375 C 96.2402 -47.3633 105.518 -38.2812 107.52 -26.8066 Z M 26.709 -0.537109 L 80.4688 -0.537109 C 93.1641 -0.537109 103.223 -10.1074 103.223 -22.2168 C 103.223 -34.5703 92.8711 -43.75 79.1504 -43.7012 C 73.0957 -55.5664 63.5742 -61.8652 51.8555 -61.8652 C 36.9629 -61.8652 24.4141 -49.5117 23.1934 -33.5449 C 14.3555 -31.3965 8.74023 -24.8535 8.74023 -16.748 C 8.74023 -7.22656 16.1621 -0.537109 26.709 -0.537109 Z M 131.445 -47.2656 L 145.996 -47.2656 C 146.631 -47.2656 147.021 -47.7539 147.119 -48.3398 C 147.168 -48.9258 146.631 -49.4141 145.996 -49.4141 L 131.445 -49.4141 C 130.859 -49.4141 130.371 -48.9258 130.371 -48.3398 C 130.371 -47.7539 130.859 -47.2656 131.445 -47.2656 Z M 131.348 -13.8672 C 131.836 -13.4277 132.471 -13.4766 132.91 -13.8672 C 133.301 -14.3066 133.398 -14.9414 132.91 -15.4297 L 122.656 -25.6836 C 122.217 -26.123 121.484 -26.123 121.094 -25.6836 C 120.654 -25.293 120.654 -24.5605 121.094 -24.1699 Z"/>
  </g>
  <g id="Black-S" transform="matrix(1 0 0 1 2865.8 696)">
   <path d="M 86.377 -76.2695 C 89.0137 -76.2695 91.1621 -78.5156 91.1621 -81.1523 L 91.1621 -87.4023 C 91.1621 -90.0879 89.0137 -92.2852 86.377 -92.2852 C 83.7402 -92.2852 81.5918 -90.0879 81.5918 -87.4023 L 81.5918 -81.1523 C 81.5918 -78.5156 83.7402 -76.2695 86.377 -76.2695 Z M 61.1328 -68.75 C 63.0371 -66.8457 66.1133 -66.7969 67.9688 -68.6523 C 69.8242 -70.5078 69.7266 -73.5352 67.8711 -75.4883 L 63.5254 -79.9805 C 61.7188 -81.8848 58.4961 -81.8359 56.6406 -79.9805 C 54.7852 -78.125 54.8828 -75.0488 56.7383 -73.1934 Z M 104.834 -68.6035 C 106.689 -66.748 109.814 -66.8457 111.67 -68.7012 L 116.113 -73.0957 C 118.018 -74.9512 118.018 -78.0762 116.162 -79.9316 C 114.307 -81.7871 111.23 -81.7383 109.326 -79.834 L 104.883 -75.4883 C 102.979 -73.6328 102.979 -70.459 104.834 -68.6035 Z M 98.4375 -34.1797 C 103.271 -37.5488 106.592 -43.5547 106.592 -50.293 C 106.592 -61.377 97.5586 -70.3613 86.4746 -70.3613 C 79.1504 -70.3613 72.7051 -66.4551 69.5801 -61.1816 C 71.3867 -59.4238 72.9492 -57.3242 74.2188 -54.834 C 85.7422 -54.2969 95.8984 -45.752 98.4375 -34.1797 Z M 23.9746 -6.10352 L 71.7285 -6.10352 C 83.0078 -6.10352 91.4551 -14.9414 91.4551 -26.709 C 91.4551 -39.1602 82.3242 -48.1934 69.6777 -48.0957 C 65.918 -55.0781 58.6426 -62.207 45.5078 -62.207 C 31.3477 -62.207 19.8242 -51.8555 18.75 -38.0859 C 11.5234 -36.2793 6.83594 -30.127 6.83594 -22.4121 C 6.83594 -12.6953 13.7695 -6.10352 23.9746 -6.10352 Z M 117.236 -45.5078 L 123.486 -45.5078 C 126.172 -45.5078 128.369 -47.6074 128.369 -50.2441 C 128.369 -52.8809 126.172 -55.0781 123.486 -55.0781 L 117.236 -55.0781 C 114.6 -55.0781 112.354 -52.8809 112.354 -50.2441 C 112.354 -47.6074 114.6 -45.5078 117.236 -45.5078 Z M 109.277 -20.6055 C 111.182 -18.7012 114.258 -18.6523 116.113 -20.5078 C 117.969 -22.3633 117.871 -25.3906 116.016 -27.3438 L 111.67 -31.8359 C 109.863 -33.7402 106.641 -33.6914 104.785 -31.8359 C 102.93 -29.9805 103.027 -26.9043 104.883 -25.0488 Z"/>
  </g>
  <g id="Heavy-S" transform="matrix(1 0 0 1 2570.31 696)">
   <path d="M 84.4727 -74.4629 C 86.9629 -74.4629 88.9648 -76.5625 88.9648 -79.0527 L 88.9648 -85.5957 C 88.9648 -88.1348 86.9629 -90.2344 84.4727 -90.2344 C 81.9824 -90.2344 79.9316 -88.1348 79.9316 -85.5957 L 79.9316 -79.0527 C 79.9316 -76.5625 81.9824 -74.4629 84.4727 -74.4629 Z M 59.7656 -66.9434 C 61.5723 -65.1855 64.4531 -65.1367 66.2109 -66.8945 C 67.9688 -68.6523 67.8711 -71.4844 66.1621 -73.3398 L 61.5234 -78.0273 C 59.8145 -79.834 56.8359 -79.7852 55.0781 -78.0273 C 53.3203 -76.2695 53.3691 -73.3887 55.127 -71.6309 Z M 102.734 -66.8457 C 104.443 -65.0879 107.422 -65.1855 109.18 -66.9434 L 113.818 -71.582 C 115.625 -73.291 115.625 -76.2695 113.867 -78.0273 C 112.109 -79.7363 109.229 -79.7363 107.422 -77.9297 L 102.783 -73.3398 C 100.977 -71.582 100.977 -68.6035 102.734 -66.8457 Z M 96.1426 -32.5195 C 101.123 -36.0352 104.395 -41.9922 104.395 -48.6816 C 104.395 -59.668 95.5078 -68.5547 84.5215 -68.5547 C 77.3438 -68.5547 71.0449 -64.7461 67.8711 -59.5215 C 69.6289 -57.7637 71.1426 -55.7617 72.4121 -53.3203 C 84.2285 -52.6367 93.9453 -44.2383 96.1426 -32.5195 Z M 23.7793 -6.10352 L 69.9707 -6.10352 C 81.2012 -6.10352 89.6484 -14.7949 89.6484 -26.3672 C 89.6484 -38.4277 80.6641 -47.2168 68.2617 -47.168 C 64.3555 -54.4922 56.8848 -61.084 44.6289 -61.084 C 30.8594 -61.084 19.5312 -50.9277 18.4082 -37.4023 C 11.377 -35.5957 6.83594 -29.541 6.83594 -22.0703 C 6.83594 -12.5488 13.6719 -6.10352 23.7793 -6.10352 Z M 114.795 -44.1895 L 121.387 -44.1895 C 123.877 -44.1895 125.928 -46.1426 125.928 -48.6328 C 125.928 -51.123 123.877 -53.2227 121.387 -53.2227 L 114.795 -53.2227 C 112.305 -53.2227 110.205 -51.123 110.205 -48.6328 C 110.205 -46.1426 112.305 -44.1895 114.795 -44.1895 Z M 107.422 -19.3359 C 109.18 -17.5293 112.109 -17.5293 113.818 -19.2871 C 115.576 -20.9961 115.527 -23.877 113.77 -25.6836 L 109.131 -30.4199 C 107.422 -32.1777 104.443 -32.1777 102.686 -30.4199 C 100.928 -28.6621 101.025 -25.7324 102.783 -24.0234 Z"/>
  </g>
  <g id="Bold-S" transform="matrix(1 0 0 1 2274.94 696)">
   <path d="M 82.2754 -72.4121 C 84.6191 -72.4121 86.5234 -74.3652 86.5234 -76.709 L 86.5234 -83.6426 C 86.5234 -85.9863 84.6191 -87.8906 82.2754 -87.8906 C 79.9805 -87.8906 78.0762 -85.9863 78.0762 -83.6426 L 78.0762 -76.709 C 78.0762 -74.3652 79.9805 -72.4121 82.2754 -72.4121 Z M 58.252 -64.9902 C 59.9121 -63.2812 62.6465 -63.2812 64.2578 -64.9414 C 65.8691 -66.5527 65.8203 -69.2383 64.209 -70.8984 L 59.2773 -75.8789 C 57.7148 -77.5391 54.9316 -77.4902 53.3203 -75.8789 C 51.6602 -74.2188 51.709 -71.5332 53.3691 -69.9219 Z M 100.342 -64.8926 C 101.953 -63.2812 104.736 -63.2812 106.396 -64.9414 L 111.279 -69.873 C 112.939 -71.4844 112.939 -74.2188 111.328 -75.8301 C 109.668 -77.4902 106.982 -77.4414 105.322 -75.7812 L 100.391 -70.8984 C 98.7305 -69.2871 98.7793 -66.5527 100.342 -64.8926 Z M 93.5547 -30.7129 C 98.6816 -34.3262 102.002 -40.2344 102.002 -46.9238 C 102.002 -57.7637 93.2129 -66.5527 82.3242 -66.5527 C 75.3418 -66.5527 69.1406 -62.8418 65.918 -57.6172 C 67.627 -55.9082 69.0918 -54.0039 70.3613 -51.6113 C 82.5684 -50.8301 91.7969 -42.5293 93.5547 -30.7129 Z M 23.5352 -6.10352 L 68.0176 -6.10352 C 79.1992 -6.10352 87.6465 -14.6973 87.6465 -25.9766 C 87.6465 -37.5488 78.7598 -46.1426 66.6504 -46.1426 C 62.5488 -53.8086 54.8828 -59.8633 43.7012 -59.8633 C 30.3223 -59.8633 19.1895 -49.8535 18.0664 -36.6699 C 11.2305 -34.7656 6.83594 -28.9062 6.83594 -21.6309 C 6.83594 -12.4023 13.623 -6.10352 23.5352 -6.10352 Z M 112.061 -42.6758 L 118.994 -42.6758 C 121.338 -42.6758 123.242 -44.5312 123.242 -46.875 C 123.242 -49.2188 121.338 -51.123 118.994 -51.123 L 112.061 -51.123 C 109.766 -51.123 107.764 -49.2188 107.764 -46.875 C 107.764 -44.5312 109.766 -42.6758 112.061 -42.6758 Z M 105.322 -17.9199 C 106.982 -16.2598 109.668 -16.2598 111.279 -17.8711 C 112.939 -19.5312 112.891 -22.2168 111.23 -23.877 L 106.348 -28.8086 C 104.736 -30.4688 101.953 -30.4688 100.342 -28.8086 C 98.7305 -27.1973 98.7793 -24.4629 100.391 -22.8516 Z"/>
  </g>
  <g id="Semibold-S" transform="matrix(1 0 0 1 1979.16 696)">
   <path d="M 80.8105 -70.9961 C 83.0078 -70.9961 84.8145 -72.9004 84.8145 -75.0488 L 84.8145 -82.2266 C 84.8145 -84.4727 83.0078 -86.2793 80.8105 -86.2793 C 78.6133 -86.2793 76.8066 -84.4727 76.8066 -82.2266 L 76.8066 -75.0488 C 76.8066 -72.9004 78.6133 -70.9961 80.8105 -70.9961 Z M 57.1777 -63.5742 C 58.7891 -62.0117 61.377 -62.0117 62.8906 -63.5742 C 64.4043 -65.1367 64.4043 -67.627 62.8906 -69.2383 L 57.7637 -74.3652 C 56.25 -75.9277 53.6133 -75.9277 52.0996 -74.3652 C 50.5371 -72.8516 50.5859 -70.2637 52.0996 -68.7012 Z M 98.7305 -63.5254 C 100.244 -62.0117 102.881 -62.0117 104.443 -63.5742 L 109.521 -68.6523 C 111.084 -70.2148 111.084 -72.8027 109.57 -74.3652 C 108.008 -75.9277 105.469 -75.8789 103.906 -74.3164 L 98.7305 -69.2383 C 97.168 -67.6758 97.2168 -65.0879 98.7305 -63.5254 Z M 91.748 -29.4434 C 97.0215 -33.2031 100.293 -39.0137 100.293 -45.6543 C 100.293 -56.4453 91.6504 -65.1367 80.8594 -65.1367 C 73.9258 -65.1367 67.8711 -61.5723 64.5996 -56.2988 C 66.2598 -54.6387 67.7246 -52.7832 68.9453 -50.4395 C 81.3965 -49.5605 90.332 -41.3574 91.748 -29.4434 Z M 23.3398 -6.05469 L 66.6992 -6.05469 C 77.7832 -6.05469 86.2793 -14.5996 86.2793 -25.6836 C 86.2793 -36.9629 77.4902 -45.3613 65.5762 -45.4102 C 61.3281 -53.3691 53.5156 -59.0332 43.0176 -59.0332 C 29.9316 -59.0332 18.9941 -49.1211 17.8223 -36.1816 C 11.1328 -34.2285 6.83594 -28.4668 6.83594 -21.3867 C 6.83594 -12.2559 13.5254 -6.05469 23.3398 -6.05469 Z M 110.156 -41.6504 L 117.334 -41.6504 C 119.531 -41.6504 121.387 -43.457 121.387 -45.6543 C 121.387 -47.8516 119.531 -49.707 117.334 -49.707 L 110.156 -49.707 C 107.959 -49.707 106.104 -47.8516 106.104 -45.6543 C 106.104 -43.457 107.959 -41.6504 110.156 -41.6504 Z M 103.857 -16.9434 C 105.42 -15.3809 107.959 -15.3809 109.521 -16.9434 C 111.084 -18.457 111.035 -21.0449 109.521 -22.6074 L 104.395 -27.7344 C 102.881 -29.248 100.244 -29.248 98.7305 -27.7344 C 97.168 -26.1719 97.2168 -23.584 98.7305 -22.0215 Z"/>
  </g>
  <g id="Medium-S" transform="matrix(1 0 0 1 1683.15 696)">
   <path d="M 79.6875 -69.9707 C 81.7871 -69.9707 83.5449 -71.7285 83.5449 -73.8281 L 83.5449 -81.2012 C 83.5449 -83.3496 81.7871 -85.0586 79.6875 -85.0586 C 77.5391 -85.0586 75.8301 -83.3496 75.8301 -81.2012 L 75.8301 -73.8281 C 75.8301 -71.7285 77.5391 -69.9707 79.6875 -69.9707 Z M 56.3965 -62.5488 C 57.9102 -61.0352 60.4492 -61.0352 61.8652 -62.5488 C 63.3301 -64.0137 63.3301 -66.4551 61.8652 -67.9688 L 56.5918 -73.2422 C 55.127 -74.7559 52.6367 -74.707 51.1719 -73.2422 C 49.6582 -71.7773 49.707 -69.2871 51.1719 -67.7734 Z M 97.5098 -62.5488 C 98.9258 -61.0352 101.465 -61.0352 102.979 -62.5488 L 108.203 -67.7734 C 109.717 -69.2871 109.717 -71.7285 108.203 -73.2422 C 106.738 -74.707 104.297 -74.707 102.783 -73.1934 L 97.5098 -67.9688 C 95.9961 -66.4551 96.0449 -64.0137 97.5098 -62.5488 Z M 90.3809 -28.4668 C 95.752 -32.2754 99.0234 -38.1348 99.0234 -44.7266 C 99.0234 -55.4688 90.4297 -64.1113 79.6875 -64.1113 C 72.9004 -64.1113 66.8945 -60.5469 63.5742 -55.3223 C 65.2344 -53.6621 66.6504 -51.8555 67.8711 -49.5605 C 80.5176 -48.584 89.1602 -40.4785 90.3809 -28.4668 Z M 23.2422 -6.05469 L 65.6738 -6.05469 C 76.7578 -6.05469 85.2539 -14.502 85.2539 -25.4883 C 85.2539 -36.5234 76.4648 -44.8242 64.6973 -44.873 C 60.4004 -53.0273 52.4902 -58.3984 42.5293 -58.3984 C 29.6387 -58.3984 18.7988 -48.584 17.627 -35.791 C 11.0352 -33.8379 6.83594 -28.125 6.83594 -21.1426 C 6.83594 -12.207 13.4766 -6.05469 23.2422 -6.05469 Z M 108.74 -40.8691 L 116.113 -40.8691 C 118.213 -40.8691 119.971 -42.5781 119.971 -44.7266 C 119.971 -46.875 118.213 -48.584 116.113 -48.584 L 108.74 -48.584 C 106.641 -48.584 104.834 -46.875 104.834 -44.7266 C 104.834 -42.5781 106.641 -40.8691 108.74 -40.8691 Z M 102.783 -16.2109 C 104.297 -14.6973 106.689 -14.7461 108.203 -16.2109 C 109.668 -17.6758 109.668 -20.166 108.203 -21.6309 L 102.93 -26.8555 C 101.465 -28.3203 98.9746 -28.3691 97.5098 -26.8555 C 95.9961 -25.3906 96.0449 -22.9004 97.5098 -21.4355 Z"/>
  </g>
  <g id="Regular-S" transform="matrix(1 0 0 1 1387.37 696)">
   <path d="M 78.2227 -68.5547 C 80.2246 -68.5547 81.8848 -70.2637 81.8848 -72.2168 L 81.8848 -79.834 C 81.8848 -81.8848 80.2246 -83.4961 78.2227 -83.4961 C 76.2207 -83.4961 74.5605 -81.8848 74.5605 -79.834 L 74.5605 -72.2168 C 74.5605 -70.2637 76.2207 -68.5547 78.2227 -68.5547 Z M 95.8984 -61.1816 C 97.2656 -59.7656 99.6582 -59.7168 101.074 -61.1816 L 106.445 -66.6016 C 107.861 -68.0176 107.861 -70.3613 106.445 -71.7773 C 105.078 -73.1934 102.783 -73.1934 101.367 -71.7773 L 95.8984 -66.3086 C 94.4824 -64.8926 94.5312 -62.5977 95.8984 -61.1816 Z M 55.3223 -61.1816 C 56.7871 -59.7168 59.1797 -59.7656 60.5469 -61.1816 C 61.9141 -62.5977 61.9629 -64.8926 60.5469 -66.3086 L 55.0781 -71.7773 C 53.6621 -73.1934 51.3672 -73.1934 49.9512 -71.7773 C 48.584 -70.3613 48.5352 -68.0176 49.9512 -66.6016 Z M 88.623 -27.2461 C 94.0918 -31.1523 97.3633 -36.9141 97.3633 -43.5059 C 97.3633 -54.1504 88.8672 -62.7441 78.2227 -62.7441 C 71.4844 -62.7441 65.625 -59.2773 62.2559 -54.0527 C 63.916 -52.4414 65.2832 -50.6348 66.4551 -48.3887 C 79.3945 -47.3145 87.6953 -39.3066 88.623 -27.2461 Z M 23.0957 -6.05469 L 64.3555 -6.05469 C 75.3418 -6.05469 83.8867 -14.4043 83.8867 -25.2441 C 83.8867 -35.9863 75.1953 -44.0918 63.623 -44.1406 C 59.2285 -52.5391 51.123 -57.5195 41.8945 -57.5195 C 29.2969 -57.5195 18.6035 -47.8516 17.3828 -35.2539 C 10.9375 -33.3008 6.83594 -27.6855 6.83594 -20.8984 C 6.83594 -12.0605 13.4277 -6.05469 23.0957 -6.05469 Z M 106.885 -39.8438 L 114.502 -39.8438 C 116.455 -39.8438 118.115 -41.5039 118.115 -43.5059 C 118.115 -45.5078 116.455 -47.168 114.502 -47.168 L 106.885 -47.168 C 104.883 -47.168 103.223 -45.5078 103.223 -43.5059 C 103.223 -41.5039 104.883 -39.8438 106.885 -39.8438 Z M 101.367 -15.2344 C 102.783 -13.8184 105.078 -13.8672 106.445 -15.2832 C 107.861 -16.6504 107.861 -18.9941 106.445 -20.3613 L 100.977 -25.7812 C 99.6094 -27.1484 97.3145 -27.1973 95.8984 -25.7812 C 94.4824 -24.3652 94.4824 -22.0215 95.8984 -20.6543 Z"/>
  </g>
  <g id="Light-S" transform="matrix(1 0 0 1 1091.1 696)">
   <path d="M 77.8809 -69.1895 C 79.4434 -69.1895 80.6641 -70.459 80.6641 -71.9727 L 80.6641 -80.7617 C 80.6641 -82.2754 79.4434 -83.5449 77.8809 -83.5449 C 76.3672 -83.5449 75.0977 -82.2754 75.0977 -80.7617 L 75.0977 -71.9727 C 75.0977 -70.459 76.3672 -69.1895 77.8809 -69.1895 Z M 56.25 -61.8164 C 57.373 -60.6934 59.1797 -60.7422 60.2051 -61.8164 C 61.2305 -62.8906 61.2793 -64.6484 60.2051 -65.7227 L 53.9551 -71.9727 C 52.8809 -73.0469 51.123 -73.0469 50.0488 -71.9727 C 48.9746 -70.8984 48.9746 -69.1406 50.0488 -68.0664 Z M 95.5566 -61.8164 C 96.582 -60.7422 98.4375 -60.6934 99.5117 -61.8164 L 105.713 -68.0664 C 106.836 -69.1406 106.787 -70.8984 105.713 -71.9727 C 104.639 -73.0469 102.93 -73.0469 101.855 -71.9727 L 95.5566 -65.7227 C 94.4824 -64.6484 94.5312 -62.8906 95.5566 -61.8164 Z M 87.2559 -27.6855 C 93.0176 -31.3965 96.6309 -37.2559 96.6309 -44.1406 C 96.6309 -54.541 88.2812 -62.8906 77.8809 -62.8906 C 70.8008 -62.8906 64.6973 -58.9844 61.6699 -53.1738 C 63.2324 -51.4648 64.5996 -49.6582 65.7715 -47.5098 C 78.125 -46.5332 86.1328 -38.7695 87.2559 -27.6855 Z M 22.4121 -6.68945 L 63.916 -6.68945 C 74.6094 -6.68945 82.9102 -14.7461 82.9102 -25.1953 C 82.9102 -35.5469 74.4629 -43.4082 63.1348 -43.457 C 58.5938 -52.0996 50.7324 -57.0801 41.4551 -57.0801 C 29.1992 -57.0801 18.75 -47.4121 17.627 -34.8633 C 11.0352 -32.959 6.83594 -27.4902 6.83594 -20.8496 C 6.83594 -12.4512 13.1836 -6.68945 22.4121 -6.68945 Z M 105.664 -41.3574 L 114.453 -41.3574 C 115.967 -41.3574 117.188 -42.5781 117.188 -44.1406 C 117.236 -45.6543 115.967 -46.9238 114.453 -46.9238 L 105.664 -46.9238 C 104.15 -46.9238 102.881 -45.6543 102.881 -44.1406 C 102.881 -42.5781 104.15 -41.3574 105.664 -41.3574 Z M 101.855 -16.2598 C 102.93 -15.1367 104.639 -15.1855 105.713 -16.2598 C 106.787 -17.334 106.836 -19.0918 105.713 -20.166 L 99.4629 -26.416 C 98.3887 -27.4414 96.6309 -27.4902 95.5566 -26.416 C 94.4824 -25.3418 94.4824 -23.5352 95.5566 -22.4609 Z"/>
  </g>
  <g id="Thin-S" transform="matrix(1 0 0 1 794.996 696)">
   <path d="M 77.4902 -69.9707 C 78.3691 -69.9707 79.1016 -70.752 79.1016 -71.6309 L 79.1016 -81.9336 C 79.1016 -82.8613 78.3691 -83.5449 77.4902 -83.5449 C 76.5625 -83.5449 75.8301 -82.8613 75.8301 -81.9336 L 75.8301 -71.6309 C 75.8301 -70.752 76.5625 -69.9707 77.4902 -69.9707 Z M 95.166 -62.5977 C 95.752 -62.0117 96.8262 -61.9629 97.4609 -62.5977 L 104.785 -69.9219 C 105.42 -70.6055 105.371 -71.6309 104.785 -72.2168 C 104.15 -72.8516 103.125 -72.9004 102.49 -72.2168 L 95.166 -64.8926 C 94.5312 -64.3066 94.5312 -63.2324 95.166 -62.5977 Z M 57.4707 -62.5977 C 58.1055 -61.9629 59.1797 -62.0117 59.8145 -62.5977 C 60.4004 -63.2324 60.4004 -64.3066 59.8145 -64.8926 L 52.4414 -72.2168 C 51.8066 -72.9004 50.7812 -72.8516 50.1465 -72.2168 C 49.5605 -71.6309 49.5117 -70.6055 50.1465 -69.9219 Z M 85.4492 -28.2227 C 91.6016 -31.6895 95.6055 -37.6953 95.6055 -44.9219 C 95.6055 -55.0293 87.5488 -63.1348 77.4902 -63.1348 C 69.8242 -63.1348 63.4766 -58.5449 60.8398 -52.002 C 62.4023 -50.2441 63.7207 -48.3887 64.7949 -46.3379 C 76.4648 -45.459 84.0332 -38.0859 85.4492 -28.2227 Z M 21.5332 -7.4707 L 63.3789 -7.4707 C 73.6328 -7.4707 81.6895 -15.2344 81.6895 -25.0977 C 81.6895 -35.0586 73.4375 -42.5293 62.4512 -42.4805 C 57.8125 -51.5625 50.1465 -56.4941 40.9668 -56.4941 C 29.0527 -56.4941 18.9453 -46.8262 17.9688 -34.2773 C 11.1328 -32.5195 6.83594 -27.2461 6.83594 -20.8008 C 6.83594 -12.9395 12.8418 -7.4707 21.5332 -7.4707 Z M 104.053 -43.3105 L 114.404 -43.3105 C 115.332 -43.3105 116.016 -44.043 116.016 -44.9219 C 116.064 -45.8496 115.332 -46.582 114.404 -46.582 L 104.053 -46.582 C 103.174 -46.582 102.441 -45.8496 102.441 -44.9219 C 102.441 -44.043 103.174 -43.3105 104.053 -43.3105 Z M 102.49 -17.5781 C 103.125 -16.9434 104.15 -16.9922 104.785 -17.627 C 105.371 -18.2129 105.42 -19.2383 104.785 -19.9219 L 97.4121 -27.1973 C 96.8262 -27.832 95.752 -27.832 95.166 -27.1973 C 94.5312 -26.6113 94.5312 -25.5371 95.166 -24.9023 Z"/>
  </g>
  <g id="Ultralight-S" transform="matrix(1 0 0 1 498.578 696)">
   <path d="M 77.2461 -70.4102 C 77.832 -70.4102 78.3203 -70.8984 78.3203 -71.4355 L 78.3203 -82.5684 C 78.3203 -83.1543 77.832 -83.5938 77.2461 -83.5938 C 76.6602 -83.5938 76.1719 -83.1543 76.1719 -82.5684 L 76.1719 -71.4355 C 76.1719 -70.8984 76.6602 -70.4102 77.2461 -70.4102 Z M 58.1055 -63.0371 C 58.4961 -62.6465 59.1797 -62.6465 59.5703 -63.0371 C 59.9609 -63.4277 59.9609 -64.1113 59.5703 -64.502 L 51.709 -72.3633 C 51.2695 -72.8027 50.6348 -72.7539 50.2441 -72.3633 C 49.8535 -71.9727 49.8047 -71.3379 50.2441 -70.8984 Z M 94.9219 -63.0371 C 95.3125 -62.6465 95.9961 -62.6465 96.3867 -63.0371 L 104.248 -70.8984 C 104.688 -71.3379 104.639 -71.9727 104.248 -72.3633 C 103.857 -72.7539 103.223 -72.8027 102.783 -72.3633 L 94.9219 -64.502 C 94.5312 -64.1113 94.5312 -63.4277 94.9219 -63.0371 Z M 84.4727 -28.5645 C 90.8203 -31.8359 95.0684 -37.9395 95.0684 -45.3613 C 95.0684 -55.3223 87.1582 -63.2324 77.2461 -63.2324 C 69.3359 -63.2324 62.8418 -58.3496 60.4492 -51.416 C 61.9629 -49.6094 63.2812 -47.7051 64.3066 -45.752 C 75.6348 -44.9219 82.959 -37.7441 84.4727 -28.5645 Z M 21.0449 -7.91016 L 63.0859 -7.91016 C 73.0957 -7.91016 81.0547 -15.4785 81.0547 -25.0488 C 81.0547 -34.7656 72.9004 -42.041 62.1094 -41.9922 C 57.373 -51.2207 49.8535 -56.1523 40.6738 -56.1523 C 28.9551 -56.1523 19.043 -46.4844 18.1152 -33.9844 C 11.2305 -32.2754 6.83594 -27.1484 6.83594 -20.752 C 6.83594 -13.2324 12.6953 -7.91016 21.0449 -7.91016 Z M 103.223 -44.3359 L 114.355 -44.3359 C 114.99 -44.3359 115.381 -44.7754 115.43 -45.3613 C 115.479 -45.9473 114.99 -46.3867 114.355 -46.3867 L 103.223 -46.3867 C 102.637 -46.3867 102.197 -45.9473 102.197 -45.3613 C 102.197 -44.7754 102.637 -44.3359 103.223 -44.3359 Z M 102.783 -18.3105 C 103.223 -17.8711 103.857 -17.9199 104.248 -18.3105 C 104.639 -18.7012 104.688 -19.3359 104.248 -19.7754 L 96.3867 -27.6367 C 95.9961 -28.0273 95.3125 -28.0273 94.9219 -27.6367 C 94.5312 -27.2461 94.5312 -26.5625 94.9219 -26.1719 Z"/>
  </g>
 </g>
</svg>
