<?xml version="1.0" encoding="UTF-8"?>
<!--Generator: Apple Native CoreSVG 123-->
<!DOCTYPE svg
PUBLIC "-//W3C//DTD SVG 1.1//EN"
       "http://www.w3.org/Graphics/SVG/1.1/DTD/svg11.dtd">
<svg version="1.1" xmlns="http://www.w3.org/2000/svg" xmlns:xlink="http://www.w3.org/1999/xlink" width="3300" height="2200">
 <!--glyph: "uni1001E9.medium", point size: 100.000000, font version: "Version 15.0d7e11", template writer version: "5"-->
 <g id="Notes">
  <rect height="2200" id="artboard" style="fill:white;opacity:1" width="3300" x="0" y="0"/>
  <line id="" style="fill:none;stroke:black;opacity:1;stroke-width:0.5;" x1="263" x2="3036" y1="292" y2="292"/>
  <text style="stroke:none;fill:black;font-family:-apple-system,&quot;SF Pro Display&quot;,&quot;SF Pro Text&quot;,Helvetica,sans-serif;font-weight:bold;" transform="matrix(1 0 0 1 263 322)">Weight/Scale Variations</text>
  <text style="stroke:none;fill:black;font-family:-apple-system,&quot;SF Pro Display&quot;,&quot;SF Pro Text&quot;,Helvetica,sans-serif;text-anchor:middle;" transform="matrix(1 0 0 1 559.711 322)">Ultralight</text>
  <text style="stroke:none;fill:black;font-family:-apple-system,&quot;SF Pro Display&quot;,&quot;SF Pro Text&quot;,Helvetica,sans-serif;text-anchor:middle;" transform="matrix(1 0 0 1 856.422 322)">Thin</text>
  <text style="stroke:none;fill:black;font-family:-apple-system,&quot;SF Pro Display&quot;,&quot;SF Pro Text&quot;,Helvetica,sans-serif;text-anchor:middle;" transform="matrix(1 0 0 1 1153.13 322)">Light</text>
  <text style="stroke:none;fill:black;font-family:-apple-system,&quot;SF Pro Display&quot;,&quot;SF Pro Text&quot;,Helvetica,sans-serif;text-anchor:middle;" transform="matrix(1 0 0 1 1449.84 322)">Regular</text>
  <text style="stroke:none;fill:black;font-family:-apple-system,&quot;SF Pro Display&quot;,&quot;SF Pro Text&quot;,Helvetica,sans-serif;text-anchor:middle;" transform="matrix(1 0 0 1 1746.56 322)">Medium</text>
  <text style="stroke:none;fill:black;font-family:-apple-system,&quot;SF Pro Display&quot;,&quot;SF Pro Text&quot;,Helvetica,sans-serif;text-anchor:middle;" transform="matrix(1 0 0 1 2043.27 322)">Semibold</text>
  <text style="stroke:none;fill:black;font-family:-apple-system,&quot;SF Pro Display&quot;,&quot;SF Pro Text&quot;,Helvetica,sans-serif;text-anchor:middle;" transform="matrix(1 0 0 1 2339.98 322)">Bold</text>
  <text style="stroke:none;fill:black;font-family:-apple-system,&quot;SF Pro Display&quot;,&quot;SF Pro Text&quot;,Helvetica,sans-serif;text-anchor:middle;" transform="matrix(1 0 0 1 2636.69 322)">Heavy</text>
  <text style="stroke:none;fill:black;font-family:-apple-system,&quot;SF Pro Display&quot;,&quot;SF Pro Text&quot;,Helvetica,sans-serif;text-anchor:middle;" transform="matrix(1 0 0 1 2933.4 322)">Black</text>
  <line id="" style="fill:none;stroke:black;opacity:1;stroke-width:0.5;" x1="263" x2="3036" y1="1903" y2="1903"/>
  <g id="" transform="matrix(1 0 0 1 263 1933)">
   <path d="M 9.24805 0.830078 C 13.5547 0.830078 17.1387 -2.74414 17.1387 -7.05078 C 17.1387 -11.3574 13.5449 -14.9316 9.23828 -14.9316 C 4.94141 -14.9316 1.36719 -11.3574 1.36719 -7.05078 C 1.36719 -2.74414 4.95117 0.830078 9.24805 0.830078 Z M 9.24805 -0.654297 C 5.70312 -0.654297 2.87109 -3.49609 2.87109 -7.05078 C 2.87109 -10.6055 5.69336 -13.4473 9.23828 -13.4473 C 12.793 -13.4473 15.6348 -10.6055 15.6445 -7.05078 C 15.6543 -3.49609 12.8027 -0.654297 9.24805 -0.654297 Z M 9.22852 -3.42773 C 9.69727 -3.42773 9.9707 -3.74023 9.9707 -4.25781 L 9.9707 -6.31836 L 12.1973 -6.31836 C 12.6953 -6.31836 13.0371 -6.57227 13.0371 -7.04102 C 13.0371 -7.51953 12.7148 -7.7832 12.1973 -7.7832 L 9.9707 -7.7832 L 9.9707 -10.0098 C 9.9707 -10.5273 9.69727 -10.8496 9.22852 -10.8496 C 8.75977 -10.8496 8.50586 -10.5078 8.50586 -10.0098 L 8.50586 -7.7832 L 6.29883 -7.7832 C 5.78125 -7.7832 5.44922 -7.51953 5.44922 -7.04102 C 5.44922 -6.57227 5.80078 -6.31836 6.29883 -6.31836 L 8.50586 -6.31836 L 8.50586 -4.25781 C 8.50586 -3.75977 8.75977 -3.42773 9.22852 -3.42773 Z"/>
  </g>
  <g id="" transform="matrix(1 0 0 1 281.506 1933)">
   <path d="M 11.709 2.91016 C 17.1582 2.91016 21.6699 -1.60156 21.6699 -7.05078 C 21.6699 -12.4902 17.1484 -17.0117 11.6992 -17.0117 C 6.25977 -17.0117 1.74805 -12.4902 1.74805 -7.05078 C 1.74805 -1.60156 6.26953 2.91016 11.709 2.91016 Z M 11.709 1.25 C 7.09961 1.25 3.41797 -2.44141 3.41797 -7.05078 C 3.41797 -11.6504 7.08984 -15.3516 11.6992 -15.3516 C 16.3086 -15.3516 20 -11.6504 20.0098 -7.05078 C 20.0195 -2.44141 16.3184 1.25 11.709 1.25 Z M 11.6895 -2.41211 C 12.207 -2.41211 12.5195 -2.77344 12.5195 -3.33984 L 12.5195 -6.23047 L 15.5762 -6.23047 C 16.123 -6.23047 16.5039 -6.51367 16.5039 -7.03125 C 16.5039 -7.55859 16.1426 -7.86133 15.5762 -7.86133 L 12.5195 -7.86133 L 12.5195 -10.9277 C 12.5195 -11.5039 12.207 -11.8555 11.6895 -11.8555 C 11.1719 -11.8555 10.8789 -11.4844 10.8789 -10.9277 L 10.8789 -7.86133 L 7.83203 -7.86133 C 7.26562 -7.86133 6.89453 -7.55859 6.89453 -7.03125 C 6.89453 -6.51367 7.28516 -6.23047 7.83203 -6.23047 L 10.8789 -6.23047 L 10.8789 -3.33984 C 10.8789 -2.79297 11.1719 -2.41211 11.6895 -2.41211 Z"/>
  </g>
  <g id="" transform="matrix(1 0 0 1 304.924 1933)">
   <path d="M 14.9707 5.67383 C 21.9336 5.67383 27.6953 -0.078125 27.6953 -7.04102 C 27.6953 -14.0039 21.9238 -19.7559 14.9609 -19.7559 C 8.00781 -19.7559 2.25586 -14.0039 2.25586 -7.04102 C 2.25586 -0.078125 8.01758 5.67383 14.9707 5.67383 Z M 14.9707 3.85742 C 8.93555 3.85742 4.08203 -1.00586 4.08203 -7.04102 C 4.08203 -13.0762 8.92578 -17.9395 14.9609 -17.9395 C 21.0059 -17.9395 25.8594 -13.0762 25.8691 -7.04102 C 25.8789 -1.00586 21.0156 3.85742 14.9707 3.85742 Z M 14.9512 -1.06445 C 15.5176 -1.06445 15.8691 -1.45508 15.8691 -2.06055 L 15.8691 -6.13281 L 20.1074 -6.13281 C 20.6934 -6.13281 21.1133 -6.46484 21.1133 -7.02148 C 21.1133 -7.59766 20.7227 -7.93945 20.1074 -7.93945 L 15.8691 -7.93945 L 15.8691 -12.1875 C 15.8691 -12.8027 15.5176 -13.1934 14.9512 -13.1934 C 14.3848 -13.1934 14.0625 -12.7832 14.0625 -12.1875 L 14.0625 -7.93945 L 9.83398 -7.93945 C 9.21875 -7.93945 8.80859 -7.59766 8.80859 -7.02148 C 8.80859 -6.46484 9.23828 -6.13281 9.83398 -6.13281 L 14.0625 -6.13281 L 14.0625 -2.06055 C 14.0625 -1.47461 14.3848 -1.06445 14.9512 -1.06445 Z"/>
  </g>
  <text style="stroke:none;fill:black;font-family:-apple-system,&quot;SF Pro Display&quot;,&quot;SF Pro Text&quot;,Helvetica,sans-serif;font-weight:bold;" transform="matrix(1 0 0 1 263 1953)">Design Variations</text>
  <text style="stroke:none;fill:black;font-family:-apple-system,&quot;SF Pro Display&quot;,&quot;SF Pro Text&quot;,Helvetica,sans-serif;" transform="matrix(1 0 0 1 263 1971)">Symbols are supported in up to nine weights and three scales.</text>
  <text style="stroke:none;fill:black;font-family:-apple-system,&quot;SF Pro Display&quot;,&quot;SF Pro Text&quot;,Helvetica,sans-serif;" transform="matrix(1 0 0 1 263 1989)">For optimal layout with text and other symbols, vertically align</text>
  <text style="stroke:none;fill:black;font-family:-apple-system,&quot;SF Pro Display&quot;,&quot;SF Pro Text&quot;,Helvetica,sans-serif;" transform="matrix(1 0 0 1 263 2007)">symbols with the adjacent text.</text>
  <rect height="14" id="" style="fill:#00AEEF;stroke:none;opacity:0.4;" width="3" x="776" y="1919"/>
  <g id="" transform="matrix(1 0 0 1 779 1933)">
   <path d="M 10.5273 0 L 12.373 0 L 7.17773 -14.0918 L 5.43945 -14.0918 L 0.244141 0 L 2.08984 0 L 3.50586 -4.0332 L 9.11133 -4.0332 Z M 6.2793 -11.9531 L 6.33789 -11.9531 L 8.59375 -5.52734 L 4.02344 -5.52734 Z"/>
  </g>
  <rect height="14" id="" style="fill:#00AEEF;stroke:none;opacity:0.4;" width="3" x="791.617" y="1919"/>
  <text style="stroke:none;fill:black;font-family:-apple-system,&quot;SF Pro Display&quot;,&quot;SF Pro Text&quot;,Helvetica,sans-serif;font-weight:bold;" transform="matrix(1 0 0 1 776 1953)">Margins</text>
  <text style="stroke:none;fill:black;font-family:-apple-system,&quot;SF Pro Display&quot;,&quot;SF Pro Text&quot;,Helvetica,sans-serif;" transform="matrix(1 0 0 1 776 1971)">Leading and trailing margins on the left and right side of each symbol</text>
  <text style="stroke:none;fill:black;font-family:-apple-system,&quot;SF Pro Display&quot;,&quot;SF Pro Text&quot;,Helvetica,sans-serif;" transform="matrix(1 0 0 1 776 1989)">can be adjusted by modifying the width of the blue rectangles.</text>
  <text style="stroke:none;fill:black;font-family:-apple-system,&quot;SF Pro Display&quot;,&quot;SF Pro Text&quot;,Helvetica,sans-serif;" transform="matrix(1 0 0 1 776 2007)">Modifications are automatically applied proportionally to all</text>
  <text style="stroke:none;fill:black;font-family:-apple-system,&quot;SF Pro Display&quot;,&quot;SF Pro Text&quot;,Helvetica,sans-serif;" transform="matrix(1 0 0 1 776 2025)">scales and weights.</text>
  <g id="" transform="matrix(1 0 0 1 1289 1933)">
   <path d="M 2.83203 3.11523 L 4.375 4.6582 C 5.22461 5.48828 6.19141 5.41992 7.06055 4.46289 L 17.2754 -6.66016 C 17.7051 -6.36719 18.0957 -6.37695 18.5645 -6.47461 L 19.6094 -6.68945 L 20.3027 -5.99609 L 20.2539 -5.47852 C 20.1855 -4.95117 20.3516 -4.53125 20.8496 -4.0332 L 21.6602 -3.22266 C 22.168 -2.71484 22.8223 -2.68555 23.3008 -3.16406 L 26.5527 -6.41602 C 27.0312 -6.89453 27.0117 -7.54883 26.5039 -8.05664 L 25.6836 -8.87695 C 25.1855 -9.375 24.7754 -9.55078 24.2383 -9.47266 L 23.7109 -9.41406 L 23.0566 -10.0781 L 23.3398 -11.2207 C 23.4863 -11.7871 23.3398 -12.2559 22.7148 -12.8613 L 20.3027 -15.2539 C 16.7578 -18.7793 12.2266 -18.6719 9.11133 -15.5371 C 8.69141 -15.1074 8.64258 -14.5215 8.91602 -14.0918 C 9.15039 -13.7207 9.62891 -13.4961 10.2734 -13.6621 C 11.7871 -14.043 13.3008 -13.9258 14.7852 -12.9199 L 14.1602 -11.3379 C 13.9258 -10.752 13.9453 -10.2734 14.1797 -9.83398 L 3.01758 0.439453 C 2.08008 1.30859 1.97266 2.25586 2.83203 3.11523 Z M 10.6738 -15.1465 C 13.3398 -17.1387 16.6504 -16.8262 19.0527 -14.4141 L 21.6797 -11.8066 C 21.9141 -11.5723 21.9434 -11.3867 21.8848 -11.0938 L 21.5039 -9.53125 L 23.0762 -7.95898 L 24.043 -8.04688 C 24.3262 -8.07617 24.4141 -8.05664 24.6387 -7.83203 L 25.2637 -7.20703 L 22.5098 -4.46289 L 21.8848 -5.07812 C 21.6602 -5.30273 21.6406 -5.40039 21.6699 -5.68359 L 21.7578 -6.64062 L 20.1953 -8.20312 L 18.5742 -7.89062 C 18.291 -7.83203 18.1445 -7.83203 17.9102 -8.07617 L 15.7324 -10.2539 C 15.5078 -10.4883 15.4785 -10.625 15.6055 -10.9473 L 16.5527 -13.2227 C 14.9512 -14.7559 12.8418 -15.6055 10.8008 -14.9512 C 10.7129 -14.9219 10.6445 -14.9414 10.6152 -14.9805 C 10.5859 -15.0293 10.5859 -15.0781 10.6738 -15.1465 Z M 4.10156 2.41211 C 3.61328 1.91406 3.78906 1.61133 4.12109 1.30859 L 15.0781 -8.80859 L 16.3086 -7.57812 L 6.15234 3.34961 C 5.84961 3.68164 5.46875 3.7793 5.06836 3.37891 Z"/>
  </g>
  <text style="stroke:none;fill:black;font-family:-apple-system,&quot;SF Pro Display&quot;,&quot;SF Pro Text&quot;,Helvetica,sans-serif;font-weight:bold;" transform="matrix(1 0 0 1 1289 1953)">Exporting</text>
  <text style="stroke:none;fill:black;font-family:-apple-system,&quot;SF Pro Display&quot;,&quot;SF Pro Text&quot;,Helvetica,sans-serif;" transform="matrix(1 0 0 1 1289 1971)">Symbols should be outlined when exporting to ensure the</text>
  <text style="stroke:none;fill:black;font-family:-apple-system,&quot;SF Pro Display&quot;,&quot;SF Pro Text&quot;,Helvetica,sans-serif;" transform="matrix(1 0 0 1 1289 1989)">design is preserved when submitting to Xcode.</text>
  <text id="template-version" style="stroke:none;fill:black;font-family:-apple-system,&quot;SF Pro Display&quot;,&quot;SF Pro Text&quot;,Helvetica,sans-serif;text-anchor:end;" transform="matrix(1 0 0 1 3036 1933)">Template v.1.0</text>
  <text style="stroke:none;fill:black;font-family:-apple-system,&quot;SF Pro Display&quot;,&quot;SF Pro Text&quot;,Helvetica,sans-serif;text-anchor:end;" transform="matrix(1 0 0 1 3036 1951)">Generated from hurricane</text>
  <text style="stroke:none;fill:black;font-family:-apple-system,&quot;SF Pro Display&quot;,&quot;SF Pro Text&quot;,Helvetica,sans-serif;text-anchor:end;" transform="matrix(1 0 0 1 3036 1969)">Typeset at 100 points</text>
  <text style="stroke:none;fill:black;font-family:-apple-system,&quot;SF Pro Display&quot;,&quot;SF Pro Text&quot;,Helvetica,sans-serif;" transform="matrix(1 0 0 1 263 726)">Small</text>
  <text style="stroke:none;fill:black;font-family:-apple-system,&quot;SF Pro Display&quot;,&quot;SF Pro Text&quot;,Helvetica,sans-serif;" transform="matrix(1 0 0 1 263 1156)">Medium</text>
  <text style="stroke:none;fill:black;font-family:-apple-system,&quot;SF Pro Display&quot;,&quot;SF Pro Text&quot;,Helvetica,sans-serif;" transform="matrix(1 0 0 1 263 1586)">Large</text>
 </g>
 <g id="Guides">
  <g id="H-reference" style="fill:#27AAE1;stroke:none;" transform="matrix(1 0 0 1 339 696)">
   <path d="M 54.9316 0 L 57.666 0 L 30.5664 -70.459 L 28.0762 -70.459 L 0.976562 0 L 3.66211 0 L 12.9395 -24.4629 L 45.7031 -24.4629 Z M 29.1992 -67.0898 L 29.4434 -67.0898 L 44.8242 -26.709 L 13.8184 -26.709 Z"/>
  </g>
  <line id="Baseline-S" style="fill:none;stroke:#27AAE1;opacity:1;stroke-width:0.577;" x1="263" x2="3036" y1="696" y2="696"/>
  <line id="Capline-S" style="fill:none;stroke:#27AAE1;opacity:1;stroke-width:0.577;" x1="263" x2="3036" y1="625.541" y2="625.541"/>
  <g id="H-reference" style="fill:#27AAE1;stroke:none;" transform="matrix(1 0 0 1 339 1126)">
   <path d="M 54.9316 0 L 57.666 0 L 30.5664 -70.459 L 28.0762 -70.459 L 0.976562 0 L 3.66211 0 L 12.9395 -24.4629 L 45.7031 -24.4629 Z M 29.1992 -67.0898 L 29.4434 -67.0898 L 44.8242 -26.709 L 13.8184 -26.709 Z"/>
  </g>
  <line id="Baseline-M" style="fill:none;stroke:#27AAE1;opacity:1;stroke-width:0.577;" x1="263" x2="3036" y1="1126" y2="1126"/>
  <line id="Capline-M" style="fill:none;stroke:#27AAE1;opacity:1;stroke-width:0.577;" x1="263" x2="3036" y1="1055.54" y2="1055.54"/>
  <g id="H-reference" style="fill:#27AAE1;stroke:none;" transform="matrix(1 0 0 1 339 1556)">
   <path d="M 54.9316 0 L 57.666 0 L 30.5664 -70.459 L 28.0762 -70.459 L 0.976562 0 L 3.66211 0 L 12.9395 -24.4629 L 45.7031 -24.4629 Z M 29.1992 -67.0898 L 29.4434 -67.0898 L 44.8242 -26.709 L 13.8184 -26.709 Z"/>
  </g>
  <line id="Baseline-L" style="fill:none;stroke:#27AAE1;opacity:1;stroke-width:0.577;" x1="263" x2="3036" y1="1556" y2="1556"/>
  <line id="Capline-L" style="fill:none;stroke:#27AAE1;opacity:1;stroke-width:0.577;" x1="263" x2="3036" y1="1485.54" y2="1485.54"/>
  <rect height="119.336" id="left-margin" style="fill:#00AEEF;stroke:none;opacity:0.4;" width="8.74023" x="1410" y="1030.79"/>
  <rect height="119.336" id="right-margin" style="fill:#00AEEF;stroke:none;opacity:0.4;" width="8.74023" x="1480.95" y="1030.79"/>
 </g>
 <g id="Symbols">
  <g id="Black-L" transform="matrix(1 0 0 1 2877.49 1556)">
   <path d="M 19.3359 -33.1055 C 19.3359 -12.9883 35.8398 3.51562 55.9082 3.51562 C 60.3516 3.51562 64.6484 2.73438 68.6035 1.2207 C 57.5684 16.1133 39.3066 24.9512 19.0918 24.9512 C 14.4043 24.9512 11.2793 28.3203 11.2793 32.7148 C 11.2793 36.9629 14.4043 40.3809 19.0918 40.3809 C 59.0332 40.3809 92.5293 9.96094 92.5293 -33.1055 C 92.5293 -53.1738 75.9766 -69.6777 55.9082 -69.6777 C 51.4648 -69.6777 47.168 -68.8965 43.2129 -67.3828 C 54.248 -82.2754 72.5098 -91.1133 92.7734 -91.1133 C 97.4121 -91.1133 100.537 -94.4824 100.537 -98.877 C 100.537 -103.125 97.4121 -106.543 92.7734 -106.543 C 52.7832 -106.543 19.3359 -76.123 19.3359 -33.1055 Z M 55.6641 -23.4375 C 50.3906 -23.4375 46.0449 -27.7832 46.0449 -33.1055 C 46.0449 -38.3789 50.3906 -42.7246 55.6641 -42.7246 C 60.9863 -42.7246 65.332 -38.3789 65.332 -33.1055 C 65.332 -27.8809 60.9863 -23.4375 55.6641 -23.4375 Z"/>
  </g>
  <g id="Heavy-L" transform="matrix(1 0 0 1 2582 1556)">
   <path d="M 19.3359 -33.4473 C 19.3359 -14.0137 35.3027 1.95312 54.6875 1.95312 C 59.7168 1.95312 64.502 0.927734 68.7988 -1.02539 C 58.0566 14.8438 39.3555 24.3164 18.2617 24.3164 C 14.1113 24.3164 11.2793 27.2949 11.2793 31.25 C 11.2793 35.0098 14.1113 38.0859 18.2617 38.0859 C 57.5684 38.0859 90.0879 8.59375 90.0879 -33.4473 C 90.0879 -52.832 74.0723 -68.8477 54.6875 -68.8477 C 49.6582 -68.8477 44.873 -67.7734 40.5762 -65.8203 C 51.3184 -81.6895 70.0195 -91.1621 91.1621 -91.1621 C 95.2637 -91.1621 98.0957 -94.1895 98.0957 -98.0957 C 98.0957 -101.855 95.2637 -104.932 91.1621 -104.932 C 51.8066 -104.932 19.3359 -75.4883 19.3359 -33.4473 Z M 54.4922 -23.9746 C 49.3164 -23.9746 45.0684 -28.2227 45.0684 -33.4473 C 45.0684 -38.623 49.3164 -42.8711 54.4922 -42.8711 C 59.7168 -42.8711 63.9648 -38.623 63.9648 -33.4473 C 63.9648 -28.3203 59.7168 -23.9746 54.4922 -23.9746 Z"/>
  </g>
  <g id="Bold-L" transform="matrix(1 0 0 1 2286.66 1556)">
   <path d="M 17.334 35.4492 C 55.9082 35.4492 87.3047 7.12891 87.3535 -33.7891 C 87.3535 -52.4414 71.9238 -67.8711 53.3203 -67.8711 C 47.7051 -67.8711 42.334 -66.4551 37.5977 -63.916 C 47.9492 -81.0547 67.2363 -91.2598 89.3555 -91.2598 C 92.9199 -91.2598 95.3613 -93.8477 95.3613 -97.168 C 95.3613 -100.439 92.9199 -103.076 89.3555 -103.076 C 50.7324 -103.076 19.3359 -74.7559 19.3359 -33.8379 C 19.3359 -33.8379 19.3359 -33.8379 19.3359 -33.7891 C 19.3359 -15.1367 34.7168 0.244141 53.3203 0.244141 C 58.9844 0.244141 64.3066 -1.17188 69.043 -3.66211 C 58.6426 13.4277 39.4043 23.6328 17.334 23.6328 C 13.7695 23.6328 11.2793 26.2207 11.2793 29.5898 C 11.2793 32.8125 13.7695 35.4492 17.334 35.4492 Z M 53.2227 -24.6094 C 48.1445 -24.6094 44.043 -28.7598 44.043 -33.7891 C 44.043 -38.8672 48.1445 -42.9688 53.2227 -42.9688 C 58.252 -42.9688 62.4023 -38.8672 62.4023 -33.7891 C 62.4023 -28.8086 58.252 -24.6094 53.2227 -24.6094 Z"/>
  </g>
  <g id="Semibold-L" transform="matrix(1 0 0 1 1990.87 1556)">
   <path d="M 16.6992 33.6426 C 54.7852 33.6426 85.4492 6.10352 85.4492 -34.082 C 85.4492 -52.1973 70.459 -67.1875 52.3926 -67.1875 C 46.2891 -67.1875 40.5762 -65.4785 35.6445 -62.5488 C 45.6543 -80.5176 65.2832 -91.3086 88.0859 -91.3086 C 91.2598 -91.3086 93.5059 -93.6523 93.5059 -96.582 C 93.5059 -99.4629 91.2598 -101.807 88.0859 -101.807 C 49.9512 -101.807 19.3359 -74.2676 19.3359 -34.082 C 19.3359 -15.918 34.2773 -0.976562 52.3926 -0.976562 C 58.4473 -0.976562 64.209 -2.63672 69.0918 -5.56641 C 59.082 12.4023 39.502 23.1934 16.6992 23.1934 C 13.5254 23.1934 11.2793 25.4395 11.2793 28.418 C 11.2793 31.2988 13.5254 33.6426 16.6992 33.6426 Z M 52.2949 -25.0488 C 47.3633 -25.0488 43.3105 -29.1016 43.3105 -34.082 C 43.3105 -39.0137 47.3633 -43.0664 52.2949 -43.0664 C 57.2754 -43.0664 61.3281 -39.0137 61.3281 -34.082 C 61.3281 -29.1992 57.2754 -25.0488 52.2949 -25.0488 Z"/>
  </g>
  <g id="Medium-L" transform="matrix(1 0 0 1 1694.87 1556)">
   <path d="M 16.2109 32.2754 C 53.9551 32.2754 84.0332 5.32227 84.0332 -34.2285 C 84.0332 -34.2773 84.0332 -34.2773 84.0332 -34.2773 C 84.0332 -52.002 69.3848 -66.6504 51.6602 -66.6504 C 45.2637 -66.6504 39.209 -64.7461 34.1797 -61.4258 C 43.8477 -80.127 63.7695 -91.3574 87.1582 -91.3574 C 90.0391 -91.3574 92.0898 -93.457 92.0898 -96.0938 C 92.0898 -98.7305 90.0391 -100.83 87.1582 -100.83 C 49.4141 -100.83 19.3359 -73.877 19.3359 -34.2773 C 19.3359 -16.5039 33.9844 -1.85547 51.6602 -1.85547 C 58.1055 -1.85547 64.1113 -3.80859 69.1406 -7.08008 C 59.4238 11.6211 39.5508 22.8027 16.2109 22.8027 C 13.3301 22.8027 11.2793 24.9023 11.2793 27.5879 C 11.2793 30.1758 13.3301 32.2754 16.2109 32.2754 Z M 51.6113 -25.3906 C 46.7773 -25.3906 42.7246 -29.3945 42.7246 -34.2773 C 42.7246 -39.1602 46.7773 -43.1641 51.6113 -43.1641 C 56.543 -43.1641 60.498 -39.1602 60.498 -34.2773 C 60.498 -29.4434 56.543 -25.3906 51.6113 -25.3906 Z"/>
  </g>
  <g id="Regular-L" transform="matrix(1 0 0 1 1399.11 1556)">
   <path d="M 15.5762 30.5176 C 52.7832 30.5176 82.0801 4.39453 82.1777 -34.4238 C 82.1777 -34.4238 82.1777 -34.4727 82.1777 -34.5215 C 82.1777 -51.7578 67.9199 -66.0156 50.7324 -66.0156 C 43.8965 -66.0156 37.5 -63.7207 32.2754 -59.9121 C 41.5527 -79.5898 61.7676 -91.4062 85.8887 -91.4062 C 88.3789 -91.4062 90.1855 -93.2129 90.1855 -95.459 C 90.1855 -97.8027 88.3789 -99.5605 85.8887 -99.5605 C 48.7305 -99.5605 19.4336 -73.4375 19.3359 -34.6191 C 19.3359 -34.6191 19.3359 -34.5703 19.3359 -34.5215 C 19.3359 -17.2852 33.5449 -3.07617 50.7324 -3.07617 C 57.6172 -3.07617 63.9648 -5.32227 69.1895 -9.13086 C 59.9121 10.5469 39.6484 22.3633 15.5762 22.3633 C 13.0859 22.3633 11.2793 24.1211 11.2793 26.416 C 11.2793 28.6621 13.0859 30.5176 15.5762 30.5176 Z M 50.7324 -25.7812 C 45.9473 -25.7812 42.041 -29.7363 42.041 -34.5215 C 42.041 -39.3555 45.9473 -43.2617 50.7324 -43.2617 C 55.5664 -43.2617 59.4727 -39.3555 59.4727 -34.5215 C 59.4727 -29.7852 55.5664 -25.7812 50.7324 -25.7812 Z"/>
  </g>
  <g id="Light-L" transform="matrix(1 0 0 1 1103.3 1556)">
   <path d="M 14.7949 29.1992 C 51.2695 29.1992 80.3223 2.29492 80.3223 -34.9121 C 80.3223 -51.6113 66.5039 -65.4297 49.8047 -65.4297 C 42.041 -65.4297 34.8633 -62.4023 29.4434 -57.5195 C 38.2324 -78.9551 59.5215 -92.6758 84.8633 -92.6758 C 86.9629 -92.6758 88.3789 -94.0918 88.3789 -95.8496 C 88.3789 -97.6562 86.9629 -99.0234 84.8633 -99.0234 C 48.3887 -99.0234 19.3359 -72.1191 19.3359 -34.9121 C 19.3359 -18.1641 33.1543 -4.3457 49.8047 -4.3457 C 57.5684 -4.3457 64.7461 -7.37305 70.166 -12.2559 C 61.377 9.13086 40.0879 22.9004 14.7949 22.9004 C 12.6953 22.9004 11.2793 24.2676 11.2793 26.0742 C 11.2793 27.832 12.6953 29.1992 14.7949 29.1992 Z M 49.8047 -26.709 C 45.3613 -26.709 41.6504 -30.4199 41.6504 -34.9121 C 41.6504 -39.4043 45.3613 -43.0664 49.8047 -43.0664 C 54.3457 -43.0664 58.0078 -39.4043 58.0078 -34.9121 C 58.0078 -30.4688 54.3457 -26.709 49.8047 -26.709 Z"/>
  </g>
  <g id="Thin-L" transform="matrix(1 0 0 1 807.814 1556)">
   <path d="M 13.7207 27.4902 C 49.2188 27.4902 77.8809 -0.390625 77.8809 -35.4004 C 77.8809 -51.416 64.5996 -64.6484 48.584 -64.6484 C 39.3555 -64.6484 31.0059 -60.2539 25.6348 -53.418 C 33.3496 -77.4414 56.2012 -94.3848 83.4473 -94.3848 C 85.0586 -94.3848 85.9375 -95.2148 85.9375 -96.3379 C 85.9375 -97.4609 85.0586 -98.291 83.4473 -98.291 C 47.998 -98.291 19.3359 -70.459 19.3359 -35.4004 C 19.3359 -19.3359 32.5684 -6.10352 48.584 -6.10352 C 57.8613 -6.10352 66.1621 -10.498 71.5332 -17.334 C 63.8184 6.64062 40.9668 23.6328 13.7207 23.6328 C 12.1582 23.6328 11.2793 24.4141 11.2793 25.5859 C 11.2793 26.709 12.1582 27.4902 13.7207 27.4902 Z M 48.584 -27.9297 C 44.5312 -27.9297 41.1621 -31.3477 41.1621 -35.4004 C 41.1621 -39.502 44.5312 -42.8223 48.584 -42.8223 C 52.7344 -42.8223 56.0059 -39.502 56.0059 -35.4004 C 56.0059 -31.3477 52.7344 -27.9297 48.584 -27.9297 Z"/>
  </g>
  <g id="Ultralight-L" transform="matrix(1 0 0 1 511.737 1556)">
   <path d="M 13.1836 26.6113 C 48.1445 26.6113 76.6113 -1.75781 76.6113 -35.6445 C 76.6113 -51.3184 63.6719 -64.2578 47.9492 -64.2578 C 37.7441 -64.2578 28.6621 -58.7402 23.584 -50.5859 C 30.4199 -76.1719 54.248 -95.2637 82.7637 -95.2637 C 84.082 -95.2637 84.668 -95.8008 84.668 -96.582 C 84.668 -97.4121 84.082 -97.9004 82.7637 -97.9004 C 47.7539 -97.9004 19.3359 -69.5801 19.3359 -35.6445 C 19.3359 -19.9707 32.2754 -6.98242 47.9492 -6.98242 C 58.2031 -6.98242 67.2363 -12.5 72.3145 -20.6543 C 65.5273 4.83398 41.6992 24.0234 13.1836 24.0234 C 11.8652 24.0234 11.2793 24.5117 11.2793 25.3418 C 11.2793 26.123 11.8652 26.6113 13.1836 26.6113 Z M 47.9492 -28.5645 C 44.1406 -28.5645 40.918 -31.7871 40.918 -35.6445 C 40.918 -39.5508 44.1406 -42.6758 47.9492 -42.6758 C 51.9043 -42.6758 55.0293 -39.5508 55.0293 -35.6445 C 55.0293 -31.7871 51.9043 -28.5645 47.9492 -28.5645 Z"/>
  </g>
  <g id="Black-M" transform="matrix(1 0 0 1 2888.92 1126)">
   <path d="M 15.4785 25.8301 C 46.9238 25.8301 73.9746 0.488281 73.9746 -33.3008 C 73.9746 -49.5117 60.6934 -62.793 44.4824 -62.793 C 41.4062 -62.793 38.4277 -62.3535 35.5957 -61.4258 C 44.4824 -72.4121 58.3984 -79.1016 73.4863 -79.1016 C 77.5879 -79.1016 80.2246 -82.0312 80.2246 -85.8398 C 80.2246 -89.502 77.5879 -92.4316 73.4863 -92.4316 C 42.041 -92.4316 14.9902 -67.1387 14.9902 -33.3008 C 14.9902 -17.0898 28.2715 -3.80859 44.4824 -3.80859 C 47.5586 -3.80859 50.5371 -4.29688 53.3691 -5.17578 C 44.4824 5.81055 30.5664 12.5 15.4785 12.5 C 11.377 12.5 8.74023 15.3809 8.74023 19.2383 C 8.74023 22.9004 11.377 25.8301 15.4785 25.8301 Z M 44.2383 -25.8301 C 40.1367 -25.8301 36.7676 -29.1992 36.7676 -33.3008 C 36.7676 -37.4023 40.1367 -40.7715 44.2383 -40.7715 C 48.3398 -40.7715 51.709 -37.4023 51.709 -33.3008 C 51.709 -29.248 48.3398 -25.8301 44.2383 -25.8301 Z"/>
  </g>
  <g id="Heavy-M" transform="matrix(1 0 0 1 2593.31 1126)">
   <path d="M 14.7949 23.6328 C 45.7031 23.6328 71.8262 -0.439453 71.8262 -33.5938 C 71.8262 -49.1699 58.9844 -62.0117 43.4082 -62.0117 C 39.8926 -62.0117 36.5234 -61.377 33.3984 -60.1562 C 42.041 -71.8262 56.25 -78.8574 72.0215 -78.8574 C 75.6348 -78.8574 78.0273 -81.4453 78.0273 -84.8633 C 78.0273 -88.1348 75.6348 -90.7715 72.0215 -90.7715 C 41.0645 -90.7715 14.9902 -66.748 14.9902 -33.5938 C 14.9902 -17.9688 27.832 -5.17578 43.4082 -5.17578 C 46.875 -5.17578 50.2441 -5.81055 53.3691 -6.98242 C 44.7754 4.63867 30.5176 11.7188 14.7949 11.7188 C 11.1328 11.7188 8.74023 14.3066 8.74023 17.7246 C 8.74023 20.9473 11.1328 23.6328 14.7949 23.6328 Z M 43.2129 -26.2207 C 39.1602 -26.2207 35.791 -29.541 35.791 -33.5938 C 35.791 -37.6465 39.1602 -40.9668 43.2129 -40.9668 C 47.2656 -40.9668 50.5859 -37.6465 50.5859 -33.5938 C 50.5859 -29.5898 47.2656 -26.2207 43.2129 -26.2207 Z"/>
  </g>
  <g id="Bold-M" transform="matrix(1 0 0 1 2297.81 1126)">
   <path d="M 14.0137 21.1426 C 44.3848 21.1426 69.3848 -1.46484 69.3848 -33.8867 C 69.3848 -48.8281 57.0801 -61.084 42.1875 -61.084 C 38.1836 -61.084 34.375 -60.2051 30.957 -58.6426 C 39.2578 -71.1426 53.8086 -78.5645 70.3613 -78.5645 C 73.4375 -78.5645 75.5859 -80.8594 75.5859 -83.7891 C 75.5859 -86.6211 73.4375 -88.916 70.3613 -88.916 C 39.9902 -88.916 14.9902 -66.3086 14.9902 -33.8867 C 14.9902 -18.9941 27.2949 -6.68945 42.1875 -6.68945 C 46.1426 -6.68945 49.9512 -7.56836 53.3691 -9.13086 C 45.0684 3.36914 30.4688 10.791 14.0137 10.791 C 10.8887 10.791 8.74023 13.0371 8.74023 16.0156 C 8.74023 18.8477 10.8887 21.1426 14.0137 21.1426 Z M 42.041 -26.6113 C 38.0371 -26.6113 34.7656 -29.8828 34.7656 -33.8867 C 34.7656 -37.8906 38.0371 -41.1621 42.041 -41.1621 C 46.0449 -41.1621 49.3164 -37.8906 49.3164 -33.8867 C 49.3164 -29.9316 46.0449 -26.6113 42.041 -26.6113 Z"/>
  </g>
  <g id="Semibold-M" transform="matrix(1 0 0 1 2001.93 1126)">
   <path d="M 13.4766 19.4336 C 43.457 19.4336 67.6758 -2.19727 67.6758 -34.082 C 67.6758 -48.5352 55.7617 -60.498 41.3086 -60.498 C 37.0117 -60.498 32.959 -59.4238 29.3457 -57.5684 C 37.3047 -70.6543 52.0996 -78.3691 69.1895 -78.3691 C 71.9727 -78.3691 73.9258 -80.4199 73.9258 -83.0078 C 73.9258 -85.5957 71.9727 -87.6465 69.1895 -87.6465 C 39.209 -87.6465 14.9902 -66.0156 14.9902 -34.082 C 14.9902 -19.6289 26.9043 -7.71484 41.3086 -7.71484 C 45.6055 -7.71484 49.707 -8.78906 53.2715 -10.6445 C 45.3125 2.44141 30.5176 10.1562 13.4766 10.1562 C 10.6934 10.1562 8.74023 12.207 8.74023 14.8438 C 8.74023 17.3828 10.6934 19.4336 13.4766 19.4336 Z M 41.2598 -26.9043 C 37.3047 -26.9043 34.0332 -30.127 34.0332 -34.082 C 34.0332 -38.0859 37.3047 -41.3086 41.2598 -41.3086 C 45.2148 -41.3086 48.4375 -38.0859 48.4375 -34.082 C 48.4375 -30.1758 45.2148 -26.9043 41.2598 -26.9043 Z"/>
  </g>
  <g id="Medium-M" transform="matrix(1 0 0 1 1705.88 1126)">
   <path d="M 13.0371 18.1641 C 42.7246 18.1641 66.4062 -2.73438 66.4062 -34.2773 C 66.4062 -48.3887 54.7363 -60.0098 40.6738 -60.0098 C 36.1328 -60.0098 31.8359 -58.7891 28.125 -56.6895 C 35.8398 -70.3125 50.8301 -78.2227 68.3105 -78.2227 C 70.8008 -78.2227 72.6074 -80.127 72.6074 -82.4707 C 72.6074 -84.8145 70.8008 -86.6699 68.3105 -86.6699 C 38.623 -86.6699 14.9902 -65.7715 14.9902 -34.2773 C 14.9902 -20.166 26.6113 -8.49609 40.6738 -8.49609 C 45.2148 -8.49609 49.5117 -9.7168 53.2227 -11.8164 C 45.5078 1.75781 30.5176 9.7168 13.0371 9.7168 C 10.5469 9.7168 8.74023 11.5723 8.74023 13.916 C 8.74023 16.2598 10.5469 18.1641 13.0371 18.1641 Z M 40.625 -27.0996 C 36.7188 -27.0996 33.4961 -30.3223 33.4961 -34.2773 C 33.4961 -38.1836 36.7188 -41.4062 40.625 -41.4062 C 44.5801 -41.4062 47.8027 -38.1836 47.8027 -34.2773 C 47.8027 -30.3711 44.5801 -27.0996 40.625 -27.0996 Z"/>
  </g>
  <g id="Regular-M" transform="matrix(1 0 0 1 1410 1126)">
   <path d="M 12.5 16.4551 C 41.7969 16.4551 64.7461 -3.4668 64.7461 -34.4727 C 64.7461 -48.0957 53.4668 -59.375 39.8438 -59.375 C 35.0098 -59.375 30.4688 -57.959 26.6113 -55.5176 C 33.9355 -69.8242 49.1211 -78.0273 67.1875 -78.0273 C 69.3359 -78.0273 70.9473 -79.6875 70.9473 -81.6895 C 70.9473 -83.7891 69.3359 -85.4004 67.1875 -85.4004 C 37.8906 -85.4004 14.9902 -65.5273 14.9902 -34.4727 C 14.9902 -20.8496 26.2695 -9.57031 39.8438 -9.57031 C 44.6777 -9.57031 49.2188 -10.9863 53.0762 -13.4277 C 45.7031 0.878906 30.5664 9.08203 12.5 9.08203 C 10.3516 9.08203 8.74023 10.6934 8.74023 12.793 C 8.74023 14.7949 10.3516 16.4551 12.5 16.4551 Z M 39.8438 -27.3926 C 35.9863 -27.3926 32.7637 -30.5664 32.7637 -34.4727 C 32.7637 -38.3789 35.9863 -41.5527 39.8438 -41.5527 C 43.75 -41.5527 46.9238 -38.3789 46.9238 -34.4727 C 46.9238 -30.6152 43.75 -27.3926 39.8438 -27.3926 Z"/>
  </g>
  <g id="Light-M" transform="matrix(1 0 0 1 1114.12 1126)">
   <path d="M 11.8164 15.2832 C 40.4297 15.2832 63.0859 -5.27344 63.0859 -34.8145 C 63.0859 -47.998 52.1484 -58.8867 39.0137 -58.8867 C 33.3984 -58.8867 28.2227 -56.8848 24.0723 -53.6133 C 31.1523 -69.4336 47.1191 -79.1992 66.2109 -79.1992 C 68.0176 -79.1992 69.2871 -80.4688 69.2871 -82.0312 C 69.2871 -83.6426 68.0176 -84.9121 66.2109 -84.9121 C 37.5977 -84.9121 14.9902 -64.3555 14.9902 -34.8145 C 14.9902 -21.6309 25.8789 -10.7422 39.0137 -10.7422 C 44.6289 -10.7422 49.8047 -12.6953 53.9551 -15.9668 C 46.875 -0.195312 30.8594 9.57031 11.8164 9.57031 C 10.0098 9.57031 8.74023 10.8398 8.74023 12.4512 C 8.74023 14.0137 10.0098 15.2832 11.8164 15.2832 Z M 39.0137 -28.2227 C 35.4004 -28.2227 32.4219 -31.2012 32.4219 -34.8145 C 32.4219 -38.4277 35.4004 -41.3574 39.0137 -41.3574 C 42.6758 -41.3574 45.6055 -38.4277 45.6055 -34.8145 C 45.6055 -31.25 42.6758 -28.2227 39.0137 -28.2227 Z"/>
  </g>
  <g id="Thin-M" transform="matrix(1 0 0 1 818.507 1126)">
   <path d="M 10.8887 13.7695 C 38.5742 13.7695 60.8887 -7.66602 60.8887 -35.2539 C 60.8887 -47.8027 50.4883 -58.2031 37.9395 -58.2031 C 31.1035 -58.2031 24.9023 -55.127 20.7031 -50.3418 C 26.9531 -68.3594 44.2871 -80.7129 64.9902 -80.7129 C 66.3086 -80.7129 67.0898 -81.4453 67.0898 -82.4707 C 67.0898 -83.4961 66.3086 -84.2285 64.9902 -84.2285 C 37.2559 -84.2285 14.9902 -62.8906 14.9902 -35.2539 C 14.9902 -22.6562 25.3906 -12.2559 37.9395 -12.2559 C 44.7266 -12.2559 50.9277 -15.332 55.127 -20.166 C 48.8281 -2.14844 31.543 10.2539 10.8887 10.2539 C 9.52148 10.2539 8.74023 10.9863 8.74023 12.0117 C 8.74023 13.0371 9.52148 13.7695 10.8887 13.7695 Z M 37.9395 -29.3457 C 34.7168 -29.3457 31.9824 -32.0312 31.9824 -35.2539 C 31.9824 -38.5254 34.7168 -41.1621 37.9395 -41.1621 C 41.2109 -41.1621 43.8477 -38.5254 43.8477 -35.2539 C 43.8477 -32.0312 41.2109 -29.3457 37.9395 -29.3457 Z"/>
  </g>
  <g id="Ultralight-M" transform="matrix(1 0 0 1 522.358 1126)">
   <path d="M 10.4004 12.9883 C 37.6465 12.9883 59.7656 -8.88672 59.7656 -35.4492 C 59.7656 -47.7051 49.6094 -57.8613 37.3535 -57.8613 C 29.7363 -57.8613 22.9492 -53.9551 18.8965 -48.0469 C 24.5117 -67.3828 42.627 -81.4941 64.3555 -81.4941 C 65.4297 -81.4941 65.9668 -81.9824 65.9668 -82.7148 C 65.9668 -83.4473 65.4297 -83.8867 64.3555 -83.8867 C 37.0605 -83.8867 14.9902 -62.1094 14.9902 -35.4492 C 14.9902 -23.1934 25.0977 -13.0859 37.3535 -13.0859 C 44.9707 -13.0859 51.7578 -16.9922 55.8105 -22.8516 C 50.1953 -3.56445 32.0801 10.5957 10.4004 10.5957 C 9.27734 10.5957 8.74023 11.0352 8.74023 11.7676 C 8.74023 12.5 9.27734 12.9883 10.4004 12.9883 Z M 37.3535 -29.8828 C 34.3262 -29.8828 31.7871 -32.4219 31.7871 -35.4492 C 31.7871 -38.5742 34.3262 -41.0645 37.3535 -41.0645 C 40.4785 -41.0645 42.9688 -38.5742 42.9688 -35.4492 C 42.9688 -32.4219 40.4785 -29.8828 37.3535 -29.8828 Z"/>
  </g>
  <g id="Black-S" transform="matrix(1 0 0 1 2898.63 696)">
   <path d="M 12.0605 12.4512 C 36.6699 12.4512 57.8125 -7.27539 57.8125 -33.7402 C 57.8125 -46.3867 47.4121 -56.7871 34.7656 -56.7871 C 32.3242 -56.7871 29.9805 -56.3965 27.7344 -55.6641 C 34.668 -64.3066 45.6055 -69.5801 57.4707 -69.5801 C 60.6445 -69.5801 62.6953 -71.8262 62.6953 -74.8047 C 62.6953 -77.6367 60.6445 -79.9316 57.4707 -79.9316 C 32.8613 -79.9316 11.7188 -60.2051 11.7188 -33.7402 C 11.7188 -21.0938 22.1191 -10.6934 34.7656 -10.6934 C 37.207 -10.6934 39.5508 -11.084 41.7969 -11.8164 C 34.8633 -3.17383 23.9258 2.09961 12.0605 2.09961 C 8.88672 2.09961 6.83594 4.3457 6.83594 7.32422 C 6.83594 10.1562 8.88672 12.4512 12.0605 12.4512 Z M 34.5703 -27.8809 C 31.3477 -27.8809 28.7109 -30.5176 28.7109 -33.7402 C 28.7109 -36.9629 31.3477 -39.5996 34.5703 -39.5996 C 37.793 -39.5996 40.4297 -36.9629 40.4297 -33.7402 C 40.4297 -30.5664 37.793 -27.8809 34.5703 -27.8809 Z"/>
  </g>
  <g id="Heavy-S" transform="matrix(1 0 0 1 2602.68 696)">
   <path d="M 11.6211 10.8887 C 35.8887 10.8887 56.2988 -7.8125 56.2988 -33.9355 C 56.2988 -46.1426 46.2402 -56.25 34.0332 -56.25 C 31.3477 -56.25 28.7598 -55.7617 26.3672 -54.834 C 33.1055 -63.8672 44.1406 -69.2383 56.4453 -69.2383 C 59.2773 -69.2383 61.1816 -71.3379 61.1816 -74.0234 C 61.1816 -76.6113 59.2773 -78.7109 56.4453 -78.7109 C 32.1289 -78.7109 11.7188 -60.0586 11.7188 -33.9355 C 11.7188 -21.6797 21.7773 -11.6211 34.0332 -11.6211 C 36.7188 -11.6211 39.3066 -12.1094 41.6992 -12.9883 C 34.9609 -3.95508 23.877 1.41602 11.6211 1.41602 C 8.74023 1.41602 6.83594 3.4668 6.83594 6.20117 C 6.83594 8.78906 8.74023 10.8887 11.6211 10.8887 Z M 33.8867 -28.0762 C 30.6641 -28.0762 28.0273 -30.7129 28.0273 -33.9355 C 28.0273 -37.1094 30.6641 -39.7461 33.8867 -39.7461 C 37.0605 -39.7461 39.6973 -37.1094 39.6973 -33.9355 C 39.6973 -30.7617 37.0605 -28.0762 33.8867 -28.0762 Z"/>
  </g>
  <g id="Bold-S" transform="matrix(1 0 0 1 2306.8 696)">
   <path d="M 11.084 9.13086 C 35.0098 9.13086 54.5898 -8.34961 54.6387 -34.082 C 54.6387 -34.082 54.6387 -34.082 54.6387 -34.1309 C 54.6387 -45.8984 44.9219 -55.6152 33.2031 -55.6152 C 30.2246 -55.6152 27.3926 -54.9805 24.8047 -53.8574 C 31.2988 -63.3789 42.5293 -68.8965 55.2734 -68.8965 C 57.7637 -68.8965 59.5215 -70.752 59.5215 -73.1445 C 59.5215 -75.4883 57.7637 -77.3438 55.2734 -77.3438 C 31.3477 -77.3438 11.7676 -59.9121 11.7188 -34.1309 C 11.7188 -22.3145 21.4355 -12.5977 33.2031 -12.5977 C 36.1328 -12.5977 38.9648 -13.2324 41.5527 -14.3555 C 35.0586 -4.88281 23.8281 0.683594 11.084 0.683594 C 8.59375 0.683594 6.83594 2.53906 6.83594 4.93164 C 6.83594 7.22656 8.59375 9.13086 11.084 9.13086 Z M 33.1055 -28.2715 C 29.8828 -28.2715 27.2461 -30.9082 27.2461 -34.1309 C 27.2461 -37.3047 29.8828 -39.9414 33.1055 -39.9414 C 36.2793 -39.9414 38.916 -37.3047 38.916 -34.1309 C 38.916 -30.957 36.2793 -28.2715 33.1055 -28.2715 Z"/>
  </g>
  <g id="Semibold-S" transform="matrix(1 0 0 1 2010.65 696)">
   <path d="M 10.7422 7.91016 C 34.4727 7.91016 53.5156 -8.78906 53.5156 -34.2285 C 53.5156 -45.7031 44.043 -55.1758 32.6172 -55.1758 C 29.4434 -55.1758 26.4648 -54.4434 23.7793 -53.1738 C 30.0293 -63.0371 41.4062 -68.6523 54.4922 -68.6523 C 56.7383 -68.6523 58.3984 -70.3613 58.3984 -72.5586 C 58.3984 -74.707 56.7383 -76.416 54.4922 -76.416 C 30.7617 -76.416 11.7188 -59.7168 11.7188 -34.2285 C 11.7188 -22.7539 21.1914 -13.3301 32.6172 -13.3301 C 35.7422 -13.3301 38.7695 -14.0137 41.4551 -15.332 C 35.1562 -5.46875 23.8281 0.146484 10.7422 0.146484 C 8.49609 0.146484 6.83594 1.85547 6.83594 4.05273 C 6.83594 6.20117 8.49609 7.91016 10.7422 7.91016 Z M 32.5684 -28.418 C 29.3457 -28.418 26.7578 -31.0547 26.7578 -34.2285 C 26.7578 -37.4512 29.3457 -40.0391 32.5684 -40.0391 C 35.7422 -40.0391 38.3789 -37.4512 38.3789 -34.2285 C 38.3789 -31.1035 35.7422 -28.418 32.5684 -28.418 Z"/>
  </g>
  <g id="Medium-S" transform="matrix(1 0 0 1 1714.38 696)">
   <path d="M 10.498 7.03125 C 34.0332 7.03125 52.6367 -9.08203 52.6367 -34.3262 C 52.6367 -45.5566 43.3594 -54.834 32.1777 -54.834 C 28.9062 -54.834 25.7812 -54.0527 22.998 -52.6367 C 29.1016 -62.7441 40.5273 -68.457 53.8574 -68.457 C 55.957 -68.457 57.5195 -70.0684 57.5195 -72.0703 C 57.5195 -74.1211 55.957 -75.6836 53.8574 -75.6836 C 30.3223 -75.6836 11.7188 -59.6191 11.7188 -34.3262 C 11.7188 -23.0957 20.9961 -13.8672 32.1777 -13.8672 C 35.4492 -13.8672 38.5742 -14.6484 41.3574 -16.0645 C 35.2051 -5.9082 23.8281 -0.244141 10.498 -0.244141 C 8.39844 -0.244141 6.83594 1.36719 6.83594 3.41797 C 6.83594 5.37109 8.39844 7.03125 10.498 7.03125 Z M 32.1289 -28.5645 C 28.9551 -28.5645 26.3672 -31.1523 26.3672 -34.3262 C 26.3672 -37.5488 28.9551 -40.1367 32.1289 -40.1367 C 35.3516 -40.1367 37.9395 -37.5488 37.9395 -34.3262 C 37.9395 -31.2012 35.3516 -28.5645 32.1289 -28.5645 Z"/>
  </g>
  <g id="Regular-S" transform="matrix(1 0 0 1 1418.23 696)">
   <path d="M 10.1562 5.81055 C 33.4473 5.81055 51.5137 -9.47266 51.5137 -34.4727 C 51.5137 -45.4102 42.4805 -54.3945 31.5918 -54.3945 C 28.1738 -54.3945 24.9023 -53.5156 22.0215 -51.9043 C 27.8809 -62.4512 39.3555 -68.2129 53.0762 -68.2129 C 54.9316 -68.2129 56.3965 -69.6777 56.3965 -71.4844 C 56.3965 -73.3398 54.9316 -74.7559 53.0762 -74.7559 C 29.7852 -74.7559 11.7188 -59.4727 11.7188 -34.4727 C 11.7188 -23.584 20.752 -14.5508 31.5918 -14.5508 C 35.0586 -14.5508 38.3301 -15.4297 41.1621 -17.041 C 35.3027 -6.49414 23.8281 -0.732422 10.1562 -0.732422 C 8.30078 -0.732422 6.83594 0.683594 6.83594 2.53906 C 6.83594 4.3457 8.30078 5.81055 10.1562 5.81055 Z M 31.5918 -28.7109 C 28.418 -28.7109 25.8301 -31.2988 25.8301 -34.4727 C 25.8301 -37.6465 28.418 -40.2344 31.5918 -40.2344 C 34.8145 -40.2344 37.4023 -37.6465 37.4023 -34.4727 C 37.4023 -31.3477 34.8145 -28.7109 31.5918 -28.7109 Z"/>
  </g>
  <g id="Light-S" transform="matrix(1 0 0 1 1122.25 696)">
   <path d="M 9.52148 4.78516 C 32.1777 4.78516 50 -11.0352 50.0488 -34.7168 L 50.0488 -34.7656 C 50.0488 -45.2637 41.3574 -53.9551 30.8594 -53.9551 C 26.8066 -53.9551 22.9492 -52.6367 19.8242 -50.3906 C 25.4883 -62.207 37.6953 -69.2383 52.2461 -69.2383 C 53.7598 -69.2383 54.9316 -70.3613 54.9316 -71.7773 C 54.9316 -73.2422 53.7598 -74.3164 52.2461 -74.3164 C 29.5898 -74.3164 11.7676 -58.5449 11.7188 -34.8145 L 11.7188 -34.7656 C 11.7188 -24.2676 20.4102 -15.5762 30.8594 -15.5762 C 34.9609 -15.5762 38.7695 -16.8945 41.8945 -19.1406 C 36.2305 -7.32422 24.0234 -0.292969 9.52148 -0.292969 C 7.95898 -0.292969 6.83594 0.78125 6.83594 2.24609 C 6.83594 3.66211 7.95898 4.78516 9.52148 4.78516 Z M 30.8594 -29.4434 C 27.9297 -29.4434 25.5371 -31.8359 25.5371 -34.7656 C 25.5371 -37.6953 27.9297 -40.0879 30.8594 -40.0879 C 33.8379 -40.0879 36.2305 -37.6953 36.2305 -34.7656 C 36.2305 -31.8848 33.8379 -29.4434 30.8594 -29.4434 Z"/>
  </g>
  <g id="Thin-S" transform="matrix(1 0 0 1 826.515 696)">
   <path d="M 8.69141 3.4668 C 30.5664 3.4668 48.0957 -13.1836 48.0957 -35.1562 C 48.0957 -45.1172 39.8438 -53.3691 29.9316 -53.3691 C 24.8047 -53.3691 20.166 -51.2207 16.8457 -47.7539 C 21.9727 -61.4258 35.2539 -70.5566 51.123 -70.5566 C 52.2949 -70.5566 52.9785 -71.2402 52.9785 -72.168 C 52.9785 -73.0957 52.2949 -73.7793 51.123 -73.7793 C 29.248 -73.7793 11.7188 -57.1777 11.7188 -35.1562 C 11.7188 -25.1953 19.9707 -16.9434 29.9316 -16.9434 C 35.0098 -16.9434 39.6484 -19.0918 42.9688 -22.5586 C 37.8418 -8.88672 24.5117 0.244141 8.69141 0.244141 C 7.56836 0.244141 6.83594 0.927734 6.83594 1.85547 C 6.83594 2.7832 7.56836 3.4668 8.69141 3.4668 Z M 29.9316 -30.3711 C 27.2949 -30.3711 25.1465 -32.5684 25.1465 -35.1562 C 25.1465 -37.793 27.2949 -39.9414 29.9316 -39.9414 C 32.5684 -39.9414 34.668 -37.793 34.668 -35.1562 C 34.668 -32.5684 32.5684 -30.3711 29.9316 -30.3711 Z"/>
  </g>
  <g id="Ultralight-S" transform="matrix(1 0 0 1 530.292 696)">
   <path d="M 8.25195 2.73438 C 29.6875 2.73438 47.0703 -14.209 47.1191 -35.3027 L 47.1191 -35.3516 C 47.1191 -45.0195 39.1113 -53.0273 29.3945 -53.0273 C 23.6816 -53.0273 18.5059 -50.2441 15.2832 -45.9473 C 19.873 -60.6934 33.8379 -71.2891 50.5859 -71.2891 C 51.5137 -71.2891 52.002 -71.7285 52.002 -72.3633 C 52.002 -72.998 51.5137 -73.4375 50.5859 -73.4375 C 29.1016 -73.4375 11.7676 -56.543 11.7188 -35.4004 L 11.7188 -35.3516 C 11.7188 -25.6836 19.7266 -17.6758 29.3945 -17.6758 C 35.1562 -17.6758 40.2832 -20.459 43.5059 -24.7559 C 38.916 -10.0098 24.9512 0.585938 8.25195 0.585938 C 7.32422 0.585938 6.83594 1.02539 6.83594 1.66016 C 6.83594 2.29492 7.32422 2.73438 8.25195 2.73438 Z M 29.3945 -30.9082 C 27.002 -30.9082 24.9512 -32.9102 24.9512 -35.3516 C 24.9512 -37.8418 27.002 -39.7949 29.3945 -39.7949 C 31.8848 -39.7949 33.8867 -37.8418 33.8867 -35.3516 C 33.8867 -32.9102 31.8848 -30.9082 29.3945 -30.9082 Z"/>
  </g>
 </g>
</svg>
