<?xml version="1.0" encoding="UTF-8"?>
<!--Generator: Apple Native CoreSVG 123-->
<!DOCTYPE svg
PUBLIC "-//W3C//DTD SVG 1.1//EN"
       "http://www.w3.org/Graphics/SVG/1.1/DTD/svg11.dtd">
<svg version="1.1" xmlns="http://www.w3.org/2000/svg" xmlns:xlink="http://www.w3.org/1999/xlink" width="3300" height="2200">
 <!--glyph: "uni1001BC.medium", point size: 100.000000, font version: "Version 15.0d7e11", template writer version: "5"-->
 <g id="Notes">
  <rect height="2200" id="artboard" style="fill:white;opacity:1" width="3300" x="0" y="0"/>
  <line id="" style="fill:none;stroke:black;opacity:1;stroke-width:0.5;" x1="263" x2="3036" y1="292" y2="292"/>
  <text style="stroke:none;fill:black;font-family:-apple-system,&quot;SF Pro Display&quot;,&quot;SF Pro Text&quot;,Helvetica,sans-serif;font-weight:bold;" transform="matrix(1 0 0 1 263 322)">Weight/Scale Variations</text>
  <text style="stroke:none;fill:black;font-family:-apple-system,&quot;SF Pro Display&quot;,&quot;SF Pro Text&quot;,Helvetica,sans-serif;text-anchor:middle;" transform="matrix(1 0 0 1 559.711 322)">Ultralight</text>
  <text style="stroke:none;fill:black;font-family:-apple-system,&quot;SF Pro Display&quot;,&quot;SF Pro Text&quot;,Helvetica,sans-serif;text-anchor:middle;" transform="matrix(1 0 0 1 856.422 322)">Thin</text>
  <text style="stroke:none;fill:black;font-family:-apple-system,&quot;SF Pro Display&quot;,&quot;SF Pro Text&quot;,Helvetica,sans-serif;text-anchor:middle;" transform="matrix(1 0 0 1 1153.13 322)">Light</text>
  <text style="stroke:none;fill:black;font-family:-apple-system,&quot;SF Pro Display&quot;,&quot;SF Pro Text&quot;,Helvetica,sans-serif;text-anchor:middle;" transform="matrix(1 0 0 1 1449.84 322)">Regular</text>
  <text style="stroke:none;fill:black;font-family:-apple-system,&quot;SF Pro Display&quot;,&quot;SF Pro Text&quot;,Helvetica,sans-serif;text-anchor:middle;" transform="matrix(1 0 0 1 1746.56 322)">Medium</text>
  <text style="stroke:none;fill:black;font-family:-apple-system,&quot;SF Pro Display&quot;,&quot;SF Pro Text&quot;,Helvetica,sans-serif;text-anchor:middle;" transform="matrix(1 0 0 1 2043.27 322)">Semibold</text>
  <text style="stroke:none;fill:black;font-family:-apple-system,&quot;SF Pro Display&quot;,&quot;SF Pro Text&quot;,Helvetica,sans-serif;text-anchor:middle;" transform="matrix(1 0 0 1 2339.98 322)">Bold</text>
  <text style="stroke:none;fill:black;font-family:-apple-system,&quot;SF Pro Display&quot;,&quot;SF Pro Text&quot;,Helvetica,sans-serif;text-anchor:middle;" transform="matrix(1 0 0 1 2636.69 322)">Heavy</text>
  <text style="stroke:none;fill:black;font-family:-apple-system,&quot;SF Pro Display&quot;,&quot;SF Pro Text&quot;,Helvetica,sans-serif;text-anchor:middle;" transform="matrix(1 0 0 1 2933.4 322)">Black</text>
  <line id="" style="fill:none;stroke:black;opacity:1;stroke-width:0.5;" x1="263" x2="3036" y1="1903" y2="1903"/>
  <g id="" transform="matrix(1 0 0 1 263 1933)">
   <path d="M 9.24805 0.830078 C 13.5547 0.830078 17.1387 -2.74414 17.1387 -7.05078 C 17.1387 -11.3574 13.5449 -14.9316 9.23828 -14.9316 C 4.94141 -14.9316 1.36719 -11.3574 1.36719 -7.05078 C 1.36719 -2.74414 4.95117 0.830078 9.24805 0.830078 Z M 9.24805 -0.654297 C 5.70312 -0.654297 2.87109 -3.49609 2.87109 -7.05078 C 2.87109 -10.6055 5.69336 -13.4473 9.23828 -13.4473 C 12.793 -13.4473 15.6348 -10.6055 15.6445 -7.05078 C 15.6543 -3.49609 12.8027 -0.654297 9.24805 -0.654297 Z M 9.22852 -3.42773 C 9.69727 -3.42773 9.9707 -3.74023 9.9707 -4.25781 L 9.9707 -6.31836 L 12.1973 -6.31836 C 12.6953 -6.31836 13.0371 -6.57227 13.0371 -7.04102 C 13.0371 -7.51953 12.7148 -7.7832 12.1973 -7.7832 L 9.9707 -7.7832 L 9.9707 -10.0098 C 9.9707 -10.5273 9.69727 -10.8496 9.22852 -10.8496 C 8.75977 -10.8496 8.50586 -10.5078 8.50586 -10.0098 L 8.50586 -7.7832 L 6.29883 -7.7832 C 5.78125 -7.7832 5.44922 -7.51953 5.44922 -7.04102 C 5.44922 -6.57227 5.80078 -6.31836 6.29883 -6.31836 L 8.50586 -6.31836 L 8.50586 -4.25781 C 8.50586 -3.75977 8.75977 -3.42773 9.22852 -3.42773 Z"/>
  </g>
  <g id="" transform="matrix(1 0 0 1 281.506 1933)">
   <path d="M 11.709 2.91016 C 17.1582 2.91016 21.6699 -1.60156 21.6699 -7.05078 C 21.6699 -12.4902 17.1484 -17.0117 11.6992 -17.0117 C 6.25977 -17.0117 1.74805 -12.4902 1.74805 -7.05078 C 1.74805 -1.60156 6.26953 2.91016 11.709 2.91016 Z M 11.709 1.25 C 7.09961 1.25 3.41797 -2.44141 3.41797 -7.05078 C 3.41797 -11.6504 7.08984 -15.3516 11.6992 -15.3516 C 16.3086 -15.3516 20 -11.6504 20.0098 -7.05078 C 20.0195 -2.44141 16.3184 1.25 11.709 1.25 Z M 11.6895 -2.41211 C 12.207 -2.41211 12.5195 -2.77344 12.5195 -3.33984 L 12.5195 -6.23047 L 15.5762 -6.23047 C 16.123 -6.23047 16.5039 -6.51367 16.5039 -7.03125 C 16.5039 -7.55859 16.1426 -7.86133 15.5762 -7.86133 L 12.5195 -7.86133 L 12.5195 -10.9277 C 12.5195 -11.5039 12.207 -11.8555 11.6895 -11.8555 C 11.1719 -11.8555 10.8789 -11.4844 10.8789 -10.9277 L 10.8789 -7.86133 L 7.83203 -7.86133 C 7.26562 -7.86133 6.89453 -7.55859 6.89453 -7.03125 C 6.89453 -6.51367 7.28516 -6.23047 7.83203 -6.23047 L 10.8789 -6.23047 L 10.8789 -3.33984 C 10.8789 -2.79297 11.1719 -2.41211 11.6895 -2.41211 Z"/>
  </g>
  <g id="" transform="matrix(1 0 0 1 304.924 1933)">
   <path d="M 14.9707 5.67383 C 21.9336 5.67383 27.6953 -0.078125 27.6953 -7.04102 C 27.6953 -14.0039 21.9238 -19.7559 14.9609 -19.7559 C 8.00781 -19.7559 2.25586 -14.0039 2.25586 -7.04102 C 2.25586 -0.078125 8.01758 5.67383 14.9707 5.67383 Z M 14.9707 3.85742 C 8.93555 3.85742 4.08203 -1.00586 4.08203 -7.04102 C 4.08203 -13.0762 8.92578 -17.9395 14.9609 -17.9395 C 21.0059 -17.9395 25.8594 -13.0762 25.8691 -7.04102 C 25.8789 -1.00586 21.0156 3.85742 14.9707 3.85742 Z M 14.9512 -1.06445 C 15.5176 -1.06445 15.8691 -1.45508 15.8691 -2.06055 L 15.8691 -6.13281 L 20.1074 -6.13281 C 20.6934 -6.13281 21.1133 -6.46484 21.1133 -7.02148 C 21.1133 -7.59766 20.7227 -7.93945 20.1074 -7.93945 L 15.8691 -7.93945 L 15.8691 -12.1875 C 15.8691 -12.8027 15.5176 -13.1934 14.9512 -13.1934 C 14.3848 -13.1934 14.0625 -12.7832 14.0625 -12.1875 L 14.0625 -7.93945 L 9.83398 -7.93945 C 9.21875 -7.93945 8.80859 -7.59766 8.80859 -7.02148 C 8.80859 -6.46484 9.23828 -6.13281 9.83398 -6.13281 L 14.0625 -6.13281 L 14.0625 -2.06055 C 14.0625 -1.47461 14.3848 -1.06445 14.9512 -1.06445 Z"/>
  </g>
  <text style="stroke:none;fill:black;font-family:-apple-system,&quot;SF Pro Display&quot;,&quot;SF Pro Text&quot;,Helvetica,sans-serif;font-weight:bold;" transform="matrix(1 0 0 1 263 1953)">Design Variations</text>
  <text style="stroke:none;fill:black;font-family:-apple-system,&quot;SF Pro Display&quot;,&quot;SF Pro Text&quot;,Helvetica,sans-serif;" transform="matrix(1 0 0 1 263 1971)">Symbols are supported in up to nine weights and three scales.</text>
  <text style="stroke:none;fill:black;font-family:-apple-system,&quot;SF Pro Display&quot;,&quot;SF Pro Text&quot;,Helvetica,sans-serif;" transform="matrix(1 0 0 1 263 1989)">For optimal layout with text and other symbols, vertically align</text>
  <text style="stroke:none;fill:black;font-family:-apple-system,&quot;SF Pro Display&quot;,&quot;SF Pro Text&quot;,Helvetica,sans-serif;" transform="matrix(1 0 0 1 263 2007)">symbols with the adjacent text.</text>
  <rect height="14" id="" style="fill:#00AEEF;stroke:none;opacity:0.4;" width="3" x="776" y="1919"/>
  <g id="" transform="matrix(1 0 0 1 779 1933)">
   <path d="M 10.5273 0 L 12.373 0 L 7.17773 -14.0918 L 5.43945 -14.0918 L 0.244141 0 L 2.08984 0 L 3.50586 -4.0332 L 9.11133 -4.0332 Z M 6.2793 -11.9531 L 6.33789 -11.9531 L 8.59375 -5.52734 L 4.02344 -5.52734 Z"/>
  </g>
  <rect height="14" id="" style="fill:#00AEEF;stroke:none;opacity:0.4;" width="3" x="791.617" y="1919"/>
  <text style="stroke:none;fill:black;font-family:-apple-system,&quot;SF Pro Display&quot;,&quot;SF Pro Text&quot;,Helvetica,sans-serif;font-weight:bold;" transform="matrix(1 0 0 1 776 1953)">Margins</text>
  <text style="stroke:none;fill:black;font-family:-apple-system,&quot;SF Pro Display&quot;,&quot;SF Pro Text&quot;,Helvetica,sans-serif;" transform="matrix(1 0 0 1 776 1971)">Leading and trailing margins on the left and right side of each symbol</text>
  <text style="stroke:none;fill:black;font-family:-apple-system,&quot;SF Pro Display&quot;,&quot;SF Pro Text&quot;,Helvetica,sans-serif;" transform="matrix(1 0 0 1 776 1989)">can be adjusted by modifying the width of the blue rectangles.</text>
  <text style="stroke:none;fill:black;font-family:-apple-system,&quot;SF Pro Display&quot;,&quot;SF Pro Text&quot;,Helvetica,sans-serif;" transform="matrix(1 0 0 1 776 2007)">Modifications are automatically applied proportionally to all</text>
  <text style="stroke:none;fill:black;font-family:-apple-system,&quot;SF Pro Display&quot;,&quot;SF Pro Text&quot;,Helvetica,sans-serif;" transform="matrix(1 0 0 1 776 2025)">scales and weights.</text>
  <g id="" transform="matrix(1 0 0 1 1289 1933)">
   <path d="M 2.83203 3.11523 L 4.375 4.6582 C 5.22461 5.48828 6.19141 5.41992 7.06055 4.46289 L 17.2754 -6.66016 C 17.7051 -6.36719 18.0957 -6.37695 18.5645 -6.47461 L 19.6094 -6.68945 L 20.3027 -5.99609 L 20.2539 -5.47852 C 20.1855 -4.95117 20.3516 -4.53125 20.8496 -4.0332 L 21.6602 -3.22266 C 22.168 -2.71484 22.8223 -2.68555 23.3008 -3.16406 L 26.5527 -6.41602 C 27.0312 -6.89453 27.0117 -7.54883 26.5039 -8.05664 L 25.6836 -8.87695 C 25.1855 -9.375 24.7754 -9.55078 24.2383 -9.47266 L 23.7109 -9.41406 L 23.0566 -10.0781 L 23.3398 -11.2207 C 23.4863 -11.7871 23.3398 -12.2559 22.7148 -12.8613 L 20.3027 -15.2539 C 16.7578 -18.7793 12.2266 -18.6719 9.11133 -15.5371 C 8.69141 -15.1074 8.64258 -14.5215 8.91602 -14.0918 C 9.15039 -13.7207 9.62891 -13.4961 10.2734 -13.6621 C 11.7871 -14.043 13.3008 -13.9258 14.7852 -12.9199 L 14.1602 -11.3379 C 13.9258 -10.752 13.9453 -10.2734 14.1797 -9.83398 L 3.01758 0.439453 C 2.08008 1.30859 1.97266 2.25586 2.83203 3.11523 Z M 10.6738 -15.1465 C 13.3398 -17.1387 16.6504 -16.8262 19.0527 -14.4141 L 21.6797 -11.8066 C 21.9141 -11.5723 21.9434 -11.3867 21.8848 -11.0938 L 21.5039 -9.53125 L 23.0762 -7.95898 L 24.043 -8.04688 C 24.3262 -8.07617 24.4141 -8.05664 24.6387 -7.83203 L 25.2637 -7.20703 L 22.5098 -4.46289 L 21.8848 -5.07812 C 21.6602 -5.30273 21.6406 -5.40039 21.6699 -5.68359 L 21.7578 -6.64062 L 20.1953 -8.20312 L 18.5742 -7.89062 C 18.291 -7.83203 18.1445 -7.83203 17.9102 -8.07617 L 15.7324 -10.2539 C 15.5078 -10.4883 15.4785 -10.625 15.6055 -10.9473 L 16.5527 -13.2227 C 14.9512 -14.7559 12.8418 -15.6055 10.8008 -14.9512 C 10.7129 -14.9219 10.6445 -14.9414 10.6152 -14.9805 C 10.5859 -15.0293 10.5859 -15.0781 10.6738 -15.1465 Z M 4.10156 2.41211 C 3.61328 1.91406 3.78906 1.61133 4.12109 1.30859 L 15.0781 -8.80859 L 16.3086 -7.57812 L 6.15234 3.34961 C 5.84961 3.68164 5.46875 3.7793 5.06836 3.37891 Z"/>
  </g>
  <text style="stroke:none;fill:black;font-family:-apple-system,&quot;SF Pro Display&quot;,&quot;SF Pro Text&quot;,Helvetica,sans-serif;font-weight:bold;" transform="matrix(1 0 0 1 1289 1953)">Exporting</text>
  <text style="stroke:none;fill:black;font-family:-apple-system,&quot;SF Pro Display&quot;,&quot;SF Pro Text&quot;,Helvetica,sans-serif;" transform="matrix(1 0 0 1 1289 1971)">Symbols should be outlined when exporting to ensure the</text>
  <text style="stroke:none;fill:black;font-family:-apple-system,&quot;SF Pro Display&quot;,&quot;SF Pro Text&quot;,Helvetica,sans-serif;" transform="matrix(1 0 0 1 1289 1989)">design is preserved when submitting to Xcode.</text>
  <text id="template-version" style="stroke:none;fill:black;font-family:-apple-system,&quot;SF Pro Display&quot;,&quot;SF Pro Text&quot;,Helvetica,sans-serif;text-anchor:end;" transform="matrix(1 0 0 1 3036 1933)">Template v.1.0</text>
  <text style="stroke:none;fill:black;font-family:-apple-system,&quot;SF Pro Display&quot;,&quot;SF Pro Text&quot;,Helvetica,sans-serif;text-anchor:end;" transform="matrix(1 0 0 1 3036 1951)">Generated from moon.circle.fill</text>
  <text style="stroke:none;fill:black;font-family:-apple-system,&quot;SF Pro Display&quot;,&quot;SF Pro Text&quot;,Helvetica,sans-serif;text-anchor:end;" transform="matrix(1 0 0 1 3036 1969)">Typeset at 100 points</text>
  <text style="stroke:none;fill:black;font-family:-apple-system,&quot;SF Pro Display&quot;,&quot;SF Pro Text&quot;,Helvetica,sans-serif;" transform="matrix(1 0 0 1 263 726)">Small</text>
  <text style="stroke:none;fill:black;font-family:-apple-system,&quot;SF Pro Display&quot;,&quot;SF Pro Text&quot;,Helvetica,sans-serif;" transform="matrix(1 0 0 1 263 1156)">Medium</text>
  <text style="stroke:none;fill:black;font-family:-apple-system,&quot;SF Pro Display&quot;,&quot;SF Pro Text&quot;,Helvetica,sans-serif;" transform="matrix(1 0 0 1 263 1586)">Large</text>
 </g>
 <g id="Guides">
  <g id="H-reference" style="fill:#27AAE1;stroke:none;" transform="matrix(1 0 0 1 339 696)">
   <path d="M 54.9316 0 L 57.666 0 L 30.5664 -70.459 L 28.0762 -70.459 L 0.976562 0 L 3.66211 0 L 12.9395 -24.4629 L 45.7031 -24.4629 Z M 29.1992 -67.0898 L 29.4434 -67.0898 L 44.8242 -26.709 L 13.8184 -26.709 Z"/>
  </g>
  <line id="Baseline-S" style="fill:none;stroke:#27AAE1;opacity:1;stroke-width:0.577;" x1="263" x2="3036" y1="696" y2="696"/>
  <line id="Capline-S" style="fill:none;stroke:#27AAE1;opacity:1;stroke-width:0.577;" x1="263" x2="3036" y1="625.541" y2="625.541"/>
  <g id="H-reference" style="fill:#27AAE1;stroke:none;" transform="matrix(1 0 0 1 339 1126)">
   <path d="M 54.9316 0 L 57.666 0 L 30.5664 -70.459 L 28.0762 -70.459 L 0.976562 0 L 3.66211 0 L 12.9395 -24.4629 L 45.7031 -24.4629 Z M 29.1992 -67.0898 L 29.4434 -67.0898 L 44.8242 -26.709 L 13.8184 -26.709 Z"/>
  </g>
  <line id="Baseline-M" style="fill:none;stroke:#27AAE1;opacity:1;stroke-width:0.577;" x1="263" x2="3036" y1="1126" y2="1126"/>
  <line id="Capline-M" style="fill:none;stroke:#27AAE1;opacity:1;stroke-width:0.577;" x1="263" x2="3036" y1="1055.54" y2="1055.54"/>
  <g id="H-reference" style="fill:#27AAE1;stroke:none;" transform="matrix(1 0 0 1 339 1556)">
   <path d="M 54.9316 0 L 57.666 0 L 30.5664 -70.459 L 28.0762 -70.459 L 0.976562 0 L 3.66211 0 L 12.9395 -24.4629 L 45.7031 -24.4629 Z M 29.1992 -67.0898 L 29.4434 -67.0898 L 44.8242 -26.709 L 13.8184 -26.709 Z"/>
  </g>
  <line id="Baseline-L" style="fill:none;stroke:#27AAE1;opacity:1;stroke-width:0.577;" x1="263" x2="3036" y1="1556" y2="1556"/>
  <line id="Capline-L" style="fill:none;stroke:#27AAE1;opacity:1;stroke-width:0.577;" x1="263" x2="3036" y1="1485.54" y2="1485.54"/>
  <rect height="119.336" id="left-margin" style="fill:#00AEEF;stroke:none;opacity:0.4;" width="8.74023" x="1391.3" y="1030.79"/>
  <rect height="119.336" id="right-margin" style="fill:#00AEEF;stroke:none;opacity:0.4;" width="8.74023" x="1499.65" y="1030.79"/>
 </g>
 <g id="Symbols">
  <g id="Black-L" transform="matrix(1 0 0 1 2854.05 1556)">
   <path d="M 79.3457 32.9102 C 116.748 32.9102 147.412 2.29492 147.412 -35.1074 C 147.412 -72.5586 116.748 -103.174 79.2969 -103.174 C 41.8945 -103.174 11.2793 -72.5586 11.2793 -35.1074 C 11.2793 2.29492 41.9434 32.9102 79.3457 32.9102 Z M 95.8008 -24.5117 C 99.4629 -24.5117 103.223 -25.2441 105.42 -26.2207 C 106.689 -26.8066 107.764 -27.1484 108.74 -27.1484 C 110.156 -27.1484 111.133 -26.123 111.133 -24.5605 C 111.133 -23.7305 110.938 -22.6074 110.352 -21.3379 C 105.078 -9.66797 93.2617 -1.41602 79.541 -1.41602 C 60.0098 -1.41602 45.6055 -15.5273 45.6055 -35.0586 C 45.6055 -48.8281 53.9551 -61.5234 66.5527 -66.6016 C 67.6758 -67.0898 68.6523 -67.2852 69.4824 -67.2852 C 71.1426 -67.2852 72.168 -66.0645 72.168 -64.6484 C 72.168 -63.7207 71.875 -62.6953 71.2402 -61.5723 C 69.9219 -59.1309 69.1406 -54.3945 69.1406 -50.4883 C 69.1406 -34.375 79.3945 -24.5117 95.8008 -24.5117 Z"/>
  </g>
  <g id="Heavy-L" transform="matrix(1 0 0 1 2558.39 1556)">
   <path d="M 78.2715 31.8848 C 115.088 31.8848 145.312 1.66016 145.312 -35.1074 C 145.312 -71.9238 115.039 -102.148 78.2715 -102.148 C 41.4551 -102.148 11.2793 -71.9238 11.2793 -35.1074 C 11.2793 1.66016 41.5039 31.8848 78.2715 31.8848 Z M 95.2148 -23.7793 C 99.1211 -23.7793 103.125 -24.5605 105.42 -25.5371 C 106.494 -26.0254 107.422 -26.2695 108.203 -26.2695 C 109.57 -26.2695 110.547 -25.3418 110.547 -23.8281 C 110.547 -23.1445 110.4 -22.0703 109.863 -20.9961 C 104.785 -9.32617 92.5781 -0.878906 78.5645 -0.878906 C 58.7891 -0.878906 44.043 -15.1855 44.043 -34.9121 C 44.043 -48.9746 52.4902 -62.0117 65.1367 -67.0898 C 66.1621 -67.5293 67.0898 -67.6758 67.8223 -67.6758 C 69.3848 -67.6758 70.3125 -66.5039 70.3125 -65.2344 C 70.3125 -64.4531 70.1172 -63.5742 69.5312 -62.5 C 68.2617 -59.9121 67.4316 -55.0781 67.4316 -51.0742 C 67.4316 -34.2285 78.2227 -23.7793 95.2148 -23.7793 Z"/>
  </g>
  <g id="Bold-L" transform="matrix(1 0 0 1 2262.88 1556)">
   <path d="M 77.0996 30.7129 C 113.232 30.7129 142.92 0.976562 142.92 -35.1074 C 142.92 -71.2402 113.184 -100.977 77.0508 -100.977 C 40.9668 -100.977 11.2793 -71.2402 11.2793 -35.1074 C 11.2793 0.976562 41.0156 30.7129 77.0996 30.7129 Z M 94.6289 -22.9492 C 98.7793 -22.9492 102.979 -23.7793 105.42 -24.7559 C 106.299 -25.1465 107.031 -25.3418 107.666 -25.3418 C 108.887 -25.3418 109.863 -24.4141 109.863 -22.998 C 109.863 -22.4609 109.766 -21.5332 109.326 -20.5566 C 104.443 -8.93555 91.7969 -0.195312 77.4414 -0.195312 C 57.4219 -0.195312 42.2852 -14.7949 42.2852 -34.8145 C 42.2852 -49.1211 50.7812 -62.5977 63.623 -67.627 C 64.502 -68.0176 65.332 -68.1641 65.9668 -68.1641 C 67.4316 -68.1641 68.2617 -67.041 68.2617 -65.8691 C 68.2617 -65.2832 68.1152 -64.502 67.627 -63.623 C 66.4062 -60.791 65.4785 -55.8594 65.4785 -51.709 C 65.4785 -34.082 76.9043 -22.9492 94.6289 -22.9492 Z"/>
  </g>
  <g id="Semibold-L" transform="matrix(1 0 0 1 1966.97 1556)">
   <path d="M 76.2695 29.8828 C 111.914 29.8828 141.309 0.488281 141.309 -35.1074 C 141.309 -70.752 111.865 -100.146 76.2695 -100.146 C 40.625 -100.146 11.2793 -70.752 11.2793 -35.1074 C 11.2793 0.488281 40.6738 29.8828 76.2695 29.8828 Z M 94.2383 -22.4121 C 98.4863 -22.4121 102.881 -23.2422 105.371 -24.2188 C 106.152 -24.5605 106.738 -24.6582 107.275 -24.6582 C 108.447 -24.6582 109.424 -23.7793 109.424 -22.4609 C 109.424 -21.9727 109.326 -21.1426 108.936 -20.3125 C 104.248 -8.69141 91.3086 0.244141 76.6602 0.244141 C 56.4453 0.244141 41.0645 -14.502 41.0645 -34.7168 C 41.0645 -49.1699 49.6582 -62.9883 62.5488 -68.0176 C 63.3789 -68.3594 64.1602 -68.457 64.6973 -68.457 C 66.0645 -68.457 66.8457 -67.4316 66.8457 -66.3086 C 66.8457 -65.8203 66.748 -65.1855 66.3574 -64.3555 C 65.1367 -61.4258 64.1602 -56.3965 64.1602 -52.1484 C 64.1602 -33.9844 75.9766 -22.4121 94.2383 -22.4121 Z"/>
  </g>
  <g id="Medium-L" transform="matrix(1 0 0 1 1670.87 1556)">
   <path d="M 75.6836 29.248 C 110.938 29.248 140.088 0.146484 140.088 -35.1074 C 140.088 -70.4102 110.889 -99.5117 75.6348 -99.5117 C 40.3809 -99.5117 11.2793 -70.4102 11.2793 -35.1074 C 11.2793 0.146484 40.3809 29.248 75.6836 29.248 Z M 93.8965 -21.9727 C 98.291 -21.9727 102.783 -22.8516 105.371 -23.8281 C 106.055 -24.0723 106.543 -24.1699 107.031 -24.1699 C 108.057 -24.1699 109.082 -23.3398 109.082 -22.0215 C 109.082 -21.6309 108.984 -20.8496 108.643 -20.0684 C 104.102 -8.49609 90.8691 0.537109 76.0742 0.537109 C 55.7129 0.537109 40.1367 -14.3066 40.1367 -34.668 C 40.1367 -49.2676 48.7793 -63.2812 61.7188 -68.3105 C 62.5 -68.6035 63.2324 -68.7012 63.7207 -68.7012 C 65.0391 -68.7012 65.7715 -67.6758 65.7715 -66.6504 C 65.7715 -66.2598 65.6738 -65.6738 65.332 -64.9414 C 64.1602 -61.8652 63.1348 -56.7871 63.1348 -52.4902 C 63.1348 -33.8867 75.293 -21.9727 93.8965 -21.9727 Z"/>
  </g>
  <g id="Regular-L" transform="matrix(1 0 0 1 1374.97 1556)">
   <path d="M 74.8535 28.4668 C 109.668 28.4668 138.477 -0.341797 138.477 -35.1074 C 138.477 -69.9219 109.619 -98.7305 74.8047 -98.7305 C 40.0391 -98.7305 11.2793 -69.9219 11.2793 -35.1074 C 11.2793 -0.341797 40.0879 28.4668 74.8535 28.4668 Z M 93.5059 -21.3867 C 98.0469 -21.3867 102.686 -22.3145 105.371 -23.291 C 105.908 -23.4863 106.299 -23.5352 106.641 -23.5352 C 107.617 -23.5352 108.594 -22.7051 108.594 -21.4844 C 108.594 -21.1914 108.545 -20.5078 108.301 -19.8242 C 103.857 -8.25195 90.3809 0.976562 75.293 0.976562 C 54.7852 0.976562 38.9648 -14.0137 38.9648 -34.5703 C 38.9648 -49.3652 47.6074 -63.6719 60.6934 -68.6523 C 61.377 -68.9453 62.0605 -69.043 62.4512 -69.043 C 63.6719 -69.043 64.3555 -68.0176 64.3555 -67.0898 C 64.3555 -66.7969 64.3555 -66.3574 64.0625 -65.6738 C 62.8906 -62.5 61.8164 -57.3242 61.8164 -52.9297 C 61.8164 -33.7891 74.4141 -21.3867 93.5059 -21.3867 Z"/>
  </g>
  <g id="Light-L" transform="matrix(1 0 0 1 1079.18 1556)">
   <path d="M 73.9258 27.5879 C 108.301 27.5879 136.621 -0.732422 136.621 -35.1074 C 136.621 -69.4336 108.252 -97.7539 73.9258 -97.7539 C 39.5508 -97.7539 11.2793 -69.4336 11.2793 -35.1074 C 11.2793 -0.732422 39.5996 27.5879 73.9258 27.5879 Z M 92.5293 -20.752 C 97.4121 -20.752 102.344 -21.6309 104.98 -22.7051 C 105.371 -22.8516 105.664 -22.9004 105.957 -22.9004 C 106.885 -22.9004 107.764 -22.1191 107.764 -20.9961 C 107.764 -20.752 107.715 -20.2148 107.52 -19.6777 C 103.271 -7.95898 89.1602 1.17188 74.2188 1.17188 C 53.9062 1.17188 38.1348 -14.1113 38.1348 -34.4238 C 38.1348 -49.1699 46.6797 -63.8184 59.7168 -68.5547 C 60.2539 -68.75 60.791 -68.8477 61.1328 -68.8477 C 62.207 -68.8477 62.8906 -67.9688 62.8906 -67.041 C 62.8906 -66.7969 62.8418 -66.3574 62.6465 -65.8203 C 61.4258 -62.4023 60.4492 -57.7637 60.4492 -52.832 C 60.4492 -33.6426 73.4375 -20.752 92.5293 -20.752 Z"/>
  </g>
  <g id="Thin-L" transform="matrix(1 0 0 1 783.693 1556)">
   <path d="M 72.7051 26.416 C 106.494 26.416 134.18 -1.26953 134.18 -35.0586 C 134.18 -68.7988 106.494 -96.4844 72.7051 -96.4844 C 38.9648 -96.4844 11.2793 -68.7988 11.2793 -35.0586 C 11.2793 -1.26953 38.9648 26.416 72.7051 26.416 Z M 91.3086 -19.873 C 96.5332 -19.873 101.807 -20.7031 104.443 -21.9727 C 104.688 -22.0703 104.883 -22.0703 105.029 -22.0703 C 105.957 -22.0703 106.641 -21.3379 106.641 -20.4102 C 106.641 -20.166 106.641 -19.8242 106.543 -19.5312 C 102.441 -7.56836 87.5488 1.41602 72.8027 1.41602 C 52.7344 1.41602 37.0117 -14.2578 37.0117 -34.1797 C 37.0117 -48.9258 45.4102 -63.9648 58.4961 -68.3594 C 58.7891 -68.457 59.082 -68.5547 59.375 -68.5547 C 60.3027 -68.5547 60.9375 -67.8711 60.9375 -66.9922 C 60.9375 -66.748 60.8398 -66.4062 60.7422 -66.0645 C 59.4727 -62.3047 58.5938 -58.4473 58.5938 -52.7344 C 58.5938 -33.4473 72.168 -19.873 91.3086 -19.873 Z"/>
  </g>
  <g id="Ultralight-L" transform="matrix(1 0 0 1 487.616 1556)">
   <path d="M 72.1191 25.7812 C 105.566 25.7812 132.91 -1.5625 132.91 -35.0098 C 132.91 -68.5059 105.566 -95.8496 72.1191 -95.8496 C 38.623 -95.8496 11.2793 -68.5059 11.2793 -35.0098 C 11.2793 -1.5625 38.623 25.7812 72.1191 25.7812 Z M 90.6738 -19.4336 C 96.0449 -19.4336 101.562 -20.2637 104.199 -21.582 C 104.297 -21.6309 104.443 -21.6309 104.59 -21.6309 C 105.469 -21.6309 106.055 -20.8984 106.055 -20.0684 C 106.055 -19.8242 106.055 -19.6777 106.006 -19.4824 C 102.051 -7.32422 86.7188 1.5625 72.0215 1.5625 C 52.1484 1.5625 36.4258 -14.3066 36.4258 -34.082 C 36.4258 -48.7793 44.7266 -64.0137 57.8613 -68.2617 C 58.0566 -68.3594 58.252 -68.4082 58.4473 -68.4082 C 59.2773 -68.4082 59.9121 -67.8223 59.9121 -66.9434 C 59.9121 -66.6992 59.8633 -66.4062 59.7656 -66.2109 C 58.4961 -62.2559 57.6172 -58.7402 57.6172 -52.6855 C 57.6172 -33.3984 71.5332 -19.4336 90.6738 -19.4336 Z"/>
  </g>
  <g id="Black-M" transform="matrix(1 0 0 1 2870.97 1126)">
   <path d="M 62.4023 18.5547 C 91.9922 18.5547 116.113 -5.56641 116.113 -35.1562 C 116.113 -64.7461 91.9922 -88.8184 62.4023 -88.8184 C 32.8125 -88.8184 8.74023 -64.7461 8.74023 -35.1562 C 8.74023 -5.56641 32.8125 18.5547 62.4023 18.5547 Z M 74.4629 -27.5879 C 77.1973 -27.5879 79.9805 -28.0762 81.543 -28.9062 C 82.666 -29.4434 83.6426 -29.7852 84.5703 -29.7852 C 85.791 -29.7852 86.4746 -28.9551 86.4746 -27.7344 C 86.4746 -26.9043 86.2793 -25.9766 85.791 -24.9023 C 81.4941 -15.7227 72.5098 -9.7168 62.4023 -9.7168 C 47.7539 -9.7168 36.9629 -20.459 36.9629 -35.1562 C 36.9629 -45.5078 43.3105 -54.9805 52.9297 -58.8379 C 53.8574 -59.1797 54.5898 -59.375 55.3711 -59.375 C 56.7383 -59.375 57.6172 -58.4473 57.6172 -57.1777 C 57.6172 -56.2988 57.2754 -55.3711 56.7383 -54.4434 C 55.6641 -52.6367 55.1758 -49.4141 55.1758 -46.2402 C 55.1758 -34.7168 62.5977 -27.5879 74.4629 -27.5879 Z"/>
  </g>
  <g id="Heavy-M" transform="matrix(1 0 0 1 2575.19 1126)">
   <path d="M 61.5234 17.627 C 90.5273 17.627 114.258 -6.10352 114.258 -35.1562 C 114.258 -64.1602 90.5273 -87.8906 61.4746 -87.8906 C 32.4707 -87.8906 8.74023 -64.1602 8.74023 -35.1562 C 8.74023 -6.10352 32.4707 17.627 61.5234 17.627 Z M 74.1211 -26.9531 C 77.002 -26.9531 79.9316 -27.4902 81.5918 -28.2715 C 82.5684 -28.7598 83.4473 -29.0039 84.1797 -29.0039 C 85.3516 -29.0039 86.0352 -28.2227 86.0352 -27.0508 C 86.0352 -26.3672 85.8887 -25.4883 85.4492 -24.5117 C 81.3477 -15.4297 72.1191 -9.13086 61.5723 -9.13086 C 46.582 -9.13086 35.498 -20.0684 35.498 -35.0586 C 35.498 -45.7031 41.9434 -55.5176 51.6602 -59.375 C 52.5391 -59.7168 53.2227 -59.9121 53.9062 -59.9121 C 55.1758 -59.9121 56.0059 -58.9844 56.0059 -57.8613 C 56.0059 -57.1289 55.7617 -56.2988 55.2246 -55.4199 C 54.1992 -53.5156 53.6621 -50.0488 53.6621 -46.875 C 53.6621 -34.5703 61.5723 -26.9531 74.1211 -26.9531 Z"/>
  </g>
  <g id="Bold-M" transform="matrix(1 0 0 1 2279.5 1126)">
   <path d="M 60.498 16.6016 C 88.8672 16.6016 112.207 -6.73828 112.207 -35.1562 C 112.207 -63.5742 88.8672 -86.9141 60.4492 -86.9141 C 32.0312 -86.9141 8.74023 -63.5742 8.74023 -35.1562 C 8.74023 -6.73828 32.0801 16.6016 60.498 16.6016 Z M 73.7305 -26.2207 C 76.7578 -26.2207 79.8828 -26.8555 81.6895 -27.5879 C 82.5195 -27.9785 83.2031 -28.125 83.7891 -28.125 C 84.8145 -28.125 85.5469 -27.3926 85.5469 -26.2695 C 85.5469 -25.7324 85.4492 -24.9512 85.0586 -24.1211 C 81.1523 -15.0879 71.6309 -8.49609 60.6934 -8.49609 C 45.3125 -8.49609 33.8379 -19.6289 33.8379 -34.9609 C 33.8379 -45.8984 40.3809 -56.1035 50.2441 -60.0098 C 51.0254 -60.3516 51.709 -60.4492 52.2461 -60.4492 C 53.4668 -60.4492 54.1504 -59.5703 54.1504 -58.5938 C 54.1504 -58.0078 54.0039 -57.3242 53.6133 -56.543 C 52.5879 -54.4922 51.9531 -50.7324 51.9531 -47.6074 C 51.9531 -34.4238 60.4004 -26.2207 73.7305 -26.2207 Z"/>
  </g>
  <g id="Semibold-M" transform="matrix(1 0 0 1 1983.5 1126)">
   <path d="M 59.7656 15.8691 C 87.7441 15.8691 110.791 -7.17773 110.791 -35.1562 C 110.791 -63.1348 87.6953 -86.1816 59.7656 -86.1816 C 31.7871 -86.1816 8.74023 -63.1348 8.74023 -35.1562 C 8.74023 -7.17773 31.7871 15.8691 59.7656 15.8691 Z M 73.4375 -25.7324 C 76.6113 -25.7324 79.8828 -26.3672 81.7383 -27.1484 C 82.4707 -27.3926 83.0078 -27.5391 83.4961 -27.5391 C 84.4238 -27.5391 85.2539 -26.8555 85.2539 -25.7324 C 85.2539 -25.3418 85.1562 -24.6094 84.8145 -23.8281 C 81.0547 -14.8926 71.2891 -8.05664 60.0586 -8.05664 C 44.4824 -8.05664 32.666 -19.2871 32.666 -34.9121 C 32.666 -46.0449 39.3066 -56.4941 49.2676 -60.4492 C 50 -60.7422 50.6348 -60.8398 51.123 -60.8398 C 52.2461 -60.8398 52.9297 -59.9609 52.9297 -59.082 C 52.9297 -58.6426 52.7832 -58.0566 52.4414 -57.3242 C 51.5137 -55.1758 50.7812 -51.2207 50.7812 -48.0957 C 50.7812 -34.3262 59.6191 -25.7324 73.4375 -25.7324 Z"/>
  </g>
  <g id="Medium-M" transform="matrix(1 0 0 1 1687.3 1126)">
   <path d="M 59.2285 15.332 C 86.9141 15.332 109.766 -7.51953 109.766 -35.1562 C 109.766 -62.793 86.8652 -85.6445 59.1797 -85.6445 C 31.543 -85.6445 8.74023 -62.793 8.74023 -35.1562 C 8.74023 -7.51953 31.5918 15.332 59.2285 15.332 Z M 73.2422 -25.3418 C 76.5137 -25.3418 79.834 -26.0254 81.7871 -26.7578 C 82.4219 -27.002 82.8613 -27.0996 83.3008 -27.0996 C 84.1797 -27.0996 84.9609 -26.416 84.9609 -25.3418 C 84.9609 -25 84.9121 -24.3164 84.6191 -23.6328 C 80.957 -14.6973 71.0449 -7.71484 59.6191 -7.71484 C 43.7988 -7.71484 31.8359 -19.043 31.8359 -34.8633 C 31.8359 -46.1426 38.5254 -56.8359 48.5352 -60.791 C 49.2188 -61.084 49.8535 -61.1328 50.2441 -61.1328 C 51.3672 -61.1328 51.9531 -60.3027 51.9531 -59.4727 C 51.9531 -59.1309 51.9043 -58.5938 51.5625 -57.9102 C 50.6348 -55.7129 49.9023 -51.6113 49.9023 -48.4863 C 49.9023 -34.2773 58.9844 -25.3418 73.2422 -25.3418 Z"/>
  </g>
  <g id="Regular-M" transform="matrix(1 0 0 1 1391.3 1126)">
   <path d="M 58.5449 14.6484 C 85.791 14.6484 108.35 -7.95898 108.35 -35.1562 C 108.35 -62.4023 85.7422 -84.9609 58.4961 -84.9609 C 31.2988 -84.9609 8.74023 -62.4023 8.74023 -35.1562 C 8.74023 -7.95898 31.3477 14.6484 58.5449 14.6484 Z M 72.998 -24.8535 C 76.3672 -24.8535 79.834 -25.5859 81.8848 -26.3184 C 82.373 -26.4648 82.7148 -26.5137 83.0078 -26.5137 C 83.7891 -26.5137 84.668 -25.8301 84.668 -24.8047 C 84.668 -24.6094 84.6191 -23.9746 84.3262 -23.3398 C 80.8594 -14.4531 70.752 -7.27539 58.9844 -7.27539 C 42.9199 -7.27539 30.6641 -18.75 30.6641 -34.8145 C 30.6641 -46.2891 37.4512 -57.2266 47.5586 -61.2305 C 48.1934 -61.4746 48.8281 -61.5234 49.1699 -61.5234 C 50.1953 -61.5234 50.7324 -60.6934 50.7324 -59.9609 C 50.7324 -59.7168 50.7324 -59.3262 50.4395 -58.6914 C 49.5605 -56.3965 48.7305 -52.0508 48.7305 -48.9746 C 48.7305 -34.1797 58.2031 -24.8535 72.998 -24.8535 Z"/>
  </g>
  <g id="Light-M" transform="matrix(1 0 0 1 1095.42 1126)">
   <path d="M 57.7148 13.8184 C 84.5215 13.8184 106.689 -8.30078 106.689 -35.1562 C 106.689 -61.9629 84.5215 -84.1309 57.666 -84.1309 C 30.8594 -84.1309 8.74023 -61.9629 8.74023 -35.1562 C 8.74023 -8.30078 30.9082 13.8184 57.7148 13.8184 Z M 72.168 -24.3164 C 75.7812 -24.3164 79.4922 -25 81.543 -25.7812 C 81.8848 -25.9277 82.1777 -25.9277 82.4219 -25.9277 C 83.1543 -25.9277 83.8867 -25.3418 83.8867 -24.4141 C 83.8867 -24.1699 83.8379 -23.7305 83.6426 -23.2422 C 80.2734 -14.209 69.6289 -7.08008 58.0078 -7.08008 C 42.1875 -7.08008 29.9316 -18.8477 29.9316 -34.668 C 29.9316 -46.0938 36.5723 -57.3242 46.7285 -61.084 C 47.2168 -61.2793 47.6562 -61.377 47.9492 -61.377 C 48.877 -61.377 49.4141 -60.6445 49.4141 -59.9121 C 49.4141 -59.7168 49.3652 -59.3262 49.1699 -58.8867 C 48.2422 -56.3477 47.4609 -52.4902 47.4609 -48.9258 C 47.4609 -34.0332 57.3242 -24.3164 72.168 -24.3164 Z"/>
  </g>
  <g id="Thin-M" transform="matrix(1 0 0 1 799.806 1126)">
   <path d="M 56.6406 12.793 C 82.9102 12.793 104.492 -8.78906 104.492 -35.1074 C 104.492 -61.377 82.9102 -82.959 56.5918 -82.959 C 30.3223 -82.959 8.74023 -61.377 8.74023 -35.1074 C 8.74023 -8.78906 30.3223 12.793 56.6406 12.793 Z M 71.0449 -23.5352 C 75 -23.5352 79.0039 -24.1699 81.0547 -25.0977 C 81.25 -25.1953 81.4453 -25.1953 81.5918 -25.1953 C 82.3242 -25.1953 82.8613 -24.6094 82.8613 -23.877 C 82.8613 -23.6816 82.8613 -23.3887 82.7637 -23.0957 C 79.5898 -13.8672 68.2129 -6.88477 56.7383 -6.88477 C 41.1133 -6.88477 28.9062 -18.9453 28.9062 -34.4727 C 28.9062 -45.8984 35.4492 -57.4707 45.6055 -60.9375 C 45.8984 -61.0352 46.1426 -61.1328 46.3867 -61.1328 C 47.1191 -61.1328 47.6562 -60.5469 47.6562 -59.8633 C 47.6562 -59.668 47.6074 -59.375 47.5098 -59.082 C 46.5332 -56.25 45.8008 -53.0762 45.8008 -48.8281 C 45.8008 -33.8867 56.2012 -23.5352 71.0449 -23.5352 Z"/>
  </g>
  <g id="Ultralight-M" transform="matrix(1 0 0 1 503.656 1126)">
   <path d="M 56.0547 12.2559 C 82.0801 12.2559 103.369 -9.0332 103.369 -35.0586 C 103.369 -61.084 82.0801 -82.373 56.0547 -82.373 C 30.0293 -82.373 8.74023 -61.084 8.74023 -35.0586 C 8.74023 -9.0332 30.0293 12.2559 56.0547 12.2559 Z M 70.459 -23.1445 C 74.5605 -23.1445 78.7598 -23.7793 80.8105 -24.7559 C 80.957 -24.8047 81.0547 -24.8047 81.2012 -24.8047 C 81.8848 -24.8047 82.373 -24.2676 82.373 -23.584 C 82.373 -23.3887 82.373 -23.2422 82.3242 -23.0469 C 79.1992 -13.6719 67.4316 -6.78711 56.0547 -6.78711 C 40.625 -6.78711 28.3691 -18.9941 28.3691 -34.375 C 28.3691 -45.8008 34.8633 -57.5195 45.0195 -60.8887 C 45.2148 -60.9375 45.4102 -60.9863 45.5566 -60.9863 C 46.2402 -60.9863 46.7285 -60.498 46.7285 -59.8145 C 46.7285 -59.6191 46.6797 -59.375 46.6309 -59.1797 C 45.6055 -56.2012 44.9219 -53.3691 44.9219 -48.7793 C 44.9219 -33.8379 55.6152 -23.1445 70.459 -23.1445 Z"/>
  </g>
  <g id="Black-S" transform="matrix(1 0 0 1 2884.57 696)">
   <path d="M 48.8281 6.83594 C 71.9727 6.83594 90.8203 -12.0117 90.8203 -35.1562 C 90.8203 -58.3008 71.9727 -77.1484 48.8281 -77.1484 C 25.6836 -77.1484 6.83594 -58.3008 6.83594 -35.1562 C 6.83594 -12.0117 25.6836 6.83594 48.8281 6.83594 Z M 58.3008 -29.1992 C 60.4492 -29.1992 62.6465 -29.5898 63.8672 -30.2246 C 64.7461 -30.6641 65.5273 -30.9082 66.2109 -30.9082 C 67.1875 -30.9082 67.7246 -30.2734 67.7246 -29.2969 C 67.7246 -28.6621 67.5781 -27.9297 67.1875 -27.0996 C 63.8184 -19.9219 56.7871 -15.1855 48.8281 -15.1855 C 37.3047 -15.1855 28.8574 -23.6328 28.8574 -35.1562 C 28.8574 -43.3105 33.8379 -50.7324 41.3574 -53.7598 C 42.0898 -54.0527 42.6758 -54.1992 43.2617 -54.1992 C 44.3359 -54.1992 45.0195 -53.4668 45.0195 -52.4902 C 45.0195 -51.8066 44.7754 -51.0742 44.3359 -50.3418 C 43.5059 -48.9258 43.1152 -46.3867 43.1152 -43.8965 C 43.1152 -34.8145 48.9746 -29.1992 58.3008 -29.1992 Z"/>
  </g>
  <g id="Heavy-S" transform="matrix(1 0 0 1 2588.47 696)">
   <path d="M 48.2422 6.20117 C 70.9961 6.20117 89.5996 -12.4023 89.5996 -35.1562 C 89.5996 -57.9102 70.9961 -76.5625 48.1934 -76.5625 C 25.4395 -76.5625 6.83594 -57.9102 6.83594 -35.1562 C 6.83594 -12.4023 25.4395 6.20117 48.2422 6.20117 Z M 58.1543 -28.7598 C 60.3516 -28.7598 62.6465 -29.1992 63.9648 -29.834 C 64.7461 -30.1758 65.4297 -30.3711 66.0156 -30.3711 C 66.8945 -30.3711 67.4805 -29.7852 67.4805 -28.8086 C 67.4805 -28.2715 67.334 -27.5879 66.9922 -26.8066 C 63.7695 -19.7266 56.5918 -14.7461 48.3398 -14.7461 C 36.5234 -14.7461 27.7832 -23.291 27.7832 -35.1074 C 27.7832 -43.457 32.8613 -51.123 40.4785 -54.1992 C 41.1621 -54.4922 41.748 -54.5898 42.2852 -54.5898 C 43.3105 -54.5898 43.9453 -53.8574 43.9453 -52.9785 C 43.9453 -52.4414 43.75 -51.8066 43.3594 -51.0742 C 42.5293 -49.6094 42.0898 -46.8262 42.0898 -44.3848 C 42.0898 -34.7168 48.291 -28.7598 58.1543 -28.7598 Z"/>
  </g>
  <g id="Bold-S" transform="matrix(1 0 0 1 2292.44 696)">
   <path d="M 47.5586 5.51758 C 69.873 5.51758 88.2324 -12.8418 88.2324 -35.1562 C 88.2324 -57.5195 69.873 -75.8789 47.5098 -75.8789 C 25.1953 -75.8789 6.83594 -57.5195 6.83594 -35.1562 C 6.83594 -12.8418 25.1953 5.51758 47.5586 5.51758 Z M 57.959 -28.3203 C 60.3027 -28.3203 62.6465 -28.8086 64.0625 -29.3457 C 64.7461 -29.6387 65.2832 -29.7852 65.7715 -29.7852 C 66.5527 -29.7852 67.1875 -29.1992 67.1875 -28.2715 C 67.1875 -27.8809 67.0898 -27.2461 66.7969 -26.5137 C 63.7207 -19.5312 56.3477 -14.3066 47.7539 -14.3066 C 35.6445 -14.3066 26.6113 -22.9492 26.6113 -35.0586 C 26.6113 -43.6523 31.7871 -51.5625 39.502 -54.6875 C 40.1367 -54.9805 40.7227 -55.0781 41.1621 -55.0781 C 42.1387 -55.0781 42.6758 -54.3457 42.6758 -53.5645 C 42.6758 -53.125 42.5781 -52.5879 42.2363 -51.9531 C 41.4551 -50.3906 40.9668 -47.3145 40.9668 -44.9707 C 40.9668 -34.6191 47.5098 -28.3203 57.959 -28.3203 Z"/>
  </g>
  <g id="Semibold-S" transform="matrix(1 0 0 1 1996.2 696)">
   <path d="M 47.0703 5.0293 C 69.0918 5.0293 87.3047 -13.1348 87.3047 -35.2051 C 87.3047 -57.2266 69.0918 -75.4395 47.0215 -75.4395 C 25 -75.4395 6.83594 -57.2266 6.83594 -35.2051 C 6.83594 -13.1348 25.0488 5.0293 47.0703 5.0293 Z M 57.8125 -27.9785 C 60.2051 -27.9785 62.6953 -28.5156 64.1602 -29.0527 C 64.7461 -29.2969 65.1855 -29.3945 65.625 -29.3945 C 66.3574 -29.3945 66.9922 -28.8086 66.9922 -27.9297 C 66.9922 -27.5879 66.9434 -26.9531 66.6504 -26.3184 C 63.6719 -19.3848 56.2012 -13.9648 47.3633 -13.9648 C 35.0586 -13.9648 25.8301 -22.7051 25.8301 -35.0586 C 25.8301 -43.75 31.0547 -51.8555 38.8184 -55.0293 C 39.4531 -55.3223 40.0391 -55.3711 40.3809 -55.3711 C 41.3574 -55.3711 41.8457 -54.6387 41.8457 -53.9551 C 41.8457 -53.6133 41.748 -53.125 41.4551 -52.5391 C 40.7227 -50.9277 40.1367 -47.6074 40.1367 -45.3613 C 40.1367 -34.5703 46.9727 -27.9785 57.8125 -27.9785 Z"/>
  </g>
  <g id="Medium-S" transform="matrix(1 0 0 1 1699.83 696)">
   <path d="M 46.7285 4.6875 C 68.5547 4.6875 86.6211 -13.3789 86.6211 -35.2051 C 86.6211 -56.9824 68.5059 -75.0977 46.6797 -75.0977 C 24.8535 -75.0977 6.83594 -56.9824 6.83594 -35.2051 C 6.83594 -13.3789 24.9023 4.6875 46.7285 4.6875 Z M 57.7148 -27.7344 C 60.1562 -27.7344 62.6953 -28.2715 64.209 -28.8086 C 64.7461 -29.0039 65.1367 -29.0527 65.4785 -29.0527 C 66.1621 -29.0527 66.8457 -28.5156 66.8457 -27.6367 C 66.8457 -27.3926 66.7969 -26.7578 66.5527 -26.1719 C 63.623 -19.2383 56.1035 -13.7207 47.0703 -13.7207 C 34.6191 -13.7207 25.1953 -22.5098 25.1953 -35.0098 C 25.1953 -43.8477 30.4688 -52.0996 38.3301 -55.3223 C 38.916 -55.5664 39.502 -55.6152 39.8438 -55.6152 C 40.7227 -55.6152 41.2109 -54.8828 41.2109 -54.248 C 41.2109 -53.9551 41.1621 -53.5645 40.8691 -52.9785 C 40.1855 -51.3184 39.5508 -47.9004 39.5508 -45.6543 C 39.5508 -34.5215 46.5332 -27.7344 57.7148 -27.7344 Z"/>
  </g>
  <g id="Regular-S" transform="matrix(1 0 0 1 1403.58 696)">
   <path d="M 46.2402 4.19922 C 67.7734 4.19922 85.6934 -13.6719 85.6934 -35.2051 C 85.6934 -56.7383 67.7246 -74.6094 46.1914 -74.6094 C 24.707 -74.6094 6.83594 -56.7383 6.83594 -35.2051 C 6.83594 -13.6719 24.7559 4.19922 46.2402 4.19922 Z M 57.5684 -27.3926 C 60.1074 -27.3926 62.6953 -27.9785 64.3066 -28.4668 C 64.7461 -28.6133 65.0391 -28.6621 65.332 -28.6621 C 65.9668 -28.6621 66.6992 -28.125 66.6992 -27.2949 C 66.6992 -27.0996 66.6504 -26.5137 66.4062 -25.9766 C 63.5742 -19.0918 55.957 -13.3789 46.6797 -13.3789 C 34.0332 -13.3789 24.4141 -22.2656 24.4141 -35.0098 C 24.4141 -43.9453 29.7363 -52.3926 37.6465 -55.6641 C 38.2324 -55.8594 38.7695 -55.9082 39.0625 -55.9082 C 39.9414 -55.9082 40.3809 -55.2246 40.3809 -54.6387 C 40.3809 -54.4434 40.3809 -54.1016 40.1367 -53.5645 C 39.4531 -51.8555 38.7695 -48.1934 38.7695 -46.0449 C 38.7695 -34.4727 45.9961 -27.3926 57.5684 -27.3926 Z"/>
  </g>
  <g id="Light-S" transform="matrix(1 0 0 1 1107.6 696)">
   <path d="M 45.5078 3.51562 C 66.6992 3.51562 84.2285 -14.0137 84.2285 -35.1562 C 84.2285 -56.3477 66.6504 -73.877 45.5078 -73.877 C 24.3164 -73.877 6.83594 -56.3477 6.83594 -35.1562 C 6.83594 -14.0137 24.3652 3.51562 45.5078 3.51562 Z M 56.8359 -26.9043 C 59.5703 -26.9043 62.4023 -27.4414 64.0137 -28.0273 C 64.3555 -28.125 64.5508 -28.1738 64.7949 -28.1738 C 65.3809 -28.1738 66.0156 -27.6855 66.0156 -26.9043 C 66.0156 -26.7578 65.9668 -26.3184 65.8203 -25.8789 C 63.0859 -18.8477 54.9805 -13.2324 45.8008 -13.2324 C 33.3008 -13.2324 23.7305 -22.3633 23.7305 -34.8633 C 23.7305 -43.7988 29.0039 -52.4902 36.9141 -55.5664 C 37.3535 -55.7129 37.793 -55.7617 38.0371 -55.7617 C 38.7695 -55.7617 39.209 -55.1758 39.209 -54.5898 C 39.209 -54.3945 39.1602 -54.1016 39.0137 -53.7109 C 38.2812 -51.8066 37.6465 -48.584 37.6465 -45.9961 C 37.6465 -34.375 45.2637 -26.9043 56.8359 -26.9043 Z"/>
  </g>
  <g id="Thin-S" transform="matrix(1 0 0 1 811.867 696)">
   <path d="M 44.5801 2.58789 C 65.2832 2.58789 82.2754 -14.4043 82.2754 -35.1562 C 82.2754 -55.8594 65.2344 -72.8516 44.5312 -72.8516 C 23.8281 -72.8516 6.83594 -55.8594 6.83594 -35.1562 C 6.83594 -14.4043 23.877 2.58789 44.5801 2.58789 Z M 55.8594 -26.2207 C 58.8867 -26.2207 61.9629 -26.709 63.5742 -27.4414 C 63.7695 -27.4902 63.916 -27.5391 64.0625 -27.5391 C 64.6484 -27.5391 65.1367 -27.0508 65.1367 -26.416 C 65.1367 -26.2695 65.0879 -26.0254 64.9902 -25.7812 C 62.4512 -18.5547 53.7109 -13.0859 44.6777 -13.0859 C 32.4219 -13.0859 22.8516 -22.4609 22.8516 -34.668 C 22.8516 -43.6523 27.9785 -52.5879 35.9375 -55.4199 C 36.1816 -55.5176 36.4258 -55.5664 36.6211 -55.5664 C 37.2559 -55.5664 37.6465 -55.0781 37.6465 -54.541 C 37.6465 -54.3945 37.5977 -54.1504 37.5 -53.8574 C 36.7676 -51.709 36.1816 -49.0723 36.1816 -45.8984 C 36.1816 -34.2285 44.2383 -26.2207 55.8594 -26.2207 Z"/>
  </g>
  <g id="Ultralight-S" transform="matrix(1 0 0 1 515.644 696)">
   <path d="M 44.043 2.09961 C 64.502 2.09961 81.2988 -14.6484 81.2988 -35.1074 C 81.2988 -55.5664 64.502 -72.3145 44.043 -72.3145 C 23.584 -72.3145 6.83594 -55.5664 6.83594 -35.1074 C 6.83594 -14.6484 23.584 2.09961 44.043 2.09961 Z M 55.3223 -25.8789 C 58.5449 -25.8789 61.7676 -26.3672 63.3789 -27.0996 C 63.4766 -27.1973 63.623 -27.1973 63.7207 -27.1973 C 64.2578 -27.1973 64.6484 -26.709 64.6484 -26.1719 C 64.6484 -26.0254 64.6484 -25.8789 64.5996 -25.6836 C 62.1582 -18.4082 53.0273 -12.9395 44.0918 -12.9395 C 31.9336 -12.9395 22.3633 -22.5098 22.3633 -34.5703 C 22.3633 -43.5059 27.4414 -52.6855 35.4004 -55.3223 C 35.5957 -55.4199 35.7422 -55.4688 35.8887 -55.4688 C 36.4746 -55.4688 36.8652 -55.0293 36.8652 -54.4922 C 36.8652 -54.3457 36.8164 -54.1504 36.7676 -54.0039 C 35.9863 -51.6602 35.4492 -49.3652 35.4492 -45.8496 C 35.4492 -34.1309 43.7012 -25.8789 55.3223 -25.8789 Z"/>
  </g>
 </g>
</svg>
