<?xml version="1.0" encoding="UTF-8"?>
<!--Generator: Apple Native CoreSVG 123-->
<!DOCTYPE svg
PUBLIC "-//W3C//DTD SVG 1.1//EN"
       "http://www.w3.org/Graphics/SVG/1.1/DTD/svg11.dtd">
<svg version="1.1" xmlns="http://www.w3.org/2000/svg" xmlns:xlink="http://www.w3.org/1999/xlink" width="3300" height="2200">
 <!--glyph: "uni1001C0.medium", point size: 100.000000, font version: "Version 15.0d7e11", template writer version: "5"-->
 <g id="Notes">
  <rect height="2200" id="artboard" style="fill:white;opacity:1" width="3300" x="0" y="0"/>
  <line id="" style="fill:none;stroke:black;opacity:1;stroke-width:0.5;" x1="263" x2="3036" y1="292" y2="292"/>
  <text style="stroke:none;fill:black;font-family:-apple-system,&quot;SF Pro Display&quot;,&quot;SF Pro Text&quot;,Helvetica,sans-serif;font-weight:bold;" transform="matrix(1 0 0 1 263 322)">Weight/Scale Variations</text>
  <text style="stroke:none;fill:black;font-family:-apple-system,&quot;SF Pro Display&quot;,&quot;SF Pro Text&quot;,Helvetica,sans-serif;text-anchor:middle;" transform="matrix(1 0 0 1 559.711 322)">Ultralight</text>
  <text style="stroke:none;fill:black;font-family:-apple-system,&quot;SF Pro Display&quot;,&quot;SF Pro Text&quot;,Helvetica,sans-serif;text-anchor:middle;" transform="matrix(1 0 0 1 856.422 322)">Thin</text>
  <text style="stroke:none;fill:black;font-family:-apple-system,&quot;SF Pro Display&quot;,&quot;SF Pro Text&quot;,Helvetica,sans-serif;text-anchor:middle;" transform="matrix(1 0 0 1 1153.13 322)">Light</text>
  <text style="stroke:none;fill:black;font-family:-apple-system,&quot;SF Pro Display&quot;,&quot;SF Pro Text&quot;,Helvetica,sans-serif;text-anchor:middle;" transform="matrix(1 0 0 1 1449.84 322)">Regular</text>
  <text style="stroke:none;fill:black;font-family:-apple-system,&quot;SF Pro Display&quot;,&quot;SF Pro Text&quot;,Helvetica,sans-serif;text-anchor:middle;" transform="matrix(1 0 0 1 1746.56 322)">Medium</text>
  <text style="stroke:none;fill:black;font-family:-apple-system,&quot;SF Pro Display&quot;,&quot;SF Pro Text&quot;,Helvetica,sans-serif;text-anchor:middle;" transform="matrix(1 0 0 1 2043.27 322)">Semibold</text>
  <text style="stroke:none;fill:black;font-family:-apple-system,&quot;SF Pro Display&quot;,&quot;SF Pro Text&quot;,Helvetica,sans-serif;text-anchor:middle;" transform="matrix(1 0 0 1 2339.98 322)">Bold</text>
  <text style="stroke:none;fill:black;font-family:-apple-system,&quot;SF Pro Display&quot;,&quot;SF Pro Text&quot;,Helvetica,sans-serif;text-anchor:middle;" transform="matrix(1 0 0 1 2636.69 322)">Heavy</text>
  <text style="stroke:none;fill:black;font-family:-apple-system,&quot;SF Pro Display&quot;,&quot;SF Pro Text&quot;,Helvetica,sans-serif;text-anchor:middle;" transform="matrix(1 0 0 1 2933.4 322)">Black</text>
  <line id="" style="fill:none;stroke:black;opacity:1;stroke-width:0.5;" x1="263" x2="3036" y1="1903" y2="1903"/>
  <g id="" transform="matrix(1 0 0 1 263 1933)">
   <path d="M 9.24805 0.830078 C 13.5547 0.830078 17.1387 -2.74414 17.1387 -7.05078 C 17.1387 -11.3574 13.5449 -14.9316 9.23828 -14.9316 C 4.94141 -14.9316 1.36719 -11.3574 1.36719 -7.05078 C 1.36719 -2.74414 4.95117 0.830078 9.24805 0.830078 Z M 9.24805 -0.654297 C 5.70312 -0.654297 2.87109 -3.49609 2.87109 -7.05078 C 2.87109 -10.6055 5.69336 -13.4473 9.23828 -13.4473 C 12.793 -13.4473 15.6348 -10.6055 15.6445 -7.05078 C 15.6543 -3.49609 12.8027 -0.654297 9.24805 -0.654297 Z M 9.22852 -3.42773 C 9.69727 -3.42773 9.9707 -3.74023 9.9707 -4.25781 L 9.9707 -6.31836 L 12.1973 -6.31836 C 12.6953 -6.31836 13.0371 -6.57227 13.0371 -7.04102 C 13.0371 -7.51953 12.7148 -7.7832 12.1973 -7.7832 L 9.9707 -7.7832 L 9.9707 -10.0098 C 9.9707 -10.5273 9.69727 -10.8496 9.22852 -10.8496 C 8.75977 -10.8496 8.50586 -10.5078 8.50586 -10.0098 L 8.50586 -7.7832 L 6.29883 -7.7832 C 5.78125 -7.7832 5.44922 -7.51953 5.44922 -7.04102 C 5.44922 -6.57227 5.80078 -6.31836 6.29883 -6.31836 L 8.50586 -6.31836 L 8.50586 -4.25781 C 8.50586 -3.75977 8.75977 -3.42773 9.22852 -3.42773 Z"/>
  </g>
  <g id="" transform="matrix(1 0 0 1 281.506 1933)">
   <path d="M 11.709 2.91016 C 17.1582 2.91016 21.6699 -1.60156 21.6699 -7.05078 C 21.6699 -12.4902 17.1484 -17.0117 11.6992 -17.0117 C 6.25977 -17.0117 1.74805 -12.4902 1.74805 -7.05078 C 1.74805 -1.60156 6.26953 2.91016 11.709 2.91016 Z M 11.709 1.25 C 7.09961 1.25 3.41797 -2.44141 3.41797 -7.05078 C 3.41797 -11.6504 7.08984 -15.3516 11.6992 -15.3516 C 16.3086 -15.3516 20 -11.6504 20.0098 -7.05078 C 20.0195 -2.44141 16.3184 1.25 11.709 1.25 Z M 11.6895 -2.41211 C 12.207 -2.41211 12.5195 -2.77344 12.5195 -3.33984 L 12.5195 -6.23047 L 15.5762 -6.23047 C 16.123 -6.23047 16.5039 -6.51367 16.5039 -7.03125 C 16.5039 -7.55859 16.1426 -7.86133 15.5762 -7.86133 L 12.5195 -7.86133 L 12.5195 -10.9277 C 12.5195 -11.5039 12.207 -11.8555 11.6895 -11.8555 C 11.1719 -11.8555 10.8789 -11.4844 10.8789 -10.9277 L 10.8789 -7.86133 L 7.83203 -7.86133 C 7.26562 -7.86133 6.89453 -7.55859 6.89453 -7.03125 C 6.89453 -6.51367 7.28516 -6.23047 7.83203 -6.23047 L 10.8789 -6.23047 L 10.8789 -3.33984 C 10.8789 -2.79297 11.1719 -2.41211 11.6895 -2.41211 Z"/>
  </g>
  <g id="" transform="matrix(1 0 0 1 304.924 1933)">
   <path d="M 14.9707 5.67383 C 21.9336 5.67383 27.6953 -0.078125 27.6953 -7.04102 C 27.6953 -14.0039 21.9238 -19.7559 14.9609 -19.7559 C 8.00781 -19.7559 2.25586 -14.0039 2.25586 -7.04102 C 2.25586 -0.078125 8.01758 5.67383 14.9707 5.67383 Z M 14.9707 3.85742 C 8.93555 3.85742 4.08203 -1.00586 4.08203 -7.04102 C 4.08203 -13.0762 8.92578 -17.9395 14.9609 -17.9395 C 21.0059 -17.9395 25.8594 -13.0762 25.8691 -7.04102 C 25.8789 -1.00586 21.0156 3.85742 14.9707 3.85742 Z M 14.9512 -1.06445 C 15.5176 -1.06445 15.8691 -1.45508 15.8691 -2.06055 L 15.8691 -6.13281 L 20.1074 -6.13281 C 20.6934 -6.13281 21.1133 -6.46484 21.1133 -7.02148 C 21.1133 -7.59766 20.7227 -7.93945 20.1074 -7.93945 L 15.8691 -7.93945 L 15.8691 -12.1875 C 15.8691 -12.8027 15.5176 -13.1934 14.9512 -13.1934 C 14.3848 -13.1934 14.0625 -12.7832 14.0625 -12.1875 L 14.0625 -7.93945 L 9.83398 -7.93945 C 9.21875 -7.93945 8.80859 -7.59766 8.80859 -7.02148 C 8.80859 -6.46484 9.23828 -6.13281 9.83398 -6.13281 L 14.0625 -6.13281 L 14.0625 -2.06055 C 14.0625 -1.47461 14.3848 -1.06445 14.9512 -1.06445 Z"/>
  </g>
  <text style="stroke:none;fill:black;font-family:-apple-system,&quot;SF Pro Display&quot;,&quot;SF Pro Text&quot;,Helvetica,sans-serif;font-weight:bold;" transform="matrix(1 0 0 1 263 1953)">Design Variations</text>
  <text style="stroke:none;fill:black;font-family:-apple-system,&quot;SF Pro Display&quot;,&quot;SF Pro Text&quot;,Helvetica,sans-serif;" transform="matrix(1 0 0 1 263 1971)">Symbols are supported in up to nine weights and three scales.</text>
  <text style="stroke:none;fill:black;font-family:-apple-system,&quot;SF Pro Display&quot;,&quot;SF Pro Text&quot;,Helvetica,sans-serif;" transform="matrix(1 0 0 1 263 1989)">For optimal layout with text and other symbols, vertically align</text>
  <text style="stroke:none;fill:black;font-family:-apple-system,&quot;SF Pro Display&quot;,&quot;SF Pro Text&quot;,Helvetica,sans-serif;" transform="matrix(1 0 0 1 263 2007)">symbols with the adjacent text.</text>
  <rect height="14" id="" style="fill:#00AEEF;stroke:none;opacity:0.4;" width="3" x="776" y="1919"/>
  <g id="" transform="matrix(1 0 0 1 779 1933)">
   <path d="M 10.5273 0 L 12.373 0 L 7.17773 -14.0918 L 5.43945 -14.0918 L 0.244141 0 L 2.08984 0 L 3.50586 -4.0332 L 9.11133 -4.0332 Z M 6.2793 -11.9531 L 6.33789 -11.9531 L 8.59375 -5.52734 L 4.02344 -5.52734 Z"/>
  </g>
  <rect height="14" id="" style="fill:#00AEEF;stroke:none;opacity:0.4;" width="3" x="791.617" y="1919"/>
  <text style="stroke:none;fill:black;font-family:-apple-system,&quot;SF Pro Display&quot;,&quot;SF Pro Text&quot;,Helvetica,sans-serif;font-weight:bold;" transform="matrix(1 0 0 1 776 1953)">Margins</text>
  <text style="stroke:none;fill:black;font-family:-apple-system,&quot;SF Pro Display&quot;,&quot;SF Pro Text&quot;,Helvetica,sans-serif;" transform="matrix(1 0 0 1 776 1971)">Leading and trailing margins on the left and right side of each symbol</text>
  <text style="stroke:none;fill:black;font-family:-apple-system,&quot;SF Pro Display&quot;,&quot;SF Pro Text&quot;,Helvetica,sans-serif;" transform="matrix(1 0 0 1 776 1989)">can be adjusted by modifying the width of the blue rectangles.</text>
  <text style="stroke:none;fill:black;font-family:-apple-system,&quot;SF Pro Display&quot;,&quot;SF Pro Text&quot;,Helvetica,sans-serif;" transform="matrix(1 0 0 1 776 2007)">Modifications are automatically applied proportionally to all</text>
  <text style="stroke:none;fill:black;font-family:-apple-system,&quot;SF Pro Display&quot;,&quot;SF Pro Text&quot;,Helvetica,sans-serif;" transform="matrix(1 0 0 1 776 2025)">scales and weights.</text>
  <g id="" transform="matrix(1 0 0 1 1289 1933)">
   <path d="M 2.83203 3.11523 L 4.375 4.6582 C 5.22461 5.48828 6.19141 5.41992 7.06055 4.46289 L 17.2754 -6.66016 C 17.7051 -6.36719 18.0957 -6.37695 18.5645 -6.47461 L 19.6094 -6.68945 L 20.3027 -5.99609 L 20.2539 -5.47852 C 20.1855 -4.95117 20.3516 -4.53125 20.8496 -4.0332 L 21.6602 -3.22266 C 22.168 -2.71484 22.8223 -2.68555 23.3008 -3.16406 L 26.5527 -6.41602 C 27.0312 -6.89453 27.0117 -7.54883 26.5039 -8.05664 L 25.6836 -8.87695 C 25.1855 -9.375 24.7754 -9.55078 24.2383 -9.47266 L 23.7109 -9.41406 L 23.0566 -10.0781 L 23.3398 -11.2207 C 23.4863 -11.7871 23.3398 -12.2559 22.7148 -12.8613 L 20.3027 -15.2539 C 16.7578 -18.7793 12.2266 -18.6719 9.11133 -15.5371 C 8.69141 -15.1074 8.64258 -14.5215 8.91602 -14.0918 C 9.15039 -13.7207 9.62891 -13.4961 10.2734 -13.6621 C 11.7871 -14.043 13.3008 -13.9258 14.7852 -12.9199 L 14.1602 -11.3379 C 13.9258 -10.752 13.9453 -10.2734 14.1797 -9.83398 L 3.01758 0.439453 C 2.08008 1.30859 1.97266 2.25586 2.83203 3.11523 Z M 10.6738 -15.1465 C 13.3398 -17.1387 16.6504 -16.8262 19.0527 -14.4141 L 21.6797 -11.8066 C 21.9141 -11.5723 21.9434 -11.3867 21.8848 -11.0938 L 21.5039 -9.53125 L 23.0762 -7.95898 L 24.043 -8.04688 C 24.3262 -8.07617 24.4141 -8.05664 24.6387 -7.83203 L 25.2637 -7.20703 L 22.5098 -4.46289 L 21.8848 -5.07812 C 21.6602 -5.30273 21.6406 -5.40039 21.6699 -5.68359 L 21.7578 -6.64062 L 20.1953 -8.20312 L 18.5742 -7.89062 C 18.291 -7.83203 18.1445 -7.83203 17.9102 -8.07617 L 15.7324 -10.2539 C 15.5078 -10.4883 15.4785 -10.625 15.6055 -10.9473 L 16.5527 -13.2227 C 14.9512 -14.7559 12.8418 -15.6055 10.8008 -14.9512 C 10.7129 -14.9219 10.6445 -14.9414 10.6152 -14.9805 C 10.5859 -15.0293 10.5859 -15.0781 10.6738 -15.1465 Z M 4.10156 2.41211 C 3.61328 1.91406 3.78906 1.61133 4.12109 1.30859 L 15.0781 -8.80859 L 16.3086 -7.57812 L 6.15234 3.34961 C 5.84961 3.68164 5.46875 3.7793 5.06836 3.37891 Z"/>
  </g>
  <text style="stroke:none;fill:black;font-family:-apple-system,&quot;SF Pro Display&quot;,&quot;SF Pro Text&quot;,Helvetica,sans-serif;font-weight:bold;" transform="matrix(1 0 0 1 1289 1953)">Exporting</text>
  <text style="stroke:none;fill:black;font-family:-apple-system,&quot;SF Pro Display&quot;,&quot;SF Pro Text&quot;,Helvetica,sans-serif;" transform="matrix(1 0 0 1 1289 1971)">Symbols should be outlined when exporting to ensure the</text>
  <text style="stroke:none;fill:black;font-family:-apple-system,&quot;SF Pro Display&quot;,&quot;SF Pro Text&quot;,Helvetica,sans-serif;" transform="matrix(1 0 0 1 1289 1989)">design is preserved when submitting to Xcode.</text>
  <text id="template-version" style="stroke:none;fill:black;font-family:-apple-system,&quot;SF Pro Display&quot;,&quot;SF Pro Text&quot;,Helvetica,sans-serif;text-anchor:end;" transform="matrix(1 0 0 1 3036 1933)">Template v.1.0</text>
  <text style="stroke:none;fill:black;font-family:-apple-system,&quot;SF Pro Display&quot;,&quot;SF Pro Text&quot;,Helvetica,sans-serif;text-anchor:end;" transform="matrix(1 0 0 1 3036 1951)">Generated from moon.stars</text>
  <text style="stroke:none;fill:black;font-family:-apple-system,&quot;SF Pro Display&quot;,&quot;SF Pro Text&quot;,Helvetica,sans-serif;text-anchor:end;" transform="matrix(1 0 0 1 3036 1969)">Typeset at 100 points</text>
  <text style="stroke:none;fill:black;font-family:-apple-system,&quot;SF Pro Display&quot;,&quot;SF Pro Text&quot;,Helvetica,sans-serif;" transform="matrix(1 0 0 1 263 726)">Small</text>
  <text style="stroke:none;fill:black;font-family:-apple-system,&quot;SF Pro Display&quot;,&quot;SF Pro Text&quot;,Helvetica,sans-serif;" transform="matrix(1 0 0 1 263 1156)">Medium</text>
  <text style="stroke:none;fill:black;font-family:-apple-system,&quot;SF Pro Display&quot;,&quot;SF Pro Text&quot;,Helvetica,sans-serif;" transform="matrix(1 0 0 1 263 1586)">Large</text>
 </g>
 <g id="Guides">
  <g id="H-reference" style="fill:#27AAE1;stroke:none;" transform="matrix(1 0 0 1 339 696)">
   <path d="M 54.9316 0 L 57.666 0 L 30.5664 -70.459 L 28.0762 -70.459 L 0.976562 0 L 3.66211 0 L 12.9395 -24.4629 L 45.7031 -24.4629 Z M 29.1992 -67.0898 L 29.4434 -67.0898 L 44.8242 -26.709 L 13.8184 -26.709 Z"/>
  </g>
  <line id="Baseline-S" style="fill:none;stroke:#27AAE1;opacity:1;stroke-width:0.577;" x1="263" x2="3036" y1="696" y2="696"/>
  <line id="Capline-S" style="fill:none;stroke:#27AAE1;opacity:1;stroke-width:0.577;" x1="263" x2="3036" y1="625.541" y2="625.541"/>
  <g id="H-reference" style="fill:#27AAE1;stroke:none;" transform="matrix(1 0 0 1 339 1126)">
   <path d="M 54.9316 0 L 57.666 0 L 30.5664 -70.459 L 28.0762 -70.459 L 0.976562 0 L 3.66211 0 L 12.9395 -24.4629 L 45.7031 -24.4629 Z M 29.1992 -67.0898 L 29.4434 -67.0898 L 44.8242 -26.709 L 13.8184 -26.709 Z"/>
  </g>
  <line id="Baseline-M" style="fill:none;stroke:#27AAE1;opacity:1;stroke-width:0.577;" x1="263" x2="3036" y1="1126" y2="1126"/>
  <line id="Capline-M" style="fill:none;stroke:#27AAE1;opacity:1;stroke-width:0.577;" x1="263" x2="3036" y1="1055.54" y2="1055.54"/>
  <g id="H-reference" style="fill:#27AAE1;stroke:none;" transform="matrix(1 0 0 1 339 1556)">
   <path d="M 54.9316 0 L 57.666 0 L 30.5664 -70.459 L 28.0762 -70.459 L 0.976562 0 L 3.66211 0 L 12.9395 -24.4629 L 45.7031 -24.4629 Z M 29.1992 -67.0898 L 29.4434 -67.0898 L 44.8242 -26.709 L 13.8184 -26.709 Z"/>
  </g>
  <line id="Baseline-L" style="fill:none;stroke:#27AAE1;opacity:1;stroke-width:0.577;" x1="263" x2="3036" y1="1556" y2="1556"/>
  <line id="Capline-L" style="fill:none;stroke:#27AAE1;opacity:1;stroke-width:0.577;" x1="263" x2="3036" y1="1485.54" y2="1485.54"/>
  <rect height="119.336" id="left-margin" style="fill:#00AEEF;stroke:none;opacity:0.4;" width="8.74023" x="1392.01" y="1030.79"/>
  <rect height="119.336" id="right-margin" style="fill:#00AEEF;stroke:none;opacity:0.4;" width="8.74023" x="1498.94" y="1030.79"/>
 </g>
 <g id="Symbols">
  <g id="Black-L" transform="matrix(1 0 0 1 2850.76 1556)">
   <path d="M 97.4121 -89.7461 C 98.4863 -89.7461 99.2676 -90.5273 99.4629 -91.6016 C 101.074 -101.807 101.025 -101.855 111.475 -103.711 C 112.744 -103.955 113.477 -104.639 113.477 -105.762 C 113.477 -106.885 112.744 -107.617 111.67 -107.812 C 100.879 -109.961 100.977 -109.961 99.4629 -119.873 C 99.2676 -121.045 98.4863 -121.826 97.4121 -121.826 C 96.2891 -121.826 95.5078 -121.045 95.3613 -119.922 C 93.75 -109.57 93.8477 -109.521 83.2031 -107.812 C 82.0801 -107.666 81.2988 -106.885 81.2988 -105.762 C 81.2988 -104.639 82.0312 -103.955 83.1055 -103.711 C 93.8477 -101.611 93.75 -101.562 95.3613 -91.5527 C 95.5078 -90.5273 96.2891 -89.7461 97.4121 -89.7461 Z M 75.5859 28.7109 C 101.416 28.7109 123.975 13.9648 134.326 -9.32617 C 136.914 -15.0391 136.084 -19.4824 133.398 -21.9727 C 130.811 -24.4141 126.416 -24.9023 121.826 -22.7539 C 117.188 -20.6055 111.035 -19.4336 104.736 -19.4336 C 77.3926 -19.4336 60.1074 -35.9375 60.1074 -62.4023 C 60.1074 -69.8242 61.7676 -77.0996 63.916 -82.0801 C 66.1621 -87.3535 65.8691 -91.2109 63.4766 -93.8965 C 60.8398 -96.8262 56.3477 -97.2168 51.0742 -95.1172 C 27.0996 -85.6445 11.2793 -61.7188 11.2793 -35.3027 C 11.2793 1.46484 38.4277 28.7109 75.5859 28.7109 Z M 128.076 -43.3594 C 129.834 -43.3594 131.152 -44.6289 131.396 -46.4844 C 133.154 -62.7441 133.838 -63.2812 150.732 -65.8691 C 152.783 -66.1621 154.004 -67.3828 154.004 -69.1895 C 154.004 -70.8984 152.783 -72.1191 151.074 -72.5098 C 133.74 -75.5859 133.154 -75.6836 131.396 -91.8945 C 131.152 -93.75 129.834 -95.0195 128.076 -95.0195 C 126.318 -95.0195 125 -93.75 124.756 -91.9922 C 122.803 -75.2441 122.266 -74.7559 105.127 -72.5098 C 103.418 -72.2656 102.148 -70.8984 102.148 -69.1895 C 102.148 -67.4805 103.369 -66.2109 105.078 -65.8691 C 122.412 -62.7441 122.754 -62.5977 124.756 -46.2891 C 125 -44.6289 126.367 -43.3594 128.076 -43.3594 Z M 75.6348 8.69141 C 50.0488 8.69141 31.2988 -10.1562 31.2988 -35.5957 C 31.2988 -46.5332 35.2539 -57.959 42.7246 -66.0645 C 42.2852 -63.8184 42.041 -61.084 42.041 -58.4473 C 42.041 -23.9746 64.7949 -1.61133 100.195 -1.61133 C 101.904 -1.61133 103.516 -1.75781 104.395 -1.9043 C 97.0215 4.98047 86.377 8.69141 75.6348 8.69141 Z"/>
  </g>
  <g id="Heavy-L" transform="matrix(1 0 0 1 2556.17 1556)">
   <path d="M 93.8477 -87.793 C 94.8242 -87.793 95.5078 -88.4766 95.6543 -89.4531 C 97.3633 -99.7559 97.3145 -99.8535 107.91 -101.758 C 109.033 -101.953 109.717 -102.588 109.717 -103.613 C 109.717 -104.639 109.033 -105.273 108.057 -105.469 C 97.2168 -107.568 97.2656 -107.666 95.6543 -117.725 C 95.5078 -118.75 94.8242 -119.434 93.8477 -119.434 C 92.8223 -119.434 92.1387 -118.75 91.9922 -117.773 C 90.3809 -107.373 90.4297 -107.275 79.6387 -105.469 C 78.6621 -105.273 77.9785 -104.639 77.9785 -103.613 C 77.9785 -102.588 78.6133 -101.953 79.5898 -101.758 C 90.4297 -99.6582 90.3809 -99.5605 91.9922 -89.4043 C 92.1387 -88.4766 92.8223 -87.793 93.8477 -87.793 Z M 73.1445 26.416 C 98.291 26.416 119.922 12.4512 129.785 -9.91211 C 132.031 -14.8438 131.299 -18.7012 129.004 -20.8496 C 126.807 -22.9492 123.047 -23.3398 119.043 -21.5332 C 114.355 -19.4824 108.301 -18.3105 101.709 -18.3105 C 74.1699 -18.3105 56.6406 -35.0586 56.6406 -61.9629 C 56.6406 -69.3359 58.2031 -76.6602 60.3516 -81.543 C 62.3535 -86.084 62.1094 -89.502 60.0098 -91.8457 C 57.7637 -94.3848 53.8574 -94.7754 49.1699 -92.8711 C 26.416 -83.7402 11.2793 -60.8398 11.2793 -35.2051 C 11.2793 0.0488281 37.1582 26.416 73.1445 26.416 Z M 124.414 -42.4805 C 125.977 -42.4805 127.148 -43.6035 127.344 -45.2637 C 129.248 -61.7188 129.883 -62.1582 146.826 -64.8438 C 148.682 -65.0879 149.756 -66.1621 149.756 -67.7734 C 149.756 -69.3359 148.682 -70.4102 147.168 -70.752 C 129.785 -73.8281 129.248 -73.9258 127.344 -90.2832 C 127.148 -91.9434 125.977 -93.0664 124.414 -93.0664 C 122.803 -93.0664 121.631 -91.9434 121.436 -90.3809 C 119.385 -73.584 118.896 -73.2422 101.66 -70.752 C 100.146 -70.5078 99.0234 -69.3359 99.0234 -67.7734 C 99.0234 -66.2109 100.098 -65.1367 101.611 -64.8438 C 119.043 -61.7676 119.385 -61.5723 121.436 -45.1172 C 121.631 -43.6035 122.852 -42.4805 124.414 -42.4805 Z M 73.2422 9.13086 C 47.2168 9.13086 28.5156 -9.96094 28.5156 -35.5469 C 28.5156 -47.8516 33.4961 -60.0098 42.0898 -68.3105 C 41.4062 -65.5762 40.9668 -61.9629 40.9668 -58.4473 C 40.9668 -24.7559 63.3301 -2.7832 97.8516 -2.7832 C 100.537 -2.7832 103.125 -3.125 104.492 -3.51562 C 96.9727 4.54102 85.4004 9.13086 73.2422 9.13086 Z"/>
  </g>
  <g id="Bold-L" transform="matrix(1 0 0 1 2261.83 1556)">
   <path d="M 89.8438 -85.5957 C 90.7227 -85.5957 91.3086 -86.1816 91.4551 -87.0117 C 93.1641 -97.4121 93.1641 -97.6074 103.955 -99.5605 C 104.932 -99.7559 105.469 -100.293 105.469 -101.172 C 105.469 -102.1 104.932 -102.637 104.053 -102.783 C 93.1152 -104.98 93.1152 -105.127 91.4551 -115.332 C 91.3086 -116.211 90.7227 -116.797 89.8438 -116.797 C 88.9648 -116.797 88.4277 -116.211 88.2812 -115.332 C 86.5234 -104.883 86.6211 -104.785 75.7324 -102.783 C 74.8535 -102.637 74.2188 -102.1 74.2188 -101.172 C 74.2188 -100.293 74.8047 -99.7559 75.6836 -99.5605 C 86.6211 -97.5098 86.5234 -97.3145 88.2812 -87.0117 C 88.4277 -86.1816 88.9648 -85.5957 89.8438 -85.5957 Z M 70.459 23.7793 C 94.8242 23.7793 115.381 10.7422 124.756 -10.5469 C 126.562 -14.5996 125.977 -17.7734 124.121 -19.5801 C 122.314 -21.2891 119.238 -21.6797 115.918 -20.2148 C 111.182 -18.1641 105.225 -17.041 98.3887 -17.041 C 70.5078 -17.041 52.7344 -34.082 52.7344 -61.4746 C 52.7344 -68.8477 54.248 -76.1719 56.3965 -80.9082 C 58.1055 -84.668 57.8613 -87.5977 56.1523 -89.5508 C 54.2969 -91.6016 51.0742 -91.9922 47.0703 -90.3809 C 25.6836 -81.5918 11.2793 -59.8145 11.2793 -35.0586 C 11.2793 -1.5625 35.791 23.7793 70.459 23.7793 Z M 120.264 -41.5039 C 121.631 -41.5039 122.656 -42.4805 122.852 -43.9453 C 124.854 -60.5469 125.439 -60.8887 142.48 -63.6719 C 144.092 -63.8672 145.02 -64.7949 145.02 -66.2109 C 145.02 -67.5781 144.092 -68.5547 142.773 -68.7988 C 125.391 -71.875 124.854 -71.9238 122.852 -88.4766 C 122.656 -89.9414 121.631 -90.918 120.264 -90.918 C 118.896 -90.918 117.871 -89.9414 117.676 -88.5742 C 115.576 -71.7285 115.137 -71.4844 97.8027 -68.7988 C 96.4844 -68.6035 95.5078 -67.5781 95.5078 -66.2109 C 95.5078 -64.8438 96.4355 -63.916 97.7539 -63.6719 C 115.234 -60.6445 115.625 -60.498 117.676 -43.8477 C 117.871 -42.4805 118.896 -41.5039 120.264 -41.5039 Z M 70.5566 9.66797 C 44.043 9.66797 25.3906 -9.76562 25.3906 -35.498 C 25.3906 -49.3164 31.4941 -62.3047 41.4551 -70.8496 C 40.3809 -67.5781 39.7461 -62.9395 39.7461 -58.4473 C 39.7461 -25.5371 61.6699 -4.15039 95.2148 -4.15039 C 99.0723 -4.15039 102.637 -4.63867 104.639 -5.27344 C 96.9727 4.10156 84.3262 9.66797 70.5566 9.66797 Z"/>
  </g>
  <g id="Semibold-L" transform="matrix(1 0 0 1 1966.73 1556)">
   <path d="M 87.1094 -84.082 C 87.8906 -84.082 88.3789 -84.5703 88.5254 -85.3516 C 90.332 -95.8496 90.332 -96.0938 101.221 -98.0957 C 102.051 -98.2422 102.588 -98.7305 102.588 -99.5117 C 102.588 -100.342 102.051 -100.781 101.27 -100.977 C 90.2832 -103.174 90.2832 -103.32 88.5254 -113.672 C 88.3789 -114.453 87.8906 -114.941 87.1094 -114.941 C 86.3281 -114.941 85.8398 -114.453 85.6934 -113.672 C 83.8867 -103.223 83.9844 -103.027 72.998 -100.977 C 72.2168 -100.83 71.6797 -100.342 71.6797 -99.5117 C 71.6797 -98.7305 72.168 -98.2422 72.9492 -98.0957 C 83.9844 -95.9961 83.8867 -95.752 85.6934 -85.3516 C 85.8398 -84.5703 86.3281 -84.082 87.1094 -84.082 Z M 68.6035 21.9727 C 92.4316 21.9727 112.256 9.57031 121.289 -10.9863 C 122.803 -14.4531 122.314 -17.1387 120.752 -18.7012 C 119.238 -20.166 116.65 -20.5078 113.77 -19.2383 C 108.984 -17.2852 103.125 -16.1621 96.0938 -16.1621 C 67.9688 -16.1621 50.0488 -33.3984 50.0488 -61.1328 C 50.0488 -68.5059 51.5137 -75.8789 53.6621 -80.4688 C 55.127 -83.6914 54.9805 -86.2793 53.5156 -87.9395 C 51.9043 -89.7461 49.1211 -90.0879 45.6055 -88.6719 C 25.1465 -80.127 11.2793 -59.1309 11.2793 -34.9609 C 11.2793 -2.63672 34.8145 21.9727 68.6035 21.9727 Z M 117.432 -40.8691 C 118.652 -40.8691 119.58 -41.6992 119.727 -43.0664 C 121.826 -59.7656 122.363 -60.0098 139.453 -62.8418 C 140.918 -63.0371 141.797 -63.8672 141.797 -65.1367 C 141.797 -66.4062 140.918 -67.2363 139.746 -67.4805 C 122.314 -70.5566 121.826 -70.5566 119.727 -87.2559 C 119.58 -88.5742 118.652 -89.4531 117.432 -89.4531 C 116.162 -89.4531 115.283 -88.5742 115.137 -87.3047 C 112.891 -70.459 112.5 -70.2637 95.1172 -67.4805 C 93.9453 -67.2852 93.0664 -66.4062 93.0664 -65.1367 C 93.0664 -63.916 93.9453 -63.0859 95.1172 -62.8418 C 112.598 -59.8633 113.037 -59.7168 115.137 -42.9199 C 115.283 -41.6992 116.211 -40.8691 117.432 -40.8691 Z M 68.7012 10.0098 C 41.8457 10.0098 23.2422 -9.61914 23.2422 -35.4492 C 23.2422 -50.293 30.1758 -63.8672 41.0156 -72.6074 C 39.6973 -68.9453 38.916 -63.623 38.916 -58.3984 C 38.916 -26.123 60.5469 -5.07812 93.3594 -5.07812 C 97.998 -5.07812 102.295 -5.71289 104.688 -6.49414 C 96.9727 3.80859 83.5449 10.0098 68.7012 10.0098 Z"/>
  </g>
  <g id="Medium-L" transform="matrix(1 0 0 1 1671.26 1556)">
   <path d="M 85.0586 -82.959 C 85.7422 -82.959 86.1816 -83.3984 86.3281 -84.082 C 88.1348 -94.6289 88.1348 -94.9219 99.1211 -96.9238 C 99.9023 -97.0703 100.342 -97.5098 100.342 -98.2422 C 100.342 -99.0234 99.9023 -99.4141 99.1699 -99.5605 C 88.1836 -101.758 88.1348 -102.002 86.3281 -112.402 C 86.1816 -113.135 85.7422 -113.574 85.0586 -113.574 C 84.3262 -113.574 83.8867 -113.135 83.7402 -112.402 C 81.8848 -101.953 81.9824 -101.709 70.9473 -99.5605 C 70.2148 -99.4141 69.7266 -99.0234 69.7266 -98.2422 C 69.7266 -97.5098 70.166 -97.0703 70.8984 -96.9238 C 82.0312 -94.873 81.8848 -94.5801 83.7402 -84.082 C 83.8867 -83.3984 84.3262 -82.959 85.0586 -82.959 Z M 115.283 -40.332 C 116.406 -40.332 117.236 -41.1133 117.383 -42.334 C 119.531 -59.1797 120.02 -59.375 137.207 -62.207 C 138.525 -62.4512 139.307 -63.1348 139.307 -64.3555 C 139.307 -65.4785 138.525 -66.2109 137.451 -66.4551 C 120.02 -69.5312 119.531 -69.5312 117.383 -86.3281 C 117.236 -87.5488 116.406 -88.3301 115.283 -88.3301 C 114.111 -88.3301 113.33 -87.5488 113.184 -86.377 C 110.889 -69.4824 110.547 -69.3848 93.1152 -66.4551 C 92.041 -66.2598 91.2109 -65.4785 91.2109 -64.3555 C 91.2109 -63.1836 92.041 -62.4512 93.1152 -62.207 C 110.596 -59.2773 111.035 -59.1309 113.184 -42.2363 C 113.33 -41.1133 114.16 -40.332 115.283 -40.332 Z M 67.1875 20.6055 C 90.625 20.6055 109.863 8.69141 118.652 -11.2793 C 119.922 -14.3066 119.531 -16.6992 118.164 -18.0664 C 116.895 -19.3359 114.648 -19.5801 112.158 -18.5547 C 107.324 -16.6504 101.514 -15.4785 94.3359 -15.4785 C 66.0645 -15.4785 47.998 -32.9102 47.998 -60.8887 C 47.998 -68.2129 49.4141 -75.6348 51.6113 -80.1758 C 52.9297 -82.959 52.7832 -85.3027 51.4648 -86.7676 C 50.0977 -88.2812 47.6562 -88.6719 44.4824 -87.3535 C 24.7559 -79.0039 11.2793 -58.6426 11.2793 -34.8633 C 11.2793 -3.4668 34.082 20.6055 67.1875 20.6055 Z M 67.2852 10.3027 C 40.1855 10.3027 21.582 -9.52148 21.582 -35.4004 C 21.582 -51.0742 29.1016 -65.0879 40.625 -73.9258 C 39.1602 -70.0195 38.2812 -64.1602 38.2812 -58.3984 C 38.2812 -26.5625 59.668 -5.76172 91.9922 -5.76172 C 97.2168 -5.76172 102.051 -6.54297 104.785 -7.42188 C 96.9727 3.56445 82.959 10.3027 67.2852 10.3027 Z"/>
  </g>
  <g id="Regular-L" transform="matrix(1 0 0 1 1376.16 1556)">
   <path d="M 82.3242 -81.4453 C 82.959 -81.4453 83.3496 -81.8359 83.4473 -82.4707 C 85.3027 -93.0176 85.3516 -93.4082 96.4355 -95.459 C 97.0703 -95.5566 97.4609 -95.9473 97.4609 -96.582 C 97.4609 -97.2656 97.0703 -97.6074 96.4355 -97.7539 C 85.3516 -100 85.3027 -100.244 83.4473 -110.742 C 83.3496 -111.377 82.959 -111.768 82.3242 -111.768 C 81.6895 -111.768 81.3477 -111.377 81.2012 -110.742 C 79.2969 -100.244 79.3945 -100 68.2617 -97.7539 C 67.5781 -97.6074 67.1875 -97.2656 67.1875 -96.582 C 67.1875 -95.9473 67.5781 -95.5566 68.2617 -95.459 C 79.4434 -93.4082 79.2969 -93.0176 81.2012 -82.4707 C 81.3477 -81.8359 81.6895 -81.4453 82.3242 -81.4453 Z M 112.451 -39.6973 C 113.477 -39.6973 114.16 -40.3809 114.307 -41.4551 C 116.504 -58.3496 116.992 -58.4961 134.229 -61.4258 C 135.352 -61.6211 136.084 -62.207 136.084 -63.2812 C 136.084 -64.3066 135.352 -64.9414 134.424 -65.1367 C 117.041 -68.1641 116.504 -68.1641 114.307 -85.1074 C 114.16 -86.1816 113.477 -86.8652 112.451 -86.8652 C 111.475 -86.8652 110.742 -86.1816 110.596 -85.1562 C 108.301 -68.2129 108.008 -68.1641 90.4785 -65.1367 C 89.5508 -64.9414 88.8184 -64.3066 88.8184 -63.2812 C 88.8184 -62.2559 89.5508 -61.6211 90.4785 -61.4258 C 108.008 -58.4961 108.496 -58.3496 110.596 -41.3574 C 110.742 -40.3809 111.475 -39.6973 112.451 -39.6973 Z M 65.3809 18.8477 C 88.2812 18.8477 106.738 7.56836 115.186 -11.7188 C 116.211 -14.1113 115.918 -16.0645 114.844 -17.1875 C 113.867 -18.2129 112.061 -18.457 110.01 -17.627 C 105.176 -15.7715 99.4141 -14.5996 92.0898 -14.5996 C 63.5742 -14.5996 45.3613 -32.2266 45.3613 -60.5469 C 45.3613 -67.8711 46.7285 -75.293 48.877 -79.7363 C 50 -81.9824 49.9023 -83.9844 48.8281 -85.1562 C 47.7539 -86.4258 45.752 -86.8164 43.0176 -85.6445 C 24.2676 -77.5391 11.2793 -57.959 11.2793 -34.7656 C 11.2793 -4.54102 33.1543 18.8477 65.3809 18.8477 Z M 65.4785 10.6445 C 38.0371 10.6445 19.4824 -9.375 19.4824 -35.4004 C 19.4824 -52.0508 27.7832 -66.6504 40.1855 -75.6348 C 38.4766 -71.3379 37.4512 -64.7949 37.4512 -58.3984 C 37.4512 -27.1484 58.5449 -6.68945 90.1855 -6.68945 C 96.1914 -6.68945 101.758 -7.56836 104.834 -8.64258 C 96.9727 3.22266 82.2266 10.6445 65.4785 10.6445 Z"/>
  </g>
  <g id="Light-L" transform="matrix(1 0 0 1 1080.75 1556)">
   <path d="M 80.6152 -81.1035 C 81.1035 -81.1035 81.3965 -81.3477 81.4941 -81.8359 C 83.2031 -92.5781 83.3984 -93.1152 94.6777 -95.0684 C 95.2637 -95.166 95.5566 -95.459 95.5566 -95.9961 C 95.5566 -96.5332 95.2637 -96.8262 94.6777 -96.9238 C 83.4473 -99.2188 83.2031 -99.6094 81.4941 -110.156 C 81.3965 -110.693 81.1035 -110.938 80.6152 -110.938 C 80.127 -110.938 79.834 -110.693 79.7363 -110.156 C 77.9297 -99.6094 77.9297 -99.2188 66.5527 -96.9238 C 66.0156 -96.8262 65.7227 -96.5332 65.7227 -95.9961 C 65.7227 -95.459 66.0156 -95.166 66.5527 -95.0684 C 77.9785 -93.1152 77.9297 -92.5781 79.7363 -81.8359 C 79.834 -81.3477 80.127 -81.1035 80.6152 -81.1035 Z M 110.742 -40.5273 C 111.523 -40.5273 112.061 -41.0156 112.207 -41.8945 C 114.648 -58.8379 114.795 -58.7891 132.08 -61.7676 C 132.959 -61.9141 133.496 -62.4023 133.496 -63.2324 C 133.496 -64.0625 132.959 -64.5508 132.178 -64.6973 C 114.844 -67.9199 114.648 -67.6758 112.207 -84.6191 C 112.061 -85.4492 111.523 -85.9863 110.742 -85.9863 C 109.961 -85.9863 109.375 -85.4492 109.277 -84.6191 C 106.787 -67.7246 106.787 -67.9199 89.3066 -64.6973 C 88.5254 -64.5508 87.9883 -64.0625 87.9883 -63.2324 C 87.9883 -62.4023 88.5254 -61.9141 89.3066 -61.7676 C 106.836 -58.7891 107.08 -58.8379 109.277 -41.7969 C 109.375 -41.0156 109.961 -40.5273 110.742 -40.5273 Z M 64.0625 17.9199 C 86.6699 17.9199 104.932 7.08008 113.33 -11.6211 C 114.209 -13.623 114.014 -15.2832 113.086 -16.2598 C 112.256 -17.1875 110.693 -17.4316 108.838 -16.6992 C 103.906 -14.7949 98.1934 -13.623 90.6738 -13.623 C 61.7676 -13.623 43.457 -31.2988 43.457 -60.498 C 43.457 -67.3828 44.6777 -74.6094 47.0703 -79.6875 C 48.0469 -81.6895 47.9492 -83.3984 46.9727 -84.4238 C 45.9961 -85.498 44.1895 -85.791 41.748 -84.668 C 23.7793 -76.2207 11.2793 -57.4707 11.2793 -34.7656 C 11.2793 -5.17578 32.1289 17.9199 64.0625 17.9199 Z M 64.1113 11.6211 C 35.8887 11.6211 17.5293 -8.93555 17.5293 -35.1562 C 17.5293 -52.9785 27.0996 -68.3105 40.5273 -77.3926 C 38.5254 -72.9492 37.3535 -65.9668 37.3535 -59.082 C 37.3535 -27.4902 57.959 -7.51953 89.502 -7.51953 C 96.0449 -7.51953 102.1 -8.59375 105.713 -9.96094 C 97.8516 3.32031 82.1777 11.6211 64.1113 11.6211 Z"/>
  </g>
  <g id="Thin-L" transform="matrix(1 0 0 1 785.744 1556)">
   <path d="M 78.3691 -80.6152 C 78.6621 -80.6152 78.8574 -80.7129 78.9551 -81.0547 C 80.4688 -91.9434 80.8594 -92.7246 92.3828 -94.5801 C 92.8223 -94.6777 93.0176 -94.873 93.0176 -95.2148 C 93.0176 -95.6055 92.8223 -95.8008 92.3828 -95.8496 C 80.957 -98.1934 80.4688 -98.7305 78.9551 -109.375 C 78.8574 -109.766 78.6621 -109.863 78.3691 -109.863 C 78.0762 -109.863 77.8809 -109.766 77.832 -109.375 C 76.1719 -98.7305 76.0254 -98.1934 64.3555 -95.8496 C 63.9648 -95.8008 63.7695 -95.6055 63.7695 -95.2148 C 63.7695 -94.873 63.9648 -94.6777 64.3555 -94.5801 C 76.123 -92.7246 76.1719 -91.9434 77.832 -81.0547 C 77.8809 -80.7129 78.0762 -80.6152 78.3691 -80.6152 Z M 108.447 -41.6016 C 108.936 -41.6016 109.326 -41.8945 109.424 -42.4316 C 112.158 -59.4238 111.914 -59.1309 129.199 -62.2559 C 129.688 -62.3535 130.078 -62.6465 130.078 -63.1836 C 130.078 -63.7207 129.688 -64.0137 129.248 -64.1113 C 112.012 -67.5293 112.158 -66.9922 109.424 -83.9355 C 109.326 -84.5215 108.936 -84.8145 108.447 -84.8145 C 108.008 -84.8145 107.617 -84.5215 107.52 -83.9355 C 104.785 -67.041 105.176 -67.5293 87.6953 -64.1113 C 87.207 -64.0137 86.8652 -63.7207 86.8652 -63.1836 C 86.8652 -62.6465 87.207 -62.3535 87.6953 -62.2559 C 105.225 -59.1309 105.225 -59.4238 107.52 -42.4316 C 107.617 -41.8945 108.008 -41.6016 108.447 -41.6016 Z M 62.3047 16.6992 C 84.6191 16.6992 102.539 6.39648 110.84 -11.4258 C 111.523 -12.9395 111.523 -14.3066 110.791 -15.0879 C 110.107 -15.8203 108.887 -16.0645 107.324 -15.4785 C 102.197 -13.5742 96.5332 -12.3047 88.8184 -12.3047 C 59.375 -12.3047 40.918 -30.0293 40.918 -60.4492 C 40.918 -66.7969 41.9434 -73.7305 44.7266 -79.5898 C 45.5078 -81.25 45.3613 -82.6172 44.4824 -83.4473 C 43.6523 -84.3262 42.1387 -84.4238 40.0879 -83.3984 C 23.1934 -74.5117 11.2793 -56.8359 11.2793 -34.7656 C 11.2793 -6.00586 30.7617 16.6992 62.3047 16.6992 Z M 62.3535 12.9395 C 33.1055 12.9395 14.9902 -8.39844 14.9902 -34.8633 C 14.9902 -54.248 26.2207 -70.5566 40.918 -79.7852 C 38.623 -75 37.207 -67.5293 37.207 -60.0586 C 37.207 -27.9785 57.1777 -8.59375 88.5742 -8.59375 C 95.8008 -8.59375 102.539 -9.96094 106.934 -11.6699 C 99.0234 3.4668 82.1289 12.9395 62.3535 12.9395 Z"/>
  </g>
  <g id="Ultralight-L" transform="matrix(1 0 0 1 489.911 1556)">
   <path d="M 77.2461 -80.3223 C 77.4414 -80.3223 77.5391 -80.3711 77.6367 -80.6641 C 79.0527 -91.6504 79.5898 -92.5293 91.2109 -94.3359 C 91.6016 -94.4336 91.6992 -94.5312 91.6992 -94.8242 C 91.6992 -95.1172 91.6016 -95.2637 91.2109 -95.3125 C 79.6387 -97.6562 79.0527 -98.2422 77.6367 -108.984 C 77.5391 -109.277 77.4414 -109.326 77.2461 -109.326 C 77.0508 -109.326 76.9043 -109.277 76.8066 -108.984 C 75.2441 -98.2422 75.0488 -97.6562 63.2324 -95.3125 C 62.8906 -95.2637 62.7441 -95.1172 62.7441 -94.8242 C 62.7441 -94.5312 62.8906 -94.4336 63.2324 -94.3359 C 75.1465 -92.5293 75.2441 -91.6504 76.8066 -80.6641 C 76.9043 -80.3711 77.0508 -80.3223 77.2461 -80.3223 Z M 107.324 -42.1387 C 107.617 -42.1387 107.91 -42.334 107.959 -42.7246 C 110.889 -59.7168 110.449 -59.3262 127.734 -62.5 C 128.076 -62.5488 128.32 -62.7441 128.32 -63.1836 C 128.32 -63.5742 128.076 -63.7695 127.734 -63.8184 C 110.547 -67.334 110.889 -66.6016 107.959 -83.5938 C 107.91 -84.0332 107.617 -84.1797 107.324 -84.1797 C 106.982 -84.1797 106.689 -84.0332 106.641 -83.5938 C 103.76 -66.6992 104.346 -67.334 86.8652 -63.8184 C 86.5234 -63.7695 86.2793 -63.5742 86.2793 -63.1836 C 86.2793 -62.7441 86.5234 -62.5488 86.8652 -62.5 C 104.395 -59.3262 104.248 -59.7168 106.641 -42.7246 C 106.689 -42.334 106.982 -42.1387 107.324 -42.1387 Z M 61.4258 16.0645 C 83.5449 16.0645 101.318 6.05469 109.57 -11.3281 C 110.156 -12.5977 110.205 -13.7695 109.619 -14.4531 C 109.033 -15.1367 107.959 -15.3809 106.494 -14.8438 C 101.318 -12.9395 95.7031 -11.6211 87.8418 -11.6211 C 58.1543 -11.6211 39.5996 -29.3945 39.5996 -60.4492 C 39.5996 -66.5039 40.5273 -73.2422 43.5059 -79.541 C 44.1895 -81.0059 43.9941 -82.2266 43.2617 -82.959 C 42.4805 -83.6914 41.1133 -83.7402 39.2578 -82.7148 C 22.8516 -73.584 11.2793 -56.4941 11.2793 -34.7656 C 11.2793 -6.44531 30.0781 16.0645 61.4258 16.0645 Z M 61.4258 13.623 C 31.6406 13.623 13.7207 -8.10547 13.7207 -34.7168 C 13.7207 -54.8828 25.7812 -71.6797 41.1133 -80.957 C 38.623 -76.0742 37.1582 -68.3105 37.1582 -60.498 C 37.1582 -28.2227 56.7871 -9.17969 88.0859 -9.17969 C 95.6543 -9.17969 102.734 -10.6934 107.52 -12.5488 C 99.6094 3.51562 82.1289 13.623 61.4258 13.623 Z"/>
  </g>
  <g id="Black-M" transform="matrix(1 0 0 1 2867.21 1126)">
   <path d="M 79.3457 -79.8828 C 80.3223 -79.8828 81.0059 -80.5664 81.1035 -81.543 C 82.2266 -89.4043 82.2266 -89.3555 90.2832 -90.7227 C 91.4062 -90.918 92.041 -91.5527 92.041 -92.4805 C 92.041 -93.457 91.4062 -94.0918 90.4785 -94.2383 C 82.1289 -95.8984 82.0801 -95.8984 81.1035 -103.418 C 81.0059 -104.395 80.3223 -105.127 79.3457 -105.127 C 78.418 -105.127 77.7344 -104.395 77.5879 -103.467 C 76.5625 -95.4102 76.5625 -95.4102 68.3105 -94.2383 C 67.3828 -94.1406 66.6992 -93.457 66.6992 -92.4805 C 66.6992 -91.5527 67.334 -90.918 68.2617 -90.7227 C 76.5625 -89.1113 76.5625 -89.1113 77.5879 -81.4453 C 77.7344 -80.5664 78.418 -79.8828 79.3457 -79.8828 Z M 61.1328 16.9922 C 81.9336 16.9922 100.586 4.63867 109.18 -14.3066 C 111.572 -19.6289 110.84 -23.7305 108.35 -25.9766 C 105.908 -28.2715 101.807 -28.7109 97.5586 -26.709 C 93.9453 -24.9512 89.0625 -24.0234 84.4238 -24.0234 C 63.4277 -24.0234 50.2441 -36.4258 50.2441 -56.8848 C 50.2441 -62.4023 51.5625 -67.8711 53.3691 -72.2656 C 55.3711 -77.1484 55.0781 -80.6152 52.832 -83.0566 C 50.3906 -85.791 46.2402 -86.0352 41.5039 -84.1309 C 21.6309 -76.1719 8.74023 -56.7383 8.74023 -35.4492 C 8.74023 -5.22461 30.9082 16.9922 61.1328 16.9922 Z M 103.32 -43.1152 C 104.834 -43.1152 105.957 -44.1895 106.152 -45.752 C 107.52 -58.2031 107.91 -58.6426 120.898 -60.5469 C 122.656 -60.8398 123.633 -61.9141 123.633 -63.3789 C 123.633 -64.8438 122.656 -65.918 121.191 -66.2109 C 107.812 -68.7012 107.52 -68.7012 106.152 -81.0547 C 105.957 -82.6172 104.834 -83.6914 103.32 -83.6914 C 101.807 -83.6914 100.684 -82.6172 100.488 -81.1035 C 98.9746 -68.2129 98.6328 -67.8223 85.498 -66.2109 C 84.0332 -66.0156 82.959 -64.8438 82.959 -63.3789 C 82.959 -61.9629 83.9844 -60.8887 85.4004 -60.5469 C 98.8281 -58.0566 98.9258 -58.0078 100.488 -45.6543 C 100.684 -44.1895 101.855 -43.1152 103.32 -43.1152 Z M 61.1328 -1.31836 C 41.5039 -1.31836 26.9531 -15.8203 26.9531 -35.4492 C 26.9531 -42.7734 29.3457 -50.9766 34.082 -57.0312 C 34.0332 -55.8105 33.9844 -54.7363 33.9844 -53.6133 C 33.9844 -25.7324 51.9043 -8.00781 80.4688 -8.00781 C 80.6641 -8.00781 80.957 -7.95898 81.25 -7.95898 C 75.6348 -3.4668 68.2617 -1.31836 61.1328 -1.31836 Z"/>
  </g>
  <g id="Heavy-M" transform="matrix(1 0 0 1 2572.46 1126)">
   <path d="M 75.9277 -77.8809 C 76.7578 -77.8809 77.3926 -78.4668 77.4902 -79.2969 C 78.7109 -87.2559 78.7109 -87.2559 86.8164 -88.7207 C 87.8418 -88.8672 88.3789 -89.4531 88.3789 -90.2832 C 88.3789 -91.1621 87.8418 -91.6992 86.9629 -91.8945 C 78.6133 -93.5059 78.6133 -93.5547 77.4902 -101.221 C 77.3926 -102.1 76.7578 -102.734 75.9277 -102.734 C 75.0488 -102.734 74.4629 -102.1 74.3164 -101.27 C 73.1934 -93.2129 73.1934 -93.1641 64.8926 -91.8945 C 64.0625 -91.748 63.4277 -91.1621 63.4277 -90.2832 C 63.4277 -89.4531 64.0137 -88.8672 64.8438 -88.7207 C 73.1934 -87.0605 73.1934 -87.0605 74.3164 -79.248 C 74.4629 -78.4668 75.0488 -77.8809 75.9277 -77.8809 Z M 58.8379 14.6973 C 78.9551 14.6973 96.6309 3.125 104.736 -14.9902 C 106.787 -19.5312 106.152 -23.0469 104.053 -25 C 101.953 -26.9531 98.4375 -27.3438 94.8242 -25.6348 C 91.1621 -23.9258 86.4258 -22.998 81.543 -22.998 C 60.3516 -22.998 46.9238 -35.7422 46.9238 -56.3965 C 46.9238 -62.0117 48.1934 -67.5781 49.9512 -71.6797 C 51.709 -75.8301 51.4648 -78.9062 49.5605 -81.0059 C 47.4609 -83.3496 43.8965 -83.5938 39.7461 -81.9336 C 21.0449 -74.4141 8.74023 -55.8594 8.74023 -35.3027 C 8.74023 -6.5918 29.7852 14.6973 58.8379 14.6973 Z M 99.707 -41.9434 C 101.074 -41.9434 102.1 -42.9199 102.295 -44.3359 C 103.711 -56.9336 104.15 -57.3242 117.188 -59.3262 C 118.799 -59.5703 119.727 -60.498 119.727 -61.8652 C 119.727 -63.1836 118.799 -64.1602 117.48 -64.4531 C 104.053 -66.8945 103.711 -66.8945 102.295 -79.3945 C 102.1 -80.8594 101.074 -81.7871 99.707 -81.7871 C 98.3398 -81.7871 97.3633 -80.8594 97.168 -79.4922 C 95.6543 -66.5039 95.2637 -66.2109 82.0312 -64.4531 C 80.7129 -64.2578 79.7363 -63.1836 79.7363 -61.8652 C 79.7363 -60.5469 80.6641 -59.6191 81.9824 -59.3262 C 95.4102 -56.8848 95.6055 -56.7871 97.168 -44.2383 C 97.3633 -42.9199 98.3887 -41.9434 99.707 -41.9434 Z M 58.8379 -1.07422 C 38.9648 -1.07422 24.4141 -15.7227 24.4141 -35.4492 C 24.4141 -43.9453 27.5879 -52.7832 33.3496 -59.0332 C 33.0078 -57.373 32.8125 -55.3711 32.8125 -53.418 C 32.8125 -26.416 50.4395 -9.08203 78.0762 -9.08203 C 79.248 -9.08203 80.4199 -9.22852 81.1523 -9.375 C 75.4395 -3.95508 67.1875 -1.07422 58.8379 -1.07422 Z"/>
  </g>
  <g id="Bold-M" transform="matrix(1 0 0 1 2277.97 1126)">
   <path d="M 72.0703 -75.5859 C 72.8027 -75.5859 73.3398 -76.123 73.4375 -76.8555 C 74.7559 -84.8145 74.707 -84.9121 83.0078 -86.4258 C 83.8379 -86.5723 84.3262 -87.0605 84.3262 -87.793 C 84.3262 -88.5742 83.8379 -89.0625 83.1055 -89.209 C 74.6582 -90.8691 74.707 -90.918 73.4375 -98.7305 C 73.3398 -99.5117 72.8027 -100.049 72.0703 -100.049 C 71.2891 -100.049 70.8008 -99.5117 70.7031 -98.7793 C 69.3848 -90.7227 69.4336 -90.625 61.084 -89.209 C 60.3516 -89.1113 59.8145 -88.5742 59.8145 -87.793 C 59.8145 -87.0605 60.3027 -86.5723 61.0352 -86.4258 C 69.4336 -84.8145 69.3848 -84.7168 70.7031 -76.8066 C 70.8008 -76.123 71.2891 -75.5859 72.0703 -75.5859 Z M 56.25 12.1094 C 75.6348 12.1094 92.1875 1.41602 99.7559 -15.7227 C 101.416 -19.3848 100.879 -22.2656 99.1699 -23.877 C 97.5098 -25.4395 94.7266 -25.7812 91.748 -24.4141 C 88.0859 -22.8027 83.3984 -21.9238 78.2715 -21.9238 C 56.8848 -21.9238 43.2617 -34.9609 43.2617 -55.8594 C 43.2617 -61.5723 44.4824 -67.2852 46.1426 -70.9961 C 47.6074 -74.4141 47.4121 -76.9531 45.8984 -78.7109 C 44.1895 -80.6152 41.2598 -80.9082 37.793 -79.4922 C 20.3613 -72.4609 8.74023 -54.9316 8.74023 -35.1562 C 8.74023 -8.1543 28.5645 12.1094 56.25 12.1094 Z M 95.7031 -40.6738 C 96.9238 -40.6738 97.8027 -41.5039 97.9492 -42.7734 C 99.4141 -55.5664 99.9023 -55.8594 113.086 -57.959 C 114.453 -58.1543 115.283 -58.9355 115.283 -60.2051 C 115.283 -61.377 114.453 -62.207 113.33 -62.4512 C 99.8535 -64.8438 99.4141 -64.8926 97.9492 -77.5879 C 97.8027 -78.8574 96.9238 -79.6875 95.7031 -79.6875 C 94.5312 -79.6875 93.6523 -78.8574 93.457 -77.6367 C 91.8945 -64.6484 91.5039 -64.3555 78.125 -62.4512 C 77.002 -62.2559 76.123 -61.377 76.123 -60.2051 C 76.123 -59.0332 76.9531 -58.2031 78.125 -57.959 C 91.6016 -55.5664 91.8945 -55.4688 93.457 -42.6758 C 93.6523 -41.5039 94.5312 -40.6738 95.7031 -40.6738 Z M 56.2988 -0.78125 C 36.084 -0.78125 21.582 -15.625 21.582 -35.4492 C 21.582 -45.2637 25.6348 -54.7852 32.5195 -61.2793 C 31.8848 -59.082 31.543 -56.1035 31.543 -53.2227 C 31.543 -27.2461 48.7793 -10.3027 75.3906 -10.3027 C 77.6855 -10.3027 79.834 -10.5957 81.0059 -10.9375 C 75.1465 -4.49219 66.0156 -0.78125 56.2988 -0.78125 Z"/>
  </g>
  <g id="Semibold-M" transform="matrix(1 0 0 1 1982.77 1126)">
   <path d="M 69.4336 -74.0234 C 70.1172 -74.0234 70.5566 -74.4629 70.6543 -75.1465 C 72.0215 -83.2031 72.0215 -83.3008 80.3223 -84.8633 C 81.1035 -85.0098 81.543 -85.4004 81.543 -86.1328 C 81.543 -86.8164 81.1035 -87.207 80.4199 -87.3535 C 71.9727 -89.0625 72.0215 -89.1602 70.6543 -97.0703 C 70.5566 -97.7539 70.1172 -98.1934 69.4336 -98.1934 C 68.7012 -98.1934 68.2617 -97.7539 68.1641 -97.0703 C 66.7969 -89.0137 66.8457 -88.916 58.4473 -87.3535 C 57.7637 -87.2559 57.2754 -86.8164 57.2754 -86.1328 C 57.2754 -85.4004 57.7637 -85.0098 58.3984 -84.8633 C 66.8945 -83.252 66.7969 -83.1055 68.1641 -75.0977 C 68.2617 -74.4629 68.7012 -74.0234 69.4336 -74.0234 Z M 54.4922 10.3027 C 73.291 10.3027 89.1113 0.244141 96.3379 -16.2109 C 97.7051 -19.3359 97.2656 -21.7285 95.8496 -23.0957 C 94.4824 -24.4141 92.1387 -24.6582 89.5996 -23.584 C 85.9375 -22.0215 81.3477 -21.1426 76.0742 -21.1426 C 54.4922 -21.1426 40.7227 -34.375 40.7227 -55.5176 C 40.7227 -61.2793 41.8945 -67.041 43.5059 -70.5566 C 44.7754 -73.3887 44.6289 -75.6348 43.3594 -77.1484 C 41.9434 -78.7109 39.502 -79.0527 36.4258 -77.832 C 19.873 -71.1426 8.74023 -54.248 8.74023 -35.0586 C 8.74023 -9.22852 27.7344 10.3027 54.4922 10.3027 Z M 92.9688 -39.7949 C 94.043 -39.7949 94.8242 -40.5273 94.9707 -41.6992 C 96.4844 -54.5898 97.0215 -54.8828 110.205 -56.9824 C 111.475 -57.1777 112.256 -57.9102 112.256 -59.0332 C 112.256 -60.1074 111.475 -60.8398 110.449 -61.0352 C 96.9727 -63.3789 96.4844 -63.4766 94.9707 -76.3672 C 94.8242 -77.4902 94.043 -78.2715 92.9688 -78.2715 C 91.8457 -78.2715 91.0645 -77.4902 90.918 -76.416 C 89.3066 -63.3301 88.916 -63.1348 75.4883 -61.0352 C 74.4141 -60.8887 73.6816 -60.1074 73.6816 -59.0332 C 73.6816 -57.959 74.4141 -57.2266 75.4395 -56.9824 C 88.9648 -54.6875 89.3555 -54.541 90.918 -41.6016 C 91.0645 -40.5273 91.8945 -39.7949 92.9688 -39.7949 Z M 54.541 -0.585938 C 34.1309 -0.585938 19.6289 -15.5762 19.6289 -35.4492 C 19.6289 -46.1426 24.2676 -56.2012 31.9336 -62.8418 C 31.1523 -60.2539 30.6641 -56.5918 30.6641 -53.0762 C 30.6641 -27.7832 47.6562 -11.1328 73.5352 -11.1328 C 76.5625 -11.1328 79.3945 -11.5234 80.9082 -12.0117 C 74.9512 -4.83398 65.1855 -0.585938 54.541 -0.585938 Z"/>
  </g>
  <g id="Medium-M" transform="matrix(1 0 0 1 1687.2 1126)">
   <path d="M 67.3828 -72.8027 C 68.0176 -72.8027 68.4082 -73.2422 68.5547 -73.8281 C 69.9707 -81.9336 69.9219 -82.0801 78.3203 -83.6426 C 79.0039 -83.7891 79.3945 -84.1797 79.3945 -84.8145 C 79.3945 -85.4492 79.0039 -85.8398 78.3691 -85.9863 C 69.9219 -87.6465 69.9707 -87.793 68.5547 -95.752 C 68.4082 -96.3867 68.0176 -96.8262 67.3828 -96.8262 C 66.748 -96.8262 66.3574 -96.3867 66.2598 -95.8008 C 64.7949 -87.6953 64.8926 -87.5977 56.4453 -85.9863 C 55.8105 -85.8398 55.3711 -85.4492 55.3711 -84.8145 C 55.3711 -84.1797 55.8105 -83.7891 56.4453 -83.6426 C 64.8926 -82.0312 64.7949 -81.8848 66.2598 -73.8281 C 66.3574 -73.2422 66.748 -72.8027 67.3828 -72.8027 Z M 53.1738 8.93555 C 71.582 8.93555 86.8164 -0.634766 93.7012 -16.6016 C 94.873 -19.2383 94.5312 -21.3379 93.3105 -22.5098 C 92.1387 -23.6328 90.1855 -23.877 88.0371 -22.9492 C 84.3262 -21.4355 79.7852 -20.5566 74.3652 -20.5566 C 52.6367 -20.5566 38.7695 -33.9844 38.7695 -55.2246 C 38.7695 -61.084 39.9414 -66.8945 41.5039 -70.2148 C 42.627 -72.6562 42.5293 -74.6582 41.4062 -75.9277 C 40.2344 -77.2949 38.1348 -77.6367 35.4004 -76.5137 C 19.5312 -70.1172 8.74023 -53.7598 8.74023 -35.0098 C 8.74023 -10.0586 27.0996 8.93555 53.1738 8.93555 Z M 90.8691 -39.1113 C 91.8457 -39.1113 92.5781 -39.7949 92.7246 -40.8691 C 94.2871 -53.8574 94.7754 -54.1016 108.057 -56.2988 C 109.229 -56.4453 109.961 -57.0801 109.961 -58.1543 C 109.961 -59.1309 109.229 -59.8145 108.301 -60.0098 C 94.7754 -62.3047 94.2871 -62.4512 92.7246 -75.3906 C 92.5781 -76.4648 91.8457 -77.1484 90.8691 -77.1484 C 89.8438 -77.1484 89.1113 -76.4648 89.0137 -75.4395 C 87.3535 -62.3535 86.9629 -62.1582 73.4375 -60.0098 C 72.5098 -59.8145 71.7773 -59.1309 71.7773 -58.1543 C 71.7773 -57.1289 72.4609 -56.4453 73.4375 -56.2988 C 87.0117 -54.0039 87.4023 -53.8086 89.0137 -40.7715 C 89.1113 -39.7949 89.8438 -39.1113 90.8691 -39.1113 Z M 53.2227 -0.439453 C 32.6172 -0.439453 18.1152 -15.5273 18.1152 -35.4492 C 18.1152 -46.8262 23.2422 -57.2266 31.543 -64.0137 C 30.5664 -61.1816 29.9805 -56.9824 29.9805 -52.9297 C 29.9805 -28.1738 46.8262 -11.7676 72.1191 -11.7676 C 75.7324 -11.7676 79.1016 -12.2559 80.8594 -12.8418 C 74.8047 -5.12695 64.5508 -0.439453 53.2227 -0.439453 Z"/>
  </g>
  <g id="Regular-M" transform="matrix(1 0 0 1 1392.01 1126)">
   <path d="M 64.7949 -71.2402 C 65.332 -71.2402 65.6738 -71.6309 65.7715 -72.168 C 67.2852 -80.2734 67.2363 -80.4688 75.7324 -82.1289 C 76.2695 -82.2266 76.6602 -82.5195 76.6602 -83.1055 C 76.6602 -83.7402 76.2695 -84.0332 75.7324 -84.1309 C 67.2363 -85.8398 67.2852 -85.9863 65.7715 -94.0918 C 65.6738 -94.6289 65.332 -95.0195 64.7949 -95.0195 C 64.209 -95.0195 63.8672 -94.6289 63.7695 -94.0918 C 62.207 -85.9863 62.3535 -85.8398 53.8086 -84.1309 C 53.2715 -84.0332 52.9297 -83.7402 52.9297 -83.1055 C 52.9297 -82.5195 53.2715 -82.2266 53.8086 -82.1289 C 62.3535 -80.4688 62.207 -80.2734 63.7695 -72.168 C 63.8672 -71.6309 64.209 -71.2402 64.7949 -71.2402 Z M 88.1348 -38.2324 C 89.0137 -38.2324 89.6484 -38.8672 89.7949 -39.7949 C 91.3574 -52.9297 91.8945 -53.125 105.273 -55.3223 C 106.299 -55.5176 106.934 -56.0059 106.934 -56.9824 C 106.934 -57.9102 106.299 -58.4961 105.469 -58.6426 C 91.8945 -60.9375 91.3574 -61.0352 89.7949 -74.1699 C 89.6484 -75.0977 89.0137 -75.7324 88.1348 -75.7324 C 87.2559 -75.7324 86.5723 -75.0977 86.4746 -74.2188 C 84.7656 -61.084 84.375 -60.9375 70.8008 -58.6426 C 69.9707 -58.4961 69.3359 -57.9102 69.3359 -56.9824 C 69.3359 -56.0547 69.9707 -55.5176 70.8008 -55.3223 C 84.375 -53.125 84.8633 -52.9297 86.4746 -39.6973 C 86.5723 -38.8672 87.2559 -38.2324 88.1348 -38.2324 Z M 51.416 7.17773 C 69.2871 7.17773 83.7402 -1.80664 90.332 -17.0898 C 91.2109 -19.1895 90.918 -20.8008 89.9902 -21.7773 C 89.1602 -22.6074 87.6465 -22.8027 85.9375 -22.1191 C 82.2266 -20.6543 77.7832 -19.8242 72.168 -19.8242 C 50.293 -19.8242 36.2305 -33.4473 36.2305 -54.8828 C 36.2305 -60.791 37.4023 -66.6504 38.916 -69.7266 C 39.8438 -71.6797 39.7949 -73.3398 38.916 -74.3652 C 37.9883 -75.4395 36.3281 -75.7812 34.082 -74.8535 C 19.043 -68.75 8.74023 -53.125 8.74023 -34.8633 C 8.74023 -11.084 26.2695 7.17773 51.416 7.17773 Z M 51.5137 -0.244141 C 30.6641 -0.244141 16.1621 -15.4297 16.1621 -35.4492 C 16.1621 -47.7539 21.9238 -58.5938 30.957 -65.5273 C 29.7852 -62.3535 29.1016 -57.4707 29.1016 -52.7832 C 29.1016 -28.7598 45.7031 -12.6465 70.3125 -12.6465 C 74.6582 -12.6465 78.6621 -13.1836 80.7617 -13.916 C 74.6582 -5.46875 63.7695 -0.244141 51.5137 -0.244141 Z"/>
  </g>
  <g id="Light-M" transform="matrix(1 0 0 1 1096.44 1126)">
   <path d="M 63.2324 -70.9473 C 63.6719 -70.9473 63.9648 -71.1914 64.0625 -71.6309 C 65.4297 -79.8828 65.5273 -80.2246 74.1699 -81.7871 C 74.6094 -81.8848 74.9023 -82.1289 74.9023 -82.6172 C 74.9023 -83.0566 74.6094 -83.3496 74.1699 -83.3984 C 65.5273 -85.1562 65.4297 -85.4004 64.0625 -93.5547 C 63.9648 -93.9941 63.6719 -94.2871 63.2324 -94.2871 C 62.793 -94.2871 62.5488 -93.9941 62.4512 -93.5547 C 61.0352 -85.4004 61.0352 -85.1562 52.3438 -83.3984 C 51.8555 -83.3496 51.5625 -83.0566 51.5625 -82.6172 C 51.5625 -82.1289 51.8555 -81.8848 52.3438 -81.7871 C 61.084 -80.2246 61.0352 -79.8828 62.4512 -71.6309 C 62.5488 -71.1914 62.793 -70.9473 63.2324 -70.9473 Z M 86.5723 -38.9648 C 87.3047 -38.9648 87.793 -39.4531 87.8906 -40.1855 C 89.6973 -53.3203 89.9414 -53.3691 103.32 -55.6641 C 104.102 -55.7617 104.639 -56.2012 104.639 -56.9336 C 104.639 -57.666 104.102 -58.1055 103.467 -58.252 C 89.9902 -60.6934 89.6973 -60.5957 87.8906 -73.7305 C 87.793 -74.4629 87.3047 -74.9512 86.5723 -74.9512 C 85.8887 -74.9512 85.4004 -74.4629 85.3027 -73.7305 C 83.4473 -60.6445 83.3008 -60.6934 69.7266 -58.252 C 69.043 -58.1055 68.5547 -57.666 68.5547 -56.9336 C 68.5547 -56.2012 69.043 -55.7617 69.7266 -55.6641 C 83.3008 -53.3691 83.5938 -53.3203 85.3027 -40.1367 C 85.4004 -39.4531 85.8887 -38.9648 86.5723 -38.9648 Z M 50.2441 6.34766 C 67.8711 6.34766 82.1289 -2.24609 88.6719 -16.9922 C 89.4043 -18.7012 89.209 -20.1172 88.4277 -20.9473 C 87.6953 -21.6797 86.4258 -21.875 84.8633 -21.2891 C 81.0547 -19.8242 76.6602 -18.9453 70.8984 -18.9453 C 48.6816 -18.9453 34.5215 -32.6172 34.5215 -54.834 C 34.5215 -60.3516 35.5469 -66.0645 37.3047 -69.6777 C 38.1348 -71.3867 38.0371 -72.8027 37.2559 -73.6816 C 36.4258 -74.6094 34.9609 -74.8535 32.9102 -73.9746 C 18.6523 -67.5781 8.74023 -52.6855 8.74023 -34.8633 C 8.74023 -11.6699 25.3418 6.34766 50.2441 6.34766 Z M 50.293 0.634766 C 28.7598 0.634766 14.4531 -15.0391 14.4531 -35.2539 C 14.4531 -48.584 21.2891 -60.1074 31.25 -67.1387 C 29.834 -63.7695 29.0039 -58.5449 29.0039 -53.418 C 29.0039 -29.0527 45.166 -13.3789 69.6777 -13.3789 C 74.5117 -13.3789 78.9551 -14.1113 81.543 -15.0391 C 75.4395 -5.37109 63.7207 0.634766 50.293 0.634766 Z"/>
  </g>
  <g id="Thin-M" transform="matrix(1 0 0 1 801.271 1126)">
   <path d="M 61.2305 -70.5078 C 61.5234 -70.5078 61.6699 -70.6055 61.7188 -70.9473 C 62.9395 -79.3457 63.2324 -79.8828 72.1191 -81.3477 C 72.4609 -81.3965 72.6562 -81.5918 72.6562 -81.8848 C 72.6562 -82.2266 72.4609 -82.373 72.1191 -82.4707 C 63.2812 -84.2285 62.9395 -84.6191 61.7188 -92.8711 C 61.6699 -93.1641 61.5234 -93.3105 61.2305 -93.3105 C 60.9375 -93.3105 60.791 -93.1641 60.7422 -92.8711 C 59.4238 -84.6191 59.3262 -84.2285 50.3418 -82.4707 C 50 -82.373 49.8047 -82.2266 49.8047 -81.8848 C 49.8047 -81.5918 50 -81.3965 50.3418 -81.3477 C 59.375 -79.8828 59.4238 -79.3457 60.7422 -70.9473 C 60.791 -70.6055 60.9375 -70.5078 61.2305 -70.5078 Z M 84.5703 -39.9414 C 85.0098 -39.9414 85.3027 -40.1855 85.4004 -40.6738 C 87.4512 -53.8574 87.3535 -53.6621 100.732 -56.0547 C 101.221 -56.1523 101.562 -56.3965 101.562 -56.8848 C 101.562 -57.373 101.221 -57.666 100.781 -57.7637 C 87.4023 -60.3516 87.4512 -59.9609 85.4004 -73.1445 C 85.3027 -73.6328 85.0098 -73.877 84.5703 -73.877 C 84.1309 -73.877 83.7891 -73.6328 83.6914 -73.1445 C 81.6406 -60.0098 81.8359 -60.3516 68.3105 -57.7637 C 67.8711 -57.666 67.5293 -57.373 67.5293 -56.8848 C 67.5293 -56.3965 67.8711 -56.1523 68.3105 -56.0547 C 81.8848 -53.6621 81.9336 -53.8574 83.6914 -40.6738 C 83.7891 -40.1855 84.1309 -39.9414 84.5703 -39.9414 Z M 48.6816 5.27344 C 66.0156 5.27344 79.9805 -2.83203 86.4258 -16.8457 C 87.0117 -18.1152 86.9629 -19.2383 86.377 -19.873 C 85.791 -20.5078 84.8145 -20.7031 83.4961 -20.2148 C 79.5898 -18.7012 75.1953 -17.7246 69.2383 -17.7246 C 46.5332 -17.7246 32.2266 -31.4941 32.2266 -54.7852 C 32.2266 -59.8145 33.0566 -65.2344 35.1562 -69.6289 C 35.791 -70.9473 35.6934 -72.1191 35.0098 -72.8027 C 34.3262 -73.5352 33.1055 -73.6816 31.4453 -72.8516 C 18.1152 -66.0156 8.74023 -52.0996 8.74023 -34.8633 C 8.74023 -12.4023 24.1211 5.27344 48.6816 5.27344 Z M 48.6816 1.80664 C 26.2695 1.80664 12.1582 -14.5508 12.1582 -35.0098 C 12.1582 -49.707 20.5078 -62.1094 31.6406 -69.2383 C 29.8828 -65.625 28.8574 -59.9121 28.8574 -54.248 C 28.8574 -29.4922 44.4824 -14.3555 68.8477 -14.3555 C 74.2676 -14.3555 79.3457 -15.3809 82.6172 -16.6016 C 76.5137 -5.27344 63.6719 1.80664 48.6816 1.80664 Z"/>
  </g>
  <g id="Ultralight-M" transform="matrix(1 0 0 1 505.341 1126)">
   <path d="M 60.2051 -70.2637 C 60.4004 -70.2637 60.498 -70.3125 60.5469 -70.5566 C 61.6699 -79.0527 62.0605 -79.6875 71.0449 -81.1035 C 71.3379 -81.1523 71.4844 -81.2988 71.4844 -81.543 C 71.4844 -81.7871 71.3379 -81.8848 71.0449 -81.9824 C 62.1094 -83.7891 61.6699 -84.2285 60.5469 -92.5293 C 60.498 -92.7734 60.4004 -92.8223 60.2051 -92.8223 C 60.0098 -92.8223 59.9121 -92.7734 59.8145 -92.5293 C 58.5938 -84.2285 58.4473 -83.7891 49.3652 -81.9824 C 49.0723 -81.8848 48.9258 -81.7871 48.9258 -81.543 C 48.9258 -81.2988 49.0723 -81.1523 49.3652 -81.1035 C 58.5449 -79.6875 58.5938 -79.0527 59.8145 -70.5566 C 59.9121 -70.3125 60.0098 -70.2637 60.2051 -70.2637 Z M 83.4961 -40.4297 C 83.7891 -40.4297 84.0332 -40.5762 84.1309 -40.9668 C 86.2793 -54.1016 86.0352 -53.8574 99.4629 -56.2988 C 99.7559 -56.3477 100 -56.543 100 -56.8848 C 100 -57.2266 99.7559 -57.4219 99.4141 -57.4707 C 86.084 -60.1562 86.2793 -59.668 84.1309 -72.8027 C 84.0332 -73.1934 83.7891 -73.3398 83.4961 -73.3398 C 83.2031 -73.3398 82.959 -73.1934 82.9102 -72.8027 C 80.7129 -59.7168 81.1035 -60.1562 67.5781 -57.4707 C 67.2852 -57.4219 67.041 -57.2266 67.041 -56.8848 C 67.041 -56.543 67.2852 -56.3477 67.5781 -56.2988 C 81.1523 -53.8574 81.1035 -54.1016 82.9102 -40.9668 C 82.959 -40.5762 83.2031 -40.4297 83.4961 -40.4297 Z M 47.9004 4.6875 C 65.0879 4.6875 78.9062 -3.125 85.3027 -16.748 C 85.791 -17.7734 85.791 -18.75 85.3027 -19.3359 C 84.8145 -19.873 83.9844 -20.0684 82.7637 -19.6289 C 78.8086 -18.1152 74.4141 -17.1387 68.3594 -17.1387 C 45.4102 -17.1387 31.1035 -30.9082 31.1035 -54.7852 C 31.1035 -59.5215 31.8359 -64.8438 34.082 -69.5801 C 34.6191 -70.752 34.5215 -71.7773 33.8867 -72.3633 C 33.252 -72.998 32.1777 -73.0469 30.6641 -72.2168 C 17.8223 -65.2344 8.74023 -51.8066 8.74023 -34.8633 C 8.74023 -12.793 23.5352 4.6875 47.9004 4.6875 Z M 47.8516 2.44141 C 24.9512 2.44141 11.0352 -14.3066 11.0352 -34.8633 C 11.0352 -50.2441 20.1172 -63.1348 31.8359 -70.3125 C 29.9316 -66.5527 28.8086 -60.6445 28.8086 -54.6875 C 28.8086 -29.7363 44.0918 -14.8438 68.4082 -14.8438 C 74.1699 -14.8438 79.541 -16.0156 83.1543 -17.3828 C 77.0508 -5.22461 63.623 2.44141 47.8516 2.44141 Z"/>
  </g>
  <g id="Black-S" transform="matrix(1 0 0 1 2881.69 696)">
   <path d="M 61.9141 -70.0684 C 62.6465 -70.0684 63.1836 -70.6055 63.2812 -71.3379 C 64.1602 -77.4902 64.1602 -77.4902 70.459 -78.5645 C 71.3379 -78.7109 71.8262 -79.1992 71.8262 -79.9316 C 71.8262 -80.6641 71.3379 -81.1523 70.6055 -81.2988 C 64.0625 -82.5684 64.0625 -82.5684 63.2812 -88.4766 C 63.1836 -89.2578 62.6465 -89.7949 61.9141 -89.7949 C 61.1816 -89.7949 60.6445 -89.2578 60.5469 -88.5254 C 59.7168 -82.2266 59.7168 -82.2266 53.2715 -81.2988 C 52.5391 -81.2012 52.002 -80.6641 52.002 -79.9316 C 52.002 -79.1992 52.4902 -78.7109 53.2227 -78.5645 C 59.7168 -77.2949 59.7168 -77.2949 60.5469 -71.2891 C 60.6445 -70.6055 61.1816 -70.0684 61.9141 -70.0684 Z M 47.7051 5.51758 C 63.9648 5.51758 78.5156 -4.10156 85.2051 -18.8965 C 87.0605 -22.998 86.4746 -26.1719 84.5703 -27.9297 C 82.666 -29.6875 79.4922 -30.0293 76.2207 -28.4668 C 73.3887 -27.0996 69.5801 -26.3672 65.918 -26.3672 C 49.4629 -26.3672 39.1113 -36.1328 39.1113 -52.1484 C 39.1113 -56.4941 40.1367 -60.791 41.5527 -64.209 C 43.1152 -67.9688 42.8711 -70.6543 41.1621 -72.5586 C 39.2578 -74.6582 36.0352 -74.8535 32.373 -73.3887 C 16.8945 -67.1875 6.83594 -52.002 6.83594 -35.4004 C 6.83594 -11.8164 24.1211 5.51758 47.7051 5.51758 Z M 80.6641 -41.3086 C 81.8359 -41.3086 82.7148 -42.1387 82.8613 -43.3594 C 83.9355 -53.125 84.2773 -53.4668 94.4336 -54.9805 C 95.8008 -55.1758 96.582 -56.0059 96.582 -57.1777 C 96.582 -58.3008 95.8008 -59.1309 94.6777 -59.375 C 84.1797 -61.3281 83.9355 -61.3281 82.8613 -70.9961 C 82.7148 -72.2168 81.8359 -73.0469 80.6641 -73.0469 C 79.4922 -73.0469 78.6133 -72.2168 78.4668 -71.0449 C 77.2949 -60.9375 77.002 -60.6445 66.6992 -59.375 C 65.5762 -59.2285 64.7461 -58.3008 64.7461 -57.1777 C 64.7461 -56.0547 65.5273 -55.2246 66.6504 -54.9805 C 77.1484 -53.0273 77.2461 -52.9785 78.4668 -43.2617 C 78.6133 -42.1387 79.541 -41.3086 80.6641 -41.3086 Z M 47.7051 -8.64258 C 32.3242 -8.64258 20.9473 -20.0195 20.9473 -35.4004 C 20.9473 -41.2109 22.8516 -47.7051 26.6113 -52.4414 C 26.5625 -51.4648 26.5137 -50.5371 26.5137 -49.6094 C 26.5137 -27.832 40.5273 -13.9648 62.8418 -13.9648 L 63.623 -13.9648 C 59.2285 -10.4004 53.3691 -8.64258 47.7051 -8.64258 Z"/>
  </g>
  <g id="Heavy-S" transform="matrix(1 0 0 1 2586.35 696)">
   <path d="M 59.4727 -68.5547 C 60.1074 -68.5547 60.5957 -69.043 60.6934 -69.7266 C 61.6699 -75.8789 61.6211 -75.9277 68.0176 -77.0508 C 68.7988 -77.1973 69.2383 -77.6367 69.2383 -78.3203 C 69.2383 -79.0039 68.7988 -79.4434 68.1152 -79.541 C 61.5723 -80.8594 61.6211 -80.8594 60.6934 -86.8652 C 60.5957 -87.5488 60.1074 -88.0371 59.4727 -88.0371 C 58.7891 -88.0371 58.3008 -87.5488 58.2031 -86.9141 C 57.2754 -80.6152 57.2754 -80.5664 50.8301 -79.541 C 50.1465 -79.4434 49.6582 -79.0039 49.6582 -78.3203 C 49.6582 -77.6367 50.0977 -77.1973 50.7812 -77.0508 C 57.2754 -75.7812 57.2754 -75.7324 58.2031 -69.6777 C 58.3008 -69.043 58.7891 -68.5547 59.4727 -68.5547 Z M 46.0938 3.85742 C 61.8164 3.85742 75.6348 -5.22461 81.9824 -19.4336 C 83.5938 -22.9492 83.0566 -25.7324 81.4453 -27.2461 C 79.7852 -28.7598 77.0508 -29.0527 74.2188 -27.7344 C 71.3867 -26.416 67.6758 -25.7324 63.8672 -25.7324 C 47.2656 -25.7324 36.7676 -35.6934 36.7676 -51.8066 C 36.7676 -56.25 37.793 -60.6445 39.1113 -63.7695 C 40.5273 -66.9922 40.2832 -69.3848 38.8184 -71.0449 C 37.207 -72.9004 34.4238 -73.0957 31.1523 -71.8262 C 16.4551 -65.9668 6.83594 -51.416 6.83594 -35.3027 C 6.83594 -12.793 23.3887 3.85742 46.0938 3.85742 Z M 78.0762 -40.332 C 79.1992 -40.332 79.9805 -41.1133 80.127 -42.2363 C 81.2012 -52.1484 81.5918 -52.4414 91.8457 -54.0039 C 93.1152 -54.1992 93.8477 -54.9316 93.8477 -56.0059 C 93.8477 -57.0801 93.1152 -57.8125 92.041 -58.0566 C 81.543 -59.9609 81.2012 -60.0098 80.127 -69.8242 C 79.9805 -70.9473 79.1992 -71.6797 78.0762 -71.6797 C 77.002 -71.6797 76.2207 -70.9473 76.0742 -69.873 C 74.9023 -59.7168 74.5605 -59.4238 64.1602 -58.0566 C 63.1348 -57.9102 62.3535 -57.0801 62.3535 -56.0059 C 62.3535 -54.9805 63.0859 -54.1992 64.1113 -54.0039 C 74.6582 -52.0996 74.8535 -52.002 76.0742 -42.1387 C 76.2207 -41.1133 77.0508 -40.332 78.0762 -40.332 Z M 46.0938 -8.54492 C 30.5664 -8.54492 19.1895 -19.9707 19.1895 -35.4492 C 19.1895 -41.9922 21.582 -48.9258 26.0254 -53.8086 C 25.7812 -52.4902 25.6348 -50.9277 25.6348 -49.4141 C 25.6348 -28.3203 39.4531 -14.6973 61.084 -14.6973 C 62.0117 -14.6973 62.9395 -14.7949 63.4277 -14.8926 C 58.9355 -10.7422 52.5391 -8.54492 46.0938 -8.54492 Z"/>
  </g>
  <g id="Bold-S" transform="matrix(1 0 0 1 2291.2 696)">
   <path d="M 56.6895 -66.8457 C 57.3242 -66.8457 57.7148 -67.2852 57.8125 -67.8711 C 58.8867 -74.1211 58.8379 -74.1699 65.2832 -75.3418 C 65.918 -75.4395 66.3574 -75.8301 66.3574 -76.4648 C 66.3574 -77.0996 65.918 -77.4902 65.332 -77.5879 C 58.7891 -78.9062 58.8379 -78.9551 57.8125 -85.0586 C 57.7148 -85.6934 57.3242 -86.084 56.6895 -86.084 C 56.0547 -86.084 55.6641 -85.6934 55.5664 -85.0586 C 54.541 -78.7598 54.5898 -78.7109 48.0957 -77.5879 C 47.4609 -77.4902 47.0215 -77.0996 47.0215 -76.4648 C 47.0215 -75.8301 47.4609 -75.4395 48.0469 -75.3418 C 54.5898 -74.0723 54.541 -74.0234 55.5664 -67.8711 C 55.6641 -67.2852 56.0547 -66.8457 56.6895 -66.8457 Z M 44.2871 1.95312 C 59.4727 1.95312 72.4609 -6.44531 78.3691 -19.9707 C 79.6875 -22.9492 79.248 -25.1953 77.9297 -26.5137 C 76.6113 -27.7344 74.3652 -27.9785 72.0215 -26.9043 C 69.1895 -25.6836 65.5273 -25 61.5234 -25 C 44.8242 -25 34.1797 -35.2051 34.1797 -51.3672 C 34.1797 -55.957 35.1562 -60.498 36.377 -63.2324 C 37.5977 -65.9668 37.4512 -68.0176 36.2305 -69.3848 C 34.9121 -70.8984 32.5684 -71.1426 29.7852 -70.0684 C 16.0156 -64.6484 6.83594 -50.7324 6.83594 -35.2051 C 6.83594 -13.916 22.5586 1.95312 44.2871 1.95312 Z M 75.2441 -39.2578 C 76.2207 -39.2578 76.9531 -39.9414 77.0508 -41.0156 C 78.1738 -51.0254 78.6133 -51.2695 88.916 -52.9297 C 90.0879 -53.0762 90.7227 -53.7109 90.7227 -54.7363 C 90.7227 -55.7129 90.0879 -56.3477 89.1113 -56.543 C 78.5645 -58.3984 78.1738 -58.4961 77.0508 -68.457 C 76.9531 -69.4824 76.2207 -70.2148 75.2441 -70.2148 C 74.2188 -70.2148 73.5352 -69.4824 73.3887 -68.5059 C 72.168 -58.3008 71.8262 -58.0566 61.3281 -56.543 C 60.4004 -56.3965 59.7168 -55.7129 59.7168 -54.7363 C 59.7168 -53.7598 60.4004 -53.0762 61.3281 -52.9297 C 71.875 -51.0742 72.168 -50.9277 73.3887 -40.918 C 73.5352 -39.9414 74.2676 -39.2578 75.2441 -39.2578 Z M 44.3359 -8.44727 C 28.6133 -8.44727 17.2363 -19.9707 17.2363 -35.4492 C 17.2363 -42.9199 20.166 -50.2441 25.3418 -55.3223 C 24.9512 -53.6133 24.6582 -51.3672 24.6582 -49.1699 C 24.6582 -28.9062 38.2812 -15.5762 59.1309 -15.5762 C 60.8398 -15.5762 62.4023 -15.7227 63.2324 -15.9668 C 58.6426 -11.1816 51.6602 -8.44727 44.3359 -8.44727 Z"/>
  </g>
  <g id="Semibold-S" transform="matrix(1 0 0 1 1995.54 696)">
   <path d="M 54.7852 -65.6738 C 55.3711 -65.6738 55.7617 -66.0645 55.8594 -66.6016 C 56.9824 -72.9004 56.8848 -72.9492 63.3789 -74.1699 C 63.9648 -74.2676 64.3555 -74.6094 64.3555 -75.1953 C 64.3555 -75.7812 63.9648 -76.1719 63.4277 -76.2695 C 56.8359 -77.5879 56.9336 -77.5879 55.8594 -83.7891 C 55.7617 -84.375 55.3711 -84.7656 54.7852 -84.7656 C 54.1992 -84.7656 53.8574 -84.375 53.7598 -83.7891 C 52.6367 -77.4902 52.7344 -77.4414 46.1914 -76.2695 C 45.6543 -76.1719 45.2148 -75.7812 45.2148 -75.1953 C 45.2148 -74.6094 45.6055 -74.2676 46.1914 -74.1699 C 52.7344 -72.8516 52.6367 -72.8027 53.7598 -66.6016 C 53.8574 -66.0645 54.1992 -65.6738 54.7852 -65.6738 Z M 43.0176 0.683594 C 57.8125 0.683594 70.2637 -7.32422 75.9277 -20.3613 C 77.002 -22.9004 76.6602 -24.8535 75.4883 -25.9766 C 74.3652 -27.0508 72.5098 -27.2461 70.459 -26.3672 C 67.627 -25.1465 64.0137 -24.4629 59.9121 -24.4629 C 43.1152 -24.4629 32.373 -34.8633 32.373 -51.123 C 32.373 -55.7617 33.3496 -60.3516 34.5215 -62.8906 C 35.5957 -65.1855 35.4492 -67.041 34.4238 -68.2129 C 33.3008 -69.5312 31.3477 -69.7754 28.8574 -68.8477 C 15.6738 -63.7207 6.83594 -50.2441 6.83594 -35.1074 C 6.83594 -14.6973 21.9727 0.683594 43.0176 0.683594 Z M 73.2422 -38.5254 C 74.1699 -38.5254 74.8047 -39.1602 74.9512 -40.1367 C 76.0742 -50.2441 76.5625 -50.4883 86.9141 -52.1484 C 87.9883 -52.2949 88.623 -52.8809 88.623 -53.8574 C 88.623 -54.7363 87.9883 -55.3711 87.1094 -55.5176 C 76.5137 -57.3242 76.0742 -57.4707 74.9512 -67.5293 C 74.8047 -68.5059 74.1699 -69.1895 73.2422 -69.1895 C 72.3145 -69.1895 71.6797 -68.5059 71.5332 -67.5781 C 70.3125 -57.373 69.9219 -57.1289 59.375 -55.5176 C 58.5449 -55.3711 57.8613 -54.7363 57.8613 -53.8574 C 57.8613 -52.9297 58.4961 -52.3438 59.375 -52.1484 C 69.9707 -50.3418 70.3125 -50.1953 71.5332 -40.0391 C 71.6797 -39.1602 72.3633 -38.5254 73.2422 -38.5254 Z M 43.0664 -8.39844 C 27.2949 -8.39844 15.8691 -19.9219 15.8691 -35.498 C 15.8691 -43.5547 19.1406 -51.1719 24.9023 -56.3965 C 24.3164 -54.3945 24.0234 -51.6602 24.0234 -48.9746 C 24.0234 -29.2969 37.4512 -16.1621 57.7637 -16.1621 C 60.0098 -16.1621 62.0605 -16.4062 63.0859 -16.6992 C 58.4473 -11.4746 51.0254 -8.39844 43.0664 -8.39844 Z"/>
  </g>
  <g id="Medium-S" transform="matrix(1 0 0 1 1699.63 696)">
   <path d="M 53.3691 -64.7949 C 53.9062 -64.7949 54.248 -65.1367 54.3457 -65.6738 C 55.5176 -71.9727 55.4199 -72.0215 61.9141 -73.291 C 62.5 -73.3887 62.8418 -73.6816 62.8418 -74.2676 C 62.8418 -74.8047 62.5 -75.1465 61.9629 -75.2441 C 55.4199 -76.5625 55.5176 -76.6113 54.3457 -82.8613 C 54.248 -83.3496 53.9062 -83.7402 53.3691 -83.7402 C 52.7832 -83.7402 52.4902 -83.3496 52.3926 -82.8613 C 51.1719 -76.5625 51.3184 -76.5137 44.7754 -75.2441 C 44.2383 -75.1465 43.8477 -74.8047 43.8477 -74.2676 C 43.8477 -73.6816 44.2383 -73.3887 44.7266 -73.291 C 51.3184 -71.9727 51.1719 -71.9238 52.3926 -65.6738 C 52.4902 -65.1367 52.7832 -64.7949 53.3691 -64.7949 Z M 42.0898 -0.292969 C 56.5918 -0.292969 68.6035 -7.95898 74.0234 -20.7031 C 75 -22.9004 74.6582 -24.6094 73.6328 -25.5859 C 72.7051 -26.4648 71.0938 -26.6602 69.3359 -25.9277 C 66.4551 -24.7559 62.8906 -24.0723 58.6914 -24.0723 C 41.8457 -24.0723 31.0059 -34.5703 31.0059 -50.8789 C 31.0059 -55.6641 31.9824 -60.2539 33.1055 -62.6465 C 34.0332 -64.6484 33.9355 -66.3086 33.0566 -67.334 C 32.0801 -68.457 30.3711 -68.75 28.125 -67.9199 C 15.4297 -62.9883 6.83594 -49.9023 6.83594 -35.0586 C 6.83594 -15.2832 21.582 -0.292969 42.0898 -0.292969 Z M 71.7285 -37.9395 C 72.6074 -37.9395 73.2422 -38.5742 73.3398 -39.502 C 74.4629 -49.6582 75 -49.9023 85.4004 -51.5625 C 86.377 -51.709 87.0117 -52.2461 87.0117 -53.1738 C 87.0117 -54.0527 86.377 -54.5898 85.5957 -54.7852 C 74.9512 -56.543 74.4629 -56.6895 73.3398 -66.8457 C 73.2422 -67.7734 72.6074 -68.3594 71.7285 -68.3594 C 70.8496 -68.3594 70.2637 -67.7734 70.166 -66.8945 C 68.8965 -56.6406 68.5059 -56.3965 57.9102 -54.7852 C 57.0801 -54.6387 56.4941 -54.0527 56.4941 -53.1738 C 56.4941 -52.2949 57.0801 -51.7578 57.9102 -51.5625 C 68.5059 -49.8047 68.8965 -49.6094 70.166 -39.4043 C 70.2637 -38.5742 70.8984 -37.9395 71.7285 -37.9395 Z M 42.1387 -8.34961 C 26.2695 -8.34961 14.8438 -19.9219 14.8438 -35.498 C 14.8438 -43.9941 18.4082 -51.9043 24.5605 -57.1777 C 23.877 -55.0293 23.4863 -51.8555 23.4863 -48.8281 C 23.4863 -29.5898 36.8652 -16.6016 56.7383 -16.6016 C 59.375 -16.6016 61.8164 -16.8945 62.9883 -17.2363 C 58.3008 -11.6699 50.5859 -8.34961 42.1387 -8.34961 Z"/>
  </g>
  <g id="Regular-S" transform="matrix(1 0 0 1 1403.97 696)">
   <path d="M 51.4648 -63.623 C 52.002 -63.623 52.2949 -63.9648 52.3438 -64.4043 C 53.6133 -70.752 53.5156 -70.8008 60.0586 -72.1191 C 60.5469 -72.2168 60.8887 -72.5098 60.8887 -72.998 C 60.8887 -73.5352 60.5469 -73.8281 60.0586 -73.9258 C 53.5156 -75.2441 53.6133 -75.293 52.3438 -81.5918 C 52.2949 -82.0801 52.002 -82.4219 51.4648 -82.4219 C 50.9766 -82.4219 50.6836 -82.0801 50.5859 -81.5918 C 49.3164 -75.293 49.4629 -75.2441 42.8711 -73.9258 C 42.4316 -73.8281 42.0898 -73.5352 42.0898 -72.998 C 42.0898 -72.5098 42.4316 -72.2168 42.8711 -72.1191 C 49.4629 -70.8008 49.3164 -70.752 50.5859 -64.4043 C 50.6836 -63.9648 50.9766 -63.623 51.4648 -63.623 Z M 69.7754 -37.207 C 70.5566 -37.207 71.1426 -37.793 71.2402 -38.623 C 72.4121 -48.877 72.9492 -49.1211 83.3984 -50.8301 C 84.3262 -50.9766 84.9121 -51.4648 84.9121 -52.2949 C 84.9121 -53.0762 84.3262 -53.6133 83.5938 -53.7598 C 72.9492 -55.4688 72.4121 -55.7129 71.2402 -65.9668 C 71.1426 -66.7969 70.5566 -67.334 69.7754 -67.334 C 68.9941 -67.334 68.4082 -66.7969 68.3105 -66.0156 C 67.0898 -55.7129 66.6504 -55.4688 56.0059 -53.7598 C 55.2246 -53.6133 54.6875 -53.0762 54.6875 -52.2949 C 54.6875 -51.4648 55.2246 -50.9766 56.0059 -50.8301 C 66.6504 -49.1211 67.0898 -48.877 68.3105 -38.5254 C 68.4082 -37.793 68.9941 -37.207 69.7754 -37.207 Z M 40.8203 -1.61133 C 54.9805 -1.61133 66.4062 -8.78906 71.582 -21.0938 C 72.3145 -22.9004 72.0703 -24.2676 71.2402 -25.0488 C 70.5078 -25.7812 69.2383 -25.9277 67.8223 -25.3418 C 64.9414 -24.2188 61.4258 -23.584 57.1289 -23.584 C 40.1855 -23.584 29.248 -34.2285 29.248 -50.6348 C 29.248 -55.4688 30.1758 -60.1562 31.25 -62.3047 C 32.0312 -63.916 31.9824 -65.332 31.2988 -66.2109 C 30.5176 -67.0898 29.1504 -67.4316 27.1973 -66.6992 C 15.1367 -62.0605 6.83594 -49.4629 6.83594 -34.9609 C 6.83594 -16.0645 20.9961 -1.61133 40.8203 -1.61133 Z M 40.918 -8.25195 C 24.9512 -8.25195 13.5254 -19.9219 13.5254 -35.498 C 13.5254 -44.6289 17.4316 -52.832 24.1211 -58.2031 C 23.291 -55.7617 22.8516 -52.1484 22.8516 -48.6816 C 22.8516 -29.9805 36.0352 -17.1387 55.3711 -17.1387 C 58.5449 -17.1387 61.4746 -17.5293 62.8906 -17.9688 C 58.1055 -11.9629 49.9512 -8.25195 40.918 -8.25195 Z"/>
  </g>
  <g id="Light-S" transform="matrix(1 0 0 1 1108.28 696)">
   <path d="M 50.1465 -63.3301 C 50.5371 -63.3301 50.7324 -63.5742 50.8301 -63.9648 C 51.9531 -70.3613 51.9531 -70.5566 58.6914 -71.8262 C 59.082 -71.9238 59.3262 -72.1191 59.3262 -72.5586 C 59.3262 -72.9492 59.082 -73.1934 58.6914 -73.2422 C 52.002 -74.6094 51.9531 -74.7559 50.8301 -81.1523 C 50.7324 -81.543 50.5371 -81.7383 50.1465 -81.7383 C 49.707 -81.7383 49.5117 -81.543 49.4141 -81.1523 C 48.2422 -74.7559 48.291 -74.6094 41.5527 -73.2422 C 41.1621 -73.1934 40.918 -72.9492 40.918 -72.5586 C 40.918 -72.1191 41.1621 -71.9238 41.5527 -71.8262 C 48.3398 -70.5566 48.2422 -70.3613 49.4141 -63.9648 C 49.5117 -63.5742 49.707 -63.3301 50.1465 -63.3301 Z M 68.4082 -37.8906 C 69.043 -37.8906 69.4824 -38.2812 69.5801 -38.9648 C 70.8984 -49.2188 71.1914 -49.3164 81.6895 -51.123 C 82.373 -51.2207 82.8613 -51.6113 82.8613 -52.2461 C 82.8613 -52.8809 82.373 -53.3203 81.7871 -53.418 C 71.2402 -55.2734 70.8984 -55.2734 69.5801 -65.5273 C 69.4824 -66.2109 69.043 -66.6504 68.4082 -66.6504 C 67.7734 -66.6504 67.334 -66.2109 67.2852 -65.5762 C 65.8691 -55.2734 65.6738 -55.2734 55.0293 -53.418 C 54.4434 -53.3203 54.0039 -52.8809 54.0039 -52.2461 C 54.0039 -51.6113 54.4434 -51.2207 55.0293 -51.123 C 65.6738 -49.3164 65.9668 -49.2188 67.2852 -38.916 C 67.334 -38.2812 67.7734 -37.8906 68.4082 -37.8906 Z M 39.7949 -2.34375 C 53.7109 -2.34375 64.9414 -9.22852 70.0684 -20.9961 C 70.752 -22.4609 70.5566 -23.6816 69.873 -24.3652 C 69.2383 -25 68.1641 -25.1465 66.8945 -24.6094 C 63.9648 -23.4863 60.4492 -22.8027 56.0059 -22.8027 C 38.7207 -22.8027 27.6855 -33.4961 27.6855 -50.5859 C 27.6855 -55.0781 28.5156 -59.6191 29.834 -62.2559 C 30.5176 -63.6719 30.4688 -64.8926 29.7852 -65.625 C 29.1016 -66.4062 27.8809 -66.6504 26.2207 -65.918 C 14.7461 -61.0352 6.83594 -49.0723 6.83594 -34.9609 C 6.83594 -16.5527 20.2148 -2.34375 39.7949 -2.34375 Z M 39.8438 -7.4707 C 23.2422 -7.4707 11.9629 -19.5801 11.9629 -35.3516 C 11.9629 -45.3613 16.8945 -54.1504 24.3652 -59.6191 C 23.3398 -57.0312 22.7539 -53.0762 22.7539 -49.2188 C 22.7539 -30.2734 35.5957 -17.8223 54.834 -17.8223 C 58.3984 -17.8223 61.7188 -18.3594 63.5742 -18.9941 C 58.7891 -11.8652 49.9023 -7.4707 39.8438 -7.4707 Z"/>
  </g>
  <g id="Thin-S" transform="matrix(1 0 0 1 812.941 696)">
   <path d="M 48.3398 -62.9395 C 48.584 -62.9395 48.7305 -63.0859 48.7793 -63.3301 C 49.7559 -69.873 49.9512 -70.2637 56.8848 -71.4355 C 57.1777 -71.4844 57.3242 -71.6309 57.3242 -71.9238 C 57.3242 -72.2168 57.1777 -72.3633 56.8848 -72.4121 C 50 -73.8281 49.7559 -74.0723 48.7793 -80.5176 C 48.7305 -80.8105 48.584 -80.9082 48.3398 -80.9082 C 48.0957 -80.9082 47.9492 -80.8105 47.9004 -80.5176 C 46.8262 -74.0723 46.8262 -73.8281 39.8438 -72.4121 C 39.502 -72.3633 39.3555 -72.2168 39.3555 -71.9238 C 39.3555 -71.6309 39.502 -71.4844 39.8438 -71.4355 C 46.8262 -70.2637 46.8262 -69.873 47.9004 -63.3301 C 47.9492 -63.0859 48.0957 -62.9395 48.3398 -62.9395 Z M 66.6016 -38.7207 C 66.9922 -38.7207 67.2852 -38.9648 67.3828 -39.4043 C 68.9453 -49.707 68.9453 -49.6094 79.3945 -51.4648 C 79.834 -51.5625 80.127 -51.7578 80.127 -52.2461 C 80.127 -52.6367 79.834 -52.8809 79.4434 -52.9785 C 68.9453 -54.9805 68.9453 -54.7363 67.3828 -65.0391 C 67.2852 -65.4785 66.9922 -65.7227 66.6016 -65.7227 C 66.2109 -65.7227 65.918 -65.4785 65.8691 -65.0391 C 64.3066 -54.7852 64.4043 -54.9805 53.7598 -52.9785 C 53.418 -52.8809 53.125 -52.6367 53.125 -52.2461 C 53.125 -51.8066 53.418 -51.5625 53.7598 -51.4648 C 64.4043 -49.6094 64.502 -49.707 65.8691 -39.4043 C 65.918 -38.9648 66.2109 -38.7207 66.6016 -38.7207 Z M 38.4277 -3.27148 C 52.0508 -3.27148 63.0859 -9.7168 68.1152 -20.8496 C 68.6035 -21.9238 68.5547 -22.8516 68.0664 -23.3887 C 67.5781 -23.9258 66.748 -24.0723 65.6738 -23.6816 C 62.5977 -22.5098 59.1797 -21.7773 54.541 -21.7773 C 36.8652 -21.7773 25.6836 -32.5195 25.6836 -50.5859 C 25.6836 -54.5898 26.3672 -58.8867 27.9297 -62.207 C 28.4668 -63.3301 28.418 -64.2578 27.832 -64.8438 C 27.2949 -65.4297 26.2695 -65.5762 24.9023 -64.8926 C 14.2578 -59.668 6.83594 -48.584 6.83594 -34.9609 C 6.83594 -17.1875 19.1406 -3.27148 38.4277 -3.27148 Z M 38.4277 -6.44531 C 21.0449 -6.44531 9.96094 -19.1406 9.96094 -35.1074 C 9.96094 -46.3379 16.2109 -55.9082 24.707 -61.4746 C 23.3887 -58.6914 22.6562 -54.2969 22.6562 -49.9512 C 22.6562 -30.6641 34.9609 -18.7012 54.1016 -18.7012 C 58.252 -18.7012 62.0605 -19.4336 64.502 -20.3125 C 59.7168 -11.7676 49.9023 -6.44531 38.4277 -6.44531 Z"/>
  </g>
  <g id="Ultralight-S" transform="matrix(1 0 0 1 516.913 696)">
   <path d="M 47.4121 -62.7441 C 47.6074 -62.7441 47.7051 -62.793 47.7539 -62.9883 C 48.6328 -69.6289 48.9258 -70.1172 55.9082 -71.2402 C 56.2012 -71.2891 56.2988 -71.3867 56.2988 -71.582 C 56.2988 -71.8262 56.2012 -71.9238 55.9082 -71.9727 C 48.9746 -73.3887 48.6328 -73.7305 47.7539 -80.1758 C 47.7051 -80.4199 47.6074 -80.4688 47.4121 -80.4688 C 47.2656 -80.4688 47.168 -80.4199 47.1191 -80.1758 C 46.0938 -73.7305 46.0449 -73.3887 38.916 -71.9727 C 38.6719 -71.9238 38.5742 -71.8262 38.5742 -71.582 C 38.5742 -71.3867 38.6719 -71.2891 38.916 -71.2402 C 46.0938 -70.1172 46.0938 -69.6289 47.1191 -62.9883 C 47.168 -62.793 47.2656 -62.7441 47.4121 -62.7441 Z M 65.6738 -39.1602 C 65.9668 -39.1602 66.1621 -39.3066 66.2109 -39.6484 C 67.9199 -49.9512 67.7734 -49.7559 78.2227 -51.6602 C 78.5156 -51.709 78.7598 -51.9043 78.7598 -52.1973 C 78.7598 -52.5391 78.5156 -52.6855 78.2715 -52.7344 C 67.7734 -54.834 67.9199 -54.4434 66.2109 -64.7461 C 66.1621 -65.0879 65.9668 -65.2344 65.6738 -65.2344 C 65.4297 -65.2344 65.1855 -65.0879 65.1367 -64.7461 C 63.4766 -54.4922 63.7207 -54.834 53.125 -52.7344 C 52.8809 -52.6855 52.6367 -52.5391 52.6367 -52.1973 C 52.6367 -51.9043 52.8809 -51.709 53.125 -51.6602 C 63.7695 -49.7559 63.7695 -49.9512 65.1367 -39.6484 C 65.1855 -39.3066 65.4297 -39.1602 65.6738 -39.1602 Z M 37.6953 -3.80859 C 51.2207 -3.80859 62.1094 -10.0098 67.1387 -20.752 C 67.5293 -21.6309 67.5293 -22.4609 67.0898 -22.9004 C 66.6992 -23.3887 65.9668 -23.5352 65.0391 -23.1445 C 61.9141 -21.9727 58.4961 -21.2402 53.8086 -21.2402 C 35.8887 -21.2402 24.6582 -31.9824 24.6582 -50.5371 C 24.6582 -54.3457 25.2441 -58.5449 27.002 -62.1582 C 27.4414 -63.1348 27.3438 -63.916 26.8555 -64.4531 C 26.3184 -64.9414 25.4395 -65.0391 24.2188 -64.3555 C 14.0137 -58.9355 6.83594 -48.291 6.83594 -34.9609 C 6.83594 -17.5293 18.6035 -3.80859 37.6953 -3.80859 Z M 37.6953 -5.9082 C 19.873 -5.9082 8.93555 -18.8965 8.93555 -35.0098 C 8.93555 -46.875 15.8691 -56.8359 24.8535 -62.4512 C 23.4375 -59.5215 22.5586 -54.9316 22.5586 -50.3418 C 22.5586 -30.8594 34.6191 -19.1406 53.7109 -19.1406 C 58.1055 -19.1406 62.2559 -19.9707 64.9902 -21.0449 C 60.2051 -11.7188 49.8535 -5.9082 37.6953 -5.9082 Z"/>
  </g>
 </g>
</svg>
