<?xml version="1.0" encoding="UTF-8"?>
<!--Generator: Apple Native CoreSVG 123-->
<!DOCTYPE svg
PUBLIC "-//W3C//DTD SVG 1.1//EN"
       "http://www.w3.org/Graphics/SVG/1.1/DTD/svg11.dtd">
<svg version="1.1" xmlns="http://www.w3.org/2000/svg" xmlns:xlink="http://www.w3.org/1999/xlink" width="3300" height="2200">
 <!--glyph: "uni1001BD.medium", point size: 100.000000, font version: "Version 15.0d7e11", template writer version: "5"-->
 <g id="Notes">
  <rect height="2200" id="artboard" style="fill:white;opacity:1" width="3300" x="0" y="0"/>
  <line id="" style="fill:none;stroke:black;opacity:1;stroke-width:0.5;" x1="263" x2="3036" y1="292" y2="292"/>
  <text style="stroke:none;fill:black;font-family:-apple-system,&quot;SF Pro Display&quot;,&quot;SF Pro Text&quot;,Helvetica,sans-serif;font-weight:bold;" transform="matrix(1 0 0 1 263 322)">Weight/Scale Variations</text>
  <text style="stroke:none;fill:black;font-family:-apple-system,&quot;SF Pro Display&quot;,&quot;SF Pro Text&quot;,Helvetica,sans-serif;text-anchor:middle;" transform="matrix(1 0 0 1 559.711 322)">Ultralight</text>
  <text style="stroke:none;fill:black;font-family:-apple-system,&quot;SF Pro Display&quot;,&quot;SF Pro Text&quot;,Helvetica,sans-serif;text-anchor:middle;" transform="matrix(1 0 0 1 856.422 322)">Thin</text>
  <text style="stroke:none;fill:black;font-family:-apple-system,&quot;SF Pro Display&quot;,&quot;SF Pro Text&quot;,Helvetica,sans-serif;text-anchor:middle;" transform="matrix(1 0 0 1 1153.13 322)">Light</text>
  <text style="stroke:none;fill:black;font-family:-apple-system,&quot;SF Pro Display&quot;,&quot;SF Pro Text&quot;,Helvetica,sans-serif;text-anchor:middle;" transform="matrix(1 0 0 1 1449.84 322)">Regular</text>
  <text style="stroke:none;fill:black;font-family:-apple-system,&quot;SF Pro Display&quot;,&quot;SF Pro Text&quot;,Helvetica,sans-serif;text-anchor:middle;" transform="matrix(1 0 0 1 1746.56 322)">Medium</text>
  <text style="stroke:none;fill:black;font-family:-apple-system,&quot;SF Pro Display&quot;,&quot;SF Pro Text&quot;,Helvetica,sans-serif;text-anchor:middle;" transform="matrix(1 0 0 1 2043.27 322)">Semibold</text>
  <text style="stroke:none;fill:black;font-family:-apple-system,&quot;SF Pro Display&quot;,&quot;SF Pro Text&quot;,Helvetica,sans-serif;text-anchor:middle;" transform="matrix(1 0 0 1 2339.98 322)">Bold</text>
  <text style="stroke:none;fill:black;font-family:-apple-system,&quot;SF Pro Display&quot;,&quot;SF Pro Text&quot;,Helvetica,sans-serif;text-anchor:middle;" transform="matrix(1 0 0 1 2636.69 322)">Heavy</text>
  <text style="stroke:none;fill:black;font-family:-apple-system,&quot;SF Pro Display&quot;,&quot;SF Pro Text&quot;,Helvetica,sans-serif;text-anchor:middle;" transform="matrix(1 0 0 1 2933.4 322)">Black</text>
  <line id="" style="fill:none;stroke:black;opacity:1;stroke-width:0.5;" x1="263" x2="3036" y1="1903" y2="1903"/>
  <g id="" transform="matrix(1 0 0 1 263 1933)">
   <path d="M 9.24805 0.830078 C 13.5547 0.830078 17.1387 -2.74414 17.1387 -7.05078 C 17.1387 -11.3574 13.5449 -14.9316 9.23828 -14.9316 C 4.94141 -14.9316 1.36719 -11.3574 1.36719 -7.05078 C 1.36719 -2.74414 4.95117 0.830078 9.24805 0.830078 Z M 9.24805 -0.654297 C 5.70312 -0.654297 2.87109 -3.49609 2.87109 -7.05078 C 2.87109 -10.6055 5.69336 -13.4473 9.23828 -13.4473 C 12.793 -13.4473 15.6348 -10.6055 15.6445 -7.05078 C 15.6543 -3.49609 12.8027 -0.654297 9.24805 -0.654297 Z M 9.22852 -3.42773 C 9.69727 -3.42773 9.9707 -3.74023 9.9707 -4.25781 L 9.9707 -6.31836 L 12.1973 -6.31836 C 12.6953 -6.31836 13.0371 -6.57227 13.0371 -7.04102 C 13.0371 -7.51953 12.7148 -7.7832 12.1973 -7.7832 L 9.9707 -7.7832 L 9.9707 -10.0098 C 9.9707 -10.5273 9.69727 -10.8496 9.22852 -10.8496 C 8.75977 -10.8496 8.50586 -10.5078 8.50586 -10.0098 L 8.50586 -7.7832 L 6.29883 -7.7832 C 5.78125 -7.7832 5.44922 -7.51953 5.44922 -7.04102 C 5.44922 -6.57227 5.80078 -6.31836 6.29883 -6.31836 L 8.50586 -6.31836 L 8.50586 -4.25781 C 8.50586 -3.75977 8.75977 -3.42773 9.22852 -3.42773 Z"/>
  </g>
  <g id="" transform="matrix(1 0 0 1 281.506 1933)">
   <path d="M 11.709 2.91016 C 17.1582 2.91016 21.6699 -1.60156 21.6699 -7.05078 C 21.6699 -12.4902 17.1484 -17.0117 11.6992 -17.0117 C 6.25977 -17.0117 1.74805 -12.4902 1.74805 -7.05078 C 1.74805 -1.60156 6.26953 2.91016 11.709 2.91016 Z M 11.709 1.25 C 7.09961 1.25 3.41797 -2.44141 3.41797 -7.05078 C 3.41797 -11.6504 7.08984 -15.3516 11.6992 -15.3516 C 16.3086 -15.3516 20 -11.6504 20.0098 -7.05078 C 20.0195 -2.44141 16.3184 1.25 11.709 1.25 Z M 11.6895 -2.41211 C 12.207 -2.41211 12.5195 -2.77344 12.5195 -3.33984 L 12.5195 -6.23047 L 15.5762 -6.23047 C 16.123 -6.23047 16.5039 -6.51367 16.5039 -7.03125 C 16.5039 -7.55859 16.1426 -7.86133 15.5762 -7.86133 L 12.5195 -7.86133 L 12.5195 -10.9277 C 12.5195 -11.5039 12.207 -11.8555 11.6895 -11.8555 C 11.1719 -11.8555 10.8789 -11.4844 10.8789 -10.9277 L 10.8789 -7.86133 L 7.83203 -7.86133 C 7.26562 -7.86133 6.89453 -7.55859 6.89453 -7.03125 C 6.89453 -6.51367 7.28516 -6.23047 7.83203 -6.23047 L 10.8789 -6.23047 L 10.8789 -3.33984 C 10.8789 -2.79297 11.1719 -2.41211 11.6895 -2.41211 Z"/>
  </g>
  <g id="" transform="matrix(1 0 0 1 304.924 1933)">
   <path d="M 14.9707 5.67383 C 21.9336 5.67383 27.6953 -0.078125 27.6953 -7.04102 C 27.6953 -14.0039 21.9238 -19.7559 14.9609 -19.7559 C 8.00781 -19.7559 2.25586 -14.0039 2.25586 -7.04102 C 2.25586 -0.078125 8.01758 5.67383 14.9707 5.67383 Z M 14.9707 3.85742 C 8.93555 3.85742 4.08203 -1.00586 4.08203 -7.04102 C 4.08203 -13.0762 8.92578 -17.9395 14.9609 -17.9395 C 21.0059 -17.9395 25.8594 -13.0762 25.8691 -7.04102 C 25.8789 -1.00586 21.0156 3.85742 14.9707 3.85742 Z M 14.9512 -1.06445 C 15.5176 -1.06445 15.8691 -1.45508 15.8691 -2.06055 L 15.8691 -6.13281 L 20.1074 -6.13281 C 20.6934 -6.13281 21.1133 -6.46484 21.1133 -7.02148 C 21.1133 -7.59766 20.7227 -7.93945 20.1074 -7.93945 L 15.8691 -7.93945 L 15.8691 -12.1875 C 15.8691 -12.8027 15.5176 -13.1934 14.9512 -13.1934 C 14.3848 -13.1934 14.0625 -12.7832 14.0625 -12.1875 L 14.0625 -7.93945 L 9.83398 -7.93945 C 9.21875 -7.93945 8.80859 -7.59766 8.80859 -7.02148 C 8.80859 -6.46484 9.23828 -6.13281 9.83398 -6.13281 L 14.0625 -6.13281 L 14.0625 -2.06055 C 14.0625 -1.47461 14.3848 -1.06445 14.9512 -1.06445 Z"/>
  </g>
  <text style="stroke:none;fill:black;font-family:-apple-system,&quot;SF Pro Display&quot;,&quot;SF Pro Text&quot;,Helvetica,sans-serif;font-weight:bold;" transform="matrix(1 0 0 1 263 1953)">Design Variations</text>
  <text style="stroke:none;fill:black;font-family:-apple-system,&quot;SF Pro Display&quot;,&quot;SF Pro Text&quot;,Helvetica,sans-serif;" transform="matrix(1 0 0 1 263 1971)">Symbols are supported in up to nine weights and three scales.</text>
  <text style="stroke:none;fill:black;font-family:-apple-system,&quot;SF Pro Display&quot;,&quot;SF Pro Text&quot;,Helvetica,sans-serif;" transform="matrix(1 0 0 1 263 1989)">For optimal layout with text and other symbols, vertically align</text>
  <text style="stroke:none;fill:black;font-family:-apple-system,&quot;SF Pro Display&quot;,&quot;SF Pro Text&quot;,Helvetica,sans-serif;" transform="matrix(1 0 0 1 263 2007)">symbols with the adjacent text.</text>
  <rect height="14" id="" style="fill:#00AEEF;stroke:none;opacity:0.4;" width="3" x="776" y="1919"/>
  <g id="" transform="matrix(1 0 0 1 779 1933)">
   <path d="M 10.5273 0 L 12.373 0 L 7.17773 -14.0918 L 5.43945 -14.0918 L 0.244141 0 L 2.08984 0 L 3.50586 -4.0332 L 9.11133 -4.0332 Z M 6.2793 -11.9531 L 6.33789 -11.9531 L 8.59375 -5.52734 L 4.02344 -5.52734 Z"/>
  </g>
  <rect height="14" id="" style="fill:#00AEEF;stroke:none;opacity:0.4;" width="3" x="791.617" y="1919"/>
  <text style="stroke:none;fill:black;font-family:-apple-system,&quot;SF Pro Display&quot;,&quot;SF Pro Text&quot;,Helvetica,sans-serif;font-weight:bold;" transform="matrix(1 0 0 1 776 1953)">Margins</text>
  <text style="stroke:none;fill:black;font-family:-apple-system,&quot;SF Pro Display&quot;,&quot;SF Pro Text&quot;,Helvetica,sans-serif;" transform="matrix(1 0 0 1 776 1971)">Leading and trailing margins on the left and right side of each symbol</text>
  <text style="stroke:none;fill:black;font-family:-apple-system,&quot;SF Pro Display&quot;,&quot;SF Pro Text&quot;,Helvetica,sans-serif;" transform="matrix(1 0 0 1 776 1989)">can be adjusted by modifying the width of the blue rectangles.</text>
  <text style="stroke:none;fill:black;font-family:-apple-system,&quot;SF Pro Display&quot;,&quot;SF Pro Text&quot;,Helvetica,sans-serif;" transform="matrix(1 0 0 1 776 2007)">Modifications are automatically applied proportionally to all</text>
  <text style="stroke:none;fill:black;font-family:-apple-system,&quot;SF Pro Display&quot;,&quot;SF Pro Text&quot;,Helvetica,sans-serif;" transform="matrix(1 0 0 1 776 2025)">scales and weights.</text>
  <g id="" transform="matrix(1 0 0 1 1289 1933)">
   <path d="M 2.83203 3.11523 L 4.375 4.6582 C 5.22461 5.48828 6.19141 5.41992 7.06055 4.46289 L 17.2754 -6.66016 C 17.7051 -6.36719 18.0957 -6.37695 18.5645 -6.47461 L 19.6094 -6.68945 L 20.3027 -5.99609 L 20.2539 -5.47852 C 20.1855 -4.95117 20.3516 -4.53125 20.8496 -4.0332 L 21.6602 -3.22266 C 22.168 -2.71484 22.8223 -2.68555 23.3008 -3.16406 L 26.5527 -6.41602 C 27.0312 -6.89453 27.0117 -7.54883 26.5039 -8.05664 L 25.6836 -8.87695 C 25.1855 -9.375 24.7754 -9.55078 24.2383 -9.47266 L 23.7109 -9.41406 L 23.0566 -10.0781 L 23.3398 -11.2207 C 23.4863 -11.7871 23.3398 -12.2559 22.7148 -12.8613 L 20.3027 -15.2539 C 16.7578 -18.7793 12.2266 -18.6719 9.11133 -15.5371 C 8.69141 -15.1074 8.64258 -14.5215 8.91602 -14.0918 C 9.15039 -13.7207 9.62891 -13.4961 10.2734 -13.6621 C 11.7871 -14.043 13.3008 -13.9258 14.7852 -12.9199 L 14.1602 -11.3379 C 13.9258 -10.752 13.9453 -10.2734 14.1797 -9.83398 L 3.01758 0.439453 C 2.08008 1.30859 1.97266 2.25586 2.83203 3.11523 Z M 10.6738 -15.1465 C 13.3398 -17.1387 16.6504 -16.8262 19.0527 -14.4141 L 21.6797 -11.8066 C 21.9141 -11.5723 21.9434 -11.3867 21.8848 -11.0938 L 21.5039 -9.53125 L 23.0762 -7.95898 L 24.043 -8.04688 C 24.3262 -8.07617 24.4141 -8.05664 24.6387 -7.83203 L 25.2637 -7.20703 L 22.5098 -4.46289 L 21.8848 -5.07812 C 21.6602 -5.30273 21.6406 -5.40039 21.6699 -5.68359 L 21.7578 -6.64062 L 20.1953 -8.20312 L 18.5742 -7.89062 C 18.291 -7.83203 18.1445 -7.83203 17.9102 -8.07617 L 15.7324 -10.2539 C 15.5078 -10.4883 15.4785 -10.625 15.6055 -10.9473 L 16.5527 -13.2227 C 14.9512 -14.7559 12.8418 -15.6055 10.8008 -14.9512 C 10.7129 -14.9219 10.6445 -14.9414 10.6152 -14.9805 C 10.5859 -15.0293 10.5859 -15.0781 10.6738 -15.1465 Z M 4.10156 2.41211 C 3.61328 1.91406 3.78906 1.61133 4.12109 1.30859 L 15.0781 -8.80859 L 16.3086 -7.57812 L 6.15234 3.34961 C 5.84961 3.68164 5.46875 3.7793 5.06836 3.37891 Z"/>
  </g>
  <text style="stroke:none;fill:black;font-family:-apple-system,&quot;SF Pro Display&quot;,&quot;SF Pro Text&quot;,Helvetica,sans-serif;font-weight:bold;" transform="matrix(1 0 0 1 1289 1953)">Exporting</text>
  <text style="stroke:none;fill:black;font-family:-apple-system,&quot;SF Pro Display&quot;,&quot;SF Pro Text&quot;,Helvetica,sans-serif;" transform="matrix(1 0 0 1 1289 1971)">Symbols should be outlined when exporting to ensure the</text>
  <text style="stroke:none;fill:black;font-family:-apple-system,&quot;SF Pro Display&quot;,&quot;SF Pro Text&quot;,Helvetica,sans-serif;" transform="matrix(1 0 0 1 1289 1989)">design is preserved when submitting to Xcode.</text>
  <text id="template-version" style="stroke:none;fill:black;font-family:-apple-system,&quot;SF Pro Display&quot;,&quot;SF Pro Text&quot;,Helvetica,sans-serif;text-anchor:end;" transform="matrix(1 0 0 1 3036 1933)">Template v.1.0</text>
  <text style="stroke:none;fill:black;font-family:-apple-system,&quot;SF Pro Display&quot;,&quot;SF Pro Text&quot;,Helvetica,sans-serif;text-anchor:end;" transform="matrix(1 0 0 1 3036 1951)">Generated from moon.zzz</text>
  <text style="stroke:none;fill:black;font-family:-apple-system,&quot;SF Pro Display&quot;,&quot;SF Pro Text&quot;,Helvetica,sans-serif;text-anchor:end;" transform="matrix(1 0 0 1 3036 1969)">Typeset at 100 points</text>
  <text style="stroke:none;fill:black;font-family:-apple-system,&quot;SF Pro Display&quot;,&quot;SF Pro Text&quot;,Helvetica,sans-serif;" transform="matrix(1 0 0 1 263 726)">Small</text>
  <text style="stroke:none;fill:black;font-family:-apple-system,&quot;SF Pro Display&quot;,&quot;SF Pro Text&quot;,Helvetica,sans-serif;" transform="matrix(1 0 0 1 263 1156)">Medium</text>
  <text style="stroke:none;fill:black;font-family:-apple-system,&quot;SF Pro Display&quot;,&quot;SF Pro Text&quot;,Helvetica,sans-serif;" transform="matrix(1 0 0 1 263 1586)">Large</text>
 </g>
 <g id="Guides">
  <g id="H-reference" style="fill:#27AAE1;stroke:none;" transform="matrix(1 0 0 1 339 696)">
   <path d="M 54.9316 0 L 57.666 0 L 30.5664 -70.459 L 28.0762 -70.459 L 0.976562 0 L 3.66211 0 L 12.9395 -24.4629 L 45.7031 -24.4629 Z M 29.1992 -67.0898 L 29.4434 -67.0898 L 44.8242 -26.709 L 13.8184 -26.709 Z"/>
  </g>
  <line id="Baseline-S" style="fill:none;stroke:#27AAE1;opacity:1;stroke-width:0.577;" x1="263" x2="3036" y1="696" y2="696"/>
  <line id="Capline-S" style="fill:none;stroke:#27AAE1;opacity:1;stroke-width:0.577;" x1="263" x2="3036" y1="625.541" y2="625.541"/>
  <g id="H-reference" style="fill:#27AAE1;stroke:none;" transform="matrix(1 0 0 1 339 1126)">
   <path d="M 54.9316 0 L 57.666 0 L 30.5664 -70.459 L 28.0762 -70.459 L 0.976562 0 L 3.66211 0 L 12.9395 -24.4629 L 45.7031 -24.4629 Z M 29.1992 -67.0898 L 29.4434 -67.0898 L 44.8242 -26.709 L 13.8184 -26.709 Z"/>
  </g>
  <line id="Baseline-M" style="fill:none;stroke:#27AAE1;opacity:1;stroke-width:0.577;" x1="263" x2="3036" y1="1126" y2="1126"/>
  <line id="Capline-M" style="fill:none;stroke:#27AAE1;opacity:1;stroke-width:0.577;" x1="263" x2="3036" y1="1055.54" y2="1055.54"/>
  <g id="H-reference" style="fill:#27AAE1;stroke:none;" transform="matrix(1 0 0 1 339 1556)">
   <path d="M 54.9316 0 L 57.666 0 L 30.5664 -70.459 L 28.0762 -70.459 L 0.976562 0 L 3.66211 0 L 12.9395 -24.4629 L 45.7031 -24.4629 Z M 29.1992 -67.0898 L 29.4434 -67.0898 L 44.8242 -26.709 L 13.8184 -26.709 Z"/>
  </g>
  <line id="Baseline-L" style="fill:none;stroke:#27AAE1;opacity:1;stroke-width:0.577;" x1="263" x2="3036" y1="1556" y2="1556"/>
  <line id="Capline-L" style="fill:none;stroke:#27AAE1;opacity:1;stroke-width:0.577;" x1="263" x2="3036" y1="1485.54" y2="1485.54"/>
  <rect height="119.336" id="left-margin" style="fill:#00AEEF;stroke:none;opacity:0.4;" width="8.74023" x="1393.91" y="1030.79"/>
  <rect height="119.336" id="right-margin" style="fill:#00AEEF;stroke:none;opacity:0.4;" width="8.74023" x="1497.04" y="1030.79"/>
 </g>
 <g id="Symbols">
  <g id="Black-L" transform="matrix(1 0 0 1 2851.52 1556)">
   <path d="M 114.941 -102.93 L 101.904 -102.93 L 101.904 -103.223 L 117.188 -121.777 C 118.848 -123.828 119.482 -125.146 119.482 -127.246 C 119.482 -130.322 117.236 -132.471 113.965 -132.471 L 92.2363 -132.471 C 88.7695 -132.471 86.6699 -130.566 86.6699 -127.49 C 86.6699 -124.414 88.916 -122.461 92.2363 -122.461 L 104.785 -122.461 L 104.785 -122.168 L 89.6973 -103.76 C 87.9883 -101.709 87.4023 -100.195 87.4023 -98.1934 C 87.4023 -95.166 89.6484 -93.0176 92.8711 -93.0176 L 114.941 -93.0176 C 118.311 -93.0176 120.557 -94.9219 120.557 -97.998 C 120.557 -101.074 118.408 -102.93 114.941 -102.93 Z M 147.217 -76.8555 L 139.746 -76.8555 L 139.746 -77.1484 L 149.219 -88.0859 C 150.83 -89.8926 151.465 -91.3574 151.465 -93.3594 C 151.465 -96.3379 149.268 -98.291 146.24 -98.291 L 131.055 -98.291 C 127.783 -98.291 125.732 -96.6309 125.732 -93.8477 C 125.732 -91.0645 127.832 -89.3555 131.055 -89.3555 L 138.086 -89.3555 L 138.086 -89.0625 L 128.955 -78.5156 C 127.295 -76.6113 126.514 -74.9023 126.514 -72.9004 C 126.514 -69.9707 128.613 -68.0176 131.641 -68.0176 L 147.217 -68.0176 C 150.391 -68.0176 152.49 -69.6289 152.49 -72.4121 C 152.49 -75.1953 150.439 -76.8555 147.217 -76.8555 Z M 75.5859 28.7109 C 101.416 28.7109 123.975 13.9648 134.326 -9.32617 C 136.914 -15.0391 136.084 -19.4824 133.398 -21.9727 C 130.811 -24.4141 126.416 -24.9023 121.826 -22.7539 C 117.188 -20.6055 111.035 -19.4336 104.736 -19.4336 C 77.3926 -19.4336 60.1074 -35.9375 60.1074 -62.4023 C 60.1074 -69.8242 61.7676 -77.0996 63.916 -82.0801 C 66.1621 -87.3535 65.8691 -91.2109 63.4766 -93.8965 C 60.8398 -96.8262 56.3477 -97.2168 51.0742 -95.1172 C 27.0996 -85.6445 11.2793 -61.7188 11.2793 -35.3027 C 11.2793 1.46484 38.4277 28.7109 75.5859 28.7109 Z M 116.895 -54.1992 L 110.4 -54.1992 L 110.4 -54.4922 L 118.701 -63.9648 C 120.166 -65.625 120.703 -66.9434 120.703 -68.75 C 120.703 -71.3867 118.75 -73.1934 116.016 -73.1934 L 101.465 -73.1934 C 98.5352 -73.1934 96.7285 -71.6309 96.7285 -68.9453 C 96.7285 -66.3574 98.6328 -64.7461 101.465 -64.7461 L 107.666 -64.7461 L 107.666 -64.4531 L 99.707 -55.3223 C 97.998 -53.418 97.4121 -52.0996 97.3633 -50.1953 C 97.3145 -47.6562 99.2188 -45.8008 102.002 -45.8008 L 116.895 -45.8008 C 119.775 -45.8008 121.68 -47.4609 121.68 -50 C 121.68 -52.6367 119.873 -54.1992 116.895 -54.1992 Z M 75.6348 8.69141 C 50.0488 8.69141 31.2988 -10.1562 31.2988 -35.5957 C 31.2988 -46.5332 35.2539 -57.959 42.7246 -66.0645 C 42.2852 -63.8184 42.041 -61.084 42.041 -58.4473 C 42.041 -23.9746 64.7949 -1.61133 100.195 -1.61133 C 101.904 -1.61133 103.516 -1.75781 104.395 -1.9043 C 97.0215 4.98047 86.377 8.69141 75.6348 8.69141 Z"/>
  </g>
  <g id="Heavy-L" transform="matrix(1 0 0 1 2557.29 1556)">
   <path d="M 111.377 -101.465 L 97.998 -101.465 L 97.998 -101.758 L 113.184 -120.508 C 114.746 -122.461 115.332 -123.682 115.332 -125.537 C 115.332 -128.32 113.232 -130.176 110.303 -130.176 L 89.1113 -130.176 C 86.084 -130.176 84.1309 -128.467 84.1309 -125.732 C 84.1309 -122.949 86.1328 -121.191 89.1113 -121.191 L 101.953 -121.191 L 101.953 -120.898 L 86.9141 -102.246 C 85.3027 -100.342 84.7656 -98.9746 84.7656 -97.168 C 84.7656 -94.4336 86.7676 -92.5293 89.6973 -92.5293 L 111.377 -92.5293 C 114.355 -92.5293 116.357 -94.2383 116.357 -97.0215 C 116.357 -99.7559 114.453 -101.465 111.377 -101.465 Z M 142.822 -75.9277 L 134.57 -75.9277 L 134.57 -76.2207 L 144.385 -87.9395 C 145.898 -89.6484 146.484 -90.9668 146.484 -92.7734 C 146.484 -95.459 144.482 -97.2168 141.748 -97.2168 L 126.514 -97.2168 C 123.682 -97.2168 121.826 -95.6543 121.826 -93.1641 C 121.826 -90.625 123.73 -89.0625 126.514 -89.0625 L 134.229 -89.0625 L 134.229 -88.7695 L 124.707 -77.3926 C 123.145 -75.5859 122.461 -74.0723 122.461 -72.2656 C 122.461 -69.6777 124.365 -67.8711 127.1 -67.8711 L 142.822 -67.8711 C 145.654 -67.8711 147.51 -69.3848 147.51 -71.9238 C 147.51 -74.4141 145.703 -75.9277 142.822 -75.9277 Z M 73.1445 26.416 C 98.291 26.416 119.922 12.4512 129.785 -9.91211 C 132.031 -14.8438 131.299 -18.7012 129.004 -20.8496 C 126.807 -22.9492 123.047 -23.3398 119.043 -21.5332 C 114.355 -19.4824 108.301 -18.3105 101.709 -18.3105 C 74.1699 -18.3105 56.6406 -35.0586 56.6406 -61.9629 C 56.6406 -69.3359 58.2031 -76.6602 60.3516 -81.543 C 62.3535 -86.084 62.1094 -89.502 60.0098 -91.8457 C 57.7637 -94.3848 53.8574 -94.7754 49.1699 -92.8711 C 26.416 -83.7402 11.2793 -60.8398 11.2793 -35.2051 C 11.2793 0.0488281 37.1582 26.416 73.1445 26.416 Z M 113.232 -53.6621 L 106.104 -53.6621 L 106.104 -53.9551 L 114.648 -64.0625 C 116.016 -65.6738 116.553 -66.8457 116.553 -68.5059 C 116.553 -70.8984 114.746 -72.4609 112.256 -72.4609 L 97.998 -72.4609 C 95.4102 -72.4609 93.75 -71.0449 93.75 -68.6523 C 93.75 -66.2598 95.459 -64.7949 97.998 -64.7949 L 104.639 -64.7949 L 104.639 -64.502 L 96.4355 -54.6875 C 94.8242 -52.9297 94.3359 -51.709 94.2871 -49.9512 C 94.2383 -47.6562 95.9473 -45.9961 98.4863 -45.9961 L 113.232 -45.9961 C 115.771 -45.9961 117.48 -47.5098 117.48 -49.8535 C 117.48 -52.2461 115.869 -53.6621 113.232 -53.6621 Z M 73.2422 9.13086 C 47.2168 9.13086 28.5156 -9.96094 28.5156 -35.5469 C 28.5156 -47.8516 33.4961 -60.0098 42.0898 -68.3105 C 41.4062 -65.5762 40.9668 -61.9629 40.9668 -58.4473 C 40.9668 -24.7559 63.3301 -2.7832 97.8516 -2.7832 C 100.537 -2.7832 103.125 -3.125 104.492 -3.51562 C 96.9727 4.54102 85.4004 9.13086 73.2422 9.13086 Z"/>
  </g>
  <g id="Bold-L" transform="matrix(1 0 0 1 2263.37 1556)">
   <path d="M 107.422 -99.8047 L 93.6523 -99.8047 L 93.6523 -100.146 L 108.643 -119.092 C 110.107 -120.898 110.645 -122.021 110.645 -123.584 C 110.645 -126.074 108.838 -127.686 106.25 -127.686 L 85.5957 -127.686 C 83.0078 -127.686 81.3477 -126.123 81.3477 -123.73 C 81.3477 -121.338 83.1055 -119.775 85.5957 -119.775 L 98.7793 -119.775 L 98.7793 -119.482 L 83.7402 -100.586 C 82.3242 -98.7793 81.7871 -97.6074 81.7871 -95.9961 C 81.7871 -93.6523 83.5449 -91.9922 86.1328 -91.9922 L 107.422 -91.9922 C 109.961 -91.9922 111.67 -93.5059 111.67 -95.8984 C 111.67 -98.291 110.01 -99.8047 107.422 -99.8047 Z M 137.891 -74.9023 L 128.809 -74.9023 L 128.809 -75.1953 L 139.014 -87.793 C 140.381 -89.4043 140.918 -90.5762 140.918 -92.1387 C 140.918 -94.4824 139.16 -95.9961 136.719 -95.9961 L 121.484 -95.9961 C 119.092 -95.9961 117.48 -94.5801 117.48 -92.3828 C 117.48 -90.1367 119.092 -88.7207 121.484 -88.7207 L 129.932 -88.7207 L 129.932 -88.4766 L 119.922 -76.0742 C 118.555 -74.4141 117.92 -73.1445 117.92 -71.5332 C 117.92 -69.2871 119.58 -67.7246 122.021 -67.7246 L 137.891 -67.7246 C 140.332 -67.7246 141.943 -69.0918 141.943 -71.3379 C 141.943 -73.5352 140.332 -74.9023 137.891 -74.9023 Z M 70.459 23.7793 C 94.8242 23.7793 115.381 10.7422 124.756 -10.5469 C 126.562 -14.5996 125.977 -17.7734 124.121 -19.5801 C 122.314 -21.2891 119.238 -21.6797 115.918 -20.2148 C 111.182 -18.1641 105.225 -17.041 98.3887 -17.041 C 70.5078 -17.041 52.7344 -34.082 52.7344 -61.4746 C 52.7344 -68.8477 54.248 -76.1719 56.3965 -80.9082 C 58.1055 -84.668 57.8613 -87.5977 56.1523 -89.5508 C 54.2969 -91.6016 51.0742 -91.9922 47.0703 -90.3809 C 25.6836 -81.5918 11.2793 -59.8145 11.2793 -35.0586 C 11.2793 -1.5625 35.791 23.7793 70.459 23.7793 Z M 109.131 -53.0762 L 101.367 -53.0762 L 101.367 -53.3691 L 110.107 -64.1113 C 111.377 -65.6738 111.914 -66.748 111.914 -68.1641 C 111.914 -70.3125 110.254 -71.6797 108.057 -71.6797 L 94.0918 -71.6797 C 91.8945 -71.6797 90.4297 -70.3613 90.4297 -68.2617 C 90.4297 -66.1621 91.9434 -64.8438 94.0918 -64.8438 L 101.27 -64.8438 L 101.27 -64.5508 L 92.7246 -54.0039 C 91.3086 -52.3438 90.8203 -51.2695 90.8203 -49.7559 C 90.7715 -47.7051 92.334 -46.2402 94.5801 -46.2402 L 109.131 -46.2402 C 111.328 -46.2402 112.842 -47.6074 112.842 -49.6582 C 112.842 -51.7578 111.377 -53.0762 109.131 -53.0762 Z M 70.5566 9.66797 C 44.043 9.66797 25.3906 -9.76562 25.3906 -35.498 C 25.3906 -49.3164 31.4941 -62.3047 41.4551 -70.8496 C 40.3809 -67.5781 39.7461 -62.9395 39.7461 -58.4473 C 39.7461 -25.5371 61.6699 -4.15039 95.2148 -4.15039 C 99.0723 -4.15039 102.637 -4.63867 104.639 -5.27344 C 96.9727 4.10156 84.3262 9.66797 70.5566 9.66797 Z"/>
  </g>
  <g id="Semibold-L" transform="matrix(1 0 0 1 1968.58 1556)">
   <path d="M 104.688 -98.6816 L 90.625 -98.6816 L 90.625 -99.0234 L 105.566 -118.115 C 106.885 -119.824 107.471 -120.898 107.471 -122.266 C 107.471 -124.512 105.762 -125.928 103.418 -125.928 L 83.2031 -125.928 C 80.9082 -125.928 79.3945 -124.512 79.3945 -122.363 C 79.3945 -120.215 80.957 -118.799 83.2031 -118.799 L 96.582 -118.799 L 96.582 -118.506 L 81.5918 -99.4629 C 80.2734 -97.7051 79.7363 -96.6797 79.7363 -95.2148 C 79.7363 -93.0664 81.3477 -91.6016 83.6914 -91.6016 L 104.688 -91.6016 C 106.934 -91.6016 108.447 -92.9688 108.447 -95.166 C 108.447 -97.3145 106.934 -98.6816 104.688 -98.6816 Z M 134.473 -74.2188 L 124.805 -74.2188 L 124.805 -74.4629 L 135.303 -87.6953 C 136.572 -89.2578 137.109 -90.332 137.109 -91.6992 C 137.109 -93.7988 135.498 -95.1172 133.301 -95.1172 L 118.018 -95.1172 C 115.918 -95.1172 114.453 -93.8477 114.453 -91.8457 C 114.453 -89.7949 115.918 -88.5254 118.018 -88.5254 L 126.953 -88.5254 L 126.953 -88.2324 L 116.65 -75.1953 C 115.332 -73.6328 114.795 -72.4609 114.795 -71.0449 C 114.795 -69.043 116.309 -67.627 118.506 -67.627 L 134.473 -67.627 C 136.621 -67.627 138.086 -68.8477 138.086 -70.8984 C 138.086 -72.9004 136.67 -74.2188 134.473 -74.2188 Z M 68.6035 21.9727 C 92.4316 21.9727 112.256 9.57031 121.289 -10.9863 C 122.803 -14.4531 122.314 -17.1387 120.752 -18.7012 C 119.238 -20.166 116.65 -20.5078 113.77 -19.2383 C 108.984 -17.2852 103.125 -16.1621 96.0938 -16.1621 C 67.9688 -16.1621 50.0488 -33.3984 50.0488 -61.1328 C 50.0488 -68.5059 51.5137 -75.8789 53.6621 -80.4688 C 55.127 -83.6914 54.9805 -86.2793 53.5156 -87.9395 C 51.9043 -89.7461 49.1211 -90.0879 45.6055 -88.6719 C 25.1465 -80.127 11.2793 -59.1309 11.2793 -34.9609 C 11.2793 -2.63672 34.8145 21.9727 68.6035 21.9727 Z M 68.7012 10.0098 C 41.8457 10.0098 23.2422 -9.61914 23.2422 -35.4492 C 23.2422 -50.293 30.1758 -63.8672 41.0156 -72.6074 C 39.6973 -68.9453 38.916 -63.623 38.916 -58.3984 C 38.916 -26.123 60.5469 -5.07812 93.3594 -5.07812 C 97.998 -5.07812 102.295 -5.71289 104.688 -6.49414 C 96.9727 3.80859 83.5449 10.0098 68.7012 10.0098 Z M 106.299 -52.6367 L 98.0957 -52.6367 L 98.0957 -52.9297 L 106.982 -64.209 C 108.203 -65.7227 108.691 -66.6504 108.691 -67.9199 C 108.691 -69.9219 107.178 -71.1426 105.127 -71.1426 L 91.4551 -71.1426 C 89.4531 -71.1426 88.0859 -69.9219 88.0859 -68.0176 C 88.0859 -66.0645 89.502 -64.8926 91.4551 -64.8926 L 98.9258 -64.8926 L 98.9258 -64.5996 L 90.1855 -53.4668 C 88.916 -51.9531 88.4277 -50.9766 88.4277 -49.5605 C 88.3789 -47.7051 89.8438 -46.3867 91.8457 -46.3867 L 106.299 -46.3867 C 108.252 -46.3867 109.619 -47.6562 109.619 -49.5605 C 109.619 -51.4648 108.301 -52.6367 106.299 -52.6367 Z"/>
  </g>
  <g id="Medium-L" transform="matrix(1 0 0 1 1673.34 1556)">
   <path d="M 102.588 -97.8027 L 88.3301 -97.8027 L 88.3301 -98.1445 L 103.223 -117.383 C 104.492 -119.043 105.029 -120.02 105.029 -121.289 C 105.029 -123.34 103.467 -124.609 101.318 -124.609 L 81.3477 -124.609 C 79.3457 -124.609 77.9297 -123.291 77.9297 -121.338 C 77.9297 -119.336 79.3457 -118.066 81.3477 -118.066 L 94.9219 -118.066 L 94.9219 -117.725 L 79.9805 -98.584 C 78.6621 -96.9238 78.2227 -95.9961 78.2227 -94.6289 C 78.2227 -92.6758 79.6875 -91.3086 81.8359 -91.3086 L 102.588 -91.3086 C 104.59 -91.3086 106.006 -92.5781 106.006 -94.5801 C 106.006 -96.5332 104.639 -97.8027 102.588 -97.8027 Z M 131.934 -73.6816 L 121.777 -73.6816 L 121.777 -73.9258 L 132.471 -87.5977 C 133.691 -89.1113 134.18 -90.0879 134.18 -91.3574 C 134.18 -93.2617 132.666 -94.4824 130.664 -94.4824 L 115.43 -94.4824 C 113.525 -94.4824 112.158 -93.2617 112.158 -91.4551 C 112.158 -89.502 113.525 -88.3301 115.43 -88.3301 L 124.707 -88.3301 L 124.707 -88.0859 L 114.16 -74.5117 C 112.939 -72.998 112.451 -71.9727 112.451 -70.6543 C 112.451 -68.8477 113.818 -67.5293 115.869 -67.5293 L 131.934 -67.5293 C 133.838 -67.5293 135.156 -68.7012 135.156 -70.6055 C 135.156 -72.4609 133.887 -73.6816 131.934 -73.6816 Z M 67.1875 20.6055 C 90.625 20.6055 109.863 8.69141 118.652 -11.2793 C 119.922 -14.3066 119.531 -16.6992 118.164 -18.0664 C 116.895 -19.3359 114.648 -19.5801 112.158 -18.5547 C 107.324 -16.6504 101.514 -15.4785 94.3359 -15.4785 C 66.0645 -15.4785 47.998 -32.9102 47.998 -60.8887 C 47.998 -68.2129 49.4141 -75.6348 51.6113 -80.1758 C 52.9297 -82.959 52.7832 -85.3027 51.4648 -86.7676 C 50.0977 -88.2812 47.6562 -88.6719 44.4824 -87.3535 C 24.7559 -79.0039 11.2793 -58.6426 11.2793 -34.8633 C 11.2793 -3.4668 34.082 20.6055 67.1875 20.6055 Z M 67.2852 10.3027 C 40.1855 10.3027 21.582 -9.52148 21.582 -35.4004 C 21.582 -51.0742 29.1016 -65.0879 40.625 -73.9258 C 39.1602 -70.0195 38.2812 -64.1602 38.2812 -58.3984 C 38.2812 -26.5625 59.668 -5.76172 91.9922 -5.76172 C 97.2168 -5.76172 102.051 -6.54297 104.785 -7.42188 C 96.9727 3.56445 82.959 10.3027 67.2852 10.3027 Z M 104.15 -52.3438 L 95.6055 -52.3438 L 95.6055 -52.6367 L 104.639 -64.209 C 105.762 -65.7227 106.25 -66.6016 106.25 -67.7734 C 106.25 -69.5801 104.834 -70.752 102.93 -70.752 L 89.4043 -70.752 C 87.5977 -70.752 86.377 -69.5801 86.377 -67.8223 C 86.377 -66.0156 87.6465 -64.8926 89.4043 -64.8926 L 97.168 -64.8926 L 97.168 -64.5996 L 88.2324 -53.125 C 87.0605 -51.6113 86.6211 -50.7324 86.6211 -49.4629 C 86.5723 -47.7539 87.9395 -46.5332 89.8438 -46.5332 L 104.15 -46.5332 C 105.957 -46.5332 107.178 -47.7051 107.178 -49.4629 C 107.178 -51.2207 105.957 -52.3438 104.15 -52.3438 Z"/>
  </g>
  <g id="Regular-L" transform="matrix(1 0 0 1 1378.53 1556)">
   <path d="M 99.9023 -96.6797 L 85.3516 -96.6797 L 85.3516 -97.0215 L 100.146 -116.406 C 101.318 -117.969 101.855 -118.896 101.855 -119.971 C 101.855 -121.777 100.439 -122.852 98.5352 -122.852 L 78.9551 -122.852 C 77.2461 -122.852 76.0254 -121.729 76.0254 -120.02 C 76.0254 -118.213 77.2461 -117.09 78.9551 -117.09 L 92.7734 -117.09 L 92.7734 -116.797 L 77.832 -97.4121 C 76.6113 -95.8984 76.1719 -95.0684 76.1719 -93.7988 C 76.1719 -92.1387 77.4902 -90.918 79.3945 -90.918 L 99.9023 -90.918 C 101.611 -90.918 102.832 -92.041 102.832 -93.8477 C 102.832 -95.5566 101.611 -96.6797 99.9023 -96.6797 Z M 128.564 -72.9492 L 117.822 -72.9492 L 117.822 -73.2422 L 128.809 -87.5 C 129.883 -88.9648 130.42 -89.8438 130.42 -90.918 C 130.42 -92.627 129.053 -93.6523 127.246 -93.6523 L 111.963 -93.6523 C 110.352 -93.6523 109.18 -92.5293 109.18 -90.918 C 109.18 -89.209 110.352 -88.1348 111.963 -88.1348 L 121.777 -88.1348 L 121.777 -87.8418 L 110.889 -73.6328 C 109.766 -72.2168 109.326 -71.3379 109.326 -70.166 C 109.326 -68.5547 110.596 -67.4316 112.402 -67.4316 L 128.564 -67.4316 C 130.225 -67.4316 131.348 -68.5059 131.348 -70.2148 C 131.348 -71.8262 130.225 -72.9492 128.564 -72.9492 Z M 65.3809 18.8477 C 88.2812 18.8477 106.738 7.56836 115.186 -11.7188 C 116.211 -14.1113 115.918 -16.0645 114.844 -17.1875 C 113.867 -18.2129 112.061 -18.457 110.01 -17.627 C 105.176 -15.7715 99.4141 -14.5996 92.0898 -14.5996 C 63.5742 -14.5996 45.3613 -32.2266 45.3613 -60.5469 C 45.3613 -67.8711 46.7285 -75.293 48.877 -79.7363 C 50 -81.9824 49.9023 -83.9844 48.8281 -85.1562 C 47.7539 -86.4258 45.752 -86.8164 43.0176 -85.6445 C 24.2676 -77.5391 11.2793 -57.959 11.2793 -34.7656 C 11.2793 -4.54102 33.1543 18.8477 65.3809 18.8477 Z M 65.4785 10.6445 C 38.0371 10.6445 19.4824 -9.375 19.4824 -35.4004 C 19.4824 -52.0508 27.7832 -66.6504 40.1855 -75.6348 C 38.4766 -71.3379 37.4512 -64.7949 37.4512 -58.3984 C 37.4512 -27.1484 58.5449 -6.68945 90.1855 -6.68945 C 96.1914 -6.68945 101.758 -7.56836 104.834 -8.64258 C 96.9727 3.22266 82.2266 10.6445 65.4785 10.6445 Z M 101.367 -51.9531 L 92.334 -51.9531 L 92.334 -52.1973 L 101.514 -64.3066 C 102.588 -65.7715 103.076 -66.5039 103.076 -67.5781 C 103.076 -69.1895 101.758 -70.2148 100.098 -70.2148 L 86.7676 -70.2148 C 85.2051 -70.2148 84.082 -69.1406 84.082 -67.5781 C 84.082 -65.918 85.2051 -64.9414 86.7676 -64.9414 L 94.8242 -64.9414 L 94.8242 -64.6484 L 85.7422 -52.6367 C 84.668 -51.2207 84.2285 -50.4395 84.2285 -49.3164 C 84.2285 -47.7539 85.4492 -46.6797 87.1582 -46.6797 L 101.367 -46.6797 C 102.93 -46.6797 104.004 -47.7539 104.004 -49.3164 C 104.004 -50.8789 102.93 -51.9531 101.367 -51.9531 Z"/>
  </g>
  <g id="Light-L" transform="matrix(1 0 0 1 1082.97 1556)">
   <path d="M 99.1699 -95.0195 L 84.3262 -95.0195 L 84.3262 -95.3613 L 99.2676 -114.795 C 100.293 -116.113 100.781 -116.895 100.781 -117.92 C 100.781 -119.482 99.5605 -120.41 97.9004 -120.41 L 79.248 -120.41 C 77.832 -120.41 76.8066 -119.385 76.8066 -118.018 C 76.8066 -116.602 77.832 -115.625 79.248 -115.625 L 93.3594 -115.625 L 93.3594 -115.332 L 78.3691 -95.8984 C 77.3438 -94.5801 76.9043 -93.8477 76.9043 -92.7734 C 76.9043 -91.2598 78.0762 -90.2832 79.7363 -90.2832 L 99.1699 -90.2832 C 100.586 -90.2832 101.611 -91.2598 101.611 -92.6758 C 101.611 -94.043 100.586 -95.0195 99.1699 -95.0195 Z M 126.709 -71.7773 L 115.186 -71.7773 L 115.186 -72.0703 L 126.807 -87.1094 C 127.783 -88.3789 128.271 -89.1113 128.271 -90.1367 C 128.271 -91.6504 127.051 -92.5293 125.488 -92.5293 L 110.4 -92.5293 C 109.033 -92.5293 108.057 -91.5527 108.057 -90.2832 C 108.057 -88.8672 109.033 -87.9395 110.4 -87.9395 L 121.143 -87.9395 L 121.143 -87.6465 L 109.57 -72.6562 C 108.594 -71.3867 108.154 -70.6543 108.154 -69.5801 C 108.154 -68.1641 109.326 -67.1875 110.889 -67.1875 L 126.709 -67.1875 C 128.125 -67.1875 129.053 -68.1152 129.053 -69.4824 C 129.053 -70.8496 128.125 -71.7773 126.709 -71.7773 Z M 64.0625 17.9199 C 86.6699 17.9199 104.932 7.08008 113.33 -11.6211 C 114.209 -13.623 114.014 -15.2832 113.086 -16.2598 C 112.256 -17.1875 110.693 -17.4316 108.838 -16.6992 C 103.906 -14.7949 98.1934 -13.623 90.6738 -13.623 C 61.7676 -13.623 43.457 -31.2988 43.457 -60.498 C 43.457 -67.3828 44.6777 -74.6094 47.0703 -79.6875 C 48.0469 -81.6895 47.9492 -83.3984 46.9727 -84.4238 C 45.9961 -85.498 44.1895 -85.791 41.748 -84.668 C 23.7793 -76.2207 11.2793 -57.4707 11.2793 -34.7656 C 11.2793 -5.17578 32.1289 17.9199 64.0625 17.9199 Z M 64.1113 11.6211 C 35.8887 11.6211 17.5293 -8.93555 17.5293 -35.1562 C 17.5293 -52.9785 27.0996 -68.3105 40.5273 -77.3926 C 38.5254 -72.9492 37.3535 -65.9668 37.3535 -59.082 C 37.3535 -27.4902 57.959 -7.51953 89.502 -7.51953 C 96.0449 -7.51953 102.1 -8.59375 105.713 -9.96094 C 97.8516 3.32031 82.1777 11.6211 64.1113 11.6211 Z M 100.293 -51.4648 L 90.7227 -51.4648 L 90.7227 -51.7578 L 100.342 -64.209 C 101.27 -65.5273 101.758 -66.1621 101.758 -67.1387 C 101.758 -68.6523 100.586 -69.4824 99.0723 -69.4824 L 86.1328 -69.4824 C 84.8145 -69.4824 83.8867 -68.5547 83.8867 -67.2852 C 83.8867 -65.9668 84.8145 -65.0391 86.1328 -65.0391 L 94.9219 -65.0391 L 94.9219 -64.7461 L 85.3516 -52.3438 C 84.375 -51.0742 83.9844 -50.4395 83.9844 -49.3652 C 83.9844 -47.9492 85.0586 -47.0215 86.5723 -47.0215 L 100.293 -47.0215 C 101.611 -47.0215 102.539 -47.998 102.539 -49.2676 C 102.539 -50.5371 101.611 -51.4648 100.293 -51.4648 Z"/>
  </g>
  <g id="Thin-L" transform="matrix(1 0 0 1 787.77 1556)">
   <path d="M 98.2422 -92.7734 L 82.959 -92.7734 L 82.959 -93.1152 L 98.0957 -112.646 C 98.9746 -113.672 99.3652 -114.209 99.3652 -115.137 C 99.3652 -116.406 98.3398 -117.139 97.0703 -117.139 L 79.6387 -117.139 C 78.5645 -117.139 77.832 -116.357 77.832 -115.43 C 77.832 -114.502 78.5645 -113.721 79.6387 -113.721 L 94.1895 -113.721 L 94.1895 -113.379 L 79.1016 -93.8477 C 78.2715 -92.8223 77.832 -92.2852 77.832 -91.3574 C 77.832 -90.0879 78.8574 -89.4043 80.1758 -89.4043 L 98.2422 -89.4043 C 99.2676 -89.4043 100 -90.1367 100 -91.1133 C 100 -91.9922 99.2676 -92.7734 98.2422 -92.7734 Z M 124.268 -70.2637 L 111.621 -70.2637 L 111.621 -70.5566 L 124.17 -86.6211 C 125 -87.6465 125.439 -88.1836 125.439 -89.1113 C 125.439 -90.3809 124.414 -91.0645 123.145 -91.0645 L 108.35 -91.0645 C 107.275 -91.0645 106.592 -90.2832 106.592 -89.4043 C 106.592 -88.4766 107.275 -87.6953 108.35 -87.6953 L 120.312 -87.6953 L 120.312 -87.3535 L 107.861 -71.3379 C 106.982 -70.3125 106.592 -69.7754 106.592 -68.8477 C 106.592 -67.5781 107.617 -66.8945 108.887 -66.8945 L 124.268 -66.8945 C 125.342 -66.8945 126.025 -67.627 126.025 -68.5547 C 126.025 -69.4824 125.342 -70.2637 124.268 -70.2637 Z M 62.3047 16.6992 C 84.6191 16.6992 102.539 6.39648 110.84 -11.4258 C 111.523 -12.9395 111.523 -14.3066 110.791 -15.0879 C 110.107 -15.8203 108.887 -16.0645 107.324 -15.4785 C 102.197 -13.5742 96.5332 -12.3047 88.8184 -12.3047 C 59.375 -12.3047 40.918 -30.0293 40.918 -60.4492 C 40.918 -66.7969 41.9434 -73.7305 44.7266 -79.5898 C 45.5078 -81.25 45.3613 -82.6172 44.4824 -83.4473 C 43.6523 -84.3262 42.1387 -84.4238 40.0879 -83.3984 C 23.1934 -74.5117 11.2793 -56.8359 11.2793 -34.7656 C 11.2793 -6.00586 30.7617 16.6992 62.3047 16.6992 Z M 62.3535 12.9395 C 33.1055 12.9395 14.9902 -8.39844 14.9902 -34.8633 C 14.9902 -54.248 26.2207 -70.5566 40.918 -79.7852 C 38.623 -75 37.207 -67.5293 37.207 -60.0586 C 37.207 -27.9785 57.1777 -8.59375 88.5742 -8.59375 C 95.8008 -8.59375 102.539 -9.96094 106.934 -11.6699 C 99.0234 3.4668 82.1289 12.9395 62.3535 12.9395 Z M 98.9258 -50.8789 L 88.5742 -50.8789 L 88.5742 -51.1719 L 98.7793 -64.1602 C 99.5605 -65.1855 100.049 -65.7227 100.049 -66.6016 C 100.049 -67.8711 99.0234 -68.5547 97.7539 -68.5547 L 85.3027 -68.5547 C 84.2773 -68.5547 83.5938 -67.8223 83.5938 -66.8945 C 83.5938 -65.9668 84.2773 -65.2344 85.3027 -65.2344 L 94.9707 -65.2344 L 94.9707 -64.8926 L 84.8145 -51.9531 C 83.9844 -50.8301 83.5938 -50.3906 83.5938 -49.4629 C 83.5938 -48.2422 84.5703 -47.5098 85.8398 -47.5098 L 98.9258 -47.5098 C 99.9512 -47.5098 100.635 -48.291 100.635 -49.2188 C 100.635 -50.0977 99.9512 -50.8789 98.9258 -50.8789 Z"/>
  </g>
  <g id="Ultralight-L" transform="matrix(1 0 0 1 491.84 1556)">
   <path d="M 97.7539 -91.6504 L 82.2754 -91.6504 L 82.2754 -91.9922 L 97.5098 -111.523 C 98.291 -112.451 98.6816 -112.842 98.6816 -113.721 C 98.6816 -114.844 97.7539 -115.43 96.6309 -115.43 L 79.7852 -115.43 C 78.9551 -115.43 78.3691 -114.795 78.3691 -114.062 C 78.3691 -113.379 78.9551 -112.695 79.7852 -112.695 L 94.6289 -112.695 L 94.6289 -112.402 L 79.4922 -92.8223 C 78.7598 -91.9434 78.3203 -91.5039 78.3203 -90.6738 C 78.3203 -89.502 79.248 -88.916 80.3711 -88.916 L 97.7539 -88.916 C 98.6328 -88.916 99.1699 -89.5996 99.1699 -90.2832 C 99.1699 -90.9668 98.6328 -91.6504 97.7539 -91.6504 Z M 122.998 -69.4824 L 109.814 -69.4824 L 109.814 -69.7754 L 122.803 -86.377 C 123.584 -87.3047 123.975 -87.6953 123.975 -88.5742 C 123.975 -89.6973 123.047 -90.332 121.924 -90.332 L 107.275 -90.332 C 106.396 -90.332 105.811 -89.6484 105.811 -88.916 C 105.811 -88.2324 106.396 -87.5488 107.275 -87.5488 L 119.873 -87.5488 L 119.873 -87.2559 L 106.934 -70.6543 C 106.201 -69.7266 105.811 -69.2871 105.811 -68.457 C 105.811 -67.2852 106.738 -66.6992 107.861 -66.6992 L 122.998 -66.6992 C 123.926 -66.6992 124.463 -67.3828 124.463 -68.1152 C 124.463 -68.7988 123.926 -69.4824 122.998 -69.4824 Z M 61.4258 16.0645 C 83.5449 16.0645 101.318 6.05469 109.57 -11.3281 C 110.156 -12.5977 110.205 -13.7695 109.619 -14.4531 C 109.033 -15.1367 107.959 -15.3809 106.494 -14.8438 C 101.318 -12.9395 95.7031 -11.6211 87.8418 -11.6211 C 58.1543 -11.6211 39.5996 -29.3945 39.5996 -60.4492 C 39.5996 -66.5039 40.5273 -73.2422 43.5059 -79.541 C 44.1895 -81.0059 43.9941 -82.2266 43.2617 -82.959 C 42.4805 -83.6914 41.1133 -83.7402 39.2578 -82.7148 C 22.8516 -73.584 11.2793 -56.4941 11.2793 -34.7656 C 11.2793 -6.44531 30.0781 16.0645 61.4258 16.0645 Z M 61.4258 13.623 C 31.6406 13.623 13.7207 -8.10547 13.7207 -34.7168 C 13.7207 -54.8828 25.7812 -71.6797 41.1133 -80.957 C 38.623 -76.0742 37.1582 -68.3105 37.1582 -60.498 C 37.1582 -28.2227 56.7871 -9.17969 88.0859 -9.17969 C 95.6543 -9.17969 102.734 -10.6934 107.52 -12.5488 C 99.6094 3.51562 82.1289 13.623 61.4258 13.623 Z M 98.1934 -50.5371 L 87.4512 -50.5371 L 87.4512 -50.8789 L 97.998 -64.1113 C 98.6816 -65.0391 99.1699 -65.4785 99.1699 -66.3574 C 99.1699 -67.4805 98.2422 -68.1152 97.0703 -68.1152 L 84.9121 -68.1152 C 83.9844 -68.1152 83.4473 -67.4316 83.4473 -66.6992 C 83.4473 -66.0156 83.9844 -65.332 84.9121 -65.332 L 95.0195 -65.332 L 95.0195 -64.9902 L 84.5703 -51.7578 C 83.7891 -50.7324 83.3984 -50.3906 83.3984 -49.5117 C 83.3984 -48.3398 84.3262 -47.7539 85.498 -47.7539 L 98.1934 -47.7539 C 99.0723 -47.7539 99.6582 -48.4375 99.6582 -49.1699 C 99.6582 -49.8535 99.0723 -50.5371 98.1934 -50.5371 Z"/>
  </g>
  <g id="Black-M" transform="matrix(1 0 0 1 2867.19 1126)">
   <path d="M 93.5059 -88.7695 L 83.7402 -88.7695 L 83.7402 -89.0137 L 95.8008 -103.125 C 97.168 -104.785 97.6562 -105.811 97.6562 -107.715 C 97.6562 -110.4 95.7031 -112.305 92.8711 -112.305 L 75.8301 -112.305 C 72.7539 -112.305 70.9473 -110.693 70.9473 -108.057 C 70.9473 -105.469 72.9004 -103.76 75.8301 -103.76 L 85.3516 -103.76 L 85.3516 -103.516 L 73.584 -89.502 C 72.2168 -87.8906 71.6797 -86.5723 71.6797 -84.8633 C 71.6797 -82.1777 73.6328 -80.3711 76.416 -80.3711 L 93.5059 -80.3711 C 96.4355 -80.3711 98.3887 -81.9824 98.3887 -84.5703 C 98.3887 -87.207 96.582 -88.7695 93.5059 -88.7695 Z M 61.1328 16.9922 C 81.9336 16.9922 100.586 4.63867 109.18 -14.3066 C 111.572 -19.6289 110.84 -23.7305 108.35 -25.9766 C 105.908 -28.2715 101.807 -28.7109 97.5586 -26.709 C 93.9453 -24.9512 89.0625 -24.0234 84.4238 -24.0234 C 63.4277 -24.0234 50.2441 -36.4258 50.2441 -56.8848 C 50.2441 -62.4023 51.5625 -67.8711 53.3691 -72.2656 C 55.3711 -77.1484 55.0781 -80.6152 52.832 -83.0566 C 50.3906 -85.791 46.2402 -86.0352 41.5039 -84.1309 C 21.6309 -76.1719 8.74023 -56.7383 8.74023 -35.4492 C 8.74023 -5.22461 30.9082 16.9922 61.1328 16.9922 Z M 119.043 -68.1152 L 113.818 -68.1152 L 113.818 -68.3594 L 121.045 -76.2207 C 122.461 -77.5879 122.949 -78.8574 122.949 -80.6641 C 122.949 -83.252 121.045 -85.0098 118.408 -85.0098 L 106.787 -85.0098 C 103.857 -85.0098 102.1 -83.6426 102.1 -81.25 C 102.1 -78.9062 103.955 -77.4902 106.787 -77.4902 L 111.865 -77.4902 L 111.865 -77.2461 L 105.029 -69.8242 C 103.564 -68.2617 102.881 -66.748 102.881 -64.9902 C 102.881 -62.4023 104.688 -60.6934 107.324 -60.6934 L 119.043 -60.6934 C 121.875 -60.6934 123.682 -62.0605 123.682 -64.4043 C 123.682 -66.6992 121.924 -68.1152 119.043 -68.1152 Z M 94.9707 -50.3906 L 90.4297 -50.3906 L 90.4297 -50.6348 L 96.8262 -57.373 C 97.998 -58.6426 98.4375 -59.7656 98.4375 -61.377 C 98.4375 -63.6719 96.8262 -65.2344 94.4336 -65.2344 L 82.959 -65.2344 C 80.3711 -65.2344 78.8574 -63.916 78.8574 -61.6699 C 78.8574 -59.5215 80.5176 -58.1543 82.959 -58.1543 L 87.5488 -58.1543 L 87.5488 -57.8613 L 81.4941 -51.5137 C 79.9805 -49.9512 79.541 -48.8281 79.4922 -47.1191 C 79.4434 -44.9219 81.0547 -43.3594 83.4473 -43.3594 L 94.9707 -43.3594 C 97.5098 -43.3594 99.1211 -44.7266 99.1211 -46.875 C 99.1211 -49.1211 97.6074 -50.3906 94.9707 -50.3906 Z M 61.1328 -1.31836 C 41.5039 -1.31836 26.9531 -15.8203 26.9531 -35.4492 C 26.9531 -42.7734 29.3457 -50.9766 34.082 -57.0312 C 34.0332 -55.8105 33.9844 -54.7363 33.9844 -53.6133 C 33.9844 -25.7324 51.9043 -8.00781 80.4688 -8.00781 C 80.6641 -8.00781 80.957 -7.95898 81.25 -7.95898 C 75.6348 -3.4668 68.2617 -1.31836 61.1328 -1.31836 Z"/>
  </g>
  <g id="Heavy-M" transform="matrix(1 0 0 1 2572.89 1126)">
   <path d="M 89.7949 -87.5977 L 79.7363 -87.5977 L 79.7363 -87.8418 L 91.6016 -102.197 C 92.9199 -103.711 93.3594 -104.736 93.3594 -106.396 C 93.3594 -108.838 91.6016 -110.498 89.0625 -110.498 L 72.3633 -110.498 C 69.6289 -110.498 68.0176 -108.984 68.0176 -106.641 C 68.0176 -104.297 69.7266 -102.783 72.3633 -102.783 L 82.0801 -102.783 L 82.0801 -102.49 L 70.3613 -88.2812 C 69.0918 -86.7188 68.6035 -85.5469 68.6035 -84.0332 C 68.6035 -81.5918 70.3613 -79.9805 72.8516 -79.9805 L 89.7949 -79.9805 C 92.3828 -79.9805 94.1406 -81.4453 94.1406 -83.7891 C 94.1406 -86.1816 92.4805 -87.5977 89.7949 -87.5977 Z M 114.697 -67.3828 L 108.887 -67.3828 L 108.887 -67.627 L 116.309 -76.123 C 117.578 -77.4902 118.066 -78.6133 118.066 -80.2246 C 118.066 -82.5195 116.357 -84.082 113.965 -84.082 L 102.246 -84.082 C 99.707 -84.082 98.1445 -82.8125 98.1445 -80.6641 C 98.1445 -78.5156 99.7559 -77.1973 102.246 -77.1973 L 107.812 -77.1973 L 107.812 -76.9531 L 100.684 -68.7988 C 99.3652 -67.334 98.7305 -66.0156 98.7305 -64.4043 C 98.7305 -62.1582 100.391 -60.5957 102.783 -60.5957 L 114.697 -60.5957 C 117.188 -60.5957 118.848 -61.8652 118.848 -64.0137 C 118.848 -66.1133 117.236 -67.3828 114.697 -67.3828 Z M 58.8379 14.6973 C 78.9551 14.6973 96.6309 3.125 104.736 -14.9902 C 106.787 -19.5312 106.152 -23.0469 104.053 -25 C 101.953 -26.9531 98.4375 -27.3438 94.8242 -25.6348 C 91.1621 -23.9258 86.4258 -22.998 81.543 -22.998 C 60.3516 -22.998 46.9238 -35.7422 46.9238 -56.3965 C 46.9238 -62.0117 48.1934 -67.5781 49.9512 -71.6797 C 51.709 -75.8301 51.4648 -78.9062 49.5605 -81.0059 C 47.4609 -83.3496 43.8965 -83.5938 39.7461 -81.9336 C 21.0449 -74.4141 8.74023 -55.8594 8.74023 -35.3027 C 8.74023 -6.5918 29.7852 14.6973 58.8379 14.6973 Z M 91.2598 -49.9023 L 86.1816 -49.9023 L 86.1816 -50.1465 L 92.7246 -57.4707 C 93.8477 -58.6914 94.2383 -59.7168 94.2383 -61.1816 C 94.2383 -63.2324 92.7246 -64.6484 90.5762 -64.6484 L 79.3457 -64.6484 C 77.0508 -64.6484 75.6836 -63.4277 75.6836 -61.377 C 75.6836 -59.4238 77.1484 -58.1543 79.3457 -58.1543 L 84.2285 -58.1543 L 84.2285 -57.9102 L 78.0273 -50.8789 C 76.6602 -49.4141 76.2207 -48.3887 76.1719 -46.875 C 76.123 -44.9219 77.6367 -43.457 79.7852 -43.457 L 91.2598 -43.457 C 93.5059 -43.457 94.9707 -44.7266 94.9707 -46.7285 C 94.9707 -48.7305 93.6035 -49.9023 91.2598 -49.9023 Z M 58.8379 -1.07422 C 38.9648 -1.07422 24.4141 -15.7227 24.4141 -35.4492 C 24.4141 -43.9453 27.5879 -52.7832 33.3496 -59.0332 C 33.0078 -57.373 32.8125 -55.3711 32.8125 -53.418 C 32.8125 -26.416 50.4395 -9.08203 78.0762 -9.08203 C 79.248 -9.08203 80.4199 -9.22852 81.1523 -9.375 C 75.4395 -3.95508 67.1875 -1.07422 58.8379 -1.07422 Z"/>
  </g>
  <g id="Bold-M" transform="matrix(1 0 0 1 2278.92 1126)">
   <path d="M 85.6445 -86.2793 L 75.1953 -86.2793 L 75.1953 -86.5234 L 86.9141 -101.123 C 88.1348 -102.588 88.5742 -103.516 88.5742 -104.932 C 88.5742 -107.031 87.0117 -108.447 84.8145 -108.447 L 68.457 -108.447 C 66.1621 -108.447 64.6973 -107.129 64.6973 -105.029 C 64.6973 -102.979 66.2109 -101.66 68.457 -101.66 L 78.4668 -101.66 L 78.4668 -101.367 L 66.7969 -86.9141 C 65.5762 -85.4492 65.1855 -84.4238 65.1855 -83.0566 C 65.1855 -81.0059 66.6992 -79.541 68.8965 -79.541 L 85.6445 -79.541 C 87.8906 -79.541 89.4043 -80.8594 89.4043 -82.959 C 89.4043 -85.0098 87.9395 -86.2793 85.6445 -86.2793 Z M 109.863 -66.6016 L 103.32 -66.6016 L 103.32 -66.8457 L 110.986 -76.0742 C 112.158 -77.3926 112.598 -78.3691 112.598 -79.7363 C 112.598 -81.7383 111.084 -83.0566 109.033 -83.0566 L 97.2168 -83.0566 C 95.0684 -83.0566 93.7012 -81.8848 93.7012 -80.0293 C 93.7012 -78.0762 95.1172 -76.9043 97.2168 -76.9043 L 103.271 -76.9043 L 103.271 -76.6602 L 95.8496 -67.6758 C 94.6777 -66.3086 94.1406 -65.1855 94.1406 -63.8184 C 94.1406 -61.8652 95.5566 -60.498 97.6562 -60.498 L 109.863 -60.498 C 112.012 -60.498 113.379 -61.6699 113.379 -63.5742 C 113.379 -65.4297 112.012 -66.6016 109.863 -66.6016 Z M 56.25 12.1094 C 75.6348 12.1094 92.1875 1.41602 99.7559 -15.7227 C 101.416 -19.3848 100.879 -22.2656 99.1699 -23.877 C 97.5098 -25.4395 94.7266 -25.7812 91.748 -24.4141 C 88.0859 -22.8027 83.3984 -21.9238 78.2715 -21.9238 C 56.8848 -21.9238 43.2617 -34.9609 43.2617 -55.8594 C 43.2617 -61.5723 44.4824 -67.2852 46.1426 -70.9961 C 47.6074 -74.4141 47.4121 -76.9531 45.8984 -78.7109 C 44.1895 -80.6152 41.2598 -80.9082 37.793 -79.4922 C 20.3613 -72.4609 8.74023 -54.9316 8.74023 -35.1562 C 8.74023 -8.1543 28.5645 12.1094 56.25 12.1094 Z M 87.0605 -49.4141 L 81.4453 -49.4141 L 81.4453 -49.6582 L 88.0859 -57.5684 C 89.1602 -58.8379 89.5508 -59.7168 89.5508 -60.9375 C 89.5508 -62.793 88.1836 -63.9648 86.2793 -63.9648 L 75.293 -63.9648 C 73.3398 -63.9648 72.0703 -62.8906 72.0703 -61.084 C 72.0703 -59.2773 73.3887 -58.1543 75.293 -58.1543 L 80.5176 -58.1543 L 80.5176 -57.9102 L 74.0723 -50.1953 C 72.9004 -48.8281 72.5098 -47.9492 72.4609 -46.6309 C 72.4121 -44.873 73.7305 -43.6035 75.6348 -43.6035 L 87.0605 -43.6035 C 88.9648 -43.6035 90.2832 -44.7754 90.2832 -46.5332 C 90.2832 -48.3398 89.0625 -49.4141 87.0605 -49.4141 Z M 56.2988 -0.78125 C 36.084 -0.78125 21.582 -15.625 21.582 -35.4492 C 21.582 -45.2637 25.6348 -54.7852 32.5195 -61.2793 C 31.8848 -59.082 31.543 -56.1035 31.543 -53.2227 C 31.543 -27.2461 48.7793 -10.3027 75.3906 -10.3027 C 77.6855 -10.3027 79.834 -10.5957 81.0059 -10.9375 C 75.1465 -4.49219 66.0156 -0.78125 56.2988 -0.78125 Z"/>
  </g>
  <g id="Semibold-M" transform="matrix(1 0 0 1 1984.06 1126)">
   <path d="M 82.8125 -85.4004 L 72.1191 -85.4004 L 72.1191 -85.6445 L 83.7402 -100.391 C 84.8633 -101.807 85.3027 -102.686 85.3027 -103.906 C 85.3027 -105.762 83.8379 -107.031 81.8359 -107.031 L 65.7715 -107.031 C 63.7695 -107.031 62.4512 -105.811 62.4512 -103.955 C 62.4512 -102.051 63.8184 -100.879 65.7715 -100.879 L 75.9277 -100.879 L 75.9277 -100.635 L 64.3066 -85.9863 C 63.1836 -84.5215 62.793 -83.6426 62.793 -82.373 C 62.793 -80.5664 64.1602 -79.2969 66.1133 -79.2969 L 82.8125 -79.2969 C 84.7656 -79.2969 86.1328 -80.4199 86.1328 -82.373 C 86.1328 -84.2285 84.8145 -85.4004 82.8125 -85.4004 Z M 106.494 -66.0645 L 99.5117 -66.0645 L 99.5117 -66.3086 L 107.324 -76.0254 C 108.398 -77.2949 108.838 -78.2227 108.838 -79.3945 C 108.838 -81.2012 107.471 -82.373 105.615 -82.373 L 93.75 -82.373 C 91.8945 -82.373 90.625 -81.2988 90.625 -79.541 C 90.625 -77.7832 91.8945 -76.709 93.75 -76.709 L 100.146 -76.709 L 100.146 -76.4648 L 92.5293 -66.8945 C 91.4062 -65.625 90.9668 -64.5996 90.9668 -63.3789 C 90.9668 -61.6699 92.2363 -60.4492 94.1406 -60.4492 L 106.494 -60.4492 C 108.398 -60.4492 109.668 -61.4746 109.668 -63.2812 C 109.668 -64.9902 108.398 -66.0645 106.494 -66.0645 Z M 54.4922 10.3027 C 73.291 10.3027 89.1113 0.244141 96.3379 -16.2109 C 97.7051 -19.3359 97.2656 -21.7285 95.8496 -23.0957 C 94.4824 -24.4141 92.1387 -24.6582 89.5996 -23.584 C 85.9375 -22.0215 81.3477 -21.1426 76.0742 -21.1426 C 54.4922 -21.1426 40.7227 -34.375 40.7227 -55.5176 C 40.7227 -61.2793 41.8945 -67.041 43.5059 -70.5566 C 44.7754 -73.3887 44.6289 -75.6348 43.3594 -77.1484 C 41.9434 -78.7109 39.502 -79.0527 36.4258 -77.832 C 19.873 -71.1426 8.74023 -54.248 8.74023 -35.0586 C 8.74023 -9.22852 27.7344 10.3027 54.4922 10.3027 Z M 84.1797 -49.0723 L 78.1738 -49.0723 L 78.1738 -49.2676 L 84.9121 -57.666 C 85.8887 -58.8867 86.2793 -59.7168 86.2793 -60.791 C 86.2793 -62.4512 85.0586 -63.5254 83.3008 -63.5254 L 72.5098 -63.5254 C 70.752 -63.5254 69.6289 -62.5 69.6289 -60.8398 C 69.6289 -59.1797 70.8008 -58.1543 72.5098 -58.1543 L 77.9297 -58.1543 L 77.9297 -57.959 L 71.3867 -49.707 C 70.3125 -48.4375 69.9219 -47.6074 69.9219 -46.4355 C 69.873 -44.873 71.0938 -43.7012 72.8027 -43.7012 L 84.1797 -43.7012 C 85.8887 -43.7012 87.0605 -44.7754 87.0605 -46.3867 C 87.0605 -48.0469 85.9375 -49.0723 84.1797 -49.0723 Z M 54.541 -0.585938 C 34.1309 -0.585938 19.6289 -15.5762 19.6289 -35.4492 C 19.6289 -46.1426 24.2676 -56.2012 31.9336 -62.8418 C 31.1523 -60.2539 30.6641 -56.5918 30.6641 -53.0762 C 30.6641 -27.7832 47.6562 -11.1328 73.5352 -11.1328 C 76.5625 -11.1328 79.3945 -11.5234 80.9082 -12.0117 C 74.9512 -4.83398 65.1855 -0.585938 54.541 -0.585938 Z"/>
  </g>
  <g id="Medium-M" transform="matrix(1 0 0 1 1688.79 1126)">
   <path d="M 80.6641 -84.7168 L 69.7754 -84.7168 L 69.7754 -84.9609 L 81.2988 -99.8047 C 82.373 -101.172 82.7637 -102.051 82.7637 -103.125 C 82.7637 -104.834 81.4453 -105.957 79.6387 -105.957 L 63.7207 -105.957 C 61.9629 -105.957 60.7422 -104.834 60.7422 -103.125 C 60.7422 -101.367 61.9629 -100.293 63.7207 -100.293 L 74.0234 -100.293 L 74.0234 -100.049 L 62.4512 -85.2539 C 61.377 -83.8379 60.9863 -83.0566 60.9863 -81.8848 C 60.9863 -80.2246 62.207 -79.0527 64.0625 -79.0527 L 80.6641 -79.0527 C 82.373 -79.0527 83.6426 -80.127 83.6426 -81.8848 C 83.6426 -83.5938 82.4219 -84.7168 80.6641 -84.7168 Z M 104.004 -65.6738 L 96.6309 -65.6738 L 96.6309 -65.8691 L 104.59 -75.9766 C 105.566 -77.2461 106.006 -78.0762 106.006 -79.1504 C 106.006 -80.7617 104.736 -81.8359 102.979 -81.8359 L 91.1133 -81.8359 C 89.4531 -81.8359 88.2812 -80.8105 88.2812 -79.1992 C 88.2812 -77.5391 89.4531 -76.5137 91.1133 -76.5137 L 97.8027 -76.5137 L 97.8027 -76.3184 L 89.9902 -66.3086 C 88.9648 -65.0879 88.5742 -64.1602 88.5742 -63.0371 C 88.5742 -61.5234 89.7461 -60.4004 91.4551 -60.4004 L 104.004 -60.4004 C 105.664 -60.4004 106.787 -61.377 106.787 -63.0371 C 106.787 -64.6484 105.664 -65.6738 104.004 -65.6738 Z M 53.1738 8.93555 C 71.582 8.93555 86.8164 -0.634766 93.7012 -16.6016 C 94.873 -19.2383 94.5312 -21.3379 93.3105 -22.5098 C 92.1387 -23.6328 90.1855 -23.877 88.0371 -22.9492 C 84.3262 -21.4355 79.7852 -20.5566 74.3652 -20.5566 C 52.6367 -20.5566 38.7695 -33.9844 38.7695 -55.2246 C 38.7695 -61.084 39.9414 -66.8945 41.5039 -70.2148 C 42.627 -72.6562 42.5293 -74.6582 41.4062 -75.9277 C 40.2344 -77.2949 38.1348 -77.6367 35.4004 -76.5137 C 19.5312 -70.1172 8.74023 -53.7598 8.74023 -35.0098 C 8.74023 -10.0586 27.0996 8.93555 53.1738 8.93555 Z M 53.2227 -0.439453 C 32.6172 -0.439453 18.1152 -15.5273 18.1152 -35.4492 C 18.1152 -46.8262 23.2422 -57.2266 31.543 -64.0137 C 30.5664 -61.1816 29.9805 -56.9824 29.9805 -52.9297 C 29.9805 -28.1738 46.8262 -11.7676 72.1191 -11.7676 C 75.7324 -11.7676 79.1016 -12.2559 80.8594 -12.8418 C 74.8047 -5.12695 64.5508 -0.439453 53.2227 -0.439453 Z M 81.9824 -48.7793 L 75.7324 -48.7793 L 75.7324 -49.0234 L 82.5195 -57.7148 C 83.4473 -58.9355 83.8379 -59.7168 83.8379 -60.6934 C 83.8379 -62.207 82.666 -63.1836 81.0547 -63.1836 L 70.3613 -63.1836 C 68.7988 -63.1836 67.7246 -62.207 67.7246 -60.6934 C 67.7246 -59.1309 68.8477 -58.1543 70.3613 -58.1543 L 76.0254 -58.1543 L 76.0254 -57.959 L 69.3359 -49.3652 C 68.3594 -48.1445 67.9688 -47.3633 67.9688 -46.2891 C 67.9688 -44.8242 69.043 -43.7988 70.6543 -43.7988 L 81.9824 -43.7988 C 83.5449 -43.7988 84.6191 -44.7754 84.6191 -46.2891 C 84.6191 -47.8516 83.5449 -48.7793 81.9824 -48.7793 Z"/>
  </g>
  <g id="Regular-M" transform="matrix(1 0 0 1 1393.91 1126)">
   <path d="M 77.832 -83.8379 L 66.6992 -83.8379 L 66.6992 -84.082 L 78.0762 -99.0723 C 79.1016 -100.391 79.541 -101.221 79.541 -102.1 C 79.541 -103.613 78.3203 -104.541 76.709 -104.541 L 61.0352 -104.541 C 59.5703 -104.541 58.4961 -103.564 58.4961 -102.051 C 58.4961 -100.439 59.5703 -99.5117 61.0352 -99.5117 L 71.5332 -99.5117 L 71.5332 -99.2676 L 60.0098 -84.3262 C 58.9844 -82.959 58.6426 -82.2754 58.6426 -81.25 C 58.6426 -79.834 59.7168 -78.7598 61.3281 -78.7598 L 77.832 -78.7598 C 79.2969 -78.7598 80.3711 -79.7363 80.3711 -81.3477 C 80.3711 -82.8125 79.2969 -83.8379 77.832 -83.8379 Z M 100.684 -65.1367 L 92.8711 -65.1367 L 92.8711 -65.332 L 100.977 -75.9277 C 101.855 -77.1973 102.295 -77.9297 102.295 -78.8086 C 102.295 -80.2246 101.123 -81.1523 99.6094 -81.1523 L 87.6953 -81.1523 C 86.2793 -81.1523 85.2539 -80.1758 85.2539 -78.7598 C 85.2539 -77.2461 86.2793 -76.3184 87.6953 -76.3184 L 94.7266 -76.3184 L 94.7266 -76.123 L 86.6699 -65.5762 C 85.7422 -64.4043 85.4004 -63.623 85.4004 -62.6465 C 85.4004 -61.3281 86.4258 -60.3027 87.9883 -60.3027 L 100.684 -60.3027 C 102.1 -60.3027 103.125 -61.2305 103.125 -62.7441 C 103.125 -64.1602 102.1 -65.1367 100.684 -65.1367 Z M 51.416 7.17773 C 69.2871 7.17773 83.7402 -1.80664 90.332 -17.0898 C 91.2109 -19.1895 90.918 -20.8008 89.9902 -21.7773 C 89.1602 -22.6074 87.6465 -22.8027 85.9375 -22.1191 C 82.2266 -20.6543 77.7832 -19.8242 72.168 -19.8242 C 50.293 -19.8242 36.2305 -33.4473 36.2305 -54.8828 C 36.2305 -60.791 37.4023 -66.6504 38.916 -69.7266 C 39.8438 -71.6797 39.7949 -73.3398 38.916 -74.3652 C 37.9883 -75.4395 36.3281 -75.7812 34.082 -74.8535 C 19.043 -68.75 8.74023 -53.125 8.74023 -34.8633 C 8.74023 -11.084 26.2695 7.17773 51.416 7.17773 Z M 51.5137 -0.244141 C 30.6641 -0.244141 16.1621 -15.4297 16.1621 -35.4492 C 16.1621 -47.7539 21.9238 -58.5938 30.957 -65.5273 C 29.7852 -62.3535 29.1016 -57.4707 29.1016 -52.7832 C 29.1016 -28.7598 45.7031 -12.6465 70.3125 -12.6465 C 74.6582 -12.6465 78.6621 -13.1836 80.7617 -13.916 C 74.6582 -5.46875 63.7695 -0.244141 51.5137 -0.244141 Z M 79.1504 -48.4375 L 72.5098 -48.4375 L 72.5098 -48.6328 L 79.3457 -57.7637 C 80.2734 -59.0332 80.6152 -59.668 80.6152 -60.498 C 80.6152 -61.9141 79.541 -62.7441 78.125 -62.7441 L 67.627 -62.7441 C 66.2598 -62.7441 65.2832 -61.8164 65.2832 -60.4492 C 65.2832 -59.0332 66.2598 -58.1543 67.627 -58.1543 L 73.4863 -58.1543 L 73.4863 -57.959 L 66.6504 -48.877 C 65.8203 -47.7051 65.4297 -47.0215 65.4297 -46.0938 C 65.4297 -44.8242 66.4551 -43.8965 67.8711 -43.8965 L 79.1504 -43.8965 C 80.4688 -43.8965 81.3965 -44.7754 81.3965 -46.1914 C 81.3965 -47.5586 80.4688 -48.4375 79.1504 -48.4375 Z"/>
  </g>
  <g id="Light-M" transform="matrix(1 0 0 1 1098.23 1126)">
   <path d="M 77.1973 -82.3242 L 65.7715 -82.3242 L 65.7715 -82.5684 L 77.2949 -97.6074 C 78.1738 -98.7305 78.5645 -99.4141 78.5645 -100.244 C 78.5645 -101.562 77.5391 -102.344 76.1719 -102.344 L 61.2793 -102.344 C 60.0586 -102.344 59.1797 -101.465 59.1797 -100.293 C 59.1797 -99.0234 60.0586 -98.1934 61.2793 -98.1934 L 72.0703 -98.1934 L 72.0703 -97.9492 L 60.498 -82.9102 C 59.6191 -81.7871 59.2773 -81.2012 59.2773 -80.2734 C 59.2773 -79.0527 60.2539 -78.1738 61.6211 -78.1738 L 77.1973 -78.1738 C 78.418 -78.1738 79.2969 -79.0039 79.2969 -80.2734 C 79.2969 -81.4453 78.418 -82.3242 77.1973 -82.3242 Z M 99.0234 -64.1113 L 90.4297 -64.1113 L 90.4297 -64.3066 L 99.1699 -75.5859 C 100 -76.6602 100.342 -77.2949 100.342 -78.125 C 100.342 -79.3945 99.3652 -80.127 98.0469 -80.127 L 86.2793 -80.127 C 85.1074 -80.127 84.2285 -79.2969 84.2285 -78.1738 C 84.2285 -76.9531 85.1074 -76.1719 86.2793 -76.1719 L 94.1406 -76.1719 L 94.1406 -75.9277 L 85.498 -64.6973 C 84.668 -63.623 84.3262 -62.9883 84.3262 -62.1094 C 84.3262 -60.9375 85.3027 -60.1074 86.6211 -60.1074 L 99.0234 -60.1074 C 100.244 -60.1074 101.074 -60.8887 101.074 -62.1094 C 101.074 -63.2812 100.244 -64.1113 99.0234 -64.1113 Z M 50.2441 6.34766 C 67.8711 6.34766 82.1289 -2.24609 88.6719 -16.9922 C 89.4043 -18.7012 89.209 -20.1172 88.4277 -20.9473 C 87.6953 -21.6797 86.4258 -21.875 84.8633 -21.2891 C 81.0547 -19.8242 76.6602 -18.9453 70.8984 -18.9453 C 48.6816 -18.9453 34.5215 -32.6172 34.5215 -54.834 C 34.5215 -60.3516 35.5469 -66.0645 37.3047 -69.6777 C 38.1348 -71.3867 38.0371 -72.8027 37.2559 -73.6816 C 36.4258 -74.6094 34.9609 -74.8535 32.9102 -73.9746 C 18.6523 -67.5781 8.74023 -52.6855 8.74023 -34.8633 C 8.74023 -11.6699 25.3418 6.34766 50.2441 6.34766 Z M 50.293 0.634766 C 28.7598 0.634766 14.4531 -15.0391 14.4531 -35.2539 C 14.4531 -48.584 21.2891 -60.1074 31.25 -67.1387 C 29.834 -63.7695 29.0039 -58.5449 29.0039 -53.418 C 29.0039 -29.0527 45.166 -13.3789 69.6777 -13.3789 C 74.5117 -13.3789 78.9551 -14.1113 81.543 -15.0391 C 75.4395 -5.37109 63.7207 0.634766 50.293 0.634766 Z M 78.2227 -48.0469 L 71.0449 -48.0469 L 71.0449 -48.2422 L 78.3203 -57.7148 C 79.1016 -58.7891 79.4434 -59.375 79.4434 -60.1562 C 79.4434 -61.377 78.4668 -62.1094 77.2461 -62.1094 L 67.041 -62.1094 C 65.918 -62.1094 65.0879 -61.3281 65.0879 -60.2051 C 65.0879 -59.0332 65.918 -58.3008 67.041 -58.3008 L 73.5352 -58.3008 L 73.5352 -58.0566 L 66.3086 -48.6328 C 65.5273 -47.5586 65.1855 -47.0215 65.1855 -46.1426 C 65.1855 -45.0195 66.1133 -44.2383 67.334 -44.2383 L 78.2227 -44.2383 C 79.3457 -44.2383 80.127 -45.0195 80.127 -46.1426 C 80.127 -47.2656 79.3457 -48.0469 78.2227 -48.0469 Z"/>
  </g>
  <g id="Thin-M" transform="matrix(1 0 0 1 802.882 1126)">
   <path d="M 76.3184 -80.3223 L 64.5996 -80.3223 L 64.5996 -80.5664 L 76.2695 -95.7031 C 77.002 -96.582 77.3438 -97.0215 77.3438 -97.7539 C 77.3438 -98.8281 76.4648 -99.4141 75.3906 -99.4141 L 61.6211 -99.4141 C 60.7422 -99.4141 60.1074 -98.7305 60.1074 -97.9492 C 60.1074 -97.1191 60.7422 -96.4844 61.6211 -96.4844 L 72.8516 -96.4844 L 72.8516 -96.2402 L 61.1328 -81.1035 C 60.4492 -80.2246 60.1074 -79.7852 60.1074 -79.0527 C 60.1074 -77.9785 60.9375 -77.3926 62.0117 -77.3926 L 76.3184 -77.3926 C 77.2461 -77.3926 77.832 -78.0273 77.832 -78.8574 C 77.832 -79.6875 77.2461 -80.3223 76.3184 -80.3223 Z M 96.8262 -62.6953 L 87.2559 -62.6953 L 87.2559 -62.9395 L 96.7773 -75.1465 C 97.4609 -76.0254 97.8027 -76.4648 97.8027 -77.1973 C 97.8027 -78.2227 96.9727 -78.8086 95.9473 -78.8086 L 84.4238 -78.8086 C 83.5449 -78.8086 82.9102 -78.1738 82.9102 -77.3926 C 82.9102 -76.5625 83.5449 -75.9277 84.4238 -75.9277 L 93.4082 -75.9277 L 93.4082 -75.6836 L 83.9355 -63.4766 C 83.252 -62.6465 82.959 -62.207 82.959 -61.4258 C 82.959 -60.4492 83.7402 -59.8145 84.8145 -59.8145 L 96.8262 -59.8145 C 97.7539 -59.8145 98.3398 -60.4492 98.3398 -61.2793 C 98.3398 -62.0605 97.7539 -62.6953 96.8262 -62.6953 Z M 48.6816 5.27344 C 66.0156 5.27344 79.9805 -2.83203 86.4258 -16.8457 C 87.0117 -18.1152 86.9629 -19.2383 86.377 -19.873 C 85.791 -20.5078 84.8145 -20.7031 83.4961 -20.2148 C 79.5898 -18.7012 75.1953 -17.7246 69.2383 -17.7246 C 46.5332 -17.7246 32.2266 -31.4941 32.2266 -54.7852 C 32.2266 -59.8145 33.0566 -65.2344 35.1562 -69.6289 C 35.791 -70.9473 35.6934 -72.1191 35.0098 -72.8027 C 34.3262 -73.5352 33.1055 -73.6816 31.4453 -72.8516 C 18.1152 -66.0156 8.74023 -52.0996 8.74023 -34.8633 C 8.74023 -12.4023 24.1211 5.27344 48.6816 5.27344 Z M 48.6816 1.80664 C 26.2695 1.80664 12.1582 -14.5508 12.1582 -35.0098 C 12.1582 -49.707 20.5078 -62.1094 31.6406 -69.2383 C 29.8828 -65.625 28.8574 -59.9121 28.8574 -54.248 C 28.8574 -29.4922 44.4824 -14.3555 68.8477 -14.3555 C 74.2676 -14.3555 79.3457 -15.3809 82.6172 -16.6016 C 76.5137 -5.27344 63.6719 1.80664 48.6816 1.80664 Z M 76.9531 -47.4609 L 69.0918 -47.4609 L 69.0918 -47.7051 L 76.9043 -57.666 C 77.5391 -58.4961 77.8809 -58.9355 77.8809 -59.668 C 77.8809 -60.6934 77.0996 -61.2793 76.0254 -61.2793 L 66.3086 -61.2793 C 65.4297 -61.2793 64.8438 -60.6445 64.8438 -59.8633 C 64.8438 -59.082 65.4297 -58.4473 66.3086 -58.4473 L 73.584 -58.4473 L 73.584 -58.2031 L 65.8691 -48.2422 C 65.1855 -47.3633 64.8438 -46.9727 64.8438 -46.2402 C 64.8438 -45.2637 65.6738 -44.6289 66.6992 -44.6289 L 76.9531 -44.6289 C 77.832 -44.6289 78.418 -45.2637 78.418 -46.0938 C 78.418 -46.875 77.832 -47.4609 76.9531 -47.4609 Z"/>
  </g>
  <g id="Ultralight-M" transform="matrix(1 0 0 1 506.879 1126)">
   <path d="M 75.8789 -79.2969 L 63.9648 -79.2969 L 63.9648 -79.541 L 75.7812 -94.6777 C 76.3672 -95.459 76.6602 -95.8008 76.6602 -96.4844 C 76.6602 -97.4121 75.9277 -97.9004 75 -97.9004 L 61.7676 -97.9004 C 61.0352 -97.9004 60.5469 -97.3633 60.5469 -96.7285 C 60.5469 -96.1426 61.0352 -95.5566 61.7676 -95.5566 L 73.1934 -95.5566 L 73.1934 -95.3125 L 61.4746 -80.1758 C 60.8887 -79.4434 60.5469 -79.1016 60.5469 -78.418 C 60.5469 -77.4902 61.3281 -77.002 62.207 -77.002 L 75.8789 -77.002 C 76.6113 -77.002 77.0996 -77.5391 77.0996 -78.125 C 77.0996 -78.7598 76.6113 -79.2969 75.8789 -79.2969 Z M 95.7031 -62.0117 L 85.6445 -62.0117 L 85.6445 -62.2559 L 95.6055 -74.9512 C 96.1914 -75.6836 96.5332 -76.0254 96.5332 -76.709 C 96.5332 -77.6367 95.752 -78.125 94.8242 -78.125 L 83.4473 -78.125 C 82.7148 -78.125 82.2266 -77.5879 82.2266 -77.002 C 82.2266 -76.3672 82.7148 -75.8301 83.4473 -75.8301 L 93.0176 -75.8301 L 93.0176 -75.5859 L 83.1543 -62.8906 C 82.5195 -62.1582 82.2266 -61.7676 82.2266 -61.084 C 82.2266 -60.1562 82.959 -59.668 83.8867 -59.668 L 95.7031 -59.668 C 96.4355 -59.668 96.9238 -60.2539 96.9238 -60.8398 C 96.9238 -61.4258 96.4355 -62.0117 95.7031 -62.0117 Z M 47.9004 4.6875 C 65.0879 4.6875 78.9062 -3.125 85.3027 -16.748 C 85.791 -17.7734 85.791 -18.75 85.3027 -19.3359 C 84.8145 -19.873 83.9844 -20.0684 82.7637 -19.6289 C 78.8086 -18.1152 74.4141 -17.1387 68.3594 -17.1387 C 45.4102 -17.1387 31.1035 -30.9082 31.1035 -54.7852 C 31.1035 -59.5215 31.8359 -64.8438 34.082 -69.5801 C 34.6191 -70.752 34.5215 -71.7773 33.8867 -72.3633 C 33.252 -72.998 32.1777 -73.0469 30.6641 -72.2168 C 17.8223 -65.2344 8.74023 -51.8066 8.74023 -34.8633 C 8.74023 -12.793 23.5352 4.6875 47.9004 4.6875 Z M 47.8516 2.44141 C 24.9512 2.44141 11.0352 -14.3066 11.0352 -34.8633 C 11.0352 -50.2441 20.1172 -63.1348 31.8359 -70.3125 C 29.9316 -66.5527 28.8086 -60.6445 28.8086 -54.6875 C 28.8086 -29.7363 44.0918 -14.8438 68.4082 -14.8438 C 74.1699 -14.8438 79.541 -16.0156 83.1543 -17.3828 C 77.0508 -5.22461 63.623 2.44141 47.8516 2.44141 Z M 76.3184 -47.2168 L 68.1152 -47.2168 L 68.1152 -47.4609 L 76.1719 -57.6172 C 76.7578 -58.3496 77.0996 -58.7402 77.0996 -59.4238 C 77.0996 -60.3516 76.3672 -60.8398 75.4395 -60.8398 L 65.918 -60.8398 C 65.1855 -60.8398 64.6973 -60.3027 64.6973 -59.668 C 64.6973 -59.082 65.1855 -58.4961 65.918 -58.4961 L 73.6328 -58.4961 L 73.6328 -58.252 L 65.625 -48.0957 C 64.9902 -47.2656 64.6973 -46.9727 64.6973 -46.2891 C 64.6973 -45.3613 65.4297 -44.873 66.3574 -44.873 L 76.3184 -44.873 C 77.0508 -44.873 77.5391 -45.4102 77.5391 -46.0449 C 77.5391 -46.6309 77.0508 -47.2168 76.3184 -47.2168 Z"/>
  </g>
  <g id="Black-S" transform="matrix(1 0 0 1 2881.72 696)">
   <path d="M 72.9492 -77.0996 L 65.2832 -77.0996 L 65.2832 -77.2949 L 74.707 -88.3789 C 75.7812 -89.6484 76.1719 -90.4785 76.1719 -91.9434 C 76.1719 -94.043 74.6582 -95.5078 72.4609 -95.5078 L 59.1309 -95.5078 C 56.7383 -95.5078 55.3223 -94.2383 55.3223 -92.1875 C 55.3223 -90.1855 56.8359 -88.8672 59.1309 -88.8672 L 66.6016 -88.8672 L 66.6016 -88.6719 L 57.373 -77.6855 C 56.2988 -76.416 55.9082 -75.3906 55.9082 -74.0723 C 55.9082 -71.9727 57.4219 -70.5566 59.5703 -70.5566 L 72.9492 -70.5566 C 75.2441 -70.5566 76.7578 -71.8262 76.7578 -73.8281 C 76.7578 -75.8789 75.3418 -77.0996 72.9492 -77.0996 Z M 47.7051 5.51758 C 63.9648 5.51758 78.5156 -4.10156 85.2051 -18.8965 C 87.0605 -22.998 86.4746 -26.1719 84.5703 -27.9297 C 82.666 -29.6875 79.4922 -30.0293 76.2207 -28.4668 C 73.3887 -27.0996 69.5801 -26.3672 65.918 -26.3672 C 49.4629 -26.3672 39.1113 -36.1328 39.1113 -52.1484 C 39.1113 -56.4941 40.1367 -60.791 41.5527 -64.209 C 43.1152 -67.9688 42.8711 -70.6543 41.1621 -72.5586 C 39.2578 -74.6582 36.0352 -74.8535 32.373 -73.3887 C 16.8945 -67.1875 6.83594 -52.002 6.83594 -35.4004 C 6.83594 -11.8164 24.1211 5.51758 47.7051 5.51758 Z M 92.9199 -60.9375 L 88.8184 -60.9375 L 88.8184 -61.1328 L 94.4824 -67.334 C 95.5566 -68.4082 95.9473 -69.3848 95.9473 -70.8008 C 95.9473 -72.8027 94.4824 -74.1699 92.4316 -74.1699 L 83.3008 -74.1699 C 81.0547 -74.1699 79.6875 -73.0957 79.6875 -71.2402 C 79.6875 -69.4336 81.1035 -68.3105 83.3008 -68.3105 L 87.3047 -68.3105 L 87.3047 -68.1152 L 81.9336 -62.2559 C 80.8105 -61.0352 80.2734 -59.8633 80.2734 -58.4961 C 80.2734 -56.4941 81.6895 -55.1758 83.7402 -55.1758 L 92.9199 -55.1758 C 95.1172 -55.1758 96.5332 -56.25 96.5332 -58.0566 C 96.5332 -59.8633 95.166 -60.9375 92.9199 -60.9375 Z M 74.1211 -47.0703 L 70.5078 -47.0703 L 70.5078 -47.2656 L 75.5371 -52.5879 C 76.4648 -53.5645 76.8066 -54.4434 76.8066 -55.7129 C 76.8066 -57.4707 75.5371 -58.6914 73.6816 -58.6914 L 64.6973 -58.6914 C 62.6953 -58.6914 61.5234 -57.666 61.5234 -55.9082 C 61.5234 -54.248 62.793 -53.1738 64.6973 -53.1738 L 68.3105 -53.1738 L 68.3105 -52.9785 L 63.5742 -47.9492 C 62.4023 -46.7285 62.0605 -45.8496 62.0117 -44.5312 C 61.9629 -42.8223 63.2324 -41.6016 65.0879 -41.6016 L 74.1211 -41.6016 C 76.0742 -41.6016 77.3438 -42.6758 77.3438 -44.3359 C 77.3438 -46.0938 76.1719 -47.0703 74.1211 -47.0703 Z M 47.7051 -8.64258 C 32.3242 -8.64258 20.9473 -20.0195 20.9473 -35.4004 C 20.9473 -41.2109 22.8516 -47.7051 26.6113 -52.4414 C 26.5625 -51.4648 26.5137 -50.5371 26.5137 -49.6094 C 26.5137 -27.832 40.5273 -13.9648 62.8418 -13.9648 L 63.623 -13.9648 C 59.2285 -10.4004 53.3691 -8.64258 47.7051 -8.64258 Z"/>
  </g>
  <g id="Heavy-S" transform="matrix(1 0 0 1 2586.74 696)">
   <path d="M 70.2148 -76.3672 L 62.3047 -76.3672 L 62.3047 -76.5625 L 71.582 -87.793 C 72.6074 -89.0625 72.998 -89.8438 72.998 -91.1133 C 72.998 -93.0664 71.6309 -94.3359 69.6289 -94.3359 L 56.4453 -94.3359 C 54.2969 -94.3359 52.9785 -93.1641 52.9785 -91.3086 C 52.9785 -89.4531 54.3945 -88.2324 56.4453 -88.2324 L 64.0625 -88.2324 L 64.0625 -88.0371 L 54.8828 -76.9043 C 53.8574 -75.6348 53.4668 -74.707 53.4668 -73.5352 C 53.4668 -71.6309 54.834 -70.3613 56.8359 -70.3613 L 70.2148 -70.3613 C 72.2656 -70.3613 73.6328 -71.4844 73.6328 -73.3398 C 73.6328 -75.2441 72.3145 -76.3672 70.2148 -76.3672 Z M 89.7949 -60.498 L 85.3027 -60.498 L 85.3027 -60.6934 L 91.0645 -67.334 C 92.041 -68.4082 92.4316 -69.2871 92.4316 -70.5566 C 92.4316 -72.3633 91.0645 -73.584 89.209 -73.584 L 80.0293 -73.584 C 78.0273 -73.584 76.7578 -72.5586 76.7578 -70.8496 C 76.7578 -69.1406 78.0762 -68.1152 80.0293 -68.1152 L 84.2773 -68.1152 L 84.2773 -67.9199 L 78.7598 -61.5723 C 77.7344 -60.4004 77.2461 -59.375 77.2461 -58.1543 C 77.2461 -56.3477 78.5156 -55.127 80.3711 -55.127 L 89.7949 -55.127 C 91.748 -55.127 93.0664 -56.1523 93.0664 -57.8125 C 93.0664 -59.5215 91.7969 -60.498 89.7949 -60.498 Z M 46.0938 3.85742 C 61.8164 3.85742 75.6348 -5.22461 81.9824 -19.4336 C 83.5938 -22.9492 83.0566 -25.7324 81.4453 -27.2461 C 79.7852 -28.7598 77.0508 -29.0527 74.2188 -27.7344 C 71.3867 -26.416 67.6758 -25.7324 63.8672 -25.7324 C 47.2656 -25.7324 36.7676 -35.6934 36.7676 -51.8066 C 36.7676 -56.25 37.793 -60.6445 39.1113 -63.7695 C 40.5273 -66.9922 40.2832 -69.3848 38.8184 -71.0449 C 37.207 -72.9004 34.4238 -73.0957 31.1523 -71.8262 C 16.4551 -65.9668 6.83594 -51.416 6.83594 -35.3027 C 6.83594 -12.793 23.3887 3.85742 46.0938 3.85742 Z M 71.3867 -46.7773 L 67.4316 -46.7773 L 67.4316 -46.9727 L 72.5098 -52.6855 C 73.3887 -53.6621 73.7305 -54.4434 73.7305 -55.6152 C 73.7305 -57.2266 72.5586 -58.3008 70.8496 -58.3008 L 62.0117 -58.3008 C 60.2051 -58.3008 59.082 -57.3242 59.082 -55.7129 C 59.082 -54.1504 60.2539 -53.1738 62.0117 -53.1738 L 65.7715 -53.1738 L 65.7715 -52.9785 L 60.9375 -47.5098 C 59.8633 -46.3379 59.5215 -45.5078 59.5215 -44.3359 C 59.4727 -42.7734 60.6445 -41.6504 62.3047 -41.6504 L 71.3867 -41.6504 C 73.1445 -41.6504 74.2676 -42.6758 74.2676 -44.2383 C 74.2676 -45.8496 73.1934 -46.7773 71.3867 -46.7773 Z M 46.0938 -8.54492 C 30.5664 -8.54492 19.1895 -19.9707 19.1895 -35.4492 C 19.1895 -41.9922 21.582 -48.9258 26.0254 -53.8086 C 25.7812 -52.4902 25.6348 -50.9277 25.6348 -49.4141 C 25.6348 -28.3203 39.4531 -14.6973 61.084 -14.6973 C 62.0117 -14.6973 62.9395 -14.7949 63.4277 -14.8926 C 58.9355 -10.7422 52.5391 -8.54492 46.0938 -8.54492 Z"/>
  </g>
  <g id="Bold-S" transform="matrix(1 0 0 1 2291.98 696)">
   <path d="M 67.0898 -75.5859 L 58.9844 -75.5859 L 58.9844 -75.7812 L 68.1152 -87.1582 C 69.0918 -88.3789 69.4824 -89.1602 69.4824 -90.2344 C 69.4824 -91.9434 68.2129 -93.0664 66.4062 -93.0664 L 53.418 -93.0664 C 51.5625 -93.0664 50.3906 -91.9922 50.3906 -90.332 C 50.3906 -88.623 51.6113 -87.5488 53.418 -87.5488 L 61.1816 -87.5488 L 61.1816 -87.3535 L 52.0508 -76.0254 C 51.123 -74.8047 50.7812 -73.9746 50.7812 -72.9004 C 50.7812 -71.2402 51.9531 -70.1172 53.7109 -70.1172 L 67.0898 -70.1172 C 68.8965 -70.1172 70.1172 -71.1426 70.1172 -72.8516 C 70.1172 -74.5117 68.9453 -75.5859 67.0898 -75.5859 Z M 86.2793 -60.0586 L 81.3477 -60.0586 L 81.3477 -60.2051 L 87.207 -67.2852 C 88.1348 -68.3594 88.4766 -69.1895 88.4766 -70.2637 C 88.4766 -71.875 87.3047 -72.9004 85.5957 -72.9004 L 76.3184 -72.9004 C 74.6094 -72.9004 73.4863 -71.9727 73.4863 -70.459 C 73.4863 -68.8477 74.6582 -67.9199 76.3184 -67.9199 L 80.9082 -67.9199 L 80.9082 -67.7246 L 75.1953 -60.8398 C 74.2676 -59.7168 73.8281 -58.8379 73.8281 -57.7148 C 73.8281 -56.1523 75 -55.0781 76.6602 -55.0781 L 86.2793 -55.0781 C 88.0371 -55.0781 89.1602 -56.0059 89.1602 -57.5684 C 89.1602 -59.1309 88.0371 -60.0586 86.2793 -60.0586 Z M 44.2871 1.95312 C 59.4727 1.95312 72.4609 -6.44531 78.3691 -19.9707 C 79.6875 -22.9492 79.248 -25.1953 77.9297 -26.5137 C 76.6113 -27.7344 74.3652 -27.9785 72.0215 -26.9043 C 69.1895 -25.6836 65.5273 -25 61.5234 -25 C 44.8242 -25 34.1797 -35.2051 34.1797 -51.3672 C 34.1797 -55.957 35.1562 -60.498 36.377 -63.2324 C 37.5977 -65.9668 37.4512 -68.0176 36.2305 -69.3848 C 34.9121 -70.8984 32.5684 -71.1426 29.7852 -70.0684 C 16.0156 -64.6484 6.83594 -50.7324 6.83594 -35.2051 C 6.83594 -13.916 22.5586 1.95312 44.2871 1.95312 Z M 68.3105 -46.4355 L 64.0137 -46.4355 L 64.0137 -46.582 L 69.0918 -52.7344 C 69.9707 -53.7598 70.2637 -54.4922 70.2637 -55.4688 C 70.2637 -56.9336 69.1895 -57.9102 67.6758 -57.9102 L 58.9844 -57.9102 C 57.373 -57.9102 56.3965 -56.9824 56.3965 -55.5176 C 56.3965 -54.0527 57.4219 -53.1738 58.9844 -53.1738 L 62.9395 -53.1738 L 62.9395 -52.9785 L 57.959 -47.0215 C 57.0312 -45.8984 56.7383 -45.166 56.6895 -44.1406 C 56.6895 -42.7246 57.7148 -41.748 59.2285 -41.748 L 68.3105 -41.748 C 69.8242 -41.748 70.8496 -42.627 70.8496 -44.0918 C 70.8496 -45.5566 69.873 -46.4355 68.3105 -46.4355 Z M 44.3359 -8.44727 C 28.6133 -8.44727 17.2363 -19.9707 17.2363 -35.4492 C 17.2363 -42.9199 20.166 -50.2441 25.3418 -55.3223 C 24.9512 -53.6133 24.6582 -51.3672 24.6582 -49.1699 C 24.6582 -28.9062 38.2812 -15.5762 59.1309 -15.5762 C 60.8398 -15.5762 62.4023 -15.7227 63.2324 -15.9668 C 58.6426 -11.1816 51.6602 -8.44727 44.3359 -8.44727 Z"/>
  </g>
  <g id="Semibold-S" transform="matrix(1 0 0 1 1996.61 696)">
   <path d="M 64.9902 -75 L 56.6895 -75 L 56.6895 -75.1953 L 65.7227 -86.7188 C 66.6504 -87.8906 66.9922 -88.6719 66.9922 -89.5996 C 66.9922 -91.1621 65.8691 -92.1875 64.209 -92.1875 L 51.3184 -92.1875 C 49.707 -92.1875 48.584 -91.2109 48.584 -89.6484 C 48.584 -88.0371 49.707 -87.0605 51.3184 -87.0605 L 59.1797 -87.0605 L 59.1797 -86.8652 L 50.1465 -75.3906 C 49.2188 -74.2188 48.877 -73.4863 48.877 -72.4609 C 48.877 -70.9961 50 -69.9219 51.6113 -69.9219 L 64.9902 -69.9219 C 66.6016 -69.9219 67.7246 -70.8984 67.7246 -72.4609 C 67.7246 -74.0234 66.6016 -75 64.9902 -75 Z M 83.8867 -59.7168 L 78.6621 -59.7168 L 78.6621 -59.9121 L 84.5703 -67.2852 C 85.4492 -68.3594 85.791 -69.1406 85.791 -70.0684 C 85.791 -71.5332 84.668 -72.4609 83.1543 -72.4609 L 73.7793 -72.4609 C 72.2656 -72.4609 71.2402 -71.582 71.2402 -70.166 C 71.2402 -68.6523 72.2656 -67.7734 73.7793 -67.7734 L 78.5645 -67.7734 L 78.5645 -67.5781 L 72.7539 -60.3516 C 71.875 -59.2773 71.4844 -58.4473 71.4844 -57.4219 C 71.4844 -56.0547 72.5586 -55.0293 74.0723 -55.0293 L 83.8867 -55.0293 C 85.4492 -55.0293 86.4746 -55.9082 86.4746 -57.373 C 86.4746 -58.8379 85.4492 -59.7168 83.8867 -59.7168 Z M 43.0176 0.683594 C 57.8125 0.683594 70.2637 -7.32422 75.9277 -20.3613 C 77.002 -22.9004 76.6602 -24.8535 75.4883 -25.9766 C 74.3652 -27.0508 72.5098 -27.2461 70.459 -26.3672 C 67.627 -25.1465 64.0137 -24.4629 59.9121 -24.4629 C 43.1152 -24.4629 32.373 -34.8633 32.373 -51.123 C 32.373 -55.7617 33.3496 -60.3516 34.5215 -62.8906 C 35.5957 -65.1855 35.4492 -67.041 34.4238 -68.2129 C 33.3008 -69.5312 31.3477 -69.7754 28.8574 -68.8477 C 15.6738 -63.7207 6.83594 -50.2441 6.83594 -35.1074 C 6.83594 -14.6973 21.9727 0.683594 43.0176 0.683594 Z M 66.1621 -46.1914 L 61.6211 -46.1914 L 61.6211 -46.3379 L 66.748 -52.832 C 67.5781 -53.8574 67.8711 -54.4922 67.8711 -55.3711 C 67.8711 -56.7383 66.8457 -57.5684 65.4785 -57.5684 L 56.8848 -57.5684 C 55.4688 -57.5684 54.4922 -56.7383 54.4922 -55.3711 C 54.4922 -54.0039 55.5176 -53.1738 56.8848 -53.1738 L 60.9375 -53.1738 L 60.9375 -52.9785 L 55.957 -46.6797 C 55.0781 -45.6055 54.7852 -44.9219 54.7363 -43.9941 C 54.7363 -42.7246 55.7129 -41.748 57.1289 -41.748 L 66.1621 -41.748 C 67.5781 -41.748 68.5059 -42.627 68.5059 -43.9941 C 68.5059 -45.3613 67.5781 -46.1914 66.1621 -46.1914 Z M 43.0664 -8.39844 C 27.2949 -8.39844 15.8691 -19.9219 15.8691 -35.498 C 15.8691 -43.5547 19.1406 -51.1719 24.9023 -56.3965 C 24.3164 -54.3945 24.0234 -51.6602 24.0234 -48.9746 C 24.0234 -29.2969 37.4512 -16.1621 57.7637 -16.1621 C 60.0098 -16.1621 62.0605 -16.4062 63.0859 -16.6992 C 58.4473 -11.4746 51.0254 -8.39844 43.0664 -8.39844 Z"/>
  </g>
  <g id="Medium-S" transform="matrix(1 0 0 1 1700.93 696)">
   <path d="M 63.3789 -74.6094 L 54.9805 -74.6094 L 54.9805 -74.8047 L 63.916 -86.377 C 64.7949 -87.5488 65.1855 -88.2812 65.1855 -89.1602 C 65.1855 -90.5762 64.0625 -91.5039 62.5488 -91.5039 L 49.7559 -91.5039 C 48.291 -91.5039 47.2656 -90.5762 47.2656 -89.1113 C 47.2656 -87.5977 48.291 -86.7188 49.7559 -86.7188 L 57.7148 -86.7188 L 57.7148 -86.5234 L 48.6816 -74.9512 C 47.7539 -73.7793 47.4609 -73.0957 47.4609 -72.168 C 47.4609 -70.8008 48.4863 -69.8242 50 -69.8242 L 63.3789 -69.8242 C 64.8438 -69.8242 65.8691 -70.7031 65.8691 -72.2168 C 65.8691 -73.6816 64.8438 -74.6094 63.3789 -74.6094 Z M 82.0801 -59.4727 L 76.5625 -59.4727 L 76.5625 -59.6191 L 82.5684 -67.2852 C 83.3984 -68.3594 83.7402 -69.043 83.7402 -69.9219 C 83.7402 -71.2402 82.666 -72.1191 81.25 -72.1191 L 71.875 -72.1191 C 70.5078 -72.1191 69.5312 -71.2402 69.5312 -69.9219 C 69.5312 -68.457 70.5078 -67.627 71.875 -67.627 L 76.8066 -67.627 L 76.8066 -67.4805 L 70.8984 -59.9609 C 70.0684 -58.8867 69.7266 -58.1543 69.7266 -57.2266 C 69.7266 -55.957 70.7031 -55.0293 72.1191 -55.0293 L 82.0801 -55.0293 C 83.4473 -55.0293 84.4238 -55.8594 84.4238 -57.2754 C 84.4238 -58.6426 83.4961 -59.4727 82.0801 -59.4727 Z M 42.0898 -0.292969 C 56.5918 -0.292969 68.6035 -7.95898 74.0234 -20.7031 C 75 -22.9004 74.6582 -24.6094 73.6328 -25.5859 C 72.7051 -26.4648 71.0938 -26.6602 69.3359 -25.9277 C 66.4551 -24.7559 62.8906 -24.0723 58.6914 -24.0723 C 41.8457 -24.0723 31.0059 -34.5703 31.0059 -50.8789 C 31.0059 -55.6641 31.9824 -60.2539 33.1055 -62.6465 C 34.0332 -64.6484 33.9355 -66.3086 33.0566 -67.334 C 32.0801 -68.457 30.3711 -68.75 28.125 -67.9199 C 15.4297 -62.9883 6.83594 -49.9023 6.83594 -35.0586 C 6.83594 -15.2832 21.582 -0.292969 42.0898 -0.292969 Z M 64.5508 -45.9961 L 59.8145 -45.9961 L 59.8145 -46.1914 L 64.9902 -52.8809 C 65.7715 -53.9062 66.0645 -54.541 66.0645 -55.3223 C 66.0645 -56.543 65.0879 -57.373 63.8184 -57.373 L 55.2734 -57.373 C 54.0039 -57.373 53.0762 -56.543 53.0762 -55.2734 C 53.0762 -53.9062 54.0039 -53.125 55.2734 -53.125 L 59.4727 -53.125 L 59.4727 -52.9785 L 54.3945 -46.3867 C 53.6133 -45.4102 53.3203 -44.7266 53.2715 -43.8477 C 53.2715 -42.6758 54.1992 -41.7969 55.5176 -41.7969 L 64.5508 -41.7969 C 65.8203 -41.7969 66.748 -42.627 66.748 -43.9453 C 66.748 -45.2148 65.8691 -45.9961 64.5508 -45.9961 Z M 42.1387 -8.34961 C 26.2695 -8.34961 14.8438 -19.9219 14.8438 -35.498 C 14.8438 -43.9941 18.4082 -51.9043 24.5605 -57.1777 C 23.877 -55.0293 23.4863 -51.8555 23.4863 -48.8281 C 23.4863 -29.5898 36.8652 -16.6016 56.7383 -16.6016 C 59.375 -16.6016 61.8164 -16.8945 62.9883 -17.2363 C 58.3008 -11.6699 50.5859 -8.34961 42.1387 -8.34961 Z"/>
  </g>
  <g id="Regular-S" transform="matrix(1 0 0 1 1405.56 696)">
   <path d="M 61.2793 -74.0234 L 52.6855 -74.0234 L 52.6855 -74.2188 L 61.5723 -85.9375 C 62.4023 -87.1094 62.7441 -87.793 62.7441 -88.5254 C 62.7441 -89.7949 61.7188 -90.625 60.3516 -90.625 L 47.7051 -90.625 C 46.4355 -90.625 45.459 -89.7461 45.459 -88.4277 C 45.459 -87.0117 46.4355 -86.2305 47.7051 -86.2305 L 55.7617 -86.2305 L 55.7617 -86.0352 L 46.7773 -74.3652 C 45.8984 -73.1934 45.6055 -72.6074 45.6055 -71.7285 C 45.6055 -70.5566 46.5332 -69.6289 47.9004 -69.6289 L 61.2793 -69.6289 C 62.5488 -69.6289 63.5254 -70.459 63.5254 -71.875 C 63.5254 -73.1934 62.5488 -74.0234 61.2793 -74.0234 Z M 79.6875 -59.1797 L 73.877 -59.1797 L 73.877 -59.3262 L 79.9316 -67.2852 C 80.7129 -68.3105 81.0547 -68.9941 81.0547 -69.7266 C 81.0547 -70.8984 80.0781 -71.6797 78.8086 -71.6797 L 69.3848 -71.6797 C 68.1641 -71.6797 67.2852 -70.8496 67.2852 -69.6289 C 67.2852 -68.2617 68.1641 -67.4805 69.3848 -67.4805 L 74.4629 -67.4805 L 74.4629 -67.334 L 68.457 -59.4238 C 67.7246 -58.4473 67.4316 -57.7637 67.4316 -56.9336 C 67.4316 -55.8594 68.2617 -54.9805 69.5801 -54.9805 L 79.6875 -54.9805 C 80.9082 -54.9805 81.7383 -55.7617 81.7383 -57.0801 C 81.7383 -58.3496 80.9082 -59.1797 79.6875 -59.1797 Z M 40.8203 -1.61133 C 54.9805 -1.61133 66.4062 -8.78906 71.582 -21.0938 C 72.3145 -22.9004 72.0703 -24.2676 71.2402 -25.0488 C 70.5078 -25.7812 69.2383 -25.9277 67.8223 -25.3418 C 64.9414 -24.2188 61.4258 -23.584 57.1289 -23.584 C 40.1855 -23.584 29.248 -34.2285 29.248 -50.6348 C 29.248 -55.4688 30.1758 -60.1562 31.25 -62.3047 C 32.0312 -63.916 31.9824 -65.332 31.2988 -66.2109 C 30.5176 -67.0898 29.1504 -67.4316 27.1973 -66.6992 C 15.1367 -62.0605 6.83594 -49.4629 6.83594 -34.9609 C 6.83594 -16.0645 20.9961 -1.61133 40.8203 -1.61133 Z M 40.918 -8.25195 C 24.9512 -8.25195 13.5254 -19.9219 13.5254 -35.498 C 13.5254 -44.6289 17.4316 -52.832 24.1211 -58.2031 C 23.291 -55.7617 22.8516 -52.1484 22.8516 -48.6816 C 22.8516 -29.9805 36.0352 -17.1387 55.3711 -17.1387 C 58.5449 -17.1387 61.4746 -17.5293 62.8906 -17.9688 C 58.1055 -11.9629 49.9512 -8.25195 40.918 -8.25195 Z M 62.4512 -45.8008 L 57.4707 -45.8008 L 57.4707 -45.9473 L 62.6953 -52.9297 C 63.4277 -53.9551 63.7207 -54.541 63.7207 -55.2246 C 63.7207 -56.3477 62.8418 -57.0801 61.6211 -57.0801 L 53.2227 -57.0801 C 52.0996 -57.0801 51.2207 -56.2988 51.2207 -55.127 C 51.2207 -53.8574 52.0996 -53.125 53.2227 -53.125 L 57.5195 -53.125 L 57.5195 -52.9785 L 52.3926 -46.0449 C 51.6602 -45.1172 51.3672 -44.4824 51.3672 -43.7012 C 51.3672 -42.6758 52.1973 -41.8457 53.3691 -41.8457 L 62.4512 -41.8457 C 63.5742 -41.8457 64.4043 -42.627 64.4043 -43.8477 C 64.4043 -45.0195 63.5742 -45.8008 62.4512 -45.8008 Z"/>
  </g>
  <g id="Light-S" transform="matrix(1 0 0 1 1109.75 696)">
   <path d="M 60.6934 -72.7051 L 51.9043 -72.7051 L 51.9043 -72.9004 L 60.8398 -84.668 C 61.6211 -85.6445 61.9141 -86.2305 61.9141 -86.8652 C 61.9141 -87.9883 61.0352 -88.6719 59.8633 -88.6719 L 47.9004 -88.6719 C 46.875 -88.6719 46.0938 -87.9395 46.0938 -86.8652 C 46.0938 -85.7422 46.875 -85.0586 47.9004 -85.0586 L 56.25 -85.0586 L 56.25 -84.8633 L 47.2168 -73.1445 C 46.4355 -72.168 46.1914 -71.6309 46.1914 -70.8984 C 46.1914 -69.8242 46.9727 -69.0918 48.1445 -69.0918 L 60.6934 -69.0918 C 61.7676 -69.0918 62.5488 -69.7754 62.5488 -70.8984 C 62.5488 -71.9727 61.7676 -72.7051 60.6934 -72.7051 Z M 78.2227 -58.252 L 71.7773 -58.252 L 71.7773 -58.3984 L 78.3691 -66.9922 C 79.0527 -67.8711 79.3457 -68.457 79.3457 -69.0918 C 79.3457 -70.166 78.5156 -70.8008 77.3926 -70.8008 L 68.1152 -70.8008 C 67.1387 -70.8008 66.3574 -70.1172 66.3574 -69.0918 C 66.3574 -68.0176 67.1387 -67.334 68.1152 -67.334 L 73.9746 -67.334 L 73.9746 -67.1875 L 67.4316 -58.6426 C 66.748 -57.7637 66.4551 -57.2266 66.4551 -56.4941 C 66.4551 -55.5176 67.2363 -54.7852 68.3594 -54.7852 L 78.2227 -54.7852 C 79.248 -54.7852 79.9316 -55.4688 79.9316 -56.543 C 79.9316 -57.5684 79.248 -58.252 78.2227 -58.252 Z M 39.7949 -2.34375 C 53.7109 -2.34375 64.9414 -9.22852 70.0684 -20.9961 C 70.752 -22.4609 70.5566 -23.6816 69.873 -24.3652 C 69.2383 -25 68.1641 -25.1465 66.8945 -24.6094 C 63.9648 -23.4863 60.4492 -22.8027 56.0059 -22.8027 C 38.7207 -22.8027 27.6855 -33.4961 27.6855 -50.5859 C 27.6855 -55.0781 28.5156 -59.6191 29.834 -62.2559 C 30.5176 -63.6719 30.4688 -64.8926 29.7852 -65.625 C 29.1016 -66.4062 27.8809 -66.6504 26.2207 -65.918 C 14.7461 -61.0352 6.83594 -49.0723 6.83594 -34.9609 C 6.83594 -16.5527 20.2148 -2.34375 39.7949 -2.34375 Z M 39.8438 -7.4707 C 23.2422 -7.4707 11.9629 -19.5801 11.9629 -35.3516 C 11.9629 -45.3613 16.8945 -54.1504 24.3652 -59.6191 C 23.3398 -57.0312 22.7539 -53.0762 22.7539 -49.2188 C 22.7539 -30.2734 35.5957 -17.8223 54.834 -17.8223 C 58.3984 -17.8223 61.7188 -18.3594 63.5742 -18.9941 C 58.7891 -11.8652 49.9023 -7.4707 39.8438 -7.4707 Z M 61.6211 -45.4102 L 56.2012 -45.4102 L 56.2012 -45.6055 L 61.7188 -52.8809 C 62.4023 -53.7598 62.6953 -54.248 62.6953 -54.8828 C 62.6953 -55.9082 61.8652 -56.543 60.8398 -56.543 L 52.7344 -56.543 C 51.7578 -56.543 51.0742 -55.8594 51.0742 -54.8828 C 51.0742 -53.8574 51.7578 -53.2227 52.7344 -53.2227 L 57.5684 -53.2227 L 57.5684 -53.0762 L 52.0996 -45.8008 C 51.416 -44.9707 51.1719 -44.4824 51.1719 -43.75 C 51.1719 -42.8223 51.9043 -42.1387 52.9297 -42.1387 L 61.6211 -42.1387 C 62.5977 -42.1387 63.2324 -42.8223 63.2324 -43.7988 C 63.2324 -44.7754 62.5977 -45.4102 61.6211 -45.4102 Z"/>
  </g>
  <g id="Thin-S" transform="matrix(1 0 0 1 814.235 696)">
   <path d="M 59.9609 -70.9473 L 50.8301 -70.9473 L 50.8301 -71.1426 L 59.9609 -82.959 C 60.5469 -83.6914 60.791 -84.082 60.791 -84.668 C 60.791 -85.5469 60.1074 -86.084 59.2285 -86.084 L 48.1934 -86.084 C 47.4121 -86.084 46.875 -85.498 46.875 -84.8145 C 46.875 -84.082 47.4121 -83.5449 48.1934 -83.5449 L 56.8848 -83.5449 L 56.8848 -83.3496 L 47.7539 -71.5332 C 47.168 -70.8008 46.9238 -70.4102 46.9238 -69.7754 C 46.9238 -68.9453 47.6074 -68.4082 48.4863 -68.4082 L 59.9609 -68.4082 C 60.7422 -68.4082 61.2793 -68.9453 61.2793 -69.6777 C 61.2793 -70.4102 60.7422 -70.9473 59.9609 -70.9473 Z M 76.2695 -57.0312 L 68.9453 -57.0312 L 68.9453 -57.2266 L 76.2695 -66.6016 C 76.8555 -67.334 77.0996 -67.7246 77.0996 -68.3105 C 77.0996 -69.1406 76.416 -69.6289 75.5371 -69.6289 L 66.4551 -69.6289 C 65.7227 -69.6289 65.1855 -69.0918 65.1855 -68.4082 C 65.1855 -67.6758 65.7227 -67.1875 66.4551 -67.1875 L 73.3398 -67.1875 L 73.3398 -66.9922 L 66.0645 -57.6172 C 65.4785 -56.8848 65.2344 -56.4941 65.2344 -55.9082 C 65.2344 -55.0781 65.918 -54.541 66.7969 -54.541 L 76.2695 -54.541 C 77.0508 -54.541 77.5391 -55.0781 77.5391 -55.8105 C 77.5391 -56.4941 77.0508 -57.0312 76.2695 -57.0312 Z M 38.4277 -3.27148 C 52.0508 -3.27148 63.0859 -9.7168 68.1152 -20.8496 C 68.6035 -21.9238 68.5547 -22.8516 68.0664 -23.3887 C 67.5781 -23.9258 66.748 -24.0723 65.6738 -23.6816 C 62.5977 -22.5098 59.1797 -21.7773 54.541 -21.7773 C 36.8652 -21.7773 25.6836 -32.5195 25.6836 -50.5859 C 25.6836 -54.5898 26.3672 -58.8867 27.9297 -62.207 C 28.4668 -63.3301 28.418 -64.2578 27.832 -64.8438 C 27.2949 -65.4297 26.2695 -65.5762 24.9023 -64.8926 C 14.2578 -59.668 6.83594 -48.584 6.83594 -34.9609 C 6.83594 -17.1875 19.1406 -3.27148 38.4277 -3.27148 Z M 38.4277 -6.44531 C 21.0449 -6.44531 9.96094 -19.1406 9.96094 -35.1074 C 9.96094 -46.3379 16.2109 -55.9082 24.707 -61.4746 C 23.3887 -58.6914 22.6562 -54.2969 22.6562 -49.9512 C 22.6562 -30.6641 34.9609 -18.7012 54.1016 -18.7012 C 58.252 -18.7012 62.0605 -19.4336 64.502 -20.3125 C 59.7168 -11.7676 49.9023 -6.44531 38.4277 -6.44531 Z M 60.498 -44.9219 L 54.4922 -44.9219 L 54.4922 -45.1172 L 60.498 -52.832 C 61.0352 -53.5156 61.3281 -53.9062 61.3281 -54.4922 C 61.3281 -55.3223 60.6445 -55.8105 59.8145 -55.8105 L 52.0996 -55.8105 C 51.3672 -55.8105 50.8301 -55.2734 50.8301 -54.5898 C 50.8301 -53.9062 51.3672 -53.3691 52.0996 -53.3691 L 57.6172 -53.3691 L 57.6172 -53.1738 L 51.6602 -45.5078 C 51.123 -44.7754 50.8789 -44.4336 50.8789 -43.8477 C 50.8789 -43.0176 51.5137 -42.5293 52.3926 -42.5293 L 60.498 -42.5293 C 61.2305 -42.5293 61.7676 -43.0664 61.7676 -43.75 C 61.7676 -44.4336 61.2305 -44.9219 60.498 -44.9219 Z"/>
  </g>
  <g id="Ultralight-S" transform="matrix(1 0 0 1 518.134 696)">
   <path d="M 59.5703 -70.0195 L 50.293 -70.0195 L 50.293 -70.2148 L 59.4727 -82.0801 C 60.0098 -82.7148 60.2539 -83.0078 60.2539 -83.5449 C 60.2539 -84.3262 59.6191 -84.7168 58.8867 -84.7168 L 48.3398 -84.7168 C 47.7539 -84.7168 47.3145 -84.2773 47.3145 -83.7402 C 47.3145 -83.2031 47.7539 -82.7637 48.3398 -82.7637 L 57.2266 -82.7637 L 57.2266 -82.5684 L 48.0957 -70.7031 C 47.5586 -70.0684 47.3145 -69.7754 47.3145 -69.2383 C 47.3145 -68.457 47.9492 -68.0664 48.6816 -68.0664 L 59.5703 -68.0664 C 60.2051 -68.0664 60.5957 -68.5059 60.5957 -69.043 C 60.5957 -69.5801 60.2051 -70.0195 59.5703 -70.0195 Z M 75.293 -56.3965 L 67.5293 -56.3965 L 67.5293 -56.5918 L 75.1953 -66.4062 C 75.6836 -66.9922 75.9277 -67.334 75.9277 -67.8711 C 75.9277 -68.6035 75.3418 -69.043 74.5605 -69.043 L 65.625 -69.043 C 64.9902 -69.043 64.5996 -68.5547 64.5996 -68.0664 C 64.5996 -67.5293 64.9902 -67.041 65.625 -67.041 L 72.998 -67.041 L 72.998 -66.8945 L 65.332 -57.0801 C 64.8438 -56.4453 64.5996 -56.1523 64.5996 -55.5664 C 64.5996 -54.834 65.1855 -54.4434 65.9668 -54.4434 L 75.293 -54.4434 C 75.8789 -54.4434 76.3184 -54.8828 76.3184 -55.4199 C 76.3184 -55.957 75.8789 -56.3965 75.293 -56.3965 Z M 37.6953 -3.80859 C 51.2207 -3.80859 62.1094 -10.0098 67.1387 -20.752 C 67.5293 -21.6309 67.5293 -22.4609 67.0898 -22.9004 C 66.6992 -23.3887 65.9668 -23.5352 65.0391 -23.1445 C 61.9141 -21.9727 58.4961 -21.2402 53.8086 -21.2402 C 35.8887 -21.2402 24.6582 -31.9824 24.6582 -50.5371 C 24.6582 -54.3457 25.2441 -58.5449 27.002 -62.1582 C 27.4414 -63.1348 27.3438 -63.916 26.8555 -64.4531 C 26.3184 -64.9414 25.4395 -65.0391 24.2188 -64.3555 C 14.0137 -58.9355 6.83594 -48.291 6.83594 -34.9609 C 6.83594 -17.5293 18.6035 -3.80859 37.6953 -3.80859 Z M 37.6953 -5.9082 C 19.873 -5.9082 8.93555 -18.8965 8.93555 -35.0098 C 8.93555 -46.875 15.8691 -56.8359 24.8535 -62.4512 C 23.4375 -59.5215 22.5586 -54.9316 22.5586 -50.3418 C 22.5586 -30.8594 34.6191 -19.1406 53.7109 -19.1406 C 58.1055 -19.1406 62.2559 -19.9707 64.9902 -21.0449 C 60.2051 -11.7188 49.8535 -5.9082 37.6953 -5.9082 Z M 59.9609 -44.6777 L 53.6133 -44.6777 L 53.6133 -44.873 L 59.8633 -52.7832 C 60.3027 -53.418 60.5957 -53.7109 60.5957 -54.248 C 60.5957 -54.9805 60.0098 -55.4199 59.2773 -55.4199 L 51.7578 -55.4199 C 51.123 -55.4199 50.7324 -54.9316 50.7324 -54.4434 C 50.7324 -53.9062 51.123 -53.4668 51.7578 -53.4668 L 57.666 -53.4668 L 57.666 -53.2715 L 51.4648 -45.3613 C 50.9766 -44.6777 50.7324 -44.4336 50.7324 -43.8965 C 50.7324 -43.1152 51.3184 -42.7246 52.0508 -42.7246 L 59.9609 -42.7246 C 60.5469 -42.7246 60.9863 -43.1641 60.9863 -43.7012 C 60.9863 -44.2383 60.5469 -44.6777 59.9609 -44.6777 Z"/>
  </g>
 </g>
</svg>
