<?xml version="1.0" encoding="UTF-8"?>
<!--Generator: Apple Native CoreSVG 123-->
<!DOCTYPE svg
PUBLIC "-//W3C//DTD SVG 1.1//EN"
       "http://www.w3.org/Graphics/SVG/1.1/DTD/svg11.dtd">
<svg version="1.1" xmlns="http://www.w3.org/2000/svg" xmlns:xlink="http://www.w3.org/1999/xlink" width="3300" height="2200">
 <!--glyph: "uni1001BB.medium", point size: 100.000000, font version: "Version 15.0d7e11", template writer version: "5"-->
 <g id="Notes">
  <rect height="2200" id="artboard" style="fill:white;opacity:1" width="3300" x="0" y="0"/>
  <line id="" style="fill:none;stroke:black;opacity:1;stroke-width:0.5;" x1="263" x2="3036" y1="292" y2="292"/>
  <text style="stroke:none;fill:black;font-family:-apple-system,&quot;SF Pro Display&quot;,&quot;SF Pro Text&quot;,Helvetica,sans-serif;font-weight:bold;" transform="matrix(1 0 0 1 263 322)">Weight/Scale Variations</text>
  <text style="stroke:none;fill:black;font-family:-apple-system,&quot;SF Pro Display&quot;,&quot;SF Pro Text&quot;,Helvetica,sans-serif;text-anchor:middle;" transform="matrix(1 0 0 1 559.711 322)">Ultralight</text>
  <text style="stroke:none;fill:black;font-family:-apple-system,&quot;SF Pro Display&quot;,&quot;SF Pro Text&quot;,Helvetica,sans-serif;text-anchor:middle;" transform="matrix(1 0 0 1 856.422 322)">Thin</text>
  <text style="stroke:none;fill:black;font-family:-apple-system,&quot;SF Pro Display&quot;,&quot;SF Pro Text&quot;,Helvetica,sans-serif;text-anchor:middle;" transform="matrix(1 0 0 1 1153.13 322)">Light</text>
  <text style="stroke:none;fill:black;font-family:-apple-system,&quot;SF Pro Display&quot;,&quot;SF Pro Text&quot;,Helvetica,sans-serif;text-anchor:middle;" transform="matrix(1 0 0 1 1449.84 322)">Regular</text>
  <text style="stroke:none;fill:black;font-family:-apple-system,&quot;SF Pro Display&quot;,&quot;SF Pro Text&quot;,Helvetica,sans-serif;text-anchor:middle;" transform="matrix(1 0 0 1 1746.56 322)">Medium</text>
  <text style="stroke:none;fill:black;font-family:-apple-system,&quot;SF Pro Display&quot;,&quot;SF Pro Text&quot;,Helvetica,sans-serif;text-anchor:middle;" transform="matrix(1 0 0 1 2043.27 322)">Semibold</text>
  <text style="stroke:none;fill:black;font-family:-apple-system,&quot;SF Pro Display&quot;,&quot;SF Pro Text&quot;,Helvetica,sans-serif;text-anchor:middle;" transform="matrix(1 0 0 1 2339.98 322)">Bold</text>
  <text style="stroke:none;fill:black;font-family:-apple-system,&quot;SF Pro Display&quot;,&quot;SF Pro Text&quot;,Helvetica,sans-serif;text-anchor:middle;" transform="matrix(1 0 0 1 2636.69 322)">Heavy</text>
  <text style="stroke:none;fill:black;font-family:-apple-system,&quot;SF Pro Display&quot;,&quot;SF Pro Text&quot;,Helvetica,sans-serif;text-anchor:middle;" transform="matrix(1 0 0 1 2933.4 322)">Black</text>
  <line id="" style="fill:none;stroke:black;opacity:1;stroke-width:0.5;" x1="263" x2="3036" y1="1903" y2="1903"/>
  <g id="" transform="matrix(1 0 0 1 263 1933)">
   <path d="M 9.24805 0.830078 C 13.5547 0.830078 17.1387 -2.74414 17.1387 -7.05078 C 17.1387 -11.3574 13.5449 -14.9316 9.23828 -14.9316 C 4.94141 -14.9316 1.36719 -11.3574 1.36719 -7.05078 C 1.36719 -2.74414 4.95117 0.830078 9.24805 0.830078 Z M 9.24805 -0.654297 C 5.70312 -0.654297 2.87109 -3.49609 2.87109 -7.05078 C 2.87109 -10.6055 5.69336 -13.4473 9.23828 -13.4473 C 12.793 -13.4473 15.6348 -10.6055 15.6445 -7.05078 C 15.6543 -3.49609 12.8027 -0.654297 9.24805 -0.654297 Z M 9.22852 -3.42773 C 9.69727 -3.42773 9.9707 -3.74023 9.9707 -4.25781 L 9.9707 -6.31836 L 12.1973 -6.31836 C 12.6953 -6.31836 13.0371 -6.57227 13.0371 -7.04102 C 13.0371 -7.51953 12.7148 -7.7832 12.1973 -7.7832 L 9.9707 -7.7832 L 9.9707 -10.0098 C 9.9707 -10.5273 9.69727 -10.8496 9.22852 -10.8496 C 8.75977 -10.8496 8.50586 -10.5078 8.50586 -10.0098 L 8.50586 -7.7832 L 6.29883 -7.7832 C 5.78125 -7.7832 5.44922 -7.51953 5.44922 -7.04102 C 5.44922 -6.57227 5.80078 -6.31836 6.29883 -6.31836 L 8.50586 -6.31836 L 8.50586 -4.25781 C 8.50586 -3.75977 8.75977 -3.42773 9.22852 -3.42773 Z"/>
  </g>
  <g id="" transform="matrix(1 0 0 1 281.506 1933)">
   <path d="M 11.709 2.91016 C 17.1582 2.91016 21.6699 -1.60156 21.6699 -7.05078 C 21.6699 -12.4902 17.1484 -17.0117 11.6992 -17.0117 C 6.25977 -17.0117 1.74805 -12.4902 1.74805 -7.05078 C 1.74805 -1.60156 6.26953 2.91016 11.709 2.91016 Z M 11.709 1.25 C 7.09961 1.25 3.41797 -2.44141 3.41797 -7.05078 C 3.41797 -11.6504 7.08984 -15.3516 11.6992 -15.3516 C 16.3086 -15.3516 20 -11.6504 20.0098 -7.05078 C 20.0195 -2.44141 16.3184 1.25 11.709 1.25 Z M 11.6895 -2.41211 C 12.207 -2.41211 12.5195 -2.77344 12.5195 -3.33984 L 12.5195 -6.23047 L 15.5762 -6.23047 C 16.123 -6.23047 16.5039 -6.51367 16.5039 -7.03125 C 16.5039 -7.55859 16.1426 -7.86133 15.5762 -7.86133 L 12.5195 -7.86133 L 12.5195 -10.9277 C 12.5195 -11.5039 12.207 -11.8555 11.6895 -11.8555 C 11.1719 -11.8555 10.8789 -11.4844 10.8789 -10.9277 L 10.8789 -7.86133 L 7.83203 -7.86133 C 7.26562 -7.86133 6.89453 -7.55859 6.89453 -7.03125 C 6.89453 -6.51367 7.28516 -6.23047 7.83203 -6.23047 L 10.8789 -6.23047 L 10.8789 -3.33984 C 10.8789 -2.79297 11.1719 -2.41211 11.6895 -2.41211 Z"/>
  </g>
  <g id="" transform="matrix(1 0 0 1 304.924 1933)">
   <path d="M 14.9707 5.67383 C 21.9336 5.67383 27.6953 -0.078125 27.6953 -7.04102 C 27.6953 -14.0039 21.9238 -19.7559 14.9609 -19.7559 C 8.00781 -19.7559 2.25586 -14.0039 2.25586 -7.04102 C 2.25586 -0.078125 8.01758 5.67383 14.9707 5.67383 Z M 14.9707 3.85742 C 8.93555 3.85742 4.08203 -1.00586 4.08203 -7.04102 C 4.08203 -13.0762 8.92578 -17.9395 14.9609 -17.9395 C 21.0059 -17.9395 25.8594 -13.0762 25.8691 -7.04102 C 25.8789 -1.00586 21.0156 3.85742 14.9707 3.85742 Z M 14.9512 -1.06445 C 15.5176 -1.06445 15.8691 -1.45508 15.8691 -2.06055 L 15.8691 -6.13281 L 20.1074 -6.13281 C 20.6934 -6.13281 21.1133 -6.46484 21.1133 -7.02148 C 21.1133 -7.59766 20.7227 -7.93945 20.1074 -7.93945 L 15.8691 -7.93945 L 15.8691 -12.1875 C 15.8691 -12.8027 15.5176 -13.1934 14.9512 -13.1934 C 14.3848 -13.1934 14.0625 -12.7832 14.0625 -12.1875 L 14.0625 -7.93945 L 9.83398 -7.93945 C 9.21875 -7.93945 8.80859 -7.59766 8.80859 -7.02148 C 8.80859 -6.46484 9.23828 -6.13281 9.83398 -6.13281 L 14.0625 -6.13281 L 14.0625 -2.06055 C 14.0625 -1.47461 14.3848 -1.06445 14.9512 -1.06445 Z"/>
  </g>
  <text style="stroke:none;fill:black;font-family:-apple-system,&quot;SF Pro Display&quot;,&quot;SF Pro Text&quot;,Helvetica,sans-serif;font-weight:bold;" transform="matrix(1 0 0 1 263 1953)">Design Variations</text>
  <text style="stroke:none;fill:black;font-family:-apple-system,&quot;SF Pro Display&quot;,&quot;SF Pro Text&quot;,Helvetica,sans-serif;" transform="matrix(1 0 0 1 263 1971)">Symbols are supported in up to nine weights and three scales.</text>
  <text style="stroke:none;fill:black;font-family:-apple-system,&quot;SF Pro Display&quot;,&quot;SF Pro Text&quot;,Helvetica,sans-serif;" transform="matrix(1 0 0 1 263 1989)">For optimal layout with text and other symbols, vertically align</text>
  <text style="stroke:none;fill:black;font-family:-apple-system,&quot;SF Pro Display&quot;,&quot;SF Pro Text&quot;,Helvetica,sans-serif;" transform="matrix(1 0 0 1 263 2007)">symbols with the adjacent text.</text>
  <rect height="14" id="" style="fill:#00AEEF;stroke:none;opacity:0.4;" width="3" x="776" y="1919"/>
  <g id="" transform="matrix(1 0 0 1 779 1933)">
   <path d="M 10.5273 0 L 12.373 0 L 7.17773 -14.0918 L 5.43945 -14.0918 L 0.244141 0 L 2.08984 0 L 3.50586 -4.0332 L 9.11133 -4.0332 Z M 6.2793 -11.9531 L 6.33789 -11.9531 L 8.59375 -5.52734 L 4.02344 -5.52734 Z"/>
  </g>
  <rect height="14" id="" style="fill:#00AEEF;stroke:none;opacity:0.4;" width="3" x="791.617" y="1919"/>
  <text style="stroke:none;fill:black;font-family:-apple-system,&quot;SF Pro Display&quot;,&quot;SF Pro Text&quot;,Helvetica,sans-serif;font-weight:bold;" transform="matrix(1 0 0 1 776 1953)">Margins</text>
  <text style="stroke:none;fill:black;font-family:-apple-system,&quot;SF Pro Display&quot;,&quot;SF Pro Text&quot;,Helvetica,sans-serif;" transform="matrix(1 0 0 1 776 1971)">Leading and trailing margins on the left and right side of each symbol</text>
  <text style="stroke:none;fill:black;font-family:-apple-system,&quot;SF Pro Display&quot;,&quot;SF Pro Text&quot;,Helvetica,sans-serif;" transform="matrix(1 0 0 1 776 1989)">can be adjusted by modifying the width of the blue rectangles.</text>
  <text style="stroke:none;fill:black;font-family:-apple-system,&quot;SF Pro Display&quot;,&quot;SF Pro Text&quot;,Helvetica,sans-serif;" transform="matrix(1 0 0 1 776 2007)">Modifications are automatically applied proportionally to all</text>
  <text style="stroke:none;fill:black;font-family:-apple-system,&quot;SF Pro Display&quot;,&quot;SF Pro Text&quot;,Helvetica,sans-serif;" transform="matrix(1 0 0 1 776 2025)">scales and weights.</text>
  <g id="" transform="matrix(1 0 0 1 1289 1933)">
   <path d="M 2.83203 3.11523 L 4.375 4.6582 C 5.22461 5.48828 6.19141 5.41992 7.06055 4.46289 L 17.2754 -6.66016 C 17.7051 -6.36719 18.0957 -6.37695 18.5645 -6.47461 L 19.6094 -6.68945 L 20.3027 -5.99609 L 20.2539 -5.47852 C 20.1855 -4.95117 20.3516 -4.53125 20.8496 -4.0332 L 21.6602 -3.22266 C 22.168 -2.71484 22.8223 -2.68555 23.3008 -3.16406 L 26.5527 -6.41602 C 27.0312 -6.89453 27.0117 -7.54883 26.5039 -8.05664 L 25.6836 -8.87695 C 25.1855 -9.375 24.7754 -9.55078 24.2383 -9.47266 L 23.7109 -9.41406 L 23.0566 -10.0781 L 23.3398 -11.2207 C 23.4863 -11.7871 23.3398 -12.2559 22.7148 -12.8613 L 20.3027 -15.2539 C 16.7578 -18.7793 12.2266 -18.6719 9.11133 -15.5371 C 8.69141 -15.1074 8.64258 -14.5215 8.91602 -14.0918 C 9.15039 -13.7207 9.62891 -13.4961 10.2734 -13.6621 C 11.7871 -14.043 13.3008 -13.9258 14.7852 -12.9199 L 14.1602 -11.3379 C 13.9258 -10.752 13.9453 -10.2734 14.1797 -9.83398 L 3.01758 0.439453 C 2.08008 1.30859 1.97266 2.25586 2.83203 3.11523 Z M 10.6738 -15.1465 C 13.3398 -17.1387 16.6504 -16.8262 19.0527 -14.4141 L 21.6797 -11.8066 C 21.9141 -11.5723 21.9434 -11.3867 21.8848 -11.0938 L 21.5039 -9.53125 L 23.0762 -7.95898 L 24.043 -8.04688 C 24.3262 -8.07617 24.4141 -8.05664 24.6387 -7.83203 L 25.2637 -7.20703 L 22.5098 -4.46289 L 21.8848 -5.07812 C 21.6602 -5.30273 21.6406 -5.40039 21.6699 -5.68359 L 21.7578 -6.64062 L 20.1953 -8.20312 L 18.5742 -7.89062 C 18.291 -7.83203 18.1445 -7.83203 17.9102 -8.07617 L 15.7324 -10.2539 C 15.5078 -10.4883 15.4785 -10.625 15.6055 -10.9473 L 16.5527 -13.2227 C 14.9512 -14.7559 12.8418 -15.6055 10.8008 -14.9512 C 10.7129 -14.9219 10.6445 -14.9414 10.6152 -14.9805 C 10.5859 -15.0293 10.5859 -15.0781 10.6738 -15.1465 Z M 4.10156 2.41211 C 3.61328 1.91406 3.78906 1.61133 4.12109 1.30859 L 15.0781 -8.80859 L 16.3086 -7.57812 L 6.15234 3.34961 C 5.84961 3.68164 5.46875 3.7793 5.06836 3.37891 Z"/>
  </g>
  <text style="stroke:none;fill:black;font-family:-apple-system,&quot;SF Pro Display&quot;,&quot;SF Pro Text&quot;,Helvetica,sans-serif;font-weight:bold;" transform="matrix(1 0 0 1 1289 1953)">Exporting</text>
  <text style="stroke:none;fill:black;font-family:-apple-system,&quot;SF Pro Display&quot;,&quot;SF Pro Text&quot;,Helvetica,sans-serif;" transform="matrix(1 0 0 1 1289 1971)">Symbols should be outlined when exporting to ensure the</text>
  <text style="stroke:none;fill:black;font-family:-apple-system,&quot;SF Pro Display&quot;,&quot;SF Pro Text&quot;,Helvetica,sans-serif;" transform="matrix(1 0 0 1 1289 1989)">design is preserved when submitting to Xcode.</text>
  <text id="template-version" style="stroke:none;fill:black;font-family:-apple-system,&quot;SF Pro Display&quot;,&quot;SF Pro Text&quot;,Helvetica,sans-serif;text-anchor:end;" transform="matrix(1 0 0 1 3036 1933)">Template v.1.0</text>
  <text style="stroke:none;fill:black;font-family:-apple-system,&quot;SF Pro Display&quot;,&quot;SF Pro Text&quot;,Helvetica,sans-serif;text-anchor:end;" transform="matrix(1 0 0 1 3036 1951)">Generated from moon.circle</text>
  <text style="stroke:none;fill:black;font-family:-apple-system,&quot;SF Pro Display&quot;,&quot;SF Pro Text&quot;,Helvetica,sans-serif;text-anchor:end;" transform="matrix(1 0 0 1 3036 1969)">Typeset at 100 points</text>
  <text style="stroke:none;fill:black;font-family:-apple-system,&quot;SF Pro Display&quot;,&quot;SF Pro Text&quot;,Helvetica,sans-serif;" transform="matrix(1 0 0 1 263 726)">Small</text>
  <text style="stroke:none;fill:black;font-family:-apple-system,&quot;SF Pro Display&quot;,&quot;SF Pro Text&quot;,Helvetica,sans-serif;" transform="matrix(1 0 0 1 263 1156)">Medium</text>
  <text style="stroke:none;fill:black;font-family:-apple-system,&quot;SF Pro Display&quot;,&quot;SF Pro Text&quot;,Helvetica,sans-serif;" transform="matrix(1 0 0 1 263 1586)">Large</text>
 </g>
 <g id="Guides">
  <g id="H-reference" style="fill:#27AAE1;stroke:none;" transform="matrix(1 0 0 1 339 696)">
   <path d="M 54.9316 0 L 57.666 0 L 30.5664 -70.459 L 28.0762 -70.459 L 0.976562 0 L 3.66211 0 L 12.9395 -24.4629 L 45.7031 -24.4629 Z M 29.1992 -67.0898 L 29.4434 -67.0898 L 44.8242 -26.709 L 13.8184 -26.709 Z"/>
  </g>
  <line id="Baseline-S" style="fill:none;stroke:#27AAE1;opacity:1;stroke-width:0.577;" x1="263" x2="3036" y1="696" y2="696"/>
  <line id="Capline-S" style="fill:none;stroke:#27AAE1;opacity:1;stroke-width:0.577;" x1="263" x2="3036" y1="625.541" y2="625.541"/>
  <g id="H-reference" style="fill:#27AAE1;stroke:none;" transform="matrix(1 0 0 1 339 1126)">
   <path d="M 54.9316 0 L 57.666 0 L 30.5664 -70.459 L 28.0762 -70.459 L 0.976562 0 L 3.66211 0 L 12.9395 -24.4629 L 45.7031 -24.4629 Z M 29.1992 -67.0898 L 29.4434 -67.0898 L 44.8242 -26.709 L 13.8184 -26.709 Z"/>
  </g>
  <line id="Baseline-M" style="fill:none;stroke:#27AAE1;opacity:1;stroke-width:0.577;" x1="263" x2="3036" y1="1126" y2="1126"/>
  <line id="Capline-M" style="fill:none;stroke:#27AAE1;opacity:1;stroke-width:0.577;" x1="263" x2="3036" y1="1055.54" y2="1055.54"/>
  <g id="H-reference" style="fill:#27AAE1;stroke:none;" transform="matrix(1 0 0 1 339 1556)">
   <path d="M 54.9316 0 L 57.666 0 L 30.5664 -70.459 L 28.0762 -70.459 L 0.976562 0 L 3.66211 0 L 12.9395 -24.4629 L 45.7031 -24.4629 Z M 29.1992 -67.0898 L 29.4434 -67.0898 L 44.8242 -26.709 L 13.8184 -26.709 Z"/>
  </g>
  <line id="Baseline-L" style="fill:none;stroke:#27AAE1;opacity:1;stroke-width:0.577;" x1="263" x2="3036" y1="1556" y2="1556"/>
  <line id="Capline-L" style="fill:none;stroke:#27AAE1;opacity:1;stroke-width:0.577;" x1="263" x2="3036" y1="1485.54" y2="1485.54"/>
  <rect height="119.336" id="left-margin" style="fill:#00AEEF;stroke:none;opacity:0.4;" width="8.74023" x="1391.3" y="1030.79"/>
  <rect height="119.336" id="right-margin" style="fill:#00AEEF;stroke:none;opacity:0.4;" width="8.74023" x="1499.65" y="1030.79"/>
 </g>
 <g id="Symbols">
  <g id="Black-L" transform="matrix(1 0 0 1 2854.05 1556)">
   <path d="M 79.3457 32.8613 C 116.748 32.8613 147.412 2.19727 147.412 -35.2051 C 147.412 -72.6074 116.748 -103.271 79.2969 -103.271 C 41.8945 -103.271 11.2793 -72.6074 11.2793 -35.2051 C 11.2793 2.19727 41.9434 32.8613 79.3457 32.8613 Z M 79.3457 12.4023 C 52.9785 12.4023 31.7383 -8.83789 31.7383 -35.2051 C 31.7383 -61.5723 52.9297 -82.8125 79.2969 -82.8125 C 105.664 -82.8125 126.953 -61.5723 126.953 -35.2051 C 127.002 -8.83789 105.713 12.4023 79.3457 12.4023 Z M 94.043 -24.6094 C 79.1504 -24.6094 69.8242 -33.5449 69.8242 -48.1445 C 69.8242 -51.709 70.6055 -55.957 71.7285 -58.252 C 72.2168 -59.2773 72.5098 -60.1562 72.5098 -60.8887 C 72.5098 -62.207 71.6309 -63.3301 70.0684 -63.3301 C 69.3848 -63.3301 68.5059 -63.0859 67.4805 -62.6953 C 56.1035 -58.2031 48.584 -46.6309 48.584 -34.1797 C 48.584 -16.5039 61.6699 -3.71094 79.2969 -3.71094 C 91.748 -3.71094 102.393 -11.1816 107.178 -21.7773 C 107.666 -22.9004 107.91 -23.9258 107.91 -24.6582 C 107.91 -26.0254 106.982 -26.9043 105.713 -26.9043 C 104.883 -26.9043 103.906 -26.6602 102.734 -26.123 C 100.781 -25.293 97.3633 -24.6094 94.043 -24.6094 Z"/>
  </g>
  <g id="Heavy-L" transform="matrix(1 0 0 1 2558.39 1556)">
   <path d="M 78.2715 31.7871 C 115.088 31.7871 145.312 1.61133 145.312 -35.2051 C 145.312 -72.0215 115.039 -102.197 78.2715 -102.197 C 41.4551 -102.197 11.2793 -72.0215 11.2793 -35.2051 C 11.2793 1.61133 41.5039 31.7871 78.2715 31.7871 Z M 78.2715 14.0137 C 51.0254 14.0137 29.0527 -7.95898 29.0527 -35.2051 C 29.0527 -62.5 50.9766 -84.4727 78.2715 -84.4727 C 105.518 -84.4727 127.49 -62.5 127.539 -35.2051 C 127.539 -7.95898 105.566 14.0137 78.2715 14.0137 Z M 93.7988 -23.7305 C 77.8809 -23.7305 67.8223 -33.4473 67.8223 -49.1699 C 67.8223 -52.9297 68.6523 -57.373 69.7754 -59.8633 C 70.2637 -60.791 70.5078 -61.6211 70.5078 -62.2559 C 70.5078 -63.4766 69.6289 -64.5508 68.1641 -64.5508 C 67.5781 -64.5508 66.6992 -64.3555 65.7715 -64.0137 C 53.9551 -59.375 46.1914 -47.168 46.1914 -34.1797 C 46.1914 -15.8203 59.9121 -2.49023 78.2715 -2.49023 C 91.3086 -2.49023 102.637 -10.4004 107.324 -21.1914 C 107.764 -22.2168 107.959 -23.1445 107.959 -23.7793 C 107.959 -25.1465 107.031 -26.0254 105.811 -26.0254 C 105.078 -26.0254 104.248 -25.7812 103.271 -25.3418 C 101.123 -24.4629 97.4121 -23.7305 93.7988 -23.7305 Z"/>
  </g>
  <g id="Bold-L" transform="matrix(1 0 0 1 2262.88 1556)">
   <path d="M 77.0996 30.6152 C 113.232 30.6152 142.92 0.878906 142.92 -35.2051 C 142.92 -71.3379 113.184 -101.025 77.0508 -101.025 C 40.9668 -101.025 11.2793 -71.3379 11.2793 -35.2051 C 11.2793 0.878906 41.0156 30.6152 77.0996 30.6152 Z M 77.0996 15.8691 C 48.8281 15.8691 26.0742 -6.93359 26.0742 -35.2051 C 26.0742 -63.4766 48.7793 -86.2793 77.0508 -86.2793 C 105.371 -86.2793 128.125 -63.4766 128.174 -35.2051 C 128.174 -6.93359 105.371 15.8691 77.0996 15.8691 Z M 93.5059 -22.7539 C 76.5137 -22.7539 65.5762 -33.3984 65.5762 -50.293 C 65.5762 -54.248 66.5039 -58.9844 67.627 -61.7188 C 68.0176 -62.5488 68.2129 -63.2324 68.2129 -63.7695 C 68.2129 -64.8926 67.3828 -65.918 66.0156 -65.918 C 65.4785 -65.918 64.6973 -65.7715 63.8184 -65.4297 C 51.6113 -60.6934 43.5059 -47.7539 43.5059 -34.1309 C 43.5059 -15.0391 57.959 -1.12305 77.0508 -1.12305 C 90.8203 -1.12305 102.881 -9.47266 107.471 -20.5566 C 107.861 -21.4355 108.008 -22.3145 108.008 -22.8027 C 108.008 -24.1211 107.031 -24.9512 105.908 -24.9512 C 105.322 -24.9512 104.688 -24.8047 103.809 -24.4629 C 101.514 -23.5352 97.4609 -22.7539 93.5059 -22.7539 Z"/>
  </g>
  <g id="Semibold-L" transform="matrix(1 0 0 1 1966.97 1556)">
   <path d="M 76.2695 29.7852 C 111.914 29.7852 141.309 0.439453 141.309 -35.2051 C 141.309 -70.8496 111.865 -100.244 76.2695 -100.244 C 40.625 -100.244 11.2793 -70.8496 11.2793 -35.2051 C 11.2793 0.439453 40.6738 29.7852 76.2695 29.7852 Z M 76.2695 17.0898 C 47.3145 17.0898 24.0234 -6.25 24.0234 -35.2051 C 24.0234 -64.209 47.2656 -87.5 76.2695 -87.5 C 105.225 -87.5 128.564 -64.209 128.613 -35.2051 C 128.662 -6.25 105.273 17.0898 76.2695 17.0898 Z M 93.3105 -22.0703 C 75.5859 -22.0703 64.0625 -33.3496 64.0625 -51.0742 C 64.0625 -55.1758 64.9902 -60.0586 66.1621 -62.9395 C 66.5039 -63.7695 66.6504 -64.3555 66.6504 -64.7949 C 66.6504 -65.8691 65.8691 -66.8945 64.5508 -66.8945 C 64.0625 -66.8945 63.2812 -66.748 62.5 -66.4551 C 50 -61.6211 41.6992 -48.1445 41.6992 -34.1309 C 41.6992 -14.502 56.6406 -0.146484 76.2695 -0.146484 C 90.4785 -0.146484 103.076 -8.83789 107.568 -20.0684 C 107.959 -20.8984 108.057 -21.7285 108.057 -22.1191 C 108.057 -23.4375 107.08 -24.2676 106.006 -24.2676 C 105.469 -24.2676 104.932 -24.1699 104.199 -23.877 C 101.758 -22.9004 97.5098 -22.0703 93.3105 -22.0703 Z"/>
  </g>
  <g id="Medium-L" transform="matrix(1 0 0 1 1670.87 1556)">
   <path d="M 75.6836 29.1992 C 110.938 29.1992 140.088 0.0488281 140.088 -35.2051 C 140.088 -70.459 110.889 -99.6094 75.6348 -99.6094 C 40.3809 -99.6094 11.2793 -70.459 11.2793 -35.2051 C 11.2793 0.0488281 40.3809 29.1992 75.6836 29.1992 Z M 75.6836 18.0664 C 46.1426 18.0664 22.4609 -5.71289 22.4609 -35.2051 C 22.4609 -64.6973 46.1426 -88.4766 75.6348 -88.4766 C 105.127 -88.4766 128.906 -64.6973 128.906 -35.2051 C 128.955 -5.71289 105.176 18.0664 75.6836 18.0664 Z M 93.1641 -21.582 C 74.8535 -21.582 62.8906 -33.3008 62.8906 -51.6602 C 62.8906 -55.9082 63.8672 -60.8887 65.0391 -63.916 C 65.332 -64.6484 65.4297 -65.2344 65.4297 -65.5762 C 65.4297 -66.6016 64.6973 -67.5781 63.4277 -67.5781 C 62.9883 -67.5781 62.2559 -67.4805 61.5234 -67.1875 C 48.7305 -62.3047 40.2832 -48.4375 40.2832 -34.1309 C 40.2832 -14.0625 55.6152 0.537109 75.6348 0.537109 C 90.2344 0.537109 103.174 -8.34961 107.666 -19.7266 C 108.008 -20.5078 108.057 -21.2402 108.057 -21.6309 C 108.057 -22.9004 107.08 -23.7305 106.055 -23.7305 C 105.615 -23.7305 105.176 -23.6328 104.492 -23.3887 C 101.953 -22.4121 97.5098 -21.582 93.1641 -21.582 Z"/>
  </g>
  <g id="Regular-L" transform="matrix(1 0 0 1 1374.97 1556)">
   <path d="M 74.8535 28.3691 C 109.668 28.3691 138.477 -0.390625 138.477 -35.2051 C 138.477 -70.0195 109.619 -98.7793 74.8047 -98.7793 C 40.0391 -98.7793 11.2793 -70.0195 11.2793 -35.2051 C 11.2793 -0.390625 40.0879 28.3691 74.8535 28.3691 Z M 74.8535 19.2871 C 44.6777 19.2871 20.4102 -5.0293 20.4102 -35.2051 C 20.4102 -65.3809 44.6289 -89.6973 74.8047 -89.6973 C 105.029 -89.6973 129.297 -65.3809 129.346 -35.2051 C 129.395 -5.0293 105.078 19.2871 74.8535 19.2871 Z M 93.0176 -20.8984 C 73.9258 -20.8984 61.3281 -33.252 61.3281 -52.4414 C 61.3281 -56.8359 62.3535 -62.0117 63.5742 -65.1855 C 63.8672 -65.8691 63.8672 -66.3086 63.8672 -66.6016 C 63.8672 -67.5293 63.1836 -68.5547 61.9629 -68.5547 C 61.5723 -68.5547 60.8887 -68.457 60.2051 -68.1641 C 47.1191 -63.1836 38.4766 -48.877 38.4766 -34.082 C 38.4766 -13.5254 54.2969 1.46484 74.8047 1.46484 C 89.8926 1.46484 103.369 -7.76367 107.764 -19.2871 C 108.057 -20.0195 108.105 -20.7031 108.105 -20.9961 C 108.105 -22.2168 107.129 -23.0469 106.152 -23.0469 C 105.762 -23.0469 105.42 -22.998 104.883 -22.8027 C 102.197 -21.8262 97.5586 -20.8984 93.0176 -20.8984 Z"/>
  </g>
  <g id="Light-L" transform="matrix(1 0 0 1 1079.18 1556)">
   <path d="M 73.9258 27.4902 C 108.301 27.4902 136.621 -0.830078 136.621 -35.1562 C 136.621 -69.5312 108.252 -97.8516 73.9258 -97.8516 C 39.5508 -97.8516 11.2793 -69.5312 11.2793 -35.1562 C 11.2793 -0.830078 39.5996 27.4902 73.9258 27.4902 Z M 73.9258 20.6055 C 43.1152 20.6055 18.2129 -4.3457 18.2129 -35.1562 C 18.2129 -66.0156 43.0664 -90.918 73.9258 -90.918 C 104.736 -90.918 129.688 -66.0156 129.736 -35.1562 C 129.736 -4.3457 104.785 20.6055 73.9258 20.6055 Z M 92.2363 -20.459 C 73.1445 -20.459 60.1074 -33.3496 60.1074 -52.5391 C 60.1074 -57.4707 61.084 -62.1094 62.3047 -65.5273 C 62.5488 -66.0645 62.5977 -66.4551 62.5977 -66.748 C 62.5977 -67.6758 61.9141 -68.5059 60.791 -68.5059 C 60.4492 -68.5059 59.9609 -68.457 59.4238 -68.2129 C 46.3379 -63.4766 37.793 -48.877 37.793 -34.1309 C 37.793 -13.8184 53.6133 1.46484 73.9258 1.46484 C 88.8672 1.46484 102.93 -7.61719 107.227 -19.3848 C 107.422 -19.9219 107.471 -20.4102 107.471 -20.7031 C 107.471 -21.7773 106.592 -22.5586 105.664 -22.5586 C 105.371 -22.5586 105.078 -22.5586 104.688 -22.4121 C 102.002 -21.2891 97.0703 -20.459 92.2363 -20.459 Z"/>
  </g>
  <g id="Thin-L" transform="matrix(1 0 0 1 783.693 1556)">
   <path d="M 72.7051 26.3184 C 106.494 26.3184 134.18 -1.36719 134.18 -35.1074 C 134.18 -68.8965 106.494 -96.582 72.7051 -96.582 C 38.9648 -96.582 11.2793 -68.8965 11.2793 -35.1074 C 11.2793 -1.36719 38.9648 26.3184 72.7051 26.3184 Z M 72.7051 22.3145 C 41.0156 22.3145 15.2832 -3.41797 15.2832 -35.1074 C 15.2832 -66.8457 41.0156 -92.5781 72.7051 -92.5781 C 104.395 -92.5781 130.176 -66.8457 130.176 -35.1074 C 130.176 -3.41797 104.443 22.3145 72.7051 22.3145 Z M 91.2598 -19.8242 C 72.1191 -19.8242 58.4961 -33.3984 58.4961 -52.6855 C 58.4961 -58.3496 59.4238 -62.2559 60.6934 -66.0156 C 60.791 -66.3086 60.8887 -66.6504 60.8887 -66.8945 C 60.8887 -67.8223 60.2051 -68.5059 59.2773 -68.5059 C 59.0332 -68.5059 58.7402 -68.4082 58.4473 -68.3105 C 45.3125 -63.8672 36.9141 -48.877 36.9141 -34.1309 C 36.9141 -14.1602 52.6855 1.46484 72.7051 1.46484 C 87.5 1.46484 102.393 -7.4707 106.445 -19.4824 C 106.543 -19.7754 106.592 -20.0684 106.592 -20.3125 C 106.592 -21.2402 105.859 -21.9727 104.98 -21.9727 C 104.785 -21.9727 104.59 -21.9727 104.395 -21.875 C 101.758 -20.6543 96.4355 -19.8242 91.2598 -19.8242 Z"/>
  </g>
  <g id="Ultralight-L" transform="matrix(1 0 0 1 487.616 1556)">
   <path d="M 72.1191 25.7324 C 105.566 25.7324 132.91 -1.61133 132.91 -35.1074 C 132.91 -68.5547 105.566 -95.8984 72.1191 -95.8984 C 38.623 -95.8984 11.2793 -68.5547 11.2793 -35.1074 C 11.2793 -1.61133 38.623 25.7324 72.1191 25.7324 Z M 72.1191 23.2422 C 39.9414 23.2422 13.7695 -2.97852 13.7695 -35.1074 C 13.7695 -67.2363 39.9414 -93.4082 72.1191 -93.4082 C 104.248 -93.4082 130.42 -67.2363 130.42 -35.1074 C 130.42 -2.97852 104.248 23.2422 72.1191 23.2422 Z M 90.7227 -19.5312 C 71.582 -19.5312 57.666 -33.4473 57.666 -52.7344 C 57.666 -58.7891 58.5449 -62.3047 59.8633 -66.2598 C 59.9121 -66.4551 60.0098 -66.748 60.0098 -66.9922 C 60.0098 -67.8711 59.375 -68.457 58.4961 -68.457 C 58.3008 -68.457 58.1055 -68.4082 57.9102 -68.3594 C 44.8242 -64.0625 36.4746 -48.877 36.4746 -34.1309 C 36.4746 -14.3555 52.2461 1.46484 72.1191 1.46484 C 86.7676 1.46484 102.1 -7.42188 106.055 -19.5312 C 106.104 -19.7266 106.104 -19.9219 106.104 -20.1172 C 106.104 -20.9961 105.518 -21.6797 104.639 -21.6797 C 104.492 -21.6797 104.395 -21.6797 104.248 -21.6309 C 101.611 -20.3125 96.1426 -19.5312 90.7227 -19.5312 Z"/>
  </g>
  <g id="Black-M" transform="matrix(1 0 0 1 2870.97 1126)">
   <path d="M 62.4023 18.457 C 91.9922 18.457 116.113 -5.61523 116.113 -35.2051 C 116.113 -64.7949 91.9922 -88.8672 62.4023 -88.8672 C 32.8125 -88.8672 8.74023 -64.7949 8.74023 -35.2051 C 8.74023 -5.61523 32.8125 18.457 62.4023 18.457 Z M 62.4023 0.195312 C 42.8711 0.195312 27.002 -15.625 27.002 -35.2051 C 27.002 -54.7363 42.8711 -70.6055 62.4023 -70.6055 C 81.9824 -70.6055 97.8027 -54.7363 97.8027 -35.2051 C 97.8027 -15.625 81.9824 0.195312 62.4023 0.195312 Z M 72.8027 -27.9297 C 62.5488 -27.9297 56.1523 -34.0332 56.1523 -43.9453 C 56.1523 -46.7285 56.6406 -49.4629 57.5195 -51.0742 C 57.959 -51.8555 58.252 -52.6855 58.252 -53.3691 C 58.252 -54.4922 57.5195 -55.3223 56.25 -55.3223 C 55.7129 -55.3223 55.0293 -55.127 54.1992 -54.834 C 45.8984 -51.6113 40.5273 -43.3594 40.5273 -34.4727 C 40.5273 -21.8262 49.8047 -12.4512 62.4023 -12.4512 C 71.1426 -12.4512 78.8086 -17.627 82.5684 -25.5859 C 83.0078 -26.5625 83.2031 -27.3438 83.2031 -28.0762 C 83.2031 -29.1016 82.5684 -29.7852 81.4941 -29.7852 C 80.7617 -29.7852 79.8828 -29.541 78.8574 -29.0527 C 77.5391 -28.3691 75.1465 -27.9297 72.8027 -27.9297 Z"/>
  </g>
  <g id="Heavy-M" transform="matrix(1 0 0 1 2575.19 1126)">
   <path d="M 61.5234 17.5781 C 90.5273 17.5781 114.258 -6.15234 114.258 -35.2051 C 114.258 -64.2578 90.5273 -87.9883 61.4746 -87.9883 C 32.4707 -87.9883 8.74023 -64.2578 8.74023 -35.2051 C 8.74023 -6.15234 32.4707 17.5781 61.5234 17.5781 Z M 61.5234 1.66016 C 41.1133 1.66016 24.6582 -14.8438 24.6582 -35.2051 C 24.6582 -55.5664 41.1133 -72.0703 61.4746 -72.0703 C 81.8848 -72.0703 98.3398 -55.5664 98.3398 -35.2051 C 98.3398 -14.8438 81.8848 1.66016 61.5234 1.66016 Z M 72.7539 -27.0996 C 61.4258 -27.0996 54.2969 -33.9355 54.2969 -45.0195 C 54.2969 -47.9004 54.834 -50.9766 55.7129 -52.7344 C 56.1035 -53.5156 56.3965 -54.248 56.3965 -54.834 C 56.3965 -55.8594 55.6641 -56.6895 54.4922 -56.6895 C 53.9551 -56.6895 53.2715 -56.4941 52.5391 -56.2012 C 43.7988 -52.832 38.0859 -43.9453 38.0859 -34.4238 C 38.0859 -20.9961 48.0469 -11.1328 61.4746 -11.1328 C 70.8984 -11.1328 79.1504 -16.7969 82.8613 -24.9512 C 83.252 -25.8301 83.3984 -26.6113 83.3984 -27.1973 C 83.3984 -28.2227 82.7637 -28.9062 81.7383 -28.9062 C 81.1035 -28.9062 80.3223 -28.7109 79.4434 -28.2715 C 77.9785 -27.5879 75.3418 -27.0996 72.7539 -27.0996 Z"/>
  </g>
  <g id="Bold-M" transform="matrix(1 0 0 1 2279.5 1126)">
   <path d="M 60.498 16.5039 C 88.8672 16.5039 112.207 -6.78711 112.207 -35.2051 C 112.207 -63.623 88.8672 -86.9629 60.4492 -86.9629 C 32.0312 -86.9629 8.74023 -63.623 8.74023 -35.2051 C 8.74023 -6.78711 32.0801 16.5039 60.498 16.5039 Z M 60.498 3.22266 C 39.1602 3.22266 22.0703 -13.916 22.0703 -35.2051 C 22.0703 -56.4941 39.1602 -73.6816 60.4492 -73.6816 C 81.7383 -73.6816 98.9258 -56.4941 98.9258 -35.2051 C 98.9746 -13.916 81.7871 3.22266 60.498 3.22266 Z M 72.6562 -26.1719 C 60.1562 -26.1719 52.1973 -33.8379 52.1973 -46.2402 C 52.1973 -49.1699 52.832 -52.6855 53.7598 -54.6387 C 54.1016 -55.3711 54.248 -55.957 54.248 -56.4453 C 54.248 -57.373 53.6133 -58.2031 52.4414 -58.2031 C 52.002 -58.2031 51.3672 -58.0566 50.6348 -57.7637 C 41.4551 -54.1504 35.3516 -44.5801 35.3516 -34.375 C 35.3516 -20.0684 46.1426 -9.61914 60.4492 -9.61914 C 70.7031 -9.61914 79.5898 -15.8203 83.2031 -24.2188 C 83.5449 -25 83.6914 -25.7324 83.6914 -26.1719 C 83.6914 -27.2461 82.959 -27.9297 82.0312 -27.9297 C 81.4941 -27.9297 80.8594 -27.7344 80.127 -27.4414 C 78.4668 -26.709 75.5371 -26.1719 72.6562 -26.1719 Z"/>
  </g>
  <g id="Semibold-M" transform="matrix(1 0 0 1 1983.5 1126)">
   <path d="M 59.7656 15.8203 C 87.7441 15.8203 110.791 -7.22656 110.791 -35.2051 C 110.791 -63.1836 87.6953 -86.2793 59.7656 -86.2793 C 31.7871 -86.2793 8.74023 -63.1836 8.74023 -35.2051 C 8.74023 -7.22656 31.7871 15.8203 59.7656 15.8203 Z M 59.7656 4.3457 C 37.8418 4.3457 20.2637 -13.2812 20.2637 -35.2051 C 20.2637 -57.1289 37.793 -74.8047 59.7656 -74.8047 C 81.6895 -74.8047 99.3164 -57.1289 99.3652 -35.2051 C 99.3652 -13.2812 81.6895 4.3457 59.7656 4.3457 Z M 72.6074 -25.4883 C 59.2773 -25.4883 50.7324 -33.7891 50.7324 -47.0215 C 50.7324 -50.0488 51.4648 -53.8574 52.3438 -55.957 C 52.6855 -56.6406 52.7832 -57.1777 52.7832 -57.5195 C 52.7832 -58.3984 52.1973 -59.2285 51.0742 -59.2285 C 50.6836 -59.2285 50.0488 -59.1309 49.3652 -58.8379 C 39.7949 -55.0781 33.4961 -45.0195 33.4961 -34.375 C 33.4961 -19.3848 44.7754 -8.59375 59.7656 -8.59375 C 70.5078 -8.59375 79.8828 -15.1367 83.4473 -23.7305 C 83.7402 -24.4629 83.8379 -25.1465 83.8379 -25.5371 C 83.8379 -26.5625 83.1055 -27.2461 82.2266 -27.2461 C 81.7383 -27.2461 81.25 -27.0996 80.5664 -26.8555 C 78.7598 -26.123 75.6348 -25.4883 72.6074 -25.4883 Z"/>
  </g>
  <g id="Medium-M" transform="matrix(1 0 0 1 1687.3 1126)">
   <path d="M 59.2285 15.2832 C 86.9141 15.2832 109.766 -7.56836 109.766 -35.2051 C 109.766 -62.8906 86.8652 -85.7422 59.1797 -85.7422 C 31.543 -85.7422 8.74023 -62.8906 8.74023 -35.2051 C 8.74023 -7.56836 31.5918 15.2832 59.2285 15.2832 Z M 59.2285 5.17578 C 36.8164 5.17578 18.8965 -12.8418 18.8965 -35.2051 C 18.8965 -57.6172 36.8164 -75.6348 59.1797 -75.6348 C 81.5918 -75.6348 99.6094 -57.6172 99.6582 -35.2051 C 99.707 -12.8418 81.6406 5.17578 59.2285 5.17578 Z M 72.5586 -25.0488 C 58.5938 -25.0488 49.6582 -33.7402 49.6582 -47.6562 C 49.6582 -50.7324 50.4395 -54.7363 51.3184 -56.9336 C 51.6113 -57.5684 51.6602 -58.0566 51.6602 -58.3984 C 51.6602 -59.1797 51.0742 -60.0098 50.0488 -60.0098 C 49.6582 -60.0098 49.0234 -59.9121 48.3398 -59.668 C 38.5742 -55.8105 32.0312 -45.3613 32.0312 -34.375 C 32.0312 -18.8965 43.7988 -7.8125 59.1797 -7.8125 C 70.4102 -7.8125 80.0781 -14.6484 83.6426 -23.3398 C 83.9355 -24.0234 83.9844 -24.707 83.9844 -25 C 83.9844 -26.0254 83.2031 -26.709 82.373 -26.709 C 81.9336 -26.709 81.543 -26.6113 80.9082 -26.416 C 79.0039 -25.6836 75.7324 -25.0488 72.5586 -25.0488 Z"/>
  </g>
  <g id="Regular-M" transform="matrix(1 0 0 1 1391.3 1126)">
   <path d="M 58.5449 14.5508 C 85.791 14.5508 108.35 -8.00781 108.35 -35.2539 C 108.35 -62.4512 85.7422 -85.0586 58.4961 -85.0586 C 31.2988 -85.0586 8.74023 -62.4512 8.74023 -35.2539 C 8.74023 -8.00781 31.3477 14.5508 58.5449 14.5508 Z M 58.5449 6.25 C 35.498 6.25 17.0898 -12.207 17.0898 -35.2539 C 17.0898 -58.252 35.4492 -76.7578 58.4961 -76.7578 C 81.543 -76.7578 100 -58.252 100.049 -35.2539 C 100.098 -12.207 81.5918 6.25 58.5449 6.25 Z M 72.5098 -24.4141 C 57.7148 -24.4141 48.2422 -33.6914 48.2422 -48.4863 C 48.2422 -51.5625 49.0723 -55.9082 49.9512 -58.2031 C 50.2441 -58.8379 50.2441 -59.2285 50.2441 -59.4727 C 50.2441 -60.2051 49.707 -61.0352 48.6816 -61.0352 C 48.3398 -61.0352 47.7051 -60.9863 47.0703 -60.7422 C 36.9629 -56.7383 30.1758 -45.8008 30.1758 -34.3262 C 30.1758 -18.2617 42.4316 -6.78711 58.4961 -6.78711 C 70.2637 -6.78711 80.3711 -14.0137 83.8379 -22.8516 C 84.1309 -23.4863 84.1797 -24.1211 84.1797 -24.3164 C 84.1797 -25.3418 83.3008 -26.0254 82.5195 -26.0254 C 82.2266 -26.0254 81.8848 -25.9766 81.3965 -25.8301 C 79.3457 -25.0977 75.8789 -24.4141 72.5098 -24.4141 Z"/>
  </g>
  <g id="Light-M" transform="matrix(1 0 0 1 1095.42 1126)">
   <path d="M 57.7148 13.7695 C 84.5215 13.7695 106.689 -8.39844 106.689 -35.2051 C 106.689 -62.0117 84.5215 -84.1797 57.666 -84.1797 C 30.8594 -84.1797 8.74023 -62.0117 8.74023 -35.2051 C 8.74023 -8.39844 30.9082 13.7695 57.7148 13.7695 Z M 57.7148 7.4707 C 34.082 7.4707 15.0879 -11.5723 15.0879 -35.2051 C 15.0879 -58.8379 34.082 -77.832 57.666 -77.832 C 81.2988 -77.832 100.342 -58.8379 100.391 -35.2051 C 100.391 -11.5723 81.3477 7.4707 57.7148 7.4707 Z M 71.8262 -23.9746 C 57.0312 -23.9746 47.1191 -33.7402 47.1191 -48.584 C 47.1191 -52.1973 47.9004 -56.0059 48.877 -58.5449 C 49.0234 -59.0332 49.0723 -59.375 49.0723 -59.5703 C 49.0723 -60.3027 48.5352 -61.0352 47.6562 -61.0352 C 47.3633 -61.0352 46.875 -60.9863 46.3867 -60.791 C 36.2793 -56.9824 29.5898 -45.8008 29.5898 -34.375 C 29.5898 -18.5059 41.8457 -6.78711 57.666 -6.78711 C 69.3359 -6.78711 79.9805 -13.8672 83.3496 -22.9004 C 83.5449 -23.3887 83.5449 -23.877 83.5449 -24.0723 C 83.5449 -25 82.8613 -25.6348 82.0801 -25.6348 C 81.8359 -25.6348 81.5918 -25.5859 81.2012 -25.4883 C 79.1504 -24.6582 75.4395 -23.9746 71.8262 -23.9746 Z"/>
  </g>
  <g id="Thin-M" transform="matrix(1 0 0 1 799.806 1126)">
   <path d="M 56.6406 12.7441 C 82.9102 12.7441 104.492 -8.83789 104.492 -35.1562 C 104.492 -61.4746 82.9102 -83.0566 56.5918 -83.0566 C 30.3223 -83.0566 8.74023 -61.4746 8.74023 -35.1562 C 8.74023 -8.83789 30.3223 12.7441 56.6406 12.7441 Z M 56.6406 8.98438 C 32.2266 8.98438 12.4512 -10.791 12.4512 -35.1562 C 12.4512 -59.5215 32.2266 -79.2969 56.5918 -79.2969 C 81.0059 -79.2969 100.781 -59.5215 100.781 -35.1562 C 100.781 -10.791 81.0059 8.98438 56.6406 8.98438 Z M 70.9473 -23.4375 C 56.1035 -23.4375 45.7031 -33.7891 45.7031 -48.7305 C 45.7031 -52.9785 46.3867 -56.1523 47.3633 -58.9844 C 47.5098 -59.2773 47.5586 -59.5703 47.5586 -59.7656 C 47.5586 -60.4492 47.0215 -61.0352 46.2891 -61.0352 C 46.0449 -61.0352 45.8008 -60.9375 45.5078 -60.8398 C 35.3516 -57.3242 28.8086 -45.8008 28.8086 -34.375 C 28.8086 -18.8477 41.0156 -6.78711 56.5918 -6.78711 C 68.0664 -6.78711 79.4434 -13.7695 82.666 -22.998 C 82.7637 -23.291 82.7637 -23.584 82.7637 -23.7793 C 82.7637 -24.5117 82.2266 -25.0977 81.4941 -25.0977 C 81.3477 -25.0977 81.1523 -25.0977 80.957 -25 C 78.9062 -24.0723 74.9023 -23.4375 70.9473 -23.4375 Z"/>
  </g>
  <g id="Ultralight-M" transform="matrix(1 0 0 1 503.656 1126)">
   <path d="M 56.0547 12.207 C 82.0801 12.207 103.369 -9.08203 103.369 -35.1562 C 103.369 -61.1816 82.0801 -82.4707 56.0547 -82.4707 C 30.0293 -82.4707 8.74023 -61.1816 8.74023 -35.1562 C 8.74023 -9.08203 30.0293 12.207 56.0547 12.207 Z M 56.0547 9.81445 C 31.2988 9.81445 11.1328 -10.3516 11.1328 -35.1562 C 11.1328 -59.9121 31.2988 -80.0781 56.0547 -80.0781 C 80.8594 -80.0781 100.977 -59.9121 100.977 -35.1562 C 100.977 -10.3516 80.8594 9.81445 56.0547 9.81445 Z M 70.459 -23.1445 C 55.6152 -23.1445 44.9707 -33.8379 44.9707 -48.7793 C 44.9707 -53.3691 45.6543 -56.2012 46.6309 -59.2285 C 46.6797 -59.375 46.7773 -59.6191 46.7773 -59.8145 C 46.7773 -60.498 46.2402 -60.9863 45.5566 -60.9863 C 45.4102 -60.9863 45.2148 -60.9375 45.0195 -60.8887 C 34.8633 -57.5195 28.418 -45.8008 28.418 -34.375 C 28.418 -18.9941 40.625 -6.78711 56.0547 -6.78711 C 67.4805 -6.78711 79.1992 -13.6719 82.3242 -23.0469 C 82.373 -23.2422 82.373 -23.3887 82.373 -23.584 C 82.373 -24.2676 81.8848 -24.8535 81.2012 -24.8535 C 81.0547 -24.8535 80.957 -24.8535 80.8594 -24.7559 C 78.7598 -23.7793 74.6094 -23.1445 70.459 -23.1445 Z"/>
  </g>
  <g id="Black-S" transform="matrix(1 0 0 1 2884.57 696)">
   <path d="M 48.8281 6.78711 C 71.9727 6.78711 90.8203 -12.0605 90.8203 -35.2051 C 90.8203 -58.3496 71.9727 -77.1973 48.8281 -77.1973 C 25.6836 -77.1973 6.83594 -58.3496 6.83594 -35.2051 C 6.83594 -12.0605 25.6836 6.78711 48.8281 6.78711 Z M 48.8281 -7.37305 C 33.4473 -7.37305 20.9961 -19.8242 20.9961 -35.2051 C 20.9961 -50.5859 33.4473 -63.0371 48.8281 -63.0371 C 64.209 -63.0371 76.6602 -50.5859 76.6602 -35.2051 C 76.6602 -19.8242 64.209 -7.37305 48.8281 -7.37305 Z M 57.0312 -29.4434 C 48.9258 -29.4434 43.8477 -34.2773 43.8477 -42.1387 C 43.8477 -44.3359 44.2383 -46.4844 44.9219 -47.7539 C 45.2637 -48.3887 45.5078 -49.0234 45.5078 -49.5605 C 45.5078 -50.4395 44.9219 -51.0742 43.9453 -51.0742 C 43.5059 -51.0742 42.9688 -50.9277 42.334 -50.6836 C 35.791 -48.1445 31.543 -41.6504 31.543 -34.6191 C 31.543 -24.6582 38.8672 -17.2852 48.8281 -17.2852 C 55.7129 -17.2852 61.7676 -21.3867 64.6973 -27.6367 C 65.0391 -28.3691 65.1855 -29.0039 65.1855 -29.541 C 65.1855 -30.3711 64.6973 -30.9082 63.8672 -30.9082 C 63.2812 -30.9082 62.5977 -30.7129 61.8164 -30.3223 C 60.791 -29.7852 58.8867 -29.4434 57.0312 -29.4434 Z"/>
  </g>
  <g id="Heavy-S" transform="matrix(1 0 0 1 2588.47 696)">
   <path d="M 48.2422 6.15234 C 70.9961 6.15234 89.5996 -12.4512 89.5996 -35.2051 C 89.5996 -57.959 70.9961 -76.6113 48.1934 -76.6113 C 25.4395 -76.6113 6.83594 -57.959 6.83594 -35.2051 C 6.83594 -12.4512 25.4395 6.15234 48.2422 6.15234 Z M 48.2422 -6.39648 C 32.2754 -6.39648 19.4336 -19.2871 19.4336 -35.2051 C 19.4336 -51.1719 32.2754 -64.0137 48.1934 -64.0137 C 64.1602 -64.0137 77.002 -51.1719 77.0508 -35.2051 C 77.0508 -19.2871 64.1602 -6.39648 48.2422 -6.39648 Z M 57.0312 -28.8574 C 48.1445 -28.8574 42.5293 -34.2285 42.5293 -42.9688 C 42.5293 -45.1172 43.0176 -47.6562 43.7012 -49.0234 C 43.9941 -49.6094 44.1895 -50.1953 44.1895 -50.6348 C 44.1895 -51.4648 43.6523 -52.0996 42.6758 -52.0996 C 42.2852 -52.0996 41.748 -52.002 41.1133 -51.7578 C 34.2773 -49.0234 29.7363 -42.0898 29.7363 -34.6191 C 29.7363 -23.9746 37.5977 -16.2598 48.1934 -16.2598 C 55.6641 -16.2598 62.1094 -20.752 64.9902 -27.1484 C 65.2832 -27.832 65.4297 -28.418 65.4297 -28.9062 C 65.4297 -29.7363 64.8926 -30.2734 64.1113 -30.2734 C 63.5742 -30.2734 62.9883 -30.127 62.3047 -29.7852 C 61.1328 -29.248 59.082 -28.8574 57.0312 -28.8574 Z"/>
  </g>
  <g id="Bold-S" transform="matrix(1 0 0 1 2292.44 696)">
   <path d="M 47.5586 5.46875 C 69.873 5.46875 88.2324 -12.8906 88.2324 -35.2051 C 88.2324 -57.5684 69.873 -75.9277 47.5098 -75.9277 C 25.1953 -75.9277 6.83594 -57.5684 6.83594 -35.2051 C 6.83594 -12.8906 25.1953 5.46875 47.5586 5.46875 Z M 47.5586 -5.32227 C 30.957 -5.32227 17.6758 -18.6523 17.6758 -35.2051 C 17.6758 -51.8066 30.957 -65.1367 47.5098 -65.1367 C 64.1113 -65.1367 77.4414 -51.8066 77.4414 -35.2051 C 77.4414 -18.6523 64.1113 -5.32227 47.5586 -5.32227 Z M 57.0801 -28.1738 C 47.2168 -28.1738 41.0645 -34.1309 41.0645 -43.8477 C 41.0645 -46.0449 41.6016 -48.9258 42.2852 -50.4395 C 42.5781 -51.0254 42.7246 -51.5137 42.7246 -51.8555 C 42.7246 -52.5879 42.1875 -53.2715 41.2598 -53.2715 C 40.918 -53.2715 40.3809 -53.1738 39.7461 -52.9297 C 32.5195 -50.0488 27.7344 -42.5781 27.7344 -34.5703 C 27.7344 -23.2422 36.2305 -15.1367 47.5098 -15.1367 C 55.6152 -15.1367 62.4512 -20.0195 65.332 -26.5625 C 65.625 -27.1973 65.7227 -27.832 65.7227 -28.1738 C 65.7227 -29.0039 65.0879 -29.541 64.3555 -29.541 C 63.916 -29.541 63.4766 -29.4434 62.8418 -29.1504 C 61.5234 -28.6621 59.2773 -28.1738 57.0801 -28.1738 Z"/>
  </g>
  <g id="Semibold-S" transform="matrix(1 0 0 1 1996.2 696)">
   <path d="M 47.0703 4.98047 C 69.0918 4.98047 87.3047 -13.1836 87.3047 -35.2539 C 87.3047 -57.2754 69.0918 -75.4883 47.0215 -75.4883 C 25 -75.4883 6.83594 -57.2754 6.83594 -35.2539 C 6.83594 -13.1836 25.0488 4.98047 47.0703 4.98047 Z M 47.0703 -4.58984 C 30.0781 -4.58984 16.4551 -18.2129 16.4551 -35.2539 C 16.4551 -52.2461 30.0293 -65.8691 47.0215 -65.8691 C 64.0625 -65.8691 77.6855 -52.2461 77.7344 -35.2539 C 77.7344 -18.2129 64.0625 -4.58984 47.0703 -4.58984 Z M 57.0801 -27.7344 C 46.6309 -27.7344 40.0879 -34.082 40.0879 -44.4824 C 40.0879 -46.6797 40.6738 -49.8047 41.3574 -51.3672 C 41.6016 -51.9531 41.6992 -52.3926 41.6992 -52.6855 C 41.6992 -53.3691 41.2109 -54.0527 40.2832 -54.0527 C 39.9902 -54.0527 39.4043 -54.0039 38.8184 -53.7598 C 31.3477 -50.7324 26.3672 -42.9199 26.3672 -34.5703 C 26.3672 -22.7051 35.2539 -14.3066 47.0215 -14.3066 C 55.5664 -14.3066 62.6953 -19.5312 65.5273 -26.1719 C 65.8203 -26.8066 65.8691 -27.3926 65.8691 -27.6855 C 65.8691 -28.5156 65.2344 -29.0527 64.5508 -29.0527 C 64.1602 -29.0527 63.7695 -28.9551 63.1836 -28.7598 C 61.7676 -28.2227 59.4238 -27.7344 57.0801 -27.7344 Z"/>
  </g>
  <g id="Medium-S" transform="matrix(1 0 0 1 1699.83 696)">
   <path d="M 46.7285 4.63867 C 68.5547 4.63867 86.6211 -13.4277 86.6211 -35.2539 C 86.6211 -57.0312 68.5059 -75.1465 46.6797 -75.1465 C 24.8535 -75.1465 6.83594 -57.0312 6.83594 -35.2539 C 6.83594 -13.4277 24.9023 4.63867 46.7285 4.63867 Z M 46.7285 -4.00391 C 29.3945 -4.00391 15.5273 -17.9199 15.5273 -35.2539 C 15.5273 -52.5879 29.3457 -66.4551 46.6797 -66.4551 C 64.0137 -66.4551 77.8809 -52.5879 77.9297 -35.2539 C 77.9785 -17.9199 64.0625 -4.00391 46.7285 -4.00391 Z M 57.1289 -27.3926 C 46.1426 -27.3926 39.3066 -34.0332 39.3066 -44.9707 C 39.3066 -47.1191 39.9414 -50.4883 40.625 -52.0996 C 40.8691 -52.6855 40.918 -53.0762 40.918 -53.3203 C 40.918 -53.9551 40.4297 -54.6875 39.5508 -54.6875 C 39.2578 -54.6875 38.7207 -54.5898 38.1348 -54.3945 C 30.4688 -51.2695 25.293 -43.1641 25.293 -34.5215 C 25.293 -22.3145 34.5215 -13.7207 46.6797 -13.7207 C 55.5176 -13.7207 62.8906 -19.1406 65.7227 -25.8789 C 65.9668 -26.4648 66.0156 -27.0508 66.0156 -27.2949 C 66.0156 -28.1738 65.3809 -28.7109 64.6973 -28.7109 C 64.3555 -28.7109 64.0137 -28.6133 63.4766 -28.418 C 61.9629 -27.9297 59.5215 -27.3926 57.1289 -27.3926 Z"/>
  </g>
  <g id="Regular-S" transform="matrix(1 0 0 1 1403.58 696)">
   <path d="M 46.2402 4.15039 C 67.7734 4.15039 85.6934 -13.7207 85.6934 -35.2539 C 85.6934 -56.7871 67.7246 -74.6582 46.1914 -74.6582 C 24.707 -74.6582 6.83594 -56.7871 6.83594 -35.2539 C 6.83594 -13.7207 24.7559 4.15039 46.2402 4.15039 Z M 46.2402 -3.27148 C 28.5156 -3.27148 14.3555 -17.4805 14.3555 -35.2539 C 14.3555 -53.0273 28.4668 -67.2363 46.1914 -67.2363 C 63.9648 -67.2363 78.1738 -53.0273 78.2227 -35.2539 C 78.2715 -17.4805 64.0137 -3.27148 46.2402 -3.27148 Z M 57.1289 -26.9531 C 45.5566 -26.9531 38.3301 -33.9844 38.3301 -45.5566 C 38.3301 -47.7539 38.9648 -51.3672 39.6484 -53.0762 C 39.8926 -53.6621 39.8926 -53.9551 39.8926 -54.1504 C 39.8926 -54.7363 39.4531 -55.4688 38.623 -55.4688 C 38.3301 -55.4688 37.7441 -55.4199 37.207 -55.1758 C 29.2969 -51.9531 23.9258 -43.5059 23.9258 -34.5215 C 23.9258 -21.8262 33.5449 -12.9395 46.1914 -12.9395 C 55.4688 -12.9395 63.1348 -18.6523 65.918 -25.4883 C 66.1621 -26.0742 66.2109 -26.6113 66.2109 -26.8066 C 66.2109 -27.6855 65.4785 -28.2227 64.8926 -28.2227 C 64.5996 -28.2227 64.3066 -28.1738 63.8184 -28.0273 C 62.207 -27.5391 59.668 -26.9531 57.1289 -26.9531 Z"/>
  </g>
  <g id="Light-S" transform="matrix(1 0 0 1 1107.6 696)">
   <path d="M 45.5078 3.4668 C 66.6992 3.4668 84.2285 -14.0625 84.2285 -35.2051 C 84.2285 -56.3965 66.6504 -73.9258 45.5078 -73.9258 C 24.3164 -73.9258 6.83594 -56.3965 6.83594 -35.2051 C 6.83594 -14.0625 24.3652 3.4668 45.5078 3.4668 Z M 45.5078 -2.24609 C 27.2461 -2.24609 12.5977 -16.9434 12.5977 -35.2051 C 12.5977 -53.5156 27.1973 -68.2129 45.5078 -68.2129 C 63.7695 -68.2129 78.4668 -53.5156 78.5156 -35.2051 C 78.5156 -16.9434 63.8184 -2.24609 45.5078 -2.24609 Z M 56.543 -26.5625 C 44.9219 -26.5625 37.3535 -34.0332 37.3535 -45.6543 C 37.3535 -48.291 37.9883 -51.4648 38.6719 -53.3691 C 38.8672 -53.8086 38.8672 -54.1016 38.8672 -54.248 C 38.8672 -54.834 38.4766 -55.4688 37.6953 -55.4688 C 37.4512 -55.4688 37.0117 -55.4199 36.6211 -55.2246 C 28.6621 -52.1973 23.3887 -43.5059 23.3887 -34.5215 C 23.3887 -22.0215 33.0078 -12.9395 45.5078 -12.9395 C 54.6387 -12.9395 62.793 -18.5547 65.4785 -25.5371 C 65.6738 -25.9766 65.6738 -26.416 65.6738 -26.6113 C 65.6738 -27.3438 65.0879 -27.8809 64.4531 -27.8809 C 64.2578 -27.8809 64.0137 -27.832 63.6719 -27.7344 C 62.0605 -27.0996 59.2773 -26.5625 56.543 -26.5625 Z"/>
  </g>
  <g id="Thin-S" transform="matrix(1 0 0 1 811.867 696)">
   <path d="M 44.5801 2.53906 C 65.2832 2.53906 82.2754 -14.4531 82.2754 -35.2051 C 82.2754 -55.9082 65.2344 -72.9004 44.5312 -72.9004 C 23.8281 -72.9004 6.83594 -55.9082 6.83594 -35.2051 C 6.83594 -14.4531 23.877 2.53906 44.5801 2.53906 Z M 44.5801 -0.878906 C 25.5859 -0.878906 10.2539 -16.2109 10.2539 -35.2051 C 10.2539 -54.1504 25.5859 -69.4824 44.5312 -69.4824 C 63.5254 -69.4824 78.8574 -54.1504 78.8574 -35.2051 C 78.8574 -16.2109 63.5254 -0.878906 44.5801 -0.878906 Z M 55.7129 -26.0742 C 44.1406 -26.0742 36.084 -34.082 36.084 -45.752 C 36.084 -48.9746 36.6211 -51.5625 37.4023 -53.7598 C 37.5 -54.0039 37.5488 -54.248 37.5488 -54.3945 C 37.5488 -54.9316 37.1094 -55.4199 36.5234 -55.4199 C 36.3281 -55.4199 36.084 -55.3711 35.791 -55.2734 C 27.8809 -52.4902 22.7051 -43.5059 22.7051 -34.5703 C 22.7051 -22.3145 32.2754 -12.9395 44.5312 -12.9395 C 53.5645 -12.9395 62.3535 -18.457 64.8926 -25.6348 C 64.9902 -25.8789 64.9902 -26.1719 64.9902 -26.3184 C 64.9902 -26.9531 64.502 -27.3926 63.9648 -27.3926 C 63.8184 -27.3926 63.6719 -27.3926 63.4766 -27.2949 C 61.8652 -26.6113 58.7891 -26.0742 55.7129 -26.0742 Z"/>
  </g>
  <g id="Ultralight-S" transform="matrix(1 0 0 1 515.644 696)">
   <path d="M 44.043 2.05078 C 64.502 2.05078 81.2988 -14.6973 81.2988 -35.1562 C 81.2988 -55.6152 64.502 -72.3633 44.043 -72.3633 C 23.584 -72.3633 6.83594 -55.6152 6.83594 -35.1562 C 6.83594 -14.6973 23.584 2.05078 44.043 2.05078 Z M 44.043 -0.146484 C 24.7559 -0.146484 9.08203 -15.8691 9.08203 -35.1562 C 9.08203 -54.4434 24.7559 -70.166 44.043 -70.166 C 63.3789 -70.166 79.0527 -54.4434 79.0527 -35.1562 C 79.0527 -15.8691 63.3789 -0.146484 44.043 -0.146484 Z M 55.3223 -25.8301 C 43.7012 -25.8301 35.4004 -34.1309 35.4004 -45.8496 C 35.4004 -49.3164 35.9375 -51.6602 36.7188 -53.9551 C 36.7676 -54.1016 36.8164 -54.3457 36.8164 -54.4922 C 36.8164 -55.0293 36.4258 -55.4199 35.8887 -55.4199 C 35.7422 -55.4199 35.5469 -55.3711 35.4004 -55.3223 C 27.4414 -52.6367 22.3633 -43.5059 22.3633 -34.5703 C 22.3633 -22.4609 31.9336 -12.9395 44.043 -12.9395 C 53.0273 -12.9395 62.1094 -18.3594 64.5508 -25.6836 C 64.6484 -25.8301 64.6484 -26.0254 64.6484 -26.1719 C 64.6484 -26.709 64.209 -27.1484 63.6719 -27.1484 C 63.5742 -27.1484 63.4766 -27.1484 63.3789 -27.0996 C 61.7676 -26.3184 58.4961 -25.8301 55.3223 -25.8301 Z"/>
  </g>
 </g>
</svg>
