<?xml version="1.0" encoding="UTF-8"?>
<!--Generator: Apple Native CoreSVG 123-->
<!DOCTYPE svg
PUBLIC "-//W3C//DTD SVG 1.1//EN"
       "http://www.w3.org/Graphics/SVG/1.1/DTD/svg11.dtd">
<svg version="1.1" xmlns="http://www.w3.org/2000/svg" xmlns:xlink="http://www.w3.org/1999/xlink" width="3300" height="2200">
 <!--glyph: "uni1001C1.medium", point size: 100.000000, font version: "Version 15.0d7e11", template writer version: "5"-->
 <g id="Notes">
  <rect height="2200" id="artboard" style="fill:white;opacity:1" width="3300" x="0" y="0"/>
  <line id="" style="fill:none;stroke:black;opacity:1;stroke-width:0.5;" x1="263" x2="3036" y1="292" y2="292"/>
  <text style="stroke:none;fill:black;font-family:-apple-system,&quot;SF Pro Display&quot;,&quot;SF Pro Text&quot;,Helvetica,sans-serif;font-weight:bold;" transform="matrix(1 0 0 1 263 322)">Weight/Scale Variations</text>
  <text style="stroke:none;fill:black;font-family:-apple-system,&quot;SF Pro Display&quot;,&quot;SF Pro Text&quot;,Helvetica,sans-serif;text-anchor:middle;" transform="matrix(1 0 0 1 559.711 322)">Ultralight</text>
  <text style="stroke:none;fill:black;font-family:-apple-system,&quot;SF Pro Display&quot;,&quot;SF Pro Text&quot;,Helvetica,sans-serif;text-anchor:middle;" transform="matrix(1 0 0 1 856.422 322)">Thin</text>
  <text style="stroke:none;fill:black;font-family:-apple-system,&quot;SF Pro Display&quot;,&quot;SF Pro Text&quot;,Helvetica,sans-serif;text-anchor:middle;" transform="matrix(1 0 0 1 1153.13 322)">Light</text>
  <text style="stroke:none;fill:black;font-family:-apple-system,&quot;SF Pro Display&quot;,&quot;SF Pro Text&quot;,Helvetica,sans-serif;text-anchor:middle;" transform="matrix(1 0 0 1 1449.84 322)">Regular</text>
  <text style="stroke:none;fill:black;font-family:-apple-system,&quot;SF Pro Display&quot;,&quot;SF Pro Text&quot;,Helvetica,sans-serif;text-anchor:middle;" transform="matrix(1 0 0 1 1746.56 322)">Medium</text>
  <text style="stroke:none;fill:black;font-family:-apple-system,&quot;SF Pro Display&quot;,&quot;SF Pro Text&quot;,Helvetica,sans-serif;text-anchor:middle;" transform="matrix(1 0 0 1 2043.27 322)">Semibold</text>
  <text style="stroke:none;fill:black;font-family:-apple-system,&quot;SF Pro Display&quot;,&quot;SF Pro Text&quot;,Helvetica,sans-serif;text-anchor:middle;" transform="matrix(1 0 0 1 2339.98 322)">Bold</text>
  <text style="stroke:none;fill:black;font-family:-apple-system,&quot;SF Pro Display&quot;,&quot;SF Pro Text&quot;,Helvetica,sans-serif;text-anchor:middle;" transform="matrix(1 0 0 1 2636.69 322)">Heavy</text>
  <text style="stroke:none;fill:black;font-family:-apple-system,&quot;SF Pro Display&quot;,&quot;SF Pro Text&quot;,Helvetica,sans-serif;text-anchor:middle;" transform="matrix(1 0 0 1 2933.4 322)">Black</text>
  <line id="" style="fill:none;stroke:black;opacity:1;stroke-width:0.5;" x1="263" x2="3036" y1="1903" y2="1903"/>
  <g id="" transform="matrix(1 0 0 1 263 1933)">
   <path d="M 9.24805 0.830078 C 13.5547 0.830078 17.1387 -2.74414 17.1387 -7.05078 C 17.1387 -11.3574 13.5449 -14.9316 9.23828 -14.9316 C 4.94141 -14.9316 1.36719 -11.3574 1.36719 -7.05078 C 1.36719 -2.74414 4.95117 0.830078 9.24805 0.830078 Z M 9.24805 -0.654297 C 5.70312 -0.654297 2.87109 -3.49609 2.87109 -7.05078 C 2.87109 -10.6055 5.69336 -13.4473 9.23828 -13.4473 C 12.793 -13.4473 15.6348 -10.6055 15.6445 -7.05078 C 15.6543 -3.49609 12.8027 -0.654297 9.24805 -0.654297 Z M 9.22852 -3.42773 C 9.69727 -3.42773 9.9707 -3.74023 9.9707 -4.25781 L 9.9707 -6.31836 L 12.1973 -6.31836 C 12.6953 -6.31836 13.0371 -6.57227 13.0371 -7.04102 C 13.0371 -7.51953 12.7148 -7.7832 12.1973 -7.7832 L 9.9707 -7.7832 L 9.9707 -10.0098 C 9.9707 -10.5273 9.69727 -10.8496 9.22852 -10.8496 C 8.75977 -10.8496 8.50586 -10.5078 8.50586 -10.0098 L 8.50586 -7.7832 L 6.29883 -7.7832 C 5.78125 -7.7832 5.44922 -7.51953 5.44922 -7.04102 C 5.44922 -6.57227 5.80078 -6.31836 6.29883 -6.31836 L 8.50586 -6.31836 L 8.50586 -4.25781 C 8.50586 -3.75977 8.75977 -3.42773 9.22852 -3.42773 Z"/>
  </g>
  <g id="" transform="matrix(1 0 0 1 281.506 1933)">
   <path d="M 11.709 2.91016 C 17.1582 2.91016 21.6699 -1.60156 21.6699 -7.05078 C 21.6699 -12.4902 17.1484 -17.0117 11.6992 -17.0117 C 6.25977 -17.0117 1.74805 -12.4902 1.74805 -7.05078 C 1.74805 -1.60156 6.26953 2.91016 11.709 2.91016 Z M 11.709 1.25 C 7.09961 1.25 3.41797 -2.44141 3.41797 -7.05078 C 3.41797 -11.6504 7.08984 -15.3516 11.6992 -15.3516 C 16.3086 -15.3516 20 -11.6504 20.0098 -7.05078 C 20.0195 -2.44141 16.3184 1.25 11.709 1.25 Z M 11.6895 -2.41211 C 12.207 -2.41211 12.5195 -2.77344 12.5195 -3.33984 L 12.5195 -6.23047 L 15.5762 -6.23047 C 16.123 -6.23047 16.5039 -6.51367 16.5039 -7.03125 C 16.5039 -7.55859 16.1426 -7.86133 15.5762 -7.86133 L 12.5195 -7.86133 L 12.5195 -10.9277 C 12.5195 -11.5039 12.207 -11.8555 11.6895 -11.8555 C 11.1719 -11.8555 10.8789 -11.4844 10.8789 -10.9277 L 10.8789 -7.86133 L 7.83203 -7.86133 C 7.26562 -7.86133 6.89453 -7.55859 6.89453 -7.03125 C 6.89453 -6.51367 7.28516 -6.23047 7.83203 -6.23047 L 10.8789 -6.23047 L 10.8789 -3.33984 C 10.8789 -2.79297 11.1719 -2.41211 11.6895 -2.41211 Z"/>
  </g>
  <g id="" transform="matrix(1 0 0 1 304.924 1933)">
   <path d="M 14.9707 5.67383 C 21.9336 5.67383 27.6953 -0.078125 27.6953 -7.04102 C 27.6953 -14.0039 21.9238 -19.7559 14.9609 -19.7559 C 8.00781 -19.7559 2.25586 -14.0039 2.25586 -7.04102 C 2.25586 -0.078125 8.01758 5.67383 14.9707 5.67383 Z M 14.9707 3.85742 C 8.93555 3.85742 4.08203 -1.00586 4.08203 -7.04102 C 4.08203 -13.0762 8.92578 -17.9395 14.9609 -17.9395 C 21.0059 -17.9395 25.8594 -13.0762 25.8691 -7.04102 C 25.8789 -1.00586 21.0156 3.85742 14.9707 3.85742 Z M 14.9512 -1.06445 C 15.5176 -1.06445 15.8691 -1.45508 15.8691 -2.06055 L 15.8691 -6.13281 L 20.1074 -6.13281 C 20.6934 -6.13281 21.1133 -6.46484 21.1133 -7.02148 C 21.1133 -7.59766 20.7227 -7.93945 20.1074 -7.93945 L 15.8691 -7.93945 L 15.8691 -12.1875 C 15.8691 -12.8027 15.5176 -13.1934 14.9512 -13.1934 C 14.3848 -13.1934 14.0625 -12.7832 14.0625 -12.1875 L 14.0625 -7.93945 L 9.83398 -7.93945 C 9.21875 -7.93945 8.80859 -7.59766 8.80859 -7.02148 C 8.80859 -6.46484 9.23828 -6.13281 9.83398 -6.13281 L 14.0625 -6.13281 L 14.0625 -2.06055 C 14.0625 -1.47461 14.3848 -1.06445 14.9512 -1.06445 Z"/>
  </g>
  <text style="stroke:none;fill:black;font-family:-apple-system,&quot;SF Pro Display&quot;,&quot;SF Pro Text&quot;,Helvetica,sans-serif;font-weight:bold;" transform="matrix(1 0 0 1 263 1953)">Design Variations</text>
  <text style="stroke:none;fill:black;font-family:-apple-system,&quot;SF Pro Display&quot;,&quot;SF Pro Text&quot;,Helvetica,sans-serif;" transform="matrix(1 0 0 1 263 1971)">Symbols are supported in up to nine weights and three scales.</text>
  <text style="stroke:none;fill:black;font-family:-apple-system,&quot;SF Pro Display&quot;,&quot;SF Pro Text&quot;,Helvetica,sans-serif;" transform="matrix(1 0 0 1 263 1989)">For optimal layout with text and other symbols, vertically align</text>
  <text style="stroke:none;fill:black;font-family:-apple-system,&quot;SF Pro Display&quot;,&quot;SF Pro Text&quot;,Helvetica,sans-serif;" transform="matrix(1 0 0 1 263 2007)">symbols with the adjacent text.</text>
  <rect height="14" id="" style="fill:#00AEEF;stroke:none;opacity:0.4;" width="3" x="776" y="1919"/>
  <g id="" transform="matrix(1 0 0 1 779 1933)">
   <path d="M 10.5273 0 L 12.373 0 L 7.17773 -14.0918 L 5.43945 -14.0918 L 0.244141 0 L 2.08984 0 L 3.50586 -4.0332 L 9.11133 -4.0332 Z M 6.2793 -11.9531 L 6.33789 -11.9531 L 8.59375 -5.52734 L 4.02344 -5.52734 Z"/>
  </g>
  <rect height="14" id="" style="fill:#00AEEF;stroke:none;opacity:0.4;" width="3" x="791.617" y="1919"/>
  <text style="stroke:none;fill:black;font-family:-apple-system,&quot;SF Pro Display&quot;,&quot;SF Pro Text&quot;,Helvetica,sans-serif;font-weight:bold;" transform="matrix(1 0 0 1 776 1953)">Margins</text>
  <text style="stroke:none;fill:black;font-family:-apple-system,&quot;SF Pro Display&quot;,&quot;SF Pro Text&quot;,Helvetica,sans-serif;" transform="matrix(1 0 0 1 776 1971)">Leading and trailing margins on the left and right side of each symbol</text>
  <text style="stroke:none;fill:black;font-family:-apple-system,&quot;SF Pro Display&quot;,&quot;SF Pro Text&quot;,Helvetica,sans-serif;" transform="matrix(1 0 0 1 776 1989)">can be adjusted by modifying the width of the blue rectangles.</text>
  <text style="stroke:none;fill:black;font-family:-apple-system,&quot;SF Pro Display&quot;,&quot;SF Pro Text&quot;,Helvetica,sans-serif;" transform="matrix(1 0 0 1 776 2007)">Modifications are automatically applied proportionally to all</text>
  <text style="stroke:none;fill:black;font-family:-apple-system,&quot;SF Pro Display&quot;,&quot;SF Pro Text&quot;,Helvetica,sans-serif;" transform="matrix(1 0 0 1 776 2025)">scales and weights.</text>
  <g id="" transform="matrix(1 0 0 1 1289 1933)">
   <path d="M 2.83203 3.11523 L 4.375 4.6582 C 5.22461 5.48828 6.19141 5.41992 7.06055 4.46289 L 17.2754 -6.66016 C 17.7051 -6.36719 18.0957 -6.37695 18.5645 -6.47461 L 19.6094 -6.68945 L 20.3027 -5.99609 L 20.2539 -5.47852 C 20.1855 -4.95117 20.3516 -4.53125 20.8496 -4.0332 L 21.6602 -3.22266 C 22.168 -2.71484 22.8223 -2.68555 23.3008 -3.16406 L 26.5527 -6.41602 C 27.0312 -6.89453 27.0117 -7.54883 26.5039 -8.05664 L 25.6836 -8.87695 C 25.1855 -9.375 24.7754 -9.55078 24.2383 -9.47266 L 23.7109 -9.41406 L 23.0566 -10.0781 L 23.3398 -11.2207 C 23.4863 -11.7871 23.3398 -12.2559 22.7148 -12.8613 L 20.3027 -15.2539 C 16.7578 -18.7793 12.2266 -18.6719 9.11133 -15.5371 C 8.69141 -15.1074 8.64258 -14.5215 8.91602 -14.0918 C 9.15039 -13.7207 9.62891 -13.4961 10.2734 -13.6621 C 11.7871 -14.043 13.3008 -13.9258 14.7852 -12.9199 L 14.1602 -11.3379 C 13.9258 -10.752 13.9453 -10.2734 14.1797 -9.83398 L 3.01758 0.439453 C 2.08008 1.30859 1.97266 2.25586 2.83203 3.11523 Z M 10.6738 -15.1465 C 13.3398 -17.1387 16.6504 -16.8262 19.0527 -14.4141 L 21.6797 -11.8066 C 21.9141 -11.5723 21.9434 -11.3867 21.8848 -11.0938 L 21.5039 -9.53125 L 23.0762 -7.95898 L 24.043 -8.04688 C 24.3262 -8.07617 24.4141 -8.05664 24.6387 -7.83203 L 25.2637 -7.20703 L 22.5098 -4.46289 L 21.8848 -5.07812 C 21.6602 -5.30273 21.6406 -5.40039 21.6699 -5.68359 L 21.7578 -6.64062 L 20.1953 -8.20312 L 18.5742 -7.89062 C 18.291 -7.83203 18.1445 -7.83203 17.9102 -8.07617 L 15.7324 -10.2539 C 15.5078 -10.4883 15.4785 -10.625 15.6055 -10.9473 L 16.5527 -13.2227 C 14.9512 -14.7559 12.8418 -15.6055 10.8008 -14.9512 C 10.7129 -14.9219 10.6445 -14.9414 10.6152 -14.9805 C 10.5859 -15.0293 10.5859 -15.0781 10.6738 -15.1465 Z M 4.10156 2.41211 C 3.61328 1.91406 3.78906 1.61133 4.12109 1.30859 L 15.0781 -8.80859 L 16.3086 -7.57812 L 6.15234 3.34961 C 5.84961 3.68164 5.46875 3.7793 5.06836 3.37891 Z"/>
  </g>
  <text style="stroke:none;fill:black;font-family:-apple-system,&quot;SF Pro Display&quot;,&quot;SF Pro Text&quot;,Helvetica,sans-serif;font-weight:bold;" transform="matrix(1 0 0 1 1289 1953)">Exporting</text>
  <text style="stroke:none;fill:black;font-family:-apple-system,&quot;SF Pro Display&quot;,&quot;SF Pro Text&quot;,Helvetica,sans-serif;" transform="matrix(1 0 0 1 1289 1971)">Symbols should be outlined when exporting to ensure the</text>
  <text style="stroke:none;fill:black;font-family:-apple-system,&quot;SF Pro Display&quot;,&quot;SF Pro Text&quot;,Helvetica,sans-serif;" transform="matrix(1 0 0 1 1289 1989)">design is preserved when submitting to Xcode.</text>
  <text id="template-version" style="stroke:none;fill:black;font-family:-apple-system,&quot;SF Pro Display&quot;,&quot;SF Pro Text&quot;,Helvetica,sans-serif;text-anchor:end;" transform="matrix(1 0 0 1 3036 1933)">Template v.1.0</text>
  <text style="stroke:none;fill:black;font-family:-apple-system,&quot;SF Pro Display&quot;,&quot;SF Pro Text&quot;,Helvetica,sans-serif;text-anchor:end;" transform="matrix(1 0 0 1 3036 1951)">Generated from moon.stars.fill</text>
  <text style="stroke:none;fill:black;font-family:-apple-system,&quot;SF Pro Display&quot;,&quot;SF Pro Text&quot;,Helvetica,sans-serif;text-anchor:end;" transform="matrix(1 0 0 1 3036 1969)">Typeset at 100 points</text>
  <text style="stroke:none;fill:black;font-family:-apple-system,&quot;SF Pro Display&quot;,&quot;SF Pro Text&quot;,Helvetica,sans-serif;" transform="matrix(1 0 0 1 263 726)">Small</text>
  <text style="stroke:none;fill:black;font-family:-apple-system,&quot;SF Pro Display&quot;,&quot;SF Pro Text&quot;,Helvetica,sans-serif;" transform="matrix(1 0 0 1 263 1156)">Medium</text>
  <text style="stroke:none;fill:black;font-family:-apple-system,&quot;SF Pro Display&quot;,&quot;SF Pro Text&quot;,Helvetica,sans-serif;" transform="matrix(1 0 0 1 263 1586)">Large</text>
 </g>
 <g id="Guides">
  <g id="H-reference" style="fill:#27AAE1;stroke:none;" transform="matrix(1 0 0 1 339 696)">
   <path d="M 54.9316 0 L 57.666 0 L 30.5664 -70.459 L 28.0762 -70.459 L 0.976562 0 L 3.66211 0 L 12.9395 -24.4629 L 45.7031 -24.4629 Z M 29.1992 -67.0898 L 29.4434 -67.0898 L 44.8242 -26.709 L 13.8184 -26.709 Z"/>
  </g>
  <line id="Baseline-S" style="fill:none;stroke:#27AAE1;opacity:1;stroke-width:0.577;" x1="263" x2="3036" y1="696" y2="696"/>
  <line id="Capline-S" style="fill:none;stroke:#27AAE1;opacity:1;stroke-width:0.577;" x1="263" x2="3036" y1="625.541" y2="625.541"/>
  <g id="H-reference" style="fill:#27AAE1;stroke:none;" transform="matrix(1 0 0 1 339 1126)">
   <path d="M 54.9316 0 L 57.666 0 L 30.5664 -70.459 L 28.0762 -70.459 L 0.976562 0 L 3.66211 0 L 12.9395 -24.4629 L 45.7031 -24.4629 Z M 29.1992 -67.0898 L 29.4434 -67.0898 L 44.8242 -26.709 L 13.8184 -26.709 Z"/>
  </g>
  <line id="Baseline-M" style="fill:none;stroke:#27AAE1;opacity:1;stroke-width:0.577;" x1="263" x2="3036" y1="1126" y2="1126"/>
  <line id="Capline-M" style="fill:none;stroke:#27AAE1;opacity:1;stroke-width:0.577;" x1="263" x2="3036" y1="1055.54" y2="1055.54"/>
  <g id="H-reference" style="fill:#27AAE1;stroke:none;" transform="matrix(1 0 0 1 339 1556)">
   <path d="M 54.9316 0 L 57.666 0 L 30.5664 -70.459 L 28.0762 -70.459 L 0.976562 0 L 3.66211 0 L 12.9395 -24.4629 L 45.7031 -24.4629 Z M 29.1992 -67.0898 L 29.4434 -67.0898 L 44.8242 -26.709 L 13.8184 -26.709 Z"/>
  </g>
  <line id="Baseline-L" style="fill:none;stroke:#27AAE1;opacity:1;stroke-width:0.577;" x1="263" x2="3036" y1="1556" y2="1556"/>
  <line id="Capline-L" style="fill:none;stroke:#27AAE1;opacity:1;stroke-width:0.577;" x1="263" x2="3036" y1="1485.54" y2="1485.54"/>
  <rect height="119.336" id="left-margin" style="fill:#00AEEF;stroke:none;opacity:0.4;" width="8.74023" x="1392.23" y="1030.79"/>
  <rect height="119.336" id="right-margin" style="fill:#00AEEF;stroke:none;opacity:0.4;" width="8.74023" x="1498.72" y="1030.79"/>
 </g>
 <g id="Symbols">
  <g id="Black-L" transform="matrix(1 0 0 1 2851.73 1556)">
   <path d="M 95.459 -89.5996 C 96.582 -89.5996 97.3145 -90.4297 97.5098 -91.5039 C 99.0723 -101.709 99.0723 -101.709 109.521 -103.613 C 110.791 -103.809 111.523 -104.541 111.523 -105.664 C 111.523 -106.787 110.791 -107.52 109.717 -107.715 C 98.9258 -109.863 98.9258 -109.863 97.5098 -119.775 C 97.3145 -120.898 96.582 -121.729 95.459 -121.729 C 94.3359 -121.729 93.5547 -120.898 93.4082 -119.824 C 91.8457 -109.424 91.8945 -109.375 81.25 -107.715 C 80.127 -107.568 79.3457 -106.787 79.3457 -105.664 C 79.3457 -104.541 80.0781 -103.809 81.1523 -103.613 C 91.8945 -101.416 91.748 -101.465 93.4082 -91.4551 C 93.5547 -90.4297 94.3359 -89.5996 95.459 -89.5996 Z M 126.123 -43.2617 C 127.881 -43.2617 129.199 -44.4824 129.443 -46.3379 C 131.348 -62.6465 131.934 -63.2812 148.779 -65.7715 C 150.83 -66.0645 152.051 -67.2852 152.051 -69.043 C 152.051 -70.8008 150.83 -72.0215 149.121 -72.3633 C 131.934 -75.9277 131.348 -75.6348 129.443 -91.7969 C 129.199 -93.6523 127.881 -94.873 126.123 -94.873 C 124.365 -94.873 123.047 -93.6523 122.803 -91.8457 C 120.752 -75.0977 120.264 -74.6094 103.174 -72.3633 C 101.465 -72.168 100.195 -70.8008 100.195 -69.043 C 100.195 -67.334 101.416 -66.1133 103.125 -65.7715 C 120.41 -62.1582 120.703 -62.4023 122.803 -46.1914 C 123.047 -44.4824 124.414 -43.2617 126.123 -43.2617 Z M 73.6328 28.7109 C 99.2188 28.7109 121.289 13.5742 130.762 -9.08203 C 132.568 -13.3789 132.422 -16.8457 130.322 -18.75 C 128.32 -20.5566 125.049 -20.752 121.68 -19.1895 C 116.357 -16.7969 108.984 -14.9902 101.611 -14.9902 C 74.3652 -14.9902 55.6641 -33.0566 55.6641 -59.3262 C 55.6641 -67.334 57.6172 -75.9766 60.3027 -81.8359 C 62.1582 -85.8398 62.0117 -88.8672 60.2539 -90.8691 C 58.4473 -92.9688 54.9805 -93.2129 50.7324 -91.5039 C 27.3926 -82.4219 11.2793 -59.082 11.2793 -33.3984 C 11.2793 2.44141 37.6465 28.7109 73.6328 28.7109 Z"/>
  </g>
  <g id="Heavy-L" transform="matrix(1 0 0 1 2556.98 1556)">
   <path d="M 92.2363 -87.6465 C 93.2617 -87.6465 93.9453 -88.3301 94.0918 -89.3066 C 95.7031 -99.6094 95.7031 -99.707 106.348 -101.611 C 107.471 -101.807 108.105 -102.441 108.105 -103.467 C 108.105 -104.492 107.471 -105.127 106.494 -105.322 C 95.6055 -107.471 95.6055 -107.52 94.0918 -117.578 C 93.9453 -118.604 93.2617 -119.287 92.2363 -119.287 C 91.2598 -119.287 90.5762 -118.604 90.4297 -117.627 C 88.7695 -107.227 88.8184 -107.08 78.0762 -105.322 C 77.0508 -105.176 76.3672 -104.492 76.3672 -103.467 C 76.3672 -102.441 77.002 -101.807 78.0273 -101.611 C 88.8184 -99.4629 88.7207 -99.4141 90.4297 -89.2578 C 90.5762 -88.3301 91.2598 -87.6465 92.2363 -87.6465 Z M 122.803 -42.334 C 124.365 -42.334 125.537 -43.457 125.781 -45.1172 C 127.734 -61.5723 128.32 -62.1582 145.215 -64.6973 C 147.07 -64.9414 148.145 -66.0156 148.145 -67.627 C 148.145 -69.1895 147.07 -70.3125 145.557 -70.6055 C 128.369 -74.1211 127.734 -73.8281 125.781 -90.1367 C 125.537 -91.7969 124.365 -92.9199 122.803 -92.9199 C 121.191 -92.9199 120.02 -91.7969 119.824 -90.2344 C 117.725 -73.3887 117.236 -72.9492 100.049 -70.6055 C 98.5352 -70.4102 97.4121 -69.1895 97.4121 -67.627 C 97.4121 -66.0645 98.4863 -64.9902 100.049 -64.6973 C 117.334 -61.1816 117.725 -61.377 119.824 -44.9707 C 120.02 -43.457 121.24 -42.334 122.803 -42.334 Z M 71.582 26.416 C 96.4355 26.416 117.578 12.1582 126.855 -9.61914 C 128.418 -13.3789 128.32 -16.4551 126.465 -18.1641 C 124.707 -19.7754 121.826 -19.9707 118.848 -18.6035 C 113.574 -16.3086 106.543 -14.6484 99.2188 -14.6484 C 71.582 -14.6484 52.9785 -32.7148 52.9785 -59.4727 C 52.9785 -67.4316 54.834 -75.8301 57.373 -81.2988 C 59.0332 -84.8145 58.8867 -87.5488 57.3242 -89.3066 C 55.7129 -91.2109 52.6367 -91.4062 48.877 -89.8926 C 26.6113 -81.1035 11.2793 -58.5449 11.2793 -33.4961 C 11.2793 0.976562 36.5723 26.416 71.582 26.416 Z"/>
  </g>
  <g id="Bold-L" transform="matrix(1 0 0 1 2262.41 1556)">
   <path d="M 88.6719 -85.4004 C 89.5508 -85.4004 90.0879 -85.9863 90.2344 -86.8652 C 91.9434 -97.2656 91.9922 -97.4609 102.734 -99.4141 C 103.711 -99.5605 104.297 -100.098 104.297 -101.025 C 104.297 -101.904 103.711 -102.441 102.832 -102.637 C 91.9434 -104.834 91.8945 -104.932 90.2344 -115.137 C 90.0879 -116.016 89.5508 -116.602 88.6719 -116.602 C 87.793 -116.602 87.207 -116.016 87.0605 -115.186 C 85.3516 -104.736 85.4004 -104.541 74.5117 -102.637 C 73.6328 -102.49 73.0469 -101.904 73.0469 -101.025 C 73.0469 -100.098 73.6328 -99.5605 74.4629 -99.4141 C 85.4492 -97.3145 85.3027 -97.1191 87.0605 -86.8164 C 87.207 -85.9863 87.793 -85.4004 88.6719 -85.4004 Z M 119.092 -41.3574 C 120.459 -41.3574 121.484 -42.334 121.631 -43.7988 C 123.73 -60.3516 124.316 -60.8398 141.26 -63.4766 C 142.871 -63.7207 143.848 -64.5996 143.848 -66.0645 C 143.848 -67.4316 142.871 -68.3594 141.553 -68.6035 C 124.365 -72.0703 123.73 -71.7773 121.631 -88.3301 C 121.484 -89.7949 120.459 -90.7715 119.092 -90.7715 C 117.676 -90.7715 116.65 -89.7949 116.504 -88.3789 C 114.307 -71.4844 113.867 -71.0938 96.582 -68.6035 C 95.2637 -68.457 94.2871 -67.4316 94.2871 -66.0645 C 94.2871 -64.6973 95.2637 -63.7207 96.582 -63.4766 C 113.965 -60.0586 114.355 -60.2051 116.504 -43.6523 C 116.65 -42.334 117.725 -41.3574 119.092 -41.3574 Z M 69.2383 23.7793 C 93.3105 23.7793 113.379 10.5469 122.51 -10.2539 C 123.828 -13.4277 123.682 -16.0645 122.168 -17.5293 C 120.703 -18.8965 118.262 -19.043 115.674 -17.9199 C 110.449 -15.7227 103.809 -14.3066 96.582 -14.3066 C 68.457 -14.3066 50 -32.3242 50 -59.668 C 50 -67.5781 51.709 -75.5859 54.1016 -80.6641 C 55.5176 -83.6426 55.4199 -86.084 54.1016 -87.5977 C 52.6855 -89.209 50.0488 -89.4043 46.7285 -88.0859 C 25.7324 -79.541 11.2793 -57.959 11.2793 -33.6914 C 11.2793 -0.683594 35.4004 23.7793 69.2383 23.7793 Z"/>
  </g>
  <g id="Semibold-L" transform="matrix(1 0 0 1 1967.19 1556)">
   <path d="M 86.1816 -83.8867 C 86.9629 -83.8867 87.5 -84.375 87.5977 -85.1562 C 89.3555 -95.6055 89.4043 -95.8984 100.293 -97.8516 C 101.123 -98.0469 101.66 -98.4863 101.66 -99.3164 C 101.66 -100.146 101.123 -100.586 100.342 -100.732 C 89.3555 -102.979 89.3555 -103.125 87.5977 -113.428 C 87.5 -114.258 86.9629 -114.746 86.1816 -114.746 C 85.4004 -114.746 84.9121 -114.258 84.7656 -113.477 C 82.959 -103.027 83.0566 -102.783 72.0703 -100.732 C 71.2891 -100.635 70.752 -100.146 70.752 -99.3164 C 70.752 -98.4863 71.2402 -98.0469 72.0703 -97.8516 C 83.1055 -95.8008 82.959 -95.5566 84.7656 -85.1562 C 84.9121 -84.375 85.4004 -83.8867 86.1816 -83.8867 Z M 116.504 -40.6738 C 117.725 -40.6738 118.652 -41.5039 118.799 -42.8223 C 120.947 -59.5215 121.533 -59.9609 138.525 -62.6465 C 139.99 -62.8418 140.869 -63.623 140.869 -64.9414 C 140.869 -66.2109 139.99 -67.041 138.818 -67.2363 C 121.582 -70.6543 120.947 -70.4102 118.799 -87.0605 C 118.652 -88.3789 117.725 -89.2578 116.504 -89.2578 C 115.234 -89.2578 114.355 -88.3789 114.209 -87.1094 C 111.963 -70.166 111.572 -69.7754 94.2383 -67.2363 C 93.0176 -67.0898 92.1387 -66.2109 92.1387 -64.9414 C 92.1387 -63.7207 93.0176 -62.8906 94.1895 -62.6465 C 111.621 -59.2773 112.061 -59.375 114.209 -42.7246 C 114.355 -41.5039 115.283 -40.6738 116.504 -40.6738 Z M 67.627 21.9727 C 91.2109 21.9727 110.498 9.47266 119.482 -10.6934 C 120.654 -13.4766 120.557 -15.8203 119.189 -17.041 C 117.92 -18.2617 115.771 -18.4082 113.477 -17.4805 C 108.301 -15.3809 101.904 -14.0137 94.7754 -14.0137 C 66.3574 -14.0137 47.9492 -32.0312 47.9492 -59.8145 C 47.9492 -67.6758 49.5605 -75.4883 51.8555 -80.2246 C 53.125 -82.8613 53.0273 -85.0586 51.8555 -86.377 C 50.5859 -87.8418 48.1934 -88.0371 45.2637 -86.8652 C 25.0977 -78.5156 11.2793 -57.5195 11.2793 -33.7891 C 11.2793 -1.80664 34.5703 21.9727 67.627 21.9727 Z"/>
  </g>
  <g id="Medium-L" transform="matrix(1 0 0 1 1671.63 1556)">
   <path d="M 84.3262 -82.7148 C 85.0586 -82.7148 85.498 -83.1543 85.5957 -83.8867 C 87.4023 -94.3848 87.4512 -94.6777 98.4375 -96.7285 C 99.1699 -96.875 99.6582 -97.2656 99.6582 -98.0469 C 99.6582 -98.7793 99.1699 -99.2188 98.4375 -99.3652 C 87.4512 -101.562 87.4023 -101.807 85.5957 -112.158 C 85.498 -112.891 85.0586 -113.33 84.3262 -113.33 C 83.5938 -113.33 83.1543 -112.891 83.0566 -112.207 C 81.2012 -101.709 81.25 -101.465 70.2148 -99.3652 C 69.4824 -99.2188 68.9941 -98.7793 68.9941 -98.0469 C 68.9941 -97.2656 69.4824 -96.875 70.2148 -96.7285 C 81.2988 -94.6289 81.2012 -94.3359 83.0566 -83.8867 C 83.1543 -83.1543 83.5938 -82.7148 84.3262 -82.7148 Z M 114.551 -40.1367 C 115.674 -40.1367 116.504 -40.918 116.65 -42.1387 C 118.848 -58.8867 119.385 -59.2773 136.475 -62.0117 C 137.793 -62.207 138.574 -62.8906 138.574 -64.1113 C 138.574 -65.2832 137.793 -66.0156 136.719 -66.2109 C 119.482 -69.5801 118.848 -69.3359 116.65 -86.084 C 116.504 -87.3047 115.674 -88.0859 114.551 -88.0859 C 113.428 -88.0859 112.598 -87.3047 112.451 -86.1328 C 110.156 -69.1406 109.814 -68.7988 92.3828 -66.2109 C 91.3086 -66.0645 90.5273 -65.2832 90.5273 -64.1113 C 90.5273 -62.9883 91.3086 -62.207 92.3828 -62.0117 C 109.863 -58.6914 110.303 -58.7891 112.451 -42.041 C 112.598 -40.918 113.428 -40.1367 114.551 -40.1367 Z M 66.4551 20.6055 C 89.5508 20.6055 108.301 8.64258 117.188 -10.9863 C 118.262 -13.4766 118.115 -15.5762 116.943 -16.6992 C 115.82 -17.8223 113.916 -17.9688 111.816 -17.0898 C 106.641 -15.0879 100.488 -13.8184 93.3594 -13.8184 C 64.6973 -13.8184 46.3867 -31.8359 46.3867 -59.9121 C 46.3867 -67.7246 47.9492 -75.3906 50.1465 -79.8828 C 51.2695 -82.2754 51.2207 -84.2773 50.1465 -85.498 C 48.9746 -86.8164 46.8262 -87.0117 44.1406 -85.8887 C 24.6094 -77.7344 11.2793 -57.2266 11.2793 -33.8379 C 11.2793 -2.68555 33.9355 20.6055 66.4551 20.6055 Z"/>
  </g>
  <g id="Regular-L" transform="matrix(1 0 0 1 1376.38 1556)">
   <path d="M 81.8848 -81.2012 C 82.5195 -81.2012 82.8613 -81.5918 83.0078 -82.1777 C 84.8633 -92.7734 84.9121 -93.1641 95.9961 -95.2148 C 96.6309 -95.3125 97.0215 -95.7031 97.0215 -96.3379 C 97.0215 -97.0215 96.6309 -97.3633 95.9961 -97.5098 C 84.9121 -99.7559 84.8633 -100 83.0078 -110.498 C 82.8613 -111.133 82.5195 -111.523 81.8848 -111.523 C 81.25 -111.523 80.9082 -111.133 80.7617 -110.498 C 78.8574 -100 78.9551 -99.7559 67.7734 -97.5098 C 67.1387 -97.3633 66.748 -97.0215 66.748 -96.3379 C 66.748 -95.7031 67.1387 -95.3125 67.7734 -95.2148 C 78.9551 -93.1641 78.8574 -92.7734 80.7617 -82.1777 C 80.9082 -81.5918 81.25 -81.2012 81.8848 -81.2012 Z M 112.012 -39.4531 C 112.988 -39.4531 113.721 -40.1367 113.867 -41.2109 C 116.064 -58.0566 116.65 -58.3984 133.789 -61.1816 C 134.912 -61.377 135.645 -61.9629 135.645 -63.0371 C 135.645 -64.0625 134.912 -64.6973 133.984 -64.8926 C 116.797 -68.1641 116.064 -67.9688 113.867 -84.8633 C 113.721 -85.9375 112.988 -86.6211 112.012 -86.6211 C 111.035 -86.6211 110.303 -85.9375 110.156 -84.9121 C 107.861 -67.8711 107.471 -67.5293 90.0391 -64.8926 C 89.1113 -64.7461 88.3789 -64.0625 88.3789 -63.0371 C 88.3789 -62.0117 89.1113 -61.377 90.0391 -61.1816 C 107.52 -57.959 108.008 -57.959 110.156 -41.1133 C 110.303 -40.1367 111.035 -39.4531 112.012 -39.4531 Z M 64.8438 18.8477 C 87.4512 18.8477 105.469 7.56836 114.209 -11.4258 C 115.137 -13.4766 114.99 -15.332 113.965 -16.2598 C 113.086 -17.1875 111.475 -17.334 109.668 -16.6504 C 104.541 -14.6973 98.6328 -13.5742 91.5527 -13.5742 C 62.5977 -13.5742 44.3359 -31.543 44.3359 -60.0098 C 44.3359 -67.8223 45.8008 -75.2441 47.9004 -79.4922 C 48.877 -81.4941 48.8281 -83.252 47.9492 -84.3262 C 46.9238 -85.498 45.0684 -85.6445 42.7246 -84.668 C 24.0234 -76.6602 11.2793 -56.7871 11.2793 -33.9355 C 11.2793 -3.80859 33.1055 18.8477 64.8438 18.8477 Z"/>
  </g>
  <g id="Light-L" transform="matrix(1 0 0 1 1080.89 1556)">
   <path d="M 80.3711 -80.9082 C 80.8594 -80.9082 81.1035 -81.2012 81.25 -81.6895 C 82.9102 -92.4316 83.1543 -92.9688 94.3848 -94.9219 C 94.9707 -95.0195 95.2637 -95.3125 95.2637 -95.8496 C 95.2637 -96.3867 94.9707 -96.6797 94.3848 -96.7773 C 83.2031 -99.0723 82.9102 -99.4141 81.25 -110.01 C 81.1035 -110.498 80.8594 -110.791 80.3711 -110.791 C 79.8828 -110.791 79.5898 -110.498 79.4922 -110.01 C 77.6855 -99.4141 77.6855 -99.0723 66.3086 -96.7773 C 65.7227 -96.6797 65.4297 -96.3867 65.4297 -95.8496 C 65.4297 -95.3125 65.7227 -95.0195 66.3086 -94.9219 C 77.7344 -92.9688 77.6855 -92.4316 79.4922 -81.6895 C 79.5898 -81.2012 79.8828 -80.9082 80.3711 -80.9082 Z M 110.449 -40.332 C 111.23 -40.332 111.816 -40.8691 111.914 -41.6992 C 114.355 -58.6426 114.6 -58.6914 131.787 -61.6211 C 132.666 -61.7676 133.203 -62.207 133.203 -63.0859 C 133.203 -63.916 132.666 -64.4043 131.934 -64.5508 C 114.697 -67.9199 114.355 -67.5293 111.914 -84.4238 C 111.816 -85.3027 111.23 -85.8398 110.449 -85.8398 C 109.668 -85.8398 109.131 -85.3027 108.984 -84.4727 C 106.494 -67.4805 106.445 -67.4805 89.0137 -64.5508 C 88.2812 -64.4043 87.6953 -63.916 87.6953 -63.0859 C 87.6953 -62.2559 88.2812 -61.7676 89.0137 -61.6211 C 106.494 -58.4473 106.787 -58.5449 108.984 -41.6504 C 109.131 -40.8691 109.668 -40.332 110.449 -40.332 Z M 63.623 17.9199 C 85.9863 17.9199 103.76 7.03125 112.451 -11.3281 C 113.281 -13.1348 113.184 -14.6973 112.354 -15.4785 C 111.572 -16.3574 110.205 -16.4551 108.545 -15.8691 C 103.418 -13.916 97.5586 -12.7441 90.2344 -12.7441 C 60.791 -12.7441 42.5781 -30.8594 42.5781 -60.0586 C 42.5781 -67.6758 43.9453 -74.7559 46.2402 -79.4434 C 47.0703 -81.2012 47.0215 -82.7637 46.1914 -83.6914 C 45.2637 -84.668 43.6035 -84.7656 41.5039 -83.8379 C 23.7305 -75.3418 11.2793 -56.2988 11.2793 -33.8379 C 11.2793 -4.3457 32.0312 17.9199 63.623 17.9199 Z"/>
  </g>
  <g id="Thin-L" transform="matrix(1 0 0 1 785.768 1556)">
   <path d="M 78.3203 -80.5664 C 78.6133 -80.5664 78.8086 -80.6641 78.9062 -81.0547 C 80.3711 -91.9434 80.8105 -92.6758 92.334 -94.5801 C 92.7734 -94.6289 92.9688 -94.8242 92.9688 -95.2148 C 92.9688 -95.5566 92.7734 -95.752 92.334 -95.8496 C 80.9082 -98.1445 80.3711 -98.6816 78.9062 -109.326 C 78.8086 -109.717 78.6133 -109.814 78.3203 -109.814 C 78.0273 -109.814 77.832 -109.717 77.7344 -109.326 C 76.123 -98.6816 75.9766 -98.1445 64.3066 -95.8496 C 63.8672 -95.752 63.6719 -95.5566 63.6719 -95.2148 C 63.6719 -94.8242 63.8672 -94.6289 64.3066 -94.5801 C 76.0742 -92.6758 76.123 -91.9434 77.7344 -81.0547 C 77.832 -80.6641 78.0273 -80.5664 78.3203 -80.5664 Z M 108.398 -41.5527 C 108.887 -41.5527 109.277 -41.8457 109.326 -42.3828 C 112.061 -59.375 111.865 -59.1309 129.15 -62.207 C 129.639 -62.3047 130.029 -62.5977 130.029 -63.1348 C 130.029 -63.7207 129.639 -64.0137 129.199 -64.1113 C 111.963 -67.5293 112.061 -66.9434 109.326 -83.8867 C 109.277 -84.4727 108.887 -84.7656 108.398 -84.7656 C 107.91 -84.7656 107.568 -84.4727 107.471 -83.9355 C 104.736 -66.9922 105.078 -67.4316 87.6465 -64.1113 C 87.1582 -64.0137 86.7676 -63.7207 86.7676 -63.1348 C 86.7676 -62.5977 87.1582 -62.3047 87.6465 -62.207 C 105.176 -59.082 105.176 -59.3262 107.471 -42.3828 C 107.568 -41.8457 107.91 -41.5527 108.398 -41.5527 Z M 61.9629 16.6992 C 84.0332 16.6992 101.465 6.34766 110.156 -11.2305 C 110.84 -12.6465 110.84 -13.8672 110.205 -14.4531 C 109.57 -15.2344 108.496 -15.332 107.031 -14.7949 C 101.904 -12.9395 96.1914 -11.6211 88.4766 -11.6211 C 58.3984 -11.6211 40.1855 -29.8828 40.1855 -60.1074 C 40.1855 -67.4805 41.5039 -74.1211 44.043 -79.4434 C 44.7266 -80.8594 44.6289 -82.0801 43.8965 -82.8613 C 43.1152 -83.6426 41.6992 -83.6426 39.9414 -82.7148 C 23.291 -73.5352 11.2793 -55.6152 11.2793 -33.6914 C 11.2793 -5.07812 30.6152 16.6992 61.9629 16.6992 Z"/>
  </g>
  <g id="Ultralight-L" transform="matrix(1 0 0 1 489.887 1556)">
   <path d="M 77.2949 -80.3711 C 77.4902 -80.3711 77.6367 -80.4199 77.6855 -80.7129 C 79.1016 -91.6992 79.6387 -92.5293 91.2598 -94.3848 C 91.6504 -94.4336 91.748 -94.5801 91.748 -94.873 C 91.748 -95.1172 91.6504 -95.2637 91.2598 -95.3613 C 79.6875 -97.7051 79.1016 -98.291 77.6855 -109.033 C 77.6367 -109.277 77.4902 -109.326 77.2949 -109.326 C 77.0996 -109.326 76.9531 -109.277 76.9043 -109.033 C 75.293 -98.291 75.0977 -97.7051 63.2812 -95.3613 C 62.9395 -95.2637 62.793 -95.1172 62.793 -94.873 C 62.793 -94.5801 62.9395 -94.4336 63.2812 -94.3848 C 75.1953 -92.5293 75.293 -91.6992 76.9043 -80.7129 C 76.9531 -80.4199 77.0996 -80.3711 77.2949 -80.3711 Z M 107.373 -42.1387 C 107.666 -42.1387 107.959 -42.334 108.057 -42.7734 C 110.938 -59.7168 110.498 -59.3262 127.783 -62.5 C 128.125 -62.5977 128.369 -62.793 128.369 -63.1836 C 128.369 -63.623 128.125 -63.8184 127.783 -63.8672 C 110.547 -67.334 110.938 -66.6504 108.057 -83.6426 C 107.959 -84.0332 107.666 -84.2285 107.373 -84.2285 C 107.031 -84.2285 106.738 -84.0332 106.689 -83.6426 C 103.809 -66.748 104.395 -67.4316 86.9141 -63.8672 C 86.6211 -63.8184 86.3281 -63.623 86.3281 -63.1836 C 86.3281 -62.793 86.6211 -62.5977 86.9141 -62.5 C 104.492 -59.375 104.346 -59.7656 106.689 -42.7734 C 106.738 -42.334 107.031 -42.1387 107.373 -42.1387 Z M 61.1328 16.0645 C 83.0078 16.0645 100.293 5.95703 108.984 -11.1816 C 109.57 -12.4023 109.619 -13.4277 109.082 -13.9648 C 108.594 -14.6484 107.617 -14.6973 106.299 -14.2578 C 101.123 -12.4023 95.459 -11.0352 87.5488 -11.0352 C 57.1777 -11.0352 39.0137 -29.3945 39.0137 -60.1074 C 39.0137 -67.3828 40.2832 -73.7793 42.9199 -79.3945 C 43.5059 -80.7129 43.4082 -81.7383 42.7246 -82.4219 C 42.041 -83.1055 40.7227 -83.1055 39.1113 -82.1289 C 23.0957 -72.6074 11.2793 -55.2734 11.2793 -33.6426 C 11.2793 -5.46875 29.9316 16.0645 61.1328 16.0645 Z"/>
  </g>
  <g id="Black-M" transform="matrix(1 0 0 1 2868.17 1126)">
   <path d="M 77.4414 -79.8828 C 78.418 -79.8828 79.1016 -80.6152 79.1992 -81.543 C 80.2734 -89.4043 80.3223 -89.4043 88.3789 -90.7715 C 89.502 -90.918 90.1367 -91.5527 90.1367 -92.5293 C 90.1367 -93.457 89.502 -94.0918 88.5742 -94.2871 C 80.2246 -95.9473 80.127 -95.8984 79.1992 -103.418 C 79.1016 -104.443 78.418 -105.127 77.4414 -105.127 C 76.5137 -105.127 75.8301 -104.443 75.6836 -103.467 C 74.6582 -95.459 74.6582 -95.3613 66.4062 -94.2871 C 65.4785 -94.1406 64.7949 -93.457 64.7949 -92.5293 C 64.7949 -91.5527 65.4297 -90.918 66.3574 -90.7715 C 74.6582 -89.0625 74.6094 -89.1113 75.6836 -81.4941 C 75.8301 -80.6152 76.5137 -79.8828 77.4414 -79.8828 Z M 101.416 -43.1152 C 102.93 -43.1152 104.053 -44.1895 104.248 -45.752 C 105.713 -58.2031 106.006 -58.6914 118.994 -60.5957 C 120.752 -60.8398 121.729 -61.9141 121.729 -63.4277 C 121.729 -64.8438 120.752 -65.918 119.287 -66.2109 C 105.957 -69.0918 105.713 -68.7012 104.248 -81.0547 C 104.053 -82.6172 102.93 -83.6914 101.416 -83.6914 C 99.9023 -83.6914 98.7793 -82.6172 98.584 -81.1035 C 96.9727 -68.2129 96.7285 -67.9688 83.5938 -66.2109 C 82.1289 -66.0645 81.0547 -64.8438 81.0547 -63.4277 C 81.0547 -61.9629 82.0801 -60.8887 83.4961 -60.5957 C 96.8262 -57.7148 96.9727 -58.0078 98.584 -45.6543 C 98.7793 -44.1895 99.9512 -43.1152 101.416 -43.1152 Z M 59.2285 16.9922 C 79.834 16.9922 98.1445 4.19922 105.713 -14.209 C 107.275 -18.0176 107.227 -21.1426 105.322 -22.8027 C 103.516 -24.4629 100.537 -24.6582 97.5098 -23.1934 C 93.3105 -21.1914 87.1582 -19.5312 81.25 -19.5312 C 60.4004 -19.5312 45.8008 -33.6426 45.8008 -53.7109 C 45.8008 -59.8633 47.4121 -66.7969 49.8047 -72.0703 C 51.4648 -75.6836 51.2695 -78.3203 49.707 -80.0781 C 48.0957 -81.9336 45.0195 -82.0801 41.2598 -80.5664 C 22.168 -72.9492 8.74023 -54.1992 8.74023 -33.5449 C 8.74023 -4.3457 30.0781 16.9922 59.2285 16.9922 Z"/>
  </g>
  <g id="Heavy-M" transform="matrix(1 0 0 1 2573.24 1126)">
   <path d="M 74.3652 -77.832 C 75.1953 -77.832 75.8301 -78.418 75.9277 -79.248 C 77.0996 -87.207 77.1484 -87.207 85.2539 -88.6719 C 86.2793 -88.8184 86.8164 -89.3555 86.8164 -90.2344 C 86.8164 -91.1133 86.2793 -91.6504 85.4004 -91.8457 C 77.0508 -93.5059 77.002 -93.5059 75.9277 -101.172 C 75.8301 -102.051 75.1953 -102.686 74.3652 -102.686 C 73.4863 -102.686 72.9004 -102.051 72.8027 -101.221 C 71.6309 -93.1641 71.6309 -93.0664 63.3301 -91.8457 C 62.5 -91.6992 61.8652 -91.1133 61.8652 -90.2344 C 61.8652 -89.3555 62.4512 -88.8184 63.2812 -88.6719 C 71.6309 -86.9629 71.582 -87.0117 72.8027 -79.1992 C 72.9004 -78.418 73.4863 -77.832 74.3652 -77.832 Z M 98.1445 -41.8945 C 99.5117 -41.8945 100.537 -42.8711 100.732 -44.2871 C 102.246 -56.8848 102.637 -57.373 115.625 -59.2773 C 117.236 -59.5215 118.164 -60.4492 118.164 -61.8164 C 118.164 -63.1348 117.236 -64.1113 115.918 -64.3555 C 102.588 -67.1875 102.246 -66.8457 100.732 -79.3457 C 100.537 -80.8105 99.5117 -81.7383 98.1445 -81.7383 C 96.8262 -81.7383 95.8008 -80.8105 95.6055 -79.4434 C 93.9941 -66.4551 93.7012 -66.1621 80.4688 -64.3555 C 79.1504 -64.209 78.1738 -63.1348 78.1738 -61.8164 C 78.1738 -60.498 79.1016 -59.5703 80.4199 -59.2773 C 93.7988 -56.4941 93.9941 -56.7383 95.6055 -44.1895 C 95.8008 -42.8711 96.875 -41.8945 98.1445 -41.8945 Z M 57.2754 14.6973 C 77.1973 14.6973 94.4824 2.7832 101.855 -14.7949 C 103.271 -18.1641 103.174 -20.8984 101.514 -22.4121 C 99.9512 -23.8281 97.3633 -23.9746 94.7266 -22.7539 C 90.5762 -20.8496 84.7656 -19.3848 79.0039 -19.3848 C 57.8125 -19.3848 43.3105 -33.4473 43.3105 -53.8574 C 43.3105 -60.0098 44.873 -66.748 47.0215 -71.4844 C 48.4863 -74.6094 48.3398 -77.002 46.9727 -78.5645 C 45.5566 -80.1758 42.8223 -80.3711 39.502 -79.0527 C 21.3379 -71.7773 8.74023 -53.7109 8.74023 -33.7402 C 8.74023 -5.81055 29.1504 14.6973 57.2754 14.6973 Z"/>
  </g>
  <g id="Bold-M" transform="matrix(1 0 0 1 2278.55 1126)">
   <path d="M 70.8984 -75.4395 C 71.6309 -75.4395 72.168 -75.9766 72.2656 -76.709 C 73.5352 -84.7168 73.584 -84.8145 81.8359 -86.3281 C 82.666 -86.4746 83.1543 -86.9141 83.1543 -87.6953 C 83.1543 -88.4766 82.666 -88.916 81.9336 -89.1113 C 73.4863 -90.7715 73.4863 -90.8203 72.2656 -98.6328 C 72.168 -99.4141 71.6309 -99.9512 70.8984 -99.9512 C 70.1172 -99.9512 69.6289 -99.4141 69.5312 -98.6816 C 68.2129 -90.5762 68.2617 -90.4785 59.9121 -89.1113 C 59.1797 -88.9648 58.6426 -88.4766 58.6426 -87.6953 C 58.6426 -86.9141 59.1309 -86.4746 59.8633 -86.3281 C 68.2617 -84.668 68.1641 -84.5703 69.5312 -76.709 C 69.6289 -75.9766 70.1172 -75.4395 70.8984 -75.4395 Z M 94.5312 -40.5762 C 95.752 -40.5762 96.6309 -41.4062 96.7773 -42.6758 C 98.3398 -55.4199 98.7793 -55.8594 111.914 -57.8125 C 113.281 -58.0566 114.111 -58.8379 114.111 -60.0586 C 114.111 -61.2305 113.281 -62.0605 112.158 -62.3047 C 98.8281 -64.9902 98.3398 -64.7949 96.7773 -77.4902 C 96.6309 -78.7598 95.752 -79.5898 94.5312 -79.5898 C 93.3594 -79.5898 92.4805 -78.7598 92.334 -77.5391 C 90.6738 -64.4531 90.2832 -64.1113 76.9531 -62.3047 C 75.8301 -62.1582 74.9512 -61.2305 74.9512 -60.0586 C 74.9512 -58.8867 75.7812 -58.0566 76.9531 -57.8125 C 90.3809 -55.127 90.6738 -55.2734 92.334 -42.5293 C 92.4805 -41.4062 93.3594 -40.5762 94.5312 -40.5762 Z M 55.0781 12.1094 C 74.2188 12.1094 90.4297 1.2207 97.6074 -15.5273 C 98.7793 -18.3105 98.6816 -20.6543 97.3145 -21.9238 C 95.9961 -23.0957 93.8477 -23.2422 91.5527 -22.2168 C 87.5 -20.459 82.0801 -19.2383 76.4648 -19.2383 C 54.9805 -19.2383 40.5762 -33.2031 40.5762 -54.0527 C 40.5762 -60.2051 41.9922 -66.6504 43.9453 -70.8008 C 45.166 -73.4375 45.0684 -75.5371 43.8965 -76.8555 C 42.6758 -78.2715 40.3809 -78.418 37.5 -77.2949 C 20.459 -70.5078 8.74023 -53.2227 8.74023 -33.9355 C 8.74023 -7.42188 28.1738 12.1094 55.0781 12.1094 Z"/>
  </g>
  <g id="Semibold-M" transform="matrix(1 0 0 1 1983.23 1126)">
   <path d="M 68.5059 -73.8281 C 69.1895 -73.8281 69.6289 -74.3164 69.7754 -75 C 71.0938 -83.0078 71.0938 -83.1543 79.4434 -84.668 C 80.1758 -84.8145 80.6152 -85.2539 80.6152 -85.9375 C 80.6152 -86.6699 80.1758 -87.0605 79.4922 -87.207 C 71.0449 -88.916 71.0938 -88.9648 69.7754 -96.875 C 69.6289 -97.6074 69.1895 -98.0469 68.5059 -98.0469 C 67.8223 -98.0469 67.3828 -97.6074 67.2363 -96.9238 C 65.8691 -88.8184 65.9668 -88.7207 57.5195 -87.207 C 56.8359 -87.1094 56.3965 -86.6699 56.3965 -85.9375 C 56.3965 -85.2539 56.8359 -84.8145 57.5195 -84.668 C 65.9668 -83.0566 65.8691 -82.959 67.2363 -74.9512 C 67.3828 -74.3164 67.8223 -73.8281 68.5059 -73.8281 Z M 92.041 -39.5996 C 93.1641 -39.5996 93.9453 -40.3809 94.0918 -41.5527 C 95.6543 -54.3945 96.1426 -54.834 109.326 -56.8359 C 110.596 -57.0312 111.328 -57.7148 111.328 -58.8379 C 111.328 -59.9609 110.596 -60.6934 109.57 -60.8887 C 96.2402 -63.5254 95.6543 -63.3789 94.0918 -76.1719 C 93.9453 -77.3438 93.1641 -78.125 92.041 -78.125 C 90.9668 -78.125 90.1855 -77.3438 90.0391 -76.2207 C 88.3789 -63.1348 87.9883 -62.7441 74.5605 -60.8887 C 73.5352 -60.7422 72.7539 -59.9609 72.7539 -58.8379 C 72.7539 -57.7637 73.5352 -57.0312 74.5605 -56.8359 C 88.0371 -54.1992 88.3789 -54.248 90.0391 -41.4062 C 90.1855 -40.3809 90.9668 -39.5996 92.041 -39.5996 Z M 53.5645 10.3027 C 72.168 10.3027 87.5977 0.146484 94.6289 -15.9668 C 95.7031 -18.4082 95.5566 -20.459 94.3848 -21.582 C 93.2617 -22.6074 91.4062 -22.7539 89.4043 -21.875 C 85.3516 -20.2148 80.2734 -19.1406 74.7559 -19.1406 C 52.9785 -19.1406 38.6719 -33.0566 38.6719 -54.1992 C 38.6719 -60.3516 39.9902 -66.6016 41.7969 -70.3613 C 42.8711 -72.6562 42.8223 -74.5117 41.7969 -75.6836 C 40.7227 -76.9531 38.6719 -77.0996 36.1816 -76.123 C 19.873 -69.6289 8.74023 -52.832 8.74023 -34.082 C 8.74023 -8.59375 27.4902 10.3027 53.5645 10.3027 Z"/>
  </g>
  <g id="Medium-M" transform="matrix(1 0 0 1 1687.57 1126)">
   <path d="M 66.6992 -72.6074 C 67.334 -72.6074 67.7246 -73.0469 67.8223 -73.6328 C 69.2871 -81.7383 69.2383 -81.8848 77.6367 -83.4473 C 78.2715 -83.5938 78.7109 -83.9844 78.7109 -84.6191 C 78.7109 -85.2539 78.2715 -85.6445 77.6855 -85.791 C 69.2383 -87.5 69.2383 -87.5977 67.8223 -95.5566 C 67.7246 -96.1914 67.334 -96.6309 66.6992 -96.6309 C 66.0645 -96.6309 65.6738 -96.1914 65.5762 -95.6055 C 64.1113 -87.5 64.209 -87.3535 55.7129 -85.791 C 55.127 -85.6445 54.6875 -85.2539 54.6875 -84.6191 C 54.6875 -83.9844 55.0781 -83.5938 55.7129 -83.4473 C 64.209 -81.8359 64.1113 -81.6895 65.5762 -73.6328 C 65.6738 -73.0469 66.0645 -72.6074 66.6992 -72.6074 Z M 90.1367 -38.916 C 91.1621 -38.916 91.8945 -39.5996 92.041 -40.6738 C 93.6035 -53.6133 94.1895 -54.0527 107.373 -56.1035 C 108.545 -56.25 109.229 -56.8848 109.229 -57.959 C 109.229 -58.9355 108.545 -59.6191 107.568 -59.8145 C 94.2383 -62.4023 93.6035 -62.2559 92.041 -75.1953 C 91.8945 -76.2695 91.1621 -76.9531 90.1367 -76.9531 C 89.1602 -76.9531 88.4277 -76.2695 88.2812 -75.2441 C 86.6211 -62.0605 86.1816 -61.6699 72.7539 -59.8145 C 71.7773 -59.668 71.0938 -58.9355 71.0938 -57.959 C 71.0938 -56.9336 71.7773 -56.25 72.7539 -56.1035 C 86.2305 -53.4668 86.6699 -53.5156 88.2812 -40.5762 C 88.4277 -39.5996 89.1602 -38.916 90.1367 -38.916 Z M 52.4414 8.93555 C 70.6543 8.93555 85.498 -0.683594 92.3828 -16.3574 C 93.3594 -18.5059 93.2129 -20.3125 92.1387 -21.2891 C 91.1621 -22.2168 89.5508 -22.3633 87.793 -21.6309 C 83.7402 -20.0195 78.8574 -19.043 73.4375 -19.043 C 51.5137 -19.043 37.2559 -32.959 37.2559 -54.2969 C 37.2559 -60.4492 38.5254 -66.5527 40.1855 -69.9707 C 41.1621 -72.0215 41.1133 -73.7305 40.2344 -74.8047 C 39.209 -75.9277 37.4023 -76.0742 35.1074 -75.1953 C 19.3848 -68.9941 8.74023 -52.5879 8.74023 -34.1797 C 8.74023 -9.42383 26.9531 8.93555 52.4414 8.93555 Z"/>
  </g>
  <g id="Regular-M" transform="matrix(1 0 0 1 1392.23 1126)">
   <path d="M 64.3555 -70.9961 C 64.8926 -70.9961 65.2344 -71.3867 65.332 -71.9238 C 66.8457 -80.0293 66.7969 -80.2246 75.293 -81.8848 C 75.8301 -81.9824 76.2207 -82.2754 76.2207 -82.8613 C 76.2207 -83.4961 75.8301 -83.7891 75.293 -83.8867 C 66.7969 -85.5957 66.8457 -85.7422 65.332 -93.8477 C 65.2344 -94.3848 64.8926 -94.7754 64.3555 -94.7754 C 63.7695 -94.7754 63.4277 -94.3848 63.3301 -93.8477 C 61.7676 -85.7422 61.9141 -85.5957 53.3691 -83.8867 C 52.832 -83.7891 52.4902 -83.4961 52.4902 -82.8613 C 52.4902 -82.2754 52.832 -81.9824 53.3691 -81.8848 C 61.9141 -80.2246 61.7676 -80.0293 63.3301 -71.9238 C 63.4277 -71.3867 63.7695 -70.9961 64.3555 -70.9961 Z M 87.6953 -37.9883 C 88.5742 -37.9883 89.209 -38.623 89.3555 -39.5508 C 90.918 -52.6367 91.5527 -53.0273 104.834 -55.0781 C 105.859 -55.2734 106.494 -55.7617 106.494 -56.7383 C 106.494 -57.666 105.859 -58.252 105.029 -58.3984 C 91.6504 -60.9375 90.918 -60.8398 89.3555 -73.9258 C 89.209 -74.8535 88.5742 -75.4883 87.6953 -75.4883 C 86.8164 -75.4883 86.1328 -74.8535 86.0352 -73.9746 C 84.3262 -60.7422 83.8867 -60.3027 70.3613 -58.3984 C 69.5312 -58.3008 68.8965 -57.666 68.8965 -56.7383 C 68.8965 -55.8105 69.5312 -55.2734 70.3613 -55.0781 C 83.8867 -52.5879 84.375 -52.5391 86.0352 -39.4531 C 86.1328 -38.623 86.8164 -37.9883 87.6953 -37.9883 Z M 50.9766 7.17773 C 68.6035 7.17773 82.7148 -1.75781 89.502 -16.7969 C 90.2832 -18.6035 90.1367 -20.166 89.2578 -20.9961 C 88.4766 -21.7285 87.1094 -21.8262 85.6445 -21.2891 C 81.6406 -19.7266 77.002 -18.9453 71.7285 -18.9453 C 49.5605 -18.9453 35.3516 -32.8125 35.3516 -54.4434 C 35.3516 -60.5957 36.5723 -66.5039 38.0859 -69.5312 C 38.916 -71.2402 38.8672 -72.7051 38.1348 -73.6328 C 37.2559 -74.6094 35.7422 -74.7559 33.7891 -74.0234 C 18.7988 -68.1152 8.74023 -52.1973 8.74023 -34.3262 C 8.74023 -10.5469 26.2695 7.17773 50.9766 7.17773 Z"/>
  </g>
  <g id="Light-M" transform="matrix(1 0 0 1 1096.59 1126)">
   <path d="M 62.9395 -70.752 C 63.3789 -70.752 63.6719 -71.0449 63.7695 -71.4844 C 65.1367 -79.7363 65.2344 -80.0293 73.877 -81.5918 C 74.3164 -81.6895 74.6094 -81.9824 74.6094 -82.4219 C 74.6094 -82.9102 74.3164 -83.1543 73.877 -83.252 C 65.2344 -85.0098 65.1367 -85.2539 63.7695 -93.4082 C 63.6719 -93.8477 63.3789 -94.0918 62.9395 -94.0918 C 62.5 -94.0918 62.2559 -93.8477 62.1582 -93.4082 C 60.7422 -85.2539 60.7422 -85.0098 52.0508 -83.252 C 51.5625 -83.1543 51.2695 -82.9102 51.2695 -82.4219 C 51.2695 -81.9824 51.5625 -81.6895 52.0508 -81.5918 C 60.791 -80.0293 60.7422 -79.7363 62.1582 -71.4844 C 62.2559 -71.0449 62.5 -70.752 62.9395 -70.752 Z M 86.2793 -38.7695 C 87.0117 -38.7695 87.5 -39.2578 87.5977 -40.0391 C 89.4043 -53.125 89.7461 -53.2715 103.027 -55.4688 C 103.809 -55.6152 104.346 -56.0059 104.346 -56.7871 C 104.346 -57.5195 103.809 -57.959 103.174 -58.1055 C 89.7949 -60.6934 89.4043 -60.4492 87.5977 -73.5352 C 87.5 -74.3164 87.0117 -74.8047 86.2793 -74.8047 C 85.5957 -74.8047 85.1074 -74.3164 85.0098 -73.584 C 83.1543 -60.4004 82.959 -60.2539 69.4336 -58.1055 C 68.7988 -58.0078 68.2617 -57.5195 68.2617 -56.7871 C 68.2617 -56.0547 68.7988 -55.6152 69.4336 -55.4688 C 83.0078 -52.9785 83.3008 -53.0273 85.0098 -39.9414 C 85.1074 -39.2578 85.5957 -38.7695 86.2793 -38.7695 Z M 49.8535 6.34766 C 67.2852 6.34766 81.1523 -2.24609 87.9395 -16.748 C 88.623 -18.2617 88.5254 -19.5801 87.793 -20.2637 C 87.1582 -20.9961 85.9863 -21.0938 84.6191 -20.5566 C 80.6152 -19.0918 76.0742 -18.1641 70.5078 -18.1641 C 47.9004 -18.1641 33.7891 -32.1777 33.7891 -54.4434 C 33.7891 -60.4492 34.9121 -66.0645 36.5723 -69.5312 C 37.3047 -70.9961 37.2559 -72.2656 36.5723 -73.0469 C 35.8398 -73.9258 34.4238 -74.0234 32.7148 -73.2422 C 18.5059 -66.8945 8.74023 -51.7578 8.74023 -34.2285 C 8.74023 -11.0352 25.3418 6.34766 49.8535 6.34766 Z"/>
  </g>
  <g id="Thin-M" transform="matrix(1 0 0 1 801.32 1126)">
   <path d="M 61.1328 -70.459 C 61.4258 -70.459 61.5723 -70.5566 61.6699 -70.8984 C 62.8418 -79.2969 63.1348 -79.834 72.0215 -81.2988 C 72.3633 -81.3477 72.5586 -81.543 72.5586 -81.8359 C 72.5586 -82.1777 72.3633 -82.3242 72.0215 -82.4219 C 63.1836 -84.1797 62.8418 -84.5703 61.6699 -92.8223 C 61.5723 -93.1152 61.4258 -93.2617 61.1328 -93.2617 C 60.8887 -93.2617 60.6934 -93.1152 60.6445 -92.8223 C 59.3262 -84.5703 59.2285 -84.1797 50.293 -82.4219 C 49.9023 -82.3242 49.7559 -82.1777 49.7559 -81.8359 C 49.7559 -81.543 49.9023 -81.3477 50.293 -81.2988 C 59.2773 -79.834 59.3262 -79.2969 60.6445 -70.8984 C 60.6934 -70.5566 60.8887 -70.459 61.1328 -70.459 Z M 84.4727 -39.8438 C 84.9121 -39.8438 85.2051 -40.1367 85.3027 -40.625 C 87.3535 -53.7598 87.3047 -53.6621 100.684 -56.0059 C 101.123 -56.1035 101.465 -56.3477 101.465 -56.8359 C 101.465 -57.3242 101.123 -57.6172 100.684 -57.7148 C 87.3535 -60.3516 87.3535 -59.9609 85.3027 -73.0469 C 85.2051 -73.584 84.9121 -73.8281 84.4727 -73.8281 C 84.0332 -73.8281 83.6914 -73.584 83.5938 -73.0957 C 81.543 -59.9609 81.7383 -60.2051 68.2129 -57.7148 C 67.7734 -57.6172 67.4805 -57.3242 67.4805 -56.8359 C 67.4805 -56.3477 67.7734 -56.1035 68.2129 -56.0059 C 81.7871 -53.5645 81.8359 -53.7598 83.5938 -40.625 C 83.6914 -40.1367 84.0332 -39.8438 84.4727 -39.8438 Z M 48.3887 5.27344 C 65.5273 5.27344 79.1504 -2.88086 85.8887 -16.6504 C 86.4258 -17.8223 86.377 -18.8477 85.8887 -19.3848 C 85.3516 -19.9707 84.4238 -20.0195 83.3008 -19.6289 C 79.2969 -18.1641 74.8535 -17.1387 68.9453 -17.1387 C 45.752 -17.1387 31.6895 -31.2988 31.6895 -54.4922 C 31.6895 -60.2539 32.7148 -65.5273 34.6191 -69.4824 C 35.1562 -70.7031 35.1074 -71.6797 34.5215 -72.3145 C 33.8867 -72.998 32.7148 -72.998 31.2988 -72.2656 C 18.1152 -65.2832 8.74023 -51.1719 8.74023 -34.082 C 8.74023 -11.7188 24.0234 5.27344 48.3887 5.27344 Z"/>
  </g>
  <g id="Ultralight-M" transform="matrix(1 0 0 1 505.341 1126)">
   <path d="M 60.2051 -70.2637 C 60.4004 -70.2637 60.498 -70.3125 60.5469 -70.5566 C 61.6699 -79.0527 62.0605 -79.6875 71.0449 -81.1035 C 71.3379 -81.2012 71.4844 -81.2988 71.4844 -81.543 C 71.4844 -81.7871 71.3379 -81.8848 71.0449 -81.9824 C 62.1094 -83.7891 61.6699 -84.2285 60.5469 -92.5293 C 60.498 -92.7734 60.4004 -92.8223 60.2051 -92.8223 C 60.0098 -92.8223 59.9121 -92.7734 59.8633 -92.5293 C 58.5938 -84.2285 58.4961 -83.7891 49.3652 -81.9824 C 49.0723 -81.8848 48.9258 -81.7871 48.9258 -81.543 C 48.9258 -81.2988 49.0723 -81.2012 49.3652 -81.1035 C 58.5449 -79.6875 58.5938 -79.0527 59.8633 -70.5566 C 59.9121 -70.3125 60.0098 -70.2637 60.2051 -70.2637 Z M 83.4961 -40.4297 C 83.8379 -40.4297 84.0332 -40.5762 84.1309 -40.9668 C 86.3281 -54.1016 86.0352 -53.8574 99.4629 -56.2988 C 99.7559 -56.3477 100 -56.543 100 -56.8848 C 100 -57.2754 99.7559 -57.4219 99.4629 -57.4707 C 86.084 -60.1562 86.3281 -59.668 84.1309 -72.8027 C 84.0332 -73.1934 83.8379 -73.3398 83.4961 -73.3398 C 83.2031 -73.3398 82.959 -73.1934 82.9102 -72.8027 C 80.7129 -59.7168 81.1035 -60.2051 67.5781 -57.4707 C 67.2852 -57.4219 67.041 -57.2754 67.041 -56.8848 C 67.041 -56.543 67.2852 -56.3477 67.5781 -56.2988 C 81.1523 -53.8574 81.1035 -54.1016 82.9102 -40.9668 C 82.959 -40.5762 83.2031 -40.4297 83.4961 -40.4297 Z M 47.6074 4.6875 C 64.6484 4.6875 78.0762 -3.17383 84.8145 -16.6016 C 85.3027 -17.627 85.3027 -18.457 84.8633 -18.8965 C 84.4727 -19.4336 83.6426 -19.5312 82.6172 -19.1406 C 78.6133 -17.7246 74.1699 -16.6504 68.1152 -16.6504 C 44.6777 -16.6504 30.5664 -30.8594 30.5664 -54.541 C 30.5664 -60.2051 31.5918 -65.2344 33.5938 -69.4824 C 34.082 -70.5078 34.0332 -71.3867 33.4473 -71.9238 C 32.9102 -72.5098 31.8359 -72.5098 30.5664 -71.7285 C 17.9688 -64.502 8.74023 -50.8789 8.74023 -33.9844 C 8.74023 -12.0605 23.3887 4.6875 47.6074 4.6875 Z"/>
  </g>
  <g id="Black-S" transform="matrix(1 0 0 1 2882.42 696)">
   <path d="M 60.4492 -70.0684 C 61.1816 -70.0684 61.7188 -70.6055 61.8164 -71.3379 C 62.6465 -77.4902 62.6953 -77.4902 68.9941 -78.5645 C 69.873 -78.7109 70.3613 -79.1992 70.3613 -79.9316 C 70.3613 -80.6641 69.873 -81.1523 69.1406 -81.2988 C 62.5977 -82.6172 62.5488 -82.5684 61.8164 -88.4766 C 61.7188 -89.2578 61.1816 -89.7949 60.4492 -89.7949 C 59.7168 -89.7949 59.1797 -89.2578 59.082 -88.5254 C 58.252 -82.2266 58.252 -82.1777 51.8066 -81.2988 C 51.0742 -81.2012 50.5371 -80.6641 50.5371 -79.9316 C 50.5371 -79.1992 51.0254 -78.7109 51.7578 -78.5645 C 58.252 -77.2461 58.2031 -77.2949 59.082 -71.2891 C 59.1797 -70.6055 59.7168 -70.0684 60.4492 -70.0684 Z M 79.1992 -41.3086 C 80.3711 -41.3086 81.25 -42.1387 81.3965 -43.3594 C 82.5684 -53.125 82.8125 -53.5156 92.9688 -54.9805 C 94.3359 -55.1758 95.1172 -56.0059 95.1172 -57.1777 C 95.1172 -58.3008 94.3359 -59.1309 93.2129 -59.375 C 82.7637 -61.6211 82.5684 -61.3281 81.3965 -70.9961 C 81.25 -72.2168 80.3711 -73.0469 79.1992 -73.0469 C 78.0273 -73.0469 77.1484 -72.2168 77.002 -71.0449 C 75.7324 -60.9375 75.5371 -60.7422 65.2344 -59.375 C 64.1113 -59.2285 63.2812 -58.3008 63.2812 -57.1777 C 63.2812 -56.0547 64.0625 -55.2246 65.1855 -54.9805 C 75.6348 -52.7344 75.7324 -52.9785 77.002 -43.2617 C 77.1484 -42.1387 78.0762 -41.3086 79.1992 -41.3086 Z M 46.2402 5.51758 C 62.3535 5.51758 76.6113 -4.44336 82.5195 -18.7988 C 83.7402 -21.7773 83.6914 -24.1699 82.2266 -25.4883 C 80.8105 -26.7578 78.5156 -26.9043 76.1719 -25.7812 C 72.9004 -24.2188 68.1152 -22.9492 63.4766 -22.9492 C 47.1191 -22.9492 35.6934 -33.9844 35.6934 -49.707 C 35.6934 -54.541 36.9629 -59.9609 38.8184 -64.0625 C 40.0879 -66.8457 39.9414 -68.8965 38.7207 -70.2637 C 37.5 -71.6797 35.1074 -71.8262 32.1777 -70.6543 C 17.2852 -64.6973 6.83594 -50.0488 6.83594 -33.9355 C 6.83594 -11.1328 23.4863 5.51758 46.2402 5.51758 Z"/>
  </g>
  <g id="Heavy-S" transform="matrix(1 0 0 1 2586.96 696)">
   <path d="M 58.252 -68.5059 C 58.9355 -68.5059 59.375 -68.9941 59.4727 -69.6289 C 60.4004 -75.8301 60.4492 -75.8789 66.7969 -77.002 C 67.5781 -77.0996 68.0176 -77.5391 68.0176 -78.2227 C 68.0176 -78.9062 67.5781 -79.3457 66.8945 -79.4922 C 60.3516 -80.8105 60.3516 -80.8105 59.4727 -86.8164 C 59.375 -87.5 58.9355 -87.9883 58.252 -87.9883 C 57.5684 -87.9883 57.0801 -87.5 56.9824 -86.8164 C 56.0547 -80.5176 56.0547 -80.4688 49.6094 -79.4922 C 48.9258 -79.3945 48.4375 -78.9062 48.4375 -78.2227 C 48.4375 -77.5391 48.877 -77.0996 49.5605 -77.002 C 56.0547 -75.6836 56.0059 -75.6836 56.9824 -69.6289 C 57.0801 -68.9941 57.5684 -68.5059 58.252 -68.5059 Z M 76.8555 -40.2832 C 77.9785 -40.2832 78.7598 -41.0645 78.9062 -42.1875 C 80.0781 -52.0508 80.4199 -52.4414 90.625 -53.9551 C 91.8945 -54.1504 92.627 -54.8828 92.627 -55.957 C 92.627 -57.0312 91.8945 -57.7637 90.8203 -58.0078 C 80.3711 -60.1562 80.0781 -59.9609 78.9062 -69.7266 C 78.7598 -70.8984 77.9785 -71.6309 76.8555 -71.6309 C 75.7812 -71.6309 75 -70.8984 74.8535 -69.7754 C 73.584 -59.6191 73.3398 -59.375 62.9395 -58.0078 C 61.9141 -57.8613 61.1328 -57.0312 61.1328 -55.957 C 61.1328 -54.9316 61.8652 -54.1504 62.9395 -53.9551 C 73.3887 -51.7578 73.584 -51.9043 74.8535 -42.0898 C 75 -41.0645 75.8301 -40.2832 76.8555 -40.2832 Z M 44.873 3.85742 C 60.4492 3.85742 73.9746 -5.46875 79.7852 -19.2871 C 80.8594 -21.9238 80.8105 -24.0723 79.4922 -25.2441 C 78.2715 -26.3672 76.2207 -26.4648 74.1211 -25.5371 C 70.8984 -24.0234 66.4062 -22.9004 61.8652 -22.9004 C 45.3613 -22.9004 33.9844 -33.8867 33.9844 -49.8535 C 33.9844 -54.6875 35.2051 -59.9609 36.8652 -63.623 C 37.9883 -66.0645 37.8906 -67.9199 36.8164 -69.1406 C 35.6934 -70.459 33.5938 -70.6055 30.957 -69.5312 C 16.6992 -63.9648 6.83594 -49.7559 6.83594 -34.082 C 6.83594 -12.207 22.9004 3.85742 44.873 3.85742 Z"/>
  </g>
  <g id="Bold-S" transform="matrix(1 0 0 1 2291.66 696)">
   <path d="M 55.7617 -66.748 C 56.3965 -66.748 56.7871 -67.1387 56.8848 -67.7734 C 57.9102 -73.9746 57.9102 -74.0234 64.3066 -75.2441 C 64.9902 -75.3418 65.4297 -75.7324 65.4297 -76.3672 C 65.4297 -77.002 64.9902 -77.3926 64.4043 -77.4902 C 57.8613 -78.8086 57.8613 -78.8086 56.8848 -84.9121 C 56.7871 -85.5469 56.3965 -85.9863 55.7617 -85.9863 C 55.127 -85.9863 54.7363 -85.5469 54.6387 -84.9609 C 53.5645 -78.6621 53.6621 -78.6133 47.1191 -77.4902 C 46.5332 -77.3926 46.0938 -77.002 46.0938 -76.3672 C 46.0938 -75.7324 46.5332 -75.3418 47.1191 -75.2441 C 53.6621 -73.9258 53.5645 -73.877 54.6387 -67.7246 C 54.7363 -67.1387 55.127 -66.748 55.7617 -66.748 Z M 74.2676 -39.1602 C 75.2441 -39.1602 75.9766 -39.8438 76.123 -40.8691 C 77.2949 -50.8789 77.7344 -51.2695 87.9883 -52.7832 C 89.1113 -52.9785 89.7949 -53.6133 89.7949 -54.6387 C 89.7949 -55.5664 89.1113 -56.25 88.1836 -56.4453 C 77.7344 -58.5449 77.2949 -58.3984 76.123 -68.3594 C 75.9766 -69.3848 75.2441 -70.0684 74.2676 -70.0684 C 73.291 -70.0684 72.5586 -69.3848 72.4609 -68.4082 C 71.1914 -58.1543 70.8496 -57.8125 60.4004 -56.4453 C 59.4727 -56.3477 58.7891 -55.5664 58.7891 -54.6387 C 58.7891 -53.6621 59.4238 -52.9785 60.4004 -52.7832 C 70.8984 -50.6836 71.1914 -50.7324 72.4609 -40.7715 C 72.5586 -39.8438 73.3398 -39.1602 74.2676 -39.1602 Z M 43.3594 1.95312 C 58.3496 1.95312 71.0938 -6.5918 76.709 -19.8242 C 77.6367 -22.0703 77.5391 -23.9258 76.416 -24.9512 C 75.3906 -25.8789 73.6816 -26.0254 71.875 -25.1953 C 68.6523 -23.8281 64.4531 -22.9004 60.1074 -22.9004 C 43.3594 -22.9004 32.0801 -33.7891 32.0801 -50 C 32.0801 -54.834 33.2031 -59.9609 34.668 -63.0859 C 35.6445 -65.1855 35.5957 -66.8457 34.668 -67.9199 C 33.6914 -69.043 31.8359 -69.1895 29.5898 -68.3105 C 16.0645 -63.1348 6.83594 -49.4141 6.83594 -34.2285 C 6.83594 -13.3789 22.2656 1.95312 43.3594 1.95312 Z"/>
  </g>
  <g id="Semibold-S" transform="matrix(1 0 0 1 1995.93 696)">
   <path d="M 54.0527 -65.5273 C 54.6387 -65.5273 54.9805 -65.918 55.0781 -66.4551 C 56.2012 -72.7051 56.1523 -72.7539 62.5977 -74.0234 C 63.2324 -74.1211 63.623 -74.4629 63.623 -75.0488 C 63.623 -75.6348 63.2324 -75.9766 62.6465 -76.123 C 56.1035 -77.4414 56.1523 -77.4414 55.0781 -83.6426 C 54.9805 -84.2285 54.6387 -84.6191 54.0527 -84.6191 C 53.4668 -84.6191 53.0762 -84.2285 52.9785 -83.6426 C 51.8555 -77.3438 51.9531 -77.2949 45.459 -76.123 C 44.873 -76.0254 44.4824 -75.6348 44.4824 -75.0488 C 44.4824 -74.4629 44.873 -74.1211 45.4102 -74.0234 C 51.9531 -72.7051 51.8555 -72.6562 52.9785 -66.4551 C 53.0762 -65.918 53.4668 -65.5273 54.0527 -65.5273 Z M 72.5098 -38.3789 C 73.3887 -38.3789 74.0723 -39.0137 74.1699 -39.9902 C 75.3418 -50.0488 75.8789 -50.4395 86.1328 -52.002 C 87.207 -52.1484 87.8418 -52.7344 87.8418 -53.6621 C 87.8418 -54.5898 87.207 -55.2246 86.377 -55.3711 C 75.9277 -57.4219 75.3418 -57.373 74.1699 -67.3828 C 74.0723 -68.3594 73.3887 -68.9941 72.5098 -68.9941 C 71.582 -68.9941 70.8984 -68.3594 70.8008 -67.4316 C 69.5312 -57.1289 69.1406 -56.7383 58.6426 -55.3711 C 57.7637 -55.2734 57.1289 -54.5898 57.1289 -53.6621 C 57.1289 -52.7832 57.7637 -52.1484 58.6426 -52.002 C 69.1895 -49.9023 69.5312 -49.9512 70.8008 -39.8926 C 70.8984 -39.0137 71.582 -38.3789 72.5098 -38.3789 Z M 42.2852 0.683594 C 56.9336 0.683594 69.043 -7.37305 74.5605 -20.2148 C 75.3906 -22.168 75.293 -23.8281 74.3164 -24.7559 C 73.3887 -25.5859 71.875 -25.6836 70.3125 -25 C 67.1387 -23.6816 63.1348 -22.8516 58.8867 -22.8516 C 41.9922 -22.8516 30.7617 -33.7402 30.7617 -50.0977 C 30.7617 -54.9805 31.8359 -59.9609 33.1543 -62.7441 C 34.0332 -64.5996 33.9844 -66.1133 33.2031 -67.0898 C 32.3242 -68.1152 30.6641 -68.2617 28.6133 -67.4805 C 15.625 -62.5488 6.83594 -49.1699 6.83594 -34.375 C 6.83594 -14.209 21.8262 0.683594 42.2852 0.683594 Z"/>
  </g>
  <g id="Medium-S" transform="matrix(1 0 0 1 1699.95 696)">
   <path d="M 52.7344 -64.5996 C 53.3203 -64.5996 53.6133 -64.9414 53.7109 -65.4785 C 54.8828 -71.7773 54.7852 -71.8262 61.3281 -73.0957 C 61.8652 -73.1934 62.2559 -73.5352 62.2559 -74.0723 C 62.2559 -74.6094 61.8652 -74.9512 61.377 -75.0488 C 54.7852 -76.3672 54.8828 -76.416 53.7109 -82.666 C 53.6133 -83.2031 53.3203 -83.5449 52.7344 -83.5449 C 52.1973 -83.5449 51.8555 -83.2031 51.7578 -82.666 C 50.5859 -76.3672 50.6836 -76.3184 44.1406 -75.0488 C 43.6035 -74.9512 43.2617 -74.6094 43.2617 -74.0723 C 43.2617 -73.5352 43.6035 -73.1934 44.1406 -73.0957 C 50.6836 -71.7773 50.5859 -71.7285 51.7578 -65.4785 C 51.8555 -64.9414 52.1973 -64.5996 52.7344 -64.5996 Z M 71.1426 -37.7441 C 72.0215 -37.7441 72.6074 -38.3789 72.7051 -39.3066 C 73.877 -49.4141 74.4629 -49.8047 84.7656 -51.3672 C 85.791 -51.5625 86.377 -52.0508 86.377 -52.9785 C 86.377 -53.8574 85.791 -54.3945 84.9609 -54.5898 C 74.5117 -56.5918 73.877 -56.543 72.7051 -66.6504 C 72.6074 -67.5781 72.0215 -68.2129 71.1426 -68.2129 C 70.2637 -68.2129 69.6289 -67.5781 69.5312 -66.6992 C 68.3105 -56.3477 67.8711 -55.957 57.3242 -54.5898 C 56.4941 -54.4922 55.8594 -53.8574 55.8594 -52.9785 C 55.8594 -52.0996 56.4941 -51.5625 57.3242 -51.3672 C 67.8711 -49.3652 68.2617 -49.3164 69.5312 -39.209 C 69.6289 -38.3789 70.2637 -37.7441 71.1426 -37.7441 Z M 41.5039 -0.292969 C 55.8105 -0.292969 67.5293 -8.00781 72.9492 -20.459 C 73.7305 -22.2656 73.584 -23.7793 72.7051 -24.6094 C 71.9238 -25.3418 70.5566 -25.4395 69.1406 -24.8535 C 65.9668 -23.584 62.1094 -22.8516 57.959 -22.8516 C 40.9668 -22.8516 29.7852 -33.6914 29.7852 -50.1465 C 29.7852 -55.0293 30.8105 -59.9609 32.0312 -62.4512 C 32.8125 -64.1113 32.8125 -65.5762 32.0801 -66.4062 C 31.25 -67.3828 29.7852 -67.5293 27.9297 -66.8457 C 15.2832 -62.1582 6.83594 -48.9746 6.83594 -34.4238 C 6.83594 -14.8438 21.4844 -0.292969 41.5039 -0.292969 Z"/>
  </g>
  <g id="Regular-S" transform="matrix(1 0 0 1 1404.19 696)">
   <path d="M 51.0742 -63.3789 C 51.5625 -63.3789 51.8555 -63.7207 51.9531 -64.209 C 53.2227 -70.5078 53.0762 -70.5566 59.668 -71.875 C 60.1074 -71.9727 60.4492 -72.2656 60.4492 -72.8027 C 60.4492 -73.291 60.1074 -73.584 59.668 -73.6816 C 53.0762 -75 53.2227 -75.0488 51.9531 -81.3965 C 51.8555 -81.8359 51.5625 -82.1777 51.0742 -82.1777 C 50.5371 -82.1777 50.2441 -81.8359 50.1465 -81.3965 C 48.9258 -75.0488 49.0234 -75 42.4805 -73.6816 C 41.9922 -73.584 41.6504 -73.291 41.6504 -72.8027 C 41.6504 -72.2656 41.9922 -71.9727 42.4805 -71.875 C 49.0234 -70.5566 48.9258 -70.5078 50.1465 -64.209 C 50.2441 -63.7207 50.5371 -63.3789 51.0742 -63.3789 Z M 69.3848 -37.0117 C 70.166 -37.0117 70.752 -37.5488 70.8008 -38.3789 C 71.9727 -48.6328 72.6074 -49.0234 82.959 -50.5859 C 83.9355 -50.7324 84.4727 -51.2207 84.4727 -52.0508 C 84.4727 -52.8809 83.9355 -53.3691 83.1543 -53.5156 C 72.7051 -55.4688 71.9727 -55.5176 70.8008 -65.7227 C 70.752 -66.5527 70.166 -67.1387 69.3848 -67.1387 C 68.5547 -67.1387 68.0176 -66.5527 67.9199 -65.7715 C 66.6504 -55.3711 66.1621 -54.8828 55.5664 -53.5156 C 54.834 -53.418 54.248 -52.8809 54.248 -52.0508 C 54.248 -51.2695 54.834 -50.7324 55.5664 -50.5859 C 66.1621 -48.584 66.6504 -48.5352 67.9199 -38.3301 C 68.0176 -37.5488 68.5547 -37.0117 69.3848 -37.0117 Z M 40.4297 -1.61133 C 54.3945 -1.61133 65.5273 -8.78906 70.8496 -20.8496 C 71.5332 -22.3633 71.3867 -23.6816 70.6055 -24.4141 C 69.9707 -25.0488 68.7988 -25.1465 67.5781 -24.6582 C 64.4531 -23.4375 60.791 -22.8516 56.7383 -22.8516 C 39.5996 -22.8516 28.4668 -33.6426 28.4668 -50.2441 C 28.4668 -55.1758 29.4434 -59.9609 30.5176 -62.1094 C 31.25 -63.5254 31.25 -64.8438 30.6152 -65.5762 C 29.8828 -66.4551 28.6133 -66.6016 27.002 -66.0156 C 14.8438 -61.5723 6.83594 -48.7793 6.83594 -34.5703 C 6.83594 -15.6738 21.0449 -1.61133 40.4297 -1.61133 Z"/>
  </g>
  <g id="Light-S" transform="matrix(1 0 0 1 1108.43 696)">
   <path d="M 49.8535 -63.1836 C 50.2441 -63.1836 50.4395 -63.4277 50.5371 -63.7695 C 51.6602 -70.2148 51.6602 -70.4102 58.3984 -71.6797 C 58.7891 -71.7285 59.0332 -71.9727 59.0332 -72.3633 C 59.0332 -72.8027 58.7891 -73.0469 58.3984 -73.0957 C 51.709 -74.4629 51.6602 -74.6094 50.5371 -80.957 C 50.4395 -81.3477 50.2441 -81.5918 49.8535 -81.5918 C 49.4629 -81.5918 49.2188 -81.3477 49.1211 -80.957 C 47.9492 -74.6094 48.0469 -74.4629 41.2598 -73.0957 C 40.8691 -73.0469 40.625 -72.8027 40.625 -72.3633 C 40.625 -71.9727 40.8691 -71.7285 41.2598 -71.6797 C 48.0469 -70.4102 47.9492 -70.2148 49.1211 -63.7695 C 49.2188 -63.4277 49.4629 -63.1836 49.8535 -63.1836 Z M 68.1152 -37.6953 C 68.75 -37.6953 69.1895 -38.1348 69.2871 -38.8184 C 70.6055 -49.0723 70.9961 -49.2676 81.3965 -50.9277 C 82.1289 -51.0742 82.5684 -51.416 82.5684 -52.0996 C 82.5684 -52.7344 82.1289 -53.125 81.4941 -53.2715 C 71.0449 -55.2734 70.6055 -55.1758 69.2871 -65.3809 C 69.1895 -66.0645 68.75 -66.5039 68.1152 -66.5039 C 67.5293 -66.5039 67.041 -66.0645 66.9922 -65.4297 C 65.5762 -55.0781 65.332 -54.834 54.7363 -53.2715 C 54.1504 -53.1738 53.7109 -52.7344 53.7109 -52.0996 C 53.7109 -51.4648 54.1504 -51.0742 54.7363 -50.9277 C 65.3809 -48.9746 65.6738 -48.9746 66.9922 -38.7695 C 67.041 -38.1348 67.5293 -37.6953 68.1152 -37.6953 Z M 39.4531 -2.34375 C 53.2227 -2.34375 64.1602 -9.17969 69.4824 -20.8008 C 70.0684 -22.0703 69.9707 -23.1934 69.3359 -23.7793 C 68.75 -24.3652 67.7734 -24.4141 66.6504 -24.0234 C 63.5254 -22.8516 59.9609 -22.168 55.7129 -22.168 C 38.1348 -22.168 27.0508 -33.0566 27.0508 -50.293 C 27.0508 -55.0293 27.9785 -59.5703 29.1992 -62.1094 C 29.834 -63.3301 29.7852 -64.4043 29.248 -65.0879 C 28.6133 -65.8203 27.4414 -65.918 26.0254 -65.332 C 14.5996 -60.498 6.83594 -48.3398 6.83594 -34.4727 C 6.83594 -16.1133 20.2148 -2.34375 39.4531 -2.34375 Z"/>
  </g>
  <g id="Thin-S" transform="matrix(1 0 0 1 812.99 696)">
   <path d="M 48.2422 -62.8906 C 48.4863 -62.8906 48.6328 -62.9883 48.6816 -63.2812 C 49.6582 -69.8242 49.8535 -70.2148 56.7383 -71.3867 C 57.0801 -71.4355 57.2266 -71.582 57.2266 -71.875 C 57.2266 -72.168 57.0801 -72.3145 56.7383 -72.3633 C 49.9023 -73.7305 49.6582 -74.0234 48.6816 -80.4688 C 48.6328 -80.7129 48.4863 -80.8594 48.2422 -80.8594 C 47.998 -80.8594 47.8516 -80.7129 47.8027 -80.4688 C 46.7285 -74.0234 46.6797 -73.7305 39.6973 -72.3633 C 39.4043 -72.3145 39.2578 -72.168 39.2578 -71.875 C 39.2578 -71.582 39.4043 -71.4355 39.6973 -71.3867 C 46.7285 -70.2148 46.7285 -69.8242 47.8027 -63.2812 C 47.8516 -62.9883 47.998 -62.8906 48.2422 -62.8906 Z M 66.5039 -38.6719 C 66.8945 -38.6719 67.1875 -38.916 67.2363 -39.3555 C 68.7988 -49.6094 68.8477 -49.6094 79.2969 -51.416 C 79.7363 -51.4648 80.0293 -51.709 80.0293 -52.1484 C 80.0293 -52.5879 79.7363 -52.832 79.3457 -52.9297 C 68.8965 -54.9805 68.7988 -54.6875 67.2363 -64.9902 C 67.1875 -65.4297 66.8945 -65.6738 66.5039 -65.6738 C 66.1133 -65.6738 65.8203 -65.4297 65.7715 -64.9902 C 64.1602 -54.6875 64.2578 -54.834 53.6621 -52.9297 C 53.2715 -52.832 52.9785 -52.5879 52.9785 -52.1484 C 52.9785 -51.709 53.2715 -51.4648 53.6621 -51.416 C 64.3066 -49.4629 64.4043 -49.6094 65.7715 -39.3066 C 65.8203 -38.916 66.1133 -38.6719 66.5039 -38.6719 Z M 38.1836 -3.27148 C 51.6602 -3.27148 62.3535 -9.76562 67.6758 -20.7031 C 68.1152 -21.6797 68.0664 -22.5586 67.627 -22.998 C 67.1875 -23.4863 66.4551 -23.5352 65.4785 -23.1934 C 62.3535 -22.0215 58.8379 -21.2891 54.2969 -21.2891 C 36.2793 -21.2891 25.1953 -32.3242 25.1953 -50.293 C 25.1953 -54.8828 26.0254 -59.082 27.4902 -62.0605 C 27.9297 -63.0859 27.9297 -63.916 27.4414 -64.4531 C 26.9043 -64.9902 25.9766 -65.0391 24.7559 -64.4531 C 14.2578 -59.082 6.83594 -47.8516 6.83594 -34.375 C 6.83594 -16.6504 19.0918 -3.27148 38.1836 -3.27148 Z"/>
  </g>
  <g id="Ultralight-S" transform="matrix(1 0 0 1 516.938 696)">
   <path d="M 47.4121 -62.7441 C 47.5586 -62.7441 47.6562 -62.793 47.7051 -62.9883 C 48.6328 -69.6289 48.877 -70.1172 55.9082 -71.2402 C 56.1523 -71.2891 56.25 -71.3867 56.25 -71.582 C 56.25 -71.8262 56.1523 -71.9238 55.9082 -71.9727 C 48.9258 -73.3887 48.6328 -73.6816 47.7051 -80.1758 C 47.6562 -80.4199 47.5586 -80.4688 47.4121 -80.4688 C 47.2656 -80.4688 47.1191 -80.4199 47.0703 -80.1758 C 46.0938 -73.6816 45.9961 -73.3887 38.916 -71.9727 C 38.6719 -71.9238 38.5254 -71.8262 38.5254 -71.582 C 38.5254 -71.3867 38.6719 -71.2891 38.916 -71.2402 C 46.0449 -70.1172 46.0938 -69.6289 47.0703 -62.9883 C 47.1191 -62.793 47.2656 -62.7441 47.4121 -62.7441 Z M 65.6738 -39.1602 C 65.918 -39.1602 66.1621 -39.3066 66.2109 -39.6484 C 67.8711 -49.9512 67.7246 -49.7559 78.2227 -51.6602 C 78.5156 -51.709 78.7109 -51.8555 78.7109 -52.1973 C 78.7109 -52.4902 78.5156 -52.6855 78.2227 -52.7344 C 67.7734 -54.834 67.8711 -54.4434 66.2109 -64.7461 C 66.1621 -65.0879 65.918 -65.2344 65.6738 -65.2344 C 65.3809 -65.2344 65.1855 -65.0879 65.1367 -64.7461 C 63.4277 -54.4922 63.7207 -54.7852 53.125 -52.7344 C 52.832 -52.6855 52.6367 -52.4902 52.6367 -52.1973 C 52.6367 -51.8555 52.832 -51.709 53.125 -51.6602 C 63.7695 -49.7559 63.7207 -49.9512 65.1367 -39.6484 C 65.1855 -39.3066 65.3809 -39.1602 65.6738 -39.1602 Z M 37.5 -3.80859 C 50.8789 -3.80859 61.4258 -10.0586 66.6992 -20.6543 C 67.1387 -21.4844 67.1387 -22.2168 66.748 -22.5586 C 66.4062 -22.998 65.7227 -23.0469 64.8926 -22.7539 C 61.7676 -21.6309 58.3008 -20.8008 53.5645 -20.8008 C 35.3027 -20.8008 24.2188 -31.9336 24.2188 -50.3418 C 24.2188 -54.7852 25.0488 -58.7891 26.5625 -62.0605 C 27.002 -62.9395 26.9531 -63.623 26.4648 -64.1113 C 26.0254 -64.5508 25.1953 -64.5508 24.1211 -63.9648 C 14.1113 -58.3496 6.83594 -47.5586 6.83594 -34.2773 C 6.83594 -16.9922 18.5059 -3.80859 37.5 -3.80859 Z"/>
  </g>
 </g>
</svg>
