<?xml version="1.0" encoding="UTF-8"?>
<!--Generator: Apple Native CoreSVG 123-->
<!DOCTYPE svg
PUBLIC "-//W3C//DTD SVG 1.1//EN"
       "http://www.w3.org/Graphics/SVG/1.1/DTD/svg11.dtd">
<svg version="1.1" xmlns="http://www.w3.org/2000/svg" xmlns:xlink="http://www.w3.org/1999/xlink" width="3300" height="2200">
 <!--glyph: "uni1001B2.medium", point size: 100.000000, font version: "Version 15.0d7e11", template writer version: "5"-->
 <g id="Notes">
  <rect height="2200" id="artboard" style="fill:white;opacity:1" width="3300" x="0" y="0"/>
  <line id="" style="fill:none;stroke:black;opacity:1;stroke-width:0.5;" x1="263" x2="3036" y1="292" y2="292"/>
  <text style="stroke:none;fill:black;font-family:-apple-system,&quot;SF Pro Display&quot;,&quot;SF Pro Text&quot;,Helvetica,sans-serif;font-weight:bold;" transform="matrix(1 0 0 1 263 322)">Weight/Scale Variations</text>
  <text style="stroke:none;fill:black;font-family:-apple-system,&quot;SF Pro Display&quot;,&quot;SF Pro Text&quot;,Helvetica,sans-serif;text-anchor:middle;" transform="matrix(1 0 0 1 559.711 322)">Ultralight</text>
  <text style="stroke:none;fill:black;font-family:-apple-system,&quot;SF Pro Display&quot;,&quot;SF Pro Text&quot;,Helvetica,sans-serif;text-anchor:middle;" transform="matrix(1 0 0 1 856.422 322)">Thin</text>
  <text style="stroke:none;fill:black;font-family:-apple-system,&quot;SF Pro Display&quot;,&quot;SF Pro Text&quot;,Helvetica,sans-serif;text-anchor:middle;" transform="matrix(1 0 0 1 1153.13 322)">Light</text>
  <text style="stroke:none;fill:black;font-family:-apple-system,&quot;SF Pro Display&quot;,&quot;SF Pro Text&quot;,Helvetica,sans-serif;text-anchor:middle;" transform="matrix(1 0 0 1 1449.84 322)">Regular</text>
  <text style="stroke:none;fill:black;font-family:-apple-system,&quot;SF Pro Display&quot;,&quot;SF Pro Text&quot;,Helvetica,sans-serif;text-anchor:middle;" transform="matrix(1 0 0 1 1746.56 322)">Medium</text>
  <text style="stroke:none;fill:black;font-family:-apple-system,&quot;SF Pro Display&quot;,&quot;SF Pro Text&quot;,Helvetica,sans-serif;text-anchor:middle;" transform="matrix(1 0 0 1 2043.27 322)">Semibold</text>
  <text style="stroke:none;fill:black;font-family:-apple-system,&quot;SF Pro Display&quot;,&quot;SF Pro Text&quot;,Helvetica,sans-serif;text-anchor:middle;" transform="matrix(1 0 0 1 2339.98 322)">Bold</text>
  <text style="stroke:none;fill:black;font-family:-apple-system,&quot;SF Pro Display&quot;,&quot;SF Pro Text&quot;,Helvetica,sans-serif;text-anchor:middle;" transform="matrix(1 0 0 1 2636.69 322)">Heavy</text>
  <text style="stroke:none;fill:black;font-family:-apple-system,&quot;SF Pro Display&quot;,&quot;SF Pro Text&quot;,Helvetica,sans-serif;text-anchor:middle;" transform="matrix(1 0 0 1 2933.4 322)">Black</text>
  <line id="" style="fill:none;stroke:black;opacity:1;stroke-width:0.5;" x1="263" x2="3036" y1="1903" y2="1903"/>
  <g id="" transform="matrix(1 0 0 1 263 1933)">
   <path d="M 9.24805 0.830078 C 13.5547 0.830078 17.1387 -2.74414 17.1387 -7.05078 C 17.1387 -11.3574 13.5449 -14.9316 9.23828 -14.9316 C 4.94141 -14.9316 1.36719 -11.3574 1.36719 -7.05078 C 1.36719 -2.74414 4.95117 0.830078 9.24805 0.830078 Z M 9.24805 -0.654297 C 5.70312 -0.654297 2.87109 -3.49609 2.87109 -7.05078 C 2.87109 -10.6055 5.69336 -13.4473 9.23828 -13.4473 C 12.793 -13.4473 15.6348 -10.6055 15.6445 -7.05078 C 15.6543 -3.49609 12.8027 -0.654297 9.24805 -0.654297 Z M 9.22852 -3.42773 C 9.69727 -3.42773 9.9707 -3.74023 9.9707 -4.25781 L 9.9707 -6.31836 L 12.1973 -6.31836 C 12.6953 -6.31836 13.0371 -6.57227 13.0371 -7.04102 C 13.0371 -7.51953 12.7148 -7.7832 12.1973 -7.7832 L 9.9707 -7.7832 L 9.9707 -10.0098 C 9.9707 -10.5273 9.69727 -10.8496 9.22852 -10.8496 C 8.75977 -10.8496 8.50586 -10.5078 8.50586 -10.0098 L 8.50586 -7.7832 L 6.29883 -7.7832 C 5.78125 -7.7832 5.44922 -7.51953 5.44922 -7.04102 C 5.44922 -6.57227 5.80078 -6.31836 6.29883 -6.31836 L 8.50586 -6.31836 L 8.50586 -4.25781 C 8.50586 -3.75977 8.75977 -3.42773 9.22852 -3.42773 Z"/>
  </g>
  <g id="" transform="matrix(1 0 0 1 281.506 1933)">
   <path d="M 11.709 2.91016 C 17.1582 2.91016 21.6699 -1.60156 21.6699 -7.05078 C 21.6699 -12.4902 17.1484 -17.0117 11.6992 -17.0117 C 6.25977 -17.0117 1.74805 -12.4902 1.74805 -7.05078 C 1.74805 -1.60156 6.26953 2.91016 11.709 2.91016 Z M 11.709 1.25 C 7.09961 1.25 3.41797 -2.44141 3.41797 -7.05078 C 3.41797 -11.6504 7.08984 -15.3516 11.6992 -15.3516 C 16.3086 -15.3516 20 -11.6504 20.0098 -7.05078 C 20.0195 -2.44141 16.3184 1.25 11.709 1.25 Z M 11.6895 -2.41211 C 12.207 -2.41211 12.5195 -2.77344 12.5195 -3.33984 L 12.5195 -6.23047 L 15.5762 -6.23047 C 16.123 -6.23047 16.5039 -6.51367 16.5039 -7.03125 C 16.5039 -7.55859 16.1426 -7.86133 15.5762 -7.86133 L 12.5195 -7.86133 L 12.5195 -10.9277 C 12.5195 -11.5039 12.207 -11.8555 11.6895 -11.8555 C 11.1719 -11.8555 10.8789 -11.4844 10.8789 -10.9277 L 10.8789 -7.86133 L 7.83203 -7.86133 C 7.26562 -7.86133 6.89453 -7.55859 6.89453 -7.03125 C 6.89453 -6.51367 7.28516 -6.23047 7.83203 -6.23047 L 10.8789 -6.23047 L 10.8789 -3.33984 C 10.8789 -2.79297 11.1719 -2.41211 11.6895 -2.41211 Z"/>
  </g>
  <g id="" transform="matrix(1 0 0 1 304.924 1933)">
   <path d="M 14.9707 5.67383 C 21.9336 5.67383 27.6953 -0.078125 27.6953 -7.04102 C 27.6953 -14.0039 21.9238 -19.7559 14.9609 -19.7559 C 8.00781 -19.7559 2.25586 -14.0039 2.25586 -7.04102 C 2.25586 -0.078125 8.01758 5.67383 14.9707 5.67383 Z M 14.9707 3.85742 C 8.93555 3.85742 4.08203 -1.00586 4.08203 -7.04102 C 4.08203 -13.0762 8.92578 -17.9395 14.9609 -17.9395 C 21.0059 -17.9395 25.8594 -13.0762 25.8691 -7.04102 C 25.8789 -1.00586 21.0156 3.85742 14.9707 3.85742 Z M 14.9512 -1.06445 C 15.5176 -1.06445 15.8691 -1.45508 15.8691 -2.06055 L 15.8691 -6.13281 L 20.1074 -6.13281 C 20.6934 -6.13281 21.1133 -6.46484 21.1133 -7.02148 C 21.1133 -7.59766 20.7227 -7.93945 20.1074 -7.93945 L 15.8691 -7.93945 L 15.8691 -12.1875 C 15.8691 -12.8027 15.5176 -13.1934 14.9512 -13.1934 C 14.3848 -13.1934 14.0625 -12.7832 14.0625 -12.1875 L 14.0625 -7.93945 L 9.83398 -7.93945 C 9.21875 -7.93945 8.80859 -7.59766 8.80859 -7.02148 C 8.80859 -6.46484 9.23828 -6.13281 9.83398 -6.13281 L 14.0625 -6.13281 L 14.0625 -2.06055 C 14.0625 -1.47461 14.3848 -1.06445 14.9512 -1.06445 Z"/>
  </g>
  <text style="stroke:none;fill:black;font-family:-apple-system,&quot;SF Pro Display&quot;,&quot;SF Pro Text&quot;,Helvetica,sans-serif;font-weight:bold;" transform="matrix(1 0 0 1 263 1953)">Design Variations</text>
  <text style="stroke:none;fill:black;font-family:-apple-system,&quot;SF Pro Display&quot;,&quot;SF Pro Text&quot;,Helvetica,sans-serif;" transform="matrix(1 0 0 1 263 1971)">Symbols are supported in up to nine weights and three scales.</text>
  <text style="stroke:none;fill:black;font-family:-apple-system,&quot;SF Pro Display&quot;,&quot;SF Pro Text&quot;,Helvetica,sans-serif;" transform="matrix(1 0 0 1 263 1989)">For optimal layout with text and other symbols, vertically align</text>
  <text style="stroke:none;fill:black;font-family:-apple-system,&quot;SF Pro Display&quot;,&quot;SF Pro Text&quot;,Helvetica,sans-serif;" transform="matrix(1 0 0 1 263 2007)">symbols with the adjacent text.</text>
  <rect height="14" id="" style="fill:#00AEEF;stroke:none;opacity:0.4;" width="3" x="776" y="1919"/>
  <g id="" transform="matrix(1 0 0 1 779 1933)">
   <path d="M 10.5273 0 L 12.373 0 L 7.17773 -14.0918 L 5.43945 -14.0918 L 0.244141 0 L 2.08984 0 L 3.50586 -4.0332 L 9.11133 -4.0332 Z M 6.2793 -11.9531 L 6.33789 -11.9531 L 8.59375 -5.52734 L 4.02344 -5.52734 Z"/>
  </g>
  <rect height="14" id="" style="fill:#00AEEF;stroke:none;opacity:0.4;" width="3" x="791.617" y="1919"/>
  <text style="stroke:none;fill:black;font-family:-apple-system,&quot;SF Pro Display&quot;,&quot;SF Pro Text&quot;,Helvetica,sans-serif;font-weight:bold;" transform="matrix(1 0 0 1 776 1953)">Margins</text>
  <text style="stroke:none;fill:black;font-family:-apple-system,&quot;SF Pro Display&quot;,&quot;SF Pro Text&quot;,Helvetica,sans-serif;" transform="matrix(1 0 0 1 776 1971)">Leading and trailing margins on the left and right side of each symbol</text>
  <text style="stroke:none;fill:black;font-family:-apple-system,&quot;SF Pro Display&quot;,&quot;SF Pro Text&quot;,Helvetica,sans-serif;" transform="matrix(1 0 0 1 776 1989)">can be adjusted by modifying the width of the blue rectangles.</text>
  <text style="stroke:none;fill:black;font-family:-apple-system,&quot;SF Pro Display&quot;,&quot;SF Pro Text&quot;,Helvetica,sans-serif;" transform="matrix(1 0 0 1 776 2007)">Modifications are automatically applied proportionally to all</text>
  <text style="stroke:none;fill:black;font-family:-apple-system,&quot;SF Pro Display&quot;,&quot;SF Pro Text&quot;,Helvetica,sans-serif;" transform="matrix(1 0 0 1 776 2025)">scales and weights.</text>
  <g id="" transform="matrix(1 0 0 1 1289 1933)">
   <path d="M 2.83203 3.11523 L 4.375 4.6582 C 5.22461 5.48828 6.19141 5.41992 7.06055 4.46289 L 17.2754 -6.66016 C 17.7051 -6.36719 18.0957 -6.37695 18.5645 -6.47461 L 19.6094 -6.68945 L 20.3027 -5.99609 L 20.2539 -5.47852 C 20.1855 -4.95117 20.3516 -4.53125 20.8496 -4.0332 L 21.6602 -3.22266 C 22.168 -2.71484 22.8223 -2.68555 23.3008 -3.16406 L 26.5527 -6.41602 C 27.0312 -6.89453 27.0117 -7.54883 26.5039 -8.05664 L 25.6836 -8.87695 C 25.1855 -9.375 24.7754 -9.55078 24.2383 -9.47266 L 23.7109 -9.41406 L 23.0566 -10.0781 L 23.3398 -11.2207 C 23.4863 -11.7871 23.3398 -12.2559 22.7148 -12.8613 L 20.3027 -15.2539 C 16.7578 -18.7793 12.2266 -18.6719 9.11133 -15.5371 C 8.69141 -15.1074 8.64258 -14.5215 8.91602 -14.0918 C 9.15039 -13.7207 9.62891 -13.4961 10.2734 -13.6621 C 11.7871 -14.043 13.3008 -13.9258 14.7852 -12.9199 L 14.1602 -11.3379 C 13.9258 -10.752 13.9453 -10.2734 14.1797 -9.83398 L 3.01758 0.439453 C 2.08008 1.30859 1.97266 2.25586 2.83203 3.11523 Z M 10.6738 -15.1465 C 13.3398 -17.1387 16.6504 -16.8262 19.0527 -14.4141 L 21.6797 -11.8066 C 21.9141 -11.5723 21.9434 -11.3867 21.8848 -11.0938 L 21.5039 -9.53125 L 23.0762 -7.95898 L 24.043 -8.04688 C 24.3262 -8.07617 24.4141 -8.05664 24.6387 -7.83203 L 25.2637 -7.20703 L 22.5098 -4.46289 L 21.8848 -5.07812 C 21.6602 -5.30273 21.6406 -5.40039 21.6699 -5.68359 L 21.7578 -6.64062 L 20.1953 -8.20312 L 18.5742 -7.89062 C 18.291 -7.83203 18.1445 -7.83203 17.9102 -8.07617 L 15.7324 -10.2539 C 15.5078 -10.4883 15.4785 -10.625 15.6055 -10.9473 L 16.5527 -13.2227 C 14.9512 -14.7559 12.8418 -15.6055 10.8008 -14.9512 C 10.7129 -14.9219 10.6445 -14.9414 10.6152 -14.9805 C 10.5859 -15.0293 10.5859 -15.0781 10.6738 -15.1465 Z M 4.10156 2.41211 C 3.61328 1.91406 3.78906 1.61133 4.12109 1.30859 L 15.0781 -8.80859 L 16.3086 -7.57812 L 6.15234 3.34961 C 5.84961 3.68164 5.46875 3.7793 5.06836 3.37891 Z"/>
  </g>
  <text style="stroke:none;fill:black;font-family:-apple-system,&quot;SF Pro Display&quot;,&quot;SF Pro Text&quot;,Helvetica,sans-serif;font-weight:bold;" transform="matrix(1 0 0 1 1289 1953)">Exporting</text>
  <text style="stroke:none;fill:black;font-family:-apple-system,&quot;SF Pro Display&quot;,&quot;SF Pro Text&quot;,Helvetica,sans-serif;" transform="matrix(1 0 0 1 1289 1971)">Symbols should be outlined when exporting to ensure the</text>
  <text style="stroke:none;fill:black;font-family:-apple-system,&quot;SF Pro Display&quot;,&quot;SF Pro Text&quot;,Helvetica,sans-serif;" transform="matrix(1 0 0 1 1289 1989)">design is preserved when submitting to Xcode.</text>
  <text id="template-version" style="stroke:none;fill:black;font-family:-apple-system,&quot;SF Pro Display&quot;,&quot;SF Pro Text&quot;,Helvetica,sans-serif;text-anchor:end;" transform="matrix(1 0 0 1 3036 1933)">Template v.1.0</text>
  <text style="stroke:none;fill:black;font-family:-apple-system,&quot;SF Pro Display&quot;,&quot;SF Pro Text&quot;,Helvetica,sans-serif;text-anchor:end;" transform="matrix(1 0 0 1 3036 1951)">Generated from sunrise.fill</text>
  <text style="stroke:none;fill:black;font-family:-apple-system,&quot;SF Pro Display&quot;,&quot;SF Pro Text&quot;,Helvetica,sans-serif;text-anchor:end;" transform="matrix(1 0 0 1 3036 1969)">Typeset at 100 points</text>
  <text style="stroke:none;fill:black;font-family:-apple-system,&quot;SF Pro Display&quot;,&quot;SF Pro Text&quot;,Helvetica,sans-serif;" transform="matrix(1 0 0 1 263 726)">Small</text>
  <text style="stroke:none;fill:black;font-family:-apple-system,&quot;SF Pro Display&quot;,&quot;SF Pro Text&quot;,Helvetica,sans-serif;" transform="matrix(1 0 0 1 263 1156)">Medium</text>
  <text style="stroke:none;fill:black;font-family:-apple-system,&quot;SF Pro Display&quot;,&quot;SF Pro Text&quot;,Helvetica,sans-serif;" transform="matrix(1 0 0 1 263 1586)">Large</text>
 </g>
 <g id="Guides">
  <g id="H-reference" style="fill:#27AAE1;stroke:none;" transform="matrix(1 0 0 1 339 696)">
   <path d="M 54.9316 0 L 57.666 0 L 30.5664 -70.459 L 28.0762 -70.459 L 0.976562 0 L 3.66211 0 L 12.9395 -24.4629 L 45.7031 -24.4629 Z M 29.1992 -67.0898 L 29.4434 -67.0898 L 44.8242 -26.709 L 13.8184 -26.709 Z"/>
  </g>
  <line id="Baseline-S" style="fill:none;stroke:#27AAE1;opacity:1;stroke-width:0.577;" x1="263" x2="3036" y1="696" y2="696"/>
  <line id="Capline-S" style="fill:none;stroke:#27AAE1;opacity:1;stroke-width:0.577;" x1="263" x2="3036" y1="625.541" y2="625.541"/>
  <g id="H-reference" style="fill:#27AAE1;stroke:none;" transform="matrix(1 0 0 1 339 1126)">
   <path d="M 54.9316 0 L 57.666 0 L 30.5664 -70.459 L 28.0762 -70.459 L 0.976562 0 L 3.66211 0 L 12.9395 -24.4629 L 45.7031 -24.4629 Z M 29.1992 -67.0898 L 29.4434 -67.0898 L 44.8242 -26.709 L 13.8184 -26.709 Z"/>
  </g>
  <line id="Baseline-M" style="fill:none;stroke:#27AAE1;opacity:1;stroke-width:0.577;" x1="263" x2="3036" y1="1126" y2="1126"/>
  <line id="Capline-M" style="fill:none;stroke:#27AAE1;opacity:1;stroke-width:0.577;" x1="263" x2="3036" y1="1055.54" y2="1055.54"/>
  <g id="H-reference" style="fill:#27AAE1;stroke:none;" transform="matrix(1 0 0 1 339 1556)">
   <path d="M 54.9316 0 L 57.666 0 L 30.5664 -70.459 L 28.0762 -70.459 L 0.976562 0 L 3.66211 0 L 12.9395 -24.4629 L 45.7031 -24.4629 Z M 29.1992 -67.0898 L 29.4434 -67.0898 L 44.8242 -26.709 L 13.8184 -26.709 Z"/>
  </g>
  <line id="Baseline-L" style="fill:none;stroke:#27AAE1;opacity:1;stroke-width:0.577;" x1="263" x2="3036" y1="1556" y2="1556"/>
  <line id="Capline-L" style="fill:none;stroke:#27AAE1;opacity:1;stroke-width:0.577;" x1="263" x2="3036" y1="1485.54" y2="1485.54"/>
  <rect height="119.336" id="left-margin" style="fill:#00AEEF;stroke:none;opacity:0.4;" width="12.4512" x="1374.82" y="1030.79"/>
  <rect height="119.336" id="right-margin" style="fill:#00AEEF;stroke:none;opacity:0.4;" width="12.4512" x="1512.42" y="1030.79"/>
 </g>
 <g id="Symbols">
  <g id="Black-L" transform="matrix(1 0 0 1 2836.6 1556)">
   <path d="M 96.8262 -62.3535 C 100.879 -62.3535 104.199 -65.8691 104.199 -70.0195 L 104.15 -88.0371 L 102.734 -99.1699 L 106.494 -93.2617 L 111.426 -87.5488 C 112.939 -85.6934 114.746 -84.3262 117.334 -84.3262 C 121.24 -84.3262 124.17 -87.3047 124.17 -90.9668 C 124.17 -93.3105 122.803 -95.3125 120.947 -97.0703 L 102.393 -114.6 C 100.488 -116.357 98.9258 -117.09 96.8262 -117.09 C 94.6777 -117.09 93.1152 -116.357 91.2109 -114.6 L 72.6562 -97.0703 C 70.8008 -95.3125 69.4336 -93.3105 69.4336 -90.9668 C 69.4336 -87.3047 72.3633 -84.3262 76.2695 -84.3262 C 78.9062 -84.3262 80.6641 -85.6934 82.1777 -87.5488 L 87.3535 -93.457 L 90.8691 -99.1699 L 89.4531 -88.0371 L 89.4043 -70.0195 C 89.4043 -65.8691 92.7734 -62.3535 96.8262 -62.3535 Z M 129.492 -47.2168 C 132.373 -44.3848 137.158 -44.4824 140.137 -47.5098 L 148.047 -55.2246 C 151.074 -58.3008 151.074 -63.0859 148.193 -65.9668 C 145.312 -68.8477 140.576 -68.7988 137.549 -65.7227 L 129.639 -57.9102 C 126.66 -54.9316 126.611 -50.0977 129.492 -47.2168 Z M 53.4668 -47.5098 C 56.4453 -44.4824 61.2793 -44.3359 64.1602 -47.2168 C 66.9922 -50.0977 66.9434 -54.9316 63.9648 -57.9102 L 56.1035 -65.7227 C 53.0273 -68.7988 48.291 -68.7988 45.4102 -65.9668 C 42.5293 -63.0859 42.5293 -58.3008 45.6055 -55.2246 Z M 25.1465 20.7031 L 168.457 20.7031 C 173.535 20.7031 177.539 16.3574 177.539 11.4746 C 177.539 6.39648 173.584 2.24609 168.457 2.24609 L 126.807 2.24609 C 129.688 -2.7832 131.299 -8.59375 131.299 -14.7461 C 131.299 -33.8867 115.82 -49.4141 96.8262 -49.4141 C 77.7832 -49.4141 62.3047 -33.8867 62.3047 -14.7461 C 62.3047 -8.59375 63.9648 -2.7832 66.7969 2.24609 L 25.1465 2.24609 C 20.0684 2.24609 16.0645 6.54297 16.0645 11.4746 C 16.0645 16.2109 20.166 20.7031 25.1465 20.7031 Z M 31.7871 -12.3047 L 42.8711 -12.207 C 47.168 -12.207 50.6348 -15.625 50.5859 -19.6777 C 50.5859 -23.7793 47.168 -27.0996 42.8711 -27.0996 L 31.7871 -27.0996 C 27.5879 -27.0996 24.1211 -23.7793 24.1211 -19.6777 C 24.1211 -15.625 27.6367 -12.3047 31.7871 -12.3047 Z M 150.732 -12.3047 L 161.816 -12.3047 C 166.113 -12.3047 169.482 -15.625 169.482 -19.6777 C 169.482 -23.7793 166.113 -27.0996 161.816 -27.0996 L 150.732 -27.0996 C 146.484 -27.0996 143.018 -23.7793 143.018 -19.6777 C 143.018 -15.625 146.533 -12.3047 150.732 -12.3047 Z"/>
  </g>
  <g id="Heavy-L" transform="matrix(1 0 0 1 2539.89 1556)">
   <path d="M 96.8262 -62.9395 C 100.439 -62.9395 103.467 -66.0645 103.467 -69.873 L 103.467 -89.4043 L 102.197 -100.244 L 106.299 -94.3359 L 112.109 -87.9883 C 113.428 -86.377 115.039 -85.2051 117.285 -85.2051 C 120.801 -85.2051 123.389 -87.8418 123.389 -91.1133 C 123.389 -93.2129 122.266 -94.9219 120.605 -96.5332 L 101.758 -114.307 C 100.049 -115.918 98.6816 -116.553 96.8262 -116.553 C 94.9707 -116.553 93.5547 -115.918 91.8457 -114.307 L 72.998 -96.5332 C 71.3867 -94.9219 70.2148 -93.2129 70.2148 -91.1133 C 70.2148 -87.8418 72.8027 -85.2051 76.3184 -85.2051 C 78.5645 -85.2051 80.1758 -86.377 81.543 -87.9883 L 87.5977 -94.6289 L 91.4062 -100.244 L 90.1855 -89.4043 L 90.1367 -69.873 C 90.1367 -66.0645 93.1641 -62.9395 96.8262 -62.9395 Z M 129.443 -47.2168 C 132.031 -44.6777 136.377 -44.7266 139.111 -47.4609 L 147.998 -56.2988 C 150.83 -59.082 150.781 -63.3789 148.193 -66.0156 C 145.605 -68.6035 141.357 -68.5547 138.525 -65.7715 L 129.639 -56.9336 C 126.904 -54.1992 126.807 -49.8047 129.443 -47.2168 Z M 54.4922 -47.4609 C 57.2266 -44.7266 61.6211 -44.6289 64.1602 -47.2168 C 66.748 -49.8535 66.6992 -54.1992 63.9648 -56.9336 L 55.0781 -65.7715 C 52.2949 -68.5547 47.998 -68.5547 45.4102 -66.0156 C 42.8223 -63.4277 42.8223 -59.082 45.6055 -56.2988 Z M 24.1211 19.2383 L 169.482 19.2383 C 173.975 19.2383 177.539 15.4785 177.539 11.1816 C 177.539 6.73828 174.023 3.125 169.482 3.125 L 125.977 3.125 C 129.248 -2.09961 131.104 -8.20312 131.104 -14.7949 C 131.104 -33.7402 115.674 -49.2188 96.8262 -49.2188 C 77.9297 -49.2188 62.5 -33.7402 62.5 -14.7949 C 62.5 -8.20312 64.4043 -2.09961 67.627 3.125 L 24.1211 3.125 C 19.6289 3.125 16.0645 6.83594 16.0645 11.1816 C 16.0645 15.3809 19.6777 19.2383 24.1211 19.2383 Z M 31.1035 -12.207 L 43.6523 -12.1582 C 47.5586 -12.1582 50.6836 -15.2344 50.6836 -18.8965 C 50.6348 -22.5586 47.5586 -25.5859 43.6523 -25.5859 L 31.1035 -25.5859 C 27.1973 -25.5859 24.1211 -22.5586 24.1211 -18.8965 C 24.1211 -15.2344 27.2461 -12.207 31.1035 -12.207 Z M 149.951 -12.207 L 162.5 -12.207 C 166.455 -12.207 169.482 -15.2344 169.482 -18.8965 C 169.482 -22.5586 166.455 -25.5859 162.5 -25.5859 L 149.951 -25.5859 C 146.094 -25.5859 142.92 -22.5586 142.969 -18.8965 C 142.969 -15.2344 146.143 -12.207 149.951 -12.207 Z"/>
  </g>
  <g id="Bold-L" transform="matrix(1 0 0 1 2243.18 1556)">
   <path d="M 96.8262 -63.5254 C 100 -63.5254 102.686 -66.3574 102.686 -69.7266 L 102.686 -90.918 L 101.66 -101.465 L 106.104 -95.6055 L 112.842 -88.4277 C 114.014 -87.1094 115.43 -86.1816 117.236 -86.1816 C 120.264 -86.1816 122.51 -88.4277 122.51 -91.3574 C 122.51 -93.1152 121.631 -94.5312 120.215 -95.8984 L 101.074 -113.965 C 99.5605 -115.381 98.3887 -115.918 96.8262 -115.918 C 95.2637 -115.918 94.043 -115.381 92.5293 -113.965 L 73.3887 -95.8984 C 71.9727 -94.5312 71.0938 -93.1152 71.0938 -91.3574 C 71.0938 -88.4277 73.3398 -86.1816 76.3672 -86.1816 C 78.1738 -86.1816 79.6387 -87.1094 80.7617 -88.4277 L 87.8418 -95.9473 L 91.9922 -101.465 L 90.9668 -90.918 L 90.918 -69.7266 C 90.918 -66.3574 93.6035 -63.5254 96.8262 -63.5254 Z M 129.395 -47.2168 C 131.689 -44.9707 135.498 -45.0195 137.939 -47.4609 L 147.998 -57.4707 C 150.537 -59.9609 150.439 -63.7207 148.193 -66.0156 C 145.947 -68.3105 142.188 -68.3105 139.648 -65.8203 L 129.59 -55.7617 C 127.148 -53.3203 127.1 -49.4629 129.395 -47.2168 Z M 55.6641 -47.4609 C 58.1055 -45.0195 61.9629 -44.9219 64.209 -47.2168 C 66.5039 -49.5117 66.4551 -53.3203 64.0137 -55.7617 L 53.9551 -65.8203 C 51.416 -68.3105 47.7051 -68.2617 45.4102 -66.0156 C 43.1152 -63.7695 43.1152 -59.9609 45.6055 -57.4707 Z M 22.9492 17.627 L 170.654 17.627 C 174.463 17.627 177.539 14.4531 177.539 10.8398 C 177.539 7.12891 174.512 4.10156 170.654 4.10156 L 125.049 4.10156 C 128.711 -1.31836 130.908 -7.76367 130.908 -14.7949 C 130.908 -33.5449 115.527 -48.9746 96.8262 -48.9746 C 78.0762 -48.9746 62.6953 -33.5449 62.6953 -14.7949 C 62.6953 -7.76367 64.8926 -1.31836 68.6035 4.10156 L 22.9492 4.10156 C 19.1406 4.10156 16.0645 7.22656 16.0645 10.8398 C 16.0645 14.4043 19.1895 17.627 22.9492 17.627 Z M 30.3223 -12.1094 L 44.4824 -12.1094 C 48.0469 -12.1094 50.7812 -14.7949 50.7324 -18.0176 C 50.6836 -21.2402 47.998 -23.877 44.4824 -23.877 L 30.3223 -23.877 C 26.8555 -23.877 24.1211 -21.2402 24.1211 -18.0176 C 24.1211 -14.7949 26.8555 -12.1094 30.3223 -12.1094 Z M 149.121 -12.1094 L 163.33 -12.1094 C 166.797 -12.1094 169.482 -14.7949 169.482 -18.0176 C 169.482 -21.2402 166.797 -23.877 163.33 -23.877 L 149.121 -23.877 C 145.654 -23.877 142.822 -21.2402 142.871 -18.0176 C 142.92 -14.7949 145.654 -12.1094 149.121 -12.1094 Z"/>
  </g>
  <g id="Semibold-L" transform="matrix(1 0 0 1 1946.46 1556)">
   <path d="M 96.8262 -63.9648 C 99.707 -63.9648 102.148 -66.5039 102.148 -69.6289 L 102.1 -91.9434 L 101.221 -102.246 L 105.957 -96.4355 L 113.379 -88.7695 C 114.404 -87.5977 115.674 -86.8652 117.188 -86.8652 C 119.922 -86.8652 121.924 -88.8184 121.924 -91.4551 C 121.924 -93.0176 121.191 -94.2383 119.971 -95.459 L 100.586 -113.77 C 99.2188 -115.039 98.1445 -115.527 96.8262 -115.527 C 95.459 -115.527 94.3848 -115.039 93.0176 -113.77 L 73.6328 -95.459 C 72.4121 -94.2383 71.6797 -93.0176 71.6797 -91.4551 C 71.6797 -88.8184 73.6816 -86.8652 76.416 -86.8652 C 77.9297 -86.8652 79.248 -87.5977 80.2734 -88.7695 L 88.0371 -96.8262 L 92.3828 -102.246 L 91.5039 -91.9434 L 91.4551 -69.6289 C 91.4551 -66.5039 93.8965 -63.9648 96.8262 -63.9648 Z M 129.346 -47.2168 C 131.445 -45.166 134.863 -45.2148 137.158 -47.4609 L 147.998 -58.3008 C 150.293 -60.5957 150.244 -63.9648 148.193 -66.0645 C 146.191 -68.1152 142.773 -68.1152 140.43 -65.8203 L 129.59 -54.9805 C 127.344 -52.7344 127.295 -49.2676 129.346 -47.2168 Z M 56.4941 -47.4609 C 58.7402 -45.2148 62.207 -45.1172 64.2578 -47.2168 C 66.3086 -49.2676 66.2598 -52.7344 64.0137 -54.9805 L 53.1738 -65.8203 C 50.8301 -68.1152 47.4609 -68.1152 45.4102 -66.0645 C 43.3105 -64.0137 43.3105 -60.5957 45.6055 -58.3008 Z M 22.168 16.5039 L 171.484 16.5039 C 174.805 16.5039 177.539 13.8184 177.539 10.6445 C 177.539 7.42188 174.805 4.78516 171.484 4.78516 L 124.365 4.78516 C 128.369 -0.732422 130.762 -7.4707 130.762 -14.7949 C 130.762 -33.4473 115.43 -48.8281 96.8262 -48.8281 C 78.1738 -48.8281 62.8418 -33.4473 62.8418 -14.7949 C 62.8418 -7.4707 65.2344 -0.732422 69.2383 4.78516 L 22.168 4.78516 C 18.7988 4.78516 16.0645 7.4707 16.0645 10.6445 C 16.0645 13.7695 18.7988 16.5039 22.168 16.5039 Z M 29.7852 -12.0605 L 45.1172 -12.0605 C 48.3398 -12.0605 50.8301 -14.4531 50.7812 -17.3828 C 50.7324 -20.3125 48.3398 -22.7051 45.1172 -22.7051 L 29.7852 -22.7051 C 26.5625 -22.7051 24.1211 -20.3125 24.1211 -17.3828 C 24.1211 -14.4531 26.6113 -12.0605 29.7852 -12.0605 Z M 148.535 -12.0605 L 163.867 -12.0605 C 167.09 -12.0605 169.482 -14.4531 169.482 -17.3828 C 169.482 -20.3125 167.09 -22.7051 163.867 -22.7051 L 148.535 -22.7051 C 145.312 -22.7051 142.773 -20.3125 142.822 -17.3828 C 142.871 -14.4531 145.361 -12.0605 148.535 -12.0605 Z"/>
  </g>
  <g id="Medium-L" transform="matrix(1 0 0 1 1649.75 1556)">
   <path d="M 96.8262 -64.3066 C 99.4629 -64.3066 101.709 -66.6504 101.709 -69.5312 L 101.709 -92.7246 L 100.928 -102.881 L 105.859 -97.0703 L 113.77 -88.9648 C 114.697 -87.9883 115.869 -87.3535 117.188 -87.3535 C 119.678 -87.3535 121.484 -89.1602 121.484 -91.5527 C 121.484 -92.9688 120.898 -94.043 119.775 -95.1172 L 100.244 -113.574 C 98.9746 -114.746 97.998 -115.186 96.8262 -115.186 C 95.6055 -115.186 94.6289 -114.746 93.4082 -113.574 L 73.8281 -95.1172 C 72.7539 -94.043 72.1191 -92.9688 72.1191 -91.5527 C 72.1191 -89.1602 73.9258 -87.3535 76.416 -87.3535 C 77.7344 -87.3535 78.9551 -87.9883 79.8828 -88.9648 L 88.1836 -97.5098 L 92.6758 -102.881 L 91.8945 -92.7246 L 91.8945 -69.5312 C 91.8945 -66.6504 94.1406 -64.3066 96.8262 -64.3066 Z M 129.346 -47.2168 C 131.25 -45.3613 134.424 -45.3613 136.523 -47.4609 L 147.998 -58.8867 C 150.146 -61.0352 150.098 -64.1602 148.193 -66.0645 C 146.338 -67.9688 143.213 -68.0176 141.016 -65.8691 L 129.59 -54.3945 C 127.49 -52.2949 127.393 -49.0723 129.346 -47.2168 Z M 57.0801 -47.4609 C 59.1797 -45.3613 62.4023 -45.3125 64.3066 -47.2168 C 66.1621 -49.1211 66.1621 -52.2949 64.0137 -54.3945 L 52.5879 -65.8691 C 50.3906 -68.0176 47.3145 -67.9199 45.4102 -66.0645 C 43.457 -64.209 43.457 -61.0352 45.6055 -58.8867 Z M 21.5332 15.625 L 172.07 15.625 C 175.049 15.625 177.539 13.2812 177.539 10.4492 C 177.539 7.61719 175.098 5.27344 172.07 5.27344 L 123.877 5.27344 C 128.125 -0.341797 130.664 -7.27539 130.664 -14.7949 C 130.664 -33.3496 115.381 -48.7305 96.8262 -48.7305 C 78.2227 -48.7305 62.9395 -33.3496 62.9395 -14.7949 C 62.9395 -7.27539 65.4785 -0.341797 69.7266 5.27344 L 21.5332 5.27344 C 18.5547 5.27344 16.0645 7.61719 16.0645 10.4492 C 16.0645 13.2812 18.5547 15.625 21.5332 15.625 Z M 29.3457 -12.0117 L 45.5566 -12.0117 C 48.584 -12.0117 50.8789 -14.2578 50.8301 -16.9434 C 50.7812 -19.6289 48.5352 -21.8262 45.5566 -21.8262 L 29.3457 -21.8262 C 26.3672 -21.8262 24.1211 -19.6289 24.1211 -16.9434 C 24.1211 -14.2578 26.3672 -12.0117 29.3457 -12.0117 Z M 148.047 -12.0117 L 164.258 -12.0117 C 167.285 -12.0117 169.482 -14.2578 169.482 -16.9434 C 169.482 -19.6289 167.285 -21.8262 164.258 -21.8262 L 148.047 -21.8262 C 145.068 -21.8262 142.725 -19.6289 142.773 -16.9434 C 142.822 -14.2578 145.117 -12.0117 148.047 -12.0117 Z"/>
  </g>
  <g id="Regular-L" transform="matrix(1 0 0 1 1353.04 1556)">
   <path d="M 96.8262 -64.6973 C 99.1699 -64.6973 101.172 -66.8457 101.172 -69.4336 L 101.172 -93.75 L 100.537 -103.711 L 105.713 -97.9004 L 114.258 -89.3066 C 115.039 -88.4766 116.113 -88.0371 117.139 -88.0371 C 119.336 -88.0371 120.898 -89.5508 120.898 -91.6992 C 120.898 -92.8711 120.459 -93.75 119.482 -94.6777 L 99.7559 -113.379 C 98.6328 -114.404 97.8027 -114.795 96.8262 -114.795 C 95.8008 -114.795 94.9707 -114.404 93.8477 -113.379 L 74.1211 -94.6777 C 73.1445 -93.75 72.7539 -92.8711 72.7539 -91.6992 C 72.7539 -89.5508 74.3164 -88.0371 76.4648 -88.0371 C 77.4902 -88.0371 78.5645 -88.4766 79.3457 -89.3066 L 88.3789 -98.4375 L 93.0664 -103.711 L 92.4316 -93.75 L 92.4316 -69.4336 C 92.4316 -66.8457 94.4336 -64.6973 96.8262 -64.6973 Z M 129.297 -47.2168 C 131.006 -45.5566 133.838 -45.5566 135.742 -47.4609 L 147.998 -59.7168 C 149.951 -61.6699 149.854 -64.4043 148.193 -66.1133 C 146.582 -67.8223 143.799 -67.8223 141.797 -65.8691 L 129.541 -53.6621 C 127.637 -51.709 127.588 -48.877 129.297 -47.2168 Z M 57.8613 -47.4609 C 59.8145 -45.5566 62.6465 -45.5078 64.3066 -47.2168 C 65.9668 -48.9258 65.9668 -51.709 64.0625 -53.6621 L 51.8066 -65.8691 C 49.8535 -67.8223 47.0703 -67.7734 45.4102 -66.1133 C 43.7012 -64.4531 43.6523 -61.6699 45.6543 -59.7168 Z M 20.752 14.5508 L 172.852 14.5508 C 175.391 14.5508 177.539 12.5977 177.539 10.2539 C 177.539 7.86133 175.391 5.95703 172.852 5.95703 L 123.242 5.95703 C 127.783 0.244141 130.518 -6.98242 130.518 -14.7949 C 130.518 -33.252 115.283 -48.584 96.8262 -48.584 C 78.3203 -48.584 63.0859 -33.252 63.0859 -14.7949 C 63.0859 -6.98242 65.8203 0.244141 70.4102 5.95703 L 20.752 5.95703 C 18.2129 5.95703 16.0645 7.86133 16.0645 10.2539 C 16.0645 12.5977 18.2129 14.5508 20.752 14.5508 Z M 28.8086 -11.9629 L 46.1426 -11.9629 C 48.877 -11.9629 50.9277 -13.916 50.8789 -16.3086 C 50.8301 -18.7012 48.877 -20.6543 46.1426 -20.6543 L 28.8086 -20.6543 C 26.123 -20.6543 24.1211 -18.7012 24.1211 -16.3086 C 24.1211 -13.916 26.123 -11.9629 28.8086 -11.9629 Z M 147.461 -11.9629 L 164.795 -11.9629 C 167.529 -11.9629 169.482 -13.916 169.482 -16.3086 C 169.482 -18.7012 167.529 -20.6543 164.795 -20.6543 L 147.461 -20.6543 C 144.775 -20.6543 142.676 -18.7012 142.725 -16.3086 C 142.773 -13.916 144.775 -11.9629 147.461 -11.9629 Z"/>
  </g>
  <g id="Light-L" transform="matrix(1 0 0 1 1056.33 1556)">
   <path d="M 96.8262 -65.2344 C 98.6328 -65.2344 100.146 -66.8457 100.146 -68.7988 L 100.146 -94.0918 L 99.6582 -104.688 L 105.566 -98.291 L 114.99 -88.7695 C 115.625 -88.1348 116.455 -87.7441 117.236 -87.7441 C 118.945 -87.7441 120.166 -88.9648 120.166 -90.6738 C 120.166 -91.6504 119.775 -92.3828 118.994 -93.1641 L 99.0723 -112.354 C 98.291 -113.135 97.5586 -113.477 96.8262 -113.477 C 96.0449 -113.477 95.3125 -113.135 94.5312 -112.354 L 74.6094 -93.1641 C 73.8281 -92.3828 73.4375 -91.6504 73.4375 -90.6738 C 73.4375 -88.9648 74.707 -87.7441 76.3672 -87.7441 C 77.1973 -87.7441 77.9785 -88.1348 78.6133 -88.7695 L 88.3301 -98.6328 L 93.9453 -104.688 L 93.457 -94.0918 L 93.457 -68.7988 C 93.457 -66.8457 94.9707 -65.2344 96.8262 -65.2344 Z M 129.297 -47.4609 C 130.566 -46.2402 132.715 -46.2402 134.131 -47.6074 L 148.096 -61.5723 C 149.561 -62.9883 149.463 -65.0879 148.193 -66.3574 C 147.021 -67.627 144.873 -67.6758 143.408 -66.2598 L 129.443 -52.2949 C 128.076 -50.8789 128.027 -48.6816 129.297 -47.4609 Z M 59.5215 -47.6074 C 60.8887 -46.2402 63.0859 -46.1914 64.3066 -47.4609 C 65.5762 -48.7305 65.5762 -50.8789 64.1602 -52.2949 L 50.1953 -66.2598 C 48.7305 -67.6758 46.6309 -67.627 45.4102 -66.3574 C 44.0918 -65.1367 44.043 -62.9883 45.5078 -61.5723 Z M 19.6777 12.8906 L 173.975 12.8906 C 175.928 12.8906 177.539 11.4258 177.539 9.61914 C 177.539 7.8125 175.928 6.34766 173.975 6.34766 L 121.973 6.34766 C 126.953 0.585938 129.98 -6.88477 129.98 -15.0391 C 129.98 -33.2031 114.99 -48.2422 96.8262 -48.2422 C 78.6133 -48.2422 63.623 -33.2031 63.623 -15.0391 C 63.623 -6.88477 66.6992 0.585938 71.6309 6.34766 L 19.6777 6.34766 C 17.7246 6.34766 16.0645 7.8125 16.0645 9.61914 C 16.0645 11.4258 17.7246 12.8906 19.6777 12.8906 Z M 27.5879 -13.2812 L 47.3633 -13.2812 C 49.4141 -13.2812 50.9277 -14.7949 50.8789 -16.6016 C 50.8789 -18.3594 49.3652 -19.873 47.3633 -19.873 L 27.5879 -19.873 C 25.6348 -19.873 24.1211 -18.3594 24.1211 -16.6016 C 24.1211 -14.7949 25.6348 -13.2812 27.5879 -13.2812 Z M 146.24 -13.2812 L 166.016 -13.2812 C 168.018 -13.2812 169.482 -14.7949 169.482 -16.6016 C 169.482 -18.3594 168.018 -19.873 166.016 -19.873 L 146.24 -19.873 C 144.287 -19.873 142.676 -18.3594 142.725 -16.6016 C 142.773 -14.7949 144.287 -13.2812 146.24 -13.2812 Z"/>
  </g>
  <g id="Thin-L" transform="matrix(1 0 0 1 759.62 1556)">
   <path d="M 96.8262 -65.9668 C 97.9004 -65.9668 98.7793 -66.8457 98.7793 -67.9688 L 98.7793 -94.5801 L 98.4863 -105.957 L 105.371 -98.8281 L 115.918 -88.0371 C 116.406 -87.5977 116.895 -87.4023 117.383 -87.4023 C 118.408 -87.4023 119.238 -88.2324 119.238 -89.3555 C 119.238 -90.0391 118.896 -90.5762 118.311 -91.2109 L 98.2422 -111.035 C 97.8027 -111.475 97.2656 -111.719 96.8262 -111.719 C 96.3379 -111.719 95.8008 -111.475 95.3613 -111.035 L 75.293 -91.2109 C 74.707 -90.5762 74.3652 -90.0391 74.3652 -89.3555 C 74.3652 -88.2324 75.1953 -87.4023 76.2695 -87.4023 C 76.7578 -87.4023 77.2461 -87.5977 77.6855 -88.0371 L 88.2812 -98.877 L 95.1172 -105.957 L 94.8242 -94.5801 L 94.8242 -67.9688 C 94.8242 -66.8457 95.7031 -65.9668 96.8262 -65.9668 Z M 129.297 -47.8027 C 130.029 -47.1191 131.299 -47.1191 131.934 -47.7539 L 148.242 -64.0625 C 149.072 -64.7949 148.975 -66.0156 148.193 -66.6992 C 147.559 -67.4316 146.338 -67.4805 145.557 -66.748 L 129.248 -50.4883 C 128.613 -49.8047 128.564 -48.4863 129.297 -47.8027 Z M 61.6699 -47.7539 C 62.3047 -47.1191 63.623 -47.0703 64.3066 -47.8027 C 65.0391 -48.5352 65.0391 -49.8047 64.3555 -50.4883 L 48.0957 -66.748 C 47.2656 -67.4805 46.0449 -67.4316 45.4102 -66.6992 C 44.6289 -66.0156 44.5801 -64.7949 45.3613 -64.0625 Z M 18.2129 10.6934 L 175.391 10.6934 C 176.562 10.6934 177.539 9.86328 177.539 8.78906 C 177.539 7.71484 176.562 6.88477 175.391 6.88477 L 120.264 6.88477 C 125.83 1.07422 129.248 -6.78711 129.248 -15.3809 C 129.248 -33.2031 114.648 -47.8516 96.8262 -47.8516 C 78.9551 -47.8516 64.3555 -33.2031 64.3555 -15.3809 C 64.3555 -6.78711 67.8223 1.07422 73.3398 6.88477 L 18.2129 6.88477 C 17.041 6.88477 16.0645 7.71484 16.0645 8.78906 C 16.0645 9.86328 17.041 10.6934 18.2129 10.6934 Z M 25.9766 -15.0391 L 49.0234 -15.0391 C 50.1465 -15.0391 50.8789 -15.918 50.8789 -16.9434 C 50.8789 -17.9199 50.0488 -18.7988 49.0234 -18.7988 L 25.9766 -18.7988 C 25 -18.7988 24.1211 -17.9199 24.1211 -16.9434 C 24.1211 -15.918 25 -15.0391 25.9766 -15.0391 Z M 144.629 -15.0391 L 167.627 -15.0391 C 168.701 -15.0391 169.482 -15.918 169.482 -16.9434 C 169.482 -17.9199 168.701 -18.7988 167.627 -18.7988 L 144.629 -18.7988 C 143.604 -18.7988 142.725 -17.9199 142.725 -16.9434 C 142.725 -15.918 143.604 -15.0391 144.629 -15.0391 Z"/>
  </g>
  <g id="Ultralight-L" transform="matrix(1 0 0 1 462.909 1556)">
   <path d="M 96.8262 -66.3086 C 97.5098 -66.3086 98.0957 -66.8945 98.0957 -67.5781 L 98.0957 -94.8242 L 97.9004 -106.592 L 105.273 -99.0723 L 116.406 -87.6953 C 116.797 -87.3535 117.09 -87.207 117.432 -87.207 C 118.164 -87.207 118.75 -87.8418 118.75 -88.6719 C 118.75 -89.2578 118.457 -89.6484 117.969 -90.1855 L 97.8027 -110.4 C 97.5586 -110.596 97.1191 -110.84 96.8262 -110.84 C 96.4844 -110.84 96.0449 -110.596 95.8008 -110.4 L 75.6836 -90.1855 C 75.1465 -89.6484 74.8535 -89.2578 74.8535 -88.6719 C 74.8535 -87.8418 75.4395 -87.207 76.1719 -87.207 C 76.5137 -87.207 76.8555 -87.3535 77.1973 -87.6953 L 88.2812 -99.0234 L 95.752 -106.592 L 95.5566 -94.8242 L 95.5566 -67.5781 C 95.5566 -66.8945 96.0938 -66.3086 96.8262 -66.3086 Z M 62.7441 -47.8516 C 63.0859 -47.5586 63.8672 -47.5586 64.3066 -47.998 C 64.7461 -48.3887 64.7461 -49.2188 64.4531 -49.5605 L 46.9727 -66.9922 C 46.4844 -67.3828 45.752 -67.2852 45.4102 -66.8945 C 44.9219 -66.4551 44.8242 -65.7227 45.3125 -65.332 Z M 129.297 -47.998 C 129.736 -47.5586 130.566 -47.5586 130.859 -47.8516 L 148.291 -65.332 C 148.779 -65.7227 148.73 -66.4551 148.193 -66.8945 C 147.852 -67.2852 147.119 -67.3828 146.631 -66.9922 L 129.15 -49.5605 C 128.857 -49.2188 128.857 -48.3887 129.297 -47.998 Z M 17.4805 9.52148 L 176.123 9.52148 C 176.904 9.52148 177.539 9.0332 177.539 8.34961 C 177.539 7.66602 176.904 7.17773 176.123 7.17773 L 119.434 7.17773 C 125.244 1.31836 128.857 -6.68945 128.857 -15.5762 C 128.857 -33.1543 114.502 -47.6562 96.8262 -47.6562 C 79.1016 -47.6562 64.7461 -33.1543 64.7461 -15.5762 C 64.7461 -6.68945 68.4082 1.31836 74.2188 7.17773 L 17.4805 7.17773 C 16.6992 7.17773 16.0645 7.66602 16.0645 8.34961 C 16.0645 9.0332 16.6992 9.52148 17.4805 9.52148 Z M 25.1465 -15.918 L 49.8535 -15.918 C 50.4883 -15.918 50.8789 -16.5039 50.8789 -17.0898 C 50.8789 -17.7246 50.3906 -18.2617 49.8535 -18.2617 L 25.1465 -18.2617 C 24.6582 -18.2617 24.1211 -17.7246 24.1211 -17.0898 C 24.1211 -16.5039 24.6582 -15.918 25.1465 -15.918 Z M 143.75 -15.918 L 168.457 -15.918 C 169.043 -15.918 169.482 -16.5039 169.482 -17.0898 C 169.482 -17.7246 169.043 -18.2617 168.457 -18.2617 L 143.75 -18.2617 C 143.311 -18.2617 142.725 -17.7246 142.725 -17.0898 C 142.725 -16.5039 143.311 -15.918 143.75 -15.918 Z"/>
  </g>
  <g id="Black-M" transform="matrix(1 0 0 1 2858.38 1126)">
   <path d="M 75.0488 -55.8105 C 78.418 -55.8105 81.1523 -58.6914 81.1523 -62.0605 L 81.1035 -74.5117 L 79.834 -83.8379 L 82.7148 -78.9062 L 85.8398 -74.9512 C 87.1582 -73.2422 88.6719 -71.9238 91.0645 -71.9238 C 94.3848 -71.9238 96.875 -74.5605 96.875 -77.6367 C 96.875 -79.7363 95.5566 -81.543 93.9453 -83.1055 L 79.8828 -96.582 C 78.3203 -98.0957 76.9043 -98.7305 75.0488 -98.7305 C 73.1445 -98.7305 71.7285 -98.0957 70.166 -96.582 L 56.1035 -83.1055 C 54.4922 -81.543 53.1738 -79.7363 53.1738 -77.6367 C 53.1738 -74.5605 55.6641 -71.9238 58.9844 -71.9238 C 61.377 -71.9238 62.8906 -73.2422 64.209 -74.9512 L 67.334 -78.9062 L 70.2148 -83.8379 L 68.9453 -74.5117 L 68.8965 -62.0605 C 68.8965 -58.6914 71.6309 -55.8105 75.0488 -55.8105 Z M 40.8691 -44.8242 C 43.2617 -42.4316 47.2656 -42.2852 49.6582 -44.6777 C 52.0508 -47.0703 51.9531 -51.0742 49.6094 -53.4668 L 43.9453 -59.0332 C 41.5527 -61.4746 37.5977 -61.5234 35.2051 -59.1309 C 32.8125 -56.7383 32.8125 -52.7344 35.2539 -50.293 Z M 100.391 -44.6777 C 102.783 -42.2852 106.787 -42.4316 109.18 -44.8242 L 114.795 -50.293 C 117.236 -52.7344 117.236 -56.7383 114.844 -59.1309 C 112.451 -61.5234 108.496 -61.4746 106.104 -59.0332 L 100.439 -53.4668 C 98.0957 -51.0742 97.998 -47.0703 100.391 -44.6777 Z M 20.3125 9.17969 L 129.736 9.17969 C 134.131 9.17969 137.598 5.27344 137.598 1.02539 C 137.598 -3.4668 134.229 -7.17773 129.736 -7.17773 L 98.7305 -7.17773 C 100.635 -10.8887 101.709 -15.0879 101.709 -19.4824 C 101.709 -34.4238 89.7949 -46.2891 75.0488 -46.2891 C 60.2539 -46.2891 48.3398 -34.4238 48.3398 -19.4824 C 48.3398 -15.0879 49.4141 -10.8887 51.3184 -7.17773 L 20.3125 -7.17773 C 15.918 -7.17773 12.4512 -3.32031 12.4512 1.02539 C 12.4512 5.17578 15.9668 9.17969 20.3125 9.17969 Z M 24.9512 -18.2617 L 32.8613 -18.1641 C 36.2793 -18.1641 39.1113 -20.9961 39.1113 -24.4141 C 39.1113 -27.7832 36.2793 -30.5176 32.8613 -30.5176 L 24.9512 -30.5176 C 21.582 -30.5176 18.7012 -27.7832 18.7012 -24.4141 C 18.7012 -20.9961 21.6309 -18.2617 24.9512 -18.2617 Z M 117.188 -18.2617 L 125.098 -18.2617 C 128.564 -18.2617 131.348 -20.9961 131.348 -24.4141 C 131.348 -27.7832 128.564 -30.5176 125.098 -30.5176 L 117.188 -30.5176 C 113.818 -30.5176 110.938 -27.7832 110.938 -24.4141 C 110.938 -20.9961 113.867 -18.2617 117.188 -18.2617 Z"/>
  </g>
  <g id="Heavy-M" transform="matrix(1 0 0 1 2561.66 1126)">
   <path d="M 75.0488 -56.25 C 78.125 -56.25 80.6641 -58.9355 80.6641 -62.0605 L 80.6152 -75.8789 L 79.4922 -84.7656 L 82.5195 -80.0293 L 86.377 -75.5371 C 87.5488 -74.0723 88.916 -72.9492 90.9668 -72.9492 C 93.9941 -72.9492 96.2402 -75.293 96.2402 -78.0762 C 96.2402 -79.9316 95.1172 -81.4941 93.7012 -82.9102 L 79.3457 -96.5332 C 77.9297 -97.9004 76.6602 -98.4375 75.0488 -98.4375 C 73.3887 -98.4375 72.1191 -97.9004 70.7031 -96.5332 L 56.3477 -82.9102 C 54.9316 -81.4941 53.8086 -79.9316 53.8086 -78.0762 C 53.8086 -75.293 56.0547 -72.9492 59.082 -72.9492 C 61.1328 -72.9492 62.5 -74.0723 63.6719 -75.5371 L 67.627 -80.127 L 70.5566 -84.7656 L 69.4336 -75.8789 L 69.3848 -62.0605 C 69.3848 -58.9355 71.9238 -56.25 75.0488 -56.25 Z M 100.342 -44.6289 C 102.539 -42.4316 106.201 -42.5293 108.447 -44.7754 L 114.746 -50.9766 C 117.041 -53.2715 117.041 -56.9336 114.844 -59.1309 C 112.695 -61.2793 109.082 -61.2305 106.787 -58.9844 L 100.439 -52.6855 C 98.2422 -50.4883 98.1445 -46.7773 100.342 -44.6289 Z M 41.6016 -44.7754 C 43.8477 -42.5293 47.5098 -42.4316 49.707 -44.6289 C 51.8555 -46.7773 51.8066 -50.4883 49.6094 -52.6855 L 43.2617 -58.9844 C 41.0156 -61.2305 37.4023 -61.2793 35.2051 -59.1309 C 33.0078 -56.9336 33.0078 -53.2715 35.3027 -50.9766 Z M 19.4336 8.05664 L 130.615 8.05664 C 134.521 8.05664 137.598 4.63867 137.598 0.878906 C 137.598 -3.07617 134.57 -6.29883 130.615 -6.29883 L 98.1445 -6.29883 C 100.391 -10.2051 101.66 -14.6484 101.66 -19.4336 C 101.66 -34.2285 89.7461 -46.1914 75.0488 -46.1914 C 60.3027 -46.1914 48.3887 -34.2285 48.3887 -19.4336 C 48.3887 -14.6484 49.6582 -10.2051 51.9043 -6.29883 L 19.4336 -6.29883 C 15.5273 -6.29883 12.4512 -2.97852 12.4512 0.878906 C 12.4512 4.54102 15.5762 8.05664 19.4336 8.05664 Z M 24.5117 -17.8223 L 33.3984 -17.7734 C 36.6211 -17.7734 39.209 -20.3613 39.209 -23.4375 C 39.1602 -26.5625 36.6211 -29.1016 33.3984 -29.1016 L 24.5117 -29.1016 C 21.3379 -29.1016 18.7012 -26.5625 18.7012 -23.4375 C 18.7012 -20.3613 21.3867 -17.8223 24.5117 -17.8223 Z M 116.65 -17.8223 L 125.537 -17.8223 C 128.76 -17.8223 131.348 -20.3613 131.348 -23.4375 C 131.348 -26.5625 128.76 -29.1016 125.537 -29.1016 L 116.65 -29.1016 C 113.525 -29.1016 110.84 -26.5625 110.84 -23.4375 C 110.889 -20.3613 113.525 -17.8223 116.65 -17.8223 Z"/>
  </g>
  <g id="Bold-M" transform="matrix(1 0 0 1 2264.95 1126)">
   <path d="M 75.0488 -56.7871 C 77.7832 -56.7871 80.0781 -59.1797 80.0781 -62.0605 L 80.0293 -77.4414 L 79.1504 -85.791 L 82.373 -81.25 L 86.9629 -76.1719 C 87.9883 -75 89.209 -74.1211 90.8691 -74.1211 C 93.5547 -74.1211 95.5078 -76.123 95.5078 -78.6133 C 95.5078 -80.1758 94.6289 -81.4453 93.4082 -82.6172 L 78.7598 -96.4844 C 77.4902 -97.7051 76.416 -98.1445 75.0488 -98.1445 C 73.6328 -98.1445 72.5586 -97.7051 71.2891 -96.4844 L 56.6406 -82.6172 C 55.4199 -81.4453 54.541 -80.1758 54.541 -78.6133 C 54.541 -76.123 56.4941 -74.1211 59.1797 -74.1211 C 60.8398 -74.1211 62.0605 -75 63.0859 -76.1719 L 67.9199 -81.4941 L 70.8984 -85.791 L 70.0195 -77.4414 L 69.9707 -62.0605 C 69.9707 -59.1797 72.2656 -56.7871 75.0488 -56.7871 Z M 100.293 -44.5312 C 102.246 -42.5781 105.566 -42.627 107.617 -44.7266 L 114.697 -51.709 C 116.846 -53.8574 116.797 -57.0801 114.844 -59.082 C 112.891 -61.0352 109.668 -61.0352 107.52 -58.8867 L 100.488 -51.8555 C 98.3887 -49.8047 98.3398 -46.4844 100.293 -44.5312 Z M 42.4316 -44.7266 C 44.4824 -42.627 47.8027 -42.5293 49.7559 -44.5312 C 51.709 -46.4844 51.6602 -49.8047 49.5605 -51.8555 L 42.5293 -58.8867 C 40.3809 -61.0352 37.1582 -61.0352 35.2051 -59.082 C 33.2031 -57.1289 33.2031 -53.8574 35.3516 -51.709 Z M 18.5059 6.73828 L 131.543 6.73828 C 134.912 6.73828 137.598 3.90625 137.598 0.683594 C 137.598 -2.63672 134.912 -5.37109 131.543 -5.37109 L 97.5098 -5.37109 C 100.098 -9.42383 101.611 -14.209 101.611 -19.3848 C 101.611 -34.0332 89.6484 -46.0449 75.0488 -46.0449 C 60.4004 -46.0449 48.4375 -34.0332 48.4375 -19.3848 C 48.4375 -14.209 49.9512 -9.42383 52.5391 -5.37109 L 18.5059 -5.37109 C 15.1367 -5.37109 12.4512 -2.53906 12.4512 0.683594 C 12.4512 3.85742 15.1855 6.73828 18.5059 6.73828 Z M 23.9746 -17.334 L 33.9355 -17.334 C 36.9629 -17.334 39.3066 -19.6289 39.2578 -22.4121 C 39.2578 -25.1953 36.9141 -27.4414 33.9355 -27.4414 L 23.9746 -27.4414 C 21.0449 -27.4414 18.7012 -25.1953 18.7012 -22.4121 C 18.7012 -19.6289 21.0938 -17.334 23.9746 -17.334 Z M 116.113 -17.334 L 126.074 -17.334 C 129.053 -17.334 131.348 -19.6289 131.348 -22.4121 C 131.348 -25.1953 129.053 -27.4414 126.074 -27.4414 L 116.113 -27.4414 C 113.135 -27.4414 110.742 -25.1953 110.791 -22.4121 C 110.791 -19.6289 113.184 -17.334 116.113 -17.334 Z"/>
  </g>
  <g id="Semibold-M" transform="matrix(1 0 0 1 1968.24 1126)">
   <path d="M 75.0488 -57.1289 C 77.5879 -57.1289 79.6875 -59.375 79.6875 -62.0605 L 79.6875 -78.5156 L 78.8574 -86.5234 L 82.2266 -82.1289 L 87.4023 -76.6602 C 88.2812 -75.6348 89.4043 -74.9023 90.8203 -74.9023 C 93.2129 -74.9023 94.9707 -76.6602 94.9707 -78.9551 C 94.9707 -80.3223 94.3359 -81.4453 93.2129 -82.4707 L 78.3691 -96.4355 C 77.1484 -97.5586 76.2207 -97.9492 75.0488 -97.9492 C 73.8281 -97.9492 72.9004 -97.5586 71.6797 -96.4355 L 56.8359 -82.4707 C 55.7129 -81.4453 55.0781 -80.3223 55.0781 -78.9551 C 55.0781 -76.6602 56.8359 -74.9023 59.2285 -74.9023 C 60.6445 -74.9023 61.7676 -75.6348 62.6465 -76.6602 L 68.1152 -82.4219 L 71.1914 -86.5234 L 70.3613 -78.5156 L 70.3613 -62.0605 C 70.3613 -59.375 72.4609 -57.1289 75.0488 -57.1289 Z M 100.244 -44.4824 C 102.1 -42.6758 105.127 -42.7246 107.08 -44.6777 L 114.697 -52.2461 C 116.699 -54.248 116.65 -57.2266 114.844 -59.0332 C 113.086 -60.8887 110.059 -60.8398 108.057 -58.8379 L 100.488 -51.2695 C 98.4863 -49.3164 98.4375 -46.2402 100.244 -44.4824 Z M 42.9688 -44.6777 C 44.9219 -42.7246 47.998 -42.627 49.8047 -44.4824 C 51.5625 -46.2891 51.5625 -49.3164 49.5605 -51.2695 L 41.9922 -58.8379 C 39.9902 -60.8398 37.0117 -60.8398 35.2051 -59.0332 C 33.3496 -57.2754 33.3496 -54.248 35.3516 -52.2461 Z M 17.8711 5.85938 L 132.178 5.85938 C 135.156 5.85938 137.598 3.41797 137.598 0.585938 C 137.598 -2.29492 135.205 -4.6875 132.178 -4.6875 L 97.0215 -4.6875 C 99.8535 -8.88672 101.562 -13.916 101.562 -19.3359 C 101.562 -33.9355 89.5996 -45.9473 75.0488 -45.9473 C 60.4492 -45.9473 48.4863 -33.9355 48.4863 -19.3359 C 48.4863 -13.916 50.1953 -8.88672 53.0273 -4.6875 L 17.8711 -4.6875 C 14.8926 -4.6875 12.4512 -2.29492 12.4512 0.585938 C 12.4512 3.36914 14.8926 5.85938 17.8711 5.85938 Z M 23.6328 -17.041 L 34.375 -16.9922 C 37.1582 -16.9922 39.3555 -19.1406 39.3555 -21.6797 C 39.3066 -24.2676 37.1582 -26.3672 34.375 -26.3672 L 23.6328 -26.3672 C 20.8496 -26.3672 18.7012 -24.2676 18.7012 -21.6797 C 18.7012 -19.1406 20.8496 -17.041 23.6328 -17.041 Z M 115.674 -17.041 L 126.416 -17.041 C 129.248 -17.041 131.348 -19.1406 131.348 -21.6797 C 131.348 -24.2676 129.248 -26.3672 126.416 -26.3672 L 115.674 -26.3672 C 112.891 -26.3672 110.693 -24.2676 110.693 -21.6797 C 110.742 -19.1406 112.939 -17.041 115.674 -17.041 Z"/>
  </g>
  <g id="Medium-M" transform="matrix(1 0 0 1 1671.53 1126)">
   <path d="M 75.0488 -57.4219 C 77.3926 -57.4219 79.3945 -59.5215 79.3945 -62.1094 L 79.3945 -79.3457 L 78.6621 -87.0605 L 82.1289 -82.7637 L 87.7441 -77.002 C 88.5254 -76.123 89.5996 -75.5371 90.7715 -75.5371 C 93.0176 -75.5371 94.5801 -77.0996 94.5801 -79.248 C 94.5801 -80.4688 94.043 -81.3965 93.0664 -82.3242 L 78.0762 -96.3867 C 76.9531 -97.4121 76.123 -97.8027 75.0488 -97.8027 C 73.9258 -97.8027 73.0957 -97.4121 71.9727 -96.3867 L 56.9824 -82.3242 C 56.0059 -81.3965 55.4688 -80.4688 55.4688 -79.248 C 55.4688 -77.0996 57.0312 -75.5371 59.2773 -75.5371 C 60.4492 -75.5371 61.5234 -76.123 62.3047 -77.002 L 68.3105 -83.1543 L 71.3867 -87.0605 L 70.6543 -79.3457 L 70.6543 -62.1094 C 70.6543 -59.5215 72.6562 -57.4219 75.0488 -57.4219 Z M 100.244 -44.4336 C 101.953 -42.7734 104.785 -42.7734 106.689 -44.6777 L 114.648 -52.6367 C 116.602 -54.541 116.504 -57.3242 114.844 -59.0332 C 113.184 -60.7422 110.4 -60.7422 108.447 -58.8379 L 100.488 -50.8301 C 98.584 -48.9746 98.5352 -46.0938 100.244 -44.4336 Z M 43.3594 -44.6777 C 45.2637 -42.7734 48.1445 -42.7246 49.8047 -44.4336 C 51.4648 -46.1426 51.4648 -48.9746 49.5605 -50.8301 L 41.6016 -58.8379 C 39.6484 -60.7422 36.9141 -60.6934 35.2051 -59.0332 C 33.4961 -57.373 33.4473 -54.541 35.4004 -52.6367 Z M 17.334 5.17578 L 132.715 5.17578 C 135.4 5.17578 137.598 3.02734 137.598 0.488281 C 137.598 -2.09961 135.4 -4.19922 132.715 -4.19922 L 96.6797 -4.19922 C 99.707 -8.49609 101.514 -13.6719 101.514 -19.2871 C 101.514 -33.8379 89.5508 -45.8496 75.0488 -45.8496 C 60.498 -45.8496 48.5352 -33.8379 48.5352 -19.2871 C 48.5352 -13.6719 50.3418 -8.49609 53.3691 -4.19922 L 17.334 -4.19922 C 14.6484 -4.19922 12.4512 -2.05078 12.4512 0.488281 C 12.4512 2.97852 14.6973 5.17578 17.334 5.17578 Z M 23.3887 -16.7969 L 34.668 -16.7969 C 37.3535 -16.7969 39.4043 -18.75 39.4043 -21.1426 C 39.3555 -23.5352 37.3535 -25.4883 34.668 -25.4883 L 23.3887 -25.4883 C 20.7031 -25.4883 18.7012 -23.5352 18.7012 -21.1426 C 18.7012 -18.75 20.7031 -16.7969 23.3887 -16.7969 Z M 115.381 -16.7969 L 126.66 -16.7969 C 129.346 -16.7969 131.348 -18.75 131.348 -21.1426 C 131.348 -23.5352 129.346 -25.4883 126.66 -25.4883 L 115.381 -25.4883 C 112.744 -25.4883 110.645 -23.5352 110.693 -21.1426 C 110.693 -18.75 112.744 -16.7969 115.381 -16.7969 Z"/>
  </g>
  <g id="Regular-M" transform="matrix(1 0 0 1 1374.82 1126)">
   <path d="M 75.0488 -57.7637 C 77.1973 -57.7637 79.0039 -59.7168 79.0039 -62.1094 L 79.0039 -80.3711 L 78.418 -87.7441 L 82.0312 -83.5938 L 88.1348 -77.4414 C 88.8672 -76.7578 89.7949 -76.3184 90.7227 -76.3184 C 92.6758 -76.3184 94.0918 -77.6367 94.0918 -79.5898 C 94.0918 -80.6152 93.75 -81.3965 92.9199 -82.1777 L 77.6855 -96.3379 C 76.6602 -97.2656 75.9277 -97.6074 75.0488 -97.6074 C 74.1211 -97.6074 73.3887 -97.2656 72.3633 -96.3379 L 57.1289 -82.1777 C 56.2988 -81.3965 55.957 -80.6152 55.957 -79.5898 C 55.957 -77.6367 57.373 -76.3184 59.3262 -76.3184 C 60.2539 -76.3184 61.1816 -76.7578 61.9141 -77.4414 L 68.5059 -84.082 L 71.6309 -87.7441 L 71.0449 -80.3711 L 71.0449 -62.1094 C 71.0449 -59.7168 72.8516 -57.7637 75.0488 -57.7637 Z M 100.195 -44.3848 C 101.758 -42.8711 104.346 -42.8711 106.104 -44.6289 L 114.6 -53.125 C 116.455 -54.9316 116.357 -57.4707 114.844 -58.9844 C 113.33 -60.5469 110.791 -60.5957 108.984 -58.7891 L 100.488 -50.293 C 98.6816 -48.4863 98.6328 -45.8496 100.195 -44.3848 Z M 43.9453 -44.6289 C 45.7031 -42.8711 48.3398 -42.8223 49.8535 -44.3848 C 51.3672 -45.8984 51.3672 -48.4863 49.5605 -50.293 L 41.0645 -58.7891 C 39.2578 -60.5957 36.7676 -60.498 35.2051 -58.9844 C 33.6426 -57.5195 33.5938 -54.9316 35.4492 -53.125 Z M 16.6992 4.29688 L 133.35 4.29688 C 135.645 4.29688 137.598 2.53906 137.598 0.341797 C 137.598 -1.80664 135.645 -3.56445 133.35 -3.56445 L 96.1914 -3.56445 C 99.5117 -7.95898 101.465 -13.3789 101.465 -19.2383 C 101.465 -33.6914 89.502 -45.752 75.0488 -45.752 C 60.5469 -45.752 48.584 -33.6914 48.584 -19.2383 C 48.584 -13.3789 50.5371 -7.95898 53.8574 -3.56445 L 16.6992 -3.56445 C 14.4043 -3.56445 12.4512 -1.80664 12.4512 0.341797 C 12.4512 2.53906 14.4043 4.29688 16.6992 4.29688 Z M 23.0469 -16.4551 L 35.0586 -16.4551 C 37.5977 -16.4551 39.502 -18.2617 39.4531 -20.4102 C 39.4043 -22.6074 37.5488 -24.4141 35.0586 -24.4141 L 23.0469 -24.4141 C 20.5078 -24.4141 18.7012 -22.6074 18.7012 -20.4102 C 18.7012 -18.2617 20.5078 -16.4551 23.0469 -16.4551 Z M 114.99 -16.4551 L 127.002 -16.4551 C 129.541 -16.4551 131.348 -18.2617 131.348 -20.4102 C 131.348 -22.6074 129.541 -24.4141 127.002 -24.4141 L 114.99 -24.4141 C 112.5 -24.4141 110.547 -22.6074 110.596 -20.4102 C 110.645 -18.2617 112.5 -16.4551 114.99 -16.4551 Z"/>
  </g>
  <g id="Light-M" transform="matrix(1 0 0 1 1078.11 1126)">
   <path d="M 75.0488 -58.252 C 76.6602 -58.252 78.0762 -59.7168 78.0762 -61.5234 L 78.0762 -80.7129 L 77.6367 -88.623 L 81.8848 -83.9355 L 88.7695 -76.9531 C 89.3555 -76.3672 90.0879 -76.0742 90.8203 -76.0742 C 92.334 -76.0742 93.457 -77.1484 93.457 -78.6621 C 93.457 -79.541 93.1152 -80.127 92.4316 -80.8105 L 77.0996 -95.459 C 76.3184 -96.1426 75.7324 -96.4355 75.0488 -96.4355 C 74.3164 -96.4355 73.7305 -96.1426 72.9492 -95.459 L 57.6172 -80.8105 C 56.9336 -80.127 56.5918 -79.541 56.5918 -78.6621 C 56.5918 -77.1484 57.7148 -76.0742 59.2285 -76.0742 C 59.9609 -76.0742 60.6934 -76.3672 61.2793 -76.9531 L 68.5059 -84.2773 L 72.4121 -88.623 L 71.9727 -80.7129 L 71.9727 -61.5234 C 71.9727 -59.7168 73.3887 -58.252 75.0488 -58.252 Z M 100.195 -44.5801 C 101.367 -43.457 103.369 -43.457 104.639 -44.7754 L 114.697 -54.834 C 116.064 -56.1523 116.016 -58.0566 114.844 -59.2285 C 113.721 -60.4004 111.816 -60.4492 110.449 -59.1309 L 100.391 -49.0723 C 99.0723 -47.7539 99.0234 -45.752 100.195 -44.5801 Z M 45.4102 -44.7754 C 46.6797 -43.457 48.6816 -43.4082 49.8535 -44.5801 C 50.9766 -45.752 50.9766 -47.7539 49.6582 -49.0723 L 39.5996 -59.1309 C 38.2324 -60.4492 36.3281 -60.4004 35.2051 -59.2285 C 33.9844 -58.1055 33.9844 -56.1523 35.3516 -54.834 Z M 15.7227 2.7832 L 134.326 2.7832 C 136.084 2.7832 137.598 1.46484 137.598 -0.195312 C 137.598 -1.85547 136.084 -3.17383 134.326 -3.17383 L 95.0684 -3.17383 C 98.7305 -7.61719 100.977 -13.2812 100.977 -19.4824 C 100.977 -33.6914 89.2578 -45.459 75.0488 -45.459 C 60.791 -45.459 49.0723 -33.6914 49.0723 -19.4824 C 49.0723 -13.2812 51.3184 -7.61719 54.9805 -3.17383 L 15.7227 -3.17383 C 13.9648 -3.17383 12.4512 -1.85547 12.4512 -0.195312 C 12.4512 1.46484 13.9648 2.7832 15.7227 2.7832 Z M 21.9238 -17.627 L 36.1328 -17.627 C 38.0859 -17.627 39.4531 -18.9941 39.4531 -20.6543 C 39.4043 -22.3145 38.0371 -23.6816 36.1328 -23.6816 L 21.9238 -23.6816 C 20.0684 -23.6816 18.7012 -22.3145 18.7012 -20.6543 C 18.7012 -18.9941 20.0684 -17.627 21.9238 -17.627 Z M 113.916 -17.627 L 128.125 -17.627 C 129.98 -17.627 131.348 -18.9941 131.348 -20.6543 C 131.348 -22.3145 129.98 -23.6816 128.125 -23.6816 L 113.916 -23.6816 C 112.061 -23.6816 110.596 -22.3145 110.596 -20.6543 C 110.645 -18.9941 112.061 -17.627 113.916 -17.627 Z"/>
  </g>
  <g id="Thin-M" transform="matrix(1 0 0 1 781.398 1126)">
   <path d="M 75.0488 -58.8867 C 76.0254 -58.8867 76.8555 -59.7656 76.8555 -60.791 L 76.8555 -81.1035 L 76.5625 -89.7461 L 81.6895 -84.4238 L 89.6484 -76.3184 C 90.0391 -75.9277 90.4785 -75.7324 90.918 -75.7324 C 91.8945 -75.7324 92.627 -76.4648 92.627 -77.4414 C 92.627 -78.0762 92.334 -78.5156 91.8457 -79.0527 L 76.3184 -94.2871 C 75.9277 -94.6777 75.4395 -94.873 75.0488 -94.873 C 74.6094 -94.873 74.1211 -94.6777 73.7305 -94.2871 L 58.2031 -79.0527 C 57.7148 -78.5156 57.4219 -78.0762 57.4219 -77.4414 C 57.4219 -76.4648 58.1543 -75.7324 59.1309 -75.7324 C 59.5703 -75.7324 60.0098 -75.9277 60.4004 -76.3184 L 68.457 -84.5215 L 73.4863 -89.7461 L 73.1934 -81.1035 L 73.1934 -60.791 C 73.1934 -59.7656 74.0234 -58.8867 75.0488 -58.8867 Z M 100.195 -44.9219 C 100.879 -44.2383 102.051 -44.2383 102.734 -44.9219 L 114.844 -57.0312 C 115.625 -57.7637 115.576 -58.8867 114.844 -59.5703 C 114.258 -60.2051 113.086 -60.2539 112.354 -59.5703 L 100.195 -47.4121 C 99.5605 -46.7773 99.5117 -45.5566 100.195 -44.9219 Z M 47.3145 -44.9219 C 47.998 -44.2383 49.1699 -44.2383 49.8535 -44.9219 C 50.4883 -45.5566 50.4883 -46.7773 49.8535 -47.4121 L 37.6953 -59.5703 C 36.9629 -60.2539 35.8398 -60.2051 35.2051 -59.5703 C 34.4727 -58.8867 34.4238 -57.7637 35.2051 -57.0312 Z M 14.4531 0.830078 L 135.596 0.830078 C 136.719 0.830078 137.598 0.0488281 137.598 -0.927734 C 137.598 -1.95312 136.719 -2.68555 135.596 -2.68555 L 93.6035 -2.68555 C 97.7539 -7.22656 100.342 -13.1836 100.342 -19.7754 C 100.342 -33.6426 88.9648 -45.1172 75.0488 -45.1172 C 61.084 -45.1172 49.707 -33.6426 49.707 -19.7754 C 49.707 -13.1836 52.2949 -7.22656 56.4453 -2.68555 L 14.4531 -2.68555 C 13.3301 -2.68555 12.4512 -1.95312 12.4512 -0.927734 C 12.4512 0.0488281 13.3301 0.830078 14.4531 0.830078 Z M 20.5078 -19.1895 L 37.6465 -19.1895 C 38.7207 -19.1895 39.4531 -20.0195 39.4531 -20.9473 C 39.4043 -21.9238 38.6719 -22.7539 37.6465 -22.7539 L 20.5078 -22.7539 C 19.5312 -22.7539 18.7012 -21.9238 18.7012 -20.9473 C 18.7012 -20.0195 19.5312 -19.1895 20.5078 -19.1895 Z M 112.402 -19.1895 L 129.541 -19.1895 C 130.566 -19.1895 131.348 -20.0195 131.348 -20.9473 C 131.348 -21.9238 130.566 -22.7539 129.541 -22.7539 L 112.402 -22.7539 C 111.475 -22.7539 110.596 -21.9238 110.596 -20.9473 C 110.645 -20.0195 111.475 -19.1895 112.402 -19.1895 Z"/>
  </g>
  <g id="Ultralight-M" transform="matrix(1 0 0 1 484.687 1126)">
   <path d="M 75.0488 -59.2285 C 75.6836 -59.2285 76.2207 -59.7656 76.2207 -60.4004 L 76.2207 -81.3477 L 76.0254 -90.332 L 81.6406 -84.6191 L 90.0879 -75.9766 C 90.3809 -75.6836 90.6738 -75.5859 90.9668 -75.5859 C 91.6504 -75.5859 92.1875 -76.123 92.1875 -76.8555 C 92.1875 -77.3438 91.9434 -77.6855 91.5039 -78.125 L 75.9277 -93.6523 C 75.6836 -93.8965 75.3418 -94.0918 75.0488 -94.0918 C 74.707 -94.0918 74.3652 -93.8965 74.1211 -93.6523 L 58.5449 -78.125 C 58.1055 -77.6855 57.8613 -77.3438 57.8613 -76.8555 C 57.8613 -76.123 58.3984 -75.5859 59.082 -75.5859 C 59.375 -75.5859 59.668 -75.6836 59.9609 -75.9766 L 68.4082 -84.6191 L 74.0234 -90.332 L 73.8281 -81.3477 L 73.8281 -60.4004 C 73.8281 -59.7656 74.3652 -59.2285 75.0488 -59.2285 Z M 48.291 -44.9707 C 48.6328 -44.6289 49.4141 -44.6289 49.8535 -45.0684 C 50.2441 -45.459 50.2441 -46.2402 49.9023 -46.582 L 36.7188 -59.7656 C 36.2793 -60.2051 35.5469 -60.1074 35.2051 -59.7168 C 34.7168 -59.2773 34.668 -58.5938 35.1074 -58.1543 Z M 100.195 -45.0684 C 100.635 -44.6289 101.416 -44.6289 101.758 -44.9707 L 114.941 -58.1543 C 115.381 -58.5938 115.332 -59.2773 114.844 -59.7168 C 114.502 -60.1074 113.77 -60.2051 113.33 -59.7656 L 100.146 -46.582 C 99.8047 -46.2402 99.8047 -45.459 100.195 -45.0684 Z M 13.7695 -0.195312 L 136.279 -0.195312 C 137.012 -0.195312 137.598 -0.683594 137.598 -1.31836 C 137.598 -2.00195 137.012 -2.44141 136.279 -2.44141 L 92.8223 -2.44141 C 97.2168 -6.98242 100 -13.1348 100 -19.9219 C 100 -33.6426 88.7695 -44.9219 75.0488 -44.9219 C 61.2793 -44.9219 50.0488 -33.6426 50.0488 -19.9219 C 50.0488 -13.1348 52.832 -6.98242 57.2266 -2.44141 L 13.7695 -2.44141 C 13.0371 -2.44141 12.4512 -2.00195 12.4512 -1.31836 C 12.4512 -0.683594 13.0371 -0.195312 13.7695 -0.195312 Z M 19.7266 -19.9707 L 38.3789 -19.9707 C 39.0137 -19.9707 39.4531 -20.5078 39.4531 -21.1426 C 39.4531 -21.7285 38.9648 -22.2656 38.3789 -22.2656 L 19.7266 -22.2656 C 19.2383 -22.2656 18.7012 -21.7285 18.7012 -21.1426 C 18.7012 -20.5078 19.2383 -19.9707 19.7266 -19.9707 Z M 111.67 -19.9707 L 130.322 -19.9707 C 130.908 -19.9707 131.348 -20.5078 131.348 -21.1426 C 131.348 -21.7285 130.908 -22.2656 130.322 -22.2656 L 111.67 -22.2656 C 111.133 -22.2656 110.596 -21.7285 110.596 -21.1426 C 110.596 -20.5078 111.133 -19.9707 111.67 -19.9707 Z"/>
  </g>
  <g id="Black-S" transform="matrix(1 0 0 1 2874.61 696)">
   <path d="M 58.7891 -51.3672 C 61.4258 -51.3672 63.5742 -53.6133 63.5742 -56.25 L 63.5254 -66.1133 L 62.5488 -73.3887 L 64.7949 -69.5312 L 67.2852 -66.4062 C 68.3105 -65.0879 69.4824 -64.0625 71.3379 -64.0625 C 73.9258 -64.0625 75.8789 -66.1133 75.8789 -68.5059 C 75.8789 -70.1172 74.8535 -71.5332 73.584 -72.7539 L 62.5488 -83.3008 C 61.3281 -84.4727 60.2539 -84.9609 58.7891 -84.9609 C 57.3242 -84.9609 56.25 -84.4727 55.0293 -83.3008 L 43.9941 -72.7539 C 42.7246 -71.5332 41.6992 -70.1172 41.6992 -68.5059 C 41.6992 -66.1133 43.6523 -64.0625 46.2402 -64.0625 C 48.0957 -64.0625 49.2676 -65.0879 50.293 -66.4062 L 52.7832 -69.5312 L 55.0293 -73.3887 L 54.0527 -66.1133 L 54.0039 -56.25 C 54.0039 -53.6133 56.1523 -51.3672 58.7891 -51.3672 Z M 32.0801 -42.7246 C 33.9355 -40.8691 37.0605 -40.7715 38.916 -42.627 C 40.7715 -44.4824 40.7227 -47.6074 38.8672 -49.4629 L 34.4238 -53.8574 C 32.5195 -55.7617 29.4434 -55.8105 27.5879 -53.9551 C 25.7324 -52.0996 25.7324 -48.9746 27.6367 -47.0703 Z M 78.6621 -42.627 C 80.5176 -40.7715 83.6426 -40.8691 85.498 -42.7246 L 89.9414 -47.0703 C 91.8457 -48.9746 91.8457 -52.0996 89.9902 -53.9551 C 88.1348 -55.8105 85.0586 -55.7617 83.1543 -53.8574 L 78.7109 -49.4629 C 76.8555 -47.6074 76.8066 -44.4824 78.6621 -42.627 Z M 15.8691 -0.488281 L 101.709 -0.488281 C 105.127 -0.488281 107.812 -3.51562 107.812 -6.83594 C 107.812 -10.3027 105.176 -13.1836 101.709 -13.1836 L 77.3438 -13.1836 C 78.8574 -16.1133 79.6875 -19.3848 79.6875 -22.9004 C 79.6875 -34.5703 70.3613 -43.8965 58.7891 -43.8965 C 47.2168 -43.8965 37.8906 -34.5703 37.8906 -22.9004 C 37.8906 -19.3848 38.7207 -16.1133 40.2344 -13.1836 L 15.8691 -13.1836 C 12.4512 -13.1836 9.76562 -10.2051 9.76562 -6.83594 C 9.76562 -3.61328 12.5 -0.488281 15.8691 -0.488281 Z M 19.5312 -21.875 L 25.7812 -21.8262 C 28.4668 -21.8262 30.6641 -24.0234 30.6641 -26.6602 C 30.6641 -29.2969 28.4668 -31.4453 25.7812 -31.4453 L 19.5312 -31.4453 C 16.8945 -31.4453 14.6484 -29.2969 14.6484 -26.6602 C 14.6484 -24.0234 16.9434 -21.875 19.5312 -21.875 Z M 91.7969 -21.875 L 98.0469 -21.875 C 100.732 -21.875 102.93 -24.0234 102.93 -26.6602 C 102.93 -29.2969 100.732 -31.4453 98.0469 -31.4453 L 91.7969 -31.4453 C 89.1602 -31.4453 86.9141 -29.2969 86.9141 -26.6602 C 86.9141 -24.0234 89.209 -21.875 91.7969 -21.875 Z"/>
  </g>
  <g id="Heavy-S" transform="matrix(1 0 0 1 2577.9 696)">
   <path d="M 58.7891 -51.6602 C 61.2793 -51.6602 63.2812 -53.8086 63.2812 -56.2988 L 63.2324 -67.1387 L 62.4023 -73.9746 L 64.6973 -70.3613 L 67.627 -66.8945 C 68.5547 -65.7715 69.6777 -64.8926 71.2891 -64.8926 C 73.6816 -64.8926 75.4395 -66.748 75.4395 -68.9453 C 75.4395 -70.4102 74.6094 -71.6309 73.4375 -72.7051 L 62.207 -83.3496 C 61.084 -84.4727 60.1074 -84.9121 58.7891 -84.9121 C 57.4707 -84.9121 56.4941 -84.4727 55.3711 -83.3496 L 44.1406 -72.7051 C 42.9688 -71.6309 42.1387 -70.4102 42.1387 -68.9453 C 42.1387 -66.748 43.8965 -64.8926 46.2891 -64.8926 C 47.9004 -64.8926 49.0234 -65.7715 49.9512 -66.8945 L 52.9785 -70.459 L 55.1758 -73.9746 L 54.3457 -67.1387 L 54.2969 -56.2988 C 54.2969 -53.8086 56.2988 -51.6602 58.7891 -51.6602 Z M 78.6133 -42.5293 C 80.3711 -40.8203 83.3008 -40.8691 85.1074 -42.6758 L 89.8926 -47.4121 C 91.748 -49.2188 91.748 -52.1484 89.9902 -53.9062 C 88.2324 -55.6641 85.3516 -55.6152 83.4961 -53.7598 L 78.7109 -49.0234 C 76.9043 -47.2168 76.8555 -44.2871 78.6133 -42.5293 Z M 32.4707 -42.6758 C 34.2773 -40.8691 37.207 -40.7715 38.9648 -42.5293 C 40.6738 -44.2871 40.6738 -47.2168 38.8672 -49.0234 L 34.082 -53.7598 C 32.2266 -55.6152 29.3457 -55.6641 27.5879 -53.9062 C 25.8301 -52.1484 25.8301 -49.2188 27.6855 -47.4121 Z M 15.332 -1.2207 L 102.246 -1.2207 C 105.371 -1.2207 107.812 -3.90625 107.812 -6.88477 C 107.812 -10.0098 105.371 -12.5488 102.246 -12.5488 L 77.002 -12.5488 C 78.7109 -15.625 79.6875 -19.0918 79.6875 -22.8516 C 79.6875 -34.4238 70.3125 -43.8477 58.7891 -43.8477 C 47.2656 -43.8477 37.8906 -34.4238 37.8906 -22.8516 C 37.8906 -19.0918 38.8672 -15.625 40.5762 -12.5488 L 15.332 -12.5488 C 12.207 -12.5488 9.76562 -9.91211 9.76562 -6.88477 C 9.76562 -3.95508 12.2559 -1.2207 15.332 -1.2207 Z M 19.2871 -21.4355 L 26.0742 -21.3867 C 28.6621 -21.3867 30.7129 -23.4375 30.7129 -25.9277 C 30.7129 -28.418 28.6621 -30.4199 26.0742 -30.4199 L 19.2871 -30.4199 C 16.748 -30.4199 14.6484 -28.418 14.6484 -25.9277 C 14.6484 -23.4375 16.7969 -21.4355 19.2871 -21.4355 Z M 91.5039 -21.4355 L 98.291 -21.4355 C 100.879 -21.4355 102.93 -23.4375 102.93 -25.9277 C 102.93 -28.418 100.879 -30.4199 98.291 -30.4199 L 91.5039 -30.4199 C 88.9648 -30.4199 86.8652 -28.418 86.8652 -25.9277 C 86.8652 -23.4375 89.0137 -21.4355 91.5039 -21.4355 Z"/>
  </g>
  <g id="Bold-S" transform="matrix(1 0 0 1 2281.19 696)">
   <path d="M 58.7891 -52.002 C 61.084 -52.002 62.9883 -54.0039 62.9883 -56.3965 L 62.9395 -68.3105 L 62.207 -74.6582 L 64.5508 -71.2402 L 68.0176 -67.4805 C 68.8477 -66.5039 69.8242 -65.8203 71.1914 -65.8203 C 73.3398 -65.8203 74.9512 -67.4316 74.9512 -69.4824 C 74.9512 -70.7031 74.3164 -71.7773 73.291 -72.7051 L 61.8652 -83.4473 C 60.791 -84.4238 59.9121 -84.8145 58.7891 -84.8145 C 57.666 -84.8145 56.8359 -84.4238 55.7129 -83.4473 L 44.2871 -72.7051 C 43.2617 -71.7773 42.627 -70.7031 42.627 -69.4824 C 42.627 -67.4316 44.2383 -65.8203 46.3867 -65.8203 C 47.7539 -65.8203 48.7305 -66.5039 49.5605 -67.4805 L 53.2227 -71.4844 L 55.3711 -74.6582 L 54.6387 -68.3105 L 54.5898 -56.3965 C 54.5898 -54.0039 56.4941 -52.002 58.7891 -52.002 Z M 78.6133 -42.4316 C 80.2246 -40.8203 82.9102 -40.8691 84.668 -42.627 L 89.8438 -47.7539 C 91.6016 -49.5117 91.6016 -52.1973 89.9902 -53.8574 C 88.3789 -55.4688 85.6934 -55.4688 83.9355 -53.7109 L 78.7598 -48.5352 C 77.002 -46.7773 76.9531 -44.043 78.6133 -42.4316 Z M 32.9102 -42.627 C 34.668 -40.8691 37.4023 -40.8203 39.0137 -42.4316 C 40.5762 -44.0918 40.5762 -46.7773 38.8184 -48.5352 L 33.6426 -53.7109 C 31.8848 -55.4688 29.1992 -55.4688 27.5879 -53.8574 C 25.9766 -52.2461 25.9766 -49.5117 27.7344 -47.7539 Z M 14.6973 -2.00195 L 102.881 -2.00195 C 105.615 -2.00195 107.812 -4.3457 107.812 -6.93359 C 107.812 -9.66797 105.615 -11.8652 102.881 -11.8652 L 76.6113 -11.8652 C 78.6133 -15.0391 79.7363 -18.75 79.7363 -22.7539 C 79.7363 -34.2773 70.3125 -43.75 58.7891 -43.75 C 47.2656 -43.75 37.8418 -34.2773 37.8418 -22.7539 C 37.8418 -18.75 38.9648 -15.0391 40.9668 -11.8652 L 14.6973 -11.8652 C 11.9629 -11.8652 9.76562 -9.61914 9.76562 -6.93359 C 9.76562 -4.39453 12.0117 -2.00195 14.6973 -2.00195 Z M 19.043 -20.8984 L 26.3672 -20.8984 C 28.8574 -20.8984 30.8105 -22.8027 30.8105 -25.0977 C 30.7617 -27.3926 28.8574 -29.248 26.3672 -29.248 L 19.043 -29.248 C 16.6016 -29.248 14.6484 -27.3926 14.6484 -25.0977 C 14.6484 -22.8027 16.6016 -20.8984 19.043 -20.8984 Z M 91.2109 -20.8984 L 98.5352 -20.8984 C 101.025 -20.8984 102.93 -22.8027 102.93 -25.0977 C 102.93 -27.3926 101.025 -29.248 98.5352 -29.248 L 91.2109 -29.248 C 88.7695 -29.248 86.7676 -27.3926 86.8164 -25.0977 C 86.8164 -22.8027 88.7695 -20.8984 91.2109 -20.8984 Z"/>
  </g>
  <g id="Semibold-S" transform="matrix(1 0 0 1 1984.48 696)">
   <path d="M 58.7891 -52.2461 C 60.9375 -52.2461 62.7441 -54.1504 62.7441 -56.4453 L 62.7441 -69.0918 L 62.0605 -75.1465 L 64.502 -71.875 L 68.2617 -67.8711 C 69.043 -66.9922 69.9707 -66.4551 71.1426 -66.4551 C 73.1445 -66.4551 74.6094 -67.8711 74.6094 -69.8242 C 74.6094 -70.9473 74.0723 -71.8262 73.1934 -72.6562 L 61.5723 -83.4961 C 60.5469 -84.4238 59.8145 -84.7656 58.7891 -84.7656 C 57.7637 -84.7656 57.0312 -84.4238 56.0059 -83.4961 L 44.3848 -72.6562 C 43.5059 -71.8262 42.9688 -70.9473 42.9688 -69.8242 C 42.9688 -67.8711 44.4336 -66.4551 46.4355 -66.4551 C 47.6074 -66.4551 48.5352 -66.9922 49.3164 -67.8711 L 53.418 -72.168 L 55.5176 -75.1465 L 54.834 -69.0918 L 54.834 -56.4453 C 54.834 -54.1504 56.6406 -52.2461 58.7891 -52.2461 Z M 78.5645 -42.3828 C 80.127 -40.8691 82.666 -40.918 84.375 -42.627 L 89.7949 -47.998 C 91.5527 -49.7559 91.5039 -52.2461 89.9902 -53.8086 C 88.4766 -55.3711 85.9375 -55.3711 84.2285 -53.6133 L 78.7598 -48.1934 C 77.0508 -46.4844 77.002 -43.8965 78.5645 -42.3828 Z M 33.2031 -42.627 C 34.9121 -40.918 37.5 -40.8203 39.0137 -42.3828 C 40.5273 -43.9453 40.5273 -46.4844 38.8184 -48.1934 L 33.3496 -53.6133 C 31.6406 -55.3711 29.1504 -55.3223 27.5879 -53.8086 C 26.0254 -52.2949 26.0254 -49.7559 27.7832 -47.998 Z M 14.3066 -2.58789 L 103.271 -2.58789 C 105.762 -2.58789 107.812 -4.63867 107.812 -6.98242 C 107.812 -9.42383 105.811 -11.4258 103.271 -11.4258 L 76.3672 -11.4258 C 78.5156 -14.6973 79.7363 -18.5547 79.7363 -22.7051 C 79.7363 -34.1797 70.2637 -43.7012 58.7891 -43.7012 C 47.3145 -43.7012 37.8418 -34.1797 37.8418 -22.7051 C 37.8418 -18.5547 39.0625 -14.6973 41.2109 -11.4258 L 14.3066 -11.4258 C 11.8164 -11.4258 9.76562 -9.375 9.76562 -6.98242 C 9.76562 -4.63867 11.8164 -2.58789 14.3066 -2.58789 Z M 18.8965 -20.5566 L 26.5625 -20.5566 C 29.0039 -20.5566 30.8594 -22.3633 30.8105 -24.5117 C 30.8105 -26.709 29.0039 -28.4668 26.5625 -28.4668 L 18.8965 -28.4668 C 16.5039 -28.4668 14.6484 -26.709 14.6484 -24.5117 C 14.6484 -22.3633 16.5039 -20.5566 18.8965 -20.5566 Z M 91.0156 -20.5566 L 98.6816 -20.5566 C 101.123 -20.5566 102.93 -22.3633 102.93 -24.5117 C 102.93 -26.709 101.123 -28.4668 98.6816 -28.4668 L 91.0156 -28.4668 C 88.623 -28.4668 86.7188 -26.709 86.7676 -24.5117 C 86.7676 -22.3633 88.623 -20.5566 91.0156 -20.5566 Z"/>
  </g>
  <g id="Medium-S" transform="matrix(1 0 0 1 1687.77 696)">
   <path d="M 58.7891 -52.4414 C 60.8398 -52.4414 62.5977 -54.248 62.5977 -56.4941 L 62.5488 -69.6777 L 61.9629 -75.4883 L 64.4043 -72.3145 L 68.5059 -68.1641 C 69.1895 -67.3828 70.0684 -66.8945 71.0938 -66.8945 C 72.998 -66.8945 74.3652 -68.2617 74.3652 -70.0684 C 74.3652 -71.0938 73.9258 -71.875 73.1445 -72.6562 L 61.377 -83.4961 C 60.4004 -84.4238 59.7168 -84.7168 58.7891 -84.7168 C 57.8613 -84.7168 57.1777 -84.4238 56.2012 -83.4961 L 44.4336 -72.6562 C 43.6523 -71.875 43.2129 -71.0938 43.2129 -70.0684 C 43.2129 -68.2617 44.5801 -66.8945 46.4844 -66.8945 C 47.5098 -66.8945 48.3887 -67.3828 49.0723 -68.1641 L 53.5156 -72.7051 L 55.6152 -75.4883 L 55.0293 -69.6777 L 54.9805 -56.4941 C 54.9805 -54.248 56.7383 -52.4414 58.7891 -52.4414 Z M 78.5645 -42.334 C 80.0293 -40.8691 82.4707 -40.918 84.1309 -42.5781 L 89.7949 -48.1934 C 91.5039 -49.9023 91.4551 -52.2949 89.9902 -53.8086 C 88.5254 -55.2734 86.084 -55.2734 84.4238 -53.5645 L 78.7598 -47.9492 C 77.0996 -46.2891 77.0508 -43.7988 78.5645 -42.334 Z M 33.4473 -42.5781 C 35.1074 -40.918 37.5977 -40.8691 39.0137 -42.334 C 40.4785 -43.7988 40.4785 -46.2891 38.8184 -47.9492 L 33.1543 -53.5645 C 31.4941 -55.2734 29.0527 -55.2246 27.5879 -53.8086 C 26.123 -52.3438 26.0742 -49.9023 27.7832 -48.1934 Z M 13.9648 -2.97852 L 103.613 -2.97852 C 105.908 -2.97852 107.812 -4.83398 107.812 -7.03125 C 107.812 -9.22852 105.908 -11.0352 103.613 -11.0352 L 76.1719 -11.0352 C 78.418 -14.4043 79.7363 -18.3594 79.7363 -22.6562 C 79.7363 -34.1309 70.2637 -43.6523 58.7891 -43.6523 C 47.3145 -43.6523 37.8418 -34.1309 37.8418 -22.6562 C 37.8418 -18.3594 39.1602 -14.4043 41.4062 -11.0352 L 13.9648 -11.0352 C 11.6699 -11.0352 9.76562 -9.22852 9.76562 -7.03125 C 9.76562 -4.88281 11.6699 -2.97852 13.9648 -2.97852 Z M 18.75 -20.3125 L 26.709 -20.3125 C 29.1016 -20.3125 30.9082 -22.0215 30.8594 -24.0723 C 30.8105 -26.1719 29.1016 -27.8809 26.709 -27.8809 L 18.75 -27.8809 C 16.4062 -27.8809 14.6484 -26.1719 14.6484 -24.0723 C 14.6484 -22.0215 16.4062 -20.3125 18.75 -20.3125 Z M 90.8691 -20.3125 L 98.8281 -20.3125 C 101.172 -20.3125 102.93 -22.0215 102.93 -24.0723 C 102.93 -26.1719 101.172 -27.8809 98.8281 -27.8809 L 90.8691 -27.8809 C 88.5254 -27.8809 86.6699 -26.1719 86.7188 -24.0723 C 86.7676 -22.0215 88.5254 -20.3125 90.8691 -20.3125 Z"/>
  </g>
  <g id="Regular-S" transform="matrix(1 0 0 1 1391.06 696)">
   <path d="M 58.7891 -52.6855 C 60.6934 -52.6855 62.3535 -54.3945 62.3535 -56.543 L 62.3535 -70.459 L 61.8164 -75.9766 L 64.3555 -72.9492 L 68.75 -68.5059 C 69.3848 -67.9199 70.2148 -67.5293 71.0449 -67.5293 C 72.8027 -67.5293 74.0234 -68.7012 74.0234 -70.4102 C 74.0234 -71.3379 73.7305 -71.9727 73.0469 -72.6562 L 61.1328 -83.5449 C 60.2051 -84.375 59.5703 -84.668 58.7891 -84.668 C 58.0078 -84.668 57.373 -84.375 56.4453 -83.5449 L 44.5312 -72.6562 C 43.8477 -71.9727 43.5547 -71.3379 43.5547 -70.4102 C 43.5547 -68.7012 44.7754 -67.5293 46.5332 -67.5293 C 47.3633 -67.5293 48.1934 -67.9199 48.8281 -68.5059 L 53.7109 -73.4375 L 55.7617 -75.9766 L 55.2246 -70.459 L 55.2246 -56.543 C 55.2246 -54.3945 56.8848 -52.6855 58.7891 -52.6855 Z M 78.5156 -42.2852 C 79.9316 -40.918 82.2266 -40.918 83.8379 -42.5293 L 89.7461 -48.4375 C 91.4062 -50.0977 91.3574 -52.3438 89.9902 -53.7598 C 88.623 -55.1758 86.3281 -55.1758 84.7168 -53.5156 L 78.8086 -47.6074 C 77.1484 -45.9961 77.0996 -43.6523 78.5156 -42.2852 Z M 33.7402 -42.5293 C 35.3516 -40.918 37.6953 -40.8691 39.0625 -42.2852 C 40.4297 -43.7012 40.4297 -45.9961 38.7695 -47.6074 L 32.8613 -53.5156 C 31.25 -55.1758 29.0039 -55.127 27.5879 -53.7598 C 26.1719 -52.3926 26.1719 -50.0977 27.832 -48.4375 Z M 13.5742 -3.56445 L 104.004 -3.56445 C 106.055 -3.56445 107.812 -5.12695 107.812 -7.08008 C 107.812 -8.98438 106.055 -10.5957 104.004 -10.5957 L 75.9277 -10.5957 C 78.3203 -14.0137 79.7363 -18.1152 79.7363 -22.6074 C 79.7363 -34.0332 70.2148 -43.6035 58.7891 -43.6035 C 47.3633 -43.6035 37.8418 -34.0332 37.8418 -22.6074 C 37.8418 -18.1152 39.2578 -14.0137 41.6504 -10.5957 L 13.5742 -10.5957 C 11.5234 -10.5957 9.76562 -8.98438 9.76562 -7.08008 C 9.76562 -5.12695 11.5234 -3.56445 13.5742 -3.56445 Z M 18.6035 -19.9707 L 26.9531 -19.9707 C 29.248 -19.9707 30.957 -21.5332 30.9082 -23.5352 C 30.8594 -25.4883 29.1992 -27.0996 26.9531 -27.0996 L 18.6035 -27.0996 C 16.3086 -27.0996 14.6484 -25.4883 14.6484 -23.5352 C 14.6484 -21.5332 16.3086 -19.9707 18.6035 -19.9707 Z M 90.625 -19.9707 L 98.9746 -19.9707 C 101.27 -19.9707 102.93 -21.5332 102.93 -23.5352 C 102.93 -25.4883 101.27 -27.0996 98.9746 -27.0996 L 90.625 -27.0996 C 88.3789 -27.0996 86.6211 -25.4883 86.6699 -23.5352 C 86.7188 -21.5332 88.3789 -19.9707 90.625 -19.9707 Z"/>
  </g>
  <g id="Light-S" transform="matrix(1 0 0 1 1094.34 696)">
   <path d="M 58.7891 -53.0762 C 60.2539 -53.0762 61.5234 -54.3945 61.5234 -56.0547 L 61.5234 -70.752 L 61.1328 -76.709 L 64.209 -73.2422 L 69.3359 -68.1152 C 69.8242 -67.627 70.459 -67.334 71.1426 -67.334 C 72.5098 -67.334 73.4863 -68.2617 73.4863 -69.6289 C 73.4863 -70.3613 73.1934 -70.8984 72.6074 -71.4355 L 60.6445 -82.7637 C 59.9121 -83.3984 59.4238 -83.6426 58.7891 -83.6426 C 58.1543 -83.6426 57.666 -83.3984 56.9336 -82.7637 L 44.9707 -71.4355 C 44.3848 -70.8984 44.0918 -70.3613 44.0918 -69.6289 C 44.0918 -68.2617 45.0684 -67.334 46.4355 -67.334 C 47.1191 -67.334 47.7539 -67.627 48.2422 -68.1152 L 53.6621 -73.584 L 56.4453 -76.709 L 56.0547 -70.752 L 56.0547 -56.0547 C 56.0547 -54.3945 57.3242 -53.0762 58.7891 -53.0762 Z M 78.5156 -42.4805 C 79.5898 -41.4551 81.3477 -41.4551 82.5684 -42.627 L 89.8438 -49.9512 C 91.1133 -51.1719 91.0645 -52.8809 89.9902 -53.9551 C 88.9648 -55.0293 87.207 -55.0293 85.9863 -53.8086 L 78.7109 -46.5332 C 77.4902 -45.3125 77.4414 -43.5059 78.5156 -42.4805 Z M 35.0098 -42.627 C 36.2305 -41.4551 38.0371 -41.4062 39.0625 -42.4805 C 40.0879 -43.5547 40.0879 -45.3125 38.8672 -46.5332 L 31.5918 -53.8086 C 30.3711 -55.0293 28.6621 -54.9805 27.5879 -53.9551 C 26.5137 -52.9297 26.4648 -51.1719 27.7344 -49.9512 Z M 12.6953 -4.88281 L 104.883 -4.88281 C 106.494 -4.88281 107.812 -6.10352 107.812 -7.56836 C 107.812 -9.0332 106.494 -10.2539 104.883 -10.2539 L 74.9512 -10.2539 C 77.6855 -13.7207 79.2969 -18.0664 79.2969 -22.8027 C 79.2969 -34.0332 70.0195 -43.3594 58.7891 -43.3594 C 47.5586 -43.3594 38.2812 -34.0332 38.2812 -22.8027 C 38.2812 -18.0664 39.8926 -13.7207 42.627 -10.2539 L 12.6953 -10.2539 C 11.084 -10.2539 9.76562 -9.0332 9.76562 -7.56836 C 9.76562 -6.10352 11.084 -4.88281 12.6953 -4.88281 Z M 17.627 -20.9961 L 27.9297 -20.9961 C 29.6387 -20.9961 30.957 -22.2168 30.9082 -23.7305 C 30.8594 -25.2441 29.6387 -26.4648 27.9297 -26.4648 L 17.627 -26.4648 C 15.918 -26.4648 14.6484 -25.2441 14.6484 -23.7305 C 14.6484 -22.2168 15.918 -20.9961 17.627 -20.9961 Z M 89.6484 -20.9961 L 99.9512 -20.9961 C 101.709 -20.9961 102.93 -22.2168 102.93 -23.7305 C 102.93 -25.2441 101.709 -26.4648 99.9512 -26.4648 L 89.6484 -26.4648 C 87.9395 -26.4648 86.6211 -25.2441 86.6699 -23.7305 C 86.7188 -22.2168 87.9395 -20.9961 89.6484 -20.9961 Z"/>
  </g>
  <g id="Thin-S" transform="matrix(1 0 0 1 797.633 696)">
   <path d="M 58.7891 -53.6621 C 59.7168 -53.6621 60.4492 -54.4434 60.4492 -55.4199 L 60.4492 -71.0938 L 60.2051 -77.7344 L 64.0625 -73.6816 L 70.0684 -67.5293 C 70.4102 -67.1875 70.8008 -67.041 71.2402 -67.041 C 72.0703 -67.041 72.7539 -67.6758 72.7539 -68.5547 C 72.7539 -69.0918 72.5098 -69.4824 72.0703 -69.873 L 59.9609 -81.7383 C 59.5703 -82.0801 59.1797 -82.2754 58.7891 -82.2754 C 58.3984 -82.2754 58.0078 -82.0801 57.6172 -81.7383 L 45.5078 -69.873 C 45.0684 -69.4824 44.8242 -69.0918 44.8242 -68.5547 C 44.8242 -67.6758 45.5078 -67.041 46.3379 -67.041 C 46.7773 -67.041 47.168 -67.1875 47.5098 -67.5293 L 53.6621 -73.7793 L 57.373 -77.7344 L 57.1289 -71.0938 L 57.1289 -55.4199 C 57.1289 -54.4434 57.8613 -53.6621 58.7891 -53.6621 Z M 78.5156 -42.7246 C 79.1504 -42.1387 80.2246 -42.1387 80.8594 -42.7734 L 89.9414 -51.9043 C 90.6738 -52.5879 90.625 -53.6133 89.9902 -54.1992 C 89.4043 -54.834 88.3789 -54.8828 87.6465 -54.1992 L 78.5645 -45.1172 C 77.8809 -44.4336 77.8809 -43.3594 78.5156 -42.7246 Z M 36.7188 -42.7734 C 37.3535 -42.1387 38.4277 -42.1387 39.0625 -42.7246 C 39.6973 -43.3594 39.6973 -44.4336 39.0137 -45.1172 L 29.9316 -54.1992 C 29.1992 -54.8828 28.1738 -54.834 27.5879 -54.1992 C 26.9043 -53.6133 26.9043 -52.5879 27.6367 -51.9043 Z M 11.5723 -6.5918 L 106.006 -6.5918 C 106.982 -6.5918 107.812 -7.32422 107.812 -8.20312 C 107.812 -9.13086 106.982 -9.86328 106.006 -9.86328 L 73.6328 -9.86328 C 76.7578 -13.3789 78.7598 -17.9688 78.7598 -23.0469 C 78.7598 -33.9844 69.7754 -43.0176 58.7891 -43.0176 C 47.8027 -43.0176 38.8184 -33.9844 38.8184 -23.0469 C 38.8184 -17.9688 40.8203 -13.3789 43.9453 -9.86328 L 11.5723 -9.86328 C 10.5957 -9.86328 9.76562 -9.13086 9.76562 -8.20312 C 9.76562 -7.32422 10.5957 -6.5918 11.5723 -6.5918 Z M 16.3574 -22.3633 L 29.1992 -22.3633 C 30.2246 -22.3633 30.9082 -23.0957 30.9082 -23.9746 C 30.9082 -24.9023 30.1758 -25.6348 29.1992 -25.6348 L 16.3574 -25.6348 C 15.4297 -25.6348 14.6484 -24.9023 14.6484 -23.9746 C 14.6484 -23.0957 15.4297 -22.3633 16.3574 -22.3633 Z M 88.3789 -22.3633 L 101.221 -22.3633 C 102.197 -22.3633 102.93 -23.0957 102.93 -23.9746 C 102.93 -24.9023 102.197 -25.6348 101.221 -25.6348 L 88.3789 -25.6348 C 87.4512 -25.6348 86.6699 -24.9023 86.6699 -23.9746 C 86.6699 -23.0957 87.4512 -22.3633 88.3789 -22.3633 Z"/>
  </g>
  <g id="Ultralight-S" transform="matrix(1 0 0 1 500.922 696)">
   <path d="M 58.7891 -53.9551 C 59.375 -53.9551 59.9121 -54.4434 59.9121 -55.0781 L 59.9121 -71.2891 L 59.7168 -78.2715 L 63.9648 -73.877 L 70.459 -67.2363 C 70.752 -66.9922 70.9961 -66.8945 71.2891 -66.8945 C 71.875 -66.8945 72.3633 -67.334 72.3633 -68.0176 C 72.3633 -68.4082 72.168 -68.7012 71.7773 -69.0918 L 59.6191 -81.2012 C 59.375 -81.3965 59.082 -81.543 58.7891 -81.543 C 58.4961 -81.543 58.2031 -81.3965 57.959 -81.2012 L 45.8008 -69.0918 C 45.4102 -68.7012 45.2148 -68.4082 45.2148 -68.0176 C 45.2148 -67.334 45.7031 -66.8945 46.2891 -66.8945 C 46.582 -66.8945 46.8262 -66.9922 47.1191 -67.2363 L 53.6133 -73.877 L 57.8613 -78.2715 L 57.666 -71.2891 L 57.666 -55.0781 C 57.666 -54.4434 58.2031 -53.9551 58.7891 -53.9551 Z M 37.5977 -42.8711 C 37.9395 -42.4805 38.6719 -42.4805 39.0625 -42.8711 C 39.4531 -43.2617 39.4531 -43.9941 39.1113 -44.3359 L 29.0527 -54.3945 C 28.6133 -54.7852 27.9297 -54.7363 27.5879 -54.3457 C 27.1484 -53.9551 27.0996 -53.3203 27.5391 -52.8809 Z M 78.5156 -42.8711 C 78.9062 -42.4805 79.6387 -42.4805 79.9805 -42.8711 L 90.0391 -52.8809 C 90.4785 -53.3203 90.4297 -53.9551 89.9902 -54.3457 C 89.6484 -54.7363 88.9648 -54.7852 88.5254 -54.3945 L 78.4668 -44.3359 C 78.125 -43.9941 78.125 -43.2617 78.5156 -42.8711 Z M 10.9863 -7.51953 L 106.592 -7.51953 C 107.275 -7.51953 107.812 -7.95898 107.812 -8.54492 C 107.812 -9.17969 107.275 -9.61914 106.592 -9.61914 L 72.9492 -9.61914 C 76.3184 -13.1836 78.418 -17.9199 78.418 -23.1934 C 78.418 -33.9844 69.6289 -42.8711 58.7891 -42.8711 C 47.9492 -42.8711 39.1602 -33.9844 39.1602 -23.1934 C 39.1602 -17.9199 41.2598 -13.1836 44.6289 -9.61914 L 10.9863 -9.61914 C 10.3027 -9.61914 9.76562 -9.17969 9.76562 -8.54492 C 9.76562 -7.95898 10.3027 -7.51953 10.9863 -7.51953 Z M 15.6738 -23.0957 L 29.8828 -23.0957 C 30.5176 -23.0957 30.9082 -23.584 30.9082 -24.1211 C 30.9082 -24.707 30.4688 -25.1953 29.8828 -25.1953 L 15.6738 -25.1953 C 15.1367 -25.1953 14.6484 -24.707 14.6484 -24.1211 C 14.6484 -23.584 15.1367 -23.0957 15.6738 -23.0957 Z M 87.6953 -23.0957 L 101.904 -23.0957 C 102.49 -23.0957 102.93 -23.584 102.93 -24.1211 C 102.93 -24.707 102.49 -25.1953 101.904 -25.1953 L 87.6953 -25.1953 C 87.1582 -25.1953 86.6699 -24.707 86.6699 -24.1211 C 86.6699 -23.584 87.1582 -23.0957 87.6953 -23.0957 Z"/>
  </g>
 </g>
</svg>
