<?xml version="1.0" encoding="UTF-8"?>
<!--Generator: Apple Native CoreSVG 123-->
<!DOCTYPE svg
PUBLIC "-//W3C//DTD SVG 1.1//EN"
       "http://www.w3.org/Graphics/SVG/1.1/DTD/svg11.dtd">
<svg version="1.1" xmlns="http://www.w3.org/2000/svg" xmlns:xlink="http://www.w3.org/1999/xlink" width="3300" height="2200">
 <!--glyph: "uni1001EC.medium", point size: 100.000000, font version: "Version 15.0d7e11", template writer version: "5"-->
 <g id="Notes">
  <rect height="2200" id="artboard" style="fill:white;opacity:1" width="3300" x="0" y="0"/>
  <line id="" style="fill:none;stroke:black;opacity:1;stroke-width:0.5;" x1="263" x2="3036" y1="292" y2="292"/>
  <text style="stroke:none;fill:black;font-family:-apple-system,&quot;SF Pro Display&quot;,&quot;SF Pro Text&quot;,Helvetica,sans-serif;font-weight:bold;" transform="matrix(1 0 0 1 263 322)">Weight/Scale Variations</text>
  <text style="stroke:none;fill:black;font-family:-apple-system,&quot;SF Pro Display&quot;,&quot;SF Pro Text&quot;,Helvetica,sans-serif;text-anchor:middle;" transform="matrix(1 0 0 1 559.711 322)">Ultralight</text>
  <text style="stroke:none;fill:black;font-family:-apple-system,&quot;SF Pro Display&quot;,&quot;SF Pro Text&quot;,Helvetica,sans-serif;text-anchor:middle;" transform="matrix(1 0 0 1 856.422 322)">Thin</text>
  <text style="stroke:none;fill:black;font-family:-apple-system,&quot;SF Pro Display&quot;,&quot;SF Pro Text&quot;,Helvetica,sans-serif;text-anchor:middle;" transform="matrix(1 0 0 1 1153.13 322)">Light</text>
  <text style="stroke:none;fill:black;font-family:-apple-system,&quot;SF Pro Display&quot;,&quot;SF Pro Text&quot;,Helvetica,sans-serif;text-anchor:middle;" transform="matrix(1 0 0 1 1449.84 322)">Regular</text>
  <text style="stroke:none;fill:black;font-family:-apple-system,&quot;SF Pro Display&quot;,&quot;SF Pro Text&quot;,Helvetica,sans-serif;text-anchor:middle;" transform="matrix(1 0 0 1 1746.56 322)">Medium</text>
  <text style="stroke:none;fill:black;font-family:-apple-system,&quot;SF Pro Display&quot;,&quot;SF Pro Text&quot;,Helvetica,sans-serif;text-anchor:middle;" transform="matrix(1 0 0 1 2043.27 322)">Semibold</text>
  <text style="stroke:none;fill:black;font-family:-apple-system,&quot;SF Pro Display&quot;,&quot;SF Pro Text&quot;,Helvetica,sans-serif;text-anchor:middle;" transform="matrix(1 0 0 1 2339.98 322)">Bold</text>
  <text style="stroke:none;fill:black;font-family:-apple-system,&quot;SF Pro Display&quot;,&quot;SF Pro Text&quot;,Helvetica,sans-serif;text-anchor:middle;" transform="matrix(1 0 0 1 2636.69 322)">Heavy</text>
  <text style="stroke:none;fill:black;font-family:-apple-system,&quot;SF Pro Display&quot;,&quot;SF Pro Text&quot;,Helvetica,sans-serif;text-anchor:middle;" transform="matrix(1 0 0 1 2933.4 322)">Black</text>
  <line id="" style="fill:none;stroke:black;opacity:1;stroke-width:0.5;" x1="263" x2="3036" y1="1903" y2="1903"/>
  <g id="" transform="matrix(1 0 0 1 263 1933)">
   <path d="M 9.24805 0.830078 C 13.5547 0.830078 17.1387 -2.74414 17.1387 -7.05078 C 17.1387 -11.3574 13.5449 -14.9316 9.23828 -14.9316 C 4.94141 -14.9316 1.36719 -11.3574 1.36719 -7.05078 C 1.36719 -2.74414 4.95117 0.830078 9.24805 0.830078 Z M 9.24805 -0.654297 C 5.70312 -0.654297 2.87109 -3.49609 2.87109 -7.05078 C 2.87109 -10.6055 5.69336 -13.4473 9.23828 -13.4473 C 12.793 -13.4473 15.6348 -10.6055 15.6445 -7.05078 C 15.6543 -3.49609 12.8027 -0.654297 9.24805 -0.654297 Z M 9.22852 -3.42773 C 9.69727 -3.42773 9.9707 -3.74023 9.9707 -4.25781 L 9.9707 -6.31836 L 12.1973 -6.31836 C 12.6953 -6.31836 13.0371 -6.57227 13.0371 -7.04102 C 13.0371 -7.51953 12.7148 -7.7832 12.1973 -7.7832 L 9.9707 -7.7832 L 9.9707 -10.0098 C 9.9707 -10.5273 9.69727 -10.8496 9.22852 -10.8496 C 8.75977 -10.8496 8.50586 -10.5078 8.50586 -10.0098 L 8.50586 -7.7832 L 6.29883 -7.7832 C 5.78125 -7.7832 5.44922 -7.51953 5.44922 -7.04102 C 5.44922 -6.57227 5.80078 -6.31836 6.29883 -6.31836 L 8.50586 -6.31836 L 8.50586 -4.25781 C 8.50586 -3.75977 8.75977 -3.42773 9.22852 -3.42773 Z"/>
  </g>
  <g id="" transform="matrix(1 0 0 1 281.506 1933)">
   <path d="M 11.709 2.91016 C 17.1582 2.91016 21.6699 -1.60156 21.6699 -7.05078 C 21.6699 -12.4902 17.1484 -17.0117 11.6992 -17.0117 C 6.25977 -17.0117 1.74805 -12.4902 1.74805 -7.05078 C 1.74805 -1.60156 6.26953 2.91016 11.709 2.91016 Z M 11.709 1.25 C 7.09961 1.25 3.41797 -2.44141 3.41797 -7.05078 C 3.41797 -11.6504 7.08984 -15.3516 11.6992 -15.3516 C 16.3086 -15.3516 20 -11.6504 20.0098 -7.05078 C 20.0195 -2.44141 16.3184 1.25 11.709 1.25 Z M 11.6895 -2.41211 C 12.207 -2.41211 12.5195 -2.77344 12.5195 -3.33984 L 12.5195 -6.23047 L 15.5762 -6.23047 C 16.123 -6.23047 16.5039 -6.51367 16.5039 -7.03125 C 16.5039 -7.55859 16.1426 -7.86133 15.5762 -7.86133 L 12.5195 -7.86133 L 12.5195 -10.9277 C 12.5195 -11.5039 12.207 -11.8555 11.6895 -11.8555 C 11.1719 -11.8555 10.8789 -11.4844 10.8789 -10.9277 L 10.8789 -7.86133 L 7.83203 -7.86133 C 7.26562 -7.86133 6.89453 -7.55859 6.89453 -7.03125 C 6.89453 -6.51367 7.28516 -6.23047 7.83203 -6.23047 L 10.8789 -6.23047 L 10.8789 -3.33984 C 10.8789 -2.79297 11.1719 -2.41211 11.6895 -2.41211 Z"/>
  </g>
  <g id="" transform="matrix(1 0 0 1 304.924 1933)">
   <path d="M 14.9707 5.67383 C 21.9336 5.67383 27.6953 -0.078125 27.6953 -7.04102 C 27.6953 -14.0039 21.9238 -19.7559 14.9609 -19.7559 C 8.00781 -19.7559 2.25586 -14.0039 2.25586 -7.04102 C 2.25586 -0.078125 8.01758 5.67383 14.9707 5.67383 Z M 14.9707 3.85742 C 8.93555 3.85742 4.08203 -1.00586 4.08203 -7.04102 C 4.08203 -13.0762 8.92578 -17.9395 14.9609 -17.9395 C 21.0059 -17.9395 25.8594 -13.0762 25.8691 -7.04102 C 25.8789 -1.00586 21.0156 3.85742 14.9707 3.85742 Z M 14.9512 -1.06445 C 15.5176 -1.06445 15.8691 -1.45508 15.8691 -2.06055 L 15.8691 -6.13281 L 20.1074 -6.13281 C 20.6934 -6.13281 21.1133 -6.46484 21.1133 -7.02148 C 21.1133 -7.59766 20.7227 -7.93945 20.1074 -7.93945 L 15.8691 -7.93945 L 15.8691 -12.1875 C 15.8691 -12.8027 15.5176 -13.1934 14.9512 -13.1934 C 14.3848 -13.1934 14.0625 -12.7832 14.0625 -12.1875 L 14.0625 -7.93945 L 9.83398 -7.93945 C 9.21875 -7.93945 8.80859 -7.59766 8.80859 -7.02148 C 8.80859 -6.46484 9.23828 -6.13281 9.83398 -6.13281 L 14.0625 -6.13281 L 14.0625 -2.06055 C 14.0625 -1.47461 14.3848 -1.06445 14.9512 -1.06445 Z"/>
  </g>
  <text style="stroke:none;fill:black;font-family:-apple-system,&quot;SF Pro Display&quot;,&quot;SF Pro Text&quot;,Helvetica,sans-serif;font-weight:bold;" transform="matrix(1 0 0 1 263 1953)">Design Variations</text>
  <text style="stroke:none;fill:black;font-family:-apple-system,&quot;SF Pro Display&quot;,&quot;SF Pro Text&quot;,Helvetica,sans-serif;" transform="matrix(1 0 0 1 263 1971)">Symbols are supported in up to nine weights and three scales.</text>
  <text style="stroke:none;fill:black;font-family:-apple-system,&quot;SF Pro Display&quot;,&quot;SF Pro Text&quot;,Helvetica,sans-serif;" transform="matrix(1 0 0 1 263 1989)">For optimal layout with text and other symbols, vertically align</text>
  <text style="stroke:none;fill:black;font-family:-apple-system,&quot;SF Pro Display&quot;,&quot;SF Pro Text&quot;,Helvetica,sans-serif;" transform="matrix(1 0 0 1 263 2007)">symbols with the adjacent text.</text>
  <rect height="14" id="" style="fill:#00AEEF;stroke:none;opacity:0.4;" width="3" x="776" y="1919"/>
  <g id="" transform="matrix(1 0 0 1 779 1933)">
   <path d="M 10.5273 0 L 12.373 0 L 7.17773 -14.0918 L 5.43945 -14.0918 L 0.244141 0 L 2.08984 0 L 3.50586 -4.0332 L 9.11133 -4.0332 Z M 6.2793 -11.9531 L 6.33789 -11.9531 L 8.59375 -5.52734 L 4.02344 -5.52734 Z"/>
  </g>
  <rect height="14" id="" style="fill:#00AEEF;stroke:none;opacity:0.4;" width="3" x="791.617" y="1919"/>
  <text style="stroke:none;fill:black;font-family:-apple-system,&quot;SF Pro Display&quot;,&quot;SF Pro Text&quot;,Helvetica,sans-serif;font-weight:bold;" transform="matrix(1 0 0 1 776 1953)">Margins</text>
  <text style="stroke:none;fill:black;font-family:-apple-system,&quot;SF Pro Display&quot;,&quot;SF Pro Text&quot;,Helvetica,sans-serif;" transform="matrix(1 0 0 1 776 1971)">Leading and trailing margins on the left and right side of each symbol</text>
  <text style="stroke:none;fill:black;font-family:-apple-system,&quot;SF Pro Display&quot;,&quot;SF Pro Text&quot;,Helvetica,sans-serif;" transform="matrix(1 0 0 1 776 1989)">can be adjusted by modifying the width of the blue rectangles.</text>
  <text style="stroke:none;fill:black;font-family:-apple-system,&quot;SF Pro Display&quot;,&quot;SF Pro Text&quot;,Helvetica,sans-serif;" transform="matrix(1 0 0 1 776 2007)">Modifications are automatically applied proportionally to all</text>
  <text style="stroke:none;fill:black;font-family:-apple-system,&quot;SF Pro Display&quot;,&quot;SF Pro Text&quot;,Helvetica,sans-serif;" transform="matrix(1 0 0 1 776 2025)">scales and weights.</text>
  <g id="" transform="matrix(1 0 0 1 1289 1933)">
   <path d="M 2.83203 3.11523 L 4.375 4.6582 C 5.22461 5.48828 6.19141 5.41992 7.06055 4.46289 L 17.2754 -6.66016 C 17.7051 -6.36719 18.0957 -6.37695 18.5645 -6.47461 L 19.6094 -6.68945 L 20.3027 -5.99609 L 20.2539 -5.47852 C 20.1855 -4.95117 20.3516 -4.53125 20.8496 -4.0332 L 21.6602 -3.22266 C 22.168 -2.71484 22.8223 -2.68555 23.3008 -3.16406 L 26.5527 -6.41602 C 27.0312 -6.89453 27.0117 -7.54883 26.5039 -8.05664 L 25.6836 -8.87695 C 25.1855 -9.375 24.7754 -9.55078 24.2383 -9.47266 L 23.7109 -9.41406 L 23.0566 -10.0781 L 23.3398 -11.2207 C 23.4863 -11.7871 23.3398 -12.2559 22.7148 -12.8613 L 20.3027 -15.2539 C 16.7578 -18.7793 12.2266 -18.6719 9.11133 -15.5371 C 8.69141 -15.1074 8.64258 -14.5215 8.91602 -14.0918 C 9.15039 -13.7207 9.62891 -13.4961 10.2734 -13.6621 C 11.7871 -14.043 13.3008 -13.9258 14.7852 -12.9199 L 14.1602 -11.3379 C 13.9258 -10.752 13.9453 -10.2734 14.1797 -9.83398 L 3.01758 0.439453 C 2.08008 1.30859 1.97266 2.25586 2.83203 3.11523 Z M 10.6738 -15.1465 C 13.3398 -17.1387 16.6504 -16.8262 19.0527 -14.4141 L 21.6797 -11.8066 C 21.9141 -11.5723 21.9434 -11.3867 21.8848 -11.0938 L 21.5039 -9.53125 L 23.0762 -7.95898 L 24.043 -8.04688 C 24.3262 -8.07617 24.4141 -8.05664 24.6387 -7.83203 L 25.2637 -7.20703 L 22.5098 -4.46289 L 21.8848 -5.07812 C 21.6602 -5.30273 21.6406 -5.40039 21.6699 -5.68359 L 21.7578 -6.64062 L 20.1953 -8.20312 L 18.5742 -7.89062 C 18.291 -7.83203 18.1445 -7.83203 17.9102 -8.07617 L 15.7324 -10.2539 C 15.5078 -10.4883 15.4785 -10.625 15.6055 -10.9473 L 16.5527 -13.2227 C 14.9512 -14.7559 12.8418 -15.6055 10.8008 -14.9512 C 10.7129 -14.9219 10.6445 -14.9414 10.6152 -14.9805 C 10.5859 -15.0293 10.5859 -15.0781 10.6738 -15.1465 Z M 4.10156 2.41211 C 3.61328 1.91406 3.78906 1.61133 4.12109 1.30859 L 15.0781 -8.80859 L 16.3086 -7.57812 L 6.15234 3.34961 C 5.84961 3.68164 5.46875 3.7793 5.06836 3.37891 Z"/>
  </g>
  <text style="stroke:none;fill:black;font-family:-apple-system,&quot;SF Pro Display&quot;,&quot;SF Pro Text&quot;,Helvetica,sans-serif;font-weight:bold;" transform="matrix(1 0 0 1 1289 1953)">Exporting</text>
  <text style="stroke:none;fill:black;font-family:-apple-system,&quot;SF Pro Display&quot;,&quot;SF Pro Text&quot;,Helvetica,sans-serif;" transform="matrix(1 0 0 1 1289 1971)">Symbols should be outlined when exporting to ensure the</text>
  <text style="stroke:none;fill:black;font-family:-apple-system,&quot;SF Pro Display&quot;,&quot;SF Pro Text&quot;,Helvetica,sans-serif;" transform="matrix(1 0 0 1 1289 1989)">design is preserved when submitting to Xcode.</text>
  <text id="template-version" style="stroke:none;fill:black;font-family:-apple-system,&quot;SF Pro Display&quot;,&quot;SF Pro Text&quot;,Helvetica,sans-serif;text-anchor:end;" transform="matrix(1 0 0 1 3036 1933)">Template v.1.0</text>
  <text style="stroke:none;fill:black;font-family:-apple-system,&quot;SF Pro Display&quot;,&quot;SF Pro Text&quot;,Helvetica,sans-serif;text-anchor:end;" transform="matrix(1 0 0 1 3036 1951)">Generated from thermometer</text>
  <text style="stroke:none;fill:black;font-family:-apple-system,&quot;SF Pro Display&quot;,&quot;SF Pro Text&quot;,Helvetica,sans-serif;text-anchor:end;" transform="matrix(1 0 0 1 3036 1969)">Typeset at 100 points</text>
  <text style="stroke:none;fill:black;font-family:-apple-system,&quot;SF Pro Display&quot;,&quot;SF Pro Text&quot;,Helvetica,sans-serif;" transform="matrix(1 0 0 1 263 726)">Small</text>
  <text style="stroke:none;fill:black;font-family:-apple-system,&quot;SF Pro Display&quot;,&quot;SF Pro Text&quot;,Helvetica,sans-serif;" transform="matrix(1 0 0 1 263 1156)">Medium</text>
  <text style="stroke:none;fill:black;font-family:-apple-system,&quot;SF Pro Display&quot;,&quot;SF Pro Text&quot;,Helvetica,sans-serif;" transform="matrix(1 0 0 1 263 1586)">Large</text>
 </g>
 <g id="Guides">
  <g id="H-reference" style="fill:#27AAE1;stroke:none;" transform="matrix(1 0 0 1 339 696)">
   <path d="M 54.9316 0 L 57.666 0 L 30.5664 -70.459 L 28.0762 -70.459 L 0.976562 0 L 3.66211 0 L 12.9395 -24.4629 L 45.7031 -24.4629 Z M 29.1992 -67.0898 L 29.4434 -67.0898 L 44.8242 -26.709 L 13.8184 -26.709 Z"/>
  </g>
  <line id="Baseline-S" style="fill:none;stroke:#27AAE1;opacity:1;stroke-width:0.577;" x1="263" x2="3036" y1="696" y2="696"/>
  <line id="Capline-S" style="fill:none;stroke:#27AAE1;opacity:1;stroke-width:0.577;" x1="263" x2="3036" y1="625.541" y2="625.541"/>
  <g id="H-reference" style="fill:#27AAE1;stroke:none;" transform="matrix(1 0 0 1 339 1126)">
   <path d="M 54.9316 0 L 57.666 0 L 30.5664 -70.459 L 28.0762 -70.459 L 0.976562 0 L 3.66211 0 L 12.9395 -24.4629 L 45.7031 -24.4629 Z M 29.1992 -67.0898 L 29.4434 -67.0898 L 44.8242 -26.709 L 13.8184 -26.709 Z"/>
  </g>
  <line id="Baseline-M" style="fill:none;stroke:#27AAE1;opacity:1;stroke-width:0.577;" x1="263" x2="3036" y1="1126" y2="1126"/>
  <line id="Capline-M" style="fill:none;stroke:#27AAE1;opacity:1;stroke-width:0.577;" x1="263" x2="3036" y1="1055.54" y2="1055.54"/>
  <g id="H-reference" style="fill:#27AAE1;stroke:none;" transform="matrix(1 0 0 1 339 1556)">
   <path d="M 54.9316 0 L 57.666 0 L 30.5664 -70.459 L 28.0762 -70.459 L 0.976562 0 L 3.66211 0 L 12.9395 -24.4629 L 45.7031 -24.4629 Z M 29.1992 -67.0898 L 29.4434 -67.0898 L 44.8242 -26.709 L 13.8184 -26.709 Z"/>
  </g>
  <line id="Baseline-L" style="fill:none;stroke:#27AAE1;opacity:1;stroke-width:0.577;" x1="263" x2="3036" y1="1556" y2="1556"/>
  <line id="Capline-L" style="fill:none;stroke:#27AAE1;opacity:1;stroke-width:0.577;" x1="263" x2="3036" y1="1485.54" y2="1485.54"/>
  <rect height="119.336" id="left-margin" style="fill:#00AEEF;stroke:none;opacity:0.4;" width="8.74023" x="1409.34" y="1030.79"/>
  <rect height="119.336" id="right-margin" style="fill:#00AEEF;stroke:none;opacity:0.4;" width="8.74023" x="1481.61" y="1030.79"/>
 </g>
 <g id="Symbols">
  <g id="Black-L" transform="matrix(1 0 0 1 2873.07 1556)">
   <path d="M 50.9766 41.2598 C 72.7539 41.2598 90.5273 24.0234 90.5273 2.14844 C 90.5273 -8.39844 86.4746 -17.5293 79.0039 -24.8535 C 77.7832 -26.0742 77.5879 -26.6113 77.5879 -28.2227 L 77.6367 -78.8086 C 77.6367 -95.8984 66.7969 -107.422 50.9766 -107.422 C 34.9121 -107.422 24.1699 -95.8984 24.1699 -78.8086 L 24.2188 -28.2227 C 24.2188 -26.6113 23.9746 -25.9766 22.8027 -24.8535 C 15.1367 -17.7734 11.2793 -8.39844 11.2793 2.14844 C 11.2793 24.0234 29.0039 41.2598 50.9766 41.2598 Z M 50.9766 24.5605 C 38.2812 24.5605 28.0762 14.2578 28.0762 1.5625 C 28.0762 -6.73828 31.9336 -13.2324 38.4277 -17.5293 C 40.2832 -18.7012 41.0156 -19.6777 41.0156 -22.168 L 41.0156 -78.3203 C 41.0156 -85.7422 45.0195 -90.625 50.9766 -90.625 C 56.7871 -90.625 60.791 -85.7422 60.791 -78.3203 L 60.791 -22.168 C 60.791 -19.6777 61.5234 -18.7012 63.3789 -17.5293 C 69.873 -13.2324 73.7305 -6.73828 73.7305 1.5625 C 73.7305 14.2578 63.5254 24.5605 50.9766 24.5605 Z M 90.2832 -78.0762 L 104.785 -78.0762 C 107.568 -78.0762 109.375 -80.127 109.375 -82.666 C 109.375 -85.2051 107.568 -87.207 104.785 -87.207 L 90.2832 -87.207 C 87.5 -87.207 85.6934 -85.2051 85.6934 -82.666 C 85.6934 -80.127 87.5 -78.0762 90.2832 -78.0762 Z M 90.2832 -61.2793 L 104.785 -61.2793 C 107.568 -61.2793 109.375 -63.2812 109.375 -65.8203 C 109.375 -68.3594 107.568 -70.4102 104.785 -70.4102 L 90.2832 -70.4102 C 87.5 -70.4102 85.6934 -68.3594 85.6934 -65.8203 C 85.6934 -63.2812 87.5 -61.2793 90.2832 -61.2793 Z M 90.2832 -44.1895 L 104.785 -44.1895 C 107.568 -44.1895 109.375 -46.1914 109.375 -48.7305 C 109.375 -51.2695 107.568 -53.2715 104.785 -53.2715 L 90.2832 -53.2715 C 87.5 -53.2715 85.6934 -51.2695 85.6934 -48.7305 C 85.6934 -46.1914 87.5 -44.1895 90.2832 -44.1895 Z M 50.8789 16.0156 C 58.8379 16.0156 65.2832 9.61914 65.2832 1.5625 C 65.2832 -4.00391 62.1582 -8.59375 57.5684 -11.084 C 55.6641 -12.1094 54.9805 -12.8418 54.9805 -15.7227 L 54.9805 -44.2871 C 54.9805 -47.3633 53.125 -49.2188 50.8789 -49.2188 C 48.6328 -49.2188 46.7773 -47.3633 46.7773 -44.2871 L 46.7773 -15.7227 C 46.7773 -12.8418 46.1426 -12.1094 44.2383 -11.084 C 39.6484 -8.59375 36.5234 -4.00391 36.5234 1.5625 C 36.5234 9.61914 42.9199 16.0156 50.8789 16.0156 Z M 90.2832 -27.0508 L 104.785 -27.0508 C 107.568 -27.0508 109.375 -29.0527 109.375 -31.6406 C 109.375 -34.1797 107.568 -36.1816 104.785 -36.1816 L 90.2832 -36.1816 C 87.5 -36.1816 85.6934 -34.1797 85.6934 -31.6406 C 85.6934 -29.0527 87.5 -27.0508 90.2832 -27.0508 Z"/>
  </g>
  <g id="Heavy-L" transform="matrix(1 0 0 1 2578.56 1556)">
   <path d="M 49.2188 40.9668 C 70.0684 40.9668 87.0605 24.4141 87.0605 3.51562 C 87.0605 -6.78711 83.0566 -15.6738 75.5371 -22.9004 C 74.2676 -24.0723 74.0234 -24.707 74.0234 -26.416 L 74.1211 -78.7109 C 74.1211 -94.7754 64.0137 -105.566 49.2188 -105.566 C 34.2773 -105.566 24.2188 -94.7754 24.2188 -78.7109 L 24.3164 -26.416 C 24.3164 -24.707 24.0234 -24.0234 22.7539 -22.9004 C 15.1367 -15.8691 11.2793 -6.78711 11.2793 3.51562 C 11.2793 24.4141 28.2227 40.9668 49.2188 40.9668 Z M 49.2188 26.3672 C 36.3281 26.3672 25.9766 15.918 25.9766 3.07617 C 25.9766 -5.17578 29.7852 -11.8164 36.3281 -16.1621 C 38.2324 -17.4316 38.9648 -18.5059 38.9648 -20.9961 L 38.9648 -78.2227 C 38.9648 -85.8887 43.1152 -90.8691 49.2188 -90.8691 C 55.1758 -90.8691 59.3262 -85.8887 59.3262 -78.2227 L 59.3262 -20.9961 C 59.3262 -18.5059 60.0586 -17.4316 61.9629 -16.1621 C 68.5547 -11.8164 72.3633 -5.17578 72.3633 3.07617 C 72.3633 15.918 61.9629 26.3672 49.2188 26.3672 Z M 86.4258 -77.7344 L 100.684 -77.7344 C 103.271 -77.7344 104.98 -79.6387 104.98 -81.9824 C 104.98 -84.3262 103.271 -86.2305 100.684 -86.2305 L 86.4258 -86.2305 C 83.8379 -86.2305 82.1289 -84.3262 82.1289 -81.9824 C 82.1289 -79.6387 83.8379 -77.7344 86.4258 -77.7344 Z M 86.4258 -60.7422 L 100.684 -60.7422 C 103.271 -60.7422 104.98 -62.5977 104.98 -64.9902 C 104.98 -67.334 103.271 -69.1895 100.684 -69.1895 L 86.4258 -69.1895 C 83.8379 -69.1895 82.1289 -67.334 82.1289 -64.9902 C 82.1289 -62.5977 83.8379 -60.7422 86.4258 -60.7422 Z M 86.4258 -43.5059 L 100.684 -43.5059 C 103.271 -43.5059 104.98 -45.3613 104.98 -47.7051 C 104.98 -50.0488 103.271 -51.9531 100.684 -51.9531 L 86.4258 -51.9531 C 83.8379 -51.9531 82.1289 -50.0488 82.1289 -47.7051 C 82.1289 -45.3613 83.8379 -43.5059 86.4258 -43.5059 Z M 49.1699 17.8711 C 57.3242 17.8711 63.916 11.2793 63.916 3.02734 C 63.916 -2.63672 60.6934 -7.37305 56.0059 -9.91211 C 54.0039 -10.9863 53.3691 -11.7188 53.3691 -14.6973 L 53.3691 -44.3359 C 53.3691 -47.4609 51.4648 -49.3652 49.1699 -49.3652 C 46.8262 -49.3652 44.9707 -47.4609 44.9707 -44.3359 L 44.9707 -14.6973 C 44.9707 -11.7188 44.2871 -10.9863 42.334 -9.91211 C 37.6465 -7.37305 34.4238 -2.63672 34.4238 3.02734 C 34.4238 11.2793 41.0156 17.8711 49.1699 17.8711 Z M 86.4258 -26.2207 L 100.684 -26.2207 C 103.271 -26.2207 104.98 -28.125 104.98 -30.4688 C 104.98 -32.8125 103.271 -34.7168 100.684 -34.7168 L 86.4258 -34.7168 C 83.8379 -34.7168 82.1289 -32.8125 82.1289 -30.4688 C 82.1289 -28.125 83.8379 -26.2207 86.4258 -26.2207 Z"/>
  </g>
  <g id="Bold-L" transform="matrix(1 0 0 1 2284.31 1556)">
   <path d="M 47.2656 40.6738 C 67.0898 40.6738 83.1543 24.8535 83.1543 5.0293 C 83.1543 -4.98047 79.1992 -13.6719 71.6797 -20.6543 C 70.3613 -21.875 70.0684 -22.6074 70.0684 -24.4141 L 70.1172 -78.5645 C 70.1172 -93.457 60.8887 -103.467 47.2656 -103.467 C 33.4961 -103.467 24.3164 -93.457 24.3164 -78.5645 L 24.3652 -24.4141 C 24.3652 -22.6074 24.0723 -21.875 22.7539 -20.6543 C 15.1367 -13.7695 11.2793 -4.98047 11.2793 5.0293 C 11.2793 24.8535 27.3438 40.6738 47.2656 40.6738 Z M 47.2656 28.418 C 34.1797 28.418 23.6328 17.7734 23.6328 4.73633 C 23.6328 -3.36914 27.3926 -10.2051 34.0332 -14.6484 C 35.9863 -15.9668 36.7188 -17.1387 36.7188 -19.7266 L 36.7188 -78.125 C 36.7188 -86.0352 40.9668 -91.1133 47.2656 -91.1133 C 53.4668 -91.1133 57.7148 -86.0352 57.7148 -78.125 L 57.7148 -19.7266 C 57.7148 -17.1387 58.4473 -15.9668 60.4004 -14.6484 C 67.041 -10.2051 70.8008 -3.36914 70.8008 4.73633 C 70.8008 17.7734 60.2539 28.418 47.2656 28.418 Z M 82.1289 -77.3926 L 96.0938 -77.3926 C 98.4375 -77.3926 100.049 -79.1016 100.049 -81.25 C 100.049 -83.3984 98.4375 -85.1562 96.0938 -85.1562 L 82.1289 -85.1562 C 79.7363 -85.1562 78.1738 -83.3984 78.1738 -81.25 C 78.1738 -79.1016 79.7363 -77.3926 82.1289 -77.3926 Z M 82.1289 -60.1074 L 96.0938 -60.1074 C 98.4375 -60.1074 100.049 -61.8652 100.049 -64.0137 C 100.049 -66.1133 98.4375 -67.8711 96.0938 -67.8711 L 82.1289 -67.8711 C 79.7363 -67.8711 78.1738 -66.1133 78.1738 -64.0137 C 78.1738 -61.8652 79.7363 -60.1074 82.1289 -60.1074 Z M 82.1289 -42.7246 L 96.0938 -42.7246 C 98.4375 -42.7246 100.049 -44.4824 100.049 -46.582 C 100.049 -48.7305 98.4375 -50.4883 96.0938 -50.4883 L 82.1289 -50.4883 C 79.7363 -50.4883 78.1738 -48.7305 78.1738 -46.582 C 78.1738 -44.4824 79.7363 -42.7246 82.1289 -42.7246 Z M 47.2168 19.9219 C 55.6152 19.9219 62.3535 13.1348 62.3535 4.6875 C 62.3535 -1.17188 59.082 -6.00586 54.248 -8.59375 C 52.1973 -9.7168 51.5137 -10.4492 51.5137 -13.5254 L 51.5137 -44.3359 C 51.5137 -47.5586 49.6094 -49.5605 47.2168 -49.5605 C 44.8242 -49.5605 42.9199 -47.5586 42.9199 -44.3359 L 42.9199 -13.5254 C 42.9199 -10.4492 42.2363 -9.7168 40.1855 -8.59375 C 35.3516 -6.00586 32.0801 -1.17188 32.0801 4.6875 C 32.0801 13.1348 38.8184 19.9219 47.2168 19.9219 Z M 82.1289 -25.293 L 96.0938 -25.293 C 98.4375 -25.293 100.049 -27.0508 100.049 -29.1992 C 100.049 -31.3477 98.4375 -33.0566 96.0938 -33.0566 L 82.1289 -33.0566 C 79.7363 -33.0566 78.1738 -31.3477 78.1738 -29.1992 C 78.1738 -27.0508 79.7363 -25.293 82.1289 -25.293 Z"/>
  </g>
  <g id="Semibold-L" transform="matrix(1 0 0 1 1989.31 1556)">
   <path d="M 45.9473 40.4785 C 64.9902 40.4785 80.4688 25.1465 80.4688 6.05469 C 80.4688 -3.71094 76.5625 -12.2559 68.9941 -19.1406 C 67.627 -20.3613 67.334 -21.1426 67.334 -23.0469 L 67.3828 -78.4668 C 67.3828 -92.5781 58.7402 -102.002 45.9473 -102.002 C 33.0078 -102.002 24.3652 -92.5781 24.3652 -78.4668 L 24.4141 -23.0469 C 24.4141 -21.1426 24.1211 -20.3613 22.7539 -19.1406 C 15.1367 -12.3047 11.2793 -3.71094 11.2793 6.05469 C 11.2793 25.1465 26.7578 40.4785 45.9473 40.4785 Z M 45.9473 29.834 C 32.7148 29.834 22.0215 19.043 22.0215 5.85938 C 22.0215 -2.14844 25.7324 -9.13086 32.4219 -13.623 C 34.375 -14.9902 35.1562 -16.2598 35.1562 -18.8477 L 35.1562 -78.0273 C 35.1562 -86.1328 39.502 -91.2598 45.9473 -91.2598 C 52.2461 -91.2598 56.5918 -86.1328 56.5918 -78.0273 L 56.5918 -18.8477 C 56.5918 -16.2598 57.373 -14.9902 59.3262 -13.623 C 66.0645 -9.13086 69.7754 -2.14844 69.7754 5.85938 C 69.7754 19.043 59.0332 29.834 45.9473 29.834 Z M 79.1504 -77.0996 L 92.9199 -77.0996 C 95.1172 -77.0996 96.6309 -78.7598 96.6309 -80.7617 C 96.6309 -82.7148 95.1172 -84.375 92.9199 -84.375 L 79.1504 -84.375 C 76.9531 -84.375 75.4395 -82.7148 75.4395 -80.7617 C 75.4395 -78.7598 76.9531 -77.0996 79.1504 -77.0996 Z M 79.1504 -59.7168 L 92.9199 -59.7168 C 95.1172 -59.7168 96.6309 -61.3281 96.6309 -63.3301 C 96.6309 -65.332 95.1172 -66.9434 92.9199 -66.9434 L 79.1504 -66.9434 C 76.9531 -66.9434 75.4395 -65.332 75.4395 -63.3301 C 75.4395 -61.3281 76.9531 -59.7168 79.1504 -59.7168 Z M 45.8984 21.2891 C 54.3945 21.2891 61.2793 14.4531 61.2793 5.81055 C 61.2793 -0.146484 57.959 -5.0293 53.0273 -7.71484 C 50.9766 -8.83789 50.293 -9.61914 50.293 -12.6953 L 50.293 -44.3359 C 50.293 -47.6562 48.3398 -49.707 45.8984 -49.707 C 43.4082 -49.707 41.4551 -47.6562 41.4551 -44.3359 L 41.4551 -12.6953 C 41.4551 -9.61914 40.7715 -8.83789 38.7207 -7.71484 C 33.8379 -5.0293 30.4688 -0.146484 30.4688 5.81055 C 30.4688 14.4531 37.3535 21.2891 45.8984 21.2891 Z M 79.1504 -42.1875 L 92.9199 -42.1875 C 95.1172 -42.1875 96.6309 -43.8477 96.6309 -45.8008 C 96.6309 -47.8027 95.1172 -49.4629 92.9199 -49.4629 L 79.1504 -49.4629 C 76.9531 -49.4629 75.4395 -47.8027 75.4395 -45.8008 C 75.4395 -43.8477 76.9531 -42.1875 79.1504 -42.1875 Z M 79.1504 -24.6582 L 92.9199 -24.6582 C 95.1172 -24.6582 96.6309 -26.3184 96.6309 -28.3203 C 96.6309 -30.3223 95.1172 -31.9336 92.9199 -31.9336 L 79.1504 -31.9336 C 76.9531 -31.9336 75.4395 -30.3223 75.4395 -28.3203 C 75.4395 -26.3184 76.9531 -24.6582 79.1504 -24.6582 Z"/>
  </g>
  <g id="Medium-L" transform="matrix(1 0 0 1 1693.89 1556)">
   <path d="M 44.9219 40.2832 C 63.4277 40.2832 78.418 25.3418 78.418 6.83594 C 78.418 -2.7832 74.5605 -11.1816 66.9922 -17.9688 C 65.5762 -19.2383 65.2344 -20.0195 65.2344 -21.9727 L 65.332 -78.3691 C 65.332 -91.8945 57.1289 -100.928 44.9219 -100.928 C 32.6172 -100.928 24.4141 -91.8945 24.4141 -78.3691 L 24.4629 -21.9727 C 24.4629 -20.0195 24.1699 -19.2383 22.7051 -17.9688 C 15.1367 -11.2305 11.2793 -2.7832 11.2793 6.83594 C 11.2793 25.3418 26.2695 40.2832 44.9219 40.2832 Z M 44.9219 30.8594 C 31.5918 30.8594 20.752 20.0195 20.752 6.73828 C 20.752 -1.2207 24.4629 -8.30078 31.2012 -12.8418 C 33.2031 -14.209 33.9844 -15.5273 33.9844 -18.1641 L 33.9844 -77.9785 C 33.9844 -86.1816 38.4277 -91.4062 44.9219 -91.4062 C 51.3184 -91.4062 55.7617 -86.1816 55.7617 -77.9785 L 55.7617 -18.1641 C 55.7617 -15.5273 56.543 -14.209 58.5449 -12.8418 C 65.2832 -8.30078 68.9453 -1.2207 68.9453 6.73828 C 68.9453 20.0195 58.1543 30.8594 44.9219 30.8594 Z M 76.9043 -76.9043 L 90.5273 -76.9043 C 92.627 -76.9043 94.043 -78.4668 94.043 -80.3711 C 94.043 -82.2266 92.627 -83.7891 90.5273 -83.7891 L 76.9043 -83.7891 C 74.8047 -83.7891 73.3398 -82.2266 73.3398 -80.3711 C 73.3398 -78.4668 74.8047 -76.9043 76.9043 -76.9043 Z M 76.9043 -59.375 L 90.5273 -59.375 C 92.627 -59.375 94.043 -60.9375 94.043 -62.8418 C 94.043 -64.6973 92.627 -66.2598 90.5273 -66.2598 L 76.9043 -66.2598 C 74.8047 -66.2598 73.3398 -64.6973 73.3398 -62.8418 C 73.3398 -60.9375 74.8047 -59.375 76.9043 -59.375 Z M 44.873 22.3633 C 53.5156 22.3633 60.498 15.4297 60.498 6.68945 C 60.498 0.634766 57.0801 -4.3457 52.0996 -7.03125 C 50 -8.1543 49.3164 -8.93555 49.3164 -12.0605 L 49.3164 -44.3848 C 49.3164 -47.7051 47.3633 -49.7559 44.873 -49.7559 C 42.334 -49.7559 40.3809 -47.7051 40.3809 -44.3848 L 40.3809 -12.0605 C 40.3809 -8.93555 39.6973 -8.1543 37.6465 -7.03125 C 32.6172 -4.3457 29.248 0.634766 29.248 6.68945 C 29.248 15.4297 36.2305 22.3633 44.873 22.3633 Z M 76.9043 -41.7969 L 90.5273 -41.7969 C 92.627 -41.7969 94.043 -43.3594 94.043 -45.2148 C 94.043 -47.1191 92.627 -48.6816 90.5273 -48.6816 L 76.9043 -48.6816 C 74.8047 -48.6816 73.3398 -47.1191 73.3398 -45.2148 C 73.3398 -43.3594 74.8047 -41.7969 76.9043 -41.7969 Z M 76.9043 -24.2188 L 90.5273 -24.2188 C 92.627 -24.2188 94.043 -25.7812 94.043 -27.6367 C 94.043 -29.541 92.627 -31.1035 90.5273 -31.1035 L 76.9043 -31.1035 C 74.8047 -31.1035 73.3398 -29.541 73.3398 -27.6367 C 73.3398 -25.7812 74.8047 -24.2188 76.9043 -24.2188 Z"/>
  </g>
  <g id="Regular-L" transform="matrix(1 0 0 1 1398.87 1556)">
   <path d="M 43.6035 40.0879 C 61.377 40.0879 75.7812 25.6348 75.7812 7.86133 C 75.7812 -1.51367 71.9238 -9.81445 64.3555 -16.4551 C 62.8906 -17.7246 62.5488 -18.5547 62.5488 -20.6055 L 62.5977 -78.2715 C 62.5977 -91.0156 54.9805 -99.4629 43.6035 -99.4629 C 32.0801 -99.4629 24.4629 -91.0156 24.4629 -78.2715 L 24.5605 -20.6055 C 24.5605 -18.5547 24.2188 -17.7246 22.7051 -16.4551 C 15.1367 -9.81445 11.2793 -1.51367 11.2793 7.86133 C 11.2793 25.6348 25.6836 40.0879 43.6035 40.0879 Z M 43.6035 32.2754 C 30.127 32.2754 19.1895 21.2891 19.1895 7.86133 C 19.1895 -0.0488281 22.8027 -7.22656 29.5898 -11.8164 C 31.6406 -13.2324 32.4219 -14.6484 32.4219 -17.2852 L 32.4219 -77.9297 C 32.4219 -86.3281 36.9629 -91.5527 43.6035 -91.5527 C 50.0977 -91.5527 54.6387 -86.3281 54.6387 -77.9297 L 54.6387 -17.2852 C 54.6387 -14.6484 55.4199 -13.2324 57.4707 -11.8164 C 64.2578 -7.22656 67.8711 -0.0488281 67.8711 7.86133 C 67.8711 21.2891 56.9824 32.2754 43.6035 32.2754 Z M 73.9746 -76.6602 L 87.4023 -76.6602 C 89.3555 -76.6602 90.6738 -78.125 90.6738 -79.834 C 90.6738 -81.5918 89.3555 -83.0566 87.4023 -83.0566 L 73.9746 -83.0566 C 72.0215 -83.0566 70.6543 -81.5918 70.6543 -79.834 C 70.6543 -78.125 72.0215 -76.6602 73.9746 -76.6602 Z M 73.9746 -58.9355 L 87.4023 -58.9355 C 89.3555 -58.9355 90.6738 -60.4492 90.6738 -62.1582 C 90.6738 -63.8672 89.3555 -65.3809 87.4023 -65.3809 L 73.9746 -65.3809 C 72.0215 -65.3809 70.6543 -63.8672 70.6543 -62.1582 C 70.6543 -60.4492 72.0215 -58.9355 73.9746 -58.9355 Z M 43.5547 23.7793 C 52.3438 23.7793 59.4238 16.6992 59.4238 7.8125 C 59.4238 1.66016 55.957 -3.41797 50.8789 -6.15234 C 48.7793 -7.27539 48.0957 -8.10547 48.0957 -11.2793 L 48.0957 -44.3848 C 48.0957 -47.8027 46.0938 -49.9023 43.5547 -49.9023 C 40.9668 -49.9023 39.0137 -47.8027 39.0137 -44.3848 L 39.0137 -11.2793 C 39.0137 -8.10547 38.2812 -7.27539 36.1816 -6.15234 C 31.1035 -3.41797 27.6367 1.66016 27.6367 7.8125 C 27.6367 16.6992 34.7168 23.7793 43.5547 23.7793 Z M 73.9746 -41.2598 L 87.4023 -41.2598 C 89.3555 -41.2598 90.6738 -42.7246 90.6738 -44.4824 C 90.6738 -46.1914 89.3555 -47.6562 87.4023 -47.6562 L 73.9746 -47.6562 C 72.0215 -47.6562 70.6543 -46.1914 70.6543 -44.4824 C 70.6543 -42.7246 72.0215 -41.2598 73.9746 -41.2598 Z M 73.9746 -23.584 L 87.4023 -23.584 C 89.3555 -23.584 90.6738 -25.0488 90.6738 -26.7578 C 90.6738 -28.5156 89.3555 -29.9805 87.4023 -29.9805 L 73.9746 -29.9805 C 72.0215 -29.9805 70.6543 -28.5156 70.6543 -26.7578 C 70.6543 -25.0488 72.0215 -23.584 73.9746 -23.584 Z"/>
  </g>
  <g id="Light-L" transform="matrix(1 0 0 1 1103.89 1556)">
   <path d="M 42.6758 40.0879 C 60.0098 40.0879 73.9746 26.0742 73.9746 8.78906 C 73.9746 -0.390625 70.2148 -8.44727 62.5977 -14.8926 C 60.9375 -16.3086 60.5469 -17.2363 60.5469 -19.5312 L 60.5957 -78.6621 C 60.5957 -90.918 53.4668 -98.9258 42.6758 -98.9258 C 31.7871 -98.9258 24.6582 -90.918 24.6582 -78.6621 L 24.707 -19.5312 C 24.707 -17.2363 24.3164 -16.3086 22.6562 -14.8926 C 15.0391 -8.44727 11.2793 -0.390625 11.2793 8.78906 C 11.2793 26.0742 25.2441 40.0879 42.6758 40.0879 Z M 42.6758 34.082 C 28.7109 34.082 17.3828 22.7051 17.3828 8.78906 C 17.3828 0.830078 20.8984 -6.39648 27.832 -11.2305 C 29.9805 -12.7441 30.8105 -14.4043 30.8105 -17.1387 L 30.8105 -78.3691 C 30.8105 -87.3535 35.6445 -92.7734 42.6758 -92.7734 C 49.6582 -92.7734 54.4434 -87.3535 54.4434 -78.3691 L 54.4434 -17.1387 C 54.4434 -14.4043 55.2734 -12.7441 57.4219 -11.2305 C 64.4043 -6.39648 67.8711 0.830078 67.8711 8.78906 C 67.8711 22.7051 56.543 34.082 42.6758 34.082 Z M 71.3867 -76.4648 L 84.4727 -76.4648 C 86.084 -76.4648 87.207 -77.6367 87.207 -79.0527 C 87.207 -80.4688 86.084 -81.6406 84.4727 -81.6406 L 71.3867 -81.6406 C 69.8242 -81.6406 68.6523 -80.4688 68.6523 -79.0527 C 68.6523 -77.6367 69.8242 -76.4648 71.3867 -76.4648 Z M 71.3867 -58.7891 L 84.4727 -58.7891 C 86.084 -58.7891 87.207 -59.9609 87.207 -61.377 C 87.207 -62.793 86.084 -63.9648 84.4727 -63.9648 L 71.3867 -63.9648 C 69.8242 -63.9648 68.6523 -62.793 68.6523 -61.377 C 68.6523 -59.9609 69.8242 -58.7891 71.3867 -58.7891 Z M 42.627 25.5859 C 51.9043 25.5859 59.4238 18.1152 59.4238 8.74023 C 59.4238 2.24609 55.7617 -3.125 50.3906 -6.00586 C 48.1445 -7.17773 47.4121 -8.05664 47.4121 -11.4258 L 47.4121 -43.9941 C 47.4121 -47.6562 45.3613 -49.9023 42.627 -49.9023 C 39.8926 -49.9023 37.8418 -47.6562 37.8418 -43.9941 L 37.8418 -11.4258 C 37.8418 -8.05664 37.1094 -7.17773 34.8633 -6.00586 C 29.4922 -3.125 25.8789 2.24609 25.8789 8.74023 C 25.8789 18.1152 33.3496 25.5859 42.627 25.5859 Z M 71.3867 -41.1133 L 84.4727 -41.1133 C 86.084 -41.1133 87.207 -42.2852 87.207 -43.6523 C 87.207 -45.0684 86.084 -46.2402 84.4727 -46.2402 L 71.3867 -46.2402 C 69.8242 -46.2402 68.6523 -45.0684 68.6523 -43.6523 C 68.6523 -42.2852 69.8242 -41.1133 71.3867 -41.1133 Z M 71.3867 -23.3887 L 84.4727 -23.3887 C 86.084 -23.3887 87.207 -24.5605 87.207 -25.9766 C 87.207 -27.3926 86.084 -28.5645 84.4727 -28.5645 L 71.3867 -28.5645 C 69.8242 -28.5645 68.6523 -27.3926 68.6523 -25.9766 C 68.6523 -24.5605 69.8242 -23.3887 71.3867 -23.3887 Z"/>
  </g>
  <g id="Thin-L" transform="matrix(1 0 0 1 809.474 1556)">
   <path d="M 41.4551 40.0879 C 58.1543 40.0879 71.582 26.6113 71.582 10.0098 C 71.582 1.07422 67.9199 -6.68945 60.2539 -12.8906 C 58.3496 -14.4043 57.9102 -15.4785 57.9102 -18.1152 L 57.959 -79.1504 C 57.959 -90.7227 51.4648 -98.1934 41.4551 -98.1934 C 31.3965 -98.1934 24.9023 -90.7227 24.9023 -79.1504 L 24.9512 -18.1152 C 24.9512 -15.4785 24.5117 -14.4043 22.6074 -12.8906 C 14.9414 -6.68945 11.2793 1.07422 11.2793 10.0098 C 11.2793 26.6113 24.707 40.0879 41.4551 40.0879 Z M 41.4551 36.4746 C 26.9043 36.4746 14.9902 24.5605 14.9902 10.0098 C 14.9902 2.00195 18.3105 -5.32227 25.4883 -10.4492 C 27.7832 -12.1094 28.6621 -14.1113 28.6621 -16.9922 L 28.6621 -78.9551 C 28.6621 -88.7207 33.8379 -94.4336 41.4551 -94.4336 C 49.0234 -94.4336 54.1992 -88.7207 54.1992 -78.9551 L 54.1992 -16.9922 C 54.1992 -14.1113 55.0781 -12.1094 57.373 -10.4492 C 64.5508 -5.32227 67.8711 2.00195 67.8711 10.0098 C 67.8711 24.5605 55.957 36.4746 41.4551 36.4746 Z M 67.9688 -76.2695 L 80.6641 -76.2695 C 81.7383 -76.2695 82.6172 -77.002 82.6172 -78.0273 C 82.6172 -79.0039 81.7383 -79.7363 80.6641 -79.7363 L 67.9688 -79.7363 C 66.8945 -79.7363 66.0156 -79.0039 66.0156 -78.0273 C 66.0156 -77.002 66.8945 -76.2695 67.9688 -76.2695 Z M 67.9688 -58.5938 L 80.6641 -58.5938 C 81.7383 -58.5938 82.6172 -59.3262 82.6172 -60.3027 C 82.6172 -61.3281 81.7383 -62.0605 80.6641 -62.0605 L 67.9688 -62.0605 C 66.8945 -62.0605 66.0156 -61.3281 66.0156 -60.3027 C 66.0156 -59.3262 66.8945 -58.5938 67.9688 -58.5938 Z M 41.4551 28.0273 C 51.3672 28.0273 59.375 20.0195 59.375 10.0098 C 59.375 3.02734 55.5176 -2.73438 49.7559 -5.81055 C 47.3633 -7.08008 46.582 -8.00781 46.582 -11.5723 L 46.582 -43.5059 C 46.582 -47.4609 44.4336 -49.9023 41.4551 -49.9023 C 38.4277 -49.9023 36.2793 -47.4609 36.2793 -43.5059 L 36.2793 -11.5723 C 36.2793 -8.00781 35.498 -7.08008 33.1543 -5.81055 C 27.3438 -2.73438 23.4863 3.02734 23.4863 10.0098 C 23.4863 20.0195 31.4941 28.0273 41.4551 28.0273 Z M 67.9688 -40.8691 L 80.6641 -40.8691 C 81.7383 -40.8691 82.6172 -41.6504 82.6172 -42.627 C 82.6172 -43.6035 81.7383 -44.3848 80.6641 -44.3848 L 67.9688 -44.3848 C 66.8945 -44.3848 66.0156 -43.6035 66.0156 -42.627 C 66.0156 -41.6504 66.8945 -40.8691 67.9688 -40.8691 Z M 67.9688 -23.1934 L 80.6641 -23.1934 C 81.7383 -23.1934 82.6172 -23.9258 82.6172 -24.9512 C 82.6172 -25.9277 81.7383 -26.6602 80.6641 -26.6602 L 67.9688 -26.6602 C 66.8945 -26.6602 66.0156 -25.9277 66.0156 -24.9512 C 66.0156 -23.9258 66.8945 -23.1934 67.9688 -23.1934 Z"/>
  </g>
  <g id="Ultralight-L" transform="matrix(1 0 0 1 513.935 1556)">
   <path d="M 40.8203 40.0879 C 57.2266 40.0879 70.3613 26.8555 70.3613 10.6445 C 70.3613 1.85547 66.748 -5.81055 59.0332 -11.8652 C 57.0312 -13.4277 56.543 -14.5508 56.543 -17.3828 L 56.6406 -79.3945 C 56.6406 -90.625 50.4395 -97.8027 40.8203 -97.8027 C 31.2012 -97.8027 25 -90.625 25 -79.3945 L 25.0977 -17.3828 C 25.0977 -14.5508 24.6094 -13.4277 22.6074 -11.8652 C 14.8438 -5.81055 11.2793 1.85547 11.2793 10.6445 C 11.2793 26.8555 24.4141 40.0879 40.8203 40.0879 Z M 40.8203 37.6953 C 25.9277 37.6953 13.7207 25.4883 13.7207 10.6445 C 13.7207 2.58789 16.9922 -4.78516 24.2676 -10.0586 C 26.6602 -11.7676 27.5391 -13.9648 27.5391 -16.8945 L 27.5391 -79.248 C 27.5391 -89.4043 32.959 -95.2637 40.8203 -95.2637 C 48.6816 -95.2637 54.1016 -89.4043 54.1016 -79.248 L 54.1016 -16.8945 C 54.1016 -13.9648 54.9805 -11.7676 57.3242 -10.0586 C 64.6484 -4.78516 67.8711 2.58789 67.8711 10.6445 C 67.8711 25.4883 55.7129 37.6953 40.8203 37.6953 Z M 66.2598 -76.1719 L 78.7109 -76.1719 C 79.541 -76.1719 80.2734 -76.709 80.2734 -77.4902 C 80.2734 -78.2715 79.541 -78.8086 78.7109 -78.8086 L 66.2598 -78.8086 C 65.4297 -78.8086 64.6484 -78.2715 64.6484 -77.4902 C 64.6484 -76.709 65.4297 -76.1719 66.2598 -76.1719 Z M 66.2598 -58.4473 L 78.7109 -58.4473 C 79.541 -58.4473 80.2734 -58.9844 80.2734 -59.7656 C 80.2734 -60.5469 79.541 -61.084 78.7109 -61.084 L 66.2598 -61.084 C 65.4297 -61.084 64.6484 -60.5469 64.6484 -59.7656 C 64.6484 -58.9844 65.4297 -58.4473 66.2598 -58.4473 Z M 40.8203 29.248 C 51.123 29.248 59.375 20.9961 59.375 10.6445 C 59.375 3.4668 55.3711 -2.53906 49.4141 -5.71289 C 46.9238 -7.03125 46.1426 -8.00781 46.1426 -11.6699 L 46.1426 -43.2617 C 46.1426 -47.3633 43.9453 -49.9023 40.8203 -49.9023 C 37.6953 -49.9023 35.498 -47.3633 35.498 -43.2617 L 35.498 -11.6699 C 35.498 -8.00781 34.668 -7.03125 32.2266 -5.71289 C 26.2695 -2.53906 22.2656 3.4668 22.2656 10.6445 C 22.2656 20.9961 30.5176 29.248 40.8203 29.248 Z M 66.2598 -40.7715 L 78.7109 -40.7715 C 79.541 -40.7715 80.2734 -41.3086 80.2734 -42.0898 C 80.2734 -42.8711 79.541 -43.4082 78.7109 -43.4082 L 66.2598 -43.4082 C 65.4297 -43.4082 64.6484 -42.8711 64.6484 -42.0898 C 64.6484 -41.3086 65.4297 -40.7715 66.2598 -40.7715 Z M 66.2598 -23.0957 L 78.7109 -23.0957 C 79.541 -23.0957 80.2734 -23.6328 80.2734 -24.4141 C 80.2734 -25.1953 79.541 -25.7324 78.7109 -25.7324 L 66.2598 -25.7324 C 65.4297 -25.7324 64.6484 -25.1953 64.6484 -24.4141 C 64.6484 -23.6328 65.4297 -23.0957 66.2598 -23.0957 Z"/>
  </g>
  <g id="Black-M" transform="matrix(1 0 0 1 2884.6 1126)">
   <path d="M 41.3574 24.4141 C 59.2773 24.4141 73.877 10.4004 73.877 -7.56836 C 73.877 -16.0156 70.752 -23.2422 64.9414 -29.0527 C 64.0137 -29.9805 63.8184 -30.4199 63.8184 -31.6895 L 63.8672 -69.3848 C 63.8672 -83.7402 54.7363 -93.4082 41.3574 -93.4082 C 27.832 -93.4082 18.7012 -83.7402 18.7012 -69.3848 L 18.7988 -31.6895 C 18.7988 -30.4199 18.6035 -29.9316 17.6758 -29.0527 C 11.6699 -23.4863 8.74023 -16.0156 8.74023 -7.56836 C 8.74023 10.4004 23.3398 24.4141 41.3574 24.4141 Z M 41.3574 9.61914 C 31.4941 9.61914 23.584 1.66016 23.584 -8.20312 C 23.584 -14.8438 26.6113 -19.6777 31.6406 -22.998 C 33.0566 -23.9258 33.6426 -24.6582 33.6426 -26.6113 L 33.6426 -68.9941 C 33.6426 -74.7559 36.7676 -78.5645 41.3574 -78.5645 C 45.8496 -78.5645 48.9746 -74.7559 48.9746 -68.9941 L 48.9746 -26.6113 C 48.9746 -24.6582 49.5117 -23.9258 50.9766 -22.998 C 56.0059 -19.6777 58.9844 -14.8438 58.9844 -8.20312 C 58.9844 1.66016 51.0742 9.61914 41.3574 9.61914 Z M 73.8281 -68.7988 L 85.1562 -68.7988 C 87.4023 -68.7988 88.8672 -70.3613 88.8672 -72.4609 C 88.8672 -74.5117 87.4023 -76.0742 85.1562 -76.0742 L 73.8281 -76.0742 C 71.582 -76.0742 70.1172 -74.5117 70.1172 -72.4609 C 70.1172 -70.3613 71.582 -68.7988 73.8281 -68.7988 Z M 73.8281 -56.0547 L 85.1562 -56.0547 C 87.4023 -56.0547 88.8672 -57.6172 88.8672 -59.668 C 88.8672 -61.7676 87.4023 -63.3301 85.1562 -63.3301 L 73.8281 -63.3301 C 71.582 -63.3301 70.1172 -61.7676 70.1172 -59.668 C 70.1172 -57.6172 71.582 -56.0547 73.8281 -56.0547 Z M 73.8281 -43.0176 L 85.1562 -43.0176 C 87.4023 -43.0176 88.8672 -44.5312 88.8672 -46.6309 C 88.8672 -48.6816 87.4023 -50.2441 85.1562 -50.2441 L 73.8281 -50.2441 C 71.582 -50.2441 70.1172 -48.6816 70.1172 -46.6309 C 70.1172 -44.5312 71.582 -43.0176 73.8281 -43.0176 Z M 41.3086 3.02734 C 47.4609 3.02734 52.4414 -1.95312 52.4414 -8.20312 C 52.4414 -12.5 50.0488 -16.0645 46.4844 -18.0176 C 44.9707 -18.7988 44.4824 -19.3848 44.4824 -21.6309 L 44.4824 -42.041 C 44.4824 -44.3848 43.0664 -45.8496 41.3086 -45.8496 C 39.5508 -45.8496 38.1348 -44.3848 38.1348 -42.041 L 38.1348 -21.6309 C 38.1348 -19.3848 37.6465 -18.7988 36.1328 -18.0176 C 32.5684 -16.0645 30.127 -12.5 30.127 -8.20312 C 30.127 -1.95312 35.1074 3.02734 41.3086 3.02734 Z M 73.8281 -29.9316 L 85.1562 -29.9316 C 87.4023 -29.9316 88.8672 -31.4941 88.8672 -33.5449 C 88.8672 -35.5957 87.4023 -37.1582 85.1562 -37.1582 L 73.8281 -37.1582 C 71.582 -37.1582 70.1172 -35.5957 70.1172 -33.5449 C 70.1172 -31.4941 71.582 -29.9316 73.8281 -29.9316 Z"/>
  </g>
  <g id="Heavy-M" transform="matrix(1 0 0 1 2589.86 1126)">
   <path d="M 39.6973 24.1211 C 56.6895 24.1211 70.5566 10.6934 70.5566 -6.34766 C 70.5566 -14.5508 67.4316 -21.582 61.6211 -27.2949 C 60.6445 -28.2227 60.4492 -28.7109 60.4492 -29.9805 L 60.5469 -69.1406 C 60.5469 -82.5195 52.0508 -91.5039 39.6973 -91.5039 C 27.1484 -91.5039 18.75 -82.5195 18.75 -69.1406 L 18.7988 -29.9805 C 18.7988 -28.7109 18.6035 -28.1738 17.627 -27.2949 C 11.6699 -21.7773 8.74023 -14.5508 8.74023 -6.34766 C 8.74023 10.6934 22.5586 24.1211 39.6973 24.1211 Z M 39.6973 11.1328 C 29.7852 11.1328 21.7773 3.07617 21.7773 -6.83594 C 21.7773 -13.3301 24.7559 -18.3105 29.834 -21.6797 C 31.2988 -22.6074 31.8359 -23.4375 31.8359 -25.3906 L 31.8359 -68.7988 C 31.8359 -74.6094 35.0098 -78.4668 39.6973 -78.4668 C 44.2383 -78.4668 47.4121 -74.6094 47.4121 -68.7988 L 47.4121 -25.3906 C 47.4121 -23.4375 47.998 -22.6074 49.4629 -21.6797 C 54.541 -18.3105 57.4707 -13.3301 57.4707 -6.83594 C 57.4707 3.07617 49.5117 11.1328 39.6973 11.1328 Z M 70.2637 -68.5059 L 81.4453 -68.5059 C 83.5449 -68.5059 84.9121 -70.0195 84.9121 -71.9238 C 84.9121 -73.877 83.5449 -75.3906 81.4453 -75.3906 L 70.2637 -75.3906 C 68.1152 -75.3906 66.748 -73.877 66.748 -71.9238 C 66.748 -70.0195 68.1152 -68.5059 70.2637 -68.5059 Z M 70.2637 -55.5176 L 81.4453 -55.5176 C 83.5449 -55.5176 84.9121 -57.0312 84.9121 -58.9355 C 84.9121 -60.8887 83.5449 -62.4023 81.4453 -62.4023 L 70.2637 -62.4023 C 68.1152 -62.4023 66.748 -60.8887 66.748 -58.9355 C 66.748 -57.0312 68.1152 -55.5176 70.2637 -55.5176 Z M 70.2637 -42.2852 L 81.4453 -42.2852 C 83.5449 -42.2852 84.9121 -43.7988 84.9121 -45.7031 C 84.9121 -47.6562 83.5449 -49.1699 81.4453 -49.1699 L 70.2637 -49.1699 C 68.1152 -49.1699 66.748 -47.6562 66.748 -45.7031 C 66.748 -43.7988 68.1152 -42.2852 70.2637 -42.2852 Z M 39.6484 4.54102 C 45.8984 4.54102 50.9277 -0.537109 50.9277 -6.83594 C 50.9277 -11.1816 48.4863 -14.7949 44.873 -16.748 C 43.3594 -17.5781 42.8711 -18.1641 42.8711 -20.4102 L 42.8711 -42.1387 C 42.8711 -44.5801 41.4062 -45.9961 39.6484 -45.9961 C 37.8418 -45.9961 36.4258 -44.5801 36.4258 -42.1387 L 36.4258 -20.4102 C 36.4258 -18.1641 35.8887 -17.5781 34.375 -16.748 C 30.8105 -14.7949 28.3203 -11.1816 28.3203 -6.83594 C 28.3203 -0.537109 33.3984 4.54102 39.6484 4.54102 Z M 70.2637 -29.0527 L 81.4453 -29.0527 C 83.5449 -29.0527 84.9121 -30.5664 84.9121 -32.5195 C 84.9121 -34.4238 83.5449 -35.9375 81.4453 -35.9375 L 70.2637 -35.9375 C 68.1152 -35.9375 66.748 -34.4238 66.748 -32.5195 C 66.748 -30.5664 68.1152 -29.0527 70.2637 -29.0527 Z"/>
  </g>
  <g id="Bold-M" transform="matrix(1 0 0 1 2295.32 1126)">
   <path d="M 37.8418 23.7793 C 53.8086 23.7793 66.7969 11.0352 66.7969 -4.98047 C 66.7969 -12.8906 63.7207 -19.7754 57.9102 -25.293 C 56.9336 -26.2207 56.6895 -26.7578 56.6895 -28.0762 L 56.7871 -68.8965 C 56.7871 -81.1523 49.1211 -89.3555 37.8418 -89.3555 C 26.416 -89.3555 18.7988 -81.1523 18.7988 -68.8965 L 18.8477 -28.0762 C 18.8477 -26.7578 18.6523 -26.2207 17.627 -25.293 C 11.7188 -19.873 8.74023 -12.8906 8.74023 -4.98047 C 8.74023 11.0352 21.7285 23.7793 37.8418 23.7793 Z M 37.8418 12.8418 C 27.832 12.8418 19.7266 4.6875 19.7266 -5.27344 C 19.7266 -11.6211 22.7051 -16.8457 27.7832 -20.2148 C 29.2969 -21.1914 29.834 -22.0215 29.834 -23.9746 L 29.834 -68.5547 C 29.834 -74.4629 33.0566 -78.3691 37.8418 -78.3691 C 42.4805 -78.3691 45.7031 -74.4629 45.7031 -68.5547 L 45.7031 -23.9746 C 45.7031 -22.0215 46.2891 -21.1914 47.7539 -20.2148 C 52.8809 -16.8457 55.8105 -11.6211 55.8105 -5.27344 C 55.8105 4.6875 47.7539 12.8418 37.8418 12.8418 Z M 66.3086 -68.1152 L 77.2949 -68.1152 C 79.248 -68.1152 80.5664 -69.5801 80.5664 -71.3379 C 80.5664 -73.1445 79.248 -74.6094 77.2949 -74.6094 L 66.3086 -74.6094 C 64.3066 -74.6094 62.9883 -73.1445 62.9883 -71.3379 C 62.9883 -69.5801 64.3066 -68.1152 66.3086 -68.1152 Z M 66.3086 -54.8828 L 77.2949 -54.8828 C 79.248 -54.8828 80.5664 -56.3477 80.5664 -58.1055 C 80.5664 -59.9121 79.248 -61.377 77.2949 -61.377 L 66.3086 -61.377 C 64.3066 -61.377 62.9883 -59.9121 62.9883 -58.1055 C 62.9883 -56.3477 64.3066 -54.8828 66.3086 -54.8828 Z M 66.3086 -41.5039 L 77.2949 -41.5039 C 79.248 -41.5039 80.5664 -42.9199 80.5664 -44.7266 C 80.5664 -46.5332 79.248 -47.9492 77.2949 -47.9492 L 66.3086 -47.9492 C 64.3066 -47.9492 62.9883 -46.5332 62.9883 -44.7266 C 62.9883 -42.9199 64.3066 -41.5039 66.3086 -41.5039 Z M 37.793 6.25 C 44.1406 6.25 49.2676 1.12305 49.2676 -5.32227 C 49.2676 -9.7168 46.7773 -13.3789 43.1152 -15.3809 C 41.5527 -16.2109 41.0645 -16.7969 41.0645 -19.0918 L 41.0645 -42.2852 C 41.0645 -44.7266 39.5996 -46.2402 37.793 -46.2402 C 35.9863 -46.2402 34.5215 -44.7266 34.5215 -42.2852 L 34.5215 -19.0918 C 34.5215 -16.7969 33.9844 -16.2109 32.4707 -15.3809 C 28.8086 -13.3789 26.3184 -9.7168 26.3184 -5.32227 C 26.3184 1.12305 31.4453 6.25 37.793 6.25 Z M 66.3086 -28.125 L 77.2949 -28.125 C 79.248 -28.125 80.5664 -29.541 80.5664 -31.3477 C 80.5664 -33.1055 79.248 -34.5703 77.2949 -34.5703 L 66.3086 -34.5703 C 64.3066 -34.5703 62.9883 -33.1055 62.9883 -31.3477 C 62.9883 -29.541 64.3066 -28.125 66.3086 -28.125 Z"/>
  </g>
  <g id="Semibold-M" transform="matrix(1 0 0 1 2000.13 1126)">
   <path d="M 36.5723 23.5352 C 51.8066 23.5352 64.2578 11.2793 64.2578 -4.00391 C 64.2578 -11.7676 61.1816 -18.5059 55.3711 -23.9258 C 54.3457 -24.8535 54.1016 -25.3906 54.1016 -26.8066 L 54.1992 -68.7012 C 54.1992 -80.1758 47.0703 -87.8906 36.5723 -87.8906 C 25.9277 -87.8906 18.7988 -80.1758 18.7988 -68.7012 L 18.8477 -26.8066 C 18.8477 -25.3906 18.6523 -24.8535 17.627 -23.9258 C 11.7676 -18.5547 8.74023 -11.7676 8.74023 -4.00391 C 8.74023 11.2793 21.1426 23.5352 36.5723 23.5352 Z M 36.5723 14.0137 C 26.4648 14.0137 18.3594 5.81055 18.3594 -4.19922 C 18.3594 -10.498 21.2891 -15.7715 26.416 -19.1895 C 27.8809 -20.2148 28.4668 -21.0449 28.4668 -23.0469 L 28.4668 -68.3594 C 28.4668 -74.3652 31.7383 -78.2715 36.5723 -78.2715 C 41.2598 -78.2715 44.5312 -74.3652 44.5312 -68.3594 L 44.5312 -23.0469 C 44.5312 -21.0449 45.1172 -20.2148 46.582 -19.1895 C 51.709 -15.7715 54.6387 -10.498 54.6387 -4.19922 C 54.6387 5.81055 46.5332 14.0137 36.5723 14.0137 Z M 63.5742 -67.8711 L 74.4141 -67.8711 C 76.2695 -67.8711 77.5391 -69.2871 77.5391 -70.9473 C 77.5391 -72.6562 76.2695 -74.0723 74.4141 -74.0723 L 63.5742 -74.0723 C 61.6699 -74.0723 60.4004 -72.6562 60.4004 -70.9473 C 60.4004 -69.2871 61.6699 -67.8711 63.5742 -67.8711 Z M 63.5742 -54.4434 L 74.4141 -54.4434 C 76.2695 -54.4434 77.5391 -55.8594 77.5391 -57.5684 C 77.5391 -59.2285 76.2695 -60.6445 74.4141 -60.6445 L 63.5742 -60.6445 C 61.6699 -60.6445 60.4004 -59.2285 60.4004 -57.5684 C 60.4004 -55.8594 61.6699 -54.4434 63.5742 -54.4434 Z M 63.5742 -40.9668 L 74.4141 -40.9668 C 76.2695 -40.9668 77.5391 -42.334 77.5391 -44.043 C 77.5391 -45.752 76.2695 -47.1191 74.4141 -47.1191 L 63.5742 -47.1191 C 61.6699 -47.1191 60.4004 -45.752 60.4004 -44.043 C 60.4004 -42.334 61.6699 -40.9668 63.5742 -40.9668 Z M 36.4746 7.42188 C 42.9199 7.42188 48.0957 2.24609 48.0957 -4.24805 C 48.0957 -8.74023 45.5566 -12.4512 41.8945 -14.4531 C 40.332 -15.2832 39.7949 -15.8691 39.7949 -18.2129 L 39.7949 -42.3828 C 39.7949 -44.873 38.3301 -46.3379 36.4746 -46.3379 C 34.668 -46.3379 33.2031 -44.873 33.2031 -42.3828 L 33.2031 -18.2129 C 33.2031 -15.8691 32.666 -15.2832 31.1035 -14.4531 C 27.4414 -12.4512 24.9023 -8.74023 24.9023 -4.24805 C 24.9023 2.24609 30.0781 7.42188 36.4746 7.42188 Z M 63.5742 -27.4414 L 74.4141 -27.4414 C 76.2695 -27.4414 77.5391 -28.8574 77.5391 -30.5176 C 77.5391 -32.2266 76.2695 -33.6426 74.4141 -33.6426 L 63.5742 -33.6426 C 61.6699 -33.6426 60.4004 -32.2266 60.4004 -30.5176 C 60.4004 -28.8574 61.6699 -27.4414 63.5742 -27.4414 Z"/>
  </g>
  <g id="Medium-M" transform="matrix(1 0 0 1 1704.56 1126)">
   <path d="M 35.5957 23.3887 C 50.3418 23.3887 62.3047 11.4746 62.3047 -3.32031 C 62.3047 -10.8887 59.2285 -17.5293 53.418 -22.9004 C 52.3926 -23.8281 52.1484 -24.4141 52.1484 -25.7812 L 52.1973 -68.5547 C 52.1973 -79.4922 45.5078 -86.7676 35.5957 -86.7676 C 25.5371 -86.7676 18.7988 -79.4922 18.7988 -68.5547 L 18.8965 -25.7812 C 18.8965 -24.4141 18.6523 -23.8281 17.627 -22.9004 C 11.7676 -17.5781 8.74023 -10.8887 8.74023 -3.32031 C 8.74023 11.4746 20.7031 23.3887 35.5957 23.3887 Z M 35.5957 14.8926 C 25.4395 14.8926 17.2852 6.68945 17.2852 -3.41797 C 17.2852 -9.61914 20.2148 -14.9902 25.3418 -18.457 C 26.8555 -19.4336 27.4414 -20.3613 27.4414 -22.3145 L 27.4414 -68.2129 C 27.4414 -74.3164 30.7129 -78.2227 35.5957 -78.2227 C 40.332 -78.2227 43.6035 -74.3164 43.6035 -68.2129 L 43.6035 -22.3145 C 43.6035 -20.3613 44.1895 -19.4336 45.7031 -18.457 C 50.8301 -14.9902 53.7598 -9.61914 53.7598 -3.41797 C 53.7598 6.68945 45.6055 14.8926 35.5957 14.8926 Z M 61.4746 -67.6758 L 72.2168 -67.6758 C 74.0234 -67.6758 75.2441 -69.043 75.2441 -70.6543 C 75.2441 -72.2656 74.0234 -73.6328 72.2168 -73.6328 L 61.4746 -73.6328 C 59.668 -73.6328 58.4473 -72.2656 58.4473 -70.6543 C 58.4473 -69.043 59.668 -67.6758 61.4746 -67.6758 Z M 61.4746 -54.1504 L 72.2168 -54.1504 C 74.0234 -54.1504 75.2441 -55.5176 75.2441 -57.1289 C 75.2441 -58.7402 74.0234 -60.1074 72.2168 -60.1074 L 61.4746 -60.1074 C 59.668 -60.1074 58.4473 -58.7402 58.4473 -57.1289 C 58.4473 -55.5176 59.668 -54.1504 61.4746 -54.1504 Z M 61.4746 -40.5273 L 72.2168 -40.5273 C 74.0234 -40.5273 75.2441 -41.8945 75.2441 -43.5059 C 75.2441 -45.1172 74.0234 -46.4844 72.2168 -46.4844 L 61.4746 -46.4844 C 59.668 -46.4844 58.4473 -45.1172 58.4473 -43.5059 C 58.4473 -41.8945 59.668 -40.5273 61.4746 -40.5273 Z M 35.498 8.30078 C 41.9922 8.30078 47.2168 3.07617 47.2168 -3.4668 C 47.2168 -7.95898 44.6777 -11.7188 40.918 -13.7207 C 39.3555 -14.5508 38.8672 -15.1367 38.8672 -17.4805 L 38.8672 -42.4316 C 38.8672 -44.9219 37.4023 -46.4844 35.498 -46.4844 C 33.6426 -46.4844 32.1777 -44.9219 32.1777 -42.4316 L 32.1777 -17.4805 C 32.1777 -15.1367 31.6895 -14.5508 30.127 -13.7207 C 26.3672 -11.7188 23.8281 -7.95898 23.8281 -3.4668 C 23.8281 3.07617 29.0527 8.30078 35.498 8.30078 Z M 61.4746 -26.9531 L 72.2168 -26.9531 C 74.0234 -26.9531 75.2441 -28.3203 75.2441 -29.9316 C 75.2441 -31.543 74.0234 -32.9102 72.2168 -32.9102 L 61.4746 -32.9102 C 59.668 -32.9102 58.4473 -31.543 58.4473 -29.9316 C 58.4473 -28.3203 59.668 -26.9531 61.4746 -26.9531 Z"/>
  </g>
  <g id="Regular-M" transform="matrix(1 0 0 1 1409.34 1126)">
   <path d="M 34.3262 23.1445 C 48.3398 23.1445 59.7656 11.7188 59.7656 -2.34375 C 59.7656 -9.76562 56.7383 -16.2598 50.8789 -21.5332 C 49.8047 -22.5098 49.6094 -23.0469 49.6094 -24.5117 L 49.6582 -68.3594 C 49.6582 -78.5645 43.457 -85.3516 34.3262 -85.3516 C 25.0488 -85.3516 18.8477 -78.5645 18.8477 -68.3594 L 18.8965 -24.5117 C 18.8965 -23.0469 18.7012 -22.5098 17.627 -21.5332 C 11.7676 -16.2598 8.74023 -9.76562 8.74023 -2.34375 C 8.74023 11.7188 20.166 23.1445 34.3262 23.1445 Z M 34.3262 16.0645 C 24.1211 16.0645 15.8691 7.76367 15.8691 -2.34375 C 15.8691 -8.44727 18.7988 -13.9648 23.9746 -17.4316 C 25.4883 -18.457 26.0742 -19.3848 26.0742 -21.3867 L 26.0742 -68.0664 C 26.0742 -74.2188 29.3945 -78.1738 34.3262 -78.1738 C 39.1113 -78.1738 42.4316 -74.2188 42.4316 -68.0664 L 42.4316 -21.3867 C 42.4316 -19.3848 43.0176 -18.457 44.5312 -17.4316 C 49.707 -13.9648 52.6367 -8.44727 52.6367 -2.34375 C 52.6367 7.76367 44.3848 16.0645 34.3262 16.0645 Z M 58.7891 -67.4316 L 69.3848 -67.4316 C 71.0938 -67.4316 72.2656 -68.75 72.2656 -70.2637 C 72.2656 -71.7773 71.0938 -73.0957 69.3848 -73.0957 L 58.7891 -73.0957 C 57.0312 -73.0957 55.9082 -71.7773 55.9082 -70.2637 C 55.9082 -68.75 57.0312 -67.4316 58.7891 -67.4316 Z M 58.7891 -53.7109 L 69.3848 -53.7109 C 71.0938 -53.7109 72.2656 -55.0293 72.2656 -56.543 C 72.2656 -58.0566 71.0938 -59.375 69.3848 -59.375 L 58.7891 -59.375 C 57.0312 -59.375 55.9082 -58.0566 55.9082 -56.543 C 55.9082 -55.0293 57.0312 -53.7109 58.7891 -53.7109 Z M 34.2773 9.47266 C 40.7715 9.47266 46.0449 4.19922 46.0449 -2.39258 C 46.0449 -6.98242 43.5059 -10.7422 39.7461 -12.793 C 38.1348 -13.623 37.5977 -14.209 37.5977 -16.6016 L 37.5977 -42.5293 C 37.5977 -45.0684 36.1328 -46.582 34.2773 -46.582 C 32.373 -46.582 30.9082 -45.0684 30.9082 -42.5293 L 30.9082 -16.6016 C 30.9082 -14.209 30.3711 -13.623 28.7598 -12.793 C 25 -10.7422 22.4609 -6.98242 22.4609 -2.39258 C 22.4609 4.19922 27.7344 9.47266 34.2773 9.47266 Z M 58.7891 -39.9902 L 69.3848 -39.9902 C 71.0938 -39.9902 72.2656 -41.3086 72.2656 -42.8223 C 72.2656 -44.3359 71.0938 -45.7031 69.3848 -45.7031 L 58.7891 -45.7031 C 57.0312 -45.7031 55.9082 -44.3359 55.9082 -42.8223 C 55.9082 -41.3086 57.0312 -39.9902 58.7891 -39.9902 Z M 58.7891 -26.2695 L 69.3848 -26.2695 C 71.0938 -26.2695 72.2656 -27.6367 72.2656 -29.1504 C 72.2656 -30.6641 71.0938 -31.9824 69.3848 -31.9824 L 58.7891 -31.9824 C 57.0312 -31.9824 55.9082 -30.6641 55.9082 -29.1504 C 55.9082 -27.6367 57.0312 -26.2695 58.7891 -26.2695 Z"/>
  </g>
  <g id="Light-M" transform="matrix(1 0 0 1 1114.19 1126)">
   <path d="M 33.4961 23.1445 C 47.1191 23.1445 58.1543 12.0605 58.1543 -1.51367 C 58.1543 -8.74023 55.1758 -15.0879 49.2676 -20.166 C 48.0957 -21.1914 47.8027 -21.875 47.8027 -23.5352 L 47.8516 -68.7012 C 47.8516 -78.418 42.0898 -84.8633 33.4961 -84.8633 C 24.7559 -84.8633 18.9941 -78.418 18.9941 -68.7012 L 19.0918 -23.5352 C 19.0918 -21.875 18.7988 -21.1914 17.5781 -20.166 C 11.7188 -15.0879 8.74023 -8.74023 8.74023 -1.51367 C 8.74023 12.0605 19.7754 23.1445 33.4961 23.1445 Z M 33.4961 17.6758 C 22.8516 17.6758 14.2578 9.0332 14.2578 -1.51367 C 14.2578 -7.66602 17.041 -13.2324 22.3633 -16.8945 C 23.9746 -18.0176 24.6094 -19.1895 24.6094 -21.2891 L 24.6094 -68.457 C 24.6094 -75.1465 28.2227 -79.2969 33.4961 -79.2969 C 38.6719 -79.2969 42.2852 -75.1465 42.2852 -68.457 L 42.2852 -21.2891 C 42.2852 -19.1895 42.9199 -18.0176 44.5312 -16.8945 C 49.8535 -13.2324 52.6367 -7.66602 52.6367 -1.51367 C 52.6367 9.0332 43.9941 17.6758 33.4961 17.6758 Z M 56.4941 -67.2852 L 66.7969 -67.2852 C 68.1641 -67.2852 69.1406 -68.3105 69.1406 -69.5312 C 69.1406 -70.8008 68.1641 -71.8262 66.7969 -71.8262 L 56.4941 -71.8262 C 55.0781 -71.8262 54.1016 -70.8008 54.1016 -69.5312 C 54.1016 -68.3105 55.0781 -67.2852 56.4941 -67.2852 Z M 56.4941 -53.5645 L 66.7969 -53.5645 C 68.1641 -53.5645 69.1406 -54.5898 69.1406 -55.8594 C 69.1406 -57.0801 68.1641 -58.1055 66.7969 -58.1055 L 56.4941 -58.1055 C 55.0781 -58.1055 54.1016 -57.0801 54.1016 -55.8594 C 54.1016 -54.5898 55.0781 -53.5645 56.4941 -53.5645 Z M 33.4473 11.084 C 40.4297 11.084 46.0449 5.46875 46.0449 -1.5625 C 46.0449 -6.44531 43.3105 -10.4492 39.2578 -12.6465 C 37.5977 -13.5254 37.0605 -14.209 37.0605 -16.6992 L 37.0605 -42.1875 C 37.0605 -44.9219 35.498 -46.582 33.4473 -46.582 C 31.3965 -46.582 29.834 -44.9219 29.834 -42.1875 L 29.834 -16.6992 C 29.834 -14.209 29.2969 -13.5254 27.5879 -12.6465 C 23.584 -10.4492 20.8496 -6.44531 20.8496 -1.5625 C 20.8496 5.46875 26.4648 11.084 33.4473 11.084 Z M 56.4941 -39.8438 L 66.7969 -39.8438 C 68.1641 -39.8438 69.1406 -40.918 69.1406 -42.1387 C 69.1406 -43.3594 68.1641 -44.4336 66.7969 -44.4336 L 56.4941 -44.4336 C 55.0781 -44.4336 54.1016 -43.3594 54.1016 -42.1387 C 54.1016 -40.918 55.0781 -39.8438 56.4941 -39.8438 Z M 56.4941 -26.123 L 66.7969 -26.123 C 68.1641 -26.123 69.1406 -27.1973 69.1406 -28.418 C 69.1406 -29.6387 68.1641 -30.7129 66.7969 -30.7129 L 56.4941 -30.7129 C 55.0781 -30.7129 54.1016 -29.6387 54.1016 -28.418 C 54.1016 -27.1973 55.0781 -26.123 56.4941 -26.123 Z"/>
  </g>
  <g id="Thin-M" transform="matrix(1 0 0 1 819.533 1126)">
   <path d="M 32.373 23.1445 C 45.459 23.1445 56.0059 12.5488 56.0059 -0.439453 C 56.0059 -7.42188 53.125 -13.5254 47.168 -18.3594 C 45.8008 -19.4824 45.459 -20.3125 45.459 -22.2656 L 45.5078 -69.1406 C 45.5078 -78.2715 40.332 -84.1797 32.373 -84.1797 C 24.4141 -84.1797 19.2383 -78.2715 19.2383 -69.1406 L 19.2871 -22.2656 C 19.2871 -20.3125 18.9453 -19.4824 17.5293 -18.3594 C 11.5723 -13.5254 8.74023 -7.42188 8.74023 -0.439453 C 8.74023 12.5488 19.2383 23.1445 32.373 23.1445 Z M 32.373 19.8242 C 21.2402 19.8242 12.1094 10.6934 12.1094 -0.439453 C 12.1094 -6.64062 14.7461 -12.3047 20.2637 -16.2109 C 22.0215 -17.4316 22.6562 -18.9453 22.6562 -21.1426 L 22.6562 -68.9941 C 22.6562 -76.3672 26.6113 -80.7617 32.373 -80.7617 C 38.1348 -80.7617 42.041 -76.3672 42.041 -68.9941 L 42.041 -21.1426 C 42.041 -18.9453 42.7246 -17.4316 44.4824 -16.2109 C 50 -12.3047 52.6367 -6.64062 52.6367 -0.439453 C 52.6367 10.6934 43.5059 19.8242 32.373 19.8242 Z M 53.418 -67.0898 L 63.3301 -67.0898 C 64.3066 -67.0898 65.0391 -67.7734 65.0391 -68.6035 C 65.0391 -69.4824 64.3066 -70.166 63.3301 -70.166 L 53.418 -70.166 C 52.4902 -70.166 51.7578 -69.4824 51.7578 -68.6035 C 51.7578 -67.7734 52.4902 -67.0898 53.418 -67.0898 Z M 53.418 -53.3691 L 63.3301 -53.3691 C 64.3066 -53.3691 65.0391 -54.0527 65.0391 -54.8828 C 65.0391 -55.7617 64.3066 -56.4453 63.3301 -56.4453 L 53.418 -56.4453 C 52.4902 -56.4453 51.7578 -55.7617 51.7578 -54.8828 C 51.7578 -54.0527 52.4902 -53.3691 53.418 -53.3691 Z M 32.373 13.2812 C 39.9414 13.2812 45.9961 7.17773 45.9961 -0.439453 C 45.9961 -5.76172 43.0664 -10.1074 38.6719 -12.4512 C 36.8652 -13.4277 36.2793 -14.1602 36.2793 -16.8457 L 36.2793 -41.748 C 36.2793 -44.7754 34.6191 -46.582 32.373 -46.582 C 30.127 -46.582 28.4668 -44.7754 28.4668 -41.748 L 28.4668 -16.8457 C 28.4668 -14.1602 27.8809 -13.4277 26.0742 -12.4512 C 21.6797 -10.1074 18.7012 -5.76172 18.7012 -0.439453 C 18.7012 7.17773 24.8047 13.2812 32.373 13.2812 Z M 53.418 -39.6484 L 63.3301 -39.6484 C 64.3066 -39.6484 65.0391 -40.332 65.0391 -41.2109 C 65.0391 -42.041 64.3066 -42.7246 63.3301 -42.7246 L 53.418 -42.7246 C 52.4902 -42.7246 51.7578 -42.041 51.7578 -41.2109 C 51.7578 -40.332 52.4902 -39.6484 53.418 -39.6484 Z M 53.418 -25.9277 L 63.3301 -25.9277 C 64.3066 -25.9277 65.0391 -26.6113 65.0391 -27.4902 C 65.0391 -28.3203 64.3066 -29.0039 63.3301 -29.0039 L 53.418 -29.0039 C 52.4902 -29.0039 51.7578 -28.3203 51.7578 -27.4902 C 51.7578 -26.6113 52.4902 -25.9277 53.418 -25.9277 Z"/>
  </g>
  <g id="Ultralight-M" transform="matrix(1 0 0 1 523.871 1126)">
   <path d="M 31.8359 23.1445 C 44.6289 23.1445 54.8828 12.793 54.8828 0.146484 C 54.8828 -6.73828 52.0996 -12.6953 46.0938 -17.4316 C 44.6289 -18.6035 44.2383 -19.4824 44.2383 -21.6309 L 44.2871 -69.3848 C 44.2871 -78.1738 39.4043 -83.8379 31.8359 -83.8379 C 24.2676 -83.8379 19.3359 -78.1738 19.3359 -69.3848 L 19.3848 -21.6309 C 19.3848 -19.4824 19.043 -18.6035 17.5293 -17.4316 C 11.5234 -12.6953 8.74023 -6.73828 8.74023 0.146484 C 8.74023 12.793 18.9941 23.1445 31.8359 23.1445 Z M 31.8359 20.8984 C 20.4102 20.8984 11.0352 11.5723 11.0352 0.146484 C 11.0352 -6.10352 13.5742 -11.7676 19.1895 -15.8691 C 20.9961 -17.1387 21.6797 -18.7988 21.6797 -21.0449 L 21.6797 -69.2383 C 21.6797 -77.002 25.8301 -81.4941 31.8359 -81.4941 C 37.8418 -81.4941 41.9434 -77.002 41.9434 -69.2383 L 41.9434 -21.0449 C 41.9434 -18.7988 42.627 -17.1387 44.4336 -15.8691 C 50.0488 -11.7676 52.6367 -6.10352 52.6367 0.146484 C 52.6367 11.5723 43.2617 20.8984 31.8359 20.8984 Z M 51.8555 -66.9922 L 61.5723 -66.9922 C 62.3047 -66.9922 62.9395 -67.4805 62.9395 -68.1152 C 62.9395 -68.7988 62.3047 -69.2871 61.5723 -69.2871 L 51.8555 -69.2871 C 51.123 -69.2871 50.5371 -68.7988 50.5371 -68.1152 C 50.5371 -67.4805 51.123 -66.9922 51.8555 -66.9922 Z M 51.8555 -53.2715 L 61.5723 -53.2715 C 62.3047 -53.2715 62.9395 -53.7598 62.9395 -54.3945 C 62.9395 -55.0781 62.3047 -55.5664 61.5723 -55.5664 L 51.8555 -55.5664 C 51.123 -55.5664 50.5371 -55.0781 50.5371 -54.3945 C 50.5371 -53.7598 51.123 -53.2715 51.8555 -53.2715 Z M 31.8359 14.3555 C 39.6973 14.3555 45.9961 8.05664 45.9961 0.146484 C 45.9961 -5.37109 42.9688 -9.96094 38.3789 -12.4023 C 36.5234 -13.3789 35.8887 -14.1113 35.8887 -16.9434 L 35.8887 -41.5527 C 35.8887 -44.6777 34.1797 -46.582 31.8359 -46.582 C 29.4434 -46.582 27.7344 -44.6777 27.7344 -41.5527 L 27.7344 -16.9434 C 27.7344 -14.1113 27.1484 -13.3789 25.2441 -12.4023 C 20.7031 -9.96094 17.627 -5.37109 17.627 0.146484 C 17.627 8.05664 23.9258 14.3555 31.8359 14.3555 Z M 51.8555 -39.5508 L 61.5723 -39.5508 C 62.3047 -39.5508 62.9395 -40.0391 62.9395 -40.7227 C 62.9395 -41.3574 62.3047 -41.8457 61.5723 -41.8457 L 51.8555 -41.8457 C 51.123 -41.8457 50.5371 -41.3574 50.5371 -40.7227 C 50.5371 -40.0391 51.123 -39.5508 51.8555 -39.5508 Z M 51.8555 -25.8301 L 61.5723 -25.8301 C 62.3047 -25.8301 62.9395 -26.3184 62.9395 -27.002 C 62.9395 -27.6855 62.3047 -28.125 61.5723 -28.125 L 51.8555 -28.125 C 51.123 -28.125 50.5371 -27.6855 50.5371 -27.002 C 50.5371 -26.3184 51.123 -25.8301 51.8555 -25.8301 Z"/>
  </g>
  <g id="Black-S" transform="matrix(1 0 0 1 2895.31 696)">
   <path d="M 32.2754 11.4746 C 46.2402 11.4746 57.6172 0.537109 57.6172 -13.4766 C 57.6172 -20.0684 55.1758 -25.7324 50.6348 -30.2734 C 49.9023 -31.0059 49.7559 -31.3477 49.7559 -32.3242 L 49.8047 -61.9629 C 49.8047 -73.1445 42.6758 -80.6641 32.2754 -80.6641 C 21.7285 -80.6641 14.6484 -73.1445 14.6484 -61.9629 L 14.6973 -32.3242 C 14.6973 -31.3477 14.5508 -30.957 13.8184 -30.2734 C 9.13086 -25.9277 6.83594 -20.0684 6.83594 -13.4766 C 6.83594 0.537109 18.2129 11.4746 32.2754 11.4746 Z M 32.2754 0 C 24.5605 0 18.3594 -6.25 18.3594 -13.9648 C 18.3594 -19.1406 20.7031 -22.9492 24.6582 -25.5371 C 25.7812 -26.2695 26.2207 -26.8555 26.2207 -28.3691 L 26.2207 -61.6699 C 26.2207 -66.1621 28.6621 -69.1406 32.2754 -69.1406 C 35.791 -69.1406 38.2324 -66.1621 38.2324 -61.6699 L 38.2324 -28.3691 C 38.2324 -26.8555 38.6719 -26.2695 39.7949 -25.5371 C 43.75 -22.9492 46.0938 -19.1406 46.0938 -13.9648 C 46.0938 -6.25 39.8926 0 32.2754 0 Z M 57.5684 -61.5234 L 66.4551 -61.5234 C 68.2129 -61.5234 69.3359 -62.7441 69.3359 -64.3555 C 69.3359 -65.9668 68.2129 -67.1875 66.4551 -67.1875 L 57.5684 -67.1875 C 55.8105 -67.1875 54.6875 -65.9668 54.6875 -64.3555 C 54.6875 -62.7441 55.8105 -61.5234 57.5684 -61.5234 Z M 57.5684 -51.5137 L 66.4551 -51.5137 C 68.2129 -51.5137 69.3359 -52.7344 69.3359 -54.3457 C 69.3359 -55.957 68.2129 -57.1777 66.4551 -57.1777 L 57.5684 -57.1777 C 55.8105 -57.1777 54.6875 -55.957 54.6875 -54.3457 C 54.6875 -52.7344 55.8105 -51.5137 57.5684 -51.5137 Z M 57.5684 -41.2598 L 66.4551 -41.2598 C 68.2129 -41.2598 69.3359 -42.4805 69.3359 -44.0918 C 69.3359 -45.7031 68.2129 -46.9238 66.4551 -46.9238 L 57.5684 -46.9238 C 55.8105 -46.9238 54.6875 -45.7031 54.6875 -44.0918 C 54.6875 -42.4805 55.8105 -41.2598 57.5684 -41.2598 Z M 32.2266 -5.17578 C 37.0605 -5.17578 40.9668 -9.08203 40.9668 -13.9648 C 40.9668 -17.334 39.0625 -20.1172 36.2793 -21.6309 C 35.1074 -22.2656 34.7168 -22.7051 34.7168 -24.4629 L 34.7168 -40.5762 C 34.7168 -42.4316 33.5938 -43.5547 32.2266 -43.5547 C 30.8594 -43.5547 29.7363 -42.4316 29.7363 -40.5762 L 29.7363 -24.4629 C 29.7363 -22.7051 29.3457 -22.2656 28.1738 -21.6309 C 25.3906 -20.1172 23.4863 -17.334 23.4863 -13.9648 C 23.4863 -9.08203 27.3926 -5.17578 32.2266 -5.17578 Z M 57.5684 -31.0059 L 66.4551 -31.0059 C 68.2129 -31.0059 69.3359 -32.2266 69.3359 -33.8379 C 69.3359 -35.4492 68.2129 -36.6699 66.4551 -36.6699 L 57.5684 -36.6699 C 55.8105 -36.6699 54.6875 -35.4492 54.6875 -33.8379 C 54.6875 -32.2266 55.8105 -31.0059 57.5684 -31.0059 Z"/>
  </g>
  <g id="Heavy-S" transform="matrix(1 0 0 1 2599.92 696)">
   <path d="M 31.1035 11.2305 C 44.3848 11.2305 55.2734 0.732422 55.2734 -12.6465 C 55.2734 -19.043 52.832 -24.6094 48.291 -29.0527 C 47.5098 -29.7852 47.3633 -30.1758 47.3633 -31.1523 L 47.4121 -61.7676 C 47.4121 -72.2168 40.7715 -79.248 31.1035 -79.248 C 21.2402 -79.248 14.6484 -72.2168 14.6484 -61.7676 L 14.6973 -31.1523 C 14.6973 -30.1758 14.5508 -29.7363 13.8184 -29.0527 C 9.17969 -24.7559 6.83594 -19.043 6.83594 -12.6465 C 6.83594 0.732422 17.6758 11.2305 31.1035 11.2305 Z M 31.1035 0.976562 C 23.3398 0.976562 17.1387 -5.27344 17.1387 -12.9883 C 17.1387 -18.0664 19.4824 -22.0215 23.4375 -24.6094 C 24.5605 -25.3418 25 -25.9277 25 -27.4414 L 25 -61.4746 C 25 -65.9668 27.4902 -68.9453 31.1035 -68.9453 C 34.6191 -68.9453 37.0605 -65.9668 37.0605 -61.4746 L 37.0605 -27.4414 C 37.0605 -25.9277 37.5 -25.3418 38.623 -24.6094 C 42.5781 -22.0215 44.9219 -18.0664 44.9219 -12.9883 C 44.9219 -5.27344 38.7207 0.976562 31.1035 0.976562 Z M 55.127 -61.2793 L 63.916 -61.2793 C 65.5762 -61.2793 66.6992 -62.5 66.6992 -64.0625 C 66.6992 -65.5762 65.5762 -66.7969 63.916 -66.7969 L 55.127 -66.7969 C 53.418 -66.7969 52.2949 -65.5762 52.2949 -64.0625 C 52.2949 -62.5 53.418 -61.2793 55.127 -61.2793 Z M 55.127 -51.123 L 63.916 -51.123 C 65.5762 -51.123 66.6992 -52.2949 66.6992 -53.8574 C 66.6992 -55.4199 65.5762 -56.5918 63.916 -56.5918 L 55.127 -56.5918 C 53.418 -56.5918 52.2949 -55.4199 52.2949 -53.8574 C 52.2949 -52.2949 53.418 -51.123 55.127 -51.123 Z M 55.127 -40.7227 L 63.916 -40.7227 C 65.5762 -40.7227 66.6992 -41.9434 66.6992 -43.5059 C 66.6992 -45.0195 65.5762 -46.2402 63.916 -46.2402 L 55.127 -46.2402 C 53.418 -46.2402 52.2949 -45.0195 52.2949 -43.5059 C 52.2949 -41.9434 53.418 -40.7227 55.127 -40.7227 Z M 31.0547 -4.19922 C 35.8887 -4.19922 39.7949 -8.10547 39.7949 -12.9883 C 39.7949 -16.4062 37.8906 -19.1895 35.1074 -20.7031 C 33.9355 -21.3379 33.5449 -21.7773 33.5449 -23.5352 L 33.5449 -40.7227 C 33.5449 -42.5781 32.4219 -43.7012 31.0547 -43.7012 C 29.6875 -43.7012 28.5645 -42.5781 28.5645 -40.7227 L 28.5645 -23.5352 C 28.5645 -21.7773 28.1738 -21.3379 27.002 -20.7031 C 24.1699 -19.1895 22.2656 -16.4062 22.2656 -12.9883 C 22.2656 -8.10547 26.1719 -4.19922 31.0547 -4.19922 Z M 55.127 -30.3711 L 63.916 -30.3711 C 65.5762 -30.3711 66.6992 -31.5918 66.6992 -33.1055 C 66.6992 -34.668 65.5762 -35.8887 63.916 -35.8887 L 55.127 -35.8887 C 53.418 -35.8887 52.2949 -34.668 52.2949 -33.1055 C 52.2949 -31.5918 53.418 -30.3711 55.127 -30.3711 Z"/>
  </g>
  <g id="Bold-S" transform="matrix(1 0 0 1 2304.7 696)">
   <path d="M 29.7852 10.9863 C 42.3828 10.9863 52.5879 0.976562 52.5879 -11.6699 C 52.5879 -17.9199 50.1953 -23.3398 45.6055 -27.7344 C 44.873 -28.418 44.7266 -28.8086 44.7266 -29.7852 L 44.7754 -61.5234 C 44.7754 -71.1914 38.6719 -77.6855 29.7852 -77.6855 C 20.752 -77.6855 14.6484 -71.1914 14.6484 -61.5234 L 14.6973 -29.7852 C 14.6973 -28.8086 14.5508 -28.418 13.8184 -27.7344 C 9.17969 -23.4375 6.83594 -17.9199 6.83594 -11.6699 C 6.83594 0.976562 17.0898 10.9863 29.7852 10.9863 Z M 29.7852 2.09961 C 22.0215 2.09961 15.7715 -4.19922 15.7715 -11.9141 C 15.7715 -16.8945 18.1152 -20.9473 22.0703 -23.5352 C 23.2422 -24.2676 23.6816 -24.9023 23.6816 -26.416 L 23.6816 -61.2305 C 23.6816 -65.7227 26.123 -68.75 29.7852 -68.75 C 33.3008 -68.75 35.791 -65.7227 35.791 -61.2305 L 35.791 -26.416 C 35.791 -24.9023 36.2305 -24.2676 37.3535 -23.5352 C 41.3086 -20.9473 43.6523 -16.8945 43.6523 -11.9141 C 43.6523 -4.19922 37.4023 2.09961 29.7852 2.09961 Z M 52.3438 -61.0352 L 61.0352 -61.0352 C 62.6465 -61.0352 63.7207 -62.207 63.7207 -63.6719 C 63.7207 -65.1367 62.6465 -66.3574 61.0352 -66.3574 L 52.3438 -66.3574 C 50.7324 -66.3574 49.6582 -65.1367 49.6582 -63.6719 C 49.6582 -62.207 50.7324 -61.0352 52.3438 -61.0352 Z M 52.3438 -50.6348 L 61.0352 -50.6348 C 62.6465 -50.6348 63.7207 -51.8555 63.7207 -53.3203 C 63.7207 -54.7852 62.6465 -55.957 61.0352 -55.957 L 52.3438 -55.957 C 50.7324 -55.957 49.6582 -54.7852 49.6582 -53.3203 C 49.6582 -51.8555 50.7324 -50.6348 52.3438 -50.6348 Z M 52.3438 -40.1367 L 61.0352 -40.1367 C 62.6465 -40.1367 63.7207 -41.3574 63.7207 -42.8223 C 63.7207 -44.2871 62.6465 -45.459 61.0352 -45.459 L 52.3438 -45.459 C 50.7324 -45.459 49.6582 -44.2871 49.6582 -42.8223 C 49.6582 -41.3574 50.7324 -40.1367 52.3438 -40.1367 Z M 29.7363 -3.07617 C 34.5703 -3.07617 38.5254 -7.03125 38.5254 -11.9629 C 38.5254 -15.332 36.6211 -18.1641 33.7891 -19.6777 C 32.6172 -20.3125 32.2266 -20.752 32.2266 -22.5098 L 32.2266 -40.8203 C 32.2266 -42.7246 31.1035 -43.8477 29.7363 -43.8477 C 28.3203 -43.8477 27.1973 -42.7246 27.1973 -40.8203 L 27.1973 -22.5098 C 27.1973 -20.752 26.8066 -20.3125 25.6348 -19.6777 C 22.8516 -18.1641 20.8984 -15.332 20.8984 -11.9629 C 20.8984 -7.03125 24.8535 -3.07617 29.7363 -3.07617 Z M 52.3438 -29.6387 L 61.0352 -29.6387 C 62.6465 -29.6387 63.7207 -30.8594 63.7207 -32.3242 C 63.7207 -33.7891 62.6465 -34.9609 61.0352 -34.9609 L 52.3438 -34.9609 C 50.7324 -34.9609 49.6582 -33.7891 49.6582 -32.3242 C 49.6582 -30.8594 50.7324 -29.6387 52.3438 -29.6387 Z"/>
  </g>
  <g id="Semibold-S" transform="matrix(1 0 0 1 2009.01 696)">
   <path d="M 28.8574 10.791 C 40.9668 10.791 50.7812 1.12305 50.7812 -11.0352 C 50.7812 -17.1387 48.3398 -22.4609 43.7988 -26.8066 C 43.0664 -27.4902 42.9199 -27.8809 42.9199 -28.9062 L 42.9688 -61.3281 C 42.9688 -70.459 37.2559 -76.6113 28.8574 -76.6113 C 20.3613 -76.6113 14.6484 -70.459 14.6484 -61.3281 L 14.6973 -28.9062 C 14.6973 -27.8809 14.5508 -27.4902 13.8184 -26.8066 C 9.22852 -22.5586 6.83594 -17.1387 6.83594 -11.0352 C 6.83594 1.12305 16.6504 10.791 28.8574 10.791 Z M 28.8574 2.83203 C 21.0938 2.83203 14.8438 -3.4668 14.8438 -11.1816 C 14.8438 -16.0645 17.1875 -20.2148 21.1426 -22.8027 C 22.3145 -23.584 22.7539 -24.1699 22.7539 -25.6836 L 22.7539 -61.0352 C 22.7539 -65.5762 25.1953 -68.6035 28.8574 -68.6035 C 32.4219 -68.6035 34.8633 -65.5762 34.8633 -61.0352 L 34.8633 -25.6836 C 34.8633 -24.1699 35.3516 -23.584 36.4746 -22.8027 C 40.4297 -20.2148 42.7734 -16.0645 42.7734 -11.1816 C 42.7734 -3.4668 36.5234 2.83203 28.8574 2.83203 Z M 50.4883 -60.8398 L 59.0332 -60.8398 C 60.6445 -60.8398 61.6699 -62.0117 61.6699 -63.4277 C 61.6699 -64.8438 60.6445 -66.0645 59.0332 -66.0645 L 50.4883 -66.0645 C 48.877 -66.0645 47.8516 -64.8438 47.8516 -63.4277 C 47.8516 -62.0117 48.877 -60.8398 50.4883 -60.8398 Z M 50.4883 -50.3418 L 59.0332 -50.3418 C 60.6445 -50.3418 61.6699 -51.5137 61.6699 -52.9297 C 61.6699 -54.3457 60.6445 -55.5664 59.0332 -55.5664 L 50.4883 -55.5664 C 48.877 -55.5664 47.8516 -54.3457 47.8516 -52.9297 C 47.8516 -51.5137 48.877 -50.3418 50.4883 -50.3418 Z M 50.4883 -39.7461 L 59.0332 -39.7461 C 60.6445 -39.7461 61.6699 -40.918 61.6699 -42.334 C 61.6699 -43.75 60.6445 -44.9707 59.0332 -44.9707 L 50.4883 -44.9707 C 48.877 -44.9707 47.8516 -43.75 47.8516 -42.334 C 47.8516 -40.918 48.877 -39.7461 50.4883 -39.7461 Z M 28.8086 -2.34375 C 33.6914 -2.34375 37.6465 -6.29883 37.6465 -11.2305 C 37.6465 -14.5996 35.6934 -17.4316 32.9102 -18.9453 C 31.7383 -19.5801 31.3477 -20.0195 31.3477 -21.8262 L 31.3477 -40.918 C 31.3477 -42.8223 30.1758 -43.9453 28.8086 -43.9453 C 27.4414 -43.9453 26.3184 -42.8223 26.3184 -40.918 L 26.3184 -21.8262 C 26.3184 -20.0195 25.8789 -19.5801 24.707 -18.9453 C 21.9238 -17.4316 19.9707 -14.5996 19.9707 -11.2305 C 19.9707 -6.29883 23.9258 -2.34375 28.8086 -2.34375 Z M 50.4883 -29.1504 L 59.0332 -29.1504 C 60.6445 -29.1504 61.6699 -30.3711 61.6699 -31.7871 C 61.6699 -33.2031 60.6445 -34.375 59.0332 -34.375 L 50.4883 -34.375 C 48.877 -34.375 47.8516 -33.2031 47.8516 -31.7871 C 47.8516 -30.3711 48.877 -29.1504 50.4883 -29.1504 Z"/>
  </g>
  <g id="Medium-S" transform="matrix(1 0 0 1 1713.08 696)">
   <path d="M 28.1738 10.6934 C 39.8926 10.6934 49.4141 1.2207 49.4141 -10.5469 C 49.4141 -16.5527 46.9727 -21.8262 42.4316 -26.0742 C 41.6504 -26.8066 41.5039 -27.1973 41.5039 -28.1738 L 41.5527 -61.1816 C 41.5527 -69.9219 36.1328 -75.7812 28.1738 -75.7812 C 20.1172 -75.7812 14.6484 -69.9219 14.6484 -61.1816 L 14.6973 -28.1738 C 14.6973 -27.1973 14.5508 -26.8066 13.8184 -26.0742 C 9.22852 -21.875 6.83594 -16.5527 6.83594 -10.5469 C 6.83594 1.2207 16.3574 10.6934 28.1738 10.6934 Z M 28.1738 3.41797 C 20.4102 3.41797 14.1602 -2.88086 14.1602 -10.5957 C 14.1602 -15.4297 16.4551 -19.6777 20.459 -22.2656 C 21.582 -22.998 22.0215 -23.6328 22.0215 -25.1465 L 22.0215 -60.9375 C 22.0215 -65.4785 24.5117 -68.457 28.1738 -68.457 C 31.7383 -68.457 34.2285 -65.4785 34.2285 -60.9375 L 34.2285 -25.1465 C 34.2285 -23.6328 34.668 -22.998 35.791 -22.2656 C 39.7461 -19.6777 42.0898 -15.4297 42.0898 -10.5957 C 42.0898 -2.88086 35.8398 3.41797 28.1738 3.41797 Z M 49.0234 -60.6934 L 57.5684 -60.6934 C 59.1309 -60.6934 60.1074 -61.8652 60.1074 -63.2812 C 60.1074 -64.6484 59.1309 -65.8203 57.5684 -65.8203 L 49.0234 -65.8203 C 47.4609 -65.8203 46.4355 -64.6484 46.4355 -63.2812 C 46.4355 -61.8652 47.4609 -60.6934 49.0234 -60.6934 Z M 49.0234 -50.0977 L 57.5684 -50.0977 C 59.1309 -50.0977 60.1074 -51.2695 60.1074 -52.6367 C 60.1074 -54.0527 59.1309 -55.2246 57.5684 -55.2246 L 49.0234 -55.2246 C 47.4609 -55.2246 46.4355 -54.0527 46.4355 -52.6367 C 46.4355 -51.2695 47.4609 -50.0977 49.0234 -50.0977 Z M 49.0234 -39.4531 L 57.5684 -39.4531 C 59.1309 -39.4531 60.1074 -40.625 60.1074 -41.9922 C 60.1074 -43.3594 59.1309 -44.5801 57.5684 -44.5801 L 49.0234 -44.5801 C 47.4609 -44.5801 46.4355 -43.3594 46.4355 -41.9922 C 46.4355 -40.625 47.4609 -39.4531 49.0234 -39.4531 Z M 28.125 -1.75781 C 33.0078 -1.75781 36.9629 -5.71289 36.9629 -10.6445 C 36.9629 -14.0625 35.0586 -16.8945 32.2266 -18.4082 C 31.0547 -19.043 30.6152 -19.4824 30.6152 -21.2891 L 30.6152 -41.0156 C 30.6152 -42.8711 29.4922 -44.043 28.125 -44.043 C 26.709 -44.043 25.5859 -42.8711 25.5859 -41.0156 L 25.5859 -21.2891 C 25.5859 -19.4824 25.1953 -19.043 24.0234 -18.4082 C 21.1914 -16.8945 19.2871 -14.0625 19.2871 -10.6445 C 19.2871 -5.71289 23.2422 -1.75781 28.125 -1.75781 Z M 49.0234 -28.8086 L 57.5684 -28.8086 C 59.1309 -28.8086 60.1074 -29.9805 60.1074 -31.3477 C 60.1074 -32.7148 59.1309 -33.8867 57.5684 -33.8867 L 49.0234 -33.8867 C 47.4609 -33.8867 46.4355 -32.7148 46.4355 -31.3477 C 46.4355 -29.9805 47.4609 -28.8086 49.0234 -28.8086 Z"/>
  </g>
  <g id="Regular-S" transform="matrix(1 0 0 1 1417.37 696)">
   <path d="M 27.2461 10.498 C 38.4766 10.498 47.6074 1.36719 47.6074 -9.86328 C 47.6074 -15.7715 45.166 -20.9473 40.625 -25.1953 C 39.8438 -25.8789 39.6973 -26.2695 39.6973 -27.2949 L 39.7461 -61.0352 C 39.7461 -69.2383 34.7168 -74.707 27.2461 -74.707 C 19.7266 -74.707 14.6973 -69.2383 14.6973 -61.0352 L 14.7461 -27.2949 C 14.7461 -26.2695 14.5508 -25.8789 13.8184 -25.1953 C 9.27734 -20.9473 6.83594 -15.7715 6.83594 -9.86328 C 6.83594 1.36719 15.9668 10.498 27.2461 10.498 Z M 27.2461 4.15039 C 19.4824 4.15039 13.2324 -2.14844 13.2324 -9.86328 C 13.2324 -14.6484 15.5273 -18.9453 19.5312 -21.5332 C 20.6543 -22.3145 21.0938 -22.9004 21.0938 -24.4629 L 21.0938 -60.7422 C 21.0938 -65.332 23.584 -68.3594 27.2461 -68.3594 C 30.8594 -68.3594 33.3008 -65.332 33.3008 -60.7422 L 33.3008 -24.4629 C 33.3008 -22.9004 33.7891 -22.3145 34.9121 -21.5332 C 38.8672 -18.9453 41.2109 -14.6484 41.2109 -9.86328 C 41.2109 -2.14844 34.9609 4.15039 27.2461 4.15039 Z M 47.168 -60.5469 L 55.6152 -60.5469 C 57.1289 -60.5469 58.1055 -61.7188 58.1055 -63.0371 C 58.1055 -64.3555 57.1289 -65.5273 55.6152 -65.5273 L 47.168 -65.5273 C 45.6543 -65.5273 44.6289 -64.3555 44.6289 -63.0371 C 44.6289 -61.7188 45.6543 -60.5469 47.168 -60.5469 Z M 47.168 -49.8047 L 55.6152 -49.8047 C 57.1289 -49.8047 58.1055 -50.9766 58.1055 -52.2949 C 58.1055 -53.6133 57.1289 -54.7852 55.6152 -54.7852 L 47.168 -54.7852 C 45.6543 -54.7852 44.6289 -53.6133 44.6289 -52.2949 C 44.6289 -50.9766 45.6543 -49.8047 47.168 -49.8047 Z M 27.1973 -1.02539 C 32.1289 -1.02539 36.084 -4.98047 36.084 -9.91211 C 36.084 -13.3301 34.1309 -16.1621 31.3477 -17.7246 C 30.127 -18.3594 29.7363 -18.7988 29.7363 -20.5566 L 29.7363 -41.1133 C 29.7363 -43.0176 28.6133 -44.1406 27.1973 -44.1406 C 25.8301 -44.1406 24.707 -43.0176 24.707 -41.1133 L 24.707 -20.5566 C 24.707 -18.7988 24.3164 -18.3594 23.0957 -17.7246 C 20.2637 -16.1621 18.3594 -13.3301 18.3594 -9.91211 C 18.3594 -4.98047 22.3145 -1.02539 27.1973 -1.02539 Z M 47.168 -39.0625 L 55.6152 -39.0625 C 57.1289 -39.0625 58.1055 -40.2344 58.1055 -41.5527 C 58.1055 -42.8711 57.1289 -44.043 55.6152 -44.043 L 47.168 -44.043 C 45.6543 -44.043 44.6289 -42.8711 44.6289 -41.5527 C 44.6289 -40.2344 45.6543 -39.0625 47.168 -39.0625 Z M 47.168 -28.3203 L 55.6152 -28.3203 C 57.1289 -28.3203 58.1055 -29.4922 58.1055 -30.8105 C 58.1055 -32.1289 57.1289 -33.3008 55.6152 -33.3008 L 47.168 -33.3008 C 45.6543 -33.3008 44.6289 -32.1289 44.6289 -30.8105 C 44.6289 -29.4922 45.6543 -28.3203 47.168 -28.3203 Z"/>
  </g>
  <g id="Light-S" transform="matrix(1 0 0 1 1122.03 696)">
   <path d="M 26.5137 10.498 C 37.4023 10.498 46.1426 1.70898 46.1426 -9.13086 C 46.1426 -14.8438 43.7988 -19.9219 39.209 -23.9746 C 38.3301 -24.707 38.1348 -25.2441 38.1348 -26.4648 L 38.1836 -61.3281 C 38.1836 -69.1406 33.4961 -74.2676 26.5137 -74.2676 C 19.4824 -74.2676 14.8438 -69.1406 14.8438 -61.3281 L 14.8926 -26.4648 C 14.8926 -25.2441 14.6484 -24.707 13.7695 -23.9746 C 9.17969 -19.9219 6.83594 -14.8438 6.83594 -9.13086 C 6.83594 1.70898 15.625 10.498 26.5137 10.498 Z M 26.5137 5.61523 C 18.4082 5.61523 11.7676 -1.02539 11.7676 -9.13086 C 11.7676 -13.916 14.0137 -18.2617 18.1152 -21.0938 C 19.3359 -21.9238 19.8242 -22.7539 19.8242 -24.3652 L 19.8242 -61.084 C 19.8242 -66.1621 22.5586 -69.3359 26.5137 -69.3359 C 30.4688 -69.3359 33.1543 -66.1621 33.1543 -61.084 L 33.1543 -24.3652 C 33.1543 -22.7539 33.6426 -21.9238 34.8633 -21.0938 C 38.9648 -18.2617 41.2109 -13.916 41.2109 -9.13086 C 41.2109 -1.02539 34.6191 5.61523 26.5137 5.61523 Z M 45.1172 -60.4004 L 53.3203 -60.4004 C 54.541 -60.4004 55.3711 -61.3281 55.3711 -62.4023 C 55.3711 -63.4766 54.541 -64.4043 53.3203 -64.4043 L 45.1172 -64.4043 C 43.8965 -64.4043 43.0664 -63.4766 43.0664 -62.4023 C 43.0664 -61.3281 43.8965 -60.4004 45.1172 -60.4004 Z M 45.1172 -49.6582 L 53.3203 -49.6582 C 54.541 -49.6582 55.3711 -50.5859 55.3711 -51.6602 C 55.3711 -52.7344 54.541 -53.6621 53.3203 -53.6621 L 45.1172 -53.6621 C 43.8965 -53.6621 43.0664 -52.7344 43.0664 -51.6602 C 43.0664 -50.5859 43.8965 -49.6582 45.1172 -49.6582 Z M 26.5137 0.439453 C 31.7871 0.439453 36.084 -3.80859 36.084 -9.17969 C 36.084 -12.8906 33.9844 -15.918 30.9082 -17.5781 C 29.6387 -18.2617 29.248 -18.75 29.248 -20.6543 L 29.248 -40.8203 C 29.248 -42.8711 28.0273 -44.1406 26.5137 -44.1406 C 24.9512 -44.1406 23.7793 -42.8711 23.7793 -40.8203 L 23.7793 -20.6543 C 23.7793 -18.75 23.3398 -18.2617 22.0703 -17.5781 C 18.9941 -15.918 16.9434 -12.8906 16.9434 -9.17969 C 16.9434 -3.80859 21.1914 0.439453 26.5137 0.439453 Z M 45.1172 -38.916 L 53.3203 -38.916 C 54.541 -38.916 55.3711 -39.8438 55.3711 -40.918 C 55.3711 -41.9922 54.541 -42.9199 53.3203 -42.9199 L 45.1172 -42.9199 C 43.8965 -42.9199 43.0664 -41.9922 43.0664 -40.918 C 43.0664 -39.8438 43.8965 -38.916 45.1172 -38.916 Z M 45.1172 -28.1738 L 53.3203 -28.1738 C 54.541 -28.1738 55.3711 -29.1016 55.3711 -30.1758 C 55.3711 -31.25 54.541 -32.1777 53.3203 -32.1777 L 45.1172 -32.1777 C 43.8965 -32.1777 43.0664 -31.25 43.0664 -30.1758 C 43.0664 -29.1016 43.8965 -28.1738 45.1172 -28.1738 Z"/>
  </g>
  <g id="Thin-S" transform="matrix(1 0 0 1 827.15 696)">
   <path d="M 25.5859 10.498 C 35.9375 10.498 44.2871 2.09961 44.2871 -8.20312 C 44.2871 -13.6719 41.9922 -18.5059 37.3535 -22.3633 C 36.2793 -23.2422 36.0352 -23.8281 36.0352 -25.3418 L 36.084 -61.7188 C 36.084 -68.9941 31.9336 -73.7305 25.5859 -73.7305 C 19.1895 -73.7305 14.9902 -68.9941 14.9902 -61.7188 L 15.0391 -25.3418 C 15.0391 -23.8281 14.7949 -23.2422 13.7695 -22.3633 C 9.08203 -18.5059 6.83594 -13.6719 6.83594 -8.20312 C 6.83594 2.09961 15.1855 10.498 25.5859 10.498 Z M 25.5859 7.4707 C 16.9434 7.4707 9.91211 0.439453 9.91211 -8.20312 C 9.91211 -13.0371 11.9629 -17.4316 16.2598 -20.459 C 17.627 -21.4355 18.1152 -22.5098 18.1152 -24.2188 L 18.1152 -61.5723 C 18.1152 -67.2363 21.1426 -70.6055 25.5859 -70.6055 C 29.9805 -70.6055 33.0078 -67.2363 33.0078 -61.5723 L 33.0078 -24.2188 C 33.0078 -22.5098 33.4961 -21.4355 34.8633 -20.459 C 39.1113 -17.4316 41.2109 -13.0371 41.2109 -8.20312 C 41.2109 0.439453 34.1797 7.4707 25.5859 7.4707 Z M 42.4316 -60.2051 L 50.2441 -60.2051 C 51.0742 -60.2051 51.709 -60.8398 51.709 -61.5723 C 51.709 -62.3047 51.0742 -62.8906 50.2441 -62.8906 L 42.4316 -62.8906 C 41.6016 -62.8906 40.9668 -62.3047 40.9668 -61.5723 C 40.9668 -60.8398 41.6016 -60.2051 42.4316 -60.2051 Z M 42.4316 -49.4629 L 50.2441 -49.4629 C 51.0742 -49.4629 51.709 -50.0977 51.709 -50.8301 C 51.709 -51.5625 51.0742 -52.1484 50.2441 -52.1484 L 42.4316 -52.1484 C 41.6016 -52.1484 40.9668 -51.5625 40.9668 -50.8301 C 40.9668 -50.0977 41.6016 -49.4629 42.4316 -49.4629 Z M 25.5371 2.34375 C 31.3965 2.34375 36.0352 -2.34375 36.0352 -8.20312 C 36.0352 -12.2559 33.7891 -15.625 30.4199 -17.4316 C 29.0039 -18.1641 28.5645 -18.75 28.5645 -20.8008 L 28.5645 -40.4297 C 28.5645 -42.7246 27.2949 -44.1406 25.5371 -44.1406 C 23.8281 -44.1406 22.5586 -42.7246 22.5586 -40.4297 L 22.5586 -20.8008 C 22.5586 -18.75 22.0703 -18.1641 20.7031 -17.4316 C 17.334 -15.625 15.0391 -12.2559 15.0391 -8.20312 C 15.0391 -2.34375 19.7266 2.34375 25.5371 2.34375 Z M 42.4316 -38.7207 L 50.2441 -38.7207 C 51.0742 -38.7207 51.709 -39.3555 51.709 -40.0879 C 51.709 -40.8203 51.0742 -41.4062 50.2441 -41.4062 L 42.4316 -41.4062 C 41.6016 -41.4062 40.9668 -40.8203 40.9668 -40.0879 C 40.9668 -39.3555 41.6016 -38.7207 42.4316 -38.7207 Z M 42.4316 -27.9785 L 50.2441 -27.9785 C 51.0742 -27.9785 51.709 -28.6133 51.709 -29.3457 C 51.709 -30.0781 51.0742 -30.6641 50.2441 -30.6641 L 42.4316 -30.6641 C 41.6016 -30.6641 40.9668 -30.0781 40.9668 -29.3457 C 40.9668 -28.6133 41.6016 -27.9785 42.4316 -27.9785 Z"/>
  </g>
  <g id="Ultralight-S" transform="matrix(1 0 0 1 531.366 696)">
   <path d="M 25.0488 10.498 C 35.2051 10.498 43.3105 2.34375 43.3105 -7.66602 C 43.3105 -13.0859 41.0645 -17.7734 36.377 -21.5332 C 35.2539 -22.4609 34.9609 -23.0957 34.9609 -24.7559 L 35.0098 -61.9141 C 35.0098 -68.8965 31.1035 -73.3887 25.0488 -73.3887 C 19.043 -73.3887 15.1367 -68.8965 15.1367 -61.9141 L 15.1855 -24.7559 C 15.1855 -23.0957 14.8926 -22.4609 13.7207 -21.5332 C 9.0332 -17.7734 6.83594 -13.0859 6.83594 -7.66602 C 6.83594 2.34375 14.9414 10.498 25.0488 10.498 Z M 25.0488 8.44727 C 16.2109 8.44727 8.93555 1.17188 8.93555 -7.66602 C 8.93555 -12.5488 10.9375 -16.9922 15.2832 -20.1172 C 16.6992 -21.1426 17.2363 -22.4121 17.2363 -24.1211 L 17.2363 -61.8164 C 17.2363 -67.7734 20.4102 -71.2891 25.0488 -71.2891 C 29.6875 -71.2891 32.8613 -67.7734 32.8613 -61.8164 L 32.8613 -24.1211 C 32.8613 -22.4121 33.3984 -21.1426 34.8145 -20.1172 C 39.209 -16.9922 41.2109 -12.5488 41.2109 -7.66602 C 41.2109 1.17188 33.9355 8.44727 25.0488 8.44727 Z M 41.0156 -60.1074 L 48.6816 -60.1074 C 49.3164 -60.1074 49.8535 -60.5469 49.8535 -61.1328 C 49.8535 -61.7188 49.3164 -62.1582 48.6816 -62.1582 L 41.0156 -62.1582 C 40.4297 -62.1582 39.8926 -61.7188 39.8926 -61.1328 C 39.8926 -60.5469 40.4297 -60.1074 41.0156 -60.1074 Z M 41.0156 -49.3652 L 48.6816 -49.3652 C 49.3164 -49.3652 49.8535 -49.8047 49.8535 -50.3906 C 49.8535 -50.9766 49.3164 -51.416 48.6816 -51.416 L 41.0156 -51.416 C 40.4297 -51.416 39.8926 -50.9766 39.8926 -50.3906 C 39.8926 -49.8047 40.4297 -49.3652 41.0156 -49.3652 Z M 25.0488 3.32031 C 31.1523 3.32031 36.0352 -1.5625 36.0352 -7.66602 C 36.0352 -11.9141 33.6914 -15.4785 30.127 -17.334 C 28.7109 -18.1152 28.2227 -18.7012 28.2227 -20.8984 L 28.2227 -40.2344 C 28.2227 -42.627 26.9043 -44.1406 25.0488 -44.1406 C 23.2422 -44.1406 21.9238 -42.627 21.9238 -40.2344 L 21.9238 -20.8984 C 21.9238 -18.7012 21.4355 -18.1152 19.9707 -17.334 C 16.4551 -15.4785 14.1113 -11.9141 14.1113 -7.66602 C 14.1113 -1.5625 18.9941 3.32031 25.0488 3.32031 Z M 41.0156 -38.623 L 48.6816 -38.623 C 49.3164 -38.623 49.8535 -39.0625 49.8535 -39.6484 C 49.8535 -40.2344 49.3164 -40.6738 48.6816 -40.6738 L 41.0156 -40.6738 C 40.4297 -40.6738 39.8926 -40.2344 39.8926 -39.6484 C 39.8926 -39.0625 40.4297 -38.623 41.0156 -38.623 Z M 41.0156 -27.8809 L 48.6816 -27.8809 C 49.3164 -27.8809 49.8535 -28.3203 49.8535 -28.9062 C 49.8535 -29.4922 49.3164 -29.9316 48.6816 -29.9316 L 41.0156 -29.9316 C 40.4297 -29.9316 39.8926 -29.4922 39.8926 -28.9062 C 39.8926 -28.3203 40.4297 -27.8809 41.0156 -27.8809 Z"/>
  </g>
 </g>
</svg>
